<?xml version="1.0" encoding="UTF-8" standalone="no"?>
<!DOCTYPE svg PUBLIC "-//W3C//DTD SVG 1.1//EN"
 "http://www.w3.org/Graphics/SVG/1.1/DTD/svg11.dtd">
<!-- Generated by graphviz version 14.1.2 (20260124.0452)
 -->
<!-- Title: depicture_menu/src/core/cs_binding/types/ConfigArg.def Pages: 1 -->
<!--zoomable 488 -->

<svg id="main" version="1.1" xmlns="http://www.w3.org/2000/svg" xmlns:xlink="http://www.w3.org/1999/xlink" xml:space="preserve" onload="init(evt)">

<style type="text/css"><![CDATA[
.node, .edge {opacity: 0.7;}
.node.selected, .edge.selected {opacity: 1;}
.edge:hover path { stroke: red; }
.edge:hover polygon { stroke: red; fill: red; }
]]></style>

<defs>
  <circle id="rim" cx="0" cy="0" r="7"/>
  <circle id="rim2" cx="0" cy="0" r="3.5"/>
  <g id="zoomPlus">
    <use xlink:href="#rim" fill="#404040"><set attributeName="fill" to="#808080" begin="zoomplus.mouseover" end="zoomplus.mouseout"/></use>
    <path d="M-4,0h8M0,-4v8" fill="none" stroke="white" stroke-width="1.5" pointer-events="none"/>
  </g>
  <g id="zoomMin">
    <use xlink:href="#rim" fill="#404040"><set attributeName="fill" to="#808080" begin="zoomminus.mouseover" end="zoomminus.mouseout"/></use>
    <path d="M-4,0h8" fill="none" stroke="white" stroke-width="1.5" pointer-events="none"/>
  </g>
  <g id="arrowUp" transform="translate(30 24)">
    <use xlink:href="#rim"/>
    <path pointer-events="none" fill="none" stroke="white" stroke-width="1.5" d="M0,-3.0v7 M-2.5,-0.5L0,-3.0L2.5,-0.5"/>
  </g>
  <g id="arrowRight" transform="rotate(90) translate(36 -43)">
    <use xlink:href="#rim"/>
    <path pointer-events="none" fill="none" stroke="white" stroke-width="1.5" d="M0,-3.0v7 M-2.5,-0.5L0,-3.0L2.5,-0.5"/>
  </g>
  <g id="arrowDown" transform="rotate(180) translate(-30 -48)">
    <use xlink:href="#rim"/>
    <path pointer-events="none" fill="none" stroke="white" stroke-width="1.5" d="M0,-3.0v7 M-2.5,-0.5L0,-3.0L2.5,-0.5"/>
  </g>
  <g id="arrowLeft" transform="rotate(270) translate(-36 17)">
    <use xlink:href="#rim"/>
    <path pointer-events="none" fill="none" stroke="white" stroke-width="1.5" d="M0,-3.0v7 M-2.5,-0.5L0,-3.0L2.5,-0.5"/>
  </g>
  <g id="resetDef">
    <use xlink:href="#rim2" fill="#404040"><set attributeName="fill" to="#808080" begin="reset.mouseover" end="reset.mouseout"/></use>
  </g>
</defs>
<script type="application/ecmascript">
var viewWidth = 2946;
var viewHeight = 488;
var sectionId = 'dynsection-0';
</script>
<script type="application/ecmascript" xlink:href="svg.min.js"/>
<svg id="graph" class="graph">
<g id="viewport">
<title>depicture_menu/src/core/cs_binding/types/ConfigArg.def</title>
<!-- Node1 -->
<g id="Node000001" class="node">
<title>Node1</title>
<g id="a_Node000001"><a xlink:title=" ">
<polygon fill="#999999" stroke="#666666" points="1018,-480 903.75,-480 903.75,-436 1018,-436 1018,-480"/>
<text xml:space="preserve" text-anchor="start" x="911.75" y="-466.5" font-family="Helvetica,sans-Serif" font-size="10.00">depicture_menu/src</text>
<text xml:space="preserve" text-anchor="start" x="911.75" y="-454.5" font-family="Helvetica,sans-Serif" font-size="10.00">/core/cs_binding/types</text>
<text xml:space="preserve" text-anchor="middle" x="960.88" y="-442.5" font-family="Helvetica,sans-Serif" font-size="10.00">/ConfigArg.def</text>
</a>
</g>
</g>
<!-- Node2 -->
<g id="Node000002" class="node">
<title>Node2</title>
<g id="a_Node000002"><a xlink:href="_config_arg_8cpp.html" target="_top" xlink:title=" ">
<polygon fill="white" stroke="#666666" points="400,-240 285.75,-240 285.75,-196 400,-196 400,-240"/>
<text xml:space="preserve" text-anchor="start" x="293.75" y="-226.5" font-family="Helvetica,sans-Serif" font-size="10.00">depicture_menu/src</text>
<text xml:space="preserve" text-anchor="start" x="293.75" y="-214.5" font-family="Helvetica,sans-Serif" font-size="10.00">/core/cs_binding/types</text>
<text xml:space="preserve" text-anchor="middle" x="342.88" y="-202.5" font-family="Helvetica,sans-Serif" font-size="10.00">/ConfigArg.cpp</text>
</a>
</g>
</g>
<!-- Node1&#45;&gt;Node2 -->
<g id="edge1_Node000001_Node000002" class="edge">
<title>Node1&#45;&gt;Node2</title>
<g id="a_edge1_Node000001_Node000002"><a xlink:title=" ">
<path fill="none" stroke="#63b8ff" d="M892.47,-434.26C787.22,-398.69 579.82,-326.22 408.88,-252 400.77,-248.48 392.23,-244.46 384.1,-240.46"/>
<polygon fill="#63b8ff" stroke="#63b8ff" points="891.22,-437.54 901.82,-437.42 893.46,-430.91 891.22,-437.54"/>
</a>
</g>
</g>
<!-- Node3 -->
<g id="Node000003" class="node">
<title>Node3</title>
<g id="a_Node000003"><a xlink:href="types_2_config_arg_8hpp.html" target="_top" xlink:title=" ">
<polygon fill="white" stroke="#666666" points="1070,-400 955.75,-400 955.75,-356 1070,-356 1070,-400"/>
<text xml:space="preserve" text-anchor="start" x="963.75" y="-386.5" font-family="Helvetica,sans-Serif" font-size="10.00">depicture_menu/src</text>
<text xml:space="preserve" text-anchor="start" x="963.75" y="-374.5" font-family="Helvetica,sans-Serif" font-size="10.00">/core/cs_binding/types</text>
<text xml:space="preserve" text-anchor="middle" x="1012.88" y="-362.5" font-family="Helvetica,sans-Serif" font-size="10.00">/ConfigArg.hpp</text>
</a>
</g>
</g>
<!-- Node1&#45;&gt;Node3 -->
<g id="edge2_Node000001_Node000003" class="edge">
<title>Node1&#45;&gt;Node3</title>
<g id="a_edge2_Node000001_Node000003"><a xlink:title=" ">
<path fill="none" stroke="#63b8ff" d="M981.39,-426.22C987.18,-417.54 993.35,-408.28 998.68,-400.29"/>
<polygon fill="#63b8ff" stroke="#63b8ff" points="978.56,-424.16 975.92,-434.43 984.38,-428.05 978.56,-424.16"/>
</a>
</g>
</g>
<!-- Node4 -->
<g id="Node000004" class="node">
<title>Node4</title>
<g id="a_Node000004"><a xlink:href="_config_arg_8hpp.html" target="_top" xlink:title=" ">
<polygon fill="white" stroke="#666666" points="1632.12,-320 1479.62,-320 1479.62,-288 1632.12,-288 1632.12,-320"/>
<text xml:space="preserve" text-anchor="start" x="1487.62" y="-306.5" font-family="Helvetica,sans-Serif" font-size="10.00">depicture_menu/src</text>
<text xml:space="preserve" text-anchor="middle" x="1555.88" y="-294.5" font-family="Helvetica,sans-Serif" font-size="10.00">/core/cs_binding/ConfigArg.hpp</text>
</a>
</g>
</g>
<!-- Node3&#45;&gt;Node4 -->
<g id="edge3_Node000003_Node000004" class="edge">
<title>Node3&#45;&gt;Node4</title>
<g id="a_edge3_Node000003_Node000004"><a xlink:title=" ">
<path fill="none" stroke="#63b8ff" d="M1081.84,-367.86C1183.62,-354.36 1373.43,-329.19 1479.37,-315.14"/>
<polygon fill="#63b8ff" stroke="#63b8ff" points="1081.42,-364.38 1071.97,-369.16 1082.35,-371.32 1081.42,-364.38"/>
</a>
</g>
</g>
<!-- Node4&#45;&gt;Node2 -->
<g id="edge25_Node000004_Node000002" class="edge">
<title>Node4&#45;&gt;Node2</title>
<g id="a_edge25_Node000004_Node000002"><a xlink:title=" ">
<path fill="none" stroke="#63b8ff" d="M1467.97,-301.2C1217.26,-295.77 510.17,-278.3 408.88,-252 398.71,-249.36 388.28,-245.03 378.81,-240.35"/>
<polygon fill="#63b8ff" stroke="#63b8ff" points="1467.62,-304.69 1477.69,-301.41 1467.77,-297.7 1467.62,-304.69"/>
</a>
</g>
</g>
<!-- Node5 -->
<g id="Node000005" class="node">
<title>Node5</title>
<g id="a_Node000005"><a xlink:href="config__view__arg__builder_8hpp.html" target="_top" xlink:title=" ">
<polygon fill="white" stroke="#666666" points="1572.12,-148 1455.62,-148 1455.62,-92 1572.12,-92 1572.12,-148"/>
<text xml:space="preserve" text-anchor="start" x="1463.62" y="-134.5" font-family="Helvetica,sans-Serif" font-size="10.00">depicture_menu/src</text>
<text xml:space="preserve" text-anchor="start" x="1463.62" y="-122.5" font-family="Helvetica,sans-Serif" font-size="10.00">/core/application/cs</text>
<text xml:space="preserve" text-anchor="start" x="1463.62" y="-110.5" font-family="Helvetica,sans-Serif" font-size="10.00">_binding_factory/config</text>
<text xml:space="preserve" text-anchor="middle" x="1513.88" y="-98.5" font-family="Helvetica,sans-Serif" font-size="10.00">_view_arg_builder.hpp</text>
</a>
</g>
</g>
<!-- Node4&#45;&gt;Node5 -->
<g id="edge4_Node000004_Node000005" class="edge">
<title>Node4&#45;&gt;Node5</title>
<g id="a_edge4_Node000004_Node000005"><a xlink:title=" ">
<path fill="none" stroke="#63b8ff" d="M1542.75,-277.62C1539.06,-269.6 1535.38,-260.59 1532.88,-252 1522.67,-217.03 1517.82,-175.15 1515.6,-148.32"/>
<polygon fill="#63b8ff" stroke="#63b8ff" points="1539.51,-278.96 1547.01,-286.44 1545.81,-275.91 1539.51,-278.96"/>
</a>
</g>
</g>
<!-- Node8 -->
<g id="Node000008" class="node">
<title>Node8</title>
<g id="a_Node000008"><a xlink:href="config__view__observer_8hpp.html" target="_top" xlink:title="ConfigViewのObserver">
<polygon fill="white" stroke="#666666" points="1029.5,-252 906.25,-252 906.25,-184 1029.5,-184 1029.5,-252"/>
<text xml:space="preserve" text-anchor="start" x="914.25" y="-238.5" font-family="Helvetica,sans-Serif" font-size="10.00">depicture_menu/src</text>
<text xml:space="preserve" text-anchor="start" x="914.25" y="-226.5" font-family="Helvetica,sans-Serif" font-size="10.00">/core/application/cs</text>
<text xml:space="preserve" text-anchor="start" x="914.25" y="-214.5" font-family="Helvetica,sans-Serif" font-size="10.00">_binding_factory/config</text>
<text xml:space="preserve" text-anchor="start" x="914.25" y="-202.5" font-family="Helvetica,sans-Serif" font-size="10.00">_view_arg_builder/config</text>
<text xml:space="preserve" text-anchor="middle" x="967.88" y="-190.5" font-family="Helvetica,sans-Serif" font-size="10.00">_view_observer.hpp</text>
</a>
</g>
</g>
<!-- Node4&#45;&gt;Node8 -->
<g id="edge7_Node000004_Node000008" class="edge">
<title>Node4&#45;&gt;Node8</title>
<g id="a_edge7_Node000004_Node000008"><a xlink:title=" ">
<path fill="none" stroke="#63b8ff" d="M1468.12,-303.25C1363.95,-301.52 1185.84,-292.15 1038.88,-252 1035.86,-251.18 1032.81,-250.23 1029.76,-249.2"/>
<polygon fill="#63b8ff" stroke="#63b8ff" points="1467.96,-306.75 1478.01,-303.39 1468.06,-299.75 1467.96,-306.75"/>
</a>
</g>
</g>
<!-- Node9 -->
<g id="Node000009" class="node">
<title>Node9</title>
<g id="a_Node000009"><a xlink:href="debug__interface_8hpp.html" target="_top" xlink:title=" ">
<polygon fill="white" stroke="#666666" points="1164.12,-240 1047.62,-240 1047.62,-196 1164.12,-196 1164.12,-240"/>
<text xml:space="preserve" text-anchor="start" x="1055.62" y="-226.5" font-family="Helvetica,sans-Serif" font-size="10.00">depicture_menu/src</text>
<text xml:space="preserve" text-anchor="start" x="1055.62" y="-214.5" font-family="Helvetica,sans-Serif" font-size="10.00">/core/application/debug</text>
<text xml:space="preserve" text-anchor="middle" x="1105.88" y="-202.5" font-family="Helvetica,sans-Serif" font-size="10.00">/debug_interface.hpp</text>
</a>
</g>
</g>
<!-- Node4&#45;&gt;Node9 -->
<g id="edge9_Node000004_Node000009" class="edge">
<title>Node4&#45;&gt;Node9</title>
<g id="a_edge9_Node000004_Node000009"><a xlink:title=" ">
<path fill="none" stroke="#63b8ff" d="M1468.15,-299.41C1389.4,-294.3 1271.36,-281.93 1172.88,-252 1163.2,-249.06 1153.2,-244.85 1143.97,-240.41"/>
<polygon fill="#63b8ff" stroke="#63b8ff" points="1467.77,-302.9 1477.97,-300.02 1468.21,-295.91 1467.77,-302.9"/>
</a>
</g>
</g>
<!-- Node10 -->
<g id="Node000010" class="node">
<title>Node10</title>
<g id="a_Node000010"><a xlink:href="config__view__dispatch_8cpp.html" target="_top" xlink:title=" ">
<polygon fill="white" stroke="#666666" points="1355.62,-240 1182.12,-240 1182.12,-196 1355.62,-196 1355.62,-240"/>
<text xml:space="preserve" text-anchor="start" x="1190.12" y="-226.5" font-family="Helvetica,sans-Serif" font-size="10.00">depicture_menu/src</text>
<text xml:space="preserve" text-anchor="start" x="1190.12" y="-214.5" font-family="Helvetica,sans-Serif" font-size="10.00">/core/application/usecase</text>
<text xml:space="preserve" text-anchor="middle" x="1268.88" y="-202.5" font-family="Helvetica,sans-Serif" font-size="10.00">_dispatch/config_view_dispatch.cpp</text>
</a>
</g>
</g>
<!-- Node4&#45;&gt;Node10 -->
<g id="edge10_Node000004_Node000010" class="edge">
<title>Node4&#45;&gt;Node10</title>
<g id="a_edge10_Node000004_Node000010"><a xlink:title=" ">
<path fill="none" stroke="#63b8ff" d="M1482.81,-284.77C1447.08,-275.54 1403.55,-263.8 1364.88,-252 1353.24,-248.45 1340.91,-244.42 1329.09,-240.42"/>
<polygon fill="#63b8ff" stroke="#63b8ff" points="1481.61,-288.08 1492.16,-287.18 1483.35,-281.3 1481.61,-288.08"/>
</a>
</g>
</g>
<!-- Node11 -->
<g id="Node000011" class="node">
<title>Node11</title>
<g id="a_Node000011"><a xlink:href="basic__action__update__controler_8cpp.html" target="_top" xlink:title=" ">
<polygon fill="white" stroke="#666666" points="1485.88,-246 1373.88,-246 1373.88,-190 1485.88,-190 1485.88,-246"/>
<text xml:space="preserve" text-anchor="start" x="1381.88" y="-232.5" font-family="Helvetica,sans-Serif" font-size="10.00">depicture_menu/src</text>
<text xml:space="preserve" text-anchor="start" x="1381.88" y="-220.5" font-family="Helvetica,sans-Serif" font-size="10.00">/core/control/config</text>
<text xml:space="preserve" text-anchor="start" x="1381.88" y="-208.5" font-family="Helvetica,sans-Serif" font-size="10.00">_window/basic_action</text>
<text xml:space="preserve" text-anchor="middle" x="1429.88" y="-196.5" font-family="Helvetica,sans-Serif" font-size="10.00">_update_controler.cpp</text>
</a>
</g>
</g>
<!-- Node4&#45;&gt;Node11 -->
<g id="edge11_Node000004_Node000011" class="edge">
<title>Node4&#45;&gt;Node11</title>
<g id="a_edge11_Node000004_Node000011"><a xlink:title=" ">
<path fill="none" stroke="#63b8ff" d="M1523.31,-281.29C1507.34,-270.64 1487.92,-257.7 1470.94,-246.38"/>
<polygon fill="#63b8ff" stroke="#63b8ff" points="1521.24,-284.12 1531.51,-286.75 1525.13,-278.29 1521.24,-284.12"/>
</a>
</g>
</g>
<!-- Node12 -->
<g id="Node000012" class="node">
<title>Node12</title>
<g id="a_Node000012"><a xlink:href="_core_model_8hpp.html" target="_top" xlink:title=" ">
<polygon fill="white" stroke="#666666" points="888,-234 731.75,-234 731.75,-202 888,-202 888,-234"/>
<text xml:space="preserve" text-anchor="start" x="739.75" y="-220.5" font-family="Helvetica,sans-Serif" font-size="10.00">depicture_menu/src</text>
<text xml:space="preserve" text-anchor="middle" x="809.88" y="-208.5" font-family="Helvetica,sans-Serif" font-size="10.00">/core/cs_binding/CoreModel.hpp</text>
</a>
</g>
</g>
<!-- Node4&#45;&gt;Node12 -->
<g id="edge12_Node000004_Node000012" class="edge">
<title>Node4&#45;&gt;Node12</title>
<g id="a_edge12_Node000004_Node000012"><a xlink:title=" ">
<path fill="none" stroke="#63b8ff" d="M1467.96,-299.31C1314.32,-292.33 1003.19,-275.76 896.88,-252 878.9,-247.98 859.68,-241 843.89,-234.49"/>
<polygon fill="#63b8ff" stroke="#63b8ff" points="1467.54,-302.79 1477.68,-299.74 1467.85,-295.8 1467.54,-302.79"/>
</a>
</g>
</g>
<!-- Node19 -->
<g id="Node000019" class="node">
<title>Node19</title>
<g id="a_Node000019"><a xlink:href="apply__config__arg_8hpp.html" target="_top" xlink:title=" ">
<polygon fill="white" stroke="#666666" points="2937.88,-240 2789.88,-240 2789.88,-196 2937.88,-196 2937.88,-240"/>
<text xml:space="preserve" text-anchor="start" x="2797.88" y="-226.5" font-family="Helvetica,sans-Serif" font-size="10.00">depicture_menu/src</text>
<text xml:space="preserve" text-anchor="start" x="2797.88" y="-214.5" font-family="Helvetica,sans-Serif" font-size="10.00">/core/cs_binding/apply</text>
<text xml:space="preserve" text-anchor="middle" x="2863.88" y="-202.5" font-family="Helvetica,sans-Serif" font-size="10.00">_domain/apply_config_arg.hpp</text>
</a>
</g>
</g>
<!-- Node4&#45;&gt;Node19 -->
<g id="edge21_Node000004_Node000019" class="edge">
<title>Node4&#45;&gt;Node19</title>
<g id="a_edge21_Node000004_Node000019"><a xlink:title=" ">
<path fill="none" stroke="#63b8ff" d="M1643.68,-303.16C1886.54,-303.01 2563.65,-298.3 2780.88,-252 2793.31,-249.35 2806.3,-245.01 2818.2,-240.34"/>
<polygon fill="#63b8ff" stroke="#63b8ff" points="1643.95,-299.66 1633.96,-303.17 1643.96,-306.66 1643.95,-299.66"/>
</a>
</g>
</g>
<!-- Node21 -->
<g id="Node000021" class="node">
<title>Node21</title>
<g id="a_Node000021"><a xlink:href="transcription__command_8hpp.html" target="_top" xlink:title=" ">
<polygon fill="white" stroke="#666666" points="1655.62,-246 1542.12,-246 1542.12,-190 1655.62,-190 1655.62,-246"/>
<text xml:space="preserve" text-anchor="start" x="1550.12" y="-232.5" font-family="Helvetica,sans-Serif" font-size="10.00">depicture_menu/src</text>
<text xml:space="preserve" text-anchor="start" x="1550.12" y="-220.5" font-family="Helvetica,sans-Serif" font-size="10.00">/core/cs_binding/apply</text>
<text xml:space="preserve" text-anchor="start" x="1550.12" y="-208.5" font-family="Helvetica,sans-Serif" font-size="10.00">_domain/transcription</text>
<text xml:space="preserve" text-anchor="middle" x="1598.88" y="-196.5" font-family="Helvetica,sans-Serif" font-size="10.00">_command.hpp</text>
</a>
</g>
</g>
<!-- Node4&#45;&gt;Node21 -->
<g id="edge23_Node000004_Node000021" class="edge">
<title>Node4&#45;&gt;Node21</title>
<g id="a_edge23_Node000004_Node000021"><a xlink:title=" ">
<path fill="none" stroke="#63b8ff" d="M1568.9,-277.55C1573.97,-267.64 1579.79,-256.27 1584.95,-246.21"/>
<polygon fill="#63b8ff" stroke="#63b8ff" points="1565.89,-275.75 1564.45,-286.25 1572.12,-278.94 1565.89,-275.75"/>
</a>
</g>
</g>
<!-- Node22 -->
<g id="Node000022" class="node">
<title>Node22</title>
<g id="a_Node000022"><a xlink:href="configview__observer_8cpp.html" target="_top" xlink:title=" ">
<polygon fill="white" stroke="#666666" points="1801.75,-240 1674,-240 1674,-196 1801.75,-196 1801.75,-240"/>
<text xml:space="preserve" text-anchor="start" x="1682" y="-226.5" font-family="Helvetica,sans-Serif" font-size="10.00">depicture_menu/src</text>
<text xml:space="preserve" text-anchor="start" x="1682" y="-214.5" font-family="Helvetica,sans-Serif" font-size="10.00">/core/cs_binding/observer</text>
<text xml:space="preserve" text-anchor="middle" x="1737.88" y="-202.5" font-family="Helvetica,sans-Serif" font-size="10.00">/configview_observer.cpp</text>
</a>
</g>
</g>
<!-- Node4&#45;&gt;Node22 -->
<g id="edge24_Node000004_Node000022" class="edge">
<title>Node4&#45;&gt;Node22</title>
<g id="a_edge24_Node000004_Node000022"><a xlink:title=" ">
<path fill="none" stroke="#63b8ff" d="M1599.45,-282.89C1627.18,-270.09 1663.06,-253.53 1691.34,-240.48"/>
<polygon fill="#63b8ff" stroke="#63b8ff" points="1598.24,-279.59 1590.63,-286.96 1601.18,-285.95 1598.24,-279.59"/>
</a>
</g>
</g>
<!-- Node23 -->
<g id="Node000023" class="node">
<title>Node23</title>
<g id="a_Node000023"><a xlink:href="cs__binding__config__arg_8cpp.html" target="_top" xlink:title=" ">
<polygon fill="white" stroke="#666666" points="1954.12,-246 1819.62,-246 1819.62,-190 1954.12,-190 1954.12,-246"/>
<text xml:space="preserve" text-anchor="start" x="1827.62" y="-232.5" font-family="Helvetica,sans-Serif" font-size="10.00">depicture_menu/src</text>
<text xml:space="preserve" text-anchor="start" x="1827.62" y="-220.5" font-family="Helvetica,sans-Serif" font-size="10.00">/core/dll_entry_point</text>
<text xml:space="preserve" text-anchor="start" x="1827.62" y="-208.5" font-family="Helvetica,sans-Serif" font-size="10.00">/cs_binding/config_view</text>
<text xml:space="preserve" text-anchor="middle" x="1886.88" y="-196.5" font-family="Helvetica,sans-Serif" font-size="10.00">/cs_binding_config_arg.cpp</text>
</a>
</g>
</g>
<!-- Node4&#45;&gt;Node23 -->
<g id="edge26_Node000004_Node000023" class="edge">
<title>Node4&#45;&gt;Node23</title>
<g id="a_edge26_Node000004_Node000023"><a xlink:title=" ">
<path fill="none" stroke="#63b8ff" d="M1643.58,-290.19C1693.3,-281.76 1756.3,-269.09 1810.88,-252 1816.09,-250.37 1821.43,-248.49 1826.75,-246.48"/>
<polygon fill="#63b8ff" stroke="#63b8ff" points="1643.31,-286.69 1634.02,-291.78 1644.46,-293.59 1643.31,-286.69"/>
</a>
</g>
</g>
<!-- Node24 -->
<g id="Node000024" class="node">
<title>Node24</title>
<g id="a_Node000024"><a xlink:href="cs__binding__config__arg__1_8cpp.html" target="_top" xlink:title=" ">
<polygon fill="white" stroke="#666666" points="2117.38,-246 1972.38,-246 1972.38,-190 2117.38,-190 2117.38,-246"/>
<text xml:space="preserve" text-anchor="start" x="1980.38" y="-232.5" font-family="Helvetica,sans-Serif" font-size="10.00">depicture_menu/src</text>
<text xml:space="preserve" text-anchor="start" x="1980.38" y="-220.5" font-family="Helvetica,sans-Serif" font-size="10.00">/core/dll_entry_point</text>
<text xml:space="preserve" text-anchor="start" x="1980.38" y="-208.5" font-family="Helvetica,sans-Serif" font-size="10.00">/cs_binding/config_view</text>
<text xml:space="preserve" text-anchor="middle" x="2044.88" y="-196.5" font-family="Helvetica,sans-Serif" font-size="10.00">/cs_binding_config_arg_1.cpp</text>
</a>
</g>
</g>
<!-- Node4&#45;&gt;Node24 -->
<g id="edge27_Node000004_Node000024" class="edge">
<title>Node4&#45;&gt;Node24</title>
<g id="a_edge27_Node000004_Node000024"><a xlink:title=" ">
<path fill="none" stroke="#63b8ff" d="M1643.81,-298.54C1727.08,-292.78 1855.07,-279.95 1962.88,-252 1968.97,-250.42 1975.21,-248.5 1981.4,-246.39"/>
<polygon fill="#63b8ff" stroke="#63b8ff" points="1643.62,-295.04 1633.87,-299.2 1644.08,-302.03 1643.62,-295.04"/>
</a>
</g>
</g>
<!-- Node25 -->
<g id="Node000025" class="node">
<title>Node25</title>
<g id="a_Node000025"><a xlink:href="cs__binding__config__arg__2_8cpp.html" target="_top" xlink:title=" ">
<polygon fill="white" stroke="#666666" points="2280.38,-246 2135.38,-246 2135.38,-190 2280.38,-190 2280.38,-246"/>
<text xml:space="preserve" text-anchor="start" x="2143.38" y="-232.5" font-family="Helvetica,sans-Serif" font-size="10.00">depicture_menu/src</text>
<text xml:space="preserve" text-anchor="start" x="2143.38" y="-220.5" font-family="Helvetica,sans-Serif" font-size="10.00">/core/dll_entry_point</text>
<text xml:space="preserve" text-anchor="start" x="2143.38" y="-208.5" font-family="Helvetica,sans-Serif" font-size="10.00">/cs_binding/config_view</text>
<text xml:space="preserve" text-anchor="middle" x="2207.88" y="-196.5" font-family="Helvetica,sans-Serif" font-size="10.00">/cs_binding_config_arg_2.cpp</text>
</a>
</g>
</g>
<!-- Node4&#45;&gt;Node25 -->
<g id="edge28_Node000004_Node000025" class="edge">
<title>Node4&#45;&gt;Node25</title>
<g id="a_edge28_Node000004_Node000025"><a xlink:title=" ">
<path fill="none" stroke="#63b8ff" d="M1643.67,-303.2C1756.91,-301.64 1959.26,-292.66 2126.88,-252 2133.07,-250.5 2139.42,-248.6 2145.69,-246.47"/>
<polygon fill="#63b8ff" stroke="#63b8ff" points="1643.79,-299.7 1633.83,-303.32 1643.88,-306.7 1643.79,-299.7"/>
</a>
</g>
</g>
<!-- Node26 -->
<g id="Node000026" class="node">
<title>Node26</title>
<g id="a_Node000026"><a xlink:href="config__view__presenter_8hpp.html" target="_top" xlink:title="コンフィグビュープレゼンター">
<polygon fill="white" stroke="#666666" points="546.12,-246 417.62,-246 417.62,-190 546.12,-190 546.12,-246"/>
<text xml:space="preserve" text-anchor="start" x="425.62" y="-232.5" font-family="Helvetica,sans-Serif" font-size="10.00">depicture_menu/src</text>
<text xml:space="preserve" text-anchor="start" x="425.62" y="-220.5" font-family="Helvetica,sans-Serif" font-size="10.00">/core/presentation/change</text>
<text xml:space="preserve" text-anchor="start" x="425.62" y="-208.5" font-family="Helvetica,sans-Serif" font-size="10.00">_view_model/config_view</text>
<text xml:space="preserve" text-anchor="middle" x="481.88" y="-196.5" font-family="Helvetica,sans-Serif" font-size="10.00">_presenter.hpp</text>
</a>
</g>
</g>
<!-- Node4&#45;&gt;Node26 -->
<g id="edge29_Node000004_Node000026" class="edge">
<title>Node4&#45;&gt;Node26</title>
<g id="a_edge29_Node000004_Node000026"><a xlink:title=" ">
<path fill="none" stroke="#63b8ff" d="M1468.26,-299.8C1316.27,-293.76 994.01,-278.82 722.88,-252 662.88,-246.06 594.86,-236.49 546.42,-229.18"/>
<polygon fill="#63b8ff" stroke="#63b8ff" points="1467.71,-303.28 1477.84,-300.17 1467.98,-296.28 1467.71,-303.28"/>
</a>
</g>
</g>
<!-- Node29 -->
<g id="Node000029" class="node">
<title>Node29</title>
<g id="a_Node000029"><a xlink:href="_test_config_arg_8cpp.html" target="_top" xlink:title=" ">
<polygon fill="white" stroke="#666666" points="2435.62,-240 2298.12,-240 2298.12,-196 2435.62,-196 2435.62,-240"/>
<text xml:space="preserve" text-anchor="start" x="2306.12" y="-226.5" font-family="Helvetica,sans-Serif" font-size="10.00">depicture_menu/test</text>
<text xml:space="preserve" text-anchor="start" x="2306.12" y="-214.5" font-family="Helvetica,sans-Serif" font-size="10.00">/core/cs_binding/TestConfig</text>
<text xml:space="preserve" text-anchor="middle" x="2366.88" y="-202.5" font-family="Helvetica,sans-Serif" font-size="10.00">Arg.cpp</text>
</a>
</g>
</g>
<!-- Node4&#45;&gt;Node29 -->
<g id="edge36_Node000004_Node000029" class="edge">
<title>Node4&#45;&gt;Node29</title>
<g id="a_edge36_Node000004_Node000029"><a xlink:title=" ">
<path fill="none" stroke="#63b8ff" d="M1644.08,-300.56C1811.58,-295.32 2169.7,-281.04 2289.88,-252 2301.18,-249.27 2312.95,-245.02 2323.77,-240.47"/>
<polygon fill="#63b8ff" stroke="#63b8ff" points="1644,-297.06 1634.11,-300.87 1644.21,-304.06 1644,-297.06"/>
</a>
</g>
</g>
<!-- Node30 -->
<g id="Node000030" class="node">
<title>Node30</title>
<g id="a_Node000030"><a xlink:href="_test_config_view_observer_8cpp.html" target="_top" xlink:title=" ">
<polygon fill="white" stroke="#666666" points="2600.12,-240 2453.62,-240 2453.62,-196 2600.12,-196 2600.12,-240"/>
<text xml:space="preserve" text-anchor="start" x="2461.62" y="-226.5" font-family="Helvetica,sans-Serif" font-size="10.00">depicture_menu/test</text>
<text xml:space="preserve" text-anchor="start" x="2461.62" y="-214.5" font-family="Helvetica,sans-Serif" font-size="10.00">/core/cs_binding/observer</text>
<text xml:space="preserve" text-anchor="middle" x="2526.88" y="-202.5" font-family="Helvetica,sans-Serif" font-size="10.00">/TestConfigViewObserver.cpp</text>
</a>
</g>
</g>
<!-- Node4&#45;&gt;Node30 -->
<g id="edge37_Node000004_Node000030" class="edge">
<title>Node4&#45;&gt;Node30</title>
<g id="a_edge37_Node000004_Node000030"><a xlink:title=" ">
<path fill="none" stroke="#63b8ff" d="M1643.54,-301.58C1836.76,-297.87 2294.09,-285.71 2444.88,-252 2457.01,-249.29 2469.67,-244.99 2481.31,-240.38"/>
<polygon fill="#63b8ff" stroke="#63b8ff" points="1643.75,-298.08 1633.82,-301.77 1643.89,-305.08 1643.75,-298.08"/>
</a>
</g>
</g>
<!-- Node31 -->
<g id="Node000031" class="node">
<title>Node31</title>
<g id="a_Node000031"><a xlink:href="test__c__u__notify__traits_8cpp.html" target="_top" xlink:title=" ">
<polygon fill="white" stroke="#666666" points="2771.5,-240 2618.25,-240 2618.25,-196 2771.5,-196 2771.5,-240"/>
<text xml:space="preserve" text-anchor="start" x="2626.25" y="-226.5" font-family="Helvetica,sans-Serif" font-size="10.00">depicture_menu/test</text>
<text xml:space="preserve" text-anchor="start" x="2626.25" y="-214.5" font-family="Helvetica,sans-Serif" font-size="10.00">/cs_binding_test/unmanaged</text>
<text xml:space="preserve" text-anchor="middle" x="2694.88" y="-202.5" font-family="Helvetica,sans-Serif" font-size="10.00">_test/test_c_u_notify_traits.cpp</text>
</a>
</g>
</g>
<!-- Node4&#45;&gt;Node31 -->
<g id="edge38_Node000004_Node000031" class="edge">
<title>Node4&#45;&gt;Node31</title>
<g id="a_edge38_Node000004_Node000031"><a xlink:title=" ">
<path fill="none" stroke="#63b8ff" d="M1643.66,-302.32C1862.08,-300.07 2425.55,-290.58 2608.88,-252 2621.55,-249.33 2634.82,-245.05 2647.03,-240.44"/>
<polygon fill="#63b8ff" stroke="#63b8ff" points="1643.75,-298.82 1633.78,-302.42 1643.82,-305.82 1643.75,-298.82"/>
</a>
</g>
</g>
<!-- Node6 -->
<g id="Node000006" class="node">
<title>Node6</title>
<g id="a_Node000006"><a xlink:href="config__view__arg__builder_8cpp.html" target="_top" xlink:title="ConfigArg ファクトリー">
<polygon fill="white" stroke="#666666" points="511.12,-56 394.62,-56 394.62,0 511.12,0 511.12,-56"/>
<text xml:space="preserve" text-anchor="start" x="402.62" y="-42.5" font-family="Helvetica,sans-Serif" font-size="10.00">depicture_menu/src</text>
<text xml:space="preserve" text-anchor="start" x="402.62" y="-30.5" font-family="Helvetica,sans-Serif" font-size="10.00">/core/application/cs</text>
<text xml:space="preserve" text-anchor="start" x="402.62" y="-18.5" font-family="Helvetica,sans-Serif" font-size="10.00">_binding_factory/config</text>
<text xml:space="preserve" text-anchor="middle" x="452.88" y="-6.5" font-family="Helvetica,sans-Serif" font-size="10.00">_view_arg_builder.cpp</text>
</a>
</g>
</g>
<!-- Node5&#45;&gt;Node6 -->
<g id="edge5_Node000005_Node000006" class="edge">
<title>Node5&#45;&gt;Node6</title>
<g id="a_edge5_Node000005_Node000006"><a xlink:title=" ">
<path fill="none" stroke="#63b8ff" d="M1444.09,-99.13C1432.41,-96.36 1420.35,-93.84 1408.88,-92 1072.18,-38.1 661.69,-30.12 511.49,-29.09"/>
<polygon fill="#63b8ff" stroke="#63b8ff" points="1443.12,-102.5 1453.67,-101.49 1444.79,-95.7 1443.12,-102.5"/>
</a>
</g>
</g>
<!-- Node7 -->
<g id="Node000007" class="node">
<title>Node7</title>
<g id="a_Node000007"><a xlink:href="setup__core_8cpp.html" target="_top" xlink:title=" ">
<polygon fill="white" stroke="#666666" points="1483.88,-56 1371.88,-56 1371.88,0 1483.88,0 1483.88,-56"/>
<text xml:space="preserve" text-anchor="start" x="1379.88" y="-42.5" font-family="Helvetica,sans-Serif" font-size="10.00">depicture_menu/src</text>
<text xml:space="preserve" text-anchor="start" x="1379.88" y="-30.5" font-family="Helvetica,sans-Serif" font-size="10.00">/core/dll_entry_point</text>
<text xml:space="preserve" text-anchor="start" x="1379.88" y="-18.5" font-family="Helvetica,sans-Serif" font-size="10.00">/domain_control/setup</text>
<text xml:space="preserve" text-anchor="middle" x="1427.88" y="-6.5" font-family="Helvetica,sans-Serif" font-size="10.00">_core.cpp</text>
</a>
</g>
</g>
<!-- Node5&#45;&gt;Node7 -->
<g id="edge6_Node000005_Node000007" class="edge">
<title>Node5&#45;&gt;Node7</title>
<g id="a_edge6_Node000005_Node000007"><a xlink:title=" ">
<path fill="none" stroke="#63b8ff" d="M1479.88,-83.42C1471.26,-74.4 1462.14,-64.86 1453.98,-56.32"/>
<polygon fill="#63b8ff" stroke="#63b8ff" points="1477.12,-85.6 1486.56,-90.41 1482.18,-80.77 1477.12,-85.6"/>
</a>
</g>
</g>
<!-- Node8&#45;&gt;Node5 -->
<g id="edge8_Node000008_Node000005" class="edge">
<title>Node8&#45;&gt;Node5</title>
<g id="a_edge8_Node000008_Node000005"><a xlink:title=" ">
<path fill="none" stroke="#63b8ff" d="M1040.84,-183.85C1214.82,-139.44 1270.14,-187.11 1441.88,-148 1446.3,-146.99 1450.82,-145.78 1455.33,-144.42"/>
<polygon fill="#63b8ff" stroke="#63b8ff" points="1040,-180.45 1031.22,-186.38 1041.78,-187.22 1040,-180.45"/>
</a>
</g>
</g>
<!-- Node12&#45;&gt;Node6 -->
<g id="edge13_Node000012_Node000006" class="edge">
<title>Node12&#45;&gt;Node6</title>
<g id="a_edge13_Node000012_Node000006"><a xlink:title=" ">
<path fill="none" stroke="#63b8ff" d="M720.25,-202.54C678.49,-192.47 629.95,-175.68 592.88,-148 568.77,-130.01 576.59,-112.81 554.88,-92 540.75,-78.47 523.24,-66.38 506.74,-56.5"/>
<polygon fill="#63b8ff" stroke="#63b8ff" points="719.26,-205.91 729.8,-204.75 720.84,-199.09 719.26,-205.91"/>
</a>
</g>
</g>
<!-- Node12&#45;&gt;Node7 -->
<g id="edge17_Node000012_Node000007" class="edge">
<title>Node12&#45;&gt;Node7</title>
<g id="a_edge17_Node000012_Node000007"><a xlink:title=" ">
<path fill="none" stroke="#63b8ff" d="M853.93,-197.43C867.46,-192.21 882.56,-187.15 896.88,-184 952.57,-171.76 1366.81,-186.51 1408.88,-148 1433.8,-125.18 1434.84,-83.8 1432.21,-56.35"/>
<polygon fill="#63b8ff" stroke="#63b8ff" points="852.85,-194.1 844.87,-201.06 855.46,-200.59 852.85,-194.1"/>
</a>
</g>
</g>
<!-- Node13 -->
<g id="Node000013" class="node">
<title>Node13</title>
<g id="a_Node000013"><a xlink:href="menu__config__controler_8cpp.html" target="_top" xlink:title=" ">
<polygon fill="white" stroke="#666666" points="1130,-142 955.75,-142 955.75,-98 1130,-98 1130,-142"/>
<text xml:space="preserve" text-anchor="start" x="963.75" y="-128.5" font-family="Helvetica,sans-Serif" font-size="10.00">depicture_menu/src</text>
<text xml:space="preserve" text-anchor="start" x="963.75" y="-116.5" font-family="Helvetica,sans-Serif" font-size="10.00">/core/control/config</text>
<text xml:space="preserve" text-anchor="middle" x="1042.88" y="-104.5" font-family="Helvetica,sans-Serif" font-size="10.00">_window/menu_config_controler.cpp</text>
</a>
</g>
</g>
<!-- Node12&#45;&gt;Node13 -->
<g id="edge14_Node000012_Node000013" class="edge">
<title>Node12&#45;&gt;Node13</title>
<g id="a_edge14_Node000012_Node000013"><a xlink:title=" ">
<path fill="none" stroke="#63b8ff" d="M857.79,-197.26C896.53,-181.3 950.96,-158.87 990.77,-142.47"/>
<polygon fill="#63b8ff" stroke="#63b8ff" points="856.62,-193.95 848.71,-201 859.29,-200.43 856.62,-193.95"/>
</a>
</g>
</g>
<!-- Node14 -->
<g id="Node000014" class="node">
<title>Node14</title>
<g id="a_Node000014"><a xlink:href="cs__binding__core__model_8cpp.html" target="_top" xlink:title=" ">
<polygon fill="white" stroke="#666666" points="1263.38,-148 1148.38,-148 1148.38,-92 1263.38,-92 1263.38,-148"/>
<text xml:space="preserve" text-anchor="start" x="1156.38" y="-134.5" font-family="Helvetica,sans-Serif" font-size="10.00">depicture_menu/src</text>
<text xml:space="preserve" text-anchor="start" x="1156.38" y="-122.5" font-family="Helvetica,sans-Serif" font-size="10.00">/core/dll_entry_point</text>
<text xml:space="preserve" text-anchor="start" x="1156.38" y="-110.5" font-family="Helvetica,sans-Serif" font-size="10.00">/cs_binding/cs_binding</text>
<text xml:space="preserve" text-anchor="middle" x="1205.88" y="-98.5" font-family="Helvetica,sans-Serif" font-size="10.00">_core_model.cpp</text>
</a>
</g>
</g>
<!-- Node12&#45;&gt;Node14 -->
<g id="edge15_Node000012_Node000014" class="edge">
<title>Node12&#45;&gt;Node14</title>
<g id="a_edge15_Node000012_Node000014"><a xlink:title=" ">
<path fill="none" stroke="#63b8ff" d="M855.91,-197.43C868.96,-192.46 883.32,-187.54 896.88,-184 1002.09,-156.56 1033.94,-176.52 1138.88,-148 1141.9,-147.18 1144.97,-146.26 1148.06,-145.27"/>
<polygon fill="#63b8ff" stroke="#63b8ff" points="854.74,-194.13 846.7,-201.04 857.29,-200.65 854.74,-194.13"/>
</a>
</g>
</g>
<!-- Node15 -->
<g id="Node000015" class="node">
<title>Node15</title>
<g id="a_Node000015"><a xlink:href="cs__bindings_8cpp.html" target="_top" xlink:title=" ">
<polygon fill="white" stroke="#666666" points="1399.88,-148 1281.88,-148 1281.88,-92 1399.88,-92 1399.88,-148"/>
<text xml:space="preserve" text-anchor="start" x="1289.88" y="-134.5" font-family="Helvetica,sans-Serif" font-size="10.00">depicture_menu/src</text>
<text xml:space="preserve" text-anchor="start" x="1289.88" y="-122.5" font-family="Helvetica,sans-Serif" font-size="10.00">/core/dll_entry_point</text>
<text xml:space="preserve" text-anchor="start" x="1289.88" y="-110.5" font-family="Helvetica,sans-Serif" font-size="10.00">/cs_binding/menu_view</text>
<text xml:space="preserve" text-anchor="middle" x="1340.88" y="-98.5" font-family="Helvetica,sans-Serif" font-size="10.00">/cs_bindings.cpp</text>
</a>
</g>
</g>
<!-- Node12&#45;&gt;Node15 -->
<g id="edge16_Node000012_Node000015" class="edge">
<title>Node12&#45;&gt;Node15</title>
<g id="a_edge16_Node000012_Node000015"><a xlink:title=" ">
<path fill="none" stroke="#63b8ff" d="M854.34,-197.52C867.77,-192.35 882.72,-187.3 896.88,-184 1060.37,-145.89 1109.68,-187.37 1272.88,-148 1275.72,-147.31 1278.59,-146.53 1281.48,-145.68"/>
<polygon fill="#63b8ff" stroke="#63b8ff" points="853.33,-194.16 845.33,-201.1 855.92,-200.66 853.33,-194.16"/>
</a>
</g>
</g>
<!-- Node16 -->
<g id="Node000016" class="node">
<title>Node16</title>
<g id="a_Node000016"><a xlink:href="config__view__presenter_8cpp.html" target="_top" xlink:title=" ">
<polygon fill="white" stroke="#666666" points="546.12,-148 417.62,-148 417.62,-92 546.12,-92 546.12,-148"/>
<text xml:space="preserve" text-anchor="start" x="425.62" y="-134.5" font-family="Helvetica,sans-Serif" font-size="10.00">depicture_menu/src</text>
<text xml:space="preserve" text-anchor="start" x="425.62" y="-122.5" font-family="Helvetica,sans-Serif" font-size="10.00">/core/presentation/change</text>
<text xml:space="preserve" text-anchor="start" x="425.62" y="-110.5" font-family="Helvetica,sans-Serif" font-size="10.00">_view_model/config_view</text>
<text xml:space="preserve" text-anchor="middle" x="481.88" y="-98.5" font-family="Helvetica,sans-Serif" font-size="10.00">_presenter.cpp</text>
</a>
</g>
</g>
<!-- Node12&#45;&gt;Node16 -->
<g id="edge18_Node000012_Node000016" class="edge">
<title>Node12&#45;&gt;Node16</title>
<g id="a_edge18_Node000012_Node000016"><a xlink:title=" ">
<path fill="none" stroke="#63b8ff" d="M738.64,-198.64C688.43,-185.38 619.74,-166.6 559.88,-148 555.5,-146.64 550.99,-145.2 546.47,-143.71"/>
<polygon fill="#63b8ff" stroke="#63b8ff" points="737.68,-202 748.24,-201.16 739.46,-195.23 737.68,-202"/>
</a>
</g>
</g>
<!-- Node17 -->
<g id="Node000017" class="node">
<title>Node17</title>
<g id="a_Node000017"><a xlink:href="menu__view__presenter_8cpp.html" target="_top" xlink:title="メニュープレゼンター">
<polygon fill="white" stroke="#666666" points="791.88,-142 601.88,-142 601.88,-98 791.88,-98 791.88,-142"/>
<text xml:space="preserve" text-anchor="start" x="609.88" y="-128.5" font-family="Helvetica,sans-Serif" font-size="10.00">depicture_menu/src</text>
<text xml:space="preserve" text-anchor="start" x="609.88" y="-116.5" font-family="Helvetica,sans-Serif" font-size="10.00">/core/presentation/change</text>
<text xml:space="preserve" text-anchor="middle" x="696.88" y="-104.5" font-family="Helvetica,sans-Serif" font-size="10.00">_view_model/menu_view_presenter.cpp</text>
</a>
</g>
</g>
<!-- Node12&#45;&gt;Node17 -->
<g id="edge19_Node000012_Node000017" class="edge">
<title>Node12&#45;&gt;Node17</title>
<g id="a_edge19_Node000012_Node000017"><a xlink:title=" ">
<path fill="none" stroke="#63b8ff" d="M783.19,-194.33C764.72,-178.64 740.3,-157.89 722.14,-142.47"/>
<polygon fill="#63b8ff" stroke="#63b8ff" points="780.68,-196.79 790.57,-200.6 785.21,-191.45 780.68,-196.79"/>
</a>
</g>
</g>
<!-- Node18 -->
<g id="Node000018" class="node">
<title>Node18</title>
<g id="a_Node000018"><a xlink:href="command__invoker_8cpp.html" target="_top" xlink:title=" ">
<polygon fill="white" stroke="#666666" points="938.12,-142 809.62,-142 809.62,-98 938.12,-98 938.12,-142"/>
<text xml:space="preserve" text-anchor="start" x="817.62" y="-128.5" font-family="Helvetica,sans-Serif" font-size="10.00">depicture_menu/src</text>
<text xml:space="preserve" text-anchor="start" x="817.62" y="-116.5" font-family="Helvetica,sans-Serif" font-size="10.00">/core/presentation/invoker</text>
<text xml:space="preserve" text-anchor="middle" x="873.88" y="-104.5" font-family="Helvetica,sans-Serif" font-size="10.00">/command_invoker.cpp</text>
</a>
</g>
</g>
<!-- Node12&#45;&gt;Node18 -->
<g id="edge20_Node000012_Node000018" class="edge">
<title>Node12&#45;&gt;Node18</title>
<g id="a_edge20_Node000012_Node000018"><a xlink:title=" ">
<path fill="none" stroke="#63b8ff" d="M826.44,-192.16C836.7,-176.76 849.75,-157.19 859.56,-142.47"/>
<polygon fill="#63b8ff" stroke="#63b8ff" points="823.63,-190.05 821,-200.32 829.46,-193.94 823.63,-190.05"/>
</a>
</g>
</g>
<!-- Node20 -->
<g id="Node000020" class="node">
<title>Node20</title>
<g id="a_Node000020"><a xlink:href="apply__config__arg_8cpp.html" target="_top" xlink:title=" ">
<polygon fill="white" stroke="#666666" points="2937.88,-142 2789.88,-142 2789.88,-98 2937.88,-98 2937.88,-142"/>
<text xml:space="preserve" text-anchor="start" x="2797.88" y="-128.5" font-family="Helvetica,sans-Serif" font-size="10.00">depicture_menu/src</text>
<text xml:space="preserve" text-anchor="start" x="2797.88" y="-116.5" font-family="Helvetica,sans-Serif" font-size="10.00">/core/cs_binding/apply</text>
<text xml:space="preserve" text-anchor="middle" x="2863.88" y="-104.5" font-family="Helvetica,sans-Serif" font-size="10.00">_domain/apply_config_arg.cpp</text>
</a>
</g>
</g>
<!-- Node19&#45;&gt;Node20 -->
<g id="edge22_Node000019_Node000020" class="edge">
<title>Node19&#45;&gt;Node20</title>
<g id="a_edge22_Node000019_Node000020"><a xlink:title=" ">
<path fill="none" stroke="#63b8ff" d="M2863.88,-184.55C2863.88,-170.59 2863.88,-154.66 2863.88,-142.25"/>
<polygon fill="#63b8ff" stroke="#63b8ff" points="2860.38,-184.18 2863.88,-194.18 2867.38,-184.18 2860.38,-184.18"/>
</a>
</g>
</g>
<!-- Node26&#45;&gt;Node6 -->
<g id="edge30_Node000026_Node000006" class="edge">
<title>Node26&#45;&gt;Node6</title>
<g id="a_edge30_Node000026_Node000006"><a xlink:title=" ">
<path fill="none" stroke="#63b8ff" d="M413.6,-185.65C412.02,-185.08 410.44,-184.53 408.88,-184 341.46,-161.23 297.17,-203.68 252.88,-148 237.38,-128.52 238.16,-112.07 252.88,-92 285.06,-48.11 347.86,-34 394.55,-29.85"/>
<polygon fill="#63b8ff" stroke="#63b8ff" points="412.11,-188.83 422.7,-189.11 414.6,-182.28 412.11,-188.83"/>
</a>
</g>
</g>
<!-- Node26&#45;&gt;Node16 -->
<g id="edge31_Node000026_Node000016" class="edge">
<title>Node26&#45;&gt;Node16</title>
<g id="a_edge31_Node000026_Node000016"><a xlink:title=" ">
<path fill="none" stroke="#63b8ff" d="M481.88,-178.32C481.88,-168.27 481.88,-157.65 481.88,-148.32"/>
<polygon fill="#63b8ff" stroke="#63b8ff" points="478.38,-178.23 481.88,-188.23 485.38,-178.23 478.38,-178.23"/>
</a>
</g>
</g>
<!-- Node27 -->
<g id="Node000027" class="node">
<title>Node27</title>
<g id="a_Node000027"><a xlink:href="combine__view__model__presenter_8hpp.html" target="_top" xlink:title=" ">
<polygon fill="white" stroke="#666666" points="399.62,-142 262.12,-142 262.12,-98 399.62,-98 399.62,-142"/>
<text xml:space="preserve" text-anchor="start" x="270.12" y="-128.5" font-family="Helvetica,sans-Serif" font-size="10.00">depicture_menu/src</text>
<text xml:space="preserve" text-anchor="start" x="270.12" y="-116.5" font-family="Helvetica,sans-Serif" font-size="10.00">/core/presentation/combine</text>
<text xml:space="preserve" text-anchor="middle" x="330.88" y="-104.5" font-family="Helvetica,sans-Serif" font-size="10.00">_view_model_presenter.hpp</text>
</a>
</g>
</g>
<!-- Node26&#45;&gt;Node27 -->
<g id="edge32_Node000026_Node000027" class="edge">
<title>Node26&#45;&gt;Node27</title>
<g id="a_edge32_Node000026_Node000027"><a xlink:title=" ">
<path fill="none" stroke="#63b8ff" d="M429.31,-183.58C407.7,-169.84 383.33,-154.35 364.25,-142.22"/>
<polygon fill="#63b8ff" stroke="#63b8ff" points="427.41,-186.52 437.73,-188.93 431.17,-180.62 427.41,-186.52"/>
</a>
</g>
</g>
<!-- Node28 -->
<g id="Node000028" class="node">
<title>Node28</title>
<g id="a_Node000028"><a xlink:href="_test_config_view_presenter_8cpp.html" target="_top" xlink:title=" ">
<polygon fill="white" stroke="#666666" points="205.75,-142 0,-142 0,-98 205.75,-98 205.75,-142"/>
<text xml:space="preserve" text-anchor="start" x="8" y="-128.5" font-family="Helvetica,sans-Serif" font-size="10.00">depicture_menu/test</text>
<text xml:space="preserve" text-anchor="start" x="8" y="-116.5" font-family="Helvetica,sans-Serif" font-size="10.00">/core/presentation/change</text>
<text xml:space="preserve" text-anchor="middle" x="102.88" y="-104.5" font-family="Helvetica,sans-Serif" font-size="10.00">_view_model/TestConfigViewPresenter.cpp</text>
</a>
</g>
</g>
<!-- Node26&#45;&gt;Node28 -->
<g id="edge35_Node000026_Node000028" class="edge">
<title>Node26&#45;&gt;Node28</title>
<g id="a_edge35_Node000026_Node000028"><a xlink:title=" ">
<path fill="none" stroke="#63b8ff" d="M414.24,-185.78C412.44,-185.16 410.65,-184.56 408.88,-184 327.35,-158.21 303.55,-165.62 219.88,-148 211.61,-146.26 203.04,-144.4 194.45,-142.49"/>
<polygon fill="#63b8ff" stroke="#63b8ff" points="412.58,-188.89 423.17,-189.07 415,-182.32 412.58,-188.89"/>
</a>
</g>
</g>
<!-- Node27&#45;&gt;Node6 -->
<g id="edge33_Node000027_Node000006" class="edge">
<title>Node27&#45;&gt;Node6</title>
<g id="a_edge33_Node000027_Node000006"><a xlink:title=" ">
<path fill="none" stroke="#63b8ff" d="M368.8,-91.03C383.78,-79.97 400.94,-67.31 415.84,-56.32"/>
<polygon fill="#63b8ff" stroke="#63b8ff" points="366.97,-88.02 361.01,-96.77 371.13,-93.65 366.97,-88.02"/>
</a>
</g>
</g>
<!-- Node27&#45;&gt;Node7 -->
<g id="edge34_Node000027_Node000007" class="edge">
<title>Node27&#45;&gt;Node7</title>
<g id="a_edge34_Node000027_Node000007"><a xlink:title=" ">
<path fill="none" stroke="#63b8ff" d="M397.99,-94.49C401.65,-93.56 405.29,-92.72 408.88,-92 595.49,-54.66 1186.08,-35.63 1371.57,-30.47"/>
<polygon fill="#63b8ff" stroke="#63b8ff" points="397.19,-91.09 388.49,-97.14 399.07,-97.83 397.19,-91.09"/>
</a>
</g>
</g>
</g>
</svg>

<g id="navigator" transform="translate(0 0)" fill="#404254">
  <rect fill="#f2f5e9" fill-opacity="0.5" stroke="#606060" stroke-width=".5" x="0" y="0" width="60" height="60"/>
  <use id="zoomplus" xlink:href="#zoomPlus" x="17" y="9" onmousedown="handleZoom(evt,'in')"/>
  <use id="zoomminus" xlink:href="#zoomMin" x="42" y="9" onmousedown="handleZoom(evt,'out')"/>
  <use id="reset" xlink:href="#resetDef" x="30" y="36" onmousedown="handleReset()"/>
   <use id="arrowup" xlink:href="#arrowUp" x="0" y="0" onmousedown="handlePan(0,-1)"/>
  <use id="arrowright" xlink:href="#arrowRight" x="0" y="0" onmousedown="handlePan(1,0)"/>
  <use id="arrowdown" xlink:href="#arrowDown" x="0" y="0" onmousedown="handlePan(0,1)"/>
  <use id="arrowleft" xlink:href="#arrowLeft" x="0" y="0" onmousedown="handlePan(-1,0)"/>
</g>
<svg viewBox="0 0 15 15" width="100%" height="30px" preserveAspectRatio="xMaxYMin meet">
 <g id="arrow_out" transform="scale(0.3 0.3)">
  <a xlink:href="_config_arg_8def__dep__incl_org.svg" target="_base">
   <rect id="button" ry="5" rx="5" y="6" x="6" height="38" width="38"
        fill="#f2f5e9" fill-opacity="0.5" stroke="#606060" stroke-width="1.0"/>
   <path id="arrow"
     d="M 11.500037,31.436501 C 11.940474,20.09759 22.043105,11.32322 32.158766,21.979434 L 37.068811,17.246167 C 37.068811,17.246167 37.088388,32 37.088388,32 L 22.160133,31.978069 C 22.160133,31.978069 26.997745,27.140456 26.997745,27.140456 C 18.528582,18.264221 13.291696,25.230495 11.500037,31.436501 z"
     style="fill:#404040;"/>
  </a>
 </g>
</svg>

<style type='text/css'>
<![CDATA[
[data-mouse-over-selected='false'] { opacity: 0.7; }
[data-mouse-over-selected='true']  { opacity: 1.0; }
]]>
</style>
<script type="application/ecmascript"><![CDATA[
document.addEventListener('DOMContentLoaded', (event) => {
  highlightEdges();
  highlightAdjacentNodes();
});
]]></script>
</svg>
