<?xml version="1.0" encoding="UTF-8" standalone="no"?>
<!DOCTYPE svg PUBLIC "-//W3C//DTD SVG 1.1//EN"
 "http://www.w3.org/Graphics/SVG/1.1/DTD/svg11.dtd">
<!-- Generated by graphviz version 14.1.2 (20260124.0452)
 -->
<!-- Title: depicture_menu/src/core/cs_binding/types/RadialMenuArgs.def Pages: 1 -->
<svg width="1711pt" height="580pt"
 viewBox="0.00 0.00 1711.00 580.00" xmlns="http://www.w3.org/2000/svg" xmlns:xlink="http://www.w3.org/1999/xlink">
<g id="graph0" class="graph" transform="scale(1 1) rotate(0) translate(4 576)">
<title>depicture_menu/src/core/cs_binding/types/RadialMenuArgs.def</title>
<!-- Node1 -->
<g id="Node000001" class="node">
<title>Node1</title>
<g id="a_Node000001"><a xlink:title=" ">
<polygon fill="#999999" stroke="#666666" points="941.32,-572 827.07,-572 827.07,-528 941.32,-528 941.32,-572"/>
<text xml:space="preserve" text-anchor="start" x="835.07" y="-558.5" font-family="Helvetica,sans-Serif" font-size="10.00">depicture_menu/src</text>
<text xml:space="preserve" text-anchor="start" x="835.07" y="-546.5" font-family="Helvetica,sans-Serif" font-size="10.00">/core/cs_binding/types</text>
<text xml:space="preserve" text-anchor="middle" x="884.2" y="-534.5" font-family="Helvetica,sans-Serif" font-size="10.00">/RadialMenuArgs.def</text>
</a>
</g>
</g>
<!-- Node2 -->
<g id="Node000002" class="node">
<title>Node2</title>
<g id="a_Node000002"><a xlink:href="_radial_menu_args_8cpp.html" target="_top" xlink:title=" ">
<polygon fill="white" stroke="#666666" points="779.32,-326 665.07,-326 665.07,-282 779.32,-282 779.32,-326"/>
<text xml:space="preserve" text-anchor="start" x="673.07" y="-312.5" font-family="Helvetica,sans-Serif" font-size="10.00">depicture_menu/src</text>
<text xml:space="preserve" text-anchor="start" x="673.07" y="-300.5" font-family="Helvetica,sans-Serif" font-size="10.00">/core/cs_binding/types</text>
<text xml:space="preserve" text-anchor="middle" x="722.2" y="-288.5" font-family="Helvetica,sans-Serif" font-size="10.00">/RadialMenuArgs.cpp</text>
</a>
</g>
</g>
<!-- Node1&#45;&gt;Node2 -->
<g id="edge1_Node000001_Node000002" class="edge">
<title>Node1&#45;&gt;Node2</title>
<g id="a_edge1_Node000001_Node000002"><a xlink:title=" ">
<path fill="none" stroke="#63b8ff" d="M863.89,-518.41C830.58,-468.25 765.16,-369.72 736.37,-326.35"/>
<polygon fill="#63b8ff" stroke="#63b8ff" points="860.82,-520.12 869.26,-526.51 866.65,-516.25 860.82,-520.12"/>
</a>
</g>
</g>
<!-- Node3 -->
<g id="Node000003" class="node">
<title>Node3</title>
<g id="a_Node000003"><a xlink:href="types_2_radial_menu_args_8hpp.html" target="_top" xlink:title=" ">
<polygon fill="white" stroke="#666666" points="991.32,-492 877.07,-492 877.07,-448 991.32,-448 991.32,-492"/>
<text xml:space="preserve" text-anchor="start" x="885.07" y="-478.5" font-family="Helvetica,sans-Serif" font-size="10.00">depicture_menu/src</text>
<text xml:space="preserve" text-anchor="start" x="885.07" y="-466.5" font-family="Helvetica,sans-Serif" font-size="10.00">/core/cs_binding/types</text>
<text xml:space="preserve" text-anchor="middle" x="934.2" y="-454.5" font-family="Helvetica,sans-Serif" font-size="10.00">/RadialMenuArgs.hpp</text>
</a>
</g>
</g>
<!-- Node1&#45;&gt;Node3 -->
<g id="edge2_Node000001_Node000003" class="edge">
<title>Node1&#45;&gt;Node3</title>
<g id="a_edge2_Node000001_Node000003"><a xlink:title=" ">
<path fill="none" stroke="#63b8ff" d="M903.93,-518.22C909.49,-509.54 915.42,-500.28 920.55,-492.29"/>
<polygon fill="#63b8ff" stroke="#63b8ff" points="901.12,-516.1 898.67,-526.41 907.02,-519.88 901.12,-516.1"/>
</a>
</g>
</g>
<!-- Node4 -->
<g id="Node000004" class="node">
<title>Node4</title>
<g id="a_Node000004"><a xlink:href="_radial_menu_args_8hpp.html" target="_top" xlink:title=" ">
<polygon fill="white" stroke="#666666" points="1090.2,-412 948.2,-412 948.2,-368 1090.2,-368 1090.2,-412"/>
<text xml:space="preserve" text-anchor="start" x="956.2" y="-398.5" font-family="Helvetica,sans-Serif" font-size="10.00">depicture_menu/src</text>
<text xml:space="preserve" text-anchor="start" x="956.2" y="-386.5" font-family="Helvetica,sans-Serif" font-size="10.00">/core/cs_binding/RadialMenu</text>
<text xml:space="preserve" text-anchor="middle" x="1019.2" y="-374.5" font-family="Helvetica,sans-Serif" font-size="10.00">Args.hpp</text>
</a>
</g>
</g>
<!-- Node3&#45;&gt;Node4 -->
<g id="edge3_Node000003_Node000004" class="edge">
<title>Node3&#45;&gt;Node4</title>
<g id="a_edge3_Node000003_Node000004"><a xlink:title=" ">
<path fill="none" stroke="#63b8ff" d="M965.61,-440.17C975.67,-430.94 986.63,-420.88 996,-412.29"/>
<polygon fill="#63b8ff" stroke="#63b8ff" points="963.54,-437.32 958.54,-446.66 968.27,-442.48 963.54,-437.32"/>
</a>
</g>
</g>
<!-- Node4&#45;&gt;Node2 -->
<g id="edge37_Node000004_Node000002" class="edge">
<title>Node4&#45;&gt;Node2</title>
<g id="a_edge37_Node000004_Node000002"><a xlink:title=" ">
<path fill="none" stroke="#63b8ff" d="M936.84,-370.66C893.72,-360.45 840.24,-346.82 793.2,-332 787.79,-330.3 782.19,-328.4 776.63,-326.43"/>
<polygon fill="#63b8ff" stroke="#63b8ff" points="935.85,-374.03 946.38,-372.91 937.45,-367.21 935.85,-374.03"/>
</a>
</g>
</g>
<!-- Node5 -->
<g id="Node000005" class="node">
<title>Node5</title>
<g id="a_Node000005"><a xlink:href="core__interface_8cpp.html" target="_top" xlink:title=" ">
<polygon fill="white" stroke="#666666" points="1478.7,-326 1369.7,-326 1369.7,-282 1478.7,-282 1478.7,-326"/>
<text xml:space="preserve" text-anchor="start" x="1377.7" y="-312.5" font-family="Helvetica,sans-Serif" font-size="10.00">depicture_menu/src</text>
<text xml:space="preserve" text-anchor="start" x="1377.7" y="-300.5" font-family="Helvetica,sans-Serif" font-size="10.00">/core/application/core</text>
<text xml:space="preserve" text-anchor="middle" x="1424.2" y="-288.5" font-family="Helvetica,sans-Serif" font-size="10.00">_interface.cpp</text>
</a>
</g>
</g>
<!-- Node4&#45;&gt;Node5 -->
<g id="edge4_Node000004_Node000005" class="edge">
<title>Node4&#45;&gt;Node5</title>
<g id="a_edge4_Node000004_Node000005"><a xlink:title=" ">
<path fill="none" stroke="#63b8ff" d="M1101.76,-379.79C1170.41,-370.99 1270.27,-355.55 1355.2,-332 1361.02,-330.38 1367.03,-328.45 1372.97,-326.37"/>
<polygon fill="#63b8ff" stroke="#63b8ff" points="1101.58,-376.29 1092.09,-381.01 1102.45,-383.23 1101.58,-376.29"/>
</a>
</g>
</g>
<!-- Node6 -->
<g id="Node000006" class="node">
<title>Node6</title>
<g id="a_Node000006"><a xlink:href="menu__view__arg__builder_8hpp.html" target="_top" xlink:title=" ">
<polygon fill="white" stroke="#666666" points="717.32,-240 603.07,-240 603.07,-184 717.32,-184 717.32,-240"/>
<text xml:space="preserve" text-anchor="start" x="611.07" y="-226.5" font-family="Helvetica,sans-Serif" font-size="10.00">depicture_menu/src</text>
<text xml:space="preserve" text-anchor="start" x="611.07" y="-214.5" font-family="Helvetica,sans-Serif" font-size="10.00">/core/application/cs</text>
<text xml:space="preserve" text-anchor="start" x="611.07" y="-202.5" font-family="Helvetica,sans-Serif" font-size="10.00">_binding_factory/menu</text>
<text xml:space="preserve" text-anchor="middle" x="660.2" y="-190.5" font-family="Helvetica,sans-Serif" font-size="10.00">_view_arg_builder.hpp</text>
</a>
</g>
</g>
<!-- Node4&#45;&gt;Node6 -->
<g id="edge5_Node000004_Node000006" class="edge">
<title>Node4&#45;&gt;Node6</title>
<g id="a_edge5_Node000004_Node000006"><a xlink:title=" ">
<path fill="none" stroke="#63b8ff" d="M936.79,-377.57C900.29,-369.41 858.41,-355.53 826.2,-332 801.91,-314.26 810.89,-295.74 788.2,-276 767.64,-258.12 741.12,-243.97 717.55,-233.65"/>
<polygon fill="#63b8ff" stroke="#63b8ff" points="935.95,-380.97 946.45,-379.61 937.39,-374.12 935.95,-380.97"/>
</a>
</g>
</g>
<!-- Node11 -->
<g id="Node000011" class="node">
<title>Node11</title>
<g id="a_Node000011"><a xlink:href="menu__view__arg__holder_8hpp.html" target="_top" xlink:title=" ">
<polygon fill="white" stroke="#666666" points="949.32,-332 835.07,-332 835.07,-276 949.32,-276 949.32,-332"/>
<text xml:space="preserve" text-anchor="start" x="843.07" y="-318.5" font-family="Helvetica,sans-Serif" font-size="10.00">depicture_menu/src</text>
<text xml:space="preserve" text-anchor="start" x="843.07" y="-306.5" font-family="Helvetica,sans-Serif" font-size="10.00">/core/application/cs</text>
<text xml:space="preserve" text-anchor="start" x="843.07" y="-294.5" font-family="Helvetica,sans-Serif" font-size="10.00">_binding_factory/menu</text>
<text xml:space="preserve" text-anchor="middle" x="892.2" y="-282.5" font-family="Helvetica,sans-Serif" font-size="10.00">_view_arg_holder.hpp</text>
</a>
</g>
</g>
<!-- Node4&#45;&gt;Node11 -->
<g id="edge10_Node000004_Node000011" class="edge">
<title>Node4&#45;&gt;Node11</title>
<g id="a_edge10_Node000004_Node000011"><a xlink:title=" ">
<path fill="none" stroke="#63b8ff" d="M977.39,-361.35C963.33,-352.05 947.67,-341.69 933.65,-332.42"/>
<polygon fill="#63b8ff" stroke="#63b8ff" points="975.29,-364.15 985.56,-366.75 979.15,-358.32 975.29,-364.15"/>
</a>
</g>
</g>
<!-- Node15 -->
<g id="Node000015" class="node">
<title>Node15</title>
<g id="a_Node000015"><a xlink:href="command__invoker_8hpp.html" target="_top" xlink:title=" ">
<polygon fill="white" stroke="#666666" points="951.45,-234 822.95,-234 822.95,-190 951.45,-190 951.45,-234"/>
<text xml:space="preserve" text-anchor="start" x="830.95" y="-220.5" font-family="Helvetica,sans-Serif" font-size="10.00">depicture_menu/src</text>
<text xml:space="preserve" text-anchor="start" x="830.95" y="-208.5" font-family="Helvetica,sans-Serif" font-size="10.00">/core/presentation/invoker</text>
<text xml:space="preserve" text-anchor="middle" x="887.2" y="-196.5" font-family="Helvetica,sans-Serif" font-size="10.00">/command_invoker.hpp</text>
</a>
</g>
</g>
<!-- Node4&#45;&gt;Node15 -->
<g id="edge39_Node000004_Node000015" class="edge">
<title>Node4&#45;&gt;Node15</title>
<g id="a_edge39_Node000004_Node000015"><a xlink:title=" ">
<path fill="none" stroke="#63b8ff" d="M1005.82,-357.46C994.93,-333.75 978.12,-301.15 958.2,-276 945.91,-260.5 929.55,-245.69 915.62,-234.33"/>
<polygon fill="#63b8ff" stroke="#63b8ff" points="1002.5,-358.6 1009.78,-366.3 1008.88,-355.74 1002.5,-358.6"/>
</a>
</g>
</g>
<!-- Node17 -->
<g id="Node000017" class="node">
<title>Node17</title>
<g id="a_Node000017"><a xlink:href="_core_model_8hpp.html" target="_top" xlink:title=" ">
<polygon fill="white" stroke="#666666" points="1125.32,-228 969.07,-228 969.07,-196 1125.32,-196 1125.32,-228"/>
<text xml:space="preserve" text-anchor="start" x="977.07" y="-214.5" font-family="Helvetica,sans-Serif" font-size="10.00">depicture_menu/src</text>
<text xml:space="preserve" text-anchor="middle" x="1047.2" y="-202.5" font-family="Helvetica,sans-Serif" font-size="10.00">/core/cs_binding/CoreModel.hpp</text>
</a>
</g>
</g>
<!-- Node4&#45;&gt;Node17 -->
<g id="edge25_Node000004_Node000017" class="edge">
<title>Node4&#45;&gt;Node17</title>
<g id="a_edge25_Node000004_Node000017"><a xlink:title=" ">
<path fill="none" stroke="#63b8ff" d="M1024.33,-356.75C1030.4,-318.56 1040.26,-256.57 1044.79,-228.13"/>
<polygon fill="#63b8ff" stroke="#63b8ff" points="1020.93,-355.85 1022.81,-366.28 1027.84,-356.95 1020.93,-355.85"/>
</a>
</g>
</g>
<!-- Node20 -->
<g id="Node000020" class="node">
<title>Node20</title>
<g id="a_Node000020"><a xlink:href="cs__bindings_8cpp.html" target="_top" xlink:title=" ">
<polygon fill="white" stroke="#666666" points="1703.2,-148 1585.2,-148 1585.2,-92 1703.2,-92 1703.2,-148"/>
<text xml:space="preserve" text-anchor="start" x="1593.2" y="-134.5" font-family="Helvetica,sans-Serif" font-size="10.00">depicture_menu/src</text>
<text xml:space="preserve" text-anchor="start" x="1593.2" y="-122.5" font-family="Helvetica,sans-Serif" font-size="10.00">/core/dll_entry_point</text>
<text xml:space="preserve" text-anchor="start" x="1593.2" y="-110.5" font-family="Helvetica,sans-Serif" font-size="10.00">/cs_binding/menu_view</text>
<text xml:space="preserve" text-anchor="middle" x="1644.2" y="-98.5" font-family="Helvetica,sans-Serif" font-size="10.00">/cs_bindings.cpp</text>
</a>
</g>
</g>
<!-- Node4&#45;&gt;Node20 -->
<g id="edge38_Node000004_Node000020" class="edge">
<title>Node4&#45;&gt;Node20</title>
<g id="a_edge38_Node000004_Node000020"><a xlink:title=" ">
<path fill="none" stroke="#63b8ff" d="M1043.27,-358.93C1066.93,-329.13 1103.8,-281.97 1134.2,-240 1151.84,-215.64 1146.29,-199.28 1172.2,-184 1247.73,-139.44 1479.43,-166.31 1565.2,-148 1571.72,-146.61 1578.44,-144.84 1585.09,-142.89"/>
<polygon fill="#63b8ff" stroke="#63b8ff" points="1040.8,-356.41 1037.32,-366.41 1046.28,-360.77 1040.8,-356.41"/>
</a>
</g>
</g>
<!-- Node22 -->
<g id="Node000022" class="node">
<title>Node22</title>
<g id="a_Node000022"><a xlink:href="apply__menus_8hpp.html" target="_top" xlink:title=" ">
<polygon fill="white" stroke="#666666" points="1313.32,-326 1181.07,-326 1181.07,-282 1313.32,-282 1313.32,-326"/>
<text xml:space="preserve" text-anchor="start" x="1189.07" y="-312.5" font-family="Helvetica,sans-Serif" font-size="10.00">depicture_menu/src</text>
<text xml:space="preserve" text-anchor="start" x="1189.07" y="-300.5" font-family="Helvetica,sans-Serif" font-size="10.00">/core/cs_binding/apply</text>
<text xml:space="preserve" text-anchor="middle" x="1247.2" y="-288.5" font-family="Helvetica,sans-Serif" font-size="10.00">_domain/apply_menus.hpp</text>
</a>
</g>
</g>
<!-- Node4&#45;&gt;Node22 -->
<g id="edge34_Node000004_Node000022" class="edge">
<title>Node4&#45;&gt;Node22</title>
<g id="a_edge34_Node000004_Node000022"><a xlink:title=" ">
<path fill="none" stroke="#63b8ff" d="M1088.03,-363.64C1120.32,-351.74 1158.37,-337.72 1189.18,-326.37"/>
<polygon fill="#63b8ff" stroke="#63b8ff" points="1086.91,-360.32 1078.74,-367.06 1089.33,-366.89 1086.91,-360.32"/>
</a>
</g>
</g>
<!-- Node24 -->
<g id="Node000024" class="node">
<title>Node24</title>
<g id="a_Node000024"><a xlink:href="_test_radial_menu_arg_8cpp.html" target="_top" xlink:title=" ">
<polygon fill="white" stroke="#666666" points="1468.57,-234 1331.82,-234 1331.82,-190 1468.57,-190 1468.57,-234"/>
<text xml:space="preserve" text-anchor="start" x="1339.82" y="-220.5" font-family="Helvetica,sans-Serif" font-size="10.00">depicture_menu/test</text>
<text xml:space="preserve" text-anchor="start" x="1339.82" y="-208.5" font-family="Helvetica,sans-Serif" font-size="10.00">/core/cs_binding/TestRadial</text>
<text xml:space="preserve" text-anchor="middle" x="1400.2" y="-196.5" font-family="Helvetica,sans-Serif" font-size="10.00">MenuArg.cpp</text>
</a>
</g>
</g>
<!-- Node4&#45;&gt;Node24 -->
<g id="edge40_Node000004_Node000024" class="edge">
<title>Node4&#45;&gt;Node24</title>
<g id="a_edge40_Node000004_Node000024"><a xlink:title=" ">
<path fill="none" stroke="#63b8ff" d="M1101.58,-380.81C1178.57,-371.87 1286.81,-355.6 1322.2,-332 1326.96,-328.82 1365.77,-267.77 1386.79,-234.38"/>
<polygon fill="#63b8ff" stroke="#63b8ff" points="1101.51,-377.3 1091.97,-381.91 1102.3,-384.25 1101.51,-377.3"/>
</a>
</g>
</g>
<!-- Node7 -->
<g id="Node000007" class="node">
<title>Node7</title>
<g id="a_Node000007"><a xlink:href="config__view__arg__builder_8cpp.html" target="_top" xlink:title=" ">
<polygon fill="white" stroke="#666666" points="543.45,-56 426.95,-56 426.95,0 543.45,0 543.45,-56"/>
<text xml:space="preserve" text-anchor="start" x="434.95" y="-42.5" font-family="Helvetica,sans-Serif" font-size="10.00">depicture_menu/src</text>
<text xml:space="preserve" text-anchor="start" x="434.95" y="-30.5" font-family="Helvetica,sans-Serif" font-size="10.00">/core/application/cs</text>
<text xml:space="preserve" text-anchor="start" x="434.95" y="-18.5" font-family="Helvetica,sans-Serif" font-size="10.00">_binding_factory/config</text>
<text xml:space="preserve" text-anchor="middle" x="485.2" y="-6.5" font-family="Helvetica,sans-Serif" font-size="10.00">_view_arg_builder.cpp</text>
</a>
</g>
</g>
<!-- Node6&#45;&gt;Node7 -->
<g id="edge6_Node000006_Node000007" class="edge">
<title>Node6&#45;&gt;Node7</title>
<g id="a_edge6_Node000006_Node000007"><a xlink:title=" ">
<path fill="none" stroke="#63b8ff" d="M591.86,-199.34C560.54,-190.47 525.68,-174.98 504.2,-148 483.47,-121.98 481.16,-82.38 482.38,-56.1"/>
<polygon fill="#63b8ff" stroke="#63b8ff" points="590.73,-202.66 601.29,-201.82 592.51,-195.89 590.73,-202.66"/>
</a>
</g>
</g>
<!-- Node8 -->
<g id="Node000008" class="node">
<title>Node8</title>
<g id="a_Node000008"><a xlink:href="menu__view__arg__builder_8cpp.html" target="_top" xlink:title=" ">
<polygon fill="white" stroke="#666666" points="627.32,-148 513.07,-148 513.07,-92 627.32,-92 627.32,-148"/>
<text xml:space="preserve" text-anchor="start" x="521.07" y="-134.5" font-family="Helvetica,sans-Serif" font-size="10.00">depicture_menu/src</text>
<text xml:space="preserve" text-anchor="start" x="521.07" y="-122.5" font-family="Helvetica,sans-Serif" font-size="10.00">/core/application/cs</text>
<text xml:space="preserve" text-anchor="start" x="521.07" y="-110.5" font-family="Helvetica,sans-Serif" font-size="10.00">_binding_factory/menu</text>
<text xml:space="preserve" text-anchor="middle" x="570.2" y="-98.5" font-family="Helvetica,sans-Serif" font-size="10.00">_view_arg_builder.cpp</text>
</a>
</g>
</g>
<!-- Node6&#45;&gt;Node8 -->
<g id="edge7_Node000006_Node000008" class="edge">
<title>Node6&#45;&gt;Node8</title>
<g id="a_edge7_Node000006_Node000008"><a xlink:title=" ">
<path fill="none" stroke="#63b8ff" d="M624.62,-175.42C615.6,-166.4 606.05,-156.86 597.52,-148.32"/>
<polygon fill="#63b8ff" stroke="#63b8ff" points="622.09,-177.84 631.63,-182.44 627.04,-172.89 622.09,-177.84"/>
</a>
</g>
</g>
<!-- Node9 -->
<g id="Node000009" class="node">
<title>Node9</title>
<g id="a_Node000009"><a xlink:href="setup__core_8cpp.html" target="_top" xlink:title=" ">
<polygon fill="white" stroke="#666666" points="389.2,-56 277.2,-56 277.2,0 389.2,0 389.2,-56"/>
<text xml:space="preserve" text-anchor="start" x="285.2" y="-42.5" font-family="Helvetica,sans-Serif" font-size="10.00">depicture_menu/src</text>
<text xml:space="preserve" text-anchor="start" x="285.2" y="-30.5" font-family="Helvetica,sans-Serif" font-size="10.00">/core/dll_entry_point</text>
<text xml:space="preserve" text-anchor="start" x="285.2" y="-18.5" font-family="Helvetica,sans-Serif" font-size="10.00">/domain_control/setup</text>
<text xml:space="preserve" text-anchor="middle" x="333.2" y="-6.5" font-family="Helvetica,sans-Serif" font-size="10.00">_core.cpp</text>
</a>
</g>
</g>
<!-- Node6&#45;&gt;Node9 -->
<g id="edge8_Node000006_Node000009" class="edge">
<title>Node6&#45;&gt;Node9</title>
<g id="a_edge8_Node000006_Node000009"><a xlink:title=" ">
<path fill="none" stroke="#63b8ff" d="M591.94,-193.17C557.25,-182.63 515.16,-167.49 480.2,-148 434.6,-122.58 388.93,-82.83 360.88,-56.36"/>
<polygon fill="#63b8ff" stroke="#63b8ff" points="590.89,-196.51 601.47,-196 592.88,-189.8 590.89,-196.51"/>
</a>
</g>
</g>
<!-- Node10 -->
<g id="Node000010" class="node">
<title>Node10</title>
<g id="a_Node000010"><a xlink:href="menu__view__presenter_8cpp.html" target="_top" xlink:title=" ">
<polygon fill="white" stroke="#666666" points="835.2,-142 645.2,-142 645.2,-98 835.2,-98 835.2,-142"/>
<text xml:space="preserve" text-anchor="start" x="653.2" y="-128.5" font-family="Helvetica,sans-Serif" font-size="10.00">depicture_menu/src</text>
<text xml:space="preserve" text-anchor="start" x="653.2" y="-116.5" font-family="Helvetica,sans-Serif" font-size="10.00">/core/presentation/change</text>
<text xml:space="preserve" text-anchor="middle" x="740.2" y="-104.5" font-family="Helvetica,sans-Serif" font-size="10.00">_view_model/menu_view_presenter.cpp</text>
</a>
</g>
</g>
<!-- Node6&#45;&gt;Node10 -->
<g id="edge9_Node000006_Node000010" class="edge">
<title>Node6&#45;&gt;Node10</title>
<g id="a_edge9_Node000006_Node000010"><a xlink:title=" ">
<path fill="none" stroke="#63b8ff" d="M692.02,-175.2C701.92,-164.06 712.51,-152.15 721.24,-142.33"/>
<polygon fill="#63b8ff" stroke="#63b8ff" points="689.67,-172.58 685.64,-182.38 694.9,-177.23 689.67,-172.58"/>
</a>
</g>
</g>
<!-- Node11&#45;&gt;Node6 -->
<g id="edge11_Node000011_Node000006" class="edge">
<title>Node11&#45;&gt;Node6</title>
<g id="a_edge11_Node000011_Node000006"><a xlink:title=" ">
<path fill="none" stroke="#63b8ff" d="M824.12,-276.59C790.31,-263.48 749.92,-247.81 717.69,-235.3"/>
<polygon fill="#63b8ff" stroke="#63b8ff" points="822.85,-279.85 833.44,-280.21 825.38,-273.33 822.85,-279.85"/>
</a>
</g>
</g>
<!-- Node12 -->
<g id="Node000012" class="node">
<title>Node12</title>
<g id="a_Node000012"><a xlink:href="menu__view__presenter_8hpp.html" target="_top" xlink:title=" ">
<polygon fill="white" stroke="#666666" points="504.2,-234 314.2,-234 314.2,-190 504.2,-190 504.2,-234"/>
<text xml:space="preserve" text-anchor="start" x="322.2" y="-220.5" font-family="Helvetica,sans-Serif" font-size="10.00">depicture_menu/src</text>
<text xml:space="preserve" text-anchor="start" x="322.2" y="-208.5" font-family="Helvetica,sans-Serif" font-size="10.00">/core/presentation/change</text>
<text xml:space="preserve" text-anchor="middle" x="409.2" y="-196.5" font-family="Helvetica,sans-Serif" font-size="10.00">_view_model/menu_view_presenter.hpp</text>
</a>
</g>
</g>
<!-- Node11&#45;&gt;Node12 -->
<g id="edge12_Node000011_Node000012" class="edge">
<title>Node11&#45;&gt;Node12</title>
<g id="a_edge12_Node000011_Node000012"><a xlink:title=" ">
<path fill="none" stroke="#63b8ff" d="M823.53,-284.25C811.79,-281.31 799.67,-278.44 788.2,-276 692.29,-255.62 581.56,-237.87 504.65,-226.45"/>
<polygon fill="#63b8ff" stroke="#63b8ff" points="822.63,-287.63 833.19,-286.71 824.36,-280.85 822.63,-287.63"/>
</a>
</g>
</g>
<!-- Node11&#45;&gt;Node15 -->
<g id="edge21_Node000011_Node000015" class="edge">
<title>Node11&#45;&gt;Node15</title>
<g id="a_edge21_Node000011_Node000015"><a xlink:title=" ">
<path fill="none" stroke="#63b8ff" d="M890.04,-264.23C889.47,-253.98 888.88,-243.28 888.38,-234.33"/>
<polygon fill="#63b8ff" stroke="#63b8ff" points="886.53,-264.21 890.58,-274 893.52,-263.82 886.53,-264.21"/>
</a>
</g>
</g>
<!-- Node12&#45;&gt;Node7 -->
<g id="edge13_Node000012_Node000007" class="edge">
<title>Node12&#45;&gt;Node7</title>
<g id="a_edge13_Node000012_Node000007"><a xlink:title=" ">
<path fill="none" stroke="#63b8ff" d="M422.46,-179.24C436.98,-144.45 460.05,-89.23 473.79,-56.31"/>
<polygon fill="#63b8ff" stroke="#63b8ff" points="419.27,-177.79 418.65,-188.37 425.73,-180.49 419.27,-177.79"/>
</a>
</g>
</g>
<!-- Node12&#45;&gt;Node8 -->
<g id="edge14_Node000012_Node000008" class="edge">
<title>Node12&#45;&gt;Node8</title>
<g id="a_edge14_Node000012_Node000008"><a xlink:title=" ">
<path fill="none" stroke="#63b8ff" d="M457.25,-184.14C477.38,-172.88 500.77,-159.81 521.02,-148.49"/>
<polygon fill="#63b8ff" stroke="#63b8ff" points="455.69,-181 448.67,-188.93 459.11,-187.11 455.69,-181"/>
</a>
</g>
</g>
<!-- Node12&#45;&gt;Node9 -->
<g id="edge15_Node000012_Node000009" class="edge">
<title>Node12&#45;&gt;Node9</title>
<g id="a_edge15_Node000012_Node000009"><a xlink:title=" ">
<path fill="none" stroke="#63b8ff" d="M302.5,-208.98C198.7,-204.49 51.48,-190.55 15.2,-148 -59.87,-59.98 167.04,-36.98 277.04,-31.04"/>
<polygon fill="#63b8ff" stroke="#63b8ff" points="302.34,-212.47 312.47,-209.38 302.62,-205.48 302.34,-212.47"/>
</a>
</g>
</g>
<!-- Node12&#45;&gt;Node10 -->
<g id="edge16_Node000012_Node000010" class="edge">
<title>Node12&#45;&gt;Node10</title>
<g id="a_edge16_Node000012_Node000010"><a xlink:title=" ">
<path fill="none" stroke="#63b8ff" d="M499.02,-186.58C549.74,-172.78 612.56,-155.7 661.36,-142.43"/>
<polygon fill="#63b8ff" stroke="#63b8ff" points="498.25,-183.16 489.52,-189.16 500.09,-189.91 498.25,-183.16"/>
</a>
</g>
</g>
<!-- Node13 -->
<g id="Node000013" class="node">
<title>Node13</title>
<g id="a_Node000013"><a xlink:href="combine__view__model__presenter_8hpp.html" target="_top" xlink:title=" ">
<polygon fill="white" stroke="#666666" points="380.95,-142 243.45,-142 243.45,-98 380.95,-98 380.95,-142"/>
<text xml:space="preserve" text-anchor="start" x="251.45" y="-128.5" font-family="Helvetica,sans-Serif" font-size="10.00">depicture_menu/src</text>
<text xml:space="preserve" text-anchor="start" x="251.45" y="-116.5" font-family="Helvetica,sans-Serif" font-size="10.00">/core/presentation/combine</text>
<text xml:space="preserve" text-anchor="middle" x="312.2" y="-104.5" font-family="Helvetica,sans-Serif" font-size="10.00">_view_model_presenter.hpp</text>
</a>
</g>
</g>
<!-- Node12&#45;&gt;Node13 -->
<g id="edge17_Node000012_Node000013" class="edge">
<title>Node12&#45;&gt;Node13</title>
<g id="a_edge17_Node000012_Node000013"><a xlink:title=" ">
<path fill="none" stroke="#63b8ff" d="M377.92,-181.98C364.08,-169.14 348.1,-154.31 335.35,-142.49"/>
<polygon fill="#63b8ff" stroke="#63b8ff" points="375.39,-184.41 385.1,-188.64 380.15,-179.27 375.39,-184.41"/>
</a>
</g>
</g>
<!-- Node14 -->
<g id="Node000014" class="node">
<title>Node14</title>
<g id="a_Node000014"><a xlink:href="_test_menu_view_presenter_8cpp.html" target="_top" xlink:title=" ">
<polygon fill="white" stroke="#666666" points="225.82,-142 24.57,-142 24.57,-98 225.82,-98 225.82,-142"/>
<text xml:space="preserve" text-anchor="start" x="32.57" y="-128.5" font-family="Helvetica,sans-Serif" font-size="10.00">depicture_menu/test</text>
<text xml:space="preserve" text-anchor="start" x="32.57" y="-116.5" font-family="Helvetica,sans-Serif" font-size="10.00">/core/presentation/change</text>
<text xml:space="preserve" text-anchor="middle" x="125.2" y="-104.5" font-family="Helvetica,sans-Serif" font-size="10.00">_view_model/TestMenuViewPresenter.cpp</text>
</a>
</g>
</g>
<!-- Node12&#45;&gt;Node14 -->
<g id="edge20_Node000012_Node000014" class="edge">
<title>Node12&#45;&gt;Node14</title>
<g id="a_edge20_Node000012_Node000014"><a xlink:title=" ">
<path fill="none" stroke="#63b8ff" d="M330.75,-186.14C287.47,-172.43 234.27,-155.57 192.83,-142.43"/>
<polygon fill="#63b8ff" stroke="#63b8ff" points="329.5,-189.42 340.09,-189.1 331.61,-182.74 329.5,-189.42"/>
</a>
</g>
</g>
<!-- Node13&#45;&gt;Node7 -->
<g id="edge18_Node000013_Node000007" class="edge">
<title>Node13&#45;&gt;Node7</title>
<g id="a_edge18_Node000013_Node000007"><a xlink:title=" ">
<path fill="none" stroke="#63b8ff" d="M363.24,-92.45C385,-81.12 410.39,-67.91 432.35,-56.49"/>
<polygon fill="#63b8ff" stroke="#63b8ff" points="361.79,-89.25 354.54,-96.97 365.02,-95.46 361.79,-89.25"/>
</a>
</g>
</g>
<!-- Node13&#45;&gt;Node9 -->
<g id="edge19_Node000013_Node000009" class="edge">
<title>Node13&#45;&gt;Node9</title>
<g id="a_edge19_Node000013_Node000009"><a xlink:title=" ">
<path fill="none" stroke="#63b8ff" d="M319.76,-86.57C322.08,-76.66 324.59,-65.86 326.82,-56.32"/>
<polygon fill="#63b8ff" stroke="#63b8ff" points="316.38,-85.66 317.52,-96.2 323.2,-87.25 316.38,-85.66"/>
</a>
</g>
</g>
<!-- Node15&#45;&gt;Node7 -->
<g id="edge22_Node000015_Node000007" class="edge">
<title>Node15&#45;&gt;Node7</title>
<g id="a_edge22_Node000015_Node000007"><a xlink:title=" ">
<path fill="none" stroke="#63b8ff" d="M884.29,-178.44C880.06,-151.19 869.68,-113.42 844.2,-92 799.63,-54.55 633.67,-38.39 543.84,-32.26"/>
<polygon fill="#63b8ff" stroke="#63b8ff" points="880.81,-178.81 885.59,-188.26 887.75,-177.89 880.81,-178.81"/>
</a>
</g>
</g>
<!-- Node15&#45;&gt;Node8 -->
<g id="edge23_Node000015_Node000008" class="edge">
<title>Node15&#45;&gt;Node8</title>
<g id="a_edge23_Node000015_Node000008"><a xlink:title=" ">
<path fill="none" stroke="#63b8ff" d="M811.42,-194.94C761.2,-183.58 694.14,-167.02 636.2,-148 633.37,-147.07 630.5,-146.08 627.61,-145.05"/>
<polygon fill="#63b8ff" stroke="#63b8ff" points="810.51,-198.33 821.04,-197.1 812.05,-191.5 810.51,-198.33"/>
</a>
</g>
</g>
<!-- Node16 -->
<g id="Node000016" class="node">
<title>Node16</title>
<g id="a_Node000016"><a xlink:href="command__invoker_8cpp.html" target="_top" xlink:title=" ">
<polygon fill="white" stroke="#666666" points="1019.45,-142 890.95,-142 890.95,-98 1019.45,-98 1019.45,-142"/>
<text xml:space="preserve" text-anchor="start" x="898.95" y="-128.5" font-family="Helvetica,sans-Serif" font-size="10.00">depicture_menu/src</text>
<text xml:space="preserve" text-anchor="start" x="898.95" y="-116.5" font-family="Helvetica,sans-Serif" font-size="10.00">/core/presentation/invoker</text>
<text xml:space="preserve" text-anchor="middle" x="955.2" y="-104.5" font-family="Helvetica,sans-Serif" font-size="10.00">/command_invoker.cpp</text>
</a>
</g>
</g>
<!-- Node15&#45;&gt;Node16 -->
<g id="edge24_Node000015_Node000016" class="edge">
<title>Node15&#45;&gt;Node16</title>
<g id="a_edge24_Node000015_Node000016"><a xlink:title=" ">
<path fill="none" stroke="#63b8ff" d="M910.23,-180.52C919.66,-168.03 930.37,-153.86 938.96,-142.49"/>
<polygon fill="#63b8ff" stroke="#63b8ff" points="907.46,-178.38 904.22,-188.46 913.04,-182.59 907.46,-178.38"/>
</a>
</g>
</g>
<!-- Node17&#45;&gt;Node7 -->
<g id="edge26_Node000017_Node000007" class="edge">
<title>Node17&#45;&gt;Node7</title>
<g id="a_edge26_Node000017_Node000007"><a xlink:title=" ">
<path fill="none" stroke="#63b8ff" d="M1103.96,-192.46C1115.52,-189.22 1127.67,-186.19 1139.2,-184 1317.98,-150.04 1662.98,-224.47 1538.2,-92 1503.88,-55.57 760.2,-35.42 543.78,-30.31"/>
<polygon fill="#63b8ff" stroke="#63b8ff" points="1103.18,-189.04 1094.55,-195.19 1105.13,-195.77 1103.18,-189.04"/>
</a>
</g>
</g>
<!-- Node17&#45;&gt;Node9 -->
<g id="edge30_Node000017_Node000009" class="edge">
<title>Node17&#45;&gt;Node9</title>
<g id="a_edge30_Node000017_Node000009"><a xlink:title=" ">
<path fill="none" stroke="#63b8ff" d="M1051.46,-184.74C1054.27,-157.27 1053.6,-114.99 1028.2,-92 977.86,-46.43 484.95,-68.37 418.2,-56 408.76,-54.25 398.9,-51.76 389.39,-49"/>
<polygon fill="#63b8ff" stroke="#63b8ff" points="1048.03,-184 1050.25,-194.36 1054.98,-184.88 1048.03,-184"/>
</a>
</g>
</g>
<!-- Node17&#45;&gt;Node10 -->
<g id="edge32_Node000017_Node000010" class="edge">
<title>Node17&#45;&gt;Node10</title>
<g id="a_edge32_Node000017_Node000010"><a xlink:title=" ">
<path fill="none" stroke="#63b8ff" d="M987.15,-192.18C978.13,-189.4 968.92,-186.6 960.2,-184 912.61,-169.8 859.04,-154.45 816.68,-142.45"/>
<polygon fill="#63b8ff" stroke="#63b8ff" points="985.99,-195.48 996.58,-195.09 988.05,-188.79 985.99,-195.48"/>
</a>
</g>
</g>
<!-- Node17&#45;&gt;Node16 -->
<g id="edge33_Node000017_Node000016" class="edge">
<title>Node17&#45;&gt;Node16</title>
<g id="a_edge33_Node000017_Node000016"><a xlink:title=" ">
<path fill="none" stroke="#63b8ff" d="M1023.65,-187.97C1009.32,-173.95 991.12,-156.15 977.1,-142.43"/>
<polygon fill="#63b8ff" stroke="#63b8ff" points="1020.91,-190.18 1030.51,-194.67 1025.81,-185.18 1020.91,-190.18"/>
</a>
</g>
</g>
<!-- Node18 -->
<g id="Node000018" class="node">
<title>Node18</title>
<g id="a_Node000018"><a xlink:href="menu__config__controler_8cpp.html" target="_top" xlink:title=" ">
<polygon fill="white" stroke="#666666" points="1249.32,-142 1075.07,-142 1075.07,-98 1249.32,-98 1249.32,-142"/>
<text xml:space="preserve" text-anchor="start" x="1083.07" y="-128.5" font-family="Helvetica,sans-Serif" font-size="10.00">depicture_menu/src</text>
<text xml:space="preserve" text-anchor="start" x="1083.07" y="-116.5" font-family="Helvetica,sans-Serif" font-size="10.00">/core/control/config</text>
<text xml:space="preserve" text-anchor="middle" x="1162.2" y="-104.5" font-family="Helvetica,sans-Serif" font-size="10.00">_window/menu_config_controler.cpp</text>
</a>
</g>
</g>
<!-- Node17&#45;&gt;Node18 -->
<g id="edge27_Node000017_Node000018" class="edge">
<title>Node17&#45;&gt;Node18</title>
<g id="a_edge27_Node000017_Node000018"><a xlink:title=" ">
<path fill="none" stroke="#63b8ff" d="M1075.89,-188.54C1093.96,-174.4 1117.15,-156.25 1134.94,-142.33"/>
<polygon fill="#63b8ff" stroke="#63b8ff" points="1073.87,-185.68 1068.16,-194.6 1078.19,-191.19 1073.87,-185.68"/>
</a>
</g>
</g>
<!-- Node19 -->
<g id="Node000019" class="node">
<title>Node19</title>
<g id="a_Node000019"><a xlink:href="cs__binding__core__model_8cpp.html" target="_top" xlink:title=" ">
<polygon fill="white" stroke="#666666" points="1382.7,-148 1267.7,-148 1267.7,-92 1382.7,-92 1382.7,-148"/>
<text xml:space="preserve" text-anchor="start" x="1275.7" y="-134.5" font-family="Helvetica,sans-Serif" font-size="10.00">depicture_menu/src</text>
<text xml:space="preserve" text-anchor="start" x="1275.7" y="-122.5" font-family="Helvetica,sans-Serif" font-size="10.00">/core/dll_entry_point</text>
<text xml:space="preserve" text-anchor="start" x="1275.7" y="-110.5" font-family="Helvetica,sans-Serif" font-size="10.00">/cs_binding/cs_binding</text>
<text xml:space="preserve" text-anchor="middle" x="1325.2" y="-98.5" font-family="Helvetica,sans-Serif" font-size="10.00">_core_model.cpp</text>
</a>
</g>
</g>
<!-- Node17&#45;&gt;Node19 -->
<g id="edge28_Node000017_Node000019" class="edge">
<title>Node17&#45;&gt;Node19</title>
<g id="a_edge28_Node000017_Node000019"><a xlink:title=" ">
<path fill="none" stroke="#63b8ff" d="M1110.71,-192.36C1167.53,-175.63 1244,-152.97 1258.2,-148 1261.15,-146.96 1264.17,-145.87 1267.22,-144.75"/>
<polygon fill="#63b8ff" stroke="#63b8ff" points="1110.05,-188.91 1101.44,-195.09 1112.03,-195.62 1110.05,-188.91"/>
</a>
</g>
</g>
<!-- Node17&#45;&gt;Node20 -->
<g id="edge29_Node000017_Node000020" class="edge">
<title>Node17&#45;&gt;Node20</title>
<g id="a_edge29_Node000017_Node000020"><a xlink:title=" ">
<path fill="none" stroke="#63b8ff" d="M1103.95,-192.4C1115.51,-189.16 1127.66,-186.15 1139.2,-184 1328.6,-148.69 1383.12,-189.8 1571.2,-148 1575.68,-147 1580.26,-145.79 1584.83,-144.45"/>
<polygon fill="#63b8ff" stroke="#63b8ff" points="1103.17,-188.98 1094.54,-195.13 1105.12,-195.7 1103.17,-188.98"/>
</a>
</g>
</g>
<!-- Node21 -->
<g id="Node000021" class="node">
<title>Node21</title>
<g id="a_Node000021"><a xlink:href="config__view__presenter_8cpp.html" target="_top" xlink:title=" ">
<polygon fill="white" stroke="#666666" points="1529.45,-148 1400.95,-148 1400.95,-92 1529.45,-92 1529.45,-148"/>
<text xml:space="preserve" text-anchor="start" x="1408.95" y="-134.5" font-family="Helvetica,sans-Serif" font-size="10.00">depicture_menu/src</text>
<text xml:space="preserve" text-anchor="start" x="1408.95" y="-122.5" font-family="Helvetica,sans-Serif" font-size="10.00">/core/presentation/change</text>
<text xml:space="preserve" text-anchor="start" x="1408.95" y="-110.5" font-family="Helvetica,sans-Serif" font-size="10.00">_view_model/config_view</text>
<text xml:space="preserve" text-anchor="middle" x="1465.2" y="-98.5" font-family="Helvetica,sans-Serif" font-size="10.00">_presenter.cpp</text>
</a>
</g>
</g>
<!-- Node17&#45;&gt;Node21 -->
<g id="edge31_Node000017_Node000021" class="edge">
<title>Node17&#45;&gt;Node21</title>
<g id="a_edge31_Node000017_Node000021"><a xlink:title=" ">
<path fill="none" stroke="#63b8ff" d="M1105.89,-192.41C1116.89,-189.31 1128.34,-186.35 1139.2,-184 1250.2,-159.95 1282.09,-175.86 1392.2,-148 1394.95,-147.3 1397.74,-146.54 1400.54,-145.73"/>
<polygon fill="#63b8ff" stroke="#63b8ff" points="1105.17,-188.97 1096.54,-195.11 1107.12,-195.7 1105.17,-188.97"/>
</a>
</g>
</g>
<!-- Node23 -->
<g id="Node000023" class="node">
<title>Node23</title>
<g id="a_Node000023"><a xlink:href="apply__menus_8cpp.html" target="_top" xlink:title=" ">
<polygon fill="white" stroke="#666666" points="1313.32,-234 1181.07,-234 1181.07,-190 1313.32,-190 1313.32,-234"/>
<text xml:space="preserve" text-anchor="start" x="1189.07" y="-220.5" font-family="Helvetica,sans-Serif" font-size="10.00">depicture_menu/src</text>
<text xml:space="preserve" text-anchor="start" x="1189.07" y="-208.5" font-family="Helvetica,sans-Serif" font-size="10.00">/core/cs_binding/apply</text>
<text xml:space="preserve" text-anchor="middle" x="1247.2" y="-196.5" font-family="Helvetica,sans-Serif" font-size="10.00">_domain/apply_menus.cpp</text>
</a>
</g>
</g>
<!-- Node22&#45;&gt;Node23 -->
<g id="edge35_Node000022_Node000023" class="edge">
<title>Node22&#45;&gt;Node23</title>
<g id="a_edge35_Node000022_Node000023"><a xlink:title=" ">
<path fill="none" stroke="#63b8ff" d="M1247.2,-270.3C1247.2,-258.37 1247.2,-245.19 1247.2,-234.49"/>
<polygon fill="#63b8ff" stroke="#63b8ff" points="1243.7,-270.16 1247.2,-280.16 1250.7,-270.16 1243.7,-270.16"/>
</a>
</g>
</g>
<!-- Node22&#45;&gt;Node24 -->
<g id="edge36_Node000022_Node000024" class="edge">
<title>Node22&#45;&gt;Node24</title>
<g id="a_edge36_Node000022_Node000024"><a xlink:title=" ">
<path fill="none" stroke="#63b8ff" d="M1293.16,-275.96C1315.72,-262.69 1342.53,-246.92 1363.67,-234.49"/>
<polygon fill="#63b8ff" stroke="#63b8ff" points="1291.6,-272.82 1284.76,-280.9 1295.15,-278.85 1291.6,-272.82"/>
</a>
</g>
</g>
</g>
</svg>
