<?xml version="1.0" encoding="UTF-8" standalone="no"?>
<!DOCTYPE svg PUBLIC "-//W3C//DTD SVG 1.1//EN"
 "http://www.w3.org/Graphics/SVG/1.1/DTD/svg11.dtd">
<!-- Generated by graphviz version 14.1.2 (20260124.0452)
 -->
<!-- Title: depicture_menu/src/core/cs_binding/types/RadialMenuArgs.def Pages: 1 -->
<!--zoomable 580 -->

<svg id="main" version="1.1" xmlns="http://www.w3.org/2000/svg" xmlns:xlink="http://www.w3.org/1999/xlink" xml:space="preserve" onload="init(evt)">

<style type="text/css"><![CDATA[
.node, .edge {opacity: 0.7;}
.node.selected, .edge.selected {opacity: 1;}
.edge:hover path { stroke: red; }
.edge:hover polygon { stroke: red; fill: red; }
]]></style>

<defs>
  <circle id="rim" cx="0" cy="0" r="7"/>
  <circle id="rim2" cx="0" cy="0" r="3.5"/>
  <g id="zoomPlus">
    <use xlink:href="#rim" fill="#404040"><set attributeName="fill" to="#808080" begin="zoomplus.mouseover" end="zoomplus.mouseout"/></use>
    <path d="M-4,0h8M0,-4v8" fill="none" stroke="white" stroke-width="1.5" pointer-events="none"/>
  </g>
  <g id="zoomMin">
    <use xlink:href="#rim" fill="#404040"><set attributeName="fill" to="#808080" begin="zoomminus.mouseover" end="zoomminus.mouseout"/></use>
    <path d="M-4,0h8" fill="none" stroke="white" stroke-width="1.5" pointer-events="none"/>
  </g>
  <g id="arrowUp" transform="translate(30 24)">
    <use xlink:href="#rim"/>
    <path pointer-events="none" fill="none" stroke="white" stroke-width="1.5" d="M0,-3.0v7 M-2.5,-0.5L0,-3.0L2.5,-0.5"/>
  </g>
  <g id="arrowRight" transform="rotate(90) translate(36 -43)">
    <use xlink:href="#rim"/>
    <path pointer-events="none" fill="none" stroke="white" stroke-width="1.5" d="M0,-3.0v7 M-2.5,-0.5L0,-3.0L2.5,-0.5"/>
  </g>
  <g id="arrowDown" transform="rotate(180) translate(-30 -48)">
    <use xlink:href="#rim"/>
    <path pointer-events="none" fill="none" stroke="white" stroke-width="1.5" d="M0,-3.0v7 M-2.5,-0.5L0,-3.0L2.5,-0.5"/>
  </g>
  <g id="arrowLeft" transform="rotate(270) translate(-36 17)">
    <use xlink:href="#rim"/>
    <path pointer-events="none" fill="none" stroke="white" stroke-width="1.5" d="M0,-3.0v7 M-2.5,-0.5L0,-3.0L2.5,-0.5"/>
  </g>
  <g id="resetDef">
    <use xlink:href="#rim2" fill="#404040"><set attributeName="fill" to="#808080" begin="reset.mouseover" end="reset.mouseout"/></use>
  </g>
</defs>
<script type="application/ecmascript">
var viewWidth = 1840;
var viewHeight = 580;
var sectionId = 'dynsection-0';
</script>
<script type="application/ecmascript" xlink:href="svg.min.js"/>
<svg id="graph" class="graph">
<g id="viewport">
<title>depicture_menu/src/core/cs_binding/types/RadialMenuArgs.def</title>
<!-- Node1 -->
<g id="Node000001" class="node">
<title>Node1</title>
<g id="a_Node000001"><a xlink:title=" ">
<polygon fill="#999999" stroke="#666666" points="1060.59,-572 946.34,-572 946.34,-528 1060.59,-528 1060.59,-572"/>
<text xml:space="preserve" text-anchor="start" x="954.34" y="-558.5" font-family="Helvetica,sans-Serif" font-size="10.00">depicture_menu/src</text>
<text xml:space="preserve" text-anchor="start" x="954.34" y="-546.5" font-family="Helvetica,sans-Serif" font-size="10.00">/core/cs_binding/types</text>
<text xml:space="preserve" text-anchor="middle" x="1003.46" y="-534.5" font-family="Helvetica,sans-Serif" font-size="10.00">/RadialMenuArgs.def</text>
</a>
</g>
</g>
<!-- Node2 -->
<g id="Node000002" class="node">
<title>Node2</title>
<g id="a_Node000002"><a xlink:href="_radial_menu_args_8cpp.html" target="_top" xlink:title=" ">
<polygon fill="white" stroke="#666666" points="891.59,-326 777.34,-326 777.34,-282 891.59,-282 891.59,-326"/>
<text xml:space="preserve" text-anchor="start" x="785.34" y="-312.5" font-family="Helvetica,sans-Serif" font-size="10.00">depicture_menu/src</text>
<text xml:space="preserve" text-anchor="start" x="785.34" y="-300.5" font-family="Helvetica,sans-Serif" font-size="10.00">/core/cs_binding/types</text>
<text xml:space="preserve" text-anchor="middle" x="834.46" y="-288.5" font-family="Helvetica,sans-Serif" font-size="10.00">/RadialMenuArgs.cpp</text>
</a>
</g>
</g>
<!-- Node1&#45;&gt;Node2 -->
<g id="edge1_Node000001_Node000002" class="edge">
<title>Node1&#45;&gt;Node2</title>
<g id="a_edge1_Node000001_Node000002"><a xlink:title=" ">
<path fill="none" stroke="#63b8ff" d="M982.28,-518.41C947.53,-468.25 879.29,-369.72 849.25,-326.35"/>
<polygon fill="#63b8ff" stroke="#63b8ff" points="979.33,-520.3 987.9,-526.53 985.08,-516.32 979.33,-520.3"/>
</a>
</g>
</g>
<!-- Node3 -->
<g id="Node000003" class="node">
<title>Node3</title>
<g id="a_Node000003"><a xlink:href="types_2_radial_menu_args_8hpp.html" target="_top" xlink:title=" ">
<polygon fill="white" stroke="#666666" points="1110.59,-492 996.34,-492 996.34,-448 1110.59,-448 1110.59,-492"/>
<text xml:space="preserve" text-anchor="start" x="1004.34" y="-478.5" font-family="Helvetica,sans-Serif" font-size="10.00">depicture_menu/src</text>
<text xml:space="preserve" text-anchor="start" x="1004.34" y="-466.5" font-family="Helvetica,sans-Serif" font-size="10.00">/core/cs_binding/types</text>
<text xml:space="preserve" text-anchor="middle" x="1053.46" y="-454.5" font-family="Helvetica,sans-Serif" font-size="10.00">/RadialMenuArgs.hpp</text>
</a>
</g>
</g>
<!-- Node1&#45;&gt;Node3 -->
<g id="edge2_Node000001_Node000003" class="edge">
<title>Node1&#45;&gt;Node3</title>
<g id="a_edge2_Node000001_Node000003"><a xlink:title=" ">
<path fill="none" stroke="#63b8ff" d="M1023.19,-518.22C1028.76,-509.54 1034.69,-500.28 1039.82,-492.29"/>
<polygon fill="#63b8ff" stroke="#63b8ff" points="1020.39,-516.1 1017.94,-526.41 1026.29,-519.88 1020.39,-516.1"/>
</a>
</g>
</g>
<!-- Node4 -->
<g id="Node000004" class="node">
<title>Node4</title>
<g id="a_Node000004"><a xlink:href="_radial_menu_args_8hpp.html" target="_top" xlink:title=" ">
<polygon fill="white" stroke="#666666" points="1209.46,-412 1067.46,-412 1067.46,-368 1209.46,-368 1209.46,-412"/>
<text xml:space="preserve" text-anchor="start" x="1075.46" y="-398.5" font-family="Helvetica,sans-Serif" font-size="10.00">depicture_menu/src</text>
<text xml:space="preserve" text-anchor="start" x="1075.46" y="-386.5" font-family="Helvetica,sans-Serif" font-size="10.00">/core/cs_binding/RadialMenu</text>
<text xml:space="preserve" text-anchor="middle" x="1138.46" y="-374.5" font-family="Helvetica,sans-Serif" font-size="10.00">Args.hpp</text>
</a>
</g>
</g>
<!-- Node3&#45;&gt;Node4 -->
<g id="edge3_Node000003_Node000004" class="edge">
<title>Node3&#45;&gt;Node4</title>
<g id="a_edge3_Node000003_Node000004"><a xlink:title=" ">
<path fill="none" stroke="#63b8ff" d="M1084.88,-440.17C1094.94,-430.94 1105.9,-420.88 1115.26,-412.29"/>
<polygon fill="#63b8ff" stroke="#63b8ff" points="1082.81,-437.32 1077.8,-446.66 1087.54,-442.48 1082.81,-437.32"/>
</a>
</g>
</g>
<!-- Node4&#45;&gt;Node2 -->
<g id="edge39_Node000004_Node000002" class="edge">
<title>Node4&#45;&gt;Node2</title>
<g id="a_edge39_Node000004_Node000002"><a xlink:title=" ">
<path fill="none" stroke="#63b8ff" d="M1055.82,-371.4C1010.97,-361.19 954.77,-347.34 905.46,-332 900.05,-330.32 894.45,-328.43 888.88,-326.47"/>
<polygon fill="#63b8ff" stroke="#63b8ff" points="1054.97,-374.79 1065.49,-373.58 1056.51,-367.97 1054.97,-374.79"/>
</a>
</g>
</g>
<!-- Node5 -->
<g id="Node000005" class="node">
<title>Node5</title>
<g id="a_Node000005"><a xlink:href="core__interface_8cpp.html" target="_top" xlink:title=" ">
<polygon fill="white" stroke="#666666" points="1601.96,-326 1492.96,-326 1492.96,-282 1601.96,-282 1601.96,-326"/>
<text xml:space="preserve" text-anchor="start" x="1500.96" y="-312.5" font-family="Helvetica,sans-Serif" font-size="10.00">depicture_menu/src</text>
<text xml:space="preserve" text-anchor="start" x="1500.96" y="-300.5" font-family="Helvetica,sans-Serif" font-size="10.00">/core/application/core</text>
<text xml:space="preserve" text-anchor="middle" x="1547.46" y="-288.5" font-family="Helvetica,sans-Serif" font-size="10.00">_interface.cpp</text>
</a>
</g>
</g>
<!-- Node4&#45;&gt;Node5 -->
<g id="edge4_Node000004_Node000005" class="edge">
<title>Node4&#45;&gt;Node5</title>
<g id="a_edge4_Node000004_Node000005"><a xlink:title=" ">
<path fill="none" stroke="#63b8ff" d="M1221.02,-380.01C1290.52,-371.3 1392.12,-355.85 1478.46,-332 1484.29,-330.39 1490.3,-328.46 1496.24,-326.38"/>
<polygon fill="#63b8ff" stroke="#63b8ff" points="1220.72,-376.52 1211.22,-381.22 1221.57,-383.47 1220.72,-376.52"/>
</a>
</g>
</g>
<!-- Node6 -->
<g id="Node000006" class="node">
<title>Node6</title>
<g id="a_Node000006"><a xlink:href="menu__view__arg__builder_8hpp.html" target="_top" xlink:title=" ">
<polygon fill="white" stroke="#666666" points="373.59,-240 259.34,-240 259.34,-184 373.59,-184 373.59,-240"/>
<text xml:space="preserve" text-anchor="start" x="267.34" y="-226.5" font-family="Helvetica,sans-Serif" font-size="10.00">depicture_menu/src</text>
<text xml:space="preserve" text-anchor="start" x="267.34" y="-214.5" font-family="Helvetica,sans-Serif" font-size="10.00">/core/application/cs</text>
<text xml:space="preserve" text-anchor="start" x="267.34" y="-202.5" font-family="Helvetica,sans-Serif" font-size="10.00">_binding_factory/menu</text>
<text xml:space="preserve" text-anchor="middle" x="316.46" y="-190.5" font-family="Helvetica,sans-Serif" font-size="10.00">_view_arg_builder.hpp</text>
</a>
</g>
</g>
<!-- Node4&#45;&gt;Node6 -->
<g id="edge5_Node000004_Node000006" class="edge">
<title>Node4&#45;&gt;Node6</title>
<g id="a_edge5_Node000004_Node000006"><a xlink:title=" ">
<path fill="none" stroke="#63b8ff" d="M1055.83,-378.72C1017.37,-370.78 972.68,-356.74 938.46,-332 914.09,-314.37 926.53,-291 900.46,-276 801.03,-218.78 497.39,-265.19 385.46,-240 381.7,-239.15 377.87,-238.13 374.04,-236.99"/>
<polygon fill="#63b8ff" stroke="#63b8ff" points="1055.05,-382.13 1065.54,-380.61 1056.39,-375.26 1055.05,-382.13"/>
</a>
</g>
</g>
<!-- Node11 -->
<g id="Node000011" class="node">
<title>Node11</title>
<g id="a_Node000011"><a xlink:href="menu__view__arg__holder_8hpp.html" target="_top" xlink:title=" ">
<polygon fill="white" stroke="#666666" points="1061.59,-332 947.34,-332 947.34,-276 1061.59,-276 1061.59,-332"/>
<text xml:space="preserve" text-anchor="start" x="955.34" y="-318.5" font-family="Helvetica,sans-Serif" font-size="10.00">depicture_menu/src</text>
<text xml:space="preserve" text-anchor="start" x="955.34" y="-306.5" font-family="Helvetica,sans-Serif" font-size="10.00">/core/application/cs</text>
<text xml:space="preserve" text-anchor="start" x="955.34" y="-294.5" font-family="Helvetica,sans-Serif" font-size="10.00">_binding_factory/menu</text>
<text xml:space="preserve" text-anchor="middle" x="1004.46" y="-282.5" font-family="Helvetica,sans-Serif" font-size="10.00">_view_arg_holder.hpp</text>
</a>
</g>
</g>
<!-- Node4&#45;&gt;Node11 -->
<g id="edge10_Node000004_Node000011" class="edge">
<title>Node4&#45;&gt;Node11</title>
<g id="a_edge10_Node000004_Node000011"><a xlink:title=" ">
<path fill="none" stroke="#63b8ff" d="M1094.78,-361.62C1079.84,-352.25 1063.14,-341.78 1048.2,-332.42"/>
<polygon fill="#63b8ff" stroke="#63b8ff" points="1092.69,-364.44 1103.02,-366.78 1096.41,-358.51 1092.69,-364.44"/>
</a>
</g>
</g>
<!-- Node16 -->
<g id="Node000016" class="node">
<title>Node16</title>
<g id="a_Node000016"><a xlink:href="command__invoker_8hpp.html" target="_top" xlink:title=" ">
<polygon fill="white" stroke="#666666" points="1062.71,-234 934.21,-234 934.21,-190 1062.71,-190 1062.71,-234"/>
<text xml:space="preserve" text-anchor="start" x="942.21" y="-220.5" font-family="Helvetica,sans-Serif" font-size="10.00">depicture_menu/src</text>
<text xml:space="preserve" text-anchor="start" x="942.21" y="-208.5" font-family="Helvetica,sans-Serif" font-size="10.00">/core/presentation/invoker</text>
<text xml:space="preserve" text-anchor="middle" x="998.46" y="-196.5" font-family="Helvetica,sans-Serif" font-size="10.00">/command_invoker.hpp</text>
</a>
</g>
</g>
<!-- Node4&#45;&gt;Node16 -->
<g id="edge41_Node000004_Node000016" class="edge">
<title>Node4&#45;&gt;Node16</title>
<g id="a_edge41_Node000004_Node000016"><a xlink:title=" ">
<path fill="none" stroke="#63b8ff" d="M1122.94,-357.53C1110.48,-333.86 1091.62,-301.28 1070.46,-276 1057.56,-260.59 1040.77,-245.67 1026.65,-234.22"/>
<polygon fill="#63b8ff" stroke="#63b8ff" points="1119.81,-359.1 1127.51,-366.38 1126.03,-355.89 1119.81,-359.1"/>
</a>
</g>
</g>
<!-- Node18 -->
<g id="Node000018" class="node">
<title>Node18</title>
<g id="a_Node000018"><a xlink:href="_core_model_8hpp.html" target="_top" xlink:title=" ">
<polygon fill="white" stroke="#666666" points="1248.59,-228 1092.34,-228 1092.34,-196 1248.59,-196 1248.59,-228"/>
<text xml:space="preserve" text-anchor="start" x="1100.34" y="-214.5" font-family="Helvetica,sans-Serif" font-size="10.00">depicture_menu/src</text>
<text xml:space="preserve" text-anchor="middle" x="1170.46" y="-202.5" font-family="Helvetica,sans-Serif" font-size="10.00">/core/cs_binding/CoreModel.hpp</text>
</a>
</g>
</g>
<!-- Node4&#45;&gt;Node18 -->
<g id="edge27_Node000004_Node000018" class="edge">
<title>Node4&#45;&gt;Node18</title>
<g id="a_edge27_Node000004_Node000018"><a xlink:title=" ">
<path fill="none" stroke="#63b8ff" d="M1144.33,-356.75C1151.27,-318.56 1162.54,-256.57 1167.71,-228.13"/>
<polygon fill="#63b8ff" stroke="#63b8ff" points="1140.94,-355.82 1142.59,-366.28 1147.83,-357.07 1140.94,-355.82"/>
</a>
</g>
</g>
<!-- Node21 -->
<g id="Node000021" class="node">
<title>Node21</title>
<g id="a_Node000021"><a xlink:href="cs__bindings_8cpp.html" target="_top" xlink:title=" ">
<polygon fill="white" stroke="#666666" points="1832.46,-148 1714.46,-148 1714.46,-92 1832.46,-92 1832.46,-148"/>
<text xml:space="preserve" text-anchor="start" x="1722.46" y="-134.5" font-family="Helvetica,sans-Serif" font-size="10.00">depicture_menu/src</text>
<text xml:space="preserve" text-anchor="start" x="1722.46" y="-122.5" font-family="Helvetica,sans-Serif" font-size="10.00">/core/dll_entry_point</text>
<text xml:space="preserve" text-anchor="start" x="1722.46" y="-110.5" font-family="Helvetica,sans-Serif" font-size="10.00">/cs_binding/menu_view</text>
<text xml:space="preserve" text-anchor="middle" x="1773.46" y="-98.5" font-family="Helvetica,sans-Serif" font-size="10.00">/cs_bindings.cpp</text>
</a>
</g>
</g>
<!-- Node4&#45;&gt;Node21 -->
<g id="edge40_Node000004_Node000021" class="edge">
<title>Node4&#45;&gt;Node21</title>
<g id="a_edge40_Node000004_Node000021"><a xlink:title=" ">
<path fill="none" stroke="#63b8ff" d="M1163.51,-359.06C1188.09,-329.35 1226.32,-282.27 1257.46,-240 1275.31,-215.79 1269.55,-199.26 1295.46,-184 1372.17,-138.82 1607.39,-166.53 1694.46,-148 1700.98,-146.61 1707.71,-144.85 1714.36,-142.9"/>
<polygon fill="#63b8ff" stroke="#63b8ff" points="1161,-356.6 1157.31,-366.53 1166.39,-361.07 1161,-356.6"/>
</a>
</g>
</g>
<!-- Node23 -->
<g id="Node000023" class="node">
<title>Node23</title>
<g id="a_Node000023"><a xlink:href="apply__menus_8hpp.html" target="_top" xlink:title=" ">
<polygon fill="white" stroke="#666666" points="1436.59,-326 1304.34,-326 1304.34,-282 1436.59,-282 1436.59,-326"/>
<text xml:space="preserve" text-anchor="start" x="1312.34" y="-312.5" font-family="Helvetica,sans-Serif" font-size="10.00">depicture_menu/src</text>
<text xml:space="preserve" text-anchor="start" x="1312.34" y="-300.5" font-family="Helvetica,sans-Serif" font-size="10.00">/core/cs_binding/apply</text>
<text xml:space="preserve" text-anchor="middle" x="1370.46" y="-288.5" font-family="Helvetica,sans-Serif" font-size="10.00">_domain/apply_menus.hpp</text>
</a>
</g>
</g>
<!-- Node4&#45;&gt;Node23 -->
<g id="edge36_Node000004_Node000023" class="edge">
<title>Node4&#45;&gt;Node23</title>
<g id="a_edge36_Node000004_Node000023"><a xlink:title=" ">
<path fill="none" stroke="#63b8ff" d="M1208.08,-363.8C1241.02,-351.87 1279.95,-337.77 1311.43,-326.37"/>
<polygon fill="#63b8ff" stroke="#63b8ff" points="1207.24,-360.38 1199.03,-367.07 1209.62,-366.96 1207.24,-360.38"/>
</a>
</g>
</g>
<!-- Node25 -->
<g id="Node000025" class="node">
<title>Node25</title>
<g id="a_Node000025"><a xlink:href="_test_radial_menu_arg_8cpp.html" target="_top" xlink:title=" ">
<polygon fill="white" stroke="#666666" points="1591.84,-234 1455.09,-234 1455.09,-190 1591.84,-190 1591.84,-234"/>
<text xml:space="preserve" text-anchor="start" x="1463.09" y="-220.5" font-family="Helvetica,sans-Serif" font-size="10.00">depicture_menu/test</text>
<text xml:space="preserve" text-anchor="start" x="1463.09" y="-208.5" font-family="Helvetica,sans-Serif" font-size="10.00">/core/cs_binding/TestRadial</text>
<text xml:space="preserve" text-anchor="middle" x="1523.46" y="-196.5" font-family="Helvetica,sans-Serif" font-size="10.00">MenuArg.cpp</text>
</a>
</g>
</g>
<!-- Node4&#45;&gt;Node25 -->
<g id="edge42_Node000004_Node000025" class="edge">
<title>Node4&#45;&gt;Node25</title>
<g id="a_edge42_Node000004_Node000025"><a xlink:title=" ">
<path fill="none" stroke="#63b8ff" d="M1220.88,-381.04C1298.95,-372.21 1409.44,-355.97 1445.46,-332 1450.23,-328.83 1489.04,-267.77 1510.06,-234.38"/>
<polygon fill="#63b8ff" stroke="#63b8ff" points="1220.67,-377.54 1211.12,-382.12 1221.44,-384.5 1220.67,-377.54"/>
</a>
</g>
</g>
<!-- Node7 -->
<g id="Node000007" class="node">
<title>Node7</title>
<g id="a_Node000007"><a xlink:href="config__view__arg__builder_8cpp.html" target="_top" xlink:title="ConfigArg ファクトリー">
<polygon fill="white" stroke="#666666" points="612.71,-56 496.21,-56 496.21,0 612.71,0 612.71,-56"/>
<text xml:space="preserve" text-anchor="start" x="504.21" y="-42.5" font-family="Helvetica,sans-Serif" font-size="10.00">depicture_menu/src</text>
<text xml:space="preserve" text-anchor="start" x="504.21" y="-30.5" font-family="Helvetica,sans-Serif" font-size="10.00">/core/application/cs</text>
<text xml:space="preserve" text-anchor="start" x="504.21" y="-18.5" font-family="Helvetica,sans-Serif" font-size="10.00">_binding_factory/config</text>
<text xml:space="preserve" text-anchor="middle" x="554.46" y="-6.5" font-family="Helvetica,sans-Serif" font-size="10.00">_view_arg_builder.cpp</text>
</a>
</g>
</g>
<!-- Node6&#45;&gt;Node7 -->
<g id="edge6_Node000006_Node000007" class="edge">
<title>Node6&#45;&gt;Node7</title>
<g id="a_edge6_Node000006_Node000007"><a xlink:title=" ">
<path fill="none" stroke="#63b8ff" d="M247.97,-206.06C142.86,-196.02 -39.44,-167.37 27.46,-92 58.2,-57.37 365.55,-38.28 496.2,-31.68"/>
<polygon fill="#63b8ff" stroke="#63b8ff" points="247.36,-209.52 257.63,-206.95 248,-202.55 247.36,-209.52"/>
</a>
</g>
</g>
<!-- Node8 -->
<g id="Node000008" class="node">
<title>Node8</title>
<g id="a_Node000008"><a xlink:href="menu__view__arg__builder_8cpp.html" target="_top" xlink:title=" ">
<polygon fill="white" stroke="#666666" points="306.59,-148 192.34,-148 192.34,-92 306.59,-92 306.59,-148"/>
<text xml:space="preserve" text-anchor="start" x="200.34" y="-134.5" font-family="Helvetica,sans-Serif" font-size="10.00">depicture_menu/src</text>
<text xml:space="preserve" text-anchor="start" x="200.34" y="-122.5" font-family="Helvetica,sans-Serif" font-size="10.00">/core/application/cs</text>
<text xml:space="preserve" text-anchor="start" x="200.34" y="-110.5" font-family="Helvetica,sans-Serif" font-size="10.00">_binding_factory/menu</text>
<text xml:space="preserve" text-anchor="middle" x="249.46" y="-98.5" font-family="Helvetica,sans-Serif" font-size="10.00">_view_arg_builder.cpp</text>
</a>
</g>
</g>
<!-- Node6&#45;&gt;Node8 -->
<g id="edge7_Node000006_Node000008" class="edge">
<title>Node6&#45;&gt;Node8</title>
<g id="a_edge7_Node000006_Node000008"><a xlink:title=" ">
<path fill="none" stroke="#63b8ff" d="M289.15,-174.31C282.68,-165.63 275.9,-156.51 269.8,-148.32"/>
<polygon fill="#63b8ff" stroke="#63b8ff" points="286.31,-176.36 295.09,-182.29 291.93,-172.18 286.31,-176.36"/>
</a>
</g>
</g>
<!-- Node9 -->
<g id="Node000009" class="node">
<title>Node9</title>
<g id="a_Node000009"><a xlink:href="setup__core_8cpp.html" target="_top" xlink:title=" ">
<polygon fill="white" stroke="#666666" points="113.46,-56 1.46,-56 1.46,0 113.46,0 113.46,-56"/>
<text xml:space="preserve" text-anchor="start" x="9.46" y="-42.5" font-family="Helvetica,sans-Serif" font-size="10.00">depicture_menu/src</text>
<text xml:space="preserve" text-anchor="start" x="9.46" y="-30.5" font-family="Helvetica,sans-Serif" font-size="10.00">/core/dll_entry_point</text>
<text xml:space="preserve" text-anchor="start" x="9.46" y="-18.5" font-family="Helvetica,sans-Serif" font-size="10.00">/domain_control/setup</text>
<text xml:space="preserve" text-anchor="middle" x="57.46" y="-6.5" font-family="Helvetica,sans-Serif" font-size="10.00">_core.cpp</text>
</a>
</g>
</g>
<!-- Node6&#45;&gt;Node9 -->
<g id="edge8_Node000006_Node000009" class="edge">
<title>Node6&#45;&gt;Node9</title>
<g id="a_edge8_Node000006_Node000009"><a xlink:title=" ">
<path fill="none" stroke="#63b8ff" d="M247.75,-206.75C166.62,-200.13 38.94,-184.14 9.46,-148 -12.64,-120.9 10.42,-82.28 31.56,-56.47"/>
<polygon fill="#63b8ff" stroke="#63b8ff" points="247.12,-210.21 257.36,-207.5 247.67,-203.23 247.12,-210.21"/>
</a>
</g>
</g>
<!-- Node10 -->
<g id="Node000010" class="node">
<title>Node10</title>
<g id="a_Node000010"><a xlink:href="menu__view__presenter_8cpp.html" target="_top" xlink:title="メニュープレゼンター">
<polygon fill="white" stroke="#666666" points="772.46,-142 582.46,-142 582.46,-98 772.46,-98 772.46,-142"/>
<text xml:space="preserve" text-anchor="start" x="590.46" y="-128.5" font-family="Helvetica,sans-Serif" font-size="10.00">depicture_menu/src</text>
<text xml:space="preserve" text-anchor="start" x="590.46" y="-116.5" font-family="Helvetica,sans-Serif" font-size="10.00">/core/presentation/change</text>
<text xml:space="preserve" text-anchor="middle" x="677.46" y="-104.5" font-family="Helvetica,sans-Serif" font-size="10.00">_view_model/menu_view_presenter.cpp</text>
</a>
</g>
</g>
<!-- Node6&#45;&gt;Node10 -->
<g id="edge9_Node000006_Node000010" class="edge">
<title>Node6&#45;&gt;Node10</title>
<g id="a_edge9_Node000006_Node000010"><a xlink:title=" ">
<path fill="none" stroke="#63b8ff" d="M384.75,-184.22C384.98,-184.14 385.22,-184.07 385.46,-184 421.71,-173.07 511.59,-154.12 582.13,-139.85"/>
<polygon fill="#63b8ff" stroke="#63b8ff" points="383.7,-180.88 375.26,-187.29 385.86,-187.54 383.7,-180.88"/>
</a>
</g>
</g>
<!-- Node11&#45;&gt;Node6 -->
<g id="edge11_Node000011_Node000006" class="edge">
<title>Node11&#45;&gt;Node6</title>
<g id="a_edge11_Node000011_Node000006"><a xlink:title=" ">
<path fill="none" stroke="#63b8ff" d="M936.43,-276.68C935.44,-276.44 934.45,-276.21 933.46,-276 694.98,-224.05 623.7,-293.1 385.46,-240 381.7,-239.16 377.86,-238.15 374.04,-237.01"/>
<polygon fill="#63b8ff" stroke="#63b8ff" points="935.14,-279.95 945.7,-279.18 936.96,-273.19 935.14,-279.95"/>
</a>
</g>
</g>
<!-- Node12 -->
<g id="Node000012" class="node">
<title>Node12</title>
<g id="a_Node000012"><a xlink:href="menu__view__presenter_8hpp.html" target="_top" xlink:title=" ">
<polygon fill="white" stroke="#666666" points="584.46,-234 394.46,-234 394.46,-190 584.46,-190 584.46,-234"/>
<text xml:space="preserve" text-anchor="start" x="402.46" y="-220.5" font-family="Helvetica,sans-Serif" font-size="10.00">depicture_menu/src</text>
<text xml:space="preserve" text-anchor="start" x="402.46" y="-208.5" font-family="Helvetica,sans-Serif" font-size="10.00">/core/presentation/change</text>
<text xml:space="preserve" text-anchor="middle" x="489.46" y="-196.5" font-family="Helvetica,sans-Serif" font-size="10.00">_view_model/menu_view_presenter.hpp</text>
</a>
</g>
</g>
<!-- Node11&#45;&gt;Node12 -->
<g id="edge12_Node000011_Node000012" class="edge">
<title>Node11&#45;&gt;Node12</title>
<g id="a_edge12_Node000011_Node000012"><a xlink:title=" ">
<path fill="none" stroke="#63b8ff" d="M936.41,-276.78C935.42,-276.51 934.44,-276.25 933.46,-276 815.28,-245.55 675.36,-228.77 584.64,-220.34"/>
<polygon fill="#63b8ff" stroke="#63b8ff" points="935.04,-280.03 945.62,-279.52 937.03,-273.32 935.04,-280.03"/>
</a>
</g>
</g>
<!-- Node11&#45;&gt;Node16 -->
<g id="edge22_Node000011_Node000016" class="edge">
<title>Node11&#45;&gt;Node16</title>
<g id="a_edge22_Node000011_Node000016"><a xlink:title=" ">
<path fill="none" stroke="#63b8ff" d="M1001.88,-264.23C1001.19,-253.98 1000.48,-243.28 999.88,-234.33"/>
<polygon fill="#63b8ff" stroke="#63b8ff" points="998.37,-264.25 1002.53,-274 1005.36,-263.79 998.37,-264.25"/>
</a>
</g>
</g>
<!-- Node12&#45;&gt;Node7 -->
<g id="edge13_Node000012_Node000007" class="edge">
<title>Node12&#45;&gt;Node7</title>
<g id="a_edge13_Node000012_Node000007"><a xlink:title=" ">
<path fill="none" stroke="#63b8ff" d="M516.09,-180.63C523.43,-170.8 530.69,-159.46 535.46,-148 547.85,-118.26 552.21,-81.23 553.71,-56.45"/>
<polygon fill="#63b8ff" stroke="#63b8ff" points="513.45,-178.32 510.03,-188.35 518.95,-182.64 513.45,-178.32"/>
</a>
</g>
</g>
<!-- Node12&#45;&gt;Node8 -->
<g id="edge14_Node000012_Node000008" class="edge">
<title>Node12&#45;&gt;Node8</title>
<g id="a_edge14_Node000012_Node000008"><a xlink:title=" ">
<path fill="none" stroke="#63b8ff" d="M417.98,-185.86C386.44,-174.58 348.99,-160.92 315.46,-148 312.69,-146.93 309.86,-145.83 307,-144.7"/>
<polygon fill="#63b8ff" stroke="#63b8ff" points="416.42,-189.02 427.01,-189.09 418.77,-182.43 416.42,-189.02"/>
</a>
</g>
</g>
<!-- Node12&#45;&gt;Node9 -->
<g id="edge16_Node000012_Node000009" class="edge">
<title>Node12&#45;&gt;Node9</title>
<g id="a_edge16_Node000012_Node000009"><a xlink:title=" ">
<path fill="none" stroke="#63b8ff" d="M398.54,-187.1C393.12,-185.97 387.73,-184.93 382.46,-184 304.37,-170.26 80.63,-206.83 27.46,-148 4.75,-122.87 21.82,-83.05 38.02,-56.48"/>
<polygon fill="#63b8ff" stroke="#63b8ff" points="397.7,-190.5 408.21,-189.19 399.18,-183.66 397.7,-190.5"/>
</a>
</g>
</g>
<!-- Node12&#45;&gt;Node10 -->
<g id="edge17_Node000012_Node000010" class="edge">
<title>Node12&#45;&gt;Node10</title>
<g id="a_edge17_Node000012_Node000010"><a xlink:title=" ">
<path fill="none" stroke="#63b8ff" d="M544.09,-184.85C572.19,-171.4 606.02,-155.2 632.58,-142.49"/>
<polygon fill="#63b8ff" stroke="#63b8ff" points="542.89,-181.54 535.38,-189.02 545.91,-187.86 542.89,-181.54"/>
</a>
</g>
</g>
<!-- Node13 -->
<g id="Node000013" class="node">
<title>Node13</title>
<g id="a_Node000013"><a xlink:href="config__view__dispatch_8cpp.html" target="_top" xlink:title=" ">
<polygon fill="white" stroke="#666666" points="964.21,-142 790.71,-142 790.71,-98 964.21,-98 964.21,-142"/>
<text xml:space="preserve" text-anchor="start" x="798.71" y="-128.5" font-family="Helvetica,sans-Serif" font-size="10.00">depicture_menu/src</text>
<text xml:space="preserve" text-anchor="start" x="798.71" y="-116.5" font-family="Helvetica,sans-Serif" font-size="10.00">/core/application/usecase</text>
<text xml:space="preserve" text-anchor="middle" x="877.46" y="-104.5" font-family="Helvetica,sans-Serif" font-size="10.00">_dispatch/config_view_dispatch.cpp</text>
</a>
</g>
</g>
<!-- Node12&#45;&gt;Node13 -->
<g id="edge15_Node000012_Node000013" class="edge">
<title>Node12&#45;&gt;Node13</title>
<g id="a_edge15_Node000012_Node000013"><a xlink:title=" ">
<path fill="none" stroke="#63b8ff" d="M596.09,-189.64C651.56,-178.12 720.36,-163.17 781.46,-148 788.44,-146.27 795.67,-144.39 802.9,-142.46"/>
<polygon fill="#63b8ff" stroke="#63b8ff" points="595.38,-186.21 586.3,-191.67 596.8,-193.07 595.38,-186.21"/>
</a>
</g>
</g>
<!-- Node14 -->
<g id="Node000014" class="node">
<title>Node14</title>
<g id="a_Node000014"><a xlink:href="combine__view__model__presenter_8hpp.html" target="_top" xlink:title=" ">
<polygon fill="white" stroke="#666666" points="174.21,-142 36.71,-142 36.71,-98 174.21,-98 174.21,-142"/>
<text xml:space="preserve" text-anchor="start" x="44.71" y="-128.5" font-family="Helvetica,sans-Serif" font-size="10.00">depicture_menu/src</text>
<text xml:space="preserve" text-anchor="start" x="44.71" y="-116.5" font-family="Helvetica,sans-Serif" font-size="10.00">/core/presentation/combine</text>
<text xml:space="preserve" text-anchor="middle" x="105.46" y="-104.5" font-family="Helvetica,sans-Serif" font-size="10.00">_view_model_presenter.hpp</text>
</a>
</g>
</g>
<!-- Node12&#45;&gt;Node14 -->
<g id="edge18_Node000012_Node000014" class="edge">
<title>Node12&#45;&gt;Node14</title>
<g id="a_edge18_Node000012_Node000014"><a xlink:title=" ">
<path fill="none" stroke="#63b8ff" d="M395.58,-186.93C391.15,-185.91 386.76,-184.93 382.46,-184 294.62,-164.99 270.41,-170.77 183.46,-148 177.22,-146.37 170.77,-144.47 164.37,-142.46"/>
<polygon fill="#63b8ff" stroke="#63b8ff" points="394.64,-190.3 405.17,-189.16 396.23,-183.48 394.64,-190.3"/>
</a>
</g>
</g>
<!-- Node15 -->
<g id="Node000015" class="node">
<title>Node15</title>
<g id="a_Node000015"><a xlink:href="_test_menu_view_presenter_8cpp.html" target="_top" xlink:title=" ">
<polygon fill="white" stroke="#666666" points="526.09,-142 324.84,-142 324.84,-98 526.09,-98 526.09,-142"/>
<text xml:space="preserve" text-anchor="start" x="332.84" y="-128.5" font-family="Helvetica,sans-Serif" font-size="10.00">depicture_menu/test</text>
<text xml:space="preserve" text-anchor="start" x="332.84" y="-116.5" font-family="Helvetica,sans-Serif" font-size="10.00">/core/presentation/change</text>
<text xml:space="preserve" text-anchor="middle" x="425.46" y="-104.5" font-family="Helvetica,sans-Serif" font-size="10.00">_view_model/TestMenuViewPresenter.cpp</text>
</a>
</g>
</g>
<!-- Node12&#45;&gt;Node15 -->
<g id="edge21_Node000012_Node000015" class="edge">
<title>Node12&#45;&gt;Node15</title>
<g id="a_edge21_Node000012_Node000015"><a xlink:title=" ">
<path fill="none" stroke="#63b8ff" d="M467.79,-180.52C458.9,-168.03 448.83,-153.86 440.74,-142.49"/>
<polygon fill="#63b8ff" stroke="#63b8ff" points="464.77,-182.32 473.42,-188.44 470.48,-178.26 464.77,-182.32"/>
</a>
</g>
</g>
<!-- Node14&#45;&gt;Node7 -->
<g id="edge19_Node000014_Node000007" class="edge">
<title>Node14&#45;&gt;Node7</title>
<g id="a_edge19_Node000014_Node000007"><a xlink:title=" ">
<path fill="none" stroke="#63b8ff" d="M174.67,-94.38C177.63,-93.54 180.57,-92.74 183.46,-92 292.32,-64.12 422.38,-45.26 496,-35.89"/>
<polygon fill="#63b8ff" stroke="#63b8ff" points="173.95,-90.95 165.37,-97.17 175.95,-97.65 173.95,-90.95"/>
</a>
</g>
</g>
<!-- Node14&#45;&gt;Node9 -->
<g id="edge20_Node000014_Node000009" class="edge">
<title>Node14&#45;&gt;Node9</title>
<g id="a_edge20_Node000014_Node000009"><a xlink:title=" ">
<path fill="none" stroke="#63b8ff" d="M88.68,-87.54C83.26,-77.36 77.29,-66.17 72.03,-56.32"/>
<polygon fill="#63b8ff" stroke="#63b8ff" points="85.58,-89.16 93.37,-96.34 91.76,-85.87 85.58,-89.16"/>
</a>
</g>
</g>
<!-- Node16&#45;&gt;Node7 -->
<g id="edge23_Node000016_Node000007" class="edge">
<title>Node16&#45;&gt;Node7</title>
<g id="a_edge23_Node000016_Node000007"><a xlink:title=" ">
<path fill="none" stroke="#63b8ff" d="M1000.99,-178.71C1001.21,-151.63 996.73,-113.96 973.46,-92 922.57,-43.97 715.91,-32.53 613.11,-29.83"/>
<polygon fill="#63b8ff" stroke="#63b8ff" points="997.5,-178.33 1000.68,-188.44 1004.5,-178.56 997.5,-178.33"/>
</a>
</g>
</g>
<!-- Node16&#45;&gt;Node8 -->
<g id="edge24_Node000016_Node000008" class="edge">
<title>Node16&#45;&gt;Node8</title>
<g id="a_edge24_Node000016_Node000008"><a xlink:title=" ">
<path fill="none" stroke="#63b8ff" d="M922.68,-206.84C769.7,-197.99 428.94,-175.79 315.46,-148 312.7,-147.32 309.9,-146.55 307.09,-145.7"/>
<polygon fill="#63b8ff" stroke="#63b8ff" points="922.11,-210.32 932.29,-207.4 922.51,-203.33 922.11,-210.32"/>
</a>
</g>
</g>
<!-- Node16&#45;&gt;Node13 -->
<g id="edge25_Node000016_Node000013" class="edge">
<title>Node16&#45;&gt;Node13</title>
<g id="a_edge25_Node000016_Node000013"><a xlink:title=" ">
<path fill="none" stroke="#63b8ff" d="M960.91,-183.07C943.32,-169.98 922.7,-154.64 906.35,-142.49"/>
<polygon fill="#63b8ff" stroke="#63b8ff" points="958.46,-185.61 968.57,-188.77 962.64,-179.99 958.46,-185.61"/>
</a>
</g>
</g>
<!-- Node17 -->
<g id="Node000017" class="node">
<title>Node17</title>
<g id="a_Node000017"><a xlink:href="command__invoker_8cpp.html" target="_top" xlink:title=" ">
<polygon fill="white" stroke="#666666" points="1148.71,-142 1020.21,-142 1020.21,-98 1148.71,-98 1148.71,-142"/>
<text xml:space="preserve" text-anchor="start" x="1028.21" y="-128.5" font-family="Helvetica,sans-Serif" font-size="10.00">depicture_menu/src</text>
<text xml:space="preserve" text-anchor="start" x="1028.21" y="-116.5" font-family="Helvetica,sans-Serif" font-size="10.00">/core/presentation/invoker</text>
<text xml:space="preserve" text-anchor="middle" x="1084.46" y="-104.5" font-family="Helvetica,sans-Serif" font-size="10.00">/command_invoker.cpp</text>
</a>
</g>
</g>
<!-- Node16&#45;&gt;Node17 -->
<g id="edge26_Node000016_Node000017" class="edge">
<title>Node16&#45;&gt;Node17</title>
<g id="a_edge26_Node000016_Node000017"><a xlink:title=" ">
<path fill="none" stroke="#63b8ff" d="M1026.54,-181.62C1038.73,-168.86 1052.74,-154.2 1063.93,-142.49"/>
<polygon fill="#63b8ff" stroke="#63b8ff" points="1024.27,-178.93 1019.89,-188.58 1029.33,-183.77 1024.27,-178.93"/>
</a>
</g>
</g>
<!-- Node18&#45;&gt;Node7 -->
<g id="edge28_Node000018_Node000007" class="edge">
<title>Node18&#45;&gt;Node7</title>
<g id="a_edge28_Node000018_Node000007"><a xlink:title=" ">
<path fill="none" stroke="#63b8ff" d="M1227.22,-192.45C1238.78,-189.21 1250.94,-186.18 1262.46,-184 1443.83,-149.67 1794.24,-226.16 1667.46,-92 1630.95,-53.36 837.01,-34.64 612.9,-30.11"/>
<polygon fill="#63b8ff" stroke="#63b8ff" points="1226.44,-189.03 1217.81,-195.18 1228.39,-195.75 1226.44,-189.03"/>
</a>
</g>
</g>
<!-- Node18&#45;&gt;Node9 -->
<g id="edge32_Node000018_Node000009" class="edge">
<title>Node18&#45;&gt;Node9</title>
<g id="a_edge32_Node000018_Node000009"><a xlink:title=" ">
<path fill="none" stroke="#63b8ff" d="M1176.31,-184.46C1180.61,-157.11 1182.05,-115.27 1157.46,-92 1130.39,-66.38 524.68,-58.17 487.46,-56 353.42,-48.19 195.95,-38.06 113.8,-32.7"/>
<polygon fill="#63b8ff" stroke="#63b8ff" points="1172.91,-183.59 1174.56,-194.06 1179.8,-184.85 1172.91,-183.59"/>
</a>
</g>
</g>
<!-- Node18&#45;&gt;Node10 -->
<g id="edge34_Node000018_Node000010" class="edge">
<title>Node18&#45;&gt;Node10</title>
<g id="a_edge34_Node000018_Node000010"><a xlink:title=" ">
<path fill="none" stroke="#63b8ff" d="M1108.21,-192.57C1096.1,-189.4 1083.44,-186.36 1071.46,-184 944.04,-158.85 909.03,-172.37 781.46,-148 773.03,-146.39 764.28,-144.49 755.58,-142.45"/>
<polygon fill="#63b8ff" stroke="#63b8ff" points="1107.13,-195.9 1117.69,-195.12 1108.94,-189.14 1107.13,-195.9"/>
</a>
</g>
</g>
<!-- Node18&#45;&gt;Node17 -->
<g id="edge35_Node000018_Node000017" class="edge">
<title>Node18&#45;&gt;Node17</title>
<g id="a_edge35_Node000018_Node000017"><a xlink:title=" ">
<path fill="none" stroke="#63b8ff" d="M1148.08,-187.58C1134.74,-173.61 1117.93,-156.02 1104.94,-142.43"/>
<polygon fill="#63b8ff" stroke="#63b8ff" points="1145.39,-189.83 1154.83,-194.64 1150.45,-184.99 1145.39,-189.83"/>
</a>
</g>
</g>
<!-- Node19 -->
<g id="Node000019" class="node">
<title>Node19</title>
<g id="a_Node000019"><a xlink:href="menu__config__controler_8cpp.html" target="_top" xlink:title=" ">
<polygon fill="white" stroke="#666666" points="1378.59,-142 1204.34,-142 1204.34,-98 1378.59,-98 1378.59,-142"/>
<text xml:space="preserve" text-anchor="start" x="1212.34" y="-128.5" font-family="Helvetica,sans-Serif" font-size="10.00">depicture_menu/src</text>
<text xml:space="preserve" text-anchor="start" x="1212.34" y="-116.5" font-family="Helvetica,sans-Serif" font-size="10.00">/core/control/config</text>
<text xml:space="preserve" text-anchor="middle" x="1291.46" y="-104.5" font-family="Helvetica,sans-Serif" font-size="10.00">_window/menu_config_controler.cpp</text>
</a>
</g>
</g>
<!-- Node18&#45;&gt;Node19 -->
<g id="edge29_Node000018_Node000019" class="edge">
<title>Node18&#45;&gt;Node19</title>
<g id="a_edge29_Node000018_Node000019"><a xlink:title=" ">
<path fill="none" stroke="#63b8ff" d="M1200.4,-188.74C1219.45,-174.56 1243.99,-156.31 1262.79,-142.33"/>
<polygon fill="#63b8ff" stroke="#63b8ff" points="1198.41,-185.85 1192.48,-194.63 1202.59,-191.47 1198.41,-185.85"/>
</a>
</g>
</g>
<!-- Node20 -->
<g id="Node000020" class="node">
<title>Node20</title>
<g id="a_Node000020"><a xlink:href="cs__binding__core__model_8cpp.html" target="_top" xlink:title=" ">
<polygon fill="white" stroke="#666666" points="1511.96,-148 1396.96,-148 1396.96,-92 1511.96,-92 1511.96,-148"/>
<text xml:space="preserve" text-anchor="start" x="1404.96" y="-134.5" font-family="Helvetica,sans-Serif" font-size="10.00">depicture_menu/src</text>
<text xml:space="preserve" text-anchor="start" x="1404.96" y="-122.5" font-family="Helvetica,sans-Serif" font-size="10.00">/core/dll_entry_point</text>
<text xml:space="preserve" text-anchor="start" x="1404.96" y="-110.5" font-family="Helvetica,sans-Serif" font-size="10.00">/cs_binding/cs_binding</text>
<text xml:space="preserve" text-anchor="middle" x="1454.46" y="-98.5" font-family="Helvetica,sans-Serif" font-size="10.00">_core_model.cpp</text>
</a>
</g>
</g>
<!-- Node18&#45;&gt;Node20 -->
<g id="edge30_Node000018_Node000020" class="edge">
<title>Node18&#45;&gt;Node20</title>
<g id="a_edge30_Node000018_Node000020"><a xlink:title=" ">
<path fill="none" stroke="#63b8ff" d="M1233.74,-192.39C1243.36,-189.57 1253.17,-186.7 1262.46,-184 1317.98,-167.86 1332.8,-166.83 1387.46,-148 1390.43,-146.98 1393.45,-145.9 1396.5,-144.78"/>
<polygon fill="#63b8ff" stroke="#63b8ff" points="1233.06,-188.94 1224.45,-195.11 1235.03,-195.65 1233.06,-188.94"/>
</a>
</g>
</g>
<!-- Node18&#45;&gt;Node21 -->
<g id="edge31_Node000018_Node000021" class="edge">
<title>Node18&#45;&gt;Node21</title>
<g id="a_edge31_Node000018_Node000021"><a xlink:title=" ">
<path fill="none" stroke="#63b8ff" d="M1227.21,-192.39C1238.77,-189.15 1250.93,-186.14 1262.46,-184 1454.5,-148.31 1509.77,-190.27 1700.46,-148 1704.95,-147.01 1709.53,-145.8 1714.1,-144.45"/>
<polygon fill="#63b8ff" stroke="#63b8ff" points="1226.43,-188.97 1217.8,-195.12 1228.38,-195.69 1226.43,-188.97"/>
</a>
</g>
</g>
<!-- Node22 -->
<g id="Node000022" class="node">
<title>Node22</title>
<g id="a_Node000022"><a xlink:href="config__view__presenter_8cpp.html" target="_top" xlink:title=" ">
<polygon fill="white" stroke="#666666" points="1658.71,-148 1530.21,-148 1530.21,-92 1658.71,-92 1658.71,-148"/>
<text xml:space="preserve" text-anchor="start" x="1538.21" y="-134.5" font-family="Helvetica,sans-Serif" font-size="10.00">depicture_menu/src</text>
<text xml:space="preserve" text-anchor="start" x="1538.21" y="-122.5" font-family="Helvetica,sans-Serif" font-size="10.00">/core/presentation/change</text>
<text xml:space="preserve" text-anchor="start" x="1538.21" y="-110.5" font-family="Helvetica,sans-Serif" font-size="10.00">_view_model/config_view</text>
<text xml:space="preserve" text-anchor="middle" x="1594.46" y="-98.5" font-family="Helvetica,sans-Serif" font-size="10.00">_presenter.cpp</text>
</a>
</g>
</g>
<!-- Node18&#45;&gt;Node22 -->
<g id="edge33_Node000018_Node000022" class="edge">
<title>Node18&#45;&gt;Node22</title>
<g id="a_edge33_Node000018_Node000022"><a xlink:title=" ">
<path fill="none" stroke="#63b8ff" d="M1228.78,-192.48C1239.89,-189.36 1251.48,-186.36 1262.46,-184 1376.08,-159.57 1408.75,-176.32 1521.46,-148 1524.21,-147.31 1527.01,-146.55 1529.81,-145.74"/>
<polygon fill="#63b8ff" stroke="#63b8ff" points="1227.96,-189.08 1219.32,-195.22 1229.9,-195.8 1227.96,-189.08"/>
</a>
</g>
</g>
<!-- Node24 -->
<g id="Node000024" class="node">
<title>Node24</title>
<g id="a_Node000024"><a xlink:href="apply__menus_8cpp.html" target="_top" xlink:title=" ">
<polygon fill="white" stroke="#666666" points="1436.59,-234 1304.34,-234 1304.34,-190 1436.59,-190 1436.59,-234"/>
<text xml:space="preserve" text-anchor="start" x="1312.34" y="-220.5" font-family="Helvetica,sans-Serif" font-size="10.00">depicture_menu/src</text>
<text xml:space="preserve" text-anchor="start" x="1312.34" y="-208.5" font-family="Helvetica,sans-Serif" font-size="10.00">/core/cs_binding/apply</text>
<text xml:space="preserve" text-anchor="middle" x="1370.46" y="-196.5" font-family="Helvetica,sans-Serif" font-size="10.00">_domain/apply_menus.cpp</text>
</a>
</g>
</g>
<!-- Node23&#45;&gt;Node24 -->
<g id="edge37_Node000023_Node000024" class="edge">
<title>Node23&#45;&gt;Node24</title>
<g id="a_edge37_Node000023_Node000024"><a xlink:title=" ">
<path fill="none" stroke="#63b8ff" d="M1370.46,-270.3C1370.46,-258.37 1370.46,-245.19 1370.46,-234.49"/>
<polygon fill="#63b8ff" stroke="#63b8ff" points="1366.96,-270.16 1370.46,-280.16 1373.96,-270.16 1366.96,-270.16"/>
</a>
</g>
</g>
<!-- Node23&#45;&gt;Node25 -->
<g id="edge38_Node000023_Node000025" class="edge">
<title>Node23&#45;&gt;Node25</title>
<g id="a_edge38_Node000023_Node000025"><a xlink:title=" ">
<path fill="none" stroke="#63b8ff" d="M1416.43,-275.96C1438.99,-262.69 1465.79,-246.92 1486.93,-234.49"/>
<polygon fill="#63b8ff" stroke="#63b8ff" points="1414.87,-272.82 1408.03,-280.9 1418.42,-278.85 1414.87,-272.82"/>
</a>
</g>
</g>
</g>
</svg>

<g id="navigator" transform="translate(0 0)" fill="#404254">
  <rect fill="#f2f5e9" fill-opacity="0.5" stroke="#606060" stroke-width=".5" x="0" y="0" width="60" height="60"/>
  <use id="zoomplus" xlink:href="#zoomPlus" x="17" y="9" onmousedown="handleZoom(evt,'in')"/>
  <use id="zoomminus" xlink:href="#zoomMin" x="42" y="9" onmousedown="handleZoom(evt,'out')"/>
  <use id="reset" xlink:href="#resetDef" x="30" y="36" onmousedown="handleReset()"/>
   <use id="arrowup" xlink:href="#arrowUp" x="0" y="0" onmousedown="handlePan(0,-1)"/>
  <use id="arrowright" xlink:href="#arrowRight" x="0" y="0" onmousedown="handlePan(1,0)"/>
  <use id="arrowdown" xlink:href="#arrowDown" x="0" y="0" onmousedown="handlePan(0,1)"/>
  <use id="arrowleft" xlink:href="#arrowLeft" x="0" y="0" onmousedown="handlePan(-1,0)"/>
</g>
<svg viewBox="0 0 15 15" width="100%" height="30px" preserveAspectRatio="xMaxYMin meet">
 <g id="arrow_out" transform="scale(0.3 0.3)">
  <a xlink:href="_radial_menu_args_8def__dep__incl_org.svg" target="_base">
   <rect id="button" ry="5" rx="5" y="6" x="6" height="38" width="38"
        fill="#f2f5e9" fill-opacity="0.5" stroke="#606060" stroke-width="1.0"/>
   <path id="arrow"
     d="M 11.500037,31.436501 C 11.940474,20.09759 22.043105,11.32322 32.158766,21.979434 L 37.068811,17.246167 C 37.068811,17.246167 37.088388,32 37.088388,32 L 22.160133,31.978069 C 22.160133,31.978069 26.997745,27.140456 26.997745,27.140456 C 18.528582,18.264221 13.291696,25.230495 11.500037,31.436501 z"
     style="fill:#404040;"/>
  </a>
 </g>
</svg>

<style type='text/css'>
<![CDATA[
[data-mouse-over-selected='false'] { opacity: 0.7; }
[data-mouse-over-selected='true']  { opacity: 1.0; }
]]>
</style>
<script type="application/ecmascript"><![CDATA[
document.addEventListener('DOMContentLoaded', (event) => {
  highlightEdges();
  highlightAdjacentNodes();
});
]]></script>
</svg>
