<?xml version="1.0" encoding="UTF-8" standalone="no"?>
<!DOCTYPE svg PUBLIC "-//W3C//DTD SVG 1.1//EN"
 "http://www.w3.org/Graphics/SVG/1.1/DTD/svg11.dtd">
<!-- Generated by graphviz version 14.1.2 (20260124.0452)
 -->
<!-- Title: BOOST_AUTO_TEST_CASE Pages: 1 -->
<svg width="317pt" height="102pt"
 viewBox="0.00 0.00 317.00 102.00" xmlns="http://www.w3.org/2000/svg" xmlns:xlink="http://www.w3.org/1999/xlink">
<g id="graph0" class="graph" transform="scale(1 1) rotate(0) translate(4 98)">
<title>BOOST_AUTO_TEST_CASE</title>
<!-- Node1 -->
<g id="Node000001" class="node">
<title>Node1</title>
<g id="a_Node000001"><a xlink:title=" ">
<polygon fill="#999999" stroke="#666666" points="147.25,-66 0,-66 0,-46 147.25,-46 147.25,-66"/>
<text xml:space="preserve" text-anchor="middle" x="73.62" y="-52.5" font-family="Helvetica,sans-Serif" font-size="10.00">BOOST_AUTO_TEST_CASE</text>
</a>
</g>
</g>
<!-- Node2 -->
<g id="Node000002" class="node">
<title>Node2</title>
<g id="a_Node000002"><a xlink:href="_test_config_view_presenter_8cpp.html#a7845eb0c68b997d6d329618f36f7e794" target="_top" xlink:title=" ">
<polygon fill="white" stroke="#666666" points="286.62,-94 205.38,-94 205.38,-74 286.62,-74 286.62,-94"/>
<text xml:space="preserve" text-anchor="middle" x="246" y="-80.5" font-family="Helvetica,sans-Serif" font-size="10.00">BOOST_TEST</text>
</a>
</g>
</g>
<!-- Node1&#45;&gt;Node2 -->
<g id="edge1_Node000001_Node000002" class="edge">
<title>Node1&#45;&gt;Node2</title>
<g id="a_edge1_Node000001_Node000002"><a xlink:title=" ">
<path fill="none" stroke="#63b8ff" d="M138.07,-66.43C156.46,-69.45 176.3,-72.71 193.84,-75.59"/>
<polygon fill="#63b8ff" stroke="#63b8ff" points="193.07,-79.01 203.5,-77.18 194.2,-72.1 193.07,-79.01"/>
</a>
</g>
</g>
<!-- Node3 -->
<g id="Node000003" class="node">
<title>Node3</title>
<g id="a_Node000003"><a xlink:href="namespacedepicture__menu_1_1cs__binding_1_1detail__vtbl__table.html#a389016d2d6bc4e435e1490b99ad17f5c" target="_top" xlink:title=" ">
<polygon fill="white" stroke="#666666" points="308.75,-56 183.25,-56 183.25,0 308.75,0 308.75,-56"/>
<text xml:space="preserve" text-anchor="start" x="191.25" y="-42.5" font-family="Helvetica,sans-Serif" font-size="10.00">depicture_menu::cs</text>
<text xml:space="preserve" text-anchor="start" x="191.25" y="-30.5" font-family="Helvetica,sans-Serif" font-size="10.00">_binding::detail_vtbl</text>
<text xml:space="preserve" text-anchor="start" x="191.25" y="-18.5" font-family="Helvetica,sans-Serif" font-size="10.00">_table::non_type_menber</text>
<text xml:space="preserve" text-anchor="middle" x="246" y="-6.5" font-family="Helvetica,sans-Serif" font-size="10.00">_pointer</text>
</a>
</g>
</g>
<!-- Node1&#45;&gt;Node3 -->
<g id="edge2_Node000001_Node000003" class="edge">
<title>Node1&#45;&gt;Node3</title>
<g id="a_edge2_Node000001_Node000003"><a xlink:title=" ">
<path fill="none" stroke="#63b8ff" d="M138.07,-45.57C149.06,-43.77 160.58,-41.87 171.81,-40.03"/>
<polygon fill="#63b8ff" stroke="#63b8ff" points="172.13,-43.52 181.43,-38.45 170.99,-36.62 172.13,-43.52"/>
</a>
</g>
</g>
</g>
</svg>
