<?xml version="1.0" encoding="UTF-8" standalone="no"?>
<!DOCTYPE svg PUBLIC "-//W3C//DTD SVG 1.1//EN"
 "http://www.w3.org/Graphics/SVG/1.1/DTD/svg11.dtd">
<!-- Generated by graphviz version 14.1.2 (20260124.0452)
 -->
<!-- Title: BOOST_AUTO_TEST_CASE Pages: 1 -->
<svg width="696pt" height="196pt"
 viewBox="0.00 0.00 696.00 196.00" xmlns="http://www.w3.org/2000/svg" xmlns:xlink="http://www.w3.org/1999/xlink">
<g id="graph0" class="graph" transform="scale(1 1) rotate(0) translate(4 192)">
<title>BOOST_AUTO_TEST_CASE</title>
<!-- Node1 -->
<g id="Node000001" class="node">
<title>Node1</title>
<g id="a_Node000001"><a xlink:title=" ">
<polygon fill="#999999" stroke="#666666" points="147.25,-101 0,-101 0,-81 147.25,-81 147.25,-101"/>
<text xml:space="preserve" text-anchor="middle" x="73.62" y="-87.5" font-family="Helvetica,sans-Serif" font-size="10.00">BOOST_AUTO_TEST_CASE</text>
</a>
</g>
</g>
<!-- Node2 -->
<g id="Node000002" class="node">
<title>Node2</title>
<g id="a_Node000002"><a xlink:href="_test_backup_json_8cpp.html#a7e34729c6c239f42bdca84da1ecfbca1" target="_top" xlink:title="read_backup_format version">
<polygon fill="white" stroke="#666666" points="330.5,-170 183.25,-170 183.25,-150 330.5,-150 330.5,-170"/>
<text xml:space="preserve" text-anchor="middle" x="256.88" y="-156.5" font-family="Helvetica,sans-Serif" font-size="10.00">BOOST_AUTO_TEST_CASE</text>
</a>
</g>
</g>
<!-- Node1&#45;&gt;Node2 -->
<g id="edge1_Node000001_Node000002" class="edge">
<title>Node1&#45;&gt;Node2</title>
<g id="a_edge1_Node000001_Node000002"><a xlink:title=" ">
<path fill="none" stroke="#63b8ff" d="M94.6,-101.49C116.06,-112.45 151.39,-129.6 183.25,-141 188.63,-142.93 194.31,-144.75 200.01,-146.45"/>
<polygon fill="#63b8ff" stroke="#63b8ff" points="198.91,-149.78 209.49,-149.15 200.83,-143.05 198.91,-149.78"/>
</a>
</g>
</g>
<!-- Node5 -->
<g id="Node000005" class="node">
<title>Node5</title>
<g id="a_Node000005"><a xlink:href="namespacedepicture__menu_1_1repositories.html#a245ba008949ea92721d80817fea6a2c8" target="_top" xlink:title=" ">
<polygon fill="white" stroke="#666666" points="327.5,-132 186.25,-132 186.25,-100 327.5,-100 327.5,-132"/>
<text xml:space="preserve" text-anchor="start" x="194.25" y="-118.5" font-family="Helvetica,sans-Serif" font-size="10.00">depicture_menu::repositories</text>
<text xml:space="preserve" text-anchor="middle" x="256.88" y="-106.5" font-family="Helvetica,sans-Serif" font-size="10.00">::do_transaction</text>
</a>
</g>
</g>
<!-- Node1&#45;&gt;Node5 -->
<g id="edge5_Node000001_Node000005" class="edge">
<title>Node1&#45;&gt;Node5</title>
<g id="a_edge5_Node000001_Node000005"><a xlink:title=" ">
<path fill="none" stroke="#63b8ff" d="M147.56,-101.06C156.49,-102.29 165.65,-103.55 174.68,-104.8"/>
<polygon fill="#63b8ff" stroke="#63b8ff" points="174.14,-108.26 184.53,-106.16 175.1,-101.33 174.14,-108.26"/>
</a>
</g>
</g>
<!-- Node6 -->
<g id="Node000006" class="node">
<title>Node6</title>
<g id="a_Node000006"><a xlink:href="classdepicture__menu_1_1util_1_1worker__pool.html#a4a7091dc800579fa92c61885f786c83b" target="_top" xlink:title=" ">
<polygon fill="white" stroke="#666666" points="308.75,-82 205,-82 205,-50 308.75,-50 308.75,-82"/>
<text xml:space="preserve" text-anchor="start" x="213" y="-68.5" font-family="Helvetica,sans-Serif" font-size="10.00">depicture_menu::util</text>
<text xml:space="preserve" text-anchor="middle" x="256.88" y="-56.5" font-family="Helvetica,sans-Serif" font-size="10.00">::worker_pool::run</text>
</a>
</g>
</g>
<!-- Node1&#45;&gt;Node6 -->
<g id="edge6_Node000001_Node000006" class="edge">
<title>Node1&#45;&gt;Node6</title>
<g id="a_edge6_Node000001_Node000006"><a xlink:title=" ">
<path fill="none" stroke="#63b8ff" d="M147.56,-80.94C162.77,-78.84 178.67,-76.65 193.45,-74.61"/>
<polygon fill="#63b8ff" stroke="#63b8ff" points="193.59,-78.12 203.02,-73.29 192.63,-71.19 193.59,-78.12"/>
</a>
</g>
</g>
<!-- Node9 -->
<g id="Node000009" class="node">
<title>Node9</title>
<g id="a_Node000009"><a xlink:href="classdepicture__menu_1_1util_1_1worker__pool.html#ac6a0892d948a01837ebaa220a375ecdc" target="_top" xlink:title=" ">
<polygon fill="white" stroke="#666666" points="327.88,-32 185.88,-32 185.88,0 327.88,0 327.88,-32"/>
<text xml:space="preserve" text-anchor="start" x="193.88" y="-18.5" font-family="Helvetica,sans-Serif" font-size="10.00">depicture_menu::util</text>
<text xml:space="preserve" text-anchor="middle" x="256.88" y="-6.5" font-family="Helvetica,sans-Serif" font-size="10.00">::worker_pool::wait_until_idle</text>
</a>
</g>
</g>
<!-- Node1&#45;&gt;Node9 -->
<g id="edge9_Node000001_Node000009" class="edge">
<title>Node1&#45;&gt;Node9</title>
<g id="a_edge9_Node000001_Node000009"><a xlink:title=" ">
<path fill="none" stroke="#63b8ff" d="M95.58,-80.59C117.26,-70.01 152.23,-53.44 183.25,-41 187.13,-39.44 191.15,-37.89 195.21,-36.37"/>
<polygon fill="#63b8ff" stroke="#63b8ff" points="196.4,-39.66 204.6,-32.94 194,-33.09 196.4,-39.66"/>
</a>
</g>
</g>
<!-- Node2&#45;&gt;Node2 -->
<g id="edge2_Node000002_Node000002" class="edge">
<title>Node2&#45;&gt;Node2</title>
<g id="a_edge2_Node000002_Node000002"><a xlink:title=" ">
<path fill="none" stroke="#63b8ff" d="M228.12,-170.34C215.83,-178.98 225.41,-188 256.88,-188 274.57,-188 285.35,-185.14 289.2,-181.11"/>
<polygon fill="#63b8ff" stroke="#63b8ff" points="292.58,-180.17 286.11,-171.78 285.93,-182.37 292.58,-180.17"/>
</a>
</g>
</g>
<!-- Node3 -->
<g id="Node000003" class="node">
<title>Node3</title>
<g id="a_Node000003"><a xlink:href="namespacedepicture__menu_1_1applications_1_1backup__json.html#a4b92dd4ce35fec07d5d30021f80600fa" target="_top" xlink:title="backup data version 取得">
<polygon fill="white" stroke="#666666" points="509.25,-182 366.5,-182 366.5,-138 509.25,-138 509.25,-182"/>
<text xml:space="preserve" text-anchor="start" x="374.5" y="-168.5" font-family="Helvetica,sans-Serif" font-size="10.00">depicture_menu::applications</text>
<text xml:space="preserve" text-anchor="start" x="374.5" y="-156.5" font-family="Helvetica,sans-Serif" font-size="10.00">::backup_json::read_backup</text>
<text xml:space="preserve" text-anchor="middle" x="437.88" y="-144.5" font-family="Helvetica,sans-Serif" font-size="10.00">_version</text>
</a>
</g>
</g>
<!-- Node2&#45;&gt;Node3 -->
<g id="edge3_Node000002_Node000003" class="edge">
<title>Node2&#45;&gt;Node3</title>
<g id="a_edge3_Node000002_Node000003"><a xlink:title=" ">
<path fill="none" stroke="#63b8ff" d="M330.94,-160C338.73,-160 346.7,-160 354.59,-160"/>
<polygon fill="#63b8ff" stroke="#63b8ff" points="354.56,-163.5 364.56,-160 354.56,-156.5 354.56,-163.5"/>
</a>
</g>
</g>
<!-- Node4 -->
<g id="Node000004" class="node">
<title>Node4</title>
<g id="a_Node000004"><a xlink:href="namespacedepicture__menu_1_1applications_1_1backup__json_1_1detail.html#a3e231b62ee483eebf603f3a54cc82ee3" target="_top" xlink:title="エラー値構築関数">
<polygon fill="white" stroke="#666666" points="688,-182 545.25,-182 545.25,-138 688,-138 688,-182"/>
<text xml:space="preserve" text-anchor="start" x="553.25" y="-168.5" font-family="Helvetica,sans-Serif" font-size="10.00">depicture_menu::applications</text>
<text xml:space="preserve" text-anchor="start" x="553.25" y="-156.5" font-family="Helvetica,sans-Serif" font-size="10.00">::backup_json::detail::make</text>
<text xml:space="preserve" text-anchor="middle" x="616.62" y="-144.5" font-family="Helvetica,sans-Serif" font-size="10.00">_error_code</text>
</a>
</g>
</g>
<!-- Node3&#45;&gt;Node4 -->
<g id="edge4_Node000003_Node000004" class="edge">
<title>Node3&#45;&gt;Node4</title>
<g id="a_edge4_Node000003_Node000004"><a xlink:title=" ">
<path fill="none" stroke="#63b8ff" d="M509.75,-160C517.65,-160 525.74,-160 533.76,-160"/>
<polygon fill="#63b8ff" stroke="#63b8ff" points="533.51,-163.5 543.51,-160 533.51,-156.5 533.51,-163.5"/>
</a>
</g>
</g>
<!-- Node7 -->
<g id="Node000007" class="node">
<title>Node7</title>
<g id="a_Node000007"><a xlink:href="classdepicture__menu_1_1util_1_1worker__pool.html#a031faa16754300dd062028c0f741a3bf" target="_top" xlink:title=" ">
<polygon fill="white" stroke="#666666" points="502.5,-104 373.25,-104 373.25,-60 502.5,-60 502.5,-104"/>
<text xml:space="preserve" text-anchor="start" x="381.25" y="-90.5" font-family="Helvetica,sans-Serif" font-size="10.00">depicture_menu::util</text>
<text xml:space="preserve" text-anchor="start" x="381.25" y="-78.5" font-family="Helvetica,sans-Serif" font-size="10.00">::worker_pool::get_current</text>
<text xml:space="preserve" text-anchor="middle" x="437.88" y="-66.5" font-family="Helvetica,sans-Serif" font-size="10.00">_thread_index</text>
</a>
</g>
</g>
<!-- Node6&#45;&gt;Node7 -->
<g id="edge7_Node000006_Node000007" class="edge">
<title>Node6&#45;&gt;Node7</title>
<g id="a_edge7_Node000006_Node000007"><a xlink:title=" ">
<path fill="none" stroke="#63b8ff" d="M309.17,-70.58C325.44,-72.04 343.79,-73.68 361.39,-75.25"/>
<polygon fill="#63b8ff" stroke="#63b8ff" points="361.04,-78.74 371.31,-76.14 361.66,-71.76 361.04,-78.74"/>
</a>
</g>
</g>
<!-- Node8 -->
<g id="Node000008" class="node">
<title>Node8</title>
<g id="a_Node000008"><a xlink:href="classdepicture__menu_1_1util_1_1worker__pool.html#a7387800619f25ada44d514e25ae98ff8" target="_top" xlink:title=" ">
<polygon fill="white" stroke="#666666" points="502.5,-42 373.25,-42 373.25,-10 502.5,-10 502.5,-42"/>
<text xml:space="preserve" text-anchor="start" x="381.25" y="-28.5" font-family="Helvetica,sans-Serif" font-size="10.00">depicture_menu::util</text>
<text xml:space="preserve" text-anchor="middle" x="437.88" y="-16.5" font-family="Helvetica,sans-Serif" font-size="10.00">::worker_pool::wakeup_all</text>
</a>
</g>
</g>
<!-- Node6&#45;&gt;Node8 -->
<g id="edge8_Node000006_Node000008" class="edge">
<title>Node6&#45;&gt;Node8</title>
<g id="a_edge8_Node000006_Node000008"><a xlink:title=" ">
<path fill="none" stroke="#63b8ff" d="M309.17,-54.54C325.52,-50.88 343.96,-46.76 361.64,-42.81"/>
<polygon fill="#63b8ff" stroke="#63b8ff" points="362.35,-46.24 371.34,-40.64 360.82,-39.41 362.35,-46.24"/>
</a>
</g>
</g>
</g>
</svg>
