<?xml version="1.0" encoding="UTF-8" standalone="no"?>
<!DOCTYPE svg PUBLIC "-//W3C//DTD SVG 1.1//EN"
 "http://www.w3.org/Graphics/SVG/1.1/DTD/svg11.dtd">
<!-- Generated by graphviz version 14.1.2 (20260124.0452)
 -->
<!-- Title: BOOST_AUTO_TEST_CASE Pages: 1 -->
<svg width="467pt" height="110pt"
 viewBox="0.00 0.00 467.00 110.00" xmlns="http://www.w3.org/2000/svg" xmlns:xlink="http://www.w3.org/1999/xlink">
<g id="graph0" class="graph" transform="scale(1 1) rotate(0) translate(4 106)">
<title>BOOST_AUTO_TEST_CASE</title>
<!-- Node1 -->
<g id="Node000001" class="node">
<title>Node1</title>
<g id="a_Node000001"><a xlink:title=" ">
<polygon fill="#999999" stroke="#666666" points="147.25,-64 0,-64 0,-44 147.25,-44 147.25,-64"/>
<text xml:space="preserve" text-anchor="middle" x="73.62" y="-50.5" font-family="Helvetica,sans-Serif" font-size="10.00">BOOST_AUTO_TEST_CASE</text>
</a>
</g>
</g>
<!-- Node2 -->
<g id="Node000002" class="node">
<title>Node2</title>
<g id="a_Node000002"><a xlink:href="action__change__operation_8cpp.html#a21cd4ad5cb7cf2e145fff9f01cfa56f1" target="_top" xlink:title=" ">
<polygon fill="white" stroke="#666666" points="271.25,-102 188.5,-102 188.5,-82 271.25,-82 271.25,-102"/>
<text xml:space="preserve" text-anchor="middle" x="229.88" y="-88.5" font-family="Helvetica,sans-Serif" font-size="10.00">get_menu_item</text>
</a>
</g>
</g>
<!-- Node1&#45;&gt;Node2 -->
<g id="edge1_Node000001_Node000002" class="edge">
<title>Node1&#45;&gt;Node2</title>
<g id="a_edge1_Node000001_Node000002"><a xlink:title=" ">
<path fill="none" stroke="#63b8ff" d="M117.18,-64.48C135.67,-69.04 157.5,-74.42 176.93,-79.2"/>
<polygon fill="#63b8ff" stroke="#63b8ff" points="176.03,-82.59 186.58,-81.58 177.71,-75.79 176.03,-82.59"/>
</a>
</g>
</g>
<!-- Node4 -->
<g id="Node000004" class="node">
<title>Node4</title>
<g id="a_Node000004"><a xlink:href="test__command__line__option_8cpp.html#a8804cd4df220b4dbe58067cd7f91dcbd" target="_top" xlink:title=" ">
<polygon fill="white" stroke="#666666" points="275.75,-64 184,-64 184,-44 275.75,-44 275.75,-64"/>
<text xml:space="preserve" text-anchor="middle" x="229.88" y="-50.5" font-family="Helvetica,sans-Serif" font-size="10.00">MOCK_EXPECT</text>
</a>
</g>
</g>
<!-- Node1&#45;&gt;Node4 -->
<g id="edge3_Node000001_Node000004" class="edge">
<title>Node1&#45;&gt;Node4</title>
<g id="a_edge3_Node000001_Node000004"><a xlink:title=" ">
<path fill="none" stroke="#63b8ff" d="M147.68,-54C155.95,-54 164.28,-54 172.29,-54"/>
<polygon fill="#63b8ff" stroke="#63b8ff" points="172.24,-57.5 182.24,-54 172.24,-50.5 172.24,-57.5"/>
</a>
</g>
</g>
<!-- Node5 -->
<g id="Node000005" class="node">
<title>Node5</title>
<g id="a_Node000005"><a xlink:href="action__change__operation_8cpp.html#a3ed913cc3c991a79bda66f42b5b9d032" target="_top" xlink:title=" ">
<polygon fill="white" stroke="#666666" points="276.5,-26 183.25,-26 183.25,-6 276.5,-6 276.5,-26"/>
<text xml:space="preserve" text-anchor="middle" x="229.88" y="-12.5" font-family="Helvetica,sans-Serif" font-size="10.00">set_menu_on_arg</text>
</a>
</g>
</g>
<!-- Node1&#45;&gt;Node5 -->
<g id="edge4_Node000001_Node000005" class="edge">
<title>Node1&#45;&gt;Node5</title>
<g id="a_edge4_Node000001_Node000005"><a xlink:title=" ">
<path fill="none" stroke="#63b8ff" d="M117.18,-43.52C135.22,-39.07 156.44,-33.84 175.52,-29.15"/>
<polygon fill="#63b8ff" stroke="#63b8ff" points="176.11,-32.6 184.99,-26.81 174.44,-25.81 176.11,-32.6"/>
</a>
</g>
</g>
<!-- Node3 -->
<g id="Node000003" class="node">
<title>Node3</title>
<g id="a_Node000003"><a xlink:href="action__change__operation_8cpp.html#a2934c95d04c77f3d34f9b8440d758d6e" target="_top" xlink:title=" ">
<polygon fill="white" stroke="#666666" points="415.12,-102 356.38,-102 356.38,-82 415.12,-82 415.12,-102"/>
<text xml:space="preserve" text-anchor="middle" x="385.75" y="-88.5" font-family="Helvetica,sans-Serif" font-size="10.00">get_menu</text>
</a>
</g>
</g>
<!-- Node2&#45;&gt;Node3 -->
<g id="edge2_Node000002_Node000003" class="edge">
<title>Node2&#45;&gt;Node3</title>
<g id="a_edge2_Node000002_Node000003"><a xlink:title=" ">
<path fill="none" stroke="#63b8ff" d="M271.71,-92C294.2,-92 322.01,-92 344.42,-92"/>
<polygon fill="#63b8ff" stroke="#63b8ff" points="344.41,-95.5 354.41,-92 344.41,-88.5 344.41,-95.5"/>
</a>
</g>
</g>
<!-- Node6 -->
<g id="Node000006" class="node">
<title>Node6</title>
<g id="a_Node000006"><a xlink:href="structdepicture__menu_1_1domain_1_1models_1_1entity__id__base.html#a890c8c4b42729b73d1b0b5de2967a6c0" target="_top" xlink:title=" ">
<polygon fill="white" stroke="#666666" points="459,-32 312.5,-32 312.5,0 459,0 459,-32"/>
<text xml:space="preserve" text-anchor="start" x="320.5" y="-18.5" font-family="Helvetica,sans-Serif" font-size="10.00">depicture_menu::domain</text>
<text xml:space="preserve" text-anchor="middle" x="385.75" y="-6.5" font-family="Helvetica,sans-Serif" font-size="10.00">::models::entity_id_base::uuid</text>
</a>
</g>
</g>
<!-- Node5&#45;&gt;Node6 -->
<g id="edge5_Node000005_Node000006" class="edge">
<title>Node5&#45;&gt;Node6</title>
<g id="a_edge5_Node000005_Node000006"><a xlink:title=" ">
<path fill="none" stroke="#63b8ff" d="M276.63,-16C284.3,-16 292.47,-16 300.75,-16"/>
<polygon fill="#63b8ff" stroke="#63b8ff" points="300.57,-19.5 310.57,-16 300.57,-12.5 300.57,-19.5"/>
</a>
</g>
</g>
</g>
</svg>
