<?xml version="1.0" encoding="UTF-8" standalone="no"?>
<!DOCTYPE svg PUBLIC "-//W3C//DTD SVG 1.1//EN"
 "http://www.w3.org/Graphics/SVG/1.1/DTD/svg11.dtd">
<!-- Generated by graphviz version 14.1.2 (20260124.0452)
 -->
<!-- Title: BOOST_AUTO_TEST_CASE Pages: 1 -->
<svg width="324pt" height="180pt"
 viewBox="0.00 0.00 324.00 180.00" xmlns="http://www.w3.org/2000/svg" xmlns:xlink="http://www.w3.org/1999/xlink">

<svg id="main" version="1.1" xmlns="http://www.w3.org/2000/svg" xmlns:xlink="http://www.w3.org/1999/xlink" xml:space="preserve">

<style type="text/css"><![CDATA[
.node, .edge {opacity: 0.7;}
.node.selected, .edge.selected {opacity: 1;}
.edge:hover path { stroke: red; }
.edge:hover polygon { stroke: red; fill: red; }
]]></style>
<script type="application/ecmascript" xlink:href="svg.min.js"/>
<svg id="graph" class="graph">
<g id="graph0" class="graph" transform="scale(1 1) rotate(0) translate(4 176)">
<title>BOOST_AUTO_TEST_CASE</title>
<!-- Node1 -->
<g id="Node000001" class="node">
<title>Node1</title>
<g id="a_Node000001"><a xlink:title=" ">
<polygon fill="#999999" stroke="#666666" points="147.25,-96 0,-96 0,-76 147.25,-76 147.25,-96"/>
<text xml:space="preserve" text-anchor="middle" x="73.62" y="-82.5" font-family="Helvetica,sans-Serif" font-size="10.00">BOOST_AUTO_TEST_CASE</text>
</a>
</g>
</g>
<!-- Node2 -->
<g id="Node000002" class="node">
<title>Node2</title>
<g id="a_Node000002"><a xlink:href="_test_config_view_presenter_8cpp.html#a7845eb0c68b997d6d329618f36f7e794" target="_top" xlink:title=" ">
<polygon fill="white" stroke="#666666" points="290.38,-172 209.12,-172 209.12,-152 290.38,-152 290.38,-172"/>
<text xml:space="preserve" text-anchor="middle" x="249.75" y="-158.5" font-family="Helvetica,sans-Serif" font-size="10.00">BOOST_TEST</text>
</a>
</g>
</g>
<!-- Node1&#45;&gt;Node2 -->
<g id="edge1_Node000001_Node000002" class="edge">
<title>Node1&#45;&gt;Node2</title>
<g id="a_edge1_Node000001_Node000002"><a xlink:title=" ">
<path fill="none" stroke="#63b8ff" d="M91.79,-96.4C112.78,-108.78 149.67,-129.48 183.25,-143 187.95,-144.89 192.91,-146.68 197.91,-148.35"/>
<polygon fill="#63b8ff" stroke="#63b8ff" points="196.8,-151.67 207.39,-151.35 198.91,-145 196.8,-151.67"/>
</a>
</g>
</g>
<!-- Node3 -->
<g id="Node000003" class="node">
<title>Node3</title>
<g id="a_Node000003"><a xlink:href="_test_config_view_presenter_8cpp.html#a7f6be0f696e3b7a5113c43a07d67e9cd" target="_top" xlink:title=" ">
<polygon fill="white" stroke="#666666" points="316.25,-134 183.25,-134 183.25,-114 316.25,-114 316.25,-134"/>
<text xml:space="preserve" text-anchor="middle" x="249.75" y="-120.5" font-family="Helvetica,sans-Serif" font-size="10.00">BOOST_TEST_REQUIRE</text>
</a>
</g>
</g>
<!-- Node1&#45;&gt;Node3 -->
<g id="edge2_Node000001_Node000003" class="edge">
<title>Node1&#45;&gt;Node3</title>
<g id="a_edge2_Node000001_Node000003"><a xlink:title=" ">
<path fill="none" stroke="#63b8ff" d="M122.67,-96.48C143.41,-101.01 167.88,-106.35 189.72,-111.12"/>
<polygon fill="#63b8ff" stroke="#63b8ff" points="188.87,-114.51 199.39,-113.23 190.36,-107.68 188.87,-114.51"/>
</a>
</g>
</g>
<!-- Node4 -->
<g id="Node000004" class="node">
<title>Node4</title>
<g id="a_Node000004"><a xlink:href="test__command__line__option_8cpp.html#a8804cd4df220b4dbe58067cd7f91dcbd" target="_top" xlink:title=" ">
<polygon fill="white" stroke="#666666" points="295.62,-96 203.88,-96 203.88,-76 295.62,-76 295.62,-96"/>
<text xml:space="preserve" text-anchor="middle" x="249.75" y="-82.5" font-family="Helvetica,sans-Serif" font-size="10.00">MOCK_EXPECT</text>
</a>
</g>
</g>
<!-- Node1&#45;&gt;Node4 -->
<g id="edge3_Node000001_Node000004" class="edge">
<title>Node1&#45;&gt;Node4</title>
<g id="a_edge3_Node000001_Node000004"><a xlink:title=" ">
<path fill="none" stroke="#63b8ff" d="M147.71,-86C162.62,-86 178.09,-86 192.31,-86"/>
<polygon fill="#63b8ff" stroke="#63b8ff" points="191.9,-89.5 201.9,-86 191.9,-82.5 191.9,-89.5"/>
</a>
</g>
</g>
<!-- Node5 -->
<g id="Node000005" class="node">
<title>Node5</title>
<g id="a_Node000005"><a xlink:href="test__command__line__option_8cpp.html#a76b71ed405acc0093eaef283c86f6461" target="_top" xlink:title=" ">
<polygon fill="white" stroke="#666666" points="300.12,-58 199.38,-58 199.38,-38 300.12,-38 300.12,-58"/>
<text xml:space="preserve" text-anchor="middle" x="249.75" y="-44.5" font-family="Helvetica,sans-Serif" font-size="10.00">MOCK_FUNCTOR</text>
</a>
</g>
</g>
<!-- Node1&#45;&gt;Node5 -->
<g id="edge4_Node000001_Node000005" class="edge">
<title>Node1&#45;&gt;Node5</title>
<g id="a_edge4_Node000001_Node000005"><a xlink:title=" ">
<path fill="none" stroke="#63b8ff" d="M122.67,-75.52C143.41,-70.99 167.88,-65.65 189.72,-60.88"/>
<polygon fill="#63b8ff" stroke="#63b8ff" points="190.36,-64.32 199.39,-58.77 188.87,-57.49 190.36,-64.32"/>
</a>
</g>
</g>
<!-- Node6 -->
<g id="Node000006" class="node">
<title>Node6</title>
<g id="a_Node000006"><a xlink:href="action__change__operation_8cpp.html#a08ee9762f61abb902eac449b23391fe1" target="_top" xlink:title=" ">
<polygon fill="white" stroke="#666666" points="285.5,-20 214,-20 214,0 285.5,0 285.5,-20"/>
<text xml:space="preserve" text-anchor="middle" x="249.75" y="-6.5" font-family="Helvetica,sans-Serif" font-size="10.00">wide_to_utf8</text>
</a>
</g>
</g>
<!-- Node1&#45;&gt;Node6 -->
<g id="edge5_Node000001_Node000006" class="edge">
<title>Node1&#45;&gt;Node6</title>
<g id="a_edge5_Node000001_Node000006"><a xlink:title=" ">
<path fill="none" stroke="#63b8ff" d="M91.79,-75.6C112.78,-63.22 149.67,-42.52 183.25,-29 189.44,-26.51 196.08,-24.19 202.68,-22.09"/>
<polygon fill="#63b8ff" stroke="#63b8ff" points="203.63,-25.46 212.19,-19.22 201.6,-18.76 203.63,-25.46"/>
</a>
</g>
</g>
</g>
</svg>
</svg>

<style type='text/css'>
<![CDATA[
[data-mouse-over-selected='false'] { opacity: 0.7; }
[data-mouse-over-selected='true']  { opacity: 1.0; }
]]>
</style>
<script type="application/ecmascript"><![CDATA[
document.addEventListener('DOMContentLoaded', (event) => {
  highlightEdges();
  highlightAdjacentNodes();
});
]]></script>
</svg>
