<?xml version="1.0" encoding="UTF-8" standalone="no"?>
<!DOCTYPE svg PUBLIC "-//W3C//DTD SVG 1.1//EN"
 "http://www.w3.org/Graphics/SVG/1.1/DTD/svg11.dtd">
<!-- Generated by graphviz version 14.1.2 (20260124.0452)
 -->
<!-- Title: depicture_menu/src/core/domain/model/action/action_name.hpp Pages: 1 -->
<svg width="1462pt" height="300pt"
 viewBox="0.00 0.00 1462.00 300.00" xmlns="http://www.w3.org/2000/svg" xmlns:xlink="http://www.w3.org/1999/xlink">
<g id="graph0" class="graph" transform="scale(1 1) rotate(0) translate(4 296)">
<title>depicture_menu/src/core/domain/model/action/action_name.hpp</title>
<!-- Node1 -->
<g id="Node000001" class="node">
<title>Node1</title>
<g id="a_Node000001"><a xlink:title=" ">
<polygon fill="#999999" stroke="#666666" points="1425.25,-292 1294.5,-292 1294.5,-248 1425.25,-248 1425.25,-292"/>
<text xml:space="preserve" text-anchor="start" x="1302.5" y="-278.5" font-family="Helvetica,sans-Serif" font-size="10.00">depicture_menu/src</text>
<text xml:space="preserve" text-anchor="start" x="1302.5" y="-266.5" font-family="Helvetica,sans-Serif" font-size="10.00">/core/domain/model/action</text>
<text xml:space="preserve" text-anchor="middle" x="1359.88" y="-254.5" font-family="Helvetica,sans-Serif" font-size="10.00">/action_name.hpp</text>
</a>
</g>
</g>
<!-- Node2 -->
<g id="Node000002" class="node">
<title>Node2</title>
<g id="a_Node000002"><a xlink:href="model_2value__object_8hpp.html" target="_top" xlink:title=" ">
<polygon fill="white" stroke="#666666" points="394.25,-212 269.5,-212 269.5,-180 394.25,-180 394.25,-212"/>
<text xml:space="preserve" text-anchor="start" x="277.5" y="-198.5" font-family="Helvetica,sans-Serif" font-size="10.00">core/domain/model/value</text>
<text xml:space="preserve" text-anchor="middle" x="331.88" y="-186.5" font-family="Helvetica,sans-Serif" font-size="10.00">_object.hpp</text>
</a>
</g>
</g>
<!-- Node1&#45;&gt;Node2 -->
<g id="edge1_Node000001_Node000002" class="edge">
<title>Node1&#45;&gt;Node2</title>
<g id="a_edge1_Node000001_Node000002"><a xlink:title=" ">
<path fill="none" stroke="#63b8ff" d="M1294.01,-264.39C1111.18,-251.58 598.27,-215.66 405.95,-202.19"/>
<polygon fill="#63b8ff" stroke="#63b8ff" points="406.3,-198.7 396.08,-201.5 405.81,-205.69 406.3,-198.7"/>
</a>
</g>
</g>
<!-- Node7 -->
<g id="Node000007" class="node">
<title>Node7</title>
<g id="a_Node000007"><a xlink:href="str__conv_8hpp.html" target="_top" xlink:title=" ">
<polygon fill="white" stroke="#666666" points="1408.75,-82 1311,-82 1311,-62 1408.75,-62 1408.75,-82"/>
<text xml:space="preserve" text-anchor="middle" x="1359.88" y="-68.5" font-family="Helvetica,sans-Serif" font-size="10.00">utility/str_conv.hpp</text>
</a>
</g>
</g>
<!-- Node1&#45;&gt;Node7 -->
<g id="edge24_Node000001_Node000007" class="edge">
<title>Node1&#45;&gt;Node7</title>
<g id="a_edge24_Node000001_Node000007"><a xlink:title=" ">
<path fill="none" stroke="#63b8ff" d="M1359.88,-247.65C1359.88,-209.67 1359.88,-130.83 1359.88,-93.48"/>
<polygon fill="#63b8ff" stroke="#63b8ff" points="1363.38,-93.65 1359.88,-83.65 1356.38,-93.65 1363.38,-93.65"/>
</a>
</g>
</g>
<!-- Node8 -->
<g id="Node000008" class="node">
<title>Node8</title>
<g id="a_Node000008"><a xlink:title=" ">
<polygon fill="#e0e0e0" stroke="#999999" points="1453.88,-20 1413.88,-20 1413.88,0 1453.88,0 1453.88,-20"/>
<text xml:space="preserve" text-anchor="middle" x="1433.88" y="-6.5" font-family="Helvetica,sans-Serif" font-size="10.00">string</text>
</a>
</g>
</g>
<!-- Node1&#45;&gt;Node8 -->
<g id="edge25_Node000001_Node000008" class="edge">
<title>Node1&#45;&gt;Node8</title>
<g id="a_edge25_Node000001_Node000008"><a xlink:title=" ">
<path fill="none" stroke="#63b8ff" d="M1367.49,-247.76C1379.34,-214.16 1402.46,-146.55 1417.88,-88 1422.92,-68.83 1427.39,-46.64 1430.31,-31.02"/>
<polygon fill="#63b8ff" stroke="#63b8ff" points="1433.69,-32.04 1432.04,-21.57 1426.8,-30.78 1433.69,-32.04"/>
</a>
</g>
</g>
<!-- Node3 -->
<g id="Node000003" class="node">
<title>Node3</title>
<g id="a_Node000003"><a xlink:href="model_2presistence_8hpp.html" target="_top" xlink:title=" ">
<polygon fill="white" stroke="#666666" points="951.38,-144 866.38,-144 866.38,-124 951.38,-124 951.38,-144"/>
<text xml:space="preserve" text-anchor="middle" x="908.88" y="-130.5" font-family="Helvetica,sans-Serif" font-size="10.00">presistence.hpp</text>
</a>
</g>
</g>
<!-- Node2&#45;&gt;Node3 -->
<g id="edge2_Node000002_Node000003" class="edge">
<title>Node2&#45;&gt;Node3</title>
<g id="a_edge2_Node000002_Node000003"><a xlink:title=" ">
<path fill="none" stroke="#63b8ff" d="M394.72,-188.46C508.72,-176.61 747.67,-151.76 854.84,-140.62"/>
<polygon fill="#63b8ff" stroke="#63b8ff" points="854.93,-144.13 864.52,-139.61 854.21,-137.17 854.93,-144.13"/>
</a>
</g>
</g>
<!-- Node5 -->
<g id="Node000005" class="node">
<title>Node5</title>
<g id="a_Node000005"><a xlink:title=" ">
<polygon fill="#e0e0e0" stroke="#999999" points="473.25,-20 378.5,-20 378.5,0 473.25,0 473.25,-20"/>
<text xml:space="preserve" text-anchor="middle" x="425.88" y="-6.5" font-family="Helvetica,sans-Serif" font-size="10.00">boost/pfr/core.hpp</text>
</a>
</g>
</g>
<!-- Node2&#45;&gt;Node5 -->
<g id="edge20_Node000002_Node000005" class="edge">
<title>Node2&#45;&gt;Node5</title>
<g id="a_edge20_Node000002_Node000005"><a xlink:title=" ">
<path fill="none" stroke="#63b8ff" d="M347.49,-179.8C356.96,-170.09 368.91,-156.94 377.88,-144 393.84,-120.96 397,-114.23 406.88,-88 413.91,-69.29 419.08,-47.04 422.23,-31.27"/>
<polygon fill="#63b8ff" stroke="#63b8ff" points="425.62,-32.18 424.05,-21.71 418.75,-30.88 425.62,-32.18"/>
</a>
</g>
</g>
<!-- Node6 -->
<g id="Node000006" class="node">
<title>Node6</title>
<g id="a_Node000006"><a xlink:title=" ">
<polygon fill="#e0e0e0" stroke="#999999" points="304.5,-20 265.25,-20 265.25,0 304.5,0 304.5,-20"/>
<text xml:space="preserve" text-anchor="middle" x="284.88" y="-6.5" font-family="Helvetica,sans-Serif" font-size="10.00">utility</text>
</a>
</g>
</g>
<!-- Node2&#45;&gt;Node6 -->
<g id="edge23_Node000002_Node000006" class="edge">
<title>Node2&#45;&gt;Node6</title>
<g id="a_edge23_Node000002_Node000006"><a xlink:title=" ">
<path fill="none" stroke="#63b8ff" d="M315.26,-179.57C296.08,-160.36 266,-125.47 256.88,-88 253.51,-74.18 252.97,-69.68 256.88,-56 259.58,-46.53 264.92,-37.11 270.22,-29.35"/>
<polygon fill="#63b8ff" stroke="#63b8ff" points="272.92,-31.59 276.04,-21.47 267.28,-27.44 272.92,-31.59"/>
</a>
</g>
</g>
<!-- Node18 -->
<g id="Node000018" class="node">
<title>Node18</title>
<g id="a_Node000018"><a xlink:href="concepts_8hpp.html" target="_top" xlink:title=" ">
<polygon fill="white" stroke="#666666" points="369.12,-144 294.62,-144 294.62,-124 369.12,-124 369.12,-144"/>
<text xml:space="preserve" text-anchor="middle" x="331.88" y="-130.5" font-family="Helvetica,sans-Serif" font-size="10.00">concepts.hpp</text>
</a>
</g>
</g>
<!-- Node2&#45;&gt;Node18 -->
<g id="edge18_Node000002_Node000018" class="edge">
<title>Node2&#45;&gt;Node18</title>
<g id="a_edge18_Node000002_Node000018"><a xlink:title=" ">
<path fill="none" stroke="#63b8ff" d="M331.88,-179.55C331.88,-172.34 331.88,-163.66 331.88,-155.88"/>
<polygon fill="#63b8ff" stroke="#63b8ff" points="335.38,-155.92 331.88,-145.92 328.38,-155.92 335.38,-155.92"/>
</a>
</g>
</g>
<!-- Node19 -->
<g id="Node000019" class="node">
<title>Node19</title>
<g id="a_Node000019"><a xlink:title=" ">
<polygon fill="#e0e0e0" stroke="#999999" points="91.75,-144 0,-144 0,-124 91.75,-124 91.75,-144"/>
<text xml:space="preserve" text-anchor="middle" x="45.88" y="-130.5" font-family="Helvetica,sans-Serif" font-size="10.00">boost/pfr/ops.hpp</text>
</a>
</g>
</g>
<!-- Node2&#45;&gt;Node19 -->
<g id="edge21_Node000002_Node000019" class="edge">
<title>Node2&#45;&gt;Node19</title>
<g id="a_edge21_Node000002_Node000019"><a xlink:title=" ">
<path fill="none" stroke="#63b8ff" d="M269.11,-181.83C219.18,-171.36 149.95,-156.83 101.88,-146.75"/>
<polygon fill="#63b8ff" stroke="#63b8ff" points="102.74,-143.35 92.23,-144.72 101.3,-150.2 102.74,-143.35"/>
</a>
</g>
</g>
<!-- Node20 -->
<g id="Node000020" class="node">
<title>Node20</title>
<g id="a_Node000020"><a xlink:title=" ">
<polygon fill="#e0e0e0" stroke="#999999" points="210.25,-144 109.5,-144 109.5,-124 210.25,-124 210.25,-144"/>
<text xml:space="preserve" text-anchor="middle" x="159.88" y="-130.5" font-family="Helvetica,sans-Serif" font-size="10.00">boost/uuid/uuid.hpp</text>
</a>
</g>
</g>
<!-- Node2&#45;&gt;Node20 -->
<g id="edge22_Node000002_Node000020" class="edge">
<title>Node2&#45;&gt;Node20</title>
<g id="a_edge22_Node000002_Node000020"><a xlink:title=" ">
<path fill="none" stroke="#63b8ff" d="M287.58,-179.55C259.8,-169.86 224.35,-157.49 197.86,-148.25"/>
<polygon fill="#63b8ff" stroke="#63b8ff" points="199.12,-144.98 188.53,-144.99 196.82,-151.59 199.12,-144.98"/>
</a>
</g>
</g>
<!-- Node4 -->
<g id="Node000004" class="node">
<title>Node4</title>
<g id="a_Node000004"><a xlink:href="model__base__concepts_8hpp.html" target="_top" xlink:title=" ">
<polygon fill="white" stroke="#666666" points="398,-82 265.75,-82 265.75,-62 398,-62 398,-82"/>
<text xml:space="preserve" text-anchor="middle" x="331.88" y="-68.5" font-family="Helvetica,sans-Serif" font-size="10.00">model_base_concepts.hpp</text>
</a>
</g>
</g>
<!-- Node3&#45;&gt;Node4 -->
<g id="edge3_Node000003_Node000004" class="edge">
<title>Node3&#45;&gt;Node4</title>
<g id="a_edge3_Node000003_Node000004"><a xlink:title=" ">
<path fill="none" stroke="#63b8ff" d="M865.96,-129.35C784.02,-122.26 599.65,-105.77 444.88,-88 433.48,-86.69 421.45,-85.21 409.65,-83.69"/>
<polygon fill="#63b8ff" stroke="#63b8ff" points="410.32,-80.25 399.95,-82.43 409.42,-87.19 410.32,-80.25"/>
</a>
</g>
</g>
<!-- Node3&#45;&gt;Node5 -->
<g id="edge10_Node000003_Node000005" class="edge">
<title>Node3&#45;&gt;Node5</title>
<g id="a_edge10_Node000003_Node000005"><a xlink:title=" ">
<path fill="none" stroke="#63b8ff" d="M951.71,-132.15C1032.63,-129.17 1195.01,-115.79 1138.88,-56 1116.6,-32.27 651.41,-17.2 484.68,-12.54"/>
<polygon fill="#63b8ff" stroke="#63b8ff" points="485.28,-9.06 475.18,-12.28 485.08,-16.05 485.28,-9.06"/>
</a>
</g>
</g>
<!-- Node3&#45;&gt;Node7 -->
<g id="edge6_Node000003_Node000007" class="edge">
<title>Node3&#45;&gt;Node7</title>
<g id="a_edge6_Node000003_Node000007"><a xlink:title=" ">
<path fill="none" stroke="#63b8ff" d="M951.62,-130.06C1024.11,-124.65 1175.61,-111.44 1301.88,-88 1306.42,-87.16 1311.13,-86.15 1315.82,-85.07"/>
<polygon fill="#63b8ff" stroke="#63b8ff" points="1316.26,-88.57 1325.15,-82.8 1314.61,-81.77 1316.26,-88.57"/>
</a>
</g>
</g>
<!-- Node10 -->
<g id="Node000010" class="node">
<title>Node10</title>
<g id="a_Node000010"><a xlink:title=" ">
<polygon fill="#e0e0e0" stroke="#999999" points="1292.5,-88 1187.25,-88 1187.25,-56 1292.5,-56 1292.5,-88"/>
<text xml:space="preserve" text-anchor="start" x="1195.25" y="-74.5" font-family="Helvetica,sans-Serif" font-size="10.00">boost/archive/basic</text>
<text xml:space="preserve" text-anchor="middle" x="1239.88" y="-62.5" font-family="Helvetica,sans-Serif" font-size="10.00">_binary_iarchive.hpp</text>
</a>
</g>
</g>
<!-- Node3&#45;&gt;Node10 -->
<g id="edge9_Node000003_Node000010" class="edge">
<title>Node3&#45;&gt;Node10</title>
<g id="a_edge9_Node000003_Node000010"><a xlink:title=" ">
<path fill="none" stroke="#63b8ff" d="M951.52,-126.42C1003.82,-118.2 1095.1,-103.32 1172.88,-88 1173.87,-87.8 1174.88,-87.6 1175.89,-87.4"/>
<polygon fill="#63b8ff" stroke="#63b8ff" points="1176.33,-90.88 1185.42,-85.43 1174.91,-84.03 1176.33,-90.88"/>
</a>
</g>
</g>
<!-- Node11 -->
<g id="Node000011" class="node">
<title>Node11</title>
<g id="a_Node000011"><a xlink:title=" ">
<polygon fill="#e0e0e0" stroke="#999999" points="548.25,-88 453.5,-88 453.5,-56 548.25,-56 548.25,-88"/>
<text xml:space="preserve" text-anchor="start" x="461.5" y="-74.5" font-family="Helvetica,sans-Serif" font-size="10.00">boost/serialization</text>
<text xml:space="preserve" text-anchor="middle" x="500.88" y="-62.5" font-family="Helvetica,sans-Serif" font-size="10.00">/access.hpp</text>
</a>
</g>
</g>
<!-- Node3&#45;&gt;Node11 -->
<g id="edge11_Node000003_Node000011" class="edge">
<title>Node3&#45;&gt;Node11</title>
<g id="a_edge11_Node000003_Node000011"><a xlink:title=" ">
<path fill="none" stroke="#63b8ff" d="M865.9,-129.3C801.53,-123.37 676.08,-110.29 559.88,-88.22"/>
<polygon fill="#63b8ff" stroke="#63b8ff" points="560.63,-84.8 550.15,-86.34 559.31,-91.68 560.63,-84.8"/>
</a>
</g>
</g>
<!-- Node12 -->
<g id="Node000012" class="node">
<title>Node12</title>
<g id="a_Node000012"><a xlink:title=" ">
<polygon fill="#e0e0e0" stroke="#999999" points="661.25,-88 566.5,-88 566.5,-56 661.25,-56 661.25,-88"/>
<text xml:space="preserve" text-anchor="start" x="574.5" y="-74.5" font-family="Helvetica,sans-Serif" font-size="10.00">boost/serialization</text>
<text xml:space="preserve" text-anchor="middle" x="613.88" y="-62.5" font-family="Helvetica,sans-Serif" font-size="10.00">/optional.hpp</text>
</a>
</g>
</g>
<!-- Node3&#45;&gt;Node12 -->
<g id="edge12_Node000003_Node000012" class="edge">
<title>Node3&#45;&gt;Node12</title>
<g id="a_edge12_Node000003_Node000012"><a xlink:title=" ">
<path fill="none" stroke="#63b8ff" d="M866.13,-125.85C820.58,-118.03 746.15,-104.66 672.56,-88.29"/>
<polygon fill="#63b8ff" stroke="#63b8ff" points="673.71,-84.96 663.19,-86.18 672.18,-91.79 673.71,-84.96"/>
</a>
</g>
</g>
<!-- Node13 -->
<g id="Node000013" class="node">
<title>Node13</title>
<g id="a_Node000013"><a xlink:title=" ">
<polygon fill="#e0e0e0" stroke="#999999" points="784.12,-88 679.62,-88 679.62,-56 784.12,-56 784.12,-88"/>
<text xml:space="preserve" text-anchor="start" x="687.62" y="-74.5" font-family="Helvetica,sans-Serif" font-size="10.00">boost/serialization</text>
<text xml:space="preserve" text-anchor="middle" x="731.88" y="-62.5" font-family="Helvetica,sans-Serif" font-size="10.00">/unordered_map.hpp</text>
</a>
</g>
</g>
<!-- Node3&#45;&gt;Node13 -->
<g id="edge13_Node000003_Node000013" class="edge">
<title>Node3&#45;&gt;Node13</title>
<g id="a_edge13_Node000003_Node000013"><a xlink:title=" ">
<path fill="none" stroke="#63b8ff" d="M881.22,-123.62C856.43,-115.22 819.3,-102.64 788.27,-92.12"/>
<polygon fill="#63b8ff" stroke="#63b8ff" points="789.6,-88.87 779.01,-88.98 787.35,-95.5 789.6,-88.87"/>
</a>
</g>
</g>
<!-- Node14 -->
<g id="Node000014" class="node">
<title>Node14</title>
<g id="a_Node000014"><a xlink:title=" ">
<polygon fill="#e0e0e0" stroke="#999999" points="901.5,-88 802.25,-88 802.25,-56 901.5,-56 901.5,-88"/>
<text xml:space="preserve" text-anchor="start" x="810.25" y="-74.5" font-family="Helvetica,sans-Serif" font-size="10.00">boost/serialization</text>
<text xml:space="preserve" text-anchor="middle" x="851.88" y="-62.5" font-family="Helvetica,sans-Serif" font-size="10.00">/unordered_set.hpp</text>
</a>
</g>
</g>
<!-- Node3&#45;&gt;Node14 -->
<g id="edge14_Node000003_Node000014" class="edge">
<title>Node3&#45;&gt;Node14</title>
<g id="a_edge14_Node000003_Node000014"><a xlink:title=" ">
<path fill="none" stroke="#63b8ff" d="M899.97,-123.62C893.06,-116.36 883.19,-105.96 874.18,-96.48"/>
<polygon fill="#63b8ff" stroke="#63b8ff" points="876.73,-94.08 867.3,-89.24 871.65,-98.9 876.73,-94.08"/>
</a>
</g>
</g>
<!-- Node15 -->
<g id="Node000015" class="node">
<title>Node15</title>
<g id="a_Node000015"><a xlink:title=" ">
<polygon fill="#e0e0e0" stroke="#999999" points="1014.25,-88 919.5,-88 919.5,-56 1014.25,-56 1014.25,-88"/>
<text xml:space="preserve" text-anchor="start" x="927.5" y="-74.5" font-family="Helvetica,sans-Serif" font-size="10.00">boost/serialization</text>
<text xml:space="preserve" text-anchor="middle" x="966.88" y="-62.5" font-family="Helvetica,sans-Serif" font-size="10.00">/vector.hpp</text>
</a>
</g>
</g>
<!-- Node3&#45;&gt;Node15 -->
<g id="edge15_Node000003_Node000015" class="edge">
<title>Node3&#45;&gt;Node15</title>
<g id="a_edge15_Node000003_Node000015"><a xlink:title=" ">
<path fill="none" stroke="#63b8ff" d="M917.94,-123.62C925.03,-116.28 935.22,-105.75 944.46,-96.19"/>
<polygon fill="#63b8ff" stroke="#63b8ff" points="946.75,-98.85 951.19,-89.23 941.72,-93.99 946.75,-98.85"/>
</a>
</g>
</g>
<!-- Node16 -->
<g id="Node000016" class="node">
<title>Node16</title>
<g id="a_Node000016"><a xlink:title=" ">
<polygon fill="#e0e0e0" stroke="#999999" points="1075.75,-82 1032,-82 1032,-62 1075.75,-62 1075.75,-82"/>
<text xml:space="preserve" text-anchor="middle" x="1053.88" y="-68.5" font-family="Helvetica,sans-Serif" font-size="10.00">format</text>
</a>
</g>
</g>
<!-- Node3&#45;&gt;Node16 -->
<g id="edge16_Node000003_Node000016" class="edge">
<title>Node3&#45;&gt;Node16</title>
<g id="a_edge16_Node000003_Node000016"><a xlink:title=" ">
<path fill="none" stroke="#63b8ff" d="M934.45,-123.53C957.71,-114.77 992.87,-101.16 1022.88,-88 1023.49,-87.73 1024.11,-87.45 1024.74,-87.17"/>
<polygon fill="#63b8ff" stroke="#63b8ff" points="1025.99,-90.45 1033.59,-83.07 1023.05,-84.1 1025.99,-90.45"/>
</a>
</g>
</g>
<!-- Node17 -->
<g id="Node000017" class="node">
<title>Node17</title>
<g id="a_Node000017"><a xlink:title=" ">
<polygon fill="#e0e0e0" stroke="#999999" points="1130.38,-82 1093.38,-82 1093.38,-62 1130.38,-62 1130.38,-82"/>
<text xml:space="preserve" text-anchor="middle" x="1111.88" y="-68.5" font-family="Helvetica,sans-Serif" font-size="10.00">tuple</text>
</a>
</g>
</g>
<!-- Node3&#45;&gt;Node17 -->
<g id="edge17_Node000003_Node000017" class="edge">
<title>Node3&#45;&gt;Node17</title>
<g id="a_edge17_Node000003_Node000017"><a xlink:title=" ">
<path fill="none" stroke="#63b8ff" d="M951.8,-125.24C988.05,-117.93 1040.92,-105.49 1084.88,-88 1085.36,-87.81 1085.85,-87.61 1086.34,-87.4"/>
<polygon fill="#63b8ff" stroke="#63b8ff" points="1087.7,-90.63 1095.14,-83.09 1084.62,-84.34 1087.7,-90.63"/>
</a>
</g>
</g>
<!-- Node4&#45;&gt;Node5 -->
<g id="edge4_Node000004_Node000005" class="edge">
<title>Node4&#45;&gt;Node5</title>
<g id="a_edge4_Node000004_Node000005"><a xlink:title=" ">
<path fill="none" stroke="#63b8ff" d="M346.56,-61.62C361.32,-52.2 384.33,-37.52 401.77,-26.39"/>
<polygon fill="#63b8ff" stroke="#63b8ff" points="403.47,-29.45 410.01,-21.12 399.7,-23.55 403.47,-29.45"/>
</a>
</g>
</g>
<!-- Node4&#45;&gt;Node6 -->
<g id="edge5_Node000004_Node000006" class="edge">
<title>Node4&#45;&gt;Node6</title>
<g id="a_edge5_Node000004_Node000006"><a xlink:title=" ">
<path fill="none" stroke="#63b8ff" d="M324.53,-61.62C317.73,-52.94 307.43,-39.8 299.04,-29.08"/>
<polygon fill="#63b8ff" stroke="#63b8ff" points="301.87,-27.02 292.95,-21.3 296.36,-31.33 301.87,-27.02"/>
</a>
</g>
</g>
<!-- Node7&#45;&gt;Node8 -->
<g id="edge7_Node000007_Node000008" class="edge">
<title>Node7&#45;&gt;Node8</title>
<g id="a_edge7_Node000007_Node000008"><a xlink:title=" ">
<path fill="none" stroke="#63b8ff" d="M1371.44,-61.62C1382.8,-52.41 1400.36,-38.17 1413.97,-27.14"/>
<polygon fill="#63b8ff" stroke="#63b8ff" points="1415.9,-30.08 1421.46,-21.07 1411.49,-24.65 1415.9,-30.08"/>
</a>
</g>
</g>
<!-- Node9 -->
<g id="Node000009" class="node">
<title>Node9</title>
<g id="a_Node000009"><a xlink:title=" ">
<polygon fill="#e0e0e0" stroke="#999999" points="1392.62,-20 1327.12,-20 1327.12,0 1392.62,0 1392.62,-20"/>
<text xml:space="preserve" text-anchor="middle" x="1359.88" y="-6.5" font-family="Helvetica,sans-Serif" font-size="10.00">string_view</text>
</a>
</g>
</g>
<!-- Node7&#45;&gt;Node9 -->
<g id="edge8_Node000007_Node000009" class="edge">
<title>Node7&#45;&gt;Node9</title>
<g id="a_edge8_Node000007_Node000009"><a xlink:title=" ">
<path fill="none" stroke="#63b8ff" d="M1359.88,-61.62C1359.88,-53.56 1359.88,-41.65 1359.88,-31.41"/>
<polygon fill="#63b8ff" stroke="#63b8ff" points="1363.38,-31.63 1359.88,-21.63 1356.38,-31.63 1363.38,-31.63"/>
</a>
</g>
</g>
<!-- Node18&#45;&gt;Node4 -->
<g id="edge19_Node000018_Node000004" class="edge">
<title>Node18&#45;&gt;Node4</title>
<g id="a_edge19_Node000018_Node000004"><a xlink:title=" ">
<path fill="none" stroke="#63b8ff" d="M331.88,-123.62C331.88,-115.56 331.88,-103.65 331.88,-93.41"/>
<polygon fill="#63b8ff" stroke="#63b8ff" points="335.38,-93.63 331.88,-83.63 328.38,-93.63 335.38,-93.63"/>
</a>
</g>
</g>
</g>
</svg>
