<?xml version="1.0" encoding="UTF-8" standalone="no"?>
<!DOCTYPE svg PUBLIC "-//W3C//DTD SVG 1.1//EN"
 "http://www.w3.org/Graphics/SVG/1.1/DTD/svg11.dtd">
<!-- Generated by graphviz version 14.1.2 (20260124.0452)
 -->
<!-- Title: depicture_menu/src/core/application/app_worker.hpp Pages: 1 -->
<svg width="497pt" height="176pt"
 viewBox="0.00 0.00 497.00 176.00" xmlns="http://www.w3.org/2000/svg" xmlns:xlink="http://www.w3.org/1999/xlink">

<svg id="main" version="1.1" xmlns="http://www.w3.org/2000/svg" xmlns:xlink="http://www.w3.org/1999/xlink" xml:space="preserve">

<style type="text/css"><![CDATA[
.node, .edge {opacity: 0.7;}
.node.selected, .edge.selected {opacity: 1;}
.edge:hover path { stroke: red; }
.edge:hover polygon { stroke: red; fill: red; }
]]></style>
<script type="application/ecmascript" xlink:href="svg.min.js"/>
<svg id="graph" class="graph">
<g id="graph0" class="graph" transform="scale(1 1) rotate(0) translate(4 172)">
<title>depicture_menu/src/core/application/app_worker.hpp</title>
<!-- Node1 -->
<g id="Node000001" class="node">
<title>Node1</title>
<g id="a_Node000001"><a xlink:title=" ">
<polygon fill="#999999" stroke="#666666" points="245.12,-168 139.12,-168 139.12,-124 245.12,-124 245.12,-168"/>
<text xml:space="preserve" text-anchor="start" x="147.12" y="-154.5" font-family="Helvetica,sans-Serif" font-size="10.00">depicture_menu/src</text>
<text xml:space="preserve" text-anchor="start" x="147.12" y="-142.5" font-family="Helvetica,sans-Serif" font-size="10.00">/core/application/app</text>
<text xml:space="preserve" text-anchor="middle" x="192.12" y="-130.5" font-family="Helvetica,sans-Serif" font-size="10.00">_worker.hpp</text>
</a>
</g>
</g>
<!-- Node2 -->
<g id="Node000002" class="node">
<title>Node2</title>
<g id="a_Node000002"><a xlink:href="singleton_8hpp.html" target="_top" xlink:title=" ">
<polygon fill="white" stroke="#666666" points="183.12,-82 83.12,-82 83.12,-62 183.12,-62 183.12,-82"/>
<text xml:space="preserve" text-anchor="middle" x="133.12" y="-68.5" font-family="Helvetica,sans-Serif" font-size="10.00">utility/singleton.hpp</text>
</a>
</g>
</g>
<!-- Node1&#45;&gt;Node2 -->
<g id="edge1_Node000001_Node000002" class="edge">
<title>Node1&#45;&gt;Node2</title>
<g id="a_edge1_Node000001_Node000002"><a xlink:title=" ">
<path fill="none" stroke="#63b8ff" d="M174.74,-123.79C166.19,-113.35 155.99,-100.91 147.83,-90.95"/>
<polygon fill="#63b8ff" stroke="#63b8ff" points="150.76,-89 141.71,-83.48 145.35,-93.44 150.76,-89"/>
</a>
</g>
</g>
<!-- Node6 -->
<g id="Node000006" class="node">
<title>Node6</title>
<g id="a_Node000006"><a xlink:href="worker__pool_8hpp.html" target="_top" xlink:title=" ">
<polygon fill="white" stroke="#666666" points="318.88,-88 217.38,-88 217.38,-56 318.88,-56 318.88,-88"/>
<text xml:space="preserve" text-anchor="start" x="225.38" y="-74.5" font-family="Helvetica,sans-Serif" font-size="10.00">utility/thread/worker</text>
<text xml:space="preserve" text-anchor="middle" x="268.12" y="-62.5" font-family="Helvetica,sans-Serif" font-size="10.00">_pool.hpp</text>
</a>
</g>
</g>
<!-- Node1&#45;&gt;Node6 -->
<g id="edge5_Node000001_Node000006" class="edge">
<title>Node1&#45;&gt;Node6</title>
<g id="a_edge5_Node000001_Node000006"><a xlink:title=" ">
<path fill="none" stroke="#63b8ff" d="M214.52,-123.79C223.77,-115.02 234.52,-104.84 243.95,-95.91"/>
<polygon fill="#63b8ff" stroke="#63b8ff" points="246.21,-98.59 251.06,-89.17 241.39,-93.5 246.21,-98.59"/>
</a>
</g>
</g>
<!-- Node3 -->
<g id="Node000003" class="node">
<title>Node3</title>
<g id="a_Node000003"><a xlink:title=" ">
<polygon fill="#e0e0e0" stroke="#999999" points="48.25,-20 0,-20 0,0 48.25,0 48.25,-20"/>
<text xml:space="preserve" text-anchor="middle" x="24.12" y="-6.5" font-family="Helvetica,sans-Serif" font-size="10.00">cassert</text>
</a>
</g>
</g>
<!-- Node2&#45;&gt;Node3 -->
<g id="edge2_Node000002_Node000003" class="edge">
<title>Node2&#45;&gt;Node3</title>
<g id="a_edge2_Node000002_Node000003"><a xlink:title=" ">
<path fill="none" stroke="#63b8ff" d="M116.09,-61.62C98.66,-52.03 71.3,-36.97 50.95,-25.77"/>
<polygon fill="#63b8ff" stroke="#63b8ff" points="52.81,-22.8 42.36,-21.04 49.44,-28.93 52.81,-22.8"/>
</a>
</g>
</g>
<!-- Node4 -->
<g id="Node000004" class="node">
<title>Node4</title>
<g id="a_Node000004"><a xlink:title=" ">
<polygon fill="#e0e0e0" stroke="#999999" points="117.75,-20 66.5,-20 66.5,0 117.75,0 117.75,-20"/>
<text xml:space="preserve" text-anchor="middle" x="92.12" y="-6.5" font-family="Helvetica,sans-Serif" font-size="10.00">memory</text>
</a>
</g>
</g>
<!-- Node2&#45;&gt;Node4 -->
<g id="edge3_Node000002_Node000004" class="edge">
<title>Node2&#45;&gt;Node4</title>
<g id="a_edge3_Node000002_Node000004"><a xlink:title=" ">
<path fill="none" stroke="#63b8ff" d="M126.72,-61.62C120.85,-53.03 111.99,-40.07 104.7,-29.41"/>
<polygon fill="#63b8ff" stroke="#63b8ff" points="107.74,-27.64 99.21,-21.36 101.96,-31.59 107.74,-27.64"/>
</a>
</g>
</g>
<!-- Node5 -->
<g id="Node000005" class="node">
<title>Node5</title>
<g id="a_Node000005"><a xlink:title=" ">
<polygon fill="#e0e0e0" stroke="#999999" points="178.62,-20 135.62,-20 135.62,0 178.62,0 178.62,-20"/>
<text xml:space="preserve" text-anchor="middle" x="157.12" y="-6.5" font-family="Helvetica,sans-Serif" font-size="10.00">mutex</text>
</a>
</g>
</g>
<!-- Node2&#45;&gt;Node5 -->
<g id="edge4_Node000002_Node000005" class="edge">
<title>Node2&#45;&gt;Node5</title>
<g id="a_edge4_Node000002_Node000005"><a xlink:title=" ">
<path fill="none" stroke="#63b8ff" d="M136.88,-61.62C140.17,-53.39 145.07,-41.13 149.23,-30.74"/>
<polygon fill="#63b8ff" stroke="#63b8ff" points="152.45,-32.1 152.92,-21.52 145.95,-29.5 152.45,-32.1"/>
</a>
</g>
</g>
<!-- Node6&#45;&gt;Node5 -->
<g id="edge9_Node000006_Node000005" class="edge">
<title>Node6&#45;&gt;Node5</title>
<g id="a_edge9_Node000006_Node000005"><a xlink:title=" ">
<path fill="none" stroke="#63b8ff" d="M239.54,-55.55C222.52,-46.35 201.04,-34.74 184.28,-25.68"/>
<polygon fill="#63b8ff" stroke="#63b8ff" points="186.32,-22.8 175.86,-21.13 182.99,-28.96 186.32,-22.8"/>
</a>
</g>
</g>
<!-- Node7 -->
<g id="Node000007" class="node">
<title>Node7</title>
<g id="a_Node000007"><a xlink:title=" ">
<polygon fill="#e0e0e0" stroke="#999999" points="291.12,-20 197.12,-20 197.12,0 291.12,0 291.12,-20"/>
<text xml:space="preserve" text-anchor="middle" x="244.12" y="-6.5" font-family="Helvetica,sans-Serif" font-size="10.00">condition_variable</text>
</a>
</g>
</g>
<!-- Node6&#45;&gt;Node7 -->
<g id="edge6_Node000006_Node000007" class="edge">
<title>Node6&#45;&gt;Node7</title>
<g id="a_edge6_Node000006_Node000007"><a xlink:title=" ">
<path fill="none" stroke="#63b8ff" d="M261.94,-55.55C258.96,-48.08 255.34,-39.03 252.14,-31.04"/>
<polygon fill="#63b8ff" stroke="#63b8ff" points="255.41,-29.8 248.45,-21.81 248.91,-32.4 255.41,-29.8"/>
</a>
</g>
</g>
<!-- Node8 -->
<g id="Node000008" class="node">
<title>Node8</title>
<g id="a_Node000008"><a xlink:title=" ">
<polygon fill="#e0e0e0" stroke="#999999" points="351.25,-20 309,-20 309,0 351.25,0 351.25,-20"/>
<text xml:space="preserve" text-anchor="middle" x="330.12" y="-6.5" font-family="Helvetica,sans-Serif" font-size="10.00">deque</text>
</a>
</g>
</g>
<!-- Node6&#45;&gt;Node8 -->
<g id="edge7_Node000006_Node000008" class="edge">
<title>Node6&#45;&gt;Node8</title>
<g id="a_edge7_Node000006_Node000008"><a xlink:title=" ">
<path fill="none" stroke="#63b8ff" d="M284.09,-55.55C292.7,-47.22 303.36,-36.91 312.24,-28.3"/>
<polygon fill="#63b8ff" stroke="#63b8ff" points="314.56,-30.93 319.32,-21.46 309.7,-25.9 314.56,-30.93"/>
</a>
</g>
</g>
<!-- Node9 -->
<g id="Node000009" class="node">
<title>Node9</title>
<g id="a_Node000009"><a xlink:title=" ">
<polygon fill="#e0e0e0" stroke="#999999" points="427.12,-20 369.12,-20 369.12,0 427.12,0 427.12,-20"/>
<text xml:space="preserve" text-anchor="middle" x="398.12" y="-6.5" font-family="Helvetica,sans-Serif" font-size="10.00">functional</text>
</a>
</g>
</g>
<!-- Node6&#45;&gt;Node9 -->
<g id="edge8_Node000006_Node000009" class="edge">
<title>Node6&#45;&gt;Node9</title>
<g id="a_edge8_Node000006_Node000009"><a xlink:title=" ">
<path fill="none" stroke="#63b8ff" d="M301.6,-55.55C321.92,-46.17 347.65,-34.3 367.43,-25.17"/>
<polygon fill="#63b8ff" stroke="#63b8ff" points="368.75,-28.41 376.37,-21.04 365.82,-22.06 368.75,-28.41"/>
</a>
</g>
</g>
<!-- Node10 -->
<g id="Node000010" class="node">
<title>Node10</title>
<g id="a_Node000010"><a xlink:title=" ">
<polygon fill="#e0e0e0" stroke="#999999" points="488.62,-20 445.62,-20 445.62,0 488.62,0 488.62,-20"/>
<text xml:space="preserve" text-anchor="middle" x="467.12" y="-6.5" font-family="Helvetica,sans-Serif" font-size="10.00">thread</text>
</a>
</g>
</g>
<!-- Node6&#45;&gt;Node10 -->
<g id="edge10_Node000006_Node000010" class="edge">
<title>Node6&#45;&gt;Node10</title>
<g id="a_edge10_Node000006_Node000010"><a xlink:title=" ">
<path fill="none" stroke="#63b8ff" d="M319.37,-55.55C355.68,-44.6 403.3,-30.24 434.53,-20.83"/>
<polygon fill="#63b8ff" stroke="#63b8ff" points="435.23,-24.27 443.8,-18.03 433.21,-17.57 435.23,-24.27"/>
</a>
</g>
</g>
</g>
</svg>
</svg>

<style type='text/css'>
<![CDATA[
[data-mouse-over-selected='false'] { opacity: 0.7; }
[data-mouse-over-selected='true']  { opacity: 1.0; }
]]>
</style>
<script type="application/ecmascript"><![CDATA[
document.addEventListener('DOMContentLoaded', (event) => {
  highlightEdges();
  highlightAdjacentNodes();
});
]]></script>
</svg>
