<?xml version="1.0" encoding="UTF-8" standalone="no"?>
<!DOCTYPE svg PUBLIC "-//W3C//DTD SVG 1.1//EN"
 "http://www.w3.org/Graphics/SVG/1.1/DTD/svg11.dtd">
<!-- Generated by graphviz version 14.1.2 (20260124.0452)
 -->
<!-- Title: depicture_menu/src/core/domain/model/command/application_command_arg.hpp Pages: 1 -->
<!--zoomable 468 -->

<svg id="main" version="1.1" xmlns="http://www.w3.org/2000/svg" xmlns:xlink="http://www.w3.org/1999/xlink" xml:space="preserve" onload="init(evt)">

<style type="text/css"><![CDATA[
.node, .edge {opacity: 0.7;}
.node.selected, .edge.selected {opacity: 1;}
.edge:hover path { stroke: red; }
.edge:hover polygon { stroke: red; fill: red; }
]]></style>

<defs>
  <circle id="rim" cx="0" cy="0" r="7"/>
  <circle id="rim2" cx="0" cy="0" r="3.5"/>
  <g id="zoomPlus">
    <use xlink:href="#rim" fill="#404040"><set attributeName="fill" to="#808080" begin="zoomplus.mouseover" end="zoomplus.mouseout"/></use>
    <path d="M-4,0h8M0,-4v8" fill="none" stroke="white" stroke-width="1.5" pointer-events="none"/>
  </g>
  <g id="zoomMin">
    <use xlink:href="#rim" fill="#404040"><set attributeName="fill" to="#808080" begin="zoomminus.mouseover" end="zoomminus.mouseout"/></use>
    <path d="M-4,0h8" fill="none" stroke="white" stroke-width="1.5" pointer-events="none"/>
  </g>
  <g id="arrowUp" transform="translate(30 24)">
    <use xlink:href="#rim"/>
    <path pointer-events="none" fill="none" stroke="white" stroke-width="1.5" d="M0,-3.0v7 M-2.5,-0.5L0,-3.0L2.5,-0.5"/>
  </g>
  <g id="arrowRight" transform="rotate(90) translate(36 -43)">
    <use xlink:href="#rim"/>
    <path pointer-events="none" fill="none" stroke="white" stroke-width="1.5" d="M0,-3.0v7 M-2.5,-0.5L0,-3.0L2.5,-0.5"/>
  </g>
  <g id="arrowDown" transform="rotate(180) translate(-30 -48)">
    <use xlink:href="#rim"/>
    <path pointer-events="none" fill="none" stroke="white" stroke-width="1.5" d="M0,-3.0v7 M-2.5,-0.5L0,-3.0L2.5,-0.5"/>
  </g>
  <g id="arrowLeft" transform="rotate(270) translate(-36 17)">
    <use xlink:href="#rim"/>
    <path pointer-events="none" fill="none" stroke="white" stroke-width="1.5" d="M0,-3.0v7 M-2.5,-0.5L0,-3.0L2.5,-0.5"/>
  </g>
  <g id="resetDef">
    <use xlink:href="#rim2" fill="#404040"><set attributeName="fill" to="#808080" begin="reset.mouseover" end="reset.mouseout"/></use>
  </g>
</defs>
<script type="application/ecmascript">
var viewWidth = 1326;
var viewHeight = 468;
var sectionId = 'dynsection-0';
</script>
<script type="application/ecmascript" xlink:href="svg.min.js"/>
<svg id="graph" class="graph">
<g id="viewport">
<title>depicture_menu/src/core/domain/model/command/application_command_arg.hpp</title>
<!-- Node1 -->
<g id="Node000001" class="node">
<title>Node1</title>
<g id="a_Node000001"><a xlink:title=" ">
<polygon fill="#999999" stroke="#666666" points="634.38,-460 483.38,-460 483.38,-416 634.38,-416 634.38,-460"/>
<text xml:space="preserve" text-anchor="start" x="491.38" y="-446.5" font-family="Helvetica,sans-Serif" font-size="10.00">depicture_menu/src</text>
<text xml:space="preserve" text-anchor="start" x="491.38" y="-434.5" font-family="Helvetica,sans-Serif" font-size="10.00">/core/domain/model/command</text>
<text xml:space="preserve" text-anchor="middle" x="558.88" y="-422.5" font-family="Helvetica,sans-Serif" font-size="10.00">/application_command_arg.hpp</text>
</a>
</g>
</g>
<!-- Node2 -->
<g id="Node000002" class="node">
<title>Node2</title>
<g id="a_Node000002"><a xlink:href="command__kind_8hpp.html" target="_top" xlink:title=" ">
<polygon fill="white" stroke="#666666" points="555.25,-380 454.5,-380 454.5,-360 555.25,-360 555.25,-380"/>
<text xml:space="preserve" text-anchor="middle" x="504.88" y="-366.5" font-family="Helvetica,sans-Serif" font-size="10.00">command_kind.hpp</text>
</a>
</g>
</g>
<!-- Node1&#45;&gt;Node2 -->
<g id="edge1_Node000001_Node000002" class="edge">
<title>Node1&#45;&gt;Node2</title>
<g id="a_edge1_Node000001_Node000002"><a xlink:title=" ">
<path fill="none" stroke="#63b8ff" d="M541.49,-415.75C534.49,-407.2 526.49,-397.42 519.76,-389.2"/>
<polygon fill="#63b8ff" stroke="#63b8ff" points="522.58,-387.11 513.54,-381.59 517.16,-391.55 522.58,-387.11"/>
</a>
</g>
</g>
<!-- Node4 -->
<g id="Node000004" class="node">
<title>Node4</title>
<g id="a_Node000004"><a xlink:href="parameter_8hpp.html" target="_top" xlink:title=" ">
<polygon fill="white" stroke="#666666" points="889,-380 810.75,-380 810.75,-360 889,-360 889,-380"/>
<text xml:space="preserve" text-anchor="middle" x="849.88" y="-366.5" font-family="Helvetica,sans-Serif" font-size="10.00">parameter.hpp</text>
</a>
</g>
</g>
<!-- Node1&#45;&gt;Node4 -->
<g id="edge3_Node000001_Node000004" class="edge">
<title>Node1&#45;&gt;Node4</title>
<g id="a_edge3_Node000001_Node000004"><a xlink:title=" ">
<path fill="none" stroke="#63b8ff" d="M634.57,-419.83C686.42,-408.07 753.78,-392.8 799.23,-382.49"/>
<polygon fill="#63b8ff" stroke="#63b8ff" points="799.84,-385.94 808.82,-380.31 798.29,-379.11 799.84,-385.94"/>
</a>
</g>
</g>
<!-- Node3 -->
<g id="Node000003" class="node">
<title>Node3</title>
<g id="a_Node000003"><a xlink:title=" ">
<polygon fill="#e0e0e0" stroke="#999999" points="277.62,-206 152.12,-206 152.12,-186 277.62,-186 277.62,-206"/>
<text xml:space="preserve" text-anchor="middle" x="214.88" y="-192.5" font-family="Helvetica,sans-Serif" font-size="10.00">boost/describe/enum.hpp</text>
</a>
</g>
</g>
<!-- Node2&#45;&gt;Node3 -->
<g id="edge2_Node000002_Node000003" class="edge">
<title>Node2&#45;&gt;Node3</title>
<g id="a_edge2_Node000002_Node000003"><a xlink:title=" ">
<path fill="none" stroke="#63b8ff" d="M454.2,-367.07C406.15,-363.42 333.15,-353.09 276.88,-324 244.76,-307.4 232.84,-300.91 217.88,-268 210.68,-252.19 210.5,-232.3 211.78,-217.6"/>
<polygon fill="#63b8ff" stroke="#63b8ff" points="215.25,-218.09 212.97,-207.75 208.3,-217.26 215.25,-218.09"/>
</a>
</g>
</g>
<!-- Node5 -->
<g id="Node000005" class="node">
<title>Node5</title>
<g id="a_Node000005"><a xlink:href="command__ids_8hpp.html" target="_top" xlink:title=" ">
<polygon fill="white" stroke="#666666" points="525.62,-324 430.12,-324 430.12,-304 525.62,-304 525.62,-324"/>
<text xml:space="preserve" text-anchor="middle" x="477.88" y="-310.5" font-family="Helvetica,sans-Serif" font-size="10.00">command_ids.hpp</text>
</a>
</g>
</g>
<!-- Node4&#45;&gt;Node5 -->
<g id="edge4_Node000004_Node000005" class="edge">
<title>Node4&#45;&gt;Node5</title>
<g id="a_edge4_Node000004_Node000005"><a xlink:title=" ">
<path fill="none" stroke="#63b8ff" d="M810.56,-363.57C752.96,-355.58 641.95,-340.02 537.17,-324.33"/>
<polygon fill="#63b8ff" stroke="#63b8ff" points="537.97,-320.91 527.57,-322.89 536.94,-327.83 537.97,-320.91"/>
</a>
</g>
</g>
<!-- Node13 -->
<g id="Node000013" class="node">
<title>Node13</title>
<g id="a_Node000013"><a xlink:title=" ">
<polygon fill="#e0e0e0" stroke="#999999" points="1278.88,-20 1238.88,-20 1238.88,0 1278.88,0 1278.88,-20"/>
<text xml:space="preserve" text-anchor="middle" x="1258.88" y="-6.5" font-family="Helvetica,sans-Serif" font-size="10.00">string</text>
</a>
</g>
</g>
<!-- Node4&#45;&gt;Node13 -->
<g id="edge47_Node000004_Node000013" class="edge">
<title>Node4&#45;&gt;Node13</title>
<g id="a_edge47_Node000004_Node000013"><a xlink:title=" ">
<path fill="none" stroke="#63b8ff" d="M889.37,-368.12C1002.2,-364.56 1317.88,-346.74 1317.88,-259 1317.88,-259 1317.88,-259 1317.88,-133 1317.88,-97.75 1315.29,-87.2 1298.88,-56 1293.5,-45.78 1285.32,-36.01 1277.75,-28.19"/>
<polygon fill="#63b8ff" stroke="#63b8ff" points="1280.34,-25.82 1270.74,-21.34 1275.45,-30.83 1280.34,-25.82"/>
</a>
</g>
</g>
<!-- Node25 -->
<g id="Node000025" class="node">
<title>Node25</title>
<g id="a_Node000025"><a xlink:title=" ">
<polygon fill="#e0e0e0" stroke="#999999" points="807.25,-144 706.5,-144 706.5,-124 807.25,-124 807.25,-144"/>
<text xml:space="preserve" text-anchor="middle" x="756.88" y="-130.5" font-family="Helvetica,sans-Serif" font-size="10.00">boost/uuid/uuid.hpp</text>
</a>
</g>
</g>
<!-- Node4&#45;&gt;Node25 -->
<g id="edge45_Node000004_Node000025" class="edge">
<title>Node4&#45;&gt;Node25</title>
<g id="a_edge45_Node000004_Node000025"><a xlink:title=" ">
<path fill="none" stroke="#63b8ff" d="M889.32,-367.1C980.01,-362.31 1197.27,-348.4 1218.88,-324 1224.77,-317.35 1220.51,-312.74 1218.88,-304 1208.02,-245.91 1217.75,-215.99 1170.88,-180 1117.18,-138.77 920.48,-133.78 818.74,-134.07"/>
<polygon fill="#63b8ff" stroke="#63b8ff" points="818.92,-130.57 808.93,-134.12 818.95,-137.57 818.92,-130.57"/>
</a>
</g>
</g>
<!-- Node31 -->
<g id="Node000031" class="node">
<title>Node31</title>
<g id="a_Node000031"><a xlink:href="parameter__define_8hpp.html" target="_top" xlink:title=" ">
<polygon fill="white" stroke="#666666" points="411.75,-324 302,-324 302,-304 411.75,-304 411.75,-324"/>
<text xml:space="preserve" text-anchor="middle" x="356.88" y="-310.5" font-family="Helvetica,sans-Serif" font-size="10.00">parameter_define.hpp</text>
</a>
</g>
</g>
<!-- Node4&#45;&gt;Node31 -->
<g id="edge36_Node000004_Node000031" class="edge">
<title>Node4&#45;&gt;Node31</title>
<g id="a_edge36_Node000004_Node000031"><a xlink:title=" ">
<path fill="none" stroke="#63b8ff" d="M810.49,-365.34C736.72,-358.37 572.43,-342.39 423.19,-324.25"/>
<polygon fill="#63b8ff" stroke="#63b8ff" points="423.87,-320.8 413.52,-323.06 423.02,-327.75 423.87,-320.8"/>
</a>
</g>
</g>
<!-- Node32 -->
<g id="Node000032" class="node">
<title>Node32</title>
<g id="a_Node000032"><a xlink:href="parameter__kind_8hpp.html" target="_top" xlink:title=" ">
<polygon fill="white" stroke="#666666" points="328.62,-268 227.12,-268 227.12,-248 328.62,-248 328.62,-268"/>
<text xml:space="preserve" text-anchor="middle" x="277.88" y="-254.5" font-family="Helvetica,sans-Serif" font-size="10.00">parameter_kind.hpp</text>
</a>
</g>
</g>
<!-- Node4&#45;&gt;Node32 -->
<g id="edge40_Node000004_Node000032" class="edge">
<title>Node4&#45;&gt;Node32</title>
<g id="a_edge40_Node000004_Node000032"><a xlink:title=" ">
<path fill="none" stroke="#63b8ff" d="M810.54,-367.09C686.79,-360.92 312.47,-340.92 292.88,-324 280.4,-313.23 277.16,-294.35 276.74,-279.7"/>
<polygon fill="#63b8ff" stroke="#63b8ff" points="280.24,-279.8 276.91,-269.74 273.24,-279.68 280.24,-279.8"/>
</a>
</g>
</g>
<!-- Node33 -->
<g id="Node000033" class="node">
<title>Node33</title>
<g id="a_Node000033"><a xlink:title=" ">
<polygon fill="#e0e0e0" stroke="#999999" points="699.62,-324 544.12,-324 544.12,-304 699.62,-304 699.62,-324"/>
<text xml:space="preserve" text-anchor="middle" x="621.88" y="-310.5" font-family="Helvetica,sans-Serif" font-size="10.00">boost/describe/enumerators.hpp</text>
</a>
</g>
</g>
<!-- Node4&#45;&gt;Node33 -->
<g id="edge41_Node000004_Node000033" class="edge">
<title>Node4&#45;&gt;Node33</title>
<g id="a_edge41_Node000004_Node000033"><a xlink:title=" ">
<path fill="none" stroke="#63b8ff" d="M810.42,-359.66C772.24,-350.61 714.2,-336.87 672.61,-327.02"/>
<polygon fill="#63b8ff" stroke="#63b8ff" points="673.62,-323.66 663.08,-324.76 672.01,-330.47 673.62,-323.66"/>
</a>
</g>
</g>
<!-- Node34 -->
<g id="Node000034" class="node">
<title>Node34</title>
<g id="a_Node000034"><a xlink:title=" ">
<polygon fill="#e0e0e0" stroke="#999999" points="845.75,-324 718,-324 718,-304 845.75,-304 845.75,-324"/>
<text xml:space="preserve" text-anchor="middle" x="781.88" y="-310.5" font-family="Helvetica,sans-Serif" font-size="10.00">boost/mp11/algorithm.hpp</text>
</a>
</g>
</g>
<!-- Node4&#45;&gt;Node34 -->
<g id="edge42_Node000004_Node000034" class="edge">
<title>Node4&#45;&gt;Node34</title>
<g id="a_edge42_Node000004_Node000034"><a xlink:title=" ">
<path fill="none" stroke="#63b8ff" d="M838.03,-359.59C828.18,-351.77 813.94,-340.46 802.27,-331.19"/>
<polygon fill="#63b8ff" stroke="#63b8ff" points="804.78,-328.72 794.77,-325.24 800.42,-334.2 804.78,-328.72"/>
</a>
</g>
</g>
<!-- Node35 -->
<g id="Node000035" class="node">
<title>Node35</title>
<g id="a_Node000035"><a xlink:title=" ">
<polygon fill="#e0e0e0" stroke="#999999" points="974.12,-324 863.62,-324 863.62,-304 974.12,-304 974.12,-324"/>
<text xml:space="preserve" text-anchor="middle" x="918.88" y="-310.5" font-family="Helvetica,sans-Serif" font-size="10.00">boost/mp11/utility.hpp</text>
</a>
</g>
</g>
<!-- Node4&#45;&gt;Node35 -->
<g id="edge43_Node000004_Node000035" class="edge">
<title>Node4&#45;&gt;Node35</title>
<g id="a_edge43_Node000004_Node000035"><a xlink:title=" ">
<path fill="none" stroke="#63b8ff" d="M861.89,-359.59C871.89,-351.77 886.34,-340.46 898.18,-331.19"/>
<polygon fill="#63b8ff" stroke="#63b8ff" points="900.08,-334.15 905.8,-325.23 895.77,-328.64 900.08,-334.15"/>
</a>
</g>
</g>
<!-- Node36 -->
<g id="Node000036" class="node">
<title>Node36</title>
<g id="a_Node000036"><a xlink:title=" ">
<polygon fill="#e0e0e0" stroke="#999999" points="1075.25,-324 992.5,-324 992.5,-304 1075.25,-304 1075.25,-324"/>
<text xml:space="preserve" text-anchor="middle" x="1033.88" y="-310.5" font-family="Helvetica,sans-Serif" font-size="10.00">boost/hana.hpp</text>
</a>
</g>
</g>
<!-- Node4&#45;&gt;Node36 -->
<g id="edge44_Node000004_Node000036" class="edge">
<title>Node4&#45;&gt;Node36</title>
<g id="a_edge44_Node000004_Node000036"><a xlink:title=" ">
<path fill="none" stroke="#63b8ff" d="M881.93,-359.59C912.08,-350.74 957.46,-337.43 990.78,-327.65"/>
<polygon fill="#63b8ff" stroke="#63b8ff" points="991.51,-331.08 1000.12,-324.91 989.54,-324.36 991.51,-331.08"/>
</a>
</g>
</g>
<!-- Node37 -->
<g id="Node000037" class="node">
<title>Node37</title>
<g id="a_Node000037"><a xlink:title=" ">
<polygon fill="#e0e0e0" stroke="#999999" points="1146.62,-324 1093.12,-324 1093.12,-304 1146.62,-304 1146.62,-324"/>
<text xml:space="preserve" text-anchor="middle" x="1119.88" y="-310.5" font-family="Helvetica,sans-Serif" font-size="10.00">iostream</text>
</a>
</g>
</g>
<!-- Node4&#45;&gt;Node37 -->
<g id="edge46_Node000004_Node000037" class="edge">
<title>Node4&#45;&gt;Node37</title>
<g id="a_edge46_Node000004_Node000037"><a xlink:title=" ">
<path fill="none" stroke="#63b8ff" d="M889.34,-362.09C933.78,-354.17 1008.4,-340.41 1081.95,-324.33"/>
<polygon fill="#63b8ff" stroke="#63b8ff" points="1082.3,-327.84 1091.31,-322.27 1080.79,-321 1082.3,-327.84"/>
</a>
</g>
</g>
<!-- Node38 -->
<g id="Node000038" class="node">
<title>Node38</title>
<g id="a_Node000038"><a xlink:title=" ">
<polygon fill="#e0e0e0" stroke="#999999" points="1209.5,-324 1164.25,-324 1164.25,-304 1209.5,-304 1209.5,-324"/>
<text xml:space="preserve" text-anchor="middle" x="1186.88" y="-310.5" font-family="Helvetica,sans-Serif" font-size="10.00">variant</text>
</a>
</g>
</g>
<!-- Node4&#45;&gt;Node38 -->
<g id="edge48_Node000004_Node000038" class="edge">
<title>Node4&#45;&gt;Node38</title>
<g id="a_edge48_Node000004_Node000038"><a xlink:title=" ">
<path fill="none" stroke="#63b8ff" d="M889.31,-364.94C945.77,-358.76 1053.05,-345.61 1152.76,-324.45"/>
<polygon fill="#63b8ff" stroke="#63b8ff" points="1153.43,-327.89 1162.46,-322.36 1151.95,-321.04 1153.43,-327.89"/>
</a>
</g>
</g>
<!-- Node6 -->
<g id="Node000006" class="node">
<title>Node6</title>
<g id="a_Node000006"><a xlink:href="model_2entity__id_8hpp.html" target="_top" xlink:title=" ">
<polygon fill="white" stroke="#666666" points="718.12,-268 637.62,-268 637.62,-248 718.12,-248 718.12,-268"/>
<text xml:space="preserve" text-anchor="middle" x="677.88" y="-254.5" font-family="Helvetica,sans-Serif" font-size="10.00">../entity_id.hpp</text>
</a>
</g>
</g>
<!-- Node5&#45;&gt;Node6 -->
<g id="edge5_Node000005_Node000006" class="edge">
<title>Node5&#45;&gt;Node6</title>
<g id="a_edge5_Node000005_Node000006"><a xlink:title=" ">
<path fill="none" stroke="#63b8ff" d="M512.71,-303.59C545.78,-294.67 595.68,-281.19 631.97,-271.39"/>
<polygon fill="#63b8ff" stroke="#63b8ff" points="632.56,-274.86 641.3,-268.87 630.74,-268.1 632.56,-274.86"/>
</a>
</g>
</g>
<!-- Node7 -->
<g id="Node000007" class="node">
<title>Node7</title>
<g id="a_Node000007"><a xlink:href="model_2value__object_8hpp.html" target="_top" xlink:title=" ">
<polygon fill="white" stroke="#666666" points="393.62,-206 304.12,-206 304.12,-186 393.62,-186 393.62,-206"/>
<text xml:space="preserve" text-anchor="middle" x="348.88" y="-192.5" font-family="Helvetica,sans-Serif" font-size="10.00">value_object.hpp</text>
</a>
</g>
</g>
<!-- Node6&#45;&gt;Node7 -->
<g id="edge6_Node000006_Node000007" class="edge">
<title>Node6&#45;&gt;Node7</title>
<g id="a_edge6_Node000006_Node000007"><a xlink:title=" ">
<path fill="none" stroke="#63b8ff" d="M637.26,-251.4C584.08,-243.81 488.06,-229.2 406.88,-212 402.82,-211.14 398.62,-210.19 394.43,-209.19"/>
<polygon fill="#63b8ff" stroke="#63b8ff" points="395.43,-205.83 384.88,-206.83 393.75,-212.62 395.43,-205.83"/>
</a>
</g>
</g>
<!-- Node16 -->
<g id="Node000016" class="node">
<title>Node16</title>
<g id="a_Node000016"><a xlink:title=" ">
<polygon fill="#e0e0e0" stroke="#999999" points="1290.25,-88 1195.5,-88 1195.5,-56 1290.25,-56 1290.25,-88"/>
<text xml:space="preserve" text-anchor="start" x="1203.5" y="-74.5" font-family="Helvetica,sans-Serif" font-size="10.00">boost/serialization</text>
<text xml:space="preserve" text-anchor="middle" x="1242.88" y="-62.5" font-family="Helvetica,sans-Serif" font-size="10.00">/access.hpp</text>
</a>
</g>
</g>
<!-- Node6&#45;&gt;Node16 -->
<g id="edge30_Node000006_Node000016" class="edge">
<title>Node6&#45;&gt;Node16</title>
<g id="a_edge30_Node000006_Node000016"><a xlink:title=" ">
<path fill="none" stroke="#63b8ff" d="M718.26,-255.52C829.33,-251.16 1133.65,-237.03 1170.88,-212 1209.84,-185.8 1229.01,-131.65 1237.35,-99.21"/>
<polygon fill="#63b8ff" stroke="#63b8ff" points="1240.68,-100.35 1239.6,-89.81 1233.87,-98.72 1240.68,-100.35"/>
</a>
</g>
</g>
<!-- Node6&#45;&gt;Node25 -->
<g id="edge32_Node000006_Node000025" class="edge">
<title>Node6&#45;&gt;Node25</title>
<g id="a_edge32_Node000006_Node000025"><a xlink:title=" ">
<path fill="none" stroke="#63b8ff" d="M649.83,-247.63C633.56,-240.59 614.45,-229.16 604.88,-212 597.94,-199.58 596.36,-191.39 604.88,-180 616.03,-165.06 657.95,-153.33 694.95,-145.6"/>
<polygon fill="#63b8ff" stroke="#63b8ff" points="695.64,-149.03 704.75,-143.63 694.26,-142.17 695.64,-149.03"/>
</a>
</g>
</g>
<!-- Node26 -->
<g id="Node000026" class="node">
<title>Node26</title>
<g id="a_Node000026"><a xlink:title=" ">
<polygon fill="#e0e0e0" stroke="#999999" points="741.75,-206 614,-206 614,-186 741.75,-186 741.75,-206"/>
<text xml:space="preserve" text-anchor="middle" x="677.88" y="-192.5" font-family="Helvetica,sans-Serif" font-size="10.00">boost/functional/hash.hpp</text>
</a>
</g>
</g>
<!-- Node6&#45;&gt;Node26 -->
<g id="edge29_Node000006_Node000026" class="edge">
<title>Node6&#45;&gt;Node26</title>
<g id="a_edge29_Node000006_Node000026"><a xlink:title=" ">
<path fill="none" stroke="#63b8ff" d="M677.88,-247.62C677.88,-239.56 677.88,-227.65 677.88,-217.41"/>
<polygon fill="#63b8ff" stroke="#63b8ff" points="681.38,-217.63 677.88,-207.63 674.38,-217.63 681.38,-217.63"/>
</a>
</g>
</g>
<!-- Node27 -->
<g id="Node000027" class="node">
<title>Node27</title>
<g id="a_Node000027"><a xlink:title=" ">
<polygon fill="#e0e0e0" stroke="#999999" points="859.5,-212 760.25,-212 760.25,-180 859.5,-180 859.5,-212"/>
<text xml:space="preserve" text-anchor="start" x="768.25" y="-198.5" font-family="Helvetica,sans-Serif" font-size="10.00">boost/serialization</text>
<text xml:space="preserve" text-anchor="middle" x="809.88" y="-186.5" font-family="Helvetica,sans-Serif" font-size="10.00">/array_wrapper.hpp</text>
</a>
</g>
</g>
<!-- Node6&#45;&gt;Node27 -->
<g id="edge31_Node000006_Node000027" class="edge">
<title>Node6&#45;&gt;Node27</title>
<g id="a_edge31_Node000006_Node000027"><a xlink:title=" ">
<path fill="none" stroke="#63b8ff" d="M698.5,-247.62C716.34,-239.52 742.75,-227.51 765.38,-217.23"/>
<polygon fill="#63b8ff" stroke="#63b8ff" points="766.76,-220.44 774.42,-213.12 763.87,-214.07 766.76,-220.44"/>
</a>
</g>
</g>
<!-- Node28 -->
<g id="Node000028" class="node">
<title>Node28</title>
<g id="a_Node000028"><a xlink:title=" ">
<polygon fill="#e0e0e0" stroke="#999999" points="1029.75,-206 878,-206 878,-186 1029.75,-186 1029.75,-206"/>
<text xml:space="preserve" text-anchor="middle" x="953.88" y="-192.5" font-family="Helvetica,sans-Serif" font-size="10.00">boost/uuid/uuid_generators.hpp</text>
</a>
</g>
</g>
<!-- Node6&#45;&gt;Node28 -->
<g id="edge33_Node000006_Node000028" class="edge">
<title>Node6&#45;&gt;Node28</title>
<g id="a_edge33_Node000006_Node000028"><a xlink:title=" ">
<path fill="none" stroke="#63b8ff" d="M718.6,-248.15C766.48,-237.74 846.14,-220.42 899.32,-208.86"/>
<polygon fill="#63b8ff" stroke="#63b8ff" points="899.74,-212.35 908.77,-206.81 898.25,-205.51 899.74,-212.35"/>
</a>
</g>
</g>
<!-- Node29 -->
<g id="Node000029" class="node">
<title>Node29</title>
<g id="a_Node000029"><a xlink:title=" ">
<polygon fill="#e0e0e0" stroke="#999999" points="1161.62,-206 1048.12,-206 1048.12,-186 1161.62,-186 1161.62,-206"/>
<text xml:space="preserve" text-anchor="middle" x="1104.88" y="-192.5" font-family="Helvetica,sans-Serif" font-size="10.00">boost/uuid/uuid_io.hpp</text>
</a>
</g>
</g>
<!-- Node6&#45;&gt;Node29 -->
<g id="edge34_Node000006_Node000029" class="edge">
<title>Node6&#45;&gt;Node29</title>
<g id="a_edge34_Node000006_Node000029"><a xlink:title=" ">
<path fill="none" stroke="#63b8ff" d="M718.4,-253.28C785.4,-246.82 923.32,-232.28 1038.88,-212 1044.17,-211.07 1049.67,-210 1055.15,-208.86"/>
<polygon fill="#63b8ff" stroke="#63b8ff" points="1055.75,-212.31 1064.79,-206.77 1054.27,-205.46 1055.75,-212.31"/>
</a>
</g>
</g>
<!-- Node30 -->
<g id="Node000030" class="node">
<title>Node30</title>
<g id="a_Node000030"><a xlink:title=" ">
<polygon fill="#e0e0e0" stroke="#999999" points="557.88,-206 415.88,-206 415.88,-186 557.88,-186 557.88,-206"/>
<text xml:space="preserve" text-anchor="middle" x="486.88" y="-192.5" font-family="Helvetica,sans-Serif" font-size="10.00">boost/uuid/uuid_serialize.hpp</text>
</a>
</g>
</g>
<!-- Node6&#45;&gt;Node30 -->
<g id="edge35_Node000006_Node000030" class="edge">
<title>Node6&#45;&gt;Node30</title>
<g id="a_edge35_Node000006_Node000030"><a xlink:title=" ">
<path fill="none" stroke="#63b8ff" d="M648.03,-247.62C615.61,-237.44 563.61,-221.11 527.49,-209.76"/>
<polygon fill="#63b8ff" stroke="#63b8ff" points="528.86,-206.52 518.27,-206.86 526.76,-213.2 528.86,-206.52"/>
</a>
</g>
</g>
<!-- Node8 -->
<g id="Node000008" class="node">
<title>Node8</title>
<g id="a_Node000008"><a xlink:href="model_2presistence_8hpp.html" target="_top" xlink:title=" ">
<polygon fill="white" stroke="#666666" points="688.38,-144 603.38,-144 603.38,-124 688.38,-124 688.38,-144"/>
<text xml:space="preserve" text-anchor="middle" x="645.88" y="-130.5" font-family="Helvetica,sans-Serif" font-size="10.00">presistence.hpp</text>
</a>
</g>
</g>
<!-- Node7&#45;&gt;Node8 -->
<g id="edge7_Node000007_Node000008" class="edge">
<title>Node7&#45;&gt;Node8</title>
<g id="a_edge7_Node000007_Node000008"><a xlink:title=" ">
<path fill="none" stroke="#63b8ff" d="M383.75,-185.58C391.35,-183.64 399.36,-181.68 406.88,-180 470.01,-165.91 543.19,-152.57 591.76,-144.12"/>
<polygon fill="#63b8ff" stroke="#63b8ff" points="592.21,-147.6 601.47,-142.45 591.02,-140.7 592.21,-147.6"/>
</a>
</g>
</g>
<!-- Node10 -->
<g id="Node000010" class="node">
<title>Node10</title>
<g id="a_Node000010"><a xlink:title=" ">
<polygon fill="#e0e0e0" stroke="#999999" points="355.25,-20 260.5,-20 260.5,0 355.25,0 355.25,-20"/>
<text xml:space="preserve" text-anchor="middle" x="307.88" y="-6.5" font-family="Helvetica,sans-Serif" font-size="10.00">boost/pfr/core.hpp</text>
</a>
</g>
</g>
<!-- Node7&#45;&gt;Node10 -->
<g id="edge25_Node000007_Node000010" class="edge">
<title>Node7&#45;&gt;Node10</title>
<g id="a_edge25_Node000007_Node000010"><a xlink:title=" ">
<path fill="none" stroke="#63b8ff" d="M346.79,-185.62C340.42,-157.08 321.19,-70.78 312.38,-31.21"/>
<polygon fill="#63b8ff" stroke="#63b8ff" points="315.83,-30.62 310.24,-21.62 309,-32.14 315.83,-30.62"/>
</a>
</g>
</g>
<!-- Node11 -->
<g id="Node000011" class="node">
<title>Node11</title>
<g id="a_Node000011"><a xlink:title=" ">
<polygon fill="#e0e0e0" stroke="#999999" points="186.5,-20 147.25,-20 147.25,0 186.5,0 186.5,-20"/>
<text xml:space="preserve" text-anchor="middle" x="166.88" y="-6.5" font-family="Helvetica,sans-Serif" font-size="10.00">utility</text>
</a>
</g>
</g>
<!-- Node7&#45;&gt;Node11 -->
<g id="edge28_Node000007_Node000011" class="edge">
<title>Node7&#45;&gt;Node11</title>
<g id="a_edge28_Node000007_Node000011"><a xlink:title=" ">
<path fill="none" stroke="#63b8ff" d="M314.35,-185.58C269.02,-173.04 193.87,-151.55 182.88,-144 156.78,-126.09 149.22,-117.91 138.88,-88 134.23,-74.56 134.97,-69.68 138.88,-56 141.58,-46.53 146.92,-37.11 152.22,-29.35"/>
<polygon fill="#63b8ff" stroke="#63b8ff" points="154.92,-31.59 158.04,-21.47 149.28,-27.44 154.92,-31.59"/>
</a>
</g>
</g>
<!-- Node23 -->
<g id="Node000023" class="node">
<title>Node23</title>
<g id="a_Node000023"><a xlink:href="concepts_8hpp.html" target="_top" xlink:title=" ">
<polygon fill="white" stroke="#666666" points="266.12,-144 191.62,-144 191.62,-124 266.12,-124 266.12,-144"/>
<text xml:space="preserve" text-anchor="middle" x="228.88" y="-130.5" font-family="Helvetica,sans-Serif" font-size="10.00">concepts.hpp</text>
</a>
</g>
</g>
<!-- Node7&#45;&gt;Node23 -->
<g id="edge23_Node000007_Node000023" class="edge">
<title>Node7&#45;&gt;Node23</title>
<g id="a_edge23_Node000007_Node000023"><a xlink:title=" ">
<path fill="none" stroke="#63b8ff" d="M330.12,-185.62C310.66,-175.89 279.98,-160.55 257.49,-149.31"/>
<polygon fill="#63b8ff" stroke="#63b8ff" points="259.36,-146.33 248.85,-144.99 256.23,-152.59 259.36,-146.33"/>
</a>
</g>
</g>
<!-- Node24 -->
<g id="Node000024" class="node">
<title>Node24</title>
<g id="a_Node000024"><a xlink:title=" ">
<polygon fill="#e0e0e0" stroke="#999999" points="91.75,-144 0,-144 0,-124 91.75,-124 91.75,-144"/>
<text xml:space="preserve" text-anchor="middle" x="45.88" y="-130.5" font-family="Helvetica,sans-Serif" font-size="10.00">boost/pfr/ops.hpp</text>
</a>
</g>
</g>
<!-- Node7&#45;&gt;Node24 -->
<g id="edge26_Node000007_Node000024" class="edge">
<title>Node7&#45;&gt;Node24</title>
<g id="a_edge26_Node000007_Node000024"><a xlink:title=" ">
<path fill="none" stroke="#63b8ff" d="M311.24,-185.56C303.22,-183.64 294.78,-181.69 286.88,-180 224.46,-166.63 152.46,-153.48 103.53,-144.88"/>
<polygon fill="#63b8ff" stroke="#63b8ff" points="104.17,-141.44 93.71,-143.17 102.96,-148.34 104.17,-141.44"/>
</a>
</g>
</g>
<!-- Node7&#45;&gt;Node25 -->
<g id="edge27_Node000007_Node000025" class="edge">
<title>Node7&#45;&gt;Node25</title>
<g id="a_edge27_Node000007_Node000025"><a xlink:title=" ">
<path fill="none" stroke="#63b8ff" d="M382.44,-185.53C390.41,-183.5 398.91,-181.52 406.88,-180 531.4,-156.3 566.86,-161.51 695.01,-144.35"/>
<polygon fill="#63b8ff" stroke="#63b8ff" points="695.1,-147.87 704.54,-143.05 694.16,-140.93 695.1,-147.87"/>
</a>
</g>
</g>
<!-- Node9 -->
<g id="Node000009" class="node">
<title>Node9</title>
<g id="a_Node000009"><a xlink:href="model__base__concepts_8hpp.html" target="_top" xlink:title=" ">
<polygon fill="white" stroke="#666666" points="280,-82 147.75,-82 147.75,-62 280,-62 280,-82"/>
<text xml:space="preserve" text-anchor="middle" x="213.88" y="-68.5" font-family="Helvetica,sans-Serif" font-size="10.00">model_base_concepts.hpp</text>
</a>
</g>
</g>
<!-- Node8&#45;&gt;Node9 -->
<g id="edge8_Node000008_Node000009" class="edge">
<title>Node8&#45;&gt;Node9</title>
<g id="a_edge8_Node000008_Node000009"><a xlink:title=" ">
<path fill="none" stroke="#63b8ff" d="M603.27,-127.08C530.91,-117.03 382.96,-96.48 291.71,-83.81"/>
<polygon fill="#63b8ff" stroke="#63b8ff" points="292.21,-80.35 281.83,-82.44 291.25,-87.28 292.21,-80.35"/>
</a>
</g>
</g>
<!-- Node8&#45;&gt;Node10 -->
<g id="edge15_Node000008_Node000010" class="edge">
<title>Node8&#45;&gt;Node10</title>
<g id="a_edge15_Node000008_Node000010"><a xlink:title=" ">
<path fill="none" stroke="#63b8ff" d="M654.72,-123.58C668.44,-107.83 691.5,-75.92 673.88,-56 653.91,-33.43 465.31,-19.72 366.95,-14.04"/>
<polygon fill="#63b8ff" stroke="#63b8ff" points="367.39,-10.56 357.21,-13.49 367,-17.55 367.39,-10.56"/>
</a>
</g>
</g>
<!-- Node12 -->
<g id="Node000012" class="node">
<title>Node12</title>
<g id="a_Node000012"><a xlink:href="str__conv_8hpp.html" target="_top" xlink:title=" ">
<polygon fill="white" stroke="#666666" points="1177.75,-82 1080,-82 1080,-62 1177.75,-62 1177.75,-82"/>
<text xml:space="preserve" text-anchor="middle" x="1128.88" y="-68.5" font-family="Helvetica,sans-Serif" font-size="10.00">utility/str_conv.hpp</text>
</a>
</g>
</g>
<!-- Node8&#45;&gt;Node12 -->
<g id="edge11_Node000008_Node000012" class="edge">
<title>Node8&#45;&gt;Node12</title>
<g id="a_edge11_Node000008_Node000012"><a xlink:title=" ">
<path fill="none" stroke="#63b8ff" d="M688.68,-125.33C691.79,-124.85 694.88,-124.4 697.88,-124 862.93,-101.78 906.86,-116.94 1070.88,-88 1075.48,-87.19 1080.27,-86.2 1085.01,-85.12"/>
<polygon fill="#63b8ff" stroke="#63b8ff" points="1085.58,-88.58 1094.47,-82.83 1083.93,-81.78 1085.58,-88.58"/>
</a>
</g>
</g>
<!-- Node15 -->
<g id="Node000015" class="node">
<title>Node15</title>
<g id="a_Node000015"><a xlink:title=" ">
<polygon fill="#e0e0e0" stroke="#999999" points="826.5,-88 721.25,-88 721.25,-56 826.5,-56 826.5,-88"/>
<text xml:space="preserve" text-anchor="start" x="729.25" y="-74.5" font-family="Helvetica,sans-Serif" font-size="10.00">boost/archive/basic</text>
<text xml:space="preserve" text-anchor="middle" x="773.88" y="-62.5" font-family="Helvetica,sans-Serif" font-size="10.00">_binary_iarchive.hpp</text>
</a>
</g>
</g>
<!-- Node8&#45;&gt;Node15 -->
<g id="edge14_Node000008_Node000015" class="edge">
<title>Node8&#45;&gt;Node15</title>
<g id="a_edge14_Node000008_Node000015"><a xlink:title=" ">
<path fill="none" stroke="#63b8ff" d="M665.88,-123.62C683.16,-115.52 708.73,-103.53 730.66,-93.26"/>
<polygon fill="#63b8ff" stroke="#63b8ff" points="732.14,-96.43 739.71,-89.02 729.17,-90.09 732.14,-96.43"/>
</a>
</g>
</g>
<!-- Node8&#45;&gt;Node16 -->
<g id="edge16_Node000008_Node000016" class="edge">
<title>Node8&#45;&gt;Node16</title>
<g id="a_edge16_Node000008_Node000016"><a xlink:title=" ">
<path fill="none" stroke="#63b8ff" d="M688.67,-125.25C691.78,-124.79 694.87,-124.37 697.88,-124 910.47,-97.84 969.98,-123.45 1183.75,-88.33"/>
<polygon fill="#63b8ff" stroke="#63b8ff" points="1184.27,-91.8 1193.55,-86.7 1183.11,-84.89 1184.27,-91.8"/>
</a>
</g>
</g>
<!-- Node17 -->
<g id="Node000017" class="node">
<title>Node17</title>
<g id="a_Node000017"><a xlink:title=" ">
<polygon fill="#e0e0e0" stroke="#999999" points="939.25,-88 844.5,-88 844.5,-56 939.25,-56 939.25,-88"/>
<text xml:space="preserve" text-anchor="start" x="852.5" y="-74.5" font-family="Helvetica,sans-Serif" font-size="10.00">boost/serialization</text>
<text xml:space="preserve" text-anchor="middle" x="891.88" y="-62.5" font-family="Helvetica,sans-Serif" font-size="10.00">/optional.hpp</text>
</a>
</g>
</g>
<!-- Node8&#45;&gt;Node17 -->
<g id="edge17_Node000008_Node000017" class="edge">
<title>Node8&#45;&gt;Node17</title>
<g id="a_edge17_Node000008_Node000017"><a xlink:title=" ">
<path fill="none" stroke="#63b8ff" d="M687.47,-123.52C723.61,-115.19 777.64,-102.56 833.13,-88.66"/>
<polygon fill="#63b8ff" stroke="#63b8ff" points="833.93,-92.06 842.77,-86.23 832.22,-85.28 833.93,-92.06"/>
</a>
</g>
</g>
<!-- Node18 -->
<g id="Node000018" class="node">
<title>Node18</title>
<g id="a_Node000018"><a xlink:title=" ">
<polygon fill="#e0e0e0" stroke="#999999" points="1062.12,-88 957.62,-88 957.62,-56 1062.12,-56 1062.12,-88"/>
<text xml:space="preserve" text-anchor="start" x="965.62" y="-74.5" font-family="Helvetica,sans-Serif" font-size="10.00">boost/serialization</text>
<text xml:space="preserve" text-anchor="middle" x="1009.88" y="-62.5" font-family="Helvetica,sans-Serif" font-size="10.00">/unordered_map.hpp</text>
</a>
</g>
</g>
<!-- Node8&#45;&gt;Node18 -->
<g id="edge18_Node000008_Node000018" class="edge">
<title>Node8&#45;&gt;Node18</title>
<g id="a_edge18_Node000008_Node000018"><a xlink:title=" ">
<path fill="none" stroke="#63b8ff" d="M688.71,-125.49C691.81,-124.97 694.89,-124.47 697.88,-124 805.17,-106.99 835.69,-109.06 945.9,-88.26"/>
<polygon fill="#63b8ff" stroke="#63b8ff" points="946.53,-91.7 955.7,-86.39 945.22,-84.83 946.53,-91.7"/>
</a>
</g>
</g>
<!-- Node19 -->
<g id="Node000019" class="node">
<title>Node19</title>
<g id="a_Node000019"><a xlink:title=" ">
<polygon fill="#e0e0e0" stroke="#999999" points="435.5,-88 336.25,-88 336.25,-56 435.5,-56 435.5,-88"/>
<text xml:space="preserve" text-anchor="start" x="344.25" y="-74.5" font-family="Helvetica,sans-Serif" font-size="10.00">boost/serialization</text>
<text xml:space="preserve" text-anchor="middle" x="385.88" y="-62.5" font-family="Helvetica,sans-Serif" font-size="10.00">/unordered_set.hpp</text>
</a>
</g>
</g>
<!-- Node8&#45;&gt;Node19 -->
<g id="edge19_Node000008_Node000019" class="edge">
<title>Node8&#45;&gt;Node19</title>
<g id="a_edge19_Node000008_Node000019"><a xlink:title=" ">
<path fill="none" stroke="#63b8ff" d="M603.05,-123.79C564.69,-115.45 506.61,-102.62 446.91,-88.45"/>
<polygon fill="#63b8ff" stroke="#63b8ff" points="447.75,-85.05 437.22,-86.14 446.13,-91.86 447.75,-85.05"/>
</a>
</g>
</g>
<!-- Node20 -->
<g id="Node000020" class="node">
<title>Node20</title>
<g id="a_Node000020"><a xlink:title=" ">
<polygon fill="#e0e0e0" stroke="#999999" points="548.25,-88 453.5,-88 453.5,-56 548.25,-56 548.25,-88"/>
<text xml:space="preserve" text-anchor="start" x="461.5" y="-74.5" font-family="Helvetica,sans-Serif" font-size="10.00">boost/serialization</text>
<text xml:space="preserve" text-anchor="middle" x="500.88" y="-62.5" font-family="Helvetica,sans-Serif" font-size="10.00">/vector.hpp</text>
</a>
</g>
</g>
<!-- Node8&#45;&gt;Node20 -->
<g id="edge20_Node000008_Node000020" class="edge">
<title>Node8&#45;&gt;Node20</title>
<g id="a_edge20_Node000008_Node000020"><a xlink:title=" ">
<path fill="none" stroke="#63b8ff" d="M623.22,-123.62C603.36,-115.41 573.82,-103.18 548.74,-92.81"/>
<polygon fill="#63b8ff" stroke="#63b8ff" points="550.29,-89.66 539.71,-89.07 547.61,-96.13 550.29,-89.66"/>
</a>
</g>
</g>
<!-- Node21 -->
<g id="Node000021" class="node">
<title>Node21</title>
<g id="a_Node000021"><a xlink:title=" ">
<polygon fill="#e0e0e0" stroke="#999999" points="609.75,-82 566,-82 566,-62 609.75,-62 609.75,-82"/>
<text xml:space="preserve" text-anchor="middle" x="587.88" y="-68.5" font-family="Helvetica,sans-Serif" font-size="10.00">format</text>
</a>
</g>
</g>
<!-- Node8&#45;&gt;Node21 -->
<g id="edge21_Node000008_Node000021" class="edge">
<title>Node8&#45;&gt;Node21</title>
<g id="a_edge21_Node000008_Node000021"><a xlink:title=" ">
<path fill="none" stroke="#63b8ff" d="M636.81,-123.62C628.16,-114.68 614.93,-100.99 604.41,-90.1"/>
<polygon fill="#63b8ff" stroke="#63b8ff" points="607.2,-87.96 597.74,-83.2 602.17,-92.82 607.2,-87.96"/>
</a>
</g>
</g>
<!-- Node22 -->
<g id="Node000022" class="node">
<title>Node22</title>
<g id="a_Node000022"><a xlink:title=" ">
<polygon fill="#e0e0e0" stroke="#999999" points="664.38,-82 627.38,-82 627.38,-62 664.38,-62 664.38,-82"/>
<text xml:space="preserve" text-anchor="middle" x="645.88" y="-68.5" font-family="Helvetica,sans-Serif" font-size="10.00">tuple</text>
</a>
</g>
</g>
<!-- Node8&#45;&gt;Node22 -->
<g id="edge22_Node000008_Node000022" class="edge">
<title>Node8&#45;&gt;Node22</title>
<g id="a_edge22_Node000008_Node000022"><a xlink:title=" ">
<path fill="none" stroke="#63b8ff" d="M645.88,-123.62C645.88,-115.56 645.88,-103.65 645.88,-93.41"/>
<polygon fill="#63b8ff" stroke="#63b8ff" points="649.38,-93.63 645.88,-83.63 642.38,-93.63 649.38,-93.63"/>
</a>
</g>
</g>
<!-- Node9&#45;&gt;Node10 -->
<g id="edge9_Node000009_Node000010" class="edge">
<title>Node9&#45;&gt;Node10</title>
<g id="a_edge9_Node000009_Node000010"><a xlink:title=" ">
<path fill="none" stroke="#63b8ff" d="M228.56,-61.62C243.32,-52.2 266.33,-37.52 283.77,-26.39"/>
<polygon fill="#63b8ff" stroke="#63b8ff" points="285.47,-29.45 292.01,-21.12 281.7,-23.55 285.47,-29.45"/>
</a>
</g>
</g>
<!-- Node9&#45;&gt;Node11 -->
<g id="edge10_Node000009_Node000011" class="edge">
<title>Node9&#45;&gt;Node11</title>
<g id="a_edge10_Node000009_Node000011"><a xlink:title=" ">
<path fill="none" stroke="#63b8ff" d="M206.53,-61.62C199.73,-52.94 189.43,-39.8 181.04,-29.08"/>
<polygon fill="#63b8ff" stroke="#63b8ff" points="183.87,-27.02 174.95,-21.3 178.36,-31.33 183.87,-27.02"/>
</a>
</g>
</g>
<!-- Node12&#45;&gt;Node13 -->
<g id="edge12_Node000012_Node000013" class="edge">
<title>Node12&#45;&gt;Node13</title>
<g id="a_edge12_Node000012_Node000013"><a xlink:title=" ">
<path fill="none" stroke="#63b8ff" d="M1149.19,-61.62C1170.46,-51.81 1204.12,-36.27 1228.54,-25"/>
<polygon fill="#63b8ff" stroke="#63b8ff" points="1229.72,-28.31 1237.33,-20.94 1226.78,-21.96 1229.72,-28.31"/>
</a>
</g>
</g>
<!-- Node14 -->
<g id="Node000014" class="node">
<title>Node14</title>
<g id="a_Node000014"><a xlink:title=" ">
<polygon fill="#e0e0e0" stroke="#999999" points="1161.62,-20 1096.12,-20 1096.12,0 1161.62,0 1161.62,-20"/>
<text xml:space="preserve" text-anchor="middle" x="1128.88" y="-6.5" font-family="Helvetica,sans-Serif" font-size="10.00">string_view</text>
</a>
</g>
</g>
<!-- Node12&#45;&gt;Node14 -->
<g id="edge13_Node000012_Node000014" class="edge">
<title>Node12&#45;&gt;Node14</title>
<g id="a_edge13_Node000012_Node000014"><a xlink:title=" ">
<path fill="none" stroke="#63b8ff" d="M1128.88,-61.62C1128.88,-53.56 1128.88,-41.65 1128.88,-31.41"/>
<polygon fill="#63b8ff" stroke="#63b8ff" points="1132.38,-31.63 1128.88,-21.63 1125.38,-31.63 1132.38,-31.63"/>
</a>
</g>
</g>
<!-- Node23&#45;&gt;Node9 -->
<g id="edge24_Node000023_Node000009" class="edge">
<title>Node23&#45;&gt;Node9</title>
<g id="a_edge24_Node000023_Node000009"><a xlink:title=" ">
<path fill="none" stroke="#63b8ff" d="M226.53,-123.62C224.49,-115.48 221.47,-103.39 218.89,-93.07"/>
<polygon fill="#63b8ff" stroke="#63b8ff" points="222.34,-92.43 216.52,-83.58 215.55,-94.13 222.34,-92.43"/>
</a>
</g>
</g>
<!-- Node31&#45;&gt;Node7 -->
<g id="edge37_Node000031_Node000007" class="edge">
<title>Node31&#45;&gt;Node7</title>
<g id="a_edge37_Node000031_Node000007"><a xlink:title=" ">
<path fill="none" stroke="#63b8ff" d="M356.22,-303.51C354.93,-284.81 352.04,-242.82 350.29,-217.51"/>
<polygon fill="#63b8ff" stroke="#63b8ff" points="353.8,-217.55 349.62,-207.81 346.82,-218.03 353.8,-217.55"/>
</a>
</g>
</g>
<!-- Node31&#45;&gt;Node32 -->
<g id="edge38_Node000031_Node000032" class="edge">
<title>Node31&#45;&gt;Node32</title>
<g id="a_edge38_Node000031_Node000032"><a xlink:title=" ">
<path fill="none" stroke="#63b8ff" d="M343.11,-303.59C331.52,-295.67 314.68,-284.16 301.01,-274.82"/>
<polygon fill="#63b8ff" stroke="#63b8ff" points="303.22,-272.09 292.99,-269.33 299.27,-277.87 303.22,-272.09"/>
</a>
</g>
</g>
<!-- Node32&#45;&gt;Node3 -->
<g id="edge39_Node000032_Node000003" class="edge">
<title>Node32&#45;&gt;Node3</title>
<g id="a_edge39_Node000032_Node000003"><a xlink:title=" ">
<path fill="none" stroke="#63b8ff" d="M268.03,-247.62C258.54,-238.59 243.98,-224.72 232.49,-213.78"/>
<polygon fill="#63b8ff" stroke="#63b8ff" points="235.19,-211.52 225.54,-207.16 230.37,-216.59 235.19,-211.52"/>
</a>
</g>
</g>
</g>
</svg>

<g id="navigator" transform="translate(0 0)" fill="#404254">
  <rect fill="#f2f5e9" fill-opacity="0.5" stroke="#606060" stroke-width=".5" x="0" y="0" width="60" height="60"/>
  <use id="zoomplus" xlink:href="#zoomPlus" x="17" y="9" onmousedown="handleZoom(evt,'in')"/>
  <use id="zoomminus" xlink:href="#zoomMin" x="42" y="9" onmousedown="handleZoom(evt,'out')"/>
  <use id="reset" xlink:href="#resetDef" x="30" y="36" onmousedown="handleReset()"/>
   <use id="arrowup" xlink:href="#arrowUp" x="0" y="0" onmousedown="handlePan(0,-1)"/>
  <use id="arrowright" xlink:href="#arrowRight" x="0" y="0" onmousedown="handlePan(1,0)"/>
  <use id="arrowdown" xlink:href="#arrowDown" x="0" y="0" onmousedown="handlePan(0,1)"/>
  <use id="arrowleft" xlink:href="#arrowLeft" x="0" y="0" onmousedown="handlePan(-1,0)"/>
</g>
<svg viewBox="0 0 15 15" width="100%" height="30px" preserveAspectRatio="xMaxYMin meet">
 <g id="arrow_out" transform="scale(0.3 0.3)">
  <a xlink:href="application__command__arg_8hpp__incl_org.svg" target="_base">
   <rect id="button" ry="5" rx="5" y="6" x="6" height="38" width="38"
        fill="#f2f5e9" fill-opacity="0.5" stroke="#606060" stroke-width="1.0"/>
   <path id="arrow"
     d="M 11.500037,31.436501 C 11.940474,20.09759 22.043105,11.32322 32.158766,21.979434 L 37.068811,17.246167 C 37.068811,17.246167 37.088388,32 37.088388,32 L 22.160133,31.978069 C 22.160133,31.978069 26.997745,27.140456 26.997745,27.140456 C 18.528582,18.264221 13.291696,25.230495 11.500037,31.436501 z"
     style="fill:#404040;"/>
  </a>
 </g>
</svg>

<style type='text/css'>
<![CDATA[
[data-mouse-over-selected='false'] { opacity: 0.7; }
[data-mouse-over-selected='true']  { opacity: 1.0; }
]]>
</style>
<script type="application/ecmascript"><![CDATA[
document.addEventListener('DOMContentLoaded', (event) => {
  highlightEdges();
  highlightAdjacentNodes();
});
]]></script>
</svg>
