<?xml version="1.0" encoding="UTF-8" standalone="no"?>
<!DOCTYPE svg PUBLIC "-//W3C//DTD SVG 1.1//EN"
 "http://www.w3.org/Graphics/SVG/1.1/DTD/svg11.dtd">
<!-- Generated by graphviz version 14.1.2 (20260124.0452)
 -->
<!-- Title: depicture_menu/src/core/usecase/config_view/dto/backup_import.hpp Pages: 1 -->
<svg width="282pt" height="176pt"
 viewBox="0.00 0.00 282.00 176.00" xmlns="http://www.w3.org/2000/svg" xmlns:xlink="http://www.w3.org/1999/xlink">
<g id="graph0" class="graph" transform="scale(1 1) rotate(0) translate(4 172)">
<title>depicture_menu/src/core/usecase/config_view/dto/backup_import.hpp</title>
<!-- Node1 -->
<g id="Node000001" class="node">
<title>Node1</title>
<g id="a_Node000001"><a xlink:title="バックアップインポート input DTO">
<polygon fill="#999999" stroke="#666666" points="231.62,-168 88.12,-168 88.12,-124 231.62,-124 231.62,-168"/>
<text xml:space="preserve" text-anchor="start" x="96.12" y="-154.5" font-family="Helvetica,sans-Serif" font-size="10.00">depicture_menu/src</text>
<text xml:space="preserve" text-anchor="start" x="96.12" y="-142.5" font-family="Helvetica,sans-Serif" font-size="10.00">/core/usecase/config</text>
<text xml:space="preserve" text-anchor="middle" x="159.88" y="-130.5" font-family="Helvetica,sans-Serif" font-size="10.00">_view/dto/backup_import.hpp</text>
</a>
</g>
</g>
<!-- Node2 -->
<g id="Node000002" class="node">
<title>Node2</title>
<g id="a_Node000002"><a xlink:href="backup__data_8hpp.html" target="_top" xlink:title=" ">
<polygon fill="white" stroke="#666666" points="214.75,-88 105,-88 105,-56 214.75,-56 214.75,-88"/>
<text xml:space="preserve" text-anchor="start" x="113" y="-74.5" font-family="Helvetica,sans-Serif" font-size="10.00">core/usecase/backup</text>
<text xml:space="preserve" text-anchor="middle" x="159.88" y="-62.5" font-family="Helvetica,sans-Serif" font-size="10.00">/dto/backup_data.hpp</text>
</a>
</g>
</g>
<!-- Node1&#45;&gt;Node2 -->
<g id="edge1_Node000001_Node000002" class="edge">
<title>Node1&#45;&gt;Node2</title>
<g id="a_edge1_Node000001_Node000002"><a xlink:title=" ">
<path fill="none" stroke="#63b8ff" d="M159.88,-123.79C159.88,-116.18 159.88,-107.52 159.88,-99.52"/>
<polygon fill="#63b8ff" stroke="#63b8ff" points="163.38,-99.64 159.88,-89.64 156.38,-99.64 163.38,-99.64"/>
</a>
</g>
</g>
<!-- Node3 -->
<g id="Node000003" class="node">
<title>Node3</title>
<g id="a_Node000003"><a xlink:title=" ">
<polygon fill="#e0e0e0" stroke="#999999" points="91.75,-20 0,-20 0,0 91.75,0 91.75,-20"/>
<text xml:space="preserve" text-anchor="middle" x="45.88" y="-6.5" font-family="Helvetica,sans-Serif" font-size="10.00">boost/pfr/ops.hpp</text>
</a>
</g>
</g>
<!-- Node2&#45;&gt;Node3 -->
<g id="edge2_Node000002_Node000003" class="edge">
<title>Node2&#45;&gt;Node3</title>
<g id="a_edge2_Node000002_Node000003"><a xlink:title=" ">
<path fill="none" stroke="#63b8ff" d="M130.52,-55.55C113.03,-46.35 90.97,-34.74 73.76,-25.68"/>
<polygon fill="#63b8ff" stroke="#63b8ff" points="75.57,-22.67 65.09,-21.11 72.31,-28.87 75.57,-22.67"/>
</a>
</g>
</g>
<!-- Node4 -->
<g id="Node000004" class="node">
<title>Node4</title>
<g id="a_Node000004"><a xlink:title=" ">
<polygon fill="#e0e0e0" stroke="#999999" points="149.88,-20 109.88,-20 109.88,0 149.88,0 149.88,-20"/>
<text xml:space="preserve" text-anchor="middle" x="129.88" y="-6.5" font-family="Helvetica,sans-Serif" font-size="10.00">string</text>
</a>
</g>
</g>
<!-- Node2&#45;&gt;Node4 -->
<g id="edge3_Node000002_Node000004" class="edge">
<title>Node2&#45;&gt;Node4</title>
<g id="a_edge3_Node000002_Node000004"><a xlink:title=" ">
<path fill="none" stroke="#63b8ff" d="M152.15,-55.55C148.33,-47.91 143.68,-38.61 139.62,-30.49"/>
<polygon fill="#63b8ff" stroke="#63b8ff" points="142.86,-29.14 135.26,-21.76 136.6,-32.27 142.86,-29.14"/>
</a>
</g>
</g>
<!-- Node5 -->
<g id="Node000005" class="node">
<title>Node5</title>
<g id="a_Node000005"><a xlink:title=" ">
<polygon fill="#e0e0e0" stroke="#999999" points="213.5,-20 168.25,-20 168.25,0 213.5,0 213.5,-20"/>
<text xml:space="preserve" text-anchor="middle" x="190.88" y="-6.5" font-family="Helvetica,sans-Serif" font-size="10.00">variant</text>
</a>
</g>
</g>
<!-- Node2&#45;&gt;Node5 -->
<g id="edge4_Node000002_Node000005" class="edge">
<title>Node2&#45;&gt;Node5</title>
<g id="a_edge4_Node000002_Node000005"><a xlink:title=" ">
<path fill="none" stroke="#63b8ff" d="M167.86,-55.55C171.8,-47.91 176.61,-38.61 180.81,-30.49"/>
<polygon fill="#63b8ff" stroke="#63b8ff" points="183.84,-32.24 185.32,-21.75 177.62,-29.03 183.84,-32.24"/>
</a>
</g>
</g>
<!-- Node6 -->
<g id="Node000006" class="node">
<title>Node6</title>
<g id="a_Node000006"><a xlink:title=" ">
<polygon fill="#e0e0e0" stroke="#999999" points="274.38,-20 231.38,-20 231.38,0 274.38,0 274.38,-20"/>
<text xml:space="preserve" text-anchor="middle" x="252.88" y="-6.5" font-family="Helvetica,sans-Serif" font-size="10.00">vector</text>
</a>
</g>
</g>
<!-- Node2&#45;&gt;Node6 -->
<g id="edge5_Node000002_Node000006" class="edge">
<title>Node2&#45;&gt;Node6</title>
<g id="a_edge5_Node000002_Node000006"><a xlink:title=" ">
<path fill="none" stroke="#63b8ff" d="M183.82,-55.55C197.68,-46.61 215.07,-35.39 228.93,-26.45"/>
<polygon fill="#63b8ff" stroke="#63b8ff" points="230.52,-29.59 237.02,-21.23 226.72,-23.71 230.52,-29.59"/>
</a>
</g>
</g>
</g>
</svg>
