<?xml version="1.0" encoding="UTF-8" standalone="no"?>
<!DOCTYPE svg PUBLIC "-//W3C//DTD SVG 1.1//EN"
 "http://www.w3.org/Graphics/SVG/1.1/DTD/svg11.dtd">
<!-- Generated by graphviz version 14.1.2 (20260124.0452)
 -->
<!-- Title: depicture_menu/src/core/usecase/backup/dto/backup_data.hpp Pages: 1 -->
<!--zoomable 420 -->

<svg id="main" version="1.1" xmlns="http://www.w3.org/2000/svg" xmlns:xlink="http://www.w3.org/1999/xlink" xml:space="preserve" onload="init(evt)">

<style type="text/css"><![CDATA[
.node, .edge {opacity: 0.7;}
.node.selected, .edge.selected {opacity: 1;}
.edge:hover path { stroke: red; }
.edge:hover polygon { stroke: red; fill: red; }
]]></style>

<defs>
  <circle id="rim" cx="0" cy="0" r="7"/>
  <circle id="rim2" cx="0" cy="0" r="3.5"/>
  <g id="zoomPlus">
    <use xlink:href="#rim" fill="#404040"><set attributeName="fill" to="#808080" begin="zoomplus.mouseover" end="zoomplus.mouseout"/></use>
    <path d="M-4,0h8M0,-4v8" fill="none" stroke="white" stroke-width="1.5" pointer-events="none"/>
  </g>
  <g id="zoomMin">
    <use xlink:href="#rim" fill="#404040"><set attributeName="fill" to="#808080" begin="zoomminus.mouseover" end="zoomminus.mouseout"/></use>
    <path d="M-4,0h8" fill="none" stroke="white" stroke-width="1.5" pointer-events="none"/>
  </g>
  <g id="arrowUp" transform="translate(30 24)">
    <use xlink:href="#rim"/>
    <path pointer-events="none" fill="none" stroke="white" stroke-width="1.5" d="M0,-3.0v7 M-2.5,-0.5L0,-3.0L2.5,-0.5"/>
  </g>
  <g id="arrowRight" transform="rotate(90) translate(36 -43)">
    <use xlink:href="#rim"/>
    <path pointer-events="none" fill="none" stroke="white" stroke-width="1.5" d="M0,-3.0v7 M-2.5,-0.5L0,-3.0L2.5,-0.5"/>
  </g>
  <g id="arrowDown" transform="rotate(180) translate(-30 -48)">
    <use xlink:href="#rim"/>
    <path pointer-events="none" fill="none" stroke="white" stroke-width="1.5" d="M0,-3.0v7 M-2.5,-0.5L0,-3.0L2.5,-0.5"/>
  </g>
  <g id="arrowLeft" transform="rotate(270) translate(-36 17)">
    <use xlink:href="#rim"/>
    <path pointer-events="none" fill="none" stroke="white" stroke-width="1.5" d="M0,-3.0v7 M-2.5,-0.5L0,-3.0L2.5,-0.5"/>
  </g>
  <g id="resetDef">
    <use xlink:href="#rim2" fill="#404040"><set attributeName="fill" to="#808080" begin="reset.mouseover" end="reset.mouseout"/></use>
  </g>
</defs>
<script type="application/ecmascript">
var viewWidth = 2593;
var viewHeight = 420;
var sectionId = 'dynsection-1';
</script>
<script type="application/ecmascript" xlink:href="svg.min.js"/>
<svg id="graph" class="graph">
<g id="viewport">
<title>depicture_menu/src/core/usecase/backup/dto/backup_data.hpp</title>
<!-- Node1 -->
<g id="Node000001" class="node">
<title>Node1</title>
<g id="a_Node000001"><a xlink:title=" ">
<polygon fill="#999999" stroke="#666666" points="760.88,-412 648.88,-412 648.88,-368 760.88,-368 760.88,-412"/>
<text xml:space="preserve" text-anchor="start" x="656.88" y="-398.5" font-family="Helvetica,sans-Serif" font-size="10.00">depicture_menu/src</text>
<text xml:space="preserve" text-anchor="start" x="656.88" y="-386.5" font-family="Helvetica,sans-Serif" font-size="10.00">/core/usecase/backup</text>
<text xml:space="preserve" text-anchor="middle" x="704.88" y="-374.5" font-family="Helvetica,sans-Serif" font-size="10.00">/dto/backup_data.hpp</text>
</a>
</g>
</g>
<!-- Node2 -->
<g id="Node000002" class="node">
<title>Node2</title>
<g id="a_Node000002"><a xlink:href="backup__json_8hpp.html" target="_top" xlink:title=" ">
<polygon fill="white" stroke="#666666" points="305.75,-326 184,-326 184,-282 305.75,-282 305.75,-326"/>
<text xml:space="preserve" text-anchor="start" x="192" y="-312.5" font-family="Helvetica,sans-Serif" font-size="10.00">depicture_menu/src</text>
<text xml:space="preserve" text-anchor="start" x="192" y="-300.5" font-family="Helvetica,sans-Serif" font-size="10.00">/core/application/backup</text>
<text xml:space="preserve" text-anchor="middle" x="244.88" y="-288.5" font-family="Helvetica,sans-Serif" font-size="10.00">_json/backup_json.hpp</text>
</a>
</g>
</g>
<!-- Node1&#45;&gt;Node2 -->
<g id="edge1_Node000001_Node000002" class="edge">
<title>Node1&#45;&gt;Node2</title>
<g id="a_edge1_Node000001_Node000002"><a xlink:title=" ">
<path fill="none" stroke="#63b8ff" d="M637.35,-377.87C570.96,-366.78 466.8,-349.01 376.88,-332 353.78,-327.63 328.47,-322.53 306.25,-317.95"/>
<polygon fill="#63b8ff" stroke="#63b8ff" points="636.55,-381.28 646.99,-379.47 637.7,-374.38 636.55,-381.28"/>
</a>
</g>
</g>
<!-- Node6 -->
<g id="Node000006" class="node">
<title>Node6</title>
<g id="a_Node000006"><a xlink:href="_test_backup_json_8cpp.html" target="_top" xlink:title=" ">
<polygon fill="white" stroke="#666666" points="311.75,-234 178,-234 178,-190 311.75,-190 311.75,-234"/>
<text xml:space="preserve" text-anchor="start" x="186" y="-220.5" font-family="Helvetica,sans-Serif" font-size="10.00">depicture_menu/test</text>
<text xml:space="preserve" text-anchor="start" x="186" y="-208.5" font-family="Helvetica,sans-Serif" font-size="10.00">/core/application/backup</text>
<text xml:space="preserve" text-anchor="middle" x="244.88" y="-196.5" font-family="Helvetica,sans-Serif" font-size="10.00">_json/TestBackupJson.cpp</text>
</a>
</g>
</g>
<!-- Node1&#45;&gt;Node6 -->
<g id="edge42_Node000001_Node000006" class="edge">
<title>Node1&#45;&gt;Node6</title>
<g id="a_edge42_Node000001_Node000006"><a xlink:title=" ">
<path fill="none" stroke="#63b8ff" d="M637.55,-377.67C589.11,-368.37 522.76,-353.26 466.88,-332 396.58,-305.25 320.53,-260.73 278.19,-234.39"/>
<polygon fill="#63b8ff" stroke="#63b8ff" points="636.87,-381.1 647.35,-379.51 638.17,-374.22 636.87,-381.1"/>
</a>
</g>
</g>
<!-- Node7 -->
<g id="Node000007" class="node">
<title>Node7</title>
<g id="a_Node000007"><a xlink:href="backup__data__presenter_2backup__data__presenter_8hpp.html" target="_top" xlink:title=" ">
<polygon fill="white" stroke="#666666" points="620,-332 475.75,-332 475.75,-276 620,-276 620,-332"/>
<text xml:space="preserve" text-anchor="start" x="483.75" y="-318.5" font-family="Helvetica,sans-Serif" font-size="10.00">depicture_menu/src</text>
<text xml:space="preserve" text-anchor="start" x="483.75" y="-306.5" font-family="Helvetica,sans-Serif" font-size="10.00">/core/presentation/backup</text>
<text xml:space="preserve" text-anchor="start" x="483.75" y="-294.5" font-family="Helvetica,sans-Serif" font-size="10.00">_data_presenter/backup_data</text>
<text xml:space="preserve" text-anchor="middle" x="547.88" y="-282.5" font-family="Helvetica,sans-Serif" font-size="10.00">_presenter.hpp</text>
</a>
</g>
</g>
<!-- Node1&#45;&gt;Node7 -->
<g id="edge6_Node000001_Node000007" class="edge">
<title>Node1&#45;&gt;Node7</title>
<g id="a_edge6_Node000001_Node000007"><a xlink:title=" ">
<path fill="none" stroke="#63b8ff" d="M655.19,-362.42C637.31,-352.85 617.12,-342.05 599.12,-332.42"/>
<polygon fill="#63b8ff" stroke="#63b8ff" points="653.05,-365.24 663.52,-366.87 656.35,-359.07 653.05,-365.24"/>
</a>
</g>
</g>
<!-- Node10 -->
<g id="Node000010" class="node">
<title>Node10</title>
<g id="a_Node000010"><a xlink:href="_test_backup_data_presenter_8cpp.html" target="_top" xlink:title=" ">
<polygon fill="white" stroke="#666666" points="463.25,-142 314.5,-142 314.5,-98 463.25,-98 463.25,-142"/>
<text xml:space="preserve" text-anchor="start" x="322.5" y="-128.5" font-family="Helvetica,sans-Serif" font-size="10.00">depicture_menu/test</text>
<text xml:space="preserve" text-anchor="start" x="322.5" y="-116.5" font-family="Helvetica,sans-Serif" font-size="10.00">/core/presentation/TestBackup</text>
<text xml:space="preserve" text-anchor="middle" x="388.88" y="-104.5" font-family="Helvetica,sans-Serif" font-size="10.00">DataPresenter.cpp</text>
</a>
</g>
</g>
<!-- Node1&#45;&gt;Node10 -->
<g id="edge43_Node000001_Node000010" class="edge">
<title>Node1&#45;&gt;Node10</title>
<g id="a_edge43_Node000001_Node000010"><a xlink:title=" ">
<path fill="none" stroke="#63b8ff" d="M687.04,-357.62C682.75,-349.42 678.4,-340.5 674.88,-332 648.5,-268.37 679.36,-230.86 628.88,-184 576.72,-135.6 541.47,-166.9 472.88,-148 466.67,-146.29 460.24,-144.42 453.83,-142.48"/>
<polygon fill="#63b8ff" stroke="#63b8ff" points="683.84,-359.05 691.66,-366.19 690,-355.73 683.84,-359.05"/>
</a>
</g>
</g>
<!-- Node11 -->
<g id="Node000011" class="node">
<title>Node11</title>
<g id="a_Node000011"><a xlink:href="dto__converter_8hpp.html" target="_top" xlink:title=" ">
<polygon fill="white" stroke="#666666" points="1764,-234 1631.75,-234 1631.75,-190 1764,-190 1764,-234"/>
<text xml:space="preserve" text-anchor="start" x="1639.75" y="-220.5" font-family="Helvetica,sans-Serif" font-size="10.00">depicture_menu/src</text>
<text xml:space="preserve" text-anchor="start" x="1639.75" y="-208.5" font-family="Helvetica,sans-Serif" font-size="10.00">/core/usecase/backup</text>
<text xml:space="preserve" text-anchor="middle" x="1697.88" y="-196.5" font-family="Helvetica,sans-Serif" font-size="10.00">/convert/dto_converter.hpp</text>
</a>
</g>
</g>
<!-- Node1&#45;&gt;Node11 -->
<g id="edge12_Node000001_Node000011" class="edge">
<title>Node1&#45;&gt;Node11</title>
<g id="a_edge12_Node000001_Node000011"><a xlink:title=" ">
<path fill="none" stroke="#63b8ff" d="M772.35,-377.04C953.87,-344.87 1451.09,-256.74 1631.42,-224.78"/>
<polygon fill="#63b8ff" stroke="#63b8ff" points="771.83,-373.58 762.6,-378.77 773.06,-380.47 771.83,-373.58"/>
</a>
</g>
</g>
<!-- Node18 -->
<g id="Node000018" class="node">
<title>Node18</title>
<g id="a_Node000018"><a xlink:href="export__backup_8hpp.html" target="_top" xlink:title=" ">
<polygon fill="white" stroke="#666666" points="963.88,-142 851.88,-142 851.88,-98 963.88,-98 963.88,-142"/>
<text xml:space="preserve" text-anchor="start" x="859.88" y="-128.5" font-family="Helvetica,sans-Serif" font-size="10.00">depicture_menu/src</text>
<text xml:space="preserve" text-anchor="start" x="859.88" y="-116.5" font-family="Helvetica,sans-Serif" font-size="10.00">/core/usecase/backup</text>
<text xml:space="preserve" text-anchor="middle" x="907.88" y="-104.5" font-family="Helvetica,sans-Serif" font-size="10.00">/export_backup.hpp</text>
</a>
</g>
</g>
<!-- Node1&#45;&gt;Node18 -->
<g id="edge32_Node000001_Node000018" class="edge">
<title>Node1&#45;&gt;Node18</title>
<g id="a_edge32_Node000001_Node000018"><a xlink:title=" ">
<path fill="none" stroke="#63b8ff" d="M771.77,-372.36C795.02,-363.67 819.58,-350.8 836.88,-332 887.65,-276.83 902.24,-184.1 906.33,-142.42"/>
<polygon fill="#63b8ff" stroke="#63b8ff" points="770.91,-368.95 762.63,-375.56 773.23,-375.56 770.91,-368.95"/>
</a>
</g>
</g>
<!-- Node20 -->
<g id="Node000020" class="node">
<title>Node20</title>
<g id="a_Node000020"><a xlink:href="import__backup_8hpp.html" target="_top" xlink:title=" ">
<polygon fill="white" stroke="#666666" points="1093.88,-142 981.88,-142 981.88,-98 1093.88,-98 1093.88,-142"/>
<text xml:space="preserve" text-anchor="start" x="989.88" y="-128.5" font-family="Helvetica,sans-Serif" font-size="10.00">depicture_menu/src</text>
<text xml:space="preserve" text-anchor="start" x="989.88" y="-116.5" font-family="Helvetica,sans-Serif" font-size="10.00">/core/usecase/backup</text>
<text xml:space="preserve" text-anchor="middle" x="1037.88" y="-104.5" font-family="Helvetica,sans-Serif" font-size="10.00">/import_backup.hpp</text>
</a>
</g>
</g>
<!-- Node1&#45;&gt;Node20 -->
<g id="edge33_Node000001_Node000020" class="edge">
<title>Node1&#45;&gt;Node20</title>
<g id="a_edge33_Node000001_Node000020"><a xlink:title=" ">
<path fill="none" stroke="#63b8ff" d="M772.08,-374.56C803.15,-365.7 839.39,-352.1 867.88,-332 942.83,-279.11 1002.23,-184.37 1026.28,-142.22"/>
<polygon fill="#63b8ff" stroke="#63b8ff" points="771.51,-371.09 762.78,-377.1 773.35,-377.84 771.51,-371.09"/>
</a>
</g>
</g>
<!-- Node25 -->
<g id="Node000025" class="node">
<title>Node25</title>
<g id="a_Node000025"><a xlink:href="backup__import_8hpp.html" target="_top" xlink:title="バックアップインポート input DTO">
<polygon fill="white" stroke="#666666" points="827.62,-326 684.12,-326 684.12,-282 827.62,-282 827.62,-326"/>
<text xml:space="preserve" text-anchor="start" x="692.12" y="-312.5" font-family="Helvetica,sans-Serif" font-size="10.00">depicture_menu/src</text>
<text xml:space="preserve" text-anchor="start" x="692.12" y="-300.5" font-family="Helvetica,sans-Serif" font-size="10.00">/core/usecase/config</text>
<text xml:space="preserve" text-anchor="middle" x="755.88" y="-288.5" font-family="Helvetica,sans-Serif" font-size="10.00">_view/dto/backup_import.hpp</text>
</a>
</g>
</g>
<!-- Node1&#45;&gt;Node25 -->
<g id="edge34_Node000001_Node000025" class="edge">
<title>Node1&#45;&gt;Node25</title>
<g id="a_edge34_Node000001_Node000025"><a xlink:title=" ">
<path fill="none" stroke="#63b8ff" d="M723.62,-358.13C730,-347.61 737,-336.1 742.83,-326.48"/>
<polygon fill="#63b8ff" stroke="#63b8ff" points="720.73,-356.15 718.53,-366.51 726.71,-359.78 720.73,-356.15"/>
</a>
</g>
</g>
<!-- Node3 -->
<g id="Node000003" class="node">
<title>Node3</title>
<g id="a_Node000003"><a xlink:href="backup__json_8cpp.html" target="_top" xlink:title=" ">
<polygon fill="white" stroke="#666666" points="121.75,-234 0,-234 0,-190 121.75,-190 121.75,-234"/>
<text xml:space="preserve" text-anchor="start" x="8" y="-220.5" font-family="Helvetica,sans-Serif" font-size="10.00">depicture_menu/src</text>
<text xml:space="preserve" text-anchor="start" x="8" y="-208.5" font-family="Helvetica,sans-Serif" font-size="10.00">/core/application/backup</text>
<text xml:space="preserve" text-anchor="middle" x="60.88" y="-196.5" font-family="Helvetica,sans-Serif" font-size="10.00">_json/backup_json.cpp</text>
</a>
</g>
</g>
<!-- Node2&#45;&gt;Node3 -->
<g id="edge2_Node000002_Node000003" class="edge">
<title>Node2&#45;&gt;Node3</title>
<g id="a_edge2_Node000002_Node000003"><a xlink:title=" ">
<path fill="none" stroke="#63b8ff" d="M191.05,-276.67C163.62,-263.26 130.68,-247.15 104.81,-234.49"/>
<polygon fill="#63b8ff" stroke="#63b8ff" points="189.39,-279.76 199.91,-281.01 192.46,-273.47 189.39,-279.76"/>
</a>
</g>
</g>
<!-- Node4 -->
<g id="Node000004" class="node">
<title>Node4</title>
<g id="a_Node000004"><a xlink:href="config__view__arg__builder_8cpp.html" target="_top" xlink:title="ConfigArg ファクトリー">
<polygon fill="white" stroke="#666666" points="497.12,-56 380.62,-56 380.62,0 497.12,0 497.12,-56"/>
<text xml:space="preserve" text-anchor="start" x="388.62" y="-42.5" font-family="Helvetica,sans-Serif" font-size="10.00">depicture_menu/src</text>
<text xml:space="preserve" text-anchor="start" x="388.62" y="-30.5" font-family="Helvetica,sans-Serif" font-size="10.00">/core/application/cs</text>
<text xml:space="preserve" text-anchor="start" x="388.62" y="-18.5" font-family="Helvetica,sans-Serif" font-size="10.00">_binding_factory/config</text>
<text xml:space="preserve" text-anchor="middle" x="438.88" y="-6.5" font-family="Helvetica,sans-Serif" font-size="10.00">_view_arg_builder.cpp</text>
</a>
</g>
</g>
<!-- Node2&#45;&gt;Node4 -->
<g id="edge3_Node000002_Node000004" class="edge">
<title>Node2&#45;&gt;Node4</title>
<g id="a_edge3_Node000002_Node000004"><a xlink:title=" ">
<path fill="none" stroke="#63b8ff" d="M197.79,-274.74C186.19,-265.27 175.26,-253.6 168.88,-240 158.29,-217.47 157.77,-206.28 168.88,-184 209.56,-102.37 313.93,-61.01 380.34,-42.29"/>
<polygon fill="#63b8ff" stroke="#63b8ff" points="195.46,-277.36 205.53,-280.63 199.7,-271.79 195.46,-277.36"/>
</a>
</g>
</g>
<!-- Node5 -->
<g id="Node000005" class="node">
<title>Node5</title>
<g id="a_Node000005"><a xlink:href="backup__data__presenter_8cpp.html" target="_top" xlink:title=" ">
<polygon fill="white" stroke="#666666" points="474,-240 329.75,-240 329.75,-184 474,-184 474,-240"/>
<text xml:space="preserve" text-anchor="start" x="337.75" y="-226.5" font-family="Helvetica,sans-Serif" font-size="10.00">depicture_menu/src</text>
<text xml:space="preserve" text-anchor="start" x="337.75" y="-214.5" font-family="Helvetica,sans-Serif" font-size="10.00">/core/presentation/backup</text>
<text xml:space="preserve" text-anchor="start" x="337.75" y="-202.5" font-family="Helvetica,sans-Serif" font-size="10.00">_data_presenter/backup_data</text>
<text xml:space="preserve" text-anchor="middle" x="401.88" y="-190.5" font-family="Helvetica,sans-Serif" font-size="10.00">_presenter.cpp</text>
</a>
</g>
</g>
<!-- Node2&#45;&gt;Node5 -->
<g id="edge4_Node000002_Node000005" class="edge">
<title>Node2&#45;&gt;Node5</title>
<g id="a_edge4_Node000002_Node000005"><a xlink:title=" ">
<path fill="none" stroke="#63b8ff" d="M292,-275.99C311.57,-264.76 334.26,-251.76 353.92,-240.49"/>
<polygon fill="#63b8ff" stroke="#63b8ff" points="290.33,-272.91 283.39,-280.92 293.81,-278.98 290.33,-272.91"/>
</a>
</g>
</g>
<!-- Node2&#45;&gt;Node6 -->
<g id="edge5_Node000002_Node000006" class="edge">
<title>Node2&#45;&gt;Node6</title>
<g id="a_edge5_Node000002_Node000006"><a xlink:title=" ">
<path fill="none" stroke="#63b8ff" d="M244.88,-270.3C244.88,-258.37 244.88,-245.19 244.88,-234.49"/>
<polygon fill="#63b8ff" stroke="#63b8ff" points="241.38,-270.16 244.88,-280.16 248.38,-270.16 241.38,-270.16"/>
</a>
</g>
</g>
<!-- Node7&#45;&gt;Node5 -->
<g id="edge11_Node000007_Node000005" class="edge">
<title>Node7&#45;&gt;Node5</title>
<g id="a_edge11_Node000007_Node000005"><a xlink:title=" ">
<path fill="none" stroke="#63b8ff" d="M493.77,-269.64C478.19,-260.04 461.38,-249.68 446.45,-240.48"/>
<polygon fill="#63b8ff" stroke="#63b8ff" points="491.64,-272.45 501.99,-274.71 495.31,-266.49 491.64,-272.45"/>
</a>
</g>
</g>
<!-- Node8 -->
<g id="Node000008" class="node">
<title>Node8</title>
<g id="a_Node000008"><a xlink:href="backup__data__presenter_8hpp.html" target="_top" xlink:title=" ">
<polygon fill="white" stroke="#666666" points="620.12,-234 491.62,-234 491.62,-190 620.12,-190 620.12,-234"/>
<text xml:space="preserve" text-anchor="start" x="499.62" y="-220.5" font-family="Helvetica,sans-Serif" font-size="10.00">depicture_menu/src</text>
<text xml:space="preserve" text-anchor="start" x="499.62" y="-208.5" font-family="Helvetica,sans-Serif" font-size="10.00">/core/presentation/backup</text>
<text xml:space="preserve" text-anchor="middle" x="555.88" y="-196.5" font-family="Helvetica,sans-Serif" font-size="10.00">_data_presenter.hpp</text>
</a>
</g>
</g>
<!-- Node7&#45;&gt;Node8 -->
<g id="edge7_Node000007_Node000008" class="edge">
<title>Node7&#45;&gt;Node8</title>
<g id="a_edge7_Node000007_Node000008"><a xlink:title=" ">
<path fill="none" stroke="#63b8ff" d="M551.32,-264.23C552.23,-253.98 553.18,-243.28 553.98,-234.33"/>
<polygon fill="#63b8ff" stroke="#63b8ff" points="547.85,-263.73 550.45,-274 554.82,-264.35 547.85,-263.73"/>
</a>
</g>
</g>
<!-- Node8&#45;&gt;Node4 -->
<g id="edge8_Node000008_Node000004" class="edge">
<title>Node8&#45;&gt;Node4</title>
<g id="a_edge8_Node000008_Node000004"><a xlink:title=" ">
<path fill="none" stroke="#63b8ff" d="M490.08,-186.14C487.66,-185.39 485.25,-184.68 482.88,-184 405.67,-162.01 356.67,-210.16 305.88,-148 290.13,-128.73 292.57,-113.03 305.88,-92 322.34,-65.98 352.77,-50.5 380.37,-41.4"/>
<polygon fill="#63b8ff" stroke="#63b8ff" points="488.74,-189.39 499.33,-189.14 490.89,-182.73 488.74,-189.39"/>
</a>
</g>
</g>
<!-- Node9 -->
<g id="Node000009" class="node">
<title>Node9</title>
<g id="a_Node000009"><a xlink:href="config__view__dispatch_8cpp.html" target="_top" xlink:title=" ">
<polygon fill="white" stroke="#666666" points="849.62,-50 676.12,-50 676.12,-6 849.62,-6 849.62,-50"/>
<text xml:space="preserve" text-anchor="start" x="684.12" y="-36.5" font-family="Helvetica,sans-Serif" font-size="10.00">depicture_menu/src</text>
<text xml:space="preserve" text-anchor="start" x="684.12" y="-24.5" font-family="Helvetica,sans-Serif" font-size="10.00">/core/application/usecase</text>
<text xml:space="preserve" text-anchor="middle" x="762.88" y="-12.5" font-family="Helvetica,sans-Serif" font-size="10.00">_dispatch/config_view_dispatch.cpp</text>
</a>
</g>
</g>
<!-- Node8&#45;&gt;Node9 -->
<g id="edge9_Node000008_Node000009" class="edge">
<title>Node8&#45;&gt;Node9</title>
<g id="a_edge9_Node000008_Node000009"><a xlink:title=" ">
<path fill="none" stroke="#63b8ff" d="M581.64,-181.13C604,-156.02 637.89,-119.86 670.88,-92 688.77,-76.88 710.3,-61.98 728.03,-50.47"/>
<polygon fill="#63b8ff" stroke="#63b8ff" points="579.23,-178.58 575.23,-188.39 584.47,-183.21 579.23,-178.58"/>
</a>
</g>
</g>
<!-- Node8&#45;&gt;Node10 -->
<g id="edge10_Node000008_Node000010" class="edge">
<title>Node8&#45;&gt;Node10</title>
<g id="a_edge10_Node000008_Node000010"><a xlink:title=" ">
<path fill="none" stroke="#63b8ff" d="M506.37,-184.32C481.6,-170.97 452.03,-155.03 428.75,-142.49"/>
<polygon fill="#63b8ff" stroke="#63b8ff" points="504.5,-187.29 514.97,-188.95 507.82,-181.13 504.5,-187.29"/>
</a>
</g>
</g>
<!-- Node12 -->
<g id="Node000012" class="node">
<title>Node12</title>
<g id="a_Node000012"><a xlink:href="action_8cpp.html" target="_top" xlink:title=" ">
<polygon fill="white" stroke="#666666" points="2190.88,-142 2078.88,-142 2078.88,-98 2190.88,-98 2190.88,-142"/>
<text xml:space="preserve" text-anchor="start" x="2086.88" y="-128.5" font-family="Helvetica,sans-Serif" font-size="10.00">depicture_menu/src</text>
<text xml:space="preserve" text-anchor="start" x="2086.88" y="-116.5" font-family="Helvetica,sans-Serif" font-size="10.00">/core/usecase/backup</text>
<text xml:space="preserve" text-anchor="middle" x="2134.88" y="-104.5" font-family="Helvetica,sans-Serif" font-size="10.00">/convert/action.cpp</text>
</a>
</g>
</g>
<!-- Node11&#45;&gt;Node12 -->
<g id="edge13_Node000011_Node000012" class="edge">
<title>Node11&#45;&gt;Node12</title>
<g id="a_edge13_Node000011_Node000012"><a xlink:title=" ">
<path fill="none" stroke="#63b8ff" d="M1775.58,-202.2C1850.55,-192.66 1966.77,-175.05 2064.88,-148 2070.65,-146.41 2076.61,-144.52 2082.5,-142.48"/>
<polygon fill="#63b8ff" stroke="#63b8ff" points="1775.36,-198.7 1765.87,-203.42 1776.23,-205.65 1775.36,-198.7"/>
</a>
</g>
</g>
<!-- Node13 -->
<g id="Node000013" class="node">
<title>Node13</title>
<g id="a_Node000013"><a xlink:href="command_8cpp.html" target="_top" xlink:title=" ">
<polygon fill="white" stroke="#666666" points="2324.75,-142 2209,-142 2209,-98 2324.75,-98 2324.75,-142"/>
<text xml:space="preserve" text-anchor="start" x="2217" y="-128.5" font-family="Helvetica,sans-Serif" font-size="10.00">depicture_menu/src</text>
<text xml:space="preserve" text-anchor="start" x="2217" y="-116.5" font-family="Helvetica,sans-Serif" font-size="10.00">/core/usecase/backup</text>
<text xml:space="preserve" text-anchor="middle" x="2266.88" y="-104.5" font-family="Helvetica,sans-Serif" font-size="10.00">/convert/command.cpp</text>
</a>
</g>
</g>
<!-- Node11&#45;&gt;Node13 -->
<g id="edge14_Node000011_Node000013" class="edge">
<title>Node11&#45;&gt;Node13</title>
<g id="a_edge14_Node000011_Node000013"><a xlink:title=" ">
<path fill="none" stroke="#63b8ff" d="M1775.75,-207.46C1875.44,-201.51 2052.87,-186.16 2199.88,-148 2205.82,-146.46 2211.95,-144.51 2217.97,-142.38"/>
<polygon fill="#63b8ff" stroke="#63b8ff" points="1775.57,-203.96 1765.79,-208.03 1775.97,-210.95 1775.57,-203.96"/>
</a>
</g>
</g>
<!-- Node14 -->
<g id="Node000014" class="node">
<title>Node14</title>
<g id="a_Node000014"><a xlink:href="config_8cpp.html" target="_top" xlink:title=" ">
<polygon fill="white" stroke="#666666" points="2454.88,-142 2342.88,-142 2342.88,-98 2454.88,-98 2454.88,-142"/>
<text xml:space="preserve" text-anchor="start" x="2350.88" y="-128.5" font-family="Helvetica,sans-Serif" font-size="10.00">depicture_menu/src</text>
<text xml:space="preserve" text-anchor="start" x="2350.88" y="-116.5" font-family="Helvetica,sans-Serif" font-size="10.00">/core/usecase/backup</text>
<text xml:space="preserve" text-anchor="middle" x="2398.88" y="-104.5" font-family="Helvetica,sans-Serif" font-size="10.00">/convert/config.cpp</text>
</a>
</g>
</g>
<!-- Node11&#45;&gt;Node14 -->
<g id="edge15_Node000011_Node000014" class="edge">
<title>Node11&#45;&gt;Node14</title>
<g id="a_edge15_Node000011_Node000014"><a xlink:title=" ">
<path fill="none" stroke="#63b8ff" d="M1775.78,-210.62C1896.96,-208.4 2137.11,-197.45 2333.88,-148 2339.8,-146.51 2345.89,-144.57 2351.86,-142.42"/>
<polygon fill="#63b8ff" stroke="#63b8ff" points="1775.89,-207.12 1765.95,-210.78 1776,-214.12 1775.89,-207.12"/>
</a>
</g>
</g>
<!-- Node15 -->
<g id="Node000015" class="node">
<title>Node15</title>
<g id="a_Node000015"><a xlink:href="menu_8cpp.html" target="_top" xlink:title=" ">
<polygon fill="white" stroke="#666666" points="2584.88,-142 2472.88,-142 2472.88,-98 2584.88,-98 2584.88,-142"/>
<text xml:space="preserve" text-anchor="start" x="2480.88" y="-128.5" font-family="Helvetica,sans-Serif" font-size="10.00">depicture_menu/src</text>
<text xml:space="preserve" text-anchor="start" x="2480.88" y="-116.5" font-family="Helvetica,sans-Serif" font-size="10.00">/core/usecase/backup</text>
<text xml:space="preserve" text-anchor="middle" x="2528.88" y="-104.5" font-family="Helvetica,sans-Serif" font-size="10.00">/convert/menu.cpp</text>
</a>
</g>
</g>
<!-- Node11&#45;&gt;Node15 -->
<g id="edge16_Node000011_Node000015" class="edge">
<title>Node11&#45;&gt;Node15</title>
<g id="a_edge16_Node000011_Node000015"><a xlink:title=" ">
<path fill="none" stroke="#63b8ff" d="M1775.82,-207.67C1943.74,-199.99 2334.88,-179.28 2463.88,-148 2469.93,-146.53 2476.15,-144.58 2482.24,-142.39"/>
<polygon fill="#63b8ff" stroke="#63b8ff" points="1775.71,-204.17 1765.88,-208.12 1776.02,-211.16 1775.71,-204.17"/>
</a>
</g>
</g>
<!-- Node16 -->
<g id="Node000016" class="node">
<title>Node16</title>
<g id="a_Node000016"><a xlink:href="option_8cpp.html" target="_top" xlink:title=" ">
<polygon fill="white" stroke="#666666" points="1223.88,-142 1111.88,-142 1111.88,-98 1223.88,-98 1223.88,-142"/>
<text xml:space="preserve" text-anchor="start" x="1119.88" y="-128.5" font-family="Helvetica,sans-Serif" font-size="10.00">depicture_menu/src</text>
<text xml:space="preserve" text-anchor="start" x="1119.88" y="-116.5" font-family="Helvetica,sans-Serif" font-size="10.00">/core/usecase/backup</text>
<text xml:space="preserve" text-anchor="middle" x="1167.88" y="-104.5" font-family="Helvetica,sans-Serif" font-size="10.00">/convert/option.cpp</text>
</a>
</g>
</g>
<!-- Node11&#45;&gt;Node16 -->
<g id="edge17_Node000011_Node000016" class="edge">
<title>Node11&#45;&gt;Node16</title>
<g id="a_edge17_Node000011_Node000016"><a xlink:title=" ">
<path fill="none" stroke="#63b8ff" d="M1620.03,-206.62C1526.68,-199.97 1366.12,-184.04 1232.88,-148 1227.21,-146.47 1221.39,-144.56 1215.66,-142.48"/>
<polygon fill="#63b8ff" stroke="#63b8ff" points="1619.62,-210.1 1629.84,-207.3 1620.11,-203.12 1619.62,-210.1"/>
</a>
</g>
</g>
<!-- Node17 -->
<g id="Node000017" class="node">
<title>Node17</title>
<g id="a_Node000017"><a xlink:href="trigger_8cpp.html" target="_top" xlink:title=" ">
<polygon fill="white" stroke="#666666" points="1353.88,-142 1241.88,-142 1241.88,-98 1353.88,-98 1353.88,-142"/>
<text xml:space="preserve" text-anchor="start" x="1249.88" y="-128.5" font-family="Helvetica,sans-Serif" font-size="10.00">depicture_menu/src</text>
<text xml:space="preserve" text-anchor="start" x="1249.88" y="-116.5" font-family="Helvetica,sans-Serif" font-size="10.00">/core/usecase/backup</text>
<text xml:space="preserve" text-anchor="middle" x="1297.88" y="-104.5" font-family="Helvetica,sans-Serif" font-size="10.00">/convert/trigger.cpp</text>
</a>
</g>
</g>
<!-- Node11&#45;&gt;Node17 -->
<g id="edge18_Node000011_Node000017" class="edge">
<title>Node11&#45;&gt;Node17</title>
<g id="a_edge18_Node000011_Node000017"><a xlink:title=" ">
<path fill="none" stroke="#63b8ff" d="M1620.3,-201.08C1551.7,-191.21 1449.37,-173.79 1362.88,-148 1357.49,-146.39 1351.94,-144.49 1346.46,-142.46"/>
<polygon fill="#63b8ff" stroke="#63b8ff" points="1619.55,-204.51 1629.94,-202.45 1620.53,-197.58 1619.55,-204.51"/>
</a>
</g>
</g>
<!-- Node11&#45;&gt;Node18 -->
<g id="edge19_Node000011_Node000018" class="edge">
<title>Node11&#45;&gt;Node18</title>
<g id="a_edge19_Node000011_Node000018"><a xlink:title=" ">
<path fill="none" stroke="#63b8ff" d="M1619.95,-211.99C1485.76,-211.98 1203.31,-204.44 972.88,-148 966.94,-146.55 960.84,-144.63 954.88,-142.49"/>
<polygon fill="#63b8ff" stroke="#63b8ff" points="1619.79,-215.49 1629.78,-211.97 1619.78,-208.49 1619.79,-215.49"/>
</a>
</g>
</g>
<!-- Node19 -->
<g id="Node000019" class="node">
<title>Node19</title>
<g id="a_Node000019"><a xlink:href="_test_export_backup_8cpp.html" target="_top" xlink:title=" ">
<polygon fill="white" stroke="#666666" points="1096.88,-50 978.88,-50 978.88,-6 1096.88,-6 1096.88,-50"/>
<text xml:space="preserve" text-anchor="start" x="986.88" y="-36.5" font-family="Helvetica,sans-Serif" font-size="10.00">depicture_menu/test</text>
<text xml:space="preserve" text-anchor="start" x="986.88" y="-24.5" font-family="Helvetica,sans-Serif" font-size="10.00">/core/usecase/backup</text>
<text xml:space="preserve" text-anchor="middle" x="1037.88" y="-12.5" font-family="Helvetica,sans-Serif" font-size="10.00">/TestExportBackup.cpp</text>
</a>
</g>
</g>
<!-- Node11&#45;&gt;Node19 -->
<g id="edge27_Node000011_Node000019" class="edge">
<title>Node11&#45;&gt;Node19</title>
<g id="a_edge27_Node000011_Node000019"><a xlink:title=" ">
<path fill="none" stroke="#63b8ff" d="M1775.76,-207.96C1897.31,-200.6 2110.44,-175.7 2031.88,-92 1999.74,-57.76 1306.29,-36.26 1097.1,-30.54"/>
<polygon fill="#63b8ff" stroke="#63b8ff" points="1775.59,-204.46 1765.81,-208.53 1775.99,-211.45 1775.59,-204.46"/>
</a>
</g>
</g>
<!-- Node11&#45;&gt;Node20 -->
<g id="edge23_Node000011_Node000020" class="edge">
<title>Node11&#45;&gt;Node20</title>
<g id="a_edge23_Node000011_Node000020"><a xlink:title=" ">
<path fill="none" stroke="#63b8ff" d="M1620.18,-209.87C1505.37,-206.61 1284.37,-194.26 1102.88,-148 1096.95,-146.49 1090.87,-144.54 1084.9,-142.38"/>
<polygon fill="#63b8ff" stroke="#63b8ff" points="1620.03,-213.36 1630.12,-210.13 1620.22,-206.37 1620.03,-213.36"/>
</a>
</g>
</g>
<!-- Node21 -->
<g id="Node000021" class="node">
<title>Node21</title>
<g id="a_Node000021"><a xlink:href="_test_export_backup__action_8cpp.html" target="_top" xlink:title=" ">
<polygon fill="white" stroke="#666666" points="1521.62,-142 1372.12,-142 1372.12,-98 1521.62,-98 1521.62,-142"/>
<text xml:space="preserve" text-anchor="start" x="1380.12" y="-128.5" font-family="Helvetica,sans-Serif" font-size="10.00">depicture_menu/test</text>
<text xml:space="preserve" text-anchor="start" x="1380.12" y="-116.5" font-family="Helvetica,sans-Serif" font-size="10.00">/core/usecase/backup</text>
<text xml:space="preserve" text-anchor="middle" x="1446.88" y="-104.5" font-family="Helvetica,sans-Serif" font-size="10.00">/TestExportBackup_action.cpp</text>
</a>
</g>
</g>
<!-- Node11&#45;&gt;Node21 -->
<g id="edge28_Node000011_Node000021" class="edge">
<title>Node11&#45;&gt;Node21</title>
<g id="a_edge28_Node000011_Node000021"><a xlink:title=" ">
<path fill="none" stroke="#63b8ff" d="M1627.57,-185.79C1589.5,-172.14 1542.96,-155.45 1506.65,-142.43"/>
<polygon fill="#63b8ff" stroke="#63b8ff" points="1626.05,-188.97 1636.65,-189.05 1628.42,-182.38 1626.05,-188.97"/>
</a>
</g>
</g>
<!-- Node22 -->
<g id="Node000022" class="node">
<title>Node22</title>
<g id="a_Node000022"><a xlink:href="_test_export_backup__config_8cpp.html" target="_top" xlink:title=" ">
<polygon fill="white" stroke="#666666" points="1689.62,-142 1540.12,-142 1540.12,-98 1689.62,-98 1689.62,-142"/>
<text xml:space="preserve" text-anchor="start" x="1548.12" y="-128.5" font-family="Helvetica,sans-Serif" font-size="10.00">depicture_menu/test</text>
<text xml:space="preserve" text-anchor="start" x="1548.12" y="-116.5" font-family="Helvetica,sans-Serif" font-size="10.00">/core/usecase/backup</text>
<text xml:space="preserve" text-anchor="middle" x="1614.88" y="-104.5" font-family="Helvetica,sans-Serif" font-size="10.00">/TestExportBackup_config.cpp</text>
</a>
</g>
</g>
<!-- Node11&#45;&gt;Node22 -->
<g id="edge29_Node000011_Node000022" class="edge">
<title>Node11&#45;&gt;Node22</title>
<g id="a_edge29_Node000011_Node000022"><a xlink:title=" ">
<path fill="none" stroke="#63b8ff" d="M1670.44,-181.25C1658.76,-168.58 1645.39,-154.09 1634.69,-142.49"/>
<polygon fill="#63b8ff" stroke="#63b8ff" points="1667.83,-183.58 1677.18,-188.56 1672.97,-178.83 1667.83,-183.58"/>
</a>
</g>
</g>
<!-- Node23 -->
<g id="Node000023" class="node">
<title>Node23</title>
<g id="a_Node000023"><a xlink:href="_test_export_backup__menu_8cpp.html" target="_top" xlink:title=" ">
<polygon fill="white" stroke="#666666" points="1854.5,-142 1707.25,-142 1707.25,-98 1854.5,-98 1854.5,-142"/>
<text xml:space="preserve" text-anchor="start" x="1715.25" y="-128.5" font-family="Helvetica,sans-Serif" font-size="10.00">depicture_menu/test</text>
<text xml:space="preserve" text-anchor="start" x="1715.25" y="-116.5" font-family="Helvetica,sans-Serif" font-size="10.00">/core/usecase/backup</text>
<text xml:space="preserve" text-anchor="middle" x="1780.88" y="-104.5" font-family="Helvetica,sans-Serif" font-size="10.00">/TestExportBackup_menu.cpp</text>
</a>
</g>
</g>
<!-- Node11&#45;&gt;Node23 -->
<g id="edge30_Node000011_Node000023" class="edge">
<title>Node11&#45;&gt;Node23</title>
<g id="a_edge30_Node000011_Node000023"><a xlink:title=" ">
<path fill="none" stroke="#63b8ff" d="M1725.31,-181.25C1736.99,-168.58 1750.36,-154.09 1761.06,-142.49"/>
<polygon fill="#63b8ff" stroke="#63b8ff" points="1722.78,-178.83 1718.57,-188.56 1727.92,-183.58 1722.78,-178.83"/>
</a>
</g>
</g>
<!-- Node24 -->
<g id="Node000024" class="node">
<title>Node24</title>
<g id="a_Node000024"><a xlink:href="_test_export_backup__trigger_8cpp.html" target="_top" xlink:title=" ">
<polygon fill="white" stroke="#666666" points="2023,-142 1872.75,-142 1872.75,-98 2023,-98 2023,-142"/>
<text xml:space="preserve" text-anchor="start" x="1880.75" y="-128.5" font-family="Helvetica,sans-Serif" font-size="10.00">depicture_menu/test</text>
<text xml:space="preserve" text-anchor="start" x="1880.75" y="-116.5" font-family="Helvetica,sans-Serif" font-size="10.00">/core/usecase/backup</text>
<text xml:space="preserve" text-anchor="middle" x="1947.88" y="-104.5" font-family="Helvetica,sans-Serif" font-size="10.00">/TestExportBackup_trigger.cpp</text>
</a>
</g>
</g>
<!-- Node11&#45;&gt;Node24 -->
<g id="edge31_Node000011_Node000024" class="edge">
<title>Node11&#45;&gt;Node24</title>
<g id="a_edge31_Node000011_Node000024"><a xlink:title=" ">
<path fill="none" stroke="#63b8ff" d="M1767.9,-185.79C1805.82,-172.14 1852.17,-155.45 1888.33,-142.43"/>
<polygon fill="#63b8ff" stroke="#63b8ff" points="1767.09,-182.36 1758.86,-189.04 1769.46,-188.95 1767.09,-182.36"/>
</a>
</g>
</g>
<!-- Node18&#45;&gt;Node4 -->
<g id="edge20_Node000018_Node000004" class="edge">
<title>Node18&#45;&gt;Node4</title>
<g id="a_edge20_Node000018_Node000004"><a xlink:title=" ">
<path fill="none" stroke="#63b8ff" d="M850.15,-94.04C847.71,-93.3 845.28,-92.61 842.88,-92 696.93,-54.72 652.02,-92.5 505.88,-56 503.08,-55.3 500.24,-54.51 497.4,-53.65"/>
<polygon fill="#63b8ff" stroke="#63b8ff" points="848.82,-97.29 859.41,-97.14 851.04,-90.65 848.82,-97.29"/>
</a>
</g>
</g>
<!-- Node18&#45;&gt;Node9 -->
<g id="edge21_Node000018_Node000009" class="edge">
<title>Node18&#45;&gt;Node9</title>
<g id="a_edge21_Node000018_Node000009"><a xlink:title=" ">
<path fill="none" stroke="#63b8ff" d="M863.74,-91.6C842.47,-78.41 817.35,-62.81 797.49,-50.49"/>
<polygon fill="#63b8ff" stroke="#63b8ff" points="861.88,-94.57 872.23,-96.87 865.58,-88.63 861.88,-94.57"/>
</a>
</g>
</g>
<!-- Node18&#45;&gt;Node19 -->
<g id="edge22_Node000018_Node000019" class="edge">
<title>Node18&#45;&gt;Node19</title>
<g id="a_edge22_Node000018_Node000019"><a xlink:title=" ">
<path fill="none" stroke="#63b8ff" d="M947.97,-91.25C966.92,-78.12 989.2,-62.7 1006.84,-50.49"/>
<polygon fill="#63b8ff" stroke="#63b8ff" points="946.16,-88.24 939.93,-96.81 950.14,-94 946.16,-88.24"/>
</a>
</g>
</g>
<!-- Node20&#45;&gt;Node4 -->
<g id="edge24_Node000020_Node000004" class="edge">
<title>Node20&#45;&gt;Node4</title>
<g id="a_edge24_Node000020_Node000004"><a xlink:title=" ">
<path fill="none" stroke="#63b8ff" d="M980.32,-94C977.83,-93.26 975.34,-92.59 972.88,-92 770.44,-43.46 708.56,-103.46 505.88,-56 503.07,-55.34 500.22,-54.59 497.37,-53.75"/>
<polygon fill="#63b8ff" stroke="#63b8ff" points="979.21,-97.32 989.81,-97.11 981.4,-90.67 979.21,-97.32"/>
</a>
</g>
</g>
<!-- Node20&#45;&gt;Node9 -->
<g id="edge25_Node000020_Node000009" class="edge">
<title>Node20&#45;&gt;Node9</title>
<g id="a_edge25_Node000020_Node000009"><a xlink:title=" ">
<path fill="none" stroke="#63b8ff" d="M976.99,-93.49C975.61,-92.98 974.23,-92.48 972.88,-92 929.85,-76.66 881.02,-61.85 841.28,-50.46"/>
<polygon fill="#63b8ff" stroke="#63b8ff" points="975.68,-96.74 986.27,-97.02 978.16,-90.19 975.68,-96.74"/>
</a>
</g>
</g>
<!-- Node20&#45;&gt;Node19 -->
<g id="edge26_Node000020_Node000019" class="edge">
<title>Node20&#45;&gt;Node19</title>
<g id="a_edge26_Node000020_Node000019"><a xlink:title=" ">
<path fill="none" stroke="#63b8ff" d="M1037.88,-86.3C1037.88,-74.37 1037.88,-61.19 1037.88,-50.49"/>
<polygon fill="#63b8ff" stroke="#63b8ff" points="1034.38,-86.16 1037.88,-96.16 1041.38,-86.16 1034.38,-86.16"/>
</a>
</g>
</g>
<!-- Node26 -->
<g id="Node000026" class="node">
<title>Node26</title>
<g id="a_Node000026"><a xlink:href="config__view__dispatch_8hpp.html" target="_top" xlink:title="コンフィグビューのディスパッチ">
<polygon fill="white" stroke="#666666" points="849.62,-234 676.12,-234 676.12,-190 849.62,-190 849.62,-234"/>
<text xml:space="preserve" text-anchor="start" x="684.12" y="-220.5" font-family="Helvetica,sans-Serif" font-size="10.00">depicture_menu/src</text>
<text xml:space="preserve" text-anchor="start" x="684.12" y="-208.5" font-family="Helvetica,sans-Serif" font-size="10.00">/core/application/usecase</text>
<text xml:space="preserve" text-anchor="middle" x="762.88" y="-196.5" font-family="Helvetica,sans-Serif" font-size="10.00">_dispatch/config_view_dispatch.hpp</text>
</a>
</g>
</g>
<!-- Node25&#45;&gt;Node26 -->
<g id="edge35_Node000025_Node000026" class="edge">
<title>Node25&#45;&gt;Node26</title>
<g id="a_edge35_Node000025_Node000026"><a xlink:title=" ">
<path fill="none" stroke="#63b8ff" d="M758.42,-270.3C759.35,-258.37 760.37,-245.19 761.2,-234.49"/>
<polygon fill="#63b8ff" stroke="#63b8ff" points="754.94,-269.92 757.65,-280.16 761.92,-270.46 754.94,-269.92"/>
</a>
</g>
</g>
<!-- Node26&#45;&gt;Node9 -->
<g id="edge39_Node000026_Node000009" class="edge">
<title>Node26&#45;&gt;Node9</title>
<g id="a_edge39_Node000026_Node000009"><a xlink:title=" ">
<path fill="none" stroke="#63b8ff" d="M713.39,-183.2C701.17,-173.74 689.65,-161.95 682.88,-148 672.01,-125.61 672.01,-114.39 682.88,-92 691.29,-74.66 707.04,-60.67 722.36,-50.31"/>
<polygon fill="#63b8ff" stroke="#63b8ff" points="710.98,-185.78 721.13,-188.8 715.08,-180.1 710.98,-185.78"/>
</a>
</g>
</g>
<!-- Node27 -->
<g id="Node000027" class="node">
<title>Node27</title>
<g id="a_Node000027"><a xlink:href="config__view__arg__builder_8hpp.html" target="_top" xlink:title=" ">
<polygon fill="white" stroke="#666666" points="598.12,-148 481.62,-148 481.62,-92 598.12,-92 598.12,-148"/>
<text xml:space="preserve" text-anchor="start" x="489.62" y="-134.5" font-family="Helvetica,sans-Serif" font-size="10.00">depicture_menu/src</text>
<text xml:space="preserve" text-anchor="start" x="489.62" y="-122.5" font-family="Helvetica,sans-Serif" font-size="10.00">/core/application/cs</text>
<text xml:space="preserve" text-anchor="start" x="489.62" y="-110.5" font-family="Helvetica,sans-Serif" font-size="10.00">_binding_factory/config</text>
<text xml:space="preserve" text-anchor="middle" x="539.88" y="-98.5" font-family="Helvetica,sans-Serif" font-size="10.00">_view_arg_builder.hpp</text>
</a>
</g>
</g>
<!-- Node26&#45;&gt;Node27 -->
<g id="edge36_Node000026_Node000027" class="edge">
<title>Node26&#45;&gt;Node27</title>
<g id="a_edge36_Node000026_Node000027"><a xlink:title=" ">
<path fill="none" stroke="#63b8ff" d="M699.26,-185.32C667.55,-172.53 629.47,-157.16 598.48,-144.65"/>
<polygon fill="#63b8ff" stroke="#63b8ff" points="697.76,-188.49 708.34,-188.99 700.38,-182 697.76,-188.49"/>
</a>
</g>
</g>
<!-- Node29 -->
<g id="Node000029" class="node">
<title>Node29</title>
<g id="a_Node000029"><a xlink:href="stacked__views__presenter_8hpp.html" target="_top" xlink:title="view_stackに対するビュープレセンター">
<polygon fill="white" stroke="#666666" points="833.5,-148 692.25,-148 692.25,-92 833.5,-92 833.5,-148"/>
<text xml:space="preserve" text-anchor="start" x="700.25" y="-134.5" font-family="Helvetica,sans-Serif" font-size="10.00">depicture_menu/src</text>
<text xml:space="preserve" text-anchor="start" x="700.25" y="-122.5" font-family="Helvetica,sans-Serif" font-size="10.00">/core/presentation/change</text>
<text xml:space="preserve" text-anchor="start" x="700.25" y="-110.5" font-family="Helvetica,sans-Serif" font-size="10.00">_view_model/stacked_views</text>
<text xml:space="preserve" text-anchor="middle" x="762.88" y="-98.5" font-family="Helvetica,sans-Serif" font-size="10.00">_presenter.hpp</text>
</a>
</g>
</g>
<!-- Node26&#45;&gt;Node29 -->
<g id="edge40_Node000026_Node000029" class="edge">
<title>Node26&#45;&gt;Node29</title>
<g id="a_edge40_Node000026_Node000029"><a xlink:title=" ">
<path fill="none" stroke="#63b8ff" d="M762.88,-178.25C762.88,-168.42 762.88,-157.76 762.88,-148.32"/>
<polygon fill="#63b8ff" stroke="#63b8ff" points="759.38,-178.16 762.88,-188.16 766.38,-178.16 759.38,-178.16"/>
</a>
</g>
</g>
<!-- Node27&#45;&gt;Node4 -->
<g id="edge37_Node000027_Node000004" class="edge">
<title>Node27&#45;&gt;Node4</title>
<g id="a_edge37_Node000027_Node000004"><a xlink:title=" ">
<path fill="none" stroke="#63b8ff" d="M500.57,-83.97C490.27,-74.79 479.31,-65.03 469.54,-56.32"/>
<polygon fill="#63b8ff" stroke="#63b8ff" points="498.1,-86.46 507.89,-90.5 502.76,-81.24 498.1,-86.46"/>
</a>
</g>
</g>
<!-- Node28 -->
<g id="Node000028" class="node">
<title>Node28</title>
<g id="a_Node000028"><a xlink:href="setup__core_8cpp.html" target="_top" xlink:title=" ">
<polygon fill="white" stroke="#666666" points="626.88,-56 514.88,-56 514.88,0 626.88,0 626.88,-56"/>
<text xml:space="preserve" text-anchor="start" x="522.88" y="-42.5" font-family="Helvetica,sans-Serif" font-size="10.00">depicture_menu/src</text>
<text xml:space="preserve" text-anchor="start" x="522.88" y="-30.5" font-family="Helvetica,sans-Serif" font-size="10.00">/core/dll_entry_point</text>
<text xml:space="preserve" text-anchor="start" x="522.88" y="-18.5" font-family="Helvetica,sans-Serif" font-size="10.00">/domain_control/setup</text>
<text xml:space="preserve" text-anchor="middle" x="570.88" y="-6.5" font-family="Helvetica,sans-Serif" font-size="10.00">_core.cpp</text>
</a>
</g>
</g>
<!-- Node27&#45;&gt;Node28 -->
<g id="edge38_Node000027_Node000028" class="edge">
<title>Node27&#45;&gt;Node28</title>
<g id="a_edge38_Node000027_Node000028"><a xlink:title=" ">
<path fill="none" stroke="#63b8ff" d="M553.09,-80.65C555.9,-72.47 558.82,-63.99 561.46,-56.32"/>
<polygon fill="#63b8ff" stroke="#63b8ff" points="549.78,-79.48 549.84,-90.08 556.4,-81.76 549.78,-79.48"/>
</a>
</g>
</g>
<!-- Node29&#45;&gt;Node9 -->
<g id="edge41_Node000029_Node000009" class="edge">
<title>Node29&#45;&gt;Node9</title>
<g id="a_edge41_Node000029_Node000009"><a xlink:title=" ">
<path fill="none" stroke="#63b8ff" d="M762.88,-80.23C762.88,-69.98 762.88,-59.28 762.88,-50.33"/>
<polygon fill="#63b8ff" stroke="#63b8ff" points="759.38,-79.99 762.88,-89.99 766.38,-79.99 759.38,-79.99"/>
</a>
</g>
</g>
</g>
</svg>

<g id="navigator" transform="translate(0 0)" fill="#404254">
  <rect fill="#f2f5e9" fill-opacity="0.5" stroke="#606060" stroke-width=".5" x="0" y="0" width="60" height="60"/>
  <use id="zoomplus" xlink:href="#zoomPlus" x="17" y="9" onmousedown="handleZoom(evt,'in')"/>
  <use id="zoomminus" xlink:href="#zoomMin" x="42" y="9" onmousedown="handleZoom(evt,'out')"/>
  <use id="reset" xlink:href="#resetDef" x="30" y="36" onmousedown="handleReset()"/>
   <use id="arrowup" xlink:href="#arrowUp" x="0" y="0" onmousedown="handlePan(0,-1)"/>
  <use id="arrowright" xlink:href="#arrowRight" x="0" y="0" onmousedown="handlePan(1,0)"/>
  <use id="arrowdown" xlink:href="#arrowDown" x="0" y="0" onmousedown="handlePan(0,1)"/>
  <use id="arrowleft" xlink:href="#arrowLeft" x="0" y="0" onmousedown="handlePan(-1,0)"/>
</g>
<svg viewBox="0 0 15 15" width="100%" height="30px" preserveAspectRatio="xMaxYMin meet">
 <g id="arrow_out" transform="scale(0.3 0.3)">
  <a xlink:href="backup__data_8hpp__dep__incl_org.svg" target="_base">
   <rect id="button" ry="5" rx="5" y="6" x="6" height="38" width="38"
        fill="#f2f5e9" fill-opacity="0.5" stroke="#606060" stroke-width="1.0"/>
   <path id="arrow"
     d="M 11.500037,31.436501 C 11.940474,20.09759 22.043105,11.32322 32.158766,21.979434 L 37.068811,17.246167 C 37.068811,17.246167 37.088388,32 37.088388,32 L 22.160133,31.978069 C 22.160133,31.978069 26.997745,27.140456 26.997745,27.140456 C 18.528582,18.264221 13.291696,25.230495 11.500037,31.436501 z"
     style="fill:#404040;"/>
  </a>
 </g>
</svg>

<style type='text/css'>
<![CDATA[
[data-mouse-over-selected='false'] { opacity: 0.7; }
[data-mouse-over-selected='true']  { opacity: 1.0; }
]]>
</style>
<script type="application/ecmascript"><![CDATA[
document.addEventListener('DOMContentLoaded', (event) => {
  highlightEdges();
  highlightAdjacentNodes();
});
]]></script>
</svg>
