<?xml version="1.0" encoding="UTF-8" standalone="no"?>
<!DOCTYPE svg PUBLIC "-//W3C//DTD SVG 1.1//EN"
 "http://www.w3.org/Graphics/SVG/1.1/DTD/svg11.dtd">
<!-- Generated by graphviz version 14.1.2 (20260124.0452)
 -->
<!-- Title: depicture_menu/src/core/cs_binding/observer/changed_notify_frameworks.hpp Pages: 1 -->
<svg width="1262pt" height="344pt"
 viewBox="0.00 0.00 1262.00 344.00" xmlns="http://www.w3.org/2000/svg" xmlns:xlink="http://www.w3.org/1999/xlink">
<g id="graph0" class="graph" transform="scale(1 1) rotate(0) translate(4 340)">
<title>depicture_menu/src/core/cs_binding/observer/changed_notify_frameworks.hpp</title>
<!-- Node1 -->
<g id="Node000001" class="node">
<title>Node1</title>
<g id="a_Node000001"><a xlink:title=" ">
<polygon fill="#999999" stroke="#666666" points="819.5,-336 659.5,-336 659.5,-292 819.5,-292 819.5,-336"/>
<text xml:space="preserve" text-anchor="start" x="667.5" y="-322.5" font-family="Helvetica,sans-Serif" font-size="10.00">depicture_menu/src</text>
<text xml:space="preserve" text-anchor="start" x="667.5" y="-310.5" font-family="Helvetica,sans-Serif" font-size="10.00">/core/cs_binding/observer</text>
<text xml:space="preserve" text-anchor="middle" x="739.5" y="-298.5" font-family="Helvetica,sans-Serif" font-size="10.00">/changed_notify_frameworks.hpp</text>
</a>
</g>
</g>
<!-- Node2 -->
<g id="Node000002" class="node">
<title>Node2</title>
<g id="a_Node000002"><a xlink:href="list__wrapper_8hpp.html" target="_top" xlink:title=" ">
<polygon fill="white" stroke="#666666" points="530.12,-250 412.88,-250 412.88,-230 530.12,-230 530.12,-250"/>
<text xml:space="preserve" text-anchor="middle" x="471.5" y="-236.5" font-family="Helvetica,sans-Serif" font-size="10.00">../impl/list_wrapper.hpp</text>
</a>
</g>
</g>
<!-- Node1&#45;&gt;Node2 -->
<g id="edge1_Node000001_Node000002" class="edge">
<title>Node1&#45;&gt;Node2</title>
<g id="a_edge1_Node000001_Node000002"><a xlink:title=" ">
<path fill="none" stroke="#63b8ff" d="M659.82,-291.59C613.47,-279.14 556.7,-263.89 517.68,-253.41"/>
<polygon fill="#63b8ff" stroke="#63b8ff" points="518.69,-250.06 508.13,-250.84 516.88,-256.82 518.69,-250.06"/>
</a>
</g>
</g>
<!-- Node15 -->
<g id="Node000015" class="node">
<title>Node15</title>
<g id="a_Node000015"><a xlink:title=" ">
<polygon fill="#e0e0e0" stroke="#999999" points="473.5,-132 415.5,-132 415.5,-112 473.5,-112 473.5,-132"/>
<text xml:space="preserve" text-anchor="middle" x="444.5" y="-118.5" font-family="Helvetica,sans-Serif" font-size="10.00">functional</text>
</a>
</g>
</g>
<!-- Node1&#45;&gt;Node15 -->
<g id="edge34_Node000001_Node000015" class="edge">
<title>Node1&#45;&gt;Node15</title>
<g id="a_edge34_Node000001_Node000015"><a xlink:title=" ">
<path fill="none" stroke="#63b8ff" d="M659.08,-313.06C588.12,-310.03 483.78,-297.84 403.5,-256 359.91,-233.28 309.23,-208.9 336.5,-168 344.52,-155.97 377.03,-143.4 404.3,-134.61"/>
<polygon fill="#63b8ff" stroke="#63b8ff" points="405.26,-137.98 413.76,-131.66 403.17,-131.3 405.26,-137.98"/>
</a>
</g>
</g>
<!-- Node28 -->
<g id="Node000028" class="node">
<title>Node28</title>
<g id="a_Node000028"><a xlink:href="collection__changed__kind_8hpp.html" target="_top" xlink:title=" ">
<polygon fill="white" stroke="#666666" points="647.12,-256 547.88,-256 547.88,-224 647.12,-224 647.12,-256"/>
<text xml:space="preserve" text-anchor="start" x="555.88" y="-242.5" font-family="Helvetica,sans-Serif" font-size="10.00">collection_changed</text>
<text xml:space="preserve" text-anchor="middle" x="597.5" y="-230.5" font-family="Helvetica,sans-Serif" font-size="10.00">_kind.hpp</text>
</a>
</g>
</g>
<!-- Node1&#45;&gt;Node28 -->
<g id="edge30_Node000001_Node000028" class="edge">
<title>Node1&#45;&gt;Node28</title>
<g id="a_edge30_Node000001_Node000028"><a xlink:title=" ">
<path fill="none" stroke="#63b8ff" d="M697.28,-291.59C678.6,-282.12 656.73,-271.03 638.23,-261.65"/>
<polygon fill="#63b8ff" stroke="#63b8ff" points="639.91,-258.58 629.41,-257.18 636.75,-264.82 639.91,-258.58"/>
</a>
</g>
</g>
<!-- Node29 -->
<g id="Node000029" class="node">
<title>Node29</title>
<g id="a_Node000029"><a xlink:title=" ">
<polygon fill="#e0e0e0" stroke="#999999" points="813.5,-250 665.5,-250 665.5,-230 813.5,-230 813.5,-250"/>
<text xml:space="preserve" text-anchor="middle" x="739.5" y="-236.5" font-family="Helvetica,sans-Serif" font-size="10.00">boost/signals2/connection.hpp</text>
</a>
</g>
</g>
<!-- Node1&#45;&gt;Node29 -->
<g id="edge31_Node000001_Node000029" class="edge">
<title>Node1&#45;&gt;Node29</title>
<g id="a_edge31_Node000001_Node000029"><a xlink:title=" ">
<path fill="none" stroke="#63b8ff" d="M739.5,-291.79C739.5,-282.32 739.5,-271.2 739.5,-261.78"/>
<polygon fill="#63b8ff" stroke="#63b8ff" points="743,-261.82 739.5,-251.82 736,-261.82 743,-261.82"/>
</a>
</g>
</g>
<!-- Node30 -->
<g id="Node000030" class="node">
<title>Node30</title>
<g id="a_Node000030"><a xlink:title=" ">
<polygon fill="#e0e0e0" stroke="#999999" points="931.88,-250 831.12,-250 831.12,-230 931.88,-230 931.88,-250"/>
<text xml:space="preserve" text-anchor="middle" x="881.5" y="-236.5" font-family="Helvetica,sans-Serif" font-size="10.00">boost/uuid/uuid.hpp</text>
</a>
</g>
</g>
<!-- Node1&#45;&gt;Node30 -->
<g id="edge32_Node000001_Node000030" class="edge">
<title>Node1&#45;&gt;Node30</title>
<g id="a_edge32_Node000001_Node000030"><a xlink:title=" ">
<path fill="none" stroke="#63b8ff" d="M781.72,-291.59C804.59,-280 832.25,-265.97 852.65,-255.63"/>
<polygon fill="#63b8ff" stroke="#63b8ff" points="854.18,-258.78 861.52,-251.13 851.01,-252.53 854.18,-258.78"/>
</a>
</g>
</g>
<!-- Node31 -->
<g id="Node000031" class="node">
<title>Node31</title>
<g id="a_Node000031"><a xlink:title=" ">
<polygon fill="#e0e0e0" stroke="#999999" points="1005.38,-250 949.62,-250 949.62,-230 1005.38,-230 1005.38,-250"/>
<text xml:space="preserve" text-anchor="middle" x="977.5" y="-236.5" font-family="Helvetica,sans-Serif" font-size="10.00">concepts</text>
</a>
</g>
</g>
<!-- Node1&#45;&gt;Node31 -->
<g id="edge33_Node000001_Node000031" class="edge">
<title>Node1&#45;&gt;Node31</title>
<g id="a_edge33_Node000001_Node000031"><a xlink:title=" ">
<path fill="none" stroke="#63b8ff" d="M819.84,-292.37C856.87,-282.31 901.22,-269.49 940.5,-256 941.86,-255.53 943.25,-255.04 944.65,-254.53"/>
<polygon fill="#63b8ff" stroke="#63b8ff" points="945.84,-257.82 953.93,-250.98 943.34,-251.29 945.84,-257.82"/>
</a>
</g>
</g>
<!-- Node32 -->
<g id="Node000032" class="node">
<title>Node32</title>
<g id="a_Node000032"><a xlink:title=" ">
<polygon fill="#e0e0e0" stroke="#999999" points="1063.5,-250 1023.5,-250 1023.5,-230 1063.5,-230 1063.5,-250"/>
<text xml:space="preserve" text-anchor="middle" x="1043.5" y="-236.5" font-family="Helvetica,sans-Serif" font-size="10.00">string</text>
</a>
</g>
</g>
<!-- Node1&#45;&gt;Node32 -->
<g id="edge35_Node000001_Node000032" class="edge">
<title>Node1&#45;&gt;Node32</title>
<g id="a_edge35_Node000001_Node000032"><a xlink:title=" ">
<path fill="none" stroke="#63b8ff" d="M819.9,-302.27C875.58,-293.41 950.86,-278.58 1014.5,-256 1015.3,-255.72 1016.11,-255.41 1016.92,-255.1"/>
<polygon fill="#63b8ff" stroke="#63b8ff" points="1018.26,-258.33 1025.91,-251 1015.36,-251.96 1018.26,-258.33"/>
</a>
</g>
</g>
<!-- Node3 -->
<g id="Node000003" class="node">
<title>Node3</title>
<g id="a_Node000003"><a xlink:href="unmanaged__generator_8hpp.html" target="_top" xlink:title=" ">
<polygon fill="white" stroke="#666666" points="800.88,-188 670.12,-188 670.12,-168 800.88,-168 800.88,-188"/>
<text xml:space="preserve" text-anchor="middle" x="735.5" y="-174.5" font-family="Helvetica,sans-Serif" font-size="10.00">unmanaged_generator.hpp</text>
</a>
</g>
</g>
<!-- Node2&#45;&gt;Node3 -->
<g id="edge2_Node000002_Node000003" class="edge">
<title>Node2&#45;&gt;Node3</title>
<g id="a_edge2_Node000002_Node000003"><a xlink:title=" ">
<path fill="none" stroke="#63b8ff" d="M513.04,-229.56C558.84,-219.15 632.64,-202.38 682.56,-191.03"/>
<polygon fill="#63b8ff" stroke="#63b8ff" points="683.31,-194.45 692.29,-188.82 681.76,-187.62 683.31,-194.45"/>
</a>
</g>
</g>
<!-- Node14 -->
<g id="Node000014" class="node">
<title>Node14</title>
<g id="a_Node000014"><a xlink:title=" ">
<polygon fill="#e0e0e0" stroke="#999999" points="589.38,-132 491.62,-132 491.62,-112 589.38,-112 589.38,-132"/>
<text xml:space="preserve" text-anchor="middle" x="540.5" y="-118.5" font-family="Helvetica,sans-Serif" font-size="10.00">boost/signals2.hpp</text>
</a>
</g>
</g>
<!-- Node2&#45;&gt;Node14 -->
<g id="edge28_Node000002_Node000014" class="edge">
<title>Node2&#45;&gt;Node14</title>
<g id="a_edge28_Node000002_Node000014"><a xlink:title=" ">
<path fill="none" stroke="#63b8ff" d="M509.52,-229.56C544.75,-219.95 593.36,-204.2 604.5,-188 617.8,-168.65 594.22,-149.91 572.02,-137.56"/>
<polygon fill="#63b8ff" stroke="#63b8ff" points="573.88,-134.58 563.4,-133.06 570.64,-140.79 573.88,-134.58"/>
</a>
</g>
</g>
<!-- Node19 -->
<g id="Node000019" class="node">
<title>Node19</title>
<g id="a_Node000019"><a xlink:href="vtbl_8hpp.html" target="_top" xlink:title=" ">
<polygon fill="white" stroke="#666666" points="225.75,-188 175.25,-188 175.25,-168 225.75,-168 225.75,-188"/>
<text xml:space="preserve" text-anchor="middle" x="200.5" y="-174.5" font-family="Helvetica,sans-Serif" font-size="10.00">vtbl.hpp</text>
</a>
</g>
</g>
<!-- Node2&#45;&gt;Node19 -->
<g id="edge20_Node000002_Node000019" class="edge">
<title>Node2&#45;&gt;Node19</title>
<g id="a_edge20_Node000002_Node000019"><a xlink:title=" ">
<path fill="none" stroke="#63b8ff" d="M428.86,-229.56C376.14,-217.89 287.3,-198.22 237.39,-187.17"/>
<polygon fill="#63b8ff" stroke="#63b8ff" points="238.18,-183.76 227.65,-185.01 236.66,-190.59 238.18,-183.76"/>
</a>
</g>
</g>
<!-- Node25 -->
<g id="Node000025" class="node">
<title>Node25</title>
<g id="a_Node000025"><a xlink:title=" ">
<polygon fill="#e0e0e0" stroke="#999999" points="391.12,-188 345.88,-188 345.88,-168 391.12,-168 391.12,-188"/>
<text xml:space="preserve" text-anchor="middle" x="368.5" y="-174.5" font-family="Helvetica,sans-Serif" font-size="10.00">atomic</text>
</a>
</g>
</g>
<!-- Node2&#45;&gt;Node25 -->
<g id="edge26_Node000002_Node000025" class="edge">
<title>Node2&#45;&gt;Node25</title>
<g id="a_edge26_Node000002_Node000025"><a xlink:title=" ">
<path fill="none" stroke="#63b8ff" d="M455.41,-229.62C439.08,-220.11 413.55,-205.24 394.38,-194.08"/>
<polygon fill="#63b8ff" stroke="#63b8ff" points="396.19,-191.08 385.79,-189.07 392.67,-197.13 396.19,-191.08"/>
</a>
</g>
</g>
<!-- Node26 -->
<g id="Node000026" class="node">
<title>Node26</title>
<g id="a_Node000026"><a xlink:title=" ">
<polygon fill="#e0e0e0" stroke="#999999" points="533.88,-188 409.12,-188 409.12,-168 533.88,-168 533.88,-188"/>
<text xml:space="preserve" text-anchor="middle" x="471.5" y="-174.5" font-family="Helvetica,sans-Serif" font-size="10.00">boost/describe/class.hpp</text>
</a>
</g>
</g>
<!-- Node2&#45;&gt;Node26 -->
<g id="edge27_Node000002_Node000026" class="edge">
<title>Node2&#45;&gt;Node26</title>
<g id="a_edge27_Node000002_Node000026"><a xlink:title=" ">
<path fill="none" stroke="#63b8ff" d="M471.5,-229.62C471.5,-221.56 471.5,-209.65 471.5,-199.41"/>
<polygon fill="#63b8ff" stroke="#63b8ff" points="475,-199.63 471.5,-189.63 468,-199.63 475,-199.63"/>
</a>
</g>
</g>
<!-- Node27 -->
<g id="Node000027" class="node">
<title>Node27</title>
<g id="a_Node000027"><a xlink:title=" ">
<polygon fill="#e0e0e0" stroke="#999999" points="595,-188 552,-188 552,-168 595,-168 595,-188"/>
<text xml:space="preserve" text-anchor="middle" x="573.5" y="-174.5" font-family="Helvetica,sans-Serif" font-size="10.00">vector</text>
</a>
</g>
</g>
<!-- Node2&#45;&gt;Node27 -->
<g id="edge29_Node000002_Node000027" class="edge">
<title>Node2&#45;&gt;Node27</title>
<g id="a_edge29_Node000002_Node000027"><a xlink:title=" ">
<path fill="none" stroke="#63b8ff" d="M487.44,-229.62C503.61,-220.11 528.89,-205.24 547.87,-194.08"/>
<polygon fill="#63b8ff" stroke="#63b8ff" points="549.53,-197.16 556.37,-189.08 545.98,-191.13 549.53,-197.16"/>
</a>
</g>
</g>
<!-- Node4 -->
<g id="Node000004" class="node">
<title>Node4</title>
<g id="a_Node000004"><a xlink:href="log_8hpp.html" target="_top" xlink:title=" ">
<polygon fill="white" stroke="#666666" points="1139.88,-132 1021.12,-132 1021.12,-112 1139.88,-112 1139.88,-132"/>
<text xml:space="preserve" text-anchor="middle" x="1080.5" y="-118.5" font-family="Helvetica,sans-Serif" font-size="10.00">core/application/log.hpp</text>
</a>
</g>
</g>
<!-- Node3&#45;&gt;Node4 -->
<g id="edge3_Node000003_Node000004" class="edge">
<title>Node3&#45;&gt;Node4</title>
<g id="a_edge3_Node000003_Node000004"><a xlink:title=" ">
<path fill="none" stroke="#63b8ff" d="M795.99,-167.53C855.6,-158.2 946.66,-143.95 1009.63,-134.09"/>
<polygon fill="#63b8ff" stroke="#63b8ff" points="1009.82,-137.6 1019.16,-132.6 1008.74,-130.69 1009.82,-137.6"/>
</a>
</g>
</g>
<!-- Node10 -->
<g id="Node000010" class="node">
<title>Node10</title>
<g id="a_Node000010"><a xlink:href="singleton_8hpp.html" target="_top" xlink:title=" ">
<polygon fill="white" stroke="#666666" points="707.5,-132 607.5,-132 607.5,-112 707.5,-112 707.5,-132"/>
<text xml:space="preserve" text-anchor="middle" x="657.5" y="-118.5" font-family="Helvetica,sans-Serif" font-size="10.00">utility/singleton.hpp</text>
</a>
</g>
</g>
<!-- Node3&#45;&gt;Node10 -->
<g id="edge10_Node000003_Node000010" class="edge">
<title>Node3&#45;&gt;Node10</title>
<g id="a_edge10_Node000003_Node000010"><a xlink:title=" ">
<path fill="none" stroke="#63b8ff" d="M721.91,-167.59C710.46,-159.67 693.84,-148.16 680.34,-138.82"/>
<polygon fill="#63b8ff" stroke="#63b8ff" points="682.65,-136.16 672.44,-133.34 678.67,-141.91 682.65,-136.16"/>
</a>
</g>
</g>
<!-- Node12 -->
<g id="Node000012" class="node">
<title>Node12</title>
<g id="a_Node000012"><a xlink:title=" ">
<polygon fill="#e0e0e0" stroke="#999999" points="756.12,-76 704.88,-76 704.88,-56 756.12,-56 756.12,-76"/>
<text xml:space="preserve" text-anchor="middle" x="730.5" y="-62.5" font-family="Helvetica,sans-Serif" font-size="10.00">memory</text>
</a>
</g>
</g>
<!-- Node3&#45;&gt;Node12 -->
<g id="edge16_Node000003_Node000012" class="edge">
<title>Node3&#45;&gt;Node12</title>
<g id="a_edge16_Node000003_Node000012"><a xlink:title=" ">
<path fill="none" stroke="#63b8ff" d="M735.07,-167.62C734.27,-150.01 732.53,-111.59 731.44,-87.65"/>
<polygon fill="#63b8ff" stroke="#63b8ff" points="734.94,-87.7 730.99,-77.87 727.95,-88.02 734.94,-87.7"/>
</a>
</g>
</g>
<!-- Node3&#45;&gt;Node14 -->
<g id="edge14_Node000003_Node000014" class="edge">
<title>Node3&#45;&gt;Node14</title>
<g id="a_edge14_Node000003_Node000014"><a xlink:title=" ">
<path fill="none" stroke="#63b8ff" d="M701.53,-167.59C669.43,-158.71 621.06,-145.31 585.71,-135.52"/>
<polygon fill="#63b8ff" stroke="#63b8ff" points="586.76,-132.18 576.19,-132.88 584.89,-138.93 586.76,-132.18"/>
</a>
</g>
</g>
<!-- Node3&#45;&gt;Node15 -->
<g id="edge15_Node000003_Node000015" class="edge">
<title>Node3&#45;&gt;Node15</title>
<g id="a_edge15_Node000003_Node000015"><a xlink:title=" ">
<path fill="none" stroke="#63b8ff" d="M676.78,-167.52C627.9,-159.41 556.21,-147.02 484.9,-132.41"/>
<polygon fill="#63b8ff" stroke="#63b8ff" points="485.91,-129.04 475.4,-130.45 484.49,-135.9 485.91,-129.04"/>
</a>
</g>
</g>
<!-- Node16 -->
<g id="Node000016" class="node">
<title>Node16</title>
<g id="a_Node000016"><a xlink:title=" ">
<polygon fill="#e0e0e0" stroke="#999999" points="841.25,-132 763.75,-132 763.75,-112 841.25,-112 841.25,-132"/>
<text xml:space="preserve" text-anchor="middle" x="802.5" y="-118.5" font-family="Helvetica,sans-Serif" font-size="10.00">shared_mutex</text>
</a>
</g>
</g>
<!-- Node3&#45;&gt;Node16 -->
<g id="edge17_Node000003_Node000016" class="edge">
<title>Node3&#45;&gt;Node16</title>
<g id="a_edge17_Node000003_Node000016"><a xlink:title=" ">
<path fill="none" stroke="#63b8ff" d="M747.17,-167.59C756.78,-159.85 770.63,-148.69 782.07,-139.47"/>
<polygon fill="#63b8ff" stroke="#63b8ff" points="784.2,-142.25 789.78,-133.25 779.8,-136.8 784.2,-142.25"/>
</a>
</g>
</g>
<!-- Node17 -->
<g id="Node000017" class="node">
<title>Node17</title>
<g id="a_Node000017"><a xlink:title=" ">
<polygon fill="#e0e0e0" stroke="#999999" points="902,-132 859,-132 859,-112 902,-112 902,-132"/>
<text xml:space="preserve" text-anchor="middle" x="880.5" y="-118.5" font-family="Helvetica,sans-Serif" font-size="10.00">thread</text>
</a>
</g>
</g>
<!-- Node3&#45;&gt;Node17 -->
<g id="edge18_Node000003_Node000017" class="edge">
<title>Node3&#45;&gt;Node17</title>
<g id="a_edge18_Node000003_Node000017"><a xlink:title=" ">
<path fill="none" stroke="#63b8ff" d="M760.76,-167.59C785.04,-158.55 821.84,-144.85 848.23,-135.02"/>
<polygon fill="#63b8ff" stroke="#63b8ff" points="849.27,-138.36 857.42,-131.59 846.83,-131.8 849.27,-138.36"/>
</a>
</g>
</g>
<!-- Node18 -->
<g id="Node000018" class="node">
<title>Node18</title>
<g id="a_Node000018"><a xlink:title=" ">
<polygon fill="#e0e0e0" stroke="#999999" points="1002.88,-132 920.12,-132 920.12,-112 1002.88,-112 1002.88,-132"/>
<text xml:space="preserve" text-anchor="middle" x="961.5" y="-118.5" font-family="Helvetica,sans-Serif" font-size="10.00">unordered_map</text>
</a>
</g>
</g>
<!-- Node3&#45;&gt;Node18 -->
<g id="edge19_Node000003_Node000018" class="edge">
<title>Node3&#45;&gt;Node18</title>
<g id="a_edge19_Node000003_Node000018"><a xlink:title=" ">
<path fill="none" stroke="#63b8ff" d="M775.12,-167.53C812.85,-158.52 869.79,-144.91 910.8,-135.11"/>
<polygon fill="#63b8ff" stroke="#63b8ff" points="911.54,-138.54 920.45,-132.81 909.91,-131.73 911.54,-138.54"/>
</a>
</g>
</g>
<!-- Node5 -->
<g id="Node000005" class="node">
<title>Node5</title>
<g id="a_Node000005"><a xlink:title=" ">
<polygon fill="#e0e0e0" stroke="#999999" points="1052.25,-76 998.75,-76 998.75,-56 1052.25,-56 1052.25,-76"/>
<text xml:space="preserve" text-anchor="middle" x="1025.5" y="-62.5" font-family="Helvetica,sans-Serif" font-size="10.00">iostream</text>
</a>
</g>
</g>
<!-- Node4&#45;&gt;Node5 -->
<g id="edge4_Node000004_Node000005" class="edge">
<title>Node4&#45;&gt;Node5</title>
<g id="a_edge4_Node000004_Node000005"><a xlink:title=" ">
<path fill="none" stroke="#63b8ff" d="M1070.92,-111.59C1063.27,-104.08 1052.34,-93.35 1043.12,-84.3"/>
<polygon fill="#63b8ff" stroke="#63b8ff" points="1045.64,-81.87 1036.05,-77.36 1040.73,-86.86 1045.64,-81.87"/>
</a>
</g>
</g>
<!-- Node6 -->
<g id="Node000006" class="node">
<title>Node6</title>
<g id="a_Node000006"><a xlink:title=" ">
<polygon fill="#e0e0e0" stroke="#999999" points="1115.62,-20 1031.38,-20 1031.38,0 1115.62,0 1115.62,-20"/>
<text xml:space="preserve" text-anchor="middle" x="1073.5" y="-6.5" font-family="Helvetica,sans-Serif" font-size="10.00">source_location</text>
</a>
</g>
</g>
<!-- Node4&#45;&gt;Node6 -->
<g id="edge5_Node000004_Node000006" class="edge">
<title>Node4&#45;&gt;Node6</title>
<g id="a_edge5_Node000004_Node000006"><a xlink:title=" ">
<path fill="none" stroke="#63b8ff" d="M1079.9,-111.62C1078.78,-94.01 1076.34,-55.59 1074.81,-31.65"/>
<polygon fill="#63b8ff" stroke="#63b8ff" points="1078.32,-31.62 1074.19,-21.87 1071.33,-32.07 1078.32,-31.62"/>
</a>
</g>
</g>
<!-- Node7 -->
<g id="Node000007" class="node">
<title>Node7</title>
<g id="a_Node000007"><a xlink:href="log_2log_8hpp.html" target="_top" xlink:title=" ">
<polygon fill="white" stroke="#666666" points="1185.12,-76 1121.88,-76 1121.88,-56 1185.12,-56 1185.12,-76"/>
<text xml:space="preserve" text-anchor="middle" x="1153.5" y="-62.5" font-family="Helvetica,sans-Serif" font-size="10.00">log/log.hpp</text>
</a>
</g>
</g>
<!-- Node4&#45;&gt;Node7 -->
<g id="edge6_Node000004_Node000007" class="edge">
<title>Node4&#45;&gt;Node7</title>
<g id="a_edge6_Node000004_Node000007"><a xlink:title=" ">
<path fill="none" stroke="#63b8ff" d="M1093.22,-111.59C1103.89,-103.7 1119.38,-92.24 1131.98,-82.92"/>
<polygon fill="#63b8ff" stroke="#63b8ff" points="1133.76,-85.96 1139.71,-77.2 1129.59,-80.33 1133.76,-85.96"/>
</a>
</g>
</g>
<!-- Node7&#45;&gt;Node6 -->
<g id="edge8_Node000007_Node000006" class="edge">
<title>Node7&#45;&gt;Node6</title>
<g id="a_edge8_Node000007_Node000006"><a xlink:title=" ">
<path fill="none" stroke="#63b8ff" d="M1139.57,-55.59C1127.82,-47.67 1110.77,-36.16 1096.93,-26.82"/>
<polygon fill="#63b8ff" stroke="#63b8ff" points="1099.04,-24.02 1088.8,-21.33 1095.13,-29.82 1099.04,-24.02"/>
</a>
</g>
</g>
<!-- Node8 -->
<g id="Node000008" class="node">
<title>Node8</title>
<g id="a_Node000008"><a xlink:title=" ">
<polygon fill="#e0e0e0" stroke="#999999" points="1185.12,-20 1133.88,-20 1133.88,0 1185.12,0 1185.12,-20"/>
<text xml:space="preserve" text-anchor="middle" x="1159.5" y="-6.5" font-family="Helvetica,sans-Serif" font-size="10.00">ostream</text>
</a>
</g>
</g>
<!-- Node7&#45;&gt;Node8 -->
<g id="edge7_Node000007_Node000008" class="edge">
<title>Node7&#45;&gt;Node8</title>
<g id="a_edge7_Node000007_Node000008"><a xlink:title=" ">
<path fill="none" stroke="#63b8ff" d="M1154.55,-55.59C1155.28,-49.01 1156.28,-39.96 1157.2,-31.73"/>
<polygon fill="#63b8ff" stroke="#63b8ff" points="1160.67,-32.13 1158.3,-21.8 1153.72,-31.35 1160.67,-32.13"/>
</a>
</g>
</g>
<!-- Node9 -->
<g id="Node000009" class="node">
<title>Node9</title>
<g id="a_Node000009"><a xlink:title=" ">
<polygon fill="#e0e0e0" stroke="#999999" points="1254.12,-20 1202.88,-20 1202.88,0 1254.12,0 1254.12,-20"/>
<text xml:space="preserve" text-anchor="middle" x="1228.5" y="-6.5" font-family="Helvetica,sans-Serif" font-size="10.00">sstream</text>
</a>
</g>
</g>
<!-- Node7&#45;&gt;Node9 -->
<g id="edge9_Node000007_Node000009" class="edge">
<title>Node7&#45;&gt;Node9</title>
<g id="a_edge9_Node000007_Node000009"><a xlink:title=" ">
<path fill="none" stroke="#63b8ff" d="M1166.56,-55.59C1177.47,-47.74 1193.25,-36.38 1206.16,-27.09"/>
<polygon fill="#63b8ff" stroke="#63b8ff" points="1208.04,-30.05 1214.11,-21.36 1203.95,-24.37 1208.04,-30.05"/>
</a>
</g>
</g>
<!-- Node11 -->
<g id="Node000011" class="node">
<title>Node11</title>
<g id="a_Node000011"><a xlink:title=" ">
<polygon fill="#e0e0e0" stroke="#999999" points="683.62,-76 635.38,-76 635.38,-56 683.62,-56 683.62,-76"/>
<text xml:space="preserve" text-anchor="middle" x="659.5" y="-62.5" font-family="Helvetica,sans-Serif" font-size="10.00">cassert</text>
</a>
</g>
</g>
<!-- Node10&#45;&gt;Node11 -->
<g id="edge11_Node000010_Node000011" class="edge">
<title>Node10&#45;&gt;Node11</title>
<g id="a_edge11_Node000010_Node000011"><a xlink:title=" ">
<path fill="none" stroke="#63b8ff" d="M657.85,-111.59C658.09,-105.01 658.43,-95.96 658.73,-87.73"/>
<polygon fill="#63b8ff" stroke="#63b8ff" points="662.23,-87.93 659.1,-77.81 655.23,-87.67 662.23,-87.93"/>
</a>
</g>
</g>
<!-- Node10&#45;&gt;Node12 -->
<g id="edge12_Node000010_Node000012" class="edge">
<title>Node10&#45;&gt;Node12</title>
<g id="a_edge12_Node000010_Node000012"><a xlink:title=" ">
<path fill="none" stroke="#63b8ff" d="M670.22,-111.59C680.89,-103.7 696.38,-92.24 708.98,-82.92"/>
<polygon fill="#63b8ff" stroke="#63b8ff" points="710.76,-85.96 716.71,-77.2 706.59,-80.33 710.76,-85.96"/>
</a>
</g>
</g>
<!-- Node13 -->
<g id="Node000013" class="node">
<title>Node13</title>
<g id="a_Node000013"><a xlink:title=" ">
<polygon fill="#e0e0e0" stroke="#999999" points="617,-76 574,-76 574,-56 617,-56 617,-76"/>
<text xml:space="preserve" text-anchor="middle" x="595.5" y="-62.5" font-family="Helvetica,sans-Serif" font-size="10.00">mutex</text>
</a>
</g>
</g>
<!-- Node10&#45;&gt;Node13 -->
<g id="edge13_Node000010_Node000013" class="edge">
<title>Node10&#45;&gt;Node13</title>
<g id="a_edge13_Node000010_Node000013"><a xlink:title=" ">
<path fill="none" stroke="#63b8ff" d="M646.7,-111.59C637.9,-103.93 625.25,-92.91 614.73,-83.75"/>
<polygon fill="#63b8ff" stroke="#63b8ff" points="617.16,-81.22 607.32,-77.29 612.56,-86.5 617.16,-81.22"/>
</a>
</g>
</g>
<!-- Node20 -->
<g id="Node000020" class="node">
<title>Node20</title>
<g id="a_Node000020"><a xlink:title=" ">
<polygon fill="#e0e0e0" stroke="#999999" points="293.75,-132 195.25,-132 195.25,-112 293.75,-112 293.75,-132"/>
<text xml:space="preserve" text-anchor="middle" x="244.5" y="-118.5" font-family="Helvetica,sans-Serif" font-size="10.00">boost/describe.hpp</text>
</a>
</g>
</g>
<!-- Node19&#45;&gt;Node20 -->
<g id="edge21_Node000019_Node000020" class="edge">
<title>Node19&#45;&gt;Node20</title>
<g id="a_edge21_Node000019_Node000020"><a xlink:title=" ">
<path fill="none" stroke="#63b8ff" d="M208.16,-167.59C214.09,-160.32 222.49,-150.02 229.71,-141.15"/>
<polygon fill="#63b8ff" stroke="#63b8ff" points="232.36,-143.43 235.97,-133.47 226.94,-139.01 232.36,-143.43"/>
</a>
</g>
</g>
<!-- Node21 -->
<g id="Node000021" class="node">
<title>Node21</title>
<g id="a_Node000021"><a xlink:title=" ">
<polygon fill="#e0e0e0" stroke="#999999" points="397,-132 312,-132 312,-112 397,-112 397,-132"/>
<text xml:space="preserve" text-anchor="middle" x="354.5" y="-118.5" font-family="Helvetica,sans-Serif" font-size="10.00">boost/mp11.hpp</text>
</a>
</g>
</g>
<!-- Node19&#45;&gt;Node21 -->
<g id="edge22_Node000019_Node000021" class="edge">
<title>Node19&#45;&gt;Node21</title>
<g id="a_edge22_Node000019_Node000021"><a xlink:title=" ">
<path fill="none" stroke="#63b8ff" d="M225.93,-168.08C250.67,-159.41 288.55,-146.13 316.79,-136.22"/>
<polygon fill="#63b8ff" stroke="#63b8ff" points="317.77,-139.59 326.05,-132.98 315.45,-132.98 317.77,-139.59"/>
</a>
</g>
</g>
<!-- Node22 -->
<g id="Node000022" class="node">
<title>Node22</title>
<g id="a_Node000022"><a xlink:title=" ">
<polygon fill="#e0e0e0" stroke="#999999" points="177,-132 134,-132 134,-112 177,-112 177,-132"/>
<text xml:space="preserve" text-anchor="middle" x="155.5" y="-118.5" font-family="Helvetica,sans-Serif" font-size="10.00">cmath</text>
</a>
</g>
</g>
<!-- Node19&#45;&gt;Node22 -->
<g id="edge23_Node000019_Node000022" class="edge">
<title>Node19&#45;&gt;Node22</title>
<g id="a_edge23_Node000019_Node000022"><a xlink:title=" ">
<path fill="none" stroke="#63b8ff" d="M192.66,-167.59C186.53,-160.24 177.83,-149.8 170.39,-140.87"/>
<polygon fill="#63b8ff" stroke="#63b8ff" points="173.31,-138.9 164.22,-133.46 167.93,-143.38 173.31,-138.9"/>
</a>
</g>
</g>
<!-- Node23 -->
<g id="Node000023" class="node">
<title>Node23</title>
<g id="a_Node000023"><a xlink:title=" ">
<polygon fill="#e0e0e0" stroke="#999999" points="37,-132 0,-132 0,-112 37,-112 37,-132"/>
<text xml:space="preserve" text-anchor="middle" x="18.5" y="-118.5" font-family="Helvetica,sans-Serif" font-size="10.00">tuple</text>
</a>
</g>
</g>
<!-- Node19&#45;&gt;Node23 -->
<g id="edge24_Node000019_Node000023" class="edge">
<title>Node19&#45;&gt;Node23</title>
<g id="a_edge24_Node000019_Node000023"><a xlink:title=" ">
<path fill="none" stroke="#63b8ff" d="M174.9,-169.9C146.2,-161.87 98.02,-148.17 48.31,-132.8"/>
<polygon fill="#63b8ff" stroke="#63b8ff" points="49.39,-129.47 38.8,-129.84 47.31,-136.15 49.39,-129.47"/>
</a>
</g>
</g>
<!-- Node24 -->
<g id="Node000024" class="node">
<title>Node24</title>
<g id="a_Node000024"><a xlink:title=" ">
<polygon fill="#e0e0e0" stroke="#999999" points="116.38,-132 54.62,-132 54.62,-112 116.38,-112 116.38,-132"/>
<text xml:space="preserve" text-anchor="middle" x="85.5" y="-118.5" font-family="Helvetica,sans-Serif" font-size="10.00">type_traits</text>
</a>
</g>
</g>
<!-- Node19&#45;&gt;Node24 -->
<g id="edge25_Node000019_Node000024" class="edge">
<title>Node19&#45;&gt;Node24</title>
<g id="a_edge25_Node000019_Node000024"><a xlink:title=" ">
<path fill="none" stroke="#63b8ff" d="M180.47,-167.59C162.69,-159.24 136.43,-146.92 116.04,-137.34"/>
<polygon fill="#63b8ff" stroke="#63b8ff" points="117.6,-134.21 107.06,-133.12 114.62,-140.54 117.6,-134.21"/>
</a>
</g>
</g>
</g>
</svg>
