<?xml version="1.0" encoding="UTF-8" standalone="no"?>
<!DOCTYPE svg PUBLIC "-//W3C//DTD SVG 1.1//EN"
 "http://www.w3.org/Graphics/SVG/1.1/DTD/svg11.dtd">
<!-- Generated by graphviz version 14.1.2 (20260124.0452)
 -->
<!-- Title: depicture_menu/src/core/cs_binding/observer/changed_value.hpp Pages: 1 -->
<svg width="145pt" height="164pt"
 viewBox="0.00 0.00 145.00 164.00" xmlns="http://www.w3.org/2000/svg" xmlns:xlink="http://www.w3.org/1999/xlink">
<g id="graph0" class="graph" transform="scale(1 1) rotate(0) translate(4 160)">
<title>depicture_menu/src/core/cs_binding/observer/changed_value.hpp</title>
<!-- Node1 -->
<g id="Node000001" class="node">
<title>Node1</title>
<g id="a_Node000001"><a xlink:title=" ">
<polygon fill="#999999" stroke="#666666" points="130.38,-156 2.62,-156 2.62,-112 130.38,-112 130.38,-156"/>
<text xml:space="preserve" text-anchor="start" x="10.62" y="-142.5" font-family="Helvetica,sans-Serif" font-size="10.00">depicture_menu/src</text>
<text xml:space="preserve" text-anchor="start" x="10.62" y="-130.5" font-family="Helvetica,sans-Serif" font-size="10.00">/core/cs_binding/observer</text>
<text xml:space="preserve" text-anchor="middle" x="66.5" y="-118.5" font-family="Helvetica,sans-Serif" font-size="10.00">/changed_value.hpp</text>
</a>
</g>
</g>
<!-- Node2 -->
<g id="Node000002" class="node">
<title>Node2</title>
<g id="a_Node000002"><a xlink:href="constexpr__string_8hpp.html" target="_top" xlink:title=" ">
<polygon fill="white" stroke="#666666" points="133,-76 0,-76 0,-56 133,-56 133,-76"/>
<text xml:space="preserve" text-anchor="middle" x="66.5" y="-62.5" font-family="Helvetica,sans-Serif" font-size="10.00">utility/constexpr_string.hpp</text>
</a>
</g>
</g>
<!-- Node1&#45;&gt;Node2 -->
<g id="edge1_Node000001_Node000002" class="edge">
<title>Node1&#45;&gt;Node2</title>
<g id="a_edge1_Node000001_Node000002"><a xlink:title=" ">
<path fill="none" stroke="#63b8ff" d="M66.5,-111.75C66.5,-104.13 66.5,-95.53 66.5,-87.93"/>
<polygon fill="#63b8ff" stroke="#63b8ff" points="70,-87.93 66.5,-77.93 63,-87.93 70,-87.93"/>
</a>
</g>
</g>
<!-- Node3 -->
<g id="Node000003" class="node">
<title>Node3</title>
<g id="a_Node000003"><a xlink:title=" ">
<polygon fill="#e0e0e0" stroke="#999999" points="53.62,-20 5.38,-20 5.38,0 53.62,0 53.62,-20"/>
<text xml:space="preserve" text-anchor="middle" x="29.5" y="-6.5" font-family="Helvetica,sans-Serif" font-size="10.00">cstddef</text>
</a>
</g>
</g>
<!-- Node2&#45;&gt;Node3 -->
<g id="edge2_Node000002_Node000003" class="edge">
<title>Node2&#45;&gt;Node3</title>
<g id="a_edge2_Node000002_Node000003"><a xlink:title=" ">
<path fill="none" stroke="#63b8ff" d="M60.06,-55.59C55.17,-48.47 48.31,-38.45 42.32,-29.72"/>
<polygon fill="#63b8ff" stroke="#63b8ff" points="45.27,-27.82 36.73,-21.55 39.49,-31.77 45.27,-27.82"/>
</a>
</g>
</g>
<!-- Node4 -->
<g id="Node000004" class="node">
<title>Node4</title>
<g id="a_Node000004"><a xlink:title=" ">
<polygon fill="#e0e0e0" stroke="#999999" points="137.25,-20 71.75,-20 71.75,0 137.25,0 137.25,-20"/>
<text xml:space="preserve" text-anchor="middle" x="104.5" y="-6.5" font-family="Helvetica,sans-Serif" font-size="10.00">string_view</text>
</a>
</g>
</g>
<!-- Node2&#45;&gt;Node4 -->
<g id="edge3_Node000002_Node000004" class="edge">
<title>Node2&#45;&gt;Node4</title>
<g id="a_edge3_Node000002_Node000004"><a xlink:title=" ">
<path fill="none" stroke="#63b8ff" d="M73.12,-55.59C78.19,-48.39 85.34,-38.23 91.53,-29.43"/>
<polygon fill="#63b8ff" stroke="#63b8ff" points="94.19,-31.73 97.09,-21.54 88.47,-27.7 94.19,-31.73"/>
</a>
</g>
</g>
</g>
</svg>
