<?xml version="1.0" encoding="UTF-8" standalone="no"?>
<!DOCTYPE svg PUBLIC "-//W3C//DTD SVG 1.1//EN"
 "http://www.w3.org/Graphics/SVG/1.1/DTD/svg11.dtd">
<!-- Generated by graphviz version 14.1.2 (20260124.0452)
 -->
<!-- Title: depicture_menu::usecase::backup::export_backup::done_export Pages: 1 -->
<svg width="478pt" height="214pt"
 viewBox="0.00 0.00 478.00 214.00" xmlns="http://www.w3.org/2000/svg" xmlns:xlink="http://www.w3.org/1999/xlink">
<g id="graph0" class="graph" transform="scale(1 1) rotate(0) translate(4 210)">
<title>depicture_menu::usecase::backup::export_backup::done_export</title>
<!-- Node1 -->
<g id="Node000001" class="node">
<title>Node1</title>
<g id="a_Node000001"><a xlink:title=" ">
<polygon fill="#999999" stroke="#666666" points="127.75,-116 0,-116 0,-72 127.75,-72 127.75,-116"/>
<text xml:space="preserve" text-anchor="start" x="8" y="-102.5" font-family="Helvetica,sans-Serif" font-size="10.00">depicture_menu::usecase</text>
<text xml:space="preserve" text-anchor="start" x="8" y="-90.5" font-family="Helvetica,sans-Serif" font-size="10.00">::backup::export_backup</text>
<text xml:space="preserve" text-anchor="middle" x="63.88" y="-78.5" font-family="Helvetica,sans-Serif" font-size="10.00">::done_export</text>
</a>
</g>
</g>
<!-- Node2 -->
<g id="Node000002" class="node">
<title>Node2</title>
<g id="a_Node000002"><a xlink:href="namespacedepicture__menu_1_1usecase_1_1backup.html#aa119e67f0ce64b2f8e57e6b634f686fa" target="_top" xlink:title=" ">
<polygon fill="white" stroke="#666666" points="300.5,-138 163.75,-138 163.75,-106 300.5,-106 300.5,-138"/>
<text xml:space="preserve" text-anchor="start" x="171.75" y="-124.5" font-family="Helvetica,sans-Serif" font-size="10.00">depicture_menu::usecase</text>
<text xml:space="preserve" text-anchor="middle" x="232.12" y="-112.5" font-family="Helvetica,sans-Serif" font-size="10.00">::backup::create_config_dto</text>
</a>
</g>
</g>
<!-- Node1&#45;&gt;Node2 -->
<g id="edge1_Node000001_Node000002" class="edge">
<title>Node1&#45;&gt;Node2</title>
<g id="a_edge1_Node000001_Node000002"><a xlink:title=" ">
<path fill="none" stroke="#63b8ff" d="M128.2,-104.67C136,-105.98 144.04,-107.33 152.03,-108.68"/>
<polygon fill="#63b8ff" stroke="#63b8ff" points="151.33,-112.11 161.78,-110.32 152.5,-105.21 151.33,-112.11"/>
</a>
</g>
</g>
<!-- Node5 -->
<g id="Node000005" class="node">
<title>Node5</title>
<g id="a_Node000005"><a xlink:href="namespacedepicture__menu_1_1usecase_1_1backup.html#a34f9b01423306e939c9d3fe23ccb8cc8" target="_top" xlink:title=" ">
<polygon fill="white" stroke="#666666" points="300.5,-82 163.75,-82 163.75,-50 300.5,-50 300.5,-82"/>
<text xml:space="preserve" text-anchor="start" x="171.75" y="-68.5" font-family="Helvetica,sans-Serif" font-size="10.00">depicture_menu::usecase</text>
<text xml:space="preserve" text-anchor="middle" x="232.12" y="-56.5" font-family="Helvetica,sans-Serif" font-size="10.00">::backup::create_option_dto</text>
</a>
</g>
</g>
<!-- Node1&#45;&gt;Node5 -->
<g id="edge4_Node000001_Node000005" class="edge">
<title>Node1&#45;&gt;Node5</title>
<g id="a_edge4_Node000001_Node000005"><a xlink:title=" ">
<path fill="none" stroke="#63b8ff" d="M128.2,-83.33C136,-82.02 144.04,-80.67 152.03,-79.32"/>
<polygon fill="#63b8ff" stroke="#63b8ff" points="152.5,-82.79 161.78,-77.68 151.33,-75.89 152.5,-82.79"/>
</a>
</g>
</g>
<!-- Node3 -->
<g id="Node000003" class="node">
<title>Node3</title>
<g id="a_Node000003"><a xlink:href="structdepicture__menu_1_1domain_1_1models_1_1base_1_1entity__base.html#adce587e64220cc3a3407233c1fc61ba4" target="_top" xlink:title=" ">
<polygon fill="white" stroke="#666666" points="466.12,-206 340.62,-206 340.62,-162 466.12,-162 466.12,-206"/>
<text xml:space="preserve" text-anchor="start" x="348.62" y="-192.5" font-family="Helvetica,sans-Serif" font-size="10.00">depicture_menu::domain</text>
<text xml:space="preserve" text-anchor="start" x="348.62" y="-180.5" font-family="Helvetica,sans-Serif" font-size="10.00">::models::base::entity</text>
<text xml:space="preserve" text-anchor="middle" x="403.38" y="-168.5" font-family="Helvetica,sans-Serif" font-size="10.00">_base&lt; V, ID &gt;::entity_id</text>
</a>
</g>
</g>
<!-- Node2&#45;&gt;Node3 -->
<g id="edge2_Node000002_Node000003" class="edge">
<title>Node2&#45;&gt;Node3</title>
<g id="a_edge2_Node000002_Node000003"><a xlink:title=" ">
<path fill="none" stroke="#63b8ff" d="M278.04,-138.45C294.09,-144.33 312.61,-151.12 330.37,-157.62"/>
<polygon fill="#63b8ff" stroke="#63b8ff" points="328.99,-160.84 339.58,-161 331.39,-154.27 328.99,-160.84"/>
</a>
</g>
</g>
<!-- Node4 -->
<g id="Node000004" class="node">
<title>Node4</title>
<g id="a_Node000004"><a xlink:href="classdepicture__menu_1_1domain_1_1app_1_1config.html#aa58dfc16ed99e7aeeffa6c9015b6f846" target="_top" xlink:title=" ">
<polygon fill="white" stroke="#666666" points="465.38,-144 341.38,-144 341.38,-100 465.38,-100 465.38,-144"/>
<text xml:space="preserve" text-anchor="start" x="349.38" y="-130.5" font-family="Helvetica,sans-Serif" font-size="10.00">depicture_menu::domain</text>
<text xml:space="preserve" text-anchor="start" x="349.38" y="-118.5" font-family="Helvetica,sans-Serif" font-size="10.00">::app::config::get_default</text>
<text xml:space="preserve" text-anchor="middle" x="403.38" y="-106.5" font-family="Helvetica,sans-Serif" font-size="10.00">_menu_id</text>
</a>
</g>
</g>
<!-- Node2&#45;&gt;Node4 -->
<g id="edge3_Node000002_Node000004" class="edge">
<title>Node2&#45;&gt;Node4</title>
<g id="a_edge3_Node000002_Node000004"><a xlink:title=" ">
<path fill="none" stroke="#63b8ff" d="M300.99,-122C310.41,-122 320.11,-122 329.61,-122"/>
<polygon fill="#63b8ff" stroke="#63b8ff" points="329.55,-125.5 339.55,-122 329.55,-118.5 329.55,-125.5"/>
</a>
</g>
</g>
<!-- Node6 -->
<g id="Node000006" class="node">
<title>Node6</title>
<g id="a_Node000006"><a xlink:href="classdepicture__menu_1_1domain_1_1app_1_1option.html#a477a2efdc14d96dfc78b648c774e039e" target="_top" xlink:title=" ">
<polygon fill="white" stroke="#666666" points="464.62,-82 342.12,-82 342.12,-50 464.62,-50 464.62,-82"/>
<text xml:space="preserve" text-anchor="start" x="350.12" y="-68.5" font-family="Helvetica,sans-Serif" font-size="10.00">depicture_menu::domain</text>
<text xml:space="preserve" text-anchor="middle" x="403.38" y="-56.5" font-family="Helvetica,sans-Serif" font-size="10.00">::app::option::entity_id</text>
</a>
</g>
</g>
<!-- Node5&#45;&gt;Node6 -->
<g id="edge5_Node000005_Node000006" class="edge">
<title>Node5&#45;&gt;Node6</title>
<g id="a_edge5_Node000005_Node000006"><a xlink:title=" ">
<path fill="none" stroke="#63b8ff" d="M300.99,-66C310.71,-66 320.73,-66 330.52,-66"/>
<polygon fill="#63b8ff" stroke="#63b8ff" points="330.36,-69.5 340.36,-66 330.36,-62.5 330.36,-69.5"/>
</a>
</g>
</g>
<!-- Node7 -->
<g id="Node000007" class="node">
<title>Node7</title>
<g id="a_Node000007"><a xlink:href="classdepicture__menu_1_1domain_1_1app_1_1option.html#a42437b9eb4f756ae9b2d355e37ccadaa" target="_top" xlink:title=" ">
<polygon fill="white" stroke="#666666" points="470.25,-32 336.5,-32 336.5,0 470.25,0 470.25,-32"/>
<text xml:space="preserve" text-anchor="start" x="344.5" y="-18.5" font-family="Helvetica,sans-Serif" font-size="10.00">depicture_menu::domain</text>
<text xml:space="preserve" text-anchor="middle" x="403.38" y="-6.5" font-family="Helvetica,sans-Serif" font-size="10.00">::app::option::get_config_id</text>
</a>
</g>
</g>
<!-- Node5&#45;&gt;Node7 -->
<g id="edge6_Node000005_Node000007" class="edge">
<title>Node5&#45;&gt;Node7</title>
<g id="a_edge6_Node000005_Node000007"><a xlink:title=" ">
<path fill="none" stroke="#63b8ff" d="M288.54,-49.63C303.66,-45.16 320.2,-40.28 335.86,-35.65"/>
<polygon fill="#63b8ff" stroke="#63b8ff" points="336.49,-39.11 345.09,-32.92 334.51,-32.4 336.49,-39.11"/>
</a>
</g>
</g>
</g>
</svg>
