<?xml version="1.0" encoding="UTF-8" standalone="no"?>
<!DOCTYPE svg PUBLIC "-//W3C//DTD SVG 1.1//EN"
 "http://www.w3.org/Graphics/SVG/1.1/DTD/svg11.dtd">
<!-- Generated by graphviz version 14.1.2 (20260124.0452)
 -->
<!-- Title: depicture_menu::domain::services::common_action_builder::build_shellexecute_action Pages: 1 -->
<svg width="560pt" height="155pt"
 viewBox="0.00 0.00 560.00 155.00" xmlns="http://www.w3.org/2000/svg" xmlns:xlink="http://www.w3.org/1999/xlink">
<g id="graph0" class="graph" transform="scale(1 1) rotate(0) translate(4 151)">
<title>depicture_menu::domain::services::common_action_builder::build_shellexecute_action</title>
<!-- Node1 -->
<g id="Node000001" class="node">
<title>Node1</title>
<g id="a_Node000001"><a xlink:title=" ">
<polygon fill="#999999" stroke="#666666" points="167.5,-75 0,-75 0,-31 167.5,-31 167.5,-75"/>
<text xml:space="preserve" text-anchor="start" x="8" y="-61.5" font-family="Helvetica,sans-Serif" font-size="10.00">depicture_menu::domain</text>
<text xml:space="preserve" text-anchor="start" x="8" y="-49.5" font-family="Helvetica,sans-Serif" font-size="10.00">::services::common_action</text>
<text xml:space="preserve" text-anchor="middle" x="83.75" y="-37.5" font-family="Helvetica,sans-Serif" font-size="10.00">_builder::build_shellexecute_action</text>
</a>
</g>
</g>
<!-- Node2 -->
<g id="Node000002" class="node">
<title>Node2</title>
<g id="a_Node000002"><a xlink:href="classdepicture__menu_1_1domain_1_1commands_1_1command.html#ac72d2013f33e2cf2ec17479856ce9188" target="_top" xlink:title=" ">
<polygon fill="white" stroke="#666666" points="348.5,-106 203.5,-106 203.5,-62 348.5,-62 348.5,-106"/>
<text xml:space="preserve" text-anchor="start" x="211.5" y="-92.5" font-family="Helvetica,sans-Serif" font-size="10.00">depicture_menu::domain</text>
<text xml:space="preserve" text-anchor="start" x="211.5" y="-80.5" font-family="Helvetica,sans-Serif" font-size="10.00">::commands::command::build</text>
<text xml:space="preserve" text-anchor="middle" x="276" y="-68.5" font-family="Helvetica,sans-Serif" font-size="10.00">_shellexecute_commnad</text>
</a>
</g>
</g>
<!-- Node1&#45;&gt;Node2 -->
<g id="edge1_Node000001_Node000002" class="edge">
<title>Node1&#45;&gt;Node2</title>
<g id="a_edge1_Node000001_Node000002"><a xlink:title=" ">
<path fill="none" stroke="#63b8ff" d="M167.92,-66.55C175.87,-67.85 183.94,-69.16 191.89,-70.46"/>
<polygon fill="#63b8ff" stroke="#63b8ff" points="191.1,-73.88 201.53,-72.03 192.23,-66.97 191.1,-73.88"/>
</a>
</g>
</g>
<!-- Node5 -->
<g id="Node000005" class="node">
<title>Node5</title>
<g id="a_Node000005"><a xlink:href="classdepicture__menu_1_1domain_1_1actions_1_1v2_1_1publisher.html#ac87ae212e4c608a41c323e825c5de6e2" target="_top" xlink:title=" ">
<polygon fill="white" stroke="#666666" points="337.25,-44 214.75,-44 214.75,0 337.25,0 337.25,-44"/>
<text xml:space="preserve" text-anchor="start" x="222.75" y="-30.5" font-family="Helvetica,sans-Serif" font-size="10.00">depicture_menu::domain</text>
<text xml:space="preserve" text-anchor="start" x="222.75" y="-18.5" font-family="Helvetica,sans-Serif" font-size="10.00">::actions::v2::publisher</text>
<text xml:space="preserve" text-anchor="middle" x="276" y="-6.5" font-family="Helvetica,sans-Serif" font-size="10.00">::set_command_id</text>
</a>
</g>
</g>
<!-- Node1&#45;&gt;Node5 -->
<g id="edge4_Node000001_Node000005" class="edge">
<title>Node1&#45;&gt;Node5</title>
<g id="a_edge4_Node000001_Node000005"><a xlink:title=" ">
<path fill="none" stroke="#63b8ff" d="M167.92,-39.45C179.62,-37.54 191.56,-35.6 203.03,-33.73"/>
<polygon fill="#63b8ff" stroke="#63b8ff" points="203.51,-37.2 212.81,-32.13 202.38,-30.29 203.51,-37.2"/>
</a>
</g>
</g>
<!-- Node3 -->
<g id="Node000003" class="node">
<title>Node3</title>
<g id="a_Node000003"><a xlink:href="classdepicture__menu_1_1domain_1_1commands_1_1command.html#a839dac0564df1708c624f6c713bb6044" target="_top" xlink:title=" ">
<polygon fill="white" stroke="#666666" points="552,-147 384.5,-147 384.5,-115 552,-115 552,-147"/>
<text xml:space="preserve" text-anchor="start" x="392.5" y="-133.5" font-family="Helvetica,sans-Serif" font-size="10.00">depicture_menu::domain</text>
<text xml:space="preserve" text-anchor="middle" x="468.25" y="-121.5" font-family="Helvetica,sans-Serif" font-size="10.00">::commands::command::command</text>
</a>
</g>
</g>
<!-- Node2&#45;&gt;Node3 -->
<g id="edge2_Node000002_Node000003" class="edge">
<title>Node2&#45;&gt;Node3</title>
<g id="a_edge2_Node000002_Node000003"><a xlink:title=" ">
<path fill="none" stroke="#63b8ff" d="M348.93,-101.77C362.16,-105.04 376.03,-108.47 389.43,-111.78"/>
<polygon fill="#63b8ff" stroke="#63b8ff" points="388.54,-115.16 399.08,-114.16 390.22,-108.36 388.54,-115.16"/>
</a>
</g>
</g>
<!-- Node4 -->
<g id="Node000004" class="node">
<title>Node4</title>
<g id="a_Node000004"><a xlink:href="classdepicture__menu_1_1domain_1_1commands_1_1command.html#ac4027c4231af8815cec7ad6fd50cf286" target="_top" xlink:title=" ">
<polygon fill="white" stroke="#666666" points="542.62,-97 393.88,-97 393.88,-65 542.62,-65 542.62,-97"/>
<text xml:space="preserve" text-anchor="start" x="401.88" y="-83.5" font-family="Helvetica,sans-Serif" font-size="10.00">depicture_menu::domain</text>
<text xml:space="preserve" text-anchor="middle" x="468.25" y="-71.5" font-family="Helvetica,sans-Serif" font-size="10.00">::commands::command::name</text>
</a>
</g>
</g>
<!-- Node2&#45;&gt;Node4 -->
<g id="edge3_Node000002_Node000004" class="edge">
<title>Node2&#45;&gt;Node4</title>
<g id="a_edge3_Node000002_Node000004"><a xlink:title=" ">
<path fill="none" stroke="#63b8ff" d="M348.93,-82.87C359.78,-82.69 371.07,-82.52 382.17,-82.34"/>
<polygon fill="#63b8ff" stroke="#63b8ff" points="382.18,-85.84 392.13,-82.18 382.07,-78.84 382.18,-85.84"/>
</a>
</g>
</g>
<!-- Node6 -->
<g id="Node000006" class="node">
<title>Node6</title>
<g id="a_Node000006"><a xlink:href="classdepicture__menu_1_1domain_1_1actions_1_1v2_1_1publisher.html#a0411a8b1aeaa948c4c08b8f2ffc75f0a" target="_top" xlink:title=" ">
<polygon fill="white" stroke="#666666" points="529.5,-44 407,-44 407,0 529.5,0 529.5,-44"/>
<text xml:space="preserve" text-anchor="start" x="415" y="-30.5" font-family="Helvetica,sans-Serif" font-size="10.00">depicture_menu::domain</text>
<text xml:space="preserve" text-anchor="start" x="415" y="-18.5" font-family="Helvetica,sans-Serif" font-size="10.00">::actions::v2::publisher</text>
<text xml:space="preserve" text-anchor="middle" x="468.25" y="-6.5" font-family="Helvetica,sans-Serif" font-size="10.00">::add_command_id</text>
</a>
</g>
</g>
<!-- Node5&#45;&gt;Node6 -->
<g id="edge5_Node000005_Node000006" class="edge">
<title>Node5&#45;&gt;Node6</title>
<g id="a_edge5_Node000005_Node000006"><a xlink:title=" ">
<path fill="none" stroke="#63b8ff" d="M337.72,-22C356.09,-22 376.43,-22 395.45,-22"/>
<polygon fill="#63b8ff" stroke="#63b8ff" points="395.27,-25.5 405.27,-22 395.27,-18.5 395.27,-25.5"/>
</a>
</g>
</g>
</g>
</svg>
