<?xml version="1.0" encoding="UTF-8" standalone="no"?>
<!DOCTYPE svg PUBLIC "-//W3C//DTD SVG 1.1//EN"
 "http://www.w3.org/Graphics/SVG/1.1/DTD/svg11.dtd">
<!-- Generated by graphviz version 14.1.2 (20260124.0452)
 -->
<!-- Title: depicture_menu::domain::actions::v2::publisher::name Pages: 1 -->
<!--zoomable 312 -->

<svg id="main" version="1.1" xmlns="http://www.w3.org/2000/svg" xmlns:xlink="http://www.w3.org/1999/xlink" xml:space="preserve" onload="init(evt)">

<style type="text/css"><![CDATA[
.node, .edge {opacity: 0.7;}
.node.selected, .edge.selected {opacity: 1;}
.edge:hover path { stroke: red; }
.edge:hover polygon { stroke: red; fill: red; }
]]></style>

<defs>
  <circle id="rim" cx="0" cy="0" r="7"/>
  <circle id="rim2" cx="0" cy="0" r="3.5"/>
  <g id="zoomPlus">
    <use xlink:href="#rim" fill="#404040"><set attributeName="fill" to="#808080" begin="zoomplus.mouseover" end="zoomplus.mouseout"/></use>
    <path d="M-4,0h8M0,-4v8" fill="none" stroke="white" stroke-width="1.5" pointer-events="none"/>
  </g>
  <g id="zoomMin">
    <use xlink:href="#rim" fill="#404040"><set attributeName="fill" to="#808080" begin="zoomminus.mouseover" end="zoomminus.mouseout"/></use>
    <path d="M-4,0h8" fill="none" stroke="white" stroke-width="1.5" pointer-events="none"/>
  </g>
  <g id="arrowUp" transform="translate(30 24)">
    <use xlink:href="#rim"/>
    <path pointer-events="none" fill="none" stroke="white" stroke-width="1.5" d="M0,-3.0v7 M-2.5,-0.5L0,-3.0L2.5,-0.5"/>
  </g>
  <g id="arrowRight" transform="rotate(90) translate(36 -43)">
    <use xlink:href="#rim"/>
    <path pointer-events="none" fill="none" stroke="white" stroke-width="1.5" d="M0,-3.0v7 M-2.5,-0.5L0,-3.0L2.5,-0.5"/>
  </g>
  <g id="arrowDown" transform="rotate(180) translate(-30 -48)">
    <use xlink:href="#rim"/>
    <path pointer-events="none" fill="none" stroke="white" stroke-width="1.5" d="M0,-3.0v7 M-2.5,-0.5L0,-3.0L2.5,-0.5"/>
  </g>
  <g id="arrowLeft" transform="rotate(270) translate(-36 17)">
    <use xlink:href="#rim"/>
    <path pointer-events="none" fill="none" stroke="white" stroke-width="1.5" d="M0,-3.0v7 M-2.5,-0.5L0,-3.0L2.5,-0.5"/>
  </g>
  <g id="resetDef">
    <use xlink:href="#rim2" fill="#404040"><set attributeName="fill" to="#808080" begin="reset.mouseover" end="reset.mouseout"/></use>
  </g>
</defs>
<script type="application/ecmascript">
var viewWidth = 544;
var viewHeight = 312;
var sectionId = 'dynsection-12';
</script>
<script type="application/ecmascript" xlink:href="svg.min.js"/>
<svg id="graph" class="graph">
<g id="viewport">
<title>depicture_menu::domain::actions::v2::publisher::name</title>
<!-- Node1 -->
<g id="Node000001" class="node">
<title>Node1</title>
<g id="a_Node000001"><a xlink:title=" ">
<polygon fill="#999999" stroke="#666666" points="536.25,-168 391.25,-168 391.25,-136 536.25,-136 536.25,-168"/>
<text xml:space="preserve" text-anchor="start" x="399.25" y="-154.5" font-family="Helvetica,sans-Serif" font-size="10.00">depicture_menu::domain</text>
<text xml:space="preserve" text-anchor="middle" x="463.75" y="-142.5" font-family="Helvetica,sans-Serif" font-size="10.00">::actions::v2::publisher::name</text>
</a>
</g>
</g>
<!-- Node2 -->
<g id="Node000002" class="node">
<title>Node2</title>
<g id="a_Node000002"><a xlink:href="structdepicture__menu_1_1cs__binding_1_1build__query_1_1actions__query__builder.html#af723fba412b4abc042ec898fc5db2ae8" target="_top" xlink:title=" ">
<polygon fill="white" stroke="#666666" points="329.75,-304 213.25,-304 213.25,-248 329.75,-248 329.75,-304"/>
<text xml:space="preserve" text-anchor="start" x="221.25" y="-290.5" font-family="Helvetica,sans-Serif" font-size="10.00">depicture_menu::cs</text>
<text xml:space="preserve" text-anchor="start" x="221.25" y="-278.5" font-family="Helvetica,sans-Serif" font-size="10.00">_binding::build_query</text>
<text xml:space="preserve" text-anchor="start" x="221.25" y="-266.5" font-family="Helvetica,sans-Serif" font-size="10.00">::actions_query_builder</text>
<text xml:space="preserve" text-anchor="middle" x="271.5" y="-254.5" font-family="Helvetica,sans-Serif" font-size="10.00">::add_action</text>
</a>
</g>
</g>
<!-- Node1&#45;&gt;Node2 -->
<g id="edge1_Node000001_Node000002" class="edge">
<title>Node1&#45;&gt;Node2</title>
<g id="a_edge1_Node000001_Node000002"><a xlink:title=" ">
<path fill="none" stroke="#63b8ff" d="M437.24,-175.85C416.31,-194.59 385.33,-220.54 355.25,-239 347.34,-243.86 338.68,-248.44 330.03,-252.62"/>
<polygon fill="#63b8ff" stroke="#63b8ff" points="439.39,-178.62 444.44,-169.31 434.68,-173.44 439.39,-178.62"/>
</a>
</g>
</g>
<!-- Node3 -->
<g id="Node000003" class="node">
<title>Node3</title>
<g id="a_Node000003"><a xlink:href="namespacedepicture__menu_1_1cs__binding.html#aeab9bc695acb67ff4716c316f6973290" target="_top" xlink:title=" ">
<polygon fill="white" stroke="#666666" points="337.25,-230 205.75,-230 205.75,-198 337.25,-198 337.25,-230"/>
<text xml:space="preserve" text-anchor="start" x="213.75" y="-216.5" font-family="Helvetica,sans-Serif" font-size="10.00">depicture_menu::cs</text>
<text xml:space="preserve" text-anchor="middle" x="271.5" y="-204.5" font-family="Helvetica,sans-Serif" font-size="10.00">_binding::apply_config_arg</text>
</a>
</g>
</g>
<!-- Node1&#45;&gt;Node3 -->
<g id="edge2_Node000001_Node000003" class="edge">
<title>Node1&#45;&gt;Node3</title>
<g id="a_edge2_Node000001_Node000003"><a xlink:title=" ">
<path fill="none" stroke="#63b8ff" d="M405.85,-172.04C389.55,-177.65 371.74,-183.67 355.25,-189 346.4,-191.86 336.98,-194.8 327.79,-197.62"/>
<polygon fill="#63b8ff" stroke="#63b8ff" points="406.58,-175.49 414.88,-168.91 404.29,-168.87 406.58,-175.49"/>
</a>
</g>
</g>
<!-- Node4 -->
<g id="Node000004" class="node">
<title>Node4</title>
<g id="a_Node000004"><a xlink:href="classdepicture__menu_1_1domain_1_1services_1_1common__action__builder.html#aa670bccd31eab4473fa4bf345cd44ff4" target="_top" xlink:title=" ">
<polygon fill="white" stroke="#666666" points="338.38,-180 204.62,-180 204.62,-124 338.38,-124 338.38,-180"/>
<text xml:space="preserve" text-anchor="start" x="212.62" y="-166.5" font-family="Helvetica,sans-Serif" font-size="10.00">depicture_menu::domain</text>
<text xml:space="preserve" text-anchor="start" x="212.62" y="-154.5" font-family="Helvetica,sans-Serif" font-size="10.00">::services::common_action</text>
<text xml:space="preserve" text-anchor="start" x="212.62" y="-142.5" font-family="Helvetica,sans-Serif" font-size="10.00">_builder::build_open_sub</text>
<text xml:space="preserve" text-anchor="middle" x="271.5" y="-130.5" font-family="Helvetica,sans-Serif" font-size="10.00">_menu_action</text>
</a>
</g>
</g>
<!-- Node1&#45;&gt;Node4 -->
<g id="edge3_Node000001_Node000004" class="edge">
<title>Node1&#45;&gt;Node4</title>
<g id="a_edge3_Node000001_Node000004"><a xlink:title=" ">
<path fill="none" stroke="#63b8ff" d="M379.44,-152C365.76,-152 351.76,-152 338.58,-152"/>
<polygon fill="#63b8ff" stroke="#63b8ff" points="379.31,-155.5 389.31,-152 379.31,-148.5 379.31,-155.5"/>
</a>
</g>
</g>
<!-- Node5 -->
<g id="Node000005" class="node">
<title>Node5</title>
<g id="a_Node000005"><a xlink:href="classdepicture__menu_1_1domain_1_1services_1_1common__action__builder.html#a084ac593bb69490503932bc699ad5f51" target="_top" xlink:title=" ">
<polygon fill="white" stroke="#666666" points="355.25,-106 187.75,-106 187.75,-62 355.25,-62 355.25,-106"/>
<text xml:space="preserve" text-anchor="start" x="195.75" y="-92.5" font-family="Helvetica,sans-Serif" font-size="10.00">depicture_menu::domain</text>
<text xml:space="preserve" text-anchor="start" x="195.75" y="-80.5" font-family="Helvetica,sans-Serif" font-size="10.00">::services::common_action</text>
<text xml:space="preserve" text-anchor="middle" x="271.5" y="-68.5" font-family="Helvetica,sans-Serif" font-size="10.00">_builder::build_shellexecute_action</text>
</a>
</g>
</g>
<!-- Node1&#45;&gt;Node5 -->
<g id="edge4_Node000001_Node000005" class="edge">
<title>Node1&#45;&gt;Node5</title>
<g id="a_edge4_Node000001_Node000005"><a xlink:title=" ">
<path fill="none" stroke="#63b8ff" d="M406.07,-131.74C383.82,-123.79 358.2,-114.63 335.38,-106.47"/>
<polygon fill="#63b8ff" stroke="#63b8ff" points="404.68,-134.96 415.27,-135.03 407.03,-128.37 404.68,-134.96"/>
</a>
</g>
</g>
<!-- Node6 -->
<g id="Node000006" class="node">
<title>Node6</title>
<g id="a_Node000006"><a xlink:href="classdepicture__menu_1_1domain_1_1actions_1_1v2_1_1publisher.html#a882bc16cc29faa92dd9773dc3fbcdfbb" target="_top" xlink:title=" ">
<polygon fill="white" stroke="#666666" points="332.75,-44 210.25,-44 210.25,0 332.75,0 332.75,-44"/>
<text xml:space="preserve" text-anchor="start" x="218.25" y="-30.5" font-family="Helvetica,sans-Serif" font-size="10.00">depicture_menu::domain</text>
<text xml:space="preserve" text-anchor="start" x="218.25" y="-18.5" font-family="Helvetica,sans-Serif" font-size="10.00">::actions::v2::publisher</text>
<text xml:space="preserve" text-anchor="middle" x="271.5" y="-6.5" font-family="Helvetica,sans-Serif" font-size="10.00">::update_default_name</text>
</a>
</g>
</g>
<!-- Node1&#45;&gt;Node6 -->
<g id="edge5_Node000001_Node000006" class="edge">
<title>Node1&#45;&gt;Node6</title>
<g id="a_edge5_Node000001_Node000006"><a xlink:title=" ">
<path fill="none" stroke="#63b8ff" d="M440.93,-127.04C420.59,-105.06 388.49,-73.44 355.25,-53 348.32,-48.74 340.72,-44.92 333.01,-41.53"/>
<polygon fill="#63b8ff" stroke="#63b8ff" points="438.3,-129.35 447.62,-134.4 443.48,-124.65 438.3,-129.35"/>
</a>
</g>
</g>
<!-- Node7 -->
<g id="Node000007" class="node">
<title>Node7</title>
<g id="a_Node000007"><a xlink:href="classdepicture__menu_1_1domain_1_1services_1_1action__default__name__update__service.html#a75cd8d7140dc2d452394fdf4aae7806a" target="_top" xlink:title=" ">
<polygon fill="white" stroke="#666666" points="151.75,-44 0,-44 0,0 151.75,0 151.75,-44"/>
<text xml:space="preserve" text-anchor="start" x="8" y="-30.5" font-family="Helvetica,sans-Serif" font-size="10.00">depicture_menu::domain</text>
<text xml:space="preserve" text-anchor="start" x="8" y="-18.5" font-family="Helvetica,sans-Serif" font-size="10.00">::services::action_default</text>
<text xml:space="preserve" text-anchor="middle" x="75.88" y="-6.5" font-family="Helvetica,sans-Serif" font-size="10.00">_name_update_service::update</text>
</a>
</g>
</g>
<!-- Node6&#45;&gt;Node7 -->
<g id="edge6_Node000006_Node000007" class="edge">
<title>Node6&#45;&gt;Node7</title>
<g id="a_edge6_Node000006_Node000007"><a xlink:title=" ">
<path fill="none" stroke="#63b8ff" d="M198.39,-22C183.27,-22 167.28,-22 152.04,-22"/>
<polygon fill="#63b8ff" stroke="#63b8ff" points="198.25,-25.5 208.25,-22 198.25,-18.5 198.25,-25.5"/>
</a>
</g>
</g>
</g>
</svg>

<g id="navigator" transform="translate(0 0)" fill="#404254">
  <rect fill="#f2f5e9" fill-opacity="0.5" stroke="#606060" stroke-width=".5" x="0" y="0" width="60" height="60"/>
  <use id="zoomplus" xlink:href="#zoomPlus" x="17" y="9" onmousedown="handleZoom(evt,'in')"/>
  <use id="zoomminus" xlink:href="#zoomMin" x="42" y="9" onmousedown="handleZoom(evt,'out')"/>
  <use id="reset" xlink:href="#resetDef" x="30" y="36" onmousedown="handleReset()"/>
   <use id="arrowup" xlink:href="#arrowUp" x="0" y="0" onmousedown="handlePan(0,-1)"/>
  <use id="arrowright" xlink:href="#arrowRight" x="0" y="0" onmousedown="handlePan(1,0)"/>
  <use id="arrowdown" xlink:href="#arrowDown" x="0" y="0" onmousedown="handlePan(0,1)"/>
  <use id="arrowleft" xlink:href="#arrowLeft" x="0" y="0" onmousedown="handlePan(-1,0)"/>
</g>
<svg viewBox="0 0 15 15" width="100%" height="30px" preserveAspectRatio="xMaxYMin meet">
 <g id="arrow_out" transform="scale(0.3 0.3)">
  <a xlink:href="classdepicture__menu_1_1domain_1_1actions_1_1v2_1_1publisher_adc656ab8ca20cd539024e45181209ed2_icgraph_org.svg" target="_base">
   <rect id="button" ry="5" rx="5" y="6" x="6" height="38" width="38"
        fill="#f2f5e9" fill-opacity="0.5" stroke="#606060" stroke-width="1.0"/>
   <path id="arrow"
     d="M 11.500037,31.436501 C 11.940474,20.09759 22.043105,11.32322 32.158766,21.979434 L 37.068811,17.246167 C 37.068811,17.246167 37.088388,32 37.088388,32 L 22.160133,31.978069 C 22.160133,31.978069 26.997745,27.140456 26.997745,27.140456 C 18.528582,18.264221 13.291696,25.230495 11.500037,31.436501 z"
     style="fill:#404040;"/>
  </a>
 </g>
</svg>

<style type='text/css'>
<![CDATA[
[data-mouse-over-selected='false'] { opacity: 0.7; }
[data-mouse-over-selected='true']  { opacity: 1.0; }
]]>
</style>
<script type="application/ecmascript"><![CDATA[
document.addEventListener('DOMContentLoaded', (event) => {
  highlightEdges();
  highlightAdjacentNodes();
});
]]></script>
</svg>
