<?xml version="1.0" encoding="UTF-8" standalone="no"?>
<!DOCTYPE svg PUBLIC "-//W3C//DTD SVG 1.1//EN"
 "http://www.w3.org/Graphics/SVG/1.1/DTD/svg11.dtd">
<!-- Generated by graphviz version 14.1.2 (20260124.0452)
 -->
<!-- Title: depicture_menu::domain::actions::v2::publisher::publisher Pages: 1 -->
<svg width="289pt" height="362pt"
 viewBox="0.00 0.00 289.00 362.00" xmlns="http://www.w3.org/2000/svg" xmlns:xlink="http://www.w3.org/1999/xlink">

<svg id="main" version="1.1" xmlns="http://www.w3.org/2000/svg" xmlns:xlink="http://www.w3.org/1999/xlink" xml:space="preserve">

<style type="text/css"><![CDATA[
.node, .edge {opacity: 0.7;}
.node.selected, .edge.selected {opacity: 1;}
.edge:hover path { stroke: red; }
.edge:hover polygon { stroke: red; fill: red; }
]]></style>
<script type="application/ecmascript" xlink:href="svg.min.js"/>
<svg id="graph" class="graph">
<g id="graph0" class="graph" transform="scale(1 1) rotate(0) translate(4 358)">
<title>depicture_menu::domain::actions::v2::publisher::publisher</title>
<!-- Node1 -->
<g id="Node000001" class="node">
<title>Node1</title>
<g id="a_Node000001"><a xlink:title=" ">
<polygon fill="#999999" stroke="#666666" points="281,-199 158.5,-199 158.5,-155 281,-155 281,-199"/>
<text xml:space="preserve" text-anchor="start" x="166.5" y="-185.5" font-family="Helvetica,sans-Serif" font-size="10.00">depicture_menu::domain</text>
<text xml:space="preserve" text-anchor="start" x="166.5" y="-173.5" font-family="Helvetica,sans-Serif" font-size="10.00">::actions::v2::publisher</text>
<text xml:space="preserve" text-anchor="middle" x="219.75" y="-161.5" font-family="Helvetica,sans-Serif" font-size="10.00">::publisher</text>
</a>
</g>
</g>
<!-- Node2 -->
<g id="Node000002" class="node">
<title>Node2</title>
<g id="a_Node000002"><a xlink:href="classdepicture__menu_1_1domain_1_1actions_1_1v2_1_1publisher.html#aabc87c17fdf7fd4c4099b8b977a32def" target="_top" xlink:title=" ">
<polygon fill="white" stroke="#666666" points="122.5,-354 0,-354 0,-310 122.5,-310 122.5,-354"/>
<text xml:space="preserve" text-anchor="start" x="8" y="-340.5" font-family="Helvetica,sans-Serif" font-size="10.00">depicture_menu::domain</text>
<text xml:space="preserve" text-anchor="start" x="8" y="-328.5" font-family="Helvetica,sans-Serif" font-size="10.00">::actions::v2::publisher</text>
<text xml:space="preserve" text-anchor="middle" x="61.25" y="-316.5" font-family="Helvetica,sans-Serif" font-size="10.00">::duplicate</text>
</a>
</g>
</g>
<!-- Node1&#45;&gt;Node2 -->
<g id="edge1_Node000001_Node000002" class="edge">
<title>Node1&#45;&gt;Node2</title>
<g id="a_edge1_Node000001_Node000002"><a xlink:title=" ">
<path fill="none" stroke="#63b8ff" d="M199.88,-208.51C182.43,-235.63 154.43,-274.49 122.5,-301 118.79,-304.08 114.72,-306.97 110.51,-309.65"/>
<polygon fill="#63b8ff" stroke="#63b8ff" points="202.64,-210.69 205.01,-200.37 196.72,-206.96 202.64,-210.69"/>
</a>
</g>
</g>
<!-- Node3 -->
<g id="Node000003" class="node">
<title>Node3</title>
<g id="a_Node000003"><a xlink:href="classdepicture__menu_1_1domain_1_1actions_1_1v2_1_1publisher.html#a27aa2d086b367fffcd2614044d8c65c1" target="_top" xlink:title=" ">
<polygon fill="white" stroke="#666666" points="122.5,-292 0,-292 0,-248 122.5,-248 122.5,-292"/>
<text xml:space="preserve" text-anchor="start" x="8" y="-278.5" font-family="Helvetica,sans-Serif" font-size="10.00">depicture_menu::domain</text>
<text xml:space="preserve" text-anchor="start" x="8" y="-266.5" font-family="Helvetica,sans-Serif" font-size="10.00">::actions::v2::publisher</text>
<text xml:space="preserve" text-anchor="middle" x="61.25" y="-254.5" font-family="Helvetica,sans-Serif" font-size="10.00">::operator=</text>
</a>
</g>
</g>
<!-- Node1&#45;&gt;Node3 -->
<g id="edge2_Node000001_Node000003" class="edge">
<title>Node1&#45;&gt;Node3</title>
<g id="a_edge2_Node000001_Node000003"><a xlink:title=" ">
<path fill="none" stroke="#63b8ff" d="M176.42,-205.53C159.82,-216.38 140.49,-228.61 122.5,-239 117.51,-241.88 112.22,-244.8 106.93,-247.63"/>
<polygon fill="#63b8ff" stroke="#63b8ff" points="178.14,-208.58 184.57,-200.16 174.29,-202.74 178.14,-208.58"/>
</a>
</g>
</g>
<!-- Node4 -->
<g id="Node000004" class="node">
<title>Node4</title>
<g id="a_Node000004"><a xlink:href="classdepicture__menu_1_1domain_1_1actions_1_1v2_1_1publisher.html#a987e08a910c1a52da6a82d113d84c997" target="_top" xlink:title=" ">
<polygon fill="white" stroke="#666666" points="122.5,-230 0,-230 0,-186 122.5,-186 122.5,-230"/>
<text xml:space="preserve" text-anchor="start" x="8" y="-216.5" font-family="Helvetica,sans-Serif" font-size="10.00">depicture_menu::domain</text>
<text xml:space="preserve" text-anchor="start" x="8" y="-204.5" font-family="Helvetica,sans-Serif" font-size="10.00">::actions::v2::publisher</text>
<text xml:space="preserve" text-anchor="middle" x="61.25" y="-192.5" font-family="Helvetica,sans-Serif" font-size="10.00">::operator=</text>
</a>
</g>
</g>
<!-- Node1&#45;&gt;Node4 -->
<g id="edge3_Node000001_Node000004" class="edge">
<title>Node1&#45;&gt;Node4</title>
<g id="a_edge3_Node000001_Node000004"><a xlink:title=" ">
<path fill="none" stroke="#63b8ff" d="M146.95,-191.22C138.9,-192.82 130.75,-194.43 122.85,-196"/>
<polygon fill="#63b8ff" stroke="#63b8ff" points="147.63,-194.66 156.76,-189.28 146.27,-187.79 147.63,-194.66"/>
</a>
</g>
</g>
<!-- Node5 -->
<g id="Node000005" class="node">
<title>Node5</title>
<g id="a_Node000005"><a xlink:href="classdepicture__menu_1_1domain_1_1actions_1_1v2_1_1publisher.html#acc6c51ce383d86818603524ca591c70c" target="_top" xlink:title=" ">
<polygon fill="white" stroke="#666666" points="122.5,-168 0,-168 0,-124 122.5,-124 122.5,-168"/>
<text xml:space="preserve" text-anchor="start" x="8" y="-154.5" font-family="Helvetica,sans-Serif" font-size="10.00">depicture_menu::domain</text>
<text xml:space="preserve" text-anchor="start" x="8" y="-142.5" font-family="Helvetica,sans-Serif" font-size="10.00">::actions::v2::publisher</text>
<text xml:space="preserve" text-anchor="middle" x="61.25" y="-130.5" font-family="Helvetica,sans-Serif" font-size="10.00">::publisher</text>
</a>
</g>
</g>
<!-- Node1&#45;&gt;Node5 -->
<g id="edge4_Node000001_Node000005" class="edge">
<title>Node1&#45;&gt;Node5</title>
<g id="a_edge4_Node000001_Node000005"><a xlink:title=" ">
<path fill="none" stroke="#63b8ff" d="M146.95,-162.78C138.9,-161.18 130.75,-159.57 122.85,-158"/>
<polygon fill="#63b8ff" stroke="#63b8ff" points="146.27,-166.21 156.76,-164.72 147.63,-159.34 146.27,-166.21"/>
</a>
</g>
</g>
<!-- Node6 -->
<g id="Node000006" class="node">
<title>Node6</title>
<g id="a_Node000006"><a xlink:href="classdepicture__menu_1_1domain_1_1actions_1_1v2_1_1publisher.html#a8ea92a3385205455c1f136693de4c205" target="_top" xlink:title=" ">
<polygon fill="white" stroke="#666666" points="122.5,-106 0,-106 0,-62 122.5,-62 122.5,-106"/>
<text xml:space="preserve" text-anchor="start" x="8" y="-92.5" font-family="Helvetica,sans-Serif" font-size="10.00">depicture_menu::domain</text>
<text xml:space="preserve" text-anchor="start" x="8" y="-80.5" font-family="Helvetica,sans-Serif" font-size="10.00">::actions::v2::publisher</text>
<text xml:space="preserve" text-anchor="middle" x="61.25" y="-68.5" font-family="Helvetica,sans-Serif" font-size="10.00">::publisher</text>
</a>
</g>
</g>
<!-- Node1&#45;&gt;Node6 -->
<g id="edge5_Node000001_Node000006" class="edge">
<title>Node1&#45;&gt;Node6</title>
<g id="a_edge5_Node000001_Node000006"><a xlink:title=" ">
<path fill="none" stroke="#63b8ff" d="M176.42,-148.47C159.82,-137.62 140.49,-125.39 122.5,-115 117.51,-112.12 112.22,-109.2 106.93,-106.37"/>
<polygon fill="#63b8ff" stroke="#63b8ff" points="174.29,-151.26 184.57,-153.84 178.14,-145.42 174.29,-151.26"/>
</a>
</g>
</g>
<!-- Node7 -->
<g id="Node000007" class="node">
<title>Node7</title>
<g id="a_Node000007"><a xlink:href="classdepicture__menu_1_1domain_1_1actions_1_1v2_1_1publisher.html#ae60aa4b316fcb9712fae7d6647215329" target="_top" xlink:title=" ">
<polygon fill="white" stroke="#666666" points="122.5,-44 0,-44 0,0 122.5,0 122.5,-44"/>
<text xml:space="preserve" text-anchor="start" x="8" y="-30.5" font-family="Helvetica,sans-Serif" font-size="10.00">depicture_menu::domain</text>
<text xml:space="preserve" text-anchor="start" x="8" y="-18.5" font-family="Helvetica,sans-Serif" font-size="10.00">::actions::v2::publisher</text>
<text xml:space="preserve" text-anchor="middle" x="61.25" y="-6.5" font-family="Helvetica,sans-Serif" font-size="10.00">::publisher</text>
</a>
</g>
</g>
<!-- Node1&#45;&gt;Node7 -->
<g id="edge6_Node000001_Node000007" class="edge">
<title>Node1&#45;&gt;Node7</title>
<g id="a_edge6_Node000001_Node000007"><a xlink:title=" ">
<path fill="none" stroke="#63b8ff" d="M199.88,-145.49C182.43,-118.37 154.43,-79.51 122.5,-53 118.79,-49.92 114.72,-47.03 110.51,-44.35"/>
<polygon fill="#63b8ff" stroke="#63b8ff" points="196.72,-147.04 205.01,-153.63 202.64,-143.31 196.72,-147.04"/>
</a>
</g>
</g>
</g>
</svg>
</svg>

<style type='text/css'>
<![CDATA[
[data-mouse-over-selected='false'] { opacity: 0.7; }
[data-mouse-over-selected='true']  { opacity: 1.0; }
]]>
</style>
<script type="application/ecmascript"><![CDATA[
document.addEventListener('DOMContentLoaded', (event) => {
  highlightEdges();
  highlightAdjacentNodes();
});
]]></script>
</svg>
