<?xml version="1.0" encoding="UTF-8" standalone="no"?>
<!DOCTYPE svg PUBLIC "-//W3C//DTD SVG 1.1//EN"
 "http://www.w3.org/Graphics/SVG/1.1/DTD/svg11.dtd">
<!-- Generated by graphviz version 14.1.2 (20260124.0452)
 -->
<!-- Title: depicture_menu::applications::backup_json::detail::format_convert::cascade_converter::operator() Pages: 1 -->
<!--zoomable 156 -->

<svg id="main" version="1.1" xmlns="http://www.w3.org/2000/svg" xmlns:xlink="http://www.w3.org/1999/xlink" xml:space="preserve" onload="init(evt)">

<style type="text/css"><![CDATA[
.node, .edge {opacity: 0.7;}
.node.selected, .edge.selected {opacity: 1;}
.edge:hover path { stroke: red; }
.edge:hover polygon { stroke: red; fill: red; }
]]></style>

<defs>
  <circle id="rim" cx="0" cy="0" r="7"/>
  <circle id="rim2" cx="0" cy="0" r="3.5"/>
  <g id="zoomPlus">
    <use xlink:href="#rim" fill="#404040"><set attributeName="fill" to="#808080" begin="zoomplus.mouseover" end="zoomplus.mouseout"/></use>
    <path d="M-4,0h8M0,-4v8" fill="none" stroke="white" stroke-width="1.5" pointer-events="none"/>
  </g>
  <g id="zoomMin">
    <use xlink:href="#rim" fill="#404040"><set attributeName="fill" to="#808080" begin="zoomminus.mouseover" end="zoomminus.mouseout"/></use>
    <path d="M-4,0h8" fill="none" stroke="white" stroke-width="1.5" pointer-events="none"/>
  </g>
  <g id="arrowUp" transform="translate(30 24)">
    <use xlink:href="#rim"/>
    <path pointer-events="none" fill="none" stroke="white" stroke-width="1.5" d="M0,-3.0v7 M-2.5,-0.5L0,-3.0L2.5,-0.5"/>
  </g>
  <g id="arrowRight" transform="rotate(90) translate(36 -43)">
    <use xlink:href="#rim"/>
    <path pointer-events="none" fill="none" stroke="white" stroke-width="1.5" d="M0,-3.0v7 M-2.5,-0.5L0,-3.0L2.5,-0.5"/>
  </g>
  <g id="arrowDown" transform="rotate(180) translate(-30 -48)">
    <use xlink:href="#rim"/>
    <path pointer-events="none" fill="none" stroke="white" stroke-width="1.5" d="M0,-3.0v7 M-2.5,-0.5L0,-3.0L2.5,-0.5"/>
  </g>
  <g id="arrowLeft" transform="rotate(270) translate(-36 17)">
    <use xlink:href="#rim"/>
    <path pointer-events="none" fill="none" stroke="white" stroke-width="1.5" d="M0,-3.0v7 M-2.5,-0.5L0,-3.0L2.5,-0.5"/>
  </g>
  <g id="resetDef">
    <use xlink:href="#rim2" fill="#404040"><set attributeName="fill" to="#808080" begin="reset.mouseover" end="reset.mouseout"/></use>
  </g>
</defs>
<script type="application/ecmascript">
var viewWidth = 508;
var viewHeight = 156;
var sectionId = 'dynsection-3';
</script>
<script type="application/ecmascript" xlink:href="svg.min.js"/>
<svg id="graph" class="graph">
<g id="viewport">
<title>depicture_menu::applications::backup_json::detail::format_convert::cascade_converter::operator()</title>
<!-- Node1 -->
<g id="Node000001" class="node">
<title>Node1</title>
<g id="a_Node000001"><a xlink:title="最新フォーマットバージョンに読み込む">
<polygon fill="#999999" stroke="#666666" points="142.75,-102 0,-102 0,-46 142.75,-46 142.75,-102"/>
<text xml:space="preserve" text-anchor="start" x="8" y="-88.5" font-family="Helvetica,sans-Serif" font-size="10.00">depicture_menu::applications</text>
<text xml:space="preserve" text-anchor="start" x="8" y="-76.5" font-family="Helvetica,sans-Serif" font-size="10.00">::backup_json::detail::format</text>
<text xml:space="preserve" text-anchor="start" x="8" y="-64.5" font-family="Helvetica,sans-Serif" font-size="10.00">_convert::cascade_converter</text>
<text xml:space="preserve" text-anchor="middle" x="71.38" y="-52.5" font-family="Helvetica,sans-Serif" font-size="10.00">::operator()</text>
</a>
</g>
</g>
<!-- Node2 -->
<g id="Node000002" class="node">
<title>Node2</title>
<g id="a_Node000002"><a xlink:href="classdepicture__menu_1_1applications_1_1backup__json_1_1detail_1_1format__convert_1_1cascade__converter.html#ab3f07446d237cf9696f17100f9e259ec" target="_top" xlink:title="カレントバージョンで読み込む">
<polygon fill="white" stroke="#666666" points="321.5,-148 178.75,-148 178.75,-92 321.5,-92 321.5,-148"/>
<text xml:space="preserve" text-anchor="start" x="186.75" y="-134.5" font-family="Helvetica,sans-Serif" font-size="10.00">depicture_menu::applications</text>
<text xml:space="preserve" text-anchor="start" x="186.75" y="-122.5" font-family="Helvetica,sans-Serif" font-size="10.00">::backup_json::detail::format</text>
<text xml:space="preserve" text-anchor="start" x="186.75" y="-110.5" font-family="Helvetica,sans-Serif" font-size="10.00">_convert::cascade_converter</text>
<text xml:space="preserve" text-anchor="middle" x="250.12" y="-98.5" font-family="Helvetica,sans-Serif" font-size="10.00">::current_format_read</text>
</a>
</g>
</g>
<!-- Node1&#45;&gt;Node2 -->
<g id="edge1_Node000001_Node000002" class="edge">
<title>Node1&#45;&gt;Node2</title>
<g id="a_edge1_Node000001_Node000002"><a xlink:title=" ">
<path fill="none" stroke="#63b8ff" d="M143.25,-92.44C151.24,-94.52 159.43,-96.66 167.54,-98.77"/>
<polygon fill="#63b8ff" stroke="#63b8ff" points="166.5,-102.11 177.06,-101.24 168.26,-95.34 166.5,-102.11"/>
</a>
</g>
</g>
<!-- Node4 -->
<g id="Node000004" class="node">
<title>Node4</title>
<g id="a_Node000004"><a xlink:href="classdepicture__menu_1_1applications_1_1backup__json_1_1detail_1_1format__convert_1_1cascade__converter.html#a5e69ee7d1bf746a3147effda47cb9fa6" target="_top" xlink:title="対応するフォーマットへコンバート">
<polygon fill="white" stroke="#666666" points="321.5,-56 178.75,-56 178.75,0 321.5,0 321.5,-56"/>
<text xml:space="preserve" text-anchor="start" x="186.75" y="-42.5" font-family="Helvetica,sans-Serif" font-size="10.00">depicture_menu::applications</text>
<text xml:space="preserve" text-anchor="start" x="186.75" y="-30.5" font-family="Helvetica,sans-Serif" font-size="10.00">::backup_json::detail::format</text>
<text xml:space="preserve" text-anchor="start" x="186.75" y="-18.5" font-family="Helvetica,sans-Serif" font-size="10.00">_convert::cascade_converter</text>
<text xml:space="preserve" text-anchor="middle" x="250.12" y="-6.5" font-family="Helvetica,sans-Serif" font-size="10.00">::to_latest_format</text>
</a>
</g>
</g>
<!-- Node1&#45;&gt;Node4 -->
<g id="edge3_Node000001_Node000004" class="edge">
<title>Node1&#45;&gt;Node4</title>
<g id="a_edge3_Node000001_Node000004"><a xlink:title=" ">
<path fill="none" stroke="#63b8ff" d="M143.25,-55.56C151.24,-53.48 159.43,-51.34 167.54,-49.23"/>
<polygon fill="#63b8ff" stroke="#63b8ff" points="168.26,-52.66 177.06,-46.76 166.5,-45.89 168.26,-52.66"/>
</a>
</g>
</g>
<!-- Node3 -->
<g id="Node000003" class="node">
<title>Node3</title>
<g id="a_Node000003"><a xlink:href="namespacedepicture__menu_1_1applications_1_1backup__json_1_1detail.html#a3e231b62ee483eebf603f3a54cc82ee3" target="_top" xlink:title="エラー値構築関数">
<polygon fill="white" stroke="#666666" points="500.25,-142 357.5,-142 357.5,-98 500.25,-98 500.25,-142"/>
<text xml:space="preserve" text-anchor="start" x="365.5" y="-128.5" font-family="Helvetica,sans-Serif" font-size="10.00">depicture_menu::applications</text>
<text xml:space="preserve" text-anchor="start" x="365.5" y="-116.5" font-family="Helvetica,sans-Serif" font-size="10.00">::backup_json::detail::make</text>
<text xml:space="preserve" text-anchor="middle" x="428.88" y="-104.5" font-family="Helvetica,sans-Serif" font-size="10.00">_error_code</text>
</a>
</g>
</g>
<!-- Node2&#45;&gt;Node3 -->
<g id="edge2_Node000002_Node000003" class="edge">
<title>Node2&#45;&gt;Node3</title>
<g id="a_edge2_Node000002_Node000003"><a xlink:title=" ">
<path fill="none" stroke="#63b8ff" d="M322,-120C329.9,-120 337.99,-120 346.01,-120"/>
<polygon fill="#63b8ff" stroke="#63b8ff" points="345.76,-123.5 355.76,-120 345.76,-116.5 345.76,-123.5"/>
</a>
</g>
</g>
<!-- Node4&#45;&gt;Node4 -->
<g id="edge5_Node000004_Node000004" class="edge">
<title>Node4&#45;&gt;Node4</title>
<g id="a_edge5_Node000004_Node000004"><a xlink:title=" ">
<path fill="none" stroke="#63b8ff" d="M216.62,-56.3C216.26,-66.09 227.43,-74 250.12,-74 263.95,-74 273.5,-71.06 278.77,-66.55"/>
<polygon fill="#63b8ff" stroke="#63b8ff" points="281.86,-68.2 282.98,-57.67 275.54,-65.2 281.86,-68.2"/>
</a>
</g>
</g>
<!-- Node5 -->
<g id="Node000005" class="node">
<title>Node5</title>
<g id="a_Node000005"><a xlink:href="classdepicture__menu_1_1applications_1_1backup__json_1_1detail_1_1format__convert_1_1cascade__converter.html#aa34f9866b98a9e225ab544bdf8504a79" target="_top" xlink:title="次バージョンへコンバート">
<polygon fill="white" stroke="#666666" points="500.25,-56 357.5,-56 357.5,0 500.25,0 500.25,-56"/>
<text xml:space="preserve" text-anchor="start" x="365.5" y="-42.5" font-family="Helvetica,sans-Serif" font-size="10.00">depicture_menu::applications</text>
<text xml:space="preserve" text-anchor="start" x="365.5" y="-30.5" font-family="Helvetica,sans-Serif" font-size="10.00">::backup_json::detail::format</text>
<text xml:space="preserve" text-anchor="start" x="365.5" y="-18.5" font-family="Helvetica,sans-Serif" font-size="10.00">_convert::cascade_converter</text>
<text xml:space="preserve" text-anchor="middle" x="428.88" y="-6.5" font-family="Helvetica,sans-Serif" font-size="10.00">::convert</text>
</a>
</g>
</g>
<!-- Node4&#45;&gt;Node5 -->
<g id="edge4_Node000004_Node000005" class="edge">
<title>Node4&#45;&gt;Node5</title>
<g id="a_edge4_Node000004_Node000005"><a xlink:title=" ">
<path fill="none" stroke="#63b8ff" d="M322,-28C329.9,-28 337.99,-28 346.01,-28"/>
<polygon fill="#63b8ff" stroke="#63b8ff" points="345.76,-31.5 355.76,-28 345.76,-24.5 345.76,-31.5"/>
</a>
</g>
</g>
</g>
</svg>

<g id="navigator" transform="translate(0 0)" fill="#404254">
  <rect fill="#f2f5e9" fill-opacity="0.5" stroke="#606060" stroke-width=".5" x="0" y="0" width="60" height="60"/>
  <use id="zoomplus" xlink:href="#zoomPlus" x="17" y="9" onmousedown="handleZoom(evt,'in')"/>
  <use id="zoomminus" xlink:href="#zoomMin" x="42" y="9" onmousedown="handleZoom(evt,'out')"/>
  <use id="reset" xlink:href="#resetDef" x="30" y="36" onmousedown="handleReset()"/>
   <use id="arrowup" xlink:href="#arrowUp" x="0" y="0" onmousedown="handlePan(0,-1)"/>
  <use id="arrowright" xlink:href="#arrowRight" x="0" y="0" onmousedown="handlePan(1,0)"/>
  <use id="arrowdown" xlink:href="#arrowDown" x="0" y="0" onmousedown="handlePan(0,1)"/>
  <use id="arrowleft" xlink:href="#arrowLeft" x="0" y="0" onmousedown="handlePan(-1,0)"/>
</g>
<svg viewBox="0 0 15 15" width="100%" height="30px" preserveAspectRatio="xMaxYMin meet">
 <g id="arrow_out" transform="scale(0.3 0.3)">
  <a xlink:href="classdepicture__menu_1_1applications_1_1backup__json_1_1detail_1_1format__convert_1_1cascade__converter_a28b0eca462f003fb42565d1d1b4ed507_cgraph_org.svg" target="_base">
   <rect id="button" ry="5" rx="5" y="6" x="6" height="38" width="38"
        fill="#f2f5e9" fill-opacity="0.5" stroke="#606060" stroke-width="1.0"/>
   <path id="arrow"
     d="M 11.500037,31.436501 C 11.940474,20.09759 22.043105,11.32322 32.158766,21.979434 L 37.068811,17.246167 C 37.068811,17.246167 37.088388,32 37.088388,32 L 22.160133,31.978069 C 22.160133,31.978069 26.997745,27.140456 26.997745,27.140456 C 18.528582,18.264221 13.291696,25.230495 11.500037,31.436501 z"
     style="fill:#404040;"/>
  </a>
 </g>
</svg>

<style type='text/css'>
<![CDATA[
[data-mouse-over-selected='false'] { opacity: 0.7; }
[data-mouse-over-selected='true']  { opacity: 1.0; }
]]>
</style>
<script type="application/ecmascript"><![CDATA[
document.addEventListener('DOMContentLoaded', (event) => {
  highlightEdges();
  highlightAdjacentNodes();
});
]]></script>
</svg>
