<?xml version="1.0" encoding="UTF-8" standalone="no"?>
<!DOCTYPE svg PUBLIC "-//W3C//DTD SVG 1.1//EN"
 "http://www.w3.org/Graphics/SVG/1.1/DTD/svg11.dtd">
<!-- Generated by graphviz version 14.1.2 (20260124.0452)
 -->
<!-- Title: depicture_menu::cs_binding::observer::observers_connection::create Pages: 1 -->
<svg width="273pt" height="82pt"
 viewBox="0.00 0.00 273.00 82.00" xmlns="http://www.w3.org/2000/svg" xmlns:xlink="http://www.w3.org/1999/xlink">
<g id="graph0" class="graph" transform="scale(1 1) rotate(0) translate(4 78)">
<title>depicture_menu::cs_binding::observer::observers_connection::create</title>
<!-- Node1 -->
<g id="Node000001" class="node">
<title>Node1</title>
<g id="a_Node000001"><a xlink:title=" ">
<polygon fill="#999999" stroke="#666666" points="111.25,-56 0,-56 0,0 111.25,0 111.25,-56"/>
<text xml:space="preserve" text-anchor="start" x="8" y="-42.5" font-family="Helvetica,sans-Serif" font-size="10.00">depicture_menu::cs</text>
<text xml:space="preserve" text-anchor="start" x="8" y="-30.5" font-family="Helvetica,sans-Serif" font-size="10.00">_binding::observer::</text>
<text xml:space="preserve" text-anchor="start" x="8" y="-18.5" font-family="Helvetica,sans-Serif" font-size="10.00">observers_connection</text>
<text xml:space="preserve" text-anchor="middle" x="55.62" y="-6.5" font-family="Helvetica,sans-Serif" font-size="10.00">::create</text>
</a>
</g>
</g>
<!-- Node1&#45;&gt;Node1 -->
<g id="edge1_Node000001_Node000001" class="edge">
<title>Node1&#45;&gt;Node1</title>
<g id="a_edge1_Node000001_Node000001"><a xlink:title=" ">
<path fill="none" stroke="#63b8ff" d="M27.46,-56.3C27.16,-66.09 36.55,-74 55.62,-74 66.95,-74 74.86,-71.21 79.36,-66.9"/>
<polygon fill="#63b8ff" stroke="#63b8ff" points="82.58,-68.27 83.21,-57.7 76.12,-65.57 82.58,-68.27"/>
</a>
</g>
</g>
<!-- Node2 -->
<g id="Node000002" class="node">
<title>Node2</title>
<g id="a_Node000002"><a xlink:href="classdepicture__menu_1_1cs__binding_1_1observer_1_1observers__connection.html#a00fb92af9a8cde0da1c3dc0a9048c609" target="_top" xlink:title=" ">
<polygon fill="white" stroke="#666666" points="264.5,-56 147.25,-56 147.25,0 264.5,0 264.5,-56"/>
<text xml:space="preserve" text-anchor="start" x="155.25" y="-42.5" font-family="Helvetica,sans-Serif" font-size="10.00">depicture_menu::cs</text>
<text xml:space="preserve" text-anchor="start" x="155.25" y="-30.5" font-family="Helvetica,sans-Serif" font-size="10.00">_binding::observer::</text>
<text xml:space="preserve" text-anchor="start" x="155.25" y="-18.5" font-family="Helvetica,sans-Serif" font-size="10.00">observers_connection</text>
<text xml:space="preserve" text-anchor="middle" x="205.88" y="-6.5" font-family="Helvetica,sans-Serif" font-size="10.00">::observers_connection</text>
</a>
</g>
</g>
<!-- Node1&#45;&gt;Node2 -->
<g id="edge2_Node000001_Node000002" class="edge">
<title>Node1&#45;&gt;Node2</title>
<g id="a_edge2_Node000001_Node000002"><a xlink:title=" ">
<path fill="none" stroke="#63b8ff" d="M111.41,-28C119.26,-28 127.42,-28 135.5,-28"/>
<polygon fill="#63b8ff" stroke="#63b8ff" points="135.32,-31.5 145.32,-28 135.32,-24.5 135.32,-31.5"/>
</a>
</g>
</g>
</g>
</svg>
