<?xml version="1.0" encoding="UTF-8" standalone="no"?>
<!DOCTYPE svg PUBLIC "-//W3C//DTD SVG 1.1//EN"
 "http://www.w3.org/Graphics/SVG/1.1/DTD/svg11.dtd">
<!-- Generated by graphviz version 14.1.2 (20260124.0452)
 -->
<!-- Title: depicture_menu::domain::actions::v2::publisher::add_command_id Pages: 1 -->
<!--zoomable 290 -->

<svg id="main" version="1.1" xmlns="http://www.w3.org/2000/svg" xmlns:xlink="http://www.w3.org/1999/xlink" xml:space="preserve" onload="init(evt)">

<style type="text/css"><![CDATA[
.node, .edge {opacity: 0.7;}
.node.selected, .edge.selected {opacity: 1;}
.edge:hover path { stroke: red; }
.edge:hover polygon { stroke: red; fill: red; }
]]></style>

<defs>
  <circle id="rim" cx="0" cy="0" r="7"/>
  <circle id="rim2" cx="0" cy="0" r="3.5"/>
  <g id="zoomPlus">
    <use xlink:href="#rim" fill="#404040"><set attributeName="fill" to="#808080" begin="zoomplus.mouseover" end="zoomplus.mouseout"/></use>
    <path d="M-4,0h8M0,-4v8" fill="none" stroke="white" stroke-width="1.5" pointer-events="none"/>
  </g>
  <g id="zoomMin">
    <use xlink:href="#rim" fill="#404040"><set attributeName="fill" to="#808080" begin="zoomminus.mouseover" end="zoomminus.mouseout"/></use>
    <path d="M-4,0h8" fill="none" stroke="white" stroke-width="1.5" pointer-events="none"/>
  </g>
  <g id="arrowUp" transform="translate(30 24)">
    <use xlink:href="#rim"/>
    <path pointer-events="none" fill="none" stroke="white" stroke-width="1.5" d="M0,-3.0v7 M-2.5,-0.5L0,-3.0L2.5,-0.5"/>
  </g>
  <g id="arrowRight" transform="rotate(90) translate(36 -43)">
    <use xlink:href="#rim"/>
    <path pointer-events="none" fill="none" stroke="white" stroke-width="1.5" d="M0,-3.0v7 M-2.5,-0.5L0,-3.0L2.5,-0.5"/>
  </g>
  <g id="arrowDown" transform="rotate(180) translate(-30 -48)">
    <use xlink:href="#rim"/>
    <path pointer-events="none" fill="none" stroke="white" stroke-width="1.5" d="M0,-3.0v7 M-2.5,-0.5L0,-3.0L2.5,-0.5"/>
  </g>
  <g id="arrowLeft" transform="rotate(270) translate(-36 17)">
    <use xlink:href="#rim"/>
    <path pointer-events="none" fill="none" stroke="white" stroke-width="1.5" d="M0,-3.0v7 M-2.5,-0.5L0,-3.0L2.5,-0.5"/>
  </g>
  <g id="resetDef">
    <use xlink:href="#rim2" fill="#404040"><set attributeName="fill" to="#808080" begin="reset.mouseover" end="reset.mouseout"/></use>
  </g>
</defs>
<script type="application/ecmascript">
var viewWidth = 672;
var viewHeight = 290;
var sectionId = 'dynsection-7';
</script>
<script type="application/ecmascript" xlink:href="svg.min.js"/>
<svg id="graph" class="graph">
<g id="viewport">
<title>depicture_menu::domain::actions::v2::publisher::add_command_id</title>
<!-- Node1 -->
<g id="Node000001" class="node">
<title>Node1</title>
<g id="a_Node000001"><a xlink:title=" ">
<polygon fill="#999999" stroke="#666666" points="664,-232 541.5,-232 541.5,-188 664,-188 664,-232"/>
<text xml:space="preserve" text-anchor="start" x="549.5" y="-218.5" font-family="Helvetica,sans-Serif" font-size="10.00">depicture_menu::domain</text>
<text xml:space="preserve" text-anchor="start" x="549.5" y="-206.5" font-family="Helvetica,sans-Serif" font-size="10.00">::actions::v2::publisher</text>
<text xml:space="preserve" text-anchor="middle" x="602.75" y="-194.5" font-family="Helvetica,sans-Serif" font-size="10.00">::add_command_id</text>
</a>
</g>
</g>
<!-- Node2 -->
<g id="Node000002" class="node">
<title>Node2</title>
<g id="a_Node000002"><a xlink:href="deploy__default__setting_8cpp.html#a638e25877528b95de44e4fcd07a8c45a" target="_top" xlink:title=" ">
<polygon fill="white" stroke="#666666" points="311,-220 215.5,-220 215.5,-200 311,-200 311,-220"/>
<text xml:space="preserve" text-anchor="middle" x="263.25" y="-206.5" font-family="Helvetica,sans-Serif" font-size="10.00">add_default_menu</text>
</a>
</g>
</g>
<!-- Node1&#45;&gt;Node2 -->
<g id="edge1_Node000001_Node000002" class="edge">
<title>Node1&#45;&gt;Node2</title>
<g id="a_edge1_Node000001_Node000002"><a xlink:title=" ">
<path fill="none" stroke="#63b8ff" d="M529.89,-210C463.95,-210 368.17,-210 311.44,-210"/>
<polygon fill="#63b8ff" stroke="#63b8ff" points="529.51,-213.5 539.51,-210 529.51,-206.5 529.51,-213.5"/>
</a>
</g>
</g>
<!-- Node3 -->
<g id="Node000003" class="node">
<title>Node3</title>
<g id="a_Node000003"><a xlink:href="namespacedepicture__menu_1_1domain_1_1services.html#ac9a5a8c1e1f4e196526b573aa89c870d" target="_top" xlink:title=" ">
<polygon fill="white" stroke="#666666" points="505.5,-282 383,-282 383,-238 505.5,-238 505.5,-282"/>
<text xml:space="preserve" text-anchor="start" x="391" y="-268.5" font-family="Helvetica,sans-Serif" font-size="10.00">depicture_menu::domain</text>
<text xml:space="preserve" text-anchor="start" x="391" y="-256.5" font-family="Helvetica,sans-Serif" font-size="10.00">::services::build_action</text>
<text xml:space="preserve" text-anchor="middle" x="444.25" y="-244.5" font-family="Helvetica,sans-Serif" font-size="10.00">_service</text>
</a>
</g>
</g>
<!-- Node1&#45;&gt;Node3 -->
<g id="edge2_Node000001_Node000003" class="edge">
<title>Node1&#45;&gt;Node3</title>
<g id="a_edge2_Node000001_Node000003"><a xlink:title=" ">
<path fill="none" stroke="#63b8ff" d="M530.51,-232.76C522.27,-235.39 513.93,-238.06 505.85,-240.64"/>
<polygon fill="#63b8ff" stroke="#63b8ff" points="531.34,-236.17 539.8,-229.79 529.21,-229.5 531.34,-236.17"/>
</a>
</g>
</g>
<!-- Node5 -->
<g id="Node000005" class="node">
<title>Node5</title>
<g id="a_Node000005"><a xlink:href="classdepicture__menu_1_1domain_1_1actions_1_1v2_1_1publisher.html#ac87ae212e4c608a41c323e825c5de6e2" target="_top" xlink:title=" ">
<polygon fill="white" stroke="#666666" points="505.5,-151 383,-151 383,-107 505.5,-107 505.5,-151"/>
<text xml:space="preserve" text-anchor="start" x="391" y="-137.5" font-family="Helvetica,sans-Serif" font-size="10.00">depicture_menu::domain</text>
<text xml:space="preserve" text-anchor="start" x="391" y="-125.5" font-family="Helvetica,sans-Serif" font-size="10.00">::actions::v2::publisher</text>
<text xml:space="preserve" text-anchor="middle" x="444.25" y="-113.5" font-family="Helvetica,sans-Serif" font-size="10.00">::set_command_id</text>
</a>
</g>
</g>
<!-- Node1&#45;&gt;Node5 -->
<g id="edge4_Node000001_Node000005" class="edge">
<title>Node1&#45;&gt;Node5</title>
<g id="a_edge4_Node000001_Node000005"><a xlink:title=" ">
<path fill="none" stroke="#63b8ff" d="M548.59,-182.49C529.03,-172.36 507.14,-161.03 488.56,-151.42"/>
<polygon fill="#63b8ff" stroke="#63b8ff" points="546.74,-185.47 557.23,-186.96 549.96,-179.25 546.74,-185.47"/>
</a>
</g>
</g>
<!-- Node4 -->
<g id="Node000004" class="node">
<title>Node4</title>
<g id="a_Node000004"><a xlink:href="namespacedepicture__menu_1_1domain_1_1services.html#a8b23757a00f9f8bfb1a02293d84fa0d7" target="_top" xlink:title=" ">
<polygon fill="white" stroke="#666666" points="324.5,-282 202,-282 202,-238 324.5,-238 324.5,-282"/>
<text xml:space="preserve" text-anchor="start" x="210" y="-268.5" font-family="Helvetica,sans-Serif" font-size="10.00">depicture_menu::domain</text>
<text xml:space="preserve" text-anchor="start" x="210" y="-256.5" font-family="Helvetica,sans-Serif" font-size="10.00">::services::build_action</text>
<text xml:space="preserve" text-anchor="middle" x="263.25" y="-244.5" font-family="Helvetica,sans-Serif" font-size="10.00">_service</text>
</a>
</g>
</g>
<!-- Node3&#45;&gt;Node4 -->
<g id="edge3_Node000003_Node000004" class="edge">
<title>Node3&#45;&gt;Node4</title>
<g id="a_edge3_Node000003_Node000004"><a xlink:title=" ">
<path fill="none" stroke="#63b8ff" d="M371.53,-260C356.04,-260 339.8,-260 324.79,-260"/>
<polygon fill="#63b8ff" stroke="#63b8ff" points="371.14,-263.5 381.14,-260 371.14,-256.5 371.14,-263.5"/>
</a>
</g>
</g>
<!-- Node5&#45;&gt;Node2 -->
<g id="edge5_Node000005_Node000002" class="edge">
<title>Node5&#45;&gt;Node2</title>
<g id="a_edge5_Node000005_Node000002"><a xlink:title=" ">
<path fill="none" stroke="#63b8ff" d="M405.33,-157.77C388.27,-169.55 367.4,-182.4 347,-191 335.73,-195.75 323.06,-199.42 311.1,-202.21"/>
<polygon fill="#63b8ff" stroke="#63b8ff" points="407.01,-160.87 413.16,-152.25 402.97,-155.15 407.01,-160.87"/>
</a>
</g>
</g>
<!-- Node6 -->
<g id="Node000006" class="node">
<title>Node6</title>
<g id="a_Node000006"><a xlink:href="test__action_8cpp.html#ac843104626db825913be7e480f5db544" target="_top" xlink:title="build_action_sequence : TestCase">
<polygon fill="white" stroke="#666666" points="336.88,-58 189.62,-58 189.62,-38 336.88,-38 336.88,-58"/>
<text xml:space="preserve" text-anchor="middle" x="263.25" y="-44.5" font-family="Helvetica,sans-Serif" font-size="10.00">BOOST_AUTO_TEST_CASE</text>
</a>
</g>
</g>
<!-- Node5&#45;&gt;Node6 -->
<g id="edge6_Node000005_Node000006" class="edge">
<title>Node5&#45;&gt;Node6</title>
<g id="a_edge6_Node000005_Node000006"><a xlink:title=" ">
<path fill="none" stroke="#63b8ff" d="M405.33,-100.23C388.27,-88.45 367.4,-75.6 347,-67 338.99,-63.62 330.27,-60.79 321.6,-58.44"/>
<polygon fill="#63b8ff" stroke="#63b8ff" points="402.97,-102.85 413.16,-105.75 407.01,-97.13 402.97,-102.85"/>
</a>
</g>
</g>
<!-- Node7 -->
<g id="Node000007" class="node">
<title>Node7</title>
<g id="a_Node000007"><a xlink:href="test-config__view_8cpp.html#a9593fb0b3c614953ed8545b960aed921" target="_top" xlink:title=" ">
<polygon fill="white" stroke="#666666" points="336.88,-20 189.62,-20 189.62,0 336.88,0 336.88,-20"/>
<text xml:space="preserve" text-anchor="middle" x="263.25" y="-6.5" font-family="Helvetica,sans-Serif" font-size="10.00">BOOST_AUTO_TEST_CASE</text>
</a>
</g>
</g>
<!-- Node5&#45;&gt;Node7 -->
<g id="edge7_Node000005_Node000007" class="edge">
<title>Node5&#45;&gt;Node7</title>
<g id="a_edge7_Node000005_Node000007"><a xlink:title=" ">
<path fill="none" stroke="#63b8ff" d="M420.94,-97.49C403.37,-75.04 376.91,-45.93 347,-29 340.97,-25.59 334.37,-22.79 327.6,-20.49"/>
<polygon fill="#63b8ff" stroke="#63b8ff" points="418.15,-99.61 426.99,-105.45 423.72,-95.37 418.15,-99.61"/>
</a>
</g>
</g>
<!-- Node8 -->
<g id="Node000008" class="node">
<title>Node8</title>
<g id="a_Node000008"><a xlink:href="classdepicture__menu_1_1domain_1_1services_1_1common__action__builder.html#a2dac5a8e67552ecb027185e75210d586" target="_top" xlink:title=" ">
<polygon fill="white" stroke="#666666" points="347,-182 179.5,-182 179.5,-138 347,-138 347,-182"/>
<text xml:space="preserve" text-anchor="start" x="187.5" y="-168.5" font-family="Helvetica,sans-Serif" font-size="10.00">depicture_menu::domain</text>
<text xml:space="preserve" text-anchor="start" x="187.5" y="-156.5" font-family="Helvetica,sans-Serif" font-size="10.00">::services::common_action</text>
<text xml:space="preserve" text-anchor="middle" x="263.25" y="-144.5" font-family="Helvetica,sans-Serif" font-size="10.00">_builder::build_shellexecute_action</text>
</a>
</g>
</g>
<!-- Node5&#45;&gt;Node8 -->
<g id="edge8_Node000005_Node000008" class="edge">
<title>Node5&#45;&gt;Node8</title>
<g id="a_edge8_Node000005_Node000008"><a xlink:title=" ">
<path fill="none" stroke="#63b8ff" d="M371.55,-141.42C363.58,-142.8 355.42,-144.21 347.33,-145.61"/>
<polygon fill="#63b8ff" stroke="#63b8ff" points="371.9,-144.91 381.16,-139.75 370.71,-138.01 371.9,-144.91"/>
</a>
</g>
</g>
<!-- Node9 -->
<g id="Node000009" class="node">
<title>Node9</title>
<g id="a_Node000009"><a xlink:href="structdepicture__menu_1_1usecase_1_1menu__item__sync.html#ad4a294098777093d4900b371810b3842" target="_top" xlink:title=" ">
<polygon fill="white" stroke="#666666" points="327.88,-120 198.62,-120 198.62,-76 327.88,-76 327.88,-120"/>
<text xml:space="preserve" text-anchor="start" x="206.62" y="-106.5" font-family="Helvetica,sans-Serif" font-size="10.00">depicture_menu::usecase</text>
<text xml:space="preserve" text-anchor="start" x="206.62" y="-94.5" font-family="Helvetica,sans-Serif" font-size="10.00">::menu_item_sync::create</text>
<text xml:space="preserve" text-anchor="middle" x="263.25" y="-82.5" font-family="Helvetica,sans-Serif" font-size="10.00">_new_action</text>
</a>
</g>
</g>
<!-- Node5&#45;&gt;Node9 -->
<g id="edge9_Node000005_Node000009" class="edge">
<title>Node5&#45;&gt;Node9</title>
<g id="a_edge9_Node000005_Node000009"><a xlink:title=" ">
<path fill="none" stroke="#63b8ff" d="M371.35,-116.55C357.06,-114.07 342.15,-111.49 328.15,-109.07"/>
<polygon fill="#63b8ff" stroke="#63b8ff" points="370.71,-119.99 381.16,-118.25 371.9,-113.09 370.71,-119.99"/>
</a>
</g>
</g>
<!-- Node10 -->
<g id="Node000010" class="node">
<title>Node10</title>
<g id="a_Node000010"><a xlink:href="structdepicture__menu_1_1usecase_1_1menu__item__sync.html#a9fd674e4ea4f37a1275b7fcf15ad2ae5" target="_top" xlink:title=" ">
<polygon fill="white" stroke="#666666" points="143.5,-114 0,-114 0,-82 143.5,-82 143.5,-114"/>
<text xml:space="preserve" text-anchor="start" x="8" y="-100.5" font-family="Helvetica,sans-Serif" font-size="10.00">depicture_menu::usecase</text>
<text xml:space="preserve" text-anchor="middle" x="71.75" y="-88.5" font-family="Helvetica,sans-Serif" font-size="10.00">::menu_item_sync::operator()</text>
</a>
</g>
</g>
<!-- Node9&#45;&gt;Node10 -->
<g id="edge10_Node000009_Node000010" class="edge">
<title>Node9&#45;&gt;Node10</title>
<g id="a_edge10_Node000009_Node000010"><a xlink:title=" ">
<path fill="none" stroke="#63b8ff" d="M187.09,-98C172.84,-98 157.98,-98 143.86,-98"/>
<polygon fill="#63b8ff" stroke="#63b8ff" points="186.84,-101.5 196.84,-98 186.84,-94.5 186.84,-101.5"/>
</a>
</g>
</g>
</g>
</svg>

<g id="navigator" transform="translate(0 0)" fill="#404254">
  <rect fill="#f2f5e9" fill-opacity="0.5" stroke="#606060" stroke-width=".5" x="0" y="0" width="60" height="60"/>
  <use id="zoomplus" xlink:href="#zoomPlus" x="17" y="9" onmousedown="handleZoom(evt,'in')"/>
  <use id="zoomminus" xlink:href="#zoomMin" x="42" y="9" onmousedown="handleZoom(evt,'out')"/>
  <use id="reset" xlink:href="#resetDef" x="30" y="36" onmousedown="handleReset()"/>
   <use id="arrowup" xlink:href="#arrowUp" x="0" y="0" onmousedown="handlePan(0,-1)"/>
  <use id="arrowright" xlink:href="#arrowRight" x="0" y="0" onmousedown="handlePan(1,0)"/>
  <use id="arrowdown" xlink:href="#arrowDown" x="0" y="0" onmousedown="handlePan(0,1)"/>
  <use id="arrowleft" xlink:href="#arrowLeft" x="0" y="0" onmousedown="handlePan(-1,0)"/>
</g>
<svg viewBox="0 0 15 15" width="100%" height="30px" preserveAspectRatio="xMaxYMin meet">
 <g id="arrow_out" transform="scale(0.3 0.3)">
  <a xlink:href="classdepicture__menu_1_1domain_1_1actions_1_1v2_1_1publisher_a0411a8b1aeaa948c4c08b8f2ffc75f0a_icgraph_org.svg" target="_base">
   <rect id="button" ry="5" rx="5" y="6" x="6" height="38" width="38"
        fill="#f2f5e9" fill-opacity="0.5" stroke="#606060" stroke-width="1.0"/>
   <path id="arrow"
     d="M 11.500037,31.436501 C 11.940474,20.09759 22.043105,11.32322 32.158766,21.979434 L 37.068811,17.246167 C 37.068811,17.246167 37.088388,32 37.088388,32 L 22.160133,31.978069 C 22.160133,31.978069 26.997745,27.140456 26.997745,27.140456 C 18.528582,18.264221 13.291696,25.230495 11.500037,31.436501 z"
     style="fill:#404040;"/>
  </a>
 </g>
</svg>

<style type='text/css'>
<![CDATA[
[data-mouse-over-selected='false'] { opacity: 0.7; }
[data-mouse-over-selected='true']  { opacity: 1.0; }
]]>
</style>
<script type="application/ecmascript"><![CDATA[
document.addEventListener('DOMContentLoaded', (event) => {
  highlightEdges();
  highlightAdjacentNodes();
});
]]></script>
</svg>
