<?xml version="1.0" encoding="UTF-8" standalone="no"?>
<!DOCTYPE svg PUBLIC "-//W3C//DTD SVG 1.1//EN"
 "http://www.w3.org/Graphics/SVG/1.1/DTD/svg11.dtd">
<!-- Generated by graphviz version 14.1.2 (20260124.0452)
 -->
<!-- Title: depicture_menu::domain::menu::menu_color Pages: 1 -->
<svg width="526pt" height="102pt"
 viewBox="0.00 0.00 526.00 102.00" xmlns="http://www.w3.org/2000/svg" xmlns:xlink="http://www.w3.org/1999/xlink">
<g id="graph0" class="graph" transform="scale(1 1) rotate(0) translate(4 98)">
<title>depicture_menu::domain::menu::menu_color</title>
<!-- Node1 -->
<g id="Node000001" class="node">
<title>Node1</title>
<g id="a_Node000001"><a xlink:title=" ">
<polygon fill="#999999" stroke="#666666" points="518.25,-60 395.75,-60 395.75,-28 518.25,-28 518.25,-60"/>
<text xml:space="preserve" text-anchor="start" x="403.75" y="-46.5" font-family="Helvetica,sans-Serif" font-size="10.00">depicture_menu::domain</text>
<text xml:space="preserve" text-anchor="middle" x="457" y="-34.5" font-family="Helvetica,sans-Serif" font-size="10.00">::menu::menu_color</text>
</a>
</g>
</g>
<!-- Node2 -->
<g id="Node000002" class="node">
<title>Node2</title>
<g id="a_Node000002"><a xlink:href="structdepicture__menu_1_1domain_1_1models_1_1base_1_1v2_1_1value__object__base.html" target="_top" xlink:title=" ">
<polygon fill="white" stroke="#666666" points="318.5,-94 192.25,-94 192.25,-50 318.5,-50 318.5,-94"/>
<text xml:space="preserve" text-anchor="start" x="200.25" y="-80.5" font-family="Helvetica,sans-Serif" font-size="10.00">depicture_menu::domain</text>
<text xml:space="preserve" text-anchor="start" x="200.25" y="-68.5" font-family="Helvetica,sans-Serif" font-size="10.00">::models::base::v2::value</text>
<text xml:space="preserve" text-anchor="middle" x="255.38" y="-56.5" font-family="Helvetica,sans-Serif" font-size="10.00">_object_base</text>
</a>
</g>
</g>
<!-- Node2&#45;&gt;Node1 -->
<g id="edge1_Node000001_Node000002" class="edge">
<title>Node2&#45;&gt;Node1</title>
<g id="a_edge1_Node000001_Node000002"><a xlink:title=" ">
<path fill="none" stroke="#63b8ff" d="M330.34,-61.63C351.73,-58.62 374.83,-55.39 395.32,-52.51"/>
<polygon fill="#63b8ff" stroke="#63b8ff" points="329.91,-58.15 320.49,-63.01 330.88,-65.08 329.91,-58.15"/>
</a>
</g>
</g>
<!-- Node3 -->
<g id="Node000003" class="node">
<title>Node3</title>
<g id="a_Node000003"><a xlink:href="structdepicture__menu_1_1domain_1_1menu_1_1menu__color_1_1value__t.html" target="_top" xlink:title=" ">
<polygon fill="white" stroke="#666666" points="325.25,-32 185.5,-32 185.5,0 325.25,0 325.25,-32"/>
<text xml:space="preserve" text-anchor="start" x="193.5" y="-18.5" font-family="Helvetica,sans-Serif" font-size="10.00">depicture_menu::domain</text>
<text xml:space="preserve" text-anchor="middle" x="255.38" y="-6.5" font-family="Helvetica,sans-Serif" font-size="10.00">::menu::menu_color::value_t</text>
</a>
</g>
</g>
<!-- Node3&#45;&gt;Node1 -->
<g id="edge2_Node000001_Node000003" class="edge">
<title>Node3&#45;&gt;Node1</title>
<g id="a_edge2_Node000001_Node000003"><a xlink:title=" ">
<path fill="none" stroke="#9a32cd" stroke-dasharray="5,2" d="M337.01,-27.29C350.61,-29.19 364.58,-31.15 377.75,-33 383.46,-33.8 389.4,-34.63 395.34,-35.47"/>
<polygon fill="#9a32cd" stroke="#9a32cd" points="337.58,-23.83 327.2,-25.91 336.61,-30.77 337.58,-23.83"/>
</a>
</g>
<text xml:space="preserve" text-anchor="start" x="346.25" y="-38.5" font-family="Helvetica,sans-Serif" font-size="10.00" fill="grey">value_</text>
</g>
<!-- Node4 -->
<g id="Node000004" class="node">
<title>Node4</title>
<g id="a_Node000004"><a xlink:href="structdepicture__menu_1_1domain_1_1common_1_1rgba__color.html" target="_top" xlink:title="カラー表現 ValueObject">
<polygon fill="white" stroke="#666666" points="122.5,-32 0,-32 0,0 122.5,0 122.5,-32"/>
<text xml:space="preserve" text-anchor="start" x="8" y="-18.5" font-family="Helvetica,sans-Serif" font-size="10.00">depicture_menu::domain</text>
<text xml:space="preserve" text-anchor="middle" x="61.25" y="-6.5" font-family="Helvetica,sans-Serif" font-size="10.00">::common::rgba_color</text>
</a>
</g>
</g>
<!-- Node4&#45;&gt;Node3 -->
<g id="edge3_Node000003_Node000004" class="edge">
<title>Node4&#45;&gt;Node3</title>
<g id="a_edge3_Node000003_Node000004"><a xlink:title=" ">
<path fill="none" stroke="#9a32cd" stroke-dasharray="5,2" d="M134.13,-16C150.82,-16 168.54,-16 185.11,-16"/>
<polygon fill="#9a32cd" stroke="#9a32cd" points="134.29,-12.5 124.29,-16 134.29,-19.5 134.29,-12.5"/>
</a>
</g>
<text xml:space="preserve" text-anchor="start" x="143.5" y="-37.5" font-family="Helvetica,sans-Serif" font-size="10.00" fill="grey">back</text>
<text xml:space="preserve" text-anchor="start" x="143.5" y="-21.5" font-family="Helvetica,sans-Serif" font-size="10.00" fill="grey">fore</text>
</g>
</g>
</svg>
