<?xml version="1.0" encoding="UTF-8" standalone="no"?>
<!DOCTYPE svg PUBLIC "-//W3C//DTD SVG 1.1//EN"
 "http://www.w3.org/Graphics/SVG/1.1/DTD/svg11.dtd">
<!-- Generated by graphviz version 14.1.2 (20260124.0452)
 -->
<!-- Title: depicture_menu::domain::services::menu_item_default_name_update_service Pages: 1 -->
<svg width="308pt" height="513pt"
 viewBox="0.00 0.00 308.00 513.00" xmlns="http://www.w3.org/2000/svg" xmlns:xlink="http://www.w3.org/1999/xlink">
<g id="graph0" class="graph" transform="scale(1 1) rotate(0) translate(4 509)">
<title>depicture_menu::domain::services::menu_item_default_name_update_service</title>
<!-- Node1 -->
<g id="Node000001" class="node">
<title>Node1</title>
<g id="a_Node000001"><a xlink:title=" ">
<polygon fill="#999999" stroke="#666666" points="151,-44 0,-44 0,0 151,0 151,-44"/>
<text xml:space="preserve" text-anchor="start" x="8" y="-30.5" font-family="Helvetica,sans-Serif" font-size="10.00">depicture_menu::domain</text>
<text xml:space="preserve" text-anchor="start" x="8" y="-18.5" font-family="Helvetica,sans-Serif" font-size="10.00">::services::menu_item</text>
<text xml:space="preserve" text-anchor="middle" x="75.5" y="-6.5" font-family="Helvetica,sans-Serif" font-size="10.00">_default_name_update_service</text>
</a>
</g>
</g>
<!-- Node2 -->
<g id="Node000002" class="node">
<title>Node2</title>
<g id="a_Node000002"><a xlink:href="classdepicture__menu_1_1domain_1_1actions_1_1v2_1_1publisher.html" target="_top" xlink:title=" ">
<polygon fill="white" stroke="#666666" points="136.75,-130 14.25,-130 14.25,-98 136.75,-98 136.75,-130"/>
<text xml:space="preserve" text-anchor="start" x="22.25" y="-116.5" font-family="Helvetica,sans-Serif" font-size="10.00">depicture_menu::domain</text>
<text xml:space="preserve" text-anchor="middle" x="75.5" y="-104.5" font-family="Helvetica,sans-Serif" font-size="10.00">::actions::v2::publisher</text>
</a>
</g>
</g>
<!-- Node2&#45;&gt;Node1 -->
<g id="edge1_Node000001_Node000002" class="edge">
<title>Node2&#45;&gt;Node1</title>
<g id="a_edge1_Node000001_Node000002"><a xlink:title=" ">
<path fill="none" stroke="#9a32cd" stroke-dasharray="5,2" d="M75.5,-86.36C75.5,-72.98 75.5,-56.99 75.5,-44.43"/>
<polygon fill="#9a32cd" stroke="#9a32cd" points="72,-86.22 75.5,-96.22 79,-86.22 72,-86.22"/>
</a>
</g>
<text xml:space="preserve" text-anchor="start" x="78.5" y="-67.5" font-family="Helvetica,sans-Serif" font-size="10.00" fill="grey">pub_</text>
</g>
<!-- Node3 -->
<g id="Node000003" class="node">
<title>Node3</title>
<g id="a_Node000003"><a xlink:href="structdepicture__menu_1_1domain_1_1models_1_1base_1_1entity__base.html" target="_top" xlink:title=" ">
<polygon fill="white" stroke="#666666" points="140.5,-211 10.5,-211 10.5,-167 140.5,-167 140.5,-211"/>
<text xml:space="preserve" text-anchor="start" x="18.5" y="-197.5" font-family="Helvetica,sans-Serif" font-size="10.00">models::entity_base</text>
<text xml:space="preserve" text-anchor="start" x="18.5" y="-185.5" font-family="Helvetica,sans-Serif" font-size="10.00">&lt; detail_actions::publisher</text>
<text xml:space="preserve" text-anchor="middle" x="75.5" y="-173.5" font-family="Helvetica,sans-Serif" font-size="10.00">_data, maker_id &gt;</text>
</a>
</g>
</g>
<!-- Node3&#45;&gt;Node2 -->
<g id="edge2_Node000002_Node000003" class="edge">
<title>Node3&#45;&gt;Node2</title>
<g id="a_edge2_Node000002_Node000003"><a xlink:title=" ">
<path fill="none" stroke="#63b8ff" d="M75.5,-155.56C75.5,-146.66 75.5,-137.44 75.5,-130.04"/>
<polygon fill="#63b8ff" stroke="#63b8ff" points="72,-155.37 75.5,-165.37 79,-155.37 72,-155.37"/>
</a>
</g>
</g>
<!-- Node4 -->
<g id="Node000004" class="node">
<title>Node4</title>
<g id="a_Node000004"><a xlink:title=" ">
<polygon fill="white" stroke="#666666" points="73.9,-297 45.1,-297 45.1,-277 73.9,-277 73.9,-297"/>
<text xml:space="preserve" text-anchor="middle" x="59.5" y="-283.5" font-family="Helvetica,sans-Serif" font-size="10.00">V</text>
</a>
</g>
</g>
<!-- Node4&#45;&gt;Node3 -->
<g id="edge3_Node000003_Node000004" class="edge">
<title>Node4&#45;&gt;Node3</title>
<g id="a_edge3_Node000003_Node000004"><a xlink:title=" ">
<path fill="none" stroke="darkgreen" d="M62.92,-265.5C65.59,-249.49 69.28,-227.3 71.98,-211.13"/>
<polygon fill="darkgreen" stroke="darkgreen" points="59.47,-264.86 61.28,-275.3 66.38,-266.01 59.47,-264.86"/>
</a>
</g>
</g>
<!-- Node5 -->
<g id="Node000005" class="node">
<title>Node5</title>
<g id="a_Node000005"><a xlink:href="structdepicture__menu_1_1domain_1_1models_1_1base_1_1entity__base.html" target="_top" xlink:title=" ">
<polygon fill="white" stroke="#666666" points="214.75,-309 92.25,-309 92.25,-265 214.75,-265 214.75,-309"/>
<text xml:space="preserve" text-anchor="start" x="100.25" y="-295.5" font-family="Helvetica,sans-Serif" font-size="10.00">depicture_menu::domain</text>
<text xml:space="preserve" text-anchor="start" x="100.25" y="-283.5" font-family="Helvetica,sans-Serif" font-size="10.00">::models::base::entity</text>
<text xml:space="preserve" text-anchor="middle" x="153.5" y="-271.5" font-family="Helvetica,sans-Serif" font-size="10.00">_base&lt; Value, IdTag &gt;</text>
</a>
</g>
</g>
<!-- Node5&#45;&gt;Node3 -->
<g id="edge4_Node000003_Node000005" class="edge">
<title>Node5&#45;&gt;Node3</title>
<g id="a_edge4_Node000003_Node000005"><a xlink:title=" ">
<path fill="none" stroke="orange" stroke-dasharray="5,2" d="M129.16,-256.04C117.36,-241.51 103.46,-224.41 92.76,-211.25"/>
<polygon fill="orange" stroke="orange" points="126.21,-257.97 135.23,-263.52 131.65,-253.55 126.21,-257.97"/>
</a>
</g>
<text xml:space="preserve" text-anchor="start" x="124.49" y="-234.5" font-family="Helvetica,sans-Serif" font-size="10.00" fill="grey">&lt; V, ID &gt;</text>
</g>
<!-- Node6 -->
<g id="Node000006" class="node">
<title>Node6</title>
<g id="a_Node000006"><a xlink:title=" ">
<polygon fill="white" stroke="#666666" points="140.5,-395 100.5,-395 100.5,-375 140.5,-375 140.5,-395"/>
<text xml:space="preserve" text-anchor="middle" x="120.5" y="-381.5" font-family="Helvetica,sans-Serif" font-size="10.00">Value</text>
</a>
</g>
</g>
<!-- Node6&#45;&gt;Node5 -->
<g id="edge5_Node000005_Node000006" class="edge">
<title>Node6&#45;&gt;Node5</title>
<g id="a_edge5_Node000005_Node000006"><a xlink:title=" ">
<path fill="none" stroke="darkgreen" d="M127.38,-363.98C132.9,-347.93 140.62,-325.46 146.24,-309.13"/>
<polygon fill="darkgreen" stroke="darkgreen" points="124.1,-362.77 124.16,-373.36 130.72,-365.04 124.1,-362.77"/>
</a>
</g>
</g>
<!-- Node7 -->
<g id="Node000007" class="node">
<title>Node7</title>
<g id="a_Node000007"><a xlink:href="structdepicture__menu_1_1domain_1_1models_1_1entity__id__base.html" target="_top" xlink:title=" ">
<polygon fill="white" stroke="#666666" points="280.75,-407 158.25,-407 158.25,-363 280.75,-363 280.75,-407"/>
<text xml:space="preserve" text-anchor="start" x="166.25" y="-393.5" font-family="Helvetica,sans-Serif" font-size="10.00">depicture_menu::domain</text>
<text xml:space="preserve" text-anchor="start" x="166.25" y="-381.5" font-family="Helvetica,sans-Serif" font-size="10.00">::models::entity_id_base</text>
<text xml:space="preserve" text-anchor="middle" x="219.5" y="-369.5" font-family="Helvetica,sans-Serif" font-size="10.00">&lt; standard_tag &gt;</text>
</a>
</g>
</g>
<!-- Node7&#45;&gt;Node5 -->
<g id="edge6_Node000005_Node000007" class="edge">
<title>Node7&#45;&gt;Node5</title>
<g id="a_edge6_Node000005_Node000007"><a xlink:title=" ">
<path fill="none" stroke="#9a32cd" stroke-dasharray="5,2" d="M198.34,-353.22C188.47,-338.87 176.99,-322.16 168.11,-309.25"/>
<polygon fill="#9a32cd" stroke="#9a32cd" points="195.45,-355.19 203.99,-361.45 201.21,-351.22 195.45,-355.19"/>
</a>
</g>
<text xml:space="preserve" text-anchor="start" x="195.41" y="-332.5" font-family="Helvetica,sans-Serif" font-size="10.00" fill="grey">id_</text>
</g>
<!-- Node8 -->
<g id="Node000008" class="node">
<title>Node8</title>
<g id="a_Node000008"><a xlink:href="structdepicture__menu_1_1domain_1_1models_1_1entity__id__base.html" target="_top" xlink:title=" ">
<polygon fill="white" stroke="#666666" points="280.75,-505 158.25,-505 158.25,-461 280.75,-461 280.75,-505"/>
<text xml:space="preserve" text-anchor="start" x="166.25" y="-491.5" font-family="Helvetica,sans-Serif" font-size="10.00">depicture_menu::domain</text>
<text xml:space="preserve" text-anchor="start" x="166.25" y="-479.5" font-family="Helvetica,sans-Serif" font-size="10.00">::models::entity_id_base</text>
<text xml:space="preserve" text-anchor="middle" x="219.5" y="-467.5" font-family="Helvetica,sans-Serif" font-size="10.00">&lt; Tag &gt;</text>
</a>
</g>
</g>
<!-- Node8&#45;&gt;Node7 -->
<g id="edge7_Node000007_Node000008" class="edge">
<title>Node8&#45;&gt;Node7</title>
<g id="a_edge7_Node000007_Node000008"><a xlink:title=" ">
<path fill="none" stroke="orange" stroke-dasharray="5,2" d="M219.5,-449.55C219.5,-435.59 219.5,-419.66 219.5,-407.25"/>
<polygon fill="orange" stroke="orange" points="216,-449.18 219.5,-459.18 223,-449.18 216,-449.18"/>
</a>
</g>
<text xml:space="preserve" text-anchor="start" x="222.5" y="-430.5" font-family="Helvetica,sans-Serif" font-size="10.00" fill="grey">&lt; standard_tag &gt;</text>
</g>
</g>
</svg>
