<?xml version="1.0" encoding="UTF-8" standalone="no"?>
<!DOCTYPE svg PUBLIC "-//W3C//DTD SVG 1.1//EN"
 "http://www.w3.org/Graphics/SVG/1.1/DTD/svg11.dtd">
<!-- Generated by graphviz version 14.1.2 (20260124.0452)
 -->
<!-- Title: depicture_menu::usecase::command_config_interface Pages: 1 -->
<svg width="988pt" height="140pt"
 viewBox="0.00 0.00 988.00 140.00" xmlns="http://www.w3.org/2000/svg" xmlns:xlink="http://www.w3.org/1999/xlink">
<g id="graph0" class="graph" transform="scale(1 1) rotate(0) translate(4 136)">
<title>depicture_menu::usecase::command_config_interface</title>
<!-- Node1 -->
<g id="Node000001" class="node">
<title>Node1</title>
<g id="a_Node000001"><a xlink:title=" ">
<polygon fill="#999999" stroke="#666666" points="139,-107 0,-107 0,-75 139,-75 139,-107"/>
<text xml:space="preserve" text-anchor="start" x="8" y="-93.5" font-family="Helvetica,sans-Serif" font-size="10.00">depicture_menu::usecase</text>
<text xml:space="preserve" text-anchor="middle" x="69.5" y="-81.5" font-family="Helvetica,sans-Serif" font-size="10.00">::command_config_interface</text>
</a>
</g>
</g>
<!-- Node2 -->
<g id="Node000002" class="node">
<title>Node2</title>
<g id="a_Node000002"><a xlink:href="classdepicture__menu_1_1usecase_1_1config__changed__interface.html" target="_top" xlink:title=" ">
<polygon fill="white" stroke="#666666" points="309,-107 176,-107 176,-75 309,-75 309,-107"/>
<text xml:space="preserve" text-anchor="start" x="184" y="-93.5" font-family="Helvetica,sans-Serif" font-size="10.00">depicture_menu::usecase</text>
<text xml:space="preserve" text-anchor="middle" x="242.5" y="-81.5" font-family="Helvetica,sans-Serif" font-size="10.00">::config_changed_interface</text>
</a>
</g>
</g>
<!-- Node1&#45;&gt;Node2 -->
<g id="edge1_Node000001_Node000002" class="edge">
<title>Node1&#45;&gt;Node2</title>
<g id="a_edge1_Node000001_Node000002"><a xlink:title=" ">
<path fill="none" stroke="#63b8ff" d="M150.5,-91C158.94,-91 167.45,-91 175.7,-91"/>
<polygon fill="#63b8ff" stroke="#63b8ff" points="150.58,-87.5 140.58,-91 150.58,-94.5 150.58,-87.5"/>
</a>
</g>
</g>
<!-- Node3 -->
<g id="Node000003" class="node">
<title>Node3</title>
<g id="a_Node000003"><a xlink:href="classdepicture__menu_1_1presentations_1_1menu__view__presenter.html" target="_top" xlink:title=" ">
<polygon fill="white" stroke="#666666" points="495.5,-132 346,-132 346,-100 495.5,-100 495.5,-132"/>
<text xml:space="preserve" text-anchor="start" x="354" y="-118.5" font-family="Helvetica,sans-Serif" font-size="10.00">depicture_menu::presentations</text>
<text xml:space="preserve" text-anchor="middle" x="420.75" y="-106.5" font-family="Helvetica,sans-Serif" font-size="10.00">::menu_view_presenter</text>
</a>
</g>
</g>
<!-- Node2&#45;&gt;Node3 -->
<g id="edge2_Node000002_Node000003" class="edge">
<title>Node2&#45;&gt;Node3</title>
<g id="a_edge2_Node000002_Node000003"><a xlink:title=" ">
<path fill="none" stroke="#63b8ff" d="M320.61,-101.94C328.93,-103.12 337.38,-104.32 345.66,-105.49"/>
<polygon fill="#63b8ff" stroke="#63b8ff" points="321.27,-98.5 310.88,-100.56 320.29,-105.43 321.27,-98.5"/>
</a>
</g>
</g>
<!-- Node4 -->
<g id="Node000004" class="node">
<title>Node4</title>
<g id="a_Node000004"><a xlink:href="classdepicture__menu_1_1usecase_1_1config__view__model__interface.html" target="_top" xlink:title=" ">
<polygon fill="white" stroke="#666666" points="494.75,-82 346.75,-82 346.75,-50 494.75,-50 494.75,-82"/>
<text xml:space="preserve" text-anchor="start" x="354.75" y="-68.5" font-family="Helvetica,sans-Serif" font-size="10.00">depicture_menu::usecase</text>
<text xml:space="preserve" text-anchor="middle" x="420.75" y="-56.5" font-family="Helvetica,sans-Serif" font-size="10.00">::config_view_model_interface</text>
</a>
</g>
</g>
<!-- Node2&#45;&gt;Node4 -->
<g id="edge3_Node000002_Node000004" class="edge">
<title>Node2&#45;&gt;Node4</title>
<g id="a_edge3_Node000002_Node000004"><a xlink:title=" ">
<path fill="none" stroke="#63b8ff" d="M320.51,-80.08C329.06,-78.86 337.75,-77.63 346.25,-76.42"/>
<polygon fill="#63b8ff" stroke="#63b8ff" points="320.29,-76.57 310.88,-81.44 321.27,-83.5 320.29,-76.57"/>
</a>
</g>
</g>
<!-- Node5 -->
<g id="Node000005" class="node">
<title>Node5</title>
<g id="a_Node000005"><a xlink:href="classdepicture__menu_1_1usecase_1_1multi__view__model.html" target="_top" xlink:title=" ">
<polygon fill="white" stroke="#666666" points="980,-91 837.25,-91 837.25,-35 980,-35 980,-91"/>
<text xml:space="preserve" text-anchor="start" x="845.25" y="-77.5" font-family="Helvetica,sans-Serif" font-size="10.00">depicture_menu::usecase</text>
<text xml:space="preserve" text-anchor="start" x="845.25" y="-65.5" font-family="Helvetica,sans-Serif" font-size="10.00">::multi_view_model&lt; config</text>
<text xml:space="preserve" text-anchor="start" x="845.25" y="-53.5" font-family="Helvetica,sans-Serif" font-size="10.00">_view_presenter, menu_view</text>
<text xml:space="preserve" text-anchor="middle" x="908.62" y="-41.5" font-family="Helvetica,sans-Serif" font-size="10.00">_presenter &gt;</text>
</a>
</g>
</g>
<!-- Node4&#45;&gt;Node5 -->
<g id="edge4_Node000004_Node000005" class="edge">
<title>Node4&#45;&gt;Node5</title>
<g id="a_edge4_Node000004_Node000005"><a xlink:title=" ">
<path fill="none" stroke="#63b8ff" d="M494.38,-84.81C507.01,-87.38 520.08,-89.62 532.5,-91 659.17,-105.12 693.17,-105.69 819.25,-87 825.07,-86.14 831.05,-85.02 837.03,-83.75"/>
<polygon fill="#63b8ff" stroke="#63b8ff" points="495.42,-81.45 484.91,-82.78 493.96,-88.29 495.42,-81.45"/>
</a>
</g>
</g>
<!-- Node6 -->
<g id="Node000006" class="node">
<title>Node6</title>
<g id="a_Node000006"><a xlink:href="classdepicture__menu_1_1presentations_1_1config__view__presenter.html" target="_top" xlink:title=" ">
<polygon fill="white" stroke="#666666" points="682,-82 532.5,-82 532.5,-50 682,-50 682,-82"/>
<text xml:space="preserve" text-anchor="start" x="540.5" y="-68.5" font-family="Helvetica,sans-Serif" font-size="10.00">depicture_menu::presentations</text>
<text xml:space="preserve" text-anchor="middle" x="607.25" y="-56.5" font-family="Helvetica,sans-Serif" font-size="10.00">::config_view_presenter</text>
</a>
</g>
</g>
<!-- Node4&#45;&gt;Node6 -->
<g id="edge5_Node000004_Node000006" class="edge">
<title>Node4&#45;&gt;Node6</title>
<g id="a_edge5_Node000004_Node000006"><a xlink:title=" ">
<path fill="none" stroke="#63b8ff" d="M506.7,-66C515.2,-66 523.78,-66 532.15,-66"/>
<polygon fill="#63b8ff" stroke="#63b8ff" points="506.71,-62.5 496.71,-66 506.71,-69.5 506.71,-62.5"/>
</a>
</g>
</g>
<!-- Node7 -->
<g id="Node000007" class="node">
<title>Node7</title>
<g id="a_Node000007"><a xlink:href="classdepicture__menu_1_1usecase_1_1multi__view__model.html" target="_top" xlink:title="multi_view_model_interface">
<polygon fill="white" stroke="#666666" points="671.12,-32 543.38,-32 543.38,0 671.12,0 671.12,-32"/>
<text xml:space="preserve" text-anchor="start" x="551.38" y="-18.5" font-family="Helvetica,sans-Serif" font-size="10.00">depicture_menu::usecase</text>
<text xml:space="preserve" text-anchor="middle" x="607.25" y="-6.5" font-family="Helvetica,sans-Serif" font-size="10.00">::multi_view_model&lt; Ts &gt;</text>
</a>
</g>
</g>
<!-- Node4&#45;&gt;Node7 -->
<g id="edge6_Node000004_Node000007" class="edge">
<title>Node4&#45;&gt;Node7</title>
<g id="a_edge6_Node000004_Node000007"><a xlink:title=" ">
<path fill="none" stroke="#63b8ff" d="M493.05,-46.68C510.38,-41.98 528.76,-37 545.55,-32.45"/>
<polygon fill="#63b8ff" stroke="#63b8ff" points="492.61,-43.17 483.88,-49.16 494.45,-49.93 492.61,-43.17"/>
</a>
</g>
</g>
<!-- Node7&#45;&gt;Node5 -->
<g id="edge7_Node000007_Node000005" class="edge">
<title>Node7&#45;&gt;Node5</title>
<g id="a_edge7_Node000007_Node000005"><a xlink:title=" ">
<path fill="none" stroke="orange" stroke-dasharray="5,2" d="M682.45,-27.65C729.68,-35.06 790.47,-44.61 836.99,-51.91"/>
<polygon fill="orange" stroke="orange" points="683.29,-24.24 672.87,-26.14 682.21,-31.15 683.29,-24.24"/>
</a>
</g>
<text xml:space="preserve" text-anchor="start" x="703" y="-70.61" font-family="Helvetica,sans-Serif" font-size="10.00" fill="grey">&lt; config_view_presenter,</text>
<text xml:space="preserve" text-anchor="start" x="703" y="-54.61" font-family="Helvetica,sans-Serif" font-size="10.00" fill="grey">   menu_view_presenter &gt;</text>
</g>
</g>
</svg>
