<?xml version="1.0" encoding="UTF-8" standalone="no"?>
<!DOCTYPE svg PUBLIC "-//W3C//DTD SVG 1.1//EN"
 "http://www.w3.org/Graphics/SVG/1.1/DTD/svg11.dtd">
<!-- Generated by graphviz version 14.1.2 (20260124.0452)
 -->
<!-- Title: depicture_menu::domain::menu::menu_color::with_back_color Pages: 1 -->
<!--zoomable 214 -->

<svg id="main" version="1.1" xmlns="http://www.w3.org/2000/svg" xmlns:xlink="http://www.w3.org/1999/xlink" xml:space="preserve" onload="init(evt)">

<style type="text/css"><![CDATA[
.node, .edge {opacity: 0.7;}
.node.selected, .edge.selected {opacity: 1;}
.edge:hover path { stroke: red; }
.edge:hover polygon { stroke: red; fill: red; }
]]></style>

<defs>
  <circle id="rim" cx="0" cy="0" r="7"/>
  <circle id="rim2" cx="0" cy="0" r="3.5"/>
  <g id="zoomPlus">
    <use xlink:href="#rim" fill="#404040"><set attributeName="fill" to="#808080" begin="zoomplus.mouseover" end="zoomplus.mouseout"/></use>
    <path d="M-4,0h8M0,-4v8" fill="none" stroke="white" stroke-width="1.5" pointer-events="none"/>
  </g>
  <g id="zoomMin">
    <use xlink:href="#rim" fill="#404040"><set attributeName="fill" to="#808080" begin="zoomminus.mouseover" end="zoomminus.mouseout"/></use>
    <path d="M-4,0h8" fill="none" stroke="white" stroke-width="1.5" pointer-events="none"/>
  </g>
  <g id="arrowUp" transform="translate(30 24)">
    <use xlink:href="#rim"/>
    <path pointer-events="none" fill="none" stroke="white" stroke-width="1.5" d="M0,-3.0v7 M-2.5,-0.5L0,-3.0L2.5,-0.5"/>
  </g>
  <g id="arrowRight" transform="rotate(90) translate(36 -43)">
    <use xlink:href="#rim"/>
    <path pointer-events="none" fill="none" stroke="white" stroke-width="1.5" d="M0,-3.0v7 M-2.5,-0.5L0,-3.0L2.5,-0.5"/>
  </g>
  <g id="arrowDown" transform="rotate(180) translate(-30 -48)">
    <use xlink:href="#rim"/>
    <path pointer-events="none" fill="none" stroke="white" stroke-width="1.5" d="M0,-3.0v7 M-2.5,-0.5L0,-3.0L2.5,-0.5"/>
  </g>
  <g id="arrowLeft" transform="rotate(270) translate(-36 17)">
    <use xlink:href="#rim"/>
    <path pointer-events="none" fill="none" stroke="white" stroke-width="1.5" d="M0,-3.0v7 M-2.5,-0.5L0,-3.0L2.5,-0.5"/>
  </g>
  <g id="resetDef">
    <use xlink:href="#rim2" fill="#404040"><set attributeName="fill" to="#808080" begin="reset.mouseover" end="reset.mouseout"/></use>
  </g>
</defs>
<script type="application/ecmascript">
var viewWidth = 505;
var viewHeight = 214;
var sectionId = 'dynsection-8';
</script>
<script type="application/ecmascript" xlink:href="svg.min.js"/>
<svg id="graph" class="graph">
<g id="viewport">
<title>depicture_menu::domain::menu::menu_color::with_back_color</title>
<!-- Node1 -->
<g id="Node000001" class="node">
<title>Node1</title>
<g id="a_Node000001"><a xlink:title="背景色を変更したオブジェクトを取得">
<polygon fill="#999999" stroke="#666666" points="126.25,-128 0,-128 0,-84 126.25,-84 126.25,-128"/>
<text xml:space="preserve" text-anchor="start" x="8" y="-114.5" font-family="Helvetica,sans-Serif" font-size="10.00">depicture_menu::domain</text>
<text xml:space="preserve" text-anchor="start" x="8" y="-102.5" font-family="Helvetica,sans-Serif" font-size="10.00">::menu::menu_color::with</text>
<text xml:space="preserve" text-anchor="middle" x="63.12" y="-90.5" font-family="Helvetica,sans-Serif" font-size="10.00">_back_color</text>
</a>
</g>
</g>
<!-- Node2 -->
<g id="Node000002" class="node">
<title>Node2</title>
<g id="a_Node000002"><a xlink:href="classdepicture__menu_1_1domain_1_1menu_1_1menu__color.html#a36bc88045fb64a7801ad046cb32b1826" target="_top" xlink:title="背景色を取得">
<polygon fill="white" stroke="#666666" points="317.75,-206 162.25,-206 162.25,-174 317.75,-174 317.75,-206"/>
<text xml:space="preserve" text-anchor="start" x="170.25" y="-192.5" font-family="Helvetica,sans-Serif" font-size="10.00">depicture_menu::domain</text>
<text xml:space="preserve" text-anchor="middle" x="240" y="-180.5" font-family="Helvetica,sans-Serif" font-size="10.00">::menu::menu_color::back_color</text>
</a>
</g>
</g>
<!-- Node1&#45;&gt;Node2 -->
<g id="edge1_Node000001_Node000002" class="edge">
<title>Node1&#45;&gt;Node2</title>
<g id="a_edge1_Node000001_Node000002"><a xlink:title=" ">
<path fill="none" stroke="#63b8ff" d="M97.15,-128.43C115.72,-140.38 139.65,-154.68 162.25,-165 165.73,-166.59 169.35,-168.13 173.03,-169.6"/>
<polygon fill="#63b8ff" stroke="#63b8ff" points="171.5,-172.76 182.09,-173.05 173.99,-166.22 171.5,-172.76"/>
</a>
</g>
</g>
<!-- Node3 -->
<g id="Node000003" class="node">
<title>Node3</title>
<g id="a_Node000003"><a xlink:href="structdepicture__menu_1_1domain_1_1common_1_1rgba__color.html#ae88437eac8806ea4ec0b09f9b71f7185" target="_top" xlink:title="RGBカラーコンセプトから構成">
<polygon fill="white" stroke="#666666" points="301.25,-156 178.75,-156 178.75,-112 301.25,-112 301.25,-156"/>
<text xml:space="preserve" text-anchor="start" x="186.75" y="-142.5" font-family="Helvetica,sans-Serif" font-size="10.00">depicture_menu::domain</text>
<text xml:space="preserve" text-anchor="start" x="186.75" y="-130.5" font-family="Helvetica,sans-Serif" font-size="10.00">::common::rgba_color::</text>
<text xml:space="preserve" text-anchor="middle" x="240" y="-118.5" font-family="Helvetica,sans-Serif" font-size="10.00">from_rgb</text>
</a>
</g>
</g>
<!-- Node1&#45;&gt;Node3 -->
<g id="edge2_Node000001_Node000003" class="edge">
<title>Node1&#45;&gt;Node3</title>
<g id="a_edge2_Node000001_Node000003"><a xlink:title=" ">
<path fill="none" stroke="#63b8ff" d="M126.27,-115.95C139.54,-118.08 153.66,-120.34 167.25,-122.51"/>
<polygon fill="#63b8ff" stroke="#63b8ff" points="166.6,-125.95 177.03,-124.08 167.71,-119.04 166.6,-125.95"/>
</a>
</g>
</g>
<!-- Node7 -->
<g id="Node000007" class="node">
<title>Node7</title>
<g id="a_Node000007"><a xlink:href="namespacedepicture__menu_1_1domain_1_1common.html#afb147477d1ce5fd2575e8700a3777f00" target="_top" xlink:title=" ">
<polygon fill="white" stroke="#666666" points="301.25,-94 178.75,-94 178.75,-62 301.25,-62 301.25,-94"/>
<text xml:space="preserve" text-anchor="start" x="186.75" y="-80.5" font-family="Helvetica,sans-Serif" font-size="10.00">depicture_menu::domain</text>
<text xml:space="preserve" text-anchor="middle" x="240" y="-68.5" font-family="Helvetica,sans-Serif" font-size="10.00">::common::get_opacity</text>
</a>
</g>
</g>
<!-- Node1&#45;&gt;Node7 -->
<g id="edge6_Node000001_Node000007" class="edge">
<title>Node1&#45;&gt;Node7</title>
<g id="a_edge6_Node000001_Node000007"><a xlink:title=" ">
<path fill="none" stroke="#63b8ff" d="M126.27,-96.05C139.54,-93.92 153.66,-91.66 167.25,-89.49"/>
<polygon fill="#63b8ff" stroke="#63b8ff" points="167.71,-92.96 177.03,-87.92 166.6,-86.05 167.71,-92.96"/>
</a>
</g>
</g>
<!-- Node8 -->
<g id="Node000008" class="node">
<title>Node8</title>
<g id="a_Node000008"><a xlink:href="classdepicture__menu_1_1domain_1_1menu_1_1menu__color.html#ad99333acc0d31379e8dc10d7e3b9fb64" target="_top" xlink:title="背景色を変更したオブジェクトを取得">
<polygon fill="white" stroke="#666666" points="303.12,-44 176.88,-44 176.88,0 303.12,0 303.12,-44"/>
<text xml:space="preserve" text-anchor="start" x="184.88" y="-30.5" font-family="Helvetica,sans-Serif" font-size="10.00">depicture_menu::domain</text>
<text xml:space="preserve" text-anchor="start" x="184.88" y="-18.5" font-family="Helvetica,sans-Serif" font-size="10.00">::menu::menu_color::with</text>
<text xml:space="preserve" text-anchor="middle" x="240" y="-6.5" font-family="Helvetica,sans-Serif" font-size="10.00">_back_color</text>
</a>
</g>
</g>
<!-- Node1&#45;&gt;Node8 -->
<g id="edge7_Node000001_Node000008" class="edge">
<title>Node1&#45;&gt;Node8</title>
<g id="a_edge7_Node000001_Node000008"><a xlink:title=" ">
<path fill="none" stroke="#63b8ff" d="M103.24,-83.58C121.01,-73.73 142.45,-62.31 162.25,-53 165.18,-51.62 168.18,-50.25 171.23,-48.89"/>
<polygon fill="#63b8ff" stroke="#63b8ff" points="172.54,-52.14 180.31,-44.93 169.74,-45.72 172.54,-52.14"/>
</a>
</g>
</g>
<!-- Node4 -->
<g id="Node000004" class="node">
<title>Node4</title>
<g id="a_Node000004"><a xlink:href="namespacedepicture__menu_1_1domain_1_1common.html#a45530f48fa4d5ac4595cc9c279263846" target="_top" xlink:title=" ">
<polygon fill="white" stroke="#666666" points="486.75,-200 364.25,-200 364.25,-168 486.75,-168 486.75,-200"/>
<text xml:space="preserve" text-anchor="start" x="372.25" y="-186.5" font-family="Helvetica,sans-Serif" font-size="10.00">depicture_menu::domain</text>
<text xml:space="preserve" text-anchor="middle" x="425.5" y="-174.5" font-family="Helvetica,sans-Serif" font-size="10.00">::common::get_blue</text>
</a>
</g>
</g>
<!-- Node3&#45;&gt;Node4 -->
<g id="edge3_Node000003_Node000004" class="edge">
<title>Node3&#45;&gt;Node4</title>
<g id="a_edge3_Node000003_Node000004"><a xlink:title=" ">
<path fill="none" stroke="#63b8ff" d="M301.59,-150.51C318.04,-154.99 335.99,-159.88 352.98,-164.51"/>
<polygon fill="#63b8ff" stroke="#63b8ff" points="351.94,-167.86 362.51,-167.11 353.78,-161.1 351.94,-167.86"/>
</a>
</g>
</g>
<!-- Node5 -->
<g id="Node000005" class="node">
<title>Node5</title>
<g id="a_Node000005"><a xlink:href="namespacedepicture__menu_1_1domain_1_1common.html#ae234959f503d97b8bc6352178b766dd9" target="_top" xlink:title=" ">
<polygon fill="white" stroke="#666666" points="486.75,-150 364.25,-150 364.25,-118 486.75,-118 486.75,-150"/>
<text xml:space="preserve" text-anchor="start" x="372.25" y="-136.5" font-family="Helvetica,sans-Serif" font-size="10.00">depicture_menu::domain</text>
<text xml:space="preserve" text-anchor="middle" x="425.5" y="-124.5" font-family="Helvetica,sans-Serif" font-size="10.00">::common::get_green</text>
</a>
</g>
</g>
<!-- Node3&#45;&gt;Node5 -->
<g id="edge4_Node000003_Node000005" class="edge">
<title>Node3&#45;&gt;Node5</title>
<g id="a_edge4_Node000003_Node000005"><a xlink:title=" ">
<path fill="none" stroke="#63b8ff" d="M301.59,-134C317.88,-134 335.65,-134 352.49,-134"/>
<polygon fill="#63b8ff" stroke="#63b8ff" points="352.46,-137.5 362.46,-134 352.46,-130.5 352.46,-137.5"/>
</a>
</g>
</g>
<!-- Node6 -->
<g id="Node000006" class="node">
<title>Node6</title>
<g id="a_Node000006"><a xlink:href="namespacedepicture__menu_1_1domain_1_1common.html#ac64a5f4b93851c489aeaab246bb04cfa" target="_top" xlink:title=" ">
<polygon fill="white" stroke="#666666" points="486.75,-100 364.25,-100 364.25,-68 486.75,-68 486.75,-100"/>
<text xml:space="preserve" text-anchor="start" x="372.25" y="-86.5" font-family="Helvetica,sans-Serif" font-size="10.00">depicture_menu::domain</text>
<text xml:space="preserve" text-anchor="middle" x="425.5" y="-74.5" font-family="Helvetica,sans-Serif" font-size="10.00">::common::get_red</text>
</a>
</g>
</g>
<!-- Node3&#45;&gt;Node6 -->
<g id="edge5_Node000003_Node000006" class="edge">
<title>Node3&#45;&gt;Node6</title>
<g id="a_edge5_Node000003_Node000006"><a xlink:title=" ">
<path fill="none" stroke="#63b8ff" d="M301.59,-117.49C318.04,-113.01 335.99,-108.12 352.98,-103.49"/>
<polygon fill="#63b8ff" stroke="#63b8ff" points="353.78,-106.9 362.51,-100.89 351.94,-100.14 353.78,-106.9"/>
</a>
</g>
</g>
<!-- Node9 -->
<g id="Node000009" class="node">
<title>Node9</title>
<g id="a_Node000009"><a xlink:href="structdepicture__menu_1_1domain_1_1models_1_1base_1_1v2_1_1value__object__base.html#a96bf7bab22794cc08b9bb9394466295b" target="_top" xlink:title="フィールド名のみ置き替えたコピーを返す">
<polygon fill="white" stroke="#666666" points="497.25,-44 353.75,-44 353.75,0 497.25,0 497.25,-44"/>
<text xml:space="preserve" text-anchor="start" x="361.75" y="-30.5" font-family="Helvetica,sans-Serif" font-size="10.00">depicture_menu::domain</text>
<text xml:space="preserve" text-anchor="start" x="361.75" y="-18.5" font-family="Helvetica,sans-Serif" font-size="10.00">::models::base::v2::value</text>
<text xml:space="preserve" text-anchor="middle" x="425.5" y="-6.5" font-family="Helvetica,sans-Serif" font-size="10.00">_object_base::with_constract</text>
</a>
</g>
</g>
<!-- Node8&#45;&gt;Node9 -->
<g id="edge8_Node000008_Node000009" class="edge">
<title>Node8&#45;&gt;Node9</title>
<g id="a_edge8_Node000008_Node000009"><a xlink:title=" ">
<path fill="none" stroke="#63b8ff" d="M303.38,-22C315.84,-22 329.1,-22 342.11,-22"/>
<polygon fill="#63b8ff" stroke="#63b8ff" points="341.94,-25.5 351.94,-22 341.94,-18.5 341.94,-25.5"/>
</a>
</g>
</g>
</g>
</svg>

<g id="navigator" transform="translate(0 0)" fill="#404254">
  <rect fill="#f2f5e9" fill-opacity="0.5" stroke="#606060" stroke-width=".5" x="0" y="0" width="60" height="60"/>
  <use id="zoomplus" xlink:href="#zoomPlus" x="17" y="9" onmousedown="handleZoom(evt,'in')"/>
  <use id="zoomminus" xlink:href="#zoomMin" x="42" y="9" onmousedown="handleZoom(evt,'out')"/>
  <use id="reset" xlink:href="#resetDef" x="30" y="36" onmousedown="handleReset()"/>
   <use id="arrowup" xlink:href="#arrowUp" x="0" y="0" onmousedown="handlePan(0,-1)"/>
  <use id="arrowright" xlink:href="#arrowRight" x="0" y="0" onmousedown="handlePan(1,0)"/>
  <use id="arrowdown" xlink:href="#arrowDown" x="0" y="0" onmousedown="handlePan(0,1)"/>
  <use id="arrowleft" xlink:href="#arrowLeft" x="0" y="0" onmousedown="handlePan(-1,0)"/>
</g>
<svg viewBox="0 0 15 15" width="100%" height="30px" preserveAspectRatio="xMaxYMin meet">
 <g id="arrow_out" transform="scale(0.3 0.3)">
  <a xlink:href="classdepicture__menu_1_1domain_1_1menu_1_1menu__color_ae8187d7777c38188ef0f64037b11864f_cgraph_org.svg" target="_base">
   <rect id="button" ry="5" rx="5" y="6" x="6" height="38" width="38"
        fill="#f2f5e9" fill-opacity="0.5" stroke="#606060" stroke-width="1.0"/>
   <path id="arrow"
     d="M 11.500037,31.436501 C 11.940474,20.09759 22.043105,11.32322 32.158766,21.979434 L 37.068811,17.246167 C 37.068811,17.246167 37.088388,32 37.088388,32 L 22.160133,31.978069 C 22.160133,31.978069 26.997745,27.140456 26.997745,27.140456 C 18.528582,18.264221 13.291696,25.230495 11.500037,31.436501 z"
     style="fill:#404040;"/>
  </a>
 </g>
</svg>

<style type='text/css'>
<![CDATA[
[data-mouse-over-selected='false'] { opacity: 0.7; }
[data-mouse-over-selected='true']  { opacity: 1.0; }
]]>
</style>
<script type="application/ecmascript"><![CDATA[
document.addEventListener('DOMContentLoaded', (event) => {
  highlightEdges();
  highlightAdjacentNodes();
});
]]></script>
</svg>
