<?xml version="1.0" encoding="UTF-8" standalone="no"?>
<!DOCTYPE svg PUBLIC "-//W3C//DTD SVG 1.1//EN"
 "http://www.w3.org/Graphics/SVG/1.1/DTD/svg11.dtd">
<!-- Generated by graphviz version 14.1.2 (20260124.0452)
 -->
<!-- Title: depicture_menu::domain::services::application_command_setup_domain_service::build_invoker Pages: 1 -->
<svg width="580pt" height="92pt"
 viewBox="0.00 0.00 580.00 92.00" xmlns="http://www.w3.org/2000/svg" xmlns:xlink="http://www.w3.org/1999/xlink">
<g id="graph0" class="graph" transform="scale(1 1) rotate(0) translate(4 88)">
<title>depicture_menu::domain::services::application_command_setup_domain_service::build_invoker</title>
<!-- Node1 -->
<g id="Node000001" class="node">
<title>Node1</title>
<g id="a_Node000001"><a xlink:title=" ">
<polygon fill="#999999" stroke="#666666" points="166.75,-84 0,-84 0,-28 166.75,-28 166.75,-84"/>
<text xml:space="preserve" text-anchor="start" x="8" y="-70.5" font-family="Helvetica,sans-Serif" font-size="10.00">depicture_menu::domain</text>
<text xml:space="preserve" text-anchor="start" x="8" y="-58.5" font-family="Helvetica,sans-Serif" font-size="10.00">::services::application</text>
<text xml:space="preserve" text-anchor="start" x="8" y="-46.5" font-family="Helvetica,sans-Serif" font-size="10.00">_command_setup_domain_service</text>
<text xml:space="preserve" text-anchor="middle" x="83.38" y="-34.5" font-family="Helvetica,sans-Serif" font-size="10.00">::build_invoker</text>
</a>
</g>
</g>
<!-- Node2 -->
<g id="Node000002" class="node">
<title>Node2</title>
<g id="a_Node000002"><a xlink:href="classdepicture__menu_1_1domain_1_1services_1_1application__command__setup__domain__service.html#a5c182738d684d79f6e41704b5c72e7e9" target="_top" xlink:title=" ">
<polygon fill="white" stroke="#666666" points="572.25,-84 405.5,-84 405.5,-28 572.25,-28 572.25,-84"/>
<text xml:space="preserve" text-anchor="start" x="413.5" y="-70.5" font-family="Helvetica,sans-Serif" font-size="10.00">depicture_menu::domain</text>
<text xml:space="preserve" text-anchor="start" x="413.5" y="-58.5" font-family="Helvetica,sans-Serif" font-size="10.00">::services::application</text>
<text xml:space="preserve" text-anchor="start" x="413.5" y="-46.5" font-family="Helvetica,sans-Serif" font-size="10.00">_command_setup_domain_service</text>
<text xml:space="preserve" text-anchor="middle" x="488.88" y="-34.5" font-family="Helvetica,sans-Serif" font-size="10.00">::kind_name</text>
</a>
</g>
</g>
<!-- Node1&#45;&gt;Node2 -->
<g id="edge1_Node000001_Node000002" class="edge">
<title>Node1&#45;&gt;Node2</title>
<g id="a_edge1_Node000001_Node000002"><a xlink:title=" ">
<path fill="none" stroke="#63b8ff" d="M167.12,-63.09C179.06,-63.89 191.22,-64.56 202.75,-65 276.81,-67.81 295.44,-67.81 369.5,-65 377.43,-64.7 385.65,-64.28 393.9,-63.8"/>
<polygon fill="#63b8ff" stroke="#63b8ff" points="393.86,-67.31 403.62,-63.19 393.42,-60.32 393.86,-67.31"/>
</a>
</g>
</g>
<!-- Node3 -->
<g id="Node000003" class="node">
<title>Node3</title>
<g id="a_Node000003"><a xlink:href="classdepicture__menu_1_1domain_1_1services_1_1application__command__setup__domain__service.html#a17c1c75f441bbeadd2c367a9f303bdf9" target="_top" xlink:title=" ">
<polygon fill="white" stroke="#666666" points="369.5,-56 202.75,-56 202.75,0 369.5,0 369.5,-56"/>
<text xml:space="preserve" text-anchor="start" x="210.75" y="-42.5" font-family="Helvetica,sans-Serif" font-size="10.00">depicture_menu::domain</text>
<text xml:space="preserve" text-anchor="start" x="210.75" y="-30.5" font-family="Helvetica,sans-Serif" font-size="10.00">::services::application</text>
<text xml:space="preserve" text-anchor="start" x="210.75" y="-18.5" font-family="Helvetica,sans-Serif" font-size="10.00">_command_setup_domain_service</text>
<text xml:space="preserve" text-anchor="middle" x="286.12" y="-6.5" font-family="Helvetica,sans-Serif" font-size="10.00">::uuid_by_kind_name</text>
</a>
</g>
</g>
<!-- Node1&#45;&gt;Node3 -->
<g id="edge2_Node000001_Node000003" class="edge">
<title>Node1&#45;&gt;Node3</title>
<g id="a_edge2_Node000001_Node000003"><a xlink:title=" ">
<path fill="none" stroke="#63b8ff" d="M167.19,-44.45C175.12,-43.34 183.19,-42.22 191.22,-41.1"/>
<polygon fill="#63b8ff" stroke="#63b8ff" points="191.58,-44.58 201,-39.73 190.62,-37.65 191.58,-44.58"/>
</a>
</g>
</g>
<!-- Node3&#45;&gt;Node2 -->
<g id="edge3_Node000003_Node000002" class="edge">
<title>Node3&#45;&gt;Node2</title>
<g id="a_edge3_Node000003_Node000002"><a xlink:title=" ">
<path fill="none" stroke="#63b8ff" d="M369.94,-39.55C377.87,-40.66 385.94,-41.78 393.97,-42.9"/>
<polygon fill="#63b8ff" stroke="#63b8ff" points="393.37,-46.35 403.75,-44.27 394.33,-39.42 393.37,-46.35"/>
</a>
</g>
</g>
</g>
</svg>
