<?xml version="1.0" encoding="UTF-8" standalone="no"?>
<!DOCTYPE svg PUBLIC "-//W3C//DTD SVG 1.1//EN"
 "http://www.w3.org/Graphics/SVG/1.1/DTD/svg11.dtd">
<!-- Generated by graphviz version 14.1.2 (20260124.0452)
 -->
<!-- Title: depicture_menu::domain::services::create_command_domain_service::update_config Pages: 1 -->
<svg width="348pt" height="104pt"
 viewBox="0.00 0.00 348.00 104.00" xmlns="http://www.w3.org/2000/svg" xmlns:xlink="http://www.w3.org/1999/xlink">
<g id="graph0" class="graph" transform="scale(1 1) rotate(0) translate(4 100)">
<title>depicture_menu::domain::services::create_command_domain_service::update_config</title>
<!-- Node1 -->
<g id="Node000001" class="node">
<title>Node1</title>
<g id="a_Node000001"><a xlink:title=" ">
<polygon fill="#999999" stroke="#666666" points="339.5,-70 183.25,-70 183.25,-26 339.5,-26 339.5,-70"/>
<text xml:space="preserve" text-anchor="start" x="191.25" y="-56.5" font-family="Helvetica,sans-Serif" font-size="10.00">depicture_menu::domain</text>
<text xml:space="preserve" text-anchor="start" x="191.25" y="-44.5" font-family="Helvetica,sans-Serif" font-size="10.00">::services::create_command</text>
<text xml:space="preserve" text-anchor="middle" x="261.38" y="-32.5" font-family="Helvetica,sans-Serif" font-size="10.00">_domain_service::update_config</text>
</a>
</g>
</g>
<!-- Node2 -->
<g id="Node000002" class="node">
<title>Node2</title>
<g id="a_Node000002"><a xlink:href="test__create__command__domain__service_8cpp.html#ad2485bcc7175bf7b37f83d9007b43a1b" target="_top" xlink:title=" ">
<polygon fill="white" stroke="#666666" points="147.25,-96 0,-96 0,-76 147.25,-76 147.25,-96"/>
<text xml:space="preserve" text-anchor="middle" x="73.62" y="-82.5" font-family="Helvetica,sans-Serif" font-size="10.00">BOOST_AUTO_TEST_CASE</text>
</a>
</g>
</g>
<!-- Node1&#45;&gt;Node2 -->
<g id="edge1_Node000001_Node000002" class="edge">
<title>Node1&#45;&gt;Node2</title>
<g id="a_edge1_Node000001_Node000002"><a xlink:title=" ">
<path fill="none" stroke="#63b8ff" d="M172.01,-66.08C156.14,-69.32 140.09,-72.61 125.73,-75.55"/>
<polygon fill="#63b8ff" stroke="#63b8ff" points="172.37,-69.58 181.46,-64.14 170.96,-62.72 172.37,-69.58"/>
</a>
</g>
</g>
<!-- Node3 -->
<g id="Node000003" class="node">
<title>Node3</title>
<g id="a_Node000003"><a xlink:href="test__create__command__domain__service_8cpp.html#a974bd6bb0b13da03ba1a8578d0c5af8c" target="_top" xlink:title=" ">
<polygon fill="white" stroke="#666666" points="147.25,-58 0,-58 0,-38 147.25,-38 147.25,-58"/>
<text xml:space="preserve" text-anchor="middle" x="73.62" y="-44.5" font-family="Helvetica,sans-Serif" font-size="10.00">BOOST_AUTO_TEST_CASE</text>
</a>
</g>
</g>
<!-- Node1&#45;&gt;Node3 -->
<g id="edge2_Node000001_Node000003" class="edge">
<title>Node1&#45;&gt;Node3</title>
<g id="a_edge2_Node000001_Node000003"><a xlink:title=" ">
<path fill="none" stroke="#63b8ff" d="M171.58,-48C163.5,-48 155.38,-48 147.47,-48"/>
<polygon fill="#63b8ff" stroke="#63b8ff" points="171.43,-51.5 181.43,-48 171.43,-44.5 171.43,-51.5"/>
</a>
</g>
</g>
<!-- Node4 -->
<g id="Node000004" class="node">
<title>Node4</title>
<g id="a_Node000004"><a xlink:href="test__create__command__domain__service_8cpp.html#ab4118373ffdfdf1eae74f605557d5ed9" target="_top" xlink:title=" ">
<polygon fill="white" stroke="#666666" points="147.25,-20 0,-20 0,0 147.25,0 147.25,-20"/>
<text xml:space="preserve" text-anchor="middle" x="73.62" y="-6.5" font-family="Helvetica,sans-Serif" font-size="10.00">BOOST_AUTO_TEST_CASE</text>
</a>
</g>
</g>
<!-- Node1&#45;&gt;Node4 -->
<g id="edge3_Node000001_Node000004" class="edge">
<title>Node1&#45;&gt;Node4</title>
<g id="a_edge3_Node000001_Node000004"><a xlink:title=" ">
<path fill="none" stroke="#63b8ff" d="M172.01,-29.92C156.14,-26.68 140.09,-23.39 125.73,-20.45"/>
<polygon fill="#63b8ff" stroke="#63b8ff" points="170.96,-33.28 181.46,-31.86 172.37,-26.42 170.96,-33.28"/>
</a>
</g>
</g>
</g>
</svg>
