<?xml version="1.0" encoding="UTF-8" standalone="no"?>
<!DOCTYPE svg PUBLIC "-//W3C//DTD SVG 1.1//EN"
 "http://www.w3.org/Graphics/SVG/1.1/DTD/svg11.dtd">
<!-- Generated by graphviz version 14.1.2 (20260124.0452)
 -->
<!-- Title: config_data_initializer::config_data_initializer Pages: 1 -->
<svg width="299pt" height="102pt"
 viewBox="0.00 0.00 299.00 102.00" xmlns="http://www.w3.org/2000/svg" xmlns:xlink="http://www.w3.org/1999/xlink">
<g id="graph0" class="graph" transform="scale(1 1) rotate(0) translate(4 98)">
<title>config_data_initializer::config_data_initializer</title>
<!-- Node1 -->
<g id="Node000001" class="node">
<title>Node1</title>
<g id="a_Node000001"><a xlink:title=" ">
<polygon fill="#999999" stroke="#666666" points="115.75,-82 0,-82 0,-50 115.75,-50 115.75,-82"/>
<text xml:space="preserve" text-anchor="start" x="8" y="-68.5" font-family="Helvetica,sans-Serif" font-size="10.00">config_data_initializer</text>
<text xml:space="preserve" text-anchor="middle" x="57.88" y="-56.5" font-family="Helvetica,sans-Serif" font-size="10.00">::config_data_initializer</text>
</a>
</g>
</g>
<!-- Node2 -->
<g id="Node000002" class="node">
<title>Node2</title>
<g id="a_Node000002"><a xlink:href="structdepicture__menu_1_1domain_1_1models_1_1entity__id__base.html#ae3b811c5dd3aee7fcb017619d4dde476" target="_top" xlink:title=" ">
<polygon fill="white" stroke="#666666" points="290.75,-94 151.75,-94 151.75,-38 290.75,-38 290.75,-94"/>
<text xml:space="preserve" text-anchor="start" x="159.75" y="-80.5" font-family="Helvetica,sans-Serif" font-size="10.00">depicture_menu::domain</text>
<text xml:space="preserve" text-anchor="start" x="159.75" y="-68.5" font-family="Helvetica,sans-Serif" font-size="10.00">::models::entity_id_base</text>
<text xml:space="preserve" text-anchor="start" x="159.75" y="-56.5" font-family="Helvetica,sans-Serif" font-size="10.00">&lt; detail_commands::invoker</text>
<text xml:space="preserve" text-anchor="middle" x="221.25" y="-44.5" font-family="Helvetica,sans-Serif" font-size="10.00">_id_tag &gt;::from</text>
</a>
</g>
</g>
<!-- Node1&#45;&gt;Node2 -->
<g id="edge1_Node000001_Node000002" class="edge">
<title>Node1&#45;&gt;Node2</title>
<g id="a_edge1_Node000001_Node000002"><a xlink:title=" ">
<path fill="none" stroke="#63b8ff" d="M116.22,-59.51C123.98,-59.33 132.06,-59.25 140.12,-59.25"/>
<polygon fill="#63b8ff" stroke="#63b8ff" points="139.95,-62.75 149.97,-59.31 139.99,-55.75 139.95,-62.75"/>
</a>
</g>
</g>
<!-- Node1&#45;&gt;Node2 -->
<g id="edge2_Node000001_Node000002" class="edge">
<title>Node1&#45;&gt;Node2</title>
<g id="a_edge2_Node000001_Node000002"><a xlink:title=" ">
<path fill="none" stroke="#63b8ff" d="M116.22,-72.49C123.98,-72.67 132.06,-72.75 140.12,-72.75"/>
<polygon fill="#63b8ff" stroke="#63b8ff" points="139.99,-76.25 149.97,-72.69 139.95,-69.25 139.99,-76.25"/>
</a>
</g>
</g>
<!-- Node3 -->
<g id="Node000003" class="node">
<title>Node3</title>
<g id="a_Node000003"><a xlink:href="win32__window__observer_8cpp.html#abce91584982097b02b766f9970cbe65b" target="_top" xlink:title=" ">
<polygon fill="white" stroke="#666666" points="240.12,-20 202.38,-20 202.38,0 240.12,0 240.12,-20"/>
<text xml:space="preserve" text-anchor="middle" x="221.25" y="-6.5" font-family="Helvetica,sans-Serif" font-size="10.00">reset</text>
</a>
</g>
</g>
<!-- Node1&#45;&gt;Node3 -->
<g id="edge3_Node000001_Node000003" class="edge">
<title>Node1&#45;&gt;Node3</title>
<g id="a_edge3_Node000001_Node000003"><a xlink:title=" ">
<path fill="none" stroke="#63b8ff" d="M97.39,-49.57C113.96,-42.78 133.66,-35.09 151.75,-29 164.51,-24.7 178.84,-20.62 191.08,-17.34"/>
<polygon fill="#63b8ff" stroke="#63b8ff" points="191.81,-20.77 200.6,-14.85 190.04,-14 191.81,-20.77"/>
</a>
</g>
</g>
</g>
</svg>
