<?xml version="1.0" encoding="UTF-8" standalone="no"?>
<!DOCTYPE svg PUBLIC "-//W3C//DTD SVG 1.1//EN"
 "http://www.w3.org/Graphics/SVG/1.1/DTD/svg11.dtd">
<!-- Generated by graphviz version 14.1.2 (20260124.0452)
 -->
<!-- Title: depicture_menu::presentations::config_view_presenter::operator() Pages: 1 -->
<svg width="509pt" height="170pt"
 viewBox="0.00 0.00 509.00 170.00" xmlns="http://www.w3.org/2000/svg" xmlns:xlink="http://www.w3.org/1999/xlink">
<g id="graph0" class="graph" transform="scale(1 1) rotate(0) translate(4 166)">
<title>depicture_menu::presentations::config_view_presenter::operator()</title>
<!-- Node1 -->
<g id="Node000001" class="node">
<title>Node1</title>
<g id="a_Node000001"><a xlink:title="メニューアイテム更新">
<polygon fill="#999999" stroke="#666666" points="149.5,-106 0,-106 0,-62 149.5,-62 149.5,-106"/>
<text xml:space="preserve" text-anchor="start" x="8" y="-92.5" font-family="Helvetica,sans-Serif" font-size="10.00">depicture_menu::presentations</text>
<text xml:space="preserve" text-anchor="start" x="8" y="-80.5" font-family="Helvetica,sans-Serif" font-size="10.00">::config_view_presenter::</text>
<text xml:space="preserve" text-anchor="middle" x="74.75" y="-68.5" font-family="Helvetica,sans-Serif" font-size="10.00">operator()</text>
</a>
</g>
</g>
<!-- Node2 -->
<g id="Node000002" class="node">
<title>Node2</title>
<g id="a_Node000002"><a xlink:href="config__view__presenter_8cpp.html#a7d91b3379b8077f6349cdd78f8ad2c56" target="_top" xlink:title=" ">
<polygon fill="white" stroke="#666666" points="295.62,-144 224.88,-144 224.88,-124 295.62,-124 295.62,-144"/>
<text xml:space="preserve" text-anchor="middle" x="260.25" y="-130.5" font-family="Helvetica,sans-Serif" font-size="10.00">dispatch_gui</text>
</a>
</g>
</g>
<!-- Node1&#45;&gt;Node2 -->
<g id="edge1_Node000001_Node000002" class="edge">
<title>Node1&#45;&gt;Node2</title>
<g id="a_edge1_Node000001_Node000002"><a xlink:title=" ">
<path fill="none" stroke="#63b8ff" d="M149.78,-105.16C161.71,-108.5 173.94,-111.88 185.5,-115 194.57,-117.45 204.3,-120 213.61,-122.42"/>
<polygon fill="#63b8ff" stroke="#63b8ff" points="212.67,-125.79 223.22,-124.89 214.41,-119.01 212.67,-125.79"/>
</a>
</g>
</g>
<!-- Node4 -->
<g id="Node000004" class="node">
<title>Node4</title>
<g id="a_Node000004"><a xlink:href="classdepicture__menu_1_1presentations_1_1config__view__presenter.html#aa24dd74576a5574ca038ea9b231fc635" target="_top" xlink:title="ビュー更新通知をブロックする">
<polygon fill="white" stroke="#666666" points="335,-106 185.5,-106 185.5,-62 335,-62 335,-106"/>
<text xml:space="preserve" text-anchor="start" x="193.5" y="-92.5" font-family="Helvetica,sans-Serif" font-size="10.00">depicture_menu::presentations</text>
<text xml:space="preserve" text-anchor="start" x="193.5" y="-80.5" font-family="Helvetica,sans-Serif" font-size="10.00">::config_view_presenter::</text>
<text xml:space="preserve" text-anchor="middle" x="260.25" y="-68.5" font-family="Helvetica,sans-Serif" font-size="10.00">lock_recusive</text>
</a>
</g>
</g>
<!-- Node1&#45;&gt;Node4 -->
<g id="edge3_Node000001_Node000004" class="edge">
<title>Node1&#45;&gt;Node4</title>
<g id="a_edge3_Node000001_Node000004"><a xlink:title=" ">
<path fill="none" stroke="#63b8ff" d="M149.86,-84C157.77,-84 165.86,-84 173.89,-84"/>
<polygon fill="#63b8ff" stroke="#63b8ff" points="173.65,-87.5 183.65,-84 173.65,-80.5 173.65,-87.5"/>
</a>
</g>
</g>
<!-- Node5 -->
<g id="Node000005" class="node">
<title>Node5</title>
<g id="a_Node000005"><a xlink:href="namespacedepicture__menu_1_1util_1_1strconv.html#af0bcd6eaee24d896c1eb89890570bead" target="_top" xlink:title="utf8 &#45;&gt; wide(utf16)">
<polygon fill="white" stroke="#666666" points="314.38,-44 206.12,-44 206.12,0 314.38,0 314.38,-44"/>
<text xml:space="preserve" text-anchor="start" x="214.12" y="-30.5" font-family="Helvetica,sans-Serif" font-size="10.00">depicture_menu::util</text>
<text xml:space="preserve" text-anchor="start" x="214.12" y="-18.5" font-family="Helvetica,sans-Serif" font-size="10.00">::strconv::u8string_to</text>
<text xml:space="preserve" text-anchor="middle" x="260.25" y="-6.5" font-family="Helvetica,sans-Serif" font-size="10.00">_wstring</text>
</a>
</g>
</g>
<!-- Node1&#45;&gt;Node5 -->
<g id="edge4_Node000001_Node000005" class="edge">
<title>Node1&#45;&gt;Node5</title>
<g id="a_edge4_Node000001_Node000005"><a xlink:title=" ">
<path fill="none" stroke="#63b8ff" d="M142.26,-61.53C159.58,-55.67 178.21,-49.38 195.4,-43.57"/>
<polygon fill="#63b8ff" stroke="#63b8ff" points="196.1,-47.03 204.46,-40.51 193.86,-40.4 196.1,-47.03"/>
</a>
</g>
</g>
<!-- Node3 -->
<g id="Node000003" class="node">
<title>Node3</title>
<g id="a_Node000003"><a xlink:href="classdepicture__menu_1_1singleton.html#ab3a8df96e817c8ccb1ab61434f90c416" target="_top" xlink:title=" ">
<polygon fill="white" stroke="#666666" points="501,-162 371,-162 371,-106 501,-106 501,-162"/>
<text xml:space="preserve" text-anchor="start" x="379" y="-148.5" font-family="Helvetica,sans-Serif" font-size="10.00">depicture_menu::singleton</text>
<text xml:space="preserve" text-anchor="start" x="379" y="-136.5" font-family="Helvetica,sans-Serif" font-size="10.00">&lt; detail_applications::</text>
<text xml:space="preserve" text-anchor="start" x="379" y="-124.5" font-family="Helvetica,sans-Serif" font-size="10.00">gui_dispatch_impl &gt;::get</text>
<text xml:space="preserve" text-anchor="middle" x="436" y="-112.5" font-family="Helvetica,sans-Serif" font-size="10.00">_instance</text>
</a>
</g>
</g>
<!-- Node2&#45;&gt;Node3 -->
<g id="edge2_Node000002_Node000003" class="edge">
<title>Node2&#45;&gt;Node3</title>
<g id="a_edge2_Node000002_Node000003"><a xlink:title=" ">
<path fill="none" stroke="#63b8ff" d="M295.99,-134C314.21,-134 337.28,-134 359.36,-134"/>
<polygon fill="#63b8ff" stroke="#63b8ff" points="359.27,-137.5 369.27,-134 359.27,-130.5 359.27,-137.5"/>
</a>
</g>
</g>
</g>
</svg>
