<?xml version="1.0" encoding="UTF-8" standalone="no"?>
<!DOCTYPE svg PUBLIC "-//W3C//DTD SVG 1.1//EN"
 "http://www.w3.org/Graphics/SVG/1.1/DTD/svg11.dtd">
<!-- Generated by graphviz version 14.1.2 (20260124.0452)
 -->
<!-- Title: depicture_menu::usecase::trigger_config_interface Pages: 1 -->
<svg width="977pt" height="190pt"
 viewBox="0.00 0.00 977.00 190.00" xmlns="http://www.w3.org/2000/svg" xmlns:xlink="http://www.w3.org/1999/xlink">
<g id="graph0" class="graph" transform="scale(1 1) rotate(0) translate(4 186)">
<title>depicture_menu::usecase::trigger_config_interface</title>
<!-- Node1 -->
<g id="Node000001" class="node">
<title>Node1</title>
<g id="a_Node000001"><a xlink:title="トリガーコンフィグインターフェイス">
<polygon fill="#999999" stroke="#666666" points="127.75,-132 0,-132 0,-100 127.75,-100 127.75,-132"/>
<text xml:space="preserve" text-anchor="start" x="8" y="-118.5" font-family="Helvetica,sans-Serif" font-size="10.00">depicture_menu::usecase</text>
<text xml:space="preserve" text-anchor="middle" x="63.88" y="-106.5" font-family="Helvetica,sans-Serif" font-size="10.00">::trigger_config_interface</text>
</a>
</g>
</g>
<!-- Node2 -->
<g id="Node000002" class="node">
<title>Node2</title>
<g id="a_Node000002"><a xlink:href="classdepicture__menu_1_1usecase_1_1config__changed__interface.html" target="_top" xlink:title="コンフィグ更新インターフェイス">
<polygon fill="white" stroke="#666666" points="297.75,-132 164.75,-132 164.75,-100 297.75,-100 297.75,-132"/>
<text xml:space="preserve" text-anchor="start" x="172.75" y="-118.5" font-family="Helvetica,sans-Serif" font-size="10.00">depicture_menu::usecase</text>
<text xml:space="preserve" text-anchor="middle" x="231.25" y="-106.5" font-family="Helvetica,sans-Serif" font-size="10.00">::config_changed_interface</text>
</a>
</g>
</g>
<!-- Node1&#45;&gt;Node2 -->
<g id="edge1_Node000001_Node000002" class="edge">
<title>Node1&#45;&gt;Node2</title>
<g id="a_edge1_Node000001_Node000002"><a xlink:title=" ">
<path fill="none" stroke="#63b8ff" d="M139.22,-116C147.62,-116 156.13,-116 164.41,-116"/>
<polygon fill="#63b8ff" stroke="#63b8ff" points="139.38,-112.5 129.38,-116 139.38,-119.5 139.38,-112.5"/>
</a>
</g>
</g>
<!-- Node3 -->
<g id="Node000003" class="node">
<title>Node3</title>
<g id="a_Node000003"><a xlink:href="classdepicture__menu_1_1presentations_1_1menu__view__presenter.html" target="_top" xlink:title=" ">
<polygon fill="white" stroke="#666666" points="484.25,-182 334.75,-182 334.75,-150 484.25,-150 484.25,-182"/>
<text xml:space="preserve" text-anchor="start" x="342.75" y="-168.5" font-family="Helvetica,sans-Serif" font-size="10.00">depicture_menu::presentations</text>
<text xml:space="preserve" text-anchor="middle" x="409.5" y="-156.5" font-family="Helvetica,sans-Serif" font-size="10.00">::menu_view_presenter</text>
</a>
</g>
</g>
<!-- Node2&#45;&gt;Node3 -->
<g id="edge2_Node000002_Node000003" class="edge">
<title>Node2&#45;&gt;Node3</title>
<g id="a_edge2_Node000002_Node000003"><a xlink:title=" ">
<path fill="none" stroke="#63b8ff" d="M300.6,-135.39C317.03,-140.05 334.44,-144.99 350.36,-149.51"/>
<polygon fill="#63b8ff" stroke="#63b8ff" points="301.99,-132.15 291.42,-132.78 300.08,-138.88 301.99,-132.15"/>
</a>
</g>
</g>
<!-- Node4 -->
<g id="Node000004" class="node">
<title>Node4</title>
<g id="a_Node000004"><a xlink:href="classdepicture__menu_1_1presentations_1_1stacked__views__presenter.html" target="_top" xlink:title=" ">
<polygon fill="white" stroke="#666666" points="484.25,-132 334.75,-132 334.75,-100 484.25,-100 484.25,-132"/>
<text xml:space="preserve" text-anchor="start" x="342.75" y="-118.5" font-family="Helvetica,sans-Serif" font-size="10.00">depicture_menu::presentations</text>
<text xml:space="preserve" text-anchor="middle" x="409.5" y="-106.5" font-family="Helvetica,sans-Serif" font-size="10.00">::stacked_views_presenter</text>
</a>
</g>
</g>
<!-- Node2&#45;&gt;Node4 -->
<g id="edge3_Node000002_Node000004" class="edge">
<title>Node2&#45;&gt;Node4</title>
<g id="a_edge3_Node000002_Node000004"><a xlink:title=" ">
<path fill="none" stroke="#63b8ff" d="M309.36,-116C317.68,-116 326.13,-116 334.41,-116"/>
<polygon fill="#63b8ff" stroke="#63b8ff" points="309.64,-112.5 299.64,-116 309.64,-119.5 309.64,-112.5"/>
</a>
</g>
</g>
<!-- Node5 -->
<g id="Node000005" class="node">
<title>Node5</title>
<g id="a_Node000005"><a xlink:href="classdepicture__menu_1_1usecase_1_1config__view__model__interface.html" target="_top" xlink:title="コンフィグビューインターフェイス">
<polygon fill="white" stroke="#666666" points="483.5,-82 335.5,-82 335.5,-50 483.5,-50 483.5,-82"/>
<text xml:space="preserve" text-anchor="start" x="343.5" y="-68.5" font-family="Helvetica,sans-Serif" font-size="10.00">depicture_menu::usecase</text>
<text xml:space="preserve" text-anchor="middle" x="409.5" y="-56.5" font-family="Helvetica,sans-Serif" font-size="10.00">::config_view_model_interface</text>
</a>
</g>
</g>
<!-- Node2&#45;&gt;Node5 -->
<g id="edge4_Node000002_Node000005" class="edge">
<title>Node2&#45;&gt;Node5</title>
<g id="a_edge4_Node000002_Node000005"><a xlink:title=" ">
<path fill="none" stroke="#63b8ff" d="M300.6,-96.61C317.03,-91.95 334.44,-87.01 350.36,-82.49"/>
<polygon fill="#63b8ff" stroke="#63b8ff" points="300.08,-93.12 291.42,-99.22 301.99,-99.85 300.08,-93.12"/>
</a>
</g>
</g>
<!-- Node6 -->
<g id="Node000006" class="node">
<title>Node6</title>
<g id="a_Node000006"><a xlink:href="classdepicture__menu_1_1usecase_1_1multi__view__model.html" target="_top" xlink:title=" ">
<polygon fill="white" stroke="#666666" points="968.75,-91 826,-91 826,-35 968.75,-35 968.75,-91"/>
<text xml:space="preserve" text-anchor="start" x="834" y="-77.5" font-family="Helvetica,sans-Serif" font-size="10.00">depicture_menu::usecase</text>
<text xml:space="preserve" text-anchor="start" x="834" y="-65.5" font-family="Helvetica,sans-Serif" font-size="10.00">::multi_view_model&lt; config</text>
<text xml:space="preserve" text-anchor="start" x="834" y="-53.5" font-family="Helvetica,sans-Serif" font-size="10.00">_view_presenter, menu_view</text>
<text xml:space="preserve" text-anchor="middle" x="897.38" y="-41.5" font-family="Helvetica,sans-Serif" font-size="10.00">_presenter &gt;</text>
</a>
</g>
</g>
<!-- Node5&#45;&gt;Node6 -->
<g id="edge5_Node000005_Node000006" class="edge">
<title>Node5&#45;&gt;Node6</title>
<g id="a_edge5_Node000005_Node000006"><a xlink:title=" ">
<path fill="none" stroke="#63b8ff" d="M483.13,-84.81C495.76,-87.38 508.83,-89.62 521.25,-91 647.92,-105.12 681.92,-105.69 808,-87 813.82,-86.14 819.8,-85.02 825.78,-83.75"/>
<polygon fill="#63b8ff" stroke="#63b8ff" points="484.17,-81.45 473.66,-82.78 482.71,-88.29 484.17,-81.45"/>
</a>
</g>
</g>
<!-- Node7 -->
<g id="Node000007" class="node">
<title>Node7</title>
<g id="a_Node000007"><a xlink:href="classdepicture__menu_1_1presentations_1_1config__view__presenter.html" target="_top" xlink:title="コンフィグビュープレゼンター">
<polygon fill="white" stroke="#666666" points="670.75,-82 521.25,-82 521.25,-50 670.75,-50 670.75,-82"/>
<text xml:space="preserve" text-anchor="start" x="529.25" y="-68.5" font-family="Helvetica,sans-Serif" font-size="10.00">depicture_menu::presentations</text>
<text xml:space="preserve" text-anchor="middle" x="596" y="-56.5" font-family="Helvetica,sans-Serif" font-size="10.00">::config_view_presenter</text>
</a>
</g>
</g>
<!-- Node5&#45;&gt;Node7 -->
<g id="edge6_Node000005_Node000007" class="edge">
<title>Node5&#45;&gt;Node7</title>
<g id="a_edge6_Node000005_Node000007"><a xlink:title=" ">
<path fill="none" stroke="#63b8ff" d="M495.45,-66C503.95,-66 512.53,-66 520.9,-66"/>
<polygon fill="#63b8ff" stroke="#63b8ff" points="495.46,-62.5 485.46,-66 495.46,-69.5 495.46,-62.5"/>
</a>
</g>
</g>
<!-- Node8 -->
<g id="Node000008" class="node">
<title>Node8</title>
<g id="a_Node000008"><a xlink:href="classdepicture__menu_1_1usecase_1_1multi__view__model.html" target="_top" xlink:title="multi_view_model_interface">
<polygon fill="white" stroke="#666666" points="659.88,-32 532.12,-32 532.12,0 659.88,0 659.88,-32"/>
<text xml:space="preserve" text-anchor="start" x="540.12" y="-18.5" font-family="Helvetica,sans-Serif" font-size="10.00">depicture_menu::usecase</text>
<text xml:space="preserve" text-anchor="middle" x="596" y="-6.5" font-family="Helvetica,sans-Serif" font-size="10.00">::multi_view_model&lt; Ts &gt;</text>
</a>
</g>
</g>
<!-- Node5&#45;&gt;Node8 -->
<g id="edge7_Node000005_Node000008" class="edge">
<title>Node5&#45;&gt;Node8</title>
<g id="a_edge7_Node000005_Node000008"><a xlink:title=" ">
<path fill="none" stroke="#63b8ff" d="M481.8,-46.68C499.13,-41.98 517.51,-37 534.3,-32.45"/>
<polygon fill="#63b8ff" stroke="#63b8ff" points="481.36,-43.17 472.63,-49.16 483.2,-49.93 481.36,-43.17"/>
</a>
</g>
</g>
<!-- Node8&#45;&gt;Node6 -->
<g id="edge8_Node000008_Node000006" class="edge">
<title>Node8&#45;&gt;Node6</title>
<g id="a_edge8_Node000008_Node000006"><a xlink:title=" ">
<path fill="none" stroke="orange" stroke-dasharray="5,2" d="M671.2,-27.65C718.43,-35.06 779.22,-44.61 825.74,-51.91"/>
<polygon fill="orange" stroke="orange" points="672.04,-24.24 661.62,-26.14 670.96,-31.15 672.04,-24.24"/>
</a>
</g>
<text xml:space="preserve" text-anchor="start" x="691.75" y="-70.61" font-family="Helvetica,sans-Serif" font-size="10.00" fill="grey">&lt; config_view_presenter,</text>
<text xml:space="preserve" text-anchor="start" x="691.75" y="-54.61" font-family="Helvetica,sans-Serif" font-size="10.00" fill="grey">   menu_view_presenter &gt;</text>
</g>
</g>
</svg>
