<?xml version="1.0" encoding="UTF-8" standalone="no"?>
<!DOCTYPE svg PUBLIC "-//W3C//DTD SVG 1.1//EN"
 "http://www.w3.org/Graphics/SVG/1.1/DTD/svg11.dtd">
<!-- Generated by graphviz version 14.1.2 (20260124.0452)
 -->
<!-- Title: config_data_initializer Pages: 1 -->
<!--zoomable 150 -->

<svg id="main" version="1.1" xmlns="http://www.w3.org/2000/svg" xmlns:xlink="http://www.w3.org/1999/xlink" xml:space="preserve" onload="init(evt)">

<style type="text/css"><![CDATA[
.node, .edge {opacity: 0.7;}
.node.selected, .edge.selected {opacity: 1;}
.edge:hover path { stroke: red; }
.edge:hover polygon { stroke: red; fill: red; }
]]></style>

<defs>
  <circle id="rim" cx="0" cy="0" r="7"/>
  <circle id="rim2" cx="0" cy="0" r="3.5"/>
  <g id="zoomPlus">
    <use xlink:href="#rim" fill="#404040"><set attributeName="fill" to="#808080" begin="zoomplus.mouseover" end="zoomplus.mouseout"/></use>
    <path d="M-4,0h8M0,-4v8" fill="none" stroke="white" stroke-width="1.5" pointer-events="none"/>
  </g>
  <g id="zoomMin">
    <use xlink:href="#rim" fill="#404040"><set attributeName="fill" to="#808080" begin="zoomminus.mouseover" end="zoomminus.mouseout"/></use>
    <path d="M-4,0h8" fill="none" stroke="white" stroke-width="1.5" pointer-events="none"/>
  </g>
  <g id="arrowUp" transform="translate(30 24)">
    <use xlink:href="#rim"/>
    <path pointer-events="none" fill="none" stroke="white" stroke-width="1.5" d="M0,-3.0v7 M-2.5,-0.5L0,-3.0L2.5,-0.5"/>
  </g>
  <g id="arrowRight" transform="rotate(90) translate(36 -43)">
    <use xlink:href="#rim"/>
    <path pointer-events="none" fill="none" stroke="white" stroke-width="1.5" d="M0,-3.0v7 M-2.5,-0.5L0,-3.0L2.5,-0.5"/>
  </g>
  <g id="arrowDown" transform="rotate(180) translate(-30 -48)">
    <use xlink:href="#rim"/>
    <path pointer-events="none" fill="none" stroke="white" stroke-width="1.5" d="M0,-3.0v7 M-2.5,-0.5L0,-3.0L2.5,-0.5"/>
  </g>
  <g id="arrowLeft" transform="rotate(270) translate(-36 17)">
    <use xlink:href="#rim"/>
    <path pointer-events="none" fill="none" stroke="white" stroke-width="1.5" d="M0,-3.0v7 M-2.5,-0.5L0,-3.0L2.5,-0.5"/>
  </g>
  <g id="resetDef">
    <use xlink:href="#rim2" fill="#404040"><set attributeName="fill" to="#808080" begin="reset.mouseover" end="reset.mouseout"/></use>
  </g>
</defs>
<script type="application/ecmascript">
var viewWidth = 675;
var viewHeight = 150;
var sectionId = 'dynsection-1';
</script>
<script type="application/ecmascript" xlink:href="svg.min.js"/>
<svg id="graph" class="graph">
<g id="viewport">
<title>config_data_initializer</title>
<!-- Node1 -->
<g id="Node000001" class="node">
<title>Node1</title>
<g id="a_Node000001"><a xlink:title=" ">
<polygon fill="#999999" stroke="#666666" points="666.55,-82 556.8,-82 556.8,-62 666.55,-62 666.55,-82"/>
<text xml:space="preserve" text-anchor="middle" x="611.67" y="-68.5" font-family="Helvetica,sans-Serif" font-size="10.00">config_data_initializer</text>
</a>
</g>
</g>
<!-- Node2 -->
<g id="Node000002" class="node">
<title>Node2</title>
<g id="a_Node000002"><a xlink:href="classdepicture__menu_1_1test_1_1test__tools_1_1base__pair__factory.html" target="_top" xlink:title=" ">
<polygon fill="white" stroke="#666666" points="519.8,-100 392.05,-100 392.05,-44 519.8,-44 519.8,-100"/>
<text xml:space="preserve" text-anchor="start" x="400.05" y="-86.5" font-family="Helvetica,sans-Serif" font-size="10.00">depicture_menu::test</text>
<text xml:space="preserve" text-anchor="start" x="400.05" y="-74.5" font-family="Helvetica,sans-Serif" font-size="10.00">::test_tools::base_pair</text>
<text xml:space="preserve" text-anchor="start" x="400.05" y="-62.5" font-family="Helvetica,sans-Serif" font-size="10.00">_factory&lt; dd::app::config,</text>
<text xml:space="preserve" text-anchor="middle" x="455.92" y="-50.5" font-family="Helvetica,sans-Serif" font-size="10.00"> dto::config_data, &quot;id&quot; &gt;</text>
</a>
</g>
</g>
<!-- Node2&#45;&gt;Node1 -->
<g id="edge1_Node000001_Node000002" class="edge">
<title>Node2&#45;&gt;Node1</title>
<g id="a_edge1_Node000001_Node000002"><a xlink:title=" ">
<path fill="none" stroke="#63b8ff" d="M531.36,-72C539.8,-72 548.28,-72 556.4,-72"/>
<polygon fill="#63b8ff" stroke="#63b8ff" points="531.42,-68.5 521.42,-72 531.42,-75.5 531.42,-68.5"/>
</a>
</g>
</g>
<!-- Node3 -->
<g id="Node000003" class="node">
<title>Node3</title>
<g id="a_Node000003"><a xlink:title=" ">
<polygon fill="white" stroke="#666666" points="28.8,-111 0,-111 0,-91 28.8,-91 28.8,-111"/>
<text xml:space="preserve" text-anchor="middle" x="14.4" y="-97.5" font-family="Helvetica,sans-Serif" font-size="10.00">T</text>
</a>
</g>
</g>
<!-- Node3&#45;&gt;Node2 -->
<g id="edge2_Node000002_Node000003" class="edge">
<title>Node3&#45;&gt;Node2</title>
<g id="a_edge2_Node000002_Node000003"><a xlink:title=" ">
<path fill="none" stroke="#9a32cd" stroke-dasharray="5,2" d="M39.73,-113.89C42.07,-114.74 44.45,-115.47 46.8,-116 59.8,-118.95 63.47,-116.13 76.8,-116 208.93,-114.67 245.38,-140.09 374.05,-110 383.57,-107.77 393.3,-104.34 402.56,-100.43"/>
<polygon fill="#9a32cd" stroke="#9a32cd" points="41.24,-110.72 30.68,-109.89 38.41,-117.13 41.24,-110.72"/>
</a>
</g>
<text xml:space="preserve" text-anchor="start" x="156.05" y="-129.94" font-family="Helvetica,sans-Serif" font-size="10.00" fill="grey">entity</text>
</g>
<!-- Node5 -->
<g id="Node000005" class="node">
<title>Node5</title>
<g id="a_Node000005"><a xlink:href="classdepicture__menu_1_1test_1_1test__tools_1_1base__pair__factory.html" target="_top" xlink:title="変換テストFactory基底クラス">
<polygon fill="white" stroke="#666666" points="241.3,-94 94.8,-94 94.8,-50 241.3,-50 241.3,-94"/>
<text xml:space="preserve" text-anchor="start" x="102.8" y="-80.5" font-family="Helvetica,sans-Serif" font-size="10.00">depicture_menu::test</text>
<text xml:space="preserve" text-anchor="start" x="102.8" y="-68.5" font-family="Helvetica,sans-Serif" font-size="10.00">::test_tools::base_pair</text>
<text xml:space="preserve" text-anchor="middle" x="168.05" y="-56.5" font-family="Helvetica,sans-Serif" font-size="10.00">_factory&lt; T, Dto, DtoIdField &gt;</text>
</a>
</g>
</g>
<!-- Node3&#45;&gt;Node5 -->
<g id="edge5_Node000005_Node000003" class="edge">
<title>Node3&#45;&gt;Node5</title>
<g id="a_edge5_Node000005_Node000003"><a xlink:title=" ">
<path fill="none" stroke="#9a32cd" stroke-dasharray="5,2" d="M40.4,-96.22C55.32,-93.37 75.11,-89.58 94.6,-85.86"/>
<polygon fill="#9a32cd" stroke="#9a32cd" points="39.78,-92.77 30.61,-98.09 41.09,-99.65 39.78,-92.77"/>
</a>
</g>
<text xml:space="preserve" text-anchor="start" x="49.8" y="-100.24" font-family="Helvetica,sans-Serif" font-size="10.00" fill="grey">entity</text>
</g>
<!-- Node4 -->
<g id="Node000004" class="node">
<title>Node4</title>
<g id="a_Node000004"><a xlink:href="structdepicture__menu_1_1usecase_1_1backup_1_1dto_1_1config__data.html" target="_top" xlink:title="コンフィグバックアップ">
<polygon fill="white" stroke="#666666" points="232.67,-32 103.42,-32 103.42,0 232.67,0 232.67,-32"/>
<text xml:space="preserve" text-anchor="start" x="111.42" y="-18.5" font-family="Helvetica,sans-Serif" font-size="10.00">depicture_menu::usecase</text>
<text xml:space="preserve" text-anchor="middle" x="168.05" y="-6.5" font-family="Helvetica,sans-Serif" font-size="10.00">::backup::dto::config_data</text>
</a>
</g>
</g>
<!-- Node4&#45;&gt;Node2 -->
<g id="edge3_Node000002_Node000004" class="edge">
<title>Node4&#45;&gt;Node2</title>
<g id="a_edge3_Node000002_Node000004"><a xlink:title=" ">
<path fill="none" stroke="#9a32cd" stroke-dasharray="5,2" d="M244.32,-26.62C283.23,-32.58 331.38,-40.68 374.05,-50 379.88,-51.27 385.91,-52.7 391.94,-54.21"/>
<polygon fill="#9a32cd" stroke="#9a32cd" points="244.99,-23.18 234.58,-25.14 243.94,-30.1 244.99,-23.18"/>
</a>
</g>
<text xml:space="preserve" text-anchor="start" x="309.92" y="-55.5" font-family="Helvetica,sans-Serif" font-size="10.00" fill="grey">dto</text>
</g>
<!-- Node5&#45;&gt;Node2 -->
<g id="edge4_Node000002_Node000005" class="edge">
<title>Node5&#45;&gt;Node2</title>
<g id="a_edge4_Node000002_Node000005"><a xlink:title=" ">
<path fill="none" stroke="orange" stroke-dasharray="5,2" d="M252.92,-72C297.3,-72 350.9,-72 391.73,-72"/>
<polygon fill="orange" stroke="orange" points="253.07,-68.5 243.07,-72 253.07,-75.5 253.07,-68.5"/>
</a>
</g>
<text xml:space="preserve" text-anchor="start" x="262.3" y="-93.5" font-family="Helvetica,sans-Serif" font-size="10.00" fill="grey">&lt; dd::app::config,</text>
<text xml:space="preserve" text-anchor="start" x="262.3" y="-77.5" font-family="Helvetica,sans-Serif" font-size="10.00" fill="grey">   dto::config_data, &quot;id&quot; &gt;</text>
</g>
</g>
</svg>

<g id="navigator" transform="translate(0 0)" fill="#404254">
  <rect fill="#f2f5e9" fill-opacity="0.5" stroke="#606060" stroke-width=".5" x="0" y="0" width="60" height="60"/>
  <use id="zoomplus" xlink:href="#zoomPlus" x="17" y="9" onmousedown="handleZoom(evt,'in')"/>
  <use id="zoomminus" xlink:href="#zoomMin" x="42" y="9" onmousedown="handleZoom(evt,'out')"/>
  <use id="reset" xlink:href="#resetDef" x="30" y="36" onmousedown="handleReset()"/>
   <use id="arrowup" xlink:href="#arrowUp" x="0" y="0" onmousedown="handlePan(0,-1)"/>
  <use id="arrowright" xlink:href="#arrowRight" x="0" y="0" onmousedown="handlePan(1,0)"/>
  <use id="arrowdown" xlink:href="#arrowDown" x="0" y="0" onmousedown="handlePan(0,1)"/>
  <use id="arrowleft" xlink:href="#arrowLeft" x="0" y="0" onmousedown="handlePan(-1,0)"/>
</g>
<svg viewBox="0 0 15 15" width="100%" height="30px" preserveAspectRatio="xMaxYMin meet">
 <g id="arrow_out" transform="scale(0.3 0.3)">
  <a xlink:href="classconfig__data__initializer__coll__graph_org.svg" target="_base">
   <rect id="button" ry="5" rx="5" y="6" x="6" height="38" width="38"
        fill="#f2f5e9" fill-opacity="0.5" stroke="#606060" stroke-width="1.0"/>
   <path id="arrow"
     d="M 11.500037,31.436501 C 11.940474,20.09759 22.043105,11.32322 32.158766,21.979434 L 37.068811,17.246167 C 37.068811,17.246167 37.088388,32 37.088388,32 L 22.160133,31.978069 C 22.160133,31.978069 26.997745,27.140456 26.997745,27.140456 C 18.528582,18.264221 13.291696,25.230495 11.500037,31.436501 z"
     style="fill:#404040;"/>
  </a>
 </g>
</svg>

<style type='text/css'>
<![CDATA[
[data-mouse-over-selected='false'] { opacity: 0.7; }
[data-mouse-over-selected='true']  { opacity: 1.0; }
]]>
</style>
<script type="application/ecmascript"><![CDATA[
document.addEventListener('DOMContentLoaded', (event) => {
  highlightEdges();
  highlightAdjacentNodes();
});
]]></script>
</svg>
