<?xml version="1.0" encoding="UTF-8" standalone="no"?>
<!DOCTYPE svg PUBLIC "-//W3C//DTD SVG 1.1//EN"
 "http://www.w3.org/Graphics/SVG/1.1/DTD/svg11.dtd">
<!-- Generated by graphviz version 14.1.2 (20260124.0452)
 -->
<!-- Title: depicture_menu::domain::app::option Pages: 1 -->
<svg width="209pt" height="276pt"
 viewBox="0.00 0.00 209.00 276.00" xmlns="http://www.w3.org/2000/svg" xmlns:xlink="http://www.w3.org/1999/xlink">
<g id="graph0" class="graph" transform="scale(1 1) rotate(0) translate(4 272)">
<title>depicture_menu::domain::app::option</title>
<!-- Node1 -->
<g id="Node000001" class="node">
<title>Node1</title>
<g id="a_Node000001"><a xlink:title=" ">
<polygon fill="#999999" stroke="#666666" points="122.5,-32 0,-32 0,0 122.5,0 122.5,-32"/>
<text xml:space="preserve" text-anchor="start" x="8" y="-18.5" font-family="Helvetica,sans-Serif" font-size="10.00">depicture_menu::domain</text>
<text xml:space="preserve" text-anchor="middle" x="61.25" y="-6.5" font-family="Helvetica,sans-Serif" font-size="10.00">::app::option</text>
</a>
</g>
</g>
<!-- Node2 -->
<g id="Node000002" class="node">
<title>Node2</title>
<g id="a_Node000002"><a xlink:href="structdepicture__menu_1_1domain_1_1models_1_1base_1_1entity__base.html" target="_top" xlink:title=" ">
<polygon fill="white" stroke="#666666" points="113.12,-113 9.38,-113 9.38,-69 113.12,-69 113.12,-113"/>
<text xml:space="preserve" text-anchor="start" x="17.38" y="-99.5" font-family="Helvetica,sans-Serif" font-size="10.00">models::entity_base</text>
<text xml:space="preserve" text-anchor="start" x="17.38" y="-87.5" font-family="Helvetica,sans-Serif" font-size="10.00">&lt; detail_app::option</text>
<text xml:space="preserve" text-anchor="middle" x="61.25" y="-75.5" font-family="Helvetica,sans-Serif" font-size="10.00">_data, option_id &gt;</text>
</a>
</g>
</g>
<!-- Node2&#45;&gt;Node1 -->
<g id="edge1_Node000001_Node000002" class="edge">
<title>Node2&#45;&gt;Node1</title>
<g id="a_edge1_Node000001_Node000002"><a xlink:title=" ">
<path fill="none" stroke="#63b8ff" d="M61.25,-57.56C61.25,-48.66 61.25,-39.44 61.25,-32.04"/>
<polygon fill="#63b8ff" stroke="#63b8ff" points="57.75,-57.37 61.25,-67.37 64.75,-57.37 57.75,-57.37"/>
</a>
</g>
</g>
<!-- Node3 -->
<g id="Node000003" class="node">
<title>Node3</title>
<g id="a_Node000003"><a xlink:title=" ">
<polygon fill="white" stroke="#666666" points="59.65,-199 30.85,-199 30.85,-179 59.65,-179 59.65,-199"/>
<text xml:space="preserve" text-anchor="middle" x="45.25" y="-185.5" font-family="Helvetica,sans-Serif" font-size="10.00">V</text>
</a>
</g>
</g>
<!-- Node3&#45;&gt;Node2 -->
<g id="edge2_Node000002_Node000003" class="edge">
<title>Node3&#45;&gt;Node2</title>
<g id="a_edge2_Node000002_Node000003"><a xlink:title=" ">
<path fill="none" stroke="darkgreen" d="M48.67,-167.5C51.34,-151.49 55.03,-129.3 57.73,-113.13"/>
<polygon fill="darkgreen" stroke="darkgreen" points="45.22,-166.86 47.03,-177.3 52.13,-168.01 45.22,-166.86"/>
</a>
</g>
</g>
<!-- Node4 -->
<g id="Node000004" class="node">
<title>Node4</title>
<g id="a_Node000004"><a xlink:href="structdepicture__menu_1_1domain_1_1models_1_1base_1_1entity__base.html" target="_top" xlink:title=" ">
<polygon fill="white" stroke="#666666" points="200.5,-211 78,-211 78,-167 200.5,-167 200.5,-211"/>
<text xml:space="preserve" text-anchor="start" x="86" y="-197.5" font-family="Helvetica,sans-Serif" font-size="10.00">depicture_menu::domain</text>
<text xml:space="preserve" text-anchor="start" x="86" y="-185.5" font-family="Helvetica,sans-Serif" font-size="10.00">::models::base::entity</text>
<text xml:space="preserve" text-anchor="middle" x="139.25" y="-173.5" font-family="Helvetica,sans-Serif" font-size="10.00">_base&lt; Value, IdTag &gt;</text>
</a>
</g>
</g>
<!-- Node4&#45;&gt;Node2 -->
<g id="edge3_Node000002_Node000004" class="edge">
<title>Node4&#45;&gt;Node2</title>
<g id="a_edge3_Node000002_Node000004"><a xlink:title=" ">
<path fill="none" stroke="orange" stroke-dasharray="5,2" d="M114.91,-158.04C103.11,-143.51 89.21,-126.41 78.51,-113.25"/>
<polygon fill="orange" stroke="orange" points="111.96,-159.97 120.98,-165.52 117.4,-155.55 111.96,-159.97"/>
</a>
</g>
<text xml:space="preserve" text-anchor="start" x="110.24" y="-136.5" font-family="Helvetica,sans-Serif" font-size="10.00" fill="grey">&lt; V, ID &gt;</text>
</g>
<!-- Node5 -->
<g id="Node000005" class="node">
<title>Node5</title>
<g id="a_Node000005"><a xlink:title=" ">
<polygon fill="white" stroke="#666666" points="159.25,-268 119.25,-268 119.25,-248 159.25,-248 159.25,-268"/>
<text xml:space="preserve" text-anchor="middle" x="139.25" y="-254.5" font-family="Helvetica,sans-Serif" font-size="10.00">Value</text>
</a>
</g>
</g>
<!-- Node5&#45;&gt;Node4 -->
<g id="edge4_Node000004_Node000005" class="edge">
<title>Node5&#45;&gt;Node4</title>
<g id="a_edge4_Node000004_Node000005"><a xlink:title=" ">
<path fill="none" stroke="darkgreen" d="M139.25,-236.17C139.25,-228.29 139.25,-219.31 139.25,-211.37"/>
<polygon fill="darkgreen" stroke="darkgreen" points="135.75,-236.17 139.25,-246.17 142.75,-236.17 135.75,-236.17"/>
</a>
</g>
</g>
</g>
</svg>
