<?xml version="1.0" encoding="UTF-8" standalone="no"?>
<!DOCTYPE svg PUBLIC "-//W3C//DTD SVG 1.1//EN"
 "http://www.w3.org/Graphics/SVG/1.1/DTD/svg11.dtd">
<!-- Generated by graphviz version 14.1.2 (20260124.0452)
 -->
<!-- Title: depicture_menu::domain::app::config::get_application_command_invoker Pages: 1 -->
<svg width="915pt" height="374pt"
 viewBox="0.00 0.00 915.00 374.00" xmlns="http://www.w3.org/2000/svg" xmlns:xlink="http://www.w3.org/1999/xlink">
<g id="graph0" class="graph" transform="scale(1 1) rotate(0) translate(4 370)">
<title>depicture_menu::domain::app::config::get_application_command_invoker</title>
<!-- Node1 -->
<g id="Node000001" class="node">
<title>Node1</title>
<g id="a_Node000001"><a xlink:title=" ">
<polygon fill="#999999" stroke="#666666" points="906.5,-316 765.25,-316 765.25,-272 906.5,-272 906.5,-316"/>
<text xml:space="preserve" text-anchor="start" x="773.25" y="-302.5" font-family="Helvetica,sans-Serif" font-size="10.00">depicture_menu::domain</text>
<text xml:space="preserve" text-anchor="start" x="773.25" y="-290.5" font-family="Helvetica,sans-Serif" font-size="10.00">::app::config::get_application</text>
<text xml:space="preserve" text-anchor="middle" x="835.88" y="-278.5" font-family="Helvetica,sans-Serif" font-size="10.00">_command_invoker</text>
</a>
</g>
</g>
<!-- Node2 -->
<g id="Node000002" class="node">
<title>Node2</title>
<g id="a_Node000002"><a xlink:href="deploy__default__setting_8cpp.html#a638e25877528b95de44e4fcd07a8c45a" target="_top" xlink:title=" ">
<polygon fill="white" stroke="#666666" points="485.25,-354 389.75,-354 389.75,-334 485.25,-334 485.25,-354"/>
<text xml:space="preserve" text-anchor="middle" x="437.5" y="-340.5" font-family="Helvetica,sans-Serif" font-size="10.00">add_default_menu</text>
</a>
</g>
</g>
<!-- Node1&#45;&gt;Node2 -->
<g id="edge1_Node000001_Node000002" class="edge">
<title>Node1&#45;&gt;Node2</title>
<g id="a_edge1_Node000001_Node000002"><a xlink:title=" ">
<path fill="none" stroke="#63b8ff" d="M755.36,-319.35C746.61,-321.54 737.78,-323.49 729.25,-325 644.33,-340.05 543.55,-343.48 485.71,-344.09"/>
<polygon fill="#63b8ff" stroke="#63b8ff" points="756.11,-322.78 764.9,-316.86 754.34,-316 756.11,-322.78"/>
</a>
</g>
</g>
<!-- Node5 -->
<g id="Node000005" class="node">
<title>Node5</title>
<g id="a_Node000005"><a xlink:href="classdepicture__menu_1_1domain_1_1services_1_1common__action__builder.html#acab7593e460573f261b739ef666fa3c9" target="_top" xlink:title=" ">
<polygon fill="white" stroke="#666666" points="713.88,-316 574.12,-316 574.12,-272 713.88,-272 713.88,-316"/>
<text xml:space="preserve" text-anchor="start" x="582.12" y="-302.5" font-family="Helvetica,sans-Serif" font-size="10.00">depicture_menu::domain</text>
<text xml:space="preserve" text-anchor="start" x="582.12" y="-290.5" font-family="Helvetica,sans-Serif" font-size="10.00">::services::common_action</text>
<text xml:space="preserve" text-anchor="middle" x="644" y="-278.5" font-family="Helvetica,sans-Serif" font-size="10.00">_builder::build_default_menu</text>
</a>
</g>
</g>
<!-- Node1&#45;&gt;Node5 -->
<g id="edge4_Node000001_Node000005" class="edge">
<title>Node1&#45;&gt;Node5</title>
<g id="a_edge4_Node000001_Node000005"><a xlink:title=" ">
<path fill="none" stroke="#63b8ff" d="M753.55,-294C740.42,-294 726.93,-294 714.11,-294"/>
<polygon fill="#63b8ff" stroke="#63b8ff" points="753.47,-297.5 763.47,-294 753.47,-290.5 753.47,-297.5"/>
</a>
</g>
</g>
<!-- Node8 -->
<g id="Node000008" class="node">
<title>Node8</title>
<g id="a_Node000008"><a xlink:href="classdepicture__menu_1_1domain_1_1services_1_1create__command__domain__service.html#ae05be5568810d6e2964df2d82fbdf3dd" target="_top" xlink:title=" ">
<polygon fill="white" stroke="#666666" points="729.25,-180 558.75,-180 558.75,-124 729.25,-124 729.25,-180"/>
<text xml:space="preserve" text-anchor="start" x="566.75" y="-166.5" font-family="Helvetica,sans-Serif" font-size="10.00">depicture_menu::domain</text>
<text xml:space="preserve" text-anchor="start" x="566.75" y="-154.5" font-family="Helvetica,sans-Serif" font-size="10.00">::services::create_command</text>
<text xml:space="preserve" text-anchor="start" x="566.75" y="-142.5" font-family="Helvetica,sans-Serif" font-size="10.00">_domain_service::create_command</text>
<text xml:space="preserve" text-anchor="middle" x="644" y="-130.5" font-family="Helvetica,sans-Serif" font-size="10.00">_domain_service</text>
</a>
</g>
</g>
<!-- Node1&#45;&gt;Node8 -->
<g id="edge8_Node000001_Node000008" class="edge">
<title>Node1&#45;&gt;Node8</title>
<g id="a_edge8_Node000001_Node000008"><a xlink:title=" ">
<path fill="none" stroke="#63b8ff" d="M796.28,-265.14C763.21,-240.41 715.85,-204.99 682.97,-180.39"/>
<polygon fill="#63b8ff" stroke="#63b8ff" points="793.89,-267.72 803.99,-270.91 798.08,-262.11 793.89,-267.72"/>
</a>
</g>
</g>
<!-- Node3 -->
<g id="Node000003" class="node">
<title>Node3</title>
<g id="a_Node000003"><a xlink:href="deploy__default__setting_8cpp.html#a3311dba8e4af11d1e7973601fd991d43" target="_top" xlink:title=" ">
<polygon fill="white" stroke="#666666" points="300.5,-354 194.5,-354 194.5,-334 300.5,-334 300.5,-354"/>
<text xml:space="preserve" text-anchor="middle" x="247.5" y="-340.5" font-family="Helvetica,sans-Serif" font-size="10.00">add_default_settings</text>
</a>
</g>
</g>
<!-- Node2&#45;&gt;Node3 -->
<g id="edge2_Node000002_Node000003" class="edge">
<title>Node2&#45;&gt;Node3</title>
<g id="a_edge2_Node000002_Node000003"><a xlink:title=" ">
<path fill="none" stroke="#63b8ff" d="M378.12,-344C353.41,-344 324.83,-344 300.81,-344"/>
<polygon fill="#63b8ff" stroke="#63b8ff" points="378.03,-347.5 388.03,-344 378.03,-340.5 378.03,-347.5"/>
</a>
</g>
</g>
<!-- Node4 -->
<g id="Node000004" class="node">
<title>Node4</title>
<g id="a_Node000004"><a xlink:href="structdepicture__menu_1_1usecase_1_1detail__usecases_1_1deploy__default__setting__impl.html#a2c116aa98cc322e474ee99a84a130a94" target="_top" xlink:title=" ">
<polygon fill="white" stroke="#666666" points="142.75,-366 0,-366 0,-322 142.75,-322 142.75,-366"/>
<text xml:space="preserve" text-anchor="start" x="8" y="-352.5" font-family="Helvetica,sans-Serif" font-size="10.00">depicture_menu::usecase</text>
<text xml:space="preserve" text-anchor="start" x="8" y="-340.5" font-family="Helvetica,sans-Serif" font-size="10.00">::detail_usecases::deploy</text>
<text xml:space="preserve" text-anchor="middle" x="71.38" y="-328.5" font-family="Helvetica,sans-Serif" font-size="10.00">_default_setting_impl::deploy</text>
</a>
</g>
</g>
<!-- Node3&#45;&gt;Node4 -->
<g id="edge3_Node000003_Node000004" class="edge">
<title>Node3&#45;&gt;Node4</title>
<g id="a_edge3_Node000003_Node000004"><a xlink:title=" ">
<path fill="none" stroke="#63b8ff" d="M183.03,-344C170,-344 156.21,-344 142.94,-344"/>
<polygon fill="#63b8ff" stroke="#63b8ff" points="182.74,-347.5 192.74,-344 182.74,-340.5 182.74,-347.5"/>
</a>
</g>
</g>
<!-- Node5&#45;&gt;Node2 -->
<g id="edge5_Node000005_Node000002" class="edge">
<title>Node5&#45;&gt;Node2</title>
<g id="a_edge5_Node000005_Node000002"><a xlink:title=" ">
<path fill="none" stroke="#63b8ff" d="M562.7,-315.06C549.37,-318.46 535.68,-321.88 522.75,-325 510.65,-327.92 497.54,-330.95 485.35,-333.7"/>
<polygon fill="#63b8ff" stroke="#63b8ff" points="563.49,-318.47 572.31,-312.6 561.76,-311.69 563.49,-318.47"/>
</a>
</g>
</g>
<!-- Node6 -->
<g id="Node000006" class="node">
<title>Node6</title>
<g id="a_Node000006"><a xlink:href="namespacedepicture__menu_1_1usecase_1_1detail__usecase__add__new__menu.html#adcccdacee0183f07572ac2dd2543bc88" target="_top" xlink:title=" ">
<polygon fill="white" stroke="#666666" points="508.88,-316 366.12,-316 366.12,-272 508.88,-272 508.88,-316"/>
<text xml:space="preserve" text-anchor="start" x="374.12" y="-302.5" font-family="Helvetica,sans-Serif" font-size="10.00">depicture_menu::usecase</text>
<text xml:space="preserve" text-anchor="start" x="374.12" y="-290.5" font-family="Helvetica,sans-Serif" font-size="10.00">::detail_usecase_add_new</text>
<text xml:space="preserve" text-anchor="middle" x="437.5" y="-278.5" font-family="Helvetica,sans-Serif" font-size="10.00">_menu::add_new_menu_impl</text>
</a>
</g>
</g>
<!-- Node5&#45;&gt;Node6 -->
<g id="edge6_Node000005_Node000006" class="edge">
<title>Node5&#45;&gt;Node6</title>
<g id="a_edge6_Node000005_Node000006"><a xlink:title=" ">
<path fill="none" stroke="#63b8ff" d="M562.35,-294C544.74,-294 526.24,-294 509.06,-294"/>
<polygon fill="#63b8ff" stroke="#63b8ff" points="562.25,-297.5 572.25,-294 562.25,-290.5 562.25,-297.5"/>
</a>
</g>
</g>
<!-- Node7 -->
<g id="Node000007" class="node">
<title>Node7</title>
<g id="a_Node000007"><a xlink:href="classdepicture__menu_1_1usecase_1_1add__new__menu.html#a91e1f19446cb9de1abfbf1a7ecc6a95a" target="_top" xlink:title=" ">
<polygon fill="white" stroke="#666666" points="316.25,-310 178.75,-310 178.75,-278 316.25,-278 316.25,-310"/>
<text xml:space="preserve" text-anchor="start" x="186.75" y="-296.5" font-family="Helvetica,sans-Serif" font-size="10.00">depicture_menu::usecase</text>
<text xml:space="preserve" text-anchor="middle" x="247.5" y="-284.5" font-family="Helvetica,sans-Serif" font-size="10.00">::add_new_menu::operator()</text>
</a>
</g>
</g>
<!-- Node6&#45;&gt;Node7 -->
<g id="edge7_Node000006_Node000007" class="edge">
<title>Node6&#45;&gt;Node7</title>
<g id="a_edge7_Node000006_Node000007"><a xlink:title=" ">
<path fill="none" stroke="#63b8ff" d="M354.22,-294C341.6,-294 328.7,-294 316.44,-294"/>
<polygon fill="#63b8ff" stroke="#63b8ff" points="354.18,-297.5 364.18,-294 354.18,-290.5 354.18,-297.5"/>
</a>
</g>
</g>
<!-- Node9 -->
<g id="Node000009" class="node">
<title>Node9</title>
<g id="a_Node000009"><a xlink:href="classdepicture__menu_1_1domain_1_1services_1_1create__command__domain__service.html#afffb978f1f6ec57995ad0fdf072a3ab2" target="_top" xlink:title=" ">
<polygon fill="white" stroke="#666666" points="522.75,-254 352.25,-254 352.25,-198 522.75,-198 522.75,-254"/>
<text xml:space="preserve" text-anchor="start" x="360.25" y="-240.5" font-family="Helvetica,sans-Serif" font-size="10.00">depicture_menu::domain</text>
<text xml:space="preserve" text-anchor="start" x="360.25" y="-228.5" font-family="Helvetica,sans-Serif" font-size="10.00">::services::create_command</text>
<text xml:space="preserve" text-anchor="start" x="360.25" y="-216.5" font-family="Helvetica,sans-Serif" font-size="10.00">_domain_service::create_command</text>
<text xml:space="preserve" text-anchor="middle" x="437.5" y="-204.5" font-family="Helvetica,sans-Serif" font-size="10.00">_domain_service</text>
</a>
</g>
</g>
<!-- Node8&#45;&gt;Node9 -->
<g id="edge9_Node000008_Node000009" class="edge">
<title>Node8&#45;&gt;Node9</title>
<g id="a_edge9_Node000008_Node000009"><a xlink:title=" ">
<path fill="none" stroke="#63b8ff" d="M553.85,-184.26C541.62,-188.68 529.13,-193.2 517.11,-197.56"/>
<polygon fill="#63b8ff" stroke="#63b8ff" points="554.88,-187.61 563.1,-180.91 552.5,-181.03 554.88,-187.61"/>
</a>
</g>
</g>
<!-- Node10 -->
<g id="Node000010" class="node">
<title>Node10</title>
<g id="a_Node000010"><a xlink:href="classdepicture__menu_1_1domain_1_1services_1_1create__command__domain__service.html#a0fef3f47886db8eb7acc32d552cc186b" target="_top" xlink:title=" ">
<polygon fill="white" stroke="#666666" points="522.75,-180 352.25,-180 352.25,-124 522.75,-124 522.75,-180"/>
<text xml:space="preserve" text-anchor="start" x="360.25" y="-166.5" font-family="Helvetica,sans-Serif" font-size="10.00">depicture_menu::domain</text>
<text xml:space="preserve" text-anchor="start" x="360.25" y="-154.5" font-family="Helvetica,sans-Serif" font-size="10.00">::services::create_command</text>
<text xml:space="preserve" text-anchor="start" x="360.25" y="-142.5" font-family="Helvetica,sans-Serif" font-size="10.00">_domain_service::create_command</text>
<text xml:space="preserve" text-anchor="middle" x="437.5" y="-130.5" font-family="Helvetica,sans-Serif" font-size="10.00">_domain_service</text>
</a>
</g>
</g>
<!-- Node8&#45;&gt;Node10 -->
<g id="edge10_Node000008_Node000010" class="edge">
<title>Node8&#45;&gt;Node10</title>
<g id="a_edge10_Node000008_Node000010"><a xlink:title=" ">
<path fill="none" stroke="#63b8ff" d="M547.08,-152C539.07,-152 531.01,-152 523.09,-152"/>
<polygon fill="#63b8ff" stroke="#63b8ff" points="546.83,-155.5 556.83,-152 546.83,-148.5 546.83,-155.5"/>
</a>
</g>
</g>
<!-- Node11 -->
<g id="Node000011" class="node">
<title>Node11</title>
<g id="a_Node000011"><a xlink:href="classdepicture__menu_1_1domain_1_1services_1_1create__command__domain__service.html#a7fbb4004eb6b7b517769bd7471e81ed2" target="_top" xlink:title=" ">
<polygon fill="white" stroke="#666666" points="507.38,-106 367.62,-106 367.62,-62 507.38,-62 507.38,-106"/>
<text xml:space="preserve" text-anchor="start" x="375.62" y="-92.5" font-family="Helvetica,sans-Serif" font-size="10.00">depicture_menu::domain</text>
<text xml:space="preserve" text-anchor="start" x="375.62" y="-80.5" font-family="Helvetica,sans-Serif" font-size="10.00">::services::create_command</text>
<text xml:space="preserve" text-anchor="middle" x="437.5" y="-68.5" font-family="Helvetica,sans-Serif" font-size="10.00">_domain_service::operator=</text>
</a>
</g>
</g>
<!-- Node8&#45;&gt;Node11 -->
<g id="edge11_Node000008_Node000011" class="edge">
<title>Node8&#45;&gt;Node11</title>
<g id="a_edge11_Node000008_Node000011"><a xlink:title=" ">
<path fill="none" stroke="#63b8ff" d="M547.63,-120.29C533.55,-115.61 519.29,-110.86 505.94,-106.42"/>
<polygon fill="#63b8ff" stroke="#63b8ff" points="546.32,-123.54 556.91,-123.37 548.52,-116.9 546.32,-123.54"/>
</a>
</g>
</g>
<!-- Node12 -->
<g id="Node000012" class="node">
<title>Node12</title>
<g id="a_Node000012"><a xlink:href="classdepicture__menu_1_1domain_1_1services_1_1create__command__domain__service.html#a44072fd8b200120ab19cf3cf9f8eb8ea" target="_top" xlink:title=" ">
<polygon fill="white" stroke="#666666" points="507.38,-44 367.62,-44 367.62,0 507.38,0 507.38,-44"/>
<text xml:space="preserve" text-anchor="start" x="375.62" y="-30.5" font-family="Helvetica,sans-Serif" font-size="10.00">depicture_menu::domain</text>
<text xml:space="preserve" text-anchor="start" x="375.62" y="-18.5" font-family="Helvetica,sans-Serif" font-size="10.00">::services::create_command</text>
<text xml:space="preserve" text-anchor="middle" x="437.5" y="-6.5" font-family="Helvetica,sans-Serif" font-size="10.00">_domain_service::operator=</text>
</a>
</g>
</g>
<!-- Node8&#45;&gt;Node12 -->
<g id="edge12_Node000008_Node000012" class="edge">
<title>Node8&#45;&gt;Node12</title>
<g id="a_edge12_Node000008_Node000012"><a xlink:title=" ">
<path fill="none" stroke="#63b8ff" d="M606.16,-116.11C583.53,-95.53 553.12,-70.42 522.75,-53 517.34,-49.9 511.57,-47.01 505.67,-44.34"/>
<polygon fill="#63b8ff" stroke="#63b8ff" points="603.61,-118.52 613.33,-122.73 608.35,-113.37 603.61,-118.52"/>
</a>
</g>
</g>
</g>
</svg>
