<?xml version="1.0" encoding="UTF-8" standalone="no"?>
<!DOCTYPE svg PUBLIC "-//W3C//DTD SVG 1.1//EN"
 "http://www.w3.org/Graphics/SVG/1.1/DTD/svg11.dtd">
<!-- Generated by graphviz version 14.1.2 (20260124.0452)
 -->
<!-- Title: depicture_menu::domain::services::create_menu_domain_service::create_menu_domain_service Pages: 1 -->
<svg width="521pt" height="132pt"
 viewBox="0.00 0.00 521.00 132.00" xmlns="http://www.w3.org/2000/svg" xmlns:xlink="http://www.w3.org/1999/xlink">
<g id="graph0" class="graph" transform="scale(1 1) rotate(0) translate(4 128)">
<title>depicture_menu::domain::services::create_menu_domain_service::create_menu_domain_service</title>
<!-- Node1 -->
<g id="Node000001" class="node">
<title>Node1</title>
<g id="a_Node000001"><a xlink:title=" ">
<polygon fill="#999999" stroke="#666666" points="122.5,-81 0,-81 0,-25 122.5,-25 122.5,-81"/>
<text xml:space="preserve" text-anchor="start" x="8" y="-67.5" font-family="Helvetica,sans-Serif" font-size="10.00">depicture_menu::domain</text>
<text xml:space="preserve" text-anchor="start" x="8" y="-55.5" font-family="Helvetica,sans-Serif" font-size="10.00">::services::create_menu</text>
<text xml:space="preserve" text-anchor="start" x="8" y="-43.5" font-family="Helvetica,sans-Serif" font-size="10.00">_domain_service::create</text>
<text xml:space="preserve" text-anchor="middle" x="61.25" y="-31.5" font-family="Helvetica,sans-Serif" font-size="10.00">_menu_domain_service</text>
</a>
</g>
</g>
<!-- Node2 -->
<g id="Node000002" class="node">
<title>Node2</title>
<g id="a_Node000002"><a xlink:href="classdepicture__menu_1_1domain_1_1services_1_1create__menu__domain__service.html#a4391fb911fd299c28f0fdebf425e44ec" target="_top" xlink:title=" ">
<polygon fill="white" stroke="#666666" points="333.5,-106 158.5,-106 158.5,-62 333.5,-62 333.5,-106"/>
<text xml:space="preserve" text-anchor="start" x="166.5" y="-92.5" font-family="Helvetica,sans-Serif" font-size="10.00">depicture_menu::domain</text>
<text xml:space="preserve" text-anchor="start" x="166.5" y="-80.5" font-family="Helvetica,sans-Serif" font-size="10.00">::services::create_menu</text>
<text xml:space="preserve" text-anchor="middle" x="246" y="-68.5" font-family="Helvetica,sans-Serif" font-size="10.00">_domain_service::set_central_action</text>
</a>
</g>
</g>
<!-- Node1&#45;&gt;Node2 -->
<g id="edge1_Node000001_Node000002" class="edge">
<title>Node1&#45;&gt;Node2</title>
<g id="a_edge1_Node000001_Node000002"><a xlink:title=" ">
<path fill="none" stroke="#63b8ff" d="M122.85,-63.28C130.64,-64.6 138.76,-65.98 146.95,-67.37"/>
<polygon fill="#63b8ff" stroke="#63b8ff" points="146.21,-70.79 156.66,-69.01 147.38,-63.89 146.21,-70.79"/>
</a>
</g>
</g>
<!-- Node4 -->
<g id="Node000004" class="node">
<title>Node4</title>
<g id="a_Node000004"><a xlink:href="classdepicture__menu_1_1domain_1_1services_1_1create__menu__domain__service.html#a5a811ba14d72e64f779283d3298d3c9f" target="_top" xlink:title=" ">
<polygon fill="white" stroke="#666666" points="327.12,-44 164.88,-44 164.88,0 327.12,0 327.12,-44"/>
<text xml:space="preserve" text-anchor="start" x="172.88" y="-30.5" font-family="Helvetica,sans-Serif" font-size="10.00">depicture_menu::domain</text>
<text xml:space="preserve" text-anchor="start" x="172.88" y="-18.5" font-family="Helvetica,sans-Serif" font-size="10.00">::services::create_menu</text>
<text xml:space="preserve" text-anchor="middle" x="246" y="-6.5" font-family="Helvetica,sans-Serif" font-size="10.00">_domain_service::set_item_count</text>
</a>
</g>
</g>
<!-- Node1&#45;&gt;Node4 -->
<g id="edge4_Node000001_Node000004" class="edge">
<title>Node1&#45;&gt;Node4</title>
<g id="a_edge4_Node000001_Node000004"><a xlink:title=" ">
<path fill="none" stroke="#63b8ff" d="M122.85,-42.72C132.62,-41.06 142.91,-39.32 153.22,-37.57"/>
<polygon fill="#63b8ff" stroke="#63b8ff" points="153.61,-41.05 162.89,-35.93 152.44,-34.15 153.61,-41.05"/>
</a>
</g>
</g>
<!-- Node3 -->
<g id="Node000003" class="node">
<title>Node3</title>
<g id="a_Node000003"><a xlink:href="classdepicture__menu_1_1domain_1_1services_1_1create__action__domain__service.html#a2fd6a95617cfa15455a9c1f0d80896e2" target="_top" xlink:title=" ">
<polygon fill="white" stroke="#666666" points="502.88,-106 379.62,-106 379.62,-62 502.88,-62 502.88,-106"/>
<text xml:space="preserve" text-anchor="start" x="387.62" y="-92.5" font-family="Helvetica,sans-Serif" font-size="10.00">depicture_menu::domain</text>
<text xml:space="preserve" text-anchor="start" x="387.62" y="-80.5" font-family="Helvetica,sans-Serif" font-size="10.00">::services::create_action</text>
<text xml:space="preserve" text-anchor="middle" x="441.25" y="-68.5" font-family="Helvetica,sans-Serif" font-size="10.00">_domain_service::result</text>
</a>
</g>
</g>
<!-- Node2&#45;&gt;Node3 -->
<g id="edge2_Node000002_Node000003" class="edge">
<title>Node2&#45;&gt;Node3</title>
<g id="a_edge2_Node000002_Node000003"><a xlink:title=" ">
<path fill="none" stroke="#63b8ff" d="M333.73,-84C345.13,-84 356.71,-84 367.83,-84"/>
<polygon fill="#63b8ff" stroke="#63b8ff" points="367.71,-87.5 377.71,-84 367.71,-80.5 367.71,-87.5"/>
</a>
</g>
</g>
<!-- Node3&#45;&gt;Node3 -->
<g id="edge3_Node000003_Node000003" class="edge">
<title>Node3&#45;&gt;Node3</title>
<g id="a_edge3_Node000003_Node000003"><a xlink:title=" ">
<path fill="none" stroke="#63b8ff" d="M405.08,-106.21C402.12,-115.8 414.17,-124 441.25,-124 457.33,-124 468.11,-121.11 473.59,-116.75"/>
<polygon fill="#63b8ff" stroke="#63b8ff" points="476.78,-118.23 476.9,-107.64 470.2,-115.84 476.78,-118.23"/>
</a>
</g>
</g>
<!-- Node5 -->
<g id="Node000005" class="node">
<title>Node5</title>
<g id="a_Node000005"><a xlink:href="classdepicture__menu_1_1domain_1_1services_1_1create__menu__item__domain__service.html#a67fbbeadecb9d09c9890b9aac7e34088" target="_top" xlink:title=" ">
<polygon fill="white" stroke="#666666" points="513,-44 369.5,-44 369.5,0 513,0 513,-44"/>
<text xml:space="preserve" text-anchor="start" x="377.5" y="-30.5" font-family="Helvetica,sans-Serif" font-size="10.00">depicture_menu::domain</text>
<text xml:space="preserve" text-anchor="start" x="377.5" y="-18.5" font-family="Helvetica,sans-Serif" font-size="10.00">::services::create_menu</text>
<text xml:space="preserve" text-anchor="middle" x="441.25" y="-6.5" font-family="Helvetica,sans-Serif" font-size="10.00">_item_domain_service::result</text>
</a>
</g>
</g>
<!-- Node4&#45;&gt;Node5 -->
<g id="edge5_Node000004_Node000005" class="edge">
<title>Node4&#45;&gt;Node5</title>
<g id="a_edge5_Node000004_Node000005"><a xlink:title=" ">
<path fill="none" stroke="#63b8ff" d="M327.56,-22C337.56,-22 347.81,-22 357.84,-22"/>
<polygon fill="#63b8ff" stroke="#63b8ff" points="357.55,-25.5 367.55,-22 357.55,-18.5 357.55,-25.5"/>
</a>
</g>
</g>
</g>
</svg>
