<?xml version="1.0" encoding="UTF-8" standalone="no"?>
<!DOCTYPE svg PUBLIC "-//W3C//DTD SVG 1.1//EN"
 "http://www.w3.org/Graphics/SVG/1.1/DTD/svg11.dtd">
<!-- Generated by graphviz version 14.1.2 (20260124.0452)
 -->
<!-- Title: depicture_menu::domain::services::common_action_builder::build_default_menu Pages: 1 -->
<svg width="679pt" height="102pt"
 viewBox="0.00 0.00 679.00 102.00" xmlns="http://www.w3.org/2000/svg" xmlns:xlink="http://www.w3.org/1999/xlink">
<g id="graph0" class="graph" transform="scale(1 1) rotate(0) translate(4 98)">
<title>depicture_menu::domain::services::common_action_builder::build_default_menu</title>
<!-- Node1 -->
<g id="Node000001" class="node">
<title>Node1</title>
<g id="a_Node000001"><a xlink:title=" ">
<polygon fill="#999999" stroke="#666666" points="670.75,-69 531,-69 531,-25 670.75,-25 670.75,-69"/>
<text xml:space="preserve" text-anchor="start" x="539" y="-55.5" font-family="Helvetica,sans-Serif" font-size="10.00">depicture_menu::domain</text>
<text xml:space="preserve" text-anchor="start" x="539" y="-43.5" font-family="Helvetica,sans-Serif" font-size="10.00">::services::common_action</text>
<text xml:space="preserve" text-anchor="middle" x="600.88" y="-31.5" font-family="Helvetica,sans-Serif" font-size="10.00">_builder::build_default_menu</text>
</a>
</g>
</g>
<!-- Node2 -->
<g id="Node000002" class="node">
<title>Node2</title>
<g id="a_Node000002"><a xlink:href="deploy__default__setting_8cpp.html#a638e25877528b95de44e4fcd07a8c45a" target="_top" xlink:title=" ">
<polygon fill="white" stroke="#666666" points="471.38,-82 375.88,-82 375.88,-62 471.38,-62 471.38,-82"/>
<text xml:space="preserve" text-anchor="middle" x="423.62" y="-68.5" font-family="Helvetica,sans-Serif" font-size="10.00">add_default_menu</text>
</a>
</g>
</g>
<!-- Node1&#45;&gt;Node2 -->
<g id="edge1_Node000001_Node000002" class="edge">
<title>Node1&#45;&gt;Node2</title>
<g id="a_edge1_Node000001_Node000002"><a xlink:title=" ">
<path fill="none" stroke="#63b8ff" d="M519.42,-58.48C503.13,-60.8 486.51,-63.17 471.83,-65.27"/>
<polygon fill="#63b8ff" stroke="#63b8ff" points="519.71,-61.97 529.11,-57.09 518.72,-55.04 519.71,-61.97"/>
</a>
</g>
</g>
<!-- Node5 -->
<g id="Node000005" class="node">
<title>Node5</title>
<g id="a_Node000005"><a xlink:href="namespacedepicture__menu_1_1usecase_1_1detail__usecase__add__new__menu.html#adcccdacee0183f07572ac2dd2543bc88" target="_top" xlink:title=" ">
<polygon fill="white" stroke="#666666" points="495,-44 352.25,-44 352.25,0 495,0 495,-44"/>
<text xml:space="preserve" text-anchor="start" x="360.25" y="-30.5" font-family="Helvetica,sans-Serif" font-size="10.00">depicture_menu::usecase</text>
<text xml:space="preserve" text-anchor="start" x="360.25" y="-18.5" font-family="Helvetica,sans-Serif" font-size="10.00">::detail_usecase_add_new</text>
<text xml:space="preserve" text-anchor="middle" x="423.62" y="-6.5" font-family="Helvetica,sans-Serif" font-size="10.00">_menu::add_new_menu_impl</text>
</a>
</g>
</g>
<!-- Node1&#45;&gt;Node5 -->
<g id="edge4_Node000001_Node000005" class="edge">
<title>Node1&#45;&gt;Node5</title>
<g id="a_edge4_Node000001_Node000005"><a xlink:title=" ">
<path fill="none" stroke="#63b8ff" d="M519.38,-35.52C511.37,-34.38 503.29,-33.22 495.4,-32.1"/>
<polygon fill="#63b8ff" stroke="#63b8ff" points="518.72,-38.96 529.11,-36.91 519.71,-32.03 518.72,-38.96"/>
</a>
</g>
</g>
<!-- Node3 -->
<g id="Node000003" class="node">
<title>Node3</title>
<g id="a_Node000003"><a xlink:href="deploy__default__setting_8cpp.html#a3311dba8e4af11d1e7973601fd991d43" target="_top" xlink:title=" ">
<polygon fill="white" stroke="#666666" points="300.5,-82 194.5,-82 194.5,-62 300.5,-62 300.5,-82"/>
<text xml:space="preserve" text-anchor="middle" x="247.5" y="-68.5" font-family="Helvetica,sans-Serif" font-size="10.00">add_default_settings</text>
</a>
</g>
</g>
<!-- Node2&#45;&gt;Node3 -->
<g id="edge2_Node000002_Node000003" class="edge">
<title>Node2&#45;&gt;Node3</title>
<g id="a_edge2_Node000002_Node000003"><a xlink:title=" ">
<path fill="none" stroke="#63b8ff" d="M364.09,-72C343.63,-72 320.8,-72 300.87,-72"/>
<polygon fill="#63b8ff" stroke="#63b8ff" points="363.99,-75.5 373.99,-72 363.99,-68.5 363.99,-75.5"/>
</a>
</g>
</g>
<!-- Node4 -->
<g id="Node000004" class="node">
<title>Node4</title>
<g id="a_Node000004"><a xlink:href="structdepicture__menu_1_1usecase_1_1detail__usecases_1_1deploy__default__setting__impl.html#a2c116aa98cc322e474ee99a84a130a94" target="_top" xlink:title=" ">
<polygon fill="white" stroke="#666666" points="142.75,-94 0,-94 0,-50 142.75,-50 142.75,-94"/>
<text xml:space="preserve" text-anchor="start" x="8" y="-80.5" font-family="Helvetica,sans-Serif" font-size="10.00">depicture_menu::usecase</text>
<text xml:space="preserve" text-anchor="start" x="8" y="-68.5" font-family="Helvetica,sans-Serif" font-size="10.00">::detail_usecases::deploy</text>
<text xml:space="preserve" text-anchor="middle" x="71.38" y="-56.5" font-family="Helvetica,sans-Serif" font-size="10.00">_default_setting_impl::deploy</text>
</a>
</g>
</g>
<!-- Node3&#45;&gt;Node4 -->
<g id="edge3_Node000003_Node000004" class="edge">
<title>Node3&#45;&gt;Node4</title>
<g id="a_edge3_Node000003_Node000004"><a xlink:title=" ">
<path fill="none" stroke="#63b8ff" d="M183.03,-72C170,-72 156.21,-72 142.94,-72"/>
<polygon fill="#63b8ff" stroke="#63b8ff" points="182.74,-75.5 192.74,-72 182.74,-68.5 182.74,-75.5"/>
</a>
</g>
</g>
<!-- Node6 -->
<g id="Node000006" class="node">
<title>Node6</title>
<g id="a_Node000006"><a xlink:href="classdepicture__menu_1_1usecase_1_1add__new__menu.html#a91e1f19446cb9de1abfbf1a7ecc6a95a" target="_top" xlink:title=" ">
<polygon fill="white" stroke="#666666" points="316.25,-38 178.75,-38 178.75,-6 316.25,-6 316.25,-38"/>
<text xml:space="preserve" text-anchor="start" x="186.75" y="-24.5" font-family="Helvetica,sans-Serif" font-size="10.00">depicture_menu::usecase</text>
<text xml:space="preserve" text-anchor="middle" x="247.5" y="-12.5" font-family="Helvetica,sans-Serif" font-size="10.00">::add_new_menu::operator()</text>
</a>
</g>
</g>
<!-- Node5&#45;&gt;Node6 -->
<g id="edge5_Node000005_Node000006" class="edge">
<title>Node5&#45;&gt;Node6</title>
<g id="a_edge5_Node000005_Node000006"><a xlink:title=" ">
<path fill="none" stroke="#63b8ff" d="M340.3,-22C332.41,-22 324.46,-22 316.73,-22"/>
<polygon fill="#63b8ff" stroke="#63b8ff" points="340.29,-25.5 350.29,-22 340.29,-18.5 340.29,-25.5"/>
</a>
</g>
</g>
</g>
</svg>
