<?xml version="1.0" encoding="UTF-8" standalone="no"?>
<!DOCTYPE svg PUBLIC "-//W3C//DTD SVG 1.1//EN"
 "http://www.w3.org/Graphics/SVG/1.1/DTD/svg11.dtd">
<!-- Generated by graphviz version 14.1.2 (20260124.0452)
 -->
<!-- Title: depicture_menu::applications::config_view_factory::config_view_observer::operator() Pages: 1 -->
<svg width="1060pt" height="260pt"
 viewBox="0.00 0.00 1060.00 260.00" xmlns="http://www.w3.org/2000/svg" xmlns:xlink="http://www.w3.org/1999/xlink">
<g id="graph0" class="graph" transform="scale(1 1) rotate(0) translate(4 256)">
<title>depicture_menu::applications::config_view_factory::config_view_observer::operator()</title>
<!-- Node1 -->
<g id="Node000001" class="node">
<title>Node1</title>
<g id="a_Node000001"><a xlink:title="ConfMenuItem &quot;ActionKind&quot;">
<polygon fill="#999999" stroke="#666666" points="142.75,-159 0,-159 0,-115 142.75,-115 142.75,-159"/>
<text xml:space="preserve" text-anchor="start" x="8" y="-145.5" font-family="Helvetica,sans-Serif" font-size="10.00">depicture_menu::applications</text>
<text xml:space="preserve" text-anchor="start" x="8" y="-133.5" font-family="Helvetica,sans-Serif" font-size="10.00">::config_view_factory::config</text>
<text xml:space="preserve" text-anchor="middle" x="71.38" y="-121.5" font-family="Helvetica,sans-Serif" font-size="10.00">_view_observer::operator()</text>
</a>
</g>
</g>
<!-- Node2 -->
<g id="Node000002" class="node">
<title>Node2</title>
<g id="a_Node000002"><a xlink:href="classdepicture__menu_1_1applications_1_1config__view__factory_1_1config__view__observer.html#a10fcb18a39c679e36e7b77c59c3c4f4f" target="_top" xlink:title="config_idの取得">
<polygon fill="white" stroke="#666666" points="348.5,-252 205.75,-252 205.75,-208 348.5,-208 348.5,-252"/>
<text xml:space="preserve" text-anchor="start" x="213.75" y="-238.5" font-family="Helvetica,sans-Serif" font-size="10.00">depicture_menu::applications</text>
<text xml:space="preserve" text-anchor="start" x="213.75" y="-226.5" font-family="Helvetica,sans-Serif" font-size="10.00">::config_view_factory::config</text>
<text xml:space="preserve" text-anchor="middle" x="277.12" y="-214.5" font-family="Helvetica,sans-Serif" font-size="10.00">_view_observer::cfg_id</text>
</a>
</g>
</g>
<!-- Node1&#45;&gt;Node2 -->
<g id="edge1_Node000001_Node000002" class="edge">
<title>Node1&#45;&gt;Node2</title>
<g id="a_edge1_Node000001_Node000002"><a xlink:title=" ">
<path fill="none" stroke="#63b8ff" d="M106.33,-159.37C126.73,-172.15 153.55,-187.81 178.75,-199 183.94,-201.3 189.35,-203.52 194.85,-205.62"/>
<polygon fill="#63b8ff" stroke="#63b8ff" points="193.48,-208.85 204.07,-209.02 195.9,-202.28 193.48,-208.85"/>
</a>
</g>
</g>
<!-- Node3 -->
<g id="Node000003" class="node">
<title>Node3</title>
<g id="a_Node000003"><a xlink:href="classdepicture__menu_1_1applications_1_1config__view__factory_1_1config__view__observer.html#a2f0ac575c5e8977675ed262e74d8ffbc" target="_top" xlink:title="メニューアイテムIDからメニューをFind">
<polygon fill="white" stroke="#666666" points="375.5,-190 178.75,-190 178.75,-146 375.5,-146 375.5,-190"/>
<text xml:space="preserve" text-anchor="start" x="186.75" y="-176.5" font-family="Helvetica,sans-Serif" font-size="10.00">depicture_menu::applications</text>
<text xml:space="preserve" text-anchor="start" x="186.75" y="-164.5" font-family="Helvetica,sans-Serif" font-size="10.00">::config_view_factory::config</text>
<text xml:space="preserve" text-anchor="middle" x="277.12" y="-152.5" font-family="Helvetica,sans-Serif" font-size="10.00">_view_observer::find_menu_from_item_id</text>
</a>
</g>
</g>
<!-- Node1&#45;&gt;Node3 -->
<g id="edge2_Node000001_Node000003" class="edge">
<title>Node1&#45;&gt;Node3</title>
<g id="a_edge2_Node000001_Node000003"><a xlink:title=" ">
<path fill="none" stroke="#63b8ff" d="M143.07,-147.76C150.89,-148.95 158.98,-150.18 167.14,-151.42"/>
<polygon fill="#63b8ff" stroke="#63b8ff" points="166.37,-154.84 176.78,-152.89 167.42,-147.92 166.37,-154.84"/>
</a>
</g>
</g>
<!-- Node4 -->
<g id="Node000004" class="node">
<title>Node4</title>
<g id="a_Node000004"><a xlink:href="classdepicture__menu_1_1applications_1_1config__view__factory_1_1config__view__observer.html#ad1303825ceb3a5f56ac7fd8bc1120377" target="_top" xlink:title="dispaterを呼び出す">
<polygon fill="white" stroke="#666666" points="348.5,-128 205.75,-128 205.75,-84 348.5,-84 348.5,-128"/>
<text xml:space="preserve" text-anchor="start" x="213.75" y="-114.5" font-family="Helvetica,sans-Serif" font-size="10.00">depicture_menu::applications</text>
<text xml:space="preserve" text-anchor="start" x="213.75" y="-102.5" font-family="Helvetica,sans-Serif" font-size="10.00">::config_view_factory::config</text>
<text xml:space="preserve" text-anchor="middle" x="277.12" y="-90.5" font-family="Helvetica,sans-Serif" font-size="10.00">_view_observer::opt_id</text>
</a>
</g>
</g>
<!-- Node1&#45;&gt;Node4 -->
<g id="edge3_Node000001_Node000004" class="edge">
<title>Node1&#45;&gt;Node4</title>
<g id="a_edge3_Node000001_Node000004"><a xlink:title=" ">
<path fill="none" stroke="#63b8ff" d="M143.07,-126.24C159.66,-123.72 177.47,-121.01 194.5,-118.42"/>
<polygon fill="#63b8ff" stroke="#63b8ff" points="194.7,-121.93 204.06,-116.96 193.65,-115.01 194.7,-121.93"/>
</a>
</g>
</g>
<!-- Node5 -->
<g id="Node000005" class="node">
<title>Node5</title>
<g id="a_Node000005"><a xlink:href="classdepicture__menu_1_1applications_1_1config__view__factory_1_1config__view__observer.html#a6368a0a839dd3d9074361f068bf77de3" target="_top" xlink:title=" ">
<polygon fill="white" stroke="#666666" points="348.5,-66 205.75,-66 205.75,-22 348.5,-22 348.5,-66"/>
<text xml:space="preserve" text-anchor="start" x="213.75" y="-52.5" font-family="Helvetica,sans-Serif" font-size="10.00">depicture_menu::applications</text>
<text xml:space="preserve" text-anchor="start" x="213.75" y="-40.5" font-family="Helvetica,sans-Serif" font-size="10.00">::config_view_factory::config</text>
<text xml:space="preserve" text-anchor="middle" x="277.12" y="-28.5" font-family="Helvetica,sans-Serif" font-size="10.00">_view_observer::relay</text>
</a>
</g>
</g>
<!-- Node1&#45;&gt;Node5 -->
<g id="edge4_Node000001_Node000005" class="edge">
<title>Node1&#45;&gt;Node5</title>
<g id="a_edge4_Node000001_Node000005"><a xlink:title=" ">
<path fill="none" stroke="#63b8ff" d="M106.33,-114.63C126.73,-101.85 153.55,-86.19 178.75,-75 183.94,-72.7 189.35,-70.48 194.85,-68.38"/>
<polygon fill="#63b8ff" stroke="#63b8ff" points="195.9,-71.72 204.07,-64.98 193.48,-65.15 195.9,-71.72"/>
</a>
</g>
</g>
<!-- Node6 -->
<g id="Node000006" class="node">
<title>Node6</title>
<g id="a_Node000006"><a xlink:href="namespacedepicture__menu_1_1applications.html#a7ea63a2945eb75bfc5fb5e79d1d08778" target="_top" xlink:title=" ">
<polygon fill="white" stroke="#666666" points="554.25,-60 411.5,-60 411.5,-28 554.25,-28 554.25,-60"/>
<text xml:space="preserve" text-anchor="start" x="419.5" y="-46.5" font-family="Helvetica,sans-Serif" font-size="10.00">depicture_menu::applications</text>
<text xml:space="preserve" text-anchor="middle" x="482.88" y="-34.5" font-family="Helvetica,sans-Serif" font-size="10.00">::run_worker</text>
</a>
</g>
</g>
<!-- Node5&#45;&gt;Node6 -->
<g id="edge5_Node000005_Node000006" class="edge">
<title>Node5&#45;&gt;Node6</title>
<g id="a_edge5_Node000005_Node000006"><a xlink:title=" ">
<path fill="none" stroke="#63b8ff" d="M348.82,-44C365.41,-44 383.22,-44 400.25,-44"/>
<polygon fill="#63b8ff" stroke="#63b8ff" points="399.8,-47.5 409.8,-44 399.8,-40.5 399.8,-47.5"/>
</a>
</g>
</g>
<!-- Node7 -->
<g id="Node000007" class="node">
<title>Node7</title>
<g id="a_Node000007"><a xlink:href="classdepicture__menu_1_1singleton.html#ab3a8df96e817c8ccb1ab61434f90c416" target="_top" xlink:title=" ">
<polygon fill="white" stroke="#666666" points="720.25,-66 590.25,-66 590.25,-22 720.25,-22 720.25,-66"/>
<text xml:space="preserve" text-anchor="start" x="598.25" y="-52.5" font-family="Helvetica,sans-Serif" font-size="10.00">depicture_menu::singleton</text>
<text xml:space="preserve" text-anchor="start" x="598.25" y="-40.5" font-family="Helvetica,sans-Serif" font-size="10.00">&lt; detail_applications::</text>
<text xml:space="preserve" text-anchor="middle" x="655.25" y="-28.5" font-family="Helvetica,sans-Serif" font-size="10.00">pool &gt;::get_instance</text>
</a>
</g>
</g>
<!-- Node6&#45;&gt;Node7 -->
<g id="edge6_Node000006_Node000007" class="edge">
<title>Node6&#45;&gt;Node7</title>
<g id="a_edge6_Node000006_Node000007"><a xlink:title=" ">
<path fill="none" stroke="#63b8ff" d="M554.65,-44C562.51,-44 570.54,-44 578.46,-44"/>
<polygon fill="#63b8ff" stroke="#63b8ff" points="578.45,-47.5 588.45,-44 578.45,-40.5 578.45,-47.5"/>
</a>
</g>
</g>
<!-- Node8 -->
<g id="Node000008" class="node">
<title>Node8</title>
<g id="a_Node000008"><a xlink:href="classdepicture__menu_1_1singleton.html#a9aaa3a707bf7abdb4eb491037c31e16c" target="_top" xlink:title=" ">
<polygon fill="white" stroke="#666666" points="886.25,-66 756.25,-66 756.25,-22 886.25,-22 886.25,-66"/>
<text xml:space="preserve" text-anchor="start" x="764.25" y="-52.5" font-family="Helvetica,sans-Serif" font-size="10.00">depicture_menu::singleton</text>
<text xml:space="preserve" text-anchor="start" x="764.25" y="-40.5" font-family="Helvetica,sans-Serif" font-size="10.00">&lt; detail_applications::</text>
<text xml:space="preserve" text-anchor="middle" x="821.25" y="-28.5" font-family="Helvetica,sans-Serif" font-size="10.00">pool &gt;::create</text>
</a>
</g>
</g>
<!-- Node7&#45;&gt;Node8 -->
<g id="edge7_Node000007_Node000008" class="edge">
<title>Node7&#45;&gt;Node8</title>
<g id="a_edge7_Node000007_Node000008"><a xlink:title=" ">
<path fill="none" stroke="#63b8ff" d="M720.6,-44C728.46,-44 736.56,-44 744.58,-44"/>
<polygon fill="#63b8ff" stroke="#63b8ff" points="744.31,-47.5 754.31,-44 744.31,-40.5 744.31,-47.5"/>
</a>
</g>
</g>
<!-- Node9 -->
<g id="Node000009" class="node">
<title>Node9</title>
<g id="a_Node000009"><a xlink:href="structdepicture__menu_1_1detail_1_1singleton__finalizer.html#a350b38d28c26319fe9848a4c63602f3a" target="_top" xlink:title=" ">
<polygon fill="white" stroke="#666666" points="1044.38,-94 930.12,-94 930.12,-50 1044.38,-50 1044.38,-94"/>
<text xml:space="preserve" text-anchor="start" x="938.12" y="-80.5" font-family="Helvetica,sans-Serif" font-size="10.00">depicture_menu::detail</text>
<text xml:space="preserve" text-anchor="start" x="938.12" y="-68.5" font-family="Helvetica,sans-Serif" font-size="10.00">::singleton_finalizer</text>
<text xml:space="preserve" text-anchor="middle" x="987.25" y="-56.5" font-family="Helvetica,sans-Serif" font-size="10.00">::add_finalizer</text>
</a>
</g>
</g>
<!-- Node8&#45;&gt;Node9 -->
<g id="edge8_Node000008_Node000009" class="edge">
<title>Node8&#45;&gt;Node9</title>
<g id="a_edge8_Node000008_Node000009"><a xlink:title=" ">
<path fill="none" stroke="#63b8ff" d="M886.6,-54.99C897.07,-56.77 907.96,-58.63 918.51,-60.44"/>
<polygon fill="#63b8ff" stroke="#63b8ff" points="917.87,-63.88 928.31,-62.11 919.05,-56.98 917.87,-63.88"/>
</a>
</g>
</g>
<!-- Node10 -->
<g id="Node000010" class="node">
<title>Node10</title>
<g id="a_Node000010"><a xlink:href="classdepicture__menu_1_1singleton.html#a64280934d7ab4a2f91e1d5c88c28ac8a" target="_top" xlink:title=" ">
<polygon fill="white" stroke="#666666" points="1052.25,-32 922.25,-32 922.25,0 1052.25,0 1052.25,-32"/>
<text xml:space="preserve" text-anchor="start" x="930.25" y="-18.5" font-family="Helvetica,sans-Serif" font-size="10.00">depicture_menu::singleton</text>
<text xml:space="preserve" text-anchor="middle" x="987.25" y="-6.5" font-family="Helvetica,sans-Serif" font-size="10.00">::destroy</text>
</a>
</g>
</g>
<!-- Node8&#45;&gt;Node10 -->
<g id="edge9_Node000008_Node000010" class="edge">
<title>Node8&#45;&gt;Node10</title>
<g id="a_edge9_Node000008_Node000010"><a xlink:title=" ">
<path fill="none" stroke="#63b8ff" d="M886.6,-33.01C894.46,-31.67 902.56,-30.29 910.58,-28.92"/>
<polygon fill="#63b8ff" stroke="#63b8ff" points="911.06,-32.39 920.33,-27.25 909.88,-25.49 911.06,-32.39"/>
</a>
</g>
</g>
</g>
</svg>
