<?xml version="1.0" encoding="UTF-8" standalone="no"?>
<!DOCTYPE svg PUBLIC "-//W3C//DTD SVG 1.1//EN"
 "http://www.w3.org/Graphics/SVG/1.1/DTD/svg11.dtd">
<!-- Generated by graphviz version 14.1.2 (20260124.0452)
 -->
<!-- Title: depicture_menu::singleton::create Pages: 1 -->
<svg width="304pt" height="102pt"
 viewBox="0.00 0.00 304.00 102.00" xmlns="http://www.w3.org/2000/svg" xmlns:xlink="http://www.w3.org/1999/xlink">
<g id="graph0" class="graph" transform="scale(1 1) rotate(0) translate(4 98)">
<title>depicture_menu::singleton::create</title>
<!-- Node1 -->
<g id="Node000001" class="node">
<title>Node1</title>
<g id="a_Node000001"><a xlink:title=" ">
<polygon fill="#999999" stroke="#666666" points="130,-60 0,-60 0,-28 130,-28 130,-60"/>
<text xml:space="preserve" text-anchor="start" x="8" y="-46.5" font-family="Helvetica,sans-Serif" font-size="10.00">depicture_menu::singleton</text>
<text xml:space="preserve" text-anchor="middle" x="65" y="-34.5" font-family="Helvetica,sans-Serif" font-size="10.00">::create</text>
</a>
</g>
</g>
<!-- Node2 -->
<g id="Node000002" class="node">
<title>Node2</title>
<g id="a_Node000002"><a xlink:href="structdepicture__menu_1_1detail_1_1singleton__finalizer.html#a350b38d28c26319fe9848a4c63602f3a" target="_top" xlink:title=" ">
<polygon fill="white" stroke="#666666" points="288.12,-94 173.88,-94 173.88,-50 288.12,-50 288.12,-94"/>
<text xml:space="preserve" text-anchor="start" x="181.88" y="-80.5" font-family="Helvetica,sans-Serif" font-size="10.00">depicture_menu::detail</text>
<text xml:space="preserve" text-anchor="start" x="181.88" y="-68.5" font-family="Helvetica,sans-Serif" font-size="10.00">::singleton_finalizer</text>
<text xml:space="preserve" text-anchor="middle" x="231" y="-56.5" font-family="Helvetica,sans-Serif" font-size="10.00">::add_finalizer</text>
</a>
</g>
</g>
<!-- Node1&#45;&gt;Node2 -->
<g id="edge1_Node000001_Node000002" class="edge">
<title>Node1&#45;&gt;Node2</title>
<g id="a_edge1_Node000001_Node000002"><a xlink:title=" ">
<path fill="none" stroke="#63b8ff" d="M130.35,-54.99C140.82,-56.77 151.71,-58.63 162.26,-60.44"/>
<polygon fill="#63b8ff" stroke="#63b8ff" points="161.62,-63.88 172.06,-62.11 162.8,-56.98 161.62,-63.88"/>
</a>
</g>
</g>
<!-- Node3 -->
<g id="Node000003" class="node">
<title>Node3</title>
<g id="a_Node000003"><a xlink:href="classdepicture__menu_1_1singleton.html#a64280934d7ab4a2f91e1d5c88c28ac8a" target="_top" xlink:title=" ">
<polygon fill="white" stroke="#666666" points="296,-32 166,-32 166,0 296,0 296,-32"/>
<text xml:space="preserve" text-anchor="start" x="174" y="-18.5" font-family="Helvetica,sans-Serif" font-size="10.00">depicture_menu::singleton</text>
<text xml:space="preserve" text-anchor="middle" x="231" y="-6.5" font-family="Helvetica,sans-Serif" font-size="10.00">::destroy</text>
</a>
</g>
</g>
<!-- Node1&#45;&gt;Node3 -->
<g id="edge2_Node000001_Node000003" class="edge">
<title>Node1&#45;&gt;Node3</title>
<g id="a_edge2_Node000001_Node000003"><a xlink:title=" ">
<path fill="none" stroke="#63b8ff" d="M130.35,-33.01C138.21,-31.67 146.31,-30.29 154.33,-28.92"/>
<polygon fill="#63b8ff" stroke="#63b8ff" points="154.81,-32.39 164.08,-27.25 153.63,-25.49 154.81,-32.39"/>
</a>
</g>
</g>
</g>
</svg>
