<?xml version="1.0" encoding="UTF-8" standalone="no"?>
<!DOCTYPE svg PUBLIC "-//W3C//DTD SVG 1.1//EN"
 "http://www.w3.org/Graphics/SVG/1.1/DTD/svg11.dtd">
<!-- Generated by graphviz version 14.1.2 (20260124.0452)
 -->
<!-- Title: depicture_menu::domain::commands::command::build_parameter_pack_by_tuple Pages: 1 -->
<svg width="363pt" height="214pt"
 viewBox="0.00 0.00 363.00 214.00" xmlns="http://www.w3.org/2000/svg" xmlns:xlink="http://www.w3.org/1999/xlink">
<g id="graph0" class="graph" transform="scale(1 1) rotate(0) translate(4 210)">
<title>depicture_menu::domain::commands::command::build_parameter_pack_by_tuple</title>
<!-- Node1 -->
<g id="Node000001" class="node">
<title>Node1</title>
<g id="a_Node000001"><a xlink:title=" ">
<polygon fill="#999999" stroke="#666666" points="145,-122 0,-122 0,-78 145,-78 145,-122"/>
<text xml:space="preserve" text-anchor="start" x="8" y="-108.5" font-family="Helvetica,sans-Serif" font-size="10.00">depicture_menu::domain</text>
<text xml:space="preserve" text-anchor="start" x="8" y="-96.5" font-family="Helvetica,sans-Serif" font-size="10.00">::commands::command::build</text>
<text xml:space="preserve" text-anchor="middle" x="72.5" y="-84.5" font-family="Helvetica,sans-Serif" font-size="10.00">_parameter_pack_by_tuple</text>
</a>
</g>
</g>
<!-- Node2 -->
<g id="Node000002" class="node">
<title>Node2</title>
<g id="a_Node000002"><a xlink:href="classdepicture__menu_1_1domain_1_1commands_1_1parameters__define.html#a3a957c9ec063f166cd6b9fe884beadaa" target="_top" xlink:title=" ">
<polygon fill="white" stroke="#666666" points="330.12,-206 205.38,-206 205.38,-162 330.12,-162 330.12,-206"/>
<text xml:space="preserve" text-anchor="start" x="213.38" y="-192.5" font-family="Helvetica,sans-Serif" font-size="10.00">depicture_menu::domain</text>
<text xml:space="preserve" text-anchor="start" x="213.38" y="-180.5" font-family="Helvetica,sans-Serif" font-size="10.00">::commands::parameters</text>
<text xml:space="preserve" text-anchor="middle" x="267.75" y="-168.5" font-family="Helvetica,sans-Serif" font-size="10.00">_define::begin</text>
</a>
</g>
</g>
<!-- Node1&#45;&gt;Node2 -->
<g id="edge1_Node000001_Node000002" class="edge">
<title>Node1&#45;&gt;Node2</title>
<g id="a_edge1_Node000001_Node000002"><a xlink:title=" ">
<path fill="none" stroke="#63b8ff" d="M116.15,-122.38C135.68,-132.28 159.27,-143.75 181,-153 185.34,-154.85 189.84,-156.69 194.39,-158.49"/>
<polygon fill="#63b8ff" stroke="#63b8ff" points="193.07,-161.73 203.66,-162.09 195.6,-155.21 193.07,-161.73"/>
</a>
</g>
</g>
<!-- Node3 -->
<g id="Node000003" class="node">
<title>Node3</title>
<g id="a_Node000003"><a xlink:href="namespacedepicture__menu_1_1domain_1_1commands.html#ada3233a4e737ff1782b9e6c0901b6caa" target="_top" xlink:title=" ">
<polygon fill="white" stroke="#666666" points="354.5,-144 181,-144 181,-112 354.5,-112 354.5,-144"/>
<text xml:space="preserve" text-anchor="start" x="189" y="-130.5" font-family="Helvetica,sans-Serif" font-size="10.00">depicture_menu::domain</text>
<text xml:space="preserve" text-anchor="middle" x="267.75" y="-118.5" font-family="Helvetica,sans-Serif" font-size="10.00">::commands::build_parameter_value</text>
</a>
</g>
</g>
<!-- Node1&#45;&gt;Node3 -->
<g id="edge2_Node000001_Node000003" class="edge">
<title>Node1&#45;&gt;Node3</title>
<g id="a_edge2_Node000001_Node000003"><a xlink:title=" ">
<path fill="none" stroke="#63b8ff" d="M145.46,-110.43C153.26,-111.56 161.3,-112.72 169.34,-113.89"/>
<polygon fill="#63b8ff" stroke="#63b8ff" points="168.79,-117.34 179.19,-115.31 169.8,-110.42 168.79,-117.34"/>
</a>
</g>
</g>
<!-- Node4 -->
<g id="Node000004" class="node">
<title>Node4</title>
<g id="a_Node000004"><a xlink:href="classdepicture__menu_1_1domain_1_1commands_1_1parameters__define.html#ac0d5b69a219145fe840a0b3abc2d3dae" target="_top" xlink:title=" ">
<polygon fill="white" stroke="#666666" points="330.12,-94 205.38,-94 205.38,-50 330.12,-50 330.12,-94"/>
<text xml:space="preserve" text-anchor="start" x="213.38" y="-80.5" font-family="Helvetica,sans-Serif" font-size="10.00">depicture_menu::domain</text>
<text xml:space="preserve" text-anchor="start" x="213.38" y="-68.5" font-family="Helvetica,sans-Serif" font-size="10.00">::commands::parameters</text>
<text xml:space="preserve" text-anchor="middle" x="267.75" y="-56.5" font-family="Helvetica,sans-Serif" font-size="10.00">_define::end</text>
</a>
</g>
</g>
<!-- Node1&#45;&gt;Node4 -->
<g id="edge3_Node000001_Node000004" class="edge">
<title>Node1&#45;&gt;Node4</title>
<g id="a_edge3_Node000001_Node000004"><a xlink:title=" ">
<path fill="none" stroke="#63b8ff" d="M145.46,-89.57C161.18,-87.3 177.82,-84.88 193.59,-82.6"/>
<polygon fill="#63b8ff" stroke="#63b8ff" points="193.99,-86.08 203.38,-81.18 192.99,-79.15 193.99,-86.08"/>
</a>
</g>
</g>
<!-- Node5 -->
<g id="Node000005" class="node">
<title>Node5</title>
<g id="a_Node000005"><a xlink:href="classdepicture__menu_1_1domain_1_1commands_1_1command.html#a478e83fd84f47e84cd710c6c91ea242e" target="_top" xlink:title=" ">
<polygon fill="white" stroke="#666666" points="352.25,-32 183.25,-32 183.25,0 352.25,0 352.25,-32"/>
<text xml:space="preserve" text-anchor="start" x="191.25" y="-18.5" font-family="Helvetica,sans-Serif" font-size="10.00">depicture_menu::domain</text>
<text xml:space="preserve" text-anchor="middle" x="267.75" y="-6.5" font-family="Helvetica,sans-Serif" font-size="10.00">::commands::command::invoker_id</text>
</a>
</g>
</g>
<!-- Node1&#45;&gt;Node5 -->
<g id="edge4_Node000001_Node000005" class="edge">
<title>Node1&#45;&gt;Node5</title>
<g id="a_edge4_Node000001_Node000005"><a xlink:title=" ">
<path fill="none" stroke="#63b8ff" d="M109.34,-77.75C129.79,-65.72 156.22,-51.27 181,-41 185.07,-39.31 189.3,-37.69 193.6,-36.14"/>
<polygon fill="#63b8ff" stroke="#63b8ff" points="194.61,-39.49 202.94,-32.94 192.34,-32.87 194.61,-39.49"/>
</a>
</g>
</g>
</g>
</svg>
