<?xml version="1.0" encoding="UTF-8" standalone="no"?>
<!DOCTYPE svg PUBLIC "-//W3C//DTD SVG 1.1//EN"
 "http://www.w3.org/Graphics/SVG/1.1/DTD/svg11.dtd">
<!-- Generated by graphviz version 14.1.2 (20260124.0452)
 -->
<!-- Title: entity::get_storage Pages: 1 -->
<svg width="288pt" height="66pt"
 viewBox="0.00 0.00 288.00 66.00" xmlns="http://www.w3.org/2000/svg" xmlns:xlink="http://www.w3.org/1999/xlink">
<g id="graph0" class="graph" transform="scale(1 1) rotate(0) translate(4 62)">
<title>entity::get_storage</title>
<!-- Node1 -->
<g id="Node000001" class="node">
<title>Node1</title>
<g id="a_Node000001"><a xlink:title=" ">
<polygon fill="#999999" stroke="#666666" points="280.25,-39 183.25,-39 183.25,-19 280.25,-19 280.25,-39"/>
<text xml:space="preserve" text-anchor="middle" x="231.75" y="-25.5" font-family="Helvetica,sans-Serif" font-size="10.00">entity::get_storage</text>
</a>
</g>
</g>
<!-- Node2 -->
<g id="Node000002" class="node">
<title>Node2</title>
<g id="a_Node000002"><a xlink:href="_test_conv_mapping_8cpp.html#a899f8114ccceba915b62ca9a539a6885" target="_top" xlink:title=" ">
<polygon fill="white" stroke="#666666" points="147.25,-58 0,-58 0,-38 147.25,-38 147.25,-58"/>
<text xml:space="preserve" text-anchor="middle" x="73.62" y="-44.5" font-family="Helvetica,sans-Serif" font-size="10.00">BOOST_AUTO_TEST_CASE</text>
</a>
</g>
</g>
<!-- Node1&#45;&gt;Node2 -->
<g id="edge1_Node000001_Node000002" class="edge">
<title>Node1&#45;&gt;Node2</title>
<g id="a_edge1_Node000001_Node000002"><a xlink:title=" ">
<path fill="none" stroke="#63b8ff" d="M171.75,-36.18C163.86,-37.14 155.7,-38.13 147.61,-39.12"/>
<polygon fill="#63b8ff" stroke="#63b8ff" points="172.05,-39.67 181.56,-34.99 171.21,-32.72 172.05,-39.67"/>
</a>
</g>
</g>
<!-- Node3 -->
<g id="Node000003" class="node">
<title>Node3</title>
<g id="a_Node000003"><a xlink:href="_test_conv_mapping_8cpp.html#a32000ed6a62b27e1025e77b07658b1f3" target="_top" xlink:title=" ">
<polygon fill="white" stroke="#666666" points="147.25,-20 0,-20 0,0 147.25,0 147.25,-20"/>
<text xml:space="preserve" text-anchor="middle" x="73.62" y="-6.5" font-family="Helvetica,sans-Serif" font-size="10.00">BOOST_AUTO_TEST_CASE</text>
</a>
</g>
</g>
<!-- Node1&#45;&gt;Node3 -->
<g id="edge2_Node000001_Node000003" class="edge">
<title>Node1&#45;&gt;Node3</title>
<g id="a_edge2_Node000001_Node000003"><a xlink:title=" ">
<path fill="none" stroke="#63b8ff" d="M171.75,-21.82C163.86,-20.86 155.7,-19.87 147.61,-18.88"/>
<polygon fill="#63b8ff" stroke="#63b8ff" points="171.21,-25.28 181.56,-23.01 172.05,-18.33 171.21,-25.28"/>
</a>
</g>
</g>
</g>
</svg>
