<?xml version="1.0" encoding="UTF-8" standalone="no"?>
<!DOCTYPE svg PUBLIC "-//W3C//DTD SVG 1.1//EN"
 "http://www.w3.org/Graphics/SVG/1.1/DTD/svg11.dtd">
<!-- Generated by graphviz version 14.1.2 (20260124.0452)
 -->
<!-- Title: depicture_menu::domain::actions::v2::publisher::name Pages: 1 -->
<svg width="564pt" height="380pt"
 viewBox="0.00 0.00 564.00 380.00" xmlns="http://www.w3.org/2000/svg" xmlns:xlink="http://www.w3.org/1999/xlink">
<g id="graph0" class="graph" transform="scale(1 1) rotate(0) translate(4 376)">
<title>depicture_menu::domain::actions::v2::publisher::name</title>
<!-- Node1 -->
<g id="Node000001" class="node">
<title>Node1</title>
<g id="a_Node000001"><a xlink:title=" ">
<polygon fill="#999999" stroke="#666666" points="555.75,-202 410.75,-202 410.75,-170 555.75,-170 555.75,-202"/>
<text xml:space="preserve" text-anchor="start" x="418.75" y="-188.5" font-family="Helvetica,sans-Serif" font-size="10.00">depicture_menu::domain</text>
<text xml:space="preserve" text-anchor="middle" x="483.25" y="-176.5" font-family="Helvetica,sans-Serif" font-size="10.00">::actions::v2::publisher::name</text>
</a>
</g>
</g>
<!-- Node2 -->
<g id="Node000002" class="node">
<title>Node2</title>
<g id="a_Node000002"><a xlink:href="structdepicture__menu_1_1cs__binding_1_1build__query_1_1actions__query__builder.html#af723fba412b4abc042ec898fc5db2ae8" target="_top" xlink:title=" ">
<polygon fill="white" stroke="#666666" points="349.25,-372 232.75,-372 232.75,-316 349.25,-316 349.25,-372"/>
<text xml:space="preserve" text-anchor="start" x="240.75" y="-358.5" font-family="Helvetica,sans-Serif" font-size="10.00">depicture_menu::cs</text>
<text xml:space="preserve" text-anchor="start" x="240.75" y="-346.5" font-family="Helvetica,sans-Serif" font-size="10.00">_binding::build_query</text>
<text xml:space="preserve" text-anchor="start" x="240.75" y="-334.5" font-family="Helvetica,sans-Serif" font-size="10.00">::actions_query_builder</text>
<text xml:space="preserve" text-anchor="middle" x="291" y="-322.5" font-family="Helvetica,sans-Serif" font-size="10.00">::add_action</text>
</a>
</g>
</g>
<!-- Node1&#45;&gt;Node2 -->
<g id="edge1_Node000001_Node000002" class="edge">
<title>Node1&#45;&gt;Node2</title>
<g id="a_edge1_Node000001_Node000002"><a xlink:title=" ">
<path fill="none" stroke="#63b8ff" d="M464.62,-211.59C445.17,-238.28 411.69,-279.93 374.75,-307 367.01,-312.67 358.26,-317.75 349.42,-322.18"/>
<polygon fill="#63b8ff" stroke="#63b8ff" points="467.28,-213.89 470.25,-203.72 461.58,-209.82 467.28,-213.89"/>
</a>
</g>
</g>
<!-- Node3 -->
<g id="Node000003" class="node">
<title>Node3</title>
<g id="a_Node000003"><a xlink:href="namespacedepicture__menu_1_1cs__binding.html#aeab9bc695acb67ff4716c316f6973290" target="_top" xlink:title=" ">
<polygon fill="white" stroke="#666666" points="356.75,-298 225.25,-298 225.25,-266 356.75,-266 356.75,-298"/>
<text xml:space="preserve" text-anchor="start" x="233.25" y="-284.5" font-family="Helvetica,sans-Serif" font-size="10.00">depicture_menu::cs</text>
<text xml:space="preserve" text-anchor="middle" x="291" y="-272.5" font-family="Helvetica,sans-Serif" font-size="10.00">_binding::apply_config_arg</text>
</a>
</g>
</g>
<!-- Node1&#45;&gt;Node3 -->
<g id="edge2_Node000001_Node000003" class="edge">
<title>Node1&#45;&gt;Node3</title>
<g id="a_edge2_Node000001_Node000003"><a xlink:title=" ">
<path fill="none" stroke="#63b8ff" d="M452.54,-209.03C431.7,-224.32 402.67,-243.9 374.75,-257 368.09,-260.12 360.95,-262.97 353.76,-265.52"/>
<polygon fill="#63b8ff" stroke="#63b8ff" points="454.37,-212.04 460.3,-203.26 450.19,-206.42 454.37,-212.04"/>
</a>
</g>
</g>
<!-- Node4 -->
<g id="Node000004" class="node">
<title>Node4</title>
<g id="a_Node000004"><a xlink:href="classdepicture__menu_1_1domain_1_1services_1_1common__action__builder.html#aa670bccd31eab4473fa4bf345cd44ff4" target="_top" xlink:title=" ">
<polygon fill="white" stroke="#666666" points="357.88,-248 224.12,-248 224.12,-192 357.88,-192 357.88,-248"/>
<text xml:space="preserve" text-anchor="start" x="232.12" y="-234.5" font-family="Helvetica,sans-Serif" font-size="10.00">depicture_menu::domain</text>
<text xml:space="preserve" text-anchor="start" x="232.12" y="-222.5" font-family="Helvetica,sans-Serif" font-size="10.00">::services::common_action</text>
<text xml:space="preserve" text-anchor="start" x="232.12" y="-210.5" font-family="Helvetica,sans-Serif" font-size="10.00">_builder::build_open_sub</text>
<text xml:space="preserve" text-anchor="middle" x="291" y="-198.5" font-family="Helvetica,sans-Serif" font-size="10.00">_menu_action</text>
</a>
</g>
</g>
<!-- Node1&#45;&gt;Node4 -->
<g id="edge3_Node000001_Node000004" class="edge">
<title>Node1&#45;&gt;Node4</title>
<g id="a_edge3_Node000001_Node000004"><a xlink:title=" ">
<path fill="none" stroke="#63b8ff" d="M399.35,-200.82C385.54,-203.28 371.39,-205.81 358.08,-208.19"/>
<polygon fill="#63b8ff" stroke="#63b8ff" points="399.61,-204.32 408.83,-199.12 398.37,-197.43 399.61,-204.32"/>
</a>
</g>
</g>
<!-- Node5 -->
<g id="Node000005" class="node">
<title>Node5</title>
<g id="a_Node000005"><a xlink:href="classdepicture__menu_1_1domain_1_1services_1_1common__action__builder.html#a084ac593bb69490503932bc699ad5f51" target="_top" xlink:title=" ">
<polygon fill="white" stroke="#666666" points="374.75,-174 207.25,-174 207.25,-130 374.75,-130 374.75,-174"/>
<text xml:space="preserve" text-anchor="start" x="215.25" y="-160.5" font-family="Helvetica,sans-Serif" font-size="10.00">depicture_menu::domain</text>
<text xml:space="preserve" text-anchor="start" x="215.25" y="-148.5" font-family="Helvetica,sans-Serif" font-size="10.00">::services::common_action</text>
<text xml:space="preserve" text-anchor="middle" x="291" y="-136.5" font-family="Helvetica,sans-Serif" font-size="10.00">_builder::build_shellexecute_action</text>
</a>
</g>
</g>
<!-- Node1&#45;&gt;Node5 -->
<g id="edge4_Node000001_Node000005" class="edge">
<title>Node1&#45;&gt;Node5</title>
<g id="a_edge4_Node000001_Node000005"><a xlink:title=" ">
<path fill="none" stroke="#63b8ff" d="M399.18,-171.15C391.23,-169.73 383.16,-168.29 375.2,-166.87"/>
<polygon fill="#63b8ff" stroke="#63b8ff" points="398.37,-174.57 408.83,-172.88 399.61,-167.68 398.37,-174.57"/>
</a>
</g>
</g>
<!-- Node6 -->
<g id="Node000006" class="node">
<title>Node6</title>
<g id="a_Node000006"><a xlink:href="namespacedepicture__menu_1_1presentations_1_1view__models_1_1operations_1_1detail__operations__action.html#a1d0e0d0641199e96ace2af7198f85f79" target="_top" xlink:title=" ">
<polygon fill="white" stroke="#666666" points="372.12,-112 209.88,-112 209.88,-68 372.12,-68 372.12,-112"/>
<text xml:space="preserve" text-anchor="start" x="217.88" y="-98.5" font-family="Helvetica,sans-Serif" font-size="10.00">depicture_menu::presentations</text>
<text xml:space="preserve" text-anchor="start" x="217.88" y="-86.5" font-family="Helvetica,sans-Serif" font-size="10.00">::view_models::operations</text>
<text xml:space="preserve" text-anchor="middle" x="291" y="-74.5" font-family="Helvetica,sans-Serif" font-size="10.00">::detail_operations_action::update</text>
</a>
</g>
</g>
<!-- Node1&#45;&gt;Node6 -->
<g id="edge5_Node000001_Node000006" class="edge">
<title>Node1&#45;&gt;Node6</title>
<g id="a_edge5_Node000001_Node000006"><a xlink:title=" ">
<path fill="none" stroke="#63b8ff" d="M448.6,-163.44C427.85,-150.09 400.39,-133.42 374.75,-121 368.54,-117.99 361.95,-115.08 355.32,-112.33"/>
<polygon fill="#63b8ff" stroke="#63b8ff" points="446.65,-166.34 456.94,-168.86 450.47,-160.48 446.65,-166.34"/>
</a>
</g>
</g>
<!-- Node9 -->
<g id="Node000009" class="node">
<title>Node9</title>
<g id="a_Node000009"><a xlink:href="classdepicture__menu_1_1domain_1_1actions_1_1v2_1_1publisher.html#a882bc16cc29faa92dd9773dc3fbcdfbb" target="_top" xlink:title=" ">
<polygon fill="white" stroke="#666666" points="352.25,-47 229.75,-47 229.75,-3 352.25,-3 352.25,-47"/>
<text xml:space="preserve" text-anchor="start" x="237.75" y="-33.5" font-family="Helvetica,sans-Serif" font-size="10.00">depicture_menu::domain</text>
<text xml:space="preserve" text-anchor="start" x="237.75" y="-21.5" font-family="Helvetica,sans-Serif" font-size="10.00">::actions::v2::publisher</text>
<text xml:space="preserve" text-anchor="middle" x="291" y="-9.5" font-family="Helvetica,sans-Serif" font-size="10.00">::update_default_name</text>
</a>
</g>
</g>
<!-- Node1&#45;&gt;Node9 -->
<g id="edge8_Node000001_Node000009" class="edge">
<title>Node1&#45;&gt;Node9</title>
<g id="a_edge8_Node000001_Node000009"><a xlink:title=" ">
<path fill="none" stroke="#63b8ff" d="M465.99,-160.23C447.07,-132.05 413.44,-87.16 374.75,-59 367.97,-54.06 360.37,-49.7 352.59,-45.88"/>
<polygon fill="#63b8ff" stroke="#63b8ff" points="463.03,-162.1 471.45,-168.53 468.88,-158.25 463.03,-162.1"/>
</a>
</g>
</g>
<!-- Node7 -->
<g id="Node000007" class="node">
<title>Node7</title>
<g id="a_Node000007"><a xlink:href="structdepicture__menu_1_1presentations_1_1view__models_1_1operations_1_1detail__operations__acti343e6f96188f55e3cc7ad21fad829f4e.html#a3319bdd5d22b89d3e48ece4775be261b" target="_top" xlink:title=" ">
<polygon fill="white" stroke="#666666" points="171.25,-192 0,-192 0,-136 171.25,-136 171.25,-192"/>
<text xml:space="preserve" text-anchor="start" x="8" y="-178.5" font-family="Helvetica,sans-Serif" font-size="10.00">depicture_menu::presentations</text>
<text xml:space="preserve" text-anchor="start" x="8" y="-166.5" font-family="Helvetica,sans-Serif" font-size="10.00">::view_models::operations</text>
<text xml:space="preserve" text-anchor="start" x="8" y="-154.5" font-family="Helvetica,sans-Serif" font-size="10.00">::detail_operations_action</text>
<text xml:space="preserve" text-anchor="middle" x="85.62" y="-142.5" font-family="Helvetica,sans-Serif" font-size="10.00">::action_create_operator_impl::sync</text>
</a>
</g>
</g>
<!-- Node6&#45;&gt;Node7 -->
<g id="edge6_Node000006_Node000007" class="edge">
<title>Node6&#45;&gt;Node7</title>
<g id="a_edge6_Node000006_Node000007"><a xlink:title=" ">
<path fill="none" stroke="#63b8ff" d="M217.92,-116.23C200.76,-122.47 182.36,-129.16 164.94,-135.51"/>
<polygon fill="#63b8ff" stroke="#63b8ff" points="218.81,-119.63 227.01,-112.92 216.41,-113.05 218.81,-119.63"/>
</a>
</g>
</g>
<!-- Node8 -->
<g id="Node000008" class="node">
<title>Node8</title>
<g id="a_Node000008"><a xlink:href="structdepicture__menu_1_1presentations_1_1view__models_1_1operations_1_1detail__operations__action_1_1action__operator__impl.html#a4d4089bd14420aedfe167dc3516668ad" target="_top" xlink:title=" ">
<polygon fill="white" stroke="#666666" points="160.38,-118 10.88,-118 10.88,-62 160.38,-62 160.38,-118"/>
<text xml:space="preserve" text-anchor="start" x="18.88" y="-104.5" font-family="Helvetica,sans-Serif" font-size="10.00">depicture_menu::presentations</text>
<text xml:space="preserve" text-anchor="start" x="18.88" y="-92.5" font-family="Helvetica,sans-Serif" font-size="10.00">::view_models::operations</text>
<text xml:space="preserve" text-anchor="start" x="18.88" y="-80.5" font-family="Helvetica,sans-Serif" font-size="10.00">::detail_operations_action</text>
<text xml:space="preserve" text-anchor="middle" x="85.62" y="-68.5" font-family="Helvetica,sans-Serif" font-size="10.00">::action_operator_impl::sync</text>
</a>
</g>
</g>
<!-- Node6&#45;&gt;Node8 -->
<g id="edge7_Node000006_Node000008" class="edge">
<title>Node6&#45;&gt;Node8</title>
<g id="a_edge7_Node000006_Node000008"><a xlink:title=" ">
<path fill="none" stroke="#63b8ff" d="M198.2,-90C185.68,-90 172.96,-90 160.8,-90"/>
<polygon fill="#63b8ff" stroke="#63b8ff" points="198.11,-93.5 208.11,-90 198.11,-86.5 198.11,-93.5"/>
</a>
</g>
</g>
<!-- Node10 -->
<g id="Node000010" class="node">
<title>Node10</title>
<g id="a_Node000010"><a xlink:href="classdepicture__menu_1_1domain_1_1services_1_1action__default__name__update__service.html#a75cd8d7140dc2d452394fdf4aae7806a" target="_top" xlink:title=" ">
<polygon fill="white" stroke="#666666" points="161.5,-44 9.75,-44 9.75,0 161.5,0 161.5,-44"/>
<text xml:space="preserve" text-anchor="start" x="17.75" y="-30.5" font-family="Helvetica,sans-Serif" font-size="10.00">depicture_menu::domain</text>
<text xml:space="preserve" text-anchor="start" x="17.75" y="-18.5" font-family="Helvetica,sans-Serif" font-size="10.00">::services::action_default</text>
<text xml:space="preserve" text-anchor="middle" x="85.62" y="-6.5" font-family="Helvetica,sans-Serif" font-size="10.00">_name_update_service::update</text>
</a>
</g>
</g>
<!-- Node9&#45;&gt;Node10 -->
<g id="edge9_Node000009_Node000010" class="edge">
<title>Node9&#45;&gt;Node10</title>
<g id="a_edge9_Node000009_Node000010"><a xlink:title=" ">
<path fill="none" stroke="#63b8ff" d="M217.85,-23.94C199.68,-23.67 180.13,-23.38 161.82,-23.11"/>
<polygon fill="#63b8ff" stroke="#63b8ff" points="217.69,-27.43 227.74,-24.08 217.8,-20.43 217.69,-27.43"/>
</a>
</g>
</g>
</g>
</svg>
