<?xml version="1.0" encoding="UTF-8" standalone="no"?>
<!DOCTYPE svg PUBLIC "-//W3C//DTD SVG 1.1//EN"
 "http://www.w3.org/Graphics/SVG/1.1/DTD/svg11.dtd">
<!-- Generated by graphviz version 14.1.2 (20260124.0452)
 -->
<!-- Title: depicture_menu::domain::app::config::set_default_menu_color Pages: 1 -->
<svg width="479pt" height="170pt"
 viewBox="0.00 0.00 479.00 170.00" xmlns="http://www.w3.org/2000/svg" xmlns:xlink="http://www.w3.org/1999/xlink">
<g id="graph0" class="graph" transform="scale(1 1) rotate(0) translate(4 166)">
<title>depicture_menu::domain::app::config::set_default_menu_color</title>
<!-- Node1 -->
<g id="Node000001" class="node">
<title>Node1</title>
<g id="a_Node000001"><a xlink:title=" ">
<polygon fill="#999999" stroke="#666666" points="471,-93 347,-93 347,-49 471,-49 471,-93"/>
<text xml:space="preserve" text-anchor="start" x="355" y="-79.5" font-family="Helvetica,sans-Serif" font-size="10.00">depicture_menu::domain</text>
<text xml:space="preserve" text-anchor="start" x="355" y="-67.5" font-family="Helvetica,sans-Serif" font-size="10.00">::app::config::set_default</text>
<text xml:space="preserve" text-anchor="middle" x="409" y="-55.5" font-family="Helvetica,sans-Serif" font-size="10.00">_menu_color</text>
</a>
</g>
</g>
<!-- Node2 -->
<g id="Node000002" class="node">
<title>Node2</title>
<g id="a_Node000002"><a xlink:href="namespacedepicture__menu_1_1usecase_1_1backup.html#abdcff53881bb37c6cd4cce8bd8385973" target="_top" xlink:title=" ">
<polygon fill="white" stroke="#666666" points="311,-136 183.25,-136 183.25,-92 311,-92 311,-136"/>
<text xml:space="preserve" text-anchor="start" x="191.25" y="-122.5" font-family="Helvetica,sans-Serif" font-size="10.00">depicture_menu::usecase</text>
<text xml:space="preserve" text-anchor="start" x="191.25" y="-110.5" font-family="Helvetica,sans-Serif" font-size="10.00">::backup::create_config</text>
<text xml:space="preserve" text-anchor="middle" x="247.12" y="-98.5" font-family="Helvetica,sans-Serif" font-size="10.00">_entity</text>
</a>
</g>
</g>
<!-- Node1&#45;&gt;Node2 -->
<g id="edge1_Node000001_Node000002" class="edge">
<title>Node1&#45;&gt;Node2</title>
<g id="a_edge1_Node000001_Node000002"><a xlink:title=" ">
<path fill="none" stroke="#63b8ff" d="M335.7,-90.45C327.61,-92.62 319.4,-94.83 311.43,-96.97"/>
<polygon fill="#63b8ff" stroke="#63b8ff" points="336.44,-93.87 345.18,-87.9 334.62,-87.11 336.44,-93.87"/>
</a>
</g>
</g>
<!-- Node5 -->
<g id="Node000005" class="node">
<title>Node5</title>
<g id="a_Node000005"><a xlink:href="namespacedepicture__menu_1_1usecase_1_1detail__usecase__change__default__menu__config.html#a6ca09f3a98f26dc6655842ff0476ca5d" target="_top" xlink:title=" ">
<polygon fill="white" stroke="#666666" points="311,-56 183.25,-56 183.25,0 311,0 311,-56"/>
<text xml:space="preserve" text-anchor="start" x="191.25" y="-42.5" font-family="Helvetica,sans-Serif" font-size="10.00">depicture_menu::usecase</text>
<text xml:space="preserve" text-anchor="start" x="191.25" y="-30.5" font-family="Helvetica,sans-Serif" font-size="10.00">::detail_usecase_change</text>
<text xml:space="preserve" text-anchor="start" x="191.25" y="-18.5" font-family="Helvetica,sans-Serif" font-size="10.00">_default_menu_config::do</text>
<text xml:space="preserve" text-anchor="middle" x="247.12" y="-6.5" font-family="Helvetica,sans-Serif" font-size="10.00">_transaction</text>
</a>
</g>
</g>
<!-- Node1&#45;&gt;Node5 -->
<g id="edge4_Node000001_Node000005" class="edge">
<title>Node1&#45;&gt;Node5</title>
<g id="a_edge4_Node000001_Node000005"><a xlink:title=" ">
<path fill="none" stroke="#63b8ff" d="M335.7,-51.55C327.61,-49.38 319.4,-47.17 311.43,-45.03"/>
<polygon fill="#63b8ff" stroke="#63b8ff" points="334.62,-54.89 345.18,-54.1 336.44,-48.13 334.62,-54.89"/>
</a>
</g>
</g>
<!-- Node3 -->
<g id="Node000003" class="node">
<title>Node3</title>
<g id="a_Node000003"><a xlink:href="_test_export_backup__config_8cpp.html#a5fe0ff451c75fb43e58d6e57c4b65750" target="_top" xlink:title=" ">
<polygon fill="white" stroke="#666666" points="147.25,-162 0,-162 0,-142 147.25,-142 147.25,-162"/>
<text xml:space="preserve" text-anchor="middle" x="73.62" y="-148.5" font-family="Helvetica,sans-Serif" font-size="10.00">BOOST_AUTO_TEST_CASE</text>
</a>
</g>
</g>
<!-- Node2&#45;&gt;Node3 -->
<g id="edge2_Node000002_Node000003" class="edge">
<title>Node2&#45;&gt;Node3</title>
<g id="a_edge2_Node000002_Node000003"><a xlink:title=" ">
<path fill="none" stroke="#63b8ff" d="M171.76,-130.48C154.85,-134.22 137.34,-138.1 121.92,-141.52"/>
<polygon fill="#63b8ff" stroke="#63b8ff" points="172.27,-133.95 181.27,-128.37 170.75,-127.12 172.27,-133.95"/>
</a>
</g>
</g>
<!-- Node4 -->
<g id="Node000004" class="node">
<title>Node4</title>
<g id="a_Node000004"><a xlink:href="classdepicture__menu_1_1usecase_1_1backup_1_1import__backup.html#a88fb36efae995f4fdd54393605fdc7a1" target="_top" xlink:title=" ">
<polygon fill="white" stroke="#666666" points="137.5,-124 9.75,-124 9.75,-80 137.5,-80 137.5,-124"/>
<text xml:space="preserve" text-anchor="start" x="17.75" y="-110.5" font-family="Helvetica,sans-Serif" font-size="10.00">depicture_menu::usecase</text>
<text xml:space="preserve" text-anchor="start" x="17.75" y="-98.5" font-family="Helvetica,sans-Serif" font-size="10.00">::backup::import_backup</text>
<text xml:space="preserve" text-anchor="middle" x="73.62" y="-86.5" font-family="Helvetica,sans-Serif" font-size="10.00">::done_import</text>
</a>
</g>
</g>
<!-- Node2&#45;&gt;Node4 -->
<g id="edge3_Node000002_Node000004" class="edge">
<title>Node2&#45;&gt;Node4</title>
<g id="a_edge3_Node000002_Node000004"><a xlink:title=" ">
<path fill="none" stroke="#63b8ff" d="M171.58,-108.78C160.3,-107.99 148.75,-107.19 137.74,-106.42"/>
<polygon fill="#63b8ff" stroke="#63b8ff" points="171.02,-112.25 181.24,-109.46 171.51,-105.27 171.02,-112.25"/>
</a>
</g>
</g>
<!-- Node5&#45;&gt;Node5 -->
<g id="edge5_Node000005_Node000005" class="edge">
<title>Node5&#45;&gt;Node5</title>
<g id="a_edge5_Node000005_Node000005"><a xlink:title=" ">
<path fill="none" stroke="#63b8ff" d="M273.07,-66.55C268.3,-71.06 259.65,-74 247.12,-74 226.57,-74 216.46,-66.09 216.78,-56.3"/>
<polygon fill="#63b8ff" stroke="#63b8ff" points="276.14,-68.26 276.87,-57.69 269.71,-65.5 276.14,-68.26"/>
</a>
</g>
</g>
<!-- Node6 -->
<g id="Node000006" class="node">
<title>Node6</title>
<g id="a_Node000006"><a xlink:href="classdepicture__menu_1_1usecase_1_1change__default__menu__config.html#a211db0f791ba97e3c8643812d0b9a7b1" target="_top" xlink:title=" ">
<polygon fill="white" stroke="#666666" points="137.5,-50 9.75,-50 9.75,-6 137.5,-6 137.5,-50"/>
<text xml:space="preserve" text-anchor="start" x="17.75" y="-36.5" font-family="Helvetica,sans-Serif" font-size="10.00">depicture_menu::usecase</text>
<text xml:space="preserve" text-anchor="start" x="17.75" y="-24.5" font-family="Helvetica,sans-Serif" font-size="10.00">::change_default_menu</text>
<text xml:space="preserve" text-anchor="middle" x="73.62" y="-12.5" font-family="Helvetica,sans-Serif" font-size="10.00">_config::operator()</text>
</a>
</g>
</g>
<!-- Node5&#45;&gt;Node6 -->
<g id="edge6_Node000005_Node000006" class="edge">
<title>Node5&#45;&gt;Node6</title>
<g id="a_edge6_Node000005_Node000006"><a xlink:title=" ">
<path fill="none" stroke="#63b8ff" d="M171.58,-28C160.3,-28 148.75,-28 137.74,-28"/>
<polygon fill="#63b8ff" stroke="#63b8ff" points="171.24,-31.5 181.24,-28 171.24,-24.5 171.24,-31.5"/>
</a>
</g>
</g>
</g>
</svg>
