<?xml version="1.0" encoding="UTF-8" standalone="no"?>
<!DOCTYPE svg PUBLIC "-//W3C//DTD SVG 1.1//EN"
 "http://www.w3.org/Graphics/SVG/1.1/DTD/svg11.dtd">
<!-- Generated by graphviz version 14.1.2 (20260124.0452)
 -->
<!-- Title: depicture_menu::domain::commands::command::command Pages: 1 -->
<!--zoomable 360 -->

<svg id="main" version="1.1" xmlns="http://www.w3.org/2000/svg" xmlns:xlink="http://www.w3.org/1999/xlink" xml:space="preserve" onload="init(evt)">

<style type="text/css"><![CDATA[
.node, .edge {opacity: 0.7;}
.node.selected, .edge.selected {opacity: 1;}
.edge:hover path { stroke: red; }
.edge:hover polygon { stroke: red; fill: red; }
]]></style>

<defs>
  <circle id="rim" cx="0" cy="0" r="7"/>
  <circle id="rim2" cx="0" cy="0" r="3.5"/>
  <g id="zoomPlus">
    <use xlink:href="#rim" fill="#404040"><set attributeName="fill" to="#808080" begin="zoomplus.mouseover" end="zoomplus.mouseout"/></use>
    <path d="M-4,0h8M0,-4v8" fill="none" stroke="white" stroke-width="1.5" pointer-events="none"/>
  </g>
  <g id="zoomMin">
    <use xlink:href="#rim" fill="#404040"><set attributeName="fill" to="#808080" begin="zoomminus.mouseover" end="zoomminus.mouseout"/></use>
    <path d="M-4,0h8" fill="none" stroke="white" stroke-width="1.5" pointer-events="none"/>
  </g>
  <g id="arrowUp" transform="translate(30 24)">
    <use xlink:href="#rim"/>
    <path pointer-events="none" fill="none" stroke="white" stroke-width="1.5" d="M0,-3.0v7 M-2.5,-0.5L0,-3.0L2.5,-0.5"/>
  </g>
  <g id="arrowRight" transform="rotate(90) translate(36 -43)">
    <use xlink:href="#rim"/>
    <path pointer-events="none" fill="none" stroke="white" stroke-width="1.5" d="M0,-3.0v7 M-2.5,-0.5L0,-3.0L2.5,-0.5"/>
  </g>
  <g id="arrowDown" transform="rotate(180) translate(-30 -48)">
    <use xlink:href="#rim"/>
    <path pointer-events="none" fill="none" stroke="white" stroke-width="1.5" d="M0,-3.0v7 M-2.5,-0.5L0,-3.0L2.5,-0.5"/>
  </g>
  <g id="arrowLeft" transform="rotate(270) translate(-36 17)">
    <use xlink:href="#rim"/>
    <path pointer-events="none" fill="none" stroke="white" stroke-width="1.5" d="M0,-3.0v7 M-2.5,-0.5L0,-3.0L2.5,-0.5"/>
  </g>
  <g id="resetDef">
    <use xlink:href="#rim2" fill="#404040"><set attributeName="fill" to="#808080" begin="reset.mouseover" end="reset.mouseout"/></use>
  </g>
</defs>
<script type="application/ecmascript">
var viewWidth = 570;
var viewHeight = 360;
var sectionId = 'dynsection-7';
</script>
<script type="application/ecmascript" xlink:href="svg.min.js"/>
<svg id="graph" class="graph">
<g id="viewport">
<title>depicture_menu::domain::commands::command::command</title>
<!-- Node1 -->
<g id="Node000001" class="node">
<title>Node1</title>
<g id="a_Node000001"><a xlink:title=" ">
<polygon fill="#999999" stroke="#666666" points="167.5,-138 0,-138 0,-106 167.5,-106 167.5,-138"/>
<text xml:space="preserve" text-anchor="start" x="8" y="-124.5" font-family="Helvetica,sans-Serif" font-size="10.00">depicture_menu::domain</text>
<text xml:space="preserve" text-anchor="middle" x="83.75" y="-112.5" font-family="Helvetica,sans-Serif" font-size="10.00">::commands::command::command</text>
</a>
</g>
</g>
<!-- Node2 -->
<g id="Node000002" class="node">
<title>Node2</title>
<g id="a_Node000002"><a xlink:href="classdepicture__menu_1_1domain_1_1commands_1_1command.html#a7838d760a9092e30737915a9069586df" target="_top" xlink:title=" ">
<polygon fill="white" stroke="#666666" points="350.38,-268 205.38,-268 205.38,-224 350.38,-224 350.38,-268"/>
<text xml:space="preserve" text-anchor="start" x="213.38" y="-254.5" font-family="Helvetica,sans-Serif" font-size="10.00">depicture_menu::domain</text>
<text xml:space="preserve" text-anchor="start" x="213.38" y="-242.5" font-family="Helvetica,sans-Serif" font-size="10.00">::commands::command::build</text>
<text xml:space="preserve" text-anchor="middle" x="277.88" y="-230.5" font-family="Helvetica,sans-Serif" font-size="10.00">_parameter_pack_by_tuple</text>
</a>
</g>
</g>
<!-- Node1&#45;&gt;Node2 -->
<g id="edge1_Node000001_Node000002" class="edge">
<title>Node1&#45;&gt;Node2</title>
<g id="a_edge1_Node000001_Node000002"><a xlink:title=" ">
<path fill="none" stroke="#63b8ff" d="M102.57,-138.44C124.89,-158.42 164.91,-192.28 203.5,-215 205.5,-216.18 207.56,-217.34 209.65,-218.47"/>
<polygon fill="#63b8ff" stroke="#63b8ff" points="207.81,-221.46 218.31,-222.91 211.01,-215.23 207.81,-221.46"/>
</a>
</g>
</g>
<!-- Node7 -->
<g id="Node000007" class="node">
<title>Node7</title>
<g id="a_Node000007"><a xlink:href="structdepicture__menu_1_1domain_1_1models_1_1base_1_1entity__base.html#adce587e64220cc3a3407233c1fc61ba4" target="_top" xlink:title=" ">
<polygon fill="white" stroke="#666666" points="339.12,-206 216.62,-206 216.62,-162 339.12,-162 339.12,-206"/>
<text xml:space="preserve" text-anchor="start" x="224.62" y="-192.5" font-family="Helvetica,sans-Serif" font-size="10.00">depicture_menu::domain</text>
<text xml:space="preserve" text-anchor="start" x="224.62" y="-180.5" font-family="Helvetica,sans-Serif" font-size="10.00">::models::base::entity</text>
<text xml:space="preserve" text-anchor="middle" x="277.88" y="-168.5" font-family="Helvetica,sans-Serif" font-size="10.00">_base::entity_id</text>
</a>
</g>
</g>
<!-- Node1&#45;&gt;Node7 -->
<g id="edge6_Node000001_Node000007" class="edge">
<title>Node1&#45;&gt;Node7</title>
<g id="a_edge6_Node000001_Node000007"><a xlink:title=" ">
<path fill="none" stroke="#63b8ff" d="M135.73,-138.45C157.13,-145.36 182.39,-153.51 205.59,-161"/>
<polygon fill="#63b8ff" stroke="#63b8ff" points="204.4,-164.29 214.99,-164.03 206.55,-157.63 204.4,-164.29"/>
</a>
</g>
</g>
<!-- Node8 -->
<g id="Node000008" class="node">
<title>Node8</title>
<g id="a_Node000008"><a xlink:href="classdepicture__menu_1_1domain_1_1commands_1_1invoker.html#a4add88205dc7cc1e3e5cbc503abc3157" target="_top" xlink:title=" ">
<polygon fill="white" stroke="#666666" points="341.38,-144 214.38,-144 214.38,-100 341.38,-100 341.38,-144"/>
<text xml:space="preserve" text-anchor="start" x="222.38" y="-130.5" font-family="Helvetica,sans-Serif" font-size="10.00">depicture_menu::domain</text>
<text xml:space="preserve" text-anchor="start" x="222.38" y="-118.5" font-family="Helvetica,sans-Serif" font-size="10.00">::commands::invoker::get</text>
<text xml:space="preserve" text-anchor="middle" x="277.88" y="-106.5" font-family="Helvetica,sans-Serif" font-size="10.00">_parameters_define</text>
</a>
</g>
</g>
<!-- Node1&#45;&gt;Node8 -->
<g id="edge7_Node000001_Node000008" class="edge">
<title>Node1&#45;&gt;Node8</title>
<g id="a_edge7_Node000001_Node000008"><a xlink:title=" ">
<path fill="none" stroke="#63b8ff" d="M167.9,-122C179.54,-122 191.43,-122 202.89,-122"/>
<polygon fill="#63b8ff" stroke="#63b8ff" points="202.65,-125.5 212.65,-122 202.65,-118.5 202.65,-125.5"/>
</a>
</g>
</g>
<!-- Node9 -->
<g id="Node000009" class="node">
<title>Node9</title>
<g id="a_Node000009"><a xlink:href="classdepicture__menu_1_1domain_1_1commands_1_1invoker.html#a6393cddd7f50b7f41a06c3908364465c" target="_top" xlink:title=" ">
<polygon fill="white" stroke="#666666" points="346.25,-82 209.5,-82 209.5,-50 346.25,-50 346.25,-82"/>
<text xml:space="preserve" text-anchor="start" x="217.5" y="-68.5" font-family="Helvetica,sans-Serif" font-size="10.00">depicture_menu::domain</text>
<text xml:space="preserve" text-anchor="middle" x="277.88" y="-56.5" font-family="Helvetica,sans-Serif" font-size="10.00">::commands::invoker::index</text>
</a>
</g>
</g>
<!-- Node1&#45;&gt;Node9 -->
<g id="edge8_Node000001_Node000009" class="edge">
<title>Node1&#45;&gt;Node9</title>
<g id="a_edge8_Node000001_Node000009"><a xlink:title=" ">
<path fill="none" stroke="#63b8ff" d="M141.35,-105.5C162.66,-99.29 187.1,-92.17 209.31,-85.7"/>
<polygon fill="#63b8ff" stroke="#63b8ff" points="210.27,-89.06 218.89,-82.9 208.31,-82.34 210.27,-89.06"/>
</a>
</g>
</g>
<!-- Node10 -->
<g id="Node000010" class="node">
<title>Node10</title>
<g id="a_Node000010"><a xlink:href="classdepicture__menu_1_1domain_1_1commands_1_1command.html#ac4027c4231af8815cec7ad6fd50cf286" target="_top" xlink:title=" ">
<polygon fill="white" stroke="#666666" points="352.25,-32 203.5,-32 203.5,0 352.25,0 352.25,-32"/>
<text xml:space="preserve" text-anchor="start" x="211.5" y="-18.5" font-family="Helvetica,sans-Serif" font-size="10.00">depicture_menu::domain</text>
<text xml:space="preserve" text-anchor="middle" x="277.88" y="-6.5" font-family="Helvetica,sans-Serif" font-size="10.00">::commands::command::name</text>
</a>
</g>
</g>
<!-- Node1&#45;&gt;Node10 -->
<g id="edge9_Node000001_Node000010" class="edge">
<title>Node1&#45;&gt;Node10</title>
<g id="a_edge9_Node000001_Node000010"><a xlink:title=" ">
<path fill="none" stroke="#63b8ff" d="M105.14,-105.55C127.98,-87.74 166.67,-59.41 203.5,-41 206.53,-39.48 209.68,-38.03 212.89,-36.63"/>
<polygon fill="#63b8ff" stroke="#63b8ff" points="213.95,-39.97 221.88,-32.94 211.3,-33.49 213.95,-39.97"/>
</a>
</g>
</g>
<!-- Node3 -->
<g id="Node000003" class="node">
<title>Node3</title>
<g id="a_Node000003"><a xlink:href="classdepicture__menu_1_1domain_1_1commands_1_1parameters__define.html#a3a957c9ec063f166cd6b9fe884beadaa" target="_top" xlink:title=" ">
<polygon fill="white" stroke="#666666" points="537.38,-352 412.62,-352 412.62,-308 537.38,-308 537.38,-352"/>
<text xml:space="preserve" text-anchor="start" x="420.62" y="-338.5" font-family="Helvetica,sans-Serif" font-size="10.00">depicture_menu::domain</text>
<text xml:space="preserve" text-anchor="start" x="420.62" y="-326.5" font-family="Helvetica,sans-Serif" font-size="10.00">::commands::parameters</text>
<text xml:space="preserve" text-anchor="middle" x="475" y="-314.5" font-family="Helvetica,sans-Serif" font-size="10.00">_define::begin</text>
</a>
</g>
</g>
<!-- Node2&#45;&gt;Node3 -->
<g id="edge2_Node000002_Node000003" class="edge">
<title>Node2&#45;&gt;Node3</title>
<g id="a_edge2_Node000002_Node000003"><a xlink:title=" ">
<path fill="none" stroke="#63b8ff" d="M322.57,-268.46C342.39,-278.32 366.28,-289.74 388.25,-299 392.6,-300.83 397.1,-302.66 401.65,-304.46"/>
<polygon fill="#63b8ff" stroke="#63b8ff" points="400.34,-307.7 410.93,-308.04 402.86,-301.17 400.34,-307.7"/>
</a>
</g>
</g>
<!-- Node4 -->
<g id="Node000004" class="node">
<title>Node4</title>
<g id="a_Node000004"><a xlink:href="namespacedepicture__menu_1_1domain_1_1commands.html#ada3233a4e737ff1782b9e6c0901b6caa" target="_top" xlink:title=" ">
<polygon fill="white" stroke="#666666" points="561.75,-290 388.25,-290 388.25,-258 561.75,-258 561.75,-290"/>
<text xml:space="preserve" text-anchor="start" x="396.25" y="-276.5" font-family="Helvetica,sans-Serif" font-size="10.00">depicture_menu::domain</text>
<text xml:space="preserve" text-anchor="middle" x="475" y="-264.5" font-family="Helvetica,sans-Serif" font-size="10.00">::commands::build_parameter_value</text>
</a>
</g>
</g>
<!-- Node2&#45;&gt;Node4 -->
<g id="edge3_Node000002_Node000004" class="edge">
<title>Node2&#45;&gt;Node4</title>
<g id="a_edge3_Node000002_Node000004"><a xlink:title=" ">
<path fill="none" stroke="#63b8ff" d="M350.7,-256.31C359.09,-257.51 367.75,-258.75 376.41,-260"/>
<polygon fill="#63b8ff" stroke="#63b8ff" points="375.88,-263.46 386.27,-261.41 376.87,-256.53 375.88,-263.46"/>
</a>
</g>
</g>
<!-- Node5 -->
<g id="Node000005" class="node">
<title>Node5</title>
<g id="a_Node000005"><a xlink:href="classdepicture__menu_1_1domain_1_1commands_1_1parameters__define.html#ac0d5b69a219145fe840a0b3abc2d3dae" target="_top" xlink:title=" ">
<polygon fill="white" stroke="#666666" points="537.38,-240 412.62,-240 412.62,-196 537.38,-196 537.38,-240"/>
<text xml:space="preserve" text-anchor="start" x="420.62" y="-226.5" font-family="Helvetica,sans-Serif" font-size="10.00">depicture_menu::domain</text>
<text xml:space="preserve" text-anchor="start" x="420.62" y="-214.5" font-family="Helvetica,sans-Serif" font-size="10.00">::commands::parameters</text>
<text xml:space="preserve" text-anchor="middle" x="475" y="-202.5" font-family="Helvetica,sans-Serif" font-size="10.00">_define::end</text>
</a>
</g>
</g>
<!-- Node2&#45;&gt;Node5 -->
<g id="edge4_Node000002_Node000005" class="edge">
<title>Node2&#45;&gt;Node5</title>
<g id="a_edge4_Node000002_Node000005"><a xlink:title=" ">
<path fill="none" stroke="#63b8ff" d="M350.7,-235.69C367.12,-233.34 384.59,-230.83 401.06,-228.47"/>
<polygon fill="#63b8ff" stroke="#63b8ff" points="401.38,-231.96 410.78,-227.07 400.38,-225.03 401.38,-231.96"/>
</a>
</g>
</g>
<!-- Node6 -->
<g id="Node000006" class="node">
<title>Node6</title>
<g id="a_Node000006"><a xlink:href="classdepicture__menu_1_1domain_1_1commands_1_1command.html#a478e83fd84f47e84cd710c6c91ea242e" target="_top" xlink:title=" ">
<polygon fill="white" stroke="#666666" points="559.5,-178 390.5,-178 390.5,-146 559.5,-146 559.5,-178"/>
<text xml:space="preserve" text-anchor="start" x="398.5" y="-164.5" font-family="Helvetica,sans-Serif" font-size="10.00">depicture_menu::domain</text>
<text xml:space="preserve" text-anchor="middle" x="475" y="-152.5" font-family="Helvetica,sans-Serif" font-size="10.00">::commands::command::invoker_id</text>
</a>
</g>
</g>
<!-- Node2&#45;&gt;Node6 -->
<g id="edge5_Node000002_Node000006" class="edge">
<title>Node2&#45;&gt;Node6</title>
<g id="a_edge5_Node000002_Node000006"><a xlink:title=" ">
<path fill="none" stroke="#63b8ff" d="M336.08,-223.58C341.64,-220.88 347.12,-218.01 352.25,-215 369.73,-204.75 370.2,-196.22 388.25,-187 391.16,-185.51 394.18,-184.1 397.26,-182.76"/>
<polygon fill="#63b8ff" stroke="#63b8ff" points="398.55,-186.01 406.53,-179.05 395.94,-179.52 398.55,-186.01"/>
</a>
</g>
</g>
</g>
</svg>

<g id="navigator" transform="translate(0 0)" fill="#404254">
  <rect fill="#f2f5e9" fill-opacity="0.5" stroke="#606060" stroke-width=".5" x="0" y="0" width="60" height="60"/>
  <use id="zoomplus" xlink:href="#zoomPlus" x="17" y="9" onmousedown="handleZoom(evt,'in')"/>
  <use id="zoomminus" xlink:href="#zoomMin" x="42" y="9" onmousedown="handleZoom(evt,'out')"/>
  <use id="reset" xlink:href="#resetDef" x="30" y="36" onmousedown="handleReset()"/>
   <use id="arrowup" xlink:href="#arrowUp" x="0" y="0" onmousedown="handlePan(0,-1)"/>
  <use id="arrowright" xlink:href="#arrowRight" x="0" y="0" onmousedown="handlePan(1,0)"/>
  <use id="arrowdown" xlink:href="#arrowDown" x="0" y="0" onmousedown="handlePan(0,1)"/>
  <use id="arrowleft" xlink:href="#arrowLeft" x="0" y="0" onmousedown="handlePan(-1,0)"/>
</g>
<svg viewBox="0 0 15 15" width="100%" height="30px" preserveAspectRatio="xMaxYMin meet">
 <g id="arrow_out" transform="scale(0.3 0.3)">
  <a xlink:href="classdepicture__menu_1_1domain_1_1commands_1_1command_accf7c2a00f214fd3333d02f07ac51ee4_cgraph_org.svg" target="_base">
   <rect id="button" ry="5" rx="5" y="6" x="6" height="38" width="38"
        fill="#f2f5e9" fill-opacity="0.5" stroke="#606060" stroke-width="1.0"/>
   <path id="arrow"
     d="M 11.500037,31.436501 C 11.940474,20.09759 22.043105,11.32322 32.158766,21.979434 L 37.068811,17.246167 C 37.068811,17.246167 37.088388,32 37.088388,32 L 22.160133,31.978069 C 22.160133,31.978069 26.997745,27.140456 26.997745,27.140456 C 18.528582,18.264221 13.291696,25.230495 11.500037,31.436501 z"
     style="fill:#404040;"/>
  </a>
 </g>
</svg>

<style type='text/css'>
<![CDATA[
[data-mouse-over-selected='false'] { opacity: 0.7; }
[data-mouse-over-selected='true']  { opacity: 1.0; }
]]>
</style>
<script type="application/ecmascript"><![CDATA[
document.addEventListener('DOMContentLoaded', (event) => {
  highlightEdges();
  highlightAdjacentNodes();
});
]]></script>
</svg>
