<?xml version="1.0" encoding="UTF-8" standalone="no"?>
<!DOCTYPE svg PUBLIC "-//W3C//DTD SVG 1.1//EN"
 "http://www.w3.org/Graphics/SVG/1.1/DTD/svg11.dtd">
<!-- Generated by graphviz version 14.1.2 (20260124.0452)
 -->
<!-- Title: depicture_menu::domain::commands::common_command_define::common_command_define Pages: 1 -->
<svg width="559pt" height="254pt"
 viewBox="0.00 0.00 559.00 254.00" xmlns="http://www.w3.org/2000/svg" xmlns:xlink="http://www.w3.org/1999/xlink">
<g id="graph0" class="graph" transform="scale(1 1) rotate(0) translate(4 250)">
<title>depicture_menu::domain::commands::common_command_define::common_command_define</title>
<!-- Node1 -->
<g id="Node000001" class="node">
<title>Node1</title>
<g id="a_Node000001"><a xlink:title=" ">
<polygon fill="#999999" stroke="#666666" points="551.25,-153 380.75,-153 380.75,-109 551.25,-109 551.25,-153"/>
<text xml:space="preserve" text-anchor="start" x="388.75" y="-139.5" font-family="Helvetica,sans-Serif" font-size="10.00">depicture_menu::domain</text>
<text xml:space="preserve" text-anchor="start" x="388.75" y="-127.5" font-family="Helvetica,sans-Serif" font-size="10.00">::commands::common_command</text>
<text xml:space="preserve" text-anchor="middle" x="466" y="-115.5" font-family="Helvetica,sans-Serif" font-size="10.00">_define::common_command_define</text>
</a>
</g>
</g>
<!-- Node2 -->
<g id="Node000002" class="node">
<title>Node2</title>
<g id="a_Node000002"><a xlink:href="classdepicture__menu_1_1domain_1_1commands_1_1common__command__define.html#a5ba0493af659c541d1836af5e41c1e78" target="_top" xlink:title=" ">
<polygon fill="white" stroke="#666666" points="344.75,-246 183.25,-246 183.25,-202 344.75,-202 344.75,-246"/>
<text xml:space="preserve" text-anchor="start" x="191.25" y="-232.5" font-family="Helvetica,sans-Serif" font-size="10.00">depicture_menu::domain</text>
<text xml:space="preserve" text-anchor="start" x="191.25" y="-220.5" font-family="Helvetica,sans-Serif" font-size="10.00">::commands::common_command</text>
<text xml:space="preserve" text-anchor="middle" x="264" y="-208.5" font-family="Helvetica,sans-Serif" font-size="10.00">_define::add_kind</text>
</a>
</g>
</g>
<!-- Node1&#45;&gt;Node2 -->
<g id="edge1_Node000001_Node000002" class="edge">
<title>Node1&#45;&gt;Node2</title>
<g id="a_edge1_Node000001_Node000002"><a xlink:title=" ">
<path fill="none" stroke="#63b8ff" d="M414,-158.8C392.82,-169.95 367.85,-182.59 344.75,-193 338.25,-195.93 331.38,-198.85 324.52,-201.66"/>
<polygon fill="#63b8ff" stroke="#63b8ff" points="415.53,-161.95 422.73,-154.18 412.25,-155.77 415.53,-161.95"/>
</a>
</g>
</g>
<!-- Node3 -->
<g id="Node000003" class="node">
<title>Node3</title>
<g id="a_Node000003"><a xlink:href="classdepicture__menu_1_1domain_1_1commands_1_1common__command__define.html#adfb8e2b211a79d899b3761236f598a83" target="_top" xlink:title=" ">
<polygon fill="white" stroke="#666666" points="344.75,-184 183.25,-184 183.25,-140 344.75,-140 344.75,-184"/>
<text xml:space="preserve" text-anchor="start" x="191.25" y="-170.5" font-family="Helvetica,sans-Serif" font-size="10.00">depicture_menu::domain</text>
<text xml:space="preserve" text-anchor="start" x="191.25" y="-158.5" font-family="Helvetica,sans-Serif" font-size="10.00">::commands::common_command</text>
<text xml:space="preserve" text-anchor="middle" x="264" y="-146.5" font-family="Helvetica,sans-Serif" font-size="10.00">_define::open_submenu_define</text>
</a>
</g>
</g>
<!-- Node1&#45;&gt;Node3 -->
<g id="edge2_Node000001_Node000003" class="edge">
<title>Node1&#45;&gt;Node3</title>
<g id="a_edge2_Node000001_Node000003"><a xlink:title=" ">
<path fill="none" stroke="#63b8ff" d="M369.14,-145.86C361.08,-147.11 353,-148.36 345.08,-149.59"/>
<polygon fill="#63b8ff" stroke="#63b8ff" points="369.63,-149.32 378.98,-144.33 368.56,-142.41 369.63,-149.32"/>
</a>
</g>
</g>
<!-- Node5 -->
<g id="Node000005" class="node">
<title>Node5</title>
<g id="a_Node000005"><a xlink:href="classdepicture__menu_1_1domain_1_1commands_1_1common__command__define.html#a2323b0d9fe7301b3e8fd7b8fd367168e" target="_top" xlink:title=" ">
<polygon fill="white" stroke="#666666" points="344.75,-122 183.25,-122 183.25,-78 344.75,-78 344.75,-122"/>
<text xml:space="preserve" text-anchor="start" x="191.25" y="-108.5" font-family="Helvetica,sans-Serif" font-size="10.00">depicture_menu::domain</text>
<text xml:space="preserve" text-anchor="start" x="191.25" y="-96.5" font-family="Helvetica,sans-Serif" font-size="10.00">::commands::common_command</text>
<text xml:space="preserve" text-anchor="middle" x="264" y="-84.5" font-family="Helvetica,sans-Serif" font-size="10.00">_define::reconstruct_add_kind</text>
</a>
</g>
</g>
<!-- Node1&#45;&gt;Node5 -->
<g id="edge4_Node000001_Node000005" class="edge">
<title>Node1&#45;&gt;Node5</title>
<g id="a_edge4_Node000001_Node000005"><a xlink:title=" ">
<path fill="none" stroke="#63b8ff" d="M369.14,-116.14C361.08,-114.89 353,-113.64 345.08,-112.41"/>
<polygon fill="#63b8ff" stroke="#63b8ff" points="368.56,-119.59 378.98,-117.67 369.63,-112.68 368.56,-119.59"/>
</a>
</g>
</g>
<!-- Node6 -->
<g id="Node000006" class="node">
<title>Node6</title>
<g id="a_Node000006"><a xlink:href="classdepicture__menu_1_1domain_1_1commands_1_1common__command__define.html#a11a40144676830994d0241efefb3ea50" target="_top" xlink:title=" ">
<polygon fill="white" stroke="#666666" points="344.75,-60 183.25,-60 183.25,-16 344.75,-16 344.75,-60"/>
<text xml:space="preserve" text-anchor="start" x="191.25" y="-46.5" font-family="Helvetica,sans-Serif" font-size="10.00">depicture_menu::domain</text>
<text xml:space="preserve" text-anchor="start" x="191.25" y="-34.5" font-family="Helvetica,sans-Serif" font-size="10.00">::commands::common_command</text>
<text xml:space="preserve" text-anchor="middle" x="264" y="-22.5" font-family="Helvetica,sans-Serif" font-size="10.00">_define::shellexecute_define</text>
</a>
</g>
</g>
<!-- Node1&#45;&gt;Node6 -->
<g id="edge5_Node000001_Node000006" class="edge">
<title>Node1&#45;&gt;Node6</title>
<g id="a_edge5_Node000001_Node000006"><a xlink:title=" ">
<path fill="none" stroke="#63b8ff" d="M414,-103.2C392.82,-92.05 367.85,-79.41 344.75,-69 338.25,-66.07 331.38,-63.15 324.52,-60.34"/>
<polygon fill="#63b8ff" stroke="#63b8ff" points="412.25,-106.23 422.73,-107.82 415.53,-100.05 412.25,-106.23"/>
</a>
</g>
</g>
<!-- Node4 -->
<g id="Node000004" class="node">
<title>Node4</title>
<g id="a_Node000004"><a xlink:href="_test_config_view_presenter_8cpp.html#a26671984c98496781b11fd7859f0c808" target="_top" xlink:title=" ">
<polygon fill="white" stroke="#666666" points="147.25,-172 0,-172 0,-152 147.25,-152 147.25,-172"/>
<text xml:space="preserve" text-anchor="middle" x="73.62" y="-158.5" font-family="Helvetica,sans-Serif" font-size="10.00">BOOST_AUTO_TEST_CASE</text>
</a>
</g>
</g>
<!-- Node3&#45;&gt;Node4 -->
<g id="edge3_Node000003_Node000004" class="edge">
<title>Node3&#45;&gt;Node4</title>
<g id="a_edge3_Node000003_Node000004"><a xlink:title=" ">
<path fill="none" stroke="#63b8ff" d="M171.51,-162C163.47,-162 155.41,-162 147.55,-162"/>
<polygon fill="#63b8ff" stroke="#63b8ff" points="171.33,-165.5 181.33,-162 171.33,-158.5 171.33,-165.5"/>
</a>
</g>
</g>
<!-- Node7 -->
<g id="Node000007" class="node">
<title>Node7</title>
<g id="a_Node000007"><a xlink:href="_test_config_view_presenter_8cpp.html#afd6569b78df88fbcda86a12acb7bd142" target="_top" xlink:title=" ">
<polygon fill="white" stroke="#666666" points="147.25,-70 0,-70 0,-50 147.25,-50 147.25,-70"/>
<text xml:space="preserve" text-anchor="middle" x="73.62" y="-56.5" font-family="Helvetica,sans-Serif" font-size="10.00">BOOST_AUTO_TEST_CASE</text>
</a>
</g>
</g>
<!-- Node6&#45;&gt;Node7 -->
<g id="edge6_Node000006_Node000007" class="edge">
<title>Node6&#45;&gt;Node7</title>
<g id="a_edge6_Node000006_Node000007"><a xlink:title=" ">
<path fill="none" stroke="#63b8ff" d="M171.51,-48.68C163.47,-49.62 155.41,-50.57 147.55,-51.48"/>
<polygon fill="#63b8ff" stroke="#63b8ff" points="171.81,-52.17 181.34,-47.54 171,-45.22 171.81,-52.17"/>
</a>
</g>
</g>
<!-- Node8 -->
<g id="Node000008" class="node">
<title>Node8</title>
<g id="a_Node000008"><a xlink:href="structrepositoris__fixture.html#a1adfa78de35b4731e52aba6ef25c418e" target="_top" xlink:title=" ">
<polygon fill="white" stroke="#666666" points="123.25,-32 24,-32 24,0 123.25,0 123.25,-32"/>
<text xml:space="preserve" text-anchor="start" x="32" y="-18.5" font-family="Helvetica,sans-Serif" font-size="10.00">repositoris_fixture</text>
<text xml:space="preserve" text-anchor="middle" x="73.62" y="-6.5" font-family="Helvetica,sans-Serif" font-size="10.00">::repositoris_fixture</text>
</a>
</g>
</g>
<!-- Node6&#45;&gt;Node8 -->
<g id="edge7_Node000006_Node000008" class="edge">
<title>Node6&#45;&gt;Node8</title>
<g id="a_edge7_Node000006_Node000008"><a xlink:title=" ">
<path fill="none" stroke="#63b8ff" d="M171.45,-27.31C154.94,-25.38 138.32,-23.44 123.62,-21.72"/>
<polygon fill="#63b8ff" stroke="#63b8ff" points="171,-30.78 181.34,-28.46 171.81,-23.83 171,-30.78"/>
</a>
</g>
</g>
</g>
</svg>
