<?xml version="1.0" encoding="UTF-8" standalone="no"?>
<!DOCTYPE svg PUBLIC "-//W3C//DTD SVG 1.1//EN"
 "http://www.w3.org/Graphics/SVG/1.1/DTD/svg11.dtd">
<!-- Generated by graphviz version 14.1.2 (20260124.0452)
 -->
<!-- Title: depicture_menu::domain::app::config::get_default_menu_id Pages: 1 -->
<svg width="488pt" height="90pt"
 viewBox="0.00 0.00 488.00 90.00" xmlns="http://www.w3.org/2000/svg" xmlns:xlink="http://www.w3.org/1999/xlink">
<g id="graph0" class="graph" transform="scale(1 1) rotate(0) translate(4 86)">
<title>depicture_menu::domain::app::config::get_default_menu_id</title>
<!-- Node1 -->
<g id="Node000001" class="node">
<title>Node1</title>
<g id="a_Node000001"><a xlink:title=" ">
<polygon fill="#999999" stroke="#666666" points="480,-69 356,-69 356,-25 480,-25 480,-69"/>
<text xml:space="preserve" text-anchor="start" x="364" y="-55.5" font-family="Helvetica,sans-Serif" font-size="10.00">depicture_menu::domain</text>
<text xml:space="preserve" text-anchor="start" x="364" y="-43.5" font-family="Helvetica,sans-Serif" font-size="10.00">::app::config::get_default</text>
<text xml:space="preserve" text-anchor="middle" x="418" y="-31.5" font-family="Helvetica,sans-Serif" font-size="10.00">_menu_id</text>
</a>
</g>
</g>
<!-- Node2 -->
<g id="Node000002" class="node">
<title>Node2</title>
<g id="a_Node000002"><a xlink:href="namespacedepicture__menu_1_1usecase_1_1backup.html#aa119e67f0ce64b2f8e57e6b634f686fa" target="_top" xlink:title=" ">
<polygon fill="white" stroke="#666666" points="320,-63 183.25,-63 183.25,-31 320,-31 320,-63"/>
<text xml:space="preserve" text-anchor="start" x="191.25" y="-49.5" font-family="Helvetica,sans-Serif" font-size="10.00">depicture_menu::usecase</text>
<text xml:space="preserve" text-anchor="middle" x="251.62" y="-37.5" font-family="Helvetica,sans-Serif" font-size="10.00">::backup::create_config_dto</text>
</a>
</g>
</g>
<!-- Node1&#45;&gt;Node2 -->
<g id="edge1_Node000001_Node000002" class="edge">
<title>Node1&#45;&gt;Node2</title>
<g id="a_edge1_Node000001_Node000002"><a xlink:title=" ">
<path fill="none" stroke="#63b8ff" d="M344.5,-47C336.43,-47 328.24,-47 320.23,-47"/>
<polygon fill="#63b8ff" stroke="#63b8ff" points="344.28,-50.5 354.28,-47 344.28,-43.5 344.28,-50.5"/>
</a>
</g>
</g>
<!-- Node3 -->
<g id="Node000003" class="node">
<title>Node3</title>
<g id="a_Node000003"><a xlink:href="_test_export_backup_8cpp.html#a42f0d7a16a3e6c2fcb6a65dfba873bf8" target="_top" xlink:title=" ">
<polygon fill="white" stroke="#666666" points="147.25,-82 0,-82 0,-62 147.25,-62 147.25,-82"/>
<text xml:space="preserve" text-anchor="middle" x="73.62" y="-68.5" font-family="Helvetica,sans-Serif" font-size="10.00">BOOST_AUTO_TEST_CASE</text>
</a>
</g>
</g>
<!-- Node2&#45;&gt;Node3 -->
<g id="edge2_Node000002_Node000003" class="edge">
<title>Node2&#45;&gt;Node3</title>
<g id="a_edge2_Node000002_Node000003"><a xlink:title=" ">
<path fill="none" stroke="#63b8ff" d="M171.63,-58.22C163.65,-59.35 155.56,-60.5 147.64,-61.63"/>
<polygon fill="#63b8ff" stroke="#63b8ff" points="171.92,-61.71 181.33,-56.84 170.94,-54.78 171.92,-61.71"/>
</a>
</g>
</g>
<!-- Node4 -->
<g id="Node000004" class="node">
<title>Node4</title>
<g id="a_Node000004"><a xlink:href="classdepicture__menu_1_1usecase_1_1backup_1_1export__backup.html#a28bbc2b85c1c87eb63ef672be633ffca" target="_top" xlink:title=" ">
<polygon fill="white" stroke="#666666" points="137.5,-44 9.75,-44 9.75,0 137.5,0 137.5,-44"/>
<text xml:space="preserve" text-anchor="start" x="17.75" y="-30.5" font-family="Helvetica,sans-Serif" font-size="10.00">depicture_menu::usecase</text>
<text xml:space="preserve" text-anchor="start" x="17.75" y="-18.5" font-family="Helvetica,sans-Serif" font-size="10.00">::backup::export_backup</text>
<text xml:space="preserve" text-anchor="middle" x="73.62" y="-6.5" font-family="Helvetica,sans-Serif" font-size="10.00">::done_export</text>
</a>
</g>
</g>
<!-- Node2&#45;&gt;Node4 -->
<g id="edge3_Node000002_Node000004" class="edge">
<title>Node2&#45;&gt;Node4</title>
<g id="a_edge3_Node000002_Node000004"><a xlink:title=" ">
<path fill="none" stroke="#63b8ff" d="M171.6,-35.77C160.27,-34.16 148.73,-32.53 137.77,-30.97"/>
<polygon fill="#63b8ff" stroke="#63b8ff" points="170.94,-39.22 181.33,-37.16 171.92,-32.29 170.94,-39.22"/>
</a>
</g>
</g>
</g>
</svg>
