<?xml version="1.0" encoding="UTF-8" standalone="no"?>
<!DOCTYPE svg PUBLIC "-//W3C//DTD SVG 1.1//EN"
 "http://www.w3.org/Graphics/SVG/1.1/DTD/svg11.dtd">
<!-- Generated by graphviz version 14.1.2 (20260124.0452)
 -->
<!-- Title: depicture_menu::presentations::menu_view_presenter::change_menu Pages: 1 -->
<!--zoomable 333 -->

<svg id="main" version="1.1" xmlns="http://www.w3.org/2000/svg" xmlns:xlink="http://www.w3.org/1999/xlink" xml:space="preserve" onload="init(evt)">

<style type="text/css"><![CDATA[
.node, .edge {opacity: 0.7;}
.node.selected, .edge.selected {opacity: 1;}
.edge:hover path { stroke: red; }
.edge:hover polygon { stroke: red; fill: red; }
]]></style>

<defs>
  <circle id="rim" cx="0" cy="0" r="7"/>
  <circle id="rim2" cx="0" cy="0" r="3.5"/>
  <g id="zoomPlus">
    <use xlink:href="#rim" fill="#404040"><set attributeName="fill" to="#808080" begin="zoomplus.mouseover" end="zoomplus.mouseout"/></use>
    <path d="M-4,0h8M0,-4v8" fill="none" stroke="white" stroke-width="1.5" pointer-events="none"/>
  </g>
  <g id="zoomMin">
    <use xlink:href="#rim" fill="#404040"><set attributeName="fill" to="#808080" begin="zoomminus.mouseover" end="zoomminus.mouseout"/></use>
    <path d="M-4,0h8" fill="none" stroke="white" stroke-width="1.5" pointer-events="none"/>
  </g>
  <g id="arrowUp" transform="translate(30 24)">
    <use xlink:href="#rim"/>
    <path pointer-events="none" fill="none" stroke="white" stroke-width="1.5" d="M0,-3.0v7 M-2.5,-0.5L0,-3.0L2.5,-0.5"/>
  </g>
  <g id="arrowRight" transform="rotate(90) translate(36 -43)">
    <use xlink:href="#rim"/>
    <path pointer-events="none" fill="none" stroke="white" stroke-width="1.5" d="M0,-3.0v7 M-2.5,-0.5L0,-3.0L2.5,-0.5"/>
  </g>
  <g id="arrowDown" transform="rotate(180) translate(-30 -48)">
    <use xlink:href="#rim"/>
    <path pointer-events="none" fill="none" stroke="white" stroke-width="1.5" d="M0,-3.0v7 M-2.5,-0.5L0,-3.0L2.5,-0.5"/>
  </g>
  <g id="arrowLeft" transform="rotate(270) translate(-36 17)">
    <use xlink:href="#rim"/>
    <path pointer-events="none" fill="none" stroke="white" stroke-width="1.5" d="M0,-3.0v7 M-2.5,-0.5L0,-3.0L2.5,-0.5"/>
  </g>
  <g id="resetDef">
    <use xlink:href="#rim2" fill="#404040"><set attributeName="fill" to="#808080" begin="reset.mouseover" end="reset.mouseout"/></use>
  </g>
</defs>
<script type="application/ecmascript">
var viewWidth = 1004;
var viewHeight = 333;
var sectionId = 'dynsection-2';
</script>
<script type="application/ecmascript" xlink:href="svg.min.js"/>
<svg id="graph" class="graph">
<g id="viewport">
<title>depicture_menu::presentations::menu_view_presenter::change_menu</title>
<!-- Node1 -->
<g id="Node000001" class="node">
<title>Node1</title>
<g id="a_Node000001"><a xlink:title=" ">
<polygon fill="#999999" stroke="#666666" points="184,-195 0,-195 0,-163 184,-163 184,-195"/>
<text xml:space="preserve" text-anchor="start" x="8" y="-181.5" font-family="Helvetica,sans-Serif" font-size="10.00">depicture_menu::presentations</text>
<text xml:space="preserve" text-anchor="middle" x="92" y="-169.5" font-family="Helvetica,sans-Serif" font-size="10.00">::menu_view_presenter::change_menu</text>
</a>
</g>
</g>
<!-- Node2 -->
<g id="Node000002" class="node">
<title>Node2</title>
<g id="a_Node000002"><a xlink:href="classdepicture__menu_1_1applications_1_1view__factories_1_1menu__view__arg__builder.html#a468f749c7257b784a07fa06164fa7773" target="_top" xlink:title=" ">
<polygon fill="white" stroke="#666666" points="362.75,-325 220,-325 220,-281 362.75,-281 362.75,-325"/>
<text xml:space="preserve" text-anchor="start" x="228" y="-311.5" font-family="Helvetica,sans-Serif" font-size="10.00">depicture_menu::applications</text>
<text xml:space="preserve" text-anchor="start" x="228" y="-299.5" font-family="Helvetica,sans-Serif" font-size="10.00">::view_factories::menu_view</text>
<text xml:space="preserve" text-anchor="middle" x="291.38" y="-287.5" font-family="Helvetica,sans-Serif" font-size="10.00">_arg_builder::build</text>
</a>
</g>
</g>
<!-- Node1&#45;&gt;Node2 -->
<g id="edge1_Node000001_Node000002" class="edge">
<title>Node1&#45;&gt;Node2</title>
<g id="a_edge1_Node000001_Node000002"><a xlink:title=" ">
<path fill="none" stroke="#63b8ff" d="M112.32,-195.22C136.46,-214.99 179.53,-248.64 220,-272 222.03,-273.17 224.12,-274.33 226.24,-275.47"/>
<polygon fill="#63b8ff" stroke="#63b8ff" points="224.52,-278.52 235.02,-279.97 227.71,-272.29 224.52,-278.52"/>
</a>
</g>
</g>
<!-- Node4 -->
<g id="Node000004" class="node">
<title>Node4</title>
<g id="a_Node000004"><a xlink:href="structdepicture__menu_1_1domain_1_1models_1_1base_1_1entity__base.html#adce587e64220cc3a3407233c1fc61ba4" target="_top" xlink:title=" ">
<polygon fill="white" stroke="#666666" points="352.62,-263 230.12,-263 230.12,-219 352.62,-219 352.62,-263"/>
<text xml:space="preserve" text-anchor="start" x="238.12" y="-249.5" font-family="Helvetica,sans-Serif" font-size="10.00">depicture_menu::domain</text>
<text xml:space="preserve" text-anchor="start" x="238.12" y="-237.5" font-family="Helvetica,sans-Serif" font-size="10.00">::models::base::entity</text>
<text xml:space="preserve" text-anchor="middle" x="291.38" y="-225.5" font-family="Helvetica,sans-Serif" font-size="10.00">_base::entity_id</text>
</a>
</g>
</g>
<!-- Node1&#45;&gt;Node4 -->
<g id="edge3_Node000001_Node000004" class="edge">
<title>Node1&#45;&gt;Node4</title>
<g id="a_edge3_Node000001_Node000004"><a xlink:title=" ">
<path fill="none" stroke="#63b8ff" d="M145.37,-195.45C167.86,-202.51 194.48,-210.88 218.75,-218.5"/>
<polygon fill="#63b8ff" stroke="#63b8ff" points="217.67,-221.83 228.26,-221.49 219.77,-215.15 217.67,-221.83"/>
</a>
</g>
</g>
<!-- Node5 -->
<g id="Node000005" class="node">
<title>Node5</title>
<g id="a_Node000005"><a xlink:href="structdepicture__menu_1_1usecase_1_1dto_1_1view__changed__notify__with__kind.html#ab5510481273498944e3fdb5aeca75566" target="_top" xlink:title=" ">
<polygon fill="white" stroke="#666666" points="357.88,-201 224.88,-201 224.88,-157 357.88,-157 357.88,-201"/>
<text xml:space="preserve" text-anchor="start" x="232.88" y="-187.5" font-family="Helvetica,sans-Serif" font-size="10.00">depicture_menu::usecase</text>
<text xml:space="preserve" text-anchor="start" x="232.88" y="-175.5" font-family="Helvetica,sans-Serif" font-size="10.00">::dto::view_changed_notify</text>
<text xml:space="preserve" text-anchor="middle" x="291.38" y="-163.5" font-family="Helvetica,sans-Serif" font-size="10.00">_with_kind::event</text>
</a>
</g>
</g>
<!-- Node1&#45;&gt;Node5 -->
<g id="edge4_Node000001_Node000005" class="edge">
<title>Node1&#45;&gt;Node5</title>
<g id="a_edge4_Node000001_Node000005"><a xlink:title=" ">
<path fill="none" stroke="#63b8ff" d="M184.47,-179C194.07,-179 203.77,-179 213.19,-179"/>
<polygon fill="#63b8ff" stroke="#63b8ff" points="213.01,-182.5 223.01,-179 213.01,-175.5 213.01,-182.5"/>
</a>
</g>
</g>
<!-- Node6 -->
<g id="Node000006" class="node">
<title>Node6</title>
<g id="a_Node000006"><a xlink:href="namespacedetail.html#afbe4518c767ced27133a1ca7027a02b0" target="_top" xlink:title=" ">
<polygon fill="white" stroke="#666666" points="335,-139 247.75,-139 247.75,-119 335,-119 335,-139"/>
<text xml:space="preserve" text-anchor="middle" x="291.38" y="-125.5" font-family="Helvetica,sans-Serif" font-size="10.00">detail::init_menu</text>
</a>
</g>
</g>
<!-- Node1&#45;&gt;Node6 -->
<g id="edge5_Node000001_Node000006" class="edge">
<title>Node1&#45;&gt;Node6</title>
<g id="a_edge5_Node000001_Node000006"><a xlink:title=" ">
<path fill="none" stroke="#63b8ff" d="M157.9,-162.56C183.92,-155.97 213.49,-148.48 238.09,-142.24"/>
<polygon fill="#63b8ff" stroke="#63b8ff" points="238.71,-145.7 247.55,-139.85 236.99,-138.91 238.71,-145.7"/>
</a>
</g>
</g>
<!-- Node7 -->
<g id="Node000007" class="node">
<title>Node7</title>
<g id="a_Node000007"><a xlink:href="namespacedetail.html#aeeadbaa968cbf337fbc005755d6df61d" target="_top" xlink:title=" ">
<polygon fill="white" stroke="#666666" points="339.12,-101 243.62,-101 243.62,-81 339.12,-81 339.12,-101"/>
<text xml:space="preserve" text-anchor="middle" x="291.38" y="-87.5" font-family="Helvetica,sans-Serif" font-size="10.00">detail::sync_menu</text>
</a>
</g>
</g>
<!-- Node1&#45;&gt;Node7 -->
<g id="edge6_Node000001_Node000007" class="edge">
<title>Node1&#45;&gt;Node7</title>
<g id="a_edge6_Node000001_Node000007"><a xlink:title=" ">
<path fill="none" stroke="#63b8ff" d="M118.88,-162.59C143.95,-147.27 183.42,-124.64 220,-110 224.69,-108.12 229.62,-106.37 234.61,-104.75"/>
<polygon fill="#63b8ff" stroke="#63b8ff" points="235.57,-108.12 244.11,-101.85 233.53,-101.42 235.57,-108.12"/>
</a>
</g>
</g>
<!-- Node3 -->
<g id="Node000003" class="node">
<title>Node3</title>
<g id="a_Node000003"><a xlink:href="namespaceimpl.html#a9339ce762762854d6234993b7ecb0e72" target="_top" xlink:title=" ">
<polygon fill="white" stroke="#666666" points="512.62,-319 404.38,-319 404.38,-287 512.62,-287 512.62,-319"/>
<text xml:space="preserve" text-anchor="start" x="412.38" y="-305.5" font-family="Helvetica,sans-Serif" font-size="10.00">impl::get_menu_view</text>
<text xml:space="preserve" text-anchor="middle" x="458.5" y="-293.5" font-family="Helvetica,sans-Serif" font-size="10.00">_injection</text>
</a>
</g>
</g>
<!-- Node2&#45;&gt;Node3 -->
<g id="edge2_Node000002_Node000003" class="edge">
<title>Node2&#45;&gt;Node3</title>
<g id="a_edge2_Node000002_Node000003"><a xlink:title=" ">
<path fill="none" stroke="#63b8ff" d="M362.88,-303C372.77,-303 382.9,-303 392.68,-303"/>
<polygon fill="#63b8ff" stroke="#63b8ff" points="392.45,-306.5 402.45,-303 392.45,-299.5 392.45,-306.5"/>
</a>
</g>
</g>
<!-- Node8 -->
<g id="Node000008" class="node">
<title>Node8</title>
<g id="a_Node000008"><a xlink:href="namespacedetail.html#a359da91d8e882921d526b9c247535941" target="_top" xlink:title=" ">
<polygon fill="white" stroke="#666666" points="518.25,-101 398.75,-101 398.75,-81 518.25,-81 518.25,-101"/>
<text xml:space="preserve" text-anchor="middle" x="458.5" y="-87.5" font-family="Helvetica,sans-Serif" font-size="10.00">detail::sync_menu_item</text>
</a>
</g>
</g>
<!-- Node7&#45;&gt;Node8 -->
<g id="edge7_Node000007_Node000008" class="edge">
<title>Node7&#45;&gt;Node8</title>
<g id="a_edge7_Node000007_Node000008"><a xlink:title=" ">
<path fill="none" stroke="#63b8ff" d="M339.25,-91C354.2,-91 371.09,-91 387.32,-91"/>
<polygon fill="#63b8ff" stroke="#63b8ff" points="386.91,-94.5 396.91,-91 386.91,-87.5 386.91,-94.5"/>
</a>
</g>
</g>
<!-- Node9 -->
<g id="Node000009" class="node">
<title>Node9</title>
<g id="a_Node000009"><a xlink:href="structdepicture__menu_1_1domain_1_1menu_1_1radialmenu__item.html#a8eba68344da6fb2bce085404df9ff831" target="_top" xlink:title=" ">
<polygon fill="white" stroke="#666666" points="677.5,-206 554.25,-206 554.25,-162 677.5,-162 677.5,-206"/>
<text xml:space="preserve" text-anchor="start" x="562.25" y="-192.5" font-family="Helvetica,sans-Serif" font-size="10.00">depicture_menu::domain</text>
<text xml:space="preserve" text-anchor="start" x="562.25" y="-180.5" font-family="Helvetica,sans-Serif" font-size="10.00">::menu::radialmenu_item</text>
<text xml:space="preserve" text-anchor="middle" x="615.88" y="-168.5" font-family="Helvetica,sans-Serif" font-size="10.00">::background</text>
</a>
</g>
</g>
<!-- Node8&#45;&gt;Node9 -->
<g id="edge8_Node000008_Node000009" class="edge">
<title>Node8&#45;&gt;Node9</title>
<g id="a_edge8_Node000008_Node000009"><a xlink:title=" ">
<path fill="none" stroke="#63b8ff" d="M474.29,-101.38C492.67,-114.13 525.18,-136.12 554.25,-153 556.09,-154.07 557.97,-155.14 559.88,-156.21"/>
<polygon fill="#63b8ff" stroke="#63b8ff" points="557.78,-159.05 568.24,-160.78 561.14,-152.91 557.78,-159.05"/>
</a>
</g>
</g>
<!-- Node10 -->
<g id="Node000010" class="node">
<title>Node10</title>
<g id="a_Node000010"><a xlink:href="structdepicture__menu_1_1domain_1_1menu_1_1radialmenu__item.html#a401fbb41b8231960bb8443168ddb56a5" target="_top" xlink:title=" ">
<polygon fill="white" stroke="#666666" points="677.5,-144 554.25,-144 554.25,-100 677.5,-100 677.5,-144"/>
<text xml:space="preserve" text-anchor="start" x="562.25" y="-130.5" font-family="Helvetica,sans-Serif" font-size="10.00">depicture_menu::domain</text>
<text xml:space="preserve" text-anchor="start" x="562.25" y="-118.5" font-family="Helvetica,sans-Serif" font-size="10.00">::menu::radialmenu_item</text>
<text xml:space="preserve" text-anchor="middle" x="615.88" y="-106.5" font-family="Helvetica,sans-Serif" font-size="10.00">::current_action_id</text>
</a>
</g>
</g>
<!-- Node8&#45;&gt;Node10 -->
<g id="edge9_Node000008_Node000010" class="edge">
<title>Node8&#45;&gt;Node10</title>
<g id="a_edge9_Node000008_Node000010"><a xlink:title=" ">
<path fill="none" stroke="#63b8ff" d="M512.1,-101.5C521.99,-103.47 532.49,-105.56 542.86,-107.63"/>
<polygon fill="#63b8ff" stroke="#63b8ff" points="542.04,-111.04 552.53,-109.56 543.41,-104.17 542.04,-111.04"/>
</a>
</g>
</g>
<!-- Node13 -->
<g id="Node000013" class="node">
<title>Node13</title>
<g id="a_Node000013"><a xlink:href="structdepicture__menu_1_1domain_1_1menu_1_1radialmenu__item.html#a4345d8dc99a845f0a3bc8c9210f01e42" target="_top" xlink:title=" ">
<polygon fill="white" stroke="#666666" points="677.5,-82 554.25,-82 554.25,-38 677.5,-38 677.5,-82"/>
<text xml:space="preserve" text-anchor="start" x="562.25" y="-68.5" font-family="Helvetica,sans-Serif" font-size="10.00">depicture_menu::domain</text>
<text xml:space="preserve" text-anchor="start" x="562.25" y="-56.5" font-family="Helvetica,sans-Serif" font-size="10.00">::menu::radialmenu_item</text>
<text xml:space="preserve" text-anchor="middle" x="615.88" y="-44.5" font-family="Helvetica,sans-Serif" font-size="10.00">::label</text>
</a>
</g>
</g>
<!-- Node8&#45;&gt;Node13 -->
<g id="edge12_Node000008_Node000013" class="edge">
<title>Node8&#45;&gt;Node13</title>
<g id="a_edge12_Node000008_Node000013"><a xlink:title=" ">
<path fill="none" stroke="#63b8ff" d="M512.1,-80.5C521.99,-78.53 532.49,-76.44 542.86,-74.37"/>
<polygon fill="#63b8ff" stroke="#63b8ff" points="543.41,-77.83 552.53,-72.44 542.04,-70.96 543.41,-77.83"/>
</a>
</g>
</g>
<!-- Node14 -->
<g id="Node000014" class="node">
<title>Node14</title>
<g id="a_Node000014"><a xlink:href="namespaceconv.html#af20d99984cac388d83795a94f7e44d03" target="_top" xlink:title=" ">
<polygon fill="white" stroke="#666666" points="653.5,-20 578.25,-20 578.25,0 653.5,0 653.5,-20"/>
<text xml:space="preserve" text-anchor="middle" x="615.88" y="-6.5" font-family="Helvetica,sans-Serif" font-size="10.00">conv::to_argb</text>
</a>
</g>
</g>
<!-- Node8&#45;&gt;Node14 -->
<g id="edge13_Node000008_Node000014" class="edge">
<title>Node8&#45;&gt;Node14</title>
<g id="a_edge13_Node000008_Node000014"><a xlink:title=" ">
<path fill="none" stroke="#63b8ff" d="M472.61,-80.72C490.29,-67.28 523.15,-43.7 554.25,-29 558.46,-27.01 562.92,-25.16 567.45,-23.46"/>
<polygon fill="#63b8ff" stroke="#63b8ff" points="568.32,-26.87 576.6,-20.26 566,-20.26 568.32,-26.87"/>
</a>
</g>
</g>
<!-- Node11 -->
<g id="Node000011" class="node">
<title>Node11</title>
<g id="a_Node000011"><a xlink:href="structdepicture__menu_1_1domain_1_1menu_1_1radialmenu__item.html#abaa0796bacff30852dbdf9eee08d38b2" target="_top" xlink:title=" ">
<polygon fill="white" stroke="#666666" points="836.75,-144 713.5,-144 713.5,-100 836.75,-100 836.75,-144"/>
<text xml:space="preserve" text-anchor="start" x="721.5" y="-130.5" font-family="Helvetica,sans-Serif" font-size="10.00">depicture_menu::domain</text>
<text xml:space="preserve" text-anchor="start" x="721.5" y="-118.5" font-family="Helvetica,sans-Serif" font-size="10.00">::menu::radialmenu_item</text>
<text xml:space="preserve" text-anchor="middle" x="775.12" y="-106.5" font-family="Helvetica,sans-Serif" font-size="10.00">::current_index</text>
</a>
</g>
</g>
<!-- Node10&#45;&gt;Node11 -->
<g id="edge10_Node000010_Node000011" class="edge">
<title>Node10&#45;&gt;Node11</title>
<g id="a_edge10_Node000010_Node000011"><a xlink:title=" ">
<path fill="none" stroke="#63b8ff" d="M677.67,-122C685.6,-122 693.79,-122 701.88,-122"/>
<polygon fill="#63b8ff" stroke="#63b8ff" points="701.72,-125.5 711.72,-122 701.72,-118.5 701.72,-125.5"/>
</a>
</g>
</g>
<!-- Node12 -->
<g id="Node000012" class="node">
<title>Node12</title>
<g id="a_Node000012"><a xlink:href="structdepicture__menu_1_1domain_1_1menu_1_1radialmenu__item.html#adee607b452fafcf8b6aa3ce5471f87a4" target="_top" xlink:title=" ">
<polygon fill="white" stroke="#666666" points="996,-144 872.75,-144 872.75,-100 996,-100 996,-144"/>
<text xml:space="preserve" text-anchor="start" x="880.75" y="-130.5" font-family="Helvetica,sans-Serif" font-size="10.00">depicture_menu::domain</text>
<text xml:space="preserve" text-anchor="start" x="880.75" y="-118.5" font-family="Helvetica,sans-Serif" font-size="10.00">::menu::radialmenu_item</text>
<text xml:space="preserve" text-anchor="middle" x="934.38" y="-106.5" font-family="Helvetica,sans-Serif" font-size="10.00">::com_kind_to_index</text>
</a>
</g>
</g>
<!-- Node11&#45;&gt;Node12 -->
<g id="edge11_Node000011_Node000012" class="edge">
<title>Node11&#45;&gt;Node12</title>
<g id="a_edge11_Node000011_Node000012"><a xlink:title=" ">
<path fill="none" stroke="#63b8ff" d="M836.92,-122C844.85,-122 853.04,-122 861.13,-122"/>
<polygon fill="#63b8ff" stroke="#63b8ff" points="860.97,-125.5 870.97,-122 860.97,-118.5 860.97,-125.5"/>
</a>
</g>
</g>
<!-- Node15 -->
<g id="Node000015" class="node">
<title>Node15</title>
<g id="a_Node000015"><a xlink:href="namespaceconv.html#a0d36dbff0aca8cee63ee6327d838b728" target="_top" xlink:title=" ">
<polygon fill="white" stroke="#666666" points="824.75,-20 725.5,-20 725.5,0 824.75,0 824.75,-20"/>
<text xml:space="preserve" text-anchor="middle" x="775.12" y="-6.5" font-family="Helvetica,sans-Serif" font-size="10.00">conv::rgba_to_argb</text>
</a>
</g>
</g>
<!-- Node14&#45;&gt;Node15 -->
<g id="edge14_Node000014_Node000015" class="edge">
<title>Node14&#45;&gt;Node15</title>
<g id="a_edge14_Node000014_Node000015"><a xlink:title=" ">
<path fill="none" stroke="#63b8ff" d="M653.74,-10C671.66,-10 693.65,-10 713.91,-10"/>
<polygon fill="#63b8ff" stroke="#63b8ff" points="713.76,-13.5 723.76,-10 713.76,-6.5 713.76,-13.5"/>
</a>
</g>
</g>
</g>
</svg>

<g id="navigator" transform="translate(0 0)" fill="#404254">
  <rect fill="#f2f5e9" fill-opacity="0.5" stroke="#606060" stroke-width=".5" x="0" y="0" width="60" height="60"/>
  <use id="zoomplus" xlink:href="#zoomPlus" x="17" y="9" onmousedown="handleZoom(evt,'in')"/>
  <use id="zoomminus" xlink:href="#zoomMin" x="42" y="9" onmousedown="handleZoom(evt,'out')"/>
  <use id="reset" xlink:href="#resetDef" x="30" y="36" onmousedown="handleReset()"/>
   <use id="arrowup" xlink:href="#arrowUp" x="0" y="0" onmousedown="handlePan(0,-1)"/>
  <use id="arrowright" xlink:href="#arrowRight" x="0" y="0" onmousedown="handlePan(1,0)"/>
  <use id="arrowdown" xlink:href="#arrowDown" x="0" y="0" onmousedown="handlePan(0,1)"/>
  <use id="arrowleft" xlink:href="#arrowLeft" x="0" y="0" onmousedown="handlePan(-1,0)"/>
</g>
<svg viewBox="0 0 15 15" width="100%" height="30px" preserveAspectRatio="xMaxYMin meet">
 <g id="arrow_out" transform="scale(0.3 0.3)">
  <a xlink:href="classdepicture__menu_1_1presentations_1_1menu__view__presenter_a7e4294a6963d9e8c10bce17929ce960f_cgraph_org.svg" target="_base">
   <rect id="button" ry="5" rx="5" y="6" x="6" height="38" width="38"
        fill="#f2f5e9" fill-opacity="0.5" stroke="#606060" stroke-width="1.0"/>
   <path id="arrow"
     d="M 11.500037,31.436501 C 11.940474,20.09759 22.043105,11.32322 32.158766,21.979434 L 37.068811,17.246167 C 37.068811,17.246167 37.088388,32 37.088388,32 L 22.160133,31.978069 C 22.160133,31.978069 26.997745,27.140456 26.997745,27.140456 C 18.528582,18.264221 13.291696,25.230495 11.500037,31.436501 z"
     style="fill:#404040;"/>
  </a>
 </g>
</svg>

<style type='text/css'>
<![CDATA[
[data-mouse-over-selected='false'] { opacity: 0.7; }
[data-mouse-over-selected='true']  { opacity: 1.0; }
]]>
</style>
<script type="application/ecmascript"><![CDATA[
document.addEventListener('DOMContentLoaded', (event) => {
  highlightEdges();
  highlightAdjacentNodes();
});
]]></script>
</svg>
