<?xml version="1.0" encoding="UTF-8" standalone="no"?>
<!DOCTYPE svg PUBLIC "-//W3C//DTD SVG 1.1//EN"
 "http://www.w3.org/Graphics/SVG/1.1/DTD/svg11.dtd">
<!-- Generated by graphviz version 14.1.2 (20260124.0452)
 -->
<!-- Title: depicture_menu::domain::services::action_default_name_update_service::update Pages: 1 -->
<svg width="502pt" height="226pt"
 viewBox="0.00 0.00 502.00 226.00" xmlns="http://www.w3.org/2000/svg" xmlns:xlink="http://www.w3.org/1999/xlink">
<g id="graph0" class="graph" transform="scale(1 1) rotate(0) translate(4 222)">
<title>depicture_menu::domain::services::action_default_name_update_service::update</title>
<!-- Node1 -->
<g id="Node000001" class="node">
<title>Node1</title>
<g id="a_Node000001"><a xlink:title=" ">
<polygon fill="#999999" stroke="#666666" points="151.75,-128 0,-128 0,-84 151.75,-84 151.75,-128"/>
<text xml:space="preserve" text-anchor="start" x="8" y="-114.5" font-family="Helvetica,sans-Serif" font-size="10.00">depicture_menu::domain</text>
<text xml:space="preserve" text-anchor="start" x="8" y="-102.5" font-family="Helvetica,sans-Serif" font-size="10.00">::services::action_default</text>
<text xml:space="preserve" text-anchor="middle" x="75.88" y="-90.5" font-family="Helvetica,sans-Serif" font-size="10.00">_name_update_service::update</text>
</a>
</g>
</g>
<!-- Node2 -->
<g id="Node000002" class="node">
<title>Node2</title>
<g id="a_Node000002"><a xlink:href="classdepicture__menu_1_1domain_1_1actions_1_1v2_1_1publisher.html#ab25f4fa5d9979e93300a7dfb41d8bbb5" target="_top" xlink:title=" ">
<polygon fill="white" stroke="#666666" points="311.75,-218 189.25,-218 189.25,-174 311.75,-174 311.75,-218"/>
<text xml:space="preserve" text-anchor="start" x="197.25" y="-204.5" font-family="Helvetica,sans-Serif" font-size="10.00">depicture_menu::domain</text>
<text xml:space="preserve" text-anchor="start" x="197.25" y="-192.5" font-family="Helvetica,sans-Serif" font-size="10.00">::actions::v2::publisher</text>
<text xml:space="preserve" text-anchor="middle" x="250.5" y="-180.5" font-family="Helvetica,sans-Serif" font-size="10.00">::default_name</text>
</a>
</g>
</g>
<!-- Node1&#45;&gt;Node2 -->
<g id="edge1_Node000001_Node000002" class="edge">
<title>Node1&#45;&gt;Node2</title>
<g id="a_edge1_Node000001_Node000002"><a xlink:title=" ">
<path fill="none" stroke="#63b8ff" d="M118.35,-128.37C139.12,-139.5 164.7,-153.08 187.75,-165 189.96,-166.14 192.21,-167.3 194.49,-168.47"/>
<polygon fill="#63b8ff" stroke="#63b8ff" points="192.73,-171.5 203.23,-172.92 195.91,-165.26 192.73,-171.5"/>
</a>
</g>
</g>
<!-- Node3 -->
<g id="Node000003" class="node">
<title>Node3</title>
<g id="a_Node000003"><a xlink:href="classdepicture__menu_1_1domain_1_1actions_1_1v2_1_1publisher.html#a2e1eda34739a4aa44609b140dfda7d9e" target="_top" xlink:title=" ">
<polygon fill="white" stroke="#666666" points="313.25,-156 187.75,-156 187.75,-112 313.25,-112 313.25,-156"/>
<text xml:space="preserve" text-anchor="start" x="195.75" y="-142.5" font-family="Helvetica,sans-Serif" font-size="10.00">depicture_menu::domain</text>
<text xml:space="preserve" text-anchor="start" x="195.75" y="-130.5" font-family="Helvetica,sans-Serif" font-size="10.00">::actions::v2::publisher</text>
<text xml:space="preserve" text-anchor="middle" x="250.5" y="-118.5" font-family="Helvetica,sans-Serif" font-size="10.00">::get_command_id_range</text>
</a>
</g>
</g>
<!-- Node1&#45;&gt;Node3 -->
<g id="edge2_Node000001_Node000003" class="edge">
<title>Node1&#45;&gt;Node3</title>
<g id="a_edge2_Node000001_Node000003"><a xlink:title=" ">
<path fill="none" stroke="#63b8ff" d="M152.09,-118.2C160.12,-119.5 168.28,-120.83 176.28,-122.12"/>
<polygon fill="#63b8ff" stroke="#63b8ff" points="175.54,-125.55 185.97,-123.7 176.66,-118.64 175.54,-125.55"/>
</a>
</g>
</g>
<!-- Node4 -->
<g id="Node000004" class="node">
<title>Node4</title>
<g id="a_Node000004"><a xlink:href="namespacedepicture__menu_1_1util_1_1strconv.html#ae6043222bd0621e53262d5c29417c416" target="_top" xlink:title=" ">
<polygon fill="white" stroke="#666666" points="307.62,-94 193.38,-94 193.38,-62 307.62,-62 307.62,-94"/>
<text xml:space="preserve" text-anchor="start" x="201.38" y="-80.5" font-family="Helvetica,sans-Serif" font-size="10.00">depicture_menu::util</text>
<text xml:space="preserve" text-anchor="middle" x="250.5" y="-68.5" font-family="Helvetica,sans-Serif" font-size="10.00">::strconv::sjis_to_wide</text>
</a>
</g>
</g>
<!-- Node1&#45;&gt;Node4 -->
<g id="edge3_Node000001_Node000004" class="edge">
<title>Node1&#45;&gt;Node4</title>
<g id="a_edge3_Node000001_Node000004"><a xlink:title=" ">
<path fill="none" stroke="#63b8ff" d="M152.09,-93.8C161.95,-92.2 172.01,-90.57 181.73,-88.99"/>
<polygon fill="#63b8ff" stroke="#63b8ff" points="182.17,-92.47 191.48,-87.41 181.05,-85.56 182.17,-92.47"/>
</a>
</g>
</g>
<!-- Node5 -->
<g id="Node000005" class="node">
<title>Node5</title>
<g id="a_Node000005"><a xlink:href="classdepicture__menu_1_1domain_1_1actions_1_1v2_1_1publisher.html#a882bc16cc29faa92dd9773dc3fbcdfbb" target="_top" xlink:title=" ">
<polygon fill="white" stroke="#666666" points="311.75,-44 189.25,-44 189.25,0 311.75,0 311.75,-44"/>
<text xml:space="preserve" text-anchor="start" x="197.25" y="-30.5" font-family="Helvetica,sans-Serif" font-size="10.00">depicture_menu::domain</text>
<text xml:space="preserve" text-anchor="start" x="197.25" y="-18.5" font-family="Helvetica,sans-Serif" font-size="10.00">::actions::v2::publisher</text>
<text xml:space="preserve" text-anchor="middle" x="250.5" y="-6.5" font-family="Helvetica,sans-Serif" font-size="10.00">::update_default_name</text>
</a>
</g>
</g>
<!-- Node1&#45;&gt;Node5 -->
<g id="edge4_Node000001_Node000005" class="edge">
<title>Node1&#45;&gt;Node5</title>
<g id="a_edge4_Node000001_Node000005"><a xlink:title=" ">
<path fill="none" stroke="#63b8ff" d="M122.68,-83.71C144.34,-73.17 170.39,-60.49 193.24,-49.38"/>
<polygon fill="#63b8ff" stroke="#63b8ff" points="194.66,-52.58 202.12,-45.06 191.59,-46.28 194.66,-52.58"/>
</a>
</g>
</g>
<!-- Node6 -->
<g id="Node000006" class="node">
<title>Node6</title>
<g id="a_Node000006"><a xlink:href="classdepicture__menu_1_1domain_1_1actions_1_1v2_1_1publisher.html#adc656ab8ca20cd539024e45181209ed2" target="_top" xlink:title=" ">
<polygon fill="white" stroke="#666666" points="494.25,-38 349.25,-38 349.25,-6 494.25,-6 494.25,-38"/>
<text xml:space="preserve" text-anchor="start" x="357.25" y="-24.5" font-family="Helvetica,sans-Serif" font-size="10.00">depicture_menu::domain</text>
<text xml:space="preserve" text-anchor="middle" x="421.75" y="-12.5" font-family="Helvetica,sans-Serif" font-size="10.00">::actions::v2::publisher::name</text>
</a>
</g>
</g>
<!-- Node5&#45;&gt;Node6 -->
<g id="edge5_Node000005_Node000006" class="edge">
<title>Node5&#45;&gt;Node6</title>
<g id="a_edge5_Node000005_Node000006"><a xlink:title=" ">
<path fill="none" stroke="#63b8ff" d="M312.13,-22C320.44,-22 329.08,-22 337.71,-22"/>
<polygon fill="#63b8ff" stroke="#63b8ff" points="337.49,-25.5 347.49,-22 337.49,-18.5 337.49,-25.5"/>
</a>
</g>
</g>
</g>
</svg>
