<?xml version="1.0" encoding="UTF-8" standalone="no"?>
<!DOCTYPE svg PUBLIC "-//W3C//DTD SVG 1.1//EN"
 "http://www.w3.org/Graphics/SVG/1.1/DTD/svg11.dtd">
<!-- Generated by graphviz version 14.1.2 (20260124.0452)
 -->
<!-- Title: depicture_menu::applications::config_view_factory::config_view_observer::operator() Pages: 1 -->
<svg width="1006pt" height="198pt"
 viewBox="0.00 0.00 1006.00 198.00" xmlns="http://www.w3.org/2000/svg" xmlns:xlink="http://www.w3.org/1999/xlink">
<g id="graph0" class="graph" transform="scale(1 1) rotate(0) translate(4 194)">
<title>depicture_menu::applications::config_view_factory::config_view_observer::operator()</title>
<!-- Node1 -->
<g id="Node000001" class="node">
<title>Node1</title>
<g id="a_Node000001"><a xlink:title="ConfMenuItem &quot;IsActive&quot;">
<polygon fill="#999999" stroke="#666666" points="142.75,-128 0,-128 0,-84 142.75,-84 142.75,-128"/>
<text xml:space="preserve" text-anchor="start" x="8" y="-114.5" font-family="Helvetica,sans-Serif" font-size="10.00">depicture_menu::applications</text>
<text xml:space="preserve" text-anchor="start" x="8" y="-102.5" font-family="Helvetica,sans-Serif" font-size="10.00">::config_view_factory::config</text>
<text xml:space="preserve" text-anchor="middle" x="71.38" y="-90.5" font-family="Helvetica,sans-Serif" font-size="10.00">_view_observer::operator()</text>
</a>
</g>
</g>
<!-- Node2 -->
<g id="Node000002" class="node">
<title>Node2</title>
<g id="a_Node000002"><a xlink:href="classdepicture__menu_1_1applications_1_1config__view__factory_1_1config__view__observer.html#a10fcb18a39c679e36e7b77c59c3c4f4f" target="_top" xlink:title="config_idの取得">
<polygon fill="white" stroke="#666666" points="321.5,-190 178.75,-190 178.75,-146 321.5,-146 321.5,-190"/>
<text xml:space="preserve" text-anchor="start" x="186.75" y="-176.5" font-family="Helvetica,sans-Serif" font-size="10.00">depicture_menu::applications</text>
<text xml:space="preserve" text-anchor="start" x="186.75" y="-164.5" font-family="Helvetica,sans-Serif" font-size="10.00">::config_view_factory::config</text>
<text xml:space="preserve" text-anchor="middle" x="250.12" y="-152.5" font-family="Helvetica,sans-Serif" font-size="10.00">_view_observer::cfg_id</text>
</a>
</g>
</g>
<!-- Node1&#45;&gt;Node2 -->
<g id="edge1_Node000001_Node000002" class="edge">
<title>Node1&#45;&gt;Node2</title>
<g id="a_edge1_Node000001_Node000002"><a xlink:title=" ">
<path fill="none" stroke="#63b8ff" d="M136.44,-128.47C148.79,-132.8 161.82,-137.38 174.47,-141.81"/>
<polygon fill="#63b8ff" stroke="#63b8ff" points="172.96,-144.99 183.56,-145 175.28,-138.39 172.96,-144.99"/>
</a>
</g>
</g>
<!-- Node3 -->
<g id="Node000003" class="node">
<title>Node3</title>
<g id="a_Node000003"><a xlink:href="classdepicture__menu_1_1applications_1_1config__view__factory_1_1config__view__observer.html#ad1303825ceb3a5f56ac7fd8bc1120377" target="_top" xlink:title="dispaterを呼び出す">
<polygon fill="white" stroke="#666666" points="321.5,-128 178.75,-128 178.75,-84 321.5,-84 321.5,-128"/>
<text xml:space="preserve" text-anchor="start" x="186.75" y="-114.5" font-family="Helvetica,sans-Serif" font-size="10.00">depicture_menu::applications</text>
<text xml:space="preserve" text-anchor="start" x="186.75" y="-102.5" font-family="Helvetica,sans-Serif" font-size="10.00">::config_view_factory::config</text>
<text xml:space="preserve" text-anchor="middle" x="250.12" y="-90.5" font-family="Helvetica,sans-Serif" font-size="10.00">_view_observer::opt_id</text>
</a>
</g>
</g>
<!-- Node1&#45;&gt;Node3 -->
<g id="edge2_Node000001_Node000003" class="edge">
<title>Node1&#45;&gt;Node3</title>
<g id="a_edge2_Node000001_Node000003"><a xlink:title=" ">
<path fill="none" stroke="#63b8ff" d="M143.25,-106C151.15,-106 159.24,-106 167.26,-106"/>
<polygon fill="#63b8ff" stroke="#63b8ff" points="167.01,-109.5 177.01,-106 167.01,-102.5 167.01,-109.5"/>
</a>
</g>
</g>
<!-- Node4 -->
<g id="Node000004" class="node">
<title>Node4</title>
<g id="a_Node000004"><a xlink:href="classdepicture__menu_1_1applications_1_1config__view__factory_1_1config__view__observer.html#a6368a0a839dd3d9074361f068bf77de3" target="_top" xlink:title=" ">
<polygon fill="white" stroke="#666666" points="321.5,-66 178.75,-66 178.75,-22 321.5,-22 321.5,-66"/>
<text xml:space="preserve" text-anchor="start" x="186.75" y="-52.5" font-family="Helvetica,sans-Serif" font-size="10.00">depicture_menu::applications</text>
<text xml:space="preserve" text-anchor="start" x="186.75" y="-40.5" font-family="Helvetica,sans-Serif" font-size="10.00">::config_view_factory::config</text>
<text xml:space="preserve" text-anchor="middle" x="250.12" y="-28.5" font-family="Helvetica,sans-Serif" font-size="10.00">_view_observer::relay</text>
</a>
</g>
</g>
<!-- Node1&#45;&gt;Node4 -->
<g id="edge3_Node000001_Node000004" class="edge">
<title>Node1&#45;&gt;Node4</title>
<g id="a_edge3_Node000001_Node000004"><a xlink:title=" ">
<path fill="none" stroke="#63b8ff" d="M136.44,-83.53C148.79,-79.2 161.82,-74.62 174.47,-70.19"/>
<polygon fill="#63b8ff" stroke="#63b8ff" points="175.28,-73.61 183.56,-67 172.96,-67.01 175.28,-73.61"/>
</a>
</g>
</g>
<!-- Node5 -->
<g id="Node000005" class="node">
<title>Node5</title>
<g id="a_Node000005"><a xlink:href="namespacedepicture__menu_1_1applications.html#a7ea63a2945eb75bfc5fb5e79d1d08778" target="_top" xlink:title=" ">
<polygon fill="white" stroke="#666666" points="500.25,-60 357.5,-60 357.5,-28 500.25,-28 500.25,-60"/>
<text xml:space="preserve" text-anchor="start" x="365.5" y="-46.5" font-family="Helvetica,sans-Serif" font-size="10.00">depicture_menu::applications</text>
<text xml:space="preserve" text-anchor="middle" x="428.88" y="-34.5" font-family="Helvetica,sans-Serif" font-size="10.00">::run_worker</text>
</a>
</g>
</g>
<!-- Node4&#45;&gt;Node5 -->
<g id="edge4_Node000004_Node000005" class="edge">
<title>Node4&#45;&gt;Node5</title>
<g id="a_edge4_Node000004_Node000005"><a xlink:title=" ">
<path fill="none" stroke="#63b8ff" d="M322,-44C329.9,-44 337.99,-44 346.01,-44"/>
<polygon fill="#63b8ff" stroke="#63b8ff" points="345.76,-47.5 355.76,-44 345.76,-40.5 345.76,-47.5"/>
</a>
</g>
</g>
<!-- Node6 -->
<g id="Node000006" class="node">
<title>Node6</title>
<g id="a_Node000006"><a xlink:href="classdepicture__menu_1_1singleton.html#ab3a8df96e817c8ccb1ab61434f90c416" target="_top" xlink:title=" ">
<polygon fill="white" stroke="#666666" points="666.25,-66 536.25,-66 536.25,-22 666.25,-22 666.25,-66"/>
<text xml:space="preserve" text-anchor="start" x="544.25" y="-52.5" font-family="Helvetica,sans-Serif" font-size="10.00">depicture_menu::singleton</text>
<text xml:space="preserve" text-anchor="start" x="544.25" y="-40.5" font-family="Helvetica,sans-Serif" font-size="10.00">&lt; detail_applications::</text>
<text xml:space="preserve" text-anchor="middle" x="601.25" y="-28.5" font-family="Helvetica,sans-Serif" font-size="10.00">pool &gt;::get_instance</text>
</a>
</g>
</g>
<!-- Node5&#45;&gt;Node6 -->
<g id="edge5_Node000005_Node000006" class="edge">
<title>Node5&#45;&gt;Node6</title>
<g id="a_edge5_Node000005_Node000006"><a xlink:title=" ">
<path fill="none" stroke="#63b8ff" d="M500.65,-44C508.51,-44 516.54,-44 524.46,-44"/>
<polygon fill="#63b8ff" stroke="#63b8ff" points="524.45,-47.5 534.45,-44 524.45,-40.5 524.45,-47.5"/>
</a>
</g>
</g>
<!-- Node7 -->
<g id="Node000007" class="node">
<title>Node7</title>
<g id="a_Node000007"><a xlink:href="classdepicture__menu_1_1singleton.html#a9aaa3a707bf7abdb4eb491037c31e16c" target="_top" xlink:title=" ">
<polygon fill="white" stroke="#666666" points="832.25,-66 702.25,-66 702.25,-22 832.25,-22 832.25,-66"/>
<text xml:space="preserve" text-anchor="start" x="710.25" y="-52.5" font-family="Helvetica,sans-Serif" font-size="10.00">depicture_menu::singleton</text>
<text xml:space="preserve" text-anchor="start" x="710.25" y="-40.5" font-family="Helvetica,sans-Serif" font-size="10.00">&lt; detail_applications::</text>
<text xml:space="preserve" text-anchor="middle" x="767.25" y="-28.5" font-family="Helvetica,sans-Serif" font-size="10.00">pool &gt;::create</text>
</a>
</g>
</g>
<!-- Node6&#45;&gt;Node7 -->
<g id="edge6_Node000006_Node000007" class="edge">
<title>Node6&#45;&gt;Node7</title>
<g id="a_edge6_Node000006_Node000007"><a xlink:title=" ">
<path fill="none" stroke="#63b8ff" d="M666.6,-44C674.46,-44 682.56,-44 690.58,-44"/>
<polygon fill="#63b8ff" stroke="#63b8ff" points="690.31,-47.5 700.31,-44 690.31,-40.5 690.31,-47.5"/>
</a>
</g>
</g>
<!-- Node8 -->
<g id="Node000008" class="node">
<title>Node8</title>
<g id="a_Node000008"><a xlink:href="structdepicture__menu_1_1detail_1_1singleton__finalizer.html#a350b38d28c26319fe9848a4c63602f3a" target="_top" xlink:title=" ">
<polygon fill="white" stroke="#666666" points="990.38,-94 876.12,-94 876.12,-50 990.38,-50 990.38,-94"/>
<text xml:space="preserve" text-anchor="start" x="884.12" y="-80.5" font-family="Helvetica,sans-Serif" font-size="10.00">depicture_menu::detail</text>
<text xml:space="preserve" text-anchor="start" x="884.12" y="-68.5" font-family="Helvetica,sans-Serif" font-size="10.00">::singleton_finalizer</text>
<text xml:space="preserve" text-anchor="middle" x="933.25" y="-56.5" font-family="Helvetica,sans-Serif" font-size="10.00">::add_finalizer</text>
</a>
</g>
</g>
<!-- Node7&#45;&gt;Node8 -->
<g id="edge7_Node000007_Node000008" class="edge">
<title>Node7&#45;&gt;Node8</title>
<g id="a_edge7_Node000007_Node000008"><a xlink:title=" ">
<path fill="none" stroke="#63b8ff" d="M832.6,-54.99C843.07,-56.77 853.96,-58.63 864.51,-60.44"/>
<polygon fill="#63b8ff" stroke="#63b8ff" points="863.87,-63.88 874.31,-62.11 865.05,-56.98 863.87,-63.88"/>
</a>
</g>
</g>
<!-- Node9 -->
<g id="Node000009" class="node">
<title>Node9</title>
<g id="a_Node000009"><a xlink:href="classdepicture__menu_1_1singleton.html#a64280934d7ab4a2f91e1d5c88c28ac8a" target="_top" xlink:title=" ">
<polygon fill="white" stroke="#666666" points="998.25,-32 868.25,-32 868.25,0 998.25,0 998.25,-32"/>
<text xml:space="preserve" text-anchor="start" x="876.25" y="-18.5" font-family="Helvetica,sans-Serif" font-size="10.00">depicture_menu::singleton</text>
<text xml:space="preserve" text-anchor="middle" x="933.25" y="-6.5" font-family="Helvetica,sans-Serif" font-size="10.00">::destroy</text>
</a>
</g>
</g>
<!-- Node7&#45;&gt;Node9 -->
<g id="edge8_Node000007_Node000009" class="edge">
<title>Node7&#45;&gt;Node9</title>
<g id="a_edge8_Node000007_Node000009"><a xlink:title=" ">
<path fill="none" stroke="#63b8ff" d="M832.6,-33.01C840.46,-31.67 848.56,-30.29 856.58,-28.92"/>
<polygon fill="#63b8ff" stroke="#63b8ff" points="857.06,-32.39 866.33,-27.25 855.88,-25.49 857.06,-32.39"/>
</a>
</g>
</g>
</g>
</svg>
