<?xml version="1.0" encoding="UTF-8" standalone="no"?>
<!DOCTYPE svg PUBLIC "-//W3C//DTD SVG 1.1//EN"
 "http://www.w3.org/Graphics/SVG/1.1/DTD/svg11.dtd">
<!-- Generated by graphviz version 14.1.2 (20260124.0452)
 -->
<!-- Title: depicture_menu::repositories::on_memory_repository&lt; T &gt; Pages: 1 -->
<!--zoomable 178 -->

<svg id="main" version="1.1" xmlns="http://www.w3.org/2000/svg" xmlns:xlink="http://www.w3.org/1999/xlink" xml:space="preserve" onload="init(evt)">

<style type="text/css"><![CDATA[
.node, .edge {opacity: 0.7;}
.node.selected, .edge.selected {opacity: 1;}
.edge:hover path { stroke: red; }
.edge:hover polygon { stroke: red; fill: red; }
]]></style>

<defs>
  <circle id="rim" cx="0" cy="0" r="7"/>
  <circle id="rim2" cx="0" cy="0" r="3.5"/>
  <g id="zoomPlus">
    <use xlink:href="#rim" fill="#404040"><set attributeName="fill" to="#808080" begin="zoomplus.mouseover" end="zoomplus.mouseout"/></use>
    <path d="M-4,0h8M0,-4v8" fill="none" stroke="white" stroke-width="1.5" pointer-events="none"/>
  </g>
  <g id="zoomMin">
    <use xlink:href="#rim" fill="#404040"><set attributeName="fill" to="#808080" begin="zoomminus.mouseover" end="zoomminus.mouseout"/></use>
    <path d="M-4,0h8" fill="none" stroke="white" stroke-width="1.5" pointer-events="none"/>
  </g>
  <g id="arrowUp" transform="translate(30 24)">
    <use xlink:href="#rim"/>
    <path pointer-events="none" fill="none" stroke="white" stroke-width="1.5" d="M0,-3.0v7 M-2.5,-0.5L0,-3.0L2.5,-0.5"/>
  </g>
  <g id="arrowRight" transform="rotate(90) translate(36 -43)">
    <use xlink:href="#rim"/>
    <path pointer-events="none" fill="none" stroke="white" stroke-width="1.5" d="M0,-3.0v7 M-2.5,-0.5L0,-3.0L2.5,-0.5"/>
  </g>
  <g id="arrowDown" transform="rotate(180) translate(-30 -48)">
    <use xlink:href="#rim"/>
    <path pointer-events="none" fill="none" stroke="white" stroke-width="1.5" d="M0,-3.0v7 M-2.5,-0.5L0,-3.0L2.5,-0.5"/>
  </g>
  <g id="arrowLeft" transform="rotate(270) translate(-36 17)">
    <use xlink:href="#rim"/>
    <path pointer-events="none" fill="none" stroke="white" stroke-width="1.5" d="M0,-3.0v7 M-2.5,-0.5L0,-3.0L2.5,-0.5"/>
  </g>
  <g id="resetDef">
    <use xlink:href="#rim2" fill="#404040"><set attributeName="fill" to="#808080" begin="reset.mouseover" end="reset.mouseout"/></use>
  </g>
</defs>
<script type="application/ecmascript">
var viewWidth = 665;
var viewHeight = 178;
var sectionId = 'dynsection-0';
</script>
<script type="application/ecmascript" xlink:href="svg.min.js"/>
<svg id="graph" class="graph">
<g id="viewport">
<title>depicture_menu::repositories::on_memory_repository&lt; T &gt;</title>
<!-- Node1 -->
<g id="Node000001" class="node">
<title>Node1</title>
<g id="a_Node000001"><a xlink:title=" ">
<polygon fill="#999999" stroke="#666666" points="493.5,-95 349.25,-95 349.25,-63 493.5,-63 493.5,-95"/>
<text xml:space="preserve" text-anchor="start" x="357.25" y="-81.5" font-family="Helvetica,sans-Serif" font-size="10.00">depicture_menu::repositories</text>
<text xml:space="preserve" text-anchor="middle" x="421.38" y="-69.5" font-family="Helvetica,sans-Serif" font-size="10.00">::on_memory_repository&lt; T &gt;</text>
</a>
</g>
</g>
<!-- Node5 -->
<g id="Node000005" class="node">
<title>Node5</title>
<g id="a_Node000005"><a xlink:href="structtest__repository.html" target="_top" xlink:title=" ">
<polygon fill="white" stroke="#666666" points="651.62,-170 535.12,-170 535.12,-138 651.62,-138 651.62,-170"/>
<text xml:space="preserve" text-anchor="start" x="543.12" y="-156.5" font-family="Helvetica,sans-Serif" font-size="10.00">test_repository&lt; dd</text>
<text xml:space="preserve" text-anchor="middle" x="593.38" y="-144.5" font-family="Helvetica,sans-Serif" font-size="10.00">::commands::invoker &gt;</text>
</a>
</g>
</g>
<!-- Node1&#45;&gt;Node5 -->
<g id="edge4_Node000001_Node000005" class="edge">
<title>Node1&#45;&gt;Node5</title>
<g id="a_edge4_Node000001_Node000005"><a xlink:title=" ">
<path fill="none" stroke="#63b8ff" d="M466.66,-100.38C485.86,-109.46 508.67,-120.01 529.5,-129 536.08,-131.84 543.09,-134.75 549.96,-137.53"/>
<polygon fill="#63b8ff" stroke="#63b8ff" points="468.3,-97.28 457.77,-96.15 465.3,-103.6 468.3,-97.28"/>
</a>
</g>
</g>
<!-- Node6 -->
<g id="Node000006" class="node">
<title>Node6</title>
<g id="a_Node000006"><a xlink:href="structtest__repository.html" target="_top" xlink:title=" ">
<polygon fill="white" stroke="#666666" points="647.12,-120 539.62,-120 539.62,-88 647.12,-88 647.12,-120"/>
<text xml:space="preserve" text-anchor="start" x="547.62" y="-106.5" font-family="Helvetica,sans-Serif" font-size="10.00">test_repository&lt; dd</text>
<text xml:space="preserve" text-anchor="middle" x="593.38" y="-94.5" font-family="Helvetica,sans-Serif" font-size="10.00">::actions::publisher &gt;</text>
</a>
</g>
</g>
<!-- Node1&#45;&gt;Node6 -->
<g id="edge5_Node000001_Node000006" class="edge">
<title>Node1&#45;&gt;Node6</title>
<g id="a_edge5_Node000001_Node000006"><a xlink:title=" ">
<path fill="none" stroke="#63b8ff" d="M505.06,-91.16C516.67,-92.87 528.34,-94.58 539.2,-96.18"/>
<polygon fill="#63b8ff" stroke="#63b8ff" points="505.88,-87.74 495.48,-89.75 504.86,-94.67 505.88,-87.74"/>
</a>
</g>
</g>
<!-- Node7 -->
<g id="Node000007" class="node">
<title>Node7</title>
<g id="a_Node000007"><a xlink:href="structtest__repository.html" target="_top" xlink:title=" ">
<polygon fill="white" stroke="#666666" points="657.25,-70 529.5,-70 529.5,-38 657.25,-38 657.25,-70"/>
<text xml:space="preserve" text-anchor="start" x="537.5" y="-56.5" font-family="Helvetica,sans-Serif" font-size="10.00">test_repository&lt; dd</text>
<text xml:space="preserve" text-anchor="middle" x="593.38" y="-44.5" font-family="Helvetica,sans-Serif" font-size="10.00">::commands::command &gt;</text>
</a>
</g>
</g>
<!-- Node1&#45;&gt;Node7 -->
<g id="edge6_Node000001_Node000007" class="edge">
<title>Node1&#45;&gt;Node7</title>
<g id="a_edge6_Node000001_Node000007"><a xlink:title=" ">
<path fill="none" stroke="#63b8ff" d="M505.3,-66.8C513.35,-65.62 521.41,-64.44 529.22,-63.29"/>
<polygon fill="#63b8ff" stroke="#63b8ff" points="504.86,-63.33 495.48,-68.25 505.88,-70.26 504.86,-63.33"/>
</a>
</g>
</g>
<!-- Node8 -->
<g id="Node000008" class="node">
<title>Node8</title>
<g id="a_Node000008"><a xlink:href="structtest__repository.html" target="_top" xlink:title="@TODO invalid test">
<polygon fill="white" stroke="#666666" points="645.25,-20 541.5,-20 541.5,0 645.25,0 645.25,-20"/>
<text xml:space="preserve" text-anchor="middle" x="593.38" y="-6.5" font-family="Helvetica,sans-Serif" font-size="10.00">test_repository&lt; T &gt;</text>
</a>
</g>
</g>
<!-- Node1&#45;&gt;Node8 -->
<g id="edge7_Node000001_Node000008" class="edge">
<title>Node1&#45;&gt;Node8</title>
<g id="a_edge7_Node000001_Node000008"><a xlink:title=" ">
<path fill="none" stroke="#63b8ff" d="M464.29,-57.73C483.83,-48.26 507.56,-37.39 529.5,-29 537.49,-25.95 546.19,-23.05 554.51,-20.48"/>
<polygon fill="#63b8ff" stroke="#63b8ff" points="463,-54.47 455.56,-62.01 466.08,-60.76 463,-54.47"/>
</a>
</g>
</g>
<!-- Node2 -->
<g id="Node000002" class="node">
<title>Node2</title>
<g id="a_Node000002"><a xlink:href="classdepicture__menu_1_1repositories_1_1serialization__interface.html" target="_top" xlink:title=" ">
<polygon fill="white" stroke="#666666" points="306.5,-120 165.25,-120 165.25,-88 306.5,-88 306.5,-120"/>
<text xml:space="preserve" text-anchor="start" x="173.25" y="-106.5" font-family="Helvetica,sans-Serif" font-size="10.00">depicture_menu::repositories</text>
<text xml:space="preserve" text-anchor="middle" x="235.88" y="-94.5" font-family="Helvetica,sans-Serif" font-size="10.00">::serialization_interface&lt; T &gt;</text>
</a>
</g>
</g>
<!-- Node2&#45;&gt;Node1 -->
<g id="edge1_Node000001_Node000002" class="edge">
<title>Node2&#45;&gt;Node1</title>
<g id="a_edge1_Node000001_Node000002"><a xlink:title=" ">
<path fill="none" stroke="#63b8ff" d="M317.87,-92.97C328.19,-91.56 338.69,-90.13 348.85,-88.75"/>
<polygon fill="#63b8ff" stroke="#63b8ff" points="317.71,-89.45 308.27,-94.27 318.65,-96.39 317.71,-89.45"/>
</a>
</g>
</g>
<!-- Node3 -->
<g id="Node000003" class="node">
<title>Node3</title>
<g id="a_Node000003"><a xlink:href="classdepicture__menu_1_1domain_1_1crud__repository__interface.html" target="_top" xlink:title=" ">
<polygon fill="white" stroke="#666666" points="313.25,-70 158.5,-70 158.5,-38 313.25,-38 313.25,-70"/>
<text xml:space="preserve" text-anchor="start" x="166.5" y="-56.5" font-family="Helvetica,sans-Serif" font-size="10.00">depicture_menu::domain</text>
<text xml:space="preserve" text-anchor="middle" x="235.88" y="-44.5" font-family="Helvetica,sans-Serif" font-size="10.00">::crud_repository_interface&lt; T &gt;</text>
</a>
</g>
</g>
<!-- Node3&#45;&gt;Node1 -->
<g id="edge2_Node000001_Node000003" class="edge">
<title>Node3&#45;&gt;Node1</title>
<g id="a_edge2_Node000001_Node000003"><a xlink:title=" ">
<path fill="none" stroke="#63b8ff" d="M324.94,-66C332.97,-67.09 341.05,-68.19 348.91,-69.26"/>
<polygon fill="#63b8ff" stroke="#63b8ff" points="325.51,-62.54 315.13,-64.66 324.57,-69.48 325.51,-62.54"/>
</a>
</g>
</g>
<!-- Node4 -->
<g id="Node000004" class="node">
<title>Node4</title>
<g id="a_Node000004"><a xlink:href="classdepicture__menu_1_1domain_1_1query__interface.html" target="_top" xlink:title=" ">
<polygon fill="white" stroke="#666666" points="122.5,-70 0,-70 0,-38 122.5,-38 122.5,-70"/>
<text xml:space="preserve" text-anchor="start" x="8" y="-56.5" font-family="Helvetica,sans-Serif" font-size="10.00">depicture_menu::domain</text>
<text xml:space="preserve" text-anchor="middle" x="61.25" y="-44.5" font-family="Helvetica,sans-Serif" font-size="10.00">::query_interface&lt; T &gt;</text>
</a>
</g>
</g>
<!-- Node4&#45;&gt;Node3 -->
<g id="edge3_Node000003_Node000004" class="edge">
<title>Node4&#45;&gt;Node3</title>
<g id="a_edge3_Node000003_Node000004"><a xlink:title=" ">
<path fill="none" stroke="#63b8ff" d="M134.1,-54C142.04,-54 150.15,-54 158.15,-54"/>
<polygon fill="#63b8ff" stroke="#63b8ff" points="134.14,-50.5 124.14,-54 134.14,-57.5 134.14,-50.5"/>
</a>
</g>
</g>
</g>
</svg>

<g id="navigator" transform="translate(0 0)" fill="#404254">
  <rect fill="#f2f5e9" fill-opacity="0.5" stroke="#606060" stroke-width=".5" x="0" y="0" width="60" height="60"/>
  <use id="zoomplus" xlink:href="#zoomPlus" x="17" y="9" onmousedown="handleZoom(evt,'in')"/>
  <use id="zoomminus" xlink:href="#zoomMin" x="42" y="9" onmousedown="handleZoom(evt,'out')"/>
  <use id="reset" xlink:href="#resetDef" x="30" y="36" onmousedown="handleReset()"/>
   <use id="arrowup" xlink:href="#arrowUp" x="0" y="0" onmousedown="handlePan(0,-1)"/>
  <use id="arrowright" xlink:href="#arrowRight" x="0" y="0" onmousedown="handlePan(1,0)"/>
  <use id="arrowdown" xlink:href="#arrowDown" x="0" y="0" onmousedown="handlePan(0,1)"/>
  <use id="arrowleft" xlink:href="#arrowLeft" x="0" y="0" onmousedown="handlePan(-1,0)"/>
</g>
<svg viewBox="0 0 15 15" width="100%" height="30px" preserveAspectRatio="xMaxYMin meet">
 <g id="arrow_out" transform="scale(0.3 0.3)">
  <a xlink:href="classdepicture__menu_1_1repositories_1_1on__memory__repository__inherit__graph_org.svg" target="_base">
   <rect id="button" ry="5" rx="5" y="6" x="6" height="38" width="38"
        fill="#f2f5e9" fill-opacity="0.5" stroke="#606060" stroke-width="1.0"/>
   <path id="arrow"
     d="M 11.500037,31.436501 C 11.940474,20.09759 22.043105,11.32322 32.158766,21.979434 L 37.068811,17.246167 C 37.068811,17.246167 37.088388,32 37.088388,32 L 22.160133,31.978069 C 22.160133,31.978069 26.997745,27.140456 26.997745,27.140456 C 18.528582,18.264221 13.291696,25.230495 11.500037,31.436501 z"
     style="fill:#404040;"/>
  </a>
 </g>
</svg>

<style type='text/css'>
<![CDATA[
[data-mouse-over-selected='false'] { opacity: 0.7; }
[data-mouse-over-selected='true']  { opacity: 1.0; }
]]>
</style>
<script type="application/ecmascript"><![CDATA[
document.addEventListener('DOMContentLoaded', (event) => {
  highlightEdges();
  highlightAdjacentNodes();
});
]]></script>
</svg>
