<?xml version="1.0" encoding="UTF-8" standalone="no"?>
<!DOCTYPE svg PUBLIC "-//W3C//DTD SVG 1.1//EN"
 "http://www.w3.org/Graphics/SVG/1.1/DTD/svg11.dtd">
<!-- Generated by graphviz version 14.1.2 (20260124.0452)
 -->
<!-- Title: depicture_menu::domain::commands::command::index Pages: 1 -->
<svg width="556pt" height="264pt"
 viewBox="0.00 0.00 556.00 264.00" xmlns="http://www.w3.org/2000/svg" xmlns:xlink="http://www.w3.org/1999/xlink">
<g id="graph0" class="graph" transform="scale(1 1) rotate(0) translate(4 260)">
<title>depicture_menu::domain::commands::command::index</title>
<!-- Node1 -->
<g id="Node000001" class="node">
<title>Node1</title>
<g id="a_Node000001"><a xlink:title=" ">
<polygon fill="#999999" stroke="#666666" points="548.25,-144 400.25,-144 400.25,-112 548.25,-112 548.25,-144"/>
<text xml:space="preserve" text-anchor="start" x="408.25" y="-130.5" font-family="Helvetica,sans-Serif" font-size="10.00">depicture_menu::domain</text>
<text xml:space="preserve" text-anchor="middle" x="474.25" y="-118.5" font-family="Helvetica,sans-Serif" font-size="10.00">::commands::command::index</text>
</a>
</g>
</g>
<!-- Node2 -->
<g id="Node000002" class="node">
<title>Node2</title>
<g id="a_Node000002"><a xlink:href="test__command_8cpp.html#a2963344f5711888bad1e536151cfdd4b" target="_top" xlink:title="construct_by_invoker : TestCase">
<polygon fill="white" stroke="#666666" points="339.5,-256 192.25,-256 192.25,-236 339.5,-236 339.5,-256"/>
<text xml:space="preserve" text-anchor="middle" x="265.88" y="-242.5" font-family="Helvetica,sans-Serif" font-size="10.00">BOOST_AUTO_TEST_CASE</text>
</a>
</g>
</g>
<!-- Node1&#45;&gt;Node2 -->
<g id="edge1_Node000001_Node000002" class="edge">
<title>Node1&#45;&gt;Node2</title>
<g id="a_edge1_Node000001_Node000002"><a xlink:title=" ">
<path fill="none" stroke="#63b8ff" d="M453.1,-152.83C433.05,-175.78 400.16,-208.99 364.25,-227 356.63,-230.82 348.32,-233.88 339.86,-236.32"/>
<polygon fill="#63b8ff" stroke="#63b8ff" points="455.58,-155.32 459.4,-145.44 450.25,-150.78 455.58,-155.32"/>
</a>
</g>
</g>
<!-- Node3 -->
<g id="Node000003" class="node">
<title>Node3</title>
<g id="a_Node000003"><a xlink:href="classdepicture__menu_1_1domain_1_1services_1_1common__action__builder.html#aa670bccd31eab4473fa4bf345cd44ff4" target="_top" xlink:title=" ">
<polygon fill="white" stroke="#666666" points="332.75,-218 199,-218 199,-162 332.75,-162 332.75,-218"/>
<text xml:space="preserve" text-anchor="start" x="207" y="-204.5" font-family="Helvetica,sans-Serif" font-size="10.00">depicture_menu::domain</text>
<text xml:space="preserve" text-anchor="start" x="207" y="-192.5" font-family="Helvetica,sans-Serif" font-size="10.00">::services::common_action</text>
<text xml:space="preserve" text-anchor="start" x="207" y="-180.5" font-family="Helvetica,sans-Serif" font-size="10.00">_builder::build_open_sub</text>
<text xml:space="preserve" text-anchor="middle" x="265.88" y="-168.5" font-family="Helvetica,sans-Serif" font-size="10.00">_menu_action</text>
</a>
</g>
</g>
<!-- Node1&#45;&gt;Node3 -->
<g id="edge2_Node000001_Node000003" class="edge">
<title>Node1&#45;&gt;Node3</title>
<g id="a_edge2_Node000001_Node000003"><a xlink:title=" ">
<path fill="none" stroke="#63b8ff" d="M407.76,-147.68C383.87,-154.85 356.86,-162.97 332.93,-170.16"/>
<polygon fill="#63b8ff" stroke="#63b8ff" points="408.47,-151.12 417.04,-144.89 406.45,-144.41 408.47,-151.12"/>
</a>
</g>
</g>
<!-- Node4 -->
<g id="Node000004" class="node">
<title>Node4</title>
<g id="a_Node000004"><a xlink:href="classdepicture__menu_1_1domain_1_1commands_1_1command.html#ad026f525ae73fabbbd88397b803fed32" target="_top" xlink:title=" ">
<polygon fill="white" stroke="#666666" points="349.62,-144 182.12,-144 182.12,-112 349.62,-112 349.62,-144"/>
<text xml:space="preserve" text-anchor="start" x="190.12" y="-130.5" font-family="Helvetica,sans-Serif" font-size="10.00">depicture_menu::domain</text>
<text xml:space="preserve" text-anchor="middle" x="265.88" y="-118.5" font-family="Helvetica,sans-Serif" font-size="10.00">::commands::command::command</text>
</a>
</g>
</g>
<!-- Node1&#45;&gt;Node4 -->
<g id="edge3_Node000001_Node000004" class="edge">
<title>Node1&#45;&gt;Node4</title>
<g id="a_edge3_Node000001_Node000004"><a xlink:title=" ">
<path fill="none" stroke="#63b8ff" d="M388.74,-128C375.89,-128 362.64,-128 349.82,-128"/>
<polygon fill="#63b8ff" stroke="#63b8ff" points="388.4,-131.5 398.4,-128 388.4,-124.5 388.4,-131.5"/>
</a>
</g>
</g>
<!-- Node5 -->
<g id="Node000005" class="node">
<title>Node5</title>
<g id="a_Node000005"><a xlink:href="classdepicture__menu_1_1domain_1_1commands_1_1command.html#a19a26c1ddad912375bfb97701faadd22" target="_top" xlink:title=" ">
<polygon fill="white" stroke="#666666" points="364.25,-94 167.5,-94 167.5,-62 364.25,-62 364.25,-94"/>
<text xml:space="preserve" text-anchor="start" x="175.5" y="-80.5" font-family="Helvetica,sans-Serif" font-size="10.00">depicture_menu::domain</text>
<text xml:space="preserve" text-anchor="middle" x="265.88" y="-68.5" font-family="Helvetica,sans-Serif" font-size="10.00">::commands::command::parameter_value</text>
</a>
</g>
</g>
<!-- Node1&#45;&gt;Node5 -->
<g id="edge4_Node000001_Node000005" class="edge">
<title>Node1&#45;&gt;Node5</title>
<g id="a_edge4_Node000001_Node000005"><a xlink:title=" ">
<path fill="none" stroke="#63b8ff" d="M394.32,-108.88C374.69,-104.12 353.82,-99.07 334.78,-94.45"/>
<polygon fill="#63b8ff" stroke="#63b8ff" points="393.38,-112.25 403.92,-111.2 395.02,-105.45 393.38,-112.25"/>
</a>
</g>
</g>
<!-- Node7 -->
<g id="Node000007" class="node">
<title>Node7</title>
<g id="a_Node000007"><a xlink:href="classdepicture__menu_1_1domain_1_1commands_1_1command.html#a3af70aba1e2ead05b9979af9484f9760" target="_top" xlink:title=" ">
<polygon fill="white" stroke="#666666" points="342.88,-44 188.88,-44 188.88,0 342.88,0 342.88,-44"/>
<text xml:space="preserve" text-anchor="start" x="196.88" y="-30.5" font-family="Helvetica,sans-Serif" font-size="10.00">depicture_menu::domain</text>
<text xml:space="preserve" text-anchor="start" x="196.88" y="-18.5" font-family="Helvetica,sans-Serif" font-size="10.00">::commands::command::update</text>
<text xml:space="preserve" text-anchor="middle" x="265.88" y="-6.5" font-family="Helvetica,sans-Serif" font-size="10.00">_parameter</text>
</a>
</g>
</g>
<!-- Node1&#45;&gt;Node7 -->
<g id="edge6_Node000001_Node000007" class="edge">
<title>Node1&#45;&gt;Node7</title>
<g id="a_edge6_Node000001_Node000007"><a xlink:title=" ">
<path fill="none" stroke="#63b8ff" d="M444.4,-104.64C423.23,-88.4 393.23,-67.19 364.25,-53 357.56,-49.72 350.44,-46.69 343.22,-43.9"/>
<polygon fill="#63b8ff" stroke="#63b8ff" points="442.24,-107.39 452.28,-110.78 446.54,-101.87 442.24,-107.39"/>
</a>
</g>
</g>
<!-- Node6 -->
<g id="Node000006" class="node">
<title>Node6</title>
<g id="a_Node000006"><a xlink:href="namespacedepicture__menu_1_1cs__binding.html#aa975143fcb5277d995b1dcccbbcdcb1f" target="_top" xlink:title=" ">
<polygon fill="white" stroke="#666666" points="131.5,-94 0,-94 0,-62 131.5,-62 131.5,-94"/>
<text xml:space="preserve" text-anchor="start" x="8" y="-80.5" font-family="Helvetica,sans-Serif" font-size="10.00">depicture_menu::cs</text>
<text xml:space="preserve" text-anchor="middle" x="65.75" y="-68.5" font-family="Helvetica,sans-Serif" font-size="10.00">_binding::apply_config_arg</text>
</a>
</g>
</g>
<!-- Node5&#45;&gt;Node6 -->
<g id="edge5_Node000005_Node000006" class="edge">
<title>Node5&#45;&gt;Node6</title>
<g id="a_edge5_Node000005_Node000006"><a xlink:title=" ">
<path fill="none" stroke="#63b8ff" d="M156.01,-78C147.79,-78 139.66,-78 131.84,-78"/>
<polygon fill="#63b8ff" stroke="#63b8ff" points="155.75,-81.5 165.75,-78 155.75,-74.5 155.75,-81.5"/>
</a>
</g>
</g>
</g>
</svg>
