<?xml version="1.0" encoding="UTF-8" standalone="no"?>
<!DOCTYPE svg PUBLIC "-//W3C//DTD SVG 1.1//EN"
 "http://www.w3.org/Graphics/SVG/1.1/DTD/svg11.dtd">
<!-- Generated by graphviz version 14.1.2 (20260124.0452)
 -->
<!-- Title: depicture_menu::repositories::serialization_interface&lt; T &gt; Pages: 1 -->
<!--zoomable 178 -->

<svg id="main" version="1.1" xmlns="http://www.w3.org/2000/svg" xmlns:xlink="http://www.w3.org/1999/xlink" xml:space="preserve" onload="init(evt)">

<style type="text/css"><![CDATA[
.node, .edge {opacity: 0.7;}
.node.selected, .edge.selected {opacity: 1;}
.edge:hover path { stroke: red; }
.edge:hover polygon { stroke: red; fill: red; }
]]></style>

<defs>
  <circle id="rim" cx="0" cy="0" r="7"/>
  <circle id="rim2" cx="0" cy="0" r="3.5"/>
  <g id="zoomPlus">
    <use xlink:href="#rim" fill="#404040"><set attributeName="fill" to="#808080" begin="zoomplus.mouseover" end="zoomplus.mouseout"/></use>
    <path d="M-4,0h8M0,-4v8" fill="none" stroke="white" stroke-width="1.5" pointer-events="none"/>
  </g>
  <g id="zoomMin">
    <use xlink:href="#rim" fill="#404040"><set attributeName="fill" to="#808080" begin="zoomminus.mouseover" end="zoomminus.mouseout"/></use>
    <path d="M-4,0h8" fill="none" stroke="white" stroke-width="1.5" pointer-events="none"/>
  </g>
  <g id="arrowUp" transform="translate(30 24)">
    <use xlink:href="#rim"/>
    <path pointer-events="none" fill="none" stroke="white" stroke-width="1.5" d="M0,-3.0v7 M-2.5,-0.5L0,-3.0L2.5,-0.5"/>
  </g>
  <g id="arrowRight" transform="rotate(90) translate(36 -43)">
    <use xlink:href="#rim"/>
    <path pointer-events="none" fill="none" stroke="white" stroke-width="1.5" d="M0,-3.0v7 M-2.5,-0.5L0,-3.0L2.5,-0.5"/>
  </g>
  <g id="arrowDown" transform="rotate(180) translate(-30 -48)">
    <use xlink:href="#rim"/>
    <path pointer-events="none" fill="none" stroke="white" stroke-width="1.5" d="M0,-3.0v7 M-2.5,-0.5L0,-3.0L2.5,-0.5"/>
  </g>
  <g id="arrowLeft" transform="rotate(270) translate(-36 17)">
    <use xlink:href="#rim"/>
    <path pointer-events="none" fill="none" stroke="white" stroke-width="1.5" d="M0,-3.0v7 M-2.5,-0.5L0,-3.0L2.5,-0.5"/>
  </g>
  <g id="resetDef">
    <use xlink:href="#rim2" fill="#404040"><set attributeName="fill" to="#808080" begin="reset.mouseover" end="reset.mouseout"/></use>
  </g>
</defs>
<script type="application/ecmascript">
var viewWidth = 508;
var viewHeight = 178;
var sectionId = 'dynsection-0';
</script>
<script type="application/ecmascript" xlink:href="svg.min.js"/>
<svg id="graph" class="graph">
<g id="viewport">
<title>depicture_menu::repositories::serialization_interface&lt; T &gt;</title>
<!-- Node1 -->
<g id="Node000001" class="node">
<title>Node1</title>
<g id="a_Node000001"><a xlink:title=" ">
<polygon fill="#999999" stroke="#666666" points="141.25,-95 0,-95 0,-63 141.25,-63 141.25,-95"/>
<text xml:space="preserve" text-anchor="start" x="8" y="-81.5" font-family="Helvetica,sans-Serif" font-size="10.00">depicture_menu::repositories</text>
<text xml:space="preserve" text-anchor="middle" x="70.62" y="-69.5" font-family="Helvetica,sans-Serif" font-size="10.00">::serialization_interface&lt; T &gt;</text>
</a>
</g>
</g>
<!-- Node2 -->
<g id="Node000002" class="node">
<title>Node2</title>
<g id="a_Node000002"><a xlink:href="structdepicture__menu_1_1test_1_1test__tools_1_1test__repository.html" target="_top" xlink:title=" ">
<polygon fill="white" stroke="#666666" points="325.25,-169 187.75,-169 187.75,-113 325.25,-113 325.25,-169"/>
<text xml:space="preserve" text-anchor="start" x="195.75" y="-155.5" font-family="Helvetica,sans-Serif" font-size="10.00">depicture_menu::test</text>
<text xml:space="preserve" text-anchor="start" x="195.75" y="-143.5" font-family="Helvetica,sans-Serif" font-size="10.00">::test_tools::test_repository</text>
<text xml:space="preserve" text-anchor="start" x="195.75" y="-131.5" font-family="Helvetica,sans-Serif" font-size="10.00">&lt; depicture_menu::domain::</text>
<text xml:space="preserve" text-anchor="middle" x="256.5" y="-119.5" font-family="Helvetica,sans-Serif" font-size="10.00">commands::invoker &gt;</text>
</a>
</g>
</g>
<!-- Node1&#45;&gt;Node2 -->
<g id="edge1_Node000001_Node000002" class="edge">
<title>Node1&#45;&gt;Node2</title>
<g id="a_edge1_Node000001_Node000002"><a xlink:title=" ">
<path fill="none" stroke="#63b8ff" d="M131.31,-99.12C149.23,-105.17 169.02,-111.84 187.44,-118.05"/>
<polygon fill="#63b8ff" stroke="#63b8ff" points="132.45,-95.81 121.85,-95.94 130.21,-102.45 132.45,-95.81"/>
</a>
</g>
</g>
<!-- Node3 -->
<g id="Node000003" class="node">
<title>Node3</title>
<g id="a_Node000003"><a xlink:href="classdepicture__menu_1_1repositories_1_1on__memory__repository.html" target="_top" xlink:title=" ">
<polygon fill="white" stroke="#666666" points="328.62,-95 184.38,-95 184.38,-63 328.62,-63 328.62,-95"/>
<text xml:space="preserve" text-anchor="start" x="192.38" y="-81.5" font-family="Helvetica,sans-Serif" font-size="10.00">depicture_menu::repositories</text>
<text xml:space="preserve" text-anchor="middle" x="256.5" y="-69.5" font-family="Helvetica,sans-Serif" font-size="10.00">::on_memory_repository&lt; T &gt;</text>
</a>
</g>
</g>
<!-- Node1&#45;&gt;Node3 -->
<g id="edge2_Node000001_Node000003" class="edge">
<title>Node1&#45;&gt;Node3</title>
<g id="a_edge2_Node000001_Node000003"><a xlink:title=" ">
<path fill="none" stroke="#63b8ff" d="M152.87,-79C163.29,-79 173.89,-79 184.13,-79"/>
<polygon fill="#63b8ff" stroke="#63b8ff" points="153.18,-75.5 143.18,-79 153.18,-82.5 153.18,-75.5"/>
</a>
</g>
</g>
<!-- Node8 -->
<g id="Node000008" class="node">
<title>Node8</title>
<g id="a_Node000008"><a xlink:href="structdepicture__menu_1_1test_1_1test__tools_1_1test__repository.html" target="_top" xlink:title=" ">
<polygon fill="white" stroke="#666666" points="335.75,-45 177.25,-45 177.25,-13 335.75,-13 335.75,-45"/>
<text xml:space="preserve" text-anchor="start" x="185.25" y="-31.5" font-family="Helvetica,sans-Serif" font-size="10.00">depicture_menu::test</text>
<text xml:space="preserve" text-anchor="middle" x="256.5" y="-19.5" font-family="Helvetica,sans-Serif" font-size="10.00">::test_tools::test_repository&lt; T &gt;</text>
</a>
</g>
</g>
<!-- Node1&#45;&gt;Node8 -->
<g id="edge7_Node000001_Node000008" class="edge">
<title>Node1&#45;&gt;Node8</title>
<g id="a_edge7_Node000001_Node000008"><a xlink:title=" ">
<path fill="none" stroke="#63b8ff" d="M143.17,-59.54C160.3,-54.89 178.43,-49.96 195,-45.45"/>
<polygon fill="#63b8ff" stroke="#63b8ff" points="142.28,-56.16 133.55,-62.16 144.12,-62.92 142.28,-56.16"/>
</a>
</g>
</g>
<!-- Node4 -->
<g id="Node000004" class="node">
<title>Node4</title>
<g id="a_Node000004"><a xlink:href="structtest__repository.html" target="_top" xlink:title=" ">
<polygon fill="white" stroke="#666666" points="493.88,-170 377.38,-170 377.38,-138 493.88,-138 493.88,-170"/>
<text xml:space="preserve" text-anchor="start" x="385.38" y="-156.5" font-family="Helvetica,sans-Serif" font-size="10.00">test_repository&lt; dd</text>
<text xml:space="preserve" text-anchor="middle" x="435.62" y="-144.5" font-family="Helvetica,sans-Serif" font-size="10.00">::commands::invoker &gt;</text>
</a>
</g>
</g>
<!-- Node3&#45;&gt;Node4 -->
<g id="edge3_Node000003_Node000004" class="edge">
<title>Node3&#45;&gt;Node4</title>
<g id="a_edge3_Node000003_Node000004"><a xlink:title=" ">
<path fill="none" stroke="#63b8ff" d="M326.16,-99.61C329.44,-101.01 332.65,-102.47 335.75,-104 353.22,-112.62 354.59,-119.79 371.75,-129 377.44,-132.06 383.59,-134.95 389.74,-137.62"/>
<polygon fill="#63b8ff" stroke="#63b8ff" points="327.53,-96.39 316.94,-95.95 324.94,-102.89 327.53,-96.39"/>
</a>
</g>
</g>
<!-- Node5 -->
<g id="Node000005" class="node">
<title>Node5</title>
<g id="a_Node000005"><a xlink:href="structtest__repository.html" target="_top" xlink:title=" ">
<polygon fill="white" stroke="#666666" points="489.38,-120 381.88,-120 381.88,-88 489.38,-88 489.38,-120"/>
<text xml:space="preserve" text-anchor="start" x="389.88" y="-106.5" font-family="Helvetica,sans-Serif" font-size="10.00">test_repository&lt; dd</text>
<text xml:space="preserve" text-anchor="middle" x="435.62" y="-94.5" font-family="Helvetica,sans-Serif" font-size="10.00">::actions::publisher &gt;</text>
</a>
</g>
</g>
<!-- Node3&#45;&gt;Node5 -->
<g id="edge4_Node000003_Node000005" class="edge">
<title>Node3&#45;&gt;Node5</title>
<g id="a_edge4_Node000003_Node000005"><a xlink:title=" ">
<path fill="none" stroke="#63b8ff" d="M340.25,-90.68C354.32,-92.67 368.59,-94.68 381.62,-96.52"/>
<polygon fill="#63b8ff" stroke="#63b8ff" points="340.92,-87.24 330.53,-89.31 339.94,-94.17 340.92,-87.24"/>
</a>
</g>
</g>
<!-- Node6 -->
<g id="Node000006" class="node">
<title>Node6</title>
<g id="a_Node000006"><a xlink:href="structtest__repository.html" target="_top" xlink:title=" ">
<polygon fill="white" stroke="#666666" points="499.5,-70 371.75,-70 371.75,-38 499.5,-38 499.5,-70"/>
<text xml:space="preserve" text-anchor="start" x="379.75" y="-56.5" font-family="Helvetica,sans-Serif" font-size="10.00">test_repository&lt; dd</text>
<text xml:space="preserve" text-anchor="middle" x="435.62" y="-44.5" font-family="Helvetica,sans-Serif" font-size="10.00">::commands::command &gt;</text>
</a>
</g>
</g>
<!-- Node3&#45;&gt;Node6 -->
<g id="edge5_Node000003_Node000006" class="edge">
<title>Node3&#45;&gt;Node6</title>
<g id="a_edge5_Node000003_Node000006"><a xlink:title=" ">
<path fill="none" stroke="#63b8ff" d="M340.3,-67.31C350.75,-65.84 361.31,-64.35 371.38,-62.93"/>
<polygon fill="#63b8ff" stroke="#63b8ff" points="339.94,-63.83 330.53,-68.69 340.92,-70.76 339.94,-63.83"/>
</a>
</g>
</g>
<!-- Node7 -->
<g id="Node000007" class="node">
<title>Node7</title>
<g id="a_Node000007"><a xlink:href="structtest__repository.html" target="_top" xlink:title="@TODO invalid test">
<polygon fill="white" stroke="#666666" points="487.5,-20 383.75,-20 383.75,0 487.5,0 487.5,-20"/>
<text xml:space="preserve" text-anchor="middle" x="435.62" y="-6.5" font-family="Helvetica,sans-Serif" font-size="10.00">test_repository&lt; T &gt;</text>
</a>
</g>
</g>
<!-- Node3&#45;&gt;Node7 -->
<g id="edge6_Node000003_Node000007" class="edge">
<title>Node3&#45;&gt;Node7</title>
<g id="a_edge6_Node000003_Node000007"><a xlink:title=" ">
<path fill="none" stroke="#63b8ff" d="M326.16,-58.39C329.44,-56.99 332.65,-55.53 335.75,-54 353.22,-45.38 354.21,-37.48 371.75,-29 378.53,-25.72 385.99,-22.88 393.33,-20.45"/>
<polygon fill="#63b8ff" stroke="#63b8ff" points="324.94,-55.11 316.94,-62.05 327.53,-61.61 324.94,-55.11"/>
</a>
</g>
</g>
</g>
</svg>

<g id="navigator" transform="translate(0 0)" fill="#404254">
  <rect fill="#f2f5e9" fill-opacity="0.5" stroke="#606060" stroke-width=".5" x="0" y="0" width="60" height="60"/>
  <use id="zoomplus" xlink:href="#zoomPlus" x="17" y="9" onmousedown="handleZoom(evt,'in')"/>
  <use id="zoomminus" xlink:href="#zoomMin" x="42" y="9" onmousedown="handleZoom(evt,'out')"/>
  <use id="reset" xlink:href="#resetDef" x="30" y="36" onmousedown="handleReset()"/>
   <use id="arrowup" xlink:href="#arrowUp" x="0" y="0" onmousedown="handlePan(0,-1)"/>
  <use id="arrowright" xlink:href="#arrowRight" x="0" y="0" onmousedown="handlePan(1,0)"/>
  <use id="arrowdown" xlink:href="#arrowDown" x="0" y="0" onmousedown="handlePan(0,1)"/>
  <use id="arrowleft" xlink:href="#arrowLeft" x="0" y="0" onmousedown="handlePan(-1,0)"/>
</g>
<svg viewBox="0 0 15 15" width="100%" height="30px" preserveAspectRatio="xMaxYMin meet">
 <g id="arrow_out" transform="scale(0.3 0.3)">
  <a xlink:href="classdepicture__menu_1_1repositories_1_1serialization__interface__inherit__graph_org.svg" target="_base">
   <rect id="button" ry="5" rx="5" y="6" x="6" height="38" width="38"
        fill="#f2f5e9" fill-opacity="0.5" stroke="#606060" stroke-width="1.0"/>
   <path id="arrow"
     d="M 11.500037,31.436501 C 11.940474,20.09759 22.043105,11.32322 32.158766,21.979434 L 37.068811,17.246167 C 37.068811,17.246167 37.088388,32 37.088388,32 L 22.160133,31.978069 C 22.160133,31.978069 26.997745,27.140456 26.997745,27.140456 C 18.528582,18.264221 13.291696,25.230495 11.500037,31.436501 z"
     style="fill:#404040;"/>
  </a>
 </g>
</svg>

<style type='text/css'>
<![CDATA[
[data-mouse-over-selected='false'] { opacity: 0.7; }
[data-mouse-over-selected='true']  { opacity: 1.0; }
]]>
</style>
<script type="application/ecmascript"><![CDATA[
document.addEventListener('DOMContentLoaded', (event) => {
  highlightEdges();
  highlightAdjacentNodes();
});
]]></script>
</svg>
