<?xml version="1.0" encoding="UTF-8" standalone="no"?>
<!DOCTYPE svg PUBLIC "-//W3C//DTD SVG 1.1//EN"
 "http://www.w3.org/Graphics/SVG/1.1/DTD/svg11.dtd">
<!-- Generated by graphviz version 14.1.2 (20260124.0452)
 -->
<!-- Title: depicture_menu::domain::services::create_action_domain_service Pages: 1 -->
<!--zoomable 133 -->

<svg id="main" version="1.1" xmlns="http://www.w3.org/2000/svg" xmlns:xlink="http://www.w3.org/1999/xlink" xml:space="preserve" onload="init(evt)">

<style type="text/css"><![CDATA[
.node, .edge {opacity: 0.7;}
.node.selected, .edge.selected {opacity: 1;}
.edge:hover path { stroke: red; }
.edge:hover polygon { stroke: red; fill: red; }
]]></style>

<defs>
  <circle id="rim" cx="0" cy="0" r="7"/>
  <circle id="rim2" cx="0" cy="0" r="3.5"/>
  <g id="zoomPlus">
    <use xlink:href="#rim" fill="#404040"><set attributeName="fill" to="#808080" begin="zoomplus.mouseover" end="zoomplus.mouseout"/></use>
    <path d="M-4,0h8M0,-4v8" fill="none" stroke="white" stroke-width="1.5" pointer-events="none"/>
  </g>
  <g id="zoomMin">
    <use xlink:href="#rim" fill="#404040"><set attributeName="fill" to="#808080" begin="zoomminus.mouseover" end="zoomminus.mouseout"/></use>
    <path d="M-4,0h8" fill="none" stroke="white" stroke-width="1.5" pointer-events="none"/>
  </g>
  <g id="arrowUp" transform="translate(30 24)">
    <use xlink:href="#rim"/>
    <path pointer-events="none" fill="none" stroke="white" stroke-width="1.5" d="M0,-3.0v7 M-2.5,-0.5L0,-3.0L2.5,-0.5"/>
  </g>
  <g id="arrowRight" transform="rotate(90) translate(36 -43)">
    <use xlink:href="#rim"/>
    <path pointer-events="none" fill="none" stroke="white" stroke-width="1.5" d="M0,-3.0v7 M-2.5,-0.5L0,-3.0L2.5,-0.5"/>
  </g>
  <g id="arrowDown" transform="rotate(180) translate(-30 -48)">
    <use xlink:href="#rim"/>
    <path pointer-events="none" fill="none" stroke="white" stroke-width="1.5" d="M0,-3.0v7 M-2.5,-0.5L0,-3.0L2.5,-0.5"/>
  </g>
  <g id="arrowLeft" transform="rotate(270) translate(-36 17)">
    <use xlink:href="#rim"/>
    <path pointer-events="none" fill="none" stroke="white" stroke-width="1.5" d="M0,-3.0v7 M-2.5,-0.5L0,-3.0L2.5,-0.5"/>
  </g>
  <g id="resetDef">
    <use xlink:href="#rim2" fill="#404040"><set attributeName="fill" to="#808080" begin="reset.mouseover" end="reset.mouseout"/></use>
  </g>
</defs>
<script type="application/ecmascript">
var viewWidth = 1445;
var viewHeight = 133;
var sectionId = 'dynsection-0';
</script>
<script type="application/ecmascript" xlink:href="svg.min.js"/>
<svg id="graph" class="graph">
<g id="viewport">
<title>depicture_menu::domain::services::create_action_domain_service</title>
<!-- Node1 -->
<g id="Node000001" class="node">
<title>Node1</title>
<g id="a_Node000001"><a xlink:title=" ">
<polygon fill="#999999" stroke="#666666" points="1437,-82 1313.75,-82 1313.75,-38 1437,-38 1437,-82"/>
<text xml:space="preserve" text-anchor="start" x="1321.75" y="-68.5" font-family="Helvetica,sans-Serif" font-size="10.00">depicture_menu::domain</text>
<text xml:space="preserve" text-anchor="start" x="1321.75" y="-56.5" font-family="Helvetica,sans-Serif" font-size="10.00">::services::create_action</text>
<text xml:space="preserve" text-anchor="middle" x="1375.38" y="-44.5" font-family="Helvetica,sans-Serif" font-size="10.00">_domain_service</text>
</a>
</g>
</g>
<!-- Node2 -->
<g id="Node000002" class="node">
<title>Node2</title>
<g id="a_Node000002"><a xlink:href="classdepicture__menu_1_1domain_1_1services_1_1create__command__domain__service.html" target="_top" xlink:title="コマンド生成ドメインサービス">
<polygon fill="white" stroke="#666666" points="1229,-124 1089.25,-124 1089.25,-80 1229,-80 1229,-124"/>
<text xml:space="preserve" text-anchor="start" x="1097.25" y="-110.5" font-family="Helvetica,sans-Serif" font-size="10.00">depicture_menu::domain</text>
<text xml:space="preserve" text-anchor="start" x="1097.25" y="-98.5" font-family="Helvetica,sans-Serif" font-size="10.00">::services::create_command</text>
<text xml:space="preserve" text-anchor="middle" x="1159.12" y="-86.5" font-family="Helvetica,sans-Serif" font-size="10.00">_domain_service</text>
</a>
</g>
</g>
<!-- Node2&#45;&gt;Node1 -->
<g id="edge1_Node000001_Node000002" class="edge">
<title>Node2&#45;&gt;Node1</title>
<g id="a_edge1_Node000001_Node000002"><a xlink:title=" ">
<path fill="none" stroke="#9a32cd" stroke-dasharray="5,2" d="M1240.66,-86.21C1264.72,-81.5 1290.69,-76.4 1313.29,-71.97"/>
<polygon fill="#9a32cd" stroke="#9a32cd" points="1240.02,-82.77 1230.88,-88.13 1241.36,-89.64 1240.02,-82.77"/>
</a>
</g>
<text xml:space="preserve" text-anchor="start" x="1250" y="-90.26" font-family="Helvetica,sans-Serif" font-size="10.00" fill="grey">com_ser_</text>
</g>
<!-- Node3 -->
<g id="Node000003" class="node">
<title>Node3</title>
<g id="a_Node000003"><a xlink:href="classdepicture__menu_1_1domain_1_1commands_1_1command.html" target="_top" xlink:title=" ">
<polygon fill="white" stroke="#666666" points="930.75,-118 808.25,-118 808.25,-86 930.75,-86 930.75,-118"/>
<text xml:space="preserve" text-anchor="start" x="816.25" y="-104.5" font-family="Helvetica,sans-Serif" font-size="10.00">depicture_menu::domain</text>
<text xml:space="preserve" text-anchor="middle" x="869.5" y="-92.5" font-family="Helvetica,sans-Serif" font-size="10.00">::commands::command</text>
</a>
</g>
</g>
<!-- Node3&#45;&gt;Node2 -->
<g id="edge2_Node000002_Node000003" class="edge">
<title>Node3&#45;&gt;Node2</title>
<g id="a_edge2_Node000002_Node000003"><a xlink:title=" ">
<path fill="none" stroke="#9a32cd" stroke-dasharray="5,2" d="M942.55,-102C987.37,-102 1044.71,-102 1088.97,-102"/>
<polygon fill="#9a32cd" stroke="#9a32cd" points="942.66,-98.5 932.66,-102 942.66,-105.5 942.66,-98.5"/>
</a>
</g>
<text xml:space="preserve" text-anchor="start" x="994.25" y="-107.5" font-family="Helvetica,sans-Serif" font-size="10.00" fill="grey">article_</text>
</g>
<!-- Node4 -->
<g id="Node000004" class="node">
<title>Node4</title>
<g id="a_Node000004"><a xlink:href="structdepicture__menu_1_1domain_1_1models_1_1base_1_1entity__base.html" target="_top" xlink:title=" ">
<polygon fill="white" stroke="#666666" points="771.25,-125 621,-125 621,-81 771.25,-81 771.25,-125"/>
<text xml:space="preserve" text-anchor="start" x="629" y="-111.5" font-family="Helvetica,sans-Serif" font-size="10.00">models::entity_base</text>
<text xml:space="preserve" text-anchor="start" x="629" y="-99.5" font-family="Helvetica,sans-Serif" font-size="10.00">&lt; detail_commands::command</text>
<text xml:space="preserve" text-anchor="middle" x="696.12" y="-87.5" font-family="Helvetica,sans-Serif" font-size="10.00">_data, command_id &gt;</text>
</a>
</g>
</g>
<!-- Node4&#45;&gt;Node3 -->
<g id="edge3_Node000003_Node000004" class="edge">
<title>Node4&#45;&gt;Node3</title>
<g id="a_edge3_Node000003_Node000004"><a xlink:title=" ">
<path fill="none" stroke="#63b8ff" d="M782.81,-102.5C791.27,-102.45 799.74,-102.4 807.87,-102.35"/>
<polygon fill="#63b8ff" stroke="#63b8ff" points="782.79,-99 772.81,-102.56 782.83,-106 782.79,-99"/>
</a>
</g>
</g>
<!-- Node5 -->
<g id="Node000005" class="node">
<title>Node5</title>
<g id="a_Node000005"><a xlink:title=" ">
<polygon fill="white" stroke="#666666" points="491.65,-119 462.85,-119 462.85,-99 491.65,-99 491.65,-119"/>
<text xml:space="preserve" text-anchor="middle" x="477.25" y="-105.5" font-family="Helvetica,sans-Serif" font-size="10.00">V</text>
</a>
</g>
</g>
<!-- Node5&#45;&gt;Node4 -->
<g id="edge4_Node000004_Node000005" class="edge">
<title>Node5&#45;&gt;Node4</title>
<g id="a_edge4_Node000004_Node000005"><a xlink:title=" ">
<path fill="none" stroke="darkgreen" d="M503.53,-109.14C528.73,-109.2 568.55,-109.07 603,-108 608.76,-107.82 614.73,-107.59 620.72,-107.33"/>
<polygon fill="darkgreen" stroke="darkgreen" points="503.63,-105.64 493.61,-109.1 503.6,-112.64 503.63,-105.64"/>
</a>
</g>
</g>
<!-- Node11 -->
<g id="Node000011" class="node">
<title>Node11</title>
<g id="a_Node000011"><a xlink:href="structdepicture__menu_1_1domain_1_1models_1_1base_1_1entity__base.html" target="_top" xlink:title=" ">
<polygon fill="white" stroke="#666666" points="761.12,-63 631.12,-63 631.12,-19 761.12,-19 761.12,-63"/>
<text xml:space="preserve" text-anchor="start" x="639.12" y="-49.5" font-family="Helvetica,sans-Serif" font-size="10.00">models::entity_base</text>
<text xml:space="preserve" text-anchor="start" x="639.12" y="-37.5" font-family="Helvetica,sans-Serif" font-size="10.00">&lt; detail_actions::publisher</text>
<text xml:space="preserve" text-anchor="middle" x="696.12" y="-25.5" font-family="Helvetica,sans-Serif" font-size="10.00">_data, maker_id &gt;</text>
</a>
</g>
</g>
<!-- Node5&#45;&gt;Node11 -->
<g id="edge11_Node000011_Node000005" class="edge">
<title>Node5&#45;&gt;Node11</title>
<g id="a_edge11_Node000011_Node000005"><a xlink:title=" ">
<path fill="none" stroke="darkgreen" d="M503.09,-106.37C528.79,-103.06 569.77,-96.16 603,-83 611.72,-79.55 612.65,-76.27 621,-72 626.71,-69.08 632.77,-66.21 638.85,-63.46"/>
<polygon fill="darkgreen" stroke="darkgreen" points="502.81,-102.88 493.3,-107.53 503.64,-109.83 502.81,-102.88"/>
</a>
</g>
</g>
<!-- Node6 -->
<g id="Node000006" class="node">
<title>Node6</title>
<g id="a_Node000006"><a xlink:href="structdepicture__menu_1_1domain_1_1models_1_1base_1_1entity__base.html" target="_top" xlink:title=" ">
<polygon fill="white" stroke="#666666" points="538.5,-69 416,-69 416,-25 538.5,-25 538.5,-69"/>
<text xml:space="preserve" text-anchor="start" x="424" y="-55.5" font-family="Helvetica,sans-Serif" font-size="10.00">depicture_menu::domain</text>
<text xml:space="preserve" text-anchor="start" x="424" y="-43.5" font-family="Helvetica,sans-Serif" font-size="10.00">::models::base::entity</text>
<text xml:space="preserve" text-anchor="middle" x="477.25" y="-31.5" font-family="Helvetica,sans-Serif" font-size="10.00">_base&lt; Value, IdTag &gt;</text>
</a>
</g>
</g>
<!-- Node6&#45;&gt;Node4 -->
<g id="edge5_Node000004_Node000006" class="edge">
<title>Node6&#45;&gt;Node4</title>
<g id="a_edge5_Node000004_Node000006"><a xlink:title=" ">
<path fill="none" stroke="orange" stroke-dasharray="5,2" d="M549.87,-65.49C572.54,-71.35 597.66,-77.83 620.54,-83.74"/>
<polygon fill="orange" stroke="orange" points="550.97,-62.16 540.42,-63.05 549.22,-68.94 550.97,-62.16"/>
</a>
</g>
<text xml:space="preserve" text-anchor="start" x="559.5" y="-83.85" font-family="Helvetica,sans-Serif" font-size="10.00" fill="grey">&lt; V, ID &gt;</text>
</g>
<!-- Node6&#45;&gt;Node11 -->
<g id="edge12_Node000011_Node000006" class="edge">
<title>Node6&#45;&gt;Node11</title>
<g id="a_edge12_Node000011_Node000006"><a xlink:title=" ">
<path fill="none" stroke="orange" stroke-dasharray="5,2" d="M549.98,-25.06C552.17,-24.67 554.35,-24.31 556.5,-24 580.74,-20.51 607.43,-22.42 630.87,-26.01"/>
<polygon fill="orange" stroke="orange" points="549.53,-21.58 540.44,-27.03 550.95,-28.43 549.53,-21.58"/>
</a>
</g>
<text xml:space="preserve" text-anchor="start" x="559.5" y="-29.5" font-family="Helvetica,sans-Serif" font-size="10.00" fill="grey">&lt; V, ID &gt;</text>
</g>
<!-- Node7 -->
<g id="Node000007" class="node">
<title>Node7</title>
<g id="a_Node000007"><a xlink:title=" ">
<polygon fill="white" stroke="#666666" points="320,-82 280,-82 280,-62 320,-62 320,-82"/>
<text xml:space="preserve" text-anchor="middle" x="300" y="-68.5" font-family="Helvetica,sans-Serif" font-size="10.00">Value</text>
</a>
</g>
</g>
<!-- Node7&#45;&gt;Node6 -->
<g id="edge6_Node000006_Node000007" class="edge">
<title>Node7&#45;&gt;Node6</title>
<g id="a_edge6_Node000006_Node000007"><a xlink:title=" ">
<path fill="none" stroke="darkgreen" d="M331.63,-67.63C354.83,-64.32 387.45,-59.67 415.84,-55.62"/>
<polygon fill="darkgreen" stroke="darkgreen" points="331.33,-64.14 321.92,-69.02 332.32,-71.07 331.33,-64.14"/>
</a>
</g>
</g>
<!-- Node8 -->
<g id="Node000008" class="node">
<title>Node8</title>
<g id="a_Node000008"><a xlink:href="structdepicture__menu_1_1domain_1_1models_1_1entity__id__base.html" target="_top" xlink:title=" ">
<polygon fill="white" stroke="#666666" points="361.25,-44 238.75,-44 238.75,0 361.25,0 361.25,-44"/>
<text xml:space="preserve" text-anchor="start" x="246.75" y="-30.5" font-family="Helvetica,sans-Serif" font-size="10.00">depicture_menu::domain</text>
<text xml:space="preserve" text-anchor="start" x="246.75" y="-18.5" font-family="Helvetica,sans-Serif" font-size="10.00">::models::entity_id_base</text>
<text xml:space="preserve" text-anchor="middle" x="300" y="-6.5" font-family="Helvetica,sans-Serif" font-size="10.00">&lt; standard_tag &gt;</text>
</a>
</g>
</g>
<!-- Node8&#45;&gt;Node6 -->
<g id="edge7_Node000006_Node000008" class="edge">
<title>Node8&#45;&gt;Node6</title>
<g id="a_edge7_Node000006_Node000008"><a xlink:title=" ">
<path fill="none" stroke="#9a32cd" stroke-dasharray="5,2" d="M372.59,-32.21C386.84,-34.25 401.68,-36.36 415.53,-38.34"/>
<polygon fill="#9a32cd" stroke="#9a32cd" points="373.2,-28.76 362.81,-30.82 372.21,-35.69 373.2,-28.76"/>
</a>
</g>
<text xml:space="preserve" text-anchor="start" x="382.25" y="-40.75" font-family="Helvetica,sans-Serif" font-size="10.00" fill="grey">id_</text>
</g>
<!-- Node9 -->
<g id="Node000009" class="node">
<title>Node9</title>
<g id="a_Node000009"><a xlink:href="structdepicture__menu_1_1domain_1_1models_1_1entity__id__base.html" target="_top" xlink:title=" ">
<polygon fill="white" stroke="#666666" points="122.5,-44 0,-44 0,0 122.5,0 122.5,-44"/>
<text xml:space="preserve" text-anchor="start" x="8" y="-30.5" font-family="Helvetica,sans-Serif" font-size="10.00">depicture_menu::domain</text>
<text xml:space="preserve" text-anchor="start" x="8" y="-18.5" font-family="Helvetica,sans-Serif" font-size="10.00">::models::entity_id_base</text>
<text xml:space="preserve" text-anchor="middle" x="61.25" y="-6.5" font-family="Helvetica,sans-Serif" font-size="10.00">&lt; Tag &gt;</text>
</a>
</g>
</g>
<!-- Node9&#45;&gt;Node8 -->
<g id="edge8_Node000008_Node000009" class="edge">
<title>Node9&#45;&gt;Node8</title>
<g id="a_edge8_Node000008_Node000009"><a xlink:title=" ">
<path fill="none" stroke="orange" stroke-dasharray="5,2" d="M134.42,-22C167.71,-22 206.78,-22 238.5,-22"/>
<polygon fill="orange" stroke="orange" points="134.43,-18.5 124.43,-22 134.43,-25.5 134.43,-18.5"/>
</a>
</g>
<text xml:space="preserve" text-anchor="start" x="143.5" y="-27.5" font-family="Helvetica,sans-Serif" font-size="10.00" fill="grey">&lt; standard_tag &gt;</text>
</g>
<!-- Node10 -->
<g id="Node000010" class="node">
<title>Node10</title>
<g id="a_Node000010"><a xlink:href="classdepicture__menu_1_1domain_1_1actions_1_1v2_1_1publisher.html" target="_top" xlink:title=" ">
<polygon fill="white" stroke="#666666" points="1071.25,-60 948.75,-60 948.75,-28 1071.25,-28 1071.25,-60"/>
<text xml:space="preserve" text-anchor="start" x="956.75" y="-46.5" font-family="Helvetica,sans-Serif" font-size="10.00">depicture_menu::domain</text>
<text xml:space="preserve" text-anchor="middle" x="1010" y="-34.5" font-family="Helvetica,sans-Serif" font-size="10.00">::actions::v2::publisher</text>
</a>
</g>
</g>
<!-- Node10&#45;&gt;Node1 -->
<g id="edge9_Node000001_Node000010" class="edge">
<title>Node10&#45;&gt;Node1</title>
<g id="a_edge9_Node000001_Node000010"><a xlink:title=" ">
<path fill="none" stroke="#9a32cd" stroke-dasharray="5,2" d="M1082.98,-46.85C1125.47,-48.56 1180.3,-50.82 1229,-53 1256.77,-54.24 1287.51,-55.71 1313.55,-56.98"/>
<polygon fill="#9a32cd" stroke="#9a32cd" points="1083.26,-43.36 1073.13,-46.45 1082.98,-50.35 1083.26,-43.36"/>
</a>
</g>
<text xml:space="preserve" text-anchor="start" x="1143.38" y="-58.5" font-family="Helvetica,sans-Serif" font-size="10.00" fill="grey">article_</text>
</g>
<!-- Node11&#45;&gt;Node10 -->
<g id="edge10_Node000010_Node000011" class="edge">
<title>Node11&#45;&gt;Node10</title>
<g id="a_edge10_Node000010_Node000011"><a xlink:title=" ">
<path fill="none" stroke="#63b8ff" d="M772.59,-41.73C826.49,-42.24 898.06,-42.93 948.28,-43.42"/>
<polygon fill="#63b8ff" stroke="#63b8ff" points="772.91,-38.23 762.88,-41.63 772.85,-45.23 772.91,-38.23"/>
</a>
</g>
</g>
</g>
</svg>

<g id="navigator" transform="translate(0 0)" fill="#404254">
  <rect fill="#f2f5e9" fill-opacity="0.5" stroke="#606060" stroke-width=".5" x="0" y="0" width="60" height="60"/>
  <use id="zoomplus" xlink:href="#zoomPlus" x="17" y="9" onmousedown="handleZoom(evt,'in')"/>
  <use id="zoomminus" xlink:href="#zoomMin" x="42" y="9" onmousedown="handleZoom(evt,'out')"/>
  <use id="reset" xlink:href="#resetDef" x="30" y="36" onmousedown="handleReset()"/>
   <use id="arrowup" xlink:href="#arrowUp" x="0" y="0" onmousedown="handlePan(0,-1)"/>
  <use id="arrowright" xlink:href="#arrowRight" x="0" y="0" onmousedown="handlePan(1,0)"/>
  <use id="arrowdown" xlink:href="#arrowDown" x="0" y="0" onmousedown="handlePan(0,1)"/>
  <use id="arrowleft" xlink:href="#arrowLeft" x="0" y="0" onmousedown="handlePan(-1,0)"/>
</g>
<svg viewBox="0 0 15 15" width="100%" height="30px" preserveAspectRatio="xMaxYMin meet">
 <g id="arrow_out" transform="scale(0.3 0.3)">
  <a xlink:href="classdepicture__menu_1_1domain_1_1services_1_1create__action__domain__service__coll__graph_org.svg" target="_base">
   <rect id="button" ry="5" rx="5" y="6" x="6" height="38" width="38"
        fill="#f2f5e9" fill-opacity="0.5" stroke="#606060" stroke-width="1.0"/>
   <path id="arrow"
     d="M 11.500037,31.436501 C 11.940474,20.09759 22.043105,11.32322 32.158766,21.979434 L 37.068811,17.246167 C 37.068811,17.246167 37.088388,32 37.088388,32 L 22.160133,31.978069 C 22.160133,31.978069 26.997745,27.140456 26.997745,27.140456 C 18.528582,18.264221 13.291696,25.230495 11.500037,31.436501 z"
     style="fill:#404040;"/>
  </a>
 </g>
</svg>

<style type='text/css'>
<![CDATA[
[data-mouse-over-selected='false'] { opacity: 0.7; }
[data-mouse-over-selected='true']  { opacity: 1.0; }
]]>
</style>
<script type="application/ecmascript"><![CDATA[
document.addEventListener('DOMContentLoaded', (event) => {
  highlightEdges();
  highlightAdjacentNodes();
});
]]></script>
</svg>
