<?xml version="1.0" encoding="UTF-8" standalone="no"?>
<!DOCTYPE svg PUBLIC "-//W3C//DTD SVG 1.1//EN"
 "http://www.w3.org/Graphics/SVG/1.1/DTD/svg11.dtd">
<!-- Generated by graphviz version 14.1.2 (20260124.0452)
 -->
<!-- Title: depicture_menu::domain::services::common_action_builder Pages: 1 -->
<svg width="840pt" height="73pt"
 viewBox="0.00 0.00 840.00 73.00" xmlns="http://www.w3.org/2000/svg" xmlns:xlink="http://www.w3.org/1999/xlink">
<g id="graph0" class="graph" transform="scale(1 1) rotate(0) translate(4 69)">
<title>depicture_menu::domain::services::common_action_builder</title>
<!-- Node1 -->
<g id="Node000001" class="node">
<title>Node1</title>
<g id="a_Node000001"><a xlink:title=" ">
<polygon fill="#999999" stroke="#666666" points="832.25,-59 698.5,-59 698.5,-15 832.25,-15 832.25,-59"/>
<text xml:space="preserve" text-anchor="start" x="706.5" y="-45.5" font-family="Helvetica,sans-Serif" font-size="10.00">depicture_menu::domain</text>
<text xml:space="preserve" text-anchor="start" x="706.5" y="-33.5" font-family="Helvetica,sans-Serif" font-size="10.00">::services::common_action</text>
<text xml:space="preserve" text-anchor="middle" x="765.38" y="-21.5" font-family="Helvetica,sans-Serif" font-size="10.00">_builder</text>
</a>
</g>
</g>
<!-- Node2 -->
<g id="Node000002" class="node">
<title>Node2</title>
<g id="a_Node000002"><a xlink:href="classdepicture__menu_1_1domain_1_1crud__repository__interface.html" target="_top" xlink:title=" ">
<polygon fill="white" stroke="#666666" points="609.25,-65 471.75,-65 471.75,-9 609.25,-9 609.25,-65"/>
<text xml:space="preserve" text-anchor="start" x="479.75" y="-51.5" font-family="Helvetica,sans-Serif" font-size="10.00">depicture_menu::domain</text>
<text xml:space="preserve" text-anchor="start" x="479.75" y="-39.5" font-family="Helvetica,sans-Serif" font-size="10.00">::crud_repository_interface</text>
<text xml:space="preserve" text-anchor="start" x="479.75" y="-27.5" font-family="Helvetica,sans-Serif" font-size="10.00">&lt; depicture_menu::domain::</text>
<text xml:space="preserve" text-anchor="middle" x="540.5" y="-15.5" font-family="Helvetica,sans-Serif" font-size="10.00">commands::invoker &gt;</text>
</a>
</g>
</g>
<!-- Node2&#45;&gt;Node1 -->
<g id="edge1_Node000001_Node000002" class="edge">
<title>Node2&#45;&gt;Node1</title>
<g id="a_edge1_Node000001_Node000002"><a xlink:title=" ">
<path fill="none" stroke="#9a32cd" stroke-dasharray="5,2" d="M621.01,-37C646.31,-37 674,-37 698.24,-37"/>
<polygon fill="#9a32cd" stroke="#9a32cd" points="621.09,-33.5 611.09,-37 621.09,-40.5 621.09,-33.5"/>
</a>
</g>
<text xml:space="preserve" text-anchor="start" x="630.25" y="-42.5" font-family="Helvetica,sans-Serif" font-size="10.00" fill="grey">inv_repos_</text>
</g>
<!-- Node3 -->
<g id="Node000003" class="node">
<title>Node3</title>
<g id="a_Node000003"><a xlink:href="classdepicture__menu_1_1domain_1_1query__interface.html" target="_top" xlink:title=" ">
<polygon fill="white" stroke="#666666" points="122.5,-56 0,-56 0,-24 122.5,-24 122.5,-56"/>
<text xml:space="preserve" text-anchor="start" x="8" y="-42.5" font-family="Helvetica,sans-Serif" font-size="10.00">depicture_menu::domain</text>
<text xml:space="preserve" text-anchor="middle" x="61.25" y="-30.5" font-family="Helvetica,sans-Serif" font-size="10.00">::query_interface&lt; T &gt;</text>
</a>
</g>
</g>
<!-- Node3&#45;&gt;Node2 -->
<g id="edge2_Node000002_Node000003" class="edge">
<title>Node3&#45;&gt;Node2</title>
<g id="a_edge2_Node000002_Node000003"><a xlink:title=" ">
<path fill="none" stroke="#63b8ff" d="M133.89,-45.08C212.45,-49.8 342.2,-55.13 453.75,-48 459.59,-47.63 465.64,-47.11 471.71,-46.51"/>
<polygon fill="#63b8ff" stroke="#63b8ff" points="134.39,-41.6 124.19,-44.48 133.96,-48.59 134.39,-41.6"/>
</a>
</g>
</g>
<!-- Node4 -->
<g id="Node000004" class="node">
<title>Node4</title>
<g id="a_Node000004"><a xlink:href="classdepicture__menu_1_1domain_1_1crud__repository__interface.html" target="_top" xlink:title=" ">
<polygon fill="white" stroke="#666666" points="314.25,-32 159.5,-32 159.5,0 314.25,0 314.25,-32"/>
<text xml:space="preserve" text-anchor="start" x="167.5" y="-18.5" font-family="Helvetica,sans-Serif" font-size="10.00">depicture_menu::domain</text>
<text xml:space="preserve" text-anchor="middle" x="236.88" y="-6.5" font-family="Helvetica,sans-Serif" font-size="10.00">::crud_repository_interface&lt; T &gt;</text>
</a>
</g>
</g>
<!-- Node3&#45;&gt;Node4 -->
<g id="edge4_Node000004_Node000003" class="edge">
<title>Node3&#45;&gt;Node4</title>
<g id="a_edge4_Node000004_Node000003"><a xlink:title=" ">
<path fill="none" stroke="#63b8ff" d="M134.34,-30.04C142.48,-28.91 150.8,-27.76 159.01,-26.63"/>
<polygon fill="#63b8ff" stroke="#63b8ff" points="133.9,-26.56 124.47,-31.4 134.86,-33.5 133.9,-26.56"/>
</a>
</g>
</g>
<!-- Node4&#45;&gt;Node2 -->
<g id="edge3_Node000002_Node000004" class="edge">
<title>Node4&#45;&gt;Node2</title>
<g id="a_edge3_Node000002_Node000004"><a xlink:title=" ">
<path fill="none" stroke="orange" stroke-dasharray="5,2" d="M326.02,-9.62C365.27,-8.21 411.98,-8.5 453.75,-14 459.56,-14.77 465.53,-15.81 471.49,-17.03"/>
<polygon fill="orange" stroke="orange" points="325.98,-6.12 316.13,-10.03 326.27,-13.12 325.98,-6.12"/>
</a>
</g>
<text xml:space="preserve" text-anchor="start" x="335.25" y="-35.5" font-family="Helvetica,sans-Serif" font-size="10.00" fill="grey">&lt; depicture_menu::domain</text>
<text xml:space="preserve" text-anchor="start" x="335.25" y="-19.5" font-family="Helvetica,sans-Serif" font-size="10.00" fill="grey">  ::commands::invoker &gt;</text>
</g>
</g>
</svg>
