<?xml version="1.0" encoding="UTF-8" standalone="no"?>
<!DOCTYPE svg PUBLIC "-//W3C//DTD SVG 1.1//EN"
 "http://www.w3.org/Graphics/SVG/1.1/DTD/svg11.dtd">
<!-- Generated by graphviz version 14.1.2 (20260124.0452)
 -->
<!-- Title: depicture_menu::domain::query_interface&lt; T &gt; Pages: 1 -->
<!--zoomable 810 -->

<svg id="main" version="1.1" xmlns="http://www.w3.org/2000/svg" xmlns:xlink="http://www.w3.org/1999/xlink" xml:space="preserve" onload="init(evt)">

<style type="text/css"><![CDATA[
.node, .edge {opacity: 0.7;}
.node.selected, .edge.selected {opacity: 1;}
.edge:hover path { stroke: red; }
.edge:hover polygon { stroke: red; fill: red; }
]]></style>

<defs>
  <circle id="rim" cx="0" cy="0" r="7"/>
  <circle id="rim2" cx="0" cy="0" r="3.5"/>
  <g id="zoomPlus">
    <use xlink:href="#rim" fill="#404040"><set attributeName="fill" to="#808080" begin="zoomplus.mouseover" end="zoomplus.mouseout"/></use>
    <path d="M-4,0h8M0,-4v8" fill="none" stroke="white" stroke-width="1.5" pointer-events="none"/>
  </g>
  <g id="zoomMin">
    <use xlink:href="#rim" fill="#404040"><set attributeName="fill" to="#808080" begin="zoomminus.mouseover" end="zoomminus.mouseout"/></use>
    <path d="M-4,0h8" fill="none" stroke="white" stroke-width="1.5" pointer-events="none"/>
  </g>
  <g id="arrowUp" transform="translate(30 24)">
    <use xlink:href="#rim"/>
    <path pointer-events="none" fill="none" stroke="white" stroke-width="1.5" d="M0,-3.0v7 M-2.5,-0.5L0,-3.0L2.5,-0.5"/>
  </g>
  <g id="arrowRight" transform="rotate(90) translate(36 -43)">
    <use xlink:href="#rim"/>
    <path pointer-events="none" fill="none" stroke="white" stroke-width="1.5" d="M0,-3.0v7 M-2.5,-0.5L0,-3.0L2.5,-0.5"/>
  </g>
  <g id="arrowDown" transform="rotate(180) translate(-30 -48)">
    <use xlink:href="#rim"/>
    <path pointer-events="none" fill="none" stroke="white" stroke-width="1.5" d="M0,-3.0v7 M-2.5,-0.5L0,-3.0L2.5,-0.5"/>
  </g>
  <g id="arrowLeft" transform="rotate(270) translate(-36 17)">
    <use xlink:href="#rim"/>
    <path pointer-events="none" fill="none" stroke="white" stroke-width="1.5" d="M0,-3.0v7 M-2.5,-0.5L0,-3.0L2.5,-0.5"/>
  </g>
  <g id="resetDef">
    <use xlink:href="#rim2" fill="#404040"><set attributeName="fill" to="#808080" begin="reset.mouseover" end="reset.mouseout"/></use>
  </g>
</defs>
<script type="application/ecmascript">
var viewWidth = 1241;
var viewHeight = 810;
var sectionId = 'dynsection-0';
</script>
<script type="application/ecmascript" xlink:href="svg.min.js"/>
<svg id="graph" class="graph">
<g id="viewport">
<title>depicture_menu::domain::query_interface&lt; T &gt;</title>
<!-- Node1 -->
<g id="Node000001" class="node">
<title>Node1</title>
<g id="a_Node000001"><a xlink:title=" ">
<polygon fill="#999999" stroke="#666666" points="122.5,-671 0,-671 0,-639 122.5,-639 122.5,-671"/>
<text xml:space="preserve" text-anchor="start" x="8" y="-657.5" font-family="Helvetica,sans-Serif" font-size="10.00">depicture_menu::domain</text>
<text xml:space="preserve" text-anchor="middle" x="61.25" y="-645.5" font-family="Helvetica,sans-Serif" font-size="10.00">::query_interface&lt; T &gt;</text>
</a>
</g>
</g>
<!-- Node2 -->
<g id="Node000002" class="node">
<title>Node2</title>
<g id="a_Node000002"><a xlink:href="classdepicture__menu_1_1domain_1_1crud__repository__interface.html" target="_top" xlink:title=" ">
<polygon fill="white" stroke="#666666" points="622.38,-802 484.88,-802 484.88,-746 622.38,-746 622.38,-802"/>
<text xml:space="preserve" text-anchor="start" x="492.88" y="-788.5" font-family="Helvetica,sans-Serif" font-size="10.00">depicture_menu::domain</text>
<text xml:space="preserve" text-anchor="start" x="492.88" y="-776.5" font-family="Helvetica,sans-Serif" font-size="10.00">::crud_repository_interface</text>
<text xml:space="preserve" text-anchor="start" x="492.88" y="-764.5" font-family="Helvetica,sans-Serif" font-size="10.00">&lt; depicture_menu::domain::</text>
<text xml:space="preserve" text-anchor="middle" x="553.62" y="-752.5" font-family="Helvetica,sans-Serif" font-size="10.00">commands::invoker &gt;</text>
</a>
</g>
</g>
<!-- Node1&#45;&gt;Node2 -->
<g id="edge1_Node000001_Node000002" class="edge">
<title>Node1&#45;&gt;Node2</title>
<g id="a_edge1_Node000001_Node000002"><a xlink:title=" ">
<path fill="none" stroke="#63b8ff" d="M91.16,-678.07C109.65,-691.6 134.73,-707.79 159.5,-717 268.43,-757.48 404.28,-769.36 484.42,-772.76"/>
<polygon fill="#63b8ff" stroke="#63b8ff" points="93.44,-675.4 83.34,-672.2 89.24,-681 93.44,-675.4"/>
</a>
</g>
</g>
<!-- Node3 -->
<g id="Node000003" class="node">
<title>Node3</title>
<g id="a_Node000003"><a xlink:href="classdepicture__menu_1_1domain_1_1crud__repository__interface.html" target="_top" xlink:title=" ">
<polygon fill="white" stroke="#666666" points="622.38,-727 484.88,-727 484.88,-671 622.38,-671 622.38,-727"/>
<text xml:space="preserve" text-anchor="start" x="492.88" y="-713.5" font-family="Helvetica,sans-Serif" font-size="10.00">depicture_menu::domain</text>
<text xml:space="preserve" text-anchor="start" x="492.88" y="-701.5" font-family="Helvetica,sans-Serif" font-size="10.00">::crud_repository_interface</text>
<text xml:space="preserve" text-anchor="start" x="492.88" y="-689.5" font-family="Helvetica,sans-Serif" font-size="10.00">&lt; depicture_menu::domain::</text>
<text xml:space="preserve" text-anchor="middle" x="553.62" y="-677.5" font-family="Helvetica,sans-Serif" font-size="10.00">app::config &gt;</text>
</a>
</g>
</g>
<!-- Node1&#45;&gt;Node3 -->
<g id="edge2_Node000001_Node000003" class="edge">
<title>Node1&#45;&gt;Node3</title>
<g id="a_edge2_Node000001_Node000003"><a xlink:title=" ">
<path fill="none" stroke="#63b8ff" d="M122.6,-674.76C176.79,-691.4 258.87,-713.9 332.25,-723 386.83,-729.77 401.41,-729.68 456,-723 465.26,-721.87 474.92,-720.14 484.39,-718.13"/>
<polygon fill="#63b8ff" stroke="#63b8ff" points="123.84,-671.48 113.25,-671.86 121.77,-678.17 123.84,-671.48"/>
</a>
</g>
</g>
<!-- Node4 -->
<g id="Node000004" class="node">
<title>Node4</title>
<g id="a_Node000004"><a xlink:href="classdepicture__menu_1_1domain_1_1crud__repository__interface.html" target="_top" xlink:title=" ">
<polygon fill="white" stroke="#666666" points="622.38,-650 484.88,-650 484.88,-594 622.38,-594 622.38,-650"/>
<text xml:space="preserve" text-anchor="start" x="492.88" y="-636.5" font-family="Helvetica,sans-Serif" font-size="10.00">depicture_menu::domain</text>
<text xml:space="preserve" text-anchor="start" x="492.88" y="-624.5" font-family="Helvetica,sans-Serif" font-size="10.00">::crud_repository_interface</text>
<text xml:space="preserve" text-anchor="start" x="492.88" y="-612.5" font-family="Helvetica,sans-Serif" font-size="10.00">&lt; depicture_menu::domain::</text>
<text xml:space="preserve" text-anchor="middle" x="553.62" y="-600.5" font-family="Helvetica,sans-Serif" font-size="10.00">actions::v2::publisher &gt;</text>
</a>
</g>
</g>
<!-- Node1&#45;&gt;Node4 -->
<g id="edge3_Node000001_Node000004" class="edge">
<title>Node1&#45;&gt;Node4</title>
<g id="a_edge3_Node000001_Node000004"><a xlink:title=" ">
<path fill="none" stroke="#63b8ff" d="M134.14,-655.85C213.27,-656 344.12,-653.91 456,-641 465.26,-639.93 474.95,-638.46 484.48,-636.8"/>
<polygon fill="#63b8ff" stroke="#63b8ff" points="134.37,-652.36 124.36,-655.82 134.35,-659.36 134.37,-652.36"/>
</a>
</g>
</g>
<!-- Node5 -->
<g id="Node000005" class="node">
<title>Node5</title>
<g id="a_Node000005"><a xlink:href="classdepicture__menu_1_1domain_1_1crud__repository__interface.html" target="_top" xlink:title=" ">
<polygon fill="white" stroke="#666666" points="622.38,-570 484.88,-570 484.88,-514 622.38,-514 622.38,-570"/>
<text xml:space="preserve" text-anchor="start" x="492.88" y="-556.5" font-family="Helvetica,sans-Serif" font-size="10.00">depicture_menu::domain</text>
<text xml:space="preserve" text-anchor="start" x="492.88" y="-544.5" font-family="Helvetica,sans-Serif" font-size="10.00">::crud_repository_interface</text>
<text xml:space="preserve" text-anchor="start" x="492.88" y="-532.5" font-family="Helvetica,sans-Serif" font-size="10.00">&lt; depicture_menu::domain::</text>
<text xml:space="preserve" text-anchor="middle" x="553.62" y="-520.5" font-family="Helvetica,sans-Serif" font-size="10.00">commands::command &gt;</text>
</a>
</g>
</g>
<!-- Node1&#45;&gt;Node5 -->
<g id="edge4_Node000001_Node000005" class="edge">
<title>Node1&#45;&gt;Node5</title>
<g id="a_edge4_Node000001_Node000005"><a xlink:title=" ">
<path fill="none" stroke="#63b8ff" d="M133.81,-636.04C188.11,-621.88 264.68,-602.4 332.25,-587 383.08,-575.42 440.82,-563.68 484.45,-555.09"/>
<polygon fill="#63b8ff" stroke="#63b8ff" points="133.17,-632.59 124.38,-638.5 134.94,-639.36 133.17,-632.59"/>
</a>
</g>
</g>
<!-- Node6 -->
<g id="Node000006" class="node">
<title>Node6</title>
<g id="a_Node000006"><a xlink:href="classdepicture__menu_1_1domain_1_1crud__repository__interface.html" target="_top" xlink:title=" ">
<polygon fill="white" stroke="#666666" points="314.25,-388 159.5,-388 159.5,-356 314.25,-356 314.25,-388"/>
<text xml:space="preserve" text-anchor="start" x="167.5" y="-374.5" font-family="Helvetica,sans-Serif" font-size="10.00">depicture_menu::domain</text>
<text xml:space="preserve" text-anchor="middle" x="236.88" y="-362.5" font-family="Helvetica,sans-Serif" font-size="10.00">::crud_repository_interface&lt; T &gt;</text>
</a>
</g>
</g>
<!-- Node1&#45;&gt;Node6 -->
<g id="edge5_Node000001_Node000006" class="edge">
<title>Node1&#45;&gt;Node6</title>
<g id="a_edge5_Node000001_Node000006"><a xlink:title=" ">
<path fill="none" stroke="#63b8ff" d="M78.34,-628.78C113.59,-571.31 196.84,-435.63 225.76,-388.48"/>
<polygon fill="#63b8ff" stroke="#63b8ff" points="75.37,-626.92 73.13,-637.27 81.34,-630.58 75.37,-626.92"/>
</a>
</g>
</g>
<!-- Node6&#45;&gt;Node2 -->
<g id="edge27_Node000006_Node000002" class="edge">
<title>Node6&#45;&gt;Node2</title>
<g id="a_edge27_Node000006_Node000002"><a xlink:title=" ">
<path fill="none" stroke="orange" stroke-dasharray="5,2" d="M239.68,-399.67C244.74,-456.22 263.59,-586.39 332.25,-666 372.3,-712.43 401.08,-699.73 456,-727 464.01,-730.98 465.97,-732.05 474,-736 480.39,-739.14 487.09,-742.41 493.76,-745.66"/>
<polygon fill="orange" stroke="orange" points="243.19,-399.66 238.9,-389.97 236.21,-400.22 243.19,-399.66"/>
</a>
</g>
<text xml:space="preserve" text-anchor="start" x="336.38" y="-748.5" font-family="Helvetica,sans-Serif" font-size="10.00" fill="grey">&lt; depicture_menu::domain</text>
<text xml:space="preserve" text-anchor="start" x="336.38" y="-732.5" font-family="Helvetica,sans-Serif" font-size="10.00" fill="grey">  ::commands::invoker &gt;</text>
</g>
<!-- Node6&#45;&gt;Node3 -->
<g id="edge28_Node000006_Node000003" class="edge">
<title>Node6&#45;&gt;Node3</title>
<g id="a_edge28_Node000006_Node000003"><a xlink:title=" ">
<path fill="none" stroke="orange" stroke-dasharray="5,2" d="M243.02,-399.33C252.77,-443.87 278,-532.34 332.25,-584 374.97,-624.68 410,-595.07 456,-632 467.25,-641.03 463.22,-649.42 474,-659 478.69,-663.17 483.9,-667.03 489.33,-670.58"/>
<polygon fill="orange" stroke="orange" points="246.49,-398.81 241.03,-389.73 239.63,-400.23 246.49,-398.81"/>
</a>
</g>
<text xml:space="preserve" text-anchor="start" x="336.38" y="-653.5" font-family="Helvetica,sans-Serif" font-size="10.00" fill="grey">&lt; depicture_menu::domain</text>
<text xml:space="preserve" text-anchor="start" x="336.38" y="-637.5" font-family="Helvetica,sans-Serif" font-size="10.00" fill="grey">  ::app::config &gt;</text>
</g>
<!-- Node6&#45;&gt;Node4 -->
<g id="edge29_Node000006_Node000004" class="edge">
<title>Node6&#45;&gt;Node4</title>
<g id="a_edge29_Node000006_Node000004"><a xlink:title=" ">
<path fill="none" stroke="orange" stroke-dasharray="5,2" d="M250.91,-398.14C266.59,-427.17 295.45,-473.65 332.25,-502 378.98,-538 410.6,-512.33 456,-550 467.67,-559.69 462.98,-568.57 474,-579 479.65,-584.35 486.09,-589.25 492.8,-593.67"/>
<polygon fill="orange" stroke="orange" points="254.2,-396.87 246.45,-389.64 248,-400.12 254.2,-396.87"/>
</a>
</g>
<text xml:space="preserve" text-anchor="start" x="336.38" y="-571.5" font-family="Helvetica,sans-Serif" font-size="10.00" fill="grey">&lt; depicture_menu::domain</text>
<text xml:space="preserve" text-anchor="start" x="336.38" y="-555.5" font-family="Helvetica,sans-Serif" font-size="10.00" fill="grey">  ::actions::v2::publisher &gt;</text>
</g>
<!-- Node6&#45;&gt;Node5 -->
<g id="edge30_Node000006_Node000005" class="edge">
<title>Node6&#45;&gt;Node5</title>
<g id="a_edge30_Node000006_Node000005"><a xlink:title=" ">
<path fill="none" stroke="orange" stroke-dasharray="5,2" d="M262.11,-396.05C280.01,-412.4 305.77,-433.14 332.25,-445 383.31,-467.87 411.31,-434.35 456,-468 470.29,-478.76 461.27,-491.44 474,-504 477.56,-507.51 481.51,-510.75 485.69,-513.73"/>
<polygon fill="orange" stroke="orange" points="264.78,-393.76 255.09,-389.47 260,-398.87 264.78,-393.76"/>
</a>
</g>
<text xml:space="preserve" text-anchor="start" x="335.25" y="-489.5" font-family="Helvetica,sans-Serif" font-size="10.00" fill="grey">&lt; depicture_menu::domain</text>
<text xml:space="preserve" text-anchor="start" x="335.25" y="-473.5" font-family="Helvetica,sans-Serif" font-size="10.00" fill="grey">  ::commands::command &gt;</text>
</g>
<!-- Node7 -->
<g id="Node000007" class="node">
<title>Node7</title>
<g id="a_Node000007"><a xlink:href="classdepicture__menu_1_1repositories_1_1diff__snapshots__repository.html" target="_top" xlink:title=" ">
<polygon fill="white" stroke="#666666" points="932,-438 790.75,-438 790.75,-394 932,-394 932,-438"/>
<text xml:space="preserve" text-anchor="start" x="798.75" y="-424.5" font-family="Helvetica,sans-Serif" font-size="10.00">depicture_menu::repositories</text>
<text xml:space="preserve" text-anchor="start" x="798.75" y="-412.5" font-family="Helvetica,sans-Serif" font-size="10.00">::diff_snapshots_repository</text>
<text xml:space="preserve" text-anchor="middle" x="861.38" y="-400.5" font-family="Helvetica,sans-Serif" font-size="10.00">&lt; value_t &gt;</text>
</a>
</g>
</g>
<!-- Node6&#45;&gt;Node7 -->
<g id="edge6_Node000006_Node000007" class="edge">
<title>Node6&#45;&gt;Node7</title>
<g id="a_edge6_Node000006_Node000007"><a xlink:title=" ">
<path fill="none" stroke="#63b8ff" d="M325.91,-378.22C450.77,-387.05 676.74,-403.02 790.69,-411.07"/>
<polygon fill="#63b8ff" stroke="#63b8ff" points="326.25,-374.74 316.03,-377.52 325.76,-381.72 326.25,-374.74"/>
</a>
</g>
</g>
<!-- Node8 -->
<g id="Node000008" class="node">
<title>Node8</title>
<g id="a_Node000008"><a xlink:href="structdepicture__menu_1_1repositories_1_1locked__repository.html" target="_top" xlink:title=" ">
<polygon fill="white" stroke="#666666" points="932,-357 790.75,-357 790.75,-325 932,-325 932,-357"/>
<text xml:space="preserve" text-anchor="start" x="798.75" y="-343.5" font-family="Helvetica,sans-Serif" font-size="10.00">depicture_menu::repositories</text>
<text xml:space="preserve" text-anchor="middle" x="861.38" y="-331.5" font-family="Helvetica,sans-Serif" font-size="10.00">::locked_repository&lt; C &gt;</text>
</a>
</g>
</g>
<!-- Node6&#45;&gt;Node8 -->
<g id="edge7_Node000006_Node000008" class="edge">
<title>Node6&#45;&gt;Node8</title>
<g id="a_edge7_Node000006_Node000008"><a xlink:title=" ">
<path fill="none" stroke="#63b8ff" d="M325.91,-367.62C450.77,-361.4 676.74,-350.14 790.69,-344.47"/>
<polygon fill="#63b8ff" stroke="#63b8ff" points="325.84,-364.11 316.03,-368.11 326.19,-371.11 325.84,-364.11"/>
</a>
</g>
</g>
<!-- Node9 -->
<g id="Node000009" class="node">
<title>Node9</title>
<g id="a_Node000009"><a xlink:href="structdepicture__menu_1_1test_1_1test__tools_1_1test__repository.html" target="_top" xlink:title=" ">
<polygon fill="white" stroke="#666666" points="930.12,-274 792.62,-274 792.62,-218 930.12,-218 930.12,-274"/>
<text xml:space="preserve" text-anchor="start" x="800.62" y="-260.5" font-family="Helvetica,sans-Serif" font-size="10.00">depicture_menu::test</text>
<text xml:space="preserve" text-anchor="start" x="800.62" y="-248.5" font-family="Helvetica,sans-Serif" font-size="10.00">::test_tools::test_repository</text>
<text xml:space="preserve" text-anchor="start" x="800.62" y="-236.5" font-family="Helvetica,sans-Serif" font-size="10.00">&lt; depicture_menu::domain::</text>
<text xml:space="preserve" text-anchor="middle" x="861.38" y="-224.5" font-family="Helvetica,sans-Serif" font-size="10.00">commands::invoker &gt;</text>
</a>
</g>
</g>
<!-- Node6&#45;&gt;Node9 -->
<g id="edge8_Node000006_Node000009" class="edge">
<title>Node6&#45;&gt;Node9</title>
<g id="a_edge8_Node000006_Node000009"><a xlink:title=" ">
<path fill="none" stroke="#63b8ff" d="M258.2,-346.9C275.82,-326.68 303.03,-298.92 332.25,-282 389.11,-249.07 408.97,-249.43 474,-240 584.54,-223.97 714.73,-231.33 792.25,-238.43"/>
<polygon fill="#63b8ff" stroke="#63b8ff" points="255.6,-344.55 251.79,-354.44 260.93,-349.09 255.6,-344.55"/>
</a>
</g>
</g>
<!-- Node10 -->
<g id="Node000010" class="node">
<title>Node10</title>
<g id="a_Node000010"><a xlink:href="classdepicture__menu_1_1domain_1_1event__publisher__decorator.html" target="_top" xlink:title=" ">
<polygon fill="white" stroke="#666666" points="633.25,-193 474,-193 474,-161 633.25,-161 633.25,-193"/>
<text xml:space="preserve" text-anchor="start" x="482" y="-179.5" font-family="Helvetica,sans-Serif" font-size="10.00">depicture_menu::domain</text>
<text xml:space="preserve" text-anchor="middle" x="553.62" y="-167.5" font-family="Helvetica,sans-Serif" font-size="10.00">::event_publisher_decorator&lt; T &gt;</text>
</a>
</g>
</g>
<!-- Node6&#45;&gt;Node10 -->
<g id="edge9_Node000006_Node000010" class="edge">
<title>Node6&#45;&gt;Node10</title>
<g id="a_edge9_Node000006_Node000010"><a xlink:title=" ">
<path fill="none" stroke="#63b8ff" d="M245.15,-344.86C256.79,-307.18 283.4,-239.94 332.25,-207 373.39,-179.26 428.75,-171.81 473.7,-171.27"/>
<polygon fill="#63b8ff" stroke="#63b8ff" points="241.9,-343.51 242.44,-354.09 248.62,-345.48 241.9,-343.51"/>
</a>
</g>
</g>
<!-- Node11 -->
<g id="Node000011" class="node">
<title>Node11</title>
<g id="a_Node000011"><a xlink:href="classdepicture__menu_1_1repositories_1_1diff__snapshots__repository.html" target="_top" xlink:title=" ">
<polygon fill="white" stroke="#666666" points="631.75,-457 475.5,-457 475.5,-425 631.75,-425 631.75,-457"/>
<text xml:space="preserve" text-anchor="start" x="483.5" y="-443.5" font-family="Helvetica,sans-Serif" font-size="10.00">depicture_menu::repositories</text>
<text xml:space="preserve" text-anchor="middle" x="553.62" y="-431.5" font-family="Helvetica,sans-Serif" font-size="10.00">::diff_snapshots_repository&lt; T &gt;</text>
</a>
</g>
</g>
<!-- Node6&#45;&gt;Node11 -->
<g id="edge10_Node000006_Node000011" class="edge">
<title>Node6&#45;&gt;Node11</title>
<g id="a_edge10_Node000006_Node000011"><a xlink:title=" ">
<path fill="none" stroke="#63b8ff" d="M315.33,-391.1C321.05,-392.44 326.74,-393.75 332.25,-395 379.62,-405.71 432.92,-416.86 475.23,-425.5"/>
<polygon fill="#63b8ff" stroke="#63b8ff" points="316.33,-387.74 305.79,-388.84 314.72,-394.55 316.33,-387.74"/>
</a>
</g>
</g>
<!-- Node12 -->
<g id="Node000012" class="node">
<title>Node12</title>
<g id="a_Node000012"><a xlink:href="structdepicture__menu_1_1repositories_1_1locked__repository.html" target="_top" xlink:title=" ">
<polygon fill="white" stroke="#666666" points="624.25,-331 483,-331 483,-299 624.25,-299 624.25,-331"/>
<text xml:space="preserve" text-anchor="start" x="491" y="-317.5" font-family="Helvetica,sans-Serif" font-size="10.00">depicture_menu::repositories</text>
<text xml:space="preserve" text-anchor="middle" x="553.62" y="-305.5" font-family="Helvetica,sans-Serif" font-size="10.00">::locked_repository&lt; T &gt;</text>
</a>
</g>
</g>
<!-- Node6&#45;&gt;Node12 -->
<g id="edge12_Node000006_Node000012" class="edge">
<title>Node6&#45;&gt;Node12</title>
<g id="a_edge12_Node000006_Node000012"><a xlink:title=" ">
<path fill="none" stroke="#63b8ff" d="M301.42,-352.48C311.67,-349.72 322.21,-347.11 332.25,-345 382.13,-334.53 439.16,-326.88 482.71,-321.92"/>
<polygon fill="#63b8ff" stroke="#63b8ff" points="300.61,-349.07 291.91,-355.11 302.48,-355.82 300.61,-349.07"/>
</a>
</g>
</g>
<!-- Node13 -->
<g id="Node000013" class="node">
<title>Node13</title>
<g id="a_Node000013"><a xlink:href="classdepicture__menu_1_1repositories_1_1on__memory__repository.html" target="_top" xlink:title=" ">
<polygon fill="white" stroke="#666666" points="625.75,-143 481.5,-143 481.5,-111 625.75,-111 625.75,-143"/>
<text xml:space="preserve" text-anchor="start" x="489.5" y="-129.5" font-family="Helvetica,sans-Serif" font-size="10.00">depicture_menu::repositories</text>
<text xml:space="preserve" text-anchor="middle" x="553.62" y="-117.5" font-family="Helvetica,sans-Serif" font-size="10.00">::on_memory_repository&lt; T &gt;</text>
</a>
</g>
</g>
<!-- Node6&#45;&gt;Node13 -->
<g id="edge14_Node000006_Node000013" class="edge">
<title>Node6&#45;&gt;Node13</title>
<g id="a_edge14_Node000006_Node000013"><a xlink:title=" ">
<path fill="none" stroke="#63b8ff" d="M242.34,-344.54C251.1,-300 274.96,-212.53 332.25,-168 374.27,-135.34 434.28,-125.87 481.07,-124.14"/>
<polygon fill="#63b8ff" stroke="#63b8ff" points="238.94,-343.68 240.57,-354.15 245.82,-344.95 238.94,-343.68"/>
</a>
</g>
</g>
<!-- Node18 -->
<g id="Node000018" class="node">
<title>Node18</title>
<g id="a_Node000018"><a xlink:href="classdepicture__menu_1_1test_1_1test__tools_1_1aggregate__repository__mock.html" target="_top" xlink:title=" ">
<polygon fill="white" stroke="#666666" points="611.88,-93 495.38,-93 495.38,-49 611.88,-49 611.88,-93"/>
<text xml:space="preserve" text-anchor="start" x="503.38" y="-79.5" font-family="Helvetica,sans-Serif" font-size="10.00">depicture_menu::test</text>
<text xml:space="preserve" text-anchor="start" x="503.38" y="-67.5" font-family="Helvetica,sans-Serif" font-size="10.00">::test_tools::aggregate</text>
<text xml:space="preserve" text-anchor="middle" x="553.62" y="-55.5" font-family="Helvetica,sans-Serif" font-size="10.00">_repository_mock&lt; T &gt;</text>
</a>
</g>
</g>
<!-- Node6&#45;&gt;Node18 -->
<g id="edge22_Node000006_Node000018" class="edge">
<title>Node6&#45;&gt;Node18</title>
<g id="a_edge22_Node000006_Node000018"><a xlink:title=" ">
<path fill="none" stroke="#63b8ff" d="M240,-344.39C245.53,-292.6 265.01,-180.81 332.25,-122 377.18,-82.7 446.45,-72.09 495.31,-69.96"/>
<polygon fill="#63b8ff" stroke="#63b8ff" points="236.54,-343.83 239.07,-354.12 243.51,-344.5 236.54,-343.83"/>
</a>
</g>
</g>
<!-- Node19 -->
<g id="Node000019" class="node">
<title>Node19</title>
<g id="a_Node000019"><a xlink:href="structdepicture__menu_1_1test_1_1test__tools_1_1test__repository.html" target="_top" xlink:title=" ">
<polygon fill="white" stroke="#666666" points="632.88,-281 474.38,-281 474.38,-249 632.88,-249 632.88,-281"/>
<text xml:space="preserve" text-anchor="start" x="482.38" y="-267.5" font-family="Helvetica,sans-Serif" font-size="10.00">depicture_menu::test</text>
<text xml:space="preserve" text-anchor="middle" x="553.62" y="-255.5" font-family="Helvetica,sans-Serif" font-size="10.00">::test_tools::test_repository&lt; T &gt;</text>
</a>
</g>
</g>
<!-- Node6&#45;&gt;Node19 -->
<g id="edge23_Node000006_Node000019" class="edge">
<title>Node6&#45;&gt;Node19</title>
<g id="a_edge23_Node000006_Node000019"><a xlink:title=" ">
<path fill="none" stroke="#63b8ff" d="M274.35,-350.1C291.48,-340.5 312.45,-329.68 332.25,-322 378.03,-304.24 431.28,-290.29 473.97,-280.64"/>
<polygon fill="#63b8ff" stroke="#63b8ff" points="273.01,-346.84 266.06,-354.84 276.48,-352.92 273.01,-346.84"/>
</a>
</g>
</g>
<!-- Node20 -->
<g id="Node000020" class="node">
<title>Node20</title>
<g id="a_Node000020"><a xlink:href="classmock__aggregate__repository.html" target="_top" xlink:title=" ">
<polygon fill="white" stroke="#666666" points="633.25,-31 474,-31 474,-11 633.25,-11 633.25,-31"/>
<text xml:space="preserve" text-anchor="middle" x="553.62" y="-17.5" font-family="Helvetica,sans-Serif" font-size="10.00">mock_aggregate_repository&lt; T &gt;</text>
</a>
</g>
</g>
<!-- Node6&#45;&gt;Node20 -->
<g id="edge25_Node000006_Node000020" class="edge">
<title>Node6&#45;&gt;Node20</title>
<g id="a_edge25_Node000006_Node000020"><a xlink:title=" ">
<path fill="none" stroke="#63b8ff" d="M237.87,-344.21C239.46,-284.56 252.02,-143.75 332.25,-70 370.12,-35.19 427.09,-23.19 473.61,-19.77"/>
<polygon fill="#63b8ff" stroke="#63b8ff" points="234.37,-344.08 237.71,-354.13 241.37,-344.19 234.37,-344.08"/>
</a>
</g>
</g>
<!-- Node21 -->
<g id="Node000021" class="node">
<title>Node21</title>
<g id="a_Node000021"><a xlink:href="structstate__test__repository.html" target="_top" xlink:title=" ">
<polygon fill="white" stroke="#666666" points="619,-495 488.25,-495 488.25,-475 619,-475 619,-495"/>
<text xml:space="preserve" text-anchor="middle" x="553.62" y="-481.5" font-family="Helvetica,sans-Serif" font-size="10.00">state_test_repository&lt; T &gt;</text>
</a>
</g>
</g>
<!-- Node6&#45;&gt;Node21 -->
<g id="edge26_Node000006_Node000021" class="edge">
<title>Node6&#45;&gt;Node21</title>
<g id="a_edge26_Node000006_Node000021"><a xlink:title=" ">
<path fill="none" stroke="#63b8ff" d="M275.58,-393.89C292.48,-402.98 312.92,-413.02 332.25,-420 385.29,-439.15 406.62,-420.77 456,-448 465.91,-453.46 464.13,-460.46 474,-466 480.12,-469.44 486.85,-472.25 493.72,-474.56"/>
<polygon fill="#63b8ff" stroke="#63b8ff" points="277.33,-390.86 266.88,-389.11 273.96,-396.99 277.33,-390.86"/>
</a>
</g>
</g>
<!-- Node11&#45;&gt;Node7 -->
<g id="edge11_Node000011_Node000007" class="edge">
<title>Node11&#45;&gt;Node7</title>
<g id="a_edge11_Node000011_Node000007"><a xlink:title=" ">
<path fill="none" stroke="orange" stroke-dasharray="5,2" d="M643.54,-433.73C690.33,-429.9 746.87,-425.28 790.48,-421.71"/>
<polygon fill="orange" stroke="orange" points="643.36,-430.23 633.68,-434.54 643.93,-437.21 643.36,-430.23"/>
</a>
</g>
<text xml:space="preserve" text-anchor="start" x="687.25" y="-438.41" font-family="Helvetica,sans-Serif" font-size="10.00" fill="grey">&lt; value_t &gt;</text>
</g>
<!-- Node12&#45;&gt;Node8 -->
<g id="edge13_Node000012_Node000008" class="edge">
<title>Node12&#45;&gt;Node8</title>
<g id="a_edge13_Node000012_Node000008"><a xlink:title=" ">
<path fill="none" stroke="orange" stroke-dasharray="5,2" d="M635.85,-317.47C676.96,-319.23 727.59,-322.16 772.75,-327 778.57,-327.62 784.59,-328.37 790.63,-329.19"/>
<polygon fill="orange" stroke="orange" points="636.17,-313.98 626.03,-317.07 635.88,-320.97 636.17,-313.98"/>
</a>
</g>
<text xml:space="preserve" text-anchor="start" x="699.25" y="-332.5" font-family="Helvetica,sans-Serif" font-size="10.00" fill="grey">&lt; C &gt;</text>
</g>
<!-- Node14 -->
<g id="Node000014" class="node">
<title>Node14</title>
<g id="a_Node000014"><a xlink:href="structtest__repository.html" target="_top" xlink:title=" ">
<polygon fill="white" stroke="#666666" points="1227.38,-32 1110.88,-32 1110.88,0 1227.38,0 1227.38,-32"/>
<text xml:space="preserve" text-anchor="start" x="1118.88" y="-18.5" font-family="Helvetica,sans-Serif" font-size="10.00">test_repository&lt; dd</text>
<text xml:space="preserve" text-anchor="middle" x="1169.12" y="-6.5" font-family="Helvetica,sans-Serif" font-size="10.00">::commands::invoker &gt;</text>
</a>
</g>
</g>
<!-- Node13&#45;&gt;Node14 -->
<g id="edge15_Node000013_Node000014" class="edge">
<title>Node13&#45;&gt;Node14</title>
<g id="a_edge15_Node000013_Node000014"><a xlink:title=" ">
<path fill="none" stroke="#63b8ff" d="M619.77,-106.91C624.35,-105.3 628.88,-103.66 633.25,-102 641.43,-98.89 642.99,-96.89 651.25,-94 780.77,-48.65 813.89,-33.48 950,-16 1004.09,-9.06 1066.34,-9.92 1110.46,-12.01"/>
<polygon fill="#63b8ff" stroke="#63b8ff" points="618.8,-103.54 610.47,-110.07 621.06,-110.16 618.8,-103.54"/>
</a>
</g>
</g>
<!-- Node15 -->
<g id="Node000015" class="node">
<title>Node15</title>
<g id="a_Node000015"><a xlink:href="structtest__repository.html" target="_top" xlink:title=" ">
<polygon fill="white" stroke="#666666" points="1222.88,-94 1115.38,-94 1115.38,-62 1222.88,-62 1222.88,-94"/>
<text xml:space="preserve" text-anchor="start" x="1123.38" y="-80.5" font-family="Helvetica,sans-Serif" font-size="10.00">test_repository&lt; dd</text>
<text xml:space="preserve" text-anchor="middle" x="1169.12" y="-68.5" font-family="Helvetica,sans-Serif" font-size="10.00">::actions::publisher &gt;</text>
</a>
</g>
</g>
<!-- Node13&#45;&gt;Node15 -->
<g id="edge16_Node000013_Node000015" class="edge">
<title>Node13&#45;&gt;Node15</title>
<g id="a_edge16_Node000013_Node000015"><a xlink:title=" ">
<path fill="none" stroke="#63b8ff" d="M637.41,-140.99C743.81,-155.86 933.2,-171.77 1087.25,-128 1110.27,-121.46 1133.16,-106.29 1148.68,-94.36"/>
<polygon fill="#63b8ff" stroke="#63b8ff" points="638.01,-137.54 627.61,-139.58 637.01,-144.47 638.01,-137.54"/>
</a>
</g>
</g>
<!-- Node16 -->
<g id="Node000016" class="node">
<title>Node16</title>
<g id="a_Node000016"><a xlink:href="structtest__repository.html" target="_top" xlink:title=" ">
<polygon fill="white" stroke="#666666" points="1233,-170 1105.25,-170 1105.25,-138 1233,-138 1233,-170"/>
<text xml:space="preserve" text-anchor="start" x="1113.25" y="-156.5" font-family="Helvetica,sans-Serif" font-size="10.00">test_repository&lt; dd</text>
<text xml:space="preserve" text-anchor="middle" x="1169.12" y="-144.5" font-family="Helvetica,sans-Serif" font-size="10.00">::commands::command &gt;</text>
</a>
</g>
</g>
<!-- Node13&#45;&gt;Node16 -->
<g id="edge17_Node000013_Node000016" class="edge">
<title>Node13&#45;&gt;Node16</title>
<g id="a_edge17_Node000013_Node000016"><a xlink:title=" ">
<path fill="none" stroke="#63b8ff" d="M615.55,-146.8C630.17,-151.2 643.72,-154.89 651.25,-156 813.28,-179.79 1006.97,-168.64 1104.84,-160.28"/>
<polygon fill="#63b8ff" stroke="#63b8ff" points="616.82,-143.52 606.23,-143.94 614.77,-150.22 616.82,-143.52"/>
</a>
</g>
</g>
<!-- Node17 -->
<g id="Node000017" class="node">
<title>Node17</title>
<g id="a_Node000017"><a xlink:href="structtest__repository.html" target="_top" xlink:title="@TODO invalid test">
<polygon fill="white" stroke="#666666" points="913.25,-96 809.5,-96 809.5,-76 913.25,-76 913.25,-96"/>
<text xml:space="preserve" text-anchor="middle" x="861.38" y="-82.5" font-family="Helvetica,sans-Serif" font-size="10.00">test_repository&lt; T &gt;</text>
</a>
</g>
</g>
<!-- Node13&#45;&gt;Node17 -->
<g id="edge18_Node000013_Node000017" class="edge">
<title>Node13&#45;&gt;Node17</title>
<g id="a_edge18_Node000013_Node000017"><a xlink:title=" ">
<path fill="none" stroke="#63b8ff" d="M637.02,-115.95C691.83,-108.6 762.12,-99.18 809.07,-92.88"/>
<polygon fill="#63b8ff" stroke="#63b8ff" points="636.87,-112.44 627.42,-117.24 637.8,-119.38 636.87,-112.44"/>
</a>
</g>
</g>
<!-- Node17&#45;&gt;Node14 -->
<g id="edge19_Node000017_Node000014" class="edge">
<title>Node17&#45;&gt;Node14</title>
<g id="a_edge19_Node000017_Node000014"><a xlink:title=" ">
<path fill="none" stroke="orange" stroke-dasharray="5,2" d="M888.85,-70.11C905.77,-60.71 928.48,-49.41 950,-43 1003.02,-27.2 1065.96,-20.63 1110.57,-17.91"/>
<polygon fill="orange" stroke="orange" points="887.4,-66.91 880.45,-74.91 890.87,-72.99 887.4,-66.91"/>
</a>
</g>
<text xml:space="preserve" text-anchor="start" x="958.62" y="-48.5" font-family="Helvetica,sans-Serif" font-size="10.00" fill="grey">&lt; dd::commands::invoker &gt;</text>
</g>
<!-- Node17&#45;&gt;Node15 -->
<g id="edge20_Node000017_Node000015" class="edge">
<title>Node17&#45;&gt;Node15</title>
<g id="a_edge20_Node000017_Node000015"><a xlink:title=" ">
<path fill="none" stroke="orange" stroke-dasharray="5,2" d="M918.66,-73.43C929.03,-71.59 939.8,-69.98 950,-69 1010.72,-63.16 1026.34,-65.62 1087.25,-69 1096.28,-69.5 1105.85,-70.31 1115.12,-71.25"/>
<polygon fill="orange" stroke="orange" points="918.28,-69.94 909.1,-75.23 919.57,-76.82 918.28,-69.94"/>
</a>
</g>
<text xml:space="preserve" text-anchor="start" x="963.12" y="-74.5" font-family="Helvetica,sans-Serif" font-size="10.00" fill="grey">&lt; dd::actions::publisher &gt;</text>
</g>
<!-- Node17&#45;&gt;Node16 -->
<g id="edge21_Node000017_Node000016" class="edge">
<title>Node17&#45;&gt;Node16</title>
<g id="a_edge21_Node000017_Node000016"><a xlink:title=" ">
<path fill="none" stroke="orange" stroke-dasharray="5,2" d="M920.65,-98.96C973.29,-110.67 1050.6,-127.86 1104.76,-139.91"/>
<polygon fill="orange" stroke="orange" points="921.48,-95.56 910.96,-96.8 919.96,-102.39 921.48,-95.56"/>
</a>
</g>
<text xml:space="preserve" text-anchor="start" x="953" y="-141.26" font-family="Helvetica,sans-Serif" font-size="10.00" fill="grey">&lt; dd::commands::command &gt;</text>
</g>
<!-- Node19&#45;&gt;Node9 -->
<g id="edge24_Node000019_Node000009" class="edge">
<title>Node19&#45;&gt;Node9</title>
<g id="a_edge24_Node000019_Node000009"><a xlink:title=" ">
<path fill="none" stroke="orange" stroke-dasharray="5,2" d="M644.83,-259.39C692.01,-256.46 748.83,-252.93 792.29,-250.23"/>
<polygon fill="orange" stroke="orange" points="644.64,-255.9 634.87,-260.01 645.07,-262.89 644.64,-255.9"/>
</a>
</g>
<text xml:space="preserve" text-anchor="start" x="654.25" y="-280.35" font-family="Helvetica,sans-Serif" font-size="10.00" fill="grey">&lt; depicture_menu::domain</text>
<text xml:space="preserve" text-anchor="start" x="654.25" y="-264.35" font-family="Helvetica,sans-Serif" font-size="10.00" fill="grey">  ::commands::invoker &gt;</text>
</g>
</g>
</svg>

<g id="navigator" transform="translate(0 0)" fill="#404254">
  <rect fill="#f2f5e9" fill-opacity="0.5" stroke="#606060" stroke-width=".5" x="0" y="0" width="60" height="60"/>
  <use id="zoomplus" xlink:href="#zoomPlus" x="17" y="9" onmousedown="handleZoom(evt,'in')"/>
  <use id="zoomminus" xlink:href="#zoomMin" x="42" y="9" onmousedown="handleZoom(evt,'out')"/>
  <use id="reset" xlink:href="#resetDef" x="30" y="36" onmousedown="handleReset()"/>
   <use id="arrowup" xlink:href="#arrowUp" x="0" y="0" onmousedown="handlePan(0,-1)"/>
  <use id="arrowright" xlink:href="#arrowRight" x="0" y="0" onmousedown="handlePan(1,0)"/>
  <use id="arrowdown" xlink:href="#arrowDown" x="0" y="0" onmousedown="handlePan(0,1)"/>
  <use id="arrowleft" xlink:href="#arrowLeft" x="0" y="0" onmousedown="handlePan(-1,0)"/>
</g>
<svg viewBox="0 0 15 15" width="100%" height="30px" preserveAspectRatio="xMaxYMin meet">
 <g id="arrow_out" transform="scale(0.3 0.3)">
  <a xlink:href="classdepicture__menu_1_1domain_1_1query__interface__inherit__graph_org.svg" target="_base">
   <rect id="button" ry="5" rx="5" y="6" x="6" height="38" width="38"
        fill="#f2f5e9" fill-opacity="0.5" stroke="#606060" stroke-width="1.0"/>
   <path id="arrow"
     d="M 11.500037,31.436501 C 11.940474,20.09759 22.043105,11.32322 32.158766,21.979434 L 37.068811,17.246167 C 37.068811,17.246167 37.088388,32 37.088388,32 L 22.160133,31.978069 C 22.160133,31.978069 26.997745,27.140456 26.997745,27.140456 C 18.528582,18.264221 13.291696,25.230495 11.500037,31.436501 z"
     style="fill:#404040;"/>
  </a>
 </g>
</svg>

<style type='text/css'>
<![CDATA[
[data-mouse-over-selected='false'] { opacity: 0.7; }
[data-mouse-over-selected='true']  { opacity: 1.0; }
]]>
</style>
<script type="application/ecmascript"><![CDATA[
document.addEventListener('DOMContentLoaded', (event) => {
  highlightEdges();
  highlightAdjacentNodes();
});
]]></script>
</svg>
