<?xml version="1.0" encoding="UTF-8" standalone="no"?>
<!DOCTYPE svg PUBLIC "-//W3C//DTD SVG 1.1//EN"
 "http://www.w3.org/Graphics/SVG/1.1/DTD/svg11.dtd">
<!-- Generated by graphviz version 14.1.2 (20260124.0452)
 -->
<!-- Title: depicture_menu::domain::commands::command::build_shellexecute_commnad Pages: 1 -->
<svg width="701pt" height="152pt"
 viewBox="0.00 0.00 701.00 152.00" xmlns="http://www.w3.org/2000/svg" xmlns:xlink="http://www.w3.org/1999/xlink">
<g id="graph0" class="graph" transform="scale(1 1) rotate(0) translate(4 148)">
<title>depicture_menu::domain::commands::command::build_shellexecute_commnad</title>
<!-- Node1 -->
<g id="Node000001" class="node">
<title>Node1</title>
<g id="a_Node000001"><a xlink:title=" ">
<polygon fill="#999999" stroke="#666666" points="693.25,-106 548.25,-106 548.25,-62 693.25,-62 693.25,-106"/>
<text xml:space="preserve" text-anchor="start" x="556.25" y="-92.5" font-family="Helvetica,sans-Serif" font-size="10.00">depicture_menu::domain</text>
<text xml:space="preserve" text-anchor="start" x="556.25" y="-80.5" font-family="Helvetica,sans-Serif" font-size="10.00">::commands::command::build</text>
<text xml:space="preserve" text-anchor="middle" x="620.75" y="-68.5" font-family="Helvetica,sans-Serif" font-size="10.00">_shellexecute_commnad</text>
</a>
</g>
</g>
<!-- Node2 -->
<g id="Node000002" class="node">
<title>Node2</title>
<g id="a_Node000002"><a xlink:href="_test_config_view_presenter_8cpp.html#afd6569b78df88fbcda86a12acb7bd142" target="_top" xlink:title=" ">
<polygon fill="white" stroke="#666666" points="502.12,-144 354.88,-144 354.88,-124 502.12,-124 502.12,-144"/>
<text xml:space="preserve" text-anchor="middle" x="428.5" y="-130.5" font-family="Helvetica,sans-Serif" font-size="10.00">BOOST_AUTO_TEST_CASE</text>
</a>
</g>
</g>
<!-- Node1&#45;&gt;Node2 -->
<g id="edge1_Node000001_Node000002" class="edge">
<title>Node1&#45;&gt;Node2</title>
<g id="a_edge1_Node000001_Node000002"><a xlink:title=" ">
<path fill="none" stroke="#63b8ff" d="M536.98,-108.36C528.65,-110.67 520.29,-112.92 512.25,-115 500.83,-117.95 488.47,-120.92 476.87,-123.6"/>
<polygon fill="#63b8ff" stroke="#63b8ff" points="537.76,-111.78 546.45,-105.72 535.88,-105.04 537.76,-111.78"/>
</a>
</g>
</g>
<!-- Node3 -->
<g id="Node000003" class="node">
<title>Node3</title>
<g id="a_Node000003"><a xlink:href="classdepicture__menu_1_1domain_1_1services_1_1common__action__builder.html#a2dac5a8e67552ecb027185e75210d586" target="_top" xlink:title=" ">
<polygon fill="white" stroke="#666666" points="512.25,-106 344.75,-106 344.75,-62 512.25,-62 512.25,-106"/>
<text xml:space="preserve" text-anchor="start" x="352.75" y="-92.5" font-family="Helvetica,sans-Serif" font-size="10.00">depicture_menu::domain</text>
<text xml:space="preserve" text-anchor="start" x="352.75" y="-80.5" font-family="Helvetica,sans-Serif" font-size="10.00">::services::common_action</text>
<text xml:space="preserve" text-anchor="middle" x="428.5" y="-68.5" font-family="Helvetica,sans-Serif" font-size="10.00">_builder::build_shellexecute_action</text>
</a>
</g>
</g>
<!-- Node1&#45;&gt;Node3 -->
<g id="edge2_Node000001_Node000003" class="edge">
<title>Node1&#45;&gt;Node3</title>
<g id="a_edge2_Node000001_Node000003"><a xlink:title=" ">
<path fill="none" stroke="#63b8ff" d="M536.41,-84C528.54,-84 520.57,-84 512.7,-84"/>
<polygon fill="#63b8ff" stroke="#63b8ff" points="536.31,-87.5 546.31,-84 536.31,-80.5 536.31,-87.5"/>
</a>
</g>
</g>
<!-- Node4 -->
<g id="Node000004" class="node">
<title>Node4</title>
<g id="a_Node000004"><a xlink:href="structdepicture__menu_1_1usecase_1_1menu__item__sync.html#afb802cc384c318b18ff8e16e92b8fb8b" target="_top" xlink:title=" ">
<polygon fill="white" stroke="#666666" points="493.12,-44 363.88,-44 363.88,0 493.12,0 493.12,-44"/>
<text xml:space="preserve" text-anchor="start" x="371.88" y="-30.5" font-family="Helvetica,sans-Serif" font-size="10.00">depicture_menu::usecase</text>
<text xml:space="preserve" text-anchor="start" x="371.88" y="-18.5" font-family="Helvetica,sans-Serif" font-size="10.00">::menu_item_sync::create</text>
<text xml:space="preserve" text-anchor="middle" x="428.5" y="-6.5" font-family="Helvetica,sans-Serif" font-size="10.00">_new_command</text>
</a>
</g>
</g>
<!-- Node1&#45;&gt;Node4 -->
<g id="edge3_Node000001_Node000004" class="edge">
<title>Node1&#45;&gt;Node4</title>
<g id="a_edge3_Node000001_Node000004"><a xlink:title=" ">
<path fill="none" stroke="#63b8ff" d="M540.14,-58.05C524.57,-52.98 508.44,-47.73 493.47,-42.85"/>
<polygon fill="#63b8ff" stroke="#63b8ff" points="538.76,-61.29 549.36,-61.06 540.93,-54.63 538.76,-61.29"/>
</a>
</g>
</g>
<!-- Node5 -->
<g id="Node000005" class="node">
<title>Node5</title>
<g id="a_Node000005"><a xlink:href="structdepicture__menu_1_1usecase_1_1menu__item__sync.html#ad4a294098777093d4900b371810b3842" target="_top" xlink:title=" ">
<polygon fill="white" stroke="#666666" points="308.75,-44 179.5,-44 179.5,0 308.75,0 308.75,-44"/>
<text xml:space="preserve" text-anchor="start" x="187.5" y="-30.5" font-family="Helvetica,sans-Serif" font-size="10.00">depicture_menu::usecase</text>
<text xml:space="preserve" text-anchor="start" x="187.5" y="-18.5" font-family="Helvetica,sans-Serif" font-size="10.00">::menu_item_sync::create</text>
<text xml:space="preserve" text-anchor="middle" x="244.12" y="-6.5" font-family="Helvetica,sans-Serif" font-size="10.00">_new_action</text>
</a>
</g>
</g>
<!-- Node4&#45;&gt;Node5 -->
<g id="edge4_Node000004_Node000005" class="edge">
<title>Node4&#45;&gt;Node5</title>
<g id="a_edge4_Node000004_Node000005"><a xlink:title=" ">
<path fill="none" stroke="#63b8ff" d="M352.12,-22C337.79,-22 322.94,-22 309.01,-22"/>
<polygon fill="#63b8ff" stroke="#63b8ff" points="351.94,-25.5 361.94,-22 351.94,-18.5 351.94,-25.5"/>
</a>
</g>
</g>
<!-- Node6 -->
<g id="Node000006" class="node">
<title>Node6</title>
<g id="a_Node000006"><a xlink:href="structdepicture__menu_1_1usecase_1_1menu__item__sync.html#a9fd674e4ea4f37a1275b7fcf15ad2ae5" target="_top" xlink:title=" ">
<polygon fill="white" stroke="#666666" points="143.5,-38 0,-38 0,-6 143.5,-6 143.5,-38"/>
<text xml:space="preserve" text-anchor="start" x="8" y="-24.5" font-family="Helvetica,sans-Serif" font-size="10.00">depicture_menu::usecase</text>
<text xml:space="preserve" text-anchor="middle" x="71.75" y="-12.5" font-family="Helvetica,sans-Serif" font-size="10.00">::menu_item_sync::operator()</text>
</a>
</g>
</g>
<!-- Node5&#45;&gt;Node6 -->
<g id="edge5_Node000005_Node000006" class="edge">
<title>Node5&#45;&gt;Node6</title>
<g id="a_edge5_Node000005_Node000006"><a xlink:title=" ">
<path fill="none" stroke="#63b8ff" d="M167.71,-22C159.8,-22 151.76,-22 143.9,-22"/>
<polygon fill="#63b8ff" stroke="#63b8ff" points="167.69,-25.5 177.69,-22 167.69,-18.5 167.69,-25.5"/>
</a>
</g>
</g>
</g>
</svg>
