<?xml version="1.0" encoding="UTF-8" standalone="no"?>
<!DOCTYPE svg PUBLIC "-//W3C//DTD SVG 1.1//EN"
 "http://www.w3.org/Graphics/SVG/1.1/DTD/svg11.dtd">
<!-- Generated by graphviz version 14.1.2 (20260124.0452)
 -->
<!-- Title: depicture_menu::domain::services::create_menu_domain_service Pages: 1 -->
<svg width="298pt" height="513pt"
 viewBox="0.00 0.00 298.00 513.00" xmlns="http://www.w3.org/2000/svg" xmlns:xlink="http://www.w3.org/1999/xlink">
<g id="graph0" class="graph" transform="scale(1 1) rotate(0) translate(4 509)">
<title>depicture_menu::domain::services::create_menu_domain_service</title>
<!-- Node1 -->
<g id="Node000001" class="node">
<title>Node1</title>
<g id="a_Node000001"><a xlink:title="メニュー生成 DomainService">
<polygon fill="#999999" stroke="#666666" points="126.62,-44 4.12,-44 4.12,0 126.62,0 126.62,-44"/>
<text xml:space="preserve" text-anchor="start" x="12.12" y="-30.5" font-family="Helvetica,sans-Serif" font-size="10.00">depicture_menu::domain</text>
<text xml:space="preserve" text-anchor="start" x="12.12" y="-18.5" font-family="Helvetica,sans-Serif" font-size="10.00">::services::create_menu</text>
<text xml:space="preserve" text-anchor="middle" x="65.38" y="-6.5" font-family="Helvetica,sans-Serif" font-size="10.00">_domain_service</text>
</a>
</g>
</g>
<!-- Node2 -->
<g id="Node000002" class="node">
<title>Node2</title>
<g id="a_Node000002"><a xlink:href="structdepicture__menu_1_1domain_1_1menu_1_1radialmenu.html" target="_top" xlink:title="メニュー Domain entity">
<polygon fill="white" stroke="#666666" points="126.62,-130 4.12,-130 4.12,-98 126.62,-98 126.62,-130"/>
<text xml:space="preserve" text-anchor="start" x="12.12" y="-116.5" font-family="Helvetica,sans-Serif" font-size="10.00">depicture_menu::domain</text>
<text xml:space="preserve" text-anchor="middle" x="65.38" y="-104.5" font-family="Helvetica,sans-Serif" font-size="10.00">::menu::radialmenu</text>
</a>
</g>
</g>
<!-- Node2&#45;&gt;Node1 -->
<g id="edge1_Node000001_Node000002" class="edge">
<title>Node2&#45;&gt;Node1</title>
<g id="a_edge1_Node000001_Node000002"><a xlink:title=" ">
<path fill="none" stroke="#9a32cd" stroke-dasharray="5,2" d="M65.38,-86.36C65.38,-72.98 65.38,-56.99 65.38,-44.43"/>
<polygon fill="#9a32cd" stroke="#9a32cd" points="61.88,-86.22 65.38,-96.22 68.88,-86.22 61.88,-86.22"/>
</a>
</g>
<text xml:space="preserve" text-anchor="start" x="68.38" y="-67.5" font-family="Helvetica,sans-Serif" font-size="10.00" fill="grey">article_</text>
</g>
<!-- Node3 -->
<g id="Node000003" class="node">
<title>Node3</title>
<g id="a_Node000003"><a xlink:href="structdepicture__menu_1_1domain_1_1models_1_1base_1_1entity__base.html" target="_top" xlink:title=" ">
<polygon fill="white" stroke="#666666" points="130.75,-211 0,-211 0,-167 130.75,-167 130.75,-211"/>
<text xml:space="preserve" text-anchor="start" x="8" y="-197.5" font-family="Helvetica,sans-Serif" font-size="10.00">models::entity_base</text>
<text xml:space="preserve" text-anchor="start" x="8" y="-185.5" font-family="Helvetica,sans-Serif" font-size="10.00">&lt; detail_menu::radialmenu</text>
<text xml:space="preserve" text-anchor="middle" x="65.38" y="-173.5" font-family="Helvetica,sans-Serif" font-size="10.00">_data, menu_id &gt;</text>
</a>
</g>
</g>
<!-- Node3&#45;&gt;Node2 -->
<g id="edge2_Node000002_Node000003" class="edge">
<title>Node3&#45;&gt;Node2</title>
<g id="a_edge2_Node000002_Node000003"><a xlink:title=" ">
<path fill="none" stroke="#63b8ff" d="M65.38,-155.56C65.38,-146.66 65.38,-137.44 65.38,-130.04"/>
<polygon fill="#63b8ff" stroke="#63b8ff" points="61.88,-155.37 65.38,-165.37 68.88,-155.37 61.88,-155.37"/>
</a>
</g>
</g>
<!-- Node4 -->
<g id="Node000004" class="node">
<title>Node4</title>
<g id="a_Node000004"><a xlink:title=" ">
<polygon fill="white" stroke="#666666" points="63.77,-297 34.98,-297 34.98,-277 63.77,-277 63.77,-297"/>
<text xml:space="preserve" text-anchor="middle" x="49.38" y="-283.5" font-family="Helvetica,sans-Serif" font-size="10.00">V</text>
</a>
</g>
</g>
<!-- Node4&#45;&gt;Node3 -->
<g id="edge3_Node000003_Node000004" class="edge">
<title>Node4&#45;&gt;Node3</title>
<g id="a_edge3_Node000003_Node000004"><a xlink:title=" ">
<path fill="none" stroke="darkgreen" d="M52.79,-265.5C55.46,-249.49 59.16,-227.3 61.85,-211.13"/>
<polygon fill="darkgreen" stroke="darkgreen" points="49.35,-264.86 51.16,-275.3 56.25,-266.01 49.35,-264.86"/>
</a>
</g>
</g>
<!-- Node5 -->
<g id="Node000005" class="node">
<title>Node5</title>
<g id="a_Node000005"><a xlink:href="structdepicture__menu_1_1domain_1_1models_1_1base_1_1entity__base.html" target="_top" xlink:title=" ">
<polygon fill="white" stroke="#666666" points="204.62,-309 82.12,-309 82.12,-265 204.62,-265 204.62,-309"/>
<text xml:space="preserve" text-anchor="start" x="90.12" y="-295.5" font-family="Helvetica,sans-Serif" font-size="10.00">depicture_menu::domain</text>
<text xml:space="preserve" text-anchor="start" x="90.12" y="-283.5" font-family="Helvetica,sans-Serif" font-size="10.00">::models::base::entity</text>
<text xml:space="preserve" text-anchor="middle" x="143.38" y="-271.5" font-family="Helvetica,sans-Serif" font-size="10.00">_base&lt; Value, IdTag &gt;</text>
</a>
</g>
</g>
<!-- Node5&#45;&gt;Node3 -->
<g id="edge4_Node000003_Node000005" class="edge">
<title>Node5&#45;&gt;Node3</title>
<g id="a_edge4_Node000003_Node000005"><a xlink:title=" ">
<path fill="none" stroke="orange" stroke-dasharray="5,2" d="M119.03,-256.04C107.23,-241.51 93.33,-224.41 82.64,-211.25"/>
<polygon fill="orange" stroke="orange" points="116.09,-257.97 125.11,-263.52 121.52,-253.55 116.09,-257.97"/>
</a>
</g>
<text xml:space="preserve" text-anchor="start" x="114.36" y="-234.5" font-family="Helvetica,sans-Serif" font-size="10.00" fill="grey">&lt; V, ID &gt;</text>
</g>
<!-- Node6 -->
<g id="Node000006" class="node">
<title>Node6</title>
<g id="a_Node000006"><a xlink:title=" ">
<polygon fill="white" stroke="#666666" points="130.38,-395 90.38,-395 90.38,-375 130.38,-375 130.38,-395"/>
<text xml:space="preserve" text-anchor="middle" x="110.38" y="-381.5" font-family="Helvetica,sans-Serif" font-size="10.00">Value</text>
</a>
</g>
</g>
<!-- Node6&#45;&gt;Node5 -->
<g id="edge5_Node000005_Node000006" class="edge">
<title>Node6&#45;&gt;Node5</title>
<g id="a_edge5_Node000005_Node000006"><a xlink:title=" ">
<path fill="none" stroke="darkgreen" d="M117.26,-363.98C122.77,-347.93 130.5,-325.46 136.11,-309.13"/>
<polygon fill="darkgreen" stroke="darkgreen" points="113.97,-362.77 114.03,-373.36 120.59,-365.04 113.97,-362.77"/>
</a>
</g>
</g>
<!-- Node7 -->
<g id="Node000007" class="node">
<title>Node7</title>
<g id="a_Node000007"><a xlink:href="structdepicture__menu_1_1domain_1_1models_1_1entity__id__base.html" target="_top" xlink:title=" ">
<polygon fill="white" stroke="#666666" points="270.62,-407 148.12,-407 148.12,-363 270.62,-363 270.62,-407"/>
<text xml:space="preserve" text-anchor="start" x="156.12" y="-393.5" font-family="Helvetica,sans-Serif" font-size="10.00">depicture_menu::domain</text>
<text xml:space="preserve" text-anchor="start" x="156.12" y="-381.5" font-family="Helvetica,sans-Serif" font-size="10.00">::models::entity_id_base</text>
<text xml:space="preserve" text-anchor="middle" x="209.38" y="-369.5" font-family="Helvetica,sans-Serif" font-size="10.00">&lt; standard_tag &gt;</text>
</a>
</g>
</g>
<!-- Node7&#45;&gt;Node5 -->
<g id="edge6_Node000005_Node000007" class="edge">
<title>Node7&#45;&gt;Node5</title>
<g id="a_edge6_Node000005_Node000007"><a xlink:title=" ">
<path fill="none" stroke="#9a32cd" stroke-dasharray="5,2" d="M188.21,-353.22C178.35,-338.87 166.86,-322.16 157.98,-309.25"/>
<polygon fill="#9a32cd" stroke="#9a32cd" points="185.32,-355.19 193.87,-361.45 191.09,-351.22 185.32,-355.19"/>
</a>
</g>
<text xml:space="preserve" text-anchor="start" x="185.29" y="-332.5" font-family="Helvetica,sans-Serif" font-size="10.00" fill="grey">id_</text>
</g>
<!-- Node8 -->
<g id="Node000008" class="node">
<title>Node8</title>
<g id="a_Node000008"><a xlink:href="structdepicture__menu_1_1domain_1_1models_1_1entity__id__base.html" target="_top" xlink:title=" ">
<polygon fill="white" stroke="#666666" points="270.62,-505 148.12,-505 148.12,-461 270.62,-461 270.62,-505"/>
<text xml:space="preserve" text-anchor="start" x="156.12" y="-491.5" font-family="Helvetica,sans-Serif" font-size="10.00">depicture_menu::domain</text>
<text xml:space="preserve" text-anchor="start" x="156.12" y="-479.5" font-family="Helvetica,sans-Serif" font-size="10.00">::models::entity_id_base</text>
<text xml:space="preserve" text-anchor="middle" x="209.38" y="-467.5" font-family="Helvetica,sans-Serif" font-size="10.00">&lt; Tag &gt;</text>
</a>
</g>
</g>
<!-- Node8&#45;&gt;Node7 -->
<g id="edge7_Node000007_Node000008" class="edge">
<title>Node8&#45;&gt;Node7</title>
<g id="a_edge7_Node000007_Node000008"><a xlink:title=" ">
<path fill="none" stroke="orange" stroke-dasharray="5,2" d="M209.38,-449.55C209.38,-435.59 209.38,-419.66 209.38,-407.25"/>
<polygon fill="orange" stroke="orange" points="205.88,-449.18 209.38,-459.18 212.88,-449.18 205.88,-449.18"/>
</a>
</g>
<text xml:space="preserve" text-anchor="start" x="212.38" y="-430.5" font-family="Helvetica,sans-Serif" font-size="10.00" fill="grey">&lt; standard_tag &gt;</text>
</g>
</g>
</svg>
