<?xml version="1.0" encoding="UTF-8" standalone="no"?>
<!DOCTYPE svg PUBLIC "-//W3C//DTD SVG 1.1//EN"
 "http://www.w3.org/Graphics/SVG/1.1/DTD/svg11.dtd">
<!-- Generated by graphviz version 14.1.2 (20260124.0452)
 -->
<!-- Title: depicture_menu::presentations::menu_view_presenter::operator() Pages: 1 -->
<!--zoomable 299 -->

<svg id="main" version="1.1" xmlns="http://www.w3.org/2000/svg" xmlns:xlink="http://www.w3.org/1999/xlink" xml:space="preserve" onload="init(evt)">

<style type="text/css"><![CDATA[
.node, .edge {opacity: 0.7;}
.node.selected, .edge.selected {opacity: 1;}
.edge:hover path { stroke: red; }
.edge:hover polygon { stroke: red; fill: red; }
]]></style>

<defs>
  <circle id="rim" cx="0" cy="0" r="7"/>
  <circle id="rim2" cx="0" cy="0" r="3.5"/>
  <g id="zoomPlus">
    <use xlink:href="#rim" fill="#404040"><set attributeName="fill" to="#808080" begin="zoomplus.mouseover" end="zoomplus.mouseout"/></use>
    <path d="M-4,0h8M0,-4v8" fill="none" stroke="white" stroke-width="1.5" pointer-events="none"/>
  </g>
  <g id="zoomMin">
    <use xlink:href="#rim" fill="#404040"><set attributeName="fill" to="#808080" begin="zoomminus.mouseover" end="zoomminus.mouseout"/></use>
    <path d="M-4,0h8" fill="none" stroke="white" stroke-width="1.5" pointer-events="none"/>
  </g>
  <g id="arrowUp" transform="translate(30 24)">
    <use xlink:href="#rim"/>
    <path pointer-events="none" fill="none" stroke="white" stroke-width="1.5" d="M0,-3.0v7 M-2.5,-0.5L0,-3.0L2.5,-0.5"/>
  </g>
  <g id="arrowRight" transform="rotate(90) translate(36 -43)">
    <use xlink:href="#rim"/>
    <path pointer-events="none" fill="none" stroke="white" stroke-width="1.5" d="M0,-3.0v7 M-2.5,-0.5L0,-3.0L2.5,-0.5"/>
  </g>
  <g id="arrowDown" transform="rotate(180) translate(-30 -48)">
    <use xlink:href="#rim"/>
    <path pointer-events="none" fill="none" stroke="white" stroke-width="1.5" d="M0,-3.0v7 M-2.5,-0.5L0,-3.0L2.5,-0.5"/>
  </g>
  <g id="arrowLeft" transform="rotate(270) translate(-36 17)">
    <use xlink:href="#rim"/>
    <path pointer-events="none" fill="none" stroke="white" stroke-width="1.5" d="M0,-3.0v7 M-2.5,-0.5L0,-3.0L2.5,-0.5"/>
  </g>
  <g id="resetDef">
    <use xlink:href="#rim2" fill="#404040"><set attributeName="fill" to="#808080" begin="reset.mouseover" end="reset.mouseout"/></use>
  </g>
</defs>
<script type="application/ecmascript">
var viewWidth = 704;
var viewHeight = 299;
var sectionId = 'dynsection-7';
</script>
<script type="application/ecmascript" xlink:href="svg.min.js"/>
<svg id="graph" class="graph">
<g id="viewport">
<title>depicture_menu::presentations::menu_view_presenter::operator()</title>
<!-- Node1 -->
<g id="Node000001" class="node">
<title>Node1</title>
<g id="a_Node000001"><a xlink:title="メニュー表示">
<polygon fill="#999999" stroke="#666666" points="164.5,-165 0,-165 0,-133 164.5,-133 164.5,-165"/>
<text xml:space="preserve" text-anchor="start" x="8" y="-151.5" font-family="Helvetica,sans-Serif" font-size="10.00">depicture_menu::presentations</text>
<text xml:space="preserve" text-anchor="middle" x="82.25" y="-139.5" font-family="Helvetica,sans-Serif" font-size="10.00">::menu_view_presenter::operator()</text>
</a>
</g>
</g>
<!-- Node2 -->
<g id="Node000002" class="node">
<title>Node2</title>
<g id="a_Node000002"><a xlink:href="classdepicture__menu_1_1applications_1_1view__factories_1_1menu__view__arg__builder.html#a468f749c7257b784a07fa06164fa7773" target="_top" xlink:title=" ">
<polygon fill="white" stroke="#666666" points="343.25,-291 200.5,-291 200.5,-247 343.25,-247 343.25,-291"/>
<text xml:space="preserve" text-anchor="start" x="208.5" y="-277.5" font-family="Helvetica,sans-Serif" font-size="10.00">depicture_menu::applications</text>
<text xml:space="preserve" text-anchor="start" x="208.5" y="-265.5" font-family="Helvetica,sans-Serif" font-size="10.00">::view_factories::menu_view</text>
<text xml:space="preserve" text-anchor="middle" x="271.88" y="-253.5" font-family="Helvetica,sans-Serif" font-size="10.00">_arg_builder::build</text>
</a>
</g>
</g>
<!-- Node1&#45;&gt;Node2 -->
<g id="edge1_Node000001_Node000002" class="edge">
<title>Node1&#45;&gt;Node2</title>
<g id="a_edge1_Node000001_Node000002"><a xlink:title=" ">
<path fill="none" stroke="#63b8ff" d="M104.71,-165.49C127.79,-182.91 165.84,-210.75 200.5,-232 205.57,-235.11 210.94,-238.22 216.35,-241.25"/>
<polygon fill="#63b8ff" stroke="#63b8ff" points="214.3,-244.12 224.75,-245.86 217.66,-237.98 214.3,-244.12"/>
</a>
</g>
</g>
<!-- Node4 -->
<g id="Node000004" class="node">
<title>Node4</title>
<g id="a_Node000004"><a xlink:href="namespacedepicture__menu_1_1domain_1_1common.html#a489762427aadf1319342642f91143575" target="_top" xlink:title="値をリミット">
<polygon fill="white" stroke="#666666" points="333.12,-140 210.62,-140 210.62,-108 333.12,-108 333.12,-140"/>
<text xml:space="preserve" text-anchor="start" x="218.62" y="-126.5" font-family="Helvetica,sans-Serif" font-size="10.00">depicture_menu::domain</text>
<text xml:space="preserve" text-anchor="middle" x="271.88" y="-114.5" font-family="Helvetica,sans-Serif" font-size="10.00">::common::ensure_rgba</text>
</a>
</g>
</g>
<!-- Node1&#45;&gt;Node4 -->
<g id="edge3_Node000001_Node000004" class="edge">
<title>Node1&#45;&gt;Node4</title>
<g id="a_edge3_Node000001_Node000004"><a xlink:title=" ">
<path fill="none" stroke="#63b8ff" d="M165,-138.11C176.29,-136.6 187.81,-135.07 198.9,-133.59"/>
<polygon fill="#63b8ff" stroke="#63b8ff" points="199.33,-137.06 208.78,-132.27 198.4,-130.13 199.33,-137.06"/>
</a>
</g>
</g>
<!-- Node12 -->
<g id="Node000012" class="node">
<title>Node12</title>
<g id="a_Node000012"><a xlink:href="structdepicture__menu_1_1domain_1_1common_1_1rgba__color.html#ae88437eac8806ea4ec0b09f9b71f7185" target="_top" xlink:title="RGBカラーコンセプトから構成">
<polygon fill="white" stroke="#666666" points="519.38,-238 396.88,-238 396.88,-194 519.38,-194 519.38,-238"/>
<text xml:space="preserve" text-anchor="start" x="404.88" y="-224.5" font-family="Helvetica,sans-Serif" font-size="10.00">depicture_menu::domain</text>
<text xml:space="preserve" text-anchor="start" x="404.88" y="-212.5" font-family="Helvetica,sans-Serif" font-size="10.00">::common::rgba_color::</text>
<text xml:space="preserve" text-anchor="middle" x="458.12" y="-200.5" font-family="Helvetica,sans-Serif" font-size="10.00">from_rgb</text>
</a>
</g>
</g>
<!-- Node1&#45;&gt;Node12 -->
<g id="edge11_Node000001_Node000012" class="edge">
<title>Node1&#45;&gt;Node12</title>
<g id="a_edge11_Node000001_Node000012"><a xlink:title=" ">
<path fill="none" stroke="#63b8ff" d="M113.63,-165.33C136.74,-176.9 169.72,-191.64 200.5,-199 261.57,-213.6 332.97,-217.29 384.94,-217.65"/>
<polygon fill="#63b8ff" stroke="#63b8ff" points="384.86,-221.15 394.87,-217.67 384.88,-214.15 384.86,-221.15"/>
</a>
</g>
</g>
<!-- Node13 -->
<g id="Node000013" class="node">
<title>Node13</title>
<g id="a_Node000013"><a xlink:href="classdepicture__menu_1_1singleton.html#ab3a8df96e817c8ccb1ab61434f90c416" target="_top" xlink:title=" ">
<polygon fill="white" stroke="#666666" points="343.25,-90 200.5,-90 200.5,-58 343.25,-58 343.25,-90"/>
<text xml:space="preserve" text-anchor="start" x="208.5" y="-76.5" font-family="Helvetica,sans-Serif" font-size="10.00">depicture_menu::singleton</text>
<text xml:space="preserve" text-anchor="middle" x="271.88" y="-64.5" font-family="Helvetica,sans-Serif" font-size="10.00">&lt; CoreModel &gt;::get_instance</text>
</a>
</g>
</g>
<!-- Node1&#45;&gt;Node13 -->
<g id="edge15_Node000001_Node000013" class="edge">
<title>Node1&#45;&gt;Node13</title>
<g id="a_edge15_Node000001_Node000013"><a xlink:title=" ">
<path fill="none" stroke="#63b8ff" d="M105.13,-132.52C126.09,-121.14 159.01,-106.58 189.77,-94.24"/>
<polygon fill="#63b8ff" stroke="#63b8ff" points="190.69,-97.65 198.7,-90.71 188.11,-91.14 190.69,-97.65"/>
</a>
</g>
</g>
<!-- Node1&#45;&gt;Node13 -->
<g id="edge16_Node000001_Node000013" class="edge">
<title>Node1&#45;&gt;Node13</title>
<g id="a_edge16_Node000001_Node000013"><a xlink:title=" ">
<path fill="none" stroke="#63b8ff" d="M139.91,-132.52C159.05,-124.78 180.61,-115.77 200.5,-108 211.85,-103.57 224.35,-99.02 235.63,-94.6"/>
<polygon fill="#63b8ff" stroke="#63b8ff" points="236.63,-97.97 244.58,-90.97 234,-91.48 236.63,-97.97"/>
</a>
</g>
</g>
<!-- Node14 -->
<g id="Node000014" class="node">
<title>Node14</title>
<g id="a_Node000014"><a xlink:href="namespacedepicture__menu_1_1domain_1_1common.html#aaf1c5b5d88690a4e3b6d18bc4675d0e6" target="_top" xlink:title="カラー加算">
<polygon fill="white" stroke="#666666" points="339.88,-190 203.88,-190 203.88,-158 339.88,-158 339.88,-190"/>
<text xml:space="preserve" text-anchor="start" x="211.88" y="-176.5" font-family="Helvetica,sans-Serif" font-size="10.00">depicture_menu::domain</text>
<text xml:space="preserve" text-anchor="middle" x="271.88" y="-164.5" font-family="Helvetica,sans-Serif" font-size="10.00">::common::linier_dodge_rgb</text>
</a>
</g>
</g>
<!-- Node1&#45;&gt;Node14 -->
<g id="edge17_Node000001_Node000014" class="edge">
<title>Node1&#45;&gt;Node14</title>
<g id="a_edge17_Node000001_Node000014"><a xlink:title=" ">
<path fill="none" stroke="#63b8ff" d="M165,-159.89C174.03,-161.1 183.2,-162.32 192.19,-163.52"/>
<polygon fill="#63b8ff" stroke="#63b8ff" points="191.57,-166.96 201.95,-164.82 192.5,-160.03 191.57,-166.96"/>
</a>
</g>
</g>
<!-- Node3 -->
<g id="Node000003" class="node">
<title>Node3</title>
<g id="a_Node000003"><a xlink:href="namespaceimpl.html#a9339ce762762854d6234993b7ecb0e72" target="_top" xlink:title=" ">
<polygon fill="white" stroke="#666666" points="512.25,-288 404,-288 404,-256 512.25,-256 512.25,-288"/>
<text xml:space="preserve" text-anchor="start" x="412" y="-274.5" font-family="Helvetica,sans-Serif" font-size="10.00">impl::get_menu_view</text>
<text xml:space="preserve" text-anchor="middle" x="458.12" y="-262.5" font-family="Helvetica,sans-Serif" font-size="10.00">_injection</text>
</a>
</g>
</g>
<!-- Node2&#45;&gt;Node3 -->
<g id="edge2_Node000002_Node000003" class="edge">
<title>Node2&#45;&gt;Node3</title>
<g id="a_edge2_Node000002_Node000003"><a xlink:title=" ">
<path fill="none" stroke="#63b8ff" d="M343.58,-270.15C359.67,-270.41 376.68,-270.69 392.5,-270.95"/>
<polygon fill="#63b8ff" stroke="#63b8ff" points="392.21,-274.44 402.26,-271.11 392.32,-267.44 392.21,-274.44"/>
</a>
</g>
</g>
<!-- Node5 -->
<g id="Node000005" class="node">
<title>Node5</title>
<g id="a_Node000005"><a xlink:href="namespacedepicture__menu_1_1domain_1_1common_1_1helper.html#a004cd9f97f6ccb07be2ebdf656f5444d" target="_top" xlink:title="RGB各チャンネル毎の射影ヘルパー">
<polygon fill="white" stroke="#666666" points="537,-156 379.25,-156 379.25,-124 537,-124 537,-156"/>
<text xml:space="preserve" text-anchor="start" x="387.25" y="-142.5" font-family="Helvetica,sans-Serif" font-size="10.00">depicture_menu::domain</text>
<text xml:space="preserve" text-anchor="middle" x="458.12" y="-130.5" font-family="Helvetica,sans-Serif" font-size="10.00">::common::helper::transform_rgb</text>
</a>
</g>
</g>
<!-- Node4&#45;&gt;Node5 -->
<g id="edge4_Node000004_Node000005" class="edge">
<title>Node4&#45;&gt;Node5</title>
<g id="a_edge4_Node000004_Node000005"><a xlink:title=" ">
<path fill="none" stroke="#63b8ff" d="M333.46,-129.26C344.51,-130.22 356.25,-131.24 367.92,-132.25"/>
<polygon fill="#63b8ff" stroke="#63b8ff" points="367.3,-135.71 377.56,-133.09 367.9,-128.74 367.3,-135.71"/>
</a>
</g>
</g>
<!-- Node6 -->
<g id="Node000006" class="node">
<title>Node6</title>
<g id="a_Node000006"><a xlink:href="namespacedepicture__menu_1_1domain_1_1common.html#a45530f48fa4d5ac4595cc9c279263846" target="_top" xlink:title=" ">
<polygon fill="white" stroke="#666666" points="695.5,-282 573,-282 573,-250 695.5,-250 695.5,-282"/>
<text xml:space="preserve" text-anchor="start" x="581" y="-268.5" font-family="Helvetica,sans-Serif" font-size="10.00">depicture_menu::domain</text>
<text xml:space="preserve" text-anchor="middle" x="634.25" y="-256.5" font-family="Helvetica,sans-Serif" font-size="10.00">::common::get_blue</text>
</a>
</g>
</g>
<!-- Node5&#45;&gt;Node6 -->
<g id="edge5_Node000005_Node000006" class="edge">
<title>Node5&#45;&gt;Node6</title>
<g id="a_edge5_Node000005_Node000006"><a xlink:title=" ">
<path fill="none" stroke="#63b8ff" d="M495.67,-156.48C509.61,-163.9 525.02,-173.58 537,-185 558.41,-205.42 550.3,-222.02 573,-241 573.96,-241.8 574.94,-242.58 575.95,-243.33"/>
<polygon fill="#63b8ff" stroke="#63b8ff" points="574.02,-246.25 584.32,-248.72 577.81,-240.36 574.02,-246.25"/>
</a>
</g>
</g>
<!-- Node7 -->
<g id="Node000007" class="node">
<title>Node7</title>
<g id="a_Node000007"><a xlink:href="namespacedepicture__menu_1_1domain_1_1common.html#ae234959f503d97b8bc6352178b766dd9" target="_top" xlink:title=" ">
<polygon fill="white" stroke="#666666" points="695.5,-232 573,-232 573,-200 695.5,-200 695.5,-232"/>
<text xml:space="preserve" text-anchor="start" x="581" y="-218.5" font-family="Helvetica,sans-Serif" font-size="10.00">depicture_menu::domain</text>
<text xml:space="preserve" text-anchor="middle" x="634.25" y="-206.5" font-family="Helvetica,sans-Serif" font-size="10.00">::common::get_green</text>
</a>
</g>
</g>
<!-- Node5&#45;&gt;Node7 -->
<g id="edge6_Node000005_Node000007" class="edge">
<title>Node5&#45;&gt;Node7</title>
<g id="a_edge6_Node000005_Node000007"><a xlink:title=" ">
<path fill="none" stroke="#63b8ff" d="M495.17,-156.45C517.51,-166.57 546.84,-179.72 573,-191 576.17,-192.37 579.45,-193.77 582.75,-195.17"/>
<polygon fill="#63b8ff" stroke="#63b8ff" points="581.35,-198.38 591.93,-199.03 584.07,-191.92 581.35,-198.38"/>
</a>
</g>
</g>
<!-- Node8 -->
<g id="Node000008" class="node">
<title>Node8</title>
<g id="a_Node000008"><a xlink:href="namespacedepicture__menu_1_1domain_1_1common.html#ac64a5f4b93851c489aeaab246bb04cfa" target="_top" xlink:title=" ">
<polygon fill="white" stroke="#666666" points="695.5,-182 573,-182 573,-150 695.5,-150 695.5,-182"/>
<text xml:space="preserve" text-anchor="start" x="581" y="-168.5" font-family="Helvetica,sans-Serif" font-size="10.00">depicture_menu::domain</text>
<text xml:space="preserve" text-anchor="middle" x="634.25" y="-156.5" font-family="Helvetica,sans-Serif" font-size="10.00">::common::get_red</text>
</a>
</g>
</g>
<!-- Node5&#45;&gt;Node8 -->
<g id="edge7_Node000005_Node000008" class="edge">
<title>Node5&#45;&gt;Node8</title>
<g id="a_edge7_Node000005_Node000008"><a xlink:title=" ">
<path fill="none" stroke="#63b8ff" d="M537.27,-151.67C545.32,-152.87 553.48,-154.09 561.45,-155.28"/>
<polygon fill="#63b8ff" stroke="#63b8ff" points="560.68,-158.7 571.09,-156.72 561.71,-151.78 560.68,-158.7"/>
</a>
</g>
</g>
<!-- Node9 -->
<g id="Node000009" class="node">
<title>Node9</title>
<g id="a_Node000009"><a xlink:href="namespacedepicture__menu_1_1domain_1_1common.html#ac550f0a2aeea2bcbe42f98d354742419" target="_top" xlink:title=" ">
<polygon fill="white" stroke="#666666" points="695.5,-132 573,-132 573,-100 695.5,-100 695.5,-132"/>
<text xml:space="preserve" text-anchor="start" x="581" y="-118.5" font-family="Helvetica,sans-Serif" font-size="10.00">depicture_menu::domain</text>
<text xml:space="preserve" text-anchor="middle" x="634.25" y="-106.5" font-family="Helvetica,sans-Serif" font-size="10.00">::common::set_blue</text>
</a>
</g>
</g>
<!-- Node5&#45;&gt;Node9 -->
<g id="edge8_Node000005_Node000009" class="edge">
<title>Node5&#45;&gt;Node9</title>
<g id="a_edge8_Node000005_Node000009"><a xlink:title=" ">
<path fill="none" stroke="#63b8ff" d="M537.27,-129.23C545.23,-128.13 553.29,-127.02 561.18,-125.93"/>
<polygon fill="#63b8ff" stroke="#63b8ff" points="561.66,-129.4 571.08,-124.57 560.7,-122.47 561.66,-129.4"/>
</a>
</g>
</g>
<!-- Node10 -->
<g id="Node000010" class="node">
<title>Node10</title>
<g id="a_Node000010"><a xlink:href="namespacedepicture__menu_1_1domain_1_1common.html#a8be59216e1b3b8a23be94027b5f2b2c0" target="_top" xlink:title=" ">
<polygon fill="white" stroke="#666666" points="695.5,-82 573,-82 573,-50 695.5,-50 695.5,-82"/>
<text xml:space="preserve" text-anchor="start" x="581" y="-68.5" font-family="Helvetica,sans-Serif" font-size="10.00">depicture_menu::domain</text>
<text xml:space="preserve" text-anchor="middle" x="634.25" y="-56.5" font-family="Helvetica,sans-Serif" font-size="10.00">::common::set_green</text>
</a>
</g>
</g>
<!-- Node5&#45;&gt;Node10 -->
<g id="edge9_Node000005_Node000010" class="edge">
<title>Node5&#45;&gt;Node10</title>
<g id="a_edge9_Node000005_Node000010"><a xlink:title=" ">
<path fill="none" stroke="#63b8ff" d="M497.03,-123.54C519.16,-113.97 547.62,-101.72 573,-91 576.18,-89.65 579.46,-88.28 582.77,-86.89"/>
<polygon fill="#63b8ff" stroke="#63b8ff" points="584.08,-90.13 591.96,-83.05 581.38,-83.68 584.08,-90.13"/>
</a>
</g>
</g>
<!-- Node11 -->
<g id="Node000011" class="node">
<title>Node11</title>
<g id="a_Node000011"><a xlink:href="namespacedepicture__menu_1_1domain_1_1common.html#ab01e3a23c6f9d6f4b1f6b246c95e534c" target="_top" xlink:title=" ">
<polygon fill="white" stroke="#666666" points="695.5,-32 573,-32 573,0 695.5,0 695.5,-32"/>
<text xml:space="preserve" text-anchor="start" x="581" y="-18.5" font-family="Helvetica,sans-Serif" font-size="10.00">depicture_menu::domain</text>
<text xml:space="preserve" text-anchor="middle" x="634.25" y="-6.5" font-family="Helvetica,sans-Serif" font-size="10.00">::common::set_red</text>
</a>
</g>
</g>
<!-- Node5&#45;&gt;Node11 -->
<g id="edge10_Node000005_Node000011" class="edge">
<title>Node5&#45;&gt;Node11</title>
<g id="a_edge10_Node000005_Node000011"><a xlink:title=" ">
<path fill="none" stroke="#63b8ff" d="M474.41,-123.79C495.12,-102.54 534.02,-65.14 573,-41 574.88,-39.84 576.82,-38.71 578.8,-37.61"/>
<polygon fill="#63b8ff" stroke="#63b8ff" points="580.32,-40.77 587.64,-33.11 577.14,-34.53 580.32,-40.77"/>
</a>
</g>
</g>
<!-- Node12&#45;&gt;Node6 -->
<g id="edge12_Node000012_Node000006" class="edge">
<title>Node12&#45;&gt;Node6</title>
<g id="a_edge12_Node000012_Node000006"><a xlink:title=" ">
<path fill="none" stroke="#63b8ff" d="M519.54,-233.35C534.24,-237.57 550.06,-242.11 565.1,-246.43"/>
<polygon fill="#63b8ff" stroke="#63b8ff" points="563.84,-249.71 574.42,-249.11 565.77,-242.98 563.84,-249.71"/>
</a>
</g>
</g>
<!-- Node12&#45;&gt;Node7 -->
<g id="edge13_Node000012_Node000007" class="edge">
<title>Node12&#45;&gt;Node7</title>
<g id="a_edge13_Node000012_Node000007"><a xlink:title=" ">
<path fill="none" stroke="#63b8ff" d="M519.54,-216C532.97,-216 547.33,-216 561.18,-216"/>
<polygon fill="#63b8ff" stroke="#63b8ff" points="561.14,-219.5 571.14,-216 561.14,-212.5 561.14,-219.5"/>
</a>
</g>
</g>
<!-- Node12&#45;&gt;Node8 -->
<g id="edge14_Node000012_Node000008" class="edge">
<title>Node12&#45;&gt;Node8</title>
<g id="a_edge14_Node000012_Node000008"><a xlink:title=" ">
<path fill="none" stroke="#63b8ff" d="M519.54,-198.65C534.24,-194.43 550.06,-189.89 565.1,-185.57"/>
<polygon fill="#63b8ff" stroke="#63b8ff" points="565.77,-189.02 574.42,-182.89 563.84,-182.29 565.77,-189.02"/>
</a>
</g>
</g>
<!-- Node14&#45;&gt;Node5 -->
<g id="edge18_Node000014_Node000005" class="edge">
<title>Node14&#45;&gt;Node5</title>
<g id="a_edge18_Node000014_Node000005"><a xlink:title=" ">
<path fill="none" stroke="#63b8ff" d="M340.18,-161.58C349.09,-159.94 358.34,-158.23 367.56,-156.53"/>
<polygon fill="#63b8ff" stroke="#63b8ff" points="368.07,-159.99 377.27,-154.74 366.8,-153.11 368.07,-159.99"/>
</a>
</g>
</g>
</g>
</svg>

<g id="navigator" transform="translate(0 0)" fill="#404254">
  <rect fill="#f2f5e9" fill-opacity="0.5" stroke="#606060" stroke-width=".5" x="0" y="0" width="60" height="60"/>
  <use id="zoomplus" xlink:href="#zoomPlus" x="17" y="9" onmousedown="handleZoom(evt,'in')"/>
  <use id="zoomminus" xlink:href="#zoomMin" x="42" y="9" onmousedown="handleZoom(evt,'out')"/>
  <use id="reset" xlink:href="#resetDef" x="30" y="36" onmousedown="handleReset()"/>
   <use id="arrowup" xlink:href="#arrowUp" x="0" y="0" onmousedown="handlePan(0,-1)"/>
  <use id="arrowright" xlink:href="#arrowRight" x="0" y="0" onmousedown="handlePan(1,0)"/>
  <use id="arrowdown" xlink:href="#arrowDown" x="0" y="0" onmousedown="handlePan(0,1)"/>
  <use id="arrowleft" xlink:href="#arrowLeft" x="0" y="0" onmousedown="handlePan(-1,0)"/>
</g>
<svg viewBox="0 0 15 15" width="100%" height="30px" preserveAspectRatio="xMaxYMin meet">
 <g id="arrow_out" transform="scale(0.3 0.3)">
  <a xlink:href="classdepicture__menu_1_1presentations_1_1menu__view__presenter_ac97fef37701785b4132172963a771071_cgraph_org.svg" target="_base">
   <rect id="button" ry="5" rx="5" y="6" x="6" height="38" width="38"
        fill="#f2f5e9" fill-opacity="0.5" stroke="#606060" stroke-width="1.0"/>
   <path id="arrow"
     d="M 11.500037,31.436501 C 11.940474,20.09759 22.043105,11.32322 32.158766,21.979434 L 37.068811,17.246167 C 37.068811,17.246167 37.088388,32 37.088388,32 L 22.160133,31.978069 C 22.160133,31.978069 26.997745,27.140456 26.997745,27.140456 C 18.528582,18.264221 13.291696,25.230495 11.500037,31.436501 z"
     style="fill:#404040;"/>
  </a>
 </g>
</svg>

<style type='text/css'>
<![CDATA[
[data-mouse-over-selected='false'] { opacity: 0.7; }
[data-mouse-over-selected='true']  { opacity: 1.0; }
]]>
</style>
<script type="application/ecmascript"><![CDATA[
document.addEventListener('DOMContentLoaded', (event) => {
  highlightEdges();
  highlightAdjacentNodes();
});
]]></script>
</svg>
