<?xml version="1.0" encoding="UTF-8" standalone="no"?>
<!DOCTYPE svg PUBLIC "-//W3C//DTD SVG 1.1//EN"
 "http://www.w3.org/Graphics/SVG/1.1/DTD/svg11.dtd">
<!-- Generated by graphviz version 14.1.2 (20260124.0452)
 -->
<!-- Title: depicture_menu::domain::services::common_action_builder::build_shellexecute_action Pages: 1 -->
<svg width="607pt" height="132pt"
 viewBox="0.00 0.00 607.00 132.00" xmlns="http://www.w3.org/2000/svg" xmlns:xlink="http://www.w3.org/1999/xlink">
<g id="graph0" class="graph" transform="scale(1 1) rotate(0) translate(4 128)">
<title>depicture_menu::domain::services::common_action_builder::build_shellexecute_action</title>
<!-- Node1 -->
<g id="Node000001" class="node">
<title>Node1</title>
<g id="a_Node000001"><a xlink:title=" ">
<polygon fill="#999999" stroke="#666666" points="167.5,-75 0,-75 0,-31 167.5,-31 167.5,-75"/>
<text xml:space="preserve" text-anchor="start" x="8" y="-61.5" font-family="Helvetica,sans-Serif" font-size="10.00">depicture_menu::domain</text>
<text xml:space="preserve" text-anchor="start" x="8" y="-49.5" font-family="Helvetica,sans-Serif" font-size="10.00">::services::common_action</text>
<text xml:space="preserve" text-anchor="middle" x="83.75" y="-37.5" font-family="Helvetica,sans-Serif" font-size="10.00">_builder::build_shellexecute_action</text>
</a>
</g>
</g>
<!-- Node2 -->
<g id="Node000002" class="node">
<title>Node2</title>
<g id="a_Node000002"><a xlink:href="classdepicture__menu_1_1domain_1_1services_1_1common__action__builder.html#a6ef10f7eac812230bba05450fbb6798a" target="_top" xlink:title=" ">
<polygon fill="white" stroke="#666666" points="380.38,-106 212.88,-106 212.88,-62 380.38,-62 380.38,-106"/>
<text xml:space="preserve" text-anchor="start" x="220.88" y="-92.5" font-family="Helvetica,sans-Serif" font-size="10.00">depicture_menu::domain</text>
<text xml:space="preserve" text-anchor="start" x="220.88" y="-80.5" font-family="Helvetica,sans-Serif" font-size="10.00">::services::common_action</text>
<text xml:space="preserve" text-anchor="middle" x="296.62" y="-68.5" font-family="Helvetica,sans-Serif" font-size="10.00">_builder::build_shellexecute_action</text>
</a>
</g>
</g>
<!-- Node1&#45;&gt;Node2 -->
<g id="edge1_Node000001_Node000002" class="edge">
<title>Node1&#45;&gt;Node2</title>
<g id="a_edge1_Node000001_Node000002"><a xlink:title=" ">
<path fill="none" stroke="#63b8ff" d="M167.79,-65.21C178.86,-66.83 190.26,-68.51 201.5,-70.16"/>
<polygon fill="#63b8ff" stroke="#63b8ff" points="200.76,-73.59 211.16,-71.58 201.78,-66.67 200.76,-73.59"/>
</a>
</g>
</g>
<!-- Node3 -->
<g id="Node000003" class="node">
<title>Node3</title>
<g id="a_Node000003"><a xlink:href="classdepicture__menu_1_1domain_1_1commands_1_1buildin_1_1shellexecute__command__parameter.html#acc8632d315ec07353a02ea485c99e984" target="_top" xlink:title=" ">
<polygon fill="white" stroke="#666666" points="389.75,-44 203.5,-44 203.5,0 389.75,0 389.75,-44"/>
<text xml:space="preserve" text-anchor="start" x="211.5" y="-30.5" font-family="Helvetica,sans-Serif" font-size="10.00">depicture_menu::domain</text>
<text xml:space="preserve" text-anchor="start" x="211.5" y="-18.5" font-family="Helvetica,sans-Serif" font-size="10.00">::commands::buildin::shellexecute</text>
<text xml:space="preserve" text-anchor="middle" x="296.62" y="-6.5" font-family="Helvetica,sans-Serif" font-size="10.00">_command_parameter::get_parameters</text>
</a>
</g>
</g>
<!-- Node1&#45;&gt;Node3 -->
<g id="edge3_Node000001_Node000003" class="edge">
<title>Node1&#45;&gt;Node3</title>
<g id="a_edge3_Node000001_Node000003"><a xlink:title=" ">
<path fill="none" stroke="#63b8ff" d="M167.79,-40.79C175.7,-39.63 183.79,-38.44 191.87,-37.25"/>
<polygon fill="#63b8ff" stroke="#63b8ff" points="192.37,-40.72 201.76,-35.8 191.35,-33.79 192.37,-40.72"/>
</a>
</g>
</g>
<!-- Node2&#45;&gt;Node2 -->
<g id="edge2_Node000002_Node000002" class="edge">
<title>Node2&#45;&gt;Node2</title>
<g id="a_edge2_Node000002_Node000002"><a xlink:title=" ">
<path fill="none" stroke="#63b8ff" d="M257.19,-106.21C253.96,-115.8 267.11,-124 296.62,-124 314.15,-124 325.91,-121.11 331.89,-116.75"/>
<polygon fill="#63b8ff" stroke="#63b8ff" points="335.08,-118.21 335.5,-107.62 328.57,-115.63 335.08,-118.21"/>
</a>
</g>
</g>
<!-- Node4 -->
<g id="Node000004" class="node">
<title>Node4</title>
<g id="a_Node000004"><a xlink:href="namespacedepicture__menu_1_1domain_1_1commands.html#ada3233a4e737ff1782b9e6c0901b6caa" target="_top" xlink:title=" ">
<polygon fill="white" stroke="#666666" points="599.25,-38 425.75,-38 425.75,-6 599.25,-6 599.25,-38"/>
<text xml:space="preserve" text-anchor="start" x="433.75" y="-24.5" font-family="Helvetica,sans-Serif" font-size="10.00">depicture_menu::domain</text>
<text xml:space="preserve" text-anchor="middle" x="512.5" y="-12.5" font-family="Helvetica,sans-Serif" font-size="10.00">::commands::build_parameter_value</text>
</a>
</g>
</g>
<!-- Node3&#45;&gt;Node4 -->
<g id="edge4_Node000003_Node000004" class="edge">
<title>Node3&#45;&gt;Node4</title>
<g id="a_edge4_Node000003_Node000004"><a xlink:title=" ">
<path fill="none" stroke="#63b8ff" d="M390.19,-22C398.17,-22 406.26,-22 414.27,-22"/>
<polygon fill="#63b8ff" stroke="#63b8ff" points="414.03,-25.5 424.03,-22 414.03,-18.5 414.03,-25.5"/>
</a>
</g>
</g>
</g>
</svg>
