<?xml version="1.0" encoding="UTF-8" standalone="no"?>
<!DOCTYPE svg PUBLIC "-//W3C//DTD SVG 1.1//EN"
 "http://www.w3.org/Graphics/SVG/1.1/DTD/svg11.dtd">
<!-- Generated by graphviz version 14.1.2 (20260124.0452)
 -->
<!-- Title: depicture_menu::presentations::stacked_views_presenter::relay Pages: 1 -->
<!--zoomable 610 -->

<svg id="main" version="1.1" xmlns="http://www.w3.org/2000/svg" xmlns:xlink="http://www.w3.org/1999/xlink" xml:space="preserve" onload="init(evt)">

<style type="text/css"><![CDATA[
.node, .edge {opacity: 0.7;}
.node.selected, .edge.selected {opacity: 1;}
.edge:hover path { stroke: red; }
.edge:hover polygon { stroke: red; fill: red; }
]]></style>

<defs>
  <circle id="rim" cx="0" cy="0" r="7"/>
  <circle id="rim2" cx="0" cy="0" r="3.5"/>
  <g id="zoomPlus">
    <use xlink:href="#rim" fill="#404040"><set attributeName="fill" to="#808080" begin="zoomplus.mouseover" end="zoomplus.mouseout"/></use>
    <path d="M-4,0h8M0,-4v8" fill="none" stroke="white" stroke-width="1.5" pointer-events="none"/>
  </g>
  <g id="zoomMin">
    <use xlink:href="#rim" fill="#404040"><set attributeName="fill" to="#808080" begin="zoomminus.mouseover" end="zoomminus.mouseout"/></use>
    <path d="M-4,0h8" fill="none" stroke="white" stroke-width="1.5" pointer-events="none"/>
  </g>
  <g id="arrowUp" transform="translate(30 24)">
    <use xlink:href="#rim"/>
    <path pointer-events="none" fill="none" stroke="white" stroke-width="1.5" d="M0,-3.0v7 M-2.5,-0.5L0,-3.0L2.5,-0.5"/>
  </g>
  <g id="arrowRight" transform="rotate(90) translate(36 -43)">
    <use xlink:href="#rim"/>
    <path pointer-events="none" fill="none" stroke="white" stroke-width="1.5" d="M0,-3.0v7 M-2.5,-0.5L0,-3.0L2.5,-0.5"/>
  </g>
  <g id="arrowDown" transform="rotate(180) translate(-30 -48)">
    <use xlink:href="#rim"/>
    <path pointer-events="none" fill="none" stroke="white" stroke-width="1.5" d="M0,-3.0v7 M-2.5,-0.5L0,-3.0L2.5,-0.5"/>
  </g>
  <g id="arrowLeft" transform="rotate(270) translate(-36 17)">
    <use xlink:href="#rim"/>
    <path pointer-events="none" fill="none" stroke="white" stroke-width="1.5" d="M0,-3.0v7 M-2.5,-0.5L0,-3.0L2.5,-0.5"/>
  </g>
  <g id="resetDef">
    <use xlink:href="#rim2" fill="#404040"><set attributeName="fill" to="#808080" begin="reset.mouseover" end="reset.mouseout"/></use>
  </g>
</defs>
<script type="application/ecmascript">
var viewWidth = 354;
var viewHeight = 610;
var sectionId = 'dynsection-12';
</script>
<script type="application/ecmascript" xlink:href="svg.min.js"/>
<svg id="graph" class="graph">
<g id="viewport">
<title>depicture_menu::presentations::stacked_views_presenter::relay</title>
<!-- Node1 -->
<g id="Node000001" class="node">
<title>Node1</title>
<g id="a_Node000001"><a xlink:title=" ">
<polygon fill="#999999" stroke="#666666" points="345.5,-317 185.5,-317 185.5,-285 345.5,-285 345.5,-317"/>
<text xml:space="preserve" text-anchor="start" x="193.5" y="-303.5" font-family="Helvetica,sans-Serif" font-size="10.00">depicture_menu::presentations</text>
<text xml:space="preserve" text-anchor="middle" x="265.5" y="-291.5" font-family="Helvetica,sans-Serif" font-size="10.00">::stacked_views_presenter::relay</text>
</a>
</g>
</g>
<!-- Node2 -->
<g id="Node000002" class="node">
<title>Node2</title>
<g id="a_Node000002"><a xlink:href="classdepicture__menu_1_1presentations_1_1stacked__views__presenter.html#aca3ac7a86447435758140ed33eaff2a2" target="_top" xlink:title=" ">
<polygon fill="white" stroke="#666666" points="149.5,-602 0,-602 0,-558 149.5,-558 149.5,-602"/>
<text xml:space="preserve" text-anchor="start" x="8" y="-588.5" font-family="Helvetica,sans-Serif" font-size="10.00">depicture_menu::presentations</text>
<text xml:space="preserve" text-anchor="start" x="8" y="-576.5" font-family="Helvetica,sans-Serif" font-size="10.00">::stacked_views_presenter</text>
<text xml:space="preserve" text-anchor="middle" x="74.75" y="-564.5" font-family="Helvetica,sans-Serif" font-size="10.00">::operator()</text>
</a>
</g>
</g>
<!-- Node1&#45;&gt;Node2 -->
<g id="edge1_Node000001_Node000002" class="edge">
<title>Node1&#45;&gt;Node2</title>
<g id="a_edge1_Node000001_Node000002"><a xlink:title=" ">
<path fill="none" stroke="#63b8ff" d="M258.69,-328.49C246.73,-378.73 214.83,-486 149.5,-549 146.2,-552.18 142.53,-555.06 138.63,-557.66"/>
<polygon fill="#63b8ff" stroke="#63b8ff" points="262.09,-329.29 260.91,-318.76 255.27,-327.73 262.09,-329.29"/>
</a>
</g>
</g>
<!-- Node3 -->
<g id="Node000003" class="node">
<title>Node3</title>
<g id="a_Node000003"><a xlink:href="classdepicture__menu_1_1presentations_1_1stacked__views__presenter.html#aec268fe521bc37eeaa5ef7de3c547632" target="_top" xlink:title=" ">
<polygon fill="white" stroke="#666666" points="149.5,-540 0,-540 0,-496 149.5,-496 149.5,-540"/>
<text xml:space="preserve" text-anchor="start" x="8" y="-526.5" font-family="Helvetica,sans-Serif" font-size="10.00">depicture_menu::presentations</text>
<text xml:space="preserve" text-anchor="start" x="8" y="-514.5" font-family="Helvetica,sans-Serif" font-size="10.00">::stacked_views_presenter</text>
<text xml:space="preserve" text-anchor="middle" x="74.75" y="-502.5" font-family="Helvetica,sans-Serif" font-size="10.00">::operator()</text>
</a>
</g>
</g>
<!-- Node1&#45;&gt;Node3 -->
<g id="edge2_Node000001_Node000003" class="edge">
<title>Node1&#45;&gt;Node3</title>
<g id="a_edge2_Node000001_Node000003"><a xlink:title=" ">
<path fill="none" stroke="#63b8ff" d="M254.26,-327.7C237.79,-367.43 201.87,-442.21 149.5,-487 145.81,-490.16 141.74,-493.03 137.48,-495.64"/>
<polygon fill="#63b8ff" stroke="#63b8ff" points="257.41,-329.24 257.91,-318.66 250.92,-326.62 257.41,-329.24"/>
</a>
</g>
</g>
<!-- Node4 -->
<g id="Node000004" class="node">
<title>Node4</title>
<g id="a_Node000004"><a xlink:href="classdepicture__menu_1_1presentations_1_1stacked__views__presenter.html#a55ec56a7511bb265b3f504c929b99fa7" target="_top" xlink:title=" ">
<polygon fill="white" stroke="#666666" points="149.5,-478 0,-478 0,-434 149.5,-434 149.5,-478"/>
<text xml:space="preserve" text-anchor="start" x="8" y="-464.5" font-family="Helvetica,sans-Serif" font-size="10.00">depicture_menu::presentations</text>
<text xml:space="preserve" text-anchor="start" x="8" y="-452.5" font-family="Helvetica,sans-Serif" font-size="10.00">::stacked_views_presenter</text>
<text xml:space="preserve" text-anchor="middle" x="74.75" y="-440.5" font-family="Helvetica,sans-Serif" font-size="10.00">::operator()</text>
</a>
</g>
</g>
<!-- Node1&#45;&gt;Node4 -->
<g id="edge3_Node000001_Node000004" class="edge">
<title>Node1&#45;&gt;Node4</title>
<g id="a_edge3_Node000001_Node000004"><a xlink:title=" ">
<path fill="none" stroke="#63b8ff" d="M246.47,-326.1C225.71,-353.49 189.31,-397.15 149.5,-425 145.06,-428.11 140.26,-430.98 135.32,-433.63"/>
<polygon fill="#63b8ff" stroke="#63b8ff" points="249.07,-328.46 252.24,-318.35 243.46,-324.28 249.07,-328.46"/>
</a>
</g>
</g>
<!-- Node5 -->
<g id="Node000005" class="node">
<title>Node5</title>
<g id="a_Node000005"><a xlink:href="classdepicture__menu_1_1presentations_1_1stacked__views__presenter.html#a9d09086021deb1d64f5dca92b11c567e" target="_top" xlink:title=" ">
<polygon fill="white" stroke="#666666" points="149.5,-416 0,-416 0,-372 149.5,-372 149.5,-416"/>
<text xml:space="preserve" text-anchor="start" x="8" y="-402.5" font-family="Helvetica,sans-Serif" font-size="10.00">depicture_menu::presentations</text>
<text xml:space="preserve" text-anchor="start" x="8" y="-390.5" font-family="Helvetica,sans-Serif" font-size="10.00">::stacked_views_presenter</text>
<text xml:space="preserve" text-anchor="middle" x="74.75" y="-378.5" font-family="Helvetica,sans-Serif" font-size="10.00">::operator()</text>
</a>
</g>
</g>
<!-- Node1&#45;&gt;Node5 -->
<g id="edge4_Node000001_Node000005" class="edge">
<title>Node1&#45;&gt;Node5</title>
<g id="a_edge4_Node000001_Node000005"><a xlink:title=" ">
<path fill="none" stroke="#63b8ff" d="M226.07,-322.92C203.95,-335.24 175.47,-350.58 149.5,-363 143.49,-365.88 137.13,-368.76 130.78,-371.56"/>
<polygon fill="#63b8ff" stroke="#63b8ff" points="227.73,-326 234.75,-318.06 224.31,-319.9 227.73,-326"/>
</a>
</g>
</g>
<!-- Node6 -->
<g id="Node000006" class="node">
<title>Node6</title>
<g id="a_Node000006"><a xlink:href="classdepicture__menu_1_1presentations_1_1stacked__views__presenter.html#a2883dfce5a7fffa8e6f1025c1f81a734" target="_top" xlink:title=" ">
<polygon fill="white" stroke="#666666" points="149.5,-354 0,-354 0,-310 149.5,-310 149.5,-354"/>
<text xml:space="preserve" text-anchor="start" x="8" y="-340.5" font-family="Helvetica,sans-Serif" font-size="10.00">depicture_menu::presentations</text>
<text xml:space="preserve" text-anchor="start" x="8" y="-328.5" font-family="Helvetica,sans-Serif" font-size="10.00">::stacked_views_presenter</text>
<text xml:space="preserve" text-anchor="middle" x="74.75" y="-316.5" font-family="Helvetica,sans-Serif" font-size="10.00">::operator()</text>
</a>
</g>
</g>
<!-- Node1&#45;&gt;Node6 -->
<g id="edge5_Node000001_Node000006" class="edge">
<title>Node1&#45;&gt;Node6</title>
<g id="a_edge5_Node000001_Node000006"><a xlink:title=" ">
<path fill="none" stroke="#63b8ff" d="M173.7,-315.91C165.67,-317.23 157.61,-318.56 149.74,-319.85"/>
<polygon fill="#63b8ff" stroke="#63b8ff" points="174.21,-319.38 183.51,-314.3 173.07,-312.47 174.21,-319.38"/>
</a>
</g>
</g>
<!-- Node7 -->
<g id="Node000007" class="node">
<title>Node7</title>
<g id="a_Node000007"><a xlink:href="classdepicture__menu_1_1presentations_1_1stacked__views__presenter.html#abacec8ca8ffb01f437b9e98bd262176f" target="_top" xlink:title=" ">
<polygon fill="white" stroke="#666666" points="149.5,-292 0,-292 0,-248 149.5,-248 149.5,-292"/>
<text xml:space="preserve" text-anchor="start" x="8" y="-278.5" font-family="Helvetica,sans-Serif" font-size="10.00">depicture_menu::presentations</text>
<text xml:space="preserve" text-anchor="start" x="8" y="-266.5" font-family="Helvetica,sans-Serif" font-size="10.00">::stacked_views_presenter</text>
<text xml:space="preserve" text-anchor="middle" x="74.75" y="-254.5" font-family="Helvetica,sans-Serif" font-size="10.00">::operator()</text>
</a>
</g>
</g>
<!-- Node1&#45;&gt;Node7 -->
<g id="edge6_Node000001_Node000007" class="edge">
<title>Node1&#45;&gt;Node7</title>
<g id="a_edge6_Node000001_Node000007"><a xlink:title=" ">
<path fill="none" stroke="#63b8ff" d="M173.7,-286.09C165.67,-284.77 157.61,-283.44 149.74,-282.15"/>
<polygon fill="#63b8ff" stroke="#63b8ff" points="173.07,-289.53 183.51,-287.7 174.21,-282.62 173.07,-289.53"/>
</a>
</g>
</g>
<!-- Node8 -->
<g id="Node000008" class="node">
<title>Node8</title>
<g id="a_Node000008"><a xlink:href="classdepicture__menu_1_1presentations_1_1stacked__views__presenter.html#a59e5c64f3a95ad84e47aaa1140fdc1f2" target="_top" xlink:title=" ">
<polygon fill="white" stroke="#666666" points="149.5,-230 0,-230 0,-186 149.5,-186 149.5,-230"/>
<text xml:space="preserve" text-anchor="start" x="8" y="-216.5" font-family="Helvetica,sans-Serif" font-size="10.00">depicture_menu::presentations</text>
<text xml:space="preserve" text-anchor="start" x="8" y="-204.5" font-family="Helvetica,sans-Serif" font-size="10.00">::stacked_views_presenter</text>
<text xml:space="preserve" text-anchor="middle" x="74.75" y="-192.5" font-family="Helvetica,sans-Serif" font-size="10.00">::operator()</text>
</a>
</g>
</g>
<!-- Node1&#45;&gt;Node8 -->
<g id="edge7_Node000001_Node000008" class="edge">
<title>Node1&#45;&gt;Node8</title>
<g id="a_edge7_Node000001_Node000008"><a xlink:title=" ">
<path fill="none" stroke="#63b8ff" d="M226.07,-279.08C203.95,-266.76 175.47,-251.42 149.5,-239 143.49,-236.12 137.13,-233.24 130.78,-230.44"/>
<polygon fill="#63b8ff" stroke="#63b8ff" points="224.31,-282.1 234.75,-283.94 227.73,-276 224.31,-282.1"/>
</a>
</g>
</g>
<!-- Node9 -->
<g id="Node000009" class="node">
<title>Node9</title>
<g id="a_Node000009"><a xlink:href="classdepicture__menu_1_1presentations_1_1stacked__views__presenter.html#af78c7791f3d744f23483e72dd67920b6" target="_top" xlink:title=" ">
<polygon fill="white" stroke="#666666" points="149.5,-168 0,-168 0,-124 149.5,-124 149.5,-168"/>
<text xml:space="preserve" text-anchor="start" x="8" y="-154.5" font-family="Helvetica,sans-Serif" font-size="10.00">depicture_menu::presentations</text>
<text xml:space="preserve" text-anchor="start" x="8" y="-142.5" font-family="Helvetica,sans-Serif" font-size="10.00">::stacked_views_presenter</text>
<text xml:space="preserve" text-anchor="middle" x="74.75" y="-130.5" font-family="Helvetica,sans-Serif" font-size="10.00">::operator()</text>
</a>
</g>
</g>
<!-- Node1&#45;&gt;Node9 -->
<g id="edge8_Node000001_Node000009" class="edge">
<title>Node1&#45;&gt;Node9</title>
<g id="a_edge8_Node000001_Node000009"><a xlink:title=" ">
<path fill="none" stroke="#63b8ff" d="M246.47,-275.9C225.71,-248.51 189.31,-204.85 149.5,-177 145.06,-173.89 140.26,-171.02 135.32,-168.37"/>
<polygon fill="#63b8ff" stroke="#63b8ff" points="243.46,-277.72 252.24,-283.65 249.07,-273.54 243.46,-277.72"/>
</a>
</g>
</g>
<!-- Node10 -->
<g id="Node000010" class="node">
<title>Node10</title>
<g id="a_Node000010"><a xlink:href="classdepicture__menu_1_1presentations_1_1stacked__views__presenter.html#ad2f3039a478b8eab61a10ccabcbbbedc" target="_top" xlink:title=" ">
<polygon fill="white" stroke="#666666" points="149.5,-106 0,-106 0,-62 149.5,-62 149.5,-106"/>
<text xml:space="preserve" text-anchor="start" x="8" y="-92.5" font-family="Helvetica,sans-Serif" font-size="10.00">depicture_menu::presentations</text>
<text xml:space="preserve" text-anchor="start" x="8" y="-80.5" font-family="Helvetica,sans-Serif" font-size="10.00">::stacked_views_presenter</text>
<text xml:space="preserve" text-anchor="middle" x="74.75" y="-68.5" font-family="Helvetica,sans-Serif" font-size="10.00">::operator()</text>
</a>
</g>
</g>
<!-- Node1&#45;&gt;Node10 -->
<g id="edge9_Node000001_Node000010" class="edge">
<title>Node1&#45;&gt;Node10</title>
<g id="a_edge9_Node000001_Node000010"><a xlink:title=" ">
<path fill="none" stroke="#63b8ff" d="M254.26,-274.3C237.79,-234.57 201.87,-159.79 149.5,-115 145.81,-111.84 141.74,-108.97 137.48,-106.36"/>
<polygon fill="#63b8ff" stroke="#63b8ff" points="250.92,-275.38 257.91,-283.34 257.41,-272.76 250.92,-275.38"/>
</a>
</g>
</g>
<!-- Node11 -->
<g id="Node000011" class="node">
<title>Node11</title>
<g id="a_Node000011"><a xlink:href="classdepicture__menu_1_1presentations_1_1stacked__views__presenter.html#a15ccef553dad95cc1809a08417aa503d" target="_top" xlink:title=" ">
<polygon fill="white" stroke="#666666" points="149.5,-44 0,-44 0,0 149.5,0 149.5,-44"/>
<text xml:space="preserve" text-anchor="start" x="8" y="-30.5" font-family="Helvetica,sans-Serif" font-size="10.00">depicture_menu::presentations</text>
<text xml:space="preserve" text-anchor="start" x="8" y="-18.5" font-family="Helvetica,sans-Serif" font-size="10.00">::stacked_views_presenter</text>
<text xml:space="preserve" text-anchor="middle" x="74.75" y="-6.5" font-family="Helvetica,sans-Serif" font-size="10.00">::operator()</text>
</a>
</g>
</g>
<!-- Node1&#45;&gt;Node11 -->
<g id="edge10_Node000001_Node000011" class="edge">
<title>Node1&#45;&gt;Node11</title>
<g id="a_edge10_Node000001_Node000011"><a xlink:title=" ">
<path fill="none" stroke="#63b8ff" d="M258.69,-273.51C246.73,-223.27 214.83,-116 149.5,-53 146.2,-49.82 142.53,-46.94 138.63,-44.34"/>
<polygon fill="#63b8ff" stroke="#63b8ff" points="255.27,-274.27 260.91,-283.24 262.09,-272.71 255.27,-274.27"/>
</a>
</g>
</g>
</g>
</svg>

<g id="navigator" transform="translate(0 0)" fill="#404254">
  <rect fill="#f2f5e9" fill-opacity="0.5" stroke="#606060" stroke-width=".5" x="0" y="0" width="60" height="60"/>
  <use id="zoomplus" xlink:href="#zoomPlus" x="17" y="9" onmousedown="handleZoom(evt,'in')"/>
  <use id="zoomminus" xlink:href="#zoomMin" x="42" y="9" onmousedown="handleZoom(evt,'out')"/>
  <use id="reset" xlink:href="#resetDef" x="30" y="36" onmousedown="handleReset()"/>
   <use id="arrowup" xlink:href="#arrowUp" x="0" y="0" onmousedown="handlePan(0,-1)"/>
  <use id="arrowright" xlink:href="#arrowRight" x="0" y="0" onmousedown="handlePan(1,0)"/>
  <use id="arrowdown" xlink:href="#arrowDown" x="0" y="0" onmousedown="handlePan(0,1)"/>
  <use id="arrowleft" xlink:href="#arrowLeft" x="0" y="0" onmousedown="handlePan(-1,0)"/>
</g>
<svg viewBox="0 0 15 15" width="100%" height="30px" preserveAspectRatio="xMaxYMin meet">
 <g id="arrow_out" transform="scale(0.3 0.3)">
  <a xlink:href="classdepicture__menu_1_1presentations_1_1stacked__views__presenter_a7e4a66c96ae6c4d72175877db09ef460_icgraph_org.svg" target="_base">
   <rect id="button" ry="5" rx="5" y="6" x="6" height="38" width="38"
        fill="#f2f5e9" fill-opacity="0.5" stroke="#606060" stroke-width="1.0"/>
   <path id="arrow"
     d="M 11.500037,31.436501 C 11.940474,20.09759 22.043105,11.32322 32.158766,21.979434 L 37.068811,17.246167 C 37.068811,17.246167 37.088388,32 37.088388,32 L 22.160133,31.978069 C 22.160133,31.978069 26.997745,27.140456 26.997745,27.140456 C 18.528582,18.264221 13.291696,25.230495 11.500037,31.436501 z"
     style="fill:#404040;"/>
  </a>
 </g>
</svg>

<style type='text/css'>
<![CDATA[
[data-mouse-over-selected='false'] { opacity: 0.7; }
[data-mouse-over-selected='true']  { opacity: 1.0; }
]]>
</style>
<script type="application/ecmascript"><![CDATA[
document.addEventListener('DOMContentLoaded', (event) => {
  highlightEdges();
  highlightAdjacentNodes();
});
]]></script>
</svg>
