<?xml version="1.0" encoding="UTF-8" standalone="no"?>
<!DOCTYPE svg PUBLIC "-//W3C//DTD SVG 1.1//EN"
 "http://www.w3.org/Graphics/SVG/1.1/DTD/svg11.dtd">
<!-- Generated by graphviz version 14.1.2 (20260124.0452)
 -->
<!-- Title: depicture_menu::presentations::config_view_presenter Pages: 1 -->
<svg width="857pt" height="190pt"
 viewBox="0.00 0.00 857.00 190.00" xmlns="http://www.w3.org/2000/svg" xmlns:xlink="http://www.w3.org/1999/xlink">
<g id="graph0" class="graph" transform="scale(1 1) rotate(0) translate(4 186)">
<title>depicture_menu::presentations::config_view_presenter</title>
<!-- Node1 -->
<g id="Node000001" class="node">
<title>Node1</title>
<g id="a_Node000001"><a xlink:title="コンフィグビュープレゼンター">
<polygon fill="#999999" stroke="#666666" points="848.75,-75 699.25,-75 699.25,-43 848.75,-43 848.75,-75"/>
<text xml:space="preserve" text-anchor="start" x="707.25" y="-61.5" font-family="Helvetica,sans-Serif" font-size="10.00">depicture_menu::presentations</text>
<text xml:space="preserve" text-anchor="middle" x="774" y="-49.5" font-family="Helvetica,sans-Serif" font-size="10.00">::config_view_presenter</text>
</a>
</g>
</g>
<!-- Node2 -->
<g id="Node000002" class="node">
<title>Node2</title>
<g id="a_Node000002"><a xlink:href="classdepicture__menu_1_1usecase_1_1config__view__model__interface.html" target="_top" xlink:title="コンフィグビューインターフェイス">
<polygon fill="white" stroke="#666666" points="613,-107 465,-107 465,-75 613,-75 613,-107"/>
<text xml:space="preserve" text-anchor="start" x="473" y="-93.5" font-family="Helvetica,sans-Serif" font-size="10.00">depicture_menu::usecase</text>
<text xml:space="preserve" text-anchor="middle" x="539" y="-81.5" font-family="Helvetica,sans-Serif" font-size="10.00">::config_view_model_interface</text>
</a>
</g>
</g>
<!-- Node2&#45;&gt;Node1 -->
<g id="edge1_Node000001_Node000002" class="edge">
<title>Node2&#45;&gt;Node1</title>
<g id="a_edge1_Node000001_Node000002"><a xlink:title=" ">
<path fill="none" stroke="#63b8ff" d="M624.75,-79.36C648.99,-76.03 675.21,-72.43 698.76,-69.2"/>
<polygon fill="#63b8ff" stroke="#63b8ff" points="624.33,-75.88 614.9,-80.71 625.29,-82.82 624.33,-75.88"/>
</a>
</g>
</g>
<!-- Node3 -->
<g id="Node000003" class="node">
<title>Node3</title>
<g id="a_Node000003"><a xlink:href="classdepicture__menu_1_1usecase_1_1config__changed__interface.html" target="_top" xlink:title="コンフィグ更新インターフェイス">
<polygon fill="white" stroke="#666666" points="309,-107 176,-107 176,-75 309,-75 309,-107"/>
<text xml:space="preserve" text-anchor="start" x="184" y="-93.5" font-family="Helvetica,sans-Serif" font-size="10.00">depicture_menu::usecase</text>
<text xml:space="preserve" text-anchor="middle" x="242.5" y="-81.5" font-family="Helvetica,sans-Serif" font-size="10.00">::config_changed_interface</text>
</a>
</g>
</g>
<!-- Node3&#45;&gt;Node2 -->
<g id="edge2_Node000002_Node000003" class="edge">
<title>Node3&#45;&gt;Node2</title>
<g id="a_edge2_Node000002_Node000003"><a xlink:title=" ">
<path fill="none" stroke="#63b8ff" d="M320.59,-91C365.12,-91 420.84,-91 464.72,-91"/>
<polygon fill="#63b8ff" stroke="#63b8ff" points="320.74,-87.5 310.74,-91 320.74,-94.5 320.74,-87.5"/>
</a>
</g>
</g>
<!-- Node4 -->
<g id="Node000004" class="node">
<title>Node4</title>
<g id="a_Node000004"><a xlink:href="classdepicture__menu_1_1usecase_1_1menu__config__interface.html" target="_top" xlink:title="メニューコンフィグインターフェイス">
<polygon fill="white" stroke="#666666" points="133.38,-182 5.62,-182 5.62,-150 133.38,-150 133.38,-182"/>
<text xml:space="preserve" text-anchor="start" x="13.62" y="-168.5" font-family="Helvetica,sans-Serif" font-size="10.00">depicture_menu::usecase</text>
<text xml:space="preserve" text-anchor="middle" x="69.5" y="-156.5" font-family="Helvetica,sans-Serif" font-size="10.00">::menu_config_interface</text>
</a>
</g>
</g>
<!-- Node4&#45;&gt;Node3 -->
<g id="edge3_Node000003_Node000004" class="edge">
<title>Node4&#45;&gt;Node3</title>
<g id="a_edge3_Node000003_Node000004"><a xlink:title=" ">
<path fill="none" stroke="#63b8ff" d="M128.07,-145.48C131.79,-144.01 135.46,-142.51 139,-141 163.24,-130.7 189.95,-117.61 210.04,-107.4"/>
<polygon fill="#63b8ff" stroke="#63b8ff" points="127.02,-142.14 118.96,-149.02 129.55,-148.66 127.02,-142.14"/>
</a>
</g>
</g>
<!-- Node5 -->
<g id="Node000005" class="node">
<title>Node5</title>
<g id="a_Node000005"><a xlink:href="classdepicture__menu_1_1usecase_1_1trigger__config__interface.html" target="_top" xlink:title="トリガーコンフィグインターフェイス">
<polygon fill="white" stroke="#666666" points="133.38,-132 5.62,-132 5.62,-100 133.38,-100 133.38,-132"/>
<text xml:space="preserve" text-anchor="start" x="13.62" y="-118.5" font-family="Helvetica,sans-Serif" font-size="10.00">depicture_menu::usecase</text>
<text xml:space="preserve" text-anchor="middle" x="69.5" y="-106.5" font-family="Helvetica,sans-Serif" font-size="10.00">::trigger_config_interface</text>
</a>
</g>
</g>
<!-- Node5&#45;&gt;Node3 -->
<g id="edge4_Node000003_Node000005" class="edge">
<title>Node5&#45;&gt;Node3</title>
<g id="a_edge4_Node000003_Node000005"><a xlink:title=" ">
<path fill="none" stroke="#63b8ff" d="M145.08,-105.1C155.28,-103.61 165.68,-102.08 175.71,-100.62"/>
<polygon fill="#63b8ff" stroke="#63b8ff" points="144.57,-101.63 135.19,-106.54 145.59,-108.56 144.57,-101.63"/>
</a>
</g>
</g>
<!-- Node6 -->
<g id="Node000006" class="node">
<title>Node6</title>
<g id="a_Node000006"><a xlink:href="classdepicture__menu_1_1usecase_1_1action__config__interface.html" target="_top" xlink:title="アクションコンフィグインターフェイス">
<polygon fill="white" stroke="#666666" points="133.38,-82 5.62,-82 5.62,-50 133.38,-50 133.38,-82"/>
<text xml:space="preserve" text-anchor="start" x="13.62" y="-68.5" font-family="Helvetica,sans-Serif" font-size="10.00">depicture_menu::usecase</text>
<text xml:space="preserve" text-anchor="middle" x="69.5" y="-56.5" font-family="Helvetica,sans-Serif" font-size="10.00">::action_config_interface</text>
</a>
</g>
</g>
<!-- Node6&#45;&gt;Node3 -->
<g id="edge5_Node000003_Node000006" class="edge">
<title>Node6&#45;&gt;Node3</title>
<g id="a_edge5_Node000003_Node000006"><a xlink:title=" ">
<path fill="none" stroke="#63b8ff" d="M145.08,-76.9C155.28,-78.39 165.68,-79.92 175.71,-81.38"/>
<polygon fill="#63b8ff" stroke="#63b8ff" points="145.59,-73.44 135.19,-75.46 144.57,-80.37 145.59,-73.44"/>
</a>
</g>
</g>
<!-- Node7 -->
<g id="Node000007" class="node">
<title>Node7</title>
<g id="a_Node000007"><a xlink:href="classdepicture__menu_1_1usecase_1_1command__config__interface.html" target="_top" xlink:title="コマンドコンフィグインターフェイス">
<polygon fill="white" stroke="#666666" points="139,-32 0,-32 0,0 139,0 139,-32"/>
<text xml:space="preserve" text-anchor="start" x="8" y="-18.5" font-family="Helvetica,sans-Serif" font-size="10.00">depicture_menu::usecase</text>
<text xml:space="preserve" text-anchor="middle" x="69.5" y="-6.5" font-family="Helvetica,sans-Serif" font-size="10.00">::command_config_interface</text>
</a>
</g>
</g>
<!-- Node7&#45;&gt;Node3 -->
<g id="edge6_Node000003_Node000007" class="edge">
<title>Node7&#45;&gt;Node3</title>
<g id="a_edge6_Node000003_Node000007"><a xlink:title=" ">
<path fill="none" stroke="#63b8ff" d="M128.63,-36.64C132.16,-38.07 135.64,-39.53 139,-41 155.94,-48.41 159.42,-51.82 176,-60 185.82,-64.84 196.53,-69.97 206.39,-74.64"/>
<polygon fill="#63b8ff" stroke="#63b8ff" points="129.97,-33.41 119.38,-33.01 127.41,-39.92 129.97,-33.41"/>
</a>
</g>
</g>
<!-- Node8 -->
<g id="Node000008" class="node">
<title>Node8</title>
<g id="a_Node000008"><a xlink:href="classdepicture__menu_1_1cs__binding_1_1observer_1_1lock__generator.html" target="_top" xlink:title=" ">
<polygon fill="white" stroke="#666666" points="606.62,-57 471.38,-57 471.38,-1 606.62,-1 606.62,-57"/>
<text xml:space="preserve" text-anchor="start" x="479.38" y="-43.5" font-family="Helvetica,sans-Serif" font-size="10.00">depicture_menu::cs</text>
<text xml:space="preserve" text-anchor="start" x="479.38" y="-31.5" font-family="Helvetica,sans-Serif" font-size="10.00">_binding::observer::</text>
<text xml:space="preserve" text-anchor="start" x="479.38" y="-19.5" font-family="Helvetica,sans-Serif" font-size="10.00">lock_generator&lt; cs_binding</text>
<text xml:space="preserve" text-anchor="middle" x="539" y="-7.5" font-family="Helvetica,sans-Serif" font-size="10.00">::ConfigArg &gt;</text>
</a>
</g>
</g>
<!-- Node8&#45;&gt;Node1 -->
<g id="edge7_Node000001_Node000008" class="edge">
<title>Node8&#45;&gt;Node1</title>
<g id="a_edge7_Node000001_Node000008"><a xlink:title=" ">
<path fill="none" stroke="#9a32cd" stroke-dasharray="5,2" d="M618.43,-39.1C644.47,-42.45 673.36,-46.17 699.05,-49.48"/>
<polygon fill="#9a32cd" stroke="#9a32cd" points="618.95,-35.64 608.58,-37.83 618.05,-42.58 618.95,-35.64"/>
</a>
</g>
<text xml:space="preserve" text-anchor="start" x="634" y="-52.19" font-family="Helvetica,sans-Serif" font-size="10.00" fill="grey">lock_gen_</text>
</g>
<!-- Node9 -->
<g id="Node000009" class="node">
<title>Node9</title>
<g id="a_Node000009"><a xlink:href="classdepicture__menu_1_1cs__binding_1_1observer_1_1lock__generator.html" target="_top" xlink:title="通知ロックの管理">
<polygon fill="white" stroke="#666666" points="295.12,-51 189.88,-51 189.88,-7 295.12,-7 295.12,-51"/>
<text xml:space="preserve" text-anchor="start" x="197.88" y="-37.5" font-family="Helvetica,sans-Serif" font-size="10.00">depicture_menu::cs</text>
<text xml:space="preserve" text-anchor="start" x="197.88" y="-25.5" font-family="Helvetica,sans-Serif" font-size="10.00">_binding::observer::</text>
<text xml:space="preserve" text-anchor="middle" x="242.5" y="-13.5" font-family="Helvetica,sans-Serif" font-size="10.00">lock_generator&lt; R &gt;</text>
</a>
</g>
</g>
<!-- Node9&#45;&gt;Node8 -->
<g id="edge8_Node000008_Node000009" class="edge">
<title>Node9&#45;&gt;Node8</title>
<g id="a_edge8_Node000008_Node000009"><a xlink:title=" ">
<path fill="none" stroke="orange" stroke-dasharray="5,2" d="M306.74,-29C355.14,-29 421.73,-29 471.02,-29"/>
<polygon fill="orange" stroke="orange" points="306.99,-25.5 296.99,-29 306.99,-32.5 306.99,-25.5"/>
</a>
</g>
<text xml:space="preserve" text-anchor="start" x="330" y="-34.5" font-family="Helvetica,sans-Serif" font-size="10.00" fill="grey">&lt; cs_binding::ConfigArg &gt;</text>
</g>
</g>
</svg>
