<?xml version="1.0" encoding="UTF-8" standalone="no"?>
<!DOCTYPE svg PUBLIC "-//W3C//DTD SVG 1.1//EN"
 "http://www.w3.org/Graphics/SVG/1.1/DTD/svg11.dtd">
<!-- Generated by graphviz version 14.1.2 (20260124.0452)
 -->
<!-- Title: depicture_menu::domain::menu::radialmenu_centralitem Pages: 1 -->
<svg width="949pt" height="115pt"
 viewBox="0.00 0.00 949.00 115.00" xmlns="http://www.w3.org/2000/svg" xmlns:xlink="http://www.w3.org/1999/xlink">
<g id="graph0" class="graph" transform="scale(1 1) rotate(0) translate(4 111)">
<title>depicture_menu::domain::menu::radialmenu_centralitem</title>
<!-- Node1 -->
<g id="Node000001" class="node">
<title>Node1</title>
<g id="a_Node000001"><a xlink:title=" ">
<polygon fill="#999999" stroke="#666666" points="941.25,-88 788.75,-88 788.75,-56 941.25,-56 941.25,-88"/>
<text xml:space="preserve" text-anchor="start" x="796.75" y="-74.5" font-family="Helvetica,sans-Serif" font-size="10.00">depicture_menu::domain</text>
<text xml:space="preserve" text-anchor="middle" x="865" y="-62.5" font-family="Helvetica,sans-Serif" font-size="10.00">::menu::radialmenu_centralitem</text>
</a>
</g>
</g>
<!-- Node2 -->
<g id="Node000002" class="node">
<title>Node2</title>
<g id="a_Node000002"><a xlink:href="structdepicture__menu_1_1domain_1_1models_1_1base_1_1entity__base.html" target="_top" xlink:title=" ">
<polygon fill="white" stroke="#666666" points="751.75,-100 621,-100 621,-44 751.75,-44 751.75,-100"/>
<text xml:space="preserve" text-anchor="start" x="629" y="-86.5" font-family="Helvetica,sans-Serif" font-size="10.00">models::entity_base</text>
<text xml:space="preserve" text-anchor="start" x="629" y="-74.5" font-family="Helvetica,sans-Serif" font-size="10.00">&lt; detail_menu::radialmenu</text>
<text xml:space="preserve" text-anchor="start" x="629" y="-62.5" font-family="Helvetica,sans-Serif" font-size="10.00">_centralitem_data, menu</text>
<text xml:space="preserve" text-anchor="middle" x="686.38" y="-50.5" font-family="Helvetica,sans-Serif" font-size="10.00">_central_item_id &gt;</text>
</a>
</g>
</g>
<!-- Node2&#45;&gt;Node1 -->
<g id="edge1_Node000001_Node000002" class="edge">
<title>Node2&#45;&gt;Node1</title>
<g id="a_edge1_Node000001_Node000002"><a xlink:title=" ">
<path fill="none" stroke="#63b8ff" d="M763.65,-72C771.88,-72 780.25,-72 788.47,-72"/>
<polygon fill="#63b8ff" stroke="#63b8ff" points="763.65,-68.5 753.65,-72 763.65,-75.5 763.65,-68.5"/>
</a>
</g>
</g>
<!-- Node3 -->
<g id="Node000003" class="node">
<title>Node3</title>
<g id="a_Node000003"><a xlink:title=" ">
<polygon fill="white" stroke="#666666" points="491.65,-107 462.85,-107 462.85,-87 491.65,-87 491.65,-107"/>
<text xml:space="preserve" text-anchor="middle" x="477.25" y="-93.5" font-family="Helvetica,sans-Serif" font-size="10.00">V</text>
</a>
</g>
</g>
<!-- Node3&#45;&gt;Node2 -->
<g id="edge2_Node000002_Node000003" class="edge">
<title>Node3&#45;&gt;Node2</title>
<g id="a_edge2_Node000002_Node000003"><a xlink:title=" ">
<path fill="none" stroke="darkgreen" d="M502.89,-94.03C531.74,-90.54 580.66,-84.64 620.58,-79.82"/>
<polygon fill="darkgreen" stroke="darkgreen" points="502.85,-90.51 493.34,-95.18 503.69,-97.45 502.85,-90.51"/>
</a>
</g>
</g>
<!-- Node4 -->
<g id="Node000004" class="node">
<title>Node4</title>
<g id="a_Node000004"><a xlink:href="structdepicture__menu_1_1domain_1_1models_1_1base_1_1entity__base.html" target="_top" xlink:title=" ">
<polygon fill="white" stroke="#666666" points="538.5,-69 416,-69 416,-25 538.5,-25 538.5,-69"/>
<text xml:space="preserve" text-anchor="start" x="424" y="-55.5" font-family="Helvetica,sans-Serif" font-size="10.00">depicture_menu::domain</text>
<text xml:space="preserve" text-anchor="start" x="424" y="-43.5" font-family="Helvetica,sans-Serif" font-size="10.00">::models::base::entity</text>
<text xml:space="preserve" text-anchor="middle" x="477.25" y="-31.5" font-family="Helvetica,sans-Serif" font-size="10.00">_base&lt; Value, IdTag &gt;</text>
</a>
</g>
</g>
<!-- Node4&#45;&gt;Node2 -->
<g id="edge3_Node000002_Node000004" class="edge">
<title>Node4&#45;&gt;Node2</title>
<g id="a_edge3_Node000002_Node000004"><a xlink:title=" ">
<path fill="none" stroke="orange" stroke-dasharray="5,2" d="M550.11,-53.98C567.44,-55.81 585.9,-57.86 603,-60 608.74,-60.72 614.69,-61.5 620.66,-62.32"/>
<polygon fill="orange" stroke="orange" points="550.72,-50.53 540.41,-52.97 549.99,-57.49 550.72,-50.53"/>
</a>
</g>
<text xml:space="preserve" text-anchor="start" x="559.5" y="-65.5" font-family="Helvetica,sans-Serif" font-size="10.00" fill="grey">&lt; V, ID &gt;</text>
</g>
<!-- Node5 -->
<g id="Node000005" class="node">
<title>Node5</title>
<g id="a_Node000005"><a xlink:title=" ">
<polygon fill="white" stroke="#666666" points="320,-82 280,-82 280,-62 320,-62 320,-82"/>
<text xml:space="preserve" text-anchor="middle" x="300" y="-68.5" font-family="Helvetica,sans-Serif" font-size="10.00">Value</text>
</a>
</g>
</g>
<!-- Node5&#45;&gt;Node4 -->
<g id="edge4_Node000004_Node000005" class="edge">
<title>Node5&#45;&gt;Node4</title>
<g id="a_edge4_Node000004_Node000005"><a xlink:title=" ">
<path fill="none" stroke="darkgreen" d="M331.63,-67.63C354.83,-64.32 387.45,-59.67 415.84,-55.62"/>
<polygon fill="darkgreen" stroke="darkgreen" points="331.33,-64.14 321.92,-69.02 332.32,-71.07 331.33,-64.14"/>
</a>
</g>
</g>
<!-- Node6 -->
<g id="Node000006" class="node">
<title>Node6</title>
<g id="a_Node000006"><a xlink:href="structdepicture__menu_1_1domain_1_1models_1_1entity__id__base.html" target="_top" xlink:title=" ">
<polygon fill="white" stroke="#666666" points="361.25,-44 238.75,-44 238.75,0 361.25,0 361.25,-44"/>
<text xml:space="preserve" text-anchor="start" x="246.75" y="-30.5" font-family="Helvetica,sans-Serif" font-size="10.00">depicture_menu::domain</text>
<text xml:space="preserve" text-anchor="start" x="246.75" y="-18.5" font-family="Helvetica,sans-Serif" font-size="10.00">::models::entity_id_base</text>
<text xml:space="preserve" text-anchor="middle" x="300" y="-6.5" font-family="Helvetica,sans-Serif" font-size="10.00">&lt; standard_tag &gt;</text>
</a>
</g>
</g>
<!-- Node6&#45;&gt;Node4 -->
<g id="edge5_Node000004_Node000006" class="edge">
<title>Node6&#45;&gt;Node4</title>
<g id="a_edge5_Node000004_Node000006"><a xlink:title=" ">
<path fill="none" stroke="#9a32cd" stroke-dasharray="5,2" d="M372.59,-32.21C386.84,-34.25 401.68,-36.36 415.53,-38.34"/>
<polygon fill="#9a32cd" stroke="#9a32cd" points="373.2,-28.76 362.81,-30.82 372.21,-35.69 373.2,-28.76"/>
</a>
</g>
<text xml:space="preserve" text-anchor="start" x="382.25" y="-40.75" font-family="Helvetica,sans-Serif" font-size="10.00" fill="grey">id_</text>
</g>
<!-- Node7 -->
<g id="Node000007" class="node">
<title>Node7</title>
<g id="a_Node000007"><a xlink:href="structdepicture__menu_1_1domain_1_1models_1_1entity__id__base.html" target="_top" xlink:title=" ">
<polygon fill="white" stroke="#666666" points="122.5,-44 0,-44 0,0 122.5,0 122.5,-44"/>
<text xml:space="preserve" text-anchor="start" x="8" y="-30.5" font-family="Helvetica,sans-Serif" font-size="10.00">depicture_menu::domain</text>
<text xml:space="preserve" text-anchor="start" x="8" y="-18.5" font-family="Helvetica,sans-Serif" font-size="10.00">::models::entity_id_base</text>
<text xml:space="preserve" text-anchor="middle" x="61.25" y="-6.5" font-family="Helvetica,sans-Serif" font-size="10.00">&lt; Tag &gt;</text>
</a>
</g>
</g>
<!-- Node7&#45;&gt;Node6 -->
<g id="edge6_Node000006_Node000007" class="edge">
<title>Node7&#45;&gt;Node6</title>
<g id="a_edge6_Node000006_Node000007"><a xlink:title=" ">
<path fill="none" stroke="orange" stroke-dasharray="5,2" d="M134.42,-22C167.71,-22 206.78,-22 238.5,-22"/>
<polygon fill="orange" stroke="orange" points="134.43,-18.5 124.43,-22 134.43,-25.5 134.43,-18.5"/>
</a>
</g>
<text xml:space="preserve" text-anchor="start" x="143.5" y="-27.5" font-family="Helvetica,sans-Serif" font-size="10.00" fill="grey">&lt; standard_tag &gt;</text>
</g>
</g>
</svg>
