<?xml version="1.0" encoding="UTF-8" standalone="no"?>
<!DOCTYPE svg PUBLIC "-//W3C//DTD SVG 1.1//EN"
 "http://www.w3.org/Graphics/SVG/1.1/DTD/svg11.dtd">
<!-- Generated by graphviz version 14.1.2 (20260124.0452)
 -->
<!-- Title: depicture_menu::presentations::command_invoker::invoke Pages: 1 -->
<!--zoomable 102 -->

<svg id="main" version="1.1" xmlns="http://www.w3.org/2000/svg" xmlns:xlink="http://www.w3.org/1999/xlink" xml:space="preserve" onload="init(evt)">

<style type="text/css"><![CDATA[
.node, .edge {opacity: 0.7;}
.node.selected, .edge.selected {opacity: 1;}
.edge:hover path { stroke: red; }
.edge:hover polygon { stroke: red; fill: red; }
]]></style>

<defs>
  <circle id="rim" cx="0" cy="0" r="7"/>
  <circle id="rim2" cx="0" cy="0" r="3.5"/>
  <g id="zoomPlus">
    <use xlink:href="#rim" fill="#404040"><set attributeName="fill" to="#808080" begin="zoomplus.mouseover" end="zoomplus.mouseout"/></use>
    <path d="M-4,0h8M0,-4v8" fill="none" stroke="white" stroke-width="1.5" pointer-events="none"/>
  </g>
  <g id="zoomMin">
    <use xlink:href="#rim" fill="#404040"><set attributeName="fill" to="#808080" begin="zoomminus.mouseover" end="zoomminus.mouseout"/></use>
    <path d="M-4,0h8" fill="none" stroke="white" stroke-width="1.5" pointer-events="none"/>
  </g>
  <g id="arrowUp" transform="translate(30 24)">
    <use xlink:href="#rim"/>
    <path pointer-events="none" fill="none" stroke="white" stroke-width="1.5" d="M0,-3.0v7 M-2.5,-0.5L0,-3.0L2.5,-0.5"/>
  </g>
  <g id="arrowRight" transform="rotate(90) translate(36 -43)">
    <use xlink:href="#rim"/>
    <path pointer-events="none" fill="none" stroke="white" stroke-width="1.5" d="M0,-3.0v7 M-2.5,-0.5L0,-3.0L2.5,-0.5"/>
  </g>
  <g id="arrowDown" transform="rotate(180) translate(-30 -48)">
    <use xlink:href="#rim"/>
    <path pointer-events="none" fill="none" stroke="white" stroke-width="1.5" d="M0,-3.0v7 M-2.5,-0.5L0,-3.0L2.5,-0.5"/>
  </g>
  <g id="arrowLeft" transform="rotate(270) translate(-36 17)">
    <use xlink:href="#rim"/>
    <path pointer-events="none" fill="none" stroke="white" stroke-width="1.5" d="M0,-3.0v7 M-2.5,-0.5L0,-3.0L2.5,-0.5"/>
  </g>
  <g id="resetDef">
    <use xlink:href="#rim2" fill="#404040"><set attributeName="fill" to="#808080" begin="reset.mouseover" end="reset.mouseout"/></use>
  </g>
</defs>
<script type="application/ecmascript">
var viewWidth = 834;
var viewHeight = 102;
var sectionId = 'dynsection-2';
</script>
<script type="application/ecmascript" xlink:href="svg.min.js"/>
<svg id="graph" class="graph">
<g id="viewport">
<title>depicture_menu::presentations::command_invoker::invoke</title>
<!-- Node1 -->
<g id="Node000001" class="node">
<title>Node1</title>
<g id="a_Node000001"><a xlink:title=" ">
<polygon fill="#999999" stroke="#666666" points="149.5,-60 0,-60 0,-28 149.5,-28 149.5,-60"/>
<text xml:space="preserve" text-anchor="start" x="8" y="-46.5" font-family="Helvetica,sans-Serif" font-size="10.00">depicture_menu::presentations</text>
<text xml:space="preserve" text-anchor="middle" x="74.75" y="-34.5" font-family="Helvetica,sans-Serif" font-size="10.00">::command_invoker::invoke</text>
</a>
</g>
</g>
<!-- Node2 -->
<g id="Node000002" class="node">
<title>Node2</title>
<g id="a_Node000002"><a xlink:href="namespacedepicture__menu_1_1applications.html#a7ea63a2945eb75bfc5fb5e79d1d08778" target="_top" xlink:title=" ">
<polygon fill="white" stroke="#666666" points="328.25,-60 185.5,-60 185.5,-28 328.25,-28 328.25,-60"/>
<text xml:space="preserve" text-anchor="start" x="193.5" y="-46.5" font-family="Helvetica,sans-Serif" font-size="10.00">depicture_menu::applications</text>
<text xml:space="preserve" text-anchor="middle" x="256.88" y="-34.5" font-family="Helvetica,sans-Serif" font-size="10.00">::run_worker</text>
</a>
</g>
</g>
<!-- Node1&#45;&gt;Node2 -->
<g id="edge1_Node000001_Node000002" class="edge">
<title>Node1&#45;&gt;Node2</title>
<g id="a_edge1_Node000001_Node000002"><a xlink:title=" ">
<path fill="none" stroke="#63b8ff" d="M149.79,-44C157.62,-44 165.61,-44 173.52,-44"/>
<polygon fill="#63b8ff" stroke="#63b8ff" points="173.51,-47.5 183.51,-44 173.51,-40.5 173.51,-47.5"/>
</a>
</g>
</g>
<!-- Node3 -->
<g id="Node000003" class="node">
<title>Node3</title>
<g id="a_Node000003"><a xlink:href="classdepicture__menu_1_1singleton.html#ab3a8df96e817c8ccb1ab61434f90c416" target="_top" xlink:title=" ">
<polygon fill="white" stroke="#666666" points="494.25,-66 364.25,-66 364.25,-22 494.25,-22 494.25,-66"/>
<text xml:space="preserve" text-anchor="start" x="372.25" y="-52.5" font-family="Helvetica,sans-Serif" font-size="10.00">depicture_menu::singleton</text>
<text xml:space="preserve" text-anchor="start" x="372.25" y="-40.5" font-family="Helvetica,sans-Serif" font-size="10.00">&lt; detail_applications::</text>
<text xml:space="preserve" text-anchor="middle" x="429.25" y="-28.5" font-family="Helvetica,sans-Serif" font-size="10.00">pool &gt;::get_instance</text>
</a>
</g>
</g>
<!-- Node2&#45;&gt;Node3 -->
<g id="edge2_Node000002_Node000003" class="edge">
<title>Node2&#45;&gt;Node3</title>
<g id="a_edge2_Node000002_Node000003"><a xlink:title=" ">
<path fill="none" stroke="#63b8ff" d="M328.65,-44C336.51,-44 344.54,-44 352.46,-44"/>
<polygon fill="#63b8ff" stroke="#63b8ff" points="352.45,-47.5 362.45,-44 352.45,-40.5 352.45,-47.5"/>
</a>
</g>
</g>
<!-- Node4 -->
<g id="Node000004" class="node">
<title>Node4</title>
<g id="a_Node000004"><a xlink:href="classdepicture__menu_1_1singleton.html#a9aaa3a707bf7abdb4eb491037c31e16c" target="_top" xlink:title=" ">
<polygon fill="white" stroke="#666666" points="660.25,-66 530.25,-66 530.25,-22 660.25,-22 660.25,-66"/>
<text xml:space="preserve" text-anchor="start" x="538.25" y="-52.5" font-family="Helvetica,sans-Serif" font-size="10.00">depicture_menu::singleton</text>
<text xml:space="preserve" text-anchor="start" x="538.25" y="-40.5" font-family="Helvetica,sans-Serif" font-size="10.00">&lt; detail_applications::</text>
<text xml:space="preserve" text-anchor="middle" x="595.25" y="-28.5" font-family="Helvetica,sans-Serif" font-size="10.00">pool &gt;::create</text>
</a>
</g>
</g>
<!-- Node3&#45;&gt;Node4 -->
<g id="edge3_Node000003_Node000004" class="edge">
<title>Node3&#45;&gt;Node4</title>
<g id="a_edge3_Node000003_Node000004"><a xlink:title=" ">
<path fill="none" stroke="#63b8ff" d="M494.6,-44C502.46,-44 510.56,-44 518.58,-44"/>
<polygon fill="#63b8ff" stroke="#63b8ff" points="518.31,-47.5 528.31,-44 518.31,-40.5 518.31,-47.5"/>
</a>
</g>
</g>
<!-- Node5 -->
<g id="Node000005" class="node">
<title>Node5</title>
<g id="a_Node000005"><a xlink:href="structdepicture__menu_1_1detail_1_1singleton__finalizer.html#a350b38d28c26319fe9848a4c63602f3a" target="_top" xlink:title=" ">
<polygon fill="white" stroke="#666666" points="818.38,-94 704.12,-94 704.12,-50 818.38,-50 818.38,-94"/>
<text xml:space="preserve" text-anchor="start" x="712.12" y="-80.5" font-family="Helvetica,sans-Serif" font-size="10.00">depicture_menu::detail</text>
<text xml:space="preserve" text-anchor="start" x="712.12" y="-68.5" font-family="Helvetica,sans-Serif" font-size="10.00">::singleton_finalizer</text>
<text xml:space="preserve" text-anchor="middle" x="761.25" y="-56.5" font-family="Helvetica,sans-Serif" font-size="10.00">::add_finalizer</text>
</a>
</g>
</g>
<!-- Node4&#45;&gt;Node5 -->
<g id="edge4_Node000004_Node000005" class="edge">
<title>Node4&#45;&gt;Node5</title>
<g id="a_edge4_Node000004_Node000005"><a xlink:title=" ">
<path fill="none" stroke="#63b8ff" d="M660.6,-54.99C671.07,-56.77 681.96,-58.63 692.51,-60.44"/>
<polygon fill="#63b8ff" stroke="#63b8ff" points="691.87,-63.88 702.31,-62.11 693.05,-56.98 691.87,-63.88"/>
</a>
</g>
</g>
<!-- Node6 -->
<g id="Node000006" class="node">
<title>Node6</title>
<g id="a_Node000006"><a xlink:href="classdepicture__menu_1_1singleton.html#a64280934d7ab4a2f91e1d5c88c28ac8a" target="_top" xlink:title=" ">
<polygon fill="white" stroke="#666666" points="826.25,-32 696.25,-32 696.25,0 826.25,0 826.25,-32"/>
<text xml:space="preserve" text-anchor="start" x="704.25" y="-18.5" font-family="Helvetica,sans-Serif" font-size="10.00">depicture_menu::singleton</text>
<text xml:space="preserve" text-anchor="middle" x="761.25" y="-6.5" font-family="Helvetica,sans-Serif" font-size="10.00">::destroy</text>
</a>
</g>
</g>
<!-- Node4&#45;&gt;Node6 -->
<g id="edge5_Node000004_Node000006" class="edge">
<title>Node4&#45;&gt;Node6</title>
<g id="a_edge5_Node000004_Node000006"><a xlink:title=" ">
<path fill="none" stroke="#63b8ff" d="M660.6,-33.01C668.46,-31.67 676.56,-30.29 684.58,-28.92"/>
<polygon fill="#63b8ff" stroke="#63b8ff" points="685.06,-32.39 694.33,-27.25 683.88,-25.49 685.06,-32.39"/>
</a>
</g>
</g>
</g>
</svg>

<g id="navigator" transform="translate(0 0)" fill="#404254">
  <rect fill="#f2f5e9" fill-opacity="0.5" stroke="#606060" stroke-width=".5" x="0" y="0" width="60" height="60"/>
  <use id="zoomplus" xlink:href="#zoomPlus" x="17" y="9" onmousedown="handleZoom(evt,'in')"/>
  <use id="zoomminus" xlink:href="#zoomMin" x="42" y="9" onmousedown="handleZoom(evt,'out')"/>
  <use id="reset" xlink:href="#resetDef" x="30" y="36" onmousedown="handleReset()"/>
   <use id="arrowup" xlink:href="#arrowUp" x="0" y="0" onmousedown="handlePan(0,-1)"/>
  <use id="arrowright" xlink:href="#arrowRight" x="0" y="0" onmousedown="handlePan(1,0)"/>
  <use id="arrowdown" xlink:href="#arrowDown" x="0" y="0" onmousedown="handlePan(0,1)"/>
  <use id="arrowleft" xlink:href="#arrowLeft" x="0" y="0" onmousedown="handlePan(-1,0)"/>
</g>
<svg viewBox="0 0 15 15" width="100%" height="30px" preserveAspectRatio="xMaxYMin meet">
 <g id="arrow_out" transform="scale(0.3 0.3)">
  <a xlink:href="classdepicture__menu_1_1presentations_1_1command__invoker_a37964b2266abbb633c5381fbfc116905_cgraph_org.svg" target="_base">
   <rect id="button" ry="5" rx="5" y="6" x="6" height="38" width="38"
        fill="#f2f5e9" fill-opacity="0.5" stroke="#606060" stroke-width="1.0"/>
   <path id="arrow"
     d="M 11.500037,31.436501 C 11.940474,20.09759 22.043105,11.32322 32.158766,21.979434 L 37.068811,17.246167 C 37.068811,17.246167 37.088388,32 37.088388,32 L 22.160133,31.978069 C 22.160133,31.978069 26.997745,27.140456 26.997745,27.140456 C 18.528582,18.264221 13.291696,25.230495 11.500037,31.436501 z"
     style="fill:#404040;"/>
  </a>
 </g>
</svg>

<style type='text/css'>
<![CDATA[
[data-mouse-over-selected='false'] { opacity: 0.7; }
[data-mouse-over-selected='true']  { opacity: 1.0; }
]]>
</style>
<script type="application/ecmascript"><![CDATA[
document.addEventListener('DOMContentLoaded', (event) => {
  highlightEdges();
  highlightAdjacentNodes();
});
]]></script>
</svg>
