<?xml version="1.0" encoding="UTF-8" standalone="no"?>
<!DOCTYPE svg PUBLIC "-//W3C//DTD SVG 1.1//EN"
 "http://www.w3.org/Graphics/SVG/1.1/DTD/svg11.dtd">
<!-- Generated by graphviz version 14.1.2 (20260124.0452)
 -->
<!-- Title: depicture_menu::presentations::command_invoker::invoke Pages: 1 -->
<!--zoomable 217 -->

<svg id="main" version="1.1" xmlns="http://www.w3.org/2000/svg" xmlns:xlink="http://www.w3.org/1999/xlink" xml:space="preserve" onload="init(evt)">

<style type="text/css"><![CDATA[
.node, .edge {opacity: 0.7;}
.node.selected, .edge.selected {opacity: 1;}
.edge:hover path { stroke: red; }
.edge:hover polygon { stroke: red; fill: red; }
]]></style>

<defs>
  <circle id="rim" cx="0" cy="0" r="7"/>
  <circle id="rim2" cx="0" cy="0" r="3.5"/>
  <g id="zoomPlus">
    <use xlink:href="#rim" fill="#404040"><set attributeName="fill" to="#808080" begin="zoomplus.mouseover" end="zoomplus.mouseout"/></use>
    <path d="M-4,0h8M0,-4v8" fill="none" stroke="white" stroke-width="1.5" pointer-events="none"/>
  </g>
  <g id="zoomMin">
    <use xlink:href="#rim" fill="#404040"><set attributeName="fill" to="#808080" begin="zoomminus.mouseover" end="zoomminus.mouseout"/></use>
    <path d="M-4,0h8" fill="none" stroke="white" stroke-width="1.5" pointer-events="none"/>
  </g>
  <g id="arrowUp" transform="translate(30 24)">
    <use xlink:href="#rim"/>
    <path pointer-events="none" fill="none" stroke="white" stroke-width="1.5" d="M0,-3.0v7 M-2.5,-0.5L0,-3.0L2.5,-0.5"/>
  </g>
  <g id="arrowRight" transform="rotate(90) translate(36 -43)">
    <use xlink:href="#rim"/>
    <path pointer-events="none" fill="none" stroke="white" stroke-width="1.5" d="M0,-3.0v7 M-2.5,-0.5L0,-3.0L2.5,-0.5"/>
  </g>
  <g id="arrowDown" transform="rotate(180) translate(-30 -48)">
    <use xlink:href="#rim"/>
    <path pointer-events="none" fill="none" stroke="white" stroke-width="1.5" d="M0,-3.0v7 M-2.5,-0.5L0,-3.0L2.5,-0.5"/>
  </g>
  <g id="arrowLeft" transform="rotate(270) translate(-36 17)">
    <use xlink:href="#rim"/>
    <path pointer-events="none" fill="none" stroke="white" stroke-width="1.5" d="M0,-3.0v7 M-2.5,-0.5L0,-3.0L2.5,-0.5"/>
  </g>
  <g id="resetDef">
    <use xlink:href="#rim2" fill="#404040"><set attributeName="fill" to="#808080" begin="reset.mouseover" end="reset.mouseout"/></use>
  </g>
</defs>
<script type="application/ecmascript">
var viewWidth = 526;
var viewHeight = 217;
var sectionId = 'dynsection-1';
</script>
<script type="application/ecmascript" xlink:href="svg.min.js"/>
<svg id="graph" class="graph">
<g id="viewport">
<title>depicture_menu::presentations::command_invoker::invoke</title>
<!-- Node1 -->
<g id="Node000001" class="node">
<title>Node1</title>
<g id="a_Node000001"><a xlink:title=" ">
<polygon fill="#999999" stroke="#666666" points="149.5,-150 0,-150 0,-118 149.5,-118 149.5,-150"/>
<text xml:space="preserve" text-anchor="start" x="8" y="-136.5" font-family="Helvetica,sans-Serif" font-size="10.00">depicture_menu::presentations</text>
<text xml:space="preserve" text-anchor="middle" x="74.75" y="-124.5" font-family="Helvetica,sans-Serif" font-size="10.00">::command_invoker::invoke</text>
</a>
</g>
</g>
<!-- Node2 -->
<g id="Node000002" class="node">
<title>Node2</title>
<g id="a_Node000002"><a xlink:href="classdepicture__menu_1_1singleton.html#ab3a8df96e817c8ccb1ab61434f90c416" target="_top" xlink:title=" ">
<polygon fill="white" stroke="#666666" points="517.5,-209 374.75,-209 374.75,-177 517.5,-177 517.5,-209"/>
<text xml:space="preserve" text-anchor="start" x="382.75" y="-195.5" font-family="Helvetica,sans-Serif" font-size="10.00">depicture_menu::singleton</text>
<text xml:space="preserve" text-anchor="middle" x="446.12" y="-183.5" font-family="Helvetica,sans-Serif" font-size="10.00">&lt; CoreModel &gt;::get_instance</text>
</a>
</g>
</g>
<!-- Node1&#45;&gt;Node2 -->
<g id="edge1_Node000001_Node000002" class="edge">
<title>Node1&#45;&gt;Node2</title>
<g id="a_edge1_Node000001_Node000002"><a xlink:title=" ">
<path fill="none" stroke="#63b8ff" d="M149.73,-147.83C161.61,-150.84 173.84,-153.74 185.5,-156 244.36,-167.4 311.69,-174.5 363.04,-179.93"/>
<polygon fill="#63b8ff" stroke="#63b8ff" points="362.58,-183.4 372.9,-180.98 363.32,-176.44 362.58,-183.4"/>
</a>
</g>
</g>
<!-- Node1&#45;&gt;Node2 -->
<g id="edge2_Node000001_Node000002" class="edge">
<title>Node1&#45;&gt;Node2</title>
<g id="a_edge2_Node000001_Node000002"><a xlink:title=" ">
<path fill="none" stroke="#63b8ff" d="M102.96,-150.36C124.98,-159.06 156.93,-168.46 185.5,-174 244.36,-185.4 311.69,-192.5 363.04,-195.45"/>
<polygon fill="#63b8ff" stroke="#63b8ff" points="362.72,-198.94 372.89,-195.97 363.09,-191.95 362.72,-198.94"/>
</a>
</g>
</g>
<!-- Node3 -->
<g id="Node000003" class="node">
<title>Node3</title>
<g id="a_Node000003"><a xlink:href="structdepicture__menu_1_1domain_1_1commands_1_1application__command__arg.html#a3adca57fe0b098aebbfac00ed6b07f5b" target="_top" xlink:title=" ">
<polygon fill="white" stroke="#666666" points="323.38,-156 200.88,-156 200.88,-112 323.38,-112 323.38,-156"/>
<text xml:space="preserve" text-anchor="start" x="208.88" y="-142.5" font-family="Helvetica,sans-Serif" font-size="10.00">depicture_menu::domain</text>
<text xml:space="preserve" text-anchor="start" x="208.88" y="-130.5" font-family="Helvetica,sans-Serif" font-size="10.00">::commands::application</text>
<text xml:space="preserve" text-anchor="middle" x="262.12" y="-118.5" font-family="Helvetica,sans-Serif" font-size="10.00">_command_arg::kind</text>
</a>
</g>
</g>
<!-- Node1&#45;&gt;Node3 -->
<g id="edge3_Node000001_Node000003" class="edge">
<title>Node1&#45;&gt;Node3</title>
<g id="a_edge3_Node000001_Node000003"><a xlink:title=" ">
<path fill="none" stroke="#63b8ff" d="M149.81,-134C162.84,-134 176.38,-134 189.34,-134"/>
<polygon fill="#63b8ff" stroke="#63b8ff" points="189.04,-137.5 199.04,-134 189.04,-130.5 189.04,-137.5"/>
</a>
</g>
</g>
<!-- Node4 -->
<g id="Node000004" class="node">
<title>Node4</title>
<g id="a_Node000004"><a xlink:href="structdepicture__menu_1_1domain_1_1commands_1_1application__command__arg.html#a4bae79e1a967ef83b2ddeb26128e1712" target="_top" xlink:title=" ">
<polygon fill="white" stroke="#666666" points="338.75,-94 185.5,-94 185.5,-50 338.75,-50 338.75,-94"/>
<text xml:space="preserve" text-anchor="start" x="193.5" y="-80.5" font-family="Helvetica,sans-Serif" font-size="10.00">depicture_menu::domain</text>
<text xml:space="preserve" text-anchor="start" x="193.5" y="-68.5" font-family="Helvetica,sans-Serif" font-size="10.00">::commands::application</text>
<text xml:space="preserve" text-anchor="middle" x="262.12" y="-56.5" font-family="Helvetica,sans-Serif" font-size="10.00">_command_arg::paramter_pack</text>
</a>
</g>
</g>
<!-- Node1&#45;&gt;Node4 -->
<g id="edge4_Node000001_Node000004" class="edge">
<title>Node1&#45;&gt;Node4</title>
<g id="a_edge4_Node000001_Node000004"><a xlink:title=" ">
<path fill="none" stroke="#63b8ff" d="M124.94,-117.55C142.77,-111.58 163.38,-104.69 183.08,-98.1"/>
<polygon fill="#63b8ff" stroke="#63b8ff" points="184.1,-101.45 192.47,-94.96 181.88,-94.82 184.1,-101.45"/>
</a>
</g>
</g>
<!-- Node5 -->
<g id="Node000005" class="node">
<title>Node5</title>
<g id="a_Node000005"><a xlink:href="namespacedepicture__menu_1_1applications.html#a7ea63a2945eb75bfc5fb5e79d1d08778" target="_top" xlink:title=" ">
<polygon fill="white" stroke="#666666" points="333.5,-32 190.75,-32 190.75,0 333.5,0 333.5,-32"/>
<text xml:space="preserve" text-anchor="start" x="198.75" y="-18.5" font-family="Helvetica,sans-Serif" font-size="10.00">depicture_menu::applications</text>
<text xml:space="preserve" text-anchor="middle" x="262.12" y="-6.5" font-family="Helvetica,sans-Serif" font-size="10.00">::run_worker</text>
</a>
</g>
</g>
<!-- Node1&#45;&gt;Node5 -->
<g id="edge5_Node000001_Node000005" class="edge">
<title>Node1&#45;&gt;Node5</title>
<g id="a_edge5_Node000001_Node000005"><a xlink:title=" ">
<path fill="none" stroke="#63b8ff" d="M91,-117.68C110.94,-97.18 147.82,-62.13 185.5,-41 187.98,-39.61 190.55,-38.28 193.18,-37.01"/>
<polygon fill="#63b8ff" stroke="#63b8ff" points="194.43,-40.28 202.16,-33.04 191.6,-33.88 194.43,-40.28"/>
</a>
</g>
</g>
<!-- Node5&#45;&gt;Node2 -->
<g id="edge6_Node000005_Node000002" class="edge">
<title>Node5&#45;&gt;Node2</title>
<g id="a_edge6_Node000005_Node000002"><a xlink:title=" ">
<path fill="none" stroke="#63b8ff" d="M324.69,-32.5C329.66,-34.96 334.42,-37.78 338.75,-41 383.75,-74.49 416.75,-132.76 433.26,-166.59"/>
<polygon fill="#63b8ff" stroke="#63b8ff" points="429.93,-167.75 437.38,-175.29 436.26,-164.75 429.93,-167.75"/>
</a>
</g>
</g>
</g>
</svg>

<g id="navigator" transform="translate(0 0)" fill="#404254">
  <rect fill="#f2f5e9" fill-opacity="0.5" stroke="#606060" stroke-width=".5" x="0" y="0" width="60" height="60"/>
  <use id="zoomplus" xlink:href="#zoomPlus" x="17" y="9" onmousedown="handleZoom(evt,'in')"/>
  <use id="zoomminus" xlink:href="#zoomMin" x="42" y="9" onmousedown="handleZoom(evt,'out')"/>
  <use id="reset" xlink:href="#resetDef" x="30" y="36" onmousedown="handleReset()"/>
   <use id="arrowup" xlink:href="#arrowUp" x="0" y="0" onmousedown="handlePan(0,-1)"/>
  <use id="arrowright" xlink:href="#arrowRight" x="0" y="0" onmousedown="handlePan(1,0)"/>
  <use id="arrowdown" xlink:href="#arrowDown" x="0" y="0" onmousedown="handlePan(0,1)"/>
  <use id="arrowleft" xlink:href="#arrowLeft" x="0" y="0" onmousedown="handlePan(-1,0)"/>
</g>
<svg viewBox="0 0 15 15" width="100%" height="30px" preserveAspectRatio="xMaxYMin meet">
 <g id="arrow_out" transform="scale(0.3 0.3)">
  <a xlink:href="classdepicture__menu_1_1presentations_1_1command__invoker_a25da3425517006205d14777aa280866a_cgraph_org.svg" target="_base">
   <rect id="button" ry="5" rx="5" y="6" x="6" height="38" width="38"
        fill="#f2f5e9" fill-opacity="0.5" stroke="#606060" stroke-width="1.0"/>
   <path id="arrow"
     d="M 11.500037,31.436501 C 11.940474,20.09759 22.043105,11.32322 32.158766,21.979434 L 37.068811,17.246167 C 37.068811,17.246167 37.088388,32 37.088388,32 L 22.160133,31.978069 C 22.160133,31.978069 26.997745,27.140456 26.997745,27.140456 C 18.528582,18.264221 13.291696,25.230495 11.500037,31.436501 z"
     style="fill:#404040;"/>
  </a>
 </g>
</svg>

<style type='text/css'>
<![CDATA[
[data-mouse-over-selected='false'] { opacity: 0.7; }
[data-mouse-over-selected='true']  { opacity: 1.0; }
]]>
</style>
<script type="application/ecmascript"><![CDATA[
document.addEventListener('DOMContentLoaded', (event) => {
  highlightEdges();
  highlightAdjacentNodes();
});
]]></script>
</svg>
