<?xml version="1.0" encoding="UTF-8" standalone="no"?>
<!DOCTYPE svg PUBLIC "-//W3C//DTD SVG 1.1//EN"
 "http://www.w3.org/Graphics/SVG/1.1/DTD/svg11.dtd">
<!-- Generated by graphviz version 14.1.2 (20260124.0452)
 -->
<!-- Title: depicture_menu::domain::services::create_action_domain_service Pages: 1 -->
<!--zoomable 114 -->

<svg id="main" version="1.1" xmlns="http://www.w3.org/2000/svg" xmlns:xlink="http://www.w3.org/1999/xlink" xml:space="preserve" onload="init(evt)">

<style type="text/css"><![CDATA[
.node, .edge {opacity: 0.7;}
.node.selected, .edge.selected {opacity: 1;}
.edge:hover path { stroke: red; }
.edge:hover polygon { stroke: red; fill: red; }
]]></style>

<defs>
  <circle id="rim" cx="0" cy="0" r="7"/>
  <circle id="rim2" cx="0" cy="0" r="3.5"/>
  <g id="zoomPlus">
    <use xlink:href="#rim" fill="#404040"><set attributeName="fill" to="#808080" begin="zoomplus.mouseover" end="zoomplus.mouseout"/></use>
    <path d="M-4,0h8M0,-4v8" fill="none" stroke="white" stroke-width="1.5" pointer-events="none"/>
  </g>
  <g id="zoomMin">
    <use xlink:href="#rim" fill="#404040"><set attributeName="fill" to="#808080" begin="zoomminus.mouseover" end="zoomminus.mouseout"/></use>
    <path d="M-4,0h8" fill="none" stroke="white" stroke-width="1.5" pointer-events="none"/>
  </g>
  <g id="arrowUp" transform="translate(30 24)">
    <use xlink:href="#rim"/>
    <path pointer-events="none" fill="none" stroke="white" stroke-width="1.5" d="M0,-3.0v7 M-2.5,-0.5L0,-3.0L2.5,-0.5"/>
  </g>
  <g id="arrowRight" transform="rotate(90) translate(36 -43)">
    <use xlink:href="#rim"/>
    <path pointer-events="none" fill="none" stroke="white" stroke-width="1.5" d="M0,-3.0v7 M-2.5,-0.5L0,-3.0L2.5,-0.5"/>
  </g>
  <g id="arrowDown" transform="rotate(180) translate(-30 -48)">
    <use xlink:href="#rim"/>
    <path pointer-events="none" fill="none" stroke="white" stroke-width="1.5" d="M0,-3.0v7 M-2.5,-0.5L0,-3.0L2.5,-0.5"/>
  </g>
  <g id="arrowLeft" transform="rotate(270) translate(-36 17)">
    <use xlink:href="#rim"/>
    <path pointer-events="none" fill="none" stroke="white" stroke-width="1.5" d="M0,-3.0v7 M-2.5,-0.5L0,-3.0L2.5,-0.5"/>
  </g>
  <g id="resetDef">
    <use xlink:href="#rim2" fill="#404040"><set attributeName="fill" to="#808080" begin="reset.mouseover" end="reset.mouseout"/></use>
  </g>
</defs>
<script type="application/ecmascript">
var viewWidth = 890;
var viewHeight = 114;
var sectionId = 'dynsection-0';
</script>
<script type="application/ecmascript" xlink:href="svg.min.js"/>
<svg id="graph" class="graph">
<g id="viewport">
<title>depicture_menu::domain::services::create_action_domain_service</title>
<!-- Node1 -->
<g id="Node000001" class="node">
<title>Node1</title>
<g id="a_Node000001"><a xlink:title=" ">
<polygon fill="#999999" stroke="#666666" points="881.8,-69 758.55,-69 758.55,-25 881.8,-25 881.8,-69"/>
<text xml:space="preserve" text-anchor="start" x="766.55" y="-55.5" font-family="Helvetica,sans-Serif" font-size="10.00">depicture_menu::domain</text>
<text xml:space="preserve" text-anchor="start" x="766.55" y="-43.5" font-family="Helvetica,sans-Serif" font-size="10.00">::services::create_action</text>
<text xml:space="preserve" text-anchor="middle" x="820.17" y="-31.5" font-family="Helvetica,sans-Serif" font-size="10.00">_domain_service</text>
</a>
</g>
</g>
<!-- Node2 -->
<g id="Node000002" class="node">
<title>Node2</title>
<g id="a_Node000002"><a xlink:href="classdepicture__menu_1_1domain_1_1services_1_1create__command__domain__service.html" target="_top" xlink:title=" ">
<polygon fill="white" stroke="#666666" points="673.8,-105 534.05,-105 534.05,-61 673.8,-61 673.8,-105"/>
<text xml:space="preserve" text-anchor="start" x="542.05" y="-91.5" font-family="Helvetica,sans-Serif" font-size="10.00">depicture_menu::domain</text>
<text xml:space="preserve" text-anchor="start" x="542.05" y="-79.5" font-family="Helvetica,sans-Serif" font-size="10.00">::services::create_command</text>
<text xml:space="preserve" text-anchor="middle" x="603.92" y="-67.5" font-family="Helvetica,sans-Serif" font-size="10.00">_domain_service</text>
</a>
</g>
</g>
<!-- Node2&#45;&gt;Node1 -->
<g id="edge1_Node000001_Node000002" class="edge">
<title>Node2&#45;&gt;Node1</title>
<g id="a_edge1_Node000001_Node000002"><a xlink:title=" ">
<path fill="none" stroke="#9a32cd" stroke-dasharray="5,2" d="M685.46,-69.47C709.52,-65.42 735.49,-61.06 758.09,-57.26"/>
<polygon fill="#9a32cd" stroke="#9a32cd" points="684.96,-66 675.68,-71.11 686.12,-72.91 684.96,-66"/>
</a>
</g>
<text xml:space="preserve" text-anchor="start" x="694.8" y="-73.72" font-family="Helvetica,sans-Serif" font-size="10.00" fill="grey">com_ser_</text>
</g>
<!-- Node3 -->
<g id="Node000003" class="node">
<title>Node3</title>
<g id="a_Node000003"><a xlink:href="classdepicture__menu_1_1domain_1_1commands_1_1command.html" target="_top" xlink:title=" ">
<polygon fill="white" stroke="#666666" points="375.55,-99 253.05,-99 253.05,-67 375.55,-67 375.55,-99"/>
<text xml:space="preserve" text-anchor="start" x="261.05" y="-85.5" font-family="Helvetica,sans-Serif" font-size="10.00">depicture_menu::domain</text>
<text xml:space="preserve" text-anchor="middle" x="314.3" y="-73.5" font-family="Helvetica,sans-Serif" font-size="10.00">::commands::command</text>
</a>
</g>
</g>
<!-- Node3&#45;&gt;Node2 -->
<g id="edge2_Node000002_Node000003" class="edge">
<title>Node3&#45;&gt;Node2</title>
<g id="a_edge2_Node000002_Node000003"><a xlink:title=" ">
<path fill="none" stroke="#9a32cd" stroke-dasharray="5,2" d="M387.35,-83C432.17,-83 489.51,-83 533.77,-83"/>
<polygon fill="#9a32cd" stroke="#9a32cd" points="387.46,-79.5 377.46,-83 387.46,-86.5 387.46,-79.5"/>
</a>
</g>
<text xml:space="preserve" text-anchor="start" x="439.05" y="-88.5" font-family="Helvetica,sans-Serif" font-size="10.00" fill="grey">article_</text>
</g>
<!-- Node4 -->
<g id="Node000004" class="node">
<title>Node4</title>
<g id="a_Node000004"><a xlink:href="structdepicture__menu_1_1domain_1_1models_1_1base_1_1entity__base.html" target="_top" xlink:title=" ">
<polygon fill="white" stroke="#666666" points="216.05,-106 65.8,-106 65.8,-62 216.05,-62 216.05,-106"/>
<text xml:space="preserve" text-anchor="start" x="73.8" y="-92.5" font-family="Helvetica,sans-Serif" font-size="10.00">models::entity_base</text>
<text xml:space="preserve" text-anchor="start" x="73.8" y="-80.5" font-family="Helvetica,sans-Serif" font-size="10.00">&lt; detail_commands::command</text>
<text xml:space="preserve" text-anchor="middle" x="140.92" y="-68.5" font-family="Helvetica,sans-Serif" font-size="10.00">_data, command_id &gt;</text>
</a>
</g>
</g>
<!-- Node4&#45;&gt;Node3 -->
<g id="edge3_Node000003_Node000004" class="edge">
<title>Node4&#45;&gt;Node3</title>
<g id="a_edge3_Node000003_Node000004"><a xlink:title=" ">
<path fill="none" stroke="#63b8ff" d="M227.61,-83.5C236.07,-83.45 244.54,-83.4 252.67,-83.35"/>
<polygon fill="#63b8ff" stroke="#63b8ff" points="227.59,-80 217.61,-83.56 227.63,-87 227.59,-80"/>
</a>
</g>
</g>
<!-- Node5 -->
<g id="Node000005" class="node">
<title>Node5</title>
<g id="a_Node000005"><a xlink:title=" ">
<polygon fill="white" stroke="#666666" points="28.8,-62 0,-62 0,-42 28.8,-42 28.8,-62"/>
<text xml:space="preserve" text-anchor="middle" x="14.4" y="-48.5" font-family="Helvetica,sans-Serif" font-size="10.00">V</text>
</a>
</g>
</g>
<!-- Node5&#45;&gt;Node4 -->
<g id="edge4_Node000004_Node000005" class="edge">
<title>Node5&#45;&gt;Node4</title>
<g id="a_edge4_Node000004_Node000005"><a xlink:title=" ">
<path fill="none" stroke="darkgreen" d="M40.29,-58.4C47.82,-60.33 56.5,-62.56 65.53,-64.88"/>
<polygon fill="darkgreen" stroke="darkgreen" points="41.22,-55.02 30.67,-55.92 39.48,-61.8 41.22,-55.02"/>
</a>
</g>
</g>
<!-- Node7 -->
<g id="Node000007" class="node">
<title>Node7</title>
<g id="a_Node000007"><a xlink:href="structdepicture__menu_1_1domain_1_1models_1_1base_1_1entity__base.html" target="_top" xlink:title=" ">
<polygon fill="white" stroke="#666666" points="205.92,-44 75.92,-44 75.92,0 205.92,0 205.92,-44"/>
<text xml:space="preserve" text-anchor="start" x="83.92" y="-30.5" font-family="Helvetica,sans-Serif" font-size="10.00">models::entity_base</text>
<text xml:space="preserve" text-anchor="start" x="83.92" y="-18.5" font-family="Helvetica,sans-Serif" font-size="10.00">&lt; detail_actions::publisher</text>
<text xml:space="preserve" text-anchor="middle" x="140.92" y="-6.5" font-family="Helvetica,sans-Serif" font-size="10.00">_data, maker_id &gt;</text>
</a>
</g>
</g>
<!-- Node5&#45;&gt;Node7 -->
<g id="edge7_Node000007_Node000005" class="edge">
<title>Node5&#45;&gt;Node7</title>
<g id="a_edge7_Node000007_Node000005"><a xlink:title=" ">
<path fill="none" stroke="darkgreen" d="M40.18,-46.03C50.49,-43.55 62.98,-40.54 75.59,-37.5"/>
<polygon fill="darkgreen" stroke="darkgreen" points="39.58,-42.58 30.67,-48.32 41.22,-49.38 39.58,-42.58"/>
</a>
</g>
</g>
<!-- Node6 -->
<g id="Node000006" class="node">
<title>Node6</title>
<g id="a_Node000006"><a xlink:href="classdepicture__menu_1_1domain_1_1actions_1_1v2_1_1publisher.html" target="_top" xlink:title=" ">
<polygon fill="white" stroke="#666666" points="516.05,-39 393.55,-39 393.55,-7 516.05,-7 516.05,-39"/>
<text xml:space="preserve" text-anchor="start" x="401.55" y="-25.5" font-family="Helvetica,sans-Serif" font-size="10.00">depicture_menu::domain</text>
<text xml:space="preserve" text-anchor="middle" x="454.8" y="-13.5" font-family="Helvetica,sans-Serif" font-size="10.00">::actions::v2::publisher</text>
</a>
</g>
</g>
<!-- Node6&#45;&gt;Node1 -->
<g id="edge5_Node000001_Node000006" class="edge">
<title>Node6&#45;&gt;Node1</title>
<g id="a_edge5_Node000001_Node000006"><a xlink:title=" ">
<path fill="none" stroke="#9a32cd" stroke-dasharray="5,2" d="M527.81,-25.93C570.32,-27.84 625.15,-30.6 673.8,-34 701.61,-35.94 732.36,-38.62 758.39,-41.03"/>
<polygon fill="#9a32cd" stroke="#9a32cd" points="528.11,-22.44 517.96,-25.5 527.8,-29.43 528.11,-22.44"/>
</a>
</g>
<text xml:space="preserve" text-anchor="start" x="588.17" y="-39.5" font-family="Helvetica,sans-Serif" font-size="10.00" fill="grey">article_</text>
</g>
<!-- Node7&#45;&gt;Node6 -->
<g id="edge6_Node000006_Node000007" class="edge">
<title>Node7&#45;&gt;Node6</title>
<g id="a_edge6_Node000006_Node000007"><a xlink:title=" ">
<path fill="none" stroke="#63b8ff" d="M217.39,-22.24C271.29,-22.41 342.86,-22.64 393.08,-22.81"/>
<polygon fill="#63b8ff" stroke="#63b8ff" points="217.69,-18.74 207.68,-22.21 217.67,-25.74 217.69,-18.74"/>
</a>
</g>
</g>
</g>
</svg>

<g id="navigator" transform="translate(0 0)" fill="#404254">
  <rect fill="#f2f5e9" fill-opacity="0.5" stroke="#606060" stroke-width=".5" x="0" y="0" width="60" height="60"/>
  <use id="zoomplus" xlink:href="#zoomPlus" x="17" y="9" onmousedown="handleZoom(evt,'in')"/>
  <use id="zoomminus" xlink:href="#zoomMin" x="42" y="9" onmousedown="handleZoom(evt,'out')"/>
  <use id="reset" xlink:href="#resetDef" x="30" y="36" onmousedown="handleReset()"/>
   <use id="arrowup" xlink:href="#arrowUp" x="0" y="0" onmousedown="handlePan(0,-1)"/>
  <use id="arrowright" xlink:href="#arrowRight" x="0" y="0" onmousedown="handlePan(1,0)"/>
  <use id="arrowdown" xlink:href="#arrowDown" x="0" y="0" onmousedown="handlePan(0,1)"/>
  <use id="arrowleft" xlink:href="#arrowLeft" x="0" y="0" onmousedown="handlePan(-1,0)"/>
</g>
<svg viewBox="0 0 15 15" width="100%" height="30px" preserveAspectRatio="xMaxYMin meet">
 <g id="arrow_out" transform="scale(0.3 0.3)">
  <a xlink:href="classdepicture__menu_1_1domain_1_1services_1_1create__action__domain__service__coll__graph_org.svg" target="_base">
   <rect id="button" ry="5" rx="5" y="6" x="6" height="38" width="38"
        fill="#f2f5e9" fill-opacity="0.5" stroke="#606060" stroke-width="1.0"/>
   <path id="arrow"
     d="M 11.500037,31.436501 C 11.940474,20.09759 22.043105,11.32322 32.158766,21.979434 L 37.068811,17.246167 C 37.068811,17.246167 37.088388,32 37.088388,32 L 22.160133,31.978069 C 22.160133,31.978069 26.997745,27.140456 26.997745,27.140456 C 18.528582,18.264221 13.291696,25.230495 11.500037,31.436501 z"
     style="fill:#404040;"/>
  </a>
 </g>
</svg>

<style type='text/css'>
<![CDATA[
[data-mouse-over-selected='false'] { opacity: 0.7; }
[data-mouse-over-selected='true']  { opacity: 1.0; }
]]>
</style>
<script type="application/ecmascript"><![CDATA[
document.addEventListener('DOMContentLoaded', (event) => {
  highlightEdges();
  highlightAdjacentNodes();
});
]]></script>
</svg>
