<?xml version="1.0" encoding="UTF-8" standalone="no"?>
<!DOCTYPE svg PUBLIC "-//W3C//DTD SVG 1.1//EN"
 "http://www.w3.org/Graphics/SVG/1.1/DTD/svg11.dtd">
<!-- Generated by graphviz version 14.1.2 (20260124.0452)
 -->
<!-- Title: depicture_menu::presentations::config_view_presenter::operator() Pages: 1 -->
<svg width="698pt" height="158pt"
 viewBox="0.00 0.00 698.00 158.00" xmlns="http://www.w3.org/2000/svg" xmlns:xlink="http://www.w3.org/1999/xlink">
<g id="graph0" class="graph" transform="scale(1 1) rotate(0) translate(4 154)">
<title>depicture_menu::presentations::config_view_presenter::operator()</title>
<!-- Node1 -->
<g id="Node000001" class="node">
<title>Node1</title>
<g id="a_Node000001"><a xlink:title="コモンアクション選択更新">
<polygon fill="#999999" stroke="#666666" points="149.5,-94 0,-94 0,-50 149.5,-50 149.5,-94"/>
<text xml:space="preserve" text-anchor="start" x="8" y="-80.5" font-family="Helvetica,sans-Serif" font-size="10.00">depicture_menu::presentations</text>
<text xml:space="preserve" text-anchor="start" x="8" y="-68.5" font-family="Helvetica,sans-Serif" font-size="10.00">::config_view_presenter::</text>
<text xml:space="preserve" text-anchor="middle" x="74.75" y="-56.5" font-family="Helvetica,sans-Serif" font-size="10.00">operator()</text>
</a>
</g>
</g>
<!-- Node2 -->
<g id="Node000002" class="node">
<title>Node2</title>
<g id="a_Node000002"><a xlink:href="classdepicture__menu_1_1presentations_1_1config__view__presenter.html#a203e6b052c3c809a68b946afea7fec00" target="_top" xlink:title="depicture_menu::presentations::config_view_presenter:: change_common_action_select">
<polygon fill="white" stroke="#666666" points="338.75,-94 185.5,-94 185.5,-50 338.75,-50 338.75,-94"/>
<text xml:space="preserve" text-anchor="start" x="193.5" y="-80.5" font-family="Helvetica,sans-Serif" font-size="10.00">depicture_menu::presentations</text>
<text xml:space="preserve" text-anchor="start" x="193.5" y="-68.5" font-family="Helvetica,sans-Serif" font-size="10.00">::config_view_presenter::</text>
<text xml:space="preserve" text-anchor="middle" x="262.12" y="-56.5" font-family="Helvetica,sans-Serif" font-size="10.00">change_common_action_select</text>
</a>
</g>
</g>
<!-- Node1&#45;&gt;Node2 -->
<g id="edge1_Node000001_Node000002" class="edge">
<title>Node1&#45;&gt;Node2</title>
<g id="a_edge1_Node000001_Node000002"><a xlink:title=" ">
<path fill="none" stroke="#63b8ff" d="M149.81,-72C157.7,-72 165.77,-72 173.78,-72"/>
<polygon fill="#63b8ff" stroke="#63b8ff" points="173.54,-75.5 183.54,-72 173.54,-68.5 173.54,-75.5"/>
</a>
</g>
</g>
<!-- Node3 -->
<g id="Node000003" class="node">
<title>Node3</title>
<g id="a_Node000003"><a xlink:href="config__view__presenter_8cpp.html#a7d91b3379b8077f6349cdd78f8ad2c56" target="_top" xlink:title=" ">
<polygon fill="white" stroke="#666666" points="484.88,-132 414.12,-132 414.12,-112 484.88,-112 484.88,-132"/>
<text xml:space="preserve" text-anchor="middle" x="449.5" y="-118.5" font-family="Helvetica,sans-Serif" font-size="10.00">dispatch_gui</text>
</a>
</g>
</g>
<!-- Node2&#45;&gt;Node3 -->
<g id="edge2_Node000002_Node000003" class="edge">
<title>Node2&#45;&gt;Node3</title>
<g id="a_edge2_Node000002_Node000003"><a xlink:title=" ">
<path fill="none" stroke="#63b8ff" d="M339.03,-93.29C350.97,-96.58 363.19,-99.91 374.75,-103 383.83,-105.43 393.56,-107.98 402.87,-110.39"/>
<polygon fill="#63b8ff" stroke="#63b8ff" points="401.92,-113.76 412.48,-112.86 403.67,-106.98 401.92,-113.76"/>
</a>
</g>
</g>
<!-- Node5 -->
<g id="Node000005" class="node">
<title>Node5</title>
<g id="a_Node000005"><a xlink:href="classdepicture__menu_1_1presentations_1_1config__view__presenter.html#aa24dd74576a5574ca038ea9b231fc635" target="_top" xlink:title="ビュー更新通知をブロックする">
<polygon fill="white" stroke="#666666" points="524.25,-94 374.75,-94 374.75,-50 524.25,-50 524.25,-94"/>
<text xml:space="preserve" text-anchor="start" x="382.75" y="-80.5" font-family="Helvetica,sans-Serif" font-size="10.00">depicture_menu::presentations</text>
<text xml:space="preserve" text-anchor="start" x="382.75" y="-68.5" font-family="Helvetica,sans-Serif" font-size="10.00">::config_view_presenter::</text>
<text xml:space="preserve" text-anchor="middle" x="449.5" y="-56.5" font-family="Helvetica,sans-Serif" font-size="10.00">lock_recusive</text>
</a>
</g>
</g>
<!-- Node2&#45;&gt;Node5 -->
<g id="edge4_Node000002_Node000005" class="edge">
<title>Node2&#45;&gt;Node5</title>
<g id="a_edge4_Node000002_Node000005"><a xlink:title=" ">
<path fill="none" stroke="#63b8ff" d="M339.06,-72C347.01,-72 355.13,-72 363.18,-72"/>
<polygon fill="#63b8ff" stroke="#63b8ff" points="362.97,-75.5 372.97,-72 362.97,-68.5 362.97,-75.5"/>
</a>
</g>
</g>
<!-- Node6 -->
<g id="Node000006" class="node">
<title>Node6</title>
<g id="a_Node000006"><a xlink:href="namespacedepicture__menu_1_1util_1_1strconv.html#a3b0e0ec8cb1e9fb3f6c3dd97c10bcac6" target="_top" xlink:title=" ">
<polygon fill="white" stroke="#666666" points="507.38,-32 391.62,-32 391.62,0 507.38,0 507.38,-32"/>
<text xml:space="preserve" text-anchor="start" x="399.62" y="-18.5" font-family="Helvetica,sans-Serif" font-size="10.00">depicture_menu::util</text>
<text xml:space="preserve" text-anchor="middle" x="449.5" y="-6.5" font-family="Helvetica,sans-Serif" font-size="10.00">::strconv::utf8_to_wide</text>
</a>
</g>
</g>
<!-- Node2&#45;&gt;Node6 -->
<g id="edge5_Node000002_Node000006" class="edge">
<title>Node2&#45;&gt;Node6</title>
<g id="a_edge5_Node000002_Node000006"><a xlink:title=" ">
<path fill="none" stroke="#63b8ff" d="M337.46,-49.55C352.69,-44.94 368.62,-40.13 383.5,-35.64"/>
<polygon fill="#63b8ff" stroke="#63b8ff" points="384.12,-39.11 392.68,-32.86 382.09,-32.4 384.12,-39.11"/>
</a>
</g>
</g>
<!-- Node4 -->
<g id="Node000004" class="node">
<title>Node4</title>
<g id="a_Node000004"><a xlink:href="classdepicture__menu_1_1singleton.html#ab3a8df96e817c8ccb1ab61434f90c416" target="_top" xlink:title=" ">
<polygon fill="white" stroke="#666666" points="690.25,-150 560.25,-150 560.25,-94 690.25,-94 690.25,-150"/>
<text xml:space="preserve" text-anchor="start" x="568.25" y="-136.5" font-family="Helvetica,sans-Serif" font-size="10.00">depicture_menu::singleton</text>
<text xml:space="preserve" text-anchor="start" x="568.25" y="-124.5" font-family="Helvetica,sans-Serif" font-size="10.00">&lt; detail_applications::</text>
<text xml:space="preserve" text-anchor="start" x="568.25" y="-112.5" font-family="Helvetica,sans-Serif" font-size="10.00">gui_dispatch_impl &gt;::get</text>
<text xml:space="preserve" text-anchor="middle" x="625.25" y="-100.5" font-family="Helvetica,sans-Serif" font-size="10.00">_instance</text>
</a>
</g>
</g>
<!-- Node3&#45;&gt;Node4 -->
<g id="edge3_Node000003_Node000004" class="edge">
<title>Node3&#45;&gt;Node4</title>
<g id="a_edge3_Node000003_Node000004"><a xlink:title=" ">
<path fill="none" stroke="#63b8ff" d="M485.24,-122C503.46,-122 526.53,-122 548.61,-122"/>
<polygon fill="#63b8ff" stroke="#63b8ff" points="548.52,-125.5 558.52,-122 548.52,-118.5 548.52,-125.5"/>
</a>
</g>
</g>
</g>
</svg>
