<?xml version="1.0" encoding="UTF-8" standalone="no"?>
<!DOCTYPE svg PUBLIC "-//W3C//DTD SVG 1.1//EN"
 "http://www.w3.org/Graphics/SVG/1.1/DTD/svg11.dtd">
<!-- Generated by graphviz version 14.1.2 (20260124.0452)
 -->
<!-- Title: depicture_menu::domain::crud_repository_interface::read Pages: 1 -->
<svg width="761pt" height="560pt"
 viewBox="0.00 0.00 761.00 560.00" xmlns="http://www.w3.org/2000/svg" xmlns:xlink="http://www.w3.org/1999/xlink">
<g id="graph0" class="graph" transform="scale(1 1) rotate(0) translate(4 556)">
<title>depicture_menu::domain::crud_repository_interface::read</title>
<!-- Node1 -->
<g id="Node000001" class="node">
<title>Node1</title>
<g id="a_Node000001"><a xlink:title=" ">
<polygon fill="#999999" stroke="#666666" points="752.5,-292 596.25,-292 596.25,-260 752.5,-260 752.5,-292"/>
<text xml:space="preserve" text-anchor="start" x="604.25" y="-278.5" font-family="Helvetica,sans-Serif" font-size="10.00">depicture_menu::domain</text>
<text xml:space="preserve" text-anchor="middle" x="674.38" y="-266.5" font-family="Helvetica,sans-Serif" font-size="10.00">::crud_repository_interface::read</text>
</a>
</g>
</g>
<!-- Node2 -->
<g id="Node000002" class="node">
<title>Node2</title>
<g id="a_Node000002"><a xlink:href="deploy__default__setting_8cpp.html#a638e25877528b95de44e4fcd07a8c45a" target="_top" xlink:title=" ">
<polygon fill="white" stroke="#666666" points="522.75,-517 427.25,-517 427.25,-497 522.75,-497 522.75,-517"/>
<text xml:space="preserve" text-anchor="middle" x="475" y="-503.5" font-family="Helvetica,sans-Serif" font-size="10.00">add_default_menu</text>
</a>
</g>
</g>
<!-- Node1&#45;&gt;Node2 -->
<g id="edge1_Node000001_Node000002" class="edge">
<title>Node1&#45;&gt;Node2</title>
<g id="a_edge1_Node000001_Node000002"><a xlink:title=" ">
<path fill="none" stroke="#63b8ff" d="M662.2,-302.83C645.01,-341.5 608.91,-413.36 560.25,-460 543.44,-476.11 520.05,-488.58 502.18,-496.62"/>
<polygon fill="#63b8ff" stroke="#63b8ff" points="665.35,-304.36 666.13,-293.79 658.93,-301.57 665.35,-304.36"/>
</a>
</g>
</g>
<!-- Node3 -->
<g id="Node000003" class="node">
<title>Node3</title>
<g id="a_Node000003"><a xlink:href="deploy__default__setting_8cpp.html#a3311dba8e4af11d1e7973601fd991d43" target="_top" xlink:title=" ">
<polygon fill="white" stroke="#666666" points="321.5,-540 215.5,-540 215.5,-520 321.5,-520 321.5,-540"/>
<text xml:space="preserve" text-anchor="middle" x="268.5" y="-526.5" font-family="Helvetica,sans-Serif" font-size="10.00">add_default_settings</text>
</a>
</g>
</g>
<!-- Node1&#45;&gt;Node3 -->
<g id="edge4_Node000001_Node000003" class="edge">
<title>Node1&#45;&gt;Node3</title>
<g id="a_edge4_Node000001_Node000003"><a xlink:title=" ">
<path fill="none" stroke="#63b8ff" d="M649.91,-300.26C627.8,-322.49 593.24,-355.69 560.25,-381 489.26,-435.45 465.33,-440.14 389.75,-488 373.71,-498.16 371.27,-503.69 353.75,-511 343.65,-515.21 332.46,-518.57 321.62,-521.21"/>
<polygon fill="#63b8ff" stroke="#63b8ff" points="652.15,-302.97 656.68,-293.39 647.16,-298.05 652.15,-302.97"/>
</a>
</g>
</g>
<!-- Node5 -->
<g id="Node000005" class="node">
<title>Node5</title>
<g id="a_Node000005"><a xlink:href="classdepicture__menu_1_1domain_1_1services_1_1create__command__domain__service.html#ae05be5568810d6e2964df2d82fbdf3dd" target="_top" xlink:title=" ">
<polygon fill="white" stroke="#666666" points="560.25,-372 389.75,-372 389.75,-316 560.25,-316 560.25,-372"/>
<text xml:space="preserve" text-anchor="start" x="397.75" y="-358.5" font-family="Helvetica,sans-Serif" font-size="10.00">depicture_menu::domain</text>
<text xml:space="preserve" text-anchor="start" x="397.75" y="-346.5" font-family="Helvetica,sans-Serif" font-size="10.00">::services::create_command</text>
<text xml:space="preserve" text-anchor="start" x="397.75" y="-334.5" font-family="Helvetica,sans-Serif" font-size="10.00">_domain_service::create_command</text>
<text xml:space="preserve" text-anchor="middle" x="475" y="-322.5" font-family="Helvetica,sans-Serif" font-size="10.00">_domain_service</text>
</a>
</g>
</g>
<!-- Node1&#45;&gt;Node5 -->
<g id="edge5_Node000001_Node000005" class="edge">
<title>Node1&#45;&gt;Node5</title>
<g id="a_edge5_Node000001_Node000005"><a xlink:title=" ">
<path fill="none" stroke="#63b8ff" d="M614.86,-296.16C597.15,-302.26 577.36,-309.08 558.39,-315.62"/>
<polygon fill="#63b8ff" stroke="#63b8ff" points="615.85,-299.52 624.17,-292.95 613.57,-292.9 615.85,-299.52"/>
</a>
</g>
</g>
<!-- Node10 -->
<g id="Node000010" class="node">
<title>Node10</title>
<g id="a_Node000010"><a xlink:href="classdepicture__menu_1_1domain_1_1services_1_1current__config__access__service.html#a982a04e702fc1ea5a0acfb20e458289e" target="_top" xlink:title=" ">
<polygon fill="white" stroke="#666666" points="553.5,-298 396.5,-298 396.5,-254 553.5,-254 553.5,-298"/>
<text xml:space="preserve" text-anchor="start" x="404.5" y="-284.5" font-family="Helvetica,sans-Serif" font-size="10.00">depicture_menu::domain</text>
<text xml:space="preserve" text-anchor="start" x="404.5" y="-272.5" font-family="Helvetica,sans-Serif" font-size="10.00">::services::current_config</text>
<text xml:space="preserve" text-anchor="middle" x="475" y="-260.5" font-family="Helvetica,sans-Serif" font-size="10.00">_access_service::current_config</text>
</a>
</g>
</g>
<!-- Node1&#45;&gt;Node10 -->
<g id="edge10_Node000001_Node000010" class="edge">
<title>Node1&#45;&gt;Node10</title>
<g id="a_edge10_Node000001_Node000010"><a xlink:title=" ">
<path fill="none" stroke="#63b8ff" d="M584.49,-276C574.27,-276 563.92,-276 553.87,-276"/>
<polygon fill="#63b8ff" stroke="#63b8ff" points="584.42,-279.5 594.42,-276 584.42,-272.5 584.42,-279.5"/>
</a>
</g>
</g>
<!-- Node12 -->
<g id="Node000012" class="node">
<title>Node12</title>
<g id="a_Node000012"><a xlink:href="classdepicture__menu_1_1domain_1_1crud__repository__interface.html#abb8a6f2a46bb99aa5d93193256c7446d" target="_top" xlink:title=" ">
<polygon fill="white" stroke="#666666" points="540.75,-218 409.25,-218 409.25,-174 540.75,-174 540.75,-218"/>
<text xml:space="preserve" text-anchor="start" x="417.25" y="-204.5" font-family="Helvetica,sans-Serif" font-size="10.00">depicture_menu::domain</text>
<text xml:space="preserve" text-anchor="start" x="417.25" y="-192.5" font-family="Helvetica,sans-Serif" font-size="10.00">::crud_repository_interface</text>
<text xml:space="preserve" text-anchor="middle" x="475" y="-180.5" font-family="Helvetica,sans-Serif" font-size="10.00">::erase</text>
</a>
</g>
</g>
<!-- Node1&#45;&gt;Node12 -->
<g id="edge12_Node000001_Node000012" class="edge">
<title>Node1&#45;&gt;Node12</title>
<g id="a_edge12_Node000001_Node000012"><a xlink:title=" ">
<path fill="none" stroke="#63b8ff" d="M622.61,-255.42C594.67,-244.1 559.96,-230.03 531.33,-218.43"/>
<polygon fill="#63b8ff" stroke="#63b8ff" points="620.97,-258.54 631.55,-259.05 623.6,-252.05 620.97,-258.54"/>
</a>
</g>
</g>
<!-- Node13 -->
<g id="Node000013" class="node">
<title>Node13</title>
<g id="a_Node000013"><a xlink:href="namespaceimpl.html#acd2e53047ed61a2ec83aaa41949d06c3" target="_top" xlink:title=" ">
<polygon fill="white" stroke="#666666" points="540,-156 410,-156 410,-136 540,-136 540,-156"/>
<text xml:space="preserve" text-anchor="middle" x="475" y="-142.5" font-family="Helvetica,sans-Serif" font-size="10.00">impl::get_default_menu_id</text>
</a>
</g>
</g>
<!-- Node1&#45;&gt;Node13 -->
<g id="edge14_Node000001_Node000013" class="edge">
<title>Node1&#45;&gt;Node13</title>
<g id="a_edge14_Node000001_Node000013"><a xlink:title=" ">
<path fill="none" stroke="#63b8ff" d="M654.69,-250.76C634.34,-225.16 599.41,-186.34 560.25,-165 553.93,-161.56 547.02,-158.74 539.96,-156.43"/>
<polygon fill="#63b8ff" stroke="#63b8ff" points="651.68,-252.6 660.58,-258.35 657.21,-248.3 651.68,-252.6"/>
</a>
</g>
</g>
<!-- Node16 -->
<g id="Node000016" class="node">
<title>Node16</title>
<g id="a_Node000016"><a xlink:href="namespaceimpl.html#a10dc9eb9f8beea4d404cf047bc3b7848" target="_top" xlink:title=" ">
<polygon fill="white" stroke="#666666" points="516.38,-106 433.62,-106 433.62,-86 516.38,-86 516.38,-106"/>
<text xml:space="preserve" text-anchor="middle" x="475" y="-92.5" font-family="Helvetica,sans-Serif" font-size="10.00">impl::get_menu</text>
</a>
</g>
</g>
<!-- Node1&#45;&gt;Node16 -->
<g id="edge17_Node000001_Node000016" class="edge">
<title>Node1&#45;&gt;Node16</title>
<g id="a_edge17_Node000001_Node000016"><a xlink:title=" ">
<path fill="none" stroke="#63b8ff" d="M659.74,-249.85C641.3,-216.88 605.48,-160.47 560.25,-127 547.35,-117.45 531.19,-110.57 516.48,-105.75"/>
<polygon fill="#63b8ff" stroke="#63b8ff" points="656.51,-251.24 664.37,-258.34 662.65,-247.89 656.51,-251.24"/>
</a>
</g>
</g>
<!-- Node2&#45;&gt;Node3 -->
<g id="edge2_Node000002_Node000003" class="edge">
<title>Node2&#45;&gt;Node3</title>
<g id="a_edge2_Node000002_Node000003"><a xlink:title=" ">
<path fill="none" stroke="#63b8ff" d="M415.42,-513.59C385.91,-516.91 350.42,-520.9 321.83,-524.11"/>
<polygon fill="#63b8ff" stroke="#63b8ff" points="415.78,-517.07 425.32,-512.47 414.99,-510.11 415.78,-517.07"/>
</a>
</g>
</g>
<!-- Node4 -->
<g id="Node000004" class="node">
<title>Node4</title>
<g id="a_Node000004"><a xlink:href="structdepicture__menu_1_1usecase_1_1detail__usecases_1_1deploy__default__setting__impl.html#a2c116aa98cc322e474ee99a84a130a94" target="_top" xlink:title=" ">
<polygon fill="white" stroke="#666666" points="145,-552 2.25,-552 2.25,-508 145,-508 145,-552"/>
<text xml:space="preserve" text-anchor="start" x="10.25" y="-538.5" font-family="Helvetica,sans-Serif" font-size="10.00">depicture_menu::usecase</text>
<text xml:space="preserve" text-anchor="start" x="10.25" y="-526.5" font-family="Helvetica,sans-Serif" font-size="10.00">::detail_usecases::deploy</text>
<text xml:space="preserve" text-anchor="middle" x="73.62" y="-514.5" font-family="Helvetica,sans-Serif" font-size="10.00">_default_setting_impl::deploy</text>
</a>
</g>
</g>
<!-- Node3&#45;&gt;Node4 -->
<g id="edge3_Node000003_Node000004" class="edge">
<title>Node3&#45;&gt;Node4</title>
<g id="a_edge3_Node000003_Node000004"><a xlink:title=" ">
<path fill="none" stroke="#63b8ff" d="M203.65,-530C184.9,-530 164.3,-530 145.16,-530"/>
<polygon fill="#63b8ff" stroke="#63b8ff" points="203.54,-533.5 213.54,-530 203.54,-526.5 203.54,-533.5"/>
</a>
</g>
</g>
<!-- Node6 -->
<g id="Node000006" class="node">
<title>Node6</title>
<g id="a_Node000006"><a xlink:href="classdepicture__menu_1_1domain_1_1services_1_1create__command__domain__service.html#afffb978f1f6ec57995ad0fdf072a3ab2" target="_top" xlink:title=" ">
<polygon fill="white" stroke="#666666" points="353.75,-502 183.25,-502 183.25,-446 353.75,-446 353.75,-502"/>
<text xml:space="preserve" text-anchor="start" x="191.25" y="-488.5" font-family="Helvetica,sans-Serif" font-size="10.00">depicture_menu::domain</text>
<text xml:space="preserve" text-anchor="start" x="191.25" y="-476.5" font-family="Helvetica,sans-Serif" font-size="10.00">::services::create_command</text>
<text xml:space="preserve" text-anchor="start" x="191.25" y="-464.5" font-family="Helvetica,sans-Serif" font-size="10.00">_domain_service::create_command</text>
<text xml:space="preserve" text-anchor="middle" x="268.5" y="-452.5" font-family="Helvetica,sans-Serif" font-size="10.00">_domain_service</text>
</a>
</g>
</g>
<!-- Node5&#45;&gt;Node6 -->
<g id="edge6_Node000005_Node000006" class="edge">
<title>Node5&#45;&gt;Node6</title>
<g id="a_edge6_Node000005_Node000006"><a xlink:title=" ">
<path fill="none" stroke="#63b8ff" d="M433.28,-379.53C410.79,-398.09 381.79,-420.34 353.75,-437 348.67,-440.02 343.3,-442.94 337.82,-445.72"/>
<polygon fill="#63b8ff" stroke="#63b8ff" points="435.28,-382.42 440.71,-373.33 430.79,-377.05 435.28,-382.42"/>
</a>
</g>
</g>
<!-- Node7 -->
<g id="Node000007" class="node">
<title>Node7</title>
<g id="a_Node000007"><a xlink:href="classdepicture__menu_1_1domain_1_1services_1_1create__command__domain__service.html#a0fef3f47886db8eb7acc32d552cc186b" target="_top" xlink:title=" ">
<polygon fill="white" stroke="#666666" points="353.75,-428 183.25,-428 183.25,-372 353.75,-372 353.75,-428"/>
<text xml:space="preserve" text-anchor="start" x="191.25" y="-414.5" font-family="Helvetica,sans-Serif" font-size="10.00">depicture_menu::domain</text>
<text xml:space="preserve" text-anchor="start" x="191.25" y="-402.5" font-family="Helvetica,sans-Serif" font-size="10.00">::services::create_command</text>
<text xml:space="preserve" text-anchor="start" x="191.25" y="-390.5" font-family="Helvetica,sans-Serif" font-size="10.00">_domain_service::create_command</text>
<text xml:space="preserve" text-anchor="middle" x="268.5" y="-378.5" font-family="Helvetica,sans-Serif" font-size="10.00">_domain_service</text>
</a>
</g>
</g>
<!-- Node5&#45;&gt;Node7 -->
<g id="edge7_Node000005_Node000007" class="edge">
<title>Node5&#45;&gt;Node7</title>
<g id="a_edge7_Node000005_Node000007"><a xlink:title=" ">
<path fill="none" stroke="#63b8ff" d="M378.35,-370.19C370.25,-372.41 362.1,-374.64 354.09,-376.84"/>
<polygon fill="#63b8ff" stroke="#63b8ff" points="379.17,-373.6 387.89,-367.58 377.32,-366.85 379.17,-373.6"/>
</a>
</g>
</g>
<!-- Node8 -->
<g id="Node000008" class="node">
<title>Node8</title>
<g id="a_Node000008"><a xlink:href="classdepicture__menu_1_1domain_1_1services_1_1create__command__domain__service.html#a7fbb4004eb6b7b517769bd7471e81ed2" target="_top" xlink:title=" ">
<polygon fill="white" stroke="#666666" points="338.38,-354 198.62,-354 198.62,-310 338.38,-310 338.38,-354"/>
<text xml:space="preserve" text-anchor="start" x="206.62" y="-340.5" font-family="Helvetica,sans-Serif" font-size="10.00">depicture_menu::domain</text>
<text xml:space="preserve" text-anchor="start" x="206.62" y="-328.5" font-family="Helvetica,sans-Serif" font-size="10.00">::services::create_command</text>
<text xml:space="preserve" text-anchor="middle" x="268.5" y="-316.5" font-family="Helvetica,sans-Serif" font-size="10.00">_domain_service::operator=</text>
</a>
</g>
</g>
<!-- Node5&#45;&gt;Node8 -->
<g id="edge8_Node000005_Node000008" class="edge">
<title>Node5&#45;&gt;Node8</title>
<g id="a_edge8_Node000005_Node000008"><a xlink:title=" ">
<path fill="none" stroke="#63b8ff" d="M378.24,-338.38C364.95,-337.6 351.52,-336.81 338.84,-336.07"/>
<polygon fill="#63b8ff" stroke="#63b8ff" points="377.65,-341.85 387.83,-338.94 378.06,-334.86 377.65,-341.85"/>
</a>
</g>
</g>
<!-- Node9 -->
<g id="Node000009" class="node">
<title>Node9</title>
<g id="a_Node000009"><a xlink:href="classdepicture__menu_1_1domain_1_1services_1_1create__command__domain__service.html#a44072fd8b200120ab19cf3cf9f8eb8ea" target="_top" xlink:title=" ">
<polygon fill="white" stroke="#666666" points="338.38,-292 198.62,-292 198.62,-248 338.38,-248 338.38,-292"/>
<text xml:space="preserve" text-anchor="start" x="206.62" y="-278.5" font-family="Helvetica,sans-Serif" font-size="10.00">depicture_menu::domain</text>
<text xml:space="preserve" text-anchor="start" x="206.62" y="-266.5" font-family="Helvetica,sans-Serif" font-size="10.00">::services::create_command</text>
<text xml:space="preserve" text-anchor="middle" x="268.5" y="-254.5" font-family="Helvetica,sans-Serif" font-size="10.00">_domain_service::operator=</text>
</a>
</g>
</g>
<!-- Node5&#45;&gt;Node9 -->
<g id="edge9_Node000005_Node000009" class="edge">
<title>Node5&#45;&gt;Node9</title>
<g id="a_edge9_Node000005_Node000009"><a xlink:title=" ">
<path fill="none" stroke="#63b8ff" d="M384.75,-311.7C366.82,-305.21 348.35,-298.53 331.59,-292.47"/>
<polygon fill="#63b8ff" stroke="#63b8ff" points="383.5,-314.97 394.1,-315.09 385.88,-308.39 383.5,-314.97"/>
</a>
</g>
</g>
<!-- Node11 -->
<g id="Node000011" class="node">
<title>Node11</title>
<g id="a_Node000011"><a xlink:href="classdepicture__menu_1_1domain_1_1services_1_1current__config__access__service.html#a7c1a62c96a9cdc48442e9f9665b5f9cb" target="_top" xlink:title=" ">
<polygon fill="white" stroke="#666666" points="347,-230 190,-230 190,-186 347,-186 347,-230"/>
<text xml:space="preserve" text-anchor="start" x="198" y="-216.5" font-family="Helvetica,sans-Serif" font-size="10.00">depicture_menu::domain</text>
<text xml:space="preserve" text-anchor="start" x="198" y="-204.5" font-family="Helvetica,sans-Serif" font-size="10.00">::services::current_config</text>
<text xml:space="preserve" text-anchor="middle" x="268.5" y="-192.5" font-family="Helvetica,sans-Serif" font-size="10.00">_access_service::current_config</text>
</a>
</g>
</g>
<!-- Node10&#45;&gt;Node11 -->
<g id="edge11_Node000010_Node000011" class="edge">
<title>Node10&#45;&gt;Node11</title>
<g id="a_edge11_Node000010_Node000011"><a xlink:title=" ">
<path fill="none" stroke="#63b8ff" d="M395.57,-249.92C376.24,-243.49 355.71,-236.67 336.96,-230.43"/>
<polygon fill="#63b8ff" stroke="#63b8ff" points="394.44,-253.23 405.04,-253.07 396.65,-246.59 394.44,-253.23"/>
</a>
</g>
</g>
<!-- Node12&#45;&gt;Node12 -->
<g id="edge13_Node000012_Node000012" class="edge">
<title>Node12&#45;&gt;Node12</title>
<g id="a_edge13_Node000012_Node000012"><a xlink:title=" ">
<path fill="none" stroke="#63b8ff" d="M508.03,-228.75C502.43,-233.11 491.42,-236 475,-236 447.35,-236 435.04,-227.8 438.06,-218.21"/>
<polygon fill="#63b8ff" stroke="#63b8ff" points="511.21,-230.22 511.41,-219.63 504.65,-227.79 511.21,-230.22"/>
</a>
</g>
</g>
<!-- Node14 -->
<g id="Node000014" class="node">
<title>Node14</title>
<g id="a_Node000014"><a xlink:href="namespacedepicture__menu_1_1usecase_1_1detail__usecase.html#aced30424642ebcbb4c6add0520ef5a87" target="_top" xlink:title=" ">
<polygon fill="white" stroke="#666666" points="332.75,-168 204.25,-168 204.25,-124 332.75,-124 332.75,-168"/>
<text xml:space="preserve" text-anchor="start" x="212.25" y="-154.5" font-family="Helvetica,sans-Serif" font-size="10.00">depicture_menu::usecase</text>
<text xml:space="preserve" text-anchor="start" x="212.25" y="-142.5" font-family="Helvetica,sans-Serif" font-size="10.00">::detail_usecase::show</text>
<text xml:space="preserve" text-anchor="middle" x="268.5" y="-130.5" font-family="Helvetica,sans-Serif" font-size="10.00">_default_menu_view_impl</text>
</a>
</g>
</g>
<!-- Node13&#45;&gt;Node14 -->
<g id="edge15_Node000013_Node000014" class="edge">
<title>Node13&#45;&gt;Node14</title>
<g id="a_edge15_Node000013_Node000014"><a xlink:title=" ">
<path fill="none" stroke="#63b8ff" d="M398.18,-146C376.71,-146 353.56,-146 332.9,-146"/>
<polygon fill="#63b8ff" stroke="#63b8ff" points="398.06,-149.5 408.06,-146 398.06,-142.5 398.06,-149.5"/>
</a>
</g>
</g>
<!-- Node15 -->
<g id="Node000015" class="node">
<title>Node15</title>
<g id="a_Node000015"><a xlink:href="classdepicture__menu_1_1usecase_1_1show__menu__view.html#a39a24262aa5bbf60e9429380652bd850" target="_top" xlink:title=" ">
<polygon fill="white" stroke="#666666" points="138.25,-168 9,-168 9,-124 138.25,-124 138.25,-168"/>
<text xml:space="preserve" text-anchor="start" x="17" y="-154.5" font-family="Helvetica,sans-Serif" font-size="10.00">depicture_menu::usecase</text>
<text xml:space="preserve" text-anchor="start" x="17" y="-142.5" font-family="Helvetica,sans-Serif" font-size="10.00">::show_menu_view::show</text>
<text xml:space="preserve" text-anchor="middle" x="73.62" y="-130.5" font-family="Helvetica,sans-Serif" font-size="10.00">_default_menu</text>
</a>
</g>
</g>
<!-- Node14&#45;&gt;Node15 -->
<g id="edge16_Node000014_Node000015" class="edge">
<title>Node14&#45;&gt;Node15</title>
<g id="a_edge16_Node000014_Node000015"><a xlink:title=" ">
<path fill="none" stroke="#63b8ff" d="M192.31,-146C174.55,-146 155.78,-146 138.58,-146"/>
<polygon fill="#63b8ff" stroke="#63b8ff" points="192.3,-149.5 202.3,-146 192.3,-142.5 192.3,-149.5"/>
</a>
</g>
</g>
<!-- Node16&#45;&gt;Node14 -->
<g id="edge18_Node000016_Node000014" class="edge">
<title>Node16&#45;&gt;Node14</title>
<g id="a_edge18_Node000016_Node000014"><a xlink:title=" ">
<path fill="none" stroke="#63b8ff" d="M422.77,-108.53C395.61,-115.17 361.99,-123.39 333.17,-130.43"/>
<polygon fill="#63b8ff" stroke="#63b8ff" points="423.24,-112.01 432.13,-106.24 421.58,-105.21 423.24,-112.01"/>
</a>
</g>
</g>
<!-- Node17 -->
<g id="Node000017" class="node">
<title>Node17</title>
<g id="a_Node000017"><a xlink:href="namespacedepicture__menu_1_1usecase_1_1detail__usecase.html#a7b737605653c8cbbeb6f4a6bf95f01a7" target="_top" xlink:title=" ">
<polygon fill="white" stroke="#666666" points="339.5,-106 197.5,-106 197.5,-62 339.5,-62 339.5,-106"/>
<text xml:space="preserve" text-anchor="start" x="205.5" y="-92.5" font-family="Helvetica,sans-Serif" font-size="10.00">depicture_menu::usecase</text>
<text xml:space="preserve" text-anchor="start" x="205.5" y="-80.5" font-family="Helvetica,sans-Serif" font-size="10.00">::detail_usecase::show</text>
<text xml:space="preserve" text-anchor="middle" x="268.5" y="-68.5" font-family="Helvetica,sans-Serif" font-size="10.00">_menu_view_by_trigger_impl</text>
</a>
</g>
</g>
<!-- Node16&#45;&gt;Node17 -->
<g id="edge19_Node000016_Node000017" class="edge">
<title>Node16&#45;&gt;Node17</title>
<g id="a_edge19_Node000016_Node000017"><a xlink:title=" ">
<path fill="none" stroke="#63b8ff" d="M422.14,-92.96C397.11,-91.49 366.71,-89.7 339.64,-88.12"/>
<polygon fill="#63b8ff" stroke="#63b8ff" points="421.9,-96.45 432.09,-93.54 422.31,-89.46 421.9,-96.45"/>
</a>
</g>
</g>
<!-- Node19 -->
<g id="Node000019" class="node">
<title>Node19</title>
<g id="a_Node000019"><a xlink:href="namespacedepicture__menu_1_1usecase_1_1detail__usecase.html#a30a805872d1e1babe72014851ae4468f" target="_top" xlink:title=" ">
<polygon fill="white" stroke="#666666" points="332.38,-44 204.62,-44 204.62,0 332.38,0 332.38,-44"/>
<text xml:space="preserve" text-anchor="start" x="212.62" y="-30.5" font-family="Helvetica,sans-Serif" font-size="10.00">depicture_menu::usecase</text>
<text xml:space="preserve" text-anchor="start" x="212.62" y="-18.5" font-family="Helvetica,sans-Serif" font-size="10.00">::detail_usecase::show</text>
<text xml:space="preserve" text-anchor="middle" x="268.5" y="-6.5" font-family="Helvetica,sans-Serif" font-size="10.00">_menu_view_impl</text>
</a>
</g>
</g>
<!-- Node16&#45;&gt;Node19 -->
<g id="edge21_Node000016_Node000019" class="edge">
<title>Node16&#45;&gt;Node19</title>
<g id="a_edge21_Node000016_Node000019"><a xlink:title=" ">
<path fill="none" stroke="#63b8ff" d="M434.52,-81.71C405.31,-71.15 364.96,-56.54 331.47,-44.42"/>
<polygon fill="#63b8ff" stroke="#63b8ff" points="433.12,-84.93 443.71,-85.04 435.5,-78.35 433.12,-84.93"/>
</a>
</g>
</g>
<!-- Node18 -->
<g id="Node000018" class="node">
<title>Node18</title>
<g id="a_Node000018"><a xlink:href="classdepicture__menu_1_1usecase_1_1show__menu__view.html#a84311fd25faec1ca569e6717dcd20480" target="_top" xlink:title=" ">
<polygon fill="white" stroke="#666666" points="147.25,-100 0,-100 0,-68 147.25,-68 147.25,-100"/>
<text xml:space="preserve" text-anchor="start" x="8" y="-86.5" font-family="Helvetica,sans-Serif" font-size="10.00">depicture_menu::usecase</text>
<text xml:space="preserve" text-anchor="middle" x="73.62" y="-74.5" font-family="Helvetica,sans-Serif" font-size="10.00">::show_menu_view::operator()</text>
</a>
</g>
</g>
<!-- Node17&#45;&gt;Node18 -->
<g id="edge20_Node000017_Node000018" class="edge">
<title>Node17&#45;&gt;Node18</title>
<g id="a_edge20_Node000017_Node000018"><a xlink:title=" ">
<path fill="none" stroke="#63b8ff" d="M185.55,-84C172.9,-84 159.91,-84 147.48,-84"/>
<polygon fill="#63b8ff" stroke="#63b8ff" points="185.54,-87.5 195.54,-84 185.54,-80.5 185.54,-87.5"/>
</a>
</g>
</g>
<!-- Node20 -->
<g id="Node000020" class="node">
<title>Node20</title>
<g id="a_Node000020"><a xlink:href="classdepicture__menu_1_1usecase_1_1show__menu__view.html#a4ce319c6aa992ac8d977452f232c15fc" target="_top" xlink:title=" ">
<polygon fill="white" stroke="#666666" points="147.25,-38 0,-38 0,-6 147.25,-6 147.25,-38"/>
<text xml:space="preserve" text-anchor="start" x="8" y="-24.5" font-family="Helvetica,sans-Serif" font-size="10.00">depicture_menu::usecase</text>
<text xml:space="preserve" text-anchor="middle" x="73.62" y="-12.5" font-family="Helvetica,sans-Serif" font-size="10.00">::show_menu_view::operator()</text>
</a>
</g>
</g>
<!-- Node19&#45;&gt;Node20 -->
<g id="edge22_Node000019_Node000020" class="edge">
<title>Node19&#45;&gt;Node20</title>
<g id="a_edge22_Node000019_Node000020"><a xlink:title=" ">
<path fill="none" stroke="#63b8ff" d="M193.1,-22C178.18,-22 162.51,-22 147.63,-22"/>
<polygon fill="#63b8ff" stroke="#63b8ff" points="192.83,-25.5 202.83,-22 192.83,-18.5 192.83,-25.5"/>
</a>
</g>
</g>
</g>
</svg>
