<?xml version="1.0" encoding="UTF-8" standalone="no"?>
<!DOCTYPE svg PUBLIC "-//W3C//DTD SVG 1.1//EN"
 "http://www.w3.org/Graphics/SVG/1.1/DTD/svg11.dtd">
<!-- Generated by graphviz version 14.1.2 (20260124.0452)
 -->
<!-- Title: depicture_menu::domain::actions::v2::publisher::set_command_id Pages: 1 -->
<svg width="692pt" height="240pt"
 viewBox="0.00 0.00 692.00 240.00" xmlns="http://www.w3.org/2000/svg" xmlns:xlink="http://www.w3.org/1999/xlink">
<g id="graph0" class="graph" transform="scale(1 1) rotate(0) translate(4 236)">
<title>depicture_menu::domain::actions::v2::publisher::set_command_id</title>
<!-- Node1 -->
<g id="Node000001" class="node">
<title>Node1</title>
<g id="a_Node000001"><a xlink:title=" ">
<polygon fill="#999999" stroke="#666666" points="684.25,-156 561.75,-156 561.75,-112 684.25,-112 684.25,-156"/>
<text xml:space="preserve" text-anchor="start" x="569.75" y="-142.5" font-family="Helvetica,sans-Serif" font-size="10.00">depicture_menu::domain</text>
<text xml:space="preserve" text-anchor="start" x="569.75" y="-130.5" font-family="Helvetica,sans-Serif" font-size="10.00">::actions::v2::publisher</text>
<text xml:space="preserve" text-anchor="middle" x="623" y="-118.5" font-family="Helvetica,sans-Serif" font-size="10.00">::set_command_id</text>
</a>
</g>
</g>
<!-- Node2 -->
<g id="Node000002" class="node">
<title>Node2</title>
<g id="a_Node000002"><a xlink:href="deploy__default__setting_8cpp.html#a638e25877528b95de44e4fcd07a8c45a" target="_top" xlink:title=" ">
<polygon fill="white" stroke="#666666" points="489.75,-220 394.25,-220 394.25,-200 489.75,-200 489.75,-220"/>
<text xml:space="preserve" text-anchor="middle" x="442" y="-206.5" font-family="Helvetica,sans-Serif" font-size="10.00">add_default_menu</text>
</a>
</g>
</g>
<!-- Node1&#45;&gt;Node2 -->
<g id="edge1_Node000001_Node000002" class="edge">
<title>Node1&#45;&gt;Node2</title>
<g id="a_edge1_Node000001_Node000002"><a xlink:title=" ">
<path fill="none" stroke="#63b8ff" d="M580.57,-162.35C564.09,-172.59 544.59,-183.47 525.75,-191 514.53,-195.49 502,-199.05 490.16,-201.82"/>
<polygon fill="#63b8ff" stroke="#63b8ff" points="582.05,-165.55 588.61,-157.24 578.3,-159.65 582.05,-165.55"/>
</a>
</g>
</g>
<!-- Node5 -->
<g id="Node000005" class="node">
<title>Node5</title>
<g id="a_Node000005"><a xlink:href="test__action_8cpp.html#ac843104626db825913be7e480f5db544" target="_top" xlink:title="build_action_sequence : TestCase">
<polygon fill="white" stroke="#666666" points="515.62,-182 368.38,-182 368.38,-162 515.62,-162 515.62,-182"/>
<text xml:space="preserve" text-anchor="middle" x="442" y="-168.5" font-family="Helvetica,sans-Serif" font-size="10.00">BOOST_AUTO_TEST_CASE</text>
</a>
</g>
</g>
<!-- Node1&#45;&gt;Node5 -->
<g id="edge4_Node000001_Node000005" class="edge">
<title>Node1&#45;&gt;Node5</title>
<g id="a_edge4_Node000001_Node000005"><a xlink:title=" ">
<path fill="none" stroke="#63b8ff" d="M550.4,-149.2C530.89,-153.34 510.21,-157.73 492.25,-161.54"/>
<polygon fill="#63b8ff" stroke="#63b8ff" points="550.86,-152.68 559.92,-147.18 549.41,-145.83 550.86,-152.68"/>
</a>
</g>
</g>
<!-- Node6 -->
<g id="Node000006" class="node">
<title>Node6</title>
<g id="a_Node000006"><a xlink:href="test-config__view_8cpp.html#a9593fb0b3c614953ed8545b960aed921" target="_top" xlink:title=" ">
<polygon fill="white" stroke="#666666" points="515.62,-144 368.38,-144 368.38,-124 515.62,-124 515.62,-144"/>
<text xml:space="preserve" text-anchor="middle" x="442" y="-130.5" font-family="Helvetica,sans-Serif" font-size="10.00">BOOST_AUTO_TEST_CASE</text>
</a>
</g>
</g>
<!-- Node1&#45;&gt;Node6 -->
<g id="edge5_Node000001_Node000006" class="edge">
<title>Node1&#45;&gt;Node6</title>
<g id="a_edge5_Node000001_Node000006"><a xlink:title=" ">
<path fill="none" stroke="#63b8ff" d="M549.9,-134C538.71,-134 527.14,-134 515.94,-134"/>
<polygon fill="#63b8ff" stroke="#63b8ff" points="549.89,-137.5 559.89,-134 549.89,-130.5 549.89,-137.5"/>
</a>
</g>
</g>
<!-- Node7 -->
<g id="Node000007" class="node">
<title>Node7</title>
<g id="a_Node000007"><a xlink:href="classdepicture__menu_1_1domain_1_1services_1_1common__action__builder.html#a2dac5a8e67552ecb027185e75210d586" target="_top" xlink:title=" ">
<polygon fill="white" stroke="#666666" points="525.75,-106 358.25,-106 358.25,-62 525.75,-62 525.75,-106"/>
<text xml:space="preserve" text-anchor="start" x="366.25" y="-92.5" font-family="Helvetica,sans-Serif" font-size="10.00">depicture_menu::domain</text>
<text xml:space="preserve" text-anchor="start" x="366.25" y="-80.5" font-family="Helvetica,sans-Serif" font-size="10.00">::services::common_action</text>
<text xml:space="preserve" text-anchor="middle" x="442" y="-68.5" font-family="Helvetica,sans-Serif" font-size="10.00">_builder::build_shellexecute_action</text>
</a>
</g>
</g>
<!-- Node1&#45;&gt;Node7 -->
<g id="edge6_Node000001_Node000007" class="edge">
<title>Node1&#45;&gt;Node7</title>
<g id="a_edge6_Node000001_Node000007"><a xlink:title=" ">
<path fill="none" stroke="#63b8ff" d="M550.38,-113.99C541.55,-111.53 532.48,-108.99 523.53,-106.5"/>
<polygon fill="#63b8ff" stroke="#63b8ff" points="549.37,-117.35 559.94,-116.67 551.25,-110.6 549.37,-117.35"/>
</a>
</g>
</g>
<!-- Node8 -->
<g id="Node000008" class="node">
<title>Node8</title>
<g id="a_Node000008"><a xlink:href="structdepicture__menu_1_1usecase_1_1menu__item__sync.html#ad4a294098777093d4900b371810b3842" target="_top" xlink:title=" ">
<polygon fill="white" stroke="#666666" points="506.62,-44 377.38,-44 377.38,0 506.62,0 506.62,-44"/>
<text xml:space="preserve" text-anchor="start" x="385.38" y="-30.5" font-family="Helvetica,sans-Serif" font-size="10.00">depicture_menu::usecase</text>
<text xml:space="preserve" text-anchor="start" x="385.38" y="-18.5" font-family="Helvetica,sans-Serif" font-size="10.00">::menu_item_sync::create</text>
<text xml:space="preserve" text-anchor="middle" x="442" y="-6.5" font-family="Helvetica,sans-Serif" font-size="10.00">_new_action</text>
</a>
</g>
</g>
<!-- Node1&#45;&gt;Node8 -->
<g id="edge7_Node000001_Node000008" class="edge">
<title>Node1&#45;&gt;Node8</title>
<g id="a_edge7_Node000001_Node000008"><a xlink:title=" ">
<path fill="none" stroke="#63b8ff" d="M591.63,-103.76C573.64,-87.1 549.73,-67.02 525.75,-53 519.79,-49.52 513.37,-46.3 506.83,-43.36"/>
<polygon fill="#63b8ff" stroke="#63b8ff" points="589.19,-106.27 598.86,-110.59 593.99,-101.18 589.19,-106.27"/>
</a>
</g>
</g>
<!-- Node3 -->
<g id="Node000003" class="node">
<title>Node3</title>
<g id="a_Node000003"><a xlink:href="deploy__default__setting_8cpp.html#a3311dba8e4af11d1e7973601fd991d43" target="_top" xlink:title=" ">
<polygon fill="white" stroke="#666666" points="303.5,-220 197.5,-220 197.5,-200 303.5,-200 303.5,-220"/>
<text xml:space="preserve" text-anchor="middle" x="250.5" y="-206.5" font-family="Helvetica,sans-Serif" font-size="10.00">add_default_settings</text>
</a>
</g>
</g>
<!-- Node2&#45;&gt;Node3 -->
<g id="edge2_Node000002_Node000003" class="edge">
<title>Node2&#45;&gt;Node3</title>
<g id="a_edge2_Node000002_Node000003"><a xlink:title=" ">
<path fill="none" stroke="#63b8ff" d="M382.89,-210C357.66,-210 328.34,-210 303.81,-210"/>
<polygon fill="#63b8ff" stroke="#63b8ff" points="382.64,-213.5 392.64,-210 382.64,-206.5 382.64,-213.5"/>
</a>
</g>
</g>
<!-- Node4 -->
<g id="Node000004" class="node">
<title>Node4</title>
<g id="a_Node000004"><a xlink:href="structdepicture__menu_1_1usecase_1_1detail__usecases_1_1deploy__default__setting__impl.html#a2c116aa98cc322e474ee99a84a130a94" target="_top" xlink:title=" ">
<polygon fill="white" stroke="#666666" points="142.75,-232 0,-232 0,-188 142.75,-188 142.75,-232"/>
<text xml:space="preserve" text-anchor="start" x="8" y="-218.5" font-family="Helvetica,sans-Serif" font-size="10.00">depicture_menu::usecase</text>
<text xml:space="preserve" text-anchor="start" x="8" y="-206.5" font-family="Helvetica,sans-Serif" font-size="10.00">::detail_usecases::deploy</text>
<text xml:space="preserve" text-anchor="middle" x="71.38" y="-194.5" font-family="Helvetica,sans-Serif" font-size="10.00">_default_setting_impl::deploy</text>
</a>
</g>
</g>
<!-- Node3&#45;&gt;Node4 -->
<g id="edge3_Node000003_Node000004" class="edge">
<title>Node3&#45;&gt;Node4</title>
<g id="a_edge3_Node000003_Node000004"><a xlink:title=" ">
<path fill="none" stroke="#63b8ff" d="M185.92,-210C172.07,-210 157.33,-210 143.22,-210"/>
<polygon fill="#63b8ff" stroke="#63b8ff" points="185.8,-213.5 195.8,-210 185.8,-206.5 185.8,-213.5"/>
</a>
</g>
</g>
<!-- Node9 -->
<g id="Node000009" class="node">
<title>Node9</title>
<g id="a_Node000009"><a xlink:href="structdepicture__menu_1_1usecase_1_1menu__item__sync.html#a9fd674e4ea4f37a1275b7fcf15ad2ae5" target="_top" xlink:title=" ">
<polygon fill="white" stroke="#666666" points="322.25,-38 178.75,-38 178.75,-6 322.25,-6 322.25,-38"/>
<text xml:space="preserve" text-anchor="start" x="186.75" y="-24.5" font-family="Helvetica,sans-Serif" font-size="10.00">depicture_menu::usecase</text>
<text xml:space="preserve" text-anchor="middle" x="250.5" y="-12.5" font-family="Helvetica,sans-Serif" font-size="10.00">::menu_item_sync::operator()</text>
</a>
</g>
</g>
<!-- Node8&#45;&gt;Node9 -->
<g id="edge8_Node000008_Node000009" class="edge">
<title>Node8&#45;&gt;Node9</title>
<g id="a_edge8_Node000008_Node000009"><a xlink:title=" ">
<path fill="none" stroke="#63b8ff" d="M365.84,-22C351.59,-22 336.73,-22 322.61,-22"/>
<polygon fill="#63b8ff" stroke="#63b8ff" points="365.59,-25.5 375.59,-22 365.59,-18.5 365.59,-25.5"/>
</a>
</g>
</g>
</g>
</svg>
