<?xml version="1.0" encoding="UTF-8" standalone="no"?>
<!DOCTYPE svg PUBLIC "-//W3C//DTD SVG 1.1//EN"
 "http://www.w3.org/Graphics/SVG/1.1/DTD/svg11.dtd">
<!-- Generated by graphviz version 14.1.2 (20260124.0452)
 -->
<!-- Title: depicture_menu::usecase::duplicate_menu_item::duplicate Pages: 1 -->
<svg width="521pt" height="362pt"
 viewBox="0.00 0.00 521.00 362.00" xmlns="http://www.w3.org/2000/svg" xmlns:xlink="http://www.w3.org/1999/xlink">
<g id="graph0" class="graph" transform="scale(1 1) rotate(0) translate(4 358)">
<title>depicture_menu::usecase::duplicate_menu_item::duplicate</title>
<!-- Node1 -->
<g id="Node000001" class="node">
<title>Node1</title>
<g id="a_Node000001"><a xlink:title=" ">
<polygon fill="#999999" stroke="#666666" points="127.75,-162 0,-162 0,-118 127.75,-118 127.75,-162"/>
<text xml:space="preserve" text-anchor="start" x="8" y="-148.5" font-family="Helvetica,sans-Serif" font-size="10.00">depicture_menu::usecase</text>
<text xml:space="preserve" text-anchor="start" x="8" y="-136.5" font-family="Helvetica,sans-Serif" font-size="10.00">::duplicate_menu_item</text>
<text xml:space="preserve" text-anchor="middle" x="63.88" y="-124.5" font-family="Helvetica,sans-Serif" font-size="10.00">::duplicate</text>
</a>
</g>
</g>
<!-- Node2 -->
<g id="Node000002" class="node">
<title>Node2</title>
<g id="a_Node000002"><a xlink:href="classdepicture__menu_1_1domain_1_1services_1_1current__config__access__service.html#a982a04e702fc1ea5a0acfb20e458289e" target="_top" xlink:title=" ">
<polygon fill="white" stroke="#666666" points="320.75,-354 163.75,-354 163.75,-310 320.75,-310 320.75,-354"/>
<text xml:space="preserve" text-anchor="start" x="171.75" y="-340.5" font-family="Helvetica,sans-Serif" font-size="10.00">depicture_menu::domain</text>
<text xml:space="preserve" text-anchor="start" x="171.75" y="-328.5" font-family="Helvetica,sans-Serif" font-size="10.00">::services::current_config</text>
<text xml:space="preserve" text-anchor="middle" x="242.25" y="-316.5" font-family="Helvetica,sans-Serif" font-size="10.00">_access_service::current_config</text>
</a>
</g>
</g>
<!-- Node1&#45;&gt;Node2 -->
<g id="edge1_Node000001_Node000002" class="edge">
<title>Node1&#45;&gt;Node2</title>
<g id="a_edge1_Node000001_Node000002"><a xlink:title=" ">
<path fill="none" stroke="#63b8ff" d="M73.21,-162.37C87.05,-196.67 117.85,-262.32 163.75,-301 164.69,-301.79 165.66,-302.57 166.64,-303.33"/>
<polygon fill="#63b8ff" stroke="#63b8ff" points="164.49,-306.1 174.73,-308.81 168.42,-300.3 164.49,-306.1"/>
</a>
</g>
</g>
<!-- Node4 -->
<g id="Node000004" class="node">
<title>Node4</title>
<g id="a_Node000004"><a xlink:href="structdepicture__menu_1_1domain_1_1models_1_1base_1_1entity__base.html#adce587e64220cc3a3407233c1fc61ba4" target="_top" xlink:title=" ">
<polygon fill="white" stroke="#666666" points="303.5,-292 181,-292 181,-248 303.5,-248 303.5,-292"/>
<text xml:space="preserve" text-anchor="start" x="189" y="-278.5" font-family="Helvetica,sans-Serif" font-size="10.00">depicture_menu::domain</text>
<text xml:space="preserve" text-anchor="start" x="189" y="-266.5" font-family="Helvetica,sans-Serif" font-size="10.00">::models::base::entity</text>
<text xml:space="preserve" text-anchor="middle" x="242.25" y="-254.5" font-family="Helvetica,sans-Serif" font-size="10.00">_base::entity_id</text>
</a>
</g>
</g>
<!-- Node1&#45;&gt;Node4 -->
<g id="edge3_Node000001_Node000004" class="edge">
<title>Node1&#45;&gt;Node4</title>
<g id="a_edge3_Node000001_Node000004"><a xlink:title=" ">
<path fill="none" stroke="#63b8ff" d="M82.47,-162.29C100.8,-184.27 131.31,-217.59 163.75,-239 166,-240.48 168.32,-241.91 170.71,-243.29"/>
<polygon fill="#63b8ff" stroke="#63b8ff" points="168.97,-246.33 179.44,-247.95 172.27,-240.15 168.97,-246.33"/>
</a>
</g>
</g>
<!-- Node5 -->
<g id="Node000005" class="node">
<title>Node5</title>
<g id="a_Node000005"><a xlink:href="classdepicture__menu_1_1singleton.html#ab3a8df96e817c8ccb1ab61434f90c416" target="_top" xlink:title=" ">
<polygon fill="white" stroke="#666666" points="307.25,-230 177.25,-230 177.25,-174 307.25,-174 307.25,-230"/>
<text xml:space="preserve" text-anchor="start" x="185.25" y="-216.5" font-family="Helvetica,sans-Serif" font-size="10.00">depicture_menu::singleton</text>
<text xml:space="preserve" text-anchor="start" x="185.25" y="-204.5" font-family="Helvetica,sans-Serif" font-size="10.00">&lt; detail_applications::</text>
<text xml:space="preserve" text-anchor="start" x="185.25" y="-192.5" font-family="Helvetica,sans-Serif" font-size="10.00">gui_dispatch_impl &gt;::get</text>
<text xml:space="preserve" text-anchor="middle" x="242.25" y="-180.5" font-family="Helvetica,sans-Serif" font-size="10.00">_instance</text>
</a>
</g>
</g>
<!-- Node1&#45;&gt;Node5 -->
<g id="edge4_Node000001_Node000005" class="edge">
<title>Node1&#45;&gt;Node5</title>
<g id="a_edge4_Node000001_Node000005"><a xlink:title=" ">
<path fill="none" stroke="#63b8ff" d="M128.05,-162.21C140.49,-166.58 153.64,-171.2 166.41,-175.69"/>
<polygon fill="#63b8ff" stroke="#63b8ff" points="165.01,-178.91 175.6,-178.92 167.33,-172.3 165.01,-178.91"/>
</a>
</g>
</g>
<!-- Node6 -->
<g id="Node000006" class="node">
<title>Node6</title>
<g id="a_Node000006"><a xlink:href="namespacedepicture__menu_1_1usecase.html#a1d29228ff820750a84c715f937456ce2" target="_top" xlink:title=" ">
<polygon fill="white" stroke="#666666" points="306.12,-156 178.38,-156 178.38,-124 306.12,-124 306.12,-156"/>
<text xml:space="preserve" text-anchor="start" x="186.38" y="-142.5" font-family="Helvetica,sans-Serif" font-size="10.00">depicture_menu::usecase</text>
<text xml:space="preserve" text-anchor="middle" x="242.25" y="-130.5" font-family="Helvetica,sans-Serif" font-size="10.00">::make_query</text>
</a>
</g>
</g>
<!-- Node1&#45;&gt;Node6 -->
<g id="edge5_Node000001_Node000006" class="edge">
<title>Node1&#45;&gt;Node6</title>
<g id="a_edge5_Node000001_Node000006"><a xlink:title=" ">
<path fill="none" stroke="#63b8ff" d="M128.05,-140C140.59,-140 153.86,-140 166.74,-140"/>
<polygon fill="#63b8ff" stroke="#63b8ff" points="166.41,-143.5 176.41,-140 166.41,-136.5 166.41,-143.5"/>
</a>
</g>
</g>
<!-- Node8 -->
<g id="Node000008" class="node">
<title>Node8</title>
<g id="a_Node000008"><a xlink:href="structdepicture__menu_1_1domain_1_1models_1_1entity__id__base.html#aba7d6d01fb13b02fdf7a089b02e6c0b2" target="_top" xlink:title=" ">
<polygon fill="white" stroke="#666666" points="305.75,-106 178.75,-106 178.75,-50 305.75,-50 305.75,-106"/>
<text xml:space="preserve" text-anchor="start" x="186.75" y="-92.5" font-family="Helvetica,sans-Serif" font-size="10.00">depicture_menu::domain</text>
<text xml:space="preserve" text-anchor="start" x="186.75" y="-80.5" font-family="Helvetica,sans-Serif" font-size="10.00">::models::entity_id_base</text>
<text xml:space="preserve" text-anchor="start" x="186.75" y="-68.5" font-family="Helvetica,sans-Serif" font-size="10.00">&lt; action_publisher_id_tag</text>
<text xml:space="preserve" text-anchor="middle" x="242.25" y="-56.5" font-family="Helvetica,sans-Serif" font-size="10.00"> &gt;::random_id</text>
</a>
</g>
</g>
<!-- Node1&#45;&gt;Node8 -->
<g id="edge7_Node000001_Node000008" class="edge">
<title>Node1&#45;&gt;Node8</title>
<g id="a_edge7_Node000001_Node000008"><a xlink:title=" ">
<path fill="none" stroke="#63b8ff" d="M111.68,-117.51C128.82,-110.85 148.66,-103.66 167.58,-97.23"/>
<polygon fill="#63b8ff" stroke="#63b8ff" points="168.48,-100.62 176.85,-94.12 166.25,-93.98 168.48,-100.62"/>
</a>
</g>
</g>
<!-- Node1&#45;&gt;Node8 -->
<g id="edge9_Node000001_Node000008" class="edge">
<title>Node1&#45;&gt;Node8</title>
<g id="a_edge9_Node000001_Node000008"><a xlink:title=" ">
<path fill="none" stroke="#63b8ff" d="M128.05,-124.29C141.08,-119.98 154.9,-115.17 168.24,-110.33"/>
<polygon fill="#63b8ff" stroke="#63b8ff" points="169.21,-113.7 177.39,-106.96 166.8,-107.13 169.21,-113.7"/>
</a>
</g>
</g>
<!-- Node10 -->
<g id="Node000010" class="node">
<title>Node10</title>
<g id="a_Node000010"><a xlink:href="namespacedepicture__menu_1_1util_1_1strconv.html#a08ee9762f61abb902eac449b23391fe1" target="_top" xlink:title=" ">
<polygon fill="white" stroke="#666666" points="300.12,-32 184.38,-32 184.38,0 300.12,0 300.12,-32"/>
<text xml:space="preserve" text-anchor="start" x="192.38" y="-18.5" font-family="Helvetica,sans-Serif" font-size="10.00">depicture_menu::util</text>
<text xml:space="preserve" text-anchor="middle" x="242.25" y="-6.5" font-family="Helvetica,sans-Serif" font-size="10.00">::strconv::wide_to_utf8</text>
</a>
</g>
</g>
<!-- Node1&#45;&gt;Node10 -->
<g id="edge10_Node000001_Node000010" class="edge">
<title>Node1&#45;&gt;Node10</title>
<g id="a_edge10_Node000001_Node000010"><a xlink:title=" ">
<path fill="none" stroke="#63b8ff" d="M81.84,-117.65C99.88,-95.3 130.39,-61.41 163.75,-41 166.89,-39.08 170.18,-37.3 173.58,-35.63"/>
<polygon fill="#63b8ff" stroke="#63b8ff" points="174.88,-38.88 182.61,-31.63 172.05,-32.48 174.88,-38.88"/>
</a>
</g>
</g>
<!-- Node3 -->
<g id="Node000003" class="node">
<title>Node3</title>
<g id="a_Node000003"><a xlink:href="classdepicture__menu_1_1domain_1_1crud__repository__interface.html#ac170ece1adbf7138a6322bba5beea167" target="_top" xlink:title=" ">
<polygon fill="white" stroke="#666666" points="513,-348 356.75,-348 356.75,-316 513,-316 513,-348"/>
<text xml:space="preserve" text-anchor="start" x="364.75" y="-334.5" font-family="Helvetica,sans-Serif" font-size="10.00">depicture_menu::domain</text>
<text xml:space="preserve" text-anchor="middle" x="434.88" y="-322.5" font-family="Helvetica,sans-Serif" font-size="10.00">::crud_repository_interface::read</text>
</a>
</g>
</g>
<!-- Node2&#45;&gt;Node3 -->
<g id="edge2_Node000002_Node000003" class="edge">
<title>Node2&#45;&gt;Node3</title>
<g id="a_edge2_Node000002_Node000003"><a xlink:title=" ">
<path fill="none" stroke="#63b8ff" d="M321.06,-332C328.97,-332 337.04,-332 345.05,-332"/>
<polygon fill="#63b8ff" stroke="#63b8ff" points="344.8,-335.5 354.8,-332 344.8,-328.5 344.8,-335.5"/>
</a>
</g>
</g>
<!-- Node7 -->
<g id="Node000007" class="node">
<title>Node7</title>
<g id="a_Node000007"><a xlink:href="namespacedepicture__menu_1_1usecase.html#aa7a2906d4f0d46a4a06b555ca34854d7" target="_top" xlink:title=" ">
<polygon fill="white" stroke="#666666" points="498.75,-156 371,-156 371,-124 498.75,-124 498.75,-156"/>
<text xml:space="preserve" text-anchor="start" x="379" y="-142.5" font-family="Helvetica,sans-Serif" font-size="10.00">depicture_menu::usecase</text>
<text xml:space="preserve" text-anchor="middle" x="434.88" y="-130.5" font-family="Helvetica,sans-Serif" font-size="10.00">::query_base</text>
</a>
</g>
</g>
<!-- Node6&#45;&gt;Node7 -->
<g id="edge6_Node000006_Node000007" class="edge">
<title>Node6&#45;&gt;Node7</title>
<g id="a_edge6_Node000006_Node000007"><a xlink:title=" ">
<path fill="none" stroke="#63b8ff" d="M306.46,-140C323.35,-140 341.77,-140 359.21,-140"/>
<polygon fill="#63b8ff" stroke="#63b8ff" points="359,-143.5 369,-140 359,-136.5 359,-143.5"/>
</a>
</g>
</g>
<!-- Node9 -->
<g id="Node000009" class="node">
<title>Node9</title>
<g id="a_Node000009"><a xlink:href="structdepicture__menu_1_1domain_1_1models_1_1entity__id__base.html#a504cba7877c98dbe44f55e0b1379a717" target="_top" xlink:title=" ">
<polygon fill="white" stroke="#666666" points="496.12,-100 373.62,-100 373.62,-56 496.12,-56 496.12,-100"/>
<text xml:space="preserve" text-anchor="start" x="381.62" y="-86.5" font-family="Helvetica,sans-Serif" font-size="10.00">depicture_menu::domain</text>
<text xml:space="preserve" text-anchor="start" x="381.62" y="-74.5" font-family="Helvetica,sans-Serif" font-size="10.00">::models::entity_id_base</text>
<text xml:space="preserve" text-anchor="middle" x="434.88" y="-62.5" font-family="Helvetica,sans-Serif" font-size="10.00">::entity_id_base</text>
</a>
</g>
</g>
<!-- Node8&#45;&gt;Node9 -->
<g id="edge8_Node000008_Node000009" class="edge">
<title>Node8&#45;&gt;Node9</title>
<g id="a_edge8_Node000008_Node000009"><a xlink:title=" ">
<path fill="none" stroke="#63b8ff" d="M306.2,-78C323.98,-78 343.48,-78 361.76,-78"/>
<polygon fill="#63b8ff" stroke="#63b8ff" points="361.75,-81.5 371.75,-78 361.75,-74.5 361.75,-81.5"/>
</a>
</g>
</g>
</g>
</svg>
