<?xml version="1.0" encoding="UTF-8" standalone="no"?>
<!DOCTYPE svg PUBLIC "-//W3C//DTD SVG 1.1//EN"
 "http://www.w3.org/Graphics/SVG/1.1/DTD/svg11.dtd">
<!-- Generated by graphviz version 14.1.2 (20260124.0452)
 -->
<!-- Title: depicture_menu::presentations::menu_view_presenter::change_menu Pages: 1 -->
<svg width="1014pt" height="409pt"
 viewBox="0.00 0.00 1014.00 409.00" xmlns="http://www.w3.org/2000/svg" xmlns:xlink="http://www.w3.org/1999/xlink">
<g id="graph0" class="graph" transform="scale(1 1) rotate(0) translate(4 405)">
<title>depicture_menu::presentations::menu_view_presenter::change_menu</title>
<!-- Node1 -->
<g id="Node000001" class="node">
<title>Node1</title>
<g id="a_Node000001"><a xlink:title=" ">
<polygon fill="#999999" stroke="#666666" points="184,-295 0,-295 0,-263 184,-263 184,-295"/>
<text xml:space="preserve" text-anchor="start" x="8" y="-281.5" font-family="Helvetica,sans-Serif" font-size="10.00">depicture_menu::presentations</text>
<text xml:space="preserve" text-anchor="middle" x="92" y="-269.5" font-family="Helvetica,sans-Serif" font-size="10.00">::menu_view_presenter::change_menu</text>
</a>
</g>
</g>
<!-- Node2 -->
<g id="Node000002" class="node">
<title>Node2</title>
<g id="a_Node000002"><a xlink:href="classdepicture__menu_1_1applications_1_1view__factories_1_1menu__view__arg__builder.html#a468f749c7257b784a07fa06164fa7773" target="_top" xlink:title=" ">
<polygon fill="white" stroke="#666666" points="362.75,-401 220,-401 220,-357 362.75,-357 362.75,-401"/>
<text xml:space="preserve" text-anchor="start" x="228" y="-387.5" font-family="Helvetica,sans-Serif" font-size="10.00">depicture_menu::applications</text>
<text xml:space="preserve" text-anchor="start" x="228" y="-375.5" font-family="Helvetica,sans-Serif" font-size="10.00">::view_factories::menu_view</text>
<text xml:space="preserve" text-anchor="middle" x="291.38" y="-363.5" font-family="Helvetica,sans-Serif" font-size="10.00">_arg_builder::build</text>
</a>
</g>
</g>
<!-- Node1&#45;&gt;Node2 -->
<g id="edge1_Node000001_Node000002" class="edge">
<title>Node1&#45;&gt;Node2</title>
<g id="a_edge1_Node000001_Node000002"><a xlink:title=" ">
<path fill="none" stroke="#63b8ff" d="M125.15,-295.29C155.08,-310.45 200.28,-333.35 235.85,-351.37"/>
<polygon fill="#63b8ff" stroke="#63b8ff" points="234.22,-354.47 244.72,-355.87 237.38,-348.23 234.22,-354.47"/>
</a>
</g>
</g>
<!-- Node4 -->
<g id="Node000004" class="node">
<title>Node4</title>
<g id="a_Node000004"><a xlink:href="structdepicture__menu_1_1domain_1_1models_1_1base_1_1entity__base.html#adce587e64220cc3a3407233c1fc61ba4" target="_top" xlink:title=" ">
<polygon fill="white" stroke="#666666" points="524.62,-337 402.12,-337 402.12,-293 524.62,-293 524.62,-337"/>
<text xml:space="preserve" text-anchor="start" x="410.12" y="-323.5" font-family="Helvetica,sans-Serif" font-size="10.00">depicture_menu::domain</text>
<text xml:space="preserve" text-anchor="start" x="410.12" y="-311.5" font-family="Helvetica,sans-Serif" font-size="10.00">::models::base::entity</text>
<text xml:space="preserve" text-anchor="middle" x="463.38" y="-299.5" font-family="Helvetica,sans-Serif" font-size="10.00">_base::entity_id</text>
</a>
</g>
</g>
<!-- Node1&#45;&gt;Node4 -->
<g id="edge3_Node000001_Node000004" class="edge">
<title>Node1&#45;&gt;Node4</title>
<g id="a_edge3_Node000001_Node000004"><a xlink:title=" ">
<path fill="none" stroke="#63b8ff" d="M149.08,-295.49C171,-301.19 196.48,-306.92 220,-310 276.99,-317.45 342.14,-318.38 390.54,-317.62"/>
<polygon fill="#63b8ff" stroke="#63b8ff" points="390.39,-321.12 400.33,-317.43 390.26,-314.12 390.39,-321.12"/>
</a>
</g>
</g>
<!-- Node5 -->
<g id="Node000005" class="node">
<title>Node5</title>
<g id="a_Node000005"><a xlink:href="structdepicture__menu_1_1usecase_1_1dto_1_1view__changed__notify__with__kind.html#ab5510481273498944e3fdb5aeca75566" target="_top" xlink:title=" ">
<polygon fill="white" stroke="#666666" points="357.88,-301 224.88,-301 224.88,-257 357.88,-257 357.88,-301"/>
<text xml:space="preserve" text-anchor="start" x="232.88" y="-287.5" font-family="Helvetica,sans-Serif" font-size="10.00">depicture_menu::usecase</text>
<text xml:space="preserve" text-anchor="start" x="232.88" y="-275.5" font-family="Helvetica,sans-Serif" font-size="10.00">::dto::view_changed_notify</text>
<text xml:space="preserve" text-anchor="middle" x="291.38" y="-263.5" font-family="Helvetica,sans-Serif" font-size="10.00">_with_kind::event</text>
</a>
</g>
</g>
<!-- Node1&#45;&gt;Node5 -->
<g id="edge4_Node000001_Node000005" class="edge">
<title>Node1&#45;&gt;Node5</title>
<g id="a_edge4_Node000001_Node000005"><a xlink:title=" ">
<path fill="none" stroke="#63b8ff" d="M184.47,-279C194.07,-279 203.77,-279 213.19,-279"/>
<polygon fill="#63b8ff" stroke="#63b8ff" points="213.01,-282.5 223.01,-279 213.01,-275.5 213.01,-282.5"/>
</a>
</g>
</g>
<!-- Node6 -->
<g id="Node000006" class="node">
<title>Node6</title>
<g id="a_Node000006"><a xlink:href="namespacedetail.html#afbe4518c767ced27133a1ca7027a02b0" target="_top" xlink:title=" ">
<polygon fill="white" stroke="#666666" points="335,-239 247.75,-239 247.75,-219 335,-219 335,-239"/>
<text xml:space="preserve" text-anchor="middle" x="291.38" y="-225.5" font-family="Helvetica,sans-Serif" font-size="10.00">detail::init_menu</text>
</a>
</g>
</g>
<!-- Node1&#45;&gt;Node6 -->
<g id="edge5_Node000001_Node000006" class="edge">
<title>Node1&#45;&gt;Node6</title>
<g id="a_edge5_Node000001_Node000006"><a xlink:title=" ">
<path fill="none" stroke="#63b8ff" d="M157.9,-262.56C183.92,-255.97 213.49,-248.48 238.09,-242.24"/>
<polygon fill="#63b8ff" stroke="#63b8ff" points="238.71,-245.7 247.55,-239.85 236.99,-238.91 238.71,-245.7"/>
</a>
</g>
</g>
<!-- Node7 -->
<g id="Node000007" class="node">
<title>Node7</title>
<g id="a_Node000007"><a xlink:href="namespacedetail.html#aeeadbaa968cbf337fbc005755d6df61d" target="_top" xlink:title=" ">
<polygon fill="white" stroke="#666666" points="339.12,-201 243.62,-201 243.62,-181 339.12,-181 339.12,-201"/>
<text xml:space="preserve" text-anchor="middle" x="291.38" y="-187.5" font-family="Helvetica,sans-Serif" font-size="10.00">detail::sync_menu</text>
</a>
</g>
</g>
<!-- Node1&#45;&gt;Node7 -->
<g id="edge7_Node000001_Node000007" class="edge">
<title>Node1&#45;&gt;Node7</title>
<g id="a_edge7_Node000001_Node000007"><a xlink:title=" ">
<path fill="none" stroke="#63b8ff" d="M118.88,-262.59C143.95,-247.27 183.42,-224.64 220,-210 224.69,-208.12 229.62,-206.37 234.61,-204.75"/>
<polygon fill="#63b8ff" stroke="#63b8ff" points="235.57,-208.12 244.11,-201.85 233.53,-201.42 235.57,-208.12"/>
</a>
</g>
</g>
<!-- Node3 -->
<g id="Node000003" class="node">
<title>Node3</title>
<g id="a_Node000003"><a xlink:href="namespaceimpl.html#a9339ce762762854d6234993b7ecb0e72" target="_top" xlink:title=" ">
<polygon fill="white" stroke="#666666" points="517.5,-395 409.25,-395 409.25,-363 517.5,-363 517.5,-395"/>
<text xml:space="preserve" text-anchor="start" x="417.25" y="-381.5" font-family="Helvetica,sans-Serif" font-size="10.00">impl::get_menu_view</text>
<text xml:space="preserve" text-anchor="middle" x="463.38" y="-369.5" font-family="Helvetica,sans-Serif" font-size="10.00">_injection</text>
</a>
</g>
</g>
<!-- Node2&#45;&gt;Node3 -->
<g id="edge2_Node000002_Node000003" class="edge">
<title>Node2&#45;&gt;Node3</title>
<g id="a_edge2_Node000002_Node000003"><a xlink:title=" ">
<path fill="none" stroke="#63b8ff" d="M362.99,-379C374.37,-379 386.1,-379 397.33,-379"/>
<polygon fill="#63b8ff" stroke="#63b8ff" points="397.31,-382.5 407.31,-379 397.31,-375.5 397.31,-382.5"/>
</a>
</g>
</g>
<!-- Node6&#45;&gt;Node4 -->
<g id="edge6_Node000006_Node000004" class="edge">
<title>Node6&#45;&gt;Node4</title>
<g id="a_edge6_Node000006_Node000004"><a xlink:title=" ">
<path fill="none" stroke="#63b8ff" d="M335.48,-236.83C344.84,-239.55 354.43,-243.18 362.75,-248 382.34,-259.33 380.33,-270.86 398.75,-284 399.93,-284.84 401.14,-285.67 402.37,-286.49"/>
<polygon fill="#63b8ff" stroke="#63b8ff" points="400.5,-289.45 410.85,-291.72 404.17,-283.49 400.5,-289.45"/>
</a>
</g>
</g>
<!-- Node7&#45;&gt;Node4 -->
<g id="edge8_Node000007_Node000004" class="edge">
<title>Node7&#45;&gt;Node4</title>
<g id="a_edge8_Node000007_Node000004"><a xlink:title=" ">
<path fill="none" stroke="#63b8ff" d="M339.4,-197.7C347.81,-200.49 356.02,-204.44 362.75,-210 390.94,-233.31 372.9,-258.13 398.75,-284 399.24,-284.49 399.74,-284.97 400.24,-285.45"/>
<polygon fill="#63b8ff" stroke="#63b8ff" points="397.94,-288.09 407.92,-291.65 402.34,-282.64 397.94,-288.09"/>
</a>
</g>
</g>
<!-- Node8 -->
<g id="Node000008" class="node">
<title>Node8</title>
<g id="a_Node000008"><a xlink:href="structdepicture__menu_1_1domain_1_1menu_1_1radialmenu.html#a9cb72efb2d0085409d7880cd2812e5f4" target="_top" xlink:title=" ">
<polygon fill="white" stroke="#666666" points="524.62,-275 402.12,-275 402.12,-231 524.62,-231 524.62,-275"/>
<text xml:space="preserve" text-anchor="start" x="410.12" y="-261.5" font-family="Helvetica,sans-Serif" font-size="10.00">depicture_menu::domain</text>
<text xml:space="preserve" text-anchor="start" x="410.12" y="-249.5" font-family="Helvetica,sans-Serif" font-size="10.00">::menu::radialmenu::get</text>
<text xml:space="preserve" text-anchor="middle" x="463.38" y="-237.5" font-family="Helvetica,sans-Serif" font-size="10.00">_central_item_action_id</text>
</a>
</g>
</g>
<!-- Node7&#45;&gt;Node8 -->
<g id="edge9_Node000007_Node000008" class="edge">
<title>Node7&#45;&gt;Node8</title>
<g id="a_edge9_Node000007_Node000008"><a xlink:title=" ">
<path fill="none" stroke="#63b8ff" d="M335.1,-201.48C344.3,-204.03 353.91,-206.92 362.75,-210 376.22,-214.7 390.45,-220.38 403.8,-226.06"/>
<polygon fill="#63b8ff" stroke="#63b8ff" points="402.33,-229.23 412.89,-229.98 405.1,-222.81 402.33,-229.23"/>
</a>
</g>
</g>
<!-- Node9 -->
<g id="Node000009" class="node">
<title>Node9</title>
<g id="a_Node000009"><a xlink:href="structdepicture__menu_1_1domain_1_1menu_1_1radialmenu.html#ad8ca5bc81809f6368593615b1f132584" target="_top" xlink:title=" ">
<polygon fill="white" stroke="#666666" points="524.62,-213 402.12,-213 402.12,-169 524.62,-169 524.62,-213"/>
<text xml:space="preserve" text-anchor="start" x="410.12" y="-199.5" font-family="Helvetica,sans-Serif" font-size="10.00">depicture_menu::domain</text>
<text xml:space="preserve" text-anchor="start" x="410.12" y="-187.5" font-family="Helvetica,sans-Serif" font-size="10.00">::menu::radialmenu::get</text>
<text xml:space="preserve" text-anchor="middle" x="463.38" y="-175.5" font-family="Helvetica,sans-Serif" font-size="10.00">_central_item_label</text>
</a>
</g>
</g>
<!-- Node7&#45;&gt;Node9 -->
<g id="edge10_Node000007_Node000009" class="edge">
<title>Node7&#45;&gt;Node9</title>
<g id="a_edge10_Node000007_Node000009"><a xlink:title=" ">
<path fill="none" stroke="#63b8ff" d="M339.28,-191C355.16,-191 373.28,-191 390.64,-191"/>
<polygon fill="#63b8ff" stroke="#63b8ff" points="390.4,-194.5 400.4,-191 390.4,-187.5 390.4,-194.5"/>
</a>
</g>
</g>
<!-- Node10 -->
<g id="Node000010" class="node">
<title>Node10</title>
<g id="a_Node000010"><a xlink:href="structdepicture__menu_1_1domain_1_1menu_1_1radialmenu.html#a9f7df112e576efff8ee7b38444bd960b" target="_top" xlink:title=" ">
<polygon fill="white" stroke="#666666" points="528,-151 398.75,-151 398.75,-119 528,-119 528,-151"/>
<text xml:space="preserve" text-anchor="start" x="406.75" y="-137.5" font-family="Helvetica,sans-Serif" font-size="10.00">depicture_menu::domain</text>
<text xml:space="preserve" text-anchor="middle" x="463.38" y="-125.5" font-family="Helvetica,sans-Serif" font-size="10.00">::menu::radialmenu::items</text>
</a>
</g>
</g>
<!-- Node7&#45;&gt;Node10 -->
<g id="edge11_Node000007_Node000010" class="edge">
<title>Node7&#45;&gt;Node10</title>
<g id="a_edge11_Node000007_Node000010"><a xlink:title=" ">
<path fill="none" stroke="#63b8ff" d="M323.95,-180.6C345.81,-173.4 375.59,-163.59 401.94,-154.91"/>
<polygon fill="#63b8ff" stroke="#63b8ff" points="402.76,-158.32 411.16,-151.87 400.57,-151.68 402.76,-158.32"/>
</a>
</g>
</g>
<!-- Node11 -->
<g id="Node000011" class="node">
<title>Node11</title>
<g id="a_Node000011"><a xlink:href="namespacedetail.html#a359da91d8e882921d526b9c247535941" target="_top" xlink:title=" ">
<polygon fill="white" stroke="#666666" points="523.12,-101 403.62,-101 403.62,-81 523.12,-81 523.12,-101"/>
<text xml:space="preserve" text-anchor="middle" x="463.38" y="-87.5" font-family="Helvetica,sans-Serif" font-size="10.00">detail::sync_menu_item</text>
</a>
</g>
</g>
<!-- Node7&#45;&gt;Node11 -->
<g id="edge12_Node000007_Node000011" class="edge">
<title>Node7&#45;&gt;Node11</title>
<g id="a_edge12_Node000007_Node000011"><a xlink:title=" ">
<path fill="none" stroke="#63b8ff" d="M303.25,-180.53C321.55,-163.46 360.27,-129.57 398.75,-110 402.04,-108.33 405.5,-106.78 409.04,-105.34"/>
<polygon fill="#63b8ff" stroke="#63b8ff" points="410.19,-108.65 418.37,-101.91 407.77,-102.08 410.19,-108.65"/>
</a>
</g>
</g>
<!-- Node12 -->
<g id="Node000012" class="node">
<title>Node12</title>
<g id="a_Node000012"><a xlink:href="structdepicture__menu_1_1domain_1_1menu_1_1radialmenu__item.html#a8eba68344da6fb2bce085404df9ff831" target="_top" xlink:title=" ">
<polygon fill="white" stroke="#666666" points="687.25,-206 564,-206 564,-162 687.25,-162 687.25,-206"/>
<text xml:space="preserve" text-anchor="start" x="572" y="-192.5" font-family="Helvetica,sans-Serif" font-size="10.00">depicture_menu::domain</text>
<text xml:space="preserve" text-anchor="start" x="572" y="-180.5" font-family="Helvetica,sans-Serif" font-size="10.00">::menu::radialmenu_item</text>
<text xml:space="preserve" text-anchor="middle" x="625.62" y="-168.5" font-family="Helvetica,sans-Serif" font-size="10.00">::background</text>
</a>
</g>
</g>
<!-- Node11&#45;&gt;Node12 -->
<g id="edge13_Node000011_Node000012" class="edge">
<title>Node11&#45;&gt;Node12</title>
<g id="a_edge13_Node000011_Node000012"><a xlink:title=" ">
<path fill="none" stroke="#63b8ff" d="M510.99,-101.43C516.96,-103.75 522.8,-106.58 528,-110 548.82,-123.7 544.51,-137.46 564,-153 564.95,-153.76 565.92,-154.5 566.9,-155.23"/>
<polygon fill="#63b8ff" stroke="#63b8ff" points="564.69,-157.96 574.93,-160.68 568.62,-152.17 564.69,-157.96"/>
</a>
</g>
</g>
<!-- Node13 -->
<g id="Node000013" class="node">
<title>Node13</title>
<g id="a_Node000013"><a xlink:href="structdepicture__menu_1_1domain_1_1menu_1_1radialmenu__item.html#a401fbb41b8231960bb8443168ddb56a5" target="_top" xlink:title=" ">
<polygon fill="white" stroke="#666666" points="687.25,-144 564,-144 564,-100 687.25,-100 687.25,-144"/>
<text xml:space="preserve" text-anchor="start" x="572" y="-130.5" font-family="Helvetica,sans-Serif" font-size="10.00">depicture_menu::domain</text>
<text xml:space="preserve" text-anchor="start" x="572" y="-118.5" font-family="Helvetica,sans-Serif" font-size="10.00">::menu::radialmenu_item</text>
<text xml:space="preserve" text-anchor="middle" x="625.62" y="-106.5" font-family="Helvetica,sans-Serif" font-size="10.00">::current_action_id</text>
</a>
</g>
</g>
<!-- Node11&#45;&gt;Node13 -->
<g id="edge14_Node000011_Node000013" class="edge">
<title>Node11&#45;&gt;Node13</title>
<g id="a_edge14_Node000011_Node000013"><a xlink:title=" ">
<path fill="none" stroke="#63b8ff" d="M518.63,-101.5C529.46,-103.59 540.99,-105.82 552.31,-108.01"/>
<polygon fill="#63b8ff" stroke="#63b8ff" points="551.57,-111.43 562.05,-109.89 552.89,-104.56 551.57,-111.43"/>
</a>
</g>
</g>
<!-- Node16 -->
<g id="Node000016" class="node">
<title>Node16</title>
<g id="a_Node000016"><a xlink:href="structdepicture__menu_1_1domain_1_1menu_1_1radialmenu__item.html#a4345d8dc99a845f0a3bc8c9210f01e42" target="_top" xlink:title=" ">
<polygon fill="white" stroke="#666666" points="687.25,-82 564,-82 564,-38 687.25,-38 687.25,-82"/>
<text xml:space="preserve" text-anchor="start" x="572" y="-68.5" font-family="Helvetica,sans-Serif" font-size="10.00">depicture_menu::domain</text>
<text xml:space="preserve" text-anchor="start" x="572" y="-56.5" font-family="Helvetica,sans-Serif" font-size="10.00">::menu::radialmenu_item</text>
<text xml:space="preserve" text-anchor="middle" x="625.62" y="-44.5" font-family="Helvetica,sans-Serif" font-size="10.00">::label</text>
</a>
</g>
</g>
<!-- Node11&#45;&gt;Node16 -->
<g id="edge17_Node000011_Node000016" class="edge">
<title>Node11&#45;&gt;Node16</title>
<g id="a_edge17_Node000011_Node000016"><a xlink:title=" ">
<path fill="none" stroke="#63b8ff" d="M518.63,-80.5C529.46,-78.41 540.99,-76.18 552.31,-73.99"/>
<polygon fill="#63b8ff" stroke="#63b8ff" points="552.89,-77.44 562.05,-72.11 551.57,-70.57 552.89,-77.44"/>
</a>
</g>
</g>
<!-- Node17 -->
<g id="Node000017" class="node">
<title>Node17</title>
<g id="a_Node000017"><a xlink:href="namespaceconv.html#af20d99984cac388d83795a94f7e44d03" target="_top" xlink:title=" ">
<polygon fill="white" stroke="#666666" points="663.25,-20 588,-20 588,0 663.25,0 663.25,-20"/>
<text xml:space="preserve" text-anchor="middle" x="625.62" y="-6.5" font-family="Helvetica,sans-Serif" font-size="10.00">conv::to_argb</text>
</a>
</g>
</g>
<!-- Node11&#45;&gt;Node17 -->
<g id="edge18_Node000011_Node000017" class="edge">
<title>Node11&#45;&gt;Node17</title>
<g id="a_edge18_Node000011_Node000017"><a xlink:title=" ">
<path fill="none" stroke="#63b8ff" d="M478.57,-80.54C497.34,-67.11 531.78,-43.78 564,-29 568.06,-27.14 572.35,-25.39 576.69,-23.77"/>
<polygon fill="#63b8ff" stroke="#63b8ff" points="577.8,-27.09 586.09,-20.49 575.49,-20.48 577.8,-27.09"/>
</a>
</g>
</g>
<!-- Node14 -->
<g id="Node000014" class="node">
<title>Node14</title>
<g id="a_Node000014"><a xlink:href="structdepicture__menu_1_1domain_1_1menu_1_1radialmenu__item.html#abaa0796bacff30852dbdf9eee08d38b2" target="_top" xlink:title=" ">
<polygon fill="white" stroke="#666666" points="846.5,-144 723.25,-144 723.25,-100 846.5,-100 846.5,-144"/>
<text xml:space="preserve" text-anchor="start" x="731.25" y="-130.5" font-family="Helvetica,sans-Serif" font-size="10.00">depicture_menu::domain</text>
<text xml:space="preserve" text-anchor="start" x="731.25" y="-118.5" font-family="Helvetica,sans-Serif" font-size="10.00">::menu::radialmenu_item</text>
<text xml:space="preserve" text-anchor="middle" x="784.88" y="-106.5" font-family="Helvetica,sans-Serif" font-size="10.00">::current_index</text>
</a>
</g>
</g>
<!-- Node13&#45;&gt;Node14 -->
<g id="edge15_Node000013_Node000014" class="edge">
<title>Node13&#45;&gt;Node14</title>
<g id="a_edge15_Node000013_Node000014"><a xlink:title=" ">
<path fill="none" stroke="#63b8ff" d="M687.42,-122C695.35,-122 703.54,-122 711.63,-122"/>
<polygon fill="#63b8ff" stroke="#63b8ff" points="711.47,-125.5 721.47,-122 711.47,-118.5 711.47,-125.5"/>
</a>
</g>
</g>
<!-- Node15 -->
<g id="Node000015" class="node">
<title>Node15</title>
<g id="a_Node000015"><a xlink:href="structdepicture__menu_1_1domain_1_1menu_1_1radialmenu__item.html#adee607b452fafcf8b6aa3ce5471f87a4" target="_top" xlink:title=" ">
<polygon fill="white" stroke="#666666" points="1005.75,-144 882.5,-144 882.5,-100 1005.75,-100 1005.75,-144"/>
<text xml:space="preserve" text-anchor="start" x="890.5" y="-130.5" font-family="Helvetica,sans-Serif" font-size="10.00">depicture_menu::domain</text>
<text xml:space="preserve" text-anchor="start" x="890.5" y="-118.5" font-family="Helvetica,sans-Serif" font-size="10.00">::menu::radialmenu_item</text>
<text xml:space="preserve" text-anchor="middle" x="944.12" y="-106.5" font-family="Helvetica,sans-Serif" font-size="10.00">::com_kind_to_index</text>
</a>
</g>
</g>
<!-- Node14&#45;&gt;Node15 -->
<g id="edge16_Node000014_Node000015" class="edge">
<title>Node14&#45;&gt;Node15</title>
<g id="a_edge16_Node000014_Node000015"><a xlink:title=" ">
<path fill="none" stroke="#63b8ff" d="M846.67,-122C854.6,-122 862.79,-122 870.88,-122"/>
<polygon fill="#63b8ff" stroke="#63b8ff" points="870.72,-125.5 880.72,-122 870.72,-118.5 870.72,-125.5"/>
</a>
</g>
</g>
<!-- Node18 -->
<g id="Node000018" class="node">
<title>Node18</title>
<g id="a_Node000018"><a xlink:href="namespaceconv.html#a0d36dbff0aca8cee63ee6327d838b728" target="_top" xlink:title=" ">
<polygon fill="white" stroke="#666666" points="834.5,-20 735.25,-20 735.25,0 834.5,0 834.5,-20"/>
<text xml:space="preserve" text-anchor="middle" x="784.88" y="-6.5" font-family="Helvetica,sans-Serif" font-size="10.00">conv::rgba_to_argb</text>
</a>
</g>
</g>
<!-- Node17&#45;&gt;Node18 -->
<g id="edge19_Node000017_Node000018" class="edge">
<title>Node17&#45;&gt;Node18</title>
<g id="a_edge19_Node000017_Node000018"><a xlink:title=" ">
<path fill="none" stroke="#63b8ff" d="M663.49,-10C681.41,-10 703.4,-10 723.66,-10"/>
<polygon fill="#63b8ff" stroke="#63b8ff" points="723.51,-13.5 733.51,-10 723.51,-6.5 723.51,-13.5"/>
</a>
</g>
</g>
</g>
</svg>
