<?xml version="1.0" encoding="UTF-8" standalone="no"?>
<!DOCTYPE svg PUBLIC "-//W3C//DTD SVG 1.1//EN"
 "http://www.w3.org/Graphics/SVG/1.1/DTD/svg11.dtd">
<!-- Generated by graphviz version 14.1.2 (20260124.0452)
 -->
<!-- Title: depicture_menu::usecase::backup::import_backup::done_import Pages: 1 -->
<!--zoomable 357 -->

<svg id="main" version="1.1" xmlns="http://www.w3.org/2000/svg" xmlns:xlink="http://www.w3.org/1999/xlink" xml:space="preserve" onload="init(evt)">

<style type="text/css"><![CDATA[
.node, .edge {opacity: 0.7;}
.node.selected, .edge.selected {opacity: 1;}
.edge:hover path { stroke: red; }
.edge:hover polygon { stroke: red; fill: red; }
]]></style>

<defs>
  <circle id="rim" cx="0" cy="0" r="7"/>
  <circle id="rim2" cx="0" cy="0" r="3.5"/>
  <g id="zoomPlus">
    <use xlink:href="#rim" fill="#404040"><set attributeName="fill" to="#808080" begin="zoomplus.mouseover" end="zoomplus.mouseout"/></use>
    <path d="M-4,0h8M0,-4v8" fill="none" stroke="white" stroke-width="1.5" pointer-events="none"/>
  </g>
  <g id="zoomMin">
    <use xlink:href="#rim" fill="#404040"><set attributeName="fill" to="#808080" begin="zoomminus.mouseover" end="zoomminus.mouseout"/></use>
    <path d="M-4,0h8" fill="none" stroke="white" stroke-width="1.5" pointer-events="none"/>
  </g>
  <g id="arrowUp" transform="translate(30 24)">
    <use xlink:href="#rim"/>
    <path pointer-events="none" fill="none" stroke="white" stroke-width="1.5" d="M0,-3.0v7 M-2.5,-0.5L0,-3.0L2.5,-0.5"/>
  </g>
  <g id="arrowRight" transform="rotate(90) translate(36 -43)">
    <use xlink:href="#rim"/>
    <path pointer-events="none" fill="none" stroke="white" stroke-width="1.5" d="M0,-3.0v7 M-2.5,-0.5L0,-3.0L2.5,-0.5"/>
  </g>
  <g id="arrowDown" transform="rotate(180) translate(-30 -48)">
    <use xlink:href="#rim"/>
    <path pointer-events="none" fill="none" stroke="white" stroke-width="1.5" d="M0,-3.0v7 M-2.5,-0.5L0,-3.0L2.5,-0.5"/>
  </g>
  <g id="arrowLeft" transform="rotate(270) translate(-36 17)">
    <use xlink:href="#rim"/>
    <path pointer-events="none" fill="none" stroke="white" stroke-width="1.5" d="M0,-3.0v7 M-2.5,-0.5L0,-3.0L2.5,-0.5"/>
  </g>
  <g id="resetDef">
    <use xlink:href="#rim2" fill="#404040"><set attributeName="fill" to="#808080" begin="reset.mouseover" end="reset.mouseout"/></use>
  </g>
</defs>
<script type="application/ecmascript">
var viewWidth = 636;
var viewHeight = 357;
var sectionId = 'dynsection-0';
</script>
<script type="application/ecmascript" xlink:href="svg.min.js"/>
<svg id="graph" class="graph">
<g id="viewport">
<title>depicture_menu::usecase::backup::import_backup::done_import</title>
<!-- Node1 -->
<g id="Node000001" class="node">
<title>Node1</title>
<g id="a_Node000001"><a xlink:title=" ">
<polygon fill="#999999" stroke="#666666" points="127.75,-97 0,-97 0,-53 127.75,-53 127.75,-97"/>
<text xml:space="preserve" text-anchor="start" x="8" y="-83.5" font-family="Helvetica,sans-Serif" font-size="10.00">depicture_menu::usecase</text>
<text xml:space="preserve" text-anchor="start" x="8" y="-71.5" font-family="Helvetica,sans-Serif" font-size="10.00">::backup::import_backup</text>
<text xml:space="preserve" text-anchor="middle" x="63.88" y="-59.5" font-family="Helvetica,sans-Serif" font-size="10.00">::done_import</text>
</a>
</g>
</g>
<!-- Node2 -->
<g id="Node000002" class="node">
<title>Node2</title>
<g id="a_Node000002"><a xlink:href="namespacedepicture__menu_1_1usecase_1_1backup.html#abdcff53881bb37c6cd4cce8bd8385973" target="_top" xlink:title=" ">
<polygon fill="white" stroke="#666666" points="291.5,-156 163.75,-156 163.75,-112 291.5,-112 291.5,-156"/>
<text xml:space="preserve" text-anchor="start" x="171.75" y="-142.5" font-family="Helvetica,sans-Serif" font-size="10.00">depicture_menu::usecase</text>
<text xml:space="preserve" text-anchor="start" x="171.75" y="-130.5" font-family="Helvetica,sans-Serif" font-size="10.00">::backup::create_config</text>
<text xml:space="preserve" text-anchor="middle" x="227.62" y="-118.5" font-family="Helvetica,sans-Serif" font-size="10.00">_entity</text>
</a>
</g>
</g>
<!-- Node1&#45;&gt;Node2 -->
<g id="edge1_Node000001_Node000002" class="edge">
<title>Node1&#45;&gt;Node2</title>
<g id="a_edge1_Node000001_Node000002"><a xlink:title=" ">
<path fill="none" stroke="#63b8ff" d="M126.49,-97.47C135.7,-100.83 145.26,-104.32 154.67,-107.75"/>
<polygon fill="#63b8ff" stroke="#63b8ff" points="153.17,-110.93 163.76,-111.07 155.57,-104.36 153.17,-110.93"/>
</a>
</g>
</g>
<!-- Node11 -->
<g id="Node000011" class="node">
<title>Node11</title>
<g id="a_Node000011"><a xlink:href="namespacedepicture__menu_1_1usecase_1_1backup.html#a577cce635c92d77f66057ca959745435" target="_top" xlink:title=" ">
<polygon fill="white" stroke="#666666" points="291.5,-66 163.75,-66 163.75,-22 291.5,-22 291.5,-66"/>
<text xml:space="preserve" text-anchor="start" x="171.75" y="-52.5" font-family="Helvetica,sans-Serif" font-size="10.00">depicture_menu::usecase</text>
<text xml:space="preserve" text-anchor="start" x="171.75" y="-40.5" font-family="Helvetica,sans-Serif" font-size="10.00">::backup::create_option</text>
<text xml:space="preserve" text-anchor="middle" x="227.62" y="-28.5" font-family="Helvetica,sans-Serif" font-size="10.00">_entity</text>
</a>
</g>
</g>
<!-- Node1&#45;&gt;Node11 -->
<g id="edge10_Node000001_Node000011" class="edge">
<title>Node1&#45;&gt;Node11</title>
<g id="a_edge10_Node000001_Node000011"><a xlink:title=" ">
<path fill="none" stroke="#63b8ff" d="M127.87,-62.93C135.77,-61.41 143.91,-59.85 151.97,-58.31"/>
<polygon fill="#63b8ff" stroke="#63b8ff" points="152.62,-61.75 161.78,-56.43 151.3,-54.87 152.62,-61.75"/>
</a>
</g>
</g>
<!-- Node3 -->
<g id="Node000003" class="node">
<title>Node3</title>
<g id="a_Node000003"><a xlink:href="structdepicture__menu_1_1domain_1_1common_1_1rgba__color.html#af628cd8308653e5f05ee6bbdd070e054" target="_top" xlink:title="RGBAカラーコンセプトから構成">
<polygon fill="white" stroke="#666666" points="459.75,-280 337.25,-280 337.25,-236 459.75,-236 459.75,-280"/>
<text xml:space="preserve" text-anchor="start" x="345.25" y="-266.5" font-family="Helvetica,sans-Serif" font-size="10.00">depicture_menu::domain</text>
<text xml:space="preserve" text-anchor="start" x="345.25" y="-254.5" font-family="Helvetica,sans-Serif" font-size="10.00">::common::rgba_color::</text>
<text xml:space="preserve" text-anchor="middle" x="398.5" y="-242.5" font-family="Helvetica,sans-Serif" font-size="10.00">from_rgba</text>
</a>
</g>
</g>
<!-- Node2&#45;&gt;Node3 -->
<g id="edge2_Node000002_Node000003" class="edge">
<title>Node2&#45;&gt;Node3</title>
<g id="a_edge2_Node000002_Node000003"><a xlink:title=" ">
<path fill="none" stroke="#63b8ff" d="M248.08,-156.18C266.85,-176.59 296.87,-206.67 327.5,-227 329.06,-228.04 330.66,-229.05 332.29,-230.05"/>
<polygon fill="#63b8ff" stroke="#63b8ff" points="330.18,-232.87 340.6,-234.76 333.63,-226.78 330.18,-232.87"/>
</a>
</g>
</g>
<!-- Node8 -->
<g id="Node000008" class="node">
<title>Node8</title>
<g id="a_Node000008"><a xlink:href="classdepicture__menu_1_1domain_1_1app_1_1config.html#a277219fdedbac934a47f1652b14d42ed" target="_top" xlink:title=" ">
<polygon fill="white" stroke="#666666" points="460.5,-218 336.5,-218 336.5,-174 460.5,-174 460.5,-218"/>
<text xml:space="preserve" text-anchor="start" x="344.5" y="-204.5" font-family="Helvetica,sans-Serif" font-size="10.00">depicture_menu::domain</text>
<text xml:space="preserve" text-anchor="start" x="344.5" y="-192.5" font-family="Helvetica,sans-Serif" font-size="10.00">::app::config::set_default</text>
<text xml:space="preserve" text-anchor="middle" x="398.5" y="-180.5" font-family="Helvetica,sans-Serif" font-size="10.00">_menu_color</text>
</a>
</g>
</g>
<!-- Node2&#45;&gt;Node8 -->
<g id="edge7_Node000002_Node000008" class="edge">
<title>Node2&#45;&gt;Node8</title>
<g id="a_edge7_Node000002_Node000008"><a xlink:title=" ">
<path fill="none" stroke="#63b8ff" d="M289.59,-156.38C301.36,-160.7 313.78,-165.26 325.85,-169.69"/>
<polygon fill="#63b8ff" stroke="#63b8ff" points="324.32,-172.86 334.92,-173.02 326.74,-166.29 324.32,-172.86"/>
</a>
</g>
</g>
<!-- Node9 -->
<g id="Node000009" class="node">
<title>Node9</title>
<g id="a_Node000009"><a xlink:href="classdepicture__menu_1_1domain_1_1app_1_1config.html#a630f190966199e59d26d70432de50349" target="_top" xlink:title=" ">
<polygon fill="white" stroke="#666666" points="460.5,-156 336.5,-156 336.5,-112 460.5,-112 460.5,-156"/>
<text xml:space="preserve" text-anchor="start" x="344.5" y="-142.5" font-family="Helvetica,sans-Serif" font-size="10.00">depicture_menu::domain</text>
<text xml:space="preserve" text-anchor="start" x="344.5" y="-130.5" font-family="Helvetica,sans-Serif" font-size="10.00">::app::config::set_default</text>
<text xml:space="preserve" text-anchor="middle" x="398.5" y="-118.5" font-family="Helvetica,sans-Serif" font-size="10.00">_menu_dimension</text>
</a>
</g>
</g>
<!-- Node2&#45;&gt;Node9 -->
<g id="edge8_Node000002_Node000009" class="edge">
<title>Node2&#45;&gt;Node9</title>
<g id="a_edge8_Node000002_Node000009"><a xlink:title=" ">
<path fill="none" stroke="#63b8ff" d="M291.99,-134C302.69,-134 313.86,-134 324.78,-134"/>
<polygon fill="#63b8ff" stroke="#63b8ff" points="324.51,-137.5 334.51,-134 324.51,-130.5 324.51,-137.5"/>
</a>
</g>
</g>
<!-- Node10 -->
<g id="Node000010" class="node">
<title>Node10</title>
<g id="a_Node000010"><a xlink:href="classdepicture__menu_1_1domain_1_1app_1_1config.html#aed6b79f3c53c524d7e8223c385d4a258" target="_top" xlink:title=" ">
<polygon fill="white" stroke="#666666" points="460.5,-94 336.5,-94 336.5,-50 460.5,-50 460.5,-94"/>
<text xml:space="preserve" text-anchor="start" x="344.5" y="-80.5" font-family="Helvetica,sans-Serif" font-size="10.00">depicture_menu::domain</text>
<text xml:space="preserve" text-anchor="start" x="344.5" y="-68.5" font-family="Helvetica,sans-Serif" font-size="10.00">::app::config::set_default</text>
<text xml:space="preserve" text-anchor="middle" x="398.5" y="-56.5" font-family="Helvetica,sans-Serif" font-size="10.00">_menu_id</text>
</a>
</g>
</g>
<!-- Node2&#45;&gt;Node10 -->
<g id="edge9_Node000002_Node000010" class="edge">
<title>Node2&#45;&gt;Node10</title>
<g id="a_edge9_Node000002_Node000010"><a xlink:title=" ">
<path fill="none" stroke="#63b8ff" d="M289.59,-111.62C301.36,-107.3 313.78,-102.74 325.85,-98.31"/>
<polygon fill="#63b8ff" stroke="#63b8ff" points="326.74,-101.71 334.92,-94.98 324.32,-95.14 326.74,-101.71"/>
</a>
</g>
</g>
<!-- Node4 -->
<g id="Node000004" class="node">
<title>Node4</title>
<g id="a_Node000004"><a xlink:href="namespacedepicture__menu_1_1domain_1_1common.html#a45530f48fa4d5ac4595cc9c279263846" target="_top" xlink:title=" ">
<polygon fill="white" stroke="#666666" points="628,-349 505.5,-349 505.5,-317 628,-317 628,-349"/>
<text xml:space="preserve" text-anchor="start" x="513.5" y="-335.5" font-family="Helvetica,sans-Serif" font-size="10.00">depicture_menu::domain</text>
<text xml:space="preserve" text-anchor="middle" x="566.75" y="-323.5" font-family="Helvetica,sans-Serif" font-size="10.00">::common::get_blue</text>
</a>
</g>
</g>
<!-- Node3&#45;&gt;Node4 -->
<g id="edge3_Node000003_Node000004" class="edge">
<title>Node3&#45;&gt;Node4</title>
<g id="a_edge3_Node000003_Node000004"><a xlink:title=" ">
<path fill="none" stroke="#63b8ff" d="M445.72,-280.38C464.22,-289.19 485.78,-299.26 505.5,-308 508.61,-309.38 511.82,-310.78 515.06,-312.17"/>
<polygon fill="#63b8ff" stroke="#63b8ff" points="513.48,-315.3 524.06,-316 516.22,-308.86 513.48,-315.3"/>
</a>
</g>
</g>
<!-- Node5 -->
<g id="Node000005" class="node">
<title>Node5</title>
<g id="a_Node000005"><a xlink:href="namespacedepicture__menu_1_1domain_1_1common.html#ae234959f503d97b8bc6352178b766dd9" target="_top" xlink:title=" ">
<polygon fill="white" stroke="#666666" points="628,-299 505.5,-299 505.5,-267 628,-267 628,-299"/>
<text xml:space="preserve" text-anchor="start" x="513.5" y="-285.5" font-family="Helvetica,sans-Serif" font-size="10.00">depicture_menu::domain</text>
<text xml:space="preserve" text-anchor="middle" x="566.75" y="-273.5" font-family="Helvetica,sans-Serif" font-size="10.00">::common::get_green</text>
</a>
</g>
</g>
<!-- Node3&#45;&gt;Node5 -->
<g id="edge4_Node000003_Node000005" class="edge">
<title>Node3&#45;&gt;Node5</title>
<g id="a_edge4_Node000003_Node000005"><a xlink:title=" ">
<path fill="none" stroke="#63b8ff" d="M459.99,-267.1C470.99,-268.75 482.57,-270.49 493.86,-272.19"/>
<polygon fill="#63b8ff" stroke="#63b8ff" points="493.12,-275.62 503.53,-273.64 494.16,-268.7 493.12,-275.62"/>
</a>
</g>
</g>
<!-- Node6 -->
<g id="Node000006" class="node">
<title>Node6</title>
<g id="a_Node000006"><a xlink:href="namespacedepicture__menu_1_1domain_1_1common.html#afb147477d1ce5fd2575e8700a3777f00" target="_top" xlink:title=" ">
<polygon fill="white" stroke="#666666" points="628,-249 505.5,-249 505.5,-217 628,-217 628,-249"/>
<text xml:space="preserve" text-anchor="start" x="513.5" y="-235.5" font-family="Helvetica,sans-Serif" font-size="10.00">depicture_menu::domain</text>
<text xml:space="preserve" text-anchor="middle" x="566.75" y="-223.5" font-family="Helvetica,sans-Serif" font-size="10.00">::common::get_opacity</text>
</a>
</g>
</g>
<!-- Node3&#45;&gt;Node6 -->
<g id="edge5_Node000003_Node000006" class="edge">
<title>Node3&#45;&gt;Node6</title>
<g id="a_edge5_Node000003_Node000006"><a xlink:title=" ">
<path fill="none" stroke="#63b8ff" d="M459.99,-248.9C470.99,-247.25 482.57,-245.51 493.86,-243.81"/>
<polygon fill="#63b8ff" stroke="#63b8ff" points="494.16,-247.3 503.53,-242.36 493.12,-240.38 494.16,-247.3"/>
</a>
</g>
</g>
<!-- Node7 -->
<g id="Node000007" class="node">
<title>Node7</title>
<g id="a_Node000007"><a xlink:href="namespacedepicture__menu_1_1domain_1_1common.html#ac64a5f4b93851c489aeaab246bb04cfa" target="_top" xlink:title=" ">
<polygon fill="white" stroke="#666666" points="628,-199 505.5,-199 505.5,-167 628,-167 628,-199"/>
<text xml:space="preserve" text-anchor="start" x="513.5" y="-185.5" font-family="Helvetica,sans-Serif" font-size="10.00">depicture_menu::domain</text>
<text xml:space="preserve" text-anchor="middle" x="566.75" y="-173.5" font-family="Helvetica,sans-Serif" font-size="10.00">::common::get_red</text>
</a>
</g>
</g>
<!-- Node3&#45;&gt;Node7 -->
<g id="edge6_Node000003_Node000007" class="edge">
<title>Node3&#45;&gt;Node7</title>
<g id="a_edge6_Node000003_Node000007"><a xlink:title=" ">
<path fill="none" stroke="#63b8ff" d="M451.29,-235.54C457.46,-232.73 463.64,-229.84 469.5,-227 485.78,-219.11 489.13,-215.7 505.5,-208 508.38,-206.64 511.36,-205.29 514.37,-203.94"/>
<polygon fill="#63b8ff" stroke="#63b8ff" points="515.54,-207.25 523.3,-200.05 512.74,-200.83 515.54,-207.25"/>
</a>
</g>
</g>
<!-- Node12 -->
<g id="Node000012" class="node">
<title>Node12</title>
<g id="a_Node000012"><a xlink:href="classdepicture__menu_1_1domain_1_1app_1_1option.html#afd723decd4436140f0f0a247f4bb101d" target="_top" xlink:title="コンフィグIDをリセット">
<polygon fill="white" stroke="#666666" points="469.5,-32 327.5,-32 327.5,0 469.5,0 469.5,-32"/>
<text xml:space="preserve" text-anchor="start" x="335.5" y="-18.5" font-family="Helvetica,sans-Serif" font-size="10.00">depicture_menu::domain</text>
<text xml:space="preserve" text-anchor="middle" x="398.5" y="-6.5" font-family="Helvetica,sans-Serif" font-size="10.00">::app::option::reset_config_id</text>
</a>
</g>
</g>
<!-- Node11&#45;&gt;Node12 -->
<g id="edge11_Node000011_Node000012" class="edge">
<title>Node11&#45;&gt;Node12</title>
<g id="a_edge11_Node000011_Node000012"><a xlink:title=" ">
<path fill="none" stroke="#63b8ff" d="M291.99,-33.49C299.81,-32.2 307.9,-30.86 315.94,-29.52"/>
<polygon fill="#63b8ff" stroke="#63b8ff" points="316.48,-32.98 325.77,-27.89 315.33,-26.08 316.48,-32.98"/>
</a>
</g>
</g>
</g>
</svg>

<g id="navigator" transform="translate(0 0)" fill="#404254">
  <rect fill="#f2f5e9" fill-opacity="0.5" stroke="#606060" stroke-width=".5" x="0" y="0" width="60" height="60"/>
  <use id="zoomplus" xlink:href="#zoomPlus" x="17" y="9" onmousedown="handleZoom(evt,'in')"/>
  <use id="zoomminus" xlink:href="#zoomMin" x="42" y="9" onmousedown="handleZoom(evt,'out')"/>
  <use id="reset" xlink:href="#resetDef" x="30" y="36" onmousedown="handleReset()"/>
   <use id="arrowup" xlink:href="#arrowUp" x="0" y="0" onmousedown="handlePan(0,-1)"/>
  <use id="arrowright" xlink:href="#arrowRight" x="0" y="0" onmousedown="handlePan(1,0)"/>
  <use id="arrowdown" xlink:href="#arrowDown" x="0" y="0" onmousedown="handlePan(0,1)"/>
  <use id="arrowleft" xlink:href="#arrowLeft" x="0" y="0" onmousedown="handlePan(-1,0)"/>
</g>
<svg viewBox="0 0 15 15" width="100%" height="30px" preserveAspectRatio="xMaxYMin meet">
 <g id="arrow_out" transform="scale(0.3 0.3)">
  <a xlink:href="classdepicture__menu_1_1usecase_1_1backup_1_1import__backup_a88fb36efae995f4fdd54393605fdc7a1_cgraph_org.svg" target="_base">
   <rect id="button" ry="5" rx="5" y="6" x="6" height="38" width="38"
        fill="#f2f5e9" fill-opacity="0.5" stroke="#606060" stroke-width="1.0"/>
   <path id="arrow"
     d="M 11.500037,31.436501 C 11.940474,20.09759 22.043105,11.32322 32.158766,21.979434 L 37.068811,17.246167 C 37.068811,17.246167 37.088388,32 37.088388,32 L 22.160133,31.978069 C 22.160133,31.978069 26.997745,27.140456 26.997745,27.140456 C 18.528582,18.264221 13.291696,25.230495 11.500037,31.436501 z"
     style="fill:#404040;"/>
  </a>
 </g>
</svg>

<style type='text/css'>
<![CDATA[
[data-mouse-over-selected='false'] { opacity: 0.7; }
[data-mouse-over-selected='true']  { opacity: 1.0; }
]]>
</style>
<script type="application/ecmascript"><![CDATA[
document.addEventListener('DOMContentLoaded', (event) => {
  highlightEdges();
  highlightAdjacentNodes();
});
]]></script>
</svg>
