<?xml version="1.0" encoding="UTF-8" standalone="no"?>
<!DOCTYPE svg PUBLIC "-//W3C//DTD SVG 1.1//EN"
 "http://www.w3.org/Graphics/SVG/1.1/DTD/svg11.dtd">
<!-- Generated by graphviz version 14.1.2 (20260124.0452)
 -->
<!-- Title: depicture_menu::domain::commands::buildin::shellexecute_command_parameter::get_parameters Pages: 1 -->
<svg width="578pt" height="202pt"
 viewBox="0.00 0.00 578.00 202.00" xmlns="http://www.w3.org/2000/svg" xmlns:xlink="http://www.w3.org/1999/xlink">
<g id="graph0" class="graph" transform="scale(1 1) rotate(0) translate(4 198)">
<title>depicture_menu::domain::commands::buildin::shellexecute_command_parameter::get_parameters</title>
<!-- Node1 -->
<g id="Node000001" class="node">
<title>Node1</title>
<g id="a_Node000001"><a xlink:title=" ">
<polygon fill="#999999" stroke="#666666" points="570,-143 383.75,-143 383.75,-99 570,-99 570,-143"/>
<text xml:space="preserve" text-anchor="start" x="391.75" y="-129.5" font-family="Helvetica,sans-Serif" font-size="10.00">depicture_menu::domain</text>
<text xml:space="preserve" text-anchor="start" x="391.75" y="-117.5" font-family="Helvetica,sans-Serif" font-size="10.00">::commands::buildin::shellexecute</text>
<text xml:space="preserve" text-anchor="middle" x="476.88" y="-105.5" font-family="Helvetica,sans-Serif" font-size="10.00">_command_parameter::get_parameters</text>
</a>
</g>
</g>
<!-- Node2 -->
<g id="Node000002" class="node">
<title>Node2</title>
<g id="a_Node000002"><a xlink:href="menu__change__operation_8cpp.html#a47c493cda5dad7713cef20424cd34477" target="_top" xlink:title=" ">
<polygon fill="white" stroke="#666666" points="337.62,-194 190.38,-194 190.38,-174 337.62,-174 337.62,-194"/>
<text xml:space="preserve" text-anchor="middle" x="264" y="-180.5" font-family="Helvetica,sans-Serif" font-size="10.00">BOOST_AUTO_TEST_CASE</text>
</a>
</g>
</g>
<!-- Node1&#45;&gt;Node2 -->
<g id="edge1_Node000001_Node000002" class="edge">
<title>Node1&#45;&gt;Node2</title>
<g id="a_edge1_Node000001_Node000002"><a xlink:title=" ">
<path fill="none" stroke="#63b8ff" d="M403.88,-147.21C385.68,-153.42 366.1,-159.76 347.75,-165 336.98,-168.08 325.31,-171 314.22,-173.59"/>
<polygon fill="#63b8ff" stroke="#63b8ff" points="404.96,-150.54 413.27,-143.97 402.68,-143.92 404.96,-150.54"/>
</a>
</g>
</g>
<!-- Node3 -->
<g id="Node000003" class="node">
<title>Node3</title>
<g id="a_Node000003"><a xlink:href="test__action_8cpp.html#a76cb17cb71c58d3ec08740d206162213" target="_top" xlink:title=" ">
<polygon fill="white" stroke="#666666" points="337.62,-156 190.38,-156 190.38,-136 337.62,-136 337.62,-156"/>
<text xml:space="preserve" text-anchor="middle" x="264" y="-142.5" font-family="Helvetica,sans-Serif" font-size="10.00">BOOST_AUTO_TEST_CASE</text>
</a>
</g>
</g>
<!-- Node1&#45;&gt;Node3 -->
<g id="edge2_Node000001_Node000003" class="edge">
<title>Node1&#45;&gt;Node3</title>
<g id="a_edge2_Node000001_Node000003"><a xlink:title=" ">
<path fill="none" stroke="#63b8ff" d="M371.96,-133.32C360.52,-134.68 349.05,-136.04 338.09,-137.33"/>
<polygon fill="#63b8ff" stroke="#63b8ff" points="372.36,-136.8 381.88,-132.14 371.54,-129.85 372.36,-136.8"/>
</a>
</g>
</g>
<!-- Node4 -->
<g id="Node000004" class="node">
<title>Node4</title>
<g id="a_Node000004"><a xlink:href="classdepicture__menu_1_1domain_1_1services_1_1common__action__builder.html#ab7e5be9582146abe38706570dab881fa" target="_top" xlink:title=" ">
<polygon fill="white" stroke="#666666" points="347.75,-118 180.25,-118 180.25,-74 347.75,-74 347.75,-118"/>
<text xml:space="preserve" text-anchor="start" x="188.25" y="-104.5" font-family="Helvetica,sans-Serif" font-size="10.00">depicture_menu::domain</text>
<text xml:space="preserve" text-anchor="start" x="188.25" y="-92.5" font-family="Helvetica,sans-Serif" font-size="10.00">::services::common_action</text>
<text xml:space="preserve" text-anchor="middle" x="264" y="-80.5" font-family="Helvetica,sans-Serif" font-size="10.00">_builder::build_shellexecute_action</text>
</a>
</g>
</g>
<!-- Node1&#45;&gt;Node4 -->
<g id="edge3_Node000001_Node000004" class="edge">
<title>Node1&#45;&gt;Node4</title>
<g id="a_edge3_Node000001_Node000004"><a xlink:title=" ">
<path fill="none" stroke="#63b8ff" d="M372.06,-108.69C364.04,-107.74 356,-106.79 348.13,-105.86"/>
<polygon fill="#63b8ff" stroke="#63b8ff" points="371.54,-112.15 381.88,-109.86 372.36,-105.2 371.54,-112.15"/>
</a>
</g>
</g>
<!-- Node5 -->
<g id="Node000005" class="node">
<title>Node5</title>
<g id="a_Node000005"><a xlink:href="namespacedepicture__menu_1_1usecase_1_1detail__usecase__change__common__command.html#a6d70f2af0a0fcfc0be6439756fa3cf9a" target="_top" xlink:title=" ">
<polygon fill="white" stroke="#666666" points="344,-56 184,-56 184,0 344,0 344,-56"/>
<text xml:space="preserve" text-anchor="start" x="192" y="-42.5" font-family="Helvetica,sans-Serif" font-size="10.00">depicture_menu::usecase</text>
<text xml:space="preserve" text-anchor="start" x="192" y="-30.5" font-family="Helvetica,sans-Serif" font-size="10.00">::detail_usecase_change</text>
<text xml:space="preserve" text-anchor="start" x="192" y="-18.5" font-family="Helvetica,sans-Serif" font-size="10.00">_common_command::do_change</text>
<text xml:space="preserve" text-anchor="middle" x="264" y="-6.5" font-family="Helvetica,sans-Serif" font-size="10.00">_common_command</text>
</a>
</g>
</g>
<!-- Node1&#45;&gt;Node5 -->
<g id="edge4_Node000001_Node000005" class="edge">
<title>Node1&#45;&gt;Node5</title>
<g id="a_edge4_Node000001_Node000005"><a xlink:title=" ">
<path fill="none" stroke="#63b8ff" d="M414.7,-94.02C387.91,-82.21 356.47,-68.34 329.34,-56.37"/>
<polygon fill="#63b8ff" stroke="#63b8ff" points="413.15,-97.16 423.71,-98 415.97,-90.76 413.15,-97.16"/>
</a>
</g>
</g>
<!-- Node6 -->
<g id="Node000006" class="node">
<title>Node6</title>
<g id="a_Node000006"><a xlink:href="classdepicture__menu_1_1usecase_1_1change__common__command.html#a9e89104ab75616a2b9606a90d2f6bcbd" target="_top" xlink:title=" ">
<polygon fill="white" stroke="#666666" points="144.25,-50 0,-50 0,-6 144.25,-6 144.25,-50"/>
<text xml:space="preserve" text-anchor="start" x="8" y="-36.5" font-family="Helvetica,sans-Serif" font-size="10.00">depicture_menu::usecase</text>
<text xml:space="preserve" text-anchor="start" x="8" y="-24.5" font-family="Helvetica,sans-Serif" font-size="10.00">::change_common_command</text>
<text xml:space="preserve" text-anchor="middle" x="72.12" y="-12.5" font-family="Helvetica,sans-Serif" font-size="10.00">::operator()</text>
</a>
</g>
</g>
<!-- Node5&#45;&gt;Node6 -->
<g id="edge5_Node000005_Node000006" class="edge">
<title>Node5&#45;&gt;Node6</title>
<g id="a_edge5_Node000005_Node000006"><a xlink:title=" ">
<path fill="none" stroke="#63b8ff" d="M172.31,-28C163.03,-28 153.7,-28 144.67,-28"/>
<polygon fill="#63b8ff" stroke="#63b8ff" points="172.06,-31.5 182.06,-28 172.06,-24.5 172.06,-31.5"/>
</a>
</g>
</g>
</g>
</svg>
