<?xml version="1.0" encoding="UTF-8" standalone="no"?>
<!DOCTYPE svg PUBLIC "-//W3C//DTD SVG 1.1//EN"
 "http://www.w3.org/Graphics/SVG/1.1/DTD/svg11.dtd">
<!-- Generated by graphviz version 14.1.2 (20260124.0452)
 -->
<!-- Title: depicture_menu::domain::services::action_default_name_update_service::update Pages: 1 -->
<!--zoomable 226 -->

<svg id="main" version="1.1" xmlns="http://www.w3.org/2000/svg" xmlns:xlink="http://www.w3.org/1999/xlink" xml:space="preserve" onload="init(evt)">

<style type="text/css"><![CDATA[
.node, .edge {opacity: 0.7;}
.node.selected, .edge.selected {opacity: 1;}
.edge:hover path { stroke: red; }
.edge:hover polygon { stroke: red; fill: red; }
]]></style>

<defs>
  <circle id="rim" cx="0" cy="0" r="7"/>
  <circle id="rim2" cx="0" cy="0" r="3.5"/>
  <g id="zoomPlus">
    <use xlink:href="#rim" fill="#404040"><set attributeName="fill" to="#808080" begin="zoomplus.mouseover" end="zoomplus.mouseout"/></use>
    <path d="M-4,0h8M0,-4v8" fill="none" stroke="white" stroke-width="1.5" pointer-events="none"/>
  </g>
  <g id="zoomMin">
    <use xlink:href="#rim" fill="#404040"><set attributeName="fill" to="#808080" begin="zoomminus.mouseover" end="zoomminus.mouseout"/></use>
    <path d="M-4,0h8" fill="none" stroke="white" stroke-width="1.5" pointer-events="none"/>
  </g>
  <g id="arrowUp" transform="translate(30 24)">
    <use xlink:href="#rim"/>
    <path pointer-events="none" fill="none" stroke="white" stroke-width="1.5" d="M0,-3.0v7 M-2.5,-0.5L0,-3.0L2.5,-0.5"/>
  </g>
  <g id="arrowRight" transform="rotate(90) translate(36 -43)">
    <use xlink:href="#rim"/>
    <path pointer-events="none" fill="none" stroke="white" stroke-width="1.5" d="M0,-3.0v7 M-2.5,-0.5L0,-3.0L2.5,-0.5"/>
  </g>
  <g id="arrowDown" transform="rotate(180) translate(-30 -48)">
    <use xlink:href="#rim"/>
    <path pointer-events="none" fill="none" stroke="white" stroke-width="1.5" d="M0,-3.0v7 M-2.5,-0.5L0,-3.0L2.5,-0.5"/>
  </g>
  <g id="arrowLeft" transform="rotate(270) translate(-36 17)">
    <use xlink:href="#rim"/>
    <path pointer-events="none" fill="none" stroke="white" stroke-width="1.5" d="M0,-3.0v7 M-2.5,-0.5L0,-3.0L2.5,-0.5"/>
  </g>
  <g id="resetDef">
    <use xlink:href="#rim2" fill="#404040"><set attributeName="fill" to="#808080" begin="reset.mouseover" end="reset.mouseout"/></use>
  </g>
</defs>
<script type="application/ecmascript">
var viewWidth = 502;
var viewHeight = 226;
var sectionId = 'dynsection-0';
</script>
<script type="application/ecmascript" xlink:href="svg.min.js"/>
<svg id="graph" class="graph">
<g id="viewport">
<title>depicture_menu::domain::services::action_default_name_update_service::update</title>
<!-- Node1 -->
<g id="Node000001" class="node">
<title>Node1</title>
<g id="a_Node000001"><a xlink:title=" ">
<polygon fill="#999999" stroke="#666666" points="151.75,-128 0,-128 0,-84 151.75,-84 151.75,-128"/>
<text xml:space="preserve" text-anchor="start" x="8" y="-114.5" font-family="Helvetica,sans-Serif" font-size="10.00">depicture_menu::domain</text>
<text xml:space="preserve" text-anchor="start" x="8" y="-102.5" font-family="Helvetica,sans-Serif" font-size="10.00">::services::action_default</text>
<text xml:space="preserve" text-anchor="middle" x="75.88" y="-90.5" font-family="Helvetica,sans-Serif" font-size="10.00">_name_update_service::update</text>
</a>
</g>
</g>
<!-- Node2 -->
<g id="Node000002" class="node">
<title>Node2</title>
<g id="a_Node000002"><a xlink:href="classdepicture__menu_1_1domain_1_1actions_1_1v2_1_1publisher.html#ab25f4fa5d9979e93300a7dfb41d8bbb5" target="_top" xlink:title=" ">
<polygon fill="white" stroke="#666666" points="311.75,-218 189.25,-218 189.25,-174 311.75,-174 311.75,-218"/>
<text xml:space="preserve" text-anchor="start" x="197.25" y="-204.5" font-family="Helvetica,sans-Serif" font-size="10.00">depicture_menu::domain</text>
<text xml:space="preserve" text-anchor="start" x="197.25" y="-192.5" font-family="Helvetica,sans-Serif" font-size="10.00">::actions::v2::publisher</text>
<text xml:space="preserve" text-anchor="middle" x="250.5" y="-180.5" font-family="Helvetica,sans-Serif" font-size="10.00">::default_name</text>
</a>
</g>
</g>
<!-- Node1&#45;&gt;Node2 -->
<g id="edge1_Node000001_Node000002" class="edge">
<title>Node1&#45;&gt;Node2</title>
<g id="a_edge1_Node000001_Node000002"><a xlink:title=" ">
<path fill="none" stroke="#63b8ff" d="M118.35,-128.37C139.12,-139.5 164.7,-153.08 187.75,-165 189.96,-166.14 192.21,-167.3 194.49,-168.47"/>
<polygon fill="#63b8ff" stroke="#63b8ff" points="192.73,-171.5 203.23,-172.92 195.91,-165.26 192.73,-171.5"/>
</a>
</g>
</g>
<!-- Node3 -->
<g id="Node000003" class="node">
<title>Node3</title>
<g id="a_Node000003"><a xlink:href="classdepicture__menu_1_1domain_1_1actions_1_1v2_1_1publisher.html#a2e1eda34739a4aa44609b140dfda7d9e" target="_top" xlink:title=" ">
<polygon fill="white" stroke="#666666" points="313.25,-156 187.75,-156 187.75,-112 313.25,-112 313.25,-156"/>
<text xml:space="preserve" text-anchor="start" x="195.75" y="-142.5" font-family="Helvetica,sans-Serif" font-size="10.00">depicture_menu::domain</text>
<text xml:space="preserve" text-anchor="start" x="195.75" y="-130.5" font-family="Helvetica,sans-Serif" font-size="10.00">::actions::v2::publisher</text>
<text xml:space="preserve" text-anchor="middle" x="250.5" y="-118.5" font-family="Helvetica,sans-Serif" font-size="10.00">::get_command_id_range</text>
</a>
</g>
</g>
<!-- Node1&#45;&gt;Node3 -->
<g id="edge2_Node000001_Node000003" class="edge">
<title>Node1&#45;&gt;Node3</title>
<g id="a_edge2_Node000001_Node000003"><a xlink:title=" ">
<path fill="none" stroke="#63b8ff" d="M152.09,-118.2C160.12,-119.5 168.28,-120.83 176.28,-122.12"/>
<polygon fill="#63b8ff" stroke="#63b8ff" points="175.54,-125.55 185.97,-123.7 176.66,-118.64 175.54,-125.55"/>
</a>
</g>
</g>
<!-- Node4 -->
<g id="Node000004" class="node">
<title>Node4</title>
<g id="a_Node000004"><a xlink:href="namespacedepicture__menu_1_1util_1_1strconv.html#ae6043222bd0621e53262d5c29417c416" target="_top" xlink:title=" ">
<polygon fill="white" stroke="#666666" points="307.62,-94 193.38,-94 193.38,-62 307.62,-62 307.62,-94"/>
<text xml:space="preserve" text-anchor="start" x="201.38" y="-80.5" font-family="Helvetica,sans-Serif" font-size="10.00">depicture_menu::util</text>
<text xml:space="preserve" text-anchor="middle" x="250.5" y="-68.5" font-family="Helvetica,sans-Serif" font-size="10.00">::strconv::sjis_to_wide</text>
</a>
</g>
</g>
<!-- Node1&#45;&gt;Node4 -->
<g id="edge3_Node000001_Node000004" class="edge">
<title>Node1&#45;&gt;Node4</title>
<g id="a_edge3_Node000001_Node000004"><a xlink:title=" ">
<path fill="none" stroke="#63b8ff" d="M152.09,-93.8C161.95,-92.2 172.01,-90.57 181.73,-88.99"/>
<polygon fill="#63b8ff" stroke="#63b8ff" points="182.17,-92.47 191.48,-87.41 181.05,-85.56 182.17,-92.47"/>
</a>
</g>
</g>
<!-- Node5 -->
<g id="Node000005" class="node">
<title>Node5</title>
<g id="a_Node000005"><a xlink:href="classdepicture__menu_1_1domain_1_1actions_1_1v2_1_1publisher.html#a882bc16cc29faa92dd9773dc3fbcdfbb" target="_top" xlink:title=" ">
<polygon fill="white" stroke="#666666" points="311.75,-44 189.25,-44 189.25,0 311.75,0 311.75,-44"/>
<text xml:space="preserve" text-anchor="start" x="197.25" y="-30.5" font-family="Helvetica,sans-Serif" font-size="10.00">depicture_menu::domain</text>
<text xml:space="preserve" text-anchor="start" x="197.25" y="-18.5" font-family="Helvetica,sans-Serif" font-size="10.00">::actions::v2::publisher</text>
<text xml:space="preserve" text-anchor="middle" x="250.5" y="-6.5" font-family="Helvetica,sans-Serif" font-size="10.00">::update_default_name</text>
</a>
</g>
</g>
<!-- Node1&#45;&gt;Node5 -->
<g id="edge4_Node000001_Node000005" class="edge">
<title>Node1&#45;&gt;Node5</title>
<g id="a_edge4_Node000001_Node000005"><a xlink:title=" ">
<path fill="none" stroke="#63b8ff" d="M122.68,-83.71C144.34,-73.17 170.39,-60.49 193.24,-49.38"/>
<polygon fill="#63b8ff" stroke="#63b8ff" points="194.66,-52.58 202.12,-45.06 191.59,-46.28 194.66,-52.58"/>
</a>
</g>
</g>
<!-- Node6 -->
<g id="Node000006" class="node">
<title>Node6</title>
<g id="a_Node000006"><a xlink:href="classdepicture__menu_1_1domain_1_1actions_1_1v2_1_1publisher.html#adc656ab8ca20cd539024e45181209ed2" target="_top" xlink:title=" ">
<polygon fill="white" stroke="#666666" points="494.25,-38 349.25,-38 349.25,-6 494.25,-6 494.25,-38"/>
<text xml:space="preserve" text-anchor="start" x="357.25" y="-24.5" font-family="Helvetica,sans-Serif" font-size="10.00">depicture_menu::domain</text>
<text xml:space="preserve" text-anchor="middle" x="421.75" y="-12.5" font-family="Helvetica,sans-Serif" font-size="10.00">::actions::v2::publisher::name</text>
</a>
</g>
</g>
<!-- Node5&#45;&gt;Node6 -->
<g id="edge5_Node000005_Node000006" class="edge">
<title>Node5&#45;&gt;Node6</title>
<g id="a_edge5_Node000005_Node000006"><a xlink:title=" ">
<path fill="none" stroke="#63b8ff" d="M312.13,-22C320.44,-22 329.08,-22 337.71,-22"/>
<polygon fill="#63b8ff" stroke="#63b8ff" points="337.49,-25.5 347.49,-22 337.49,-18.5 337.49,-25.5"/>
</a>
</g>
</g>
</g>
</svg>

<g id="navigator" transform="translate(0 0)" fill="#404254">
  <rect fill="#f2f5e9" fill-opacity="0.5" stroke="#606060" stroke-width=".5" x="0" y="0" width="60" height="60"/>
  <use id="zoomplus" xlink:href="#zoomPlus" x="17" y="9" onmousedown="handleZoom(evt,'in')"/>
  <use id="zoomminus" xlink:href="#zoomMin" x="42" y="9" onmousedown="handleZoom(evt,'out')"/>
  <use id="reset" xlink:href="#resetDef" x="30" y="36" onmousedown="handleReset()"/>
   <use id="arrowup" xlink:href="#arrowUp" x="0" y="0" onmousedown="handlePan(0,-1)"/>
  <use id="arrowright" xlink:href="#arrowRight" x="0" y="0" onmousedown="handlePan(1,0)"/>
  <use id="arrowdown" xlink:href="#arrowDown" x="0" y="0" onmousedown="handlePan(0,1)"/>
  <use id="arrowleft" xlink:href="#arrowLeft" x="0" y="0" onmousedown="handlePan(-1,0)"/>
</g>
<svg viewBox="0 0 15 15" width="100%" height="30px" preserveAspectRatio="xMaxYMin meet">
 <g id="arrow_out" transform="scale(0.3 0.3)">
  <a xlink:href="classdepicture__menu_1_1domain_1_1services_1_1action__default__name__update__service_a75cd8d7140dc2d452394fdf4aae7806a_cgraph_org.svg" target="_base">
   <rect id="button" ry="5" rx="5" y="6" x="6" height="38" width="38"
        fill="#f2f5e9" fill-opacity="0.5" stroke="#606060" stroke-width="1.0"/>
   <path id="arrow"
     d="M 11.500037,31.436501 C 11.940474,20.09759 22.043105,11.32322 32.158766,21.979434 L 37.068811,17.246167 C 37.068811,17.246167 37.088388,32 37.088388,32 L 22.160133,31.978069 C 22.160133,31.978069 26.997745,27.140456 26.997745,27.140456 C 18.528582,18.264221 13.291696,25.230495 11.500037,31.436501 z"
     style="fill:#404040;"/>
  </a>
 </g>
</svg>

<style type='text/css'>
<![CDATA[
[data-mouse-over-selected='false'] { opacity: 0.7; }
[data-mouse-over-selected='true']  { opacity: 1.0; }
]]>
</style>
<script type="application/ecmascript"><![CDATA[
document.addEventListener('DOMContentLoaded', (event) => {
  highlightEdges();
  highlightAdjacentNodes();
});
]]></script>
</svg>
