<?xml version="1.0" encoding="UTF-8" standalone="no"?>
<!DOCTYPE svg PUBLIC "-//W3C//DTD SVG 1.1//EN"
 "http://www.w3.org/Graphics/SVG/1.1/DTD/svg11.dtd">
<!-- Generated by graphviz version 14.1.2 (20260124.0452)
 -->
<!-- Title: depicture_menu::usecase::show_menu_view::operator() Pages: 1 -->
<svg width="704pt" height="183pt"
 viewBox="0.00 0.00 704.00 183.00" xmlns="http://www.w3.org/2000/svg" xmlns:xlink="http://www.w3.org/1999/xlink">
<g id="graph0" class="graph" transform="scale(1 1) rotate(0) translate(4 179)">
<title>depicture_menu::usecase::show_menu_view::operator()</title>
<!-- Node1 -->
<g id="Node000001" class="node">
<title>Node1</title>
<g id="a_Node000001"><a xlink:title=" ">
<polygon fill="#999999" stroke="#666666" points="147.25,-132 0,-132 0,-100 147.25,-100 147.25,-132"/>
<text xml:space="preserve" text-anchor="start" x="8" y="-118.5" font-family="Helvetica,sans-Serif" font-size="10.00">depicture_menu::usecase</text>
<text xml:space="preserve" text-anchor="middle" x="73.62" y="-106.5" font-family="Helvetica,sans-Serif" font-size="10.00">::show_menu_view::operator()</text>
</a>
</g>
</g>
<!-- Node2 -->
<g id="Node000002" class="node">
<title>Node2</title>
<g id="a_Node000002"><a xlink:href="classdepicture__menu_1_1usecase_1_1show__menu__view.html#a48072a4bc01149a5c92d7331def65e0b" target="_top" xlink:title=" ">
<polygon fill="white" stroke="#666666" points="326,-169 183.25,-169 183.25,-125 326,-125 326,-169"/>
<text xml:space="preserve" text-anchor="start" x="191.25" y="-155.5" font-family="Helvetica,sans-Serif" font-size="10.00">depicture_menu::usecase</text>
<text xml:space="preserve" text-anchor="start" x="191.25" y="-143.5" font-family="Helvetica,sans-Serif" font-size="10.00">::show_menu_view::dispatch</text>
<text xml:space="preserve" text-anchor="middle" x="254.62" y="-131.5" font-family="Helvetica,sans-Serif" font-size="10.00">_show_menu</text>
</a>
</g>
</g>
<!-- Node1&#45;&gt;Node2 -->
<g id="edge1_Node000001_Node000002" class="edge">
<title>Node1&#45;&gt;Node2</title>
<g id="a_edge1_Node000001_Node000002"><a xlink:title=" ">
<path fill="none" stroke="#63b8ff" d="M147.69,-128.65C155.57,-130.02 163.63,-131.42 171.62,-132.8"/>
<polygon fill="#63b8ff" stroke="#63b8ff" points="170.88,-136.22 181.33,-134.48 172.07,-129.32 170.88,-136.22"/>
</a>
</g>
</g>
<!-- Node4 -->
<g id="Node000004" class="node">
<title>Node4</title>
<g id="a_Node000004"><a xlink:href="namespacedepicture__menu_1_1usecase_1_1detail__usecase.html#a30a805872d1e1babe72014851ae4468f" target="_top" xlink:title=" ">
<polygon fill="white" stroke="#666666" points="318.5,-107 190.75,-107 190.75,-63 318.5,-63 318.5,-107"/>
<text xml:space="preserve" text-anchor="start" x="198.75" y="-93.5" font-family="Helvetica,sans-Serif" font-size="10.00">depicture_menu::usecase</text>
<text xml:space="preserve" text-anchor="start" x="198.75" y="-81.5" font-family="Helvetica,sans-Serif" font-size="10.00">::detail_usecase::show</text>
<text xml:space="preserve" text-anchor="middle" x="254.62" y="-69.5" font-family="Helvetica,sans-Serif" font-size="10.00">_menu_view_impl</text>
</a>
</g>
</g>
<!-- Node1&#45;&gt;Node4 -->
<g id="edge3_Node000001_Node000004" class="edge">
<title>Node1&#45;&gt;Node4</title>
<g id="a_edge3_Node000001_Node000004"><a xlink:title=" ">
<path fill="none" stroke="#63b8ff" d="M147.69,-103.35C158.05,-101.55 168.72,-99.7 179.12,-97.9"/>
<polygon fill="#63b8ff" stroke="#63b8ff" points="179.51,-101.39 188.76,-96.23 178.31,-94.49 179.51,-101.39"/>
</a>
</g>
</g>
<!-- Node3 -->
<g id="Node000003" class="node">
<title>Node3</title>
<g id="a_Node000003"><a xlink:href="classdepicture__menu_1_1singleton.html#ab3a8df96e817c8ccb1ab61434f90c416" target="_top" xlink:title=" ">
<polygon fill="white" stroke="#666666" points="497.62,-175 367.62,-175 367.62,-119 497.62,-119 497.62,-175"/>
<text xml:space="preserve" text-anchor="start" x="375.62" y="-161.5" font-family="Helvetica,sans-Serif" font-size="10.00">depicture_menu::singleton</text>
<text xml:space="preserve" text-anchor="start" x="375.62" y="-149.5" font-family="Helvetica,sans-Serif" font-size="10.00">&lt; detail_applications::</text>
<text xml:space="preserve" text-anchor="start" x="375.62" y="-137.5" font-family="Helvetica,sans-Serif" font-size="10.00">gui_dispatch_impl &gt;::get</text>
<text xml:space="preserve" text-anchor="middle" x="432.62" y="-125.5" font-family="Helvetica,sans-Serif" font-size="10.00">_instance</text>
</a>
</g>
</g>
<!-- Node2&#45;&gt;Node3 -->
<g id="edge2_Node000002_Node000003" class="edge">
<title>Node2&#45;&gt;Node3</title>
<g id="a_edge2_Node000002_Node000003"><a xlink:title=" ">
<path fill="none" stroke="#63b8ff" d="M326.45,-147C336.13,-147 346.1,-147 355.86,-147"/>
<polygon fill="#63b8ff" stroke="#63b8ff" points="355.69,-150.5 365.69,-147 355.69,-143.5 355.69,-150.5"/>
</a>
</g>
</g>
<!-- Node5 -->
<g id="Node000005" class="node">
<title>Node5</title>
<g id="a_Node000005"><a xlink:href="namespacedepicture__menu_1_1repositories.html#a245ba008949ea92721d80817fea6a2c8" target="_top" xlink:title=" ">
<polygon fill="white" stroke="#666666" points="503.25,-101 362,-101 362,-69 503.25,-69 503.25,-101"/>
<text xml:space="preserve" text-anchor="start" x="370" y="-87.5" font-family="Helvetica,sans-Serif" font-size="10.00">depicture_menu::repositories</text>
<text xml:space="preserve" text-anchor="middle" x="432.62" y="-75.5" font-family="Helvetica,sans-Serif" font-size="10.00">::do_transaction</text>
</a>
</g>
</g>
<!-- Node4&#45;&gt;Node5 -->
<g id="edge4_Node000004_Node000005" class="edge">
<title>Node4&#45;&gt;Node5</title>
<g id="a_edge4_Node000004_Node000005"><a xlink:title=" ">
<path fill="none" stroke="#63b8ff" d="M318.67,-85C328.88,-85 339.58,-85 350.16,-85"/>
<polygon fill="#63b8ff" stroke="#63b8ff" points="350.04,-88.5 360.04,-85 350.04,-81.5 350.04,-88.5"/>
</a>
</g>
</g>
<!-- Node6 -->
<g id="Node000006" class="node">
<title>Node6</title>
<g id="a_Node000006"><a xlink:href="namespaceimpl.html#a10dc9eb9f8beea4d404cf047bc3b7848" target="_top" xlink:title=" ">
<polygon fill="white" stroke="#666666" points="474,-51 391.25,-51 391.25,-31 474,-31 474,-51"/>
<text xml:space="preserve" text-anchor="middle" x="432.62" y="-37.5" font-family="Helvetica,sans-Serif" font-size="10.00">impl::get_menu</text>
</a>
</g>
</g>
<!-- Node4&#45;&gt;Node6 -->
<g id="edge5_Node000004_Node000006" class="edge">
<title>Node4&#45;&gt;Node6</title>
<g id="a_edge5_Node000004_Node000006"><a xlink:title=" ">
<path fill="none" stroke="#63b8ff" d="M318.67,-69.24C338.79,-64.21 360.8,-58.71 380.01,-53.9"/>
<polygon fill="#63b8ff" stroke="#63b8ff" points="380.64,-57.35 389.49,-51.53 378.94,-50.56 380.64,-57.35"/>
</a>
</g>
</g>
<!-- Node7 -->
<g id="Node000007" class="node">
<title>Node7</title>
<g id="a_Node000007"><a xlink:href="namespacedepicture__menu_1_1applications.html#a31479f9c9955111c56b19fff54471a60" target="_top" xlink:title=" ">
<polygon fill="white" stroke="#666666" points="688.75,-82 546,-82 546,-50 688.75,-50 688.75,-82"/>
<text xml:space="preserve" text-anchor="start" x="554" y="-68.5" font-family="Helvetica,sans-Serif" font-size="10.00">depicture_menu::applications</text>
<text xml:space="preserve" text-anchor="middle" x="617.38" y="-56.5" font-family="Helvetica,sans-Serif" font-size="10.00">::get_mouse_cursor_position</text>
</a>
</g>
</g>
<!-- Node6&#45;&gt;Node7 -->
<g id="edge6_Node000006_Node000007" class="edge">
<title>Node6&#45;&gt;Node7</title>
<g id="a_edge6_Node000006_Node000007"><a xlink:title=" ">
<path fill="none" stroke="#63b8ff" d="M474.18,-46.55C492.01,-48.99 513.62,-51.94 534.56,-54.81"/>
<polygon fill="#63b8ff" stroke="#63b8ff" points="533.87,-58.25 544.25,-56.13 534.82,-51.31 533.87,-58.25"/>
</a>
</g>
</g>
<!-- Node8 -->
<g id="Node000008" class="node">
<title>Node8</title>
<g id="a_Node000008"><a xlink:href="classdepicture__menu_1_1domain_1_1crud__repository__interface.html#ac170ece1adbf7138a6322bba5beea167" target="_top" xlink:title=" ">
<polygon fill="white" stroke="#666666" points="695.5,-32 539.25,-32 539.25,0 695.5,0 695.5,-32"/>
<text xml:space="preserve" text-anchor="start" x="547.25" y="-18.5" font-family="Helvetica,sans-Serif" font-size="10.00">depicture_menu::domain</text>
<text xml:space="preserve" text-anchor="middle" x="617.38" y="-6.5" font-family="Helvetica,sans-Serif" font-size="10.00">::crud_repository_interface::read</text>
</a>
</g>
</g>
<!-- Node6&#45;&gt;Node8 -->
<g id="edge7_Node000006_Node000008" class="edge">
<title>Node6&#45;&gt;Node8</title>
<g id="a_edge7_Node000006_Node000008"><a xlink:title=" ">
<path fill="none" stroke="#63b8ff" d="M474.18,-35.45C490.02,-33.29 508.84,-30.71 527.52,-28.15"/>
<polygon fill="#63b8ff" stroke="#63b8ff" points="527.86,-31.64 537.29,-26.82 526.91,-24.71 527.86,-31.64"/>
</a>
</g>
</g>
</g>
</svg>
