<?xml version="1.0" encoding="UTF-8" standalone="no"?>
<!DOCTYPE svg PUBLIC "-//W3C//DTD SVG 1.1//EN"
 "http://www.w3.org/Graphics/SVG/1.1/DTD/svg11.dtd">
<!-- Generated by graphviz version 14.1.2 (20260124.0452)
 -->
<!-- Title: depicture_menu::domain::services::menu_item_default_name_update_service Pages: 1 -->
<!--zoomable 513 -->

<svg id="main" version="1.1" xmlns="http://www.w3.org/2000/svg" xmlns:xlink="http://www.w3.org/1999/xlink" xml:space="preserve" onload="init(evt)">

<style type="text/css"><![CDATA[
.node, .edge {opacity: 0.7;}
.node.selected, .edge.selected {opacity: 1;}
.edge:hover path { stroke: red; }
.edge:hover polygon { stroke: red; fill: red; }
]]></style>

<defs>
  <circle id="rim" cx="0" cy="0" r="7"/>
  <circle id="rim2" cx="0" cy="0" r="3.5"/>
  <g id="zoomPlus">
    <use xlink:href="#rim" fill="#404040"><set attributeName="fill" to="#808080" begin="zoomplus.mouseover" end="zoomplus.mouseout"/></use>
    <path d="M-4,0h8M0,-4v8" fill="none" stroke="white" stroke-width="1.5" pointer-events="none"/>
  </g>
  <g id="zoomMin">
    <use xlink:href="#rim" fill="#404040"><set attributeName="fill" to="#808080" begin="zoomminus.mouseover" end="zoomminus.mouseout"/></use>
    <path d="M-4,0h8" fill="none" stroke="white" stroke-width="1.5" pointer-events="none"/>
  </g>
  <g id="arrowUp" transform="translate(30 24)">
    <use xlink:href="#rim"/>
    <path pointer-events="none" fill="none" stroke="white" stroke-width="1.5" d="M0,-3.0v7 M-2.5,-0.5L0,-3.0L2.5,-0.5"/>
  </g>
  <g id="arrowRight" transform="rotate(90) translate(36 -43)">
    <use xlink:href="#rim"/>
    <path pointer-events="none" fill="none" stroke="white" stroke-width="1.5" d="M0,-3.0v7 M-2.5,-0.5L0,-3.0L2.5,-0.5"/>
  </g>
  <g id="arrowDown" transform="rotate(180) translate(-30 -48)">
    <use xlink:href="#rim"/>
    <path pointer-events="none" fill="none" stroke="white" stroke-width="1.5" d="M0,-3.0v7 M-2.5,-0.5L0,-3.0L2.5,-0.5"/>
  </g>
  <g id="arrowLeft" transform="rotate(270) translate(-36 17)">
    <use xlink:href="#rim"/>
    <path pointer-events="none" fill="none" stroke="white" stroke-width="1.5" d="M0,-3.0v7 M-2.5,-0.5L0,-3.0L2.5,-0.5"/>
  </g>
  <g id="resetDef">
    <use xlink:href="#rim2" fill="#404040"><set attributeName="fill" to="#808080" begin="reset.mouseover" end="reset.mouseout"/></use>
  </g>
</defs>
<script type="application/ecmascript">
var viewWidth = 308;
var viewHeight = 513;
var sectionId = 'dynsection-0';
</script>
<script type="application/ecmascript" xlink:href="svg.min.js"/>
<svg id="graph" class="graph">
<g id="viewport">
<title>depicture_menu::domain::services::menu_item_default_name_update_service</title>
<!-- Node1 -->
<g id="Node000001" class="node">
<title>Node1</title>
<g id="a_Node000001"><a xlink:title=" ">
<polygon fill="#999999" stroke="#666666" points="151,-44 0,-44 0,0 151,0 151,-44"/>
<text xml:space="preserve" text-anchor="start" x="8" y="-30.5" font-family="Helvetica,sans-Serif" font-size="10.00">depicture_menu::domain</text>
<text xml:space="preserve" text-anchor="start" x="8" y="-18.5" font-family="Helvetica,sans-Serif" font-size="10.00">::services::menu_item</text>
<text xml:space="preserve" text-anchor="middle" x="75.5" y="-6.5" font-family="Helvetica,sans-Serif" font-size="10.00">_default_name_update_service</text>
</a>
</g>
</g>
<!-- Node2 -->
<g id="Node000002" class="node">
<title>Node2</title>
<g id="a_Node000002"><a xlink:href="classdepicture__menu_1_1domain_1_1actions_1_1v2_1_1publisher.html" target="_top" xlink:title="アクション DomainEntity">
<polygon fill="white" stroke="#666666" points="136.75,-130 14.25,-130 14.25,-98 136.75,-98 136.75,-130"/>
<text xml:space="preserve" text-anchor="start" x="22.25" y="-116.5" font-family="Helvetica,sans-Serif" font-size="10.00">depicture_menu::domain</text>
<text xml:space="preserve" text-anchor="middle" x="75.5" y="-104.5" font-family="Helvetica,sans-Serif" font-size="10.00">::actions::v2::publisher</text>
</a>
</g>
</g>
<!-- Node2&#45;&gt;Node1 -->
<g id="edge1_Node000001_Node000002" class="edge">
<title>Node2&#45;&gt;Node1</title>
<g id="a_edge1_Node000001_Node000002"><a xlink:title=" ">
<path fill="none" stroke="#9a32cd" stroke-dasharray="5,2" d="M75.5,-86.36C75.5,-72.98 75.5,-56.99 75.5,-44.43"/>
<polygon fill="#9a32cd" stroke="#9a32cd" points="72,-86.22 75.5,-96.22 79,-86.22 72,-86.22"/>
</a>
</g>
<text xml:space="preserve" text-anchor="start" x="78.5" y="-67.5" font-family="Helvetica,sans-Serif" font-size="10.00" fill="grey">pub_</text>
</g>
<!-- Node3 -->
<g id="Node000003" class="node">
<title>Node3</title>
<g id="a_Node000003"><a xlink:href="structdepicture__menu_1_1domain_1_1models_1_1base_1_1entity__base.html" target="_top" xlink:title=" ">
<polygon fill="white" stroke="#666666" points="140.5,-211 10.5,-211 10.5,-167 140.5,-167 140.5,-211"/>
<text xml:space="preserve" text-anchor="start" x="18.5" y="-197.5" font-family="Helvetica,sans-Serif" font-size="10.00">models::entity_base</text>
<text xml:space="preserve" text-anchor="start" x="18.5" y="-185.5" font-family="Helvetica,sans-Serif" font-size="10.00">&lt; detail_actions::publisher</text>
<text xml:space="preserve" text-anchor="middle" x="75.5" y="-173.5" font-family="Helvetica,sans-Serif" font-size="10.00">_data, maker_id &gt;</text>
</a>
</g>
</g>
<!-- Node3&#45;&gt;Node2 -->
<g id="edge2_Node000002_Node000003" class="edge">
<title>Node3&#45;&gt;Node2</title>
<g id="a_edge2_Node000002_Node000003"><a xlink:title=" ">
<path fill="none" stroke="#63b8ff" d="M75.5,-155.56C75.5,-146.66 75.5,-137.44 75.5,-130.04"/>
<polygon fill="#63b8ff" stroke="#63b8ff" points="72,-155.37 75.5,-165.37 79,-155.37 72,-155.37"/>
</a>
</g>
</g>
<!-- Node4 -->
<g id="Node000004" class="node">
<title>Node4</title>
<g id="a_Node000004"><a xlink:title=" ">
<polygon fill="white" stroke="#666666" points="73.9,-297 45.1,-297 45.1,-277 73.9,-277 73.9,-297"/>
<text xml:space="preserve" text-anchor="middle" x="59.5" y="-283.5" font-family="Helvetica,sans-Serif" font-size="10.00">V</text>
</a>
</g>
</g>
<!-- Node4&#45;&gt;Node3 -->
<g id="edge3_Node000003_Node000004" class="edge">
<title>Node4&#45;&gt;Node3</title>
<g id="a_edge3_Node000003_Node000004"><a xlink:title=" ">
<path fill="none" stroke="darkgreen" d="M62.92,-265.5C65.59,-249.49 69.28,-227.3 71.98,-211.13"/>
<polygon fill="darkgreen" stroke="darkgreen" points="59.47,-264.86 61.28,-275.3 66.38,-266.01 59.47,-264.86"/>
</a>
</g>
</g>
<!-- Node5 -->
<g id="Node000005" class="node">
<title>Node5</title>
<g id="a_Node000005"><a xlink:href="structdepicture__menu_1_1domain_1_1models_1_1base_1_1entity__base.html" target="_top" xlink:title=" ">
<polygon fill="white" stroke="#666666" points="214.75,-309 92.25,-309 92.25,-265 214.75,-265 214.75,-309"/>
<text xml:space="preserve" text-anchor="start" x="100.25" y="-295.5" font-family="Helvetica,sans-Serif" font-size="10.00">depicture_menu::domain</text>
<text xml:space="preserve" text-anchor="start" x="100.25" y="-283.5" font-family="Helvetica,sans-Serif" font-size="10.00">::models::base::entity</text>
<text xml:space="preserve" text-anchor="middle" x="153.5" y="-271.5" font-family="Helvetica,sans-Serif" font-size="10.00">_base&lt; Value, IdTag &gt;</text>
</a>
</g>
</g>
<!-- Node5&#45;&gt;Node3 -->
<g id="edge4_Node000003_Node000005" class="edge">
<title>Node5&#45;&gt;Node3</title>
<g id="a_edge4_Node000003_Node000005"><a xlink:title=" ">
<path fill="none" stroke="orange" stroke-dasharray="5,2" d="M129.16,-256.04C117.36,-241.51 103.46,-224.41 92.76,-211.25"/>
<polygon fill="orange" stroke="orange" points="126.21,-257.97 135.23,-263.52 131.65,-253.55 126.21,-257.97"/>
</a>
</g>
<text xml:space="preserve" text-anchor="start" x="124.49" y="-234.5" font-family="Helvetica,sans-Serif" font-size="10.00" fill="grey">&lt; V, ID &gt;</text>
</g>
<!-- Node6 -->
<g id="Node000006" class="node">
<title>Node6</title>
<g id="a_Node000006"><a xlink:title=" ">
<polygon fill="white" stroke="#666666" points="140.5,-395 100.5,-395 100.5,-375 140.5,-375 140.5,-395"/>
<text xml:space="preserve" text-anchor="middle" x="120.5" y="-381.5" font-family="Helvetica,sans-Serif" font-size="10.00">Value</text>
</a>
</g>
</g>
<!-- Node6&#45;&gt;Node5 -->
<g id="edge5_Node000005_Node000006" class="edge">
<title>Node6&#45;&gt;Node5</title>
<g id="a_edge5_Node000005_Node000006"><a xlink:title=" ">
<path fill="none" stroke="darkgreen" d="M127.38,-363.98C132.9,-347.93 140.62,-325.46 146.24,-309.13"/>
<polygon fill="darkgreen" stroke="darkgreen" points="124.1,-362.77 124.16,-373.36 130.72,-365.04 124.1,-362.77"/>
</a>
</g>
</g>
<!-- Node7 -->
<g id="Node000007" class="node">
<title>Node7</title>
<g id="a_Node000007"><a xlink:href="structdepicture__menu_1_1domain_1_1models_1_1entity__id__base.html" target="_top" xlink:title=" ">
<polygon fill="white" stroke="#666666" points="280.75,-407 158.25,-407 158.25,-363 280.75,-363 280.75,-407"/>
<text xml:space="preserve" text-anchor="start" x="166.25" y="-393.5" font-family="Helvetica,sans-Serif" font-size="10.00">depicture_menu::domain</text>
<text xml:space="preserve" text-anchor="start" x="166.25" y="-381.5" font-family="Helvetica,sans-Serif" font-size="10.00">::models::entity_id_base</text>
<text xml:space="preserve" text-anchor="middle" x="219.5" y="-369.5" font-family="Helvetica,sans-Serif" font-size="10.00">&lt; standard_tag &gt;</text>
</a>
</g>
</g>
<!-- Node7&#45;&gt;Node5 -->
<g id="edge6_Node000005_Node000007" class="edge">
<title>Node7&#45;&gt;Node5</title>
<g id="a_edge6_Node000005_Node000007"><a xlink:title=" ">
<path fill="none" stroke="#9a32cd" stroke-dasharray="5,2" d="M198.34,-353.22C188.47,-338.87 176.99,-322.16 168.11,-309.25"/>
<polygon fill="#9a32cd" stroke="#9a32cd" points="195.45,-355.19 203.99,-361.45 201.21,-351.22 195.45,-355.19"/>
</a>
</g>
<text xml:space="preserve" text-anchor="start" x="195.41" y="-332.5" font-family="Helvetica,sans-Serif" font-size="10.00" fill="grey">id_</text>
</g>
<!-- Node8 -->
<g id="Node000008" class="node">
<title>Node8</title>
<g id="a_Node000008"><a xlink:href="structdepicture__menu_1_1domain_1_1models_1_1entity__id__base.html" target="_top" xlink:title=" ">
<polygon fill="white" stroke="#666666" points="280.75,-505 158.25,-505 158.25,-461 280.75,-461 280.75,-505"/>
<text xml:space="preserve" text-anchor="start" x="166.25" y="-491.5" font-family="Helvetica,sans-Serif" font-size="10.00">depicture_menu::domain</text>
<text xml:space="preserve" text-anchor="start" x="166.25" y="-479.5" font-family="Helvetica,sans-Serif" font-size="10.00">::models::entity_id_base</text>
<text xml:space="preserve" text-anchor="middle" x="219.5" y="-467.5" font-family="Helvetica,sans-Serif" font-size="10.00">&lt; Tag &gt;</text>
</a>
</g>
</g>
<!-- Node8&#45;&gt;Node7 -->
<g id="edge7_Node000007_Node000008" class="edge">
<title>Node8&#45;&gt;Node7</title>
<g id="a_edge7_Node000007_Node000008"><a xlink:title=" ">
<path fill="none" stroke="orange" stroke-dasharray="5,2" d="M219.5,-449.55C219.5,-435.59 219.5,-419.66 219.5,-407.25"/>
<polygon fill="orange" stroke="orange" points="216,-449.18 219.5,-459.18 223,-449.18 216,-449.18"/>
</a>
</g>
<text xml:space="preserve" text-anchor="start" x="222.5" y="-430.5" font-family="Helvetica,sans-Serif" font-size="10.00" fill="grey">&lt; standard_tag &gt;</text>
</g>
</g>
</svg>

<g id="navigator" transform="translate(0 0)" fill="#404254">
  <rect fill="#f2f5e9" fill-opacity="0.5" stroke="#606060" stroke-width=".5" x="0" y="0" width="60" height="60"/>
  <use id="zoomplus" xlink:href="#zoomPlus" x="17" y="9" onmousedown="handleZoom(evt,'in')"/>
  <use id="zoomminus" xlink:href="#zoomMin" x="42" y="9" onmousedown="handleZoom(evt,'out')"/>
  <use id="reset" xlink:href="#resetDef" x="30" y="36" onmousedown="handleReset()"/>
   <use id="arrowup" xlink:href="#arrowUp" x="0" y="0" onmousedown="handlePan(0,-1)"/>
  <use id="arrowright" xlink:href="#arrowRight" x="0" y="0" onmousedown="handlePan(1,0)"/>
  <use id="arrowdown" xlink:href="#arrowDown" x="0" y="0" onmousedown="handlePan(0,1)"/>
  <use id="arrowleft" xlink:href="#arrowLeft" x="0" y="0" onmousedown="handlePan(-1,0)"/>
</g>
<svg viewBox="0 0 15 15" width="100%" height="30px" preserveAspectRatio="xMaxYMin meet">
 <g id="arrow_out" transform="scale(0.3 0.3)">
  <a xlink:href="classdepicture__menu_1_1domain_1_1services_1_1menu__item__default__name__update__service__coll__graph_org.svg" target="_base">
   <rect id="button" ry="5" rx="5" y="6" x="6" height="38" width="38"
        fill="#f2f5e9" fill-opacity="0.5" stroke="#606060" stroke-width="1.0"/>
   <path id="arrow"
     d="M 11.500037,31.436501 C 11.940474,20.09759 22.043105,11.32322 32.158766,21.979434 L 37.068811,17.246167 C 37.068811,17.246167 37.088388,32 37.088388,32 L 22.160133,31.978069 C 22.160133,31.978069 26.997745,27.140456 26.997745,27.140456 C 18.528582,18.264221 13.291696,25.230495 11.500037,31.436501 z"
     style="fill:#404040;"/>
  </a>
 </g>
</svg>

<style type='text/css'>
<![CDATA[
[data-mouse-over-selected='false'] { opacity: 0.7; }
[data-mouse-over-selected='true']  { opacity: 1.0; }
]]>
</style>
<script type="application/ecmascript"><![CDATA[
document.addEventListener('DOMContentLoaded', (event) => {
  highlightEdges();
  highlightAdjacentNodes();
});
]]></script>
</svg>
