<?xml version="1.0" encoding="UTF-8" standalone="no"?>
<!DOCTYPE svg PUBLIC "-//W3C//DTD SVG 1.1//EN"
 "http://www.w3.org/Graphics/SVG/1.1/DTD/svg11.dtd">
<!-- Generated by graphviz version 14.1.2 (20260124.0452)
 -->
<!-- Title: depicture_menu::domain::services::create_command_domain_service::operator= Pages: 1 -->
<svg width="722pt" height="202pt"
 viewBox="0.00 0.00 722.00 202.00" xmlns="http://www.w3.org/2000/svg" xmlns:xlink="http://www.w3.org/1999/xlink">
<g id="graph0" class="graph" transform="scale(1 1) rotate(0) translate(4 198)">
<title>depicture_menu::domain::services::create_command_domain_service::operator=</title>
<!-- Node1 -->
<g id="Node000001" class="node">
<title>Node1</title>
<g id="a_Node000001"><a xlink:title=" ">
<polygon fill="#999999" stroke="#666666" points="139.75,-119 0,-119 0,-75 139.75,-75 139.75,-119"/>
<text xml:space="preserve" text-anchor="start" x="8" y="-105.5" font-family="Helvetica,sans-Serif" font-size="10.00">depicture_menu::domain</text>
<text xml:space="preserve" text-anchor="start" x="8" y="-93.5" font-family="Helvetica,sans-Serif" font-size="10.00">::services::create_command</text>
<text xml:space="preserve" text-anchor="middle" x="69.88" y="-81.5" font-family="Helvetica,sans-Serif" font-size="10.00">_domain_service::operator=</text>
</a>
</g>
</g>
<!-- Node2 -->
<g id="Node000002" class="node">
<title>Node2</title>
<g id="a_Node000002"><a xlink:href="classdepicture__menu_1_1domain_1_1services_1_1create__command__domain__service.html#ae05be5568810d6e2964df2d82fbdf3dd" target="_top" xlink:title=" ">
<polygon fill="white" stroke="#666666" points="346.25,-125 175.75,-125 175.75,-69 346.25,-69 346.25,-125"/>
<text xml:space="preserve" text-anchor="start" x="183.75" y="-111.5" font-family="Helvetica,sans-Serif" font-size="10.00">depicture_menu::domain</text>
<text xml:space="preserve" text-anchor="start" x="183.75" y="-99.5" font-family="Helvetica,sans-Serif" font-size="10.00">::services::create_command</text>
<text xml:space="preserve" text-anchor="start" x="183.75" y="-87.5" font-family="Helvetica,sans-Serif" font-size="10.00">_domain_service::create_command</text>
<text xml:space="preserve" text-anchor="middle" x="261" y="-75.5" font-family="Helvetica,sans-Serif" font-size="10.00">_domain_service</text>
</a>
</g>
</g>
<!-- Node1&#45;&gt;Node2 -->
<g id="edge1_Node000001_Node000002" class="edge">
<title>Node1&#45;&gt;Node2</title>
<g id="a_edge1_Node000001_Node000002"><a xlink:title=" ">
<path fill="none" stroke="#63b8ff" d="M140.22,-97C148.03,-97 156.09,-97 164.16,-97"/>
<polygon fill="#63b8ff" stroke="#63b8ff" points="164.04,-100.5 174.04,-97 164.04,-93.5 164.04,-100.5"/>
</a>
</g>
</g>
<!-- Node3 -->
<g id="Node000003" class="node">
<title>Node3</title>
<g id="a_Node000003"><a xlink:href="classdepicture__menu_1_1domain_1_1app_1_1config.html#adf2d413409d4c579876d7294bf508573" target="_top" xlink:title=" ">
<polygon fill="white" stroke="#666666" points="531,-194 389.75,-194 389.75,-150 531,-150 531,-194"/>
<text xml:space="preserve" text-anchor="start" x="397.75" y="-180.5" font-family="Helvetica,sans-Serif" font-size="10.00">depicture_menu::domain</text>
<text xml:space="preserve" text-anchor="start" x="397.75" y="-168.5" font-family="Helvetica,sans-Serif" font-size="10.00">::app::config::get_application</text>
<text xml:space="preserve" text-anchor="middle" x="460.38" y="-156.5" font-family="Helvetica,sans-Serif" font-size="10.00">_command_invoker</text>
</a>
</g>
</g>
<!-- Node2&#45;&gt;Node3 -->
<g id="edge2_Node000002_Node000003" class="edge">
<title>Node2&#45;&gt;Node3</title>
<g id="a_edge2_Node000002_Node000003"><a xlink:title=" ">
<path fill="none" stroke="#63b8ff" d="M336.9,-125.46C354.24,-132.05 372.62,-139.03 389.73,-145.53"/>
<polygon fill="#63b8ff" stroke="#63b8ff" points="388.18,-148.69 398.77,-148.97 390.67,-142.15 388.18,-148.69"/>
</a>
</g>
</g>
<!-- Node4 -->
<g id="Node000004" class="node">
<title>Node4</title>
<g id="a_Node000004"><a xlink:href="structdepicture__menu_1_1domain_1_1models_1_1entity__id__base.html#a71866154646981ed1213a76e8e7c9d6b" target="_top" xlink:title=" ">
<polygon fill="white" stroke="#666666" points="713.5,-150 574.5,-150 574.5,-94 713.5,-94 713.5,-150"/>
<text xml:space="preserve" text-anchor="start" x="582.5" y="-136.5" font-family="Helvetica,sans-Serif" font-size="10.00">depicture_menu::domain</text>
<text xml:space="preserve" text-anchor="start" x="582.5" y="-124.5" font-family="Helvetica,sans-Serif" font-size="10.00">::models::entity_id_base</text>
<text xml:space="preserve" text-anchor="start" x="582.5" y="-112.5" font-family="Helvetica,sans-Serif" font-size="10.00">&lt; detail_commands::invoker</text>
<text xml:space="preserve" text-anchor="middle" x="644" y="-100.5" font-family="Helvetica,sans-Serif" font-size="10.00">_id_tag &gt;::nil_id</text>
</a>
</g>
</g>
<!-- Node2&#45;&gt;Node4 -->
<g id="edge6_Node000002_Node000004" class="edge">
<title>Node2&#45;&gt;Node4</title>
<g id="a_edge6_Node000002_Node000004"><a xlink:title=" ">
<path fill="none" stroke="#63b8ff" d="M346.56,-102.55C411.19,-106.79 499.67,-112.6 563.11,-116.76"/>
<polygon fill="#63b8ff" stroke="#63b8ff" points="562.54,-120.23 572.75,-117.39 563,-113.24 562.54,-120.23"/>
</a>
</g>
</g>
<!-- Node5 -->
<g id="Node000005" class="node">
<title>Node5</title>
<g id="a_Node000005"><a xlink:href="classdepicture__menu_1_1domain_1_1app_1_1config.html#a021964283ce369d91acc01f581eddf56" target="_top" xlink:title=" ">
<polygon fill="white" stroke="#666666" points="526.5,-94 394.25,-94 394.25,-50 526.5,-50 526.5,-94"/>
<text xml:space="preserve" text-anchor="start" x="402.25" y="-80.5" font-family="Helvetica,sans-Serif" font-size="10.00">depicture_menu::domain</text>
<text xml:space="preserve" text-anchor="start" x="402.25" y="-68.5" font-family="Helvetica,sans-Serif" font-size="10.00">::app::config::get_common</text>
<text xml:space="preserve" text-anchor="middle" x="460.38" y="-56.5" font-family="Helvetica,sans-Serif" font-size="10.00">_command_invoker_id</text>
</a>
</g>
</g>
<!-- Node2&#45;&gt;Node5 -->
<g id="edge4_Node000002_Node000005" class="edge">
<title>Node2&#45;&gt;Node5</title>
<g id="a_edge4_Node000002_Node000005"><a xlink:title=" ">
<path fill="none" stroke="#63b8ff" d="M346.56,-86.29C358.54,-84.77 370.79,-83.22 382.61,-81.72"/>
<polygon fill="#63b8ff" stroke="#63b8ff" points="382.79,-85.23 392.27,-80.5 381.91,-78.28 382.79,-85.23"/>
</a>
</g>
</g>
<!-- Node6 -->
<g id="Node000006" class="node">
<title>Node6</title>
<g id="a_Node000006"><a xlink:href="classdepicture__menu_1_1domain_1_1crud__repository__interface.html#ac170ece1adbf7138a6322bba5beea167" target="_top" xlink:title=" ">
<polygon fill="white" stroke="#666666" points="538.5,-32 382.25,-32 382.25,0 538.5,0 538.5,-32"/>
<text xml:space="preserve" text-anchor="start" x="390.25" y="-18.5" font-family="Helvetica,sans-Serif" font-size="10.00">depicture_menu::domain</text>
<text xml:space="preserve" text-anchor="middle" x="460.38" y="-6.5" font-family="Helvetica,sans-Serif" font-size="10.00">::crud_repository_interface::read</text>
</a>
</g>
</g>
<!-- Node2&#45;&gt;Node6 -->
<g id="edge7_Node000002_Node000006" class="edge">
<title>Node2&#45;&gt;Node6</title>
<g id="a_edge7_Node000002_Node000006"><a xlink:title=" ">
<path fill="none" stroke="#63b8ff" d="M319.18,-68.63C338.93,-59.3 361.35,-49.22 382.25,-41 386.52,-39.32 390.96,-37.66 395.45,-36.05"/>
<polygon fill="#63b8ff" stroke="#63b8ff" points="396.25,-39.47 404.54,-32.87 393.94,-32.87 396.25,-39.47"/>
</a>
</g>
</g>
<!-- Node3&#45;&gt;Node4 -->
<g id="edge3_Node000003_Node000004" class="edge">
<title>Node3&#45;&gt;Node4</title>
<g id="a_edge3_Node000003_Node000004"><a xlink:title=" ">
<path fill="none" stroke="#63b8ff" d="M531.34,-152.74C541.79,-149.86 552.64,-146.88 563.28,-143.95"/>
<polygon fill="#63b8ff" stroke="#63b8ff" points="564.1,-147.35 572.81,-141.32 562.24,-140.6 564.1,-147.35"/>
</a>
</g>
</g>
<!-- Node5&#45;&gt;Node4 -->
<g id="edge5_Node000005_Node000004" class="edge">
<title>Node5&#45;&gt;Node4</title>
<g id="a_edge5_Node000005_Node000004"><a xlink:title=" ">
<path fill="none" stroke="#63b8ff" d="M526.95,-90.05C538.69,-93.29 551.05,-96.69 563.15,-100.02"/>
<polygon fill="#63b8ff" stroke="#63b8ff" points="562.13,-103.37 572.7,-102.65 563.99,-96.62 562.13,-103.37"/>
</a>
</g>
</g>
</g>
</svg>
