<?xml version="1.0" encoding="UTF-8" standalone="no"?>
<!DOCTYPE svg PUBLIC "-//W3C//DTD SVG 1.1//EN"
 "http://www.w3.org/Graphics/SVG/1.1/DTD/svg11.dtd">
<!-- Generated by graphviz version 14.1.2 (20260124.0452)
 -->
<!-- Title: depicture_menu::domain::query_interface::create Pages: 1 -->
<svg width="629pt" height="190pt"
 viewBox="0.00 0.00 629.00 190.00" xmlns="http://www.w3.org/2000/svg" xmlns:xlink="http://www.w3.org/1999/xlink">
<g id="graph0" class="graph" transform="scale(1 1) rotate(0) translate(4 186)">
<title>depicture_menu::domain::query_interface::create</title>
<!-- Node1 -->
<g id="Node000001" class="node">
<title>Node1</title>
<g id="a_Node000001"><a xlink:title=" ">
<polygon fill="#999999" stroke="#666666" points="620.5,-131 498,-131 498,-99 620.5,-99 620.5,-131"/>
<text xml:space="preserve" text-anchor="start" x="506" y="-117.5" font-family="Helvetica,sans-Serif" font-size="10.00">depicture_menu::domain</text>
<text xml:space="preserve" text-anchor="middle" x="559.25" y="-105.5" font-family="Helvetica,sans-Serif" font-size="10.00">::query_interface::create</text>
</a>
</g>
</g>
<!-- Node2 -->
<g id="Node000002" class="node">
<title>Node2</title>
<g id="a_Node000002"><a xlink:href="deploy__default__setting_8cpp.html#a638e25877528b95de44e4fcd07a8c45a" target="_top" xlink:title=" ">
<polygon fill="white" stroke="#666666" points="439.12,-182 343.62,-182 343.62,-162 439.12,-162 439.12,-182"/>
<text xml:space="preserve" text-anchor="middle" x="391.38" y="-168.5" font-family="Helvetica,sans-Serif" font-size="10.00">add_default_menu</text>
</a>
</g>
</g>
<!-- Node1&#45;&gt;Node2 -->
<g id="edge1_Node000001_Node000002" class="edge">
<title>Node1&#45;&gt;Node2</title>
<g id="a_edge1_Node000001_Node000002"><a xlink:title=" ">
<path fill="none" stroke="#63b8ff" d="M499.41,-135.22C473.5,-144.12 444.15,-154.21 422.75,-161.56"/>
<polygon fill="#63b8ff" stroke="#63b8ff" points="500.52,-138.54 508.84,-131.98 498.25,-131.92 500.52,-138.54"/>
</a>
</g>
</g>
<!-- Node3 -->
<g id="Node000003" class="node">
<title>Node3</title>
<g id="a_Node000003"><a xlink:href="deploy__default__setting_8cpp.html#a3311dba8e4af11d1e7973601fd991d43" target="_top" xlink:title=" ">
<polygon fill="white" stroke="#666666" points="284.75,-144 178.75,-144 178.75,-124 284.75,-124 284.75,-144"/>
<text xml:space="preserve" text-anchor="middle" x="231.75" y="-130.5" font-family="Helvetica,sans-Serif" font-size="10.00">add_default_settings</text>
</a>
</g>
</g>
<!-- Node1&#45;&gt;Node3 -->
<g id="edge4_Node000001_Node000003" class="edge">
<title>Node1&#45;&gt;Node3</title>
<g id="a_edge4_Node000001_Node000003"><a xlink:title=" ">
<path fill="none" stroke="#63b8ff" d="M486.34,-119.2C425.46,-122.75 339.63,-127.76 285.1,-130.94"/>
<polygon fill="#63b8ff" stroke="#63b8ff" points="486.5,-122.69 496.28,-118.62 486.09,-115.71 486.5,-122.69"/>
</a>
</g>
</g>
<!-- Node5 -->
<g id="Node000005" class="node">
<title>Node5</title>
<g id="a_Node000005"><a xlink:href="deploy__default__setting_8cpp.html#aba78e86894e6ff450c033d1939b96031" target="_top" xlink:title=" ">
<polygon fill="white" stroke="#666666" points="461.25,-106 321.5,-106 321.5,-86 461.25,-86 461.25,-106"/>
<text xml:space="preserve" text-anchor="middle" x="391.38" y="-92.5" font-family="Helvetica,sans-Serif" font-size="10.00">setup_application_command</text>
</a>
</g>
</g>
<!-- Node1&#45;&gt;Node5 -->
<g id="edge5_Node000001_Node000005" class="edge">
<title>Node1&#45;&gt;Node5</title>
<g id="a_edge5_Node000001_Node000005"><a xlink:title=" ">
<path fill="none" stroke="#63b8ff" d="M486.71,-106.81C478.41,-105.85 469.95,-104.89 461.68,-103.94"/>
<polygon fill="#63b8ff" stroke="#63b8ff" points="486.06,-110.25 496.39,-107.91 486.86,-103.3 486.06,-110.25"/>
</a>
</g>
</g>
<!-- Node6 -->
<g id="Node000006" class="node">
<title>Node6</title>
<g id="a_Node000006"><a xlink:href="classdepicture__menu_1_1domain_1_1crud__repository__interface.html#a885113d6809bd9135ba4826609dec19b" target="_top" xlink:title=" ">
<polygon fill="white" stroke="#666666" points="462,-68 320.75,-68 320.75,0 462,0 462,-68"/>
<text xml:space="preserve" text-anchor="start" x="328.75" y="-54.5" font-family="Helvetica,sans-Serif" font-size="10.00">depicture_menu::domain</text>
<text xml:space="preserve" text-anchor="start" x="328.75" y="-42.5" font-family="Helvetica,sans-Serif" font-size="10.00">::crud_repository_interface</text>
<text xml:space="preserve" text-anchor="start" x="328.75" y="-30.5" font-family="Helvetica,sans-Serif" font-size="10.00">&lt; depicture_menu::domain::</text>
<text xml:space="preserve" text-anchor="start" x="328.75" y="-18.5" font-family="Helvetica,sans-Serif" font-size="10.00">commands::invoker &gt;::~crud</text>
<text xml:space="preserve" text-anchor="middle" x="391.38" y="-6.5" font-family="Helvetica,sans-Serif" font-size="10.00">_repository_interface</text>
</a>
</g>
</g>
<!-- Node1&#45;&gt;Node6 -->
<g id="edge7_Node000001_Node000006" class="edge">
<title>Node1&#45;&gt;Node6</title>
<g id="a_edge7_Node000001_Node000006"><a xlink:title=" ">
<path fill="none" stroke="#63b8ff" d="M514.55,-93.66C498.52,-85.83 479.95,-76.77 462.2,-68.1"/>
<polygon fill="#63b8ff" stroke="#63b8ff" points="512.8,-96.7 523.32,-97.94 515.87,-90.41 512.8,-96.7"/>
</a>
</g>
</g>
<!-- Node2&#45;&gt;Node3 -->
<g id="edge2_Node000002_Node000003" class="edge">
<title>Node2&#45;&gt;Node3</title>
<g id="a_edge2_Node000002_Node000003"><a xlink:title=" ">
<path fill="none" stroke="#63b8ff" d="M335.7,-158.82C316.2,-154.12 294.51,-148.89 276.1,-144.45"/>
<polygon fill="#63b8ff" stroke="#63b8ff" points="334.87,-162.22 345.41,-161.16 336.51,-155.41 334.87,-162.22"/>
</a>
</g>
</g>
<!-- Node4 -->
<g id="Node000004" class="node">
<title>Node4</title>
<g id="a_Node000004"><a xlink:href="structdepicture__menu_1_1usecase_1_1detail__usecases_1_1deploy__default__setting__impl.html#a2c116aa98cc322e474ee99a84a130a94" target="_top" xlink:title=" ">
<polygon fill="white" stroke="#666666" points="142.75,-156 0,-156 0,-112 142.75,-112 142.75,-156"/>
<text xml:space="preserve" text-anchor="start" x="8" y="-142.5" font-family="Helvetica,sans-Serif" font-size="10.00">depicture_menu::usecase</text>
<text xml:space="preserve" text-anchor="start" x="8" y="-130.5" font-family="Helvetica,sans-Serif" font-size="10.00">::detail_usecases::deploy</text>
<text xml:space="preserve" text-anchor="middle" x="71.38" y="-118.5" font-family="Helvetica,sans-Serif" font-size="10.00">_default_setting_impl::deploy</text>
</a>
</g>
</g>
<!-- Node3&#45;&gt;Node4 -->
<g id="edge3_Node000003_Node000004" class="edge">
<title>Node3&#45;&gt;Node4</title>
<g id="a_edge3_Node000003_Node000004"><a xlink:title=" ">
<path fill="none" stroke="#63b8ff" d="M167.05,-134C159.13,-134 151,-134 142.98,-134"/>
<polygon fill="#63b8ff" stroke="#63b8ff" points="166.94,-137.5 176.94,-134 166.94,-130.5 166.94,-137.5"/>
</a>
</g>
</g>
<!-- Node5&#45;&gt;Node3 -->
<g id="edge6_Node000005_Node000003" class="edge">
<title>Node5&#45;&gt;Node3</title>
<g id="a_edge6_Node000005_Node000003"><a xlink:title=" ">
<path fill="none" stroke="#63b8ff" d="M335.7,-109.18C316.2,-113.88 294.51,-119.11 276.1,-123.55"/>
<polygon fill="#63b8ff" stroke="#63b8ff" points="336.51,-112.59 345.41,-106.84 334.87,-105.78 336.51,-112.59"/>
</a>
</g>
</g>
</g>
</svg>
