<?xml version="1.0" encoding="UTF-8" standalone="no"?>
<!DOCTYPE svg PUBLIC "-//W3C//DTD SVG 1.1//EN"
 "http://www.w3.org/Graphics/SVG/1.1/DTD/svg11.dtd">
<!-- Generated by graphviz version 14.1.2 (20260124.0452)
 -->
<!-- Title: depicture_menu::domain::services::create_menu_domain_service::set_central_action Pages: 1 -->
<svg width="342pt" height="70pt"
 viewBox="0.00 0.00 342.00 70.00" xmlns="http://www.w3.org/2000/svg" xmlns:xlink="http://www.w3.org/1999/xlink">
<g id="graph0" class="graph" transform="scale(1 1) rotate(0) translate(4 66)">
<title>depicture_menu::domain::services::create_menu_domain_service::set_central_action</title>
<!-- Node1 -->
<g id="Node000001" class="node">
<title>Node1</title>
<g id="a_Node000001"><a xlink:title=" ">
<polygon fill="#999999" stroke="#666666" points="175,-44 0,-44 0,0 175,0 175,-44"/>
<text xml:space="preserve" text-anchor="start" x="8" y="-30.5" font-family="Helvetica,sans-Serif" font-size="10.00">depicture_menu::domain</text>
<text xml:space="preserve" text-anchor="start" x="8" y="-18.5" font-family="Helvetica,sans-Serif" font-size="10.00">::services::create_menu</text>
<text xml:space="preserve" text-anchor="middle" x="87.5" y="-6.5" font-family="Helvetica,sans-Serif" font-size="10.00">_domain_service::set_central_action</text>
</a>
</g>
</g>
<!-- Node2 -->
<g id="Node000002" class="node">
<title>Node2</title>
<g id="a_Node000002"><a xlink:href="classdepicture__menu_1_1domain_1_1services_1_1create__action__domain__service.html#a2fd6a95617cfa15455a9c1f0d80896e2" target="_top" xlink:title=" ">
<polygon fill="white" stroke="#666666" points="334.25,-44 211,-44 211,0 334.25,0 334.25,-44"/>
<text xml:space="preserve" text-anchor="start" x="219" y="-30.5" font-family="Helvetica,sans-Serif" font-size="10.00">depicture_menu::domain</text>
<text xml:space="preserve" text-anchor="start" x="219" y="-18.5" font-family="Helvetica,sans-Serif" font-size="10.00">::services::create_action</text>
<text xml:space="preserve" text-anchor="middle" x="272.62" y="-6.5" font-family="Helvetica,sans-Serif" font-size="10.00">_domain_service::result</text>
</a>
</g>
</g>
<!-- Node1&#45;&gt;Node2 -->
<g id="edge1_Node000001_Node000002" class="edge">
<title>Node1&#45;&gt;Node2</title>
<g id="a_edge1_Node000001_Node000002"><a xlink:title=" ">
<path fill="none" stroke="#63b8ff" d="M175.24,-22C183.25,-22 191.31,-22 199.18,-22"/>
<polygon fill="#63b8ff" stroke="#63b8ff" points="199.02,-25.5 209.02,-22 199.02,-18.5 199.02,-25.5"/>
</a>
</g>
</g>
<!-- Node2&#45;&gt;Node2 -->
<g id="edge2_Node000002_Node000002" class="edge">
<title>Node2&#45;&gt;Node2</title>
<g id="a_edge2_Node000002_Node000002"><a xlink:title=" ">
<path fill="none" stroke="#63b8ff" d="M238.33,-44.21C235.52,-53.8 246.95,-62 272.62,-62 287.87,-62 298.09,-59.11 303.29,-54.75"/>
<polygon fill="#63b8ff" stroke="#63b8ff" points="306.48,-56.24 306.43,-45.64 299.86,-53.96 306.48,-56.24"/>
</a>
</g>
</g>
</g>
</svg>
