<?xml version="1.0" encoding="UTF-8" standalone="no"?>
<!DOCTYPE svg PUBLIC "-//W3C//DTD SVG 1.1//EN"
 "http://www.w3.org/Graphics/SVG/1.1/DTD/svg11.dtd">
<!-- Generated by graphviz version 14.1.2 (20260124.0452)
 -->
<!-- Title: depicture_menu::domain::crud_repository_interface::read Pages: 1 -->
<svg width="577pt" height="348pt"
 viewBox="0.00 0.00 577.00 348.00" xmlns="http://www.w3.org/2000/svg" xmlns:xlink="http://www.w3.org/1999/xlink">
<g id="graph0" class="graph" transform="scale(1 1) rotate(0) translate(4 344)">
<title>depicture_menu::domain::crud_repository_interface::read</title>
<!-- Node1 -->
<g id="Node000001" class="node">
<title>Node1</title>
<g id="a_Node000001"><a xlink:title=" ">
<polygon fill="#999999" stroke="#666666" points="569.25,-152 413,-152 413,-120 569.25,-120 569.25,-152"/>
<text xml:space="preserve" text-anchor="start" x="421" y="-138.5" font-family="Helvetica,sans-Serif" font-size="10.00">depicture_menu::domain</text>
<text xml:space="preserve" text-anchor="middle" x="491.12" y="-126.5" font-family="Helvetica,sans-Serif" font-size="10.00">::crud_repository_interface::read</text>
</a>
</g>
</g>
<!-- Node2 -->
<g id="Node000002" class="node">
<title>Node2</title>
<g id="a_Node000002"><a xlink:href="deploy__default__setting_8cpp.html#a638e25877528b95de44e4fcd07a8c45a" target="_top" xlink:title=" ">
<polygon fill="white" stroke="#666666" points="339.5,-236 244,-236 244,-216 339.5,-216 339.5,-236"/>
<text xml:space="preserve" text-anchor="middle" x="291.75" y="-222.5" font-family="Helvetica,sans-Serif" font-size="10.00">add_default_menu</text>
</a>
</g>
</g>
<!-- Node1&#45;&gt;Node2 -->
<g id="edge1_Node000001_Node000002" class="edge">
<title>Node1&#45;&gt;Node2</title>
<g id="a_edge1_Node000001_Node000002"><a xlink:title=" ">
<path fill="none" stroke="#63b8ff" d="M459.68,-159.11C437.75,-174.73 406.88,-194.68 377,-207 365.36,-211.8 352.28,-215.5 339.97,-218.3"/>
<polygon fill="#63b8ff" stroke="#63b8ff" points="461.54,-162.09 467.58,-153.39 457.43,-156.42 461.54,-162.09"/>
</a>
</g>
</g>
<!-- Node3 -->
<g id="Node000003" class="node">
<title>Node3</title>
<g id="a_Node000003"><a xlink:href="classdepicture__menu_1_1domain_1_1services_1_1create__command__domain__service.html#ae05be5568810d6e2964df2d82fbdf3dd" target="_top" xlink:title=" ">
<polygon fill="white" stroke="#666666" points="377,-198 206.5,-198 206.5,-142 377,-142 377,-198"/>
<text xml:space="preserve" text-anchor="start" x="214.5" y="-184.5" font-family="Helvetica,sans-Serif" font-size="10.00">depicture_menu::domain</text>
<text xml:space="preserve" text-anchor="start" x="214.5" y="-172.5" font-family="Helvetica,sans-Serif" font-size="10.00">::services::create_command</text>
<text xml:space="preserve" text-anchor="start" x="214.5" y="-160.5" font-family="Helvetica,sans-Serif" font-size="10.00">_domain_service::create_command</text>
<text xml:space="preserve" text-anchor="middle" x="291.75" y="-148.5" font-family="Helvetica,sans-Serif" font-size="10.00">_domain_service</text>
</a>
</g>
</g>
<!-- Node1&#45;&gt;Node3 -->
<g id="edge2_Node000001_Node000003" class="edge">
<title>Node1&#45;&gt;Node3</title>
<g id="a_edge2_Node000001_Node000003"><a xlink:title=" ">
<path fill="none" stroke="#63b8ff" d="M401.48,-151.27C393.49,-152.65 385.42,-154.04 377.47,-155.41"/>
<polygon fill="#63b8ff" stroke="#63b8ff" points="401.93,-154.74 411.19,-149.6 400.74,-147.85 401.93,-154.74"/>
</a>
</g>
</g>
<!-- Node8 -->
<g id="Node000008" class="node">
<title>Node8</title>
<g id="a_Node000008"><a xlink:href="classdepicture__menu_1_1domain_1_1services_1_1current__config__access__service.html#a982a04e702fc1ea5a0acfb20e458289e" target="_top" xlink:title=" ">
<polygon fill="white" stroke="#666666" points="370.25,-124 213.25,-124 213.25,-80 370.25,-80 370.25,-124"/>
<text xml:space="preserve" text-anchor="start" x="221.25" y="-110.5" font-family="Helvetica,sans-Serif" font-size="10.00">depicture_menu::domain</text>
<text xml:space="preserve" text-anchor="start" x="221.25" y="-98.5" font-family="Helvetica,sans-Serif" font-size="10.00">::services::current_config</text>
<text xml:space="preserve" text-anchor="middle" x="291.75" y="-86.5" font-family="Helvetica,sans-Serif" font-size="10.00">_access_service::current_config</text>
</a>
</g>
</g>
<!-- Node1&#45;&gt;Node8 -->
<g id="edge7_Node000001_Node000008" class="edge">
<title>Node1&#45;&gt;Node8</title>
<g id="a_edge7_Node000001_Node000008"><a xlink:title=" ">
<path fill="none" stroke="#63b8ff" d="M401.57,-120.74C391.25,-118.97 380.78,-117.16 370.62,-115.41"/>
<polygon fill="#63b8ff" stroke="#63b8ff" points="400.74,-124.15 411.19,-122.4 401.93,-117.26 400.74,-124.15"/>
</a>
</g>
</g>
<!-- Node10 -->
<g id="Node000010" class="node">
<title>Node10</title>
<g id="a_Node000010"><a xlink:href="classdepicture__menu_1_1domain_1_1crud__repository__interface.html#abb8a6f2a46bb99aa5d93193256c7446d" target="_top" xlink:title=" ">
<polygon fill="white" stroke="#666666" points="357.5,-44 226,-44 226,0 357.5,0 357.5,-44"/>
<text xml:space="preserve" text-anchor="start" x="234" y="-30.5" font-family="Helvetica,sans-Serif" font-size="10.00">depicture_menu::domain</text>
<text xml:space="preserve" text-anchor="start" x="234" y="-18.5" font-family="Helvetica,sans-Serif" font-size="10.00">::crud_repository_interface</text>
<text xml:space="preserve" text-anchor="middle" x="291.75" y="-6.5" font-family="Helvetica,sans-Serif" font-size="10.00">::erase</text>
</a>
</g>
</g>
<!-- Node1&#45;&gt;Node10 -->
<g id="edge9_Node000001_Node000010" class="edge">
<title>Node1&#45;&gt;Node10</title>
<g id="a_edge9_Node000001_Node000010"><a xlink:title=" ">
<path fill="none" stroke="#63b8ff" d="M452.08,-114.03C417.4,-94 366.41,-64.54 331.5,-44.38"/>
<polygon fill="#63b8ff" stroke="#63b8ff" points="450.13,-116.94 460.54,-118.91 453.63,-110.88 450.13,-116.94"/>
</a>
</g>
</g>
<!-- Node4 -->
<g id="Node000004" class="node">
<title>Node4</title>
<g id="a_Node000004"><a xlink:href="classdepicture__menu_1_1domain_1_1services_1_1create__command__domain__service.html#afffb978f1f6ec57995ad0fdf072a3ab2" target="_top" xlink:title=" ">
<polygon fill="white" stroke="#666666" points="170.5,-340 0,-340 0,-284 170.5,-284 170.5,-340"/>
<text xml:space="preserve" text-anchor="start" x="8" y="-326.5" font-family="Helvetica,sans-Serif" font-size="10.00">depicture_menu::domain</text>
<text xml:space="preserve" text-anchor="start" x="8" y="-314.5" font-family="Helvetica,sans-Serif" font-size="10.00">::services::create_command</text>
<text xml:space="preserve" text-anchor="start" x="8" y="-302.5" font-family="Helvetica,sans-Serif" font-size="10.00">_domain_service::create_command</text>
<text xml:space="preserve" text-anchor="middle" x="85.25" y="-290.5" font-family="Helvetica,sans-Serif" font-size="10.00">_domain_service</text>
</a>
</g>
</g>
<!-- Node3&#45;&gt;Node4 -->
<g id="edge3_Node000003_Node000004" class="edge">
<title>Node3&#45;&gt;Node4</title>
<g id="a_edge3_Node000003_Node000004"><a xlink:title=" ">
<path fill="none" stroke="#63b8ff" d="M208.44,-205.25C207.78,-205.83 207.14,-206.41 206.5,-207 181.45,-230.28 195.55,-251.72 170.5,-275 167.11,-278.15 163.4,-281.07 159.5,-283.76"/>
<polygon fill="#63b8ff" stroke="#63b8ff" points="210.54,-208.06 216.31,-199.17 206.25,-202.52 210.54,-208.06"/>
</a>
</g>
</g>
<!-- Node5 -->
<g id="Node000005" class="node">
<title>Node5</title>
<g id="a_Node000005"><a xlink:href="classdepicture__menu_1_1domain_1_1services_1_1create__command__domain__service.html#a0fef3f47886db8eb7acc32d552cc186b" target="_top" xlink:title=" ">
<polygon fill="white" stroke="#666666" points="170.5,-266 0,-266 0,-210 170.5,-210 170.5,-266"/>
<text xml:space="preserve" text-anchor="start" x="8" y="-252.5" font-family="Helvetica,sans-Serif" font-size="10.00">depicture_menu::domain</text>
<text xml:space="preserve" text-anchor="start" x="8" y="-240.5" font-family="Helvetica,sans-Serif" font-size="10.00">::services::create_command</text>
<text xml:space="preserve" text-anchor="start" x="8" y="-228.5" font-family="Helvetica,sans-Serif" font-size="10.00">_domain_service::create_command</text>
<text xml:space="preserve" text-anchor="middle" x="85.25" y="-216.5" font-family="Helvetica,sans-Serif" font-size="10.00">_domain_service</text>
</a>
</g>
</g>
<!-- Node3&#45;&gt;Node5 -->
<g id="edge4_Node000003_Node000005" class="edge">
<title>Node3&#45;&gt;Node5</title>
<g id="a_edge4_Node000003_Node000005"><a xlink:title=" ">
<path fill="none" stroke="#63b8ff" d="M195.38,-201.71C187.19,-204.44 178.94,-207.18 170.84,-209.87"/>
<polygon fill="#63b8ff" stroke="#63b8ff" points="196.27,-205.1 204.66,-198.63 194.07,-198.46 196.27,-205.1"/>
</a>
</g>
</g>
<!-- Node6 -->
<g id="Node000006" class="node">
<title>Node6</title>
<g id="a_Node000006"><a xlink:href="classdepicture__menu_1_1domain_1_1services_1_1create__command__domain__service.html#a7fbb4004eb6b7b517769bd7471e81ed2" target="_top" xlink:title=" ">
<polygon fill="white" stroke="#666666" points="155.12,-192 15.38,-192 15.38,-148 155.12,-148 155.12,-192"/>
<text xml:space="preserve" text-anchor="start" x="23.38" y="-178.5" font-family="Helvetica,sans-Serif" font-size="10.00">depicture_menu::domain</text>
<text xml:space="preserve" text-anchor="start" x="23.38" y="-166.5" font-family="Helvetica,sans-Serif" font-size="10.00">::services::create_command</text>
<text xml:space="preserve" text-anchor="middle" x="85.25" y="-154.5" font-family="Helvetica,sans-Serif" font-size="10.00">_domain_service::operator=</text>
</a>
</g>
</g>
<!-- Node3&#45;&gt;Node6 -->
<g id="edge5_Node000003_Node000006" class="edge">
<title>Node3&#45;&gt;Node6</title>
<g id="a_edge5_Node000003_Node000006"><a xlink:title=" ">
<path fill="none" stroke="#63b8ff" d="M194.59,-170C181.43,-170 168.14,-170 155.59,-170"/>
<polygon fill="#63b8ff" stroke="#63b8ff" points="194.58,-173.5 204.58,-170 194.58,-166.5 194.58,-173.5"/>
</a>
</g>
</g>
<!-- Node7 -->
<g id="Node000007" class="node">
<title>Node7</title>
<g id="a_Node000007"><a xlink:href="classdepicture__menu_1_1domain_1_1services_1_1create__command__domain__service.html#a44072fd8b200120ab19cf3cf9f8eb8ea" target="_top" xlink:title=" ">
<polygon fill="white" stroke="#666666" points="155.12,-130 15.38,-130 15.38,-86 155.12,-86 155.12,-130"/>
<text xml:space="preserve" text-anchor="start" x="23.38" y="-116.5" font-family="Helvetica,sans-Serif" font-size="10.00">depicture_menu::domain</text>
<text xml:space="preserve" text-anchor="start" x="23.38" y="-104.5" font-family="Helvetica,sans-Serif" font-size="10.00">::services::create_command</text>
<text xml:space="preserve" text-anchor="middle" x="85.25" y="-92.5" font-family="Helvetica,sans-Serif" font-size="10.00">_domain_service::operator=</text>
</a>
</g>
</g>
<!-- Node3&#45;&gt;Node7 -->
<g id="edge6_Node000003_Node000007" class="edge">
<title>Node3&#45;&gt;Node7</title>
<g id="a_edge6_Node000003_Node000007"><a xlink:title=" ">
<path fill="none" stroke="#63b8ff" d="M195.39,-141.09C181.97,-137.02 168.39,-132.9 155.59,-129.02"/>
<polygon fill="#63b8ff" stroke="#63b8ff" points="194.06,-144.34 204.65,-143.9 196.09,-137.64 194.06,-144.34"/>
</a>
</g>
</g>
<!-- Node9 -->
<g id="Node000009" class="node">
<title>Node9</title>
<g id="a_Node000009"><a xlink:href="classdepicture__menu_1_1domain_1_1services_1_1current__config__access__service.html#a7c1a62c96a9cdc48442e9f9665b5f9cb" target="_top" xlink:title=" ">
<polygon fill="white" stroke="#666666" points="163.75,-68 6.75,-68 6.75,-24 163.75,-24 163.75,-68"/>
<text xml:space="preserve" text-anchor="start" x="14.75" y="-54.5" font-family="Helvetica,sans-Serif" font-size="10.00">depicture_menu::domain</text>
<text xml:space="preserve" text-anchor="start" x="14.75" y="-42.5" font-family="Helvetica,sans-Serif" font-size="10.00">::services::current_config</text>
<text xml:space="preserve" text-anchor="middle" x="85.25" y="-30.5" font-family="Helvetica,sans-Serif" font-size="10.00">_access_service::current_config</text>
</a>
</g>
</g>
<!-- Node8&#45;&gt;Node9 -->
<g id="edge8_Node000008_Node000009" class="edge">
<title>Node8&#45;&gt;Node9</title>
<g id="a_edge8_Node000008_Node000009"><a xlink:title=" ">
<path fill="none" stroke="#63b8ff" d="M201.85,-77.66C189.22,-74.2 176.32,-70.66 163.93,-67.27"/>
<polygon fill="#63b8ff" stroke="#63b8ff" points="200.82,-81 211.39,-80.27 202.67,-74.25 200.82,-81"/>
</a>
</g>
</g>
<!-- Node10&#45;&gt;Node10 -->
<g id="edge10_Node000010_Node000010" class="edge">
<title>Node10&#45;&gt;Node10</title>
<g id="a_edge10_Node000010_Node000010"><a xlink:title=" ">
<path fill="none" stroke="#63b8ff" d="M324.78,-54.75C319.18,-59.11 308.17,-62 291.75,-62 264.1,-62 251.79,-53.8 254.81,-44.21"/>
<polygon fill="#63b8ff" stroke="#63b8ff" points="327.96,-56.22 328.16,-45.63 321.4,-53.79 327.96,-56.22"/>
</a>
</g>
</g>
</g>
</svg>
