<?xml version="1.0" encoding="UTF-8" standalone="no"?>
<!DOCTYPE svg PUBLIC "-//W3C//DTD SVG 1.1//EN"
 "http://www.w3.org/Graphics/SVG/1.1/DTD/svg11.dtd">
<!-- Generated by graphviz version 14.1.2 (20260124.0452)
 -->
<!-- Title: depicture_menu::domain::services::create_command_domain_service::create_command_domain_service Pages: 1 -->
<svg width="546pt" height="202pt"
 viewBox="0.00 0.00 546.00 202.00" xmlns="http://www.w3.org/2000/svg" xmlns:xlink="http://www.w3.org/1999/xlink">
<g id="graph0" class="graph" transform="scale(1 1) rotate(0) translate(4 198)">
<title>depicture_menu::domain::services::create_command_domain_service::create_command_domain_service</title>
<!-- Node1 -->
<g id="Node000001" class="node">
<title>Node1</title>
<g id="a_Node000001"><a xlink:title=" ">
<polygon fill="#999999" stroke="#666666" points="170.5,-125 0,-125 0,-69 170.5,-69 170.5,-125"/>
<text xml:space="preserve" text-anchor="start" x="8" y="-111.5" font-family="Helvetica,sans-Serif" font-size="10.00">depicture_menu::domain</text>
<text xml:space="preserve" text-anchor="start" x="8" y="-99.5" font-family="Helvetica,sans-Serif" font-size="10.00">::services::create_command</text>
<text xml:space="preserve" text-anchor="start" x="8" y="-87.5" font-family="Helvetica,sans-Serif" font-size="10.00">_domain_service::create_command</text>
<text xml:space="preserve" text-anchor="middle" x="85.25" y="-75.5" font-family="Helvetica,sans-Serif" font-size="10.00">_domain_service</text>
</a>
</g>
</g>
<!-- Node2 -->
<g id="Node000002" class="node">
<title>Node2</title>
<g id="a_Node000002"><a xlink:href="classdepicture__menu_1_1domain_1_1app_1_1config.html#adf2d413409d4c579876d7294bf508573" target="_top" xlink:title=" ">
<polygon fill="white" stroke="#666666" points="355.25,-194 214,-194 214,-150 355.25,-150 355.25,-194"/>
<text xml:space="preserve" text-anchor="start" x="222" y="-180.5" font-family="Helvetica,sans-Serif" font-size="10.00">depicture_menu::domain</text>
<text xml:space="preserve" text-anchor="start" x="222" y="-168.5" font-family="Helvetica,sans-Serif" font-size="10.00">::app::config::get_application</text>
<text xml:space="preserve" text-anchor="middle" x="284.62" y="-156.5" font-family="Helvetica,sans-Serif" font-size="10.00">_command_invoker</text>
</a>
</g>
</g>
<!-- Node1&#45;&gt;Node2 -->
<g id="edge1_Node000001_Node000002" class="edge">
<title>Node1&#45;&gt;Node2</title>
<g id="a_edge1_Node000001_Node000002"><a xlink:title=" ">
<path fill="none" stroke="#63b8ff" d="M161.15,-125.46C178.49,-132.05 196.87,-139.03 213.98,-145.53"/>
<polygon fill="#63b8ff" stroke="#63b8ff" points="212.43,-148.69 223.02,-148.97 214.92,-142.15 212.43,-148.69"/>
</a>
</g>
</g>
<!-- Node3 -->
<g id="Node000003" class="node">
<title>Node3</title>
<g id="a_Node000003"><a xlink:href="structdepicture__menu_1_1domain_1_1models_1_1entity__id__base.html#a71866154646981ed1213a76e8e7c9d6b" target="_top" xlink:title=" ">
<polygon fill="white" stroke="#666666" points="537.75,-150 398.75,-150 398.75,-94 537.75,-94 537.75,-150"/>
<text xml:space="preserve" text-anchor="start" x="406.75" y="-136.5" font-family="Helvetica,sans-Serif" font-size="10.00">depicture_menu::domain</text>
<text xml:space="preserve" text-anchor="start" x="406.75" y="-124.5" font-family="Helvetica,sans-Serif" font-size="10.00">::models::entity_id_base</text>
<text xml:space="preserve" text-anchor="start" x="406.75" y="-112.5" font-family="Helvetica,sans-Serif" font-size="10.00">&lt; detail_commands::invoker</text>
<text xml:space="preserve" text-anchor="middle" x="468.25" y="-100.5" font-family="Helvetica,sans-Serif" font-size="10.00">_id_tag &gt;::nil_id</text>
</a>
</g>
</g>
<!-- Node1&#45;&gt;Node3 -->
<g id="edge5_Node000001_Node000003" class="edge">
<title>Node1&#45;&gt;Node3</title>
<g id="a_edge5_Node000001_Node000003"><a xlink:title=" ">
<path fill="none" stroke="#63b8ff" d="M170.81,-102.55C235.44,-106.79 323.92,-112.6 387.36,-116.76"/>
<polygon fill="#63b8ff" stroke="#63b8ff" points="386.79,-120.23 397,-117.39 387.25,-113.24 386.79,-120.23"/>
</a>
</g>
</g>
<!-- Node4 -->
<g id="Node000004" class="node">
<title>Node4</title>
<g id="a_Node000004"><a xlink:href="classdepicture__menu_1_1domain_1_1app_1_1config.html#a021964283ce369d91acc01f581eddf56" target="_top" xlink:title=" ">
<polygon fill="white" stroke="#666666" points="350.75,-94 218.5,-94 218.5,-50 350.75,-50 350.75,-94"/>
<text xml:space="preserve" text-anchor="start" x="226.5" y="-80.5" font-family="Helvetica,sans-Serif" font-size="10.00">depicture_menu::domain</text>
<text xml:space="preserve" text-anchor="start" x="226.5" y="-68.5" font-family="Helvetica,sans-Serif" font-size="10.00">::app::config::get_common</text>
<text xml:space="preserve" text-anchor="middle" x="284.62" y="-56.5" font-family="Helvetica,sans-Serif" font-size="10.00">_command_invoker_id</text>
</a>
</g>
</g>
<!-- Node1&#45;&gt;Node4 -->
<g id="edge3_Node000001_Node000004" class="edge">
<title>Node1&#45;&gt;Node4</title>
<g id="a_edge3_Node000001_Node000004"><a xlink:title=" ">
<path fill="none" stroke="#63b8ff" d="M170.81,-86.29C182.79,-84.77 195.04,-83.22 206.86,-81.72"/>
<polygon fill="#63b8ff" stroke="#63b8ff" points="207.04,-85.23 216.52,-80.5 206.16,-78.28 207.04,-85.23"/>
</a>
</g>
</g>
<!-- Node5 -->
<g id="Node000005" class="node">
<title>Node5</title>
<g id="a_Node000005"><a xlink:href="classdepicture__menu_1_1domain_1_1crud__repository__interface.html#ac170ece1adbf7138a6322bba5beea167" target="_top" xlink:title=" ">
<polygon fill="white" stroke="#666666" points="362.75,-32 206.5,-32 206.5,0 362.75,0 362.75,-32"/>
<text xml:space="preserve" text-anchor="start" x="214.5" y="-18.5" font-family="Helvetica,sans-Serif" font-size="10.00">depicture_menu::domain</text>
<text xml:space="preserve" text-anchor="middle" x="284.62" y="-6.5" font-family="Helvetica,sans-Serif" font-size="10.00">::crud_repository_interface::read</text>
</a>
</g>
</g>
<!-- Node1&#45;&gt;Node5 -->
<g id="edge6_Node000001_Node000005" class="edge">
<title>Node1&#45;&gt;Node5</title>
<g id="a_edge6_Node000001_Node000005"><a xlink:title=" ">
<path fill="none" stroke="#63b8ff" d="M143.43,-68.63C163.18,-59.3 185.6,-49.22 206.5,-41 210.77,-39.32 215.21,-37.66 219.7,-36.05"/>
<polygon fill="#63b8ff" stroke="#63b8ff" points="220.5,-39.47 228.79,-32.87 218.19,-32.87 220.5,-39.47"/>
</a>
</g>
</g>
<!-- Node2&#45;&gt;Node3 -->
<g id="edge2_Node000002_Node000003" class="edge">
<title>Node2&#45;&gt;Node3</title>
<g id="a_edge2_Node000002_Node000003"><a xlink:title=" ">
<path fill="none" stroke="#63b8ff" d="M355.59,-152.74C366.04,-149.86 376.89,-146.88 387.53,-143.95"/>
<polygon fill="#63b8ff" stroke="#63b8ff" points="388.35,-147.35 397.06,-141.32 386.49,-140.6 388.35,-147.35"/>
</a>
</g>
</g>
<!-- Node4&#45;&gt;Node3 -->
<g id="edge4_Node000004_Node000003" class="edge">
<title>Node4&#45;&gt;Node3</title>
<g id="a_edge4_Node000004_Node000003"><a xlink:title=" ">
<path fill="none" stroke="#63b8ff" d="M351.2,-90.05C362.94,-93.29 375.3,-96.69 387.4,-100.02"/>
<polygon fill="#63b8ff" stroke="#63b8ff" points="386.38,-103.37 396.95,-102.65 388.24,-96.62 386.38,-103.37"/>
</a>
</g>
</g>
</g>
</svg>
