<?xml version="1.0" encoding="UTF-8" standalone="no"?>
<!DOCTYPE svg PUBLIC "-//W3C//DTD SVG 1.1//EN"
 "http://www.w3.org/Graphics/SVG/1.1/DTD/svg11.dtd">
<!-- Generated by graphviz version 14.1.2 (20260124.0452)
 -->
<!-- Title: depicture_menu::usecase::change_menu_item::operator() Pages: 1 -->
<svg width="567pt" height="90pt"
 viewBox="0.00 0.00 567.00 90.00" xmlns="http://www.w3.org/2000/svg" xmlns:xlink="http://www.w3.org/1999/xlink">
<g id="graph0" class="graph" transform="scale(1 1) rotate(0) translate(4 86)">
<title>depicture_menu::usecase::change_menu_item::operator()</title>
<!-- Node1 -->
<g id="Node000001" class="node">
<title>Node1</title>
<g id="a_Node000001"><a xlink:title=" ">
<polygon fill="#999999" stroke="#666666" points="154,-57 0,-57 0,-25 154,-25 154,-57"/>
<text xml:space="preserve" text-anchor="start" x="8" y="-43.5" font-family="Helvetica,sans-Serif" font-size="10.00">depicture_menu::usecase</text>
<text xml:space="preserve" text-anchor="middle" x="77" y="-31.5" font-family="Helvetica,sans-Serif" font-size="10.00">::change_menu_item::operator()</text>
</a>
</g>
</g>
<!-- Node2 -->
<g id="Node000002" class="node">
<title>Node2</title>
<g id="a_Node000002"><a xlink:href="namespacedepicture__menu_1_1usecase_1_1detail__usecase__change__menu__item.html#aba778dda63ee385a31fe471a4cfb8155" target="_top" xlink:title="common_action_select 処理">
<polygon fill="white" stroke="#666666" points="381.5,-63 190,-63 190,-19 381.5,-19 381.5,-63"/>
<text xml:space="preserve" text-anchor="start" x="198" y="-49.5" font-family="Helvetica,sans-Serif" font-size="10.00">depicture_menu::usecase</text>
<text xml:space="preserve" text-anchor="start" x="198" y="-37.5" font-family="Helvetica,sans-Serif" font-size="10.00">::detail_usecase_change</text>
<text xml:space="preserve" text-anchor="middle" x="285.75" y="-25.5" font-family="Helvetica,sans-Serif" font-size="10.00">_menu_item::do_common_action_select</text>
</a>
</g>
</g>
<!-- Node1&#45;&gt;Node2 -->
<g id="edge1_Node000001_Node000002" class="edge">
<title>Node1&#45;&gt;Node2</title>
<g id="a_edge1_Node000001_Node000002"><a xlink:title=" ">
<path fill="none" stroke="#63b8ff" d="M154.4,-41C162.22,-41 170.26,-41 178.32,-41"/>
<polygon fill="#63b8ff" stroke="#63b8ff" points="178.21,-44.5 188.21,-41 178.21,-37.5 178.21,-44.5"/>
</a>
</g>
</g>
<!-- Node3 -->
<g id="Node000003" class="node">
<title>Node3</title>
<g id="a_Node000003"><a xlink:href="namespacedepicture__menu_1_1repositories.html#a245ba008949ea92721d80817fea6a2c8" target="_top" xlink:title=" ">
<polygon fill="white" stroke="#666666" points="558.75,-82 417.5,-82 417.5,-50 558.75,-50 558.75,-82"/>
<text xml:space="preserve" text-anchor="start" x="425.5" y="-68.5" font-family="Helvetica,sans-Serif" font-size="10.00">depicture_menu::repositories</text>
<text xml:space="preserve" text-anchor="middle" x="488.12" y="-56.5" font-family="Helvetica,sans-Serif" font-size="10.00">::do_transaction</text>
</a>
</g>
</g>
<!-- Node2&#45;&gt;Node3 -->
<g id="edge2_Node000002_Node000003" class="edge">
<title>Node2&#45;&gt;Node3</title>
<g id="a_edge2_Node000002_Node000003"><a xlink:title=" ">
<path fill="none" stroke="#63b8ff" d="M381.95,-52.88C389.89,-53.87 397.87,-54.86 405.69,-55.84"/>
<polygon fill="#63b8ff" stroke="#63b8ff" points="405.15,-59.3 415.51,-57.06 406.02,-52.35 405.15,-59.3"/>
</a>
</g>
</g>
<!-- Node4 -->
<g id="Node000004" class="node">
<title>Node4</title>
<g id="a_Node000004"><a xlink:href="namespacedepicture__menu_1_1util_1_1strconv.html#a08ee9762f61abb902eac449b23391fe1" target="_top" xlink:title=" ">
<polygon fill="white" stroke="#666666" points="546,-32 430.25,-32 430.25,0 546,0 546,-32"/>
<text xml:space="preserve" text-anchor="start" x="438.25" y="-18.5" font-family="Helvetica,sans-Serif" font-size="10.00">depicture_menu::util</text>
<text xml:space="preserve" text-anchor="middle" x="488.12" y="-6.5" font-family="Helvetica,sans-Serif" font-size="10.00">::strconv::wide_to_utf8</text>
</a>
</g>
</g>
<!-- Node2&#45;&gt;Node4 -->
<g id="edge3_Node000002_Node000004" class="edge">
<title>Node2&#45;&gt;Node4</title>
<g id="a_edge3_Node000002_Node000004"><a xlink:title=" ">
<path fill="none" stroke="#63b8ff" d="M381.95,-29.12C394.35,-27.58 406.84,-26.02 418.68,-24.54"/>
<polygon fill="#63b8ff" stroke="#63b8ff" points="418.82,-28.05 428.31,-23.34 417.95,-21.1 418.82,-28.05"/>
</a>
</g>
</g>
</g>
</svg>
