<?xml version="1.0" encoding="UTF-8" standalone="no"?>
<!DOCTYPE svg PUBLIC "-//W3C//DTD SVG 1.1//EN"
 "http://www.w3.org/Graphics/SVG/1.1/DTD/svg11.dtd">
<!-- Generated by graphviz version 14.1.2 (20260124.0452)
 -->
<!-- Title: WinMain Pages: 1 -->
<svg width="204pt" height="90pt"
 viewBox="0.00 0.00 204.00 90.00" xmlns="http://www.w3.org/2000/svg" xmlns:xlink="http://www.w3.org/1999/xlink">
<g id="graph0" class="graph" transform="scale(1 1) rotate(0) translate(4 86)">
<title>WinMain</title>
<!-- Node1 -->
<g id="Node000001" class="node">
<title>Node1</title>
<g id="a_Node000001"><a xlink:title=" ">
<polygon fill="#999999" stroke="#666666" points="54.25,-51 0,-51 0,-31 54.25,-31 54.25,-51"/>
<text xml:space="preserve" text-anchor="middle" x="27.12" y="-37.5" font-family="Helvetica,sans-Serif" font-size="10.00">WinMain</text>
</a>
</g>
</g>
<!-- Node2 -->
<g id="Node000002" class="node">
<title>Node2</title>
<g id="a_Node000002"><a xlink:href="classcommand__line__trans.html#ad046c24dda95e7b27996d36e1b446182" target="_top" xlink:title=" ">
<polygon fill="white" stroke="#666666" points="196.25,-82 90.25,-82 90.25,-50 196.25,-50 196.25,-82"/>
<text xml:space="preserve" text-anchor="start" x="98.25" y="-68.5" font-family="Helvetica,sans-Serif" font-size="10.00">command_line_trans</text>
<text xml:space="preserve" text-anchor="middle" x="143.25" y="-56.5" font-family="Helvetica,sans-Serif" font-size="10.00">::argc</text>
</a>
</g>
</g>
<!-- Node1&#45;&gt;Node2 -->
<g id="edge1_Node000001_Node000002" class="edge">
<title>Node1&#45;&gt;Node2</title>
<g id="a_edge1_Node000001_Node000002"><a xlink:title=" ">
<path fill="none" stroke="#63b8ff" d="M54.59,-46.8C61.92,-48.4 70.2,-50.22 78.68,-52.07"/>
<polygon fill="#63b8ff" stroke="#63b8ff" points="77.87,-55.48 88.39,-54.2 79.37,-48.64 77.87,-55.48"/>
</a>
</g>
</g>
<!-- Node3 -->
<g id="Node000003" class="node">
<title>Node3</title>
<g id="a_Node000003"><a xlink:href="classcommand__line__trans.html#af80af116845ebd3c29e0d8bc92933a1d" target="_top" xlink:title=" ">
<polygon fill="white" stroke="#666666" points="196.25,-32 90.25,-32 90.25,0 196.25,0 196.25,-32"/>
<text xml:space="preserve" text-anchor="start" x="98.25" y="-18.5" font-family="Helvetica,sans-Serif" font-size="10.00">command_line_trans</text>
<text xml:space="preserve" text-anchor="middle" x="143.25" y="-6.5" font-family="Helvetica,sans-Serif" font-size="10.00">::argv</text>
</a>
</g>
</g>
<!-- Node1&#45;&gt;Node3 -->
<g id="edge2_Node000001_Node000003" class="edge">
<title>Node1&#45;&gt;Node3</title>
<g id="a_edge2_Node000001_Node000003"><a xlink:title=" ">
<path fill="none" stroke="#63b8ff" d="M54.59,-35.2C61.92,-33.6 70.2,-31.78 78.68,-29.93"/>
<polygon fill="#63b8ff" stroke="#63b8ff" points="79.37,-33.36 88.39,-27.8 77.87,-26.52 79.37,-33.36"/>
</a>
</g>
</g>
</g>
</svg>
