<?xml version="1.0" encoding="UTF-8" standalone="no"?>
<!DOCTYPE svg PUBLIC "-//W3C//DTD SVG 1.1//EN"
 "http://www.w3.org/Graphics/SVG/1.1/DTD/svg11.dtd">
<!-- Generated by graphviz version 14.1.2 (20260124.0452)
 -->
<!-- Title: depicture_menu/src/client/client_main.cpp Pages: 1 -->
<svg width="935pt" height="176pt"
 viewBox="0.00 0.00 935.00 176.00" xmlns="http://www.w3.org/2000/svg" xmlns:xlink="http://www.w3.org/1999/xlink">
<g id="graph0" class="graph" transform="scale(1 1) rotate(0) translate(4 172)">
<title>depicture_menu/src/client/client_main.cpp</title>
<!-- Node1 -->
<g id="Node000001" class="node">
<title>Node1</title>
<g id="a_Node000001"><a xlink:title=" ">
<polygon fill="#999999" stroke="#666666" points="777.62,-168 664.12,-168 664.12,-136 777.62,-136 777.62,-168"/>
<text xml:space="preserve" text-anchor="start" x="672.12" y="-154.5" font-family="Helvetica,sans-Serif" font-size="10.00">depicture_menu/src</text>
<text xml:space="preserve" text-anchor="middle" x="720.88" y="-142.5" font-family="Helvetica,sans-Serif" font-size="10.00">/client/client_main.cpp</text>
</a>
</g>
</g>
<!-- Node2 -->
<g id="Node000002" class="node">
<title>Node2</title>
<g id="a_Node000002"><a xlink:title=" ">
<polygon fill="#e0e0e0" stroke="#999999" points="414.38,-94 347.38,-94 347.38,-74 414.38,-74 414.38,-94"/>
<text xml:space="preserve" text-anchor="middle" x="380.88" y="-80.5" font-family="Helvetica,sans-Serif" font-size="10.00">./config.hpp</text>
</a>
</g>
</g>
<!-- Node1&#45;&gt;Node2 -->
<g id="edge1_Node000001_Node000002" class="edge">
<title>Node1&#45;&gt;Node2</title>
<g id="a_edge1_Node000001_Node000002"><a xlink:title=" ">
<path fill="none" stroke="#63b8ff" d="M663.68,-144.21C603.22,-136.34 505.38,-121.62 422.88,-100 420.59,-99.4 418.26,-98.73 415.92,-98.02"/>
<polygon fill="#63b8ff" stroke="#63b8ff" points="417.11,-94.73 406.52,-94.92 414.92,-101.38 417.11,-94.73"/>
</a>
</g>
</g>
<!-- Node3 -->
<g id="Node000003" class="node">
<title>Node3</title>
<g id="a_Node000003"><a xlink:href="process__startup__signal_8hpp.html" target="_top" xlink:title=" ">
<polygon fill="white" stroke="#666666" points="553.75,-100 432,-100 432,-68 553.75,-68 553.75,-100"/>
<text xml:space="preserve" text-anchor="start" x="440" y="-86.5" font-family="Helvetica,sans-Serif" font-size="10.00">core/application/process</text>
<text xml:space="preserve" text-anchor="middle" x="492.88" y="-74.5" font-family="Helvetica,sans-Serif" font-size="10.00">_startup_signal.hpp</text>
</a>
</g>
</g>
<!-- Node1&#45;&gt;Node3 -->
<g id="edge2_Node000001_Node000003" class="edge">
<title>Node1&#45;&gt;Node3</title>
<g id="a_edge2_Node000001_Node000003"><a xlink:title=" ">
<path fill="none" stroke="#63b8ff" d="M667.42,-135.53C634.52,-126 592.15,-113.74 557.39,-103.67"/>
<polygon fill="#63b8ff" stroke="#63b8ff" points="558.42,-100.33 547.84,-100.91 556.48,-107.05 558.42,-100.33"/>
</a>
</g>
</g>
<!-- Node9 -->
<g id="Node000009" class="node">
<title>Node9</title>
<g id="a_Node000009"><a xlink:title=" ">
<polygon fill="#e0e0e0" stroke="#999999" points="759.62,-26 706.12,-26 706.12,-6 759.62,-6 759.62,-26"/>
<text xml:space="preserve" text-anchor="middle" x="732.88" y="-12.5" font-family="Helvetica,sans-Serif" font-size="10.00">iostream</text>
</a>
</g>
</g>
<!-- Node1&#45;&gt;Node9 -->
<g id="edge16_Node000001_Node000009" class="edge">
<title>Node1&#45;&gt;Node9</title>
<g id="a_edge16_Node000001_Node000009"><a xlink:title=" ">
<path fill="none" stroke="#63b8ff" d="M722.25,-135.63C724.42,-111.42 728.63,-64.38 731.05,-37.37"/>
<polygon fill="#63b8ff" stroke="#63b8ff" points="734.51,-38 731.91,-27.73 727.54,-37.38 734.51,-38"/>
</a>
</g>
</g>
<!-- Node14 -->
<g id="Node000014" class="node">
<title>Node14</title>
<g id="a_Node000014"><a xlink:href="str__conv_8hpp.html" target="_top" xlink:title=" ">
<polygon fill="white" stroke="#666666" points="846.75,-94 749,-94 749,-74 846.75,-74 846.75,-94"/>
<text xml:space="preserve" text-anchor="middle" x="797.88" y="-80.5" font-family="Helvetica,sans-Serif" font-size="10.00">utility/str_conv.hpp</text>
</a>
</g>
</g>
<!-- Node1&#45;&gt;Node14 -->
<g id="edge13_Node000001_Node000014" class="edge">
<title>Node1&#45;&gt;Node14</title>
<g id="a_edge13_Node000001_Node000014"><a xlink:title=" ">
<path fill="none" stroke="#63b8ff" d="M738.73,-135.69C750.63,-125.5 766.26,-112.1 778.46,-101.64"/>
<polygon fill="#63b8ff" stroke="#63b8ff" points="780.54,-104.47 785.86,-95.3 775.99,-99.15 780.54,-104.47"/>
</a>
</g>
</g>
<!-- Node16 -->
<g id="Node000016" class="node">
<title>Node16</title>
<g id="a_Node000016"><a xlink:title=" ">
<polygon fill="#e0e0e0" stroke="#999999" points="927.12,-94 864.62,-94 864.62,-74 927.12,-74 927.12,-94"/>
<text xml:space="preserve" text-anchor="middle" x="895.88" y="-80.5" font-family="Helvetica,sans-Serif" font-size="10.00">windows.h</text>
</a>
</g>
</g>
<!-- Node1&#45;&gt;Node16 -->
<g id="edge17_Node000001_Node000016" class="edge">
<title>Node1&#45;&gt;Node16</title>
<g id="a_edge17_Node000001_Node000016"><a xlink:title=" ">
<path fill="none" stroke="#63b8ff" d="M761.9,-135.53C791.69,-124.29 831.6,-109.24 860.1,-98.49"/>
<polygon fill="#63b8ff" stroke="#63b8ff" points="861.25,-101.8 869.38,-94.99 858.78,-95.25 861.25,-101.8"/>
</a>
</g>
</g>
<!-- Node4 -->
<g id="Node000004" class="node">
<title>Node4</title>
<g id="a_Node000004"><a xlink:title=" ">
<polygon fill="#e0e0e0" stroke="#999999" points="688.25,-32 563.5,-32 563.5,0 688.25,0 688.25,-32"/>
<text xml:space="preserve" text-anchor="start" x="571.5" y="-18.5" font-family="Helvetica,sans-Serif" font-size="10.00">boost/interprocess</text>
<text xml:space="preserve" text-anchor="middle" x="625.88" y="-6.5" font-family="Helvetica,sans-Serif" font-size="10.00">/ipc/message_queue.hpp</text>
</a>
</g>
</g>
<!-- Node3&#45;&gt;Node4 -->
<g id="edge3_Node000003_Node000004" class="edge">
<title>Node3&#45;&gt;Node4</title>
<g id="a_edge3_Node000003_Node000004"><a xlink:title=" ">
<path fill="none" stroke="#63b8ff" d="M524.06,-67.53C542.15,-58.55 565.16,-47.13 584.72,-37.42"/>
<polygon fill="#63b8ff" stroke="#63b8ff" points="586.13,-40.63 593.53,-33.05 583.02,-34.36 586.13,-40.63"/>
</a>
</g>
</g>
<!-- Node5 -->
<g id="Node000005" class="node">
<title>Node5</title>
<g id="a_Node000005"><a xlink:title=" ">
<polygon fill="#e0e0e0" stroke="#999999" points="97.75,-26 0,-26 0,-6 97.75,-6 97.75,-26"/>
<text xml:space="preserve" text-anchor="middle" x="48.88" y="-12.5" font-family="Helvetica,sans-Serif" font-size="10.00">boost/signals2.hpp</text>
</a>
</g>
</g>
<!-- Node3&#45;&gt;Node5 -->
<g id="edge4_Node000003_Node000005" class="edge">
<title>Node3&#45;&gt;Node5</title>
<g id="a_edge4_Node000003_Node000005"><a xlink:title=" ">
<path fill="none" stroke="#63b8ff" d="M431.86,-69.56C428.83,-69 425.82,-68.48 422.88,-68 282.94,-45.12 245.24,-58.11 105.88,-32 101.53,-31.19 97.03,-30.22 92.55,-29.18"/>
<polygon fill="#63b8ff" stroke="#63b8ff" points="93.56,-25.82 83.02,-26.82 91.89,-32.62 93.56,-25.82"/>
</a>
</g>
</g>
<!-- Node6 -->
<g id="Node000006" class="node">
<title>Node6</title>
<g id="a_Node000006"><a xlink:title=" ">
<polygon fill="#e0e0e0" stroke="#999999" points="230.38,-26 115.38,-26 115.38,-6 230.38,-6 230.38,-26"/>
<text xml:space="preserve" text-anchor="middle" x="172.88" y="-12.5" font-family="Helvetica,sans-Serif" font-size="10.00">boost/static_string.hpp</text>
</a>
</g>
</g>
<!-- Node3&#45;&gt;Node6 -->
<g id="edge5_Node000003_Node000006" class="edge">
<title>Node3&#45;&gt;Node6</title>
<g id="a_edge5_Node000003_Node000006"><a xlink:title=" ">
<path fill="none" stroke="#63b8ff" d="M431.81,-69.85C428.79,-69.22 425.8,-68.6 422.88,-68 341.24,-51.27 320.4,-49.24 238.88,-32 234.28,-31.03 229.52,-30 224.75,-28.94"/>
<polygon fill="#63b8ff" stroke="#63b8ff" points="225.67,-25.57 215.15,-26.8 224.15,-32.4 225.67,-25.57"/>
</a>
</g>
</g>
<!-- Node7 -->
<g id="Node000007" class="node">
<title>Node7</title>
<g id="a_Node000007"><a xlink:title=" ">
<polygon fill="#e0e0e0" stroke="#999999" points="293.5,-26 248.25,-26 248.25,-6 293.5,-6 293.5,-26"/>
<text xml:space="preserve" text-anchor="middle" x="270.88" y="-12.5" font-family="Helvetica,sans-Serif" font-size="10.00">chrono</text>
</a>
</g>
</g>
<!-- Node3&#45;&gt;Node7 -->
<g id="edge6_Node000003_Node000007" class="edge">
<title>Node3&#45;&gt;Node7</title>
<g id="a_edge6_Node000003_Node000007"><a xlink:title=" ">
<path fill="none" stroke="#63b8ff" d="M431.7,-69.48C394.04,-60.45 345.06,-47.41 302.88,-32 301.92,-31.65 300.95,-31.28 299.97,-30.9"/>
<polygon fill="#63b8ff" stroke="#63b8ff" points="301.55,-27.77 290.98,-27.04 298.79,-34.2 301.55,-27.77"/>
</a>
</g>
</g>
<!-- Node8 -->
<g id="Node000008" class="node">
<title>Node8</title>
<g id="a_Node000008"><a xlink:title=" ">
<polygon fill="#e0e0e0" stroke="#999999" points="352.25,-26 311.5,-26 311.5,-6 352.25,-6 352.25,-26"/>
<text xml:space="preserve" text-anchor="middle" x="331.88" y="-12.5" font-family="Helvetica,sans-Serif" font-size="10.00">future</text>
</a>
</g>
</g>
<!-- Node3&#45;&gt;Node8 -->
<g id="edge7_Node000003_Node000008" class="edge">
<title>Node3&#45;&gt;Node8</title>
<g id="a_edge7_Node000003_Node000008"><a xlink:title=" ">
<path fill="none" stroke="#63b8ff" d="M449.29,-67.52C423.32,-57.96 389.89,-45.06 360.88,-32 360.4,-31.78 359.92,-31.57 359.43,-31.34"/>
<polygon fill="#63b8ff" stroke="#63b8ff" points="361.09,-28.26 350.57,-27.02 358.02,-34.55 361.09,-28.26"/>
</a>
</g>
</g>
<!-- Node3&#45;&gt;Node9 -->
<g id="edge8_Node000003_Node000009" class="edge">
<title>Node3&#45;&gt;Node9</title>
<g id="a_edge8_Node000003_Node000009"><a xlink:title=" ">
<path fill="none" stroke="#63b8ff" d="M553.81,-70.28C594.71,-61.13 649.57,-47.67 696.88,-32 698.25,-31.54 699.64,-31.06 701.05,-30.56"/>
<polygon fill="#63b8ff" stroke="#63b8ff" points="702.28,-33.83 710.34,-26.96 699.75,-27.3 702.28,-33.83"/>
</a>
</g>
</g>
<!-- Node10 -->
<g id="Node000010" class="node">
<title>Node10</title>
<g id="a_Node000010"><a xlink:title=" ">
<polygon fill="#e0e0e0" stroke="#999999" points="421.5,-26 370.25,-26 370.25,-6 421.5,-6 421.5,-26"/>
<text xml:space="preserve" text-anchor="middle" x="395.88" y="-12.5" font-family="Helvetica,sans-Serif" font-size="10.00">memory</text>
</a>
</g>
</g>
<!-- Node3&#45;&gt;Node10 -->
<g id="edge9_Node000003_Node000010" class="edge">
<title>Node3&#45;&gt;Node10</title>
<g id="a_edge9_Node000003_Node000010"><a xlink:title=" ">
<path fill="none" stroke="#63b8ff" d="M470.38,-67.69C454.95,-57.2 434.54,-43.31 418.99,-32.73"/>
<polygon fill="#63b8ff" stroke="#63b8ff" points="421.05,-29.9 410.82,-27.17 417.12,-35.69 421.05,-29.9"/>
</a>
</g>
</g>
<!-- Node11 -->
<g id="Node000011" class="node">
<title>Node11</title>
<g id="a_Node000011"><a xlink:title=" ">
<polygon fill="#e0e0e0" stroke="#999999" points="484.5,-26 439.25,-26 439.25,-6 484.5,-6 484.5,-26"/>
<text xml:space="preserve" text-anchor="middle" x="461.88" y="-12.5" font-family="Helvetica,sans-Serif" font-size="10.00">ranges</text>
</a>
</g>
</g>
<!-- Node3&#45;&gt;Node11 -->
<g id="edge10_Node000003_Node000011" class="edge">
<title>Node3&#45;&gt;Node11</title>
<g id="a_edge10_Node000003_Node000011"><a xlink:title=" ">
<path fill="none" stroke="#63b8ff" d="M485.69,-67.69C481.32,-58.4 475.7,-46.44 471.02,-36.47"/>
<polygon fill="#63b8ff" stroke="#63b8ff" points="474.31,-35.25 466.89,-27.69 467.98,-38.23 474.31,-35.25"/>
</a>
</g>
</g>
<!-- Node12 -->
<g id="Node000012" class="node">
<title>Node12</title>
<g id="a_Node000012"><a xlink:title=" ">
<polygon fill="#e0e0e0" stroke="#999999" points="817.88,-26 777.88,-26 777.88,-6 817.88,-6 817.88,-26"/>
<text xml:space="preserve" text-anchor="middle" x="797.88" y="-12.5" font-family="Helvetica,sans-Serif" font-size="10.00">string</text>
</a>
</g>
</g>
<!-- Node3&#45;&gt;Node12 -->
<g id="edge11_Node000003_Node000012" class="edge">
<title>Node3&#45;&gt;Node12</title>
<g id="a_edge11_Node000003_Node000012"><a xlink:title=" ">
<path fill="none" stroke="#63b8ff" d="M554.22,-76.91C611.04,-70.05 697.31,-56.52 768.88,-32 769.68,-31.72 770.49,-31.43 771.3,-31.12"/>
<polygon fill="#63b8ff" stroke="#63b8ff" points="772.63,-34.36 780.3,-27.06 769.75,-27.98 772.63,-34.36"/>
</a>
</g>
</g>
<!-- Node13 -->
<g id="Node000013" class="node">
<title>Node13</title>
<g id="a_Node000013"><a xlink:title=" ">
<polygon fill="#e0e0e0" stroke="#999999" points="545.38,-26 502.38,-26 502.38,-6 545.38,-6 545.38,-26"/>
<text xml:space="preserve" text-anchor="middle" x="523.88" y="-12.5" font-family="Helvetica,sans-Serif" font-size="10.00">thread</text>
</a>
</g>
</g>
<!-- Node3&#45;&gt;Node13 -->
<g id="edge12_Node000003_Node000013" class="edge">
<title>Node3&#45;&gt;Node13</title>
<g id="a_edge12_Node000003_Node000013"><a xlink:title=" ">
<path fill="none" stroke="#63b8ff" d="M500.06,-67.69C504.43,-58.4 510.05,-46.44 514.73,-36.47"/>
<polygon fill="#63b8ff" stroke="#63b8ff" points="517.77,-38.23 518.86,-27.69 511.44,-35.25 517.77,-38.23"/>
</a>
</g>
</g>
<!-- Node14&#45;&gt;Node12 -->
<g id="edge14_Node000014_Node000012" class="edge">
<title>Node14&#45;&gt;Node12</title>
<g id="a_edge14_Node000014_Node000012"><a xlink:title=" ">
<path fill="none" stroke="#63b8ff" d="M797.88,-73.54C797.88,-64.23 797.88,-49.7 797.88,-37.7"/>
<polygon fill="#63b8ff" stroke="#63b8ff" points="801.38,-37.95 797.88,-27.95 794.38,-37.95 801.38,-37.95"/>
</a>
</g>
</g>
<!-- Node15 -->
<g id="Node000015" class="node">
<title>Node15</title>
<g id="a_Node000015"><a xlink:title=" ">
<polygon fill="#e0e0e0" stroke="#999999" points="901.62,-26 836.12,-26 836.12,-6 901.62,-6 901.62,-26"/>
<text xml:space="preserve" text-anchor="middle" x="868.88" y="-12.5" font-family="Helvetica,sans-Serif" font-size="10.00">string_view</text>
</a>
</g>
</g>
<!-- Node14&#45;&gt;Node15 -->
<g id="edge15_Node000014_Node000015" class="edge">
<title>Node14&#45;&gt;Node15</title>
<g id="a_edge15_Node000014_Node000015"><a xlink:title=" ">
<path fill="none" stroke="#63b8ff" d="M808.05,-73.54C819.12,-63.25 837.05,-46.58 850.58,-34.01"/>
<polygon fill="#63b8ff" stroke="#63b8ff" points="852.67,-36.84 857.61,-27.47 847.91,-31.71 852.67,-36.84"/>
</a>
</g>
</g>
</g>
</svg>
