<?xml version="1.0" encoding="UTF-8" standalone="no"?>
<!DOCTYPE svg PUBLIC "-//W3C//DTD SVG 1.1//EN"
 "http://www.w3.org/Graphics/SVG/1.1/DTD/svg11.dtd">
<!-- Generated by graphviz version 14.1.2 (20260124.0452)
 -->
<!-- Title: depicture_menu/src/core/domain/model/command/buildin/close_menu_command_parameter.hpp Pages: 1 -->
<svg width="618pt" height="236pt"
 viewBox="0.00 0.00 618.00 236.00" xmlns="http://www.w3.org/2000/svg" xmlns:xlink="http://www.w3.org/1999/xlink">
<g id="graph0" class="graph" transform="scale(1 1) rotate(0) translate(4 232)">
<title>depicture_menu/src/core/domain/model/command/buildin/close_menu_command_parameter.hpp</title>
<!-- Node1 -->
<g id="Node000001" class="node">
<title>Node1</title>
<g id="a_Node000001"><a xlink:title=" ">
<polygon fill="#999999" stroke="#666666" points="300.88,-228 150.62,-228 150.62,-172 300.88,-172 300.88,-228"/>
<text xml:space="preserve" text-anchor="start" x="158.62" y="-214.5" font-family="Helvetica,sans-Serif" font-size="10.00">depicture_menu/src</text>
<text xml:space="preserve" text-anchor="start" x="158.62" y="-202.5" font-family="Helvetica,sans-Serif" font-size="10.00">/core/domain/model/command</text>
<text xml:space="preserve" text-anchor="start" x="158.62" y="-190.5" font-family="Helvetica,sans-Serif" font-size="10.00">/buildin/close_menu_command</text>
<text xml:space="preserve" text-anchor="middle" x="225.75" y="-178.5" font-family="Helvetica,sans-Serif" font-size="10.00">_parameter.hpp</text>
</a>
</g>
</g>
<!-- Node2 -->
<g id="Node000002" class="node">
<title>Node2</title>
<g id="a_Node000002"><a xlink:href="common__action__builder_8hpp.html" target="_top" xlink:title=" ">
<polygon fill="white" stroke="#666666" points="296,-130 155.5,-130 155.5,-86 296,-86 296,-130"/>
<text xml:space="preserve" text-anchor="start" x="163.5" y="-116.5" font-family="Helvetica,sans-Serif" font-size="10.00">depicture_menu/src</text>
<text xml:space="preserve" text-anchor="start" x="163.5" y="-104.5" font-family="Helvetica,sans-Serif" font-size="10.00">/core/domain/service</text>
<text xml:space="preserve" text-anchor="middle" x="225.75" y="-92.5" font-family="Helvetica,sans-Serif" font-size="10.00">/common_action_builder.hpp</text>
</a>
</g>
</g>
<!-- Node1&#45;&gt;Node2 -->
<g id="edge1_Node000001_Node000002" class="edge">
<title>Node1&#45;&gt;Node2</title>
<g id="a_edge1_Node000001_Node000002"><a xlink:title=" ">
<path fill="none" stroke="#63b8ff" d="M225.75,-160.23C225.75,-149.98 225.75,-139.28 225.75,-130.33"/>
<polygon fill="#63b8ff" stroke="#63b8ff" points="222.25,-159.99 225.75,-169.99 229.25,-159.99 222.25,-159.99"/>
</a>
</g>
</g>
<!-- Node3 -->
<g id="Node000003" class="node">
<title>Node3</title>
<g id="a_Node000003"><a xlink:href="add__new__menu_8cpp.html" target="_top" xlink:title=" ">
<polygon fill="white" stroke="#666666" points="131.5,-44 0,-44 0,0 131.5,0 131.5,-44"/>
<text xml:space="preserve" text-anchor="start" x="8" y="-30.5" font-family="Helvetica,sans-Serif" font-size="10.00">depicture_menu/src</text>
<text xml:space="preserve" text-anchor="start" x="8" y="-18.5" font-family="Helvetica,sans-Serif" font-size="10.00">/core/usecase/config</text>
<text xml:space="preserve" text-anchor="middle" x="65.75" y="-6.5" font-family="Helvetica,sans-Serif" font-size="10.00">_view/add_new_menu.cpp</text>
</a>
</g>
</g>
<!-- Node1&#45;&gt;Node3 -->
<g id="edge6_Node000001_Node000003" class="edge">
<title>Node1&#45;&gt;Node3</title>
<g id="a_edge6_Node000001_Node000003"><a xlink:title=" ">
<path fill="none" stroke="#63b8ff" d="M178.33,-164.67C167.45,-155.87 156.28,-146.04 146.75,-136 119.15,-106.95 93.29,-68.06 78.51,-44.31"/>
<polygon fill="#63b8ff" stroke="#63b8ff" points="176.15,-167.42 186.17,-170.87 180.49,-161.92 176.15,-167.42"/>
</a>
</g>
</g>
<!-- Node7 -->
<g id="Node000007" class="node">
<title>Node7</title>
<g id="a_Node000007"><a xlink:href="test__create__command__domain__service_8cpp.html" target="_top" xlink:title=" ">
<polygon fill="white" stroke="#666666" points="429.62,-136 313.88,-136 313.88,-80 429.62,-80 429.62,-136"/>
<text xml:space="preserve" text-anchor="start" x="321.88" y="-122.5" font-family="Helvetica,sans-Serif" font-size="10.00">depicture_menu/test</text>
<text xml:space="preserve" text-anchor="start" x="321.88" y="-110.5" font-family="Helvetica,sans-Serif" font-size="10.00">/core/domain/service</text>
<text xml:space="preserve" text-anchor="start" x="321.88" y="-98.5" font-family="Helvetica,sans-Serif" font-size="10.00">/test_create_command</text>
<text xml:space="preserve" text-anchor="middle" x="371.75" y="-86.5" font-family="Helvetica,sans-Serif" font-size="10.00">_domain_service.cpp</text>
</a>
</g>
</g>
<!-- Node1&#45;&gt;Node7 -->
<g id="edge7_Node000001_Node000007" class="edge">
<title>Node1&#45;&gt;Node7</title>
<g id="a_edge7_Node000001_Node000007"><a xlink:title=" ">
<path fill="none" stroke="#63b8ff" d="M279.86,-165.64C295.44,-156.04 312.24,-145.68 327.17,-136.48"/>
<polygon fill="#63b8ff" stroke="#63b8ff" points="278.31,-162.49 271.64,-170.71 281.99,-168.45 278.31,-162.49"/>
</a>
</g>
</g>
<!-- Node2&#45;&gt;Node3 -->
<g id="edge2_Node000002_Node000003" class="edge">
<title>Node2&#45;&gt;Node3</title>
<g id="a_edge2_Node000002_Node000003"><a xlink:title=" ">
<path fill="none" stroke="#63b8ff" d="M175.07,-80.39C152.93,-68.77 127.33,-55.33 106.46,-44.37"/>
<polygon fill="#63b8ff" stroke="#63b8ff" points="173.14,-83.33 183.62,-84.88 176.39,-77.14 173.14,-83.33"/>
</a>
</g>
</g>
<!-- Node4 -->
<g id="Node000004" class="node">
<title>Node4</title>
<g id="a_Node000004"><a xlink:href="update__menu__config_8cpp.html" target="_top" xlink:title=" ">
<polygon fill="white" stroke="#666666" points="302.38,-44 149.12,-44 149.12,0 302.38,0 302.38,-44"/>
<text xml:space="preserve" text-anchor="start" x="157.12" y="-30.5" font-family="Helvetica,sans-Serif" font-size="10.00">depicture_menu/src</text>
<text xml:space="preserve" text-anchor="start" x="157.12" y="-18.5" font-family="Helvetica,sans-Serif" font-size="10.00">/core/usecase/config</text>
<text xml:space="preserve" text-anchor="middle" x="225.75" y="-6.5" font-family="Helvetica,sans-Serif" font-size="10.00">_view/update_menu_config.cpp</text>
</a>
</g>
</g>
<!-- Node2&#45;&gt;Node4 -->
<g id="edge3_Node000002_Node000004" class="edge">
<title>Node2&#45;&gt;Node4</title>
<g id="a_edge3_Node000002_Node000004"><a xlink:title=" ">
<path fill="none" stroke="#63b8ff" d="M225.75,-74.49C225.75,-64.43 225.75,-53.6 225.75,-44.48"/>
<polygon fill="#63b8ff" stroke="#63b8ff" points="222.25,-74.29 225.75,-84.29 229.25,-74.29 222.25,-74.29"/>
</a>
</g>
</g>
<!-- Node5 -->
<g id="Node000005" class="node">
<title>Node5</title>
<g id="a_Node000005"><a xlink:href="deploy__default__setting_8cpp.html" target="_top" xlink:title=" ">
<polygon fill="white" stroke="#666666" points="429.25,-44 320.25,-44 320.25,0 429.25,0 429.25,-44"/>
<text xml:space="preserve" text-anchor="start" x="328.25" y="-30.5" font-family="Helvetica,sans-Serif" font-size="10.00">depicture_menu/src</text>
<text xml:space="preserve" text-anchor="start" x="328.25" y="-18.5" font-family="Helvetica,sans-Serif" font-size="10.00">/core/usecase/deploy</text>
<text xml:space="preserve" text-anchor="middle" x="374.75" y="-6.5" font-family="Helvetica,sans-Serif" font-size="10.00">_default_setting.cpp</text>
</a>
</g>
</g>
<!-- Node2&#45;&gt;Node5 -->
<g id="edge4_Node000002_Node000005" class="edge">
<title>Node2&#45;&gt;Node5</title>
<g id="a_edge4_Node000002_Node000005"><a xlink:title=" ">
<path fill="none" stroke="#63b8ff" d="M273.51,-80.08C293.99,-68.53 317.58,-55.23 336.83,-44.37"/>
<polygon fill="#63b8ff" stroke="#63b8ff" points="272.05,-76.88 265.05,-84.84 275.48,-82.98 272.05,-76.88"/>
</a>
</g>
</g>
<!-- Node6 -->
<g id="Node000006" class="node">
<title>Node6</title>
<g id="a_Node000006"><a xlink:href="test__common__action__builder_8cpp.html" target="_top" xlink:title=" ">
<polygon fill="white" stroke="#666666" points="609.88,-44 447.62,-44 447.62,0 609.88,0 609.88,-44"/>
<text xml:space="preserve" text-anchor="start" x="455.62" y="-30.5" font-family="Helvetica,sans-Serif" font-size="10.00">depicture_menu/test</text>
<text xml:space="preserve" text-anchor="start" x="455.62" y="-18.5" font-family="Helvetica,sans-Serif" font-size="10.00">/core/domain/service</text>
<text xml:space="preserve" text-anchor="middle" x="528.75" y="-6.5" font-family="Helvetica,sans-Serif" font-size="10.00">/test_common_action_builder.cpp</text>
</a>
</g>
</g>
<!-- Node2&#45;&gt;Node6 -->
<g id="edge5_Node000002_Node000006" class="edge">
<title>Node2&#45;&gt;Node6</title>
<g id="a_edge5_Node000002_Node000006"><a xlink:title=" ">
<path fill="none" stroke="#63b8ff" d="M297.55,-82.19C299.97,-81.44 302.38,-80.71 304.75,-80 351.58,-66.06 404.53,-52.49 447.19,-42.09"/>
<polygon fill="#63b8ff" stroke="#63b8ff" points="296.76,-78.77 288.28,-85.12 298.87,-85.44 296.76,-78.77"/>
</a>
</g>
</g>
</g>
</svg>
