<?xml version="1.0" encoding="UTF-8" standalone="no"?>
<!DOCTYPE svg PUBLIC "-//W3C//DTD SVG 1.1//EN"
 "http://www.w3.org/Graphics/SVG/1.1/DTD/svg11.dtd">
<!-- Generated by graphviz version 14.1.2 (20260124.0452)
 -->
<!-- Title: depicture_menu/src/core/cs_binding/observer/collection_changed_kind.hpp Pages: 1 -->
<!--zoomable 580 -->

<svg id="main" version="1.1" xmlns="http://www.w3.org/2000/svg" xmlns:xlink="http://www.w3.org/1999/xlink" xml:space="preserve" onload="init(evt)">

<style type="text/css"><![CDATA[
.node, .edge {opacity: 0.7;}
.node.selected, .edge.selected {opacity: 1;}
.edge:hover path { stroke: red; }
.edge:hover polygon { stroke: red; fill: red; }
]]></style>

<defs>
  <circle id="rim" cx="0" cy="0" r="7"/>
  <circle id="rim2" cx="0" cy="0" r="3.5"/>
  <g id="zoomPlus">
    <use xlink:href="#rim" fill="#404040"><set attributeName="fill" to="#808080" begin="zoomplus.mouseover" end="zoomplus.mouseout"/></use>
    <path d="M-4,0h8M0,-4v8" fill="none" stroke="white" stroke-width="1.5" pointer-events="none"/>
  </g>
  <g id="zoomMin">
    <use xlink:href="#rim" fill="#404040"><set attributeName="fill" to="#808080" begin="zoomminus.mouseover" end="zoomminus.mouseout"/></use>
    <path d="M-4,0h8" fill="none" stroke="white" stroke-width="1.5" pointer-events="none"/>
  </g>
  <g id="arrowUp" transform="translate(30 24)">
    <use xlink:href="#rim"/>
    <path pointer-events="none" fill="none" stroke="white" stroke-width="1.5" d="M0,-3.0v7 M-2.5,-0.5L0,-3.0L2.5,-0.5"/>
  </g>
  <g id="arrowRight" transform="rotate(90) translate(36 -43)">
    <use xlink:href="#rim"/>
    <path pointer-events="none" fill="none" stroke="white" stroke-width="1.5" d="M0,-3.0v7 M-2.5,-0.5L0,-3.0L2.5,-0.5"/>
  </g>
  <g id="arrowDown" transform="rotate(180) translate(-30 -48)">
    <use xlink:href="#rim"/>
    <path pointer-events="none" fill="none" stroke="white" stroke-width="1.5" d="M0,-3.0v7 M-2.5,-0.5L0,-3.0L2.5,-0.5"/>
  </g>
  <g id="arrowLeft" transform="rotate(270) translate(-36 17)">
    <use xlink:href="#rim"/>
    <path pointer-events="none" fill="none" stroke="white" stroke-width="1.5" d="M0,-3.0v7 M-2.5,-0.5L0,-3.0L2.5,-0.5"/>
  </g>
  <g id="resetDef">
    <use xlink:href="#rim2" fill="#404040"><set attributeName="fill" to="#808080" begin="reset.mouseover" end="reset.mouseout"/></use>
  </g>
</defs>
<script type="application/ecmascript">
var viewWidth = 1676;
var viewHeight = 580;
var sectionId = 'dynsection-0';
</script>
<script type="application/ecmascript" xlink:href="svg.min.js"/>
<svg id="graph" class="graph">
<g id="viewport">
<title>depicture_menu/src/core/cs_binding/observer/collection_changed_kind.hpp</title>
<!-- Node1 -->
<g id="Node000001" class="node">
<title>Node1</title>
<g id="a_Node000001"><a xlink:title=" ">
<polygon fill="#999999" stroke="#666666" points="1378.25,-572 1234,-572 1234,-528 1378.25,-528 1378.25,-572"/>
<text xml:space="preserve" text-anchor="start" x="1242" y="-558.5" font-family="Helvetica,sans-Serif" font-size="10.00">depicture_menu/src</text>
<text xml:space="preserve" text-anchor="start" x="1242" y="-546.5" font-family="Helvetica,sans-Serif" font-size="10.00">/core/cs_binding/observer</text>
<text xml:space="preserve" text-anchor="middle" x="1306.12" y="-534.5" font-family="Helvetica,sans-Serif" font-size="10.00">/collection_changed_kind.hpp</text>
</a>
</g>
</g>
<!-- Node2 -->
<g id="Node000002" class="node">
<title>Node2</title>
<g id="a_Node000002"><a xlink:href="change__event__publisher_8hpp.html" target="_top" xlink:title=" ">
<polygon fill="white" stroke="#666666" points="1289.5,-400 1146.75,-400 1146.75,-356 1289.5,-356 1289.5,-400"/>
<text xml:space="preserve" text-anchor="start" x="1154.75" y="-386.5" font-family="Helvetica,sans-Serif" font-size="10.00">depicture_menu/src</text>
<text xml:space="preserve" text-anchor="start" x="1154.75" y="-374.5" font-family="Helvetica,sans-Serif" font-size="10.00">/core/cs_binding/observer</text>
<text xml:space="preserve" text-anchor="middle" x="1218.12" y="-362.5" font-family="Helvetica,sans-Serif" font-size="10.00">/change_event_publisher.hpp</text>
</a>
</g>
</g>
<!-- Node1&#45;&gt;Node2 -->
<g id="edge1_Node000001_Node000002" class="edge">
<title>Node1&#45;&gt;Node2</title>
<g id="a_edge1_Node000001_Node000002"><a xlink:title=" ">
<path fill="none" stroke="#63b8ff" d="M1298.84,-516.47C1292.75,-493.07 1282.7,-461.32 1268.12,-436 1260.71,-423.11 1250.09,-410.49 1240.55,-400.42"/>
<polygon fill="#63b8ff" stroke="#63b8ff" points="1295.42,-517.21 1301.23,-526.07 1302.21,-515.52 1295.42,-517.21"/>
</a>
</g>
</g>
<!-- Node3 -->
<g id="Node000003" class="node">
<title>Node3</title>
<g id="a_Node000003"><a xlink:href="configview__observer_8hpp.html" target="_top" xlink:title=" ">
<polygon fill="white" stroke="#666666" points="1282,-320 1154.25,-320 1154.25,-276 1282,-276 1282,-320"/>
<text xml:space="preserve" text-anchor="start" x="1162.25" y="-306.5" font-family="Helvetica,sans-Serif" font-size="10.00">depicture_menu/src</text>
<text xml:space="preserve" text-anchor="start" x="1162.25" y="-294.5" font-family="Helvetica,sans-Serif" font-size="10.00">/core/cs_binding/observer</text>
<text xml:space="preserve" text-anchor="middle" x="1218.12" y="-282.5" font-family="Helvetica,sans-Serif" font-size="10.00">/configview_observer.hpp</text>
</a>
</g>
</g>
<!-- Node1&#45;&gt;Node3 -->
<g id="edge35_Node000001_Node000003" class="edge">
<title>Node1&#45;&gt;Node3</title>
<g id="a_edge35_Node000001_Node000003"><a xlink:title=" ">
<path fill="none" stroke="#63b8ff" d="M1313.02,-516.43C1319.79,-476.12 1325.55,-406.61 1298.12,-356 1290.08,-341.16 1276.3,-329.27 1262.41,-320.27"/>
<polygon fill="#63b8ff" stroke="#63b8ff" points="1309.59,-515.76 1311.24,-526.22 1316.48,-517.01 1309.59,-515.76"/>
</a>
</g>
</g>
<!-- Node25 -->
<g id="Node000025" class="node">
<title>Node25</title>
<g id="a_Node000025"><a xlink:href="changed__notify__frameworks_8hpp.html" target="_top" xlink:title=" ">
<polygon fill="white" stroke="#666666" points="1517.12,-400 1357.12,-400 1357.12,-356 1517.12,-356 1517.12,-400"/>
<text xml:space="preserve" text-anchor="start" x="1365.12" y="-386.5" font-family="Helvetica,sans-Serif" font-size="10.00">depicture_menu/src</text>
<text xml:space="preserve" text-anchor="start" x="1365.12" y="-374.5" font-family="Helvetica,sans-Serif" font-size="10.00">/core/cs_binding/observer</text>
<text xml:space="preserve" text-anchor="middle" x="1437.12" y="-362.5" font-family="Helvetica,sans-Serif" font-size="10.00">/changed_notify_frameworks.hpp</text>
</a>
</g>
</g>
<!-- Node1&#45;&gt;Node25 -->
<g id="edge31_Node000001_Node000025" class="edge">
<title>Node1&#45;&gt;Node25</title>
<g id="a_edge31_Node000001_Node000025"><a xlink:title=" ">
<path fill="none" stroke="#63b8ff" d="M1329.4,-518.8C1355.61,-484.79 1397.53,-430.38 1420.59,-400.45"/>
<polygon fill="#63b8ff" stroke="#63b8ff" points="1326.71,-516.56 1323.38,-526.61 1332.25,-520.83 1326.71,-516.56"/>
</a>
</g>
</g>
<!-- Node26 -->
<g id="Node000026" class="node">
<title>Node26</title>
<g id="a_Node000026"><a xlink:href="config__view__topic__type__traits_8hpp.html" target="_top" xlink:title=" ">
<polygon fill="white" stroke="#666666" points="1259,-492 1131.25,-492 1131.25,-436 1259,-436 1259,-492"/>
<text xml:space="preserve" text-anchor="start" x="1139.25" y="-478.5" font-family="Helvetica,sans-Serif" font-size="10.00">depicture_menu/src</text>
<text xml:space="preserve" text-anchor="start" x="1139.25" y="-466.5" font-family="Helvetica,sans-Serif" font-size="10.00">/core/cs_binding/observer</text>
<text xml:space="preserve" text-anchor="start" x="1139.25" y="-454.5" font-family="Helvetica,sans-Serif" font-size="10.00">/config_view_topic_type</text>
<text xml:space="preserve" text-anchor="middle" x="1195.12" y="-442.5" font-family="Helvetica,sans-Serif" font-size="10.00">_traits.hpp</text>
</a>
</g>
</g>
<!-- Node1&#45;&gt;Node26 -->
<g id="edge33_Node000001_Node000026" class="edge">
<title>Node1&#45;&gt;Node26</title>
<g id="a_edge33_Node000001_Node000026"><a xlink:title=" ">
<path fill="none" stroke="#63b8ff" d="M1268.87,-520.81C1256.78,-511.65 1243.38,-501.51 1231.35,-492.42"/>
<polygon fill="#63b8ff" stroke="#63b8ff" points="1266.53,-523.43 1276.62,-526.67 1270.76,-517.85 1266.53,-523.43"/>
</a>
</g>
</g>
<!-- Node2&#45;&gt;Node3 -->
<g id="edge2_Node000002_Node000003" class="edge">
<title>Node2&#45;&gt;Node3</title>
<g id="a_edge2_Node000002_Node000003"><a xlink:title=" ">
<path fill="none" stroke="#63b8ff" d="M1218.12,-344.25C1218.12,-336.15 1218.12,-327.68 1218.12,-320.29"/>
<polygon fill="#63b8ff" stroke="#63b8ff" points="1214.63,-344.17 1218.13,-354.17 1221.63,-344.17 1214.63,-344.17"/>
</a>
</g>
</g>
<!-- Node4 -->
<g id="Node000004" class="node">
<title>Node4</title>
<g id="a_Node000004"><a xlink:href="core__interface_8hpp.html" target="_top" xlink:title=" ">
<polygon fill="white" stroke="#666666" points="740.62,-234 631.62,-234 631.62,-190 740.62,-190 740.62,-234"/>
<text xml:space="preserve" text-anchor="start" x="639.62" y="-220.5" font-family="Helvetica,sans-Serif" font-size="10.00">depicture_menu/src</text>
<text xml:space="preserve" text-anchor="start" x="639.62" y="-208.5" font-family="Helvetica,sans-Serif" font-size="10.00">/core/application/core</text>
<text xml:space="preserve" text-anchor="middle" x="686.12" y="-196.5" font-family="Helvetica,sans-Serif" font-size="10.00">_interface.hpp</text>
</a>
</g>
</g>
<!-- Node3&#45;&gt;Node4 -->
<g id="edge3_Node000003_Node000004" class="edge">
<title>Node3&#45;&gt;Node4</title>
<g id="a_edge3_Node000003_Node000004"><a xlink:title=" ">
<path fill="none" stroke="#63b8ff" d="M1142.78,-285.1C1034.26,-267.97 836.54,-236.75 740.87,-221.64"/>
<polygon fill="#63b8ff" stroke="#63b8ff" points="1142.03,-288.53 1152.46,-286.63 1143.13,-281.61 1142.03,-288.53"/>
</a>
</g>
</g>
<!-- Node18 -->
<g id="Node000018" class="node">
<title>Node18</title>
<g id="a_Node000018"><a xlink:href="config__view__arg__builder_8hpp.html" target="_top" xlink:title=" ">
<polygon fill="white" stroke="#666666" points="1120.38,-148 1003.88,-148 1003.88,-92 1120.38,-92 1120.38,-148"/>
<text xml:space="preserve" text-anchor="start" x="1011.88" y="-134.5" font-family="Helvetica,sans-Serif" font-size="10.00">depicture_menu/src</text>
<text xml:space="preserve" text-anchor="start" x="1011.88" y="-122.5" font-family="Helvetica,sans-Serif" font-size="10.00">/core/application/cs</text>
<text xml:space="preserve" text-anchor="start" x="1011.88" y="-110.5" font-family="Helvetica,sans-Serif" font-size="10.00">_binding_factory/config</text>
<text xml:space="preserve" text-anchor="middle" x="1062.12" y="-98.5" font-family="Helvetica,sans-Serif" font-size="10.00">_view_arg_builder.hpp</text>
</a>
</g>
</g>
<!-- Node3&#45;&gt;Node18 -->
<g id="edge19_Node000003_Node000018" class="edge">
<title>Node3&#45;&gt;Node18</title>
<g id="a_edge19_Node000003_Node000018"><a xlink:title=" ">
<path fill="none" stroke="#63b8ff" d="M1215.15,-264.26C1211.42,-239.78 1203.03,-206.75 1184.12,-184 1174.95,-172.95 1147.38,-158.35 1120.77,-145.98"/>
<polygon fill="#63b8ff" stroke="#63b8ff" points="1211.66,-264.55 1216.43,-274.01 1218.6,-263.64 1211.66,-264.55"/>
</a>
</g>
</g>
<!-- Node19 -->
<g id="Node000019" class="node">
<title>Node19</title>
<g id="a_Node000019"><a xlink:href="configview__observer_8cpp.html" target="_top" xlink:title=" ">
<polygon fill="white" stroke="#666666" points="1505,-234 1377.25,-234 1377.25,-190 1505,-190 1505,-234"/>
<text xml:space="preserve" text-anchor="start" x="1385.25" y="-220.5" font-family="Helvetica,sans-Serif" font-size="10.00">depicture_menu/src</text>
<text xml:space="preserve" text-anchor="start" x="1385.25" y="-208.5" font-family="Helvetica,sans-Serif" font-size="10.00">/core/cs_binding/observer</text>
<text xml:space="preserve" text-anchor="middle" x="1441.12" y="-196.5" font-family="Helvetica,sans-Serif" font-size="10.00">/configview_observer.cpp</text>
</a>
</g>
</g>
<!-- Node3&#45;&gt;Node19 -->
<g id="edge22_Node000003_Node000019" class="edge">
<title>Node3&#45;&gt;Node19</title>
<g id="a_edge22_Node000003_Node000019"><a xlink:title=" ">
<path fill="none" stroke="#63b8ff" d="M1285.45,-271.64C1317.03,-259.74 1354.25,-245.72 1384.38,-234.37"/>
<polygon fill="#63b8ff" stroke="#63b8ff" points="1284.52,-268.25 1276.39,-275.05 1286.98,-274.8 1284.52,-268.25"/>
</a>
</g>
</g>
<!-- Node20 -->
<g id="Node000020" class="node">
<title>Node20</title>
<g id="a_Node000020"><a xlink:href="config__view__presenter_8hpp.html" target="_top" xlink:title="コンフィグビュープレゼンター">
<polygon fill="white" stroke="#666666" points="1359.38,-240 1230.88,-240 1230.88,-184 1359.38,-184 1359.38,-240"/>
<text xml:space="preserve" text-anchor="start" x="1238.88" y="-226.5" font-family="Helvetica,sans-Serif" font-size="10.00">depicture_menu/src</text>
<text xml:space="preserve" text-anchor="start" x="1238.88" y="-214.5" font-family="Helvetica,sans-Serif" font-size="10.00">/core/presentation/change</text>
<text xml:space="preserve" text-anchor="start" x="1238.88" y="-202.5" font-family="Helvetica,sans-Serif" font-size="10.00">_view_model/config_view</text>
<text xml:space="preserve" text-anchor="middle" x="1295.12" y="-190.5" font-family="Helvetica,sans-Serif" font-size="10.00">_presenter.hpp</text>
</a>
</g>
</g>
<!-- Node3&#45;&gt;Node20 -->
<g id="edge23_Node000003_Node000020" class="edge">
<title>Node3&#45;&gt;Node20</title>
<g id="a_edge23_Node000003_Node000020"><a xlink:title=" ">
<path fill="none" stroke="#63b8ff" d="M1245.33,-267.32C1253.42,-258.5 1262.23,-248.89 1270.16,-240.24"/>
<polygon fill="#63b8ff" stroke="#63b8ff" points="1242.76,-264.95 1238.58,-274.69 1247.92,-269.68 1242.76,-264.95"/>
</a>
</g>
</g>
<!-- Node24 -->
<g id="Node000024" class="node">
<title>Node24</title>
<g id="a_Node000024"><a xlink:href="_test_config_view_observer_8cpp.html" target="_top" xlink:title=" ">
<polygon fill="white" stroke="#666666" points="1175.38,-234 1028.88,-234 1028.88,-190 1175.38,-190 1175.38,-234"/>
<text xml:space="preserve" text-anchor="start" x="1036.88" y="-220.5" font-family="Helvetica,sans-Serif" font-size="10.00">depicture_menu/test</text>
<text xml:space="preserve" text-anchor="start" x="1036.88" y="-208.5" font-family="Helvetica,sans-Serif" font-size="10.00">/core/cs_binding/observer</text>
<text xml:space="preserve" text-anchor="middle" x="1102.12" y="-196.5" font-family="Helvetica,sans-Serif" font-size="10.00">/TestConfigViewObserver.cpp</text>
</a>
</g>
</g>
<!-- Node3&#45;&gt;Node24 -->
<g id="edge30_Node000003_Node000024" class="edge">
<title>Node3&#45;&gt;Node24</title>
<g id="a_edge30_Node000003_Node000024"><a xlink:title=" ">
<path fill="none" stroke="#63b8ff" d="M1179.64,-269.13C1164,-257.81 1146.22,-244.93 1131.64,-234.37"/>
<polygon fill="#63b8ff" stroke="#63b8ff" points="1177.18,-271.67 1187.33,-274.7 1181.28,-266 1177.18,-271.67"/>
</a>
</g>
</g>
<!-- Node5 -->
<g id="Node000005" class="node">
<title>Node5</title>
<g id="a_Node000005"><a xlink:href="archiver__build_8hpp.html" target="_top" xlink:title=" ">
<polygon fill="white" stroke="#666666" points="748.5,-142 623.75,-142 623.75,-98 748.5,-98 748.5,-142"/>
<text xml:space="preserve" text-anchor="start" x="631.75" y="-128.5" font-family="Helvetica,sans-Serif" font-size="10.00">depicture_menu/src</text>
<text xml:space="preserve" text-anchor="start" x="631.75" y="-116.5" font-family="Helvetica,sans-Serif" font-size="10.00">/core/application/archiver</text>
<text xml:space="preserve" text-anchor="middle" x="686.12" y="-104.5" font-family="Helvetica,sans-Serif" font-size="10.00">/archiver_build.hpp</text>
</a>
</g>
</g>
<!-- Node4&#45;&gt;Node5 -->
<g id="edge4_Node000004_Node000005" class="edge">
<title>Node4&#45;&gt;Node5</title>
<g id="a_edge4_Node000004_Node000005"><a xlink:title=" ">
<path fill="none" stroke="#63b8ff" d="M686.12,-178.3C686.12,-166.37 686.12,-153.19 686.12,-142.49"/>
<polygon fill="#63b8ff" stroke="#63b8ff" points="682.63,-178.16 686.13,-188.16 689.63,-178.16 682.63,-178.16"/>
</a>
</g>
</g>
<!-- Node9 -->
<g id="Node000009" class="node">
<title>Node9</title>
<g id="a_Node000009"><a xlink:href="core__interface_8cpp.html" target="_top" xlink:title=" ">
<polygon fill="white" stroke="#666666" points="605.62,-142 496.62,-142 496.62,-98 605.62,-98 605.62,-142"/>
<text xml:space="preserve" text-anchor="start" x="504.62" y="-128.5" font-family="Helvetica,sans-Serif" font-size="10.00">depicture_menu/src</text>
<text xml:space="preserve" text-anchor="start" x="504.62" y="-116.5" font-family="Helvetica,sans-Serif" font-size="10.00">/core/application/core</text>
<text xml:space="preserve" text-anchor="middle" x="551.12" y="-104.5" font-family="Helvetica,sans-Serif" font-size="10.00">_interface.cpp</text>
</a>
</g>
</g>
<!-- Node4&#45;&gt;Node9 -->
<g id="edge8_Node000004_Node000009" class="edge">
<title>Node4&#45;&gt;Node9</title>
<g id="a_edge8_Node000004_Node000009"><a xlink:title=" ">
<path fill="none" stroke="#63b8ff" d="M644.76,-183.42C625.02,-170.27 601.76,-154.76 583.36,-142.49"/>
<polygon fill="#63b8ff" stroke="#63b8ff" points="642.61,-186.2 652.87,-188.83 646.49,-180.37 642.61,-186.2"/>
</a>
</g>
</g>
<!-- Node10 -->
<g id="Node000010" class="node">
<title>Node10</title>
<g id="a_Node000010"><a xlink:href="config__view__dispatch_8cpp.html" target="_top" xlink:title=" ">
<polygon fill="white" stroke="#666666" points="903.88,-50 730.38,-50 730.38,-6 903.88,-6 903.88,-50"/>
<text xml:space="preserve" text-anchor="start" x="738.38" y="-36.5" font-family="Helvetica,sans-Serif" font-size="10.00">depicture_menu/src</text>
<text xml:space="preserve" text-anchor="start" x="738.38" y="-24.5" font-family="Helvetica,sans-Serif" font-size="10.00">/core/application/usecase</text>
<text xml:space="preserve" text-anchor="middle" x="817.12" y="-12.5" font-family="Helvetica,sans-Serif" font-size="10.00">_dispatch/config_view_dispatch.cpp</text>
</a>
</g>
</g>
<!-- Node4&#45;&gt;Node10 -->
<g id="edge9_Node000004_Node000010" class="edge">
<title>Node4&#45;&gt;Node10</title>
<g id="a_edge9_Node000004_Node000010"><a xlink:title=" ">
<path fill="none" stroke="#63b8ff" d="M723.78,-182.25C735.38,-172.24 747.59,-160.38 757.12,-148 780.98,-117.01 799.48,-75.08 809.31,-50.15"/>
<polygon fill="#63b8ff" stroke="#63b8ff" points="721.67,-179.46 716.25,-188.56 726.16,-184.83 721.67,-179.46"/>
</a>
</g>
</g>
<!-- Node11 -->
<g id="Node000011" class="node">
<title>Node11</title>
<g id="a_Node000011"><a xlink:href="menu__config__controler_8cpp.html" target="_top" xlink:title=" ">
<polygon fill="white" stroke="#666666" points="174.25,-142 0,-142 0,-98 174.25,-98 174.25,-142"/>
<text xml:space="preserve" text-anchor="start" x="8" y="-128.5" font-family="Helvetica,sans-Serif" font-size="10.00">depicture_menu/src</text>
<text xml:space="preserve" text-anchor="start" x="8" y="-116.5" font-family="Helvetica,sans-Serif" font-size="10.00">/core/control/config</text>
<text xml:space="preserve" text-anchor="middle" x="87.12" y="-104.5" font-family="Helvetica,sans-Serif" font-size="10.00">_window/menu_config_controler.cpp</text>
</a>
</g>
</g>
<!-- Node4&#45;&gt;Node11 -->
<g id="edge10_Node000004_Node000011" class="edge">
<title>Node4&#45;&gt;Node11</title>
<g id="a_edge10_Node000004_Node000011"><a xlink:title=" ">
<path fill="none" stroke="#63b8ff" d="M620.02,-205.89C523.37,-197.71 338.14,-179.32 183.12,-148 175.23,-146.41 167.04,-144.5 158.92,-142.45"/>
<polygon fill="#63b8ff" stroke="#63b8ff" points="619.59,-209.37 629.85,-206.72 620.17,-202.39 619.59,-209.37"/>
</a>
</g>
</g>
<!-- Node12 -->
<g id="Node000012" class="node">
<title>Node12</title>
<g id="a_Node000012"><a xlink:href="cs__bindings_8cpp.html" target="_top" xlink:title=" ">
<polygon fill="white" stroke="#666666" points="310.12,-148 192.12,-148 192.12,-92 310.12,-92 310.12,-148"/>
<text xml:space="preserve" text-anchor="start" x="200.12" y="-134.5" font-family="Helvetica,sans-Serif" font-size="10.00">depicture_menu/src</text>
<text xml:space="preserve" text-anchor="start" x="200.12" y="-122.5" font-family="Helvetica,sans-Serif" font-size="10.00">/core/dll_entry_point</text>
<text xml:space="preserve" text-anchor="start" x="200.12" y="-110.5" font-family="Helvetica,sans-Serif" font-size="10.00">/cs_binding/menu_view</text>
<text xml:space="preserve" text-anchor="middle" x="251.12" y="-98.5" font-family="Helvetica,sans-Serif" font-size="10.00">/cs_bindings.cpp</text>
</a>
</g>
</g>
<!-- Node4&#45;&gt;Node12 -->
<g id="edge11_Node000004_Node000012" class="edge">
<title>Node4&#45;&gt;Node12</title>
<g id="a_edge11_Node000004_Node000012"><a xlink:title=" ">
<path fill="none" stroke="#63b8ff" d="M620.22,-203.88C546.05,-194.9 422.42,-177.03 319.12,-148 316.31,-147.21 313.46,-146.34 310.59,-145.42"/>
<polygon fill="#63b8ff" stroke="#63b8ff" points="619.39,-207.3 629.74,-205.01 620.22,-200.35 619.39,-207.3"/>
</a>
</g>
</g>
<!-- Node13 -->
<g id="Node000013" class="node">
<title>Node13</title>
<g id="a_Node000013"><a xlink:href="setup__core_8cpp.html" target="_top" xlink:title=" ">
<polygon fill="white" stroke="#666666" points="1170.12,-56 1058.12,-56 1058.12,0 1170.12,0 1170.12,-56"/>
<text xml:space="preserve" text-anchor="start" x="1066.12" y="-42.5" font-family="Helvetica,sans-Serif" font-size="10.00">depicture_menu/src</text>
<text xml:space="preserve" text-anchor="start" x="1066.12" y="-30.5" font-family="Helvetica,sans-Serif" font-size="10.00">/core/dll_entry_point</text>
<text xml:space="preserve" text-anchor="start" x="1066.12" y="-18.5" font-family="Helvetica,sans-Serif" font-size="10.00">/domain_control/setup</text>
<text xml:space="preserve" text-anchor="middle" x="1114.12" y="-6.5" font-family="Helvetica,sans-Serif" font-size="10.00">_core.cpp</text>
</a>
</g>
</g>
<!-- Node4&#45;&gt;Node13 -->
<g id="edge12_Node000004_Node000013" class="edge">
<title>Node4&#45;&gt;Node13</title>
<g id="a_edge12_Node000004_Node000013"><a xlink:title=" ">
<path fill="none" stroke="#63b8ff" d="M752.25,-208.97C810.72,-204.25 895.99,-189.96 957.12,-148 981.92,-130.98 972.73,-112.07 995.12,-92 1013.4,-75.62 1036.71,-62.08 1057.84,-51.8"/>
<polygon fill="#63b8ff" stroke="#63b8ff" points="752.16,-205.47 742.44,-209.68 752.67,-212.45 752.16,-205.47"/>
</a>
</g>
</g>
<!-- Node14 -->
<g id="Node000014" class="node">
<title>Node14</title>
<g id="a_Node000014"><a xlink:href="app__option__window__presenter_8cpp.html" target="_top" xlink:title=" ">
<polygon fill="white" stroke="#666666" points="478.25,-142 328,-142 328,-98 478.25,-98 478.25,-142"/>
<text xml:space="preserve" text-anchor="start" x="336" y="-128.5" font-family="Helvetica,sans-Serif" font-size="10.00">depicture_menu/src</text>
<text xml:space="preserve" text-anchor="start" x="336" y="-116.5" font-family="Helvetica,sans-Serif" font-size="10.00">/core/presentation/app</text>
<text xml:space="preserve" text-anchor="middle" x="403.12" y="-104.5" font-family="Helvetica,sans-Serif" font-size="10.00">_option_window_presenter.cpp</text>
</a>
</g>
</g>
<!-- Node4&#45;&gt;Node14 -->
<g id="edge13_Node000004_Node000014" class="edge">
<title>Node4&#45;&gt;Node14</title>
<g id="a_edge13_Node000004_Node000014"><a xlink:title=" ">
<path fill="none" stroke="#63b8ff" d="M620.57,-190.33C581.75,-178.06 531.62,-162.19 487.12,-148 481.43,-146.18 475.53,-144.3 469.6,-142.4"/>
<polygon fill="#63b8ff" stroke="#63b8ff" points="619.17,-193.55 629.76,-193.23 621.28,-186.88 619.17,-193.55"/>
</a>
</g>
</g>
<!-- Node15 -->
<g id="Node000015" class="node">
<title>Node15</title>
<g id="a_Node000015"><a xlink:href="global__hotkey__presenter_8hpp.html" target="_top" xlink:title=" ">
<polygon fill="white" stroke="#666666" points="947.88,-142 804.38,-142 804.38,-98 947.88,-98 947.88,-142"/>
<text xml:space="preserve" text-anchor="start" x="812.38" y="-128.5" font-family="Helvetica,sans-Serif" font-size="10.00">depicture_menu/src</text>
<text xml:space="preserve" text-anchor="start" x="812.38" y="-116.5" font-family="Helvetica,sans-Serif" font-size="10.00">/core/presentation/hotkey</text>
<text xml:space="preserve" text-anchor="middle" x="876.12" y="-104.5" font-family="Helvetica,sans-Serif" font-size="10.00">/global_hotkey_presenter.hpp</text>
</a>
</g>
</g>
<!-- Node4&#45;&gt;Node15 -->
<g id="edge14_Node000004_Node000015" class="edge">
<title>Node4&#45;&gt;Node15</title>
<g id="a_edge14_Node000004_Node000015"><a xlink:title=" ">
<path fill="none" stroke="#63b8ff" d="M741.33,-184.85C769.73,-171.4 803.92,-155.2 830.76,-142.49"/>
<polygon fill="#63b8ff" stroke="#63b8ff" points="740.06,-181.58 732.52,-189.02 743.06,-187.91 740.06,-181.58"/>
</a>
</g>
</g>
<!-- Node6 -->
<g id="Node000006" class="node">
<title>Node6</title>
<g id="a_Node000006"><a xlink:href="application__archiver__0_8cpp.html" target="_top" xlink:title=" ">
<polygon fill="white" stroke="#666666" points="559.38,-50 424.88,-50 424.88,-6 559.38,-6 559.38,-50"/>
<text xml:space="preserve" text-anchor="start" x="432.88" y="-36.5" font-family="Helvetica,sans-Serif" font-size="10.00">depicture_menu/src</text>
<text xml:space="preserve" text-anchor="start" x="432.88" y="-24.5" font-family="Helvetica,sans-Serif" font-size="10.00">/core/application/archiver</text>
<text xml:space="preserve" text-anchor="middle" x="492.12" y="-12.5" font-family="Helvetica,sans-Serif" font-size="10.00">/application_archiver_0.cpp</text>
</a>
</g>
</g>
<!-- Node5&#45;&gt;Node6 -->
<g id="edge5_Node000005_Node000006" class="edge">
<title>Node5&#45;&gt;Node6</title>
<g id="a_edge5_Node000005_Node000006"><a xlink:title=" ">
<path fill="none" stroke="#63b8ff" d="M629.76,-92.85C600.76,-79.4 565.85,-63.2 538.44,-50.49"/>
<polygon fill="#63b8ff" stroke="#63b8ff" points="628.23,-96 638.78,-97.03 631.18,-89.65 628.23,-96"/>
</a>
</g>
</g>
<!-- Node7 -->
<g id="Node000007" class="node">
<title>Node7</title>
<g id="a_Node000007"><a xlink:href="application__archiver__1_8cpp.html" target="_top" xlink:title=" ">
<polygon fill="white" stroke="#666666" points="712.38,-50 577.88,-50 577.88,-6 712.38,-6 712.38,-50"/>
<text xml:space="preserve" text-anchor="start" x="585.88" y="-36.5" font-family="Helvetica,sans-Serif" font-size="10.00">depicture_menu/src</text>
<text xml:space="preserve" text-anchor="start" x="585.88" y="-24.5" font-family="Helvetica,sans-Serif" font-size="10.00">/core/application/archiver</text>
<text xml:space="preserve" text-anchor="middle" x="645.12" y="-12.5" font-family="Helvetica,sans-Serif" font-size="10.00">/application_archiver_1.cpp</text>
</a>
</g>
</g>
<!-- Node5&#45;&gt;Node7 -->
<g id="edge6_Node000005_Node000007" class="edge">
<title>Node5&#45;&gt;Node7</title>
<g id="a_edge6_Node000005_Node000007"><a xlink:title=" ">
<path fill="none" stroke="#63b8ff" d="M671.73,-87.41C666.17,-75.2 659.94,-61.53 654.91,-50.49"/>
<polygon fill="#63b8ff" stroke="#63b8ff" points="668.45,-88.64 675.78,-96.29 674.82,-85.74 668.45,-88.64"/>
</a>
</g>
</g>
<!-- Node8 -->
<g id="Node000008" class="node">
<title>Node8</title>
<g id="a_Node000008"><a xlink:href="archiver__build_8cpp.html" target="_top" xlink:title=" ">
<polygon fill="white" stroke="#666666" points="406.5,-50 281.75,-50 281.75,-6 406.5,-6 406.5,-50"/>
<text xml:space="preserve" text-anchor="start" x="289.75" y="-36.5" font-family="Helvetica,sans-Serif" font-size="10.00">depicture_menu/src</text>
<text xml:space="preserve" text-anchor="start" x="289.75" y="-24.5" font-family="Helvetica,sans-Serif" font-size="10.00">/core/application/archiver</text>
<text xml:space="preserve" text-anchor="middle" x="344.12" y="-12.5" font-family="Helvetica,sans-Serif" font-size="10.00">/archiver_build.cpp</text>
</a>
</g>
</g>
<!-- Node5&#45;&gt;Node8 -->
<g id="edge7_Node000005_Node000008" class="edge">
<title>Node5&#45;&gt;Node8</title>
<g id="a_edge7_Node000005_Node000008"><a xlink:title=" ">
<path fill="none" stroke="#63b8ff" d="M621.42,-94.12C618.97,-93.37 616.53,-92.66 614.12,-92 527.91,-68.2 502.34,-79.8 416.12,-56 410.21,-54.37 404.09,-52.45 398.04,-50.4"/>
<polygon fill="#63b8ff" stroke="#63b8ff" points="620.18,-97.4 630.77,-97.14 622.33,-90.74 620.18,-97.4"/>
</a>
</g>
</g>
<!-- Node15&#45;&gt;Node10 -->
<g id="edge16_Node000015_Node000010" class="edge">
<title>Node15&#45;&gt;Node10</title>
<g id="a_edge16_Node000015_Node000010"><a xlink:title=" ">
<path fill="none" stroke="#63b8ff" d="M855.9,-88.15C847.77,-75.75 838.6,-61.75 831.21,-50.49"/>
<polygon fill="#63b8ff" stroke="#63b8ff" points="852.9,-89.96 861.31,-96.41 858.76,-86.12 852.9,-89.96"/>
</a>
</g>
</g>
<!-- Node15&#45;&gt;Node13 -->
<g id="edge18_Node000015_Node000013" class="edge">
<title>Node15&#45;&gt;Node13</title>
<g id="a_edge18_Node000015_Node000013"><a xlink:title=" ">
<path fill="none" stroke="#63b8ff" d="M947.63,-93.77C978.9,-82.52 1015.95,-68.92 1049.12,-56 1051.97,-54.89 1054.88,-53.74 1057.82,-52.57"/>
<polygon fill="#63b8ff" stroke="#63b8ff" points="946.48,-90.46 938.24,-97.13 948.84,-97.05 946.48,-90.46"/>
</a>
</g>
</g>
<!-- Node16 -->
<g id="Node000016" class="node">
<title>Node16</title>
<g id="a_Node000016"><a xlink:href="config__view__arg__builder_8cpp.html" target="_top" xlink:title="ConfigArg ファクトリー">
<polygon fill="white" stroke="#666666" points="1490.38,-56 1373.88,-56 1373.88,0 1490.38,0 1490.38,-56"/>
<text xml:space="preserve" text-anchor="start" x="1381.88" y="-42.5" font-family="Helvetica,sans-Serif" font-size="10.00">depicture_menu/src</text>
<text xml:space="preserve" text-anchor="start" x="1381.88" y="-30.5" font-family="Helvetica,sans-Serif" font-size="10.00">/core/application/cs</text>
<text xml:space="preserve" text-anchor="start" x="1381.88" y="-18.5" font-family="Helvetica,sans-Serif" font-size="10.00">_binding_factory/config</text>
<text xml:space="preserve" text-anchor="middle" x="1432.12" y="-6.5" font-family="Helvetica,sans-Serif" font-size="10.00">_view_arg_builder.cpp</text>
</a>
</g>
</g>
<!-- Node15&#45;&gt;Node16 -->
<g id="edge15_Node000015_Node000016" class="edge">
<title>Node15&#45;&gt;Node16</title>
<g id="a_edge15_Node000015_Node000016"><a xlink:title=" ">
<path fill="none" stroke="#63b8ff" d="M959.24,-99.25C971.25,-96.66 983.48,-94.16 995.12,-92 1129.85,-67.05 1289.49,-46.22 1373.57,-35.93"/>
<polygon fill="#63b8ff" stroke="#63b8ff" points="958.8,-95.77 949.78,-101.33 960.3,-102.6 958.8,-95.77"/>
</a>
</g>
</g>
<!-- Node17 -->
<g id="Node000017" class="node">
<title>Node17</title>
<g id="a_Node000017"><a xlink:href="initilize__core_8cpp.html" target="_top" xlink:title=" ">
<polygon fill="white" stroke="#666666" points="1040.12,-56 922.12,-56 922.12,0 1040.12,0 1040.12,-56"/>
<text xml:space="preserve" text-anchor="start" x="930.12" y="-42.5" font-family="Helvetica,sans-Serif" font-size="10.00">depicture_menu/src</text>
<text xml:space="preserve" text-anchor="start" x="930.12" y="-30.5" font-family="Helvetica,sans-Serif" font-size="10.00">/core/dll_entry_point</text>
<text xml:space="preserve" text-anchor="start" x="930.12" y="-18.5" font-family="Helvetica,sans-Serif" font-size="10.00">/domain_control/initilize</text>
<text xml:space="preserve" text-anchor="middle" x="981.12" y="-6.5" font-family="Helvetica,sans-Serif" font-size="10.00">_core.cpp</text>
</a>
</g>
</g>
<!-- Node15&#45;&gt;Node17 -->
<g id="edge17_Node000015_Node000017" class="edge">
<title>Node15&#45;&gt;Node17</title>
<g id="a_edge17_Node000015_Node000017"><a xlink:title=" ">
<path fill="none" stroke="#63b8ff" d="M909.49,-90.4C922.21,-79.49 936.67,-67.1 949.25,-56.32"/>
<polygon fill="#63b8ff" stroke="#63b8ff" points="907.47,-87.52 902.16,-96.69 912.03,-92.84 907.47,-87.52"/>
</a>
</g>
</g>
<!-- Node18&#45;&gt;Node13 -->
<g id="edge21_Node000018_Node000013" class="edge">
<title>Node18&#45;&gt;Node13</title>
<g id="a_edge21_Node000018_Node000013"><a xlink:title=" ">
<path fill="none" stroke="#63b8ff" d="M1083.64,-81.76C1088.56,-73.24 1093.71,-64.34 1098.34,-56.32"/>
<polygon fill="#63b8ff" stroke="#63b8ff" points="1080.74,-79.79 1078.77,-90.2 1086.8,-83.29 1080.74,-79.79"/>
</a>
</g>
</g>
<!-- Node18&#45;&gt;Node16 -->
<g id="edge20_Node000018_Node000016" class="edge">
<title>Node18&#45;&gt;Node16</title>
<g id="a_edge20_Node000018_Node000016"><a xlink:title=" ">
<path fill="none" stroke="#63b8ff" d="M1131.39,-91.84C1220.89,-65.6 1314.48,-48.04 1373.49,-38.15"/>
<polygon fill="#63b8ff" stroke="#63b8ff" points="1130.54,-88.44 1121.95,-94.65 1132.54,-95.15 1130.54,-88.44"/>
</a>
</g>
</g>
<!-- Node20&#45;&gt;Node16 -->
<g id="edge24_Node000020_Node000016" class="edge">
<title>Node20&#45;&gt;Node16</title>
<g id="a_edge24_Node000020_Node000016"><a xlink:title=" ">
<path fill="none" stroke="#63b8ff" d="M1370.94,-183.96C1448.29,-171.23 1615.52,-193.99 1656.12,-148 1672.6,-129.34 1671.15,-111.84 1656.12,-92 1636.15,-65.64 1550.08,-47.22 1490.64,-37.38"/>
<polygon fill="#63b8ff" stroke="#63b8ff" points="1370.36,-180.51 1361.25,-185.92 1371.74,-187.37 1370.36,-180.51"/>
</a>
</g>
</g>
<!-- Node21 -->
<g id="Node000021" class="node">
<title>Node21</title>
<g id="a_Node000021"><a xlink:href="config__view__presenter_8cpp.html" target="_top" xlink:title=" ">
<polygon fill="white" stroke="#666666" points="1267.38,-148 1138.88,-148 1138.88,-92 1267.38,-92 1267.38,-148"/>
<text xml:space="preserve" text-anchor="start" x="1146.88" y="-134.5" font-family="Helvetica,sans-Serif" font-size="10.00">depicture_menu/src</text>
<text xml:space="preserve" text-anchor="start" x="1146.88" y="-122.5" font-family="Helvetica,sans-Serif" font-size="10.00">/core/presentation/change</text>
<text xml:space="preserve" text-anchor="start" x="1146.88" y="-110.5" font-family="Helvetica,sans-Serif" font-size="10.00">_view_model/config_view</text>
<text xml:space="preserve" text-anchor="middle" x="1203.12" y="-98.5" font-family="Helvetica,sans-Serif" font-size="10.00">_presenter.cpp</text>
</a>
</g>
</g>
<!-- Node20&#45;&gt;Node21 -->
<g id="edge25_Node000020_Node000021" class="edge">
<title>Node20&#45;&gt;Node21</title>
<g id="a_edge25_Node000020_Node000021"><a xlink:title=" ">
<path fill="none" stroke="#63b8ff" d="M1259.04,-175.7C1249.74,-166.6 1239.87,-156.95 1231.06,-148.32"/>
<polygon fill="#63b8ff" stroke="#63b8ff" points="1256.34,-177.96 1265.94,-182.45 1261.24,-172.95 1256.34,-177.96"/>
</a>
</g>
</g>
<!-- Node22 -->
<g id="Node000022" class="node">
<title>Node22</title>
<g id="a_Node000022"><a xlink:href="combine__view__model__presenter_8hpp.html" target="_top" xlink:title=" ">
<polygon fill="white" stroke="#666666" points="1646.88,-142 1509.38,-142 1509.38,-98 1646.88,-98 1646.88,-142"/>
<text xml:space="preserve" text-anchor="start" x="1517.38" y="-128.5" font-family="Helvetica,sans-Serif" font-size="10.00">depicture_menu/src</text>
<text xml:space="preserve" text-anchor="start" x="1517.38" y="-116.5" font-family="Helvetica,sans-Serif" font-size="10.00">/core/presentation/combine</text>
<text xml:space="preserve" text-anchor="middle" x="1578.12" y="-104.5" font-family="Helvetica,sans-Serif" font-size="10.00">_view_model_presenter.hpp</text>
</a>
</g>
</g>
<!-- Node20&#45;&gt;Node22 -->
<g id="edge26_Node000020_Node000022" class="edge">
<title>Node20&#45;&gt;Node22</title>
<g id="a_edge26_Node000020_Node000022"><a xlink:title=" ">
<path fill="none" stroke="#63b8ff" d="M1370.34,-183.41C1427.98,-165.43 1445.32,-164.94 1500.12,-148 1505.74,-146.27 1511.55,-144.39 1517.36,-142.47"/>
<polygon fill="#63b8ff" stroke="#63b8ff" points="1369.42,-180.02 1360.95,-186.38 1371.54,-186.7 1369.42,-180.02"/>
</a>
</g>
</g>
<!-- Node23 -->
<g id="Node000023" class="node">
<title>Node23</title>
<g id="a_Node000023"><a xlink:href="_test_config_view_presenter_8cpp.html" target="_top" xlink:title=" ">
<polygon fill="white" stroke="#666666" points="1491,-142 1285.25,-142 1285.25,-98 1491,-98 1491,-142"/>
<text xml:space="preserve" text-anchor="start" x="1293.25" y="-128.5" font-family="Helvetica,sans-Serif" font-size="10.00">depicture_menu/test</text>
<text xml:space="preserve" text-anchor="start" x="1293.25" y="-116.5" font-family="Helvetica,sans-Serif" font-size="10.00">/core/presentation/change</text>
<text xml:space="preserve" text-anchor="middle" x="1388.12" y="-104.5" font-family="Helvetica,sans-Serif" font-size="10.00">_view_model/TestConfigViewPresenter.cpp</text>
</a>
</g>
</g>
<!-- Node20&#45;&gt;Node23 -->
<g id="edge29_Node000020_Node000023" class="edge">
<title>Node20&#45;&gt;Node23</title>
<g id="a_edge29_Node000020_Node000023"><a xlink:title=" ">
<path fill="none" stroke="#63b8ff" d="M1331.79,-175.52C1343.39,-164.3 1355.84,-152.24 1366.09,-142.33"/>
<polygon fill="#63b8ff" stroke="#63b8ff" points="1329.37,-172.99 1324.62,-182.46 1334.24,-178.02 1329.37,-172.99"/>
</a>
</g>
</g>
<!-- Node22&#45;&gt;Node13 -->
<g id="edge28_Node000022_Node000013" class="edge">
<title>Node22&#45;&gt;Node13</title>
<g id="a_edge28_Node000022_Node000013"><a xlink:title=" ">
<path fill="none" stroke="#63b8ff" d="M1508.92,-94.36C1505.96,-93.52 1503.02,-92.73 1500.12,-92 1384.59,-62.8 1246.05,-44.03 1170.35,-35.11"/>
<polygon fill="#63b8ff" stroke="#63b8ff" points="1507.64,-97.63 1518.23,-97.13 1509.64,-90.92 1507.64,-97.63"/>
</a>
</g>
</g>
<!-- Node22&#45;&gt;Node16 -->
<g id="edge27_Node000022_Node000016" class="edge">
<title>Node22&#45;&gt;Node16</title>
<g id="a_edge27_Node000022_Node000016"><a xlink:title=" ">
<path fill="none" stroke="#63b8ff" d="M1533.8,-91.68C1515.71,-80.53 1494.83,-67.66 1476.72,-56.49"/>
<polygon fill="#63b8ff" stroke="#63b8ff" points="1531.89,-94.61 1542.24,-96.88 1535.56,-88.65 1531.89,-94.61"/>
</a>
</g>
</g>
<!-- Node25&#45;&gt;Node19 -->
<g id="edge32_Node000025_Node000019" class="edge">
<title>Node25&#45;&gt;Node19</title>
<g id="a_edge32_Node000025_Node000019"><a xlink:title=" ">
<path fill="none" stroke="#63b8ff" d="M1437.92,-344.35C1438.72,-311.71 1439.92,-262.44 1440.6,-234.45"/>
<polygon fill="#63b8ff" stroke="#63b8ff" points="1434.43,-343.96 1437.68,-354.05 1441.43,-344.14 1434.43,-343.96"/>
</a>
</g>
</g>
<!-- Node26&#45;&gt;Node2 -->
<g id="edge34_Node000026_Node000002" class="edge">
<title>Node26&#45;&gt;Node2</title>
<g id="a_edge34_Node000026_Node000002"><a xlink:title=" ">
<path fill="none" stroke="#63b8ff" d="M1205.51,-425.08C1207.83,-416.61 1210.21,-407.92 1212.27,-400.4"/>
<polygon fill="#63b8ff" stroke="#63b8ff" points="1202.19,-423.93 1202.93,-434.5 1208.95,-425.78 1202.19,-423.93"/>
</a>
</g>
</g>
</g>
</svg>

<g id="navigator" transform="translate(0 0)" fill="#404254">
  <rect fill="#f2f5e9" fill-opacity="0.5" stroke="#606060" stroke-width=".5" x="0" y="0" width="60" height="60"/>
  <use id="zoomplus" xlink:href="#zoomPlus" x="17" y="9" onmousedown="handleZoom(evt,'in')"/>
  <use id="zoomminus" xlink:href="#zoomMin" x="42" y="9" onmousedown="handleZoom(evt,'out')"/>
  <use id="reset" xlink:href="#resetDef" x="30" y="36" onmousedown="handleReset()"/>
   <use id="arrowup" xlink:href="#arrowUp" x="0" y="0" onmousedown="handlePan(0,-1)"/>
  <use id="arrowright" xlink:href="#arrowRight" x="0" y="0" onmousedown="handlePan(1,0)"/>
  <use id="arrowdown" xlink:href="#arrowDown" x="0" y="0" onmousedown="handlePan(0,1)"/>
  <use id="arrowleft" xlink:href="#arrowLeft" x="0" y="0" onmousedown="handlePan(-1,0)"/>
</g>
<svg viewBox="0 0 15 15" width="100%" height="30px" preserveAspectRatio="xMaxYMin meet">
 <g id="arrow_out" transform="scale(0.3 0.3)">
  <a xlink:href="collection__changed__kind_8hpp__dep__incl_org.svg" target="_base">
   <rect id="button" ry="5" rx="5" y="6" x="6" height="38" width="38"
        fill="#f2f5e9" fill-opacity="0.5" stroke="#606060" stroke-width="1.0"/>
   <path id="arrow"
     d="M 11.500037,31.436501 C 11.940474,20.09759 22.043105,11.32322 32.158766,21.979434 L 37.068811,17.246167 C 37.068811,17.246167 37.088388,32 37.088388,32 L 22.160133,31.978069 C 22.160133,31.978069 26.997745,27.140456 26.997745,27.140456 C 18.528582,18.264221 13.291696,25.230495 11.500037,31.436501 z"
     style="fill:#404040;"/>
  </a>
 </g>
</svg>

<style type='text/css'>
<![CDATA[
[data-mouse-over-selected='false'] { opacity: 0.7; }
[data-mouse-over-selected='true']  { opacity: 1.0; }
]]>
</style>
<script type="application/ecmascript"><![CDATA[
document.addEventListener('DOMContentLoaded', (event) => {
  highlightEdges();
  highlightAdjacentNodes();
});
]]></script>
</svg>
