<?xml version="1.0" encoding="UTF-8" standalone="no"?>
<!DOCTYPE svg PUBLIC "-//W3C//DTD SVG 1.1//EN"
 "http://www.w3.org/Graphics/SVG/1.1/DTD/svg11.dtd">
<!-- Generated by graphviz version 14.1.2 (20260124.0452)
 -->
<!-- Title: depicture_menu/src/core/usecase/config_view/dto/common_action_select.hpp Pages: 1 -->
<svg width="290pt" height="236pt"
 viewBox="0.00 0.00 290.00 236.00" xmlns="http://www.w3.org/2000/svg" xmlns:xlink="http://www.w3.org/1999/xlink">
<g id="graph0" class="graph" transform="scale(1 1) rotate(0) translate(4 232)">
<title>depicture_menu/src/core/usecase/config_view/dto/common_action_select.hpp</title>
<!-- Node1 -->
<g id="Node000001" class="node">
<title>Node1</title>
<g id="a_Node000001"><a xlink:title=" ">
<polygon fill="#999999" stroke="#666666" points="174.25,-228 44.25,-228 44.25,-172 174.25,-172 174.25,-228"/>
<text xml:space="preserve" text-anchor="start" x="52.25" y="-214.5" font-family="Helvetica,sans-Serif" font-size="10.00">depicture_menu/src</text>
<text xml:space="preserve" text-anchor="start" x="52.25" y="-202.5" font-family="Helvetica,sans-Serif" font-size="10.00">/core/usecase/config</text>
<text xml:space="preserve" text-anchor="start" x="52.25" y="-190.5" font-family="Helvetica,sans-Serif" font-size="10.00">_view/dto/common_action</text>
<text xml:space="preserve" text-anchor="middle" x="109.25" y="-178.5" font-family="Helvetica,sans-Serif" font-size="10.00">_select.hpp</text>
</a>
</g>
</g>
<!-- Node2 -->
<g id="Node000002" class="node">
<title>Node2</title>
<g id="a_Node000002"><a xlink:href="config__view__arg__builder_8cpp.html" target="_top" xlink:title="ConfigArg ファクトリー">
<polygon fill="white" stroke="#666666" points="116.5,-56 0,-56 0,0 116.5,0 116.5,-56"/>
<text xml:space="preserve" text-anchor="start" x="8" y="-42.5" font-family="Helvetica,sans-Serif" font-size="10.00">depicture_menu/src</text>
<text xml:space="preserve" text-anchor="start" x="8" y="-30.5" font-family="Helvetica,sans-Serif" font-size="10.00">/core/application/cs</text>
<text xml:space="preserve" text-anchor="start" x="8" y="-18.5" font-family="Helvetica,sans-Serif" font-size="10.00">_binding_factory/config</text>
<text xml:space="preserve" text-anchor="middle" x="58.25" y="-6.5" font-family="Helvetica,sans-Serif" font-size="10.00">_view_arg_builder.cpp</text>
</a>
</g>
</g>
<!-- Node1&#45;&gt;Node2 -->
<g id="edge1_Node000001_Node000002" class="edge">
<title>Node1&#45;&gt;Node2</title>
<g id="a_edge1_Node000001_Node000002"><a xlink:title=" ">
<path fill="none" stroke="#63b8ff" d="M87.95,-161.51C83.93,-153.29 80.1,-144.51 77.25,-136 68.45,-109.7 63.49,-78.32 60.86,-56.37"/>
<polygon fill="#63b8ff" stroke="#63b8ff" points="84.72,-162.89 92.39,-170.19 90.95,-159.7 84.72,-162.89"/>
</a>
</g>
</g>
<!-- Node3 -->
<g id="Node000003" class="node">
<title>Node3</title>
<g id="a_Node000003"><a xlink:href="change__menu__item_8hpp.html" target="_top" xlink:title="メニューアイテム更新">
<polygon fill="white" stroke="#666666" points="234.25,-136 86.25,-136 86.25,-92 234.25,-92 234.25,-136"/>
<text xml:space="preserve" text-anchor="start" x="94.25" y="-122.5" font-family="Helvetica,sans-Serif" font-size="10.00">depicture_menu/src</text>
<text xml:space="preserve" text-anchor="start" x="94.25" y="-110.5" font-family="Helvetica,sans-Serif" font-size="10.00">/core/usecase/config</text>
<text xml:space="preserve" text-anchor="middle" x="160.25" y="-98.5" font-family="Helvetica,sans-Serif" font-size="10.00">_view/change_menu_item.hpp</text>
</a>
</g>
</g>
<!-- Node1&#45;&gt;Node3 -->
<g id="edge2_Node000001_Node000003" class="edge">
<title>Node1&#45;&gt;Node3</title>
<g id="a_edge2_Node000001_Node000003"><a xlink:title=" ">
<path fill="none" stroke="#63b8ff" d="M131.58,-162.22C136.94,-153.39 142.49,-144.26 147.26,-136.4"/>
<polygon fill="#63b8ff" stroke="#63b8ff" points="128.65,-160.3 126.45,-170.67 134.63,-163.93 128.65,-160.3"/>
</a>
</g>
</g>
<!-- Node3&#45;&gt;Node2 -->
<g id="edge3_Node000003_Node000002" class="edge">
<title>Node3&#45;&gt;Node2</title>
<g id="a_edge3_Node000003_Node000002"><a xlink:title=" ">
<path fill="none" stroke="#63b8ff" d="M125.36,-84.27C114.42,-75.26 102.37,-65.34 91.54,-56.42"/>
<polygon fill="#63b8ff" stroke="#63b8ff" points="123.13,-86.97 133.08,-90.62 127.58,-81.56 123.13,-86.97"/>
</a>
</g>
</g>
<!-- Node4 -->
<g id="Node000004" class="node">
<title>Node4</title>
<g id="a_Node000004"><a xlink:href="change__menu__item_8cpp.html" target="_top" xlink:title="change_menu_item 実装">
<polygon fill="white" stroke="#666666" points="282.25,-50 134.25,-50 134.25,-6 282.25,-6 282.25,-50"/>
<text xml:space="preserve" text-anchor="start" x="142.25" y="-36.5" font-family="Helvetica,sans-Serif" font-size="10.00">depicture_menu/src</text>
<text xml:space="preserve" text-anchor="start" x="142.25" y="-24.5" font-family="Helvetica,sans-Serif" font-size="10.00">/core/usecase/config</text>
<text xml:space="preserve" text-anchor="middle" x="208.25" y="-12.5" font-family="Helvetica,sans-Serif" font-size="10.00">_view/change_menu_item.cpp</text>
</a>
</g>
</g>
<!-- Node3&#45;&gt;Node4 -->
<g id="edge4_Node000003_Node000004" class="edge">
<title>Node3&#45;&gt;Node4</title>
<g id="a_edge4_Node000003_Node000004"><a xlink:title=" ">
<path fill="none" stroke="#63b8ff" d="M177.89,-82.13C183.9,-71.61 190.48,-60.1 195.97,-50.48"/>
<polygon fill="#63b8ff" stroke="#63b8ff" points="175.04,-80.07 173.11,-90.49 181.11,-83.54 175.04,-80.07"/>
</a>
</g>
</g>
</g>
</svg>
