<?xml version="1.0" encoding="UTF-8" standalone="no"?>
<!DOCTYPE svg PUBLIC "-//W3C//DTD SVG 1.1//EN"
 "http://www.w3.org/Graphics/SVG/1.1/DTD/svg11.dtd">
<!-- Generated by graphviz version 14.1.2 (20260124.0452)
 -->
<!-- Title: depicture_menu/src/core/domain/model/compare.hpp Pages: 1 -->
<!--zoomable 456 -->

<svg id="main" version="1.1" xmlns="http://www.w3.org/2000/svg" xmlns:xlink="http://www.w3.org/1999/xlink" xml:space="preserve" onload="init(evt)">

<style type="text/css"><![CDATA[
.node, .edge {opacity: 0.7;}
.node.selected, .edge.selected {opacity: 1;}
.edge:hover path { stroke: red; }
.edge:hover polygon { stroke: red; fill: red; }
]]></style>

<defs>
  <circle id="rim" cx="0" cy="0" r="7"/>
  <circle id="rim2" cx="0" cy="0" r="3.5"/>
  <g id="zoomPlus">
    <use xlink:href="#rim" fill="#404040"><set attributeName="fill" to="#808080" begin="zoomplus.mouseover" end="zoomplus.mouseout"/></use>
    <path d="M-4,0h8M0,-4v8" fill="none" stroke="white" stroke-width="1.5" pointer-events="none"/>
  </g>
  <g id="zoomMin">
    <use xlink:href="#rim" fill="#404040"><set attributeName="fill" to="#808080" begin="zoomminus.mouseover" end="zoomminus.mouseout"/></use>
    <path d="M-4,0h8" fill="none" stroke="white" stroke-width="1.5" pointer-events="none"/>
  </g>
  <g id="arrowUp" transform="translate(30 24)">
    <use xlink:href="#rim"/>
    <path pointer-events="none" fill="none" stroke="white" stroke-width="1.5" d="M0,-3.0v7 M-2.5,-0.5L0,-3.0L2.5,-0.5"/>
  </g>
  <g id="arrowRight" transform="rotate(90) translate(36 -43)">
    <use xlink:href="#rim"/>
    <path pointer-events="none" fill="none" stroke="white" stroke-width="1.5" d="M0,-3.0v7 M-2.5,-0.5L0,-3.0L2.5,-0.5"/>
  </g>
  <g id="arrowDown" transform="rotate(180) translate(-30 -48)">
    <use xlink:href="#rim"/>
    <path pointer-events="none" fill="none" stroke="white" stroke-width="1.5" d="M0,-3.0v7 M-2.5,-0.5L0,-3.0L2.5,-0.5"/>
  </g>
  <g id="arrowLeft" transform="rotate(270) translate(-36 17)">
    <use xlink:href="#rim"/>
    <path pointer-events="none" fill="none" stroke="white" stroke-width="1.5" d="M0,-3.0v7 M-2.5,-0.5L0,-3.0L2.5,-0.5"/>
  </g>
  <g id="resetDef">
    <use xlink:href="#rim2" fill="#404040"><set attributeName="fill" to="#808080" begin="reset.mouseover" end="reset.mouseout"/></use>
  </g>
</defs>
<script type="application/ecmascript">
var viewWidth = 1601;
var viewHeight = 456;
var sectionId = 'dynsection-0';
</script>
<script type="application/ecmascript" xlink:href="svg.min.js"/>
<svg id="graph" class="graph">
<g id="viewport">
<title>depicture_menu/src/core/domain/model/compare.hpp</title>
<!-- Node1 -->
<g id="Node000001" class="node">
<title>Node1</title>
<g id="a_Node000001"><a xlink:title=" ">
<polygon fill="#999999" stroke="#666666" points="553.25,-448 392.5,-448 392.5,-416 553.25,-416 553.25,-448"/>
<text xml:space="preserve" text-anchor="start" x="400.5" y="-434.5" font-family="Helvetica,sans-Serif" font-size="10.00">depicture_menu/src</text>
<text xml:space="preserve" text-anchor="middle" x="472.88" y="-422.5" font-family="Helvetica,sans-Serif" font-size="10.00">/core/domain/model/compare.hpp</text>
</a>
</g>
</g>
<!-- Node2 -->
<g id="Node000002" class="node">
<title>Node2</title>
<g id="a_Node000002"><a xlink:href="model_2entity_8hpp.html" target="_top" xlink:title=" ">
<polygon fill="white" stroke="#666666" points="539.88,-380 481.88,-380 481.88,-360 539.88,-360 539.88,-380"/>
<text xml:space="preserve" text-anchor="middle" x="510.88" y="-366.5" font-family="Helvetica,sans-Serif" font-size="10.00">entity.hpp</text>
</a>
</g>
</g>
<!-- Node1&#45;&gt;Node2 -->
<g id="edge1_Node000001_Node000002" class="edge">
<title>Node1&#45;&gt;Node2</title>
<g id="a_edge1_Node000001_Node000002"><a xlink:title=" ">
<path fill="none" stroke="#63b8ff" d="M482.66,-415.55C487.61,-407.74 493.66,-398.19 498.88,-389.94"/>
<polygon fill="#63b8ff" stroke="#63b8ff" points="501.71,-392.01 504.11,-381.69 495.8,-388.26 501.71,-392.01"/>
</a>
</g>
</g>
<!-- Node8 -->
<g id="Node000008" class="node">
<title>Node8</title>
<g id="a_Node000008"><a xlink:href="model_2value__object_8hpp.html" target="_top" xlink:title=" ">
<polygon fill="white" stroke="#666666" points="482.62,-262 393.12,-262 393.12,-242 482.62,-242 482.62,-262"/>
<text xml:space="preserve" text-anchor="middle" x="437.88" y="-248.5" font-family="Helvetica,sans-Serif" font-size="10.00">value_object.hpp</text>
</a>
</g>
</g>
<!-- Node1&#45;&gt;Node8 -->
<g id="edge50_Node000001_Node000008" class="edge">
<title>Node1&#45;&gt;Node8</title>
<g id="a_edge50_Node000001_Node000008"><a xlink:title=" ">
<path fill="none" stroke="#63b8ff" d="M469.83,-415.52C463.49,-383.28 448.89,-309.01 441.83,-273.12"/>
<polygon fill="#63b8ff" stroke="#63b8ff" points="445.33,-272.79 439.97,-263.65 438.46,-274.14 445.33,-272.79"/>
</a>
</g>
</g>
<!-- Node3 -->
<g id="Node000003" class="node">
<title>Node3</title>
<g id="a_Node000003"><a xlink:href="concepts_8hpp.html" target="_top" xlink:title=" ">
<polygon fill="white" stroke="#666666" points="563.12,-200 488.62,-200 488.62,-180 563.12,-180 563.12,-200"/>
<text xml:space="preserve" text-anchor="middle" x="525.88" y="-186.5" font-family="Helvetica,sans-Serif" font-size="10.00">concepts.hpp</text>
</a>
</g>
</g>
<!-- Node2&#45;&gt;Node3 -->
<g id="edge2_Node000002_Node000003" class="edge">
<title>Node2&#45;&gt;Node3</title>
<g id="a_edge2_Node000002_Node000003"><a xlink:title=" ">
<path fill="none" stroke="#63b8ff" d="M511.64,-359.93C513.95,-332.56 520.88,-250.31 524.14,-211.59"/>
<polygon fill="#63b8ff" stroke="#63b8ff" points="527.61,-212.03 524.97,-201.78 520.64,-211.45 527.61,-212.03"/>
</a>
</g>
</g>
<!-- Node7 -->
<g id="Node000007" class="node">
<title>Node7</title>
<g id="a_Node000007"><a xlink:href="model_2entity__id_8hpp.html" target="_top" xlink:title=" ">
<polygon fill="white" stroke="#666666" points="914.62,-324 843.12,-324 843.12,-304 914.62,-304 914.62,-324"/>
<text xml:space="preserve" text-anchor="middle" x="878.88" y="-310.5" font-family="Helvetica,sans-Serif" font-size="10.00">entity_id.hpp</text>
</a>
</g>
</g>
<!-- Node2&#45;&gt;Node7 -->
<g id="edge6_Node000002_Node000007" class="edge">
<title>Node2&#45;&gt;Node7</title>
<g id="a_edge6_Node000002_Node000007"><a xlink:title=" ">
<path fill="none" stroke="#63b8ff" d="M540.37,-364.67C603.96,-355.34 754.45,-333.26 831.55,-321.94"/>
<polygon fill="#63b8ff" stroke="#63b8ff" points="831.94,-325.42 841.33,-320.51 830.93,-318.5 831.94,-325.42"/>
</a>
</g>
</g>
<!-- Node2&#45;&gt;Node8 -->
<g id="edge49_Node000002_Node000008" class="edge">
<title>Node2&#45;&gt;Node8</title>
<g id="a_edge49_Node000002_Node000008"><a xlink:title=" ">
<path fill="none" stroke="#63b8ff" d="M504.9,-359.51C492.86,-340.38 465.5,-296.89 449.71,-271.8"/>
<polygon fill="#63b8ff" stroke="#63b8ff" points="452.82,-270.18 444.53,-263.58 446.9,-273.91 452.82,-270.18"/>
</a>
</g>
</g>
<!-- Node9 -->
<g id="Node000009" class="node">
<title>Node9</title>
<g id="a_Node000009"><a xlink:href="model_2presistence_8hpp.html" target="_top" xlink:title=" ">
<polygon fill="white" stroke="#666666" points="997.38,-200 912.38,-200 912.38,-180 997.38,-180 997.38,-200"/>
<text xml:space="preserve" text-anchor="middle" x="954.88" y="-186.5" font-family="Helvetica,sans-Serif" font-size="10.00">presistence.hpp</text>
</a>
</g>
</g>
<!-- Node2&#45;&gt;Node9 -->
<g id="edge48_Node000002_Node000009" class="edge">
<title>Node2&#45;&gt;Node9</title>
<g id="a_edge48_Node000002_Node000009"><a xlink:title=" ">
<path fill="none" stroke="#63b8ff" d="M540.03,-367.41C673.89,-359.79 1225.16,-325.13 1273.88,-268 1283.1,-257.18 1283.2,-246.74 1273.88,-236 1240.23,-197.28 1091.03,-190.94 1009.14,-190.46"/>
<polygon fill="#63b8ff" stroke="#63b8ff" points="1009.33,-186.96 999.32,-190.44 1009.31,-193.96 1009.33,-186.96"/>
</a>
</g>
</g>
<!-- Node4 -->
<g id="Node000004" class="node">
<title>Node4</title>
<g id="a_Node000004"><a xlink:href="model__base__concepts_8hpp.html" target="_top" xlink:title=" ">
<polygon fill="white" stroke="#666666" points="659,-138 526.75,-138 526.75,-118 659,-118 659,-138"/>
<text xml:space="preserve" text-anchor="middle" x="592.88" y="-124.5" font-family="Helvetica,sans-Serif" font-size="10.00">model_base_concepts.hpp</text>
</a>
</g>
</g>
<!-- Node3&#45;&gt;Node4 -->
<g id="edge3_Node000003_Node000004" class="edge">
<title>Node3&#45;&gt;Node4</title>
<g id="a_edge3_Node000003_Node000004"><a xlink:title=" ">
<path fill="none" stroke="#63b8ff" d="M536.34,-179.62C546.43,-170.59 561.92,-156.72 574.14,-145.78"/>
<polygon fill="#63b8ff" stroke="#63b8ff" points="576.46,-148.4 581.57,-139.12 571.79,-143.19 576.46,-148.4"/>
</a>
</g>
</g>
<!-- Node5 -->
<g id="Node000005" class="node">
<title>Node5</title>
<g id="a_Node000005"><a xlink:title=" ">
<polygon fill="#e0e0e0" stroke="#999999" points="512.25,-76 417.5,-76 417.5,-56 512.25,-56 512.25,-76"/>
<text xml:space="preserve" text-anchor="middle" x="464.88" y="-62.5" font-family="Helvetica,sans-Serif" font-size="10.00">boost/pfr/core.hpp</text>
</a>
</g>
</g>
<!-- Node4&#45;&gt;Node5 -->
<g id="edge4_Node000004_Node000005" class="edge">
<title>Node4&#45;&gt;Node5</title>
<g id="a_edge4_Node000004_Node000005"><a xlink:title=" ">
<path fill="none" stroke="#63b8ff" d="M572.88,-117.62C552.02,-107.85 519.09,-92.41 495.07,-81.15"/>
<polygon fill="#63b8ff" stroke="#63b8ff" points="496.65,-78.03 486.11,-76.95 493.67,-84.37 496.65,-78.03"/>
</a>
</g>
</g>
<!-- Node6 -->
<g id="Node000006" class="node">
<title>Node6</title>
<g id="a_Node000006"><a xlink:title=" ">
<polygon fill="#e0e0e0" stroke="#999999" points="591.5,-76 552.25,-76 552.25,-56 591.5,-56 591.5,-76"/>
<text xml:space="preserve" text-anchor="middle" x="571.88" y="-62.5" font-family="Helvetica,sans-Serif" font-size="10.00">utility</text>
</a>
</g>
</g>
<!-- Node4&#45;&gt;Node6 -->
<g id="edge5_Node000004_Node000006" class="edge">
<title>Node4&#45;&gt;Node6</title>
<g id="a_edge5_Node000004_Node000006"><a xlink:title=" ">
<path fill="none" stroke="#63b8ff" d="M589.59,-117.62C586.71,-109.39 582.42,-97.13 578.78,-86.74"/>
<polygon fill="#63b8ff" stroke="#63b8ff" points="582.17,-85.82 575.56,-77.54 575.56,-88.14 582.17,-85.82"/>
</a>
</g>
</g>
<!-- Node7&#45;&gt;Node8 -->
<g id="edge7_Node000007_Node000008" class="edge">
<title>Node7&#45;&gt;Node8</title>
<g id="a_edge7_Node000007_Node000008"><a xlink:title=" ">
<path fill="none" stroke="#63b8ff" d="M842.65,-308.73C779.19,-301.17 643.83,-284.63 529.88,-268 518.23,-266.3 505.77,-264.35 493.9,-262.44"/>
<polygon fill="#63b8ff" stroke="#63b8ff" points="494.68,-259.02 484.24,-260.87 493.55,-265.93 494.68,-259.02"/>
</a>
</g>
</g>
<!-- Node14 -->
<g id="Node000014" class="node">
<title>Node14</title>
<g id="a_Node000014"><a xlink:title=" ">
<polygon fill="#e0e0e0" stroke="#999999" points="1593.25,-144 1498.5,-144 1498.5,-112 1593.25,-112 1593.25,-144"/>
<text xml:space="preserve" text-anchor="start" x="1506.5" y="-130.5" font-family="Helvetica,sans-Serif" font-size="10.00">boost/serialization</text>
<text xml:space="preserve" text-anchor="middle" x="1545.88" y="-118.5" font-family="Helvetica,sans-Serif" font-size="10.00">/access.hpp</text>
</a>
</g>
</g>
<!-- Node7&#45;&gt;Node14 -->
<g id="edge42_Node000007_Node000014" class="edge">
<title>Node7&#45;&gt;Node14</title>
<g id="a_edge42_Node000007_Node000014"><a xlink:title=" ">
<path fill="none" stroke="#63b8ff" d="M914.87,-313.16C985.35,-312.56 1145.85,-306.62 1273.88,-268 1366.02,-240.21 1464.23,-181.96 1513.59,-150.4"/>
<polygon fill="#63b8ff" stroke="#63b8ff" points="1515.3,-153.47 1521.8,-145.1 1511.5,-147.58 1515.3,-153.47"/>
</a>
</g>
</g>
<!-- Node29 -->
<g id="Node000029" class="node">
<title>Node29</title>
<g id="a_Node000029"><a xlink:title=" ">
<polygon fill="#e0e0e0" stroke="#999999" points="788.25,-200 687.5,-200 687.5,-180 788.25,-180 788.25,-200"/>
<text xml:space="preserve" text-anchor="middle" x="737.88" y="-186.5" font-family="Helvetica,sans-Serif" font-size="10.00">boost/uuid/uuid.hpp</text>
</a>
</g>
</g>
<!-- Node7&#45;&gt;Node29 -->
<g id="edge44_Node000007_Node000029" class="edge">
<title>Node7&#45;&gt;Node29</title>
<g id="a_edge44_Node000007_Node000029"><a xlink:title=" ">
<path fill="none" stroke="#63b8ff" d="M914.8,-311.38C1004.63,-306.96 1233.42,-293.29 1255.88,-268 1265.32,-257.36 1265.49,-246.48 1255.88,-236 1240.65,-219.39 934.02,-201.31 799.85,-194.16"/>
<polygon fill="#63b8ff" stroke="#63b8ff" points="800.25,-190.68 790.08,-193.65 799.88,-197.67 800.25,-190.68"/>
</a>
</g>
</g>
<!-- Node30 -->
<g id="Node000030" class="node">
<title>Node30</title>
<g id="a_Node000030"><a xlink:title=" ">
<polygon fill="#e0e0e0" stroke="#999999" points="666.75,-262 539,-262 539,-242 666.75,-242 666.75,-262"/>
<text xml:space="preserve" text-anchor="middle" x="602.88" y="-248.5" font-family="Helvetica,sans-Serif" font-size="10.00">boost/functional/hash.hpp</text>
</a>
</g>
</g>
<!-- Node7&#45;&gt;Node30 -->
<g id="edge41_Node000007_Node000030" class="edge">
<title>Node7&#45;&gt;Node30</title>
<g id="a_edge41_Node000007_Node000030"><a xlink:title=" ">
<path fill="none" stroke="#63b8ff" d="M842.79,-305.16C795.49,-294.87 712.11,-276.75 657.17,-264.8"/>
<polygon fill="#63b8ff" stroke="#63b8ff" points="658.23,-261.45 647.72,-262.75 656.74,-268.29 658.23,-261.45"/>
</a>
</g>
</g>
<!-- Node31 -->
<g id="Node000031" class="node">
<title>Node31</title>
<g id="a_Node000031"><a xlink:title=" ">
<polygon fill="#e0e0e0" stroke="#999999" points="784.5,-268 685.25,-268 685.25,-236 784.5,-236 784.5,-268"/>
<text xml:space="preserve" text-anchor="start" x="693.25" y="-254.5" font-family="Helvetica,sans-Serif" font-size="10.00">boost/serialization</text>
<text xml:space="preserve" text-anchor="middle" x="734.88" y="-242.5" font-family="Helvetica,sans-Serif" font-size="10.00">/array_wrapper.hpp</text>
</a>
</g>
</g>
<!-- Node7&#45;&gt;Node31 -->
<g id="edge43_Node000007_Node000031" class="edge">
<title>Node7&#45;&gt;Node31</title>
<g id="a_edge43_Node000007_Node000031"><a xlink:title=" ">
<path fill="none" stroke="#63b8ff" d="M856.38,-303.62C836.65,-295.41 807.32,-283.18 782.41,-272.81"/>
<polygon fill="#63b8ff" stroke="#63b8ff" points="784.03,-269.69 773.45,-269.07 781.33,-276.15 784.03,-269.69"/>
</a>
</g>
</g>
<!-- Node32 -->
<g id="Node000032" class="node">
<title>Node32</title>
<g id="a_Node000032"><a xlink:title=" ">
<polygon fill="#e0e0e0" stroke="#999999" points="954.75,-262 803,-262 803,-242 954.75,-242 954.75,-262"/>
<text xml:space="preserve" text-anchor="middle" x="878.88" y="-248.5" font-family="Helvetica,sans-Serif" font-size="10.00">boost/uuid/uuid_generators.hpp</text>
</a>
</g>
</g>
<!-- Node7&#45;&gt;Node32 -->
<g id="edge45_Node000007_Node000032" class="edge">
<title>Node7&#45;&gt;Node32</title>
<g id="a_edge45_Node000007_Node000032"><a xlink:title=" ">
<path fill="none" stroke="#63b8ff" d="M878.88,-303.62C878.88,-295.56 878.88,-283.65 878.88,-273.41"/>
<polygon fill="#63b8ff" stroke="#63b8ff" points="882.38,-273.63 878.88,-263.63 875.38,-273.63 882.38,-273.63"/>
</a>
</g>
</g>
<!-- Node33 -->
<g id="Node000033" class="node">
<title>Node33</title>
<g id="a_Node000033"><a xlink:title=" ">
<polygon fill="#e0e0e0" stroke="#999999" points="1086.62,-262 973.12,-262 973.12,-242 1086.62,-242 1086.62,-262"/>
<text xml:space="preserve" text-anchor="middle" x="1029.88" y="-248.5" font-family="Helvetica,sans-Serif" font-size="10.00">boost/uuid/uuid_io.hpp</text>
</a>
</g>
</g>
<!-- Node7&#45;&gt;Node33 -->
<g id="edge46_Node000007_Node000033" class="edge">
<title>Node7&#45;&gt;Node33</title>
<g id="a_edge46_Node000007_Node000033"><a xlink:title=" ">
<path fill="none" stroke="#63b8ff" d="M902.47,-303.62C927.51,-293.67 967.32,-277.85 995.78,-266.55"/>
<polygon fill="#63b8ff" stroke="#63b8ff" points="997.04,-269.81 1005.04,-262.87 994.45,-263.31 997.04,-269.81"/>
</a>
</g>
</g>
<!-- Node34 -->
<g id="Node000034" class="node">
<title>Node34</title>
<g id="a_Node000034"><a xlink:title=" ">
<polygon fill="#e0e0e0" stroke="#999999" points="1246.88,-262 1104.88,-262 1104.88,-242 1246.88,-242 1246.88,-262"/>
<text xml:space="preserve" text-anchor="middle" x="1175.88" y="-248.5" font-family="Helvetica,sans-Serif" font-size="10.00">boost/uuid/uuid_serialize.hpp</text>
</a>
</g>
</g>
<!-- Node7&#45;&gt;Node34 -->
<g id="edge47_Node000007_Node000034" class="edge">
<title>Node7&#45;&gt;Node34</title>
<g id="a_edge47_Node000007_Node000034"><a xlink:title=" ">
<path fill="none" stroke="#63b8ff" d="M915,-305.7C965.46,-295.51 1057.64,-276.89 1117.81,-264.73"/>
<polygon fill="#63b8ff" stroke="#63b8ff" points="1118.43,-268.17 1127.54,-262.76 1117.05,-261.31 1118.43,-268.17"/>
</a>
</g>
</g>
<!-- Node8&#45;&gt;Node3 -->
<g id="edge22_Node000008_Node000003" class="edge">
<title>Node8&#45;&gt;Node3</title>
<g id="a_edge22_Node000008_Node000003"><a xlink:title=" ">
<path fill="none" stroke="#63b8ff" d="M451.62,-241.62C465.32,-232.29 486.58,-217.79 502.85,-206.7"/>
<polygon fill="#63b8ff" stroke="#63b8ff" points="504.68,-209.69 510.97,-201.16 500.74,-203.9 504.68,-209.69"/>
</a>
</g>
</g>
<!-- Node8&#45;&gt;Node5 -->
<g id="edge36_Node000008_Node000005" class="edge">
<title>Node8&#45;&gt;Node5</title>
<g id="a_edge36_Node000008_Node000005"><a xlink:title=" ">
<path fill="none" stroke="#63b8ff" d="M437.48,-241.75C436.73,-219.23 436.04,-159.88 446.88,-112 448.8,-103.5 452.11,-94.51 455.38,-86.82"/>
<polygon fill="#63b8ff" stroke="#63b8ff" points="458.55,-88.31 459.48,-77.75 452.17,-85.42 458.55,-88.31"/>
</a>
</g>
</g>
<!-- Node8&#45;&gt;Node6 -->
<g id="edge40_Node000008_Node000006" class="edge">
<title>Node8&#45;&gt;Node6</title>
<g id="a_edge40_Node000008_Node000006"><a xlink:title=" ">
<path fill="none" stroke="#63b8ff" d="M441.91,-241.51C452.22,-217.93 481.32,-155.47 517.88,-112 527.01,-101.13 539,-90.84 549.36,-82.86"/>
<polygon fill="#63b8ff" stroke="#63b8ff" points="551.14,-85.9 557.08,-77.12 546.96,-80.28 551.14,-85.9"/>
</a>
</g>
</g>
<!-- Node8&#45;&gt;Node9 -->
<g id="edge8_Node000008_Node000009" class="edge">
<title>Node8&#45;&gt;Node9</title>
<g id="a_edge8_Node000008_Node000009"><a xlink:title=" ">
<path fill="none" stroke="#63b8ff" d="M482.72,-243.17C497.69,-240.7 514.48,-238.07 529.88,-236 662.69,-218.16 819.65,-203.09 900.57,-195.77"/>
<polygon fill="#63b8ff" stroke="#63b8ff" points="900.8,-199.26 910.44,-194.88 900.17,-192.29 900.8,-199.26"/>
</a>
</g>
</g>
<!-- Node21 -->
<g id="Node000021" class="node">
<title>Node21</title>
<g id="a_Node000021"><a xlink:href="reflection_8hpp.html" target="_top" xlink:title=" ">
<polygon fill="white" stroke="#666666" points="389.25,-200 288.5,-200 288.5,-180 389.25,-180 389.25,-200"/>
<text xml:space="preserve" text-anchor="middle" x="338.88" y="-186.5" font-family="Helvetica,sans-Serif" font-size="10.00">utility/reflection.hpp</text>
</a>
</g>
</g>
<!-- Node8&#45;&gt;Node21 -->
<g id="edge23_Node000008_Node000021" class="edge">
<title>Node8&#45;&gt;Node21</title>
<g id="a_edge23_Node000008_Node000021"><a xlink:title=" ">
<path fill="none" stroke="#63b8ff" d="M422.41,-241.62C406.79,-232.16 382.4,-217.38 364.01,-206.23"/>
<polygon fill="#63b8ff" stroke="#63b8ff" points="365.9,-203.28 355.53,-201.09 362.27,-209.27 365.9,-203.28"/>
</a>
</g>
</g>
<!-- Node23 -->
<g id="Node000023" class="node">
<title>Node23</title>
<g id="a_Node000023"><a xlink:title=" ">
<polygon fill="#e0e0e0" stroke="#999999" points="257.88,-76 133.88,-76 133.88,-56 257.88,-56 257.88,-76"/>
<text xml:space="preserve" text-anchor="middle" x="195.88" y="-62.5" font-family="Helvetica,sans-Serif" font-size="10.00">boost/pfr/core_name.hpp</text>
</a>
</g>
</g>
<!-- Node8&#45;&gt;Node23 -->
<g id="edge37_Node000008_Node000023" class="edge">
<title>Node8&#45;&gt;Node23</title>
<g id="a_edge37_Node000008_Node000023"><a xlink:title=" ">
<path fill="none" stroke="#63b8ff" d="M392.81,-246.4C326.47,-238.96 206.44,-222.81 169.88,-200 133.1,-177.07 107.36,-150.17 127.88,-112 135.01,-98.72 147.98,-88.7 160.7,-81.52"/>
<polygon fill="#63b8ff" stroke="#63b8ff" points="162.08,-84.75 169.38,-77.07 158.88,-78.52 162.08,-84.75"/>
</a>
</g>
</g>
<!-- Node28 -->
<g id="Node000028" class="node">
<title>Node28</title>
<g id="a_Node000028"><a xlink:title=" ">
<polygon fill="#e0e0e0" stroke="#999999" points="270.75,-200 179,-200 179,-180 270.75,-180 270.75,-200"/>
<text xml:space="preserve" text-anchor="middle" x="224.88" y="-186.5" font-family="Helvetica,sans-Serif" font-size="10.00">boost/pfr/ops.hpp</text>
</a>
</g>
</g>
<!-- Node8&#45;&gt;Node28 -->
<g id="edge38_Node000008_Node000028" class="edge">
<title>Node8&#45;&gt;Node28</title>
<g id="a_edge38_Node000008_Node000028"><a xlink:title=" ">
<path fill="none" stroke="#63b8ff" d="M404.59,-241.62C368.12,-231.35 309.45,-214.82 269.13,-203.47"/>
<polygon fill="#63b8ff" stroke="#63b8ff" points="270.3,-200.16 259.73,-200.82 268.41,-206.9 270.3,-200.16"/>
</a>
</g>
</g>
<!-- Node8&#45;&gt;Node29 -->
<g id="edge39_Node000008_Node000029" class="edge">
<title>Node8&#45;&gt;Node29</title>
<g id="a_edge39_Node000008_Node000029"><a xlink:title=" ">
<path fill="none" stroke="#63b8ff" d="M483.11,-241.95C535.59,-231.46 622.25,-214.12 679.7,-202.63"/>
<polygon fill="#63b8ff" stroke="#63b8ff" points="680.18,-206.11 689.3,-200.72 678.81,-199.24 680.18,-206.11"/>
</a>
</g>
</g>
<!-- Node9&#45;&gt;Node4 -->
<g id="edge9_Node000009_Node000004" class="edge">
<title>Node9&#45;&gt;Node4</title>
<g id="a_edge9_Node000009_Node000004"><a xlink:title=" ">
<path fill="none" stroke="#63b8ff" d="M912.15,-182.81C856.17,-174.57 754.99,-159.27 668.88,-144 662.92,-142.94 656.7,-141.79 650.51,-140.62"/>
<polygon fill="#63b8ff" stroke="#63b8ff" points="651.41,-137.23 640.93,-138.77 650.09,-144.1 651.41,-137.23"/>
</a>
</g>
</g>
<!-- Node9&#45;&gt;Node5 -->
<g id="edge14_Node000009_Node000005" class="edge">
<title>Node9&#45;&gt;Node5</title>
<g id="a_edge14_Node000009_Node000005"><a xlink:title=" ">
<path fill="none" stroke="#63b8ff" d="M912.25,-186.64C808.97,-180.64 551.33,-163.84 517.88,-144 495.9,-130.97 480.91,-104.85 472.62,-86.66"/>
<polygon fill="#63b8ff" stroke="#63b8ff" points="475.95,-85.55 468.83,-77.71 469.51,-88.28 475.95,-85.55"/>
</a>
</g>
</g>
<!-- Node10 -->
<g id="Node000010" class="node">
<title>Node10</title>
<g id="a_Node000010"><a xlink:href="str__conv_8hpp.html" target="_top" xlink:title=" ">
<polygon fill="white" stroke="#666666" points="1003.75,-138 906,-138 906,-118 1003.75,-118 1003.75,-138"/>
<text xml:space="preserve" text-anchor="middle" x="954.88" y="-124.5" font-family="Helvetica,sans-Serif" font-size="10.00">utility/str_conv.hpp</text>
</a>
</g>
</g>
<!-- Node9&#45;&gt;Node10 -->
<g id="edge10_Node000009_Node000010" class="edge">
<title>Node9&#45;&gt;Node10</title>
<g id="a_edge10_Node000009_Node000010"><a xlink:title=" ">
<path fill="none" stroke="#63b8ff" d="M954.88,-179.62C954.88,-171.56 954.88,-159.65 954.88,-149.41"/>
<polygon fill="#63b8ff" stroke="#63b8ff" points="958.38,-149.63 954.88,-139.63 951.38,-149.63 958.38,-149.63"/>
</a>
</g>
</g>
<!-- Node13 -->
<g id="Node000013" class="node">
<title>Node13</title>
<g id="a_Node000013"><a xlink:title=" ">
<polygon fill="#e0e0e0" stroke="#999999" points="1127.5,-144 1022.25,-144 1022.25,-112 1127.5,-112 1127.5,-144"/>
<text xml:space="preserve" text-anchor="start" x="1030.25" y="-130.5" font-family="Helvetica,sans-Serif" font-size="10.00">boost/archive/basic</text>
<text xml:space="preserve" text-anchor="middle" x="1074.88" y="-118.5" font-family="Helvetica,sans-Serif" font-size="10.00">_binary_iarchive.hpp</text>
</a>
</g>
</g>
<!-- Node9&#45;&gt;Node13 -->
<g id="edge13_Node000009_Node000013" class="edge">
<title>Node9&#45;&gt;Node13</title>
<g id="a_edge13_Node000009_Node000013"><a xlink:title=" ">
<path fill="none" stroke="#63b8ff" d="M973.62,-179.62C989.75,-171.56 1013.59,-159.64 1034.08,-149.4"/>
<polygon fill="#63b8ff" stroke="#63b8ff" points="1035.4,-152.65 1042.77,-145.05 1032.26,-146.39 1035.4,-152.65"/>
</a>
</g>
</g>
<!-- Node9&#45;&gt;Node14 -->
<g id="edge15_Node000009_Node000014" class="edge">
<title>Node9&#45;&gt;Node14</title>
<g id="a_edge15_Node000009_Node000014"><a xlink:title=" ">
<path fill="none" stroke="#63b8ff" d="M997.86,-187.97C1087.34,-185.28 1300.23,-175.99 1486.91,-144.33"/>
<polygon fill="#63b8ff" stroke="#63b8ff" points="1487.29,-147.82 1496.55,-142.67 1486.1,-140.92 1487.29,-147.82"/>
</a>
</g>
</g>
<!-- Node15 -->
<g id="Node000015" class="node">
<title>Node15</title>
<g id="a_Node000015"><a xlink:title=" ">
<polygon fill="#e0e0e0" stroke="#999999" points="1240.25,-144 1145.5,-144 1145.5,-112 1240.25,-112 1240.25,-144"/>
<text xml:space="preserve" text-anchor="start" x="1153.5" y="-130.5" font-family="Helvetica,sans-Serif" font-size="10.00">boost/serialization</text>
<text xml:space="preserve" text-anchor="middle" x="1192.88" y="-118.5" font-family="Helvetica,sans-Serif" font-size="10.00">/optional.hpp</text>
</a>
</g>
</g>
<!-- Node9&#45;&gt;Node15 -->
<g id="edge16_Node000009_Node000015" class="edge">
<title>Node9&#45;&gt;Node15</title>
<g id="a_edge16_Node000009_Node000015"><a xlink:title=" ">
<path fill="none" stroke="#63b8ff" d="M993.98,-179.56C1028.5,-171.18 1080.46,-158.44 1134.12,-144.68"/>
<polygon fill="#63b8ff" stroke="#63b8ff" points="1134.95,-148.09 1143.77,-142.21 1133.21,-141.31 1134.95,-148.09"/>
</a>
</g>
</g>
<!-- Node16 -->
<g id="Node000016" class="node">
<title>Node16</title>
<g id="a_Node000016"><a xlink:title=" ">
<polygon fill="#e0e0e0" stroke="#999999" points="1363.12,-144 1258.62,-144 1258.62,-112 1363.12,-112 1363.12,-144"/>
<text xml:space="preserve" text-anchor="start" x="1266.62" y="-130.5" font-family="Helvetica,sans-Serif" font-size="10.00">boost/serialization</text>
<text xml:space="preserve" text-anchor="middle" x="1310.88" y="-118.5" font-family="Helvetica,sans-Serif" font-size="10.00">/unordered_map.hpp</text>
</a>
</g>
</g>
<!-- Node9&#45;&gt;Node16 -->
<g id="edge17_Node000009_Node000016" class="edge">
<title>Node9&#45;&gt;Node16</title>
<g id="a_edge17_Node000009_Node000016"><a xlink:title=" ">
<path fill="none" stroke="#63b8ff" d="M997.43,-183.65C1052.6,-176.46 1152.02,-162.63 1246.93,-144.28"/>
<polygon fill="#63b8ff" stroke="#63b8ff" points="1247.55,-147.72 1256.69,-142.36 1246.21,-140.85 1247.55,-147.72"/>
</a>
</g>
</g>
<!-- Node17 -->
<g id="Node000017" class="node">
<title>Node17</title>
<g id="a_Node000017"><a xlink:title=" ">
<polygon fill="#e0e0e0" stroke="#999999" points="1480.5,-144 1381.25,-144 1381.25,-112 1480.5,-112 1480.5,-144"/>
<text xml:space="preserve" text-anchor="start" x="1389.25" y="-130.5" font-family="Helvetica,sans-Serif" font-size="10.00">boost/serialization</text>
<text xml:space="preserve" text-anchor="middle" x="1430.88" y="-118.5" font-family="Helvetica,sans-Serif" font-size="10.00">/unordered_set.hpp</text>
</a>
</g>
</g>
<!-- Node9&#45;&gt;Node17 -->
<g id="edge18_Node000009_Node000017" class="edge">
<title>Node9&#45;&gt;Node17</title>
<g id="a_edge18_Node000009_Node000017"><a xlink:title=" ">
<path fill="none" stroke="#63b8ff" d="M997.78,-186.38C1071.76,-181.43 1228.22,-169.05 1369.74,-144.22"/>
<polygon fill="#63b8ff" stroke="#63b8ff" points="1370.05,-147.72 1379.28,-142.52 1368.82,-140.83 1370.05,-147.72"/>
</a>
</g>
</g>
<!-- Node18 -->
<g id="Node000018" class="node">
<title>Node18</title>
<g id="a_Node000018"><a xlink:title=" ">
<polygon fill="#e0e0e0" stroke="#999999" points="772.25,-144 677.5,-144 677.5,-112 772.25,-112 772.25,-144"/>
<text xml:space="preserve" text-anchor="start" x="685.5" y="-130.5" font-family="Helvetica,sans-Serif" font-size="10.00">boost/serialization</text>
<text xml:space="preserve" text-anchor="middle" x="724.88" y="-118.5" font-family="Helvetica,sans-Serif" font-size="10.00">/vector.hpp</text>
</a>
</g>
</g>
<!-- Node9&#45;&gt;Node18 -->
<g id="edge19_Node000009_Node000018" class="edge">
<title>Node9&#45;&gt;Node18</title>
<g id="a_edge19_Node000009_Node000018"><a xlink:title=" ">
<path fill="none" stroke="#63b8ff" d="M917.85,-179.52C884.95,-171.08 835.25,-158.27 783.58,-144.7"/>
<polygon fill="#63b8ff" stroke="#63b8ff" points="784.55,-141.34 773.99,-142.18 782.77,-148.11 784.55,-141.34"/>
</a>
</g>
</g>
<!-- Node19 -->
<g id="Node000019" class="node">
<title>Node19</title>
<g id="a_Node000019"><a xlink:title=" ">
<polygon fill="#e0e0e0" stroke="#999999" points="833.75,-138 790,-138 790,-118 833.75,-118 833.75,-138"/>
<text xml:space="preserve" text-anchor="middle" x="811.88" y="-124.5" font-family="Helvetica,sans-Serif" font-size="10.00">format</text>
</a>
</g>
</g>
<!-- Node9&#45;&gt;Node19 -->
<g id="edge20_Node000009_Node000019" class="edge">
<title>Node9&#45;&gt;Node19</title>
<g id="a_edge20_Node000009_Node000019"><a xlink:title=" ">
<path fill="none" stroke="#63b8ff" d="M930.2,-179.65C907.37,-170.86 872.58,-157.14 842.88,-144 842.26,-143.73 841.64,-143.45 841.01,-143.17"/>
<polygon fill="#63b8ff" stroke="#63b8ff" points="842.71,-140.1 832.17,-139.05 839.75,-146.44 842.71,-140.1"/>
</a>
</g>
</g>
<!-- Node20 -->
<g id="Node000020" class="node">
<title>Node20</title>
<g id="a_Node000020"><a xlink:title=" ">
<polygon fill="#e0e0e0" stroke="#999999" points="888.38,-138 851.38,-138 851.38,-118 888.38,-118 888.38,-138"/>
<text xml:space="preserve" text-anchor="middle" x="869.88" y="-124.5" font-family="Helvetica,sans-Serif" font-size="10.00">tuple</text>
</a>
</g>
</g>
<!-- Node9&#45;&gt;Node20 -->
<g id="edge21_Node000009_Node000020" class="edge">
<title>Node9&#45;&gt;Node20</title>
<g id="a_edge21_Node000009_Node000020"><a xlink:title=" ">
<path fill="none" stroke="#63b8ff" d="M941.59,-179.62C928.37,-170.29 907.83,-155.79 892.12,-144.7"/>
<polygon fill="#63b8ff" stroke="#63b8ff" points="894.49,-142.09 884.3,-139.18 890.45,-147.81 894.49,-142.09"/>
</a>
</g>
</g>
<!-- Node11 -->
<g id="Node000011" class="node">
<title>Node11</title>
<g id="a_Node000011"><a xlink:title=" ">
<polygon fill="#e0e0e0" stroke="#999999" points="974.88,-76 934.88,-76 934.88,-56 974.88,-56 974.88,-76"/>
<text xml:space="preserve" text-anchor="middle" x="954.88" y="-62.5" font-family="Helvetica,sans-Serif" font-size="10.00">string</text>
</a>
</g>
</g>
<!-- Node10&#45;&gt;Node11 -->
<g id="edge11_Node000010_Node000011" class="edge">
<title>Node10&#45;&gt;Node11</title>
<g id="a_edge11_Node000010_Node000011"><a xlink:title=" ">
<path fill="none" stroke="#63b8ff" d="M954.88,-117.62C954.88,-109.56 954.88,-97.65 954.88,-87.41"/>
<polygon fill="#63b8ff" stroke="#63b8ff" points="958.38,-87.63 954.88,-77.63 951.38,-87.63 958.38,-87.63"/>
</a>
</g>
</g>
<!-- Node12 -->
<g id="Node000012" class="node">
<title>Node12</title>
<g id="a_Node000012"><a xlink:title=" ">
<polygon fill="#e0e0e0" stroke="#999999" points="422.62,-20 357.12,-20 357.12,0 422.62,0 422.62,-20"/>
<text xml:space="preserve" text-anchor="middle" x="389.88" y="-6.5" font-family="Helvetica,sans-Serif" font-size="10.00">string_view</text>
</a>
</g>
</g>
<!-- Node10&#45;&gt;Node12 -->
<g id="edge12_Node000010_Node000012" class="edge">
<title>Node10&#45;&gt;Node12</title>
<g id="a_edge12_Node000010_Node000012"><a xlink:title=" ">
<path fill="none" stroke="#63b8ff" d="M920.29,-117.54C912.92,-115.62 905.15,-113.68 897.88,-112 727.44,-72.67 522.72,-34.8 434.21,-18.87"/>
<polygon fill="#63b8ff" stroke="#63b8ff" points="434.96,-15.45 424.5,-17.13 433.72,-22.34 434.96,-15.45"/>
</a>
</g>
</g>
<!-- Node22 -->
<g id="Node000022" class="node">
<title>Node22</title>
<g id="a_Node000022"><a xlink:href="pfr__assign_8hpp.html" target="_top" xlink:title=" ">
<polygon fill="white" stroke="#666666" points="395.12,-138 272.62,-138 272.62,-118 395.12,-118 395.12,-138"/>
<text xml:space="preserve" text-anchor="middle" x="333.88" y="-124.5" font-family="Helvetica,sans-Serif" font-size="10.00">reflection/pfr_assign.hpp</text>
</a>
</g>
</g>
<!-- Node21&#45;&gt;Node22 -->
<g id="edge24_Node000021_Node000022" class="edge">
<title>Node21&#45;&gt;Node22</title>
<g id="a_edge24_Node000021_Node000022"><a xlink:title=" ">
<path fill="none" stroke="#63b8ff" d="M338.09,-179.62C337.42,-171.56 336.43,-159.65 335.58,-149.41"/>
<polygon fill="#63b8ff" stroke="#63b8ff" points="339.08,-149.3 334.76,-139.62 332.1,-149.88 339.08,-149.3"/>
</a>
</g>
</g>
<!-- Node26 -->
<g id="Node000026" class="node">
<title>Node26</title>
<g id="a_Node000026"><a xlink:href="reflection_2reflection_8hpp.html" target="_top" xlink:title=" ">
<polygon fill="white" stroke="#666666" points="254.5,-138 137.25,-138 137.25,-118 254.5,-118 254.5,-138"/>
<text xml:space="preserve" text-anchor="middle" x="195.88" y="-124.5" font-family="Helvetica,sans-Serif" font-size="10.00">reflection/reflection.hpp</text>
</a>
</g>
</g>
<!-- Node21&#45;&gt;Node26 -->
<g id="edge30_Node000021_Node000026" class="edge">
<title>Node21&#45;&gt;Node26</title>
<g id="a_edge30_Node000021_Node000026"><a xlink:title=" ">
<path fill="none" stroke="#63b8ff" d="M316.53,-179.62C292.92,-169.72 255.45,-153.99 228.52,-142.7"/>
<polygon fill="#63b8ff" stroke="#63b8ff" points="230.03,-139.54 219.46,-138.89 227.32,-145.99 230.03,-139.54"/>
</a>
</g>
</g>
<!-- Node22&#45;&gt;Node5 -->
<g id="edge25_Node000022_Node000005" class="edge">
<title>Node22&#45;&gt;Node5</title>
<g id="a_edge25_Node000022_Node000005"><a xlink:title=" ">
<path fill="none" stroke="#63b8ff" d="M354.34,-117.62C375.78,-107.81 409.69,-92.27 434.31,-81"/>
<polygon fill="#63b8ff" stroke="#63b8ff" points="435.54,-84.29 443.17,-76.94 432.62,-77.92 435.54,-84.29"/>
</a>
</g>
</g>
<!-- Node22&#45;&gt;Node12 -->
<g id="edge29_Node000022_Node000012" class="edge">
<title>Node22&#45;&gt;Node12</title>
<g id="a_edge29_Node000022_Node000012"><a xlink:title=" ">
<path fill="none" stroke="#63b8ff" d="M342.02,-117.86C350.33,-108.11 363.07,-91.91 370.88,-76 377.86,-61.76 382.76,-44.48 385.83,-31.32"/>
<polygon fill="#63b8ff" stroke="#63b8ff" points="389.22,-32.19 387.91,-21.67 382.38,-30.71 389.22,-32.19"/>
</a>
</g>
</g>
<!-- Node22&#45;&gt;Node23 -->
<g id="edge26_Node000022_Node000023" class="edge">
<title>Node22&#45;&gt;Node23</title>
<g id="a_edge26_Node000022_Node000023"><a xlink:title=" ">
<path fill="none" stroke="#63b8ff" d="M312.31,-117.62C289.63,-107.76 253.68,-92.13 227.73,-80.85"/>
<polygon fill="#63b8ff" stroke="#63b8ff" points="229.24,-77.69 218.67,-76.91 226.45,-84.11 229.24,-77.69"/>
</a>
</g>
</g>
<!-- Node24 -->
<g id="Node000024" class="node">
<title>Node24</title>
<g id="a_Node000024"><a xlink:title=" ">
<polygon fill="#e0e0e0" stroke="#999999" points="362,-76 313.75,-76 313.75,-56 362,-56 362,-76"/>
<text xml:space="preserve" text-anchor="middle" x="337.88" y="-62.5" font-family="Helvetica,sans-Serif" font-size="10.00">cassert</text>
</a>
</g>
</g>
<!-- Node22&#45;&gt;Node24 -->
<g id="edge27_Node000022_Node000024" class="edge">
<title>Node22&#45;&gt;Node24</title>
<g id="a_edge27_Node000022_Node000024"><a xlink:title=" ">
<path fill="none" stroke="#63b8ff" d="M334.5,-117.62C335.04,-109.56 335.83,-97.65 336.51,-87.41"/>
<polygon fill="#63b8ff" stroke="#63b8ff" points="339.99,-87.83 337.17,-77.62 333.01,-87.37 339.99,-87.83"/>
</a>
</g>
</g>
<!-- Node25 -->
<g id="Node000025" class="node">
<title>Node25</title>
<g id="a_Node000025"><a xlink:title=" ">
<polygon fill="#e0e0e0" stroke="#999999" points="196,-20 147.75,-20 147.75,0 196,0 196,-20"/>
<text xml:space="preserve" text-anchor="middle" x="171.88" y="-6.5" font-family="Helvetica,sans-Serif" font-size="10.00">cstddef</text>
</a>
</g>
</g>
<!-- Node22&#45;&gt;Node25 -->
<g id="edge28_Node000022_Node000025" class="edge">
<title>Node22&#45;&gt;Node25</title>
<g id="a_edge28_Node000022_Node000025"><a xlink:title=" ">
<path fill="none" stroke="#63b8ff" d="M326.94,-117.66C315.68,-102.99 292.1,-74.33 266.88,-56 248.49,-42.64 225.5,-31.63 206.75,-23.84"/>
<polygon fill="#63b8ff" stroke="#63b8ff" points="208.25,-20.67 197.67,-20.2 205.65,-27.17 208.25,-20.67"/>
</a>
</g>
</g>
<!-- Node26&#45;&gt;Node5 -->
<g id="edge34_Node000026_Node000005" class="edge">
<title>Node26&#45;&gt;Node5</title>
<g id="a_edge34_Node000026_Node000005"><a xlink:title=" ">
<path fill="none" stroke="#63b8ff" d="M238.2,-117.56C284.97,-107.13 360.39,-90.31 411.25,-78.96"/>
<polygon fill="#63b8ff" stroke="#63b8ff" points="411.88,-82.41 420.87,-76.81 410.35,-75.58 411.88,-82.41"/>
</a>
</g>
</g>
<!-- Node26&#45;&gt;Node23 -->
<g id="edge35_Node000026_Node000023" class="edge">
<title>Node26&#45;&gt;Node23</title>
<g id="a_edge35_Node000026_Node000023"><a xlink:title=" ">
<path fill="none" stroke="#63b8ff" d="M195.88,-117.62C195.88,-109.56 195.88,-97.65 195.88,-87.41"/>
<polygon fill="#63b8ff" stroke="#63b8ff" points="199.38,-87.63 195.88,-77.63 192.38,-87.63 199.38,-87.63"/>
</a>
</g>
</g>
<!-- Node27 -->
<g id="Node000027" class="node">
<title>Node27</title>
<g id="a_Node000027"><a xlink:href="constexpr__string_8hpp.html" target="_top" xlink:title=" ">
<polygon fill="white" stroke="#666666" points="115.75,-76 0,-76 0,-56 115.75,-56 115.75,-76"/>
<text xml:space="preserve" text-anchor="middle" x="57.88" y="-62.5" font-family="Helvetica,sans-Serif" font-size="10.00">../constexpr_string.hpp</text>
</a>
</g>
</g>
<!-- Node26&#45;&gt;Node27 -->
<g id="edge31_Node000026_Node000027" class="edge">
<title>Node26&#45;&gt;Node27</title>
<g id="a_edge31_Node000026_Node000027"><a xlink:title=" ">
<path fill="none" stroke="#63b8ff" d="M174.31,-117.62C151.63,-107.76 115.68,-92.13 89.73,-80.85"/>
<polygon fill="#63b8ff" stroke="#63b8ff" points="91.24,-77.69 80.67,-76.91 88.45,-84.11 91.24,-77.69"/>
</a>
</g>
</g>
<!-- Node27&#45;&gt;Node12 -->
<g id="edge33_Node000027_Node000012" class="edge">
<title>Node27&#45;&gt;Node12</title>
<g id="a_edge33_Node000027_Node000012"><a xlink:title=" ">
<path fill="none" stroke="#63b8ff" d="M116.08,-55.53C181.64,-44.87 286.7,-27.78 345.8,-18.17"/>
<polygon fill="#63b8ff" stroke="#63b8ff" points="346.18,-21.65 355.49,-16.59 345.06,-14.74 346.18,-21.65"/>
</a>
</g>
</g>
<!-- Node27&#45;&gt;Node25 -->
<g id="edge32_Node000027_Node000025" class="edge">
<title>Node27&#45;&gt;Node25</title>
<g id="a_edge32_Node000027_Node000025"><a xlink:title=" ">
<path fill="none" stroke="#63b8ff" d="M77.73,-55.59C95.36,-47.24 121.38,-34.92 141.6,-25.34"/>
<polygon fill="#63b8ff" stroke="#63b8ff" points="142.96,-28.57 150.49,-21.13 139.96,-22.25 142.96,-28.57"/>
</a>
</g>
</g>
</g>
</svg>

<g id="navigator" transform="translate(0 0)" fill="#404254">
  <rect fill="#f2f5e9" fill-opacity="0.5" stroke="#606060" stroke-width=".5" x="0" y="0" width="60" height="60"/>
  <use id="zoomplus" xlink:href="#zoomPlus" x="17" y="9" onmousedown="handleZoom(evt,'in')"/>
  <use id="zoomminus" xlink:href="#zoomMin" x="42" y="9" onmousedown="handleZoom(evt,'out')"/>
  <use id="reset" xlink:href="#resetDef" x="30" y="36" onmousedown="handleReset()"/>
   <use id="arrowup" xlink:href="#arrowUp" x="0" y="0" onmousedown="handlePan(0,-1)"/>
  <use id="arrowright" xlink:href="#arrowRight" x="0" y="0" onmousedown="handlePan(1,0)"/>
  <use id="arrowdown" xlink:href="#arrowDown" x="0" y="0" onmousedown="handlePan(0,1)"/>
  <use id="arrowleft" xlink:href="#arrowLeft" x="0" y="0" onmousedown="handlePan(-1,0)"/>
</g>
<svg viewBox="0 0 15 15" width="100%" height="30px" preserveAspectRatio="xMaxYMin meet">
 <g id="arrow_out" transform="scale(0.3 0.3)">
  <a xlink:href="compare_8hpp__incl_org.svg" target="_base">
   <rect id="button" ry="5" rx="5" y="6" x="6" height="38" width="38"
        fill="#f2f5e9" fill-opacity="0.5" stroke="#606060" stroke-width="1.0"/>
   <path id="arrow"
     d="M 11.500037,31.436501 C 11.940474,20.09759 22.043105,11.32322 32.158766,21.979434 L 37.068811,17.246167 C 37.068811,17.246167 37.088388,32 37.088388,32 L 22.160133,31.978069 C 22.160133,31.978069 26.997745,27.140456 26.997745,27.140456 C 18.528582,18.264221 13.291696,25.230495 11.500037,31.436501 z"
     style="fill:#404040;"/>
  </a>
 </g>
</svg>

<style type='text/css'>
<![CDATA[
[data-mouse-over-selected='false'] { opacity: 0.7; }
[data-mouse-over-selected='true']  { opacity: 1.0; }
]]>
</style>
<script type="application/ecmascript"><![CDATA[
document.addEventListener('DOMContentLoaded', (event) => {
  highlightEdges();
  highlightAdjacentNodes();
});
]]></script>
</svg>
