<?xml version="1.0" encoding="UTF-8" standalone="no"?>
<!DOCTYPE svg PUBLIC "-//W3C//DTD SVG 1.1//EN"
 "http://www.w3.org/Graphics/SVG/1.1/DTD/svg11.dtd">
<!-- Generated by graphviz version 14.1.2 (20260124.0452)
 -->
<!-- Title: depicture_menu/src/core/cs_binding/observer/config_view_topic_type_traits.hpp Pages: 1 -->
<!--zoomable 504 -->

<svg id="main" version="1.1" xmlns="http://www.w3.org/2000/svg" xmlns:xlink="http://www.w3.org/1999/xlink" xml:space="preserve" onload="init(evt)">

<style type="text/css"><![CDATA[
.node, .edge {opacity: 0.7;}
.node.selected, .edge.selected {opacity: 1;}
.edge:hover path { stroke: red; }
.edge:hover polygon { stroke: red; fill: red; }
]]></style>

<defs>
  <circle id="rim" cx="0" cy="0" r="7"/>
  <circle id="rim2" cx="0" cy="0" r="3.5"/>
  <g id="zoomPlus">
    <use xlink:href="#rim" fill="#404040"><set attributeName="fill" to="#808080" begin="zoomplus.mouseover" end="zoomplus.mouseout"/></use>
    <path d="M-4,0h8M0,-4v8" fill="none" stroke="white" stroke-width="1.5" pointer-events="none"/>
  </g>
  <g id="zoomMin">
    <use xlink:href="#rim" fill="#404040"><set attributeName="fill" to="#808080" begin="zoomminus.mouseover" end="zoomminus.mouseout"/></use>
    <path d="M-4,0h8" fill="none" stroke="white" stroke-width="1.5" pointer-events="none"/>
  </g>
  <g id="arrowUp" transform="translate(30 24)">
    <use xlink:href="#rim"/>
    <path pointer-events="none" fill="none" stroke="white" stroke-width="1.5" d="M0,-3.0v7 M-2.5,-0.5L0,-3.0L2.5,-0.5"/>
  </g>
  <g id="arrowRight" transform="rotate(90) translate(36 -43)">
    <use xlink:href="#rim"/>
    <path pointer-events="none" fill="none" stroke="white" stroke-width="1.5" d="M0,-3.0v7 M-2.5,-0.5L0,-3.0L2.5,-0.5"/>
  </g>
  <g id="arrowDown" transform="rotate(180) translate(-30 -48)">
    <use xlink:href="#rim"/>
    <path pointer-events="none" fill="none" stroke="white" stroke-width="1.5" d="M0,-3.0v7 M-2.5,-0.5L0,-3.0L2.5,-0.5"/>
  </g>
  <g id="arrowLeft" transform="rotate(270) translate(-36 17)">
    <use xlink:href="#rim"/>
    <path pointer-events="none" fill="none" stroke="white" stroke-width="1.5" d="M0,-3.0v7 M-2.5,-0.5L0,-3.0L2.5,-0.5"/>
  </g>
  <g id="resetDef">
    <use xlink:href="#rim2" fill="#404040"><set attributeName="fill" to="#808080" begin="reset.mouseover" end="reset.mouseout"/></use>
  </g>
</defs>
<script type="application/ecmascript">
var viewWidth = 2075;
var viewHeight = 504;
var sectionId = 'dynsection-0';
</script>
<script type="application/ecmascript" xlink:href="svg.min.js"/>
<svg id="graph" class="graph">
<g id="viewport">
<title>depicture_menu/src/core/cs_binding/observer/config_view_topic_type_traits.hpp</title>
<!-- Node1 -->
<g id="Node000001" class="node">
<title>Node1</title>
<g id="a_Node000001"><a xlink:title=" ">
<polygon fill="#999999" stroke="#666666" points="873.75,-496 746,-496 746,-440 873.75,-440 873.75,-496"/>
<text xml:space="preserve" text-anchor="start" x="754" y="-482.5" font-family="Helvetica,sans-Serif" font-size="10.00">depicture_menu/src</text>
<text xml:space="preserve" text-anchor="start" x="754" y="-470.5" font-family="Helvetica,sans-Serif" font-size="10.00">/core/cs_binding/observer</text>
<text xml:space="preserve" text-anchor="start" x="754" y="-458.5" font-family="Helvetica,sans-Serif" font-size="10.00">/config_view_topic_type</text>
<text xml:space="preserve" text-anchor="middle" x="809.88" y="-446.5" font-family="Helvetica,sans-Serif" font-size="10.00">_traits.hpp</text>
</a>
</g>
</g>
<!-- Node2 -->
<g id="Node000002" class="node">
<title>Node2</title>
<g id="a_Node000002"><a xlink:href="config__view__notify__topic_8hpp.html" target="_top" xlink:title=" ">
<polygon fill="white" stroke="#666666" points="538.38,-404 441.38,-404 441.38,-372 538.38,-372 538.38,-404"/>
<text xml:space="preserve" text-anchor="start" x="449.38" y="-390.5" font-family="Helvetica,sans-Serif" font-size="10.00">config_view_notify</text>
<text xml:space="preserve" text-anchor="middle" x="489.88" y="-378.5" font-family="Helvetica,sans-Serif" font-size="10.00">_topic.hpp</text>
</a>
</g>
</g>
<!-- Node1&#45;&gt;Node2 -->
<g id="edge1_Node000001_Node000002" class="edge">
<title>Node1&#45;&gt;Node2</title>
<g id="a_edge1_Node000001_Node000002"><a xlink:title=" ">
<path fill="none" stroke="#63b8ff" d="M745.74,-452.06C695.03,-440.14 622.15,-422.82 549.81,-404.71"/>
<polygon fill="#63b8ff" stroke="#63b8ff" points="550.69,-401.33 540.14,-402.29 548.99,-408.12 550.69,-401.33"/>
</a>
</g>
</g>
<!-- Node4 -->
<g id="Node000004" class="node">
<title>Node4</title>
<g id="a_Node000004"><a xlink:href="collection__changed__kind_8hpp.html" target="_top" xlink:title=" ">
<polygon fill="white" stroke="#666666" points="655.5,-404 556.25,-404 556.25,-372 655.5,-372 655.5,-404"/>
<text xml:space="preserve" text-anchor="start" x="564.25" y="-390.5" font-family="Helvetica,sans-Serif" font-size="10.00">collection_changed</text>
<text xml:space="preserve" text-anchor="middle" x="605.88" y="-378.5" font-family="Helvetica,sans-Serif" font-size="10.00">_kind.hpp</text>
</a>
</g>
</g>
<!-- Node1&#45;&gt;Node4 -->
<g id="edge3_Node000001_Node000004" class="edge">
<title>Node1&#45;&gt;Node4</title>
<g id="a_edge3_Node000001_Node000004"><a xlink:title=" ">
<path fill="none" stroke="#63b8ff" d="M745.61,-442.43C717.07,-431.52 683.95,-418.85 657.12,-408.59"/>
<polygon fill="#63b8ff" stroke="#63b8ff" points="658.42,-405.34 647.83,-405.04 655.92,-411.88 658.42,-405.34"/>
</a>
</g>
</g>
<!-- Node5 -->
<g id="Node000005" class="node">
<title>Node5</title>
<g id="a_Node000005"><a xlink:href="menu__ids_8hpp.html" target="_top" xlink:title=" ">
<polygon fill="white" stroke="#666666" points="945.62,-404 820.12,-404 820.12,-372 945.62,-372 945.62,-404"/>
<text xml:space="preserve" text-anchor="start" x="828.12" y="-390.5" font-family="Helvetica,sans-Serif" font-size="10.00">core/domain/model/menu</text>
<text xml:space="preserve" text-anchor="middle" x="882.88" y="-378.5" font-family="Helvetica,sans-Serif" font-size="10.00">/menu_ids.hpp</text>
</a>
</g>
</g>
<!-- Node1&#45;&gt;Node5 -->
<g id="edge4_Node000001_Node000005" class="edge">
<title>Node1&#45;&gt;Node5</title>
<g id="a_edge4_Node000001_Node000005"><a xlink:title=" ">
<path fill="none" stroke="#63b8ff" d="M835.41,-439.72C843.79,-430.76 853.03,-420.89 861.11,-412.25"/>
<polygon fill="#63b8ff" stroke="#63b8ff" points="863.42,-414.91 867.7,-405.21 858.31,-410.12 863.42,-414.91"/>
</a>
</g>
</g>
<!-- Node32 -->
<g id="Node000032" class="node">
<title>Node32</title>
<g id="a_Node000032"><a xlink:title=" ">
<polygon fill="#e0e0e0" stroke="#999999" points="2008.25,-200 1907.5,-200 1907.5,-180 2008.25,-180 2008.25,-200"/>
<text xml:space="preserve" text-anchor="middle" x="1957.88" y="-186.5" font-family="Helvetica,sans-Serif" font-size="10.00">boost/uuid/uuid.hpp</text>
</a>
</g>
</g>
<!-- Node1&#45;&gt;Node32 -->
<g id="edge52_Node000001_Node000032" class="edge">
<title>Node1&#45;&gt;Node32</title>
<g id="a_edge52_Node000001_Node000032"><a xlink:title=" ">
<path fill="none" stroke="#63b8ff" d="M874.06,-451.57C1080.1,-402.03 1722.19,-247.66 1907.4,-203.14"/>
<polygon fill="#63b8ff" stroke="#63b8ff" points="1908.04,-206.58 1916.95,-200.84 1906.41,-199.77 1908.04,-206.58"/>
</a>
</g>
</g>
<!-- Node38 -->
<g id="Node000038" class="node">
<title>Node38</title>
<g id="a_Node000038"><a xlink:href="trigger__ids_8hpp.html" target="_top" xlink:title=" ">
<polygon fill="white" stroke="#666666" points="802.12,-404 673.62,-404 673.62,-372 802.12,-372 802.12,-404"/>
<text xml:space="preserve" text-anchor="start" x="681.62" y="-390.5" font-family="Helvetica,sans-Serif" font-size="10.00">core/domain/model/trigger</text>
<text xml:space="preserve" text-anchor="middle" x="737.88" y="-378.5" font-family="Helvetica,sans-Serif" font-size="10.00">/trigger_ids.hpp</text>
</a>
</g>
</g>
<!-- Node1&#45;&gt;Node38 -->
<g id="edge50_Node000001_Node000038" class="edge">
<title>Node1&#45;&gt;Node38</title>
<g id="a_edge50_Node000001_Node000038"><a xlink:title=" ">
<path fill="none" stroke="#63b8ff" d="M784.69,-439.72C776.51,-430.85 767.5,-421.09 759.59,-412.52"/>
<polygon fill="#63b8ff" stroke="#63b8ff" points="762.2,-410.19 752.85,-405.22 757.06,-414.94 762.2,-410.19"/>
</a>
</g>
</g>
<!-- Node39 -->
<g id="Node000039" class="node">
<title>Node39</title>
<g id="a_Node000039"><a xlink:title=" ">
<polygon fill="#e0e0e0" stroke="#999999" points="1293.75,-398 1232,-398 1232,-378 1293.75,-378 1293.75,-398"/>
<text xml:space="preserve" text-anchor="middle" x="1262.88" y="-384.5" font-family="Helvetica,sans-Serif" font-size="10.00">type_traits</text>
</a>
</g>
</g>
<!-- Node1&#45;&gt;Node39 -->
<g id="edge53_Node000001_Node000039" class="edge">
<title>Node1&#45;&gt;Node39</title>
<g id="a_edge53_Node000001_Node000039"><a xlink:title=" ">
<path fill="none" stroke="#63b8ff" d="M874.13,-460.47C955.07,-451.47 1098.06,-433 1217.88,-404 1220.51,-403.36 1223.21,-402.64 1225.92,-401.87"/>
<polygon fill="#63b8ff" stroke="#63b8ff" points="1226.94,-405.21 1235.47,-398.92 1224.88,-398.52 1226.94,-405.21"/>
</a>
</g>
</g>
<!-- Node3 -->
<g id="Node000003" class="node">
<title>Node3</title>
<g id="a_Node000003"><a xlink:title=" ">
<polygon fill="#e0e0e0" stroke="#999999" points="552.62,-330 427.12,-330 427.12,-310 552.62,-310 552.62,-330"/>
<text xml:space="preserve" text-anchor="middle" x="489.88" y="-316.5" font-family="Helvetica,sans-Serif" font-size="10.00">boost/describe/enum.hpp</text>
</a>
</g>
</g>
<!-- Node2&#45;&gt;Node3 -->
<g id="edge2_Node000002_Node000003" class="edge">
<title>Node2&#45;&gt;Node3</title>
<g id="a_edge2_Node000002_Node000003"><a xlink:title=" ">
<path fill="none" stroke="#63b8ff" d="M489.88,-371.69C489.88,-362.8 489.88,-351.46 489.88,-341.77"/>
<polygon fill="#63b8ff" stroke="#63b8ff" points="493.38,-341.83 489.88,-331.83 486.38,-341.83 493.38,-341.83"/>
</a>
</g>
</g>
<!-- Node6 -->
<g id="Node000006" class="node">
<title>Node6</title>
<g id="a_Node000006"><a xlink:href="model_2entity__id_8hpp.html" target="_top" xlink:title=" ">
<polygon fill="white" stroke="#666666" points="748.62,-336 623.12,-336 623.12,-304 748.62,-304 748.62,-336"/>
<text xml:space="preserve" text-anchor="start" x="631.12" y="-322.5" font-family="Helvetica,sans-Serif" font-size="10.00">core/domain/model/entity</text>
<text xml:space="preserve" text-anchor="middle" x="685.88" y="-310.5" font-family="Helvetica,sans-Serif" font-size="10.00">_id.hpp</text>
</a>
</g>
</g>
<!-- Node5&#45;&gt;Node6 -->
<g id="edge5_Node000005_Node000006" class="edge">
<title>Node5&#45;&gt;Node6</title>
<g id="a_edge5_Node000005_Node000006"><a xlink:title=" ">
<path fill="none" stroke="#63b8ff" d="M836.69,-371.53C808.63,-362.13 772.6,-350.05 742.79,-340.07"/>
<polygon fill="#63b8ff" stroke="#63b8ff" points="744.14,-336.83 733.55,-336.97 741.92,-343.47 744.14,-336.83"/>
</a>
</g>
</g>
<!-- Node7 -->
<g id="Node000007" class="node">
<title>Node7</title>
<g id="a_Node000007"><a xlink:href="model_2value__object_8hpp.html" target="_top" xlink:title=" ">
<polygon fill="white" stroke="#666666" points="1137.62,-262 1048.12,-262 1048.12,-242 1137.62,-242 1137.62,-262"/>
<text xml:space="preserve" text-anchor="middle" x="1092.88" y="-248.5" font-family="Helvetica,sans-Serif" font-size="10.00">value_object.hpp</text>
</a>
</g>
</g>
<!-- Node6&#45;&gt;Node7 -->
<g id="edge6_Node000006_Node000007" class="edge">
<title>Node6&#45;&gt;Node7</title>
<g id="a_edge6_Node000006_Node000007"><a xlink:title=" ">
<path fill="none" stroke="#63b8ff" d="M749.02,-308.76C827.81,-295.98 961.34,-274.33 1036.72,-262.11"/>
<polygon fill="#63b8ff" stroke="#63b8ff" points="1037.05,-265.6 1046.36,-260.54 1035.93,-258.69 1037.05,-265.6"/>
</a>
</g>
</g>
<!-- Node16 -->
<g id="Node000016" class="node">
<title>Node16</title>
<g id="a_Node000016"><a xlink:title=" ">
<polygon fill="#e0e0e0" stroke="#999999" points="566.25,-144 471.5,-144 471.5,-112 566.25,-112 566.25,-144"/>
<text xml:space="preserve" text-anchor="start" x="479.5" y="-130.5" font-family="Helvetica,sans-Serif" font-size="10.00">boost/serialization</text>
<text xml:space="preserve" text-anchor="middle" x="518.88" y="-118.5" font-family="Helvetica,sans-Serif" font-size="10.00">/access.hpp</text>
</a>
</g>
</g>
<!-- Node6&#45;&gt;Node16 -->
<g id="edge44_Node000006_Node000016" class="edge">
<title>Node6&#45;&gt;Node16</title>
<g id="a_edge44_Node000006_Node000016"><a xlink:title=" ">
<path fill="none" stroke="#63b8ff" d="M699.84,-303.65C714.18,-285.96 732.37,-256.68 716.88,-236 682.72,-190.42 643.27,-228.37 593.88,-200 572.56,-187.76 552.57,-168.27 538.59,-152.8"/>
<polygon fill="#63b8ff" stroke="#63b8ff" points="541.31,-150.6 532.09,-145.38 536.05,-155.21 541.31,-150.6"/>
</a>
</g>
</g>
<!-- Node6&#45;&gt;Node32 -->
<g id="edge46_Node000006_Node000032" class="edge">
<title>Node6&#45;&gt;Node32</title>
<g id="a_edge46_Node000006_Node000032"><a xlink:title=" ">
<path fill="none" stroke="#63b8ff" d="M749.1,-316.1C857.96,-310.42 1075.97,-295.91 1146.88,-268 1169.04,-259.28 1167.46,-244.07 1189.88,-236 1337.27,-182.96 1737.94,-214.92 1893.88,-200 1894.56,-199.93 1895.24,-199.87 1895.93,-199.8"/>
<polygon fill="#63b8ff" stroke="#63b8ff" points="1896.21,-203.29 1905.76,-198.71 1895.44,-196.33 1896.21,-203.29"/>
</a>
</g>
</g>
<!-- Node33 -->
<g id="Node000033" class="node">
<title>Node33</title>
<g id="a_Node000033"><a xlink:title=" ">
<polygon fill="#e0e0e0" stroke="#999999" points="127.75,-262 0,-262 0,-242 127.75,-242 127.75,-262"/>
<text xml:space="preserve" text-anchor="middle" x="63.88" y="-248.5" font-family="Helvetica,sans-Serif" font-size="10.00">boost/functional/hash.hpp</text>
</a>
</g>
</g>
<!-- Node6&#45;&gt;Node33 -->
<g id="edge43_Node000006_Node000033" class="edge">
<title>Node6&#45;&gt;Node33</title>
<g id="a_edge43_Node000006_Node000033"><a xlink:title=" ">
<path fill="none" stroke="#63b8ff" d="M622.84,-310.93C603.32,-308.55 581.72,-306.04 561.88,-304 373.3,-284.61 324.49,-295.12 136.88,-268 130.39,-267.06 123.62,-265.91 116.93,-264.66"/>
<polygon fill="#63b8ff" stroke="#63b8ff" points="117.77,-261.26 107.29,-262.79 116.44,-268.13 117.77,-261.26"/>
</a>
</g>
</g>
<!-- Node34 -->
<g id="Node000034" class="node">
<title>Node34</title>
<g id="a_Node000034"><a xlink:title=" ">
<polygon fill="#e0e0e0" stroke="#999999" points="245.5,-268 146.25,-268 146.25,-236 245.5,-236 245.5,-268"/>
<text xml:space="preserve" text-anchor="start" x="154.25" y="-254.5" font-family="Helvetica,sans-Serif" font-size="10.00">boost/serialization</text>
<text xml:space="preserve" text-anchor="middle" x="195.88" y="-242.5" font-family="Helvetica,sans-Serif" font-size="10.00">/array_wrapper.hpp</text>
</a>
</g>
</g>
<!-- Node6&#45;&gt;Node34 -->
<g id="edge45_Node000006_Node000034" class="edge">
<title>Node6&#45;&gt;Node34</title>
<g id="a_edge45_Node000006_Node000034"><a xlink:title=" ">
<path fill="none" stroke="#63b8ff" d="M622.8,-311.32C603.27,-308.96 581.68,-306.36 561.88,-304 429.06,-288.18 391.91,-292.72 257.15,-268.27"/>
<polygon fill="#63b8ff" stroke="#63b8ff" points="257.94,-264.86 247.48,-266.49 256.68,-271.74 257.94,-264.86"/>
</a>
</g>
</g>
<!-- Node35 -->
<g id="Node000035" class="node">
<title>Node35</title>
<g id="a_Node000035"><a xlink:title=" ">
<polygon fill="#e0e0e0" stroke="#999999" points="415.75,-262 264,-262 264,-242 415.75,-242 415.75,-262"/>
<text xml:space="preserve" text-anchor="middle" x="339.88" y="-248.5" font-family="Helvetica,sans-Serif" font-size="10.00">boost/uuid/uuid_generators.hpp</text>
</a>
</g>
</g>
<!-- Node6&#45;&gt;Node35 -->
<g id="edge47_Node000006_Node000035" class="edge">
<title>Node6&#45;&gt;Node35</title>
<g id="a_edge47_Node000006_Node000035"><a xlink:title=" ">
<path fill="none" stroke="#63b8ff" d="M622.82,-306.97C559.69,-294.93 463.23,-276.53 400.85,-264.63"/>
<polygon fill="#63b8ff" stroke="#63b8ff" points="401.58,-261.21 391.1,-262.77 400.27,-268.08 401.58,-261.21"/>
</a>
</g>
</g>
<!-- Node36 -->
<g id="Node000036" class="node">
<title>Node36</title>
<g id="a_Node000036"><a xlink:title=" ">
<polygon fill="#e0e0e0" stroke="#999999" points="547.62,-262 434.12,-262 434.12,-242 547.62,-242 547.62,-262"/>
<text xml:space="preserve" text-anchor="middle" x="490.88" y="-248.5" font-family="Helvetica,sans-Serif" font-size="10.00">boost/uuid/uuid_io.hpp</text>
</a>
</g>
</g>
<!-- Node6&#45;&gt;Node36 -->
<g id="edge48_Node000006_Node000036" class="edge">
<title>Node6&#45;&gt;Node36</title>
<g id="a_edge48_Node000006_Node000036"><a xlink:title=" ">
<path fill="none" stroke="#63b8ff" d="M640.16,-303.53C606.52,-292.14 561.31,-276.84 529.48,-266.07"/>
<polygon fill="#63b8ff" stroke="#63b8ff" points="530.85,-262.84 520.26,-262.95 528.61,-269.47 530.85,-262.84"/>
</a>
</g>
</g>
<!-- Node37 -->
<g id="Node000037" class="node">
<title>Node37</title>
<g id="a_Node000037"><a xlink:title=" ">
<polygon fill="#e0e0e0" stroke="#999999" points="707.88,-262 565.88,-262 565.88,-242 707.88,-242 707.88,-262"/>
<text xml:space="preserve" text-anchor="middle" x="636.88" y="-248.5" font-family="Helvetica,sans-Serif" font-size="10.00">boost/uuid/uuid_serialize.hpp</text>
</a>
</g>
</g>
<!-- Node6&#45;&gt;Node37 -->
<g id="edge49_Node000006_Node000037" class="edge">
<title>Node6&#45;&gt;Node37</title>
<g id="a_edge49_Node000006_Node000037"><a xlink:title=" ">
<path fill="none" stroke="#63b8ff" d="M674.51,-303.69C667.39,-294.1 658.16,-281.67 650.62,-271.52"/>
<polygon fill="#63b8ff" stroke="#63b8ff" points="653.47,-269.47 644.69,-263.53 647.84,-273.65 653.47,-269.47"/>
</a>
</g>
</g>
<!-- Node8 -->
<g id="Node000008" class="node">
<title>Node8</title>
<g id="a_Node000008"><a xlink:href="model_2presistence_8hpp.html" target="_top" xlink:title=" ">
<polygon fill="white" stroke="#666666" points="1188.38,-200 1103.38,-200 1103.38,-180 1188.38,-180 1188.38,-200"/>
<text xml:space="preserve" text-anchor="middle" x="1145.88" y="-186.5" font-family="Helvetica,sans-Serif" font-size="10.00">presistence.hpp</text>
</a>
</g>
</g>
<!-- Node7&#45;&gt;Node8 -->
<g id="edge7_Node000007_Node000008" class="edge">
<title>Node7&#45;&gt;Node8</title>
<g id="a_edge7_Node000007_Node000008"><a xlink:title=" ">
<path fill="none" stroke="#63b8ff" d="M1101.16,-241.62C1108.98,-232.77 1120.91,-219.26 1130.48,-208.43"/>
<polygon fill="#63b8ff" stroke="#63b8ff" points="1132.83,-211.06 1136.82,-201.25 1127.58,-206.42 1132.83,-211.06"/>
</a>
</g>
</g>
<!-- Node10 -->
<g id="Node000010" class="node">
<title>Node10</title>
<g id="a_Node000010"><a xlink:title=" ">
<polygon fill="#e0e0e0" stroke="#999999" points="1649.25,-76 1554.5,-76 1554.5,-56 1649.25,-56 1649.25,-76"/>
<text xml:space="preserve" text-anchor="middle" x="1601.88" y="-62.5" font-family="Helvetica,sans-Serif" font-size="10.00">boost/pfr/core.hpp</text>
</a>
</g>
</g>
<!-- Node7&#45;&gt;Node10 -->
<g id="edge38_Node000007_Node000010" class="edge">
<title>Node7&#45;&gt;Node10</title>
<g id="a_edge38_Node000007_Node000010"><a xlink:title=" ">
<path fill="none" stroke="#63b8ff" d="M1122.62,-241.57C1129.26,-239.61 1136.28,-237.64 1142.88,-236 1346.04,-185.42 1472.07,-305.86 1604.88,-144 1617.84,-128.2 1614.26,-103.84 1609.27,-86.76"/>
<polygon fill="#63b8ff" stroke="#63b8ff" points="1612.74,-86.11 1606.25,-77.73 1606.1,-88.33 1612.74,-86.11"/>
</a>
</g>
</g>
<!-- Node11 -->
<g id="Node000011" class="node">
<title>Node11</title>
<g id="a_Node000011"><a xlink:title=" ">
<polygon fill="#e0e0e0" stroke="#999999" points="660.5,-76 621.25,-76 621.25,-56 660.5,-56 660.5,-76"/>
<text xml:space="preserve" text-anchor="middle" x="640.88" y="-62.5" font-family="Helvetica,sans-Serif" font-size="10.00">utility</text>
</a>
</g>
</g>
<!-- Node7&#45;&gt;Node11 -->
<g id="edge42_Node000007_Node000011" class="edge">
<title>Node7&#45;&gt;Node11</title>
<g id="a_edge42_Node000007_Node000011"><a xlink:title=" ">
<path fill="none" stroke="#63b8ff" d="M1047.69,-248.38C937.98,-240.92 662.84,-215.33 612.88,-144 600.19,-125.88 613.24,-101.37 625.45,-84.91"/>
<polygon fill="#63b8ff" stroke="#63b8ff" points="627.9,-87.45 631.39,-77.45 622.42,-83.09 627.9,-87.45"/>
</a>
</g>
</g>
<!-- Node23 -->
<g id="Node000023" class="node">
<title>Node23</title>
<g id="a_Node000023"><a xlink:href="concepts_8hpp.html" target="_top" xlink:title=" ">
<polygon fill="white" stroke="#666666" points="850.12,-200 775.62,-200 775.62,-180 850.12,-180 850.12,-200"/>
<text xml:space="preserve" text-anchor="middle" x="812.88" y="-186.5" font-family="Helvetica,sans-Serif" font-size="10.00">concepts.hpp</text>
</a>
</g>
</g>
<!-- Node7&#45;&gt;Node23 -->
<g id="edge23_Node000007_Node000023" class="edge">
<title>Node7&#45;&gt;Node23</title>
<g id="a_edge23_Node000007_Node000023"><a xlink:title=" ">
<path fill="none" stroke="#63b8ff" d="M1048.82,-241.56C997.88,-230.64 914.3,-212.73 861.5,-201.42"/>
<polygon fill="#63b8ff" stroke="#63b8ff" points="862.39,-198.03 851.88,-199.36 860.93,-204.88 862.39,-198.03"/>
</a>
</g>
</g>
<!-- Node24 -->
<g id="Node000024" class="node">
<title>Node24</title>
<g id="a_Node000024"><a xlink:href="reflection_8hpp.html" target="_top" xlink:title=" ">
<polygon fill="white" stroke="#666666" points="1779.25,-200 1678.5,-200 1678.5,-180 1779.25,-180 1779.25,-200"/>
<text xml:space="preserve" text-anchor="middle" x="1728.88" y="-186.5" font-family="Helvetica,sans-Serif" font-size="10.00">utility/reflection.hpp</text>
</a>
</g>
</g>
<!-- Node7&#45;&gt;Node24 -->
<g id="edge25_Node000007_Node000024" class="edge">
<title>Node7&#45;&gt;Node24</title>
<g id="a_edge25_Node000007_Node000024"><a xlink:title=" ">
<path fill="none" stroke="#63b8ff" d="M1125.74,-241.55C1134.19,-239.42 1143.32,-237.38 1151.88,-236 1372.69,-200.3 1431.21,-221.33 1653.88,-200 1658.04,-199.6 1662.32,-199.16 1666.64,-198.7"/>
<polygon fill="#63b8ff" stroke="#63b8ff" points="1667.02,-202.18 1676.57,-197.6 1666.25,-195.22 1667.02,-202.18"/>
</a>
</g>
</g>
<!-- Node26 -->
<g id="Node000026" class="node">
<title>Node26</title>
<g id="a_Node000026"><a xlink:title=" ">
<polygon fill="#e0e0e0" stroke="#999999" points="2066.88,-76 1942.88,-76 1942.88,-56 2066.88,-56 2066.88,-76"/>
<text xml:space="preserve" text-anchor="middle" x="2004.88" y="-62.5" font-family="Helvetica,sans-Serif" font-size="10.00">boost/pfr/core_name.hpp</text>
</a>
</g>
</g>
<!-- Node7&#45;&gt;Node26 -->
<g id="edge39_Node000007_Node000026" class="edge">
<title>Node7&#45;&gt;Node26</title>
<g id="a_edge39_Node000007_Node000026"><a xlink:title=" ">
<path fill="none" stroke="#63b8ff" d="M1120.1,-241.57C1127.42,-239.38 1135.38,-237.31 1142.88,-236 1425.67,-186.41 1507.06,-259.81 1787.88,-200 1856.25,-185.43 1877.11,-183.39 1934.88,-144 1958.33,-128 1979.37,-102.63 1992.12,-85.42"/>
<polygon fill="#63b8ff" stroke="#63b8ff" points="1994.75,-87.76 1997.74,-77.59 1989.06,-83.67 1994.75,-87.76"/>
</a>
</g>
</g>
<!-- Node31 -->
<g id="Node000031" class="node">
<title>Node31</title>
<g id="a_Node000031"><a xlink:title=" ">
<polygon fill="#e0e0e0" stroke="#999999" points="1085.75,-200 994,-200 994,-180 1085.75,-180 1085.75,-200"/>
<text xml:space="preserve" text-anchor="middle" x="1039.88" y="-186.5" font-family="Helvetica,sans-Serif" font-size="10.00">boost/pfr/ops.hpp</text>
</a>
</g>
</g>
<!-- Node7&#45;&gt;Node31 -->
<g id="edge40_Node000007_Node000031" class="edge">
<title>Node7&#45;&gt;Node31</title>
<g id="a_edge40_Node000007_Node000031"><a xlink:title=" ">
<path fill="none" stroke="#63b8ff" d="M1084.59,-241.62C1076.77,-232.77 1064.84,-219.26 1055.27,-208.43"/>
<polygon fill="#63b8ff" stroke="#63b8ff" points="1058.17,-206.42 1048.93,-201.25 1052.92,-211.06 1058.17,-206.42"/>
</a>
</g>
</g>
<!-- Node7&#45;&gt;Node32 -->
<g id="edge41_Node000007_Node000032" class="edge">
<title>Node7&#45;&gt;Node32</title>
<g id="a_edge41_Node000007_Node000032"><a xlink:title=" ">
<path fill="none" stroke="#63b8ff" d="M1125.1,-241.57C1133.72,-239.38 1143.1,-237.32 1151.88,-236 1478.4,-187.08 1565.17,-231.02 1893.88,-200 1894.56,-199.94 1895.24,-199.87 1895.93,-199.8"/>
<polygon fill="#63b8ff" stroke="#63b8ff" points="1896.21,-203.29 1905.77,-198.72 1895.44,-196.33 1896.21,-203.29"/>
</a>
</g>
</g>
<!-- Node9 -->
<g id="Node000009" class="node">
<title>Node9</title>
<g id="a_Node000009"><a xlink:href="model__base__concepts_8hpp.html" target="_top" xlink:title=" ">
<polygon fill="white" stroke="#666666" points="754,-138 621.75,-138 621.75,-118 754,-118 754,-138"/>
<text xml:space="preserve" text-anchor="middle" x="687.88" y="-124.5" font-family="Helvetica,sans-Serif" font-size="10.00">model_base_concepts.hpp</text>
</a>
</g>
</g>
<!-- Node8&#45;&gt;Node9 -->
<g id="edge8_Node000008_Node000009" class="edge">
<title>Node8&#45;&gt;Node9</title>
<g id="a_edge8_Node000008_Node000009"><a xlink:title=" ">
<path fill="none" stroke="#63b8ff" d="M1103.06,-181.23C1100.29,-180.79 1097.55,-180.38 1094.88,-180 947.93,-159.09 909.57,-166.58 762.88,-144 756.4,-143 749.64,-141.83 742.94,-140.6"/>
<polygon fill="#63b8ff" stroke="#63b8ff" points="743.74,-137.19 733.27,-138.75 742.43,-144.06 743.74,-137.19"/>
</a>
</g>
</g>
<!-- Node8&#45;&gt;Node10 -->
<g id="edge15_Node000008_Node000010" class="edge">
<title>Node8&#45;&gt;Node10</title>
<g id="a_edge15_Node000008_Node000010"><a xlink:title=" ">
<path fill="none" stroke="#63b8ff" d="M1188.63,-187.36C1292.81,-182.98 1553.49,-169.55 1582.88,-144 1598.76,-130.19 1602.45,-105.41 1602.84,-87.69"/>
<polygon fill="#63b8ff" stroke="#63b8ff" points="1606.34,-87.75 1602.7,-77.81 1599.34,-87.86 1606.34,-87.75"/>
</a>
</g>
</g>
<!-- Node12 -->
<g id="Node000012" class="node">
<title>Node12</title>
<g id="a_Node000012"><a xlink:href="str__conv_8hpp.html" target="_top" xlink:title=" ">
<polygon fill="white" stroke="#666666" points="1573.75,-138 1476,-138 1476,-118 1573.75,-118 1573.75,-138"/>
<text xml:space="preserve" text-anchor="middle" x="1524.88" y="-124.5" font-family="Helvetica,sans-Serif" font-size="10.00">utility/str_conv.hpp</text>
</a>
</g>
</g>
<!-- Node8&#45;&gt;Node12 -->
<g id="edge11_Node000008_Node000012" class="edge">
<title>Node8&#45;&gt;Node12</title>
<g id="a_edge11_Node000008_Node000012"><a xlink:title=" ">
<path fill="none" stroke="#63b8ff" d="M1188.71,-184.56C1250.5,-177.81 1368.08,-163.63 1466.88,-144 1471.17,-143.15 1475.62,-142.17 1480.06,-141.13"/>
<polygon fill="#63b8ff" stroke="#63b8ff" points="1480.63,-144.59 1489.51,-138.82 1478.97,-137.79 1480.63,-144.59"/>
</a>
</g>
</g>
<!-- Node15 -->
<g id="Node000015" class="node">
<title>Node15</title>
<g id="a_Node000015"><a xlink:title=" ">
<polygon fill="#e0e0e0" stroke="#999999" points="1345.5,-144 1240.25,-144 1240.25,-112 1345.5,-112 1345.5,-144"/>
<text xml:space="preserve" text-anchor="start" x="1248.25" y="-130.5" font-family="Helvetica,sans-Serif" font-size="10.00">boost/archive/basic</text>
<text xml:space="preserve" text-anchor="middle" x="1292.88" y="-118.5" font-family="Helvetica,sans-Serif" font-size="10.00">_binary_iarchive.hpp</text>
</a>
</g>
</g>
<!-- Node8&#45;&gt;Node15 -->
<g id="edge14_Node000008_Node000015" class="edge">
<title>Node8&#45;&gt;Node15</title>
<g id="a_edge14_Node000008_Node000015"><a xlink:title=" ">
<path fill="none" stroke="#63b8ff" d="M1168.84,-179.62C1188.98,-171.41 1218.93,-159.18 1244.35,-148.81"/>
<polygon fill="#63b8ff" stroke="#63b8ff" points="1245.59,-152.08 1253.52,-145.06 1242.94,-145.6 1245.59,-152.08"/>
</a>
</g>
</g>
<!-- Node8&#45;&gt;Node16 -->
<g id="edge16_Node000008_Node000016" class="edge">
<title>Node8&#45;&gt;Node16</title>
<g id="a_edge16_Node000008_Node000016"><a xlink:title=" ">
<path fill="none" stroke="#63b8ff" d="M1103.07,-181.13C1100.3,-180.72 1097.55,-180.34 1094.88,-180 881.72,-153.3 826.24,-168.95 612.88,-144 601.55,-142.68 589.5,-140.98 577.94,-139.2"/>
<polygon fill="#63b8ff" stroke="#63b8ff" points="578.51,-135.74 568.08,-137.64 577.42,-142.66 578.51,-135.74"/>
</a>
</g>
</g>
<!-- Node17 -->
<g id="Node000017" class="node">
<title>Node17</title>
<g id="a_Node000017"><a xlink:title=" ">
<polygon fill="#e0e0e0" stroke="#999999" points="1458.25,-144 1363.5,-144 1363.5,-112 1458.25,-112 1458.25,-144"/>
<text xml:space="preserve" text-anchor="start" x="1371.5" y="-130.5" font-family="Helvetica,sans-Serif" font-size="10.00">boost/serialization</text>
<text xml:space="preserve" text-anchor="middle" x="1410.88" y="-118.5" font-family="Helvetica,sans-Serif" font-size="10.00">/optional.hpp</text>
</a>
</g>
</g>
<!-- Node8&#45;&gt;Node17 -->
<g id="edge17_Node000008_Node000017" class="edge">
<title>Node8&#45;&gt;Node17</title>
<g id="a_edge17_Node000008_Node000017"><a xlink:title=" ">
<path fill="none" stroke="#63b8ff" d="M1188.85,-180.4C1228.8,-172.26 1290.23,-159.37 1352.11,-144.61"/>
<polygon fill="#63b8ff" stroke="#63b8ff" points="1352.88,-148.02 1361.79,-142.28 1351.24,-141.21 1352.88,-148.02"/>
</a>
</g>
</g>
<!-- Node18 -->
<g id="Node000018" class="node">
<title>Node18</title>
<g id="a_Node000018"><a xlink:title=" ">
<polygon fill="#e0e0e0" stroke="#999999" points="876.12,-144 771.62,-144 771.62,-112 876.12,-112 876.12,-144"/>
<text xml:space="preserve" text-anchor="start" x="779.62" y="-130.5" font-family="Helvetica,sans-Serif" font-size="10.00">boost/serialization</text>
<text xml:space="preserve" text-anchor="middle" x="823.88" y="-118.5" font-family="Helvetica,sans-Serif" font-size="10.00">/unordered_map.hpp</text>
</a>
</g>
</g>
<!-- Node8&#45;&gt;Node18 -->
<g id="edge18_Node000008_Node000018" class="edge">
<title>Node8&#45;&gt;Node18</title>
<g id="a_edge18_Node000008_Node000018"><a xlink:title=" ">
<path fill="none" stroke="#63b8ff" d="M1103.03,-181.42C1100.27,-180.94 1097.53,-180.46 1094.88,-180 1005.13,-164.39 979.51,-163.38 887.63,-144.5"/>
<polygon fill="#63b8ff" stroke="#63b8ff" points="888.38,-141.08 877.88,-142.47 886.96,-147.93 888.38,-141.08"/>
</a>
</g>
</g>
<!-- Node19 -->
<g id="Node000019" class="node">
<title>Node19</title>
<g id="a_Node000019"><a xlink:title=" ">
<polygon fill="#e0e0e0" stroke="#999999" points="993.5,-144 894.25,-144 894.25,-112 993.5,-112 993.5,-144"/>
<text xml:space="preserve" text-anchor="start" x="902.25" y="-130.5" font-family="Helvetica,sans-Serif" font-size="10.00">boost/serialization</text>
<text xml:space="preserve" text-anchor="middle" x="943.88" y="-118.5" font-family="Helvetica,sans-Serif" font-size="10.00">/unordered_set.hpp</text>
</a>
</g>
</g>
<!-- Node8&#45;&gt;Node19 -->
<g id="edge19_Node000008_Node000019" class="edge">
<title>Node8&#45;&gt;Node19</title>
<g id="a_edge19_Node000008_Node000019"><a xlink:title=" ">
<path fill="none" stroke="#63b8ff" d="M1114.31,-179.62C1085.05,-170.93 1040.71,-157.76 1004.6,-147.04"/>
<polygon fill="#63b8ff" stroke="#63b8ff" points="1005.71,-143.72 995.13,-144.22 1003.72,-150.43 1005.71,-143.72"/>
</a>
</g>
</g>
<!-- Node20 -->
<g id="Node000020" class="node">
<title>Node20</title>
<g id="a_Node000020"><a xlink:title=" ">
<polygon fill="#e0e0e0" stroke="#999999" points="1106.25,-144 1011.5,-144 1011.5,-112 1106.25,-112 1106.25,-144"/>
<text xml:space="preserve" text-anchor="start" x="1019.5" y="-130.5" font-family="Helvetica,sans-Serif" font-size="10.00">boost/serialization</text>
<text xml:space="preserve" text-anchor="middle" x="1058.88" y="-118.5" font-family="Helvetica,sans-Serif" font-size="10.00">/vector.hpp</text>
</a>
</g>
</g>
<!-- Node8&#45;&gt;Node20 -->
<g id="edge20_Node000008_Node000020" class="edge">
<title>Node8&#45;&gt;Node20</title>
<g id="a_edge20_Node000008_Node000020"><a xlink:title=" ">
<path fill="none" stroke="#63b8ff" d="M1132.28,-179.62C1121.07,-171.89 1104.72,-160.62 1090.29,-150.67"/>
<polygon fill="#63b8ff" stroke="#63b8ff" points="1092.63,-148.03 1082.41,-145.23 1088.66,-153.79 1092.63,-148.03"/>
</a>
</g>
</g>
<!-- Node21 -->
<g id="Node000021" class="node">
<title>Node21</title>
<g id="a_Node000021"><a xlink:title=" ">
<polygon fill="#e0e0e0" stroke="#999999" points="1167.75,-138 1124,-138 1124,-118 1167.75,-118 1167.75,-138"/>
<text xml:space="preserve" text-anchor="middle" x="1145.88" y="-124.5" font-family="Helvetica,sans-Serif" font-size="10.00">format</text>
</a>
</g>
</g>
<!-- Node8&#45;&gt;Node21 -->
<g id="edge21_Node000008_Node000021" class="edge">
<title>Node8&#45;&gt;Node21</title>
<g id="a_edge21_Node000008_Node000021"><a xlink:title=" ">
<path fill="none" stroke="#63b8ff" d="M1145.88,-179.62C1145.88,-171.56 1145.88,-159.65 1145.88,-149.41"/>
<polygon fill="#63b8ff" stroke="#63b8ff" points="1149.38,-149.63 1145.88,-139.63 1142.38,-149.63 1149.38,-149.63"/>
</a>
</g>
</g>
<!-- Node22 -->
<g id="Node000022" class="node">
<title>Node22</title>
<g id="a_Node000022"><a xlink:title=" ">
<polygon fill="#e0e0e0" stroke="#999999" points="1222.38,-138 1185.38,-138 1185.38,-118 1222.38,-118 1222.38,-138"/>
<text xml:space="preserve" text-anchor="middle" x="1203.88" y="-124.5" font-family="Helvetica,sans-Serif" font-size="10.00">tuple</text>
</a>
</g>
</g>
<!-- Node8&#45;&gt;Node22 -->
<g id="edge22_Node000008_Node000022" class="edge">
<title>Node8&#45;&gt;Node22</title>
<g id="a_edge22_Node000008_Node000022"><a xlink:title=" ">
<path fill="none" stroke="#63b8ff" d="M1154.94,-179.62C1163.59,-170.68 1176.82,-156.99 1187.34,-146.1"/>
<polygon fill="#63b8ff" stroke="#63b8ff" points="1189.58,-148.82 1194.01,-139.2 1184.55,-143.96 1189.58,-148.82"/>
</a>
</g>
</g>
<!-- Node9&#45;&gt;Node10 -->
<g id="edge9_Node000009_Node000010" class="edge">
<title>Node9&#45;&gt;Node10</title>
<g id="a_edge9_Node000009_Node000010"><a xlink:title=" ">
<path fill="none" stroke="#63b8ff" d="M729.35,-117.56C740.21,-115.4 751.94,-113.35 762.88,-112 1091.87,-71.38 1177.23,-99.8 1507.88,-76 1519.16,-75.19 1531.19,-74.16 1542.74,-73.09"/>
<polygon fill="#63b8ff" stroke="#63b8ff" points="1542.96,-76.59 1552.58,-72.16 1542.3,-69.62 1542.96,-76.59"/>
</a>
</g>
</g>
<!-- Node9&#45;&gt;Node11 -->
<g id="edge10_Node000009_Node000011" class="edge">
<title>Node9&#45;&gt;Node11</title>
<g id="a_edge10_Node000009_Node000011"><a xlink:title=" ">
<path fill="none" stroke="#63b8ff" d="M680.53,-117.62C673.73,-108.94 663.43,-95.8 655.04,-85.08"/>
<polygon fill="#63b8ff" stroke="#63b8ff" points="657.87,-83.02 648.95,-77.3 652.36,-87.33 657.87,-83.02"/>
</a>
</g>
</g>
<!-- Node13 -->
<g id="Node000013" class="node">
<title>Node13</title>
<g id="a_Node000013"><a xlink:title=" ">
<polygon fill="#e0e0e0" stroke="#999999" points="1498.88,-76 1458.88,-76 1458.88,-56 1498.88,-56 1498.88,-76"/>
<text xml:space="preserve" text-anchor="middle" x="1478.88" y="-62.5" font-family="Helvetica,sans-Serif" font-size="10.00">string</text>
</a>
</g>
</g>
<!-- Node12&#45;&gt;Node13 -->
<g id="edge12_Node000012_Node000013" class="edge">
<title>Node12&#45;&gt;Node13</title>
<g id="a_edge12_Node000012_Node000013"><a xlink:title=" ">
<path fill="none" stroke="#63b8ff" d="M1517.69,-117.62C1511.03,-108.94 1500.95,-95.8 1492.73,-85.08"/>
<polygon fill="#63b8ff" stroke="#63b8ff" points="1495.64,-83.12 1486.78,-77.31 1490.09,-87.38 1495.64,-83.12"/>
</a>
</g>
</g>
<!-- Node14 -->
<g id="Node000014" class="node">
<title>Node14</title>
<g id="a_Node000014"><a xlink:title=" ">
<polygon fill="#e0e0e0" stroke="#999999" points="1709.62,-20 1644.12,-20 1644.12,0 1709.62,0 1709.62,-20"/>
<text xml:space="preserve" text-anchor="middle" x="1676.88" y="-6.5" font-family="Helvetica,sans-Serif" font-size="10.00">string_view</text>
</a>
</g>
</g>
<!-- Node12&#45;&gt;Node14 -->
<g id="edge13_Node000012_Node000014" class="edge">
<title>Node12&#45;&gt;Node14</title>
<g id="a_edge13_Node000012_Node000014"><a xlink:title=" ">
<path fill="none" stroke="#63b8ff" d="M1525.02,-117.85C1525.75,-102.92 1529.34,-73.27 1545.88,-56 1568.53,-32.34 1604.17,-21.12 1632.56,-15.8"/>
<polygon fill="#63b8ff" stroke="#63b8ff" points="1633.05,-19.26 1642.34,-14.16 1631.9,-12.36 1633.05,-19.26"/>
</a>
</g>
</g>
<!-- Node23&#45;&gt;Node9 -->
<g id="edge24_Node000023_Node000009" class="edge">
<title>Node23&#45;&gt;Node9</title>
<g id="a_edge24_Node000023_Node000009"><a xlink:title=" ">
<path fill="none" stroke="#63b8ff" d="M793.34,-179.62C772.98,-169.85 740.82,-154.41 717.36,-143.15"/>
<polygon fill="#63b8ff" stroke="#63b8ff" points="719.16,-140.14 708.63,-138.96 716.13,-146.45 719.16,-140.14"/>
</a>
</g>
</g>
<!-- Node25 -->
<g id="Node000025" class="node">
<title>Node25</title>
<g id="a_Node000025"><a xlink:href="pfr__assign_8hpp.html" target="_top" xlink:title=" ">
<polygon fill="white" stroke="#666666" points="1790.12,-138 1667.62,-138 1667.62,-118 1790.12,-118 1790.12,-138"/>
<text xml:space="preserve" text-anchor="middle" x="1728.88" y="-124.5" font-family="Helvetica,sans-Serif" font-size="10.00">reflection/pfr_assign.hpp</text>
</a>
</g>
</g>
<!-- Node24&#45;&gt;Node25 -->
<g id="edge26_Node000024_Node000025" class="edge">
<title>Node24&#45;&gt;Node25</title>
<g id="a_edge26_Node000024_Node000025"><a xlink:title=" ">
<path fill="none" stroke="#63b8ff" d="M1728.88,-179.62C1728.88,-171.56 1728.88,-159.65 1728.88,-149.41"/>
<polygon fill="#63b8ff" stroke="#63b8ff" points="1732.38,-149.63 1728.88,-139.63 1725.38,-149.63 1732.38,-149.63"/>
</a>
</g>
</g>
<!-- Node29 -->
<g id="Node000029" class="node">
<title>Node29</title>
<g id="a_Node000029"><a xlink:href="reflection_2reflection_8hpp.html" target="_top" xlink:title=" ">
<polygon fill="white" stroke="#666666" points="1925.5,-138 1808.25,-138 1808.25,-118 1925.5,-118 1925.5,-138"/>
<text xml:space="preserve" text-anchor="middle" x="1866.88" y="-124.5" font-family="Helvetica,sans-Serif" font-size="10.00">reflection/reflection.hpp</text>
</a>
</g>
</g>
<!-- Node24&#45;&gt;Node29 -->
<g id="edge32_Node000024_Node000029" class="edge">
<title>Node24&#45;&gt;Node29</title>
<g id="a_edge32_Node000024_Node000029"><a xlink:title=" ">
<path fill="none" stroke="#63b8ff" d="M1750.44,-179.62C1773.12,-169.76 1809.07,-154.13 1835.02,-142.85"/>
<polygon fill="#63b8ff" stroke="#63b8ff" points="1836.3,-146.11 1844.08,-138.91 1833.51,-139.69 1836.3,-146.11"/>
</a>
</g>
</g>
<!-- Node25&#45;&gt;Node10 -->
<g id="edge27_Node000025_Node000010" class="edge">
<title>Node25&#45;&gt;Node10</title>
<g id="a_edge27_Node000025_Node000010"><a xlink:title=" ">
<path fill="none" stroke="#63b8ff" d="M1709.03,-117.62C1688.34,-107.85 1655.67,-92.41 1631.83,-81.15"/>
<polygon fill="#63b8ff" stroke="#63b8ff" points="1633.48,-78.06 1622.95,-76.96 1630.49,-84.39 1633.48,-78.06"/>
</a>
</g>
</g>
<!-- Node25&#45;&gt;Node14 -->
<g id="edge31_Node000025_Node000014" class="edge">
<title>Node25&#45;&gt;Node14</title>
<g id="a_edge31_Node000025_Node000014"><a xlink:title=" ">
<path fill="none" stroke="#63b8ff" d="M1721.67,-117.7C1714.31,-107.83 1702.99,-91.53 1695.88,-76 1689.27,-61.58 1684.35,-44.31 1681.18,-31.2"/>
<polygon fill="#63b8ff" stroke="#63b8ff" points="1684.63,-30.58 1679,-21.6 1677.8,-32.13 1684.63,-30.58"/>
</a>
</g>
</g>
<!-- Node25&#45;&gt;Node26 -->
<g id="edge28_Node000025_Node000026" class="edge">
<title>Node25&#45;&gt;Node26</title>
<g id="a_edge28_Node000025_Node000026"><a xlink:title=" ">
<path fill="none" stroke="#63b8ff" d="M1772.3,-117.56C1820.39,-107.11 1897.99,-90.24 1950.19,-78.89"/>
<polygon fill="#63b8ff" stroke="#63b8ff" points="1950.74,-82.35 1959.77,-76.81 1949.25,-75.51 1950.74,-82.35"/>
</a>
</g>
</g>
<!-- Node27 -->
<g id="Node000027" class="node">
<title>Node27</title>
<g id="a_Node000027"><a xlink:title=" ">
<polygon fill="#e0e0e0" stroke="#999999" points="1753,-76 1704.75,-76 1704.75,-56 1753,-56 1753,-76"/>
<text xml:space="preserve" text-anchor="middle" x="1728.88" y="-62.5" font-family="Helvetica,sans-Serif" font-size="10.00">cassert</text>
</a>
</g>
</g>
<!-- Node25&#45;&gt;Node27 -->
<g id="edge29_Node000025_Node000027" class="edge">
<title>Node25&#45;&gt;Node27</title>
<g id="a_edge29_Node000025_Node000027"><a xlink:title=" ">
<path fill="none" stroke="#63b8ff" d="M1728.88,-117.62C1728.88,-109.56 1728.88,-97.65 1728.88,-87.41"/>
<polygon fill="#63b8ff" stroke="#63b8ff" points="1732.38,-87.63 1728.88,-77.63 1725.38,-87.63 1732.38,-87.63"/>
</a>
</g>
</g>
<!-- Node28 -->
<g id="Node000028" class="node">
<title>Node28</title>
<g id="a_Node000028"><a xlink:title=" ">
<polygon fill="#e0e0e0" stroke="#999999" points="1896,-20 1847.75,-20 1847.75,0 1896,0 1896,-20"/>
<text xml:space="preserve" text-anchor="middle" x="1871.88" y="-6.5" font-family="Helvetica,sans-Serif" font-size="10.00">cstddef</text>
</a>
</g>
</g>
<!-- Node25&#45;&gt;Node28 -->
<g id="edge30_Node000025_Node000028" class="edge">
<title>Node25&#45;&gt;Node28</title>
<g id="a_edge30_Node000025_Node000028"><a xlink:title=" ">
<path fill="none" stroke="#63b8ff" d="M1768.51,-117.51C1815.4,-105.9 1888.12,-86.48 1895.88,-76 1906.24,-62 1897.19,-43.03 1887.38,-29.2"/>
<polygon fill="#63b8ff" stroke="#63b8ff" points="1890.2,-27.12 1881.3,-21.38 1884.68,-31.42 1890.2,-27.12"/>
</a>
</g>
</g>
<!-- Node29&#45;&gt;Node10 -->
<g id="edge36_Node000029_Node000010" class="edge">
<title>Node29&#45;&gt;Node10</title>
<g id="a_edge36_Node000029_Node000010"><a xlink:title=" ">
<path fill="none" stroke="#63b8ff" d="M1825.18,-117.56C1779.1,-107.13 1704.81,-90.31 1654.7,-78.96"/>
<polygon fill="#63b8ff" stroke="#63b8ff" points="1655.77,-75.61 1645.24,-76.82 1654.22,-82.44 1655.77,-75.61"/>
</a>
</g>
</g>
<!-- Node29&#45;&gt;Node26 -->
<g id="edge37_Node000029_Node000026" class="edge">
<title>Node29&#45;&gt;Node26</title>
<g id="a_edge37_Node000029_Node000026"><a xlink:title=" ">
<path fill="none" stroke="#63b8ff" d="M1888.44,-117.62C1911.12,-107.76 1947.07,-92.13 1973.02,-80.85"/>
<polygon fill="#63b8ff" stroke="#63b8ff" points="1974.3,-84.11 1982.08,-76.91 1971.51,-77.69 1974.3,-84.11"/>
</a>
</g>
</g>
<!-- Node30 -->
<g id="Node000030" class="node">
<title>Node30</title>
<g id="a_Node000030"><a xlink:href="constexpr__string_8hpp.html" target="_top" xlink:title=" ">
<polygon fill="white" stroke="#666666" points="1886.75,-76 1771,-76 1771,-56 1886.75,-56 1886.75,-76"/>
<text xml:space="preserve" text-anchor="middle" x="1828.88" y="-62.5" font-family="Helvetica,sans-Serif" font-size="10.00">../constexpr_string.hpp</text>
</a>
</g>
</g>
<!-- Node29&#45;&gt;Node30 -->
<g id="edge33_Node000029_Node000030" class="edge">
<title>Node29&#45;&gt;Node30</title>
<g id="a_edge33_Node000029_Node000030"><a xlink:title=" ">
<path fill="none" stroke="#63b8ff" d="M1860.94,-117.62C1855.55,-109.12 1847.45,-96.33 1840.74,-85.74"/>
<polygon fill="#63b8ff" stroke="#63b8ff" points="1843.76,-83.97 1835.46,-77.39 1837.85,-87.71 1843.76,-83.97"/>
</a>
</g>
</g>
<!-- Node30&#45;&gt;Node14 -->
<g id="edge35_Node000030_Node000014" class="edge">
<title>Node30&#45;&gt;Node14</title>
<g id="a_edge35_Node000030_Node000014"><a xlink:title=" ">
<path fill="none" stroke="#63b8ff" d="M1802.4,-55.59C1778.03,-46.94 1741.62,-34 1714.29,-24.29"/>
<polygon fill="#63b8ff" stroke="#63b8ff" points="1715.58,-21.04 1704.98,-20.99 1713.24,-27.63 1715.58,-21.04"/>
</a>
</g>
</g>
<!-- Node30&#45;&gt;Node28 -->
<g id="edge34_Node000030_Node000028" class="edge">
<title>Node30&#45;&gt;Node28</title>
<g id="a_edge34_Node000030_Node000028"><a xlink:title=" ">
<path fill="none" stroke="#63b8ff" d="M1836.37,-55.59C1842.16,-48.32 1850.36,-38.02 1857.42,-29.15"/>
<polygon fill="#63b8ff" stroke="#63b8ff" points="1860.04,-31.49 1863.53,-21.48 1854.56,-27.12 1860.04,-31.49"/>
</a>
</g>
</g>
<!-- Node38&#45;&gt;Node6 -->
<g id="edge51_Node000038_Node000006" class="edge">
<title>Node38&#45;&gt;Node6</title>
<g id="a_edge51_Node000038_Node000006"><a xlink:title=" ">
<path fill="none" stroke="#63b8ff" d="M725.81,-371.69C719.58,-363.78 711.83,-353.94 704.81,-345.04"/>
<polygon fill="#63b8ff" stroke="#63b8ff" points="707.74,-343.1 698.81,-337.41 702.25,-347.43 707.74,-343.1"/>
</a>
</g>
</g>
</g>
</svg>

<g id="navigator" transform="translate(0 0)" fill="#404254">
  <rect fill="#f2f5e9" fill-opacity="0.5" stroke="#606060" stroke-width=".5" x="0" y="0" width="60" height="60"/>
  <use id="zoomplus" xlink:href="#zoomPlus" x="17" y="9" onmousedown="handleZoom(evt,'in')"/>
  <use id="zoomminus" xlink:href="#zoomMin" x="42" y="9" onmousedown="handleZoom(evt,'out')"/>
  <use id="reset" xlink:href="#resetDef" x="30" y="36" onmousedown="handleReset()"/>
   <use id="arrowup" xlink:href="#arrowUp" x="0" y="0" onmousedown="handlePan(0,-1)"/>
  <use id="arrowright" xlink:href="#arrowRight" x="0" y="0" onmousedown="handlePan(1,0)"/>
  <use id="arrowdown" xlink:href="#arrowDown" x="0" y="0" onmousedown="handlePan(0,1)"/>
  <use id="arrowleft" xlink:href="#arrowLeft" x="0" y="0" onmousedown="handlePan(-1,0)"/>
</g>
<svg viewBox="0 0 15 15" width="100%" height="30px" preserveAspectRatio="xMaxYMin meet">
 <g id="arrow_out" transform="scale(0.3 0.3)">
  <a xlink:href="config__view__topic__type__traits_8hpp__incl_org.svg" target="_base">
   <rect id="button" ry="5" rx="5" y="6" x="6" height="38" width="38"
        fill="#f2f5e9" fill-opacity="0.5" stroke="#606060" stroke-width="1.0"/>
   <path id="arrow"
     d="M 11.500037,31.436501 C 11.940474,20.09759 22.043105,11.32322 32.158766,21.979434 L 37.068811,17.246167 C 37.068811,17.246167 37.088388,32 37.088388,32 L 22.160133,31.978069 C 22.160133,31.978069 26.997745,27.140456 26.997745,27.140456 C 18.528582,18.264221 13.291696,25.230495 11.500037,31.436501 z"
     style="fill:#404040;"/>
  </a>
 </g>
</svg>

<style type='text/css'>
<![CDATA[
[data-mouse-over-selected='false'] { opacity: 0.7; }
[data-mouse-over-selected='true']  { opacity: 1.0; }
]]>
</style>
<script type="application/ecmascript"><![CDATA[
document.addEventListener('DOMContentLoaded', (event) => {
  highlightEdges();
  highlightAdjacentNodes();
});
]]></script>
</svg>
