<?xml version="1.0" encoding="UTF-8" standalone="no"?>
<!DOCTYPE svg PUBLIC "-//W3C//DTD SVG 1.1//EN"
 "http://www.w3.org/Graphics/SVG/1.1/DTD/svg11.dtd">
<!-- Generated by graphviz version 14.1.2 (20260124.0452)
 -->
<!-- Title: depicture_menu/test/core/usecase/crud_repository_mock.hpp Pages: 1 -->
<!--zoomable 524 -->

<svg id="main" version="1.1" xmlns="http://www.w3.org/2000/svg" xmlns:xlink="http://www.w3.org/1999/xlink" xml:space="preserve" onload="init(evt)">

<style type="text/css"><![CDATA[
.node, .edge {opacity: 0.7;}
.node.selected, .edge.selected {opacity: 1;}
.edge:hover path { stroke: red; }
.edge:hover polygon { stroke: red; fill: red; }
]]></style>

<defs>
  <circle id="rim" cx="0" cy="0" r="7"/>
  <circle id="rim2" cx="0" cy="0" r="3.5"/>
  <g id="zoomPlus">
    <use xlink:href="#rim" fill="#404040"><set attributeName="fill" to="#808080" begin="zoomplus.mouseover" end="zoomplus.mouseout"/></use>
    <path d="M-4,0h8M0,-4v8" fill="none" stroke="white" stroke-width="1.5" pointer-events="none"/>
  </g>
  <g id="zoomMin">
    <use xlink:href="#rim" fill="#404040"><set attributeName="fill" to="#808080" begin="zoomminus.mouseover" end="zoomminus.mouseout"/></use>
    <path d="M-4,0h8" fill="none" stroke="white" stroke-width="1.5" pointer-events="none"/>
  </g>
  <g id="arrowUp" transform="translate(30 24)">
    <use xlink:href="#rim"/>
    <path pointer-events="none" fill="none" stroke="white" stroke-width="1.5" d="M0,-3.0v7 M-2.5,-0.5L0,-3.0L2.5,-0.5"/>
  </g>
  <g id="arrowRight" transform="rotate(90) translate(36 -43)">
    <use xlink:href="#rim"/>
    <path pointer-events="none" fill="none" stroke="white" stroke-width="1.5" d="M0,-3.0v7 M-2.5,-0.5L0,-3.0L2.5,-0.5"/>
  </g>
  <g id="arrowDown" transform="rotate(180) translate(-30 -48)">
    <use xlink:href="#rim"/>
    <path pointer-events="none" fill="none" stroke="white" stroke-width="1.5" d="M0,-3.0v7 M-2.5,-0.5L0,-3.0L2.5,-0.5"/>
  </g>
  <g id="arrowLeft" transform="rotate(270) translate(-36 17)">
    <use xlink:href="#rim"/>
    <path pointer-events="none" fill="none" stroke="white" stroke-width="1.5" d="M0,-3.0v7 M-2.5,-0.5L0,-3.0L2.5,-0.5"/>
  </g>
  <g id="resetDef">
    <use xlink:href="#rim2" fill="#404040"><set attributeName="fill" to="#808080" begin="reset.mouseover" end="reset.mouseout"/></use>
  </g>
</defs>
<script type="application/ecmascript">
var viewWidth = 1531;
var viewHeight = 524;
var sectionId = 'dynsection-0';
</script>
<script type="application/ecmascript" xlink:href="svg.min.js"/>
<svg id="graph" class="graph">
<g id="viewport">
<title>depicture_menu/test/core/usecase/crud_repository_mock.hpp</title>
<!-- Node1 -->
<g id="Node000001" class="node">
<title>Node1</title>
<g id="a_Node000001"><a xlink:title=" ">
<polygon fill="#999999" stroke="#666666" points="762.2,-516 614.95,-516 614.95,-472 762.2,-472 762.2,-516"/>
<text xml:space="preserve" text-anchor="start" x="622.95" y="-502.5" font-family="Helvetica,sans-Serif" font-size="10.00">depicture_menu/test</text>
<text xml:space="preserve" text-anchor="start" x="622.95" y="-490.5" font-family="Helvetica,sans-Serif" font-size="10.00">/core/usecase/crud_repository</text>
<text xml:space="preserve" text-anchor="middle" x="688.58" y="-478.5" font-family="Helvetica,sans-Serif" font-size="10.00">_mock.hpp</text>
</a>
</g>
</g>
<!-- Node2 -->
<g id="Node000002" class="node">
<title>Node2</title>
<g id="a_Node000002"><a xlink:href="crud__repository_8hpp.html" target="_top" xlink:title=" ">
<polygon fill="white" stroke="#666666" points="767.08,-436 610.08,-436 610.08,-416 767.08,-416 767.08,-436"/>
<text xml:space="preserve" text-anchor="middle" x="688.58" y="-422.5" font-family="Helvetica,sans-Serif" font-size="10.00">core/domain/crud_repository.hpp</text>
</a>
</g>
</g>
<!-- Node1&#45;&gt;Node2 -->
<g id="edge1_Node000001_Node000002" class="edge">
<title>Node1&#45;&gt;Node2</title>
<g id="a_edge1_Node000001_Node000002"><a xlink:title=" ">
<path fill="none" stroke="#63b8ff" d="M688.58,-471.75C688.58,-464.13 688.58,-455.53 688.58,-447.93"/>
<polygon fill="#63b8ff" stroke="#63b8ff" points="692.08,-447.93 688.58,-437.93 685.08,-447.93 692.08,-447.93"/>
</a>
</g>
</g>
<!-- Node37 -->
<g id="Node000037" class="node">
<title>Node37</title>
<g id="a_Node000037"><a xlink:href="entity_8hpp.html" target="_top" xlink:title=" ">
<polygon fill="white" stroke="#666666" points="591.7,-436 477.45,-436 477.45,-416 591.7,-416 591.7,-436"/>
<text xml:space="preserve" text-anchor="middle" x="534.58" y="-422.5" font-family="Helvetica,sans-Serif" font-size="10.00">core/domain/entity.hpp</text>
</a>
</g>
</g>
<!-- Node1&#45;&gt;Node37 -->
<g id="edge52_Node000001_Node000037" class="edge">
<title>Node1&#45;&gt;Node37</title>
<g id="a_edge52_Node000001_Node000037"><a xlink:title=" ">
<path fill="none" stroke="#63b8ff" d="M638.58,-471.57C615.06,-461.49 587.68,-449.76 566.92,-440.86"/>
<polygon fill="#63b8ff" stroke="#63b8ff" points="568.39,-437.68 557.82,-436.96 565.64,-444.12 568.39,-437.68"/>
</a>
</g>
</g>
<!-- Node38 -->
<g id="Node000038" class="node">
<title>Node38</title>
<g id="a_Node000038"><a xlink:title=" ">
<polygon fill="#e0e0e0" stroke="#999999" points="868.33,-436 784.83,-436 784.83,-416 868.33,-416 868.33,-436"/>
<text xml:space="preserve" text-anchor="middle" x="826.58" y="-422.5" font-family="Helvetica,sans-Serif" font-size="10.00">turtle/mock.hpp</text>
</a>
</g>
</g>
<!-- Node1&#45;&gt;Node38 -->
<g id="edge54_Node000001_Node000038" class="edge">
<title>Node1&#45;&gt;Node38</title>
<g id="a_edge54_Node000001_Node000038"><a xlink:title=" ">
<path fill="none" stroke="#63b8ff" d="M733.38,-471.57C754.17,-461.63 778.32,-450.08 796.82,-441.23"/>
<polygon fill="#63b8ff" stroke="#63b8ff" points="798.12,-444.49 805.63,-437.02 795.1,-438.18 798.12,-444.49"/>
</a>
</g>
</g>
<!-- Node3 -->
<g id="Node000003" class="node">
<title>Node3</title>
<g id="a_Node000003"><a xlink:href="model_2entity_8hpp.html" target="_top" xlink:title=" ">
<polygon fill="white" stroke="#666666" points="612.2,-380 524.95,-380 524.95,-360 612.2,-360 612.2,-380"/>
<text xml:space="preserve" text-anchor="middle" x="568.58" y="-366.5" font-family="Helvetica,sans-Serif" font-size="10.00">model/entity.hpp</text>
</a>
</g>
</g>
<!-- Node2&#45;&gt;Node3 -->
<g id="edge2_Node000002_Node000003" class="edge">
<title>Node2&#45;&gt;Node3</title>
<g id="a_edge2_Node000002_Node000003"><a xlink:title=" ">
<path fill="none" stroke="#63b8ff" d="M667.68,-415.59C648.95,-407.17 621.22,-394.69 599.86,-385.07"/>
<polygon fill="#63b8ff" stroke="#63b8ff" points="601.58,-382.01 591.03,-381.1 598.71,-388.4 601.58,-382.01"/>
</a>
</g>
</g>
<!-- Node36 -->
<g id="Node000036" class="node">
<title>Node36</title>
<g id="a_Node000036"><a xlink:title=" ">
<polygon fill="#e0e0e0" stroke="#999999" points="714.2,-380 662.95,-380 662.95,-360 714.2,-360 714.2,-380"/>
<text xml:space="preserve" text-anchor="middle" x="688.58" y="-366.5" font-family="Helvetica,sans-Serif" font-size="10.00">memory</text>
</a>
</g>
</g>
<!-- Node2&#45;&gt;Node36 -->
<g id="edge51_Node000002_Node000036" class="edge">
<title>Node2&#45;&gt;Node36</title>
<g id="a_edge51_Node000002_Node000036"><a xlink:title=" ">
<path fill="none" stroke="#63b8ff" d="M688.58,-415.59C688.58,-409.01 688.58,-399.96 688.58,-391.73"/>
<polygon fill="#63b8ff" stroke="#63b8ff" points="692.08,-391.81 688.58,-381.81 685.08,-391.81 692.08,-391.81"/>
</a>
</g>
</g>
<!-- Node4 -->
<g id="Node000004" class="node">
<title>Node4</title>
<g id="a_Node000004"><a xlink:href="concepts_8hpp.html" target="_top" xlink:title=" ">
<polygon fill="white" stroke="#666666" points="546.83,-200 472.33,-200 472.33,-180 546.83,-180 546.83,-200"/>
<text xml:space="preserve" text-anchor="middle" x="509.58" y="-186.5" font-family="Helvetica,sans-Serif" font-size="10.00">concepts.hpp</text>
</a>
</g>
</g>
<!-- Node3&#45;&gt;Node4 -->
<g id="edge3_Node000003_Node000004" class="edge">
<title>Node3&#45;&gt;Node4</title>
<g id="a_edge3_Node000003_Node000004"><a xlink:title=" ">
<path fill="none" stroke="#63b8ff" d="M566.49,-359.81C561.4,-337.98 547.55,-281.44 530.58,-236 527.42,-227.53 523.32,-218.46 519.59,-210.69"/>
<polygon fill="#63b8ff" stroke="#63b8ff" points="522.78,-209.23 515.21,-201.82 516.5,-212.34 522.78,-209.23"/>
</a>
</g>
</g>
<!-- Node8 -->
<g id="Node000008" class="node">
<title>Node8</title>
<g id="a_Node000008"><a xlink:href="model_2entity__id_8hpp.html" target="_top" xlink:title=" ">
<polygon fill="white" stroke="#666666" points="996.33,-324 924.83,-324 924.83,-304 996.33,-304 996.33,-324"/>
<text xml:space="preserve" text-anchor="middle" x="960.58" y="-310.5" font-family="Helvetica,sans-Serif" font-size="10.00">entity_id.hpp</text>
</a>
</g>
</g>
<!-- Node3&#45;&gt;Node8 -->
<g id="edge7_Node000003_Node000008" class="edge">
<title>Node3&#45;&gt;Node8</title>
<g id="a_edge7_Node000003_Node000008"><a xlink:title=" ">
<path fill="none" stroke="#63b8ff" d="M612.41,-362.96C686.71,-352.73 836.77,-332.05 913.33,-321.51"/>
<polygon fill="#63b8ff" stroke="#63b8ff" points="913.59,-325.01 923.02,-320.17 912.64,-318.07 913.59,-325.01"/>
</a>
</g>
</g>
<!-- Node9 -->
<g id="Node000009" class="node">
<title>Node9</title>
<g id="a_Node000009"><a xlink:href="model_2value__object_8hpp.html" target="_top" xlink:title=" ">
<polygon fill="white" stroke="#666666" points="521.33,-262 431.83,-262 431.83,-242 521.33,-242 521.33,-262"/>
<text xml:space="preserve" text-anchor="middle" x="476.58" y="-248.5" font-family="Helvetica,sans-Serif" font-size="10.00">value_object.hpp</text>
</a>
</g>
</g>
<!-- Node3&#45;&gt;Node9 -->
<g id="edge50_Node000003_Node000009" class="edge">
<title>Node3&#45;&gt;Node9</title>
<g id="a_edge50_Node000003_Node000009"><a xlink:title=" ">
<path fill="none" stroke="#63b8ff" d="M561.05,-359.51C545.75,-340.21 510.77,-296.11 490.96,-271.13"/>
<polygon fill="#63b8ff" stroke="#63b8ff" points="493.85,-269.15 484.9,-263.49 488.37,-273.5 493.85,-269.15"/>
</a>
</g>
</g>
<!-- Node10 -->
<g id="Node000010" class="node">
<title>Node10</title>
<g id="a_Node000010"><a xlink:href="model_2presistence_8hpp.html" target="_top" xlink:title=" ">
<polygon fill="white" stroke="#666666" points="845.08,-200 760.08,-200 760.08,-180 845.08,-180 845.08,-200"/>
<text xml:space="preserve" text-anchor="middle" x="802.58" y="-186.5" font-family="Helvetica,sans-Serif" font-size="10.00">presistence.hpp</text>
</a>
</g>
</g>
<!-- Node3&#45;&gt;Node10 -->
<g id="edge49_Node000003_Node000010" class="edge">
<title>Node3&#45;&gt;Node10</title>
<g id="a_edge49_Node000003_Node000010"><a xlink:title=" ">
<path fill="none" stroke="#63b8ff" d="M568.25,-359.66C567.95,-335.42 570.69,-270.05 606.58,-236 626.77,-216.84 697.84,-204.09 748.58,-197.2"/>
<polygon fill="#63b8ff" stroke="#63b8ff" points="748.75,-200.71 758.21,-195.93 747.84,-193.77 748.75,-200.71"/>
</a>
</g>
</g>
<!-- Node5 -->
<g id="Node000005" class="node">
<title>Node5</title>
<g id="a_Node000005"><a xlink:href="model__base__concepts_8hpp.html" target="_top" xlink:title=" ">
<polygon fill="white" stroke="#666666" points="512.7,-138 380.45,-138 380.45,-118 512.7,-118 512.7,-138"/>
<text xml:space="preserve" text-anchor="middle" x="446.58" y="-124.5" font-family="Helvetica,sans-Serif" font-size="10.00">model_base_concepts.hpp</text>
</a>
</g>
</g>
<!-- Node4&#45;&gt;Node5 -->
<g id="edge4_Node000004_Node000005" class="edge">
<title>Node4&#45;&gt;Node5</title>
<g id="a_edge4_Node000004_Node000005"><a xlink:title=" ">
<path fill="none" stroke="#63b8ff" d="M499.74,-179.62C490.25,-170.59 475.68,-156.72 464.2,-145.78"/>
<polygon fill="#63b8ff" stroke="#63b8ff" points="466.9,-143.52 457.24,-139.16 462.07,-148.59 466.9,-143.52"/>
</a>
</g>
</g>
<!-- Node6 -->
<g id="Node000006" class="node">
<title>Node6</title>
<g id="a_Node000006"><a xlink:title=" ">
<polygon fill="#e0e0e0" stroke="#999999" points="487.95,-76 393.2,-76 393.2,-56 487.95,-56 487.95,-76"/>
<text xml:space="preserve" text-anchor="middle" x="440.58" y="-62.5" font-family="Helvetica,sans-Serif" font-size="10.00">boost/pfr/core.hpp</text>
</a>
</g>
</g>
<!-- Node5&#45;&gt;Node6 -->
<g id="edge5_Node000005_Node000006" class="edge">
<title>Node5&#45;&gt;Node6</title>
<g id="a_edge5_Node000005_Node000006"><a xlink:title=" ">
<path fill="none" stroke="#63b8ff" d="M445.64,-117.62C444.84,-109.56 443.64,-97.65 442.62,-87.41"/>
<polygon fill="#63b8ff" stroke="#63b8ff" points="446.12,-87.22 441.64,-77.62 439.15,-87.92 446.12,-87.22"/>
</a>
</g>
</g>
<!-- Node7 -->
<g id="Node000007" class="node">
<title>Node7</title>
<g id="a_Node000007"><a xlink:title=" ">
<polygon fill="#e0e0e0" stroke="#999999" points="554.2,-76 514.95,-76 514.95,-56 554.2,-56 554.2,-76"/>
<text xml:space="preserve" text-anchor="middle" x="534.58" y="-62.5" font-family="Helvetica,sans-Serif" font-size="10.00">utility</text>
</a>
</g>
</g>
<!-- Node5&#45;&gt;Node7 -->
<g id="edge6_Node000005_Node000007" class="edge">
<title>Node5&#45;&gt;Node7</title>
<g id="a_edge6_Node000005_Node000007"><a xlink:title=" ">
<path fill="none" stroke="#63b8ff" d="M460.33,-117.62C474.02,-108.29 495.28,-93.79 511.55,-82.7"/>
<polygon fill="#63b8ff" stroke="#63b8ff" points="513.38,-85.69 519.68,-77.16 509.44,-79.9 513.38,-85.69"/>
</a>
</g>
</g>
<!-- Node8&#45;&gt;Node9 -->
<g id="edge8_Node000008_Node000009" class="edge">
<title>Node8&#45;&gt;Node9</title>
<g id="a_edge8_Node000008_Node000009"><a xlink:title=" ">
<path fill="none" stroke="#63b8ff" d="M924.6,-308.54C841.06,-298.18 633.46,-272.45 532.92,-259.98"/>
<polygon fill="#63b8ff" stroke="#63b8ff" points="533.65,-256.55 523.29,-258.79 532.79,-263.49 533.65,-256.55"/>
</a>
</g>
</g>
<!-- Node15 -->
<g id="Node000015" class="node">
<title>Node15</title>
<g id="a_Node000015"><a xlink:title=" ">
<polygon fill="#e0e0e0" stroke="#999999" points="1522.95,-144 1428.2,-144 1428.2,-112 1522.95,-112 1522.95,-144"/>
<text xml:space="preserve" text-anchor="start" x="1436.2" y="-130.5" font-family="Helvetica,sans-Serif" font-size="10.00">boost/serialization</text>
<text xml:space="preserve" text-anchor="middle" x="1475.58" y="-118.5" font-family="Helvetica,sans-Serif" font-size="10.00">/access.hpp</text>
</a>
</g>
</g>
<!-- Node8&#45;&gt;Node15 -->
<g id="edge43_Node000008_Node000015" class="edge">
<title>Node8&#45;&gt;Node15</title>
<g id="a_edge43_Node000008_Node000015"><a xlink:title=" ">
<path fill="none" stroke="#63b8ff" d="M996.67,-310C1045.14,-305.15 1133.39,-293.44 1204.58,-268 1232.3,-258.09 1236.53,-249.72 1262.58,-236 1321.6,-204.91 1390.75,-170.54 1433.87,-149.36"/>
<polygon fill="#63b8ff" stroke="#63b8ff" points="1435.19,-152.61 1442.63,-145.06 1432.11,-146.32 1435.19,-152.61"/>
</a>
</g>
</g>
<!-- Node30 -->
<g id="Node000030" class="node">
<title>Node30</title>
<g id="a_Node000030"><a xlink:title=" ">
<polygon fill="#e0e0e0" stroke="#999999" points="1089.95,-200 989.2,-200 989.2,-180 1089.95,-180 1089.95,-200"/>
<text xml:space="preserve" text-anchor="middle" x="1039.58" y="-186.5" font-family="Helvetica,sans-Serif" font-size="10.00">boost/uuid/uuid.hpp</text>
</a>
</g>
</g>
<!-- Node8&#45;&gt;Node30 -->
<g id="edge45_Node000008_Node000030" class="edge">
<title>Node8&#45;&gt;Node30</title>
<g id="a_edge45_Node000008_Node000030"><a xlink:title=" ">
<path fill="none" stroke="#63b8ff" d="M996.74,-311.2C1054.37,-307.48 1162.98,-296.76 1186.58,-268 1215.27,-233.04 1153.5,-212 1101.42,-200.96"/>
<polygon fill="#63b8ff" stroke="#63b8ff" points="1102.13,-197.53 1091.64,-198.98 1100.75,-204.39 1102.13,-197.53"/>
</a>
</g>
</g>
<!-- Node31 -->
<g id="Node000031" class="node">
<title>Node31</title>
<g id="a_Node000031"><a xlink:title=" ">
<polygon fill="#e0e0e0" stroke="#999999" points="1399.45,-262 1271.7,-262 1271.7,-242 1399.45,-242 1399.45,-262"/>
<text xml:space="preserve" text-anchor="middle" x="1335.58" y="-248.5" font-family="Helvetica,sans-Serif" font-size="10.00">boost/functional/hash.hpp</text>
</a>
</g>
</g>
<!-- Node8&#45;&gt;Node31 -->
<g id="edge42_Node000008_Node000031" class="edge">
<title>Node8&#45;&gt;Node31</title>
<g id="a_edge42_Node000008_Node000031"><a xlink:title=" ">
<path fill="none" stroke="#63b8ff" d="M996.77,-307.99C1052.78,-300.13 1163.78,-284.12 1257.58,-268 1263.94,-266.91 1270.57,-265.71 1277.17,-264.49"/>
<polygon fill="#63b8ff" stroke="#63b8ff" points="1277.53,-267.99 1286.71,-262.7 1276.24,-261.11 1277.53,-267.99"/>
</a>
</g>
</g>
<!-- Node32 -->
<g id="Node000032" class="node">
<title>Node32</title>
<g id="a_Node000032"><a xlink:title=" ">
<polygon fill="#e0e0e0" stroke="#999999" points="715.2,-268 615.95,-268 615.95,-236 715.2,-236 715.2,-268"/>
<text xml:space="preserve" text-anchor="start" x="623.95" y="-254.5" font-family="Helvetica,sans-Serif" font-size="10.00">boost/serialization</text>
<text xml:space="preserve" text-anchor="middle" x="665.58" y="-242.5" font-family="Helvetica,sans-Serif" font-size="10.00">/array_wrapper.hpp</text>
</a>
</g>
</g>
<!-- Node8&#45;&gt;Node32 -->
<g id="edge44_Node000008_Node000032" class="edge">
<title>Node8&#45;&gt;Node32</title>
<g id="a_edge44_Node000008_Node000032"><a xlink:title=" ">
<path fill="none" stroke="#63b8ff" d="M924.46,-306.81C880.21,-299.08 802.72,-285.05 726.63,-268.38"/>
<polygon fill="#63b8ff" stroke="#63b8ff" points="727.42,-264.97 716.9,-266.22 725.91,-271.8 727.42,-264.97"/>
</a>
</g>
</g>
<!-- Node33 -->
<g id="Node000033" class="node">
<title>Node33</title>
<g id="a_Node000033"><a xlink:title=" ">
<polygon fill="#e0e0e0" stroke="#999999" points="885.45,-262 733.7,-262 733.7,-242 885.45,-242 885.45,-262"/>
<text xml:space="preserve" text-anchor="middle" x="809.58" y="-248.5" font-family="Helvetica,sans-Serif" font-size="10.00">boost/uuid/uuid_generators.hpp</text>
</a>
</g>
</g>
<!-- Node8&#45;&gt;Node33 -->
<g id="edge46_Node000008_Node000033" class="edge">
<title>Node8&#45;&gt;Node33</title>
<g id="a_edge46_Node000008_Node000033"><a xlink:title=" ">
<path fill="none" stroke="#63b8ff" d="M936.99,-303.62C911.94,-293.67 872.13,-277.85 843.68,-266.55"/>
<polygon fill="#63b8ff" stroke="#63b8ff" points="845,-263.31 834.41,-262.87 842.41,-269.81 845,-263.31"/>
</a>
</g>
</g>
<!-- Node34 -->
<g id="Node000034" class="node">
<title>Node34</title>
<g id="a_Node000034"><a xlink:title=" ">
<polygon fill="#e0e0e0" stroke="#999999" points="1017.33,-262 903.83,-262 903.83,-242 1017.33,-242 1017.33,-262"/>
<text xml:space="preserve" text-anchor="middle" x="960.58" y="-248.5" font-family="Helvetica,sans-Serif" font-size="10.00">boost/uuid/uuid_io.hpp</text>
</a>
</g>
</g>
<!-- Node8&#45;&gt;Node34 -->
<g id="edge47_Node000008_Node000034" class="edge">
<title>Node8&#45;&gt;Node34</title>
<g id="a_edge47_Node000008_Node000034"><a xlink:title=" ">
<path fill="none" stroke="#63b8ff" d="M960.58,-303.62C960.58,-295.56 960.58,-283.65 960.58,-273.41"/>
<polygon fill="#63b8ff" stroke="#63b8ff" points="964.08,-273.63 960.58,-263.63 957.08,-273.63 964.08,-273.63"/>
</a>
</g>
</g>
<!-- Node35 -->
<g id="Node000035" class="node">
<title>Node35</title>
<g id="a_Node000035"><a xlink:title=" ">
<polygon fill="#e0e0e0" stroke="#999999" points="1177.58,-262 1035.58,-262 1035.58,-242 1177.58,-242 1177.58,-262"/>
<text xml:space="preserve" text-anchor="middle" x="1106.58" y="-248.5" font-family="Helvetica,sans-Serif" font-size="10.00">boost/uuid/uuid_serialize.hpp</text>
</a>
</g>
</g>
<!-- Node8&#45;&gt;Node35 -->
<g id="edge48_Node000008_Node000035" class="edge">
<title>Node8&#45;&gt;Node35</title>
<g id="a_edge48_Node000008_Node000035"><a xlink:title=" ">
<path fill="none" stroke="#63b8ff" d="M983.39,-303.62C1007.61,-293.67 1046.1,-277.85 1073.61,-266.55"/>
<polygon fill="#63b8ff" stroke="#63b8ff" points="1074.61,-269.92 1082.53,-262.88 1071.95,-263.45 1074.61,-269.92"/>
</a>
</g>
</g>
<!-- Node9&#45;&gt;Node4 -->
<g id="edge23_Node000009_Node000004" class="edge">
<title>Node9&#45;&gt;Node4</title>
<g id="a_edge23_Node000009_Node000004"><a xlink:title=" ">
<path fill="none" stroke="#63b8ff" d="M481.74,-241.62C486.36,-233.21 493.3,-220.6 499.09,-210.07"/>
<polygon fill="#63b8ff" stroke="#63b8ff" points="502.09,-211.89 503.84,-201.44 495.95,-208.51 502.09,-211.89"/>
</a>
</g>
</g>
<!-- Node9&#45;&gt;Node6 -->
<g id="edge37_Node000009_Node000006" class="edge">
<title>Node9&#45;&gt;Node6</title>
<g id="a_edge37_Node000009_Node000006"><a xlink:title=" ">
<path fill="none" stroke="#63b8ff" d="M471.51,-241.91C463.23,-227.59 445.67,-199.4 425.58,-180 404.83,-159.96 385.19,-169.43 371.58,-144 364.87,-131.46 364.81,-124.51 371.58,-112 378.78,-98.7 391.81,-88.71 404.61,-81.57"/>
<polygon fill="#63b8ff" stroke="#63b8ff" points="406.04,-84.77 413.37,-77.12 402.87,-78.53 406.04,-84.77"/>
</a>
</g>
</g>
<!-- Node9&#45;&gt;Node7 -->
<g id="edge41_Node000009_Node000007" class="edge">
<title>Node9&#45;&gt;Node7</title>
<g id="a_edge41_Node000009_Node000007"><a xlink:title=" ">
<path fill="none" stroke="#63b8ff" d="M503.42,-241.61C521.72,-233.63 544.57,-220.21 555.58,-200 575.44,-163.54 557.63,-113.64 544.86,-86.51"/>
<polygon fill="#63b8ff" stroke="#63b8ff" points="548.09,-85.13 540.5,-77.74 541.82,-88.25 548.09,-85.13"/>
</a>
</g>
</g>
<!-- Node9&#45;&gt;Node10 -->
<g id="edge9_Node000009_Node000010" class="edge">
<title>Node9&#45;&gt;Node10</title>
<g id="a_edge9_Node000009_Node000010"><a xlink:title=" ">
<path fill="none" stroke="#63b8ff" d="M521.57,-242.72C580.89,-231.8 685.15,-212.61 748.63,-200.93"/>
<polygon fill="#63b8ff" stroke="#63b8ff" points="748.92,-204.43 758.12,-199.18 747.65,-197.55 748.92,-204.43"/>
</a>
</g>
</g>
<!-- Node22 -->
<g id="Node000022" class="node">
<title>Node22</title>
<g id="a_Node000022"><a xlink:href="reflection_8hpp.html" target="_top" xlink:title=" ">
<polygon fill="white" stroke="#666666" points="306.95,-200 206.2,-200 206.2,-180 306.95,-180 306.95,-200"/>
<text xml:space="preserve" text-anchor="middle" x="256.58" y="-186.5" font-family="Helvetica,sans-Serif" font-size="10.00">utility/reflection.hpp</text>
</a>
</g>
</g>
<!-- Node9&#45;&gt;Node22 -->
<g id="edge24_Node000009_Node000022" class="edge">
<title>Node9&#45;&gt;Node22</title>
<g id="a_edge24_Node000009_Node000022"><a xlink:title=" ">
<path fill="none" stroke="#63b8ff" d="M442.2,-241.62C404.46,-231.33 343.68,-214.75 302.02,-203.39"/>
<polygon fill="#63b8ff" stroke="#63b8ff" points="303.1,-200.06 292.54,-200.81 301.26,-206.81 303.1,-200.06"/>
</a>
</g>
</g>
<!-- Node24 -->
<g id="Node000024" class="node">
<title>Node24</title>
<g id="a_Node000024"><a xlink:title=" ">
<polygon fill="#e0e0e0" stroke="#999999" points="241.58,-76 117.58,-76 117.58,-56 241.58,-56 241.58,-76"/>
<text xml:space="preserve" text-anchor="middle" x="179.58" y="-62.5" font-family="Helvetica,sans-Serif" font-size="10.00">boost/pfr/core_name.hpp</text>
</a>
</g>
</g>
<!-- Node9&#45;&gt;Node24 -->
<g id="edge38_Node000009_Node000024" class="edge">
<title>Node9&#45;&gt;Node24</title>
<g id="a_edge38_Node000009_Node000024"><a xlink:title=" ">
<path fill="none" stroke="#63b8ff" d="M431.36,-249.01C360.73,-244.91 229.03,-232.94 197.58,-200 168.71,-169.76 171.47,-116.56 175.7,-87.45"/>
<polygon fill="#63b8ff" stroke="#63b8ff" points="179.12,-88.2 177.33,-77.76 172.22,-87.04 179.12,-88.2"/>
</a>
</g>
</g>
<!-- Node29 -->
<g id="Node000029" class="node">
<title>Node29</title>
<g id="a_Node000029"><a xlink:title=" ">
<polygon fill="#e0e0e0" stroke="#999999" points="416.45,-200 324.7,-200 324.7,-180 416.45,-180 416.45,-200"/>
<text xml:space="preserve" text-anchor="middle" x="370.58" y="-186.5" font-family="Helvetica,sans-Serif" font-size="10.00">boost/pfr/ops.hpp</text>
</a>
</g>
</g>
<!-- Node9&#45;&gt;Node29 -->
<g id="edge39_Node000009_Node000029" class="edge">
<title>Node9&#45;&gt;Node29</title>
<g id="a_edge39_Node000009_Node000029"><a xlink:title=" ">
<path fill="none" stroke="#63b8ff" d="M460.02,-241.62C443.14,-232.07 416.7,-217.11 396.94,-205.92"/>
<polygon fill="#63b8ff" stroke="#63b8ff" points="398.77,-202.93 388.34,-201.05 395.32,-209.03 398.77,-202.93"/>
</a>
</g>
</g>
<!-- Node9&#45;&gt;Node30 -->
<g id="edge40_Node000009_Node000030" class="edge">
<title>Node9&#45;&gt;Node30</title>
<g id="a_edge40_Node000009_Node000030"><a xlink:title=" ">
<path fill="none" stroke="#63b8ff" d="M521.69,-245.67C546.69,-242.74 578.35,-239.1 606.58,-236 738.61,-221.52 893.41,-205.72 977.51,-197.23"/>
<polygon fill="#63b8ff" stroke="#63b8ff" points="977.79,-200.72 987.39,-196.23 977.09,-193.75 977.79,-200.72"/>
</a>
</g>
</g>
<!-- Node10&#45;&gt;Node5 -->
<g id="edge10_Node000010_Node000005" class="edge">
<title>Node10&#45;&gt;Node5</title>
<g id="a_edge10_Node000010_Node000005"><a xlink:title=" ">
<path fill="none" stroke="#63b8ff" d="M759.97,-182.37C705.71,-173.86 609.07,-158.46 526.58,-144 520.25,-142.89 513.64,-141.7 507.06,-140.5"/>
<polygon fill="#63b8ff" stroke="#63b8ff" points="508.01,-137.11 497.54,-138.74 506.74,-144 508.01,-137.11"/>
</a>
</g>
</g>
<!-- Node10&#45;&gt;Node6 -->
<g id="edge15_Node000010_Node000006" class="edge">
<title>Node10&#45;&gt;Node6</title>
<g id="a_edge15_Node000010_Node000006"><a xlink:title=" ">
<path fill="none" stroke="#63b8ff" d="M759.75,-182.68C717.69,-175.76 652.1,-163.04 597.58,-144 549.38,-127.17 496.75,-99.22 466.32,-82.03"/>
<polygon fill="#63b8ff" stroke="#63b8ff" points="468.25,-79.1 457.84,-77.18 464.78,-85.18 468.25,-79.1"/>
</a>
</g>
</g>
<!-- Node11 -->
<g id="Node000011" class="node">
<title>Node11</title>
<g id="a_Node000011"><a xlink:href="str__conv_8hpp.html" target="_top" xlink:title=" ">
<polygon fill="white" stroke="#666666" points="704.45,-138 606.7,-138 606.7,-118 704.45,-118 704.45,-138"/>
<text xml:space="preserve" text-anchor="middle" x="655.58" y="-124.5" font-family="Helvetica,sans-Serif" font-size="10.00">utility/str_conv.hpp</text>
</a>
</g>
</g>
<!-- Node10&#45;&gt;Node11 -->
<g id="edge11_Node000010_Node000011" class="edge">
<title>Node10&#45;&gt;Node11</title>
<g id="a_edge11_Node000010_Node000011"><a xlink:title=" ">
<path fill="none" stroke="#63b8ff" d="M779.61,-179.62C755.23,-169.67 716.47,-153.85 688.77,-142.55"/>
<polygon fill="#63b8ff" stroke="#63b8ff" points="690.37,-139.42 679.79,-138.88 687.72,-145.9 690.37,-139.42"/>
</a>
</g>
</g>
<!-- Node14 -->
<g id="Node000014" class="node">
<title>Node14</title>
<g id="a_Node000014"><a xlink:title=" ">
<polygon fill="#e0e0e0" stroke="#999999" points="944.2,-144 838.95,-144 838.95,-112 944.2,-112 944.2,-144"/>
<text xml:space="preserve" text-anchor="start" x="846.95" y="-130.5" font-family="Helvetica,sans-Serif" font-size="10.00">boost/archive/basic</text>
<text xml:space="preserve" text-anchor="middle" x="891.58" y="-118.5" font-family="Helvetica,sans-Serif" font-size="10.00">_binary_iarchive.hpp</text>
</a>
</g>
</g>
<!-- Node10&#45;&gt;Node14 -->
<g id="edge14_Node000010_Node000014" class="edge">
<title>Node10&#45;&gt;Node14</title>
<g id="a_edge14_Node000010_Node000014"><a xlink:title=" ">
<path fill="none" stroke="#63b8ff" d="M816.49,-179.62C827.96,-171.89 844.68,-160.62 859.44,-150.67"/>
<polygon fill="#63b8ff" stroke="#63b8ff" points="861.19,-153.71 867.52,-145.22 857.27,-147.91 861.19,-153.71"/>
</a>
</g>
</g>
<!-- Node10&#45;&gt;Node15 -->
<g id="edge16_Node000010_Node000015" class="edge">
<title>Node10&#45;&gt;Node15</title>
<g id="a_edge16_Node000010_Node000015"><a xlink:title=" ">
<path fill="none" stroke="#63b8ff" d="M845.2,-186.91C962.25,-181.02 1287.94,-163.53 1416.71,-144.02"/>
<polygon fill="#63b8ff" stroke="#63b8ff" points="1417.01,-147.52 1426.33,-142.49 1415.9,-140.61 1417.01,-147.52"/>
</a>
</g>
</g>
<!-- Node16 -->
<g id="Node000016" class="node">
<title>Node16</title>
<g id="a_Node000016"><a xlink:title=" ">
<polygon fill="#e0e0e0" stroke="#999999" points="1056.95,-144 962.2,-144 962.2,-112 1056.95,-112 1056.95,-144"/>
<text xml:space="preserve" text-anchor="start" x="970.2" y="-130.5" font-family="Helvetica,sans-Serif" font-size="10.00">boost/serialization</text>
<text xml:space="preserve" text-anchor="middle" x="1009.58" y="-118.5" font-family="Helvetica,sans-Serif" font-size="10.00">/optional.hpp</text>
</a>
</g>
</g>
<!-- Node10&#45;&gt;Node16 -->
<g id="edge17_Node000010_Node000016" class="edge">
<title>Node10&#45;&gt;Node16</title>
<g id="a_edge17_Node000010_Node000016"><a xlink:title=" ">
<path fill="none" stroke="#63b8ff" d="M834.92,-179.62C865.97,-170.63 913.58,-156.83 951.25,-145.91"/>
<polygon fill="#63b8ff" stroke="#63b8ff" points="952.01,-149.33 960.64,-143.19 950.06,-142.61 952.01,-149.33"/>
</a>
</g>
</g>
<!-- Node17 -->
<g id="Node000017" class="node">
<title>Node17</title>
<g id="a_Node000017"><a xlink:title=" ">
<polygon fill="#e0e0e0" stroke="#999999" points="1179.83,-144 1075.33,-144 1075.33,-112 1179.83,-112 1179.83,-144"/>
<text xml:space="preserve" text-anchor="start" x="1083.33" y="-130.5" font-family="Helvetica,sans-Serif" font-size="10.00">boost/serialization</text>
<text xml:space="preserve" text-anchor="middle" x="1127.58" y="-118.5" font-family="Helvetica,sans-Serif" font-size="10.00">/unordered_map.hpp</text>
</a>
</g>
</g>
<!-- Node10&#45;&gt;Node17 -->
<g id="edge18_Node000010_Node000017" class="edge">
<title>Node10&#45;&gt;Node17</title>
<g id="a_edge18_Node000010_Node000017"><a xlink:title=" ">
<path fill="none" stroke="#63b8ff" d="M845.57,-182.56C895.54,-174.88 980.73,-161.15 1063.71,-144.3"/>
<polygon fill="#63b8ff" stroke="#63b8ff" points="1064.29,-147.75 1073.39,-142.31 1062.89,-140.89 1064.29,-147.75"/>
</a>
</g>
</g>
<!-- Node18 -->
<g id="Node000018" class="node">
<title>Node18</title>
<g id="a_Node000018"><a xlink:title=" ">
<polygon fill="#e0e0e0" stroke="#999999" points="1297.2,-144 1197.95,-144 1197.95,-112 1297.2,-112 1297.2,-144"/>
<text xml:space="preserve" text-anchor="start" x="1205.95" y="-130.5" font-family="Helvetica,sans-Serif" font-size="10.00">boost/serialization</text>
<text xml:space="preserve" text-anchor="middle" x="1247.58" y="-118.5" font-family="Helvetica,sans-Serif" font-size="10.00">/unordered_set.hpp</text>
</a>
</g>
</g>
<!-- Node10&#45;&gt;Node18 -->
<g id="edge19_Node000010_Node000018" class="edge">
<title>Node10&#45;&gt;Node18</title>
<g id="a_edge19_Node000010_Node000018"><a xlink:title=" ">
<path fill="none" stroke="#63b8ff" d="M845.41,-185.88C914.9,-180.41 1056.68,-167.56 1186.18,-144.28"/>
<polygon fill="#63b8ff" stroke="#63b8ff" points="1186.77,-147.73 1195.98,-142.49 1185.51,-140.85 1186.77,-147.73"/>
</a>
</g>
</g>
<!-- Node19 -->
<g id="Node000019" class="node">
<title>Node19</title>
<g id="a_Node000019"><a xlink:title=" ">
<polygon fill="#e0e0e0" stroke="#999999" points="1409.95,-144 1315.2,-144 1315.2,-112 1409.95,-112 1409.95,-144"/>
<text xml:space="preserve" text-anchor="start" x="1323.2" y="-130.5" font-family="Helvetica,sans-Serif" font-size="10.00">boost/serialization</text>
<text xml:space="preserve" text-anchor="middle" x="1362.58" y="-118.5" font-family="Helvetica,sans-Serif" font-size="10.00">/vector.hpp</text>
</a>
</g>
</g>
<!-- Node10&#45;&gt;Node19 -->
<g id="edge20_Node000010_Node000019" class="edge">
<title>Node10&#45;&gt;Node19</title>
<g id="a_edge20_Node000010_Node000019"><a xlink:title=" ">
<path fill="none" stroke="#63b8ff" d="M845.21,-186.15C946.25,-179.23 1199.07,-161.03 1303.62,-144.27"/>
<polygon fill="#63b8ff" stroke="#63b8ff" points="1303.97,-147.77 1313.25,-142.65 1302.8,-140.86 1303.97,-147.77"/>
</a>
</g>
</g>
<!-- Node20 -->
<g id="Node000020" class="node">
<title>Node20</title>
<g id="a_Node000020"><a xlink:title=" ">
<polygon fill="#e0e0e0" stroke="#999999" points="766.45,-138 722.7,-138 722.7,-118 766.45,-118 766.45,-138"/>
<text xml:space="preserve" text-anchor="middle" x="744.58" y="-124.5" font-family="Helvetica,sans-Serif" font-size="10.00">format</text>
</a>
</g>
</g>
<!-- Node10&#45;&gt;Node20 -->
<g id="edge21_Node000010_Node000020" class="edge">
<title>Node10&#45;&gt;Node20</title>
<g id="a_edge21_Node000010_Node000020"><a xlink:title=" ">
<path fill="none" stroke="#63b8ff" d="M793.52,-179.62C784.87,-170.68 771.64,-156.99 761.11,-146.1"/>
<polygon fill="#63b8ff" stroke="#63b8ff" points="763.91,-143.96 754.44,-139.2 758.87,-148.82 763.91,-143.96"/>
</a>
</g>
</g>
<!-- Node21 -->
<g id="Node000021" class="node">
<title>Node21</title>
<g id="a_Node000021"><a xlink:title=" ">
<polygon fill="#e0e0e0" stroke="#999999" points="821.08,-138 784.08,-138 784.08,-118 821.08,-118 821.08,-138"/>
<text xml:space="preserve" text-anchor="middle" x="802.58" y="-124.5" font-family="Helvetica,sans-Serif" font-size="10.00">tuple</text>
</a>
</g>
</g>
<!-- Node10&#45;&gt;Node21 -->
<g id="edge22_Node000010_Node000021" class="edge">
<title>Node10&#45;&gt;Node21</title>
<g id="a_edge22_Node000010_Node000021"><a xlink:title=" ">
<path fill="none" stroke="#63b8ff" d="M802.58,-179.62C802.58,-171.56 802.58,-159.65 802.58,-149.41"/>
<polygon fill="#63b8ff" stroke="#63b8ff" points="806.08,-149.63 802.58,-139.63 799.08,-149.63 806.08,-149.63"/>
</a>
</g>
</g>
<!-- Node12 -->
<g id="Node000012" class="node">
<title>Node12</title>
<g id="a_Node000012"><a xlink:title=" ">
<polygon fill="#e0e0e0" stroke="#999999" points="675.58,-76 635.58,-76 635.58,-56 675.58,-56 675.58,-76"/>
<text xml:space="preserve" text-anchor="middle" x="655.58" y="-62.5" font-family="Helvetica,sans-Serif" font-size="10.00">string</text>
</a>
</g>
</g>
<!-- Node11&#45;&gt;Node12 -->
<g id="edge12_Node000011_Node000012" class="edge">
<title>Node11&#45;&gt;Node12</title>
<g id="a_edge12_Node000011_Node000012"><a xlink:title=" ">
<path fill="none" stroke="#63b8ff" d="M655.58,-117.62C655.58,-109.56 655.58,-97.65 655.58,-87.41"/>
<polygon fill="#63b8ff" stroke="#63b8ff" points="659.08,-87.63 655.58,-77.63 652.08,-87.63 659.08,-87.63"/>
</a>
</g>
</g>
<!-- Node13 -->
<g id="Node000013" class="node">
<title>Node13</title>
<g id="a_Node000013"><a xlink:title=" ">
<polygon fill="#e0e0e0" stroke="#999999" points="350.33,-20 284.83,-20 284.83,0 350.33,0 350.33,-20"/>
<text xml:space="preserve" text-anchor="middle" x="317.58" y="-6.5" font-family="Helvetica,sans-Serif" font-size="10.00">string_view</text>
</a>
</g>
</g>
<!-- Node11&#45;&gt;Node13 -->
<g id="edge13_Node000011_Node000013" class="edge">
<title>Node11&#45;&gt;Node13</title>
<g id="a_edge13_Node000011_Node000013"><a xlink:title=" ">
<path fill="none" stroke="#63b8ff" d="M646.89,-117.9C631.6,-102.49 598.23,-71.44 563.58,-56 497.17,-26.41 412.38,-16.28 361.67,-12.81"/>
<polygon fill="#63b8ff" stroke="#63b8ff" points="362.18,-9.33 351.98,-12.21 361.74,-16.32 362.18,-9.33"/>
</a>
</g>
</g>
<!-- Node23 -->
<g id="Node000023" class="node">
<title>Node23</title>
<g id="a_Node000023"><a xlink:href="pfr__assign_8hpp.html" target="_top" xlink:title=" ">
<polygon fill="white" stroke="#666666" points="150.83,-138 28.33,-138 28.33,-118 150.83,-118 150.83,-138"/>
<text xml:space="preserve" text-anchor="middle" x="89.58" y="-124.5" font-family="Helvetica,sans-Serif" font-size="10.00">reflection/pfr_assign.hpp</text>
</a>
</g>
</g>
<!-- Node22&#45;&gt;Node23 -->
<g id="edge25_Node000022_Node000023" class="edge">
<title>Node22&#45;&gt;Node23</title>
<g id="a_edge25_Node000022_Node000023"><a xlink:title=" ">
<path fill="none" stroke="#63b8ff" d="M230.49,-179.62C202.5,-169.57 157.85,-153.53 126.32,-142.2"/>
<polygon fill="#63b8ff" stroke="#63b8ff" points="127.78,-139.01 117.19,-138.92 125.42,-145.59 127.78,-139.01"/>
</a>
</g>
</g>
<!-- Node27 -->
<g id="Node000027" class="node">
<title>Node27</title>
<g id="a_Node000027"><a xlink:href="reflection_2reflection_8hpp.html" target="_top" xlink:title=" ">
<polygon fill="white" stroke="#666666" points="324.2,-138 206.95,-138 206.95,-118 324.2,-118 324.2,-138"/>
<text xml:space="preserve" text-anchor="middle" x="265.58" y="-124.5" font-family="Helvetica,sans-Serif" font-size="10.00">reflection/reflection.hpp</text>
</a>
</g>
</g>
<!-- Node22&#45;&gt;Node27 -->
<g id="edge31_Node000022_Node000027" class="edge">
<title>Node22&#45;&gt;Node27</title>
<g id="a_edge31_Node000022_Node000027"><a xlink:title=" ">
<path fill="none" stroke="#63b8ff" d="M257.99,-179.62C259.19,-171.56 260.98,-159.65 262.52,-149.41"/>
<polygon fill="#63b8ff" stroke="#63b8ff" points="265.97,-150.02 263.99,-139.61 259.04,-148.98 265.97,-150.02"/>
</a>
</g>
</g>
<!-- Node23&#45;&gt;Node6 -->
<g id="edge26_Node000023_Node000006" class="edge">
<title>Node23&#45;&gt;Node6</title>
<g id="a_edge26_Node000023_Node000006"><a xlink:title=" ">
<path fill="none" stroke="#63b8ff" d="M144.81,-117.56C209.32,-106.53 315.62,-88.36 381.67,-77.07"/>
<polygon fill="#63b8ff" stroke="#63b8ff" points="381.96,-80.57 391.22,-75.44 380.78,-73.67 381.96,-80.57"/>
</a>
</g>
</g>
<!-- Node23&#45;&gt;Node13 -->
<g id="edge30_Node000023_Node000013" class="edge">
<title>Node23&#45;&gt;Node13</title>
<g id="a_edge30_Node000023_Node000013"><a xlink:title=" ">
<path fill="none" stroke="#63b8ff" d="M89.21,-117.65C89.15,-102.43 91.39,-72.36 108.58,-56 131.81,-33.89 218.92,-21.12 273.08,-15.16"/>
<polygon fill="#63b8ff" stroke="#63b8ff" points="273.35,-18.65 282.93,-14.12 272.61,-11.69 273.35,-18.65"/>
</a>
</g>
</g>
<!-- Node23&#45;&gt;Node24 -->
<g id="edge27_Node000023_Node000024" class="edge">
<title>Node23&#45;&gt;Node24</title>
<g id="a_edge27_Node000023_Node000024"><a xlink:title=" ">
<path fill="none" stroke="#63b8ff" d="M103.64,-117.62C117.78,-108.2 139.8,-93.52 156.5,-82.39"/>
<polygon fill="#63b8ff" stroke="#63b8ff" points="157.98,-85.61 164.36,-77.15 154.09,-79.78 157.98,-85.61"/>
</a>
</g>
</g>
<!-- Node25 -->
<g id="Node000025" class="node">
<title>Node25</title>
<g id="a_Node000025"><a xlink:title=" ">
<polygon fill="#e0e0e0" stroke="#999999" points="61.7,-76 13.45,-76 13.45,-56 61.7,-56 61.7,-76"/>
<text xml:space="preserve" text-anchor="middle" x="37.58" y="-62.5" font-family="Helvetica,sans-Serif" font-size="10.00">cassert</text>
</a>
</g>
</g>
<!-- Node23&#45;&gt;Node25 -->
<g id="edge28_Node000023_Node000025" class="edge">
<title>Node23&#45;&gt;Node25</title>
<g id="a_edge28_Node000023_Node000025"><a xlink:title=" ">
<path fill="none" stroke="#63b8ff" d="M81.45,-117.62C73.85,-108.86 62.31,-95.53 52.96,-84.75"/>
<polygon fill="#63b8ff" stroke="#63b8ff" points="55.66,-82.52 46.47,-77.26 50.37,-87.11 55.66,-82.52"/>
</a>
</g>
</g>
<!-- Node26 -->
<g id="Node000026" class="node">
<title>Node26</title>
<g id="a_Node000026"><a xlink:title=" ">
<polygon fill="#e0e0e0" stroke="#999999" points="138.7,-20 90.45,-20 90.45,0 138.7,0 138.7,-20"/>
<text xml:space="preserve" text-anchor="middle" x="114.58" y="-6.5" font-family="Helvetica,sans-Serif" font-size="10.00">cstddef</text>
</a>
</g>
</g>
<!-- Node23&#45;&gt;Node26 -->
<g id="edge29_Node000023_Node000026" class="edge">
<title>Node23&#45;&gt;Node26</title>
<g id="a_edge29_Node000023_Node000026"><a xlink:title=" ">
<path fill="none" stroke="#63b8ff" d="M61.08,-117.53C29.82,-105.54 -13.64,-83.14 4.58,-56 21.04,-31.49 53.46,-20.32 78.86,-15.23"/>
<polygon fill="#63b8ff" stroke="#63b8ff" points="79.21,-18.73 88.47,-13.56 78.01,-11.83 79.21,-18.73"/>
</a>
</g>
</g>
<!-- Node27&#45;&gt;Node6 -->
<g id="edge35_Node000027_Node000006" class="edge">
<title>Node27&#45;&gt;Node6</title>
<g id="a_edge35_Node000027_Node000006"><a xlink:title=" ">
<path fill="none" stroke="#63b8ff" d="M292.92,-117.62C322.37,-107.53 369.45,-91.39 402.51,-80.05"/>
<polygon fill="#63b8ff" stroke="#63b8ff" points="403.38,-83.45 411.71,-76.9 401.11,-76.83 403.38,-83.45"/>
</a>
</g>
</g>
<!-- Node27&#45;&gt;Node24 -->
<g id="edge36_Node000027_Node000024" class="edge">
<title>Node27&#45;&gt;Node24</title>
<g id="a_edge36_Node000027_Node000024"><a xlink:title=" ">
<path fill="none" stroke="#63b8ff" d="M252.14,-117.62C238.76,-108.29 217.98,-93.79 202.08,-82.7"/>
<polygon fill="#63b8ff" stroke="#63b8ff" points="204.37,-80.03 194.16,-77.18 200.36,-85.77 204.37,-80.03"/>
</a>
</g>
</g>
<!-- Node28 -->
<g id="Node000028" class="node">
<title>Node28</title>
<g id="a_Node000028"><a xlink:href="constexpr__string_8hpp.html" target="_top" xlink:title=" ">
<polygon fill="white" stroke="#666666" points="375.45,-76 259.7,-76 259.7,-56 375.45,-56 375.45,-76"/>
<text xml:space="preserve" text-anchor="middle" x="317.58" y="-62.5" font-family="Helvetica,sans-Serif" font-size="10.00">../constexpr_string.hpp</text>
</a>
</g>
</g>
<!-- Node27&#45;&gt;Node28 -->
<g id="edge32_Node000027_Node000028" class="edge">
<title>Node27&#45;&gt;Node28</title>
<g id="a_edge32_Node000027_Node000028"><a xlink:title=" ">
<path fill="none" stroke="#63b8ff" d="M273.7,-117.62C281.3,-108.86 292.85,-95.53 302.2,-84.75"/>
<polygon fill="#63b8ff" stroke="#63b8ff" points="304.79,-87.11 308.69,-77.26 299.5,-82.52 304.79,-87.11"/>
</a>
</g>
</g>
<!-- Node28&#45;&gt;Node13 -->
<g id="edge34_Node000028_Node000013" class="edge">
<title>Node28&#45;&gt;Node13</title>
<g id="a_edge34_Node000028_Node000013"><a xlink:title=" ">
<path fill="none" stroke="#63b8ff" d="M317.58,-55.59C317.58,-49.01 317.58,-39.96 317.58,-31.73"/>
<polygon fill="#63b8ff" stroke="#63b8ff" points="321.08,-31.81 317.58,-21.81 314.08,-31.81 321.08,-31.81"/>
</a>
</g>
</g>
<!-- Node28&#45;&gt;Node26 -->
<g id="edge33_Node000028_Node000026" class="edge">
<title>Node28&#45;&gt;Node26</title>
<g id="a_edge33_Node000028_Node000026"><a xlink:title=" ">
<path fill="none" stroke="#63b8ff" d="M282.22,-55.59C245.06,-45.71 186.94,-30.25 149.82,-20.37"/>
<polygon fill="#63b8ff" stroke="#63b8ff" points="151.05,-17.08 140.48,-17.89 149.25,-23.84 151.05,-17.08"/>
</a>
</g>
</g>
<!-- Node37&#45;&gt;Node3 -->
<g id="edge53_Node000037_Node000003" class="edge">
<title>Node37&#45;&gt;Node3</title>
<g id="a_edge53_Node000037_Node000003"><a xlink:title=" ">
<path fill="none" stroke="#63b8ff" d="M540.5,-415.59C544.94,-408.55 551.16,-398.67 556.62,-390"/>
<polygon fill="#63b8ff" stroke="#63b8ff" points="559.55,-391.91 561.92,-381.58 553.63,-388.18 559.55,-391.91"/>
</a>
</g>
</g>
</g>
</svg>

<g id="navigator" transform="translate(0 0)" fill="#404254">
  <rect fill="#f2f5e9" fill-opacity="0.5" stroke="#606060" stroke-width=".5" x="0" y="0" width="60" height="60"/>
  <use id="zoomplus" xlink:href="#zoomPlus" x="17" y="9" onmousedown="handleZoom(evt,'in')"/>
  <use id="zoomminus" xlink:href="#zoomMin" x="42" y="9" onmousedown="handleZoom(evt,'out')"/>
  <use id="reset" xlink:href="#resetDef" x="30" y="36" onmousedown="handleReset()"/>
   <use id="arrowup" xlink:href="#arrowUp" x="0" y="0" onmousedown="handlePan(0,-1)"/>
  <use id="arrowright" xlink:href="#arrowRight" x="0" y="0" onmousedown="handlePan(1,0)"/>
  <use id="arrowdown" xlink:href="#arrowDown" x="0" y="0" onmousedown="handlePan(0,1)"/>
  <use id="arrowleft" xlink:href="#arrowLeft" x="0" y="0" onmousedown="handlePan(-1,0)"/>
</g>
<svg viewBox="0 0 15 15" width="100%" height="30px" preserveAspectRatio="xMaxYMin meet">
 <g id="arrow_out" transform="scale(0.3 0.3)">
  <a xlink:href="core_2usecase_2crud__repository__mock_8hpp__incl_org.svg" target="_base">
   <rect id="button" ry="5" rx="5" y="6" x="6" height="38" width="38"
        fill="#f2f5e9" fill-opacity="0.5" stroke="#606060" stroke-width="1.0"/>
   <path id="arrow"
     d="M 11.500037,31.436501 C 11.940474,20.09759 22.043105,11.32322 32.158766,21.979434 L 37.068811,17.246167 C 37.068811,17.246167 37.088388,32 37.088388,32 L 22.160133,31.978069 C 22.160133,31.978069 26.997745,27.140456 26.997745,27.140456 C 18.528582,18.264221 13.291696,25.230495 11.500037,31.436501 z"
     style="fill:#404040;"/>
  </a>
 </g>
</svg>

<style type='text/css'>
<![CDATA[
[data-mouse-over-selected='false'] { opacity: 0.7; }
[data-mouse-over-selected='true']  { opacity: 1.0; }
]]>
</style>
<script type="application/ecmascript"><![CDATA[
document.addEventListener('DOMContentLoaded', (event) => {
  highlightEdges();
  highlightAdjacentNodes();
});
]]></script>
</svg>
