<?xml version="1.0" encoding="UTF-8" standalone="no"?>
<!DOCTYPE svg PUBLIC "-//W3C//DTD SVG 1.1//EN"
 "http://www.w3.org/Graphics/SVG/1.1/DTD/svg11.dtd">
<!-- Generated by graphviz version 14.1.2 (20260124.0452)
 -->
<!-- Title: depicture_menu/src/core/cs_binding/macro/detail/cpp/class_def/class_def.hpp Pages: 1 -->
<!--zoomable 392 -->

<svg id="main" version="1.1" xmlns="http://www.w3.org/2000/svg" xmlns:xlink="http://www.w3.org/1999/xlink" xml:space="preserve" onload="init(evt)">

<style type="text/css"><![CDATA[
.node, .edge {opacity: 0.7;}
.node.selected, .edge.selected {opacity: 1;}
.edge:hover path { stroke: red; }
.edge:hover polygon { stroke: red; fill: red; }
]]></style>

<defs>
  <circle id="rim" cx="0" cy="0" r="7"/>
  <circle id="rim2" cx="0" cy="0" r="3.5"/>
  <g id="zoomPlus">
    <use xlink:href="#rim" fill="#404040"><set attributeName="fill" to="#808080" begin="zoomplus.mouseover" end="zoomplus.mouseout"/></use>
    <path d="M-4,0h8M0,-4v8" fill="none" stroke="white" stroke-width="1.5" pointer-events="none"/>
  </g>
  <g id="zoomMin">
    <use xlink:href="#rim" fill="#404040"><set attributeName="fill" to="#808080" begin="zoomminus.mouseover" end="zoomminus.mouseout"/></use>
    <path d="M-4,0h8" fill="none" stroke="white" stroke-width="1.5" pointer-events="none"/>
  </g>
  <g id="arrowUp" transform="translate(30 24)">
    <use xlink:href="#rim"/>
    <path pointer-events="none" fill="none" stroke="white" stroke-width="1.5" d="M0,-3.0v7 M-2.5,-0.5L0,-3.0L2.5,-0.5"/>
  </g>
  <g id="arrowRight" transform="rotate(90) translate(36 -43)">
    <use xlink:href="#rim"/>
    <path pointer-events="none" fill="none" stroke="white" stroke-width="1.5" d="M0,-3.0v7 M-2.5,-0.5L0,-3.0L2.5,-0.5"/>
  </g>
  <g id="arrowDown" transform="rotate(180) translate(-30 -48)">
    <use xlink:href="#rim"/>
    <path pointer-events="none" fill="none" stroke="white" stroke-width="1.5" d="M0,-3.0v7 M-2.5,-0.5L0,-3.0L2.5,-0.5"/>
  </g>
  <g id="arrowLeft" transform="rotate(270) translate(-36 17)">
    <use xlink:href="#rim"/>
    <path pointer-events="none" fill="none" stroke="white" stroke-width="1.5" d="M0,-3.0v7 M-2.5,-0.5L0,-3.0L2.5,-0.5"/>
  </g>
  <g id="resetDef">
    <use xlink:href="#rim2" fill="#404040"><set attributeName="fill" to="#808080" begin="reset.mouseover" end="reset.mouseout"/></use>
  </g>
</defs>
<script type="application/ecmascript">
var viewWidth = 764;
var viewHeight = 392;
var sectionId = 'dynsection-0';
</script>
<script type="application/ecmascript" xlink:href="svg.min.js"/>
<svg id="graph" class="graph">
<g id="viewport">
<title>depicture_menu/src/core/cs_binding/macro/detail/cpp/class_def/class_def.hpp</title>
<!-- Node1 -->
<g id="Node000001" class="node">
<title>Node1</title>
<g id="a_Node000001"><a xlink:title=" ">
<polygon fill="#999999" stroke="#666666" points="325,-384 207.75,-384 207.75,-328 325,-328 325,-384"/>
<text xml:space="preserve" text-anchor="start" x="215.75" y="-370.5" font-family="Helvetica,sans-Serif" font-size="10.00">depicture_menu/src</text>
<text xml:space="preserve" text-anchor="start" x="215.75" y="-358.5" font-family="Helvetica,sans-Serif" font-size="10.00">/core/cs_binding/macro</text>
<text xml:space="preserve" text-anchor="start" x="215.75" y="-346.5" font-family="Helvetica,sans-Serif" font-size="10.00">/detail/cpp/class_def</text>
<text xml:space="preserve" text-anchor="middle" x="266.38" y="-334.5" font-family="Helvetica,sans-Serif" font-size="10.00">/class_def.hpp</text>
</a>
</g>
</g>
<!-- Node2 -->
<g id="Node000002" class="node">
<title>Node2</title>
<g id="a_Node000002"><a xlink:href="boost__describe_8hpp.html" target="_top" xlink:title=" ">
<polygon fill="white" stroke="#666666" points="100.75,-292 0,-292 0,-272 100.75,-272 100.75,-292"/>
<text xml:space="preserve" text-anchor="middle" x="50.38" y="-278.5" font-family="Helvetica,sans-Serif" font-size="10.00">boost_describe.hpp</text>
</a>
</g>
</g>
<!-- Node1&#45;&gt;Node2 -->
<g id="edge1_Node000001_Node000002" class="edge">
<title>Node1&#45;&gt;Node2</title>
<g id="a_edge1_Node000001_Node000002"><a xlink:title=" ">
<path fill="none" stroke="#63b8ff" d="M207.35,-335.33C169.76,-322.79 122.12,-306.91 89.23,-295.95"/>
<polygon fill="#63b8ff" stroke="#63b8ff" points="90.71,-292.76 80.12,-292.91 88.5,-299.4 90.71,-292.76"/>
</a>
</g>
</g>
<!-- Node3 -->
<g id="Node000003" class="node">
<title>Node3</title>
<g id="a_Node000003"><a xlink:href="entry_8hpp.html" target="_top" xlink:title=" ">
<polygon fill="white" stroke="#666666" points="192.25,-292 118.5,-292 118.5,-272 192.25,-272 192.25,-292"/>
<text xml:space="preserve" text-anchor="middle" x="155.38" y="-278.5" font-family="Helvetica,sans-Serif" font-size="10.00">../../entry.hpp</text>
</a>
</g>
</g>
<!-- Node1&#45;&gt;Node3 -->
<g id="edge2_Node000001_Node000003" class="edge">
<title>Node1&#45;&gt;Node3</title>
<g id="a_edge2_Node000001_Node000003"><a xlink:title=" ">
<path fill="none" stroke="#63b8ff" d="M224.09,-327.57C209.01,-317.79 192.54,-307.11 179.51,-298.66"/>
<polygon fill="#63b8ff" stroke="#63b8ff" points="181.45,-295.74 171.16,-293.24 177.64,-301.62 181.45,-295.74"/>
</a>
</g>
</g>
<!-- Node4 -->
<g id="Node000004" class="node">
<title>Node4</title>
<g id="a_Node000004"><a xlink:href="cpp_2class__def_2compare__function_8hpp.html" target="_top" xlink:title=" ">
<polygon fill="white" stroke="#666666" points="322.38,-292 210.38,-292 210.38,-272 322.38,-272 322.38,-292"/>
<text xml:space="preserve" text-anchor="middle" x="266.38" y="-278.5" font-family="Helvetica,sans-Serif" font-size="10.00">compare_function.hpp</text>
</a>
</g>
</g>
<!-- Node1&#45;&gt;Node4 -->
<g id="edge3_Node000001_Node000004" class="edge">
<title>Node1&#45;&gt;Node4</title>
<g id="a_edge3_Node000001_Node000004"><a xlink:title=" ">
<path fill="none" stroke="#63b8ff" d="M266.38,-327.78C266.38,-319.82 266.38,-311.25 266.38,-303.76"/>
<polygon fill="#63b8ff" stroke="#63b8ff" points="269.88,-303.99 266.38,-293.99 262.88,-303.99 269.88,-303.99"/>
</a>
</g>
</g>
<!-- Node5 -->
<g id="Node000005" class="node">
<title>Node5</title>
<g id="a_Node000005"><a xlink:href="glue__methods_8hpp.html" target="_top" xlink:title=" ">
<polygon fill="white" stroke="#666666" points="370.12,-236 274.62,-236 274.62,-216 370.12,-216 370.12,-236"/>
<text xml:space="preserve" text-anchor="middle" x="322.38" y="-222.5" font-family="Helvetica,sans-Serif" font-size="10.00">glue_methods.hpp</text>
</a>
</g>
</g>
<!-- Node1&#45;&gt;Node5 -->
<g id="edge14_Node000001_Node000005" class="edge">
<title>Node1&#45;&gt;Node5</title>
<g id="a_edge14_Node000001_Node000005"><a xlink:title=" ">
<path fill="none" stroke="#63b8ff" d="M304.6,-327.59C315.32,-317.71 325.62,-305.6 331.38,-292 337.43,-277.7 334.49,-260.21 330.41,-246.97"/>
<polygon fill="#63b8ff" stroke="#63b8ff" points="333.74,-245.89 327.08,-237.65 327.15,-248.24 333.74,-245.89"/>
</a>
</g>
</g>
<!-- Node15 -->
<g id="Node000015" class="node">
<title>Node15</title>
<g id="a_Node000015"><a xlink:href="macro_2detail_2cpp_2class__def_2obserable__traits_8hpp.html" target="_top" xlink:title=" ">
<polygon fill="white" stroke="#666666" points="482.25,-292 378.5,-292 378.5,-272 482.25,-272 482.25,-292"/>
<text xml:space="preserve" text-anchor="middle" x="430.38" y="-278.5" font-family="Helvetica,sans-Serif" font-size="10.00">obserable_traits.hpp</text>
</a>
</g>
</g>
<!-- Node1&#45;&gt;Node15 -->
<g id="edge15_Node000001_Node000015" class="edge">
<title>Node1&#45;&gt;Node15</title>
<g id="a_edge15_Node000001_Node000015"><a xlink:title=" ">
<path fill="none" stroke="#63b8ff" d="M325.12,-329.21C349.89,-318.33 377.76,-306.1 398.59,-296.95"/>
<polygon fill="#63b8ff" stroke="#63b8ff" points="399.95,-300.18 407.69,-292.96 397.13,-293.77 399.95,-300.18"/>
</a>
</g>
</g>
<!-- Node4&#45;&gt;Node5 -->
<g id="edge4_Node000004_Node000005" class="edge">
<title>Node4&#45;&gt;Node5</title>
<g id="a_edge4_Node000004_Node000005"><a xlink:title=" ">
<path fill="none" stroke="#63b8ff" d="M276.13,-271.59C284,-264.01 295.27,-253.13 304.72,-244.02"/>
<polygon fill="#63b8ff" stroke="#63b8ff" points="306.87,-246.81 311.64,-237.35 302.01,-241.77 306.87,-246.81"/>
</a>
</g>
</g>
<!-- Node6 -->
<g id="Node000006" class="node">
<title>Node6</title>
<g id="a_Node000006"><a xlink:href="glue__code__sequence__data_8hpp.html" target="_top" xlink:title=" ">
<polygon fill="white" stroke="#666666" points="423.12,-180 297.62,-180 297.62,-148 423.12,-148 423.12,-180"/>
<text xml:space="preserve" text-anchor="start" x="305.62" y="-166.5" font-family="Helvetica,sans-Serif" font-size="10.00">../../glue_code_sequence</text>
<text xml:space="preserve" text-anchor="middle" x="360.38" y="-154.5" font-family="Helvetica,sans-Serif" font-size="10.00">_data.hpp</text>
</a>
</g>
</g>
<!-- Node5&#45;&gt;Node6 -->
<g id="edge5_Node000005_Node000006" class="edge">
<title>Node5&#45;&gt;Node6</title>
<g id="a_edge5_Node000005_Node000006"><a xlink:title=" ">
<path fill="none" stroke="#63b8ff" d="M328.31,-215.62C332.73,-208.65 338.97,-198.8 344.77,-189.64"/>
<polygon fill="#63b8ff" stroke="#63b8ff" points="347.58,-191.74 349.98,-181.42 341.67,-187.99 347.58,-191.74"/>
</a>
</g>
</g>
<!-- Node7 -->
<g id="Node000007" class="node">
<title>Node7</title>
<g id="a_Node000007"><a xlink:title=" ">
<polygon fill="#e0e0e0" stroke="#999999" points="176,-112 76.75,-112 76.75,-80 176,-80 176,-112"/>
<text xml:space="preserve" text-anchor="start" x="84.75" y="-98.5" font-family="Helvetica,sans-Serif" font-size="10.00">boost/preprocessor</text>
<text xml:space="preserve" text-anchor="middle" x="126.38" y="-86.5" font-family="Helvetica,sans-Serif" font-size="10.00">/seq/elem.hpp</text>
</a>
</g>
</g>
<!-- Node6&#45;&gt;Node7 -->
<g id="edge6_Node000006_Node000007" class="edge">
<title>Node6&#45;&gt;Node7</title>
<g id="a_edge6_Node000006_Node000007"><a xlink:title=" ">
<path fill="none" stroke="#63b8ff" d="M305.51,-147.53C270.01,-137.51 223.76,-124.47 187.14,-114.14"/>
<polygon fill="#63b8ff" stroke="#63b8ff" points="188.14,-110.78 177.57,-111.44 186.24,-117.52 188.14,-110.78"/>
</a>
</g>
</g>
<!-- Node8 -->
<g id="Node000008" class="node">
<title>Node8</title>
<g id="a_Node000008"><a xlink:title=" ">
<polygon fill="#e0e0e0" stroke="#999999" points="293,-112 193.75,-112 193.75,-80 293,-80 293,-112"/>
<text xml:space="preserve" text-anchor="start" x="201.75" y="-98.5" font-family="Helvetica,sans-Serif" font-size="10.00">boost/preprocessor</text>
<text xml:space="preserve" text-anchor="middle" x="243.38" y="-86.5" font-family="Helvetica,sans-Serif" font-size="10.00">/tuple.hpp</text>
</a>
</g>
</g>
<!-- Node6&#45;&gt;Node8 -->
<g id="edge7_Node000006_Node000008" class="edge">
<title>Node6&#45;&gt;Node8</title>
<g id="a_edge7_Node000006_Node000008"><a xlink:title=" ">
<path fill="none" stroke="#63b8ff" d="M332.94,-147.53C317.25,-138.67 297.35,-127.45 280.29,-117.83"/>
<polygon fill="#63b8ff" stroke="#63b8ff" points="282.38,-114.99 271.95,-113.12 278.94,-121.08 282.38,-114.99"/>
</a>
</g>
</g>
<!-- Node9 -->
<g id="Node000009" class="node">
<title>Node9</title>
<g id="a_Node000009"><a xlink:title=" ">
<polygon fill="#e0e0e0" stroke="#999999" points="410,-112 310.75,-112 310.75,-80 410,-80 410,-112"/>
<text xml:space="preserve" text-anchor="start" x="318.75" y="-98.5" font-family="Helvetica,sans-Serif" font-size="10.00">boost/preprocessor</text>
<text xml:space="preserve" text-anchor="middle" x="360.38" y="-86.5" font-family="Helvetica,sans-Serif" font-size="10.00">/tuple/size.hpp</text>
</a>
</g>
</g>
<!-- Node6&#45;&gt;Node9 -->
<g id="edge8_Node000006_Node000009" class="edge">
<title>Node6&#45;&gt;Node9</title>
<g id="a_edge8_Node000006_Node000009"><a xlink:title=" ">
<path fill="none" stroke="#63b8ff" d="M360.38,-147.69C360.38,-140.53 360.38,-131.79 360.38,-123.59"/>
<polygon fill="#63b8ff" stroke="#63b8ff" points="363.88,-123.74 360.38,-113.74 356.88,-123.74 363.88,-123.74"/>
</a>
</g>
</g>
<!-- Node10 -->
<g id="Node000010" class="node">
<title>Node10</title>
<g id="a_Node000010"><a xlink:title=" ">
<polygon fill="#e0e0e0" stroke="#999999" points="546.38,-106 428.38,-106 428.38,-86 546.38,-86 546.38,-106"/>
<text xml:space="preserve" text-anchor="middle" x="487.38" y="-92.5" font-family="Helvetica,sans-Serif" font-size="10.00">boost/preprocessor.hpp</text>
</a>
</g>
</g>
<!-- Node6&#45;&gt;Node10 -->
<g id="edge9_Node000006_Node000010" class="edge">
<title>Node6&#45;&gt;Node10</title>
<g id="a_edge9_Node000006_Node000010"><a xlink:title=" ">
<path fill="none" stroke="#63b8ff" d="M390.15,-147.53C411,-136.69 438.69,-122.3 459.18,-111.65"/>
<polygon fill="#63b8ff" stroke="#63b8ff" points="460.57,-114.88 467.83,-107.16 457.34,-108.66 460.57,-114.88"/>
</a>
</g>
</g>
<!-- Node11 -->
<g id="Node000011" class="node">
<title>Node11</title>
<g id="a_Node000011"><a xlink:href="attr_8hpp.html" target="_top" xlink:title=" ">
<polygon fill="white" stroke="#666666" points="613.88,-106 564.88,-106 564.88,-86 613.88,-86 613.88,-106"/>
<text xml:space="preserve" text-anchor="middle" x="589.38" y="-92.5" font-family="Helvetica,sans-Serif" font-size="10.00">attr.hpp</text>
</a>
</g>
</g>
<!-- Node6&#45;&gt;Node11 -->
<g id="edge10_Node000006_Node000011" class="edge">
<title>Node6&#45;&gt;Node11</title>
<g id="a_edge10_Node000006_Node000011"><a xlink:title=" ">
<path fill="none" stroke="#63b8ff" d="M423.49,-149.2C462.04,-140.1 512.09,-127.1 555.38,-112 556.53,-111.6 557.71,-111.17 558.89,-110.73"/>
<polygon fill="#63b8ff" stroke="#63b8ff" points="560.11,-114.01 568.05,-106.99 557.47,-107.52 560.11,-114.01"/>
</a>
</g>
</g>
<!-- Node12 -->
<g id="Node000012" class="node">
<title>Node12</title>
<g id="a_Node000012"><a xlink:title=" ">
<polygon fill="#e0e0e0" stroke="#999999" points="522,-38 422.75,-38 422.75,-6 522,-6 522,-38"/>
<text xml:space="preserve" text-anchor="start" x="430.75" y="-24.5" font-family="Helvetica,sans-Serif" font-size="10.00">boost/preprocessor</text>
<text xml:space="preserve" text-anchor="middle" x="472.38" y="-12.5" font-family="Helvetica,sans-Serif" font-size="10.00">/cat.hpp</text>
</a>
</g>
</g>
<!-- Node11&#45;&gt;Node12 -->
<g id="edge11_Node000011_Node000012" class="edge">
<title>Node11&#45;&gt;Node12</title>
<g id="a_edge11_Node000011_Node000012"><a xlink:title=" ">
<path fill="none" stroke="#63b8ff" d="M574.08,-85.59C557.21,-75.21 529.52,-58.17 507.29,-44.48"/>
<polygon fill="#63b8ff" stroke="#63b8ff" points="509.15,-41.52 498.8,-39.26 505.49,-47.49 509.15,-41.52"/>
</a>
</g>
</g>
<!-- Node13 -->
<g id="Node000013" class="node">
<title>Node13</title>
<g id="a_Node000013"><a xlink:title=" ">
<polygon fill="#e0e0e0" stroke="#999999" points="639,-44 539.75,-44 539.75,0 639,0 639,-44"/>
<text xml:space="preserve" text-anchor="start" x="547.75" y="-30.5" font-family="Helvetica,sans-Serif" font-size="10.00">boost/preprocessor</text>
<text xml:space="preserve" text-anchor="start" x="547.75" y="-18.5" font-family="Helvetica,sans-Serif" font-size="10.00">/facilities/is_empty</text>
<text xml:space="preserve" text-anchor="middle" x="589.38" y="-6.5" font-family="Helvetica,sans-Serif" font-size="10.00">_or_1.hpp</text>
</a>
</g>
</g>
<!-- Node11&#45;&gt;Node13 -->
<g id="edge12_Node000011_Node000013" class="edge">
<title>Node11&#45;&gt;Node13</title>
<g id="a_edge12_Node000011_Node000013"><a xlink:title=" ">
<path fill="none" stroke="#63b8ff" d="M589.38,-85.59C589.38,-77.92 589.38,-66.61 589.38,-55.71"/>
<polygon fill="#63b8ff" stroke="#63b8ff" points="592.88,-55.74 589.38,-45.74 585.88,-55.74 592.88,-55.74"/>
</a>
</g>
</g>
<!-- Node14 -->
<g id="Node000014" class="node">
<title>Node14</title>
<g id="a_Node000014"><a xlink:title=" ">
<polygon fill="#e0e0e0" stroke="#999999" points="756,-38 656.75,-38 656.75,-6 756,-6 756,-38"/>
<text xml:space="preserve" text-anchor="start" x="664.75" y="-24.5" font-family="Helvetica,sans-Serif" font-size="10.00">boost/preprocessor</text>
<text xml:space="preserve" text-anchor="middle" x="706.38" y="-12.5" font-family="Helvetica,sans-Serif" font-size="10.00">/if.hpp</text>
</a>
</g>
</g>
<!-- Node11&#45;&gt;Node14 -->
<g id="edge13_Node000011_Node000014" class="edge">
<title>Node11&#45;&gt;Node14</title>
<g id="a_edge13_Node000011_Node000014"><a xlink:title=" ">
<path fill="none" stroke="#63b8ff" d="M604.67,-85.59C621.54,-75.21 649.23,-58.17 671.46,-44.48"/>
<polygon fill="#63b8ff" stroke="#63b8ff" points="673.26,-47.49 679.95,-39.26 669.6,-41.52 673.26,-47.49"/>
</a>
</g>
</g>
<!-- Node15&#45;&gt;Node6 -->
<g id="edge16_Node000015_Node000006" class="edge">
<title>Node15&#45;&gt;Node6</title>
<g id="a_edge16_Node000015_Node000006"><a xlink:title=" ">
<path fill="none" stroke="#63b8ff" d="M424.65,-271.51C414.03,-253.91 390.97,-215.7 375.56,-190.16"/>
<polygon fill="#63b8ff" stroke="#63b8ff" points="378.62,-188.46 370.46,-181.71 372.63,-192.08 378.62,-188.46"/>
</a>
</g>
</g>
<!-- Node16 -->
<g id="Node000016" class="node">
<title>Node16</title>
<g id="a_Node000016"><a xlink:href="pp_8hpp.html" target="_top" xlink:title=" ">
<polygon fill="white" stroke="#666666" points="490,-236 426.75,-236 426.75,-216 490,-216 490,-236"/>
<text xml:space="preserve" text-anchor="middle" x="458.38" y="-222.5" font-family="Helvetica,sans-Serif" font-size="10.00">../../pp.hpp</text>
</a>
</g>
</g>
<!-- Node15&#45;&gt;Node16 -->
<g id="edge17_Node000015_Node000016" class="edge">
<title>Node15&#45;&gt;Node16</title>
<g id="a_edge17_Node000015_Node000016"><a xlink:title=" ">
<path fill="none" stroke="#63b8ff" d="M435.25,-271.59C438.87,-264.63 443.92,-254.89 448.37,-246.29"/>
<polygon fill="#63b8ff" stroke="#63b8ff" points="451.36,-248.13 452.86,-237.64 445.15,-244.91 451.36,-248.13"/>
</a>
</g>
</g>
</g>
</svg>

<g id="navigator" transform="translate(0 0)" fill="#404254">
  <rect fill="#f2f5e9" fill-opacity="0.5" stroke="#606060" stroke-width=".5" x="0" y="0" width="60" height="60"/>
  <use id="zoomplus" xlink:href="#zoomPlus" x="17" y="9" onmousedown="handleZoom(evt,'in')"/>
  <use id="zoomminus" xlink:href="#zoomMin" x="42" y="9" onmousedown="handleZoom(evt,'out')"/>
  <use id="reset" xlink:href="#resetDef" x="30" y="36" onmousedown="handleReset()"/>
   <use id="arrowup" xlink:href="#arrowUp" x="0" y="0" onmousedown="handlePan(0,-1)"/>
  <use id="arrowright" xlink:href="#arrowRight" x="0" y="0" onmousedown="handlePan(1,0)"/>
  <use id="arrowdown" xlink:href="#arrowDown" x="0" y="0" onmousedown="handlePan(0,1)"/>
  <use id="arrowleft" xlink:href="#arrowLeft" x="0" y="0" onmousedown="handlePan(-1,0)"/>
</g>
<svg viewBox="0 0 15 15" width="100%" height="30px" preserveAspectRatio="xMaxYMin meet">
 <g id="arrow_out" transform="scale(0.3 0.3)">
  <a xlink:href="cpp_2class__def_2class__def_8hpp__incl_org.svg" target="_base">
   <rect id="button" ry="5" rx="5" y="6" x="6" height="38" width="38"
        fill="#f2f5e9" fill-opacity="0.5" stroke="#606060" stroke-width="1.0"/>
   <path id="arrow"
     d="M 11.500037,31.436501 C 11.940474,20.09759 22.043105,11.32322 32.158766,21.979434 L 37.068811,17.246167 C 37.068811,17.246167 37.088388,32 37.088388,32 L 22.160133,31.978069 C 22.160133,31.978069 26.997745,27.140456 26.997745,27.140456 C 18.528582,18.264221 13.291696,25.230495 11.500037,31.436501 z"
     style="fill:#404040;"/>
  </a>
 </g>
</svg>

<style type='text/css'>
<![CDATA[
[data-mouse-over-selected='false'] { opacity: 0.7; }
[data-mouse-over-selected='true']  { opacity: 1.0; }
]]>
</style>
<script type="application/ecmascript"><![CDATA[
document.addEventListener('DOMContentLoaded', (event) => {
  highlightEdges();
  highlightAdjacentNodes();
});
]]></script>
</svg>
