<?xml version="1.0" encoding="UTF-8" standalone="no"?>
<!DOCTYPE svg PUBLIC "-//W3C//DTD SVG 1.1//EN"
 "http://www.w3.org/Graphics/SVG/1.1/DTD/svg11.dtd">
<!-- Generated by graphviz version 14.1.2 (20260124.0452)
 -->
<!-- Title: depicture_menu/src/core/domain/event/create_application_config_event.hpp Pages: 1 -->
<svg width="1480pt" height="548pt"
 viewBox="0.00 0.00 1480.00 548.00" xmlns="http://www.w3.org/2000/svg" xmlns:xlink="http://www.w3.org/1999/xlink">
<g id="graph0" class="graph" transform="scale(1 1) rotate(0) translate(4 544)">
<title>depicture_menu/src/core/domain/event/create_application_config_event.hpp</title>
<!-- Node1 -->
<g id="Node000001" class="node">
<title>Node1</title>
<g id="a_Node000001"><a xlink:title=" ">
<polygon fill="#999999" stroke="#666666" points="686,-540 538.75,-540 538.75,-496 686,-496 686,-540"/>
<text xml:space="preserve" text-anchor="start" x="546.75" y="-526.5" font-family="Helvetica,sans-Serif" font-size="10.00">depicture_menu/src</text>
<text xml:space="preserve" text-anchor="start" x="546.75" y="-514.5" font-family="Helvetica,sans-Serif" font-size="10.00">/core/domain/event/create</text>
<text xml:space="preserve" text-anchor="middle" x="612.38" y="-502.5" font-family="Helvetica,sans-Serif" font-size="10.00">_application_config_event.hpp</text>
</a>
</g>
</g>
<!-- Node2 -->
<g id="Node000002" class="node">
<title>Node2</title>
<g id="a_Node000002"><a xlink:href="app__ids_8hpp.html" target="_top" xlink:title=" ">
<polygon fill="white" stroke="#666666" points="598.12,-460 472.62,-460 472.62,-440 598.12,-440 598.12,-460"/>
<text xml:space="preserve" text-anchor="middle" x="535.38" y="-446.5" font-family="Helvetica,sans-Serif" font-size="10.00">../model/app/app_ids.hpp</text>
</a>
</g>
</g>
<!-- Node1&#45;&gt;Node2 -->
<g id="edge1_Node000001_Node000002" class="edge">
<title>Node1&#45;&gt;Node2</title>
<g id="a_edge1_Node000001_Node000002"><a xlink:title=" ">
<path fill="none" stroke="#63b8ff" d="M587.59,-495.75C577.06,-486.73 564.96,-476.36 555.06,-467.87"/>
<polygon fill="#63b8ff" stroke="#63b8ff" points="557.38,-465.25 547.51,-461.4 552.83,-470.57 557.38,-465.25"/>
</a>
</g>
</g>
<!-- Node28 -->
<g id="Node000028" class="node">
<title>Node28</title>
<g id="a_Node000028"><a xlink:href="radialmenu_8hpp.html" target="_top" xlink:title="メニュー Domain Entity">
<polygon fill="white" stroke="#666666" points="859,-460 711.75,-460 711.75,-440 859,-440 859,-460"/>
<text xml:space="preserve" text-anchor="middle" x="785.38" y="-446.5" font-family="Helvetica,sans-Serif" font-size="10.00">../model/menu/radialmenu.hpp</text>
</a>
</g>
</g>
<!-- Node1&#45;&gt;Node28 -->
<g id="edge33_Node000001_Node000028" class="edge">
<title>Node1&#45;&gt;Node28</title>
<g id="a_edge33_Node000001_Node000028"><a xlink:title=" ">
<path fill="none" stroke="#63b8ff" d="M668.54,-495.57C695.46,-485.3 726.86,-473.32 750.32,-464.37"/>
<polygon fill="#63b8ff" stroke="#63b8ff" points="751.32,-467.74 759.41,-460.9 748.82,-461.2 751.32,-467.74"/>
</a>
</g>
</g>
<!-- Node3 -->
<g id="Node000003" class="node">
<title>Node3</title>
<g id="a_Node000003"><a xlink:href="model_2entity__id_8hpp.html" target="_top" xlink:title=" ">
<polygon fill="white" stroke="#666666" points="609.62,-274 529.12,-274 529.12,-254 609.62,-254 609.62,-274"/>
<text xml:space="preserve" text-anchor="middle" x="569.38" y="-260.5" font-family="Helvetica,sans-Serif" font-size="10.00">../entity_id.hpp</text>
</a>
</g>
</g>
<!-- Node2&#45;&gt;Node3 -->
<g id="edge2_Node000002_Node000003" class="edge">
<title>Node2&#45;&gt;Node3</title>
<g id="a_edge2_Node000002_Node000003"><a xlink:title=" ">
<path fill="none" stroke="#63b8ff" d="M504.07,-439.63C444.63,-420.27 325.19,-372.86 369.38,-316 387.4,-292.8 464.38,-278.4 517.4,-271.04"/>
<polygon fill="#63b8ff" stroke="#63b8ff" points="517.71,-274.53 527.16,-269.73 516.78,-267.59 517.71,-274.53"/>
</a>
</g>
</g>
<!-- Node4 -->
<g id="Node000004" class="node">
<title>Node4</title>
<g id="a_Node000004"><a xlink:href="model_2value__object_8hpp.html" target="_top" xlink:title=" ">
<polygon fill="white" stroke="#666666" points="971.12,-206 881.62,-206 881.62,-186 971.12,-186 971.12,-206"/>
<text xml:space="preserve" text-anchor="middle" x="926.38" y="-192.5" font-family="Helvetica,sans-Serif" font-size="10.00">value_object.hpp</text>
</a>
</g>
</g>
<!-- Node3&#45;&gt;Node4 -->
<g id="edge3_Node000003_Node000004" class="edge">
<title>Node3&#45;&gt;Node4</title>
<g id="a_edge3_Node000003_Node000004"><a xlink:title=" ">
<path fill="none" stroke="#63b8ff" d="M609.98,-255.49C673.82,-243.69 797.82,-220.77 870.18,-207.39"/>
<polygon fill="#63b8ff" stroke="#63b8ff" points="870.64,-210.86 879.84,-205.6 869.37,-203.98 870.64,-210.86"/>
</a>
</g>
</g>
<!-- Node13 -->
<g id="Node000013" class="node">
<title>Node13</title>
<g id="a_Node000013"><a xlink:title=" ">
<polygon fill="#e0e0e0" stroke="#999999" points="201.75,-88 107,-88 107,-56 201.75,-56 201.75,-88"/>
<text xml:space="preserve" text-anchor="start" x="115" y="-74.5" font-family="Helvetica,sans-Serif" font-size="10.00">boost/serialization</text>
<text xml:space="preserve" text-anchor="middle" x="154.38" y="-62.5" font-family="Helvetica,sans-Serif" font-size="10.00">/access.hpp</text>
</a>
</g>
</g>
<!-- Node3&#45;&gt;Node13 -->
<g id="edge27_Node000003_Node000013" class="edge">
<title>Node3&#45;&gt;Node13</title>
<g id="a_edge27_Node000003_Node000013"><a xlink:title=" ">
<path fill="none" stroke="#63b8ff" d="M596.94,-253.53C615.4,-245.58 638.29,-232.22 649.38,-212 656.21,-199.53 658.34,-191.04 649.38,-180 526.03,-28.13 408.72,-130.3 213.16,-88.47"/>
<polygon fill="#63b8ff" stroke="#63b8ff" points="213.99,-85.07 203.46,-86.28 212.45,-91.9 213.99,-85.07"/>
</a>
</g>
</g>
<!-- Node22 -->
<g id="Node000022" class="node">
<title>Node22</title>
<g id="a_Node000022"><a xlink:title=" ">
<polygon fill="#e0e0e0" stroke="#999999" points="100.75,-144 0,-144 0,-124 100.75,-124 100.75,-144"/>
<text xml:space="preserve" text-anchor="middle" x="50.38" y="-130.5" font-family="Helvetica,sans-Serif" font-size="10.00">boost/uuid/uuid.hpp</text>
</a>
</g>
</g>
<!-- Node3&#45;&gt;Node22 -->
<g id="edge29_Node000003_Node000022" class="edge">
<title>Node3&#45;&gt;Node22</title>
<g id="a_edge29_Node000003_Node000022"><a xlink:title=" ">
<path fill="none" stroke="#63b8ff" d="M528.89,-261.51C416.02,-257.01 103.83,-241.94 69.38,-212 53.48,-198.19 49.8,-173.41 49.4,-155.69"/>
<polygon fill="#63b8ff" stroke="#63b8ff" points="52.9,-155.86 49.55,-145.81 45.9,-155.75 52.9,-155.86"/>
</a>
</g>
</g>
<!-- Node23 -->
<g id="Node000023" class="node">
<title>Node23</title>
<g id="a_Node000023"><a xlink:title=" ">
<polygon fill="#e0e0e0" stroke="#999999" points="824.25,-206 696.5,-206 696.5,-186 824.25,-186 824.25,-206"/>
<text xml:space="preserve" text-anchor="middle" x="760.38" y="-192.5" font-family="Helvetica,sans-Serif" font-size="10.00">boost/functional/hash.hpp</text>
</a>
</g>
</g>
<!-- Node3&#45;&gt;Node23 -->
<g id="edge26_Node000003_Node000023" class="edge">
<title>Node3&#45;&gt;Node23</title>
<g id="a_edge26_Node000003_Node000023"><a xlink:title=" ">
<path fill="none" stroke="#63b8ff" d="M596.74,-253.54C629.79,-242.12 685.55,-222.86 722.66,-210.03"/>
<polygon fill="#63b8ff" stroke="#63b8ff" points="723.32,-213.51 731.63,-206.93 721.03,-206.89 723.32,-213.51"/>
</a>
</g>
</g>
<!-- Node24 -->
<g id="Node000024" class="node">
<title>Node24</title>
<g id="a_Node000024"><a xlink:title=" ">
<polygon fill="#e0e0e0" stroke="#999999" points="178,-212 78.75,-212 78.75,-180 178,-180 178,-212"/>
<text xml:space="preserve" text-anchor="start" x="86.75" y="-198.5" font-family="Helvetica,sans-Serif" font-size="10.00">boost/serialization</text>
<text xml:space="preserve" text-anchor="middle" x="128.38" y="-186.5" font-family="Helvetica,sans-Serif" font-size="10.00">/array_wrapper.hpp</text>
</a>
</g>
</g>
<!-- Node3&#45;&gt;Node24 -->
<g id="edge28_Node000003_Node000024" class="edge">
<title>Node3&#45;&gt;Node24</title>
<g id="a_edge28_Node000003_Node000024"><a xlink:title=" ">
<path fill="none" stroke="#63b8ff" d="M528.7,-259.14C460.59,-252.34 319.03,-236.74 189.77,-212.32"/>
<polygon fill="#63b8ff" stroke="#63b8ff" points="190.46,-208.89 179.98,-210.45 189.15,-215.77 190.46,-208.89"/>
</a>
</g>
</g>
<!-- Node25 -->
<g id="Node000025" class="node">
<title>Node25</title>
<g id="a_Node000025"><a xlink:title=" ">
<polygon fill="#e0e0e0" stroke="#999999" points="348.25,-206 196.5,-206 196.5,-186 348.25,-186 348.25,-206"/>
<text xml:space="preserve" text-anchor="middle" x="272.38" y="-192.5" font-family="Helvetica,sans-Serif" font-size="10.00">boost/uuid/uuid_generators.hpp</text>
</a>
</g>
</g>
<!-- Node3&#45;&gt;Node25 -->
<g id="edge30_Node000003_Node000025" class="edge">
<title>Node3&#45;&gt;Node25</title>
<g id="a_edge30_Node000003_Node000025"><a xlink:title=" ">
<path fill="none" stroke="#63b8ff" d="M528.7,-253.96C476.13,-242.28 384.43,-221.9 326.15,-208.95"/>
<polygon fill="#63b8ff" stroke="#63b8ff" points="326.95,-205.54 316.43,-206.79 325.44,-212.38 326.95,-205.54"/>
</a>
</g>
</g>
<!-- Node26 -->
<g id="Node000026" class="node">
<title>Node26</title>
<g id="a_Node000026"><a xlink:title=" ">
<polygon fill="#e0e0e0" stroke="#999999" points="480.12,-206 366.62,-206 366.62,-186 480.12,-186 480.12,-206"/>
<text xml:space="preserve" text-anchor="middle" x="423.38" y="-192.5" font-family="Helvetica,sans-Serif" font-size="10.00">boost/uuid/uuid_io.hpp</text>
</a>
</g>
</g>
<!-- Node3&#45;&gt;Node26 -->
<g id="edge31_Node000003_Node000026" class="edge">
<title>Node3&#45;&gt;Node26</title>
<g id="a_edge31_Node000003_Node000026"><a xlink:title=" ">
<path fill="none" stroke="#63b8ff" d="M548.46,-253.54C523.85,-242.42 482.76,-223.84 454.43,-211.04"/>
<polygon fill="#63b8ff" stroke="#63b8ff" points="456.19,-207.99 445.63,-207.06 453.3,-214.37 456.19,-207.99"/>
</a>
</g>
</g>
<!-- Node27 -->
<g id="Node000027" class="node">
<title>Node27</title>
<g id="a_Node000027"><a xlink:title=" ">
<polygon fill="#e0e0e0" stroke="#999999" points="640.38,-206 498.38,-206 498.38,-186 640.38,-186 640.38,-206"/>
<text xml:space="preserve" text-anchor="middle" x="569.38" y="-192.5" font-family="Helvetica,sans-Serif" font-size="10.00">boost/uuid/uuid_serialize.hpp</text>
</a>
</g>
</g>
<!-- Node3&#45;&gt;Node27 -->
<g id="edge32_Node000003_Node000027" class="edge">
<title>Node3&#45;&gt;Node27</title>
<g id="a_edge32_Node000003_Node000027"><a xlink:title=" ">
<path fill="none" stroke="#63b8ff" d="M569.38,-253.54C569.38,-244.23 569.38,-229.7 569.38,-217.7"/>
<polygon fill="#63b8ff" stroke="#63b8ff" points="572.88,-217.95 569.38,-207.95 565.88,-217.95 572.88,-217.95"/>
</a>
</g>
</g>
<!-- Node5 -->
<g id="Node000005" class="node">
<title>Node5</title>
<g id="a_Node000005"><a xlink:href="model_2presistence_8hpp.html" target="_top" xlink:title=" ">
<polygon fill="white" stroke="#666666" points="781.88,-144 696.88,-144 696.88,-124 781.88,-124 781.88,-144"/>
<text xml:space="preserve" text-anchor="middle" x="739.38" y="-130.5" font-family="Helvetica,sans-Serif" font-size="10.00">presistence.hpp</text>
</a>
</g>
</g>
<!-- Node4&#45;&gt;Node5 -->
<g id="edge4_Node000004_Node000005" class="edge">
<title>Node4&#45;&gt;Node5</title>
<g id="a_edge4_Node000004_Node000005"><a xlink:title=" ">
<path fill="none" stroke="#63b8ff" d="M897.16,-185.62C865.55,-175.48 814.95,-159.25 779.59,-147.9"/>
<polygon fill="#63b8ff" stroke="#63b8ff" points="780.73,-144.59 770.14,-144.87 778.59,-151.26 780.73,-144.59"/>
</a>
</g>
</g>
<!-- Node7 -->
<g id="Node000007" class="node">
<title>Node7</title>
<g id="a_Node000007"><a xlink:title=" ">
<polygon fill="#e0e0e0" stroke="#999999" points="1019.75,-20 925,-20 925,0 1019.75,0 1019.75,-20"/>
<text xml:space="preserve" text-anchor="middle" x="972.38" y="-6.5" font-family="Helvetica,sans-Serif" font-size="10.00">boost/pfr/core.hpp</text>
</a>
</g>
</g>
<!-- Node4&#45;&gt;Node7 -->
<g id="edge22_Node000004_Node000007" class="edge">
<title>Node4&#45;&gt;Node7</title>
<g id="a_edge22_Node000004_Node000007"><a xlink:title=" ">
<path fill="none" stroke="#63b8ff" d="M927.76,-185.75C929.86,-172.13 934.18,-145.95 939.38,-124 947.17,-91.11 958.66,-53.56 965.83,-31.09"/>
<polygon fill="#63b8ff" stroke="#63b8ff" points="969.11,-32.32 968.84,-21.73 962.44,-30.17 969.11,-32.32"/>
</a>
</g>
</g>
<!-- Node8 -->
<g id="Node000008" class="node">
<title>Node8</title>
<g id="a_Node000008"><a xlink:title=" ">
<polygon fill="#e0e0e0" stroke="#999999" points="1133,-20 1093.75,-20 1093.75,0 1133,0 1133,-20"/>
<text xml:space="preserve" text-anchor="middle" x="1113.38" y="-6.5" font-family="Helvetica,sans-Serif" font-size="10.00">utility</text>
</a>
</g>
</g>
<!-- Node4&#45;&gt;Node8 -->
<g id="edge25_Node000004_Node000008" class="edge">
<title>Node4&#45;&gt;Node8</title>
<g id="a_edge25_Node000004_Node000008"><a xlink:title=" ">
<path fill="none" stroke="#63b8ff" d="M971.56,-190.77C1028.26,-184.41 1120.62,-170.26 1141.38,-144 1165.63,-113.32 1152.12,-93.61 1141.38,-56 1138.67,-46.53 1133.33,-37.11 1128.03,-29.35"/>
<polygon fill="#63b8ff" stroke="#63b8ff" points="1130.97,-27.44 1122.21,-21.47 1125.33,-31.59 1130.97,-27.44"/>
</a>
</g>
</g>
<!-- Node20 -->
<g id="Node000020" class="node">
<title>Node20</title>
<g id="a_Node000020"><a xlink:href="concepts_8hpp.html" target="_top" xlink:title=" ">
<polygon fill="white" stroke="#666666" points="1132.62,-144 1058.12,-144 1058.12,-124 1132.62,-124 1132.62,-144"/>
<text xml:space="preserve" text-anchor="middle" x="1095.38" y="-130.5" font-family="Helvetica,sans-Serif" font-size="10.00">concepts.hpp</text>
</a>
</g>
</g>
<!-- Node4&#45;&gt;Node20 -->
<g id="edge20_Node000004_Node000020" class="edge">
<title>Node4&#45;&gt;Node20</title>
<g id="a_edge20_Node000004_Node000020"><a xlink:title=" ">
<path fill="none" stroke="#63b8ff" d="M952.78,-185.62C981.1,-175.57 1026.29,-159.53 1058.19,-148.2"/>
<polygon fill="#63b8ff" stroke="#63b8ff" points="1059.2,-151.56 1067.45,-144.91 1056.85,-144.96 1059.2,-151.56"/>
</a>
</g>
</g>
<!-- Node21 -->
<g id="Node000021" class="node">
<title>Node21</title>
<g id="a_Node000021"><a xlink:title=" ">
<polygon fill="#e0e0e0" stroke="#999999" points="1040.25,-144 948.5,-144 948.5,-124 1040.25,-124 1040.25,-144"/>
<text xml:space="preserve" text-anchor="middle" x="994.38" y="-130.5" font-family="Helvetica,sans-Serif" font-size="10.00">boost/pfr/ops.hpp</text>
</a>
</g>
</g>
<!-- Node4&#45;&gt;Node21 -->
<g id="edge23_Node000004_Node000021" class="edge">
<title>Node4&#45;&gt;Node21</title>
<g id="a_edge23_Node000004_Node000021"><a xlink:title=" ">
<path fill="none" stroke="#63b8ff" d="M937,-185.62C947.34,-176.5 963.27,-162.45 975.72,-151.46"/>
<polygon fill="#63b8ff" stroke="#63b8ff" points="977.73,-154.35 982.91,-145.11 973.1,-149.11 977.73,-154.35"/>
</a>
</g>
</g>
<!-- Node4&#45;&gt;Node22 -->
<g id="edge24_Node000004_Node000022" class="edge">
<title>Node4&#45;&gt;Node22</title>
<g id="a_edge24_Node000004_Node000022"><a xlink:title=" ">
<path fill="none" stroke="#63b8ff" d="M881.56,-186.82C866.32,-184.29 849.15,-181.72 833.38,-180 565.99,-150.83 245.04,-139.88 112.39,-136.4"/>
<polygon fill="#63b8ff" stroke="#63b8ff" points="112.51,-132.91 102.42,-136.15 112.33,-139.9 112.51,-132.91"/>
</a>
</g>
</g>
<!-- Node6 -->
<g id="Node000006" class="node">
<title>Node6</title>
<g id="a_Node000006"><a xlink:href="model__base__concepts_8hpp.html" target="_top" xlink:title=" ">
<polygon fill="white" stroke="#666666" points="1132.5,-82 1000.25,-82 1000.25,-62 1132.5,-62 1132.5,-82"/>
<text xml:space="preserve" text-anchor="middle" x="1066.38" y="-68.5" font-family="Helvetica,sans-Serif" font-size="10.00">model_base_concepts.hpp</text>
</a>
</g>
</g>
<!-- Node5&#45;&gt;Node6 -->
<g id="edge5_Node000005_Node000006" class="edge">
<title>Node5&#45;&gt;Node6</title>
<g id="a_edge5_Node000005_Node000006"><a xlink:title=" ">
<path fill="none" stroke="#63b8ff" d="M782.12,-125.16C838.67,-114.78 938.74,-96.42 1003.8,-84.48"/>
<polygon fill="#63b8ff" stroke="#63b8ff" points="1004.03,-88 1013.23,-82.75 1002.77,-81.11 1004.03,-88"/>
</a>
</g>
</g>
<!-- Node5&#45;&gt;Node7 -->
<g id="edge12_Node000005_Node000007" class="edge">
<title>Node5&#45;&gt;Node7</title>
<g id="a_edge12_Node000005_Node000007"><a xlink:title=" ">
<path fill="none" stroke="#63b8ff" d="M782.1,-130.13C819.93,-125.81 875.2,-115.01 915.38,-88 936.88,-73.54 953.32,-48.17 962.89,-30.52"/>
<polygon fill="#63b8ff" stroke="#63b8ff" points="965.91,-32.3 967.37,-21.8 959.69,-29.1 965.91,-32.3"/>
</a>
</g>
</g>
<!-- Node9 -->
<g id="Node000009" class="node">
<title>Node9</title>
<g id="a_Node000009"><a xlink:href="str__conv_8hpp.html" target="_top" xlink:title=" ">
<polygon fill="white" stroke="#666666" points="1286.25,-82 1188.5,-82 1188.5,-62 1286.25,-62 1286.25,-82"/>
<text xml:space="preserve" text-anchor="middle" x="1237.38" y="-68.5" font-family="Helvetica,sans-Serif" font-size="10.00">utility/str_conv.hpp</text>
</a>
</g>
</g>
<!-- Node5&#45;&gt;Node9 -->
<g id="edge8_Node000005_Node000009" class="edge">
<title>Node5&#45;&gt;Node9</title>
<g id="a_edge8_Node000005_Node000009"><a xlink:title=" ">
<path fill="none" stroke="#63b8ff" d="M782.29,-128.82C855.88,-121.5 1010.87,-105.49 1141.38,-88 1152.9,-86.45 1165.19,-84.65 1176.98,-82.85"/>
<polygon fill="#63b8ff" stroke="#63b8ff" points="1177.26,-86.35 1186.61,-81.35 1176.19,-79.43 1177.26,-86.35"/>
</a>
</g>
</g>
<!-- Node12 -->
<g id="Node000012" class="node">
<title>Node12</title>
<g id="a_Node000012"><a xlink:title=" ">
<polygon fill="#e0e0e0" stroke="#999999" points="671,-88 565.75,-88 565.75,-56 671,-56 671,-88"/>
<text xml:space="preserve" text-anchor="start" x="573.75" y="-74.5" font-family="Helvetica,sans-Serif" font-size="10.00">boost/archive/basic</text>
<text xml:space="preserve" text-anchor="middle" x="618.38" y="-62.5" font-family="Helvetica,sans-Serif" font-size="10.00">_binary_iarchive.hpp</text>
</a>
</g>
</g>
<!-- Node5&#45;&gt;Node12 -->
<g id="edge11_Node000005_Node000012" class="edge">
<title>Node5&#45;&gt;Node12</title>
<g id="a_edge11_Node000005_Node000012"><a xlink:title=" ">
<path fill="none" stroke="#63b8ff" d="M720.47,-123.62C704.21,-115.56 680.17,-103.64 659.51,-93.4"/>
<polygon fill="#63b8ff" stroke="#63b8ff" points="661.25,-90.35 650.73,-89.05 658.14,-96.62 661.25,-90.35"/>
</a>
</g>
</g>
<!-- Node5&#45;&gt;Node13 -->
<g id="edge13_Node000005_Node000013" class="edge">
<title>Node5&#45;&gt;Node13</title>
<g id="a_edge13_Node000005_Node000013"><a xlink:title=" ">
<path fill="none" stroke="#63b8ff" d="M696.48,-125.85C691.73,-125.17 686.95,-124.54 682.38,-124 477.08,-100 419.77,-122.55 213.43,-88.33"/>
<polygon fill="#63b8ff" stroke="#63b8ff" points="214.14,-84.9 203.7,-86.69 212.98,-91.8 214.14,-84.9"/>
</a>
</g>
</g>
<!-- Node14 -->
<g id="Node000014" class="node">
<title>Node14</title>
<g id="a_Node000014"><a xlink:title=" ">
<polygon fill="#e0e0e0" stroke="#999999" points="783.75,-88 689,-88 689,-56 783.75,-56 783.75,-88"/>
<text xml:space="preserve" text-anchor="start" x="697" y="-74.5" font-family="Helvetica,sans-Serif" font-size="10.00">boost/serialization</text>
<text xml:space="preserve" text-anchor="middle" x="736.38" y="-62.5" font-family="Helvetica,sans-Serif" font-size="10.00">/optional.hpp</text>
</a>
</g>
</g>
<!-- Node5&#45;&gt;Node14 -->
<g id="edge14_Node000005_Node000014" class="edge">
<title>Node5&#45;&gt;Node14</title>
<g id="a_edge14_Node000005_Node000014"><a xlink:title=" ">
<path fill="none" stroke="#63b8ff" d="M738.91,-123.62C738.58,-117.1 738.13,-108.05 737.7,-99.4"/>
<polygon fill="#63b8ff" stroke="#63b8ff" points="741.2,-99.46 737.21,-89.65 734.21,-99.81 741.2,-99.46"/>
</a>
</g>
</g>
<!-- Node15 -->
<g id="Node000015" class="node">
<title>Node15</title>
<g id="a_Node000015"><a xlink:title=" ">
<polygon fill="#e0e0e0" stroke="#999999" points="906.62,-88 802.12,-88 802.12,-56 906.62,-56 906.62,-88"/>
<text xml:space="preserve" text-anchor="start" x="810.12" y="-74.5" font-family="Helvetica,sans-Serif" font-size="10.00">boost/serialization</text>
<text xml:space="preserve" text-anchor="middle" x="854.38" y="-62.5" font-family="Helvetica,sans-Serif" font-size="10.00">/unordered_map.hpp</text>
</a>
</g>
</g>
<!-- Node5&#45;&gt;Node15 -->
<g id="edge15_Node000005_Node000015" class="edge">
<title>Node5&#45;&gt;Node15</title>
<g id="a_edge15_Node000005_Node000015"><a xlink:title=" ">
<path fill="none" stroke="#63b8ff" d="M757.34,-123.62C772.66,-115.63 795.22,-103.86 814.74,-93.68"/>
<polygon fill="#63b8ff" stroke="#63b8ff" points="816.32,-96.8 823.57,-89.07 813.08,-90.6 816.32,-96.8"/>
</a>
</g>
</g>
<!-- Node16 -->
<g id="Node000016" class="node">
<title>Node16</title>
<g id="a_Node000016"><a xlink:title=" ">
<polygon fill="#e0e0e0" stroke="#999999" points="319,-88 219.75,-88 219.75,-56 319,-56 319,-88"/>
<text xml:space="preserve" text-anchor="start" x="227.75" y="-74.5" font-family="Helvetica,sans-Serif" font-size="10.00">boost/serialization</text>
<text xml:space="preserve" text-anchor="middle" x="269.38" y="-62.5" font-family="Helvetica,sans-Serif" font-size="10.00">/unordered_set.hpp</text>
</a>
</g>
</g>
<!-- Node5&#45;&gt;Node16 -->
<g id="edge16_Node000005_Node000016" class="edge">
<title>Node5&#45;&gt;Node16</title>
<g id="a_edge16_Node000005_Node000016"><a xlink:title=" ">
<path fill="none" stroke="#63b8ff" d="M696.46,-125.96C691.71,-125.26 686.95,-124.59 682.38,-124 529.07,-104.12 486.02,-115.04 330.39,-88.19"/>
<polygon fill="#63b8ff" stroke="#63b8ff" points="331.42,-84.81 320.97,-86.54 330.21,-91.71 331.42,-84.81"/>
</a>
</g>
</g>
<!-- Node17 -->
<g id="Node000017" class="node">
<title>Node17</title>
<g id="a_Node000017"><a xlink:title=" ">
<polygon fill="#e0e0e0" stroke="#999999" points="431.75,-88 337,-88 337,-56 431.75,-56 431.75,-88"/>
<text xml:space="preserve" text-anchor="start" x="345" y="-74.5" font-family="Helvetica,sans-Serif" font-size="10.00">boost/serialization</text>
<text xml:space="preserve" text-anchor="middle" x="384.38" y="-62.5" font-family="Helvetica,sans-Serif" font-size="10.00">/vector.hpp</text>
</a>
</g>
</g>
<!-- Node5&#45;&gt;Node17 -->
<g id="edge17_Node000005_Node000017" class="edge">
<title>Node5&#45;&gt;Node17</title>
<g id="a_edge17_Node000005_Node000017"><a xlink:title=" ">
<path fill="none" stroke="#63b8ff" d="M696.43,-126.18C691.69,-125.44 686.93,-124.7 682.38,-124 578.46,-108.07 548.79,-109.95 443.11,-88.44"/>
<polygon fill="#63b8ff" stroke="#63b8ff" points="443.93,-85.03 433.43,-86.44 442.52,-91.89 443.93,-85.03"/>
</a>
</g>
</g>
<!-- Node18 -->
<g id="Node000018" class="node">
<title>Node18</title>
<g id="a_Node000018"><a xlink:title=" ">
<polygon fill="#e0e0e0" stroke="#999999" points="493.25,-82 449.5,-82 449.5,-62 493.25,-62 493.25,-82"/>
<text xml:space="preserve" text-anchor="middle" x="471.38" y="-68.5" font-family="Helvetica,sans-Serif" font-size="10.00">format</text>
</a>
</g>
</g>
<!-- Node5&#45;&gt;Node18 -->
<g id="edge18_Node000005_Node000018" class="edge">
<title>Node5&#45;&gt;Node18</title>
<g id="a_edge18_Node000005_Node000018"><a xlink:title=" ">
<path fill="none" stroke="#63b8ff" d="M696.54,-125.56C633.08,-114.45 519.58,-94.14 501.38,-88 500.41,-87.67 499.44,-87.32 498.46,-86.95"/>
<polygon fill="#63b8ff" stroke="#63b8ff" points="500.1,-83.85 489.54,-83.02 497.28,-90.26 500.1,-83.85"/>
</a>
</g>
</g>
<!-- Node19 -->
<g id="Node000019" class="node">
<title>Node19</title>
<g id="a_Node000019"><a xlink:title=" ">
<polygon fill="#e0e0e0" stroke="#999999" points="547.88,-82 510.88,-82 510.88,-62 547.88,-62 547.88,-82"/>
<text xml:space="preserve" text-anchor="middle" x="529.38" y="-68.5" font-family="Helvetica,sans-Serif" font-size="10.00">tuple</text>
</a>
</g>
</g>
<!-- Node5&#45;&gt;Node19 -->
<g id="edge19_Node000005_Node000019" class="edge">
<title>Node5&#45;&gt;Node19</title>
<g id="a_edge19_Node000005_Node000019"><a xlink:title=" ">
<path fill="none" stroke="#63b8ff" d="M696.6,-125.82C658.87,-118.71 602.82,-106.23 556.38,-88 555.89,-87.81 555.4,-87.61 554.91,-87.41"/>
<polygon fill="#63b8ff" stroke="#63b8ff" points="556.62,-84.35 546.1,-83.12 553.56,-90.64 556.62,-84.35"/>
</a>
</g>
</g>
<!-- Node6&#45;&gt;Node7 -->
<g id="edge6_Node000006_Node000007" class="edge">
<title>Node6&#45;&gt;Node7</title>
<g id="a_edge6_Node000006_Node000007"><a xlink:title=" ">
<path fill="none" stroke="#63b8ff" d="M1051.69,-61.62C1036.93,-52.2 1013.92,-37.52 996.48,-26.39"/>
<polygon fill="#63b8ff" stroke="#63b8ff" points="998.55,-23.55 988.24,-21.12 994.78,-29.45 998.55,-23.55"/>
</a>
</g>
</g>
<!-- Node6&#45;&gt;Node8 -->
<g id="edge7_Node000006_Node000008" class="edge">
<title>Node6&#45;&gt;Node8</title>
<g id="a_edge7_Node000006_Node000008"><a xlink:title=" ">
<path fill="none" stroke="#63b8ff" d="M1073.72,-61.62C1080.52,-52.94 1090.82,-39.8 1099.21,-29.08"/>
<polygon fill="#63b8ff" stroke="#63b8ff" points="1101.89,-31.33 1105.3,-21.3 1096.38,-27.02 1101.89,-31.33"/>
</a>
</g>
</g>
<!-- Node10 -->
<g id="Node000010" class="node">
<title>Node10</title>
<g id="a_Node000010"><a xlink:title=" ">
<polygon fill="#e0e0e0" stroke="#999999" points="1334.38,-20 1294.38,-20 1294.38,0 1334.38,0 1334.38,-20"/>
<text xml:space="preserve" text-anchor="middle" x="1314.38" y="-6.5" font-family="Helvetica,sans-Serif" font-size="10.00">string</text>
</a>
</g>
</g>
<!-- Node9&#45;&gt;Node10 -->
<g id="edge9_Node000009_Node000010" class="edge">
<title>Node9&#45;&gt;Node10</title>
<g id="a_edge9_Node000009_Node000010"><a xlink:title=" ">
<path fill="none" stroke="#63b8ff" d="M1249.41,-61.62C1261.16,-52.47 1279.29,-38.34 1293.42,-27.33"/>
<polygon fill="#63b8ff" stroke="#63b8ff" points="1295.5,-30.15 1301.23,-21.24 1291.2,-24.63 1295.5,-30.15"/>
</a>
</g>
</g>
<!-- Node11 -->
<g id="Node000011" class="node">
<title>Node11</title>
<g id="a_Node000011"><a xlink:title=" ">
<polygon fill="#e0e0e0" stroke="#999999" points="1270.12,-20 1204.62,-20 1204.62,0 1270.12,0 1270.12,-20"/>
<text xml:space="preserve" text-anchor="middle" x="1237.38" y="-6.5" font-family="Helvetica,sans-Serif" font-size="10.00">string_view</text>
</a>
</g>
</g>
<!-- Node9&#45;&gt;Node11 -->
<g id="edge10_Node000009_Node000011" class="edge">
<title>Node9&#45;&gt;Node11</title>
<g id="a_edge10_Node000009_Node000011"><a xlink:title=" ">
<path fill="none" stroke="#63b8ff" d="M1237.38,-61.62C1237.38,-53.56 1237.38,-41.65 1237.38,-31.41"/>
<polygon fill="#63b8ff" stroke="#63b8ff" points="1240.88,-31.63 1237.38,-21.63 1233.88,-31.63 1240.88,-31.63"/>
</a>
</g>
</g>
<!-- Node20&#45;&gt;Node6 -->
<g id="edge21_Node000020_Node000006" class="edge">
<title>Node20&#45;&gt;Node6</title>
<g id="a_edge21_Node000020_Node000006"><a xlink:title=" ">
<path fill="none" stroke="#63b8ff" d="M1090.84,-123.62C1086.82,-115.3 1080.81,-102.86 1075.75,-92.4"/>
<polygon fill="#63b8ff" stroke="#63b8ff" points="1078.94,-90.96 1071.44,-83.48 1072.64,-94 1078.94,-90.96"/>
</a>
</g>
</g>
<!-- Node29 -->
<g id="Node000029" class="node">
<title>Node29</title>
<g id="a_Node000029"><a xlink:href="app__command__ids_8hpp.html" target="_top" xlink:title=" ">
<polygon fill="white" stroke="#666666" points="590.62,-404 474.12,-404 474.12,-384 590.62,-384 590.62,-404"/>
<text xml:space="preserve" text-anchor="middle" x="532.38" y="-390.5" font-family="Helvetica,sans-Serif" font-size="10.00">app_command_ids.hpp</text>
</a>
</g>
</g>
<!-- Node28&#45;&gt;Node29 -->
<g id="edge34_Node000028_Node000029" class="edge">
<title>Node28&#45;&gt;Node29</title>
<g id="a_edge34_Node000028_Node000029"><a xlink:title=" ">
<path fill="none" stroke="#63b8ff" d="M741.02,-439.53C698.34,-430.42 633.68,-416.62 587.66,-406.8"/>
<polygon fill="#63b8ff" stroke="#63b8ff" points="588.67,-403.44 578.16,-404.77 587.21,-410.28 588.67,-403.44"/>
</a>
</g>
</g>
<!-- Node31 -->
<g id="Node000031" class="node">
<title>Node31</title>
<g id="a_Node000031"><a xlink:href="radialmenu__centralitem_8hpp.html" target="_top" xlink:title=" ">
<polygon fill="white" stroke="#666666" points="782,-404 646.75,-404 646.75,-384 782,-384 782,-404"/>
<text xml:space="preserve" text-anchor="middle" x="714.38" y="-390.5" font-family="Helvetica,sans-Serif" font-size="10.00">radialmenu_centralitem.hpp</text>
</a>
</g>
</g>
<!-- Node28&#45;&gt;Node31 -->
<g id="edge38_Node000028_Node000031" class="edge">
<title>Node28&#45;&gt;Node31</title>
<g id="a_edge38_Node000028_Node000031"><a xlink:title=" ">
<path fill="none" stroke="#63b8ff" d="M773.01,-439.59C762.73,-431.77 747.86,-420.46 735.66,-411.19"/>
<polygon fill="#63b8ff" stroke="#63b8ff" points="737.88,-408.48 727.81,-405.21 733.65,-414.05 737.88,-408.48"/>
</a>
</g>
</g>
<!-- Node34 -->
<g id="Node000034" class="node">
<title>Node34</title>
<g id="a_Node000034"><a xlink:href="menu__ids_8hpp.html" target="_top" xlink:title=" ">
<polygon fill="white" stroke="#666666" points="692.75,-342 616,-342 616,-322 692.75,-322 692.75,-342"/>
<text xml:space="preserve" text-anchor="middle" x="654.38" y="-328.5" font-family="Helvetica,sans-Serif" font-size="10.00">menu_ids.hpp</text>
</a>
</g>
</g>
<!-- Node28&#45;&gt;Node34 -->
<g id="edge66_Node000028_Node000034" class="edge">
<title>Node28&#45;&gt;Node34</title>
<g id="a_edge66_Node000028_Node000034"><a xlink:title=" ">
<path fill="none" stroke="#63b8ff" d="M711.49,-444.63C683.68,-438.95 654.65,-427.3 637.38,-404 626.09,-388.78 633.78,-367.12 642.14,-351.74"/>
<polygon fill="#63b8ff" stroke="#63b8ff" points="644.91,-353.92 647.03,-343.54 638.9,-350.34 644.91,-353.92"/>
</a>
</g>
</g>
<!-- Node36 -->
<g id="Node000036" class="node">
<title>Node36</title>
<g id="a_Node000036"><a xlink:href="radialmenu__item_8hpp.html" target="_top" xlink:title="メニューアイテム DomainEntity">
<polygon fill="white" stroke="#666666" points="1163.38,-404 1057.38,-404 1057.38,-384 1163.38,-384 1163.38,-404"/>
<text xml:space="preserve" text-anchor="middle" x="1110.38" y="-390.5" font-family="Helvetica,sans-Serif" font-size="10.00">radialmenu_item.hpp</text>
</a>
</g>
</g>
<!-- Node28&#45;&gt;Node36 -->
<g id="edge53_Node000028_Node000036" class="edge">
<title>Node28&#45;&gt;Node36</title>
<g id="a_edge53_Node000028_Node000036"><a xlink:title=" ">
<path fill="none" stroke="#63b8ff" d="M842.36,-439.53C899.22,-430.08 986.46,-415.59 1045.85,-405.72"/>
<polygon fill="#63b8ff" stroke="#63b8ff" points="1046.18,-409.21 1055.47,-404.12 1045.03,-402.31 1046.18,-409.21"/>
</a>
</g>
</g>
<!-- Node41 -->
<g id="Node000041" class="node">
<title>Node41</title>
<g id="a_Node000041"><a xlink:href="entity_8hpp.html" target="_top" xlink:title=" ">
<polygon fill="white" stroke="#666666" points="914.5,-404 800.25,-404 800.25,-384 914.5,-384 914.5,-404"/>
<text xml:space="preserve" text-anchor="middle" x="857.38" y="-390.5" font-family="Helvetica,sans-Serif" font-size="10.00">core/domain/entity.hpp</text>
</a>
</g>
</g>
<!-- Node28&#45;&gt;Node41 -->
<g id="edge64_Node000028_Node000041" class="edge">
<title>Node28&#45;&gt;Node41</title>
<g id="a_edge64_Node000028_Node000041"><a xlink:title=" ">
<path fill="none" stroke="#63b8ff" d="M797.92,-439.59C808.34,-431.77 823.42,-420.46 835.79,-411.19"/>
<polygon fill="#63b8ff" stroke="#63b8ff" points="837.87,-414.01 843.77,-405.21 833.67,-408.41 837.87,-414.01"/>
</a>
</g>
</g>
<!-- Node42 -->
<g id="Node000042" class="node">
<title>Node42</title>
<g id="a_Node000042"><a xlink:title=" ">
<polygon fill="#e0e0e0" stroke="#999999" points="978,-404 932.75,-404 932.75,-384 978,-384 978,-404"/>
<text xml:space="preserve" text-anchor="middle" x="955.38" y="-390.5" font-family="Helvetica,sans-Serif" font-size="10.00">ranges</text>
</a>
</g>
</g>
<!-- Node28&#45;&gt;Node42 -->
<g id="edge67_Node000028_Node000042" class="edge">
<title>Node28&#45;&gt;Node42</title>
<g id="a_edge67_Node000028_Node000042"><a xlink:title=" ">
<path fill="none" stroke="#63b8ff" d="M814.99,-439.59C844.73,-430.15 890.48,-415.61 921.61,-405.72"/>
<polygon fill="#63b8ff" stroke="#63b8ff" points="922.45,-409.13 930.92,-402.77 920.33,-402.46 922.45,-409.13"/>
</a>
</g>
</g>
<!-- Node43 -->
<g id="Node000043" class="node">
<title>Node43</title>
<g id="a_Node000043"><a xlink:title=" ">
<polygon fill="#e0e0e0" stroke="#999999" points="1038.88,-404 995.88,-404 995.88,-384 1038.88,-384 1038.88,-404"/>
<text xml:space="preserve" text-anchor="middle" x="1017.38" y="-390.5" font-family="Helvetica,sans-Serif" font-size="10.00">vector</text>
</a>
</g>
</g>
<!-- Node28&#45;&gt;Node43 -->
<g id="edge68_Node000028_Node000043" class="edge">
<title>Node28&#45;&gt;Node43</title>
<g id="a_edge68_Node000028_Node000043"><a xlink:title=" ">
<path fill="none" stroke="#63b8ff" d="M832.14,-439.58C870.74,-431.59 927.18,-419.38 984.4,-404.65"/>
<polygon fill="#63b8ff" stroke="#63b8ff" points="985.21,-408.06 994.01,-402.15 983.45,-401.28 985.21,-408.06"/>
</a>
</g>
</g>
<!-- Node29&#45;&gt;Node4 -->
<g id="edge37_Node000029_Node000004" class="edge">
<title>Node29&#45;&gt;Node4</title>
<g id="a_edge37_Node000029_Node000004"><a xlink:title=" ">
<path fill="none" stroke="#63b8ff" d="M539.22,-383.64C551.31,-367.71 577.99,-335.16 607.38,-316 692.33,-260.61 806.7,-226.01 872.89,-209.22"/>
<polygon fill="#63b8ff" stroke="#63b8ff" points="873.56,-212.66 882.42,-206.85 871.87,-205.87 873.56,-212.66"/>
</a>
</g>
</g>
<!-- Node30 -->
<g id="Node000030" class="node">
<title>Node30</title>
<g id="a_Node000030"><a xlink:href="command__ids_8hpp.html" target="_top" xlink:title=" ">
<polygon fill="white" stroke="#666666" points="522.5,-348 378.25,-348 378.25,-316 522.5,-316 522.5,-348"/>
<text xml:space="preserve" text-anchor="start" x="386.25" y="-334.5" font-family="Helvetica,sans-Serif" font-size="10.00">core/domain/model/command</text>
<text xml:space="preserve" text-anchor="middle" x="450.38" y="-322.5" font-family="Helvetica,sans-Serif" font-size="10.00">/command_ids.hpp</text>
</a>
</g>
</g>
<!-- Node29&#45;&gt;Node30 -->
<g id="edge35_Node000029_Node000030" class="edge">
<title>Node29&#45;&gt;Node30</title>
<g id="a_edge35_Node000029_Node000030"><a xlink:title=" ">
<path fill="none" stroke="#63b8ff" d="M519.56,-383.62C509.1,-375.97 493.88,-364.83 480.38,-354.95"/>
<polygon fill="#63b8ff" stroke="#63b8ff" points="482.74,-352.35 472.61,-349.27 478.61,-358 482.74,-352.35"/>
</a>
</g>
</g>
<!-- Node30&#45;&gt;Node3 -->
<g id="edge36_Node000030_Node000003" class="edge">
<title>Node30&#45;&gt;Node3</title>
<g id="a_edge36_Node000030_Node000003"><a xlink:title=" ">
<path fill="none" stroke="#63b8ff" d="M478.28,-315.53C497.63,-304.79 523.28,-290.56 542.43,-279.94"/>
<polygon fill="#63b8ff" stroke="#63b8ff" points="543.95,-283.11 550.99,-275.19 540.55,-276.98 543.95,-283.11"/>
</a>
</g>
</g>
<!-- Node31&#45;&gt;Node22 -->
<g id="edge52_Node000031_Node000022" class="edge">
<title>Node31&#45;&gt;Node22</title>
<g id="a_edge52_Node000031_Node000022"><a xlink:title=" ">
<path fill="none" stroke="#63b8ff" d="M691.83,-383.52C670.17,-374.42 636.54,-360.27 607.38,-348 573.59,-333.78 566.33,-327.02 531.38,-316 321.94,-250 186.34,-382.83 48.38,-212 35.66,-196.26 38.67,-172.23 43.26,-155.21"/>
<polygon fill="#63b8ff" stroke="#63b8ff" points="46.59,-156.31 46.23,-145.72 39.91,-154.22 46.59,-156.31"/>
</a>
</g>
</g>
<!-- Node32 -->
<g id="Node000032" class="node">
<title>Node32</title>
<g id="a_Node000032"><a xlink:href="model_2entity_8hpp.html" target="_top" xlink:title=" ">
<polygon fill="white" stroke="#666666" points="989.12,-342 845.62,-342 845.62,-322 989.12,-322 989.12,-342"/>
<text xml:space="preserve" text-anchor="middle" x="917.38" y="-328.5" font-family="Helvetica,sans-Serif" font-size="10.00">core/domain/model/entity.hpp</text>
</a>
</g>
</g>
<!-- Node31&#45;&gt;Node32 -->
<g id="edge39_Node000031_Node000032" class="edge">
<title>Node31&#45;&gt;Node32</title>
<g id="a_edge39_Node000031_Node000032"><a xlink:title=" ">
<path fill="none" stroke="#63b8ff" d="M746.09,-383.62C780.7,-373.4 836.29,-356.97 874.71,-345.61"/>
<polygon fill="#63b8ff" stroke="#63b8ff" points="875.5,-349.03 884.09,-342.84 873.51,-342.32 875.5,-349.03"/>
</a>
</g>
</g>
<!-- Node33 -->
<g id="Node000033" class="node">
<title>Node33</title>
<g id="a_Node000033"><a xlink:href="action__ids_8hpp.html" target="_top" xlink:title=" ">
<polygon fill="white" stroke="#666666" points="828,-342 710.75,-342 710.75,-322 828,-322 828,-342"/>
<text xml:space="preserve" text-anchor="middle" x="769.38" y="-328.5" font-family="Helvetica,sans-Serif" font-size="10.00">../action/action_ids.hpp</text>
</a>
</g>
</g>
<!-- Node31&#45;&gt;Node33 -->
<g id="edge44_Node000031_Node000033" class="edge">
<title>Node31&#45;&gt;Node33</title>
<g id="a_edge44_Node000031_Node000033"><a xlink:title=" ">
<path fill="none" stroke="#63b8ff" d="M722.97,-383.62C731.09,-374.77 743.47,-361.26 753.4,-350.43"/>
<polygon fill="#63b8ff" stroke="#63b8ff" points="755.82,-352.97 760,-343.23 750.66,-348.23 755.82,-352.97"/>
</a>
</g>
</g>
<!-- Node31&#45;&gt;Node34 -->
<g id="edge46_Node000031_Node000034" class="edge">
<title>Node31&#45;&gt;Node34</title>
<g id="a_edge46_Node000031_Node000034"><a xlink:title=" ">
<path fill="none" stroke="#63b8ff" d="M705,-383.62C696.05,-374.68 682.36,-360.99 671.48,-350.1"/>
<polygon fill="#63b8ff" stroke="#63b8ff" points="674.1,-347.78 664.56,-343.18 669.15,-352.73 674.1,-347.78"/>
</a>
</g>
</g>
<!-- Node35 -->
<g id="Node000035" class="node">
<title>Node35</title>
<g id="a_Node000035"><a xlink:href="radialmenu__label_8hpp.html" target="_top" xlink:title=" ">
<polygon fill="white" stroke="#666666" points="1228.12,-274 1120.62,-274 1120.62,-254 1228.12,-254 1228.12,-274"/>
<text xml:space="preserve" text-anchor="middle" x="1174.38" y="-260.5" font-family="Helvetica,sans-Serif" font-size="10.00">radialmenu_label.hpp</text>
</a>
</g>
</g>
<!-- Node31&#45;&gt;Node35 -->
<g id="edge48_Node000031_Node000035" class="edge">
<title>Node31&#45;&gt;Node35</title>
<g id="a_edge48_Node000031_Node000035"><a xlink:title=" ">
<path fill="none" stroke="#63b8ff" d="M782.24,-384.5C853.06,-375.22 959.14,-360.09 998.38,-348 1054.31,-330.76 1115.14,-298.84 1148.63,-280.01"/>
<polygon fill="#63b8ff" stroke="#63b8ff" points="1150.22,-283.13 1157.18,-275.14 1146.76,-277.04 1150.22,-283.13"/>
</a>
</g>
</g>
<!-- Node32&#45;&gt;Node3 -->
<g id="edge41_Node000032_Node000003" class="edge">
<title>Node32&#45;&gt;Node3</title>
<g id="a_edge41_Node000032_Node000003"><a xlink:title=" ">
<path fill="none" stroke="#63b8ff" d="M867.52,-321.54C801.96,-309.11 687.34,-287.37 620.95,-274.78"/>
<polygon fill="#63b8ff" stroke="#63b8ff" points="621.89,-271.4 611.41,-272.97 620.59,-278.27 621.89,-271.4"/>
</a>
</g>
</g>
<!-- Node32&#45;&gt;Node4 -->
<g id="edge43_Node000032_Node000004" class="edge">
<title>Node32&#45;&gt;Node4</title>
<g id="a_edge43_Node000032_Node000004"><a xlink:title=" ">
<path fill="none" stroke="#63b8ff" d="M917.99,-321.79C919.43,-300.47 923,-247.27 924.99,-217.68"/>
<polygon fill="#63b8ff" stroke="#63b8ff" points="928.47,-218 925.65,-207.78 921.49,-217.53 928.47,-218"/>
</a>
</g>
</g>
<!-- Node32&#45;&gt;Node5 -->
<g id="edge42_Node000032_Node000005" class="edge">
<title>Node32&#45;&gt;Node5</title>
<g id="a_edge42_Node000032_Node000005"><a xlink:title=" ">
<path fill="none" stroke="#63b8ff" d="M914.42,-321.57C905.87,-295.72 878.83,-222.75 833.38,-180 818.64,-166.14 798.85,-155.8 781.23,-148.56"/>
<polygon fill="#63b8ff" stroke="#63b8ff" points="782.6,-145.34 772.01,-144.99 780.07,-151.86 782.6,-145.34"/>
</a>
</g>
</g>
<!-- Node32&#45;&gt;Node20 -->
<g id="edge40_Node000032_Node000020" class="edge">
<title>Node32&#45;&gt;Node20</title>
<g id="a_edge40_Node000032_Node000020"><a xlink:title=" ">
<path fill="none" stroke="#63b8ff" d="M963.22,-321.59C1003.87,-312.29 1058.97,-297.01 1073.38,-280 1103.31,-244.65 1101.81,-186.31 1098.43,-155.51"/>
<polygon fill="#63b8ff" stroke="#63b8ff" points="1101.96,-155.45 1097.2,-145.98 1095.01,-156.35 1101.96,-155.45"/>
</a>
</g>
</g>
<!-- Node33&#45;&gt;Node3 -->
<g id="edge45_Node000033_Node000003" class="edge">
<title>Node33&#45;&gt;Node3</title>
<g id="a_edge45_Node000033_Node000003"><a xlink:title=" ">
<path fill="none" stroke="#63b8ff" d="M740.72,-321.54C706.12,-310.12 647.73,-290.86 608.87,-278.03"/>
<polygon fill="#63b8ff" stroke="#63b8ff" points="610.01,-274.72 599.41,-274.91 607.81,-281.37 610.01,-274.72"/>
</a>
</g>
</g>
<!-- Node34&#45;&gt;Node3 -->
<g id="edge47_Node000034_Node000003" class="edge">
<title>Node34&#45;&gt;Node3</title>
<g id="a_edge47_Node000034_Node000003"><a xlink:title=" ">
<path fill="none" stroke="#63b8ff" d="M642.2,-321.54C628.69,-311.06 606.66,-293.95 590.36,-281.29"/>
<polygon fill="#63b8ff" stroke="#63b8ff" points="592.77,-278.74 582.73,-275.37 588.48,-284.26 592.77,-278.74"/>
</a>
</g>
</g>
<!-- Node35&#45;&gt;Node4 -->
<g id="edge49_Node000035_Node000004" class="edge">
<title>Node35&#45;&gt;Node4</title>
<g id="a_edge49_Node000035_Node000004"><a xlink:title=" ">
<path fill="none" stroke="#63b8ff" d="M1138.84,-253.54C1095.2,-241.93 1021.04,-222.19 972.89,-209.38"/>
<polygon fill="#63b8ff" stroke="#63b8ff" points="973.87,-206.02 963.3,-206.83 972.07,-212.78 973.87,-206.02"/>
</a>
</g>
</g>
<!-- Node35&#45;&gt;Node9 -->
<g id="edge50_Node000035_Node000009" class="edge">
<title>Node35&#45;&gt;Node9</title>
<g id="a_edge50_Node000035_Node000009"><a xlink:title=" ">
<path fill="none" stroke="#63b8ff" d="M1177.5,-253.58C1187.24,-224.2 1217.21,-133.81 1230.69,-93.16"/>
<polygon fill="#63b8ff" stroke="#63b8ff" points="1233.93,-94.51 1233.76,-83.92 1227.29,-92.31 1233.93,-94.51"/>
</a>
</g>
</g>
<!-- Node35&#45;&gt;Node10 -->
<g id="edge51_Node000035_Node000010" class="edge">
<title>Node35&#45;&gt;Node10</title>
<g id="a_edge51_Node000035_Node000010"><a xlink:title=" ">
<path fill="none" stroke="#63b8ff" d="M1182.86,-253.53C1204.87,-228.44 1264.25,-157.43 1295.38,-88 1303.55,-69.76 1308.57,-47.44 1311.37,-31.54"/>
<polygon fill="#63b8ff" stroke="#63b8ff" points="1314.8,-32.28 1312.93,-21.85 1307.89,-31.17 1314.8,-32.28"/>
</a>
</g>
</g>
<!-- Node36&#45;&gt;Node10 -->
<g id="edge63_Node000036_Node000010" class="edge">
<title>Node36&#45;&gt;Node10</title>
<g id="a_edge63_Node000036_Node000010"><a xlink:title=" ">
<path fill="none" stroke="#63b8ff" d="M1163.55,-393.11C1248.5,-392.14 1409.43,-385.28 1450.38,-348 1478.35,-322.52 1469.38,-302.84 1469.38,-265 1469.38,-265 1469.38,-265 1469.38,-133 1469.38,-70.49 1390.57,-35.1 1345.35,-19.93"/>
<polygon fill="#63b8ff" stroke="#63b8ff" points="1346.67,-16.68 1336.08,-16.97 1344.54,-23.35 1346.67,-16.68"/>
</a>
</g>
</g>
<!-- Node36&#45;&gt;Node32 -->
<g id="edge61_Node000036_Node000032" class="edge">
<title>Node36&#45;&gt;Node32</title>
<g id="a_edge61_Node000036_Node000032"><a xlink:title=" ">
<path fill="none" stroke="#63b8ff" d="M1080.22,-383.62C1047.46,-373.44 994.92,-357.11 958.41,-345.76"/>
<polygon fill="#63b8ff" stroke="#63b8ff" points="959.67,-342.48 949.08,-342.86 957.59,-349.17 959.67,-342.48"/>
</a>
</g>
</g>
<!-- Node36&#45;&gt;Node33 -->
<g id="edge54_Node000036_Node000033" class="edge">
<title>Node36&#45;&gt;Node33</title>
<g id="a_edge54_Node000036_Node000033"><a xlink:title=" ">
<path fill="none" stroke="#63b8ff" d="M1056.92,-385.15C1001.57,-376.81 912.69,-362.8 836.38,-348 831.44,-347.04 826.31,-345.99 821.18,-344.91"/>
<polygon fill="#63b8ff" stroke="#63b8ff" points="822.04,-341.51 811.52,-342.82 820.55,-348.35 822.04,-341.51"/>
</a>
</g>
</g>
<!-- Node36&#45;&gt;Node34 -->
<g id="edge55_Node000036_Node000034" class="edge">
<title>Node36&#45;&gt;Node34</title>
<g id="a_edge55_Node000036_Node000034"><a xlink:title=" ">
<path fill="none" stroke="#63b8ff" d="M1056.96,-385.11C1054.06,-384.72 1051.18,-384.35 1048.38,-384 894.51,-364.86 853.14,-379.74 701.38,-348 698.05,-347.3 694.62,-346.46 691.2,-345.54"/>
<polygon fill="#63b8ff" stroke="#63b8ff" points="692.5,-342.27 681.92,-342.8 690.53,-348.99 692.5,-342.27"/>
</a>
</g>
</g>
<!-- Node36&#45;&gt;Node35 -->
<g id="edge56_Node000036_Node000035" class="edge">
<title>Node36&#45;&gt;Node35</title>
<g id="a_edge56_Node000036_Node000035"><a xlink:title=" ">
<path fill="none" stroke="#63b8ff" d="M1108.29,-383.89C1105.35,-368.87 1101.46,-338.35 1112.38,-316 1119.68,-301.03 1133.68,-288.92 1146.53,-280.26"/>
<polygon fill="#63b8ff" stroke="#63b8ff" points="1148.11,-283.41 1154.72,-275.13 1144.39,-277.48 1148.11,-283.41"/>
</a>
</g>
</g>
<!-- Node37 -->
<g id="Node000037" class="node">
<title>Node37</title>
<g id="a_Node000037"><a xlink:href="colors_8hpp.html" target="_top" xlink:title=" ">
<polygon fill="white" stroke="#666666" points="1064.25,-280 954.5,-280 954.5,-248 1064.25,-248 1064.25,-280"/>
<text xml:space="preserve" text-anchor="start" x="962.5" y="-266.5" font-family="Helvetica,sans-Serif" font-size="10.00">core/domain/common</text>
<text xml:space="preserve" text-anchor="middle" x="1009.38" y="-254.5" font-family="Helvetica,sans-Serif" font-size="10.00">/colors.hpp</text>
</a>
</g>
</g>
<!-- Node36&#45;&gt;Node37 -->
<g id="edge57_Node000036_Node000037" class="edge">
<title>Node36&#45;&gt;Node37</title>
<g id="a_edge57_Node000036_Node000037"><a xlink:title=" ">
<path fill="none" stroke="#63b8ff" d="M1103.11,-383.79C1087.67,-364.22 1051.14,-317.93 1028.52,-289.26"/>
<polygon fill="#63b8ff" stroke="#63b8ff" points="1031.31,-287.14 1022.36,-281.46 1025.81,-291.48 1031.31,-287.14"/>
</a>
</g>
</g>
<!-- Node38 -->
<g id="Node000038" class="node">
<title>Node38</title>
<g id="a_Node000038"><a xlink:href="common__command__kind_8hpp.html" target="_top" xlink:title=" ">
<polygon fill="white" stroke="#666666" points="1441.62,-348 1295.12,-348 1295.12,-316 1441.62,-316 1441.62,-348"/>
<text xml:space="preserve" text-anchor="start" x="1303.12" y="-334.5" font-family="Helvetica,sans-Serif" font-size="10.00">core/domain/model/command</text>
<text xml:space="preserve" text-anchor="middle" x="1368.38" y="-322.5" font-family="Helvetica,sans-Serif" font-size="10.00">/common_command_kind.hpp</text>
</a>
</g>
</g>
<!-- Node36&#45;&gt;Node38 -->
<g id="edge59_Node000036_Node000038" class="edge">
<title>Node36&#45;&gt;Node38</title>
<g id="a_edge59_Node000036_Node000038"><a xlink:title=" ">
<path fill="none" stroke="#63b8ff" d="M1150.97,-383.56C1188.33,-374.87 1244.76,-361.75 1290.76,-351.05"/>
<polygon fill="#63b8ff" stroke="#63b8ff" points="1291.49,-354.47 1300.44,-348.8 1289.91,-347.65 1291.49,-354.47"/>
</a>
</g>
</g>
<!-- Node40 -->
<g id="Node000040" class="node">
<title>Node40</title>
<g id="a_Node000040"><a xlink:title=" ">
<polygon fill="#e0e0e0" stroke="#999999" points="1277.12,-342 1121.62,-342 1121.62,-322 1277.12,-322 1277.12,-342"/>
<text xml:space="preserve" text-anchor="middle" x="1199.38" y="-328.5" font-family="Helvetica,sans-Serif" font-size="10.00">boost/describe/enumerators.hpp</text>
</a>
</g>
</g>
<!-- Node36&#45;&gt;Node40 -->
<g id="edge62_Node000036_Node000040" class="edge">
<title>Node36&#45;&gt;Node40</title>
<g id="a_edge62_Node000036_Node000040"><a xlink:title=" ">
<path fill="none" stroke="#63b8ff" d="M1124.28,-383.62C1138.13,-374.29 1159.63,-359.79 1176.09,-348.7"/>
<polygon fill="#63b8ff" stroke="#63b8ff" points="1177.98,-351.65 1184.31,-343.16 1174.06,-345.84 1177.98,-351.65"/>
</a>
</g>
</g>
<!-- Node37&#45;&gt;Node4 -->
<g id="edge58_Node000037_Node000004" class="edge">
<title>Node37&#45;&gt;Node4</title>
<g id="a_edge58_Node000037_Node000004"><a xlink:title=" ">
<path fill="none" stroke="#63b8ff" d="M990.12,-247.69C977.18,-237.4 960.13,-223.84 946.92,-213.33"/>
<polygon fill="#63b8ff" stroke="#63b8ff" points="949.28,-210.74 939.28,-207.26 944.92,-216.22 949.28,-210.74"/>
</a>
</g>
</g>
<!-- Node39 -->
<g id="Node000039" class="node">
<title>Node39</title>
<g id="a_Node000039"><a xlink:title=" ">
<polygon fill="#e0e0e0" stroke="#999999" points="1431.12,-274 1305.62,-274 1305.62,-254 1431.12,-254 1431.12,-274"/>
<text xml:space="preserve" text-anchor="middle" x="1368.38" y="-260.5" font-family="Helvetica,sans-Serif" font-size="10.00">boost/describe/enum.hpp</text>
</a>
</g>
</g>
<!-- Node38&#45;&gt;Node39 -->
<g id="edge60_Node000038_Node000039" class="edge">
<title>Node38&#45;&gt;Node39</title>
<g id="a_edge60_Node000038_Node000039"><a xlink:title=" ">
<path fill="none" stroke="#63b8ff" d="M1368.38,-315.69C1368.38,-306.8 1368.38,-295.46 1368.38,-285.77"/>
<polygon fill="#63b8ff" stroke="#63b8ff" points="1371.88,-285.83 1368.38,-275.83 1364.88,-285.83 1371.88,-285.83"/>
</a>
</g>
</g>
<!-- Node41&#45;&gt;Node32 -->
<g id="edge65_Node000041_Node000032" class="edge">
<title>Node41&#45;&gt;Node32</title>
<g id="a_edge65_Node000041_Node000032"><a xlink:title=" ">
<path fill="none" stroke="#63b8ff" d="M866.75,-383.62C875.7,-374.68 889.39,-360.99 900.27,-350.1"/>
<polygon fill="#63b8ff" stroke="#63b8ff" points="902.6,-352.73 907.19,-343.18 897.65,-347.78 902.6,-352.73"/>
</a>
</g>
</g>
</g>
</svg>
