<?xml version="1.0" encoding="UTF-8" standalone="no"?>
<!DOCTYPE svg PUBLIC "-//W3C//DTD SVG 1.1//EN"
 "http://www.w3.org/Graphics/SVG/1.1/DTD/svg11.dtd">
<!-- Generated by graphviz version 14.1.2 (20260124.0452)
 -->
<!-- Title: depicture_menu/src/core/domain/service/create_command_domain_service.hpp Pages: 1 -->
<svg width="668pt" height="328pt"
 viewBox="0.00 0.00 668.00 328.00" xmlns="http://www.w3.org/2000/svg" xmlns:xlink="http://www.w3.org/1999/xlink">
<g id="graph0" class="graph" transform="scale(1 1) rotate(0) translate(4 324)">
<title>depicture_menu/src/core/domain/service/create_command_domain_service.hpp</title>
<!-- Node1 -->
<g id="Node000001" class="node">
<title>Node1</title>
<g id="a_Node000001"><a xlink:title="コマンド生成 Domain service">
<polygon fill="#999999" stroke="#666666" points="475.12,-320 344.38,-320 344.38,-264 475.12,-264 475.12,-320"/>
<text xml:space="preserve" text-anchor="start" x="352.38" y="-306.5" font-family="Helvetica,sans-Serif" font-size="10.00">depicture_menu/src</text>
<text xml:space="preserve" text-anchor="start" x="352.38" y="-294.5" font-family="Helvetica,sans-Serif" font-size="10.00">/core/domain/service</text>
<text xml:space="preserve" text-anchor="start" x="352.38" y="-282.5" font-family="Helvetica,sans-Serif" font-size="10.00">/create_command_domain</text>
<text xml:space="preserve" text-anchor="middle" x="409.75" y="-270.5" font-family="Helvetica,sans-Serif" font-size="10.00">_service.hpp</text>
</a>
</g>
</g>
<!-- Node2 -->
<g id="Node000002" class="node">
<title>Node2</title>
<g id="a_Node000002"><a xlink:href="create__action__domain__service_8hpp.html" target="_top" xlink:title="アクション生成 DomainService">
<polygon fill="white" stroke="#666666" points="400.88,-228 286.62,-228 286.62,-172 400.88,-172 400.88,-228"/>
<text xml:space="preserve" text-anchor="start" x="294.62" y="-214.5" font-family="Helvetica,sans-Serif" font-size="10.00">depicture_menu/src</text>
<text xml:space="preserve" text-anchor="start" x="294.62" y="-202.5" font-family="Helvetica,sans-Serif" font-size="10.00">/core/domain/service</text>
<text xml:space="preserve" text-anchor="start" x="294.62" y="-190.5" font-family="Helvetica,sans-Serif" font-size="10.00">/create_action_domain</text>
<text xml:space="preserve" text-anchor="middle" x="343.75" y="-178.5" font-family="Helvetica,sans-Serif" font-size="10.00">_service.hpp</text>
</a>
</g>
</g>
<!-- Node1&#45;&gt;Node2 -->
<g id="edge1_Node000001_Node000002" class="edge">
<title>Node1&#45;&gt;Node2</title>
<g id="a_edge1_Node000001_Node000002"><a xlink:title=" ">
<path fill="none" stroke="#63b8ff" d="M382.85,-254.31C376.48,-245.63 369.79,-236.51 363.79,-228.32"/>
<polygon fill="#63b8ff" stroke="#63b8ff" points="379.96,-256.29 388.69,-262.29 385.6,-252.15 379.96,-256.29"/>
</a>
</g>
</g>
<!-- Node8 -->
<g id="Node000008" class="node">
<title>Node8</title>
<g id="a_Node000008"><a xlink:href="test__create__command__domain__service_8cpp.html" target="_top" xlink:title=" ">
<polygon fill="white" stroke="#666666" points="534.62,-228 418.88,-228 418.88,-172 534.62,-172 534.62,-228"/>
<text xml:space="preserve" text-anchor="start" x="426.88" y="-214.5" font-family="Helvetica,sans-Serif" font-size="10.00">depicture_menu/test</text>
<text xml:space="preserve" text-anchor="start" x="426.88" y="-202.5" font-family="Helvetica,sans-Serif" font-size="10.00">/core/domain/service</text>
<text xml:space="preserve" text-anchor="start" x="426.88" y="-190.5" font-family="Helvetica,sans-Serif" font-size="10.00">/test_create_command</text>
<text xml:space="preserve" text-anchor="middle" x="476.75" y="-178.5" font-family="Helvetica,sans-Serif" font-size="10.00">_domain_service.cpp</text>
</a>
</g>
</g>
<!-- Node1&#45;&gt;Node8 -->
<g id="edge7_Node000001_Node000008" class="edge">
<title>Node1&#45;&gt;Node8</title>
<g id="a_edge7_Node000001_Node000008"><a xlink:title=" ">
<path fill="none" stroke="#63b8ff" d="M437.06,-254.31C443.53,-245.63 450.31,-236.51 456.41,-228.32"/>
<polygon fill="#63b8ff" stroke="#63b8ff" points="434.28,-252.18 431.12,-262.29 439.9,-256.36 434.28,-252.18"/>
</a>
</g>
</g>
<!-- Node3 -->
<g id="Node000003" class="node">
<title>Node3</title>
<g id="a_Node000003"><a xlink:href="create__menu__domain__service_8hpp.html" target="_top" xlink:title="メニュー生成 DomainService">
<polygon fill="white" stroke="#666666" points="167.5,-130 0,-130 0,-86 167.5,-86 167.5,-130"/>
<text xml:space="preserve" text-anchor="start" x="8" y="-116.5" font-family="Helvetica,sans-Serif" font-size="10.00">depicture_menu/src</text>
<text xml:space="preserve" text-anchor="start" x="8" y="-104.5" font-family="Helvetica,sans-Serif" font-size="10.00">/core/domain/service</text>
<text xml:space="preserve" text-anchor="middle" x="83.75" y="-92.5" font-family="Helvetica,sans-Serif" font-size="10.00">/create_menu_domain_service.hpp</text>
</a>
</g>
</g>
<!-- Node2&#45;&gt;Node3 -->
<g id="edge2_Node000002_Node000003" class="edge">
<title>Node2&#45;&gt;Node3</title>
<g id="a_edge2_Node000002_Node000003"><a xlink:title=" ">
<path fill="none" stroke="#63b8ff" d="M275.56,-175.4C235.27,-161.45 184.64,-143.92 145.52,-130.38"/>
<polygon fill="#63b8ff" stroke="#63b8ff" points="274.34,-178.68 284.94,-178.64 276.63,-172.06 274.34,-178.68"/>
</a>
</g>
</g>
<!-- Node5 -->
<g id="Node000005" class="node">
<title>Node5</title>
<g id="a_Node000005"><a xlink:href="change__menu__item_8cpp.html" target="_top" xlink:title="change_menu_item 実装">
<polygon fill="white" stroke="#666666" points="333.75,-130 185.75,-130 185.75,-86 333.75,-86 333.75,-130"/>
<text xml:space="preserve" text-anchor="start" x="193.75" y="-116.5" font-family="Helvetica,sans-Serif" font-size="10.00">depicture_menu/src</text>
<text xml:space="preserve" text-anchor="start" x="193.75" y="-104.5" font-family="Helvetica,sans-Serif" font-size="10.00">/core/usecase/config</text>
<text xml:space="preserve" text-anchor="middle" x="259.75" y="-92.5" font-family="Helvetica,sans-Serif" font-size="10.00">_view/change_menu_item.cpp</text>
</a>
</g>
</g>
<!-- Node2&#45;&gt;Node5 -->
<g id="edge4_Node000002_Node000005" class="edge">
<title>Node2&#45;&gt;Node5</title>
<g id="a_edge4_Node000002_Node000005"><a xlink:title=" ">
<path fill="none" stroke="#63b8ff" d="M310.33,-163.2C299.94,-152.06 288.82,-140.15 279.66,-130.33"/>
<polygon fill="#63b8ff" stroke="#63b8ff" points="307.68,-165.48 317.06,-170.4 312.79,-160.7 307.68,-165.48"/>
</a>
</g>
</g>
<!-- Node6 -->
<g id="Node000006" class="node">
<title>Node6</title>
<g id="a_Node000006"><a xlink:href="update__menu__config_8cpp.html" target="_top" xlink:title=" ">
<polygon fill="white" stroke="#666666" points="505.38,-130 352.12,-130 352.12,-86 505.38,-86 505.38,-130"/>
<text xml:space="preserve" text-anchor="start" x="360.12" y="-116.5" font-family="Helvetica,sans-Serif" font-size="10.00">depicture_menu/src</text>
<text xml:space="preserve" text-anchor="start" x="360.12" y="-104.5" font-family="Helvetica,sans-Serif" font-size="10.00">/core/usecase/config</text>
<text xml:space="preserve" text-anchor="middle" x="428.75" y="-92.5" font-family="Helvetica,sans-Serif" font-size="10.00">_view/update_menu_config.cpp</text>
</a>
</g>
</g>
<!-- Node2&#45;&gt;Node6 -->
<g id="edge5_Node000002_Node000006" class="edge">
<title>Node2&#45;&gt;Node6</title>
<g id="a_edge5_Node000002_Node000006"><a xlink:title=" ">
<path fill="none" stroke="#63b8ff" d="M377.57,-163.2C388.08,-152.06 399.34,-140.15 408.61,-130.33"/>
<polygon fill="#63b8ff" stroke="#63b8ff" points="375.08,-160.73 370.75,-170.41 380.16,-165.54 375.08,-160.73"/>
</a>
</g>
</g>
<!-- Node7 -->
<g id="Node000007" class="node">
<title>Node7</title>
<g id="a_Node000007"><a xlink:href="test__create__action__domain__service_8cpp.html" target="_top" xlink:title=" ">
<polygon fill="white" stroke="#666666" points="659.75,-136 523.75,-136 523.75,-80 659.75,-80 659.75,-136"/>
<text xml:space="preserve" text-anchor="start" x="531.75" y="-122.5" font-family="Helvetica,sans-Serif" font-size="10.00">depicture_menu/test</text>
<text xml:space="preserve" text-anchor="start" x="531.75" y="-110.5" font-family="Helvetica,sans-Serif" font-size="10.00">/core/domain/service</text>
<text xml:space="preserve" text-anchor="start" x="531.75" y="-98.5" font-family="Helvetica,sans-Serif" font-size="10.00">/test_create_action_domain</text>
<text xml:space="preserve" text-anchor="middle" x="591.75" y="-86.5" font-family="Helvetica,sans-Serif" font-size="10.00">_service.cpp</text>
</a>
</g>
</g>
<!-- Node2&#45;&gt;Node7 -->
<g id="edge6_Node000002_Node000007" class="edge">
<title>Node2&#45;&gt;Node7</title>
<g id="a_edge6_Node000002_Node000007"><a xlink:title=" ">
<path fill="none" stroke="#63b8ff" d="M411.91,-171.26C457.76,-154.25 471.33,-151.06 514.75,-136 517.56,-135.03 520.43,-134.03 523.32,-133.02"/>
<polygon fill="#63b8ff" stroke="#63b8ff" points="410.82,-167.93 402.68,-174.71 413.28,-174.49 410.82,-167.93"/>
</a>
</g>
</g>
<!-- Node4 -->
<g id="Node000004" class="node">
<title>Node4</title>
<g id="a_Node000004"><a xlink:href="add__new__menu_8cpp.html" target="_top" xlink:title=" ">
<polygon fill="white" stroke="#666666" points="149.5,-44 18,-44 18,0 149.5,0 149.5,-44"/>
<text xml:space="preserve" text-anchor="start" x="26" y="-30.5" font-family="Helvetica,sans-Serif" font-size="10.00">depicture_menu/src</text>
<text xml:space="preserve" text-anchor="start" x="26" y="-18.5" font-family="Helvetica,sans-Serif" font-size="10.00">/core/usecase/config</text>
<text xml:space="preserve" text-anchor="middle" x="83.75" y="-6.5" font-family="Helvetica,sans-Serif" font-size="10.00">_view/add_new_menu.cpp</text>
</a>
</g>
</g>
<!-- Node3&#45;&gt;Node4 -->
<g id="edge3_Node000003_Node000004" class="edge">
<title>Node3&#45;&gt;Node4</title>
<g id="a_edge3_Node000003_Node000004"><a xlink:title=" ">
<path fill="none" stroke="#63b8ff" d="M83.75,-74.49C83.75,-64.43 83.75,-53.6 83.75,-44.48"/>
<polygon fill="#63b8ff" stroke="#63b8ff" points="80.25,-74.29 83.75,-84.29 87.25,-74.29 80.25,-74.29"/>
</a>
</g>
</g>
</g>
</svg>
