<?xml version="1.0" encoding="UTF-8" standalone="no"?>
<!DOCTYPE svg PUBLIC "-//W3C//DTD SVG 1.1//EN"
 "http://www.w3.org/Graphics/SVG/1.1/DTD/svg11.dtd">
<!-- Generated by graphviz version 14.1.2 (20260124.0452)
 -->
<!-- Title: depicture_menu/src/core/cs_binding/macro/detail/csharp/config.hpp Pages: 1 -->
<svg width="687pt" height="268pt"
 viewBox="0.00 0.00 687.00 268.00" xmlns="http://www.w3.org/2000/svg" xmlns:xlink="http://www.w3.org/1999/xlink">
<g id="graph0" class="graph" transform="scale(1 1) rotate(0) translate(4 264)">
<title>depicture_menu/src/core/cs_binding/macro/detail/csharp/config.hpp</title>
<!-- Node1 -->
<g id="Node000001" class="node">
<title>Node1</title>
<g id="a_Node000001"><a xlink:title=" ">
<polygon fill="#999999" stroke="#666666" points="344.88,-260 222.38,-260 222.38,-216 344.88,-216 344.88,-260"/>
<text xml:space="preserve" text-anchor="start" x="230.38" y="-246.5" font-family="Helvetica,sans-Serif" font-size="10.00">depicture_menu/src</text>
<text xml:space="preserve" text-anchor="start" x="230.38" y="-234.5" font-family="Helvetica,sans-Serif" font-size="10.00">/core/cs_binding/macro</text>
<text xml:space="preserve" text-anchor="middle" x="283.62" y="-222.5" font-family="Helvetica,sans-Serif" font-size="10.00">/detail/csharp/config.hpp</text>
</a>
</g>
</g>
<!-- Node2 -->
<g id="Node000002" class="node">
<title>Node2</title>
<g id="a_Node000002"><a xlink:href="glue__code__sequence__data_8hpp.html" target="_top" xlink:title=" ">
<polygon fill="white" stroke="#666666" points="341.88,-180 225.38,-180 225.38,-148 341.88,-148 341.88,-180"/>
<text xml:space="preserve" text-anchor="start" x="233.38" y="-166.5" font-family="Helvetica,sans-Serif" font-size="10.00">../glue_code_sequence</text>
<text xml:space="preserve" text-anchor="middle" x="283.62" y="-154.5" font-family="Helvetica,sans-Serif" font-size="10.00">_data.hpp</text>
</a>
</g>
</g>
<!-- Node1&#45;&gt;Node2 -->
<g id="edge1_Node000001_Node000002" class="edge">
<title>Node1&#45;&gt;Node2</title>
<g id="a_edge1_Node000001_Node000002"><a xlink:title=" ">
<path fill="none" stroke="#63b8ff" d="M283.62,-215.79C283.62,-208.18 283.62,-199.52 283.62,-191.52"/>
<polygon fill="#63b8ff" stroke="#63b8ff" points="287.13,-191.64 283.63,-181.64 280.13,-191.64 287.13,-191.64"/>
</a>
</g>
</g>
<!-- Node3 -->
<g id="Node000003" class="node">
<title>Node3</title>
<g id="a_Node000003"><a xlink:title=" ">
<polygon fill="#e0e0e0" stroke="#999999" points="99.25,-112 0,-112 0,-80 99.25,-80 99.25,-112"/>
<text xml:space="preserve" text-anchor="start" x="8" y="-98.5" font-family="Helvetica,sans-Serif" font-size="10.00">boost/preprocessor</text>
<text xml:space="preserve" text-anchor="middle" x="49.62" y="-86.5" font-family="Helvetica,sans-Serif" font-size="10.00">/seq/elem.hpp</text>
</a>
</g>
</g>
<!-- Node2&#45;&gt;Node3 -->
<g id="edge2_Node000002_Node000003" class="edge">
<title>Node2&#45;&gt;Node3</title>
<g id="a_edge2_Node000002_Node000003"><a xlink:title=" ">
<path fill="none" stroke="#63b8ff" d="M228.76,-147.53C193.26,-137.51 147.01,-124.47 110.39,-114.14"/>
<polygon fill="#63b8ff" stroke="#63b8ff" points="111.39,-110.78 100.82,-111.44 109.49,-117.52 111.39,-110.78"/>
</a>
</g>
</g>
<!-- Node4 -->
<g id="Node000004" class="node">
<title>Node4</title>
<g id="a_Node000004"><a xlink:title=" ">
<polygon fill="#e0e0e0" stroke="#999999" points="216.25,-112 117,-112 117,-80 216.25,-80 216.25,-112"/>
<text xml:space="preserve" text-anchor="start" x="125" y="-98.5" font-family="Helvetica,sans-Serif" font-size="10.00">boost/preprocessor</text>
<text xml:space="preserve" text-anchor="middle" x="166.62" y="-86.5" font-family="Helvetica,sans-Serif" font-size="10.00">/tuple.hpp</text>
</a>
</g>
</g>
<!-- Node2&#45;&gt;Node4 -->
<g id="edge3_Node000002_Node000004" class="edge">
<title>Node2&#45;&gt;Node4</title>
<g id="a_edge3_Node000002_Node000004"><a xlink:title=" ">
<path fill="none" stroke="#63b8ff" d="M256.19,-147.53C240.5,-138.67 220.6,-127.45 203.54,-117.83"/>
<polygon fill="#63b8ff" stroke="#63b8ff" points="205.63,-114.99 195.2,-113.12 202.19,-121.08 205.63,-114.99"/>
</a>
</g>
</g>
<!-- Node5 -->
<g id="Node000005" class="node">
<title>Node5</title>
<g id="a_Node000005"><a xlink:title=" ">
<polygon fill="#e0e0e0" stroke="#999999" points="333.25,-112 234,-112 234,-80 333.25,-80 333.25,-112"/>
<text xml:space="preserve" text-anchor="start" x="242" y="-98.5" font-family="Helvetica,sans-Serif" font-size="10.00">boost/preprocessor</text>
<text xml:space="preserve" text-anchor="middle" x="283.62" y="-86.5" font-family="Helvetica,sans-Serif" font-size="10.00">/tuple/size.hpp</text>
</a>
</g>
</g>
<!-- Node2&#45;&gt;Node5 -->
<g id="edge4_Node000002_Node000005" class="edge">
<title>Node2&#45;&gt;Node5</title>
<g id="a_edge4_Node000002_Node000005"><a xlink:title=" ">
<path fill="none" stroke="#63b8ff" d="M283.62,-147.69C283.62,-140.53 283.62,-131.79 283.62,-123.59"/>
<polygon fill="#63b8ff" stroke="#63b8ff" points="287.13,-123.74 283.63,-113.74 280.13,-123.74 287.13,-123.74"/>
</a>
</g>
</g>
<!-- Node6 -->
<g id="Node000006" class="node">
<title>Node6</title>
<g id="a_Node000006"><a xlink:title=" ">
<polygon fill="#e0e0e0" stroke="#999999" points="469.62,-106 351.62,-106 351.62,-86 469.62,-86 469.62,-106"/>
<text xml:space="preserve" text-anchor="middle" x="410.62" y="-92.5" font-family="Helvetica,sans-Serif" font-size="10.00">boost/preprocessor.hpp</text>
</a>
</g>
</g>
<!-- Node2&#45;&gt;Node6 -->
<g id="edge5_Node000002_Node000006" class="edge">
<title>Node2&#45;&gt;Node6</title>
<g id="a_edge5_Node000002_Node000006"><a xlink:title=" ">
<path fill="none" stroke="#63b8ff" d="M313.4,-147.53C334.25,-136.69 361.94,-122.3 382.43,-111.65"/>
<polygon fill="#63b8ff" stroke="#63b8ff" points="383.82,-114.88 391.08,-107.16 380.59,-108.66 383.82,-114.88"/>
</a>
</g>
</g>
<!-- Node7 -->
<g id="Node000007" class="node">
<title>Node7</title>
<g id="a_Node000007"><a xlink:href="attr_8hpp.html" target="_top" xlink:title=" ">
<polygon fill="white" stroke="#666666" points="537.12,-106 488.12,-106 488.12,-86 537.12,-86 537.12,-106"/>
<text xml:space="preserve" text-anchor="middle" x="512.62" y="-92.5" font-family="Helvetica,sans-Serif" font-size="10.00">attr.hpp</text>
</a>
</g>
</g>
<!-- Node2&#45;&gt;Node7 -->
<g id="edge6_Node000002_Node000007" class="edge">
<title>Node2&#45;&gt;Node7</title>
<g id="a_edge6_Node000002_Node000007"><a xlink:title=" ">
<path fill="none" stroke="#63b8ff" d="M341.95,-150.32C381.08,-141.19 433.53,-127.73 478.62,-112 479.78,-111.6 480.96,-111.17 482.14,-110.73"/>
<polygon fill="#63b8ff" stroke="#63b8ff" points="483.36,-114.01 491.3,-106.99 480.72,-107.52 483.36,-114.01"/>
</a>
</g>
</g>
<!-- Node8 -->
<g id="Node000008" class="node">
<title>Node8</title>
<g id="a_Node000008"><a xlink:title=" ">
<polygon fill="#e0e0e0" stroke="#999999" points="445.25,-38 346,-38 346,-6 445.25,-6 445.25,-38"/>
<text xml:space="preserve" text-anchor="start" x="354" y="-24.5" font-family="Helvetica,sans-Serif" font-size="10.00">boost/preprocessor</text>
<text xml:space="preserve" text-anchor="middle" x="395.62" y="-12.5" font-family="Helvetica,sans-Serif" font-size="10.00">/cat.hpp</text>
</a>
</g>
</g>
<!-- Node7&#45;&gt;Node8 -->
<g id="edge7_Node000007_Node000008" class="edge">
<title>Node7&#45;&gt;Node8</title>
<g id="a_edge7_Node000007_Node000008"><a xlink:title=" ">
<path fill="none" stroke="#63b8ff" d="M497.33,-85.59C480.46,-75.21 452.77,-58.17 430.54,-44.48"/>
<polygon fill="#63b8ff" stroke="#63b8ff" points="432.4,-41.52 422.05,-39.26 428.74,-47.49 432.4,-41.52"/>
</a>
</g>
</g>
<!-- Node9 -->
<g id="Node000009" class="node">
<title>Node9</title>
<g id="a_Node000009"><a xlink:title=" ">
<polygon fill="#e0e0e0" stroke="#999999" points="562.25,-44 463,-44 463,0 562.25,0 562.25,-44"/>
<text xml:space="preserve" text-anchor="start" x="471" y="-30.5" font-family="Helvetica,sans-Serif" font-size="10.00">boost/preprocessor</text>
<text xml:space="preserve" text-anchor="start" x="471" y="-18.5" font-family="Helvetica,sans-Serif" font-size="10.00">/facilities/is_empty</text>
<text xml:space="preserve" text-anchor="middle" x="512.62" y="-6.5" font-family="Helvetica,sans-Serif" font-size="10.00">_or_1.hpp</text>
</a>
</g>
</g>
<!-- Node7&#45;&gt;Node9 -->
<g id="edge8_Node000007_Node000009" class="edge">
<title>Node7&#45;&gt;Node9</title>
<g id="a_edge8_Node000007_Node000009"><a xlink:title=" ">
<path fill="none" stroke="#63b8ff" d="M512.62,-85.59C512.62,-77.92 512.62,-66.61 512.62,-55.71"/>
<polygon fill="#63b8ff" stroke="#63b8ff" points="516.13,-55.74 512.63,-45.74 509.13,-55.74 516.13,-55.74"/>
</a>
</g>
</g>
<!-- Node10 -->
<g id="Node000010" class="node">
<title>Node10</title>
<g id="a_Node000010"><a xlink:title=" ">
<polygon fill="#e0e0e0" stroke="#999999" points="679.25,-38 580,-38 580,-6 679.25,-6 679.25,-38"/>
<text xml:space="preserve" text-anchor="start" x="588" y="-24.5" font-family="Helvetica,sans-Serif" font-size="10.00">boost/preprocessor</text>
<text xml:space="preserve" text-anchor="middle" x="629.62" y="-12.5" font-family="Helvetica,sans-Serif" font-size="10.00">/if.hpp</text>
</a>
</g>
</g>
<!-- Node7&#45;&gt;Node10 -->
<g id="edge9_Node000007_Node000010" class="edge">
<title>Node7&#45;&gt;Node10</title>
<g id="a_edge9_Node000007_Node000010"><a xlink:title=" ">
<path fill="none" stroke="#63b8ff" d="M527.92,-85.59C544.79,-75.21 572.48,-58.17 594.71,-44.48"/>
<polygon fill="#63b8ff" stroke="#63b8ff" points="596.51,-47.49 603.2,-39.26 592.85,-41.52 596.51,-47.49"/>
</a>
</g>
</g>
</g>
</svg>
