<?xml version="1.0" encoding="UTF-8" standalone="no"?>
<!DOCTYPE svg PUBLIC "-//W3C//DTD SVG 1.1//EN"
 "http://www.w3.org/Graphics/SVG/1.1/DTD/svg11.dtd">
<!-- Generated by graphviz version 14.1.2 (20260124.0452)
 -->
<!-- Title: depicture_menu/src/core/cs_binding/macro/csharp_shared_unload.hpp Pages: 1 -->
<svg width="256pt" height="108pt"
 viewBox="0.00 0.00 256.00 108.00" xmlns="http://www.w3.org/2000/svg" xmlns:xlink="http://www.w3.org/1999/xlink">
<g id="graph0" class="graph" transform="scale(1 1) rotate(0) translate(4 104)">
<title>depicture_menu/src/core/cs_binding/macro/csharp_shared_unload.hpp</title>
<!-- Node1 -->
<g id="Node000001" class="node">
<title>Node1</title>
<g id="a_Node000001"><a xlink:title=" ">
<polygon fill="#999999" stroke="#666666" points="187.75,-100 52.5,-100 52.5,-56 187.75,-56 187.75,-100"/>
<text xml:space="preserve" text-anchor="start" x="60.5" y="-86.5" font-family="Helvetica,sans-Serif" font-size="10.00">depicture_menu/src</text>
<text xml:space="preserve" text-anchor="start" x="60.5" y="-74.5" font-family="Helvetica,sans-Serif" font-size="10.00">/core/cs_binding/macro</text>
<text xml:space="preserve" text-anchor="middle" x="120.12" y="-62.5" font-family="Helvetica,sans-Serif" font-size="10.00">/csharp_shared_unload.hpp</text>
</a>
</g>
</g>
<!-- Node2 -->
<g id="Node000002" class="node">
<title>Node2</title>
<g id="a_Node000002"><a xlink:href="cpp_2unload_8hpp.html" target="_top" xlink:title=" ">
<polygon fill="white" stroke="#666666" points="108.25,-20 0,-20 0,0 108.25,0 108.25,-20"/>
<text xml:space="preserve" text-anchor="middle" x="54.12" y="-6.5" font-family="Helvetica,sans-Serif" font-size="10.00">detail/cpp/unload.hpp</text>
</a>
</g>
</g>
<!-- Node1&#45;&gt;Node2 -->
<g id="edge1_Node000001_Node000002" class="edge">
<title>Node1&#45;&gt;Node2</title>
<g id="a_edge1_Node000001_Node000002"><a xlink:title=" ">
<path fill="none" stroke="#63b8ff" d="M98.88,-55.75C90.04,-46.92 79.91,-36.78 71.52,-28.4"/>
<polygon fill="#63b8ff" stroke="#63b8ff" points="74.16,-26.09 64.61,-21.49 69.21,-31.04 74.16,-26.09"/>
</a>
</g>
</g>
<!-- Node3 -->
<g id="Node000003" class="node">
<title>Node3</title>
<g id="a_Node000003"><a xlink:href="csharp_2unload_8hpp.html" target="_top" xlink:title=" ">
<polygon fill="white" stroke="#666666" points="248,-20 126.25,-20 126.25,0 248,0 248,-20"/>
<text xml:space="preserve" text-anchor="middle" x="187.12" y="-6.5" font-family="Helvetica,sans-Serif" font-size="10.00">detail/csharp/unload.hpp</text>
</a>
</g>
</g>
<!-- Node1&#45;&gt;Node3 -->
<g id="edge2_Node000001_Node000003" class="edge">
<title>Node1&#45;&gt;Node3</title>
<g id="a_edge2_Node000001_Node000003"><a xlink:title=" ">
<path fill="none" stroke="#63b8ff" d="M141.69,-55.75C150.66,-46.92 160.95,-36.78 169.46,-28.4"/>
<polygon fill="#63b8ff" stroke="#63b8ff" points="171.82,-30.99 176.49,-21.48 166.9,-26.01 171.82,-30.99"/>
</a>
</g>
</g>
</g>
</svg>
