<?xml version="1.0" encoding="UTF-8" standalone="no"?>
<!DOCTYPE svg PUBLIC "-//W3C//DTD SVG 1.1//EN"
 "http://www.w3.org/Graphics/SVG/1.1/DTD/svg11.dtd">
<!-- Generated by graphviz version 14.1.2 (20260124.0452)
 -->
<!-- Title: depicture_menu/src/core/repository Pages: 1 -->
<svg width="244pt" height="200pt"
 viewBox="0.00 0.00 244.00 200.00" xmlns="http://www.w3.org/2000/svg" xmlns:xlink="http://www.w3.org/1999/xlink">
<g id="graph0" class="graph" transform="scale(1 1) rotate(0) translate(4 196)">
<title>depicture_menu/src/core/repository</title>
<g id="clust1" class="cluster">
<title>clusterdir_eb29242f55d2489f6c4d008365c270b7</title>
<g id="a_clust1"><a xlink:href="dir_eb29242f55d2489f6c4d008365c270b7.html" target="_top" xlink:title="core">
<polygon fill="#edf0f7" stroke="#7f7f7f" stroke-dasharray="5,2" points="8,-8 8,-184 188,-184 188,-8 8,-8"/>
<text xml:space="preserve" text-anchor="middle" x="98" y="-170.5" font-family="Helvetica,sans-Serif" font-size="10.00">core</text>
</a>
</g>
</g>
<g id="clust2" class="cluster">
<title>clusterdir_6c154d7510949a2b37f111126ba92ccf</title>
<g id="a_clust2"><a xlink:href="dir_6c154d7510949a2b37f111126ba92ccf.html" target="_top">
<polygon fill="#edf0f7" stroke="#404040" stroke-width="2" points="28,-64 28,-156 108,-156 108,-64 28,-64"/>
</a>
</g>
</g>
<!-- dir_4099da298ded5c89b37f083ec42d8d40 -->
<g id="node1" class="node">
<title>dir_4099da298ded5c89b37f083ec42d8d40</title>
<g id="a_node1"><a xlink:href="dir_4099da298ded5c89b37f083ec42d8d40.html" target="_top" xlink:title="domain">
<polygon fill="#a2b4d6" stroke="red" points="77.75,-36 30.25,-36 30.25,-16 77.75,-16 77.75,-36"/>
<text xml:space="preserve" text-anchor="middle" x="54" y="-22.5" font-family="Helvetica,sans-Serif" font-size="10.00">domain</text>
</a>
</g>
</g>
<!-- dir_62153e020276f17450b004104a906c1d -->
<g id="node2" class="node">
<title>dir_62153e020276f17450b004104a906c1d</title>
<g id="a_node2"><a xlink:href="dir_62153e020276f17450b004104a906c1d.html" target="_top" xlink:title="application">
<polygon fill="#a2b4d6" stroke="red" points="180.25,-92 117.75,-92 117.75,-72 180.25,-72 180.25,-92"/>
<text xml:space="preserve" text-anchor="middle" x="149" y="-78.5" font-family="Helvetica,sans-Serif" font-size="10.00">application</text>
</a>
</g>
</g>
<!-- dir_6c154d7510949a2b37f111126ba92ccf -->
<g id="node3" class="node">
<title>dir_6c154d7510949a2b37f111126ba92ccf</title>
<text xml:space="preserve" text-anchor="middle" x="69" y="-134.5" font-family="Helvetica,sans-Serif" font-size="10.00">repository</text>
</g>
<!-- dir_6c154d7510949a2b37f111126ba92ccf&#45;&gt;dir_4099da298ded5c89b37f083ec42d8d40 -->
<g id="edge1" class="edge">
<title>dir_6c154d7510949a2b37f111126ba92ccf&#45;&gt;dir_4099da298ded5c89b37f083ec42d8d40</title>
<g id="a_edge1"><a xlink:href="dir_000081_000049.html" target="_top">
<path fill="none" stroke="#63b8ff" d="M56.79,-128.24C46.65,-120.14 32.96,-107.11 27,-92 22.44,-80.42 23.14,-75.83 27,-64 29.21,-57.22 33.19,-50.65 37.42,-44.97"/>
<polygon fill="#63b8ff" stroke="#63b8ff" points="39.88,-47.49 43.55,-37.55 34.48,-43.03 39.88,-47.49"/>
</a>
</g>
<g id="a_edge1&#45;headlabel"><a xlink:href="dir_000081_000049.html" target="_top" xlink:title="6">
<text xml:space="preserve" text-anchor="middle" x="40.74" y="-47.4" font-family="Helvetica,sans-Serif" font-size="10.00" fill="#63b8ff">6</text>
</a>
</g>
</g>
<!-- dir_6c154d7510949a2b37f111126ba92ccf&#45;&gt;dir_62153e020276f17450b004104a906c1d -->
<g id="edge3" class="edge">
<title>dir_6c154d7510949a2b37f111126ba92ccf&#45;&gt;dir_62153e020276f17450b004104a906c1d</title>
<g id="a_edge3"><a xlink:href="dir_000081_000004.html" target="_top">
<path fill="none" stroke="#63b8ff" d="M82.21,-128.08C94.04,-120.1 111.65,-108.21 125.82,-98.65"/>
<polygon fill="#63b8ff" stroke="#63b8ff" points="127.38,-101.82 133.71,-93.32 123.46,-96.02 127.38,-101.82"/>
</a>
</g>
<g id="a_edge3&#45;headlabel"><a xlink:href="dir_000081_000004.html" target="_top" xlink:title="1">
<text xml:space="preserve" text-anchor="middle" x="127.24" y="-101.84" font-family="Helvetica,sans-Serif" font-size="10.00" fill="#63b8ff">1</text>
</a>
</g>
</g>
<!-- dir_b1430da8f7b3d3f093dae4d700c73195 -->
<g id="node4" class="node">
<title>dir_b1430da8f7b3d3f093dae4d700c73195</title>
<g id="a_node4"><a xlink:href="dir_b1430da8f7b3d3f093dae4d700c73195.html" target="_top" xlink:title="transaction">
<polygon fill="#a2b4d6" stroke="#404040" points="100,-92 36,-92 36,-72 100,-72 100,-92"/>
<text xml:space="preserve" text-anchor="middle" x="68" y="-78.5" font-family="Helvetica,sans-Serif" font-size="10.00">transaction</text>
</a>
</g>
</g>
<!-- dir_6c154d7510949a2b37f111126ba92ccf&#45;&gt;dir_b1430da8f7b3d3f093dae4d700c73195 -->
<g id="edge4" class="edge">
<title>dir_6c154d7510949a2b37f111126ba92ccf&#45;&gt;dir_b1430da8f7b3d3f093dae4d700c73195</title>
<g id="a_edge4"><a xlink:href="dir_000081_000093.html" target="_top">
<path fill="none" stroke="#63b8ff" d="M68.83,-128.08C68.71,-121.48 68.54,-112.21 68.39,-103.79"/>
<polygon fill="#63b8ff" stroke="#63b8ff" points="71.89,-103.92 68.2,-93.99 64.89,-104.05 71.89,-103.92"/>
</a>
</g>
<g id="a_edge4&#45;headlabel"><a xlink:href="dir_000081_000093.html" target="_top" xlink:title="9">
<text xml:space="preserve" text-anchor="middle" x="74.77" y="-102.45" font-family="Helvetica,sans-Serif" font-size="10.00" fill="#63b8ff">9</text>
</a>
</g>
</g>
<!-- dir_57f1aaa3fa8f9297e7b1fd04f654d594 -->
<g id="node5" class="node">
<title>dir_57f1aaa3fa8f9297e7b1fd04f654d594</title>
<g id="a_node5"><a xlink:href="dir_57f1aaa3fa8f9297e7b1fd04f654d594.html" target="_top" xlink:title="utility">
<polygon fill="#edf0f7" stroke="red" stroke-dasharray="5,2" points="235.62,-36 196.38,-36 196.38,-16 235.62,-16 235.62,-36"/>
<text xml:space="preserve" text-anchor="middle" x="216" y="-22.5" font-family="Helvetica,sans-Serif" font-size="10.00">utility</text>
</a>
</g>
</g>
<!-- dir_6c154d7510949a2b37f111126ba92ccf&#45;&gt;dir_57f1aaa3fa8f9297e7b1fd04f654d594 -->
<g id="edge2" class="edge">
<title>dir_6c154d7510949a2b37f111126ba92ccf&#45;&gt;dir_57f1aaa3fa8f9297e7b1fd04f654d594</title>
<g id="a_edge2"><a xlink:href="dir_000081_000101.html" target="_top">
<path fill="none" stroke="#63b8ff" d="M98.35,-133.37C125.93,-128.49 166.64,-117.29 192,-92 203.99,-80.04 210.05,-61.58 213.08,-47.39"/>
<polygon fill="#63b8ff" stroke="#63b8ff" points="216.48,-48.22 214.77,-37.77 209.59,-47.01 216.48,-48.22"/>
</a>
</g>
<g id="a_edge2&#45;headlabel"><a xlink:href="dir_000081_000101.html" target="_top" xlink:title="3">
<text xml:space="preserve" text-anchor="middle" x="218.92" y="-47.27" font-family="Helvetica,sans-Serif" font-size="10.00" fill="#63b8ff">3</text>
</a>
</g>
</g>
<!-- dir_b1430da8f7b3d3f093dae4d700c73195&#45;&gt;dir_4099da298ded5c89b37f083ec42d8d40 -->
<g id="edge5" class="edge">
<title>dir_b1430da8f7b3d3f093dae4d700c73195&#45;&gt;dir_4099da298ded5c89b37f083ec42d8d40</title>
<g id="a_edge5"><a xlink:href="dir_000093_000049.html" target="_top">
<path fill="none" stroke="#63b8ff" d="M65.56,-71.59C63.83,-64.93 61.45,-55.75 59.3,-47.44"/>
<polygon fill="#63b8ff" stroke="#63b8ff" points="62.69,-46.56 56.79,-37.76 55.91,-48.32 62.69,-46.56"/>
</a>
</g>
<g id="a_edge5&#45;headlabel"><a xlink:href="dir_000093_000049.html" target="_top" xlink:title="3">
<text xml:space="preserve" text-anchor="middle" x="65.96" y="-44.37" font-family="Helvetica,sans-Serif" font-size="10.00" fill="#63b8ff">3</text>
</a>
</g>
</g>
<!-- dir_b1430da8f7b3d3f093dae4d700c73195&#45;&gt;dir_57f1aaa3fa8f9297e7b1fd04f654d594 -->
<g id="edge6" class="edge">
<title>dir_b1430da8f7b3d3f093dae4d700c73195&#45;&gt;dir_57f1aaa3fa8f9297e7b1fd04f654d594</title>
<g id="a_edge6"><a xlink:href="dir_000093_000101.html" target="_top">
<path fill="none" stroke="#63b8ff" d="M86.85,-71.52C92.32,-68.93 98.34,-66.23 104,-64 138.77,-50.33 151.02,-49.48 185.29,-38.21"/>
<polygon fill="#63b8ff" stroke="#63b8ff" points="186.34,-41.55 194.69,-35.03 184.09,-34.92 186.34,-41.55"/>
</a>
</g>
<g id="a_edge6&#45;headlabel"><a xlink:href="dir_000093_000101.html" target="_top" xlink:title="2">
<text xml:space="preserve" text-anchor="middle" x="185.27" y="-41.4" font-family="Helvetica,sans-Serif" font-size="10.00" fill="#63b8ff">2</text>
</a>
</g>
</g>
</g>
</svg>
