<?xml version="1.0" encoding="UTF-8" standalone="no"?>
<!DOCTYPE svg PUBLIC "-//W3C//DTD SVG 1.1//EN"
 "http://www.w3.org/Graphics/SVG/1.1/DTD/svg11.dtd">
<!-- Generated by graphviz version 14.1.2 (20260124.0452)
 -->
<!-- Title: depicture_menu/src/core/domain/model Pages: 1 -->
<svg width="262pt" height="368pt"
 viewBox="0.00 0.00 262.00 368.00" xmlns="http://www.w3.org/2000/svg" xmlns:xlink="http://www.w3.org/1999/xlink">

<svg id="main" version="1.1" xmlns="http://www.w3.org/2000/svg" xmlns:xlink="http://www.w3.org/1999/xlink" xml:space="preserve">

<style type="text/css"><![CDATA[
.node, .edge {opacity: 0.7;}
.node.selected, .edge.selected {opacity: 1;}
.edge:hover path { stroke: red; }
.edge:hover polygon { stroke: red; fill: red; }
]]></style>
<script type="application/ecmascript" xlink:href="svg.min.js"/>
<svg id="graph" class="graph">
<g id="graph0" class="graph" transform="scale(1 1) rotate(0) translate(4 364)">
<title>depicture_menu/src/core/domain/model</title>
<g id="clust1" class="cluster">
<title>clusterdir_4099da298ded5c89b37f083ec42d8d40</title>
<g id="a_clust1"><a xlink:href="dir_4099da298ded5c89b37f083ec42d8d40.html" target="_top" xlink:title="domain">
<polygon fill="#edf0f7" stroke="#7f7f7f" stroke-dasharray="5,2" points="8,-8 8,-352 206,-352 206,-8 8,-8"/>
<text xml:space="preserve" text-anchor="middle" x="107" y="-338.5" font-family="Helvetica,sans-Serif" font-size="10.00">domain</text>
</a>
</g>
</g>
<g id="clust2" class="cluster">
<title>clusterdir_0c83dee58a23f235db9b63a843b5b568</title>
<g id="a_clust2"><a xlink:href="dir_0c83dee58a23f235db9b63a843b5b568.html" target="_top">
<polygon fill="#edf0f7" stroke="#404040" stroke-width="2" points="16,-64 16,-324 150,-324 150,-64 16,-64"/>
</a>
</g>
</g>
<!-- dir_8430edca5f378d259460fbc9f4ccec3e -->
<g id="node1" class="node">
<title>dir_8430edca5f378d259460fbc9f4ccec3e</title>
<g id="a_node1"><a xlink:href="dir_8430edca5f378d259460fbc9f4ccec3e.html" target="_top" xlink:title="common">
<polygon fill="#a2b4d6" stroke="#404040" points="91.75,-36 38.25,-36 38.25,-16 91.75,-16 91.75,-36"/>
<text xml:space="preserve" text-anchor="middle" x="65" y="-22.5" font-family="Helvetica,sans-Serif" font-size="10.00">common</text>
</a>
</g>
</g>
<!-- dir_edef8ac5b430773c04cf4dece20cb8d2 -->
<g id="node2" class="node">
<title>dir_edef8ac5b430773c04cf4dece20cb8d2</title>
<g id="a_node2"><a xlink:href="dir_edef8ac5b430773c04cf4dece20cb8d2.html" target="_top" xlink:title="event">
<polygon fill="#a2b4d6" stroke="#404040" points="198,-260 158,-260 158,-240 198,-240 198,-260"/>
<text xml:space="preserve" text-anchor="middle" x="178" y="-246.5" font-family="Helvetica,sans-Serif" font-size="10.00">event</text>
</a>
</g>
</g>
<!-- dir_0c83dee58a23f235db9b63a843b5b568 -->
<g id="node3" class="node">
<title>dir_0c83dee58a23f235db9b63a843b5b568</title>
<text xml:space="preserve" text-anchor="middle" x="121" y="-302.5" font-family="Helvetica,sans-Serif" font-size="10.00">model</text>
</g>
<!-- dir_57f1aaa3fa8f9297e7b1fd04f654d594 -->
<g id="node9" class="node">
<title>dir_57f1aaa3fa8f9297e7b1fd04f654d594</title>
<g id="a_node9"><a xlink:href="dir_57f1aaa3fa8f9297e7b1fd04f654d594.html" target="_top" xlink:title="utility">
<polygon fill="#edf0f7" stroke="red" stroke-dasharray="5,2" points="253.62,-36 214.38,-36 214.38,-16 253.62,-16 253.62,-36"/>
<text xml:space="preserve" text-anchor="middle" x="234" y="-22.5" font-family="Helvetica,sans-Serif" font-size="10.00">utility</text>
</a>
</g>
</g>
<!-- dir_0c83dee58a23f235db9b63a843b5b568&#45;&gt;dir_57f1aaa3fa8f9297e7b1fd04f654d594 -->
<g id="edge1" class="edge">
<title>dir_0c83dee58a23f235db9b63a843b5b568&#45;&gt;dir_57f1aaa3fa8f9297e7b1fd04f654d594</title>
<g id="a_edge1"><a xlink:href="dir_000072_000103.html" target="_top">
<path fill="none" stroke="#63b8ff" d="M142.01,-299.58C162.22,-293.31 192.25,-281.05 210,-260 229.49,-236.89 230,-225.23 230,-195 230,-195 230,-195 230,-137 230,-105.85 231.62,-69.77 232.8,-47.67"/>
<polygon fill="#63b8ff" stroke="#63b8ff" points="236.28,-48.1 233.34,-37.92 229.29,-47.71 236.28,-48.1"/>
</a>
</g>
<g id="a_edge1&#45;headlabel"><a xlink:href="dir_000072_000103.html" target="_top" xlink:title="4">
<text xml:space="preserve" text-anchor="middle" x="239" y="-46.84" font-family="Helvetica,sans-Serif" font-size="10.00" fill="#63b8ff">4</text>
</a>
</g>
</g>
<!-- dir_e4053f4b45ee94da0bfbc149760bfbd1 -->
<g id="node4" class="node">
<title>dir_e4053f4b45ee94da0bfbc149760bfbd1</title>
<g id="a_node4"><a xlink:href="dir_e4053f4b45ee94da0bfbc149760bfbd1.html" target="_top" xlink:title="action">
<polygon fill="#a2b4d6" stroke="#404040" points="107.12,-204 64.88,-204 64.88,-184 107.12,-184 107.12,-204"/>
<text xml:space="preserve" text-anchor="middle" x="86" y="-190.5" font-family="Helvetica,sans-Serif" font-size="10.00">action</text>
</a>
</g>
</g>
<!-- dir_2400a9ef79732257c41e6c0a0d8b8e46 -->
<g id="node6" class="node">
<title>dir_2400a9ef79732257c41e6c0a0d8b8e46</title>
<g id="a_node6"><a xlink:href="dir_2400a9ef79732257c41e6c0a0d8b8e46.html" target="_top" xlink:title="command">
<polygon fill="#a2b4d6" stroke="#404040" points="142.38,-148 83.62,-148 83.62,-128 142.38,-128 142.38,-148"/>
<text xml:space="preserve" text-anchor="middle" x="113" y="-134.5" font-family="Helvetica,sans-Serif" font-size="10.00">command</text>
</a>
</g>
</g>
<!-- dir_e4053f4b45ee94da0bfbc149760bfbd1&#45;&gt;dir_2400a9ef79732257c41e6c0a0d8b8e46 -->
<g id="edge3" class="edge">
<title>dir_e4053f4b45ee94da0bfbc149760bfbd1&#45;&gt;dir_2400a9ef79732257c41e6c0a0d8b8e46</title>
<g id="a_edge3"><a xlink:href="dir_000000_000020.html" target="_top">
<path fill="none" stroke="#63b8ff" d="M90.7,-183.59C94.15,-176.7 98.95,-167.1 103.21,-158.57"/>
<polygon fill="#63b8ff" stroke="#63b8ff" points="106.33,-160.16 107.67,-149.65 100.07,-157.03 106.33,-160.16"/>
</a>
</g>
<g id="a_edge3&#45;headlabel"><a xlink:href="dir_000000_000020.html" target="_top" xlink:title="10">
<text xml:space="preserve" text-anchor="middle" x="107.94" y="-159.79" font-family="Helvetica,sans-Serif" font-size="10.00" fill="#63b8ff">10</text>
</a>
</g>
</g>
<!-- dir_150ce6554b3660d99dae94d27df6b111 -->
<g id="node7" class="node">
<title>dir_150ce6554b3660d99dae94d27df6b111</title>
<g id="a_node7"><a xlink:href="dir_150ce6554b3660d99dae94d27df6b111.html" target="_top" xlink:title="menu">
<polygon fill="#a2b4d6" stroke="#404040" points="85,-92 45,-92 45,-72 85,-72 85,-92"/>
<text xml:space="preserve" text-anchor="middle" x="65" y="-78.5" font-family="Helvetica,sans-Serif" font-size="10.00">menu</text>
</a>
</g>
</g>
<!-- dir_e4053f4b45ee94da0bfbc149760bfbd1&#45;&gt;dir_150ce6554b3660d99dae94d27df6b111 -->
<g id="edge2" class="edge">
<title>dir_e4053f4b45ee94da0bfbc149760bfbd1&#45;&gt;dir_150ce6554b3660d99dae94d27df6b111</title>
<g id="a_edge2"><a xlink:href="dir_000000_000067.html" target="_top">
<path fill="none" stroke="#63b8ff" d="M76.6,-183.74C72.09,-174.68 68.48,-160.46 66,-148 63.06,-133.22 60.5,-116.4 59.93,-103.57"/>
<polygon fill="#63b8ff" stroke="#63b8ff" points="63.43,-103.86 60.07,-93.81 56.43,-103.76 63.43,-103.86"/>
</a>
</g>
<g id="a_edge2&#45;headlabel"><a xlink:href="dir_000000_000067.html" target="_top" xlink:title="1">
<text xml:space="preserve" text-anchor="middle" x="66.24" y="-102.49" font-family="Helvetica,sans-Serif" font-size="10.00" fill="#63b8ff">1</text>
</a>
</g>
</g>
<!-- dir_e4053f4b45ee94da0bfbc149760bfbd1&#45;&gt;dir_57f1aaa3fa8f9297e7b1fd04f654d594 -->
<g id="edge4" class="edge">
<title>dir_e4053f4b45ee94da0bfbc149760bfbd1&#45;&gt;dir_57f1aaa3fa8f9297e7b1fd04f654d594</title>
<g id="a_edge4"><a xlink:href="dir_000000_000103.html" target="_top">
<path fill="none" stroke="#63b8ff" d="M103.01,-183.58C116.92,-175.36 136.57,-162.49 151,-148 182.47,-116.39 209.72,-71.42 223.8,-46.15"/>
<polygon fill="#63b8ff" stroke="#63b8ff" points="226.71,-48.11 228.43,-37.66 220.57,-44.76 226.71,-48.11"/>
</a>
</g>
<g id="a_edge4&#45;headlabel"><a xlink:href="dir_000000_000103.html" target="_top" xlink:title="1">
<text xml:space="preserve" text-anchor="middle" x="228.21" y="-47.8" font-family="Helvetica,sans-Serif" font-size="10.00" fill="#63b8ff">1</text>
</a>
</g>
</g>
<!-- dir_c03c9ea3dac05145c68012b36476df4b -->
<g id="node5" class="node">
<title>dir_c03c9ea3dac05145c68012b36476df4b</title>
<g id="a_node5"><a xlink:href="dir_c03c9ea3dac05145c68012b36476df4b.html" target="_top" xlink:title="app">
<polygon fill="#a2b4d6" stroke="#404040" points="81.88,-316 50.12,-316 50.12,-296 81.88,-296 81.88,-316"/>
<text xml:space="preserve" text-anchor="middle" x="66" y="-302.5" font-family="Helvetica,sans-Serif" font-size="10.00">app</text>
</a>
</g>
</g>
<!-- dir_c03c9ea3dac05145c68012b36476df4b&#45;&gt;dir_edef8ac5b430773c04cf4dece20cb8d2 -->
<g id="edge9" class="edge">
<title>dir_c03c9ea3dac05145c68012b36476df4b&#45;&gt;dir_edef8ac5b430773c04cf4dece20cb8d2</title>
<g id="a_edge9"><a xlink:href="dir_000002_000059.html" target="_top">
<path fill="none" stroke="#63b8ff" d="M82.05,-297.26C99.33,-288.93 127.21,-275.49 148.47,-265.24"/>
<polygon fill="#63b8ff" stroke="#63b8ff" points="149.75,-268.51 157.23,-261.01 146.71,-262.2 149.75,-268.51"/>
</a>
</g>
<g id="a_edge9&#45;headlabel"><a xlink:href="dir_000002_000059.html" target="_top" xlink:title="1">
<text xml:space="preserve" text-anchor="middle" x="149.1" y="-268.47" font-family="Helvetica,sans-Serif" font-size="10.00" fill="#63b8ff">1</text>
</a>
</g>
</g>
<!-- dir_c03c9ea3dac05145c68012b36476df4b&#45;&gt;dir_e4053f4b45ee94da0bfbc149760bfbd1 -->
<g id="edge8" class="edge">
<title>dir_c03c9ea3dac05145c68012b36476df4b&#45;&gt;dir_e4053f4b45ee94da0bfbc149760bfbd1</title>
<g id="a_edge8"><a xlink:href="dir_000002_000000.html" target="_top">
<path fill="none" stroke="#63b8ff" d="M75.07,-295.57C82.59,-287.05 92.72,-273.77 97,-260 101.58,-245.27 98.29,-228.04 94.15,-215.02"/>
<polygon fill="#63b8ff" stroke="#63b8ff" points="97.53,-214.07 90.82,-205.86 90.95,-216.46 97.53,-214.07"/>
</a>
</g>
<g id="a_edge8&#45;headlabel"><a xlink:href="dir_000002_000000.html" target="_top" xlink:title="1">
<text xml:space="preserve" text-anchor="middle" x="100.9" y="-211.55" font-family="Helvetica,sans-Serif" font-size="10.00" fill="#63b8ff">1</text>
</a>
</g>
</g>
<!-- dir_c03c9ea3dac05145c68012b36476df4b&#45;&gt;dir_2400a9ef79732257c41e6c0a0d8b8e46 -->
<g id="edge7" class="edge">
<title>dir_c03c9ea3dac05145c68012b36476df4b&#45;&gt;dir_2400a9ef79732257c41e6c0a0d8b8e46</title>
<g id="a_edge7"><a xlink:href="dir_000002_000020.html" target="_top">
<path fill="none" stroke="#63b8ff" d="M75.99,-295.58C84.43,-287.07 96.2,-273.79 103,-260 118.88,-227.8 118.05,-184.89 115.73,-159.77"/>
<polygon fill="#63b8ff" stroke="#63b8ff" points="119.21,-159.46 114.62,-149.91 112.26,-160.24 119.21,-159.46"/>
</a>
</g>
<g id="a_edge7&#45;headlabel"><a xlink:href="dir_000002_000020.html" target="_top" xlink:title="3">
<text xml:space="preserve" text-anchor="middle" x="122.27" y="-157.71" font-family="Helvetica,sans-Serif" font-size="10.00" fill="#63b8ff">3</text>
</a>
</g>
</g>
<!-- dir_c03c9ea3dac05145c68012b36476df4b&#45;&gt;dir_150ce6554b3660d99dae94d27df6b111 -->
<g id="edge6" class="edge">
<title>dir_c03c9ea3dac05145c68012b36476df4b&#45;&gt;dir_150ce6554b3660d99dae94d27df6b111</title>
<g id="a_edge6"><a xlink:href="dir_000002_000067.html" target="_top">
<path fill="none" stroke="#63b8ff" d="M57.22,-295.52C49.94,-286.96 40.14,-273.66 36,-260 19.2,-204.52 42.16,-136.14 55.95,-102.96"/>
<polygon fill="#63b8ff" stroke="#63b8ff" points="59.15,-104.36 59.92,-93.8 52.73,-101.58 59.15,-104.36"/>
</a>
</g>
<g id="a_edge6&#45;headlabel"><a xlink:href="dir_000002_000067.html" target="_top" xlink:title="1">
<text xml:space="preserve" text-anchor="middle" x="60.93" y="-103.9" font-family="Helvetica,sans-Serif" font-size="10.00" fill="#63b8ff">1</text>
</a>
</g>
</g>
<!-- dir_0683d9adba2ede67e154a53e6a4b209a -->
<g id="node8" class="node">
<title>dir_0683d9adba2ede67e154a53e6a4b209a</title>
<g id="a_node8"><a xlink:href="dir_0683d9adba2ede67e154a53e6a4b209a.html" target="_top" xlink:title="trigger">
<polygon fill="#a2b4d6" stroke="#404040" points="87.5,-260 44.5,-260 44.5,-240 87.5,-240 87.5,-260"/>
<text xml:space="preserve" text-anchor="middle" x="66" y="-246.5" font-family="Helvetica,sans-Serif" font-size="10.00">trigger</text>
</a>
</g>
</g>
<!-- dir_c03c9ea3dac05145c68012b36476df4b&#45;&gt;dir_0683d9adba2ede67e154a53e6a4b209a -->
<g id="edge5" class="edge">
<title>dir_c03c9ea3dac05145c68012b36476df4b&#45;&gt;dir_0683d9adba2ede67e154a53e6a4b209a</title>
<g id="a_edge5"><a xlink:href="dir_000002_000095.html" target="_top">
<path fill="none" stroke="#63b8ff" d="M66,-295.59C66,-289.01 66,-279.96 66,-271.73"/>
<polygon fill="#63b8ff" stroke="#63b8ff" points="69.5,-271.81 66,-261.81 62.5,-271.81 69.5,-271.81"/>
</a>
</g>
<g id="a_edge5&#45;headlabel"><a xlink:href="dir_000002_000095.html" target="_top" xlink:title="1">
<text xml:space="preserve" text-anchor="middle" x="72.34" y="-270.39" font-family="Helvetica,sans-Serif" font-size="10.00" fill="#63b8ff">1</text>
</a>
</g>
</g>
<!-- dir_2400a9ef79732257c41e6c0a0d8b8e46&#45;&gt;dir_150ce6554b3660d99dae94d27df6b111 -->
<g id="edge10" class="edge">
<title>dir_2400a9ef79732257c41e6c0a0d8b8e46&#45;&gt;dir_150ce6554b3660d99dae94d27df6b111</title>
<g id="a_edge10"><a xlink:href="dir_000020_000067.html" target="_top">
<path fill="none" stroke="#63b8ff" d="M99.37,-127.59C91.53,-120.39 82.11,-110.23 74.94,-101.43"/>
<polygon fill="#63b8ff" stroke="#63b8ff" points="77.77,-99.36 68.93,-93.5 72.19,-103.59 77.77,-99.36"/>
</a>
</g>
<g id="a_edge10&#45;headlabel"><a xlink:href="dir_000020_000067.html" target="_top" xlink:title="2">
<text xml:space="preserve" text-anchor="middle" x="81.29" y="-95.8" font-family="Helvetica,sans-Serif" font-size="10.00" fill="#63b8ff">2</text>
</a>
</g>
</g>
<!-- dir_2400a9ef79732257c41e6c0a0d8b8e46&#45;&gt;dir_57f1aaa3fa8f9297e7b1fd04f654d594 -->
<g id="edge11" class="edge">
<title>dir_2400a9ef79732257c41e6c0a0d8b8e46&#45;&gt;dir_57f1aaa3fa8f9297e7b1fd04f654d594</title>
<g id="a_edge11"><a xlink:href="dir_000020_000103.html" target="_top">
<path fill="none" stroke="#63b8ff" d="M118.54,-127.51C127.61,-112.58 146.85,-83.31 169,-64 179.34,-54.99 192.22,-47.11 203.78,-40.97"/>
<polygon fill="#63b8ff" stroke="#63b8ff" points="205.22,-44.16 212.56,-36.52 202.06,-37.91 205.22,-44.16"/>
</a>
</g>
<g id="a_edge11&#45;headlabel"><a xlink:href="dir_000020_000103.html" target="_top" xlink:title="1">
<text xml:space="preserve" text-anchor="middle" x="204.65" y="-44.13" font-family="Helvetica,sans-Serif" font-size="10.00" fill="#63b8ff">1</text>
</a>
</g>
</g>
<!-- dir_150ce6554b3660d99dae94d27df6b111&#45;&gt;dir_8430edca5f378d259460fbc9f4ccec3e -->
<g id="edge14" class="edge">
<title>dir_150ce6554b3660d99dae94d27df6b111&#45;&gt;dir_8430edca5f378d259460fbc9f4ccec3e</title>
<g id="a_edge14"><a xlink:href="dir_000067_000024.html" target="_top">
<path fill="none" stroke="#63b8ff" d="M65,-71.59C65,-65.01 65,-55.96 65,-47.73"/>
<polygon fill="#63b8ff" stroke="#63b8ff" points="68.5,-47.81 65,-37.81 61.5,-47.81 68.5,-47.81"/>
</a>
</g>
<g id="a_edge14&#45;headlabel"><a xlink:href="dir_000067_000024.html" target="_top" xlink:title="1">
<text xml:space="preserve" text-anchor="middle" x="71.34" y="-46.39" font-family="Helvetica,sans-Serif" font-size="10.00" fill="#63b8ff">1</text>
</a>
</g>
</g>
<!-- dir_150ce6554b3660d99dae94d27df6b111&#45;&gt;dir_e4053f4b45ee94da0bfbc149760bfbd1 -->
<g id="edge15" class="edge">
<title>dir_150ce6554b3660d99dae94d27df6b111&#45;&gt;dir_e4053f4b45ee94da0bfbc149760bfbd1</title>
<g id="a_edge15"><a xlink:href="dir_000067_000000.html" target="_top">
<path fill="none" stroke="#63b8ff" d="M72.25,-92.3C76.83,-104.96 80.08,-128.29 84,-148 85.61,-156.08 87.69,-164.9 89.03,-172.58"/>
<polygon fill="#63b8ff" stroke="#63b8ff" points="85.53,-172.73 90.19,-182.24 92.48,-171.9 85.53,-172.73"/>
</a>
</g>
<g id="a_edge15&#45;headlabel"><a xlink:href="dir_000067_000000.html" target="_top" xlink:title="2">
<text xml:space="preserve" text-anchor="middle" x="82.46" y="-167.5" font-family="Helvetica,sans-Serif" font-size="10.00" fill="#63b8ff">2</text>
</a>
</g>
</g>
<!-- dir_150ce6554b3660d99dae94d27df6b111&#45;&gt;dir_2400a9ef79732257c41e6c0a0d8b8e46 -->
<g id="edge12" class="edge">
<title>dir_150ce6554b3660d99dae94d27df6b111&#45;&gt;dir_2400a9ef79732257c41e6c0a0d8b8e46</title>
<g id="a_edge12"><a xlink:href="dir_000067_000020.html" target="_top">
<path fill="none" stroke="#63b8ff" d="M78.51,-92.3C86.34,-99.47 95.76,-109.62 102.95,-118.44"/>
<polygon fill="#63b8ff" stroke="#63b8ff" points="100.15,-120.54 108.99,-126.39 105.73,-116.31 100.15,-120.54"/>
</a>
</g>
<g id="a_edge12&#45;headlabel"><a xlink:href="dir_000067_000020.html" target="_top" xlink:title="2">
<text xml:space="preserve" text-anchor="middle" x="96.63" y="-117.11" font-family="Helvetica,sans-Serif" font-size="10.00" fill="#63b8ff">2</text>
</a>
</g>
</g>
<!-- dir_150ce6554b3660d99dae94d27df6b111&#45;&gt;dir_57f1aaa3fa8f9297e7b1fd04f654d594 -->
<g id="edge13" class="edge">
<title>dir_150ce6554b3660d99dae94d27df6b111&#45;&gt;dir_57f1aaa3fa8f9297e7b1fd04f654d594</title>
<g id="a_edge13"><a xlink:href="dir_000067_000103.html" target="_top">
<path fill="none" stroke="#63b8ff" d="M85.37,-73.86C94.42,-70.75 105.21,-67.1 115,-64 153.52,-51.78 166.19,-50.16 203.5,-38.08"/>
<polygon fill="#63b8ff" stroke="#63b8ff" points="204.29,-41.51 212.7,-35.05 202.1,-34.86 204.29,-41.51"/>
</a>
</g>
<g id="a_edge13&#45;headlabel"><a xlink:href="dir_000067_000103.html" target="_top" xlink:title="1">
<text xml:space="preserve" text-anchor="middle" x="203.21" y="-41.35" font-family="Helvetica,sans-Serif" font-size="10.00" fill="#63b8ff">1</text>
</a>
</g>
</g>
<!-- dir_0683d9adba2ede67e154a53e6a4b209a&#45;&gt;dir_e4053f4b45ee94da0bfbc149760bfbd1 -->
<g id="edge17" class="edge">
<title>dir_0683d9adba2ede67e154a53e6a4b209a&#45;&gt;dir_e4053f4b45ee94da0bfbc149760bfbd1</title>
<g id="a_edge17"><a xlink:href="dir_000095_000000.html" target="_top">
<path fill="none" stroke="#63b8ff" d="M69.48,-239.59C72.01,-232.78 75.51,-223.32 78.64,-214.86"/>
<polygon fill="#63b8ff" stroke="#63b8ff" points="81.84,-216.31 82.03,-205.72 75.28,-213.88 81.84,-216.31"/>
</a>
</g>
<g id="a_edge17&#45;headlabel"><a xlink:href="dir_000095_000000.html" target="_top" xlink:title="1">
<text xml:space="preserve" text-anchor="middle" x="83.78" y="-215.75" font-family="Helvetica,sans-Serif" font-size="10.00" fill="#63b8ff">1</text>
</a>
</g>
</g>
<!-- dir_0683d9adba2ede67e154a53e6a4b209a&#45;&gt;dir_150ce6554b3660d99dae94d27df6b111 -->
<g id="edge16" class="edge">
<title>dir_0683d9adba2ede67e154a53e6a4b209a&#45;&gt;dir_150ce6554b3660d99dae94d27df6b111</title>
<g id="a_edge16"><a xlink:href="dir_000095_000067.html" target="_top">
<path fill="none" stroke="#63b8ff" d="M63.33,-239.79C60.87,-230.76 57.38,-216.57 56,-204 52.14,-168.86 57.21,-127.79 61.16,-103.66"/>
<polygon fill="#63b8ff" stroke="#63b8ff" points="64.59,-104.38 62.86,-93.93 57.69,-103.17 64.59,-104.38"/>
</a>
</g>
<g id="a_edge16&#45;headlabel"><a xlink:href="dir_000095_000067.html" target="_top" xlink:title="1">
<text xml:space="preserve" text-anchor="middle" x="67.03" y="-103.42" font-family="Helvetica,sans-Serif" font-size="10.00" fill="#63b8ff">1</text>
</a>
</g>
</g>
</g>
</svg>
</svg>

<style type='text/css'>
<![CDATA[
[data-mouse-over-selected='false'] { opacity: 0.7; }
[data-mouse-over-selected='true']  { opacity: 1.0; }
]]>
</style>
<script type="application/ecmascript"><![CDATA[
document.addEventListener('DOMContentLoaded', (event) => {
  highlightEdges();
  highlightAdjacentNodes();
});
]]></script>
</svg>
