<?xml version="1.0" encoding="UTF-8" standalone="no"?>
<!DOCTYPE svg PUBLIC "-//W3C//DTD SVG 1.1//EN"
 "http://www.w3.org/Graphics/SVG/1.1/DTD/svg11.dtd">
<!-- Generated by graphviz version 14.1.2 (20260124.0452)
 -->
<!-- Title: depicture_menu/src/core/application Pages: 1 -->
<!--zoomable 200 -->

<svg id="main" version="1.1" xmlns="http://www.w3.org/2000/svg" xmlns:xlink="http://www.w3.org/1999/xlink" xml:space="preserve" onload="init(evt)">

<style type="text/css"><![CDATA[
.node, .edge {opacity: 0.7;}
.node.selected, .edge.selected {opacity: 1;}
.edge:hover path { stroke: red; }
.edge:hover polygon { stroke: red; fill: red; }
]]></style>

<defs>
  <circle id="rim" cx="0" cy="0" r="7"/>
  <circle id="rim2" cx="0" cy="0" r="3.5"/>
  <g id="zoomPlus">
    <use xlink:href="#rim" fill="#404040"><set attributeName="fill" to="#808080" begin="zoomplus.mouseover" end="zoomplus.mouseout"/></use>
    <path d="M-4,0h8M0,-4v8" fill="none" stroke="white" stroke-width="1.5" pointer-events="none"/>
  </g>
  <g id="zoomMin">
    <use xlink:href="#rim" fill="#404040"><set attributeName="fill" to="#808080" begin="zoomminus.mouseover" end="zoomminus.mouseout"/></use>
    <path d="M-4,0h8" fill="none" stroke="white" stroke-width="1.5" pointer-events="none"/>
  </g>
  <g id="arrowUp" transform="translate(30 24)">
    <use xlink:href="#rim"/>
    <path pointer-events="none" fill="none" stroke="white" stroke-width="1.5" d="M0,-3.0v7 M-2.5,-0.5L0,-3.0L2.5,-0.5"/>
  </g>
  <g id="arrowRight" transform="rotate(90) translate(36 -43)">
    <use xlink:href="#rim"/>
    <path pointer-events="none" fill="none" stroke="white" stroke-width="1.5" d="M0,-3.0v7 M-2.5,-0.5L0,-3.0L2.5,-0.5"/>
  </g>
  <g id="arrowDown" transform="rotate(180) translate(-30 -48)">
    <use xlink:href="#rim"/>
    <path pointer-events="none" fill="none" stroke="white" stroke-width="1.5" d="M0,-3.0v7 M-2.5,-0.5L0,-3.0L2.5,-0.5"/>
  </g>
  <g id="arrowLeft" transform="rotate(270) translate(-36 17)">
    <use xlink:href="#rim"/>
    <path pointer-events="none" fill="none" stroke="white" stroke-width="1.5" d="M0,-3.0v7 M-2.5,-0.5L0,-3.0L2.5,-0.5"/>
  </g>
  <g id="resetDef">
    <use xlink:href="#rim2" fill="#404040"><set attributeName="fill" to="#808080" begin="reset.mouseover" end="reset.mouseout"/></use>
  </g>
</defs>
<script type="application/ecmascript">
var viewWidth = 595;
var viewHeight = 200;
var sectionId = 'dynsection-0';
</script>
<script type="application/ecmascript" xlink:href="svg.min.js"/>
<svg id="graph" class="graph">
<g id="viewport">
<title>depicture_menu/src/core/application</title>
<g id="clust1" class="cluster">
<title>clusterdir_eb29242f55d2489f6c4d008365c270b7</title>
<g id="a_clust1"><a xlink:href="dir_eb29242f55d2489f6c4d008365c270b7.html" target="_top" xlink:title="core">
<polygon fill="#edf0f7" stroke="#7f7f7f" stroke-dasharray="5,2" points="8,-8 8,-184 539,-184 539,-8 8,-8"/>
<text xml:space="preserve" text-anchor="middle" x="273.5" y="-170.5" font-family="Helvetica,sans-Serif" font-size="10.00">core</text>
</a>
</g>
</g>
<g id="clust2" class="cluster">
<title>clusterdir_62153e020276f17450b004104a906c1d</title>
<g id="a_clust2"><a xlink:href="dir_62153e020276f17450b004104a906c1d.html" target="_top">
<polygon fill="#edf0f7" stroke="#404040" stroke-width="2" points="129,-64 129,-156 512,-156 512,-64 129,-64"/>
</a>
</g>
</g>
<!-- dir_4099da298ded5c89b37f083ec42d8d40 -->
<g id="node1" class="node">
<title>dir_4099da298ded5c89b37f083ec42d8d40</title>
<g id="a_node1"><a xlink:href="dir_4099da298ded5c89b37f083ec42d8d40.html" target="_top" xlink:title="domain">
<polygon fill="#a2b4d6" stroke="red" points="63.75,-92 16.25,-92 16.25,-72 63.75,-72 63.75,-92"/>
<text xml:space="preserve" text-anchor="middle" x="40" y="-78.5" font-family="Helvetica,sans-Serif" font-size="10.00">domain</text>
</a>
</g>
</g>
<!-- dir_6c154d7510949a2b37f111126ba92ccf -->
<g id="node2" class="node">
<title>dir_6c154d7510949a2b37f111126ba92ccf</title>
<g id="a_node2"><a xlink:href="dir_6c154d7510949a2b37f111126ba92ccf.html" target="_top" xlink:title="repository">
<polygon fill="#a2b4d6" stroke="red" points="178.38,-36 119.62,-36 119.62,-16 178.38,-16 178.38,-36"/>
<text xml:space="preserve" text-anchor="middle" x="149" y="-22.5" font-family="Helvetica,sans-Serif" font-size="10.00">repository</text>
</a>
</g>
</g>
<!-- dir_bcb51583d731690cfe793e8c91dddf0f -->
<g id="node3" class="node">
<title>dir_bcb51583d731690cfe793e8c91dddf0f</title>
<g id="a_node3"><a xlink:href="dir_bcb51583d731690cfe793e8c91dddf0f.html" target="_top" xlink:title="utility">
<polygon fill="#a2b4d6" stroke="red" points="120.62,-92 81.38,-92 81.38,-72 120.62,-72 120.62,-92"/>
<text xml:space="preserve" text-anchor="middle" x="101" y="-78.5" font-family="Helvetica,sans-Serif" font-size="10.00">utility</text>
</a>
</g>
</g>
<!-- dir_cea6b123251f3cedcaebc32d093e626d -->
<g id="node4" class="node">
<title>dir_cea6b123251f3cedcaebc32d093e626d</title>
<g id="a_node4"><a xlink:href="dir_cea6b123251f3cedcaebc32d093e626d.html" target="_top" xlink:title="cs_binding">
<polygon fill="#a2b4d6" stroke="red" points="524.25,-36 461.75,-36 461.75,-16 524.25,-16 524.25,-36"/>
<text xml:space="preserve" text-anchor="middle" x="493" y="-22.5" font-family="Helvetica,sans-Serif" font-size="10.00">cs_binding</text>
</a>
</g>
</g>
<!-- dir_43f8aa2529ec47ad37b553a33a2ea717 -->
<g id="node5" class="node">
<title>dir_43f8aa2529ec47ad37b553a33a2ea717</title>
<g id="a_node5"><a xlink:href="dir_43f8aa2529ec47ad37b553a33a2ea717.html" target="_top" xlink:title="usecase">
<polygon fill="#a2b4d6" stroke="red" points="341.38,-36 288.62,-36 288.62,-16 341.38,-16 341.38,-36"/>
<text xml:space="preserve" text-anchor="middle" x="315" y="-22.5" font-family="Helvetica,sans-Serif" font-size="10.00">usecase</text>
</a>
</g>
</g>
<!-- dir_066db6754a9c6d2110edb818b32154f8 -->
<g id="node6" class="node">
<title>dir_066db6754a9c6d2110edb818b32154f8</title>
<g id="a_node6"><a xlink:href="dir_066db6754a9c6d2110edb818b32154f8.html" target="_top" xlink:title="control">
<polygon fill="#a2b4d6" stroke="red" points="251.62,-36 206.38,-36 206.38,-16 251.62,-16 251.62,-36"/>
<text xml:space="preserve" text-anchor="middle" x="229" y="-22.5" font-family="Helvetica,sans-Serif" font-size="10.00">control</text>
</a>
</g>
</g>
<!-- dir_b08448ab66980ac237b9eba210eedb4a -->
<g id="node7" class="node">
<title>dir_b08448ab66980ac237b9eba210eedb4a</title>
<g id="a_node7"><a xlink:href="dir_b08448ab66980ac237b9eba210eedb4a.html" target="_top" xlink:title="presentation">
<polygon fill="#a2b4d6" stroke="red" points="438.62,-36 369.38,-36 369.38,-16 438.62,-16 438.62,-36"/>
<text xml:space="preserve" text-anchor="middle" x="404" y="-22.5" font-family="Helvetica,sans-Serif" font-size="10.00">presentation</text>
</a>
</g>
</g>
<!-- dir_62153e020276f17450b004104a906c1d -->
<g id="node8" class="node">
<title>dir_62153e020276f17450b004104a906c1d</title>
<text xml:space="preserve" text-anchor="middle" x="297" y="-134.5" font-family="Helvetica,sans-Serif" font-size="10.00">application</text>
</g>
<!-- dir_62153e020276f17450b004104a906c1d&#45;&gt;dir_4099da298ded5c89b37f083ec42d8d40 -->
<g id="edge1" class="edge">
<title>dir_62153e020276f17450b004104a906c1d&#45;&gt;dir_4099da298ded5c89b37f083ec42d8d40</title>
<g id="a_edge1"><a xlink:href="dir_000004_000049.html" target="_top">
<path fill="none" stroke="#63b8ff" d="M266.12,-130.14C262.71,-129.41 259.28,-128.68 256,-128 177.92,-111.79 155.01,-111.31 75.17,-92.62"/>
<polygon fill="#63b8ff" stroke="#63b8ff" points="76.07,-89.24 65.53,-90.34 74.46,-96.05 76.07,-89.24"/>
</a>
</g>
<g id="a_edge1&#45;headlabel"><a xlink:href="dir_000004_000049.html" target="_top" xlink:title="26">
<text xml:space="preserve" text-anchor="middle" x="78.75" y="-83.45" font-family="Helvetica,sans-Serif" font-size="10.00" fill="#63b8ff">26</text>
</a>
</g>
</g>
<!-- dir_62153e020276f17450b004104a906c1d&#45;&gt;dir_6c154d7510949a2b37f111126ba92ccf -->
<g id="edge3" class="edge">
<title>dir_62153e020276f17450b004104a906c1d&#45;&gt;dir_6c154d7510949a2b37f111126ba92ccf</title>
<g id="a_edge3"><a xlink:href="dir_000004_000082.html" target="_top">
<path fill="none" stroke="#63b8ff" d="M265.82,-129.07C226.21,-118.71 162.12,-100.84 155,-92 145.1,-79.7 144.2,-61.53 145.43,-47.53"/>
<polygon fill="#63b8ff" stroke="#63b8ff" points="148.9,-48.01 146.77,-37.63 141.96,-47.07 148.9,-48.01"/>
</a>
</g>
<g id="a_edge3&#45;headlabel"><a xlink:href="dir_000004_000082.html" target="_top" xlink:title="6">
<text xml:space="preserve" text-anchor="middle" x="151.43" y="-46.95" font-family="Helvetica,sans-Serif" font-size="10.00" fill="#63b8ff">6</text>
</a>
</g>
</g>
<!-- dir_62153e020276f17450b004104a906c1d&#45;&gt;dir_bcb51583d731690cfe793e8c91dddf0f -->
<g id="edge5" class="edge">
<title>dir_62153e020276f17450b004104a906c1d&#45;&gt;dir_bcb51583d731690cfe793e8c91dddf0f</title>
<g id="a_edge5"><a xlink:href="dir_000004_000102.html" target="_top">
<path fill="none" stroke="#63b8ff" d="M265.97,-129.9C233.68,-122.29 181.46,-109.38 131.96,-94.11"/>
<polygon fill="#63b8ff" stroke="#63b8ff" points="133.15,-90.82 122.56,-91.17 131.05,-97.5 133.15,-90.82"/>
</a>
</g>
<g id="a_edge5&#45;headlabel"><a xlink:href="dir_000004_000102.html" target="_top" xlink:title="1">
<text xml:space="preserve" text-anchor="middle" x="135.98" y="-85.23" font-family="Helvetica,sans-Serif" font-size="10.00" fill="#63b8ff">1</text>
</a>
</g>
</g>
<!-- dir_62153e020276f17450b004104a906c1d&#45;&gt;dir_cea6b123251f3cedcaebc32d093e626d -->
<g id="edge6" class="edge">
<title>dir_62153e020276f17450b004104a906c1d&#45;&gt;dir_cea6b123251f3cedcaebc32d093e626d</title>
<g id="a_edge6"><a xlink:href="dir_000004_000039.html" target="_top">
<path fill="none" stroke="#63b8ff" d="M328.13,-129.84C372.49,-119.42 449.71,-100.41 460,-92 461.98,-90.38 474.58,-64.96 483.62,-46.4"/>
<polygon fill="#63b8ff" stroke="#63b8ff" points="486.67,-48.14 487.89,-37.61 480.37,-45.08 486.67,-48.14"/>
</a>
</g>
<g id="a_edge6&#45;headlabel"><a xlink:href="dir_000004_000039.html" target="_top" xlink:title="16">
<text xml:space="preserve" text-anchor="middle" x="488.32" y="-47.75" font-family="Helvetica,sans-Serif" font-size="10.00" fill="#63b8ff">16</text>
</a>
</g>
</g>
<!-- dir_7e633cb83dfe69181f5d5e89385753cb -->
<g id="node9" class="node">
<title>dir_7e633cb83dfe69181f5d5e89385753cb</title>
<g id="a_node9"><a xlink:href="dir_7e633cb83dfe69181f5d5e89385753cb.html" target="_top" xlink:title="archiver">
<polygon fill="#a2b4d6" stroke="#404040" points="249.25,-92 198.75,-92 198.75,-72 249.25,-72 249.25,-92"/>
<text xml:space="preserve" text-anchor="middle" x="224" y="-78.5" font-family="Helvetica,sans-Serif" font-size="10.00">archiver</text>
</a>
</g>
</g>
<!-- dir_62153e020276f17450b004104a906c1d&#45;&gt;dir_7e633cb83dfe69181f5d5e89385753cb -->
<g id="edge4" class="edge">
<title>dir_62153e020276f17450b004104a906c1d&#45;&gt;dir_7e633cb83dfe69181f5d5e89385753cb</title>
<g id="a_edge4"><a xlink:href="dir_000004_000007.html" target="_top">
<path fill="none" stroke="#63b8ff" d="M284.95,-128.08C274.36,-120.25 258.7,-108.67 245.9,-99.2"/>
<polygon fill="#63b8ff" stroke="#63b8ff" points="248.15,-96.51 238.03,-93.38 243.98,-102.14 248.15,-96.51"/>
</a>
</g>
<g id="a_edge4&#45;headlabel"><a xlink:href="dir_000004_000007.html" target="_top" xlink:title="1">
<text xml:space="preserve" text-anchor="middle" x="251.51" y="-91.96" font-family="Helvetica,sans-Serif" font-size="10.00" fill="#63b8ff">1</text>
</a>
</g>
</g>
<!-- dir_57f1aaa3fa8f9297e7b1fd04f654d594 -->
<g id="node15" class="node">
<title>dir_57f1aaa3fa8f9297e7b1fd04f654d594</title>
<g id="a_node15"><a xlink:href="dir_57f1aaa3fa8f9297e7b1fd04f654d594.html" target="_top" xlink:title="utility">
<polygon fill="#edf0f7" stroke="red" stroke-dasharray="5,2" points="586.62,-36 547.38,-36 547.38,-16 586.62,-16 586.62,-36"/>
<text xml:space="preserve" text-anchor="middle" x="567" y="-22.5" font-family="Helvetica,sans-Serif" font-size="10.00">utility</text>
</a>
</g>
</g>
<!-- dir_62153e020276f17450b004104a906c1d&#45;&gt;dir_57f1aaa3fa8f9297e7b1fd04f654d594 -->
<g id="edge2" class="edge">
<title>dir_62153e020276f17450b004104a906c1d&#45;&gt;dir_57f1aaa3fa8f9297e7b1fd04f654d594</title>
<g id="a_edge2"><a xlink:href="dir_000004_000103.html" target="_top">
<path fill="none" stroke="#63b8ff" d="M327.98,-129.87C331.02,-129.22 334.07,-128.59 337,-128 428.14,-109.79 471.62,-151.52 543,-92 556.28,-80.93 562.21,-61.79 564.86,-47.14"/>
<polygon fill="#63b8ff" stroke="#63b8ff" points="568.27,-48.06 566.2,-37.67 561.34,-47.08 568.27,-48.06"/>
</a>
</g>
<g id="a_edge2&#45;headlabel"><a xlink:href="dir_000004_000103.html" target="_top" xlink:title="7">
<text xml:space="preserve" text-anchor="middle" x="570.79" y="-47.01" font-family="Helvetica,sans-Serif" font-size="10.00" fill="#63b8ff">7</text>
</a>
</g>
</g>
<!-- dir_7e633cb83dfe69181f5d5e89385753cb&#45;&gt;dir_6c154d7510949a2b37f111126ba92ccf -->
<g id="edge7" class="edge">
<title>dir_7e633cb83dfe69181f5d5e89385753cb&#45;&gt;dir_6c154d7510949a2b37f111126ba92ccf</title>
<g id="a_edge7"><a xlink:href="dir_000007_000082.html" target="_top">
<path fill="none" stroke="#63b8ff" d="M210.94,-71.59C200.03,-63.74 184.25,-52.38 171.34,-43.09"/>
<polygon fill="#63b8ff" stroke="#63b8ff" points="173.55,-40.37 163.39,-37.36 169.46,-46.05 173.55,-40.37"/>
</a>
</g>
<g id="a_edge7&#45;headlabel"><a xlink:href="dir_000007_000082.html" target="_top" xlink:title="1">
<text xml:space="preserve" text-anchor="middle" x="176.9" y="-35.78" font-family="Helvetica,sans-Serif" font-size="10.00" fill="#63b8ff">1</text>
</a>
</g>
</g>
<!-- dir_cb2f984bab5d8415904083f7c2b03401 -->
<g id="node10" class="node">
<title>dir_cb2f984bab5d8415904083f7c2b03401</title>
<g id="a_node10"><a xlink:href="dir_cb2f984bab5d8415904083f7c2b03401.html" target="_top" xlink:title="backup_json">
<polygon fill="#a2b4d6" stroke="#404040" points="451.38,-92 380.62,-92 380.62,-72 451.38,-72 451.38,-92"/>
<text xml:space="preserve" text-anchor="middle" x="416" y="-78.5" font-family="Helvetica,sans-Serif" font-size="10.00">backup_json</text>
</a>
</g>
</g>
<!-- dir_cb2f984bab5d8415904083f7c2b03401&#45;&gt;dir_43f8aa2529ec47ad37b553a33a2ea717 -->
<g id="edge8" class="edge">
<title>dir_cb2f984bab5d8415904083f7c2b03401&#45;&gt;dir_43f8aa2529ec47ad37b553a33a2ea717</title>
<g id="a_edge8"><a xlink:href="dir_000011_000099.html" target="_top">
<path fill="none" stroke="#63b8ff" d="M398.41,-71.59C383.08,-63.4 360.58,-51.37 342.81,-41.87"/>
<polygon fill="#63b8ff" stroke="#63b8ff" points="344.53,-38.82 334.06,-37.19 341.23,-44.99 344.53,-38.82"/>
</a>
</g>
<g id="a_edge8&#45;headlabel"><a xlink:href="dir_000011_000099.html" target="_top" xlink:title="1">
<text xml:space="preserve" text-anchor="middle" x="347.71" y="-33.8" font-family="Helvetica,sans-Serif" font-size="10.00" fill="#63b8ff">1</text>
</a>
</g>
</g>
<!-- dir_cb2f984bab5d8415904083f7c2b03401&#45;&gt;dir_57f1aaa3fa8f9297e7b1fd04f654d594 -->
<g id="edge9" class="edge">
<title>dir_cb2f984bab5d8415904083f7c2b03401&#45;&gt;dir_57f1aaa3fa8f9297e7b1fd04f654d594</title>
<g id="a_edge9"><a xlink:href="dir_000011_000103.html" target="_top">
<path fill="none" stroke="#63b8ff" d="M442.81,-71.66C466.24,-63.46 501.43,-51.07 536.68,-38.29"/>
<polygon fill="#63b8ff" stroke="#63b8ff" points="537.48,-41.72 545.68,-35.01 535.09,-35.14 537.48,-41.72"/>
</a>
</g>
<g id="a_edge9&#45;headlabel"><a xlink:href="dir_000011_000103.html" target="_top" xlink:title="1">
<text xml:space="preserve" text-anchor="middle" x="536.5" y="-41.6" font-family="Helvetica,sans-Serif" font-size="10.00" fill="#63b8ff">1</text>
</a>
</g>
</g>
<!-- dir_b0a0d03b71a6b46b3f33ca88afb19b2e -->
<g id="node11" class="node">
<title>dir_b0a0d03b71a6b46b3f33ca88afb19b2e</title>
<g id="a_node11"><a xlink:href="dir_b0a0d03b71a6b46b3f33ca88afb19b2e.html" target="_top" xlink:title="command_line_option">
<polygon fill="#a2b4d6" stroke="#404040" points="247.25,-148 136.75,-148 136.75,-128 247.25,-128 247.25,-148"/>
<text xml:space="preserve" text-anchor="middle" x="192" y="-134.5" font-family="Helvetica,sans-Serif" font-size="10.00">command_line_option</text>
</a>
</g>
</g>
<!-- dir_b0a0d03b71a6b46b3f33ca88afb19b2e&#45;&gt;dir_4099da298ded5c89b37f083ec42d8d40 -->
<g id="edge10" class="edge">
<title>dir_b0a0d03b71a6b46b3f33ca88afb19b2e&#45;&gt;dir_4099da298ded5c89b37f083ec42d8d40</title>
<g id="a_edge10"><a xlink:href="dir_000022_000049.html" target="_top">
<path fill="none" stroke="#63b8ff" d="M165.52,-127.59C140.41,-118.67 102.5,-105.21 74.92,-95.41"/>
<polygon fill="#63b8ff" stroke="#63b8ff" points="76.19,-92.14 65.6,-92.09 73.85,-98.74 76.19,-92.14"/>
</a>
</g>
<g id="a_edge10&#45;headlabel"><a xlink:href="dir_000022_000049.html" target="_top" xlink:title="1">
<text xml:space="preserve" text-anchor="middle" x="79.1" y="-86.66" font-family="Helvetica,sans-Serif" font-size="10.00" fill="#63b8ff">1</text>
</a>
</g>
</g>
<!-- dir_6bc76a7ac06a3d117d11b93a0cd1820a -->
<g id="node12" class="node">
<title>dir_6bc76a7ac06a3d117d11b93a0cd1820a</title>
<g id="a_node12"><a xlink:href="dir_6bc76a7ac06a3d117d11b93a0cd1820a.html" target="_top" xlink:title="cs_binding_factory">
<polygon fill="#a2b4d6" stroke="#404040" points="443.88,-148 346.12,-148 346.12,-128 443.88,-128 443.88,-148"/>
<text xml:space="preserve" text-anchor="middle" x="395" y="-134.5" font-family="Helvetica,sans-Serif" font-size="10.00">cs_binding_factory</text>
</a>
</g>
</g>
<!-- dir_6bc76a7ac06a3d117d11b93a0cd1820a&#45;&gt;dir_4099da298ded5c89b37f083ec42d8d40 -->
<g id="edge12" class="edge">
<title>dir_6bc76a7ac06a3d117d11b93a0cd1820a&#45;&gt;dir_4099da298ded5c89b37f083ec42d8d40</title>
<g id="a_edge12"><a xlink:href="dir_000042_000049.html" target="_top">
<path fill="none" stroke="#63b8ff" d="M345.65,-129.28C342.72,-128.84 339.82,-128.41 337,-128 222.94,-111.4 190.34,-115.85 75.07,-92.42"/>
<polygon fill="#63b8ff" stroke="#63b8ff" points="76.01,-89.04 65.51,-90.45 74.59,-95.9 76.01,-89.04"/>
</a>
</g>
<g id="a_edge12&#45;headlabel"><a xlink:href="dir_000042_000049.html" target="_top" xlink:title="4">
<text xml:space="preserve" text-anchor="middle" x="78.62" y="-83.18" font-family="Helvetica,sans-Serif" font-size="10.00" fill="#63b8ff">4</text>
</a>
</g>
</g>
<!-- dir_6bc76a7ac06a3d117d11b93a0cd1820a&#45;&gt;dir_cea6b123251f3cedcaebc32d093e626d -->
<g id="edge17" class="edge">
<title>dir_6bc76a7ac06a3d117d11b93a0cd1820a&#45;&gt;dir_cea6b123251f3cedcaebc32d093e626d</title>
<g id="a_edge17"><a xlink:href="dir_000042_000039.html" target="_top">
<path fill="none" stroke="#63b8ff" d="M417.46,-127.57C433.18,-119.98 453.67,-107.95 467,-92 477.85,-79.02 484.59,-60.93 488.48,-47.13"/>
<polygon fill="#63b8ff" stroke="#63b8ff" points="491.78,-48.37 490.83,-37.81 484.99,-46.66 491.78,-48.37"/>
</a>
</g>
<g id="a_edge17&#45;headlabel"><a xlink:href="dir_000042_000039.html" target="_top" xlink:title="9">
<text xml:space="preserve" text-anchor="middle" x="494.02" y="-47.58" font-family="Helvetica,sans-Serif" font-size="10.00" fill="#63b8ff">9</text>
</a>
</g>
</g>
<!-- dir_6bc76a7ac06a3d117d11b93a0cd1820a&#45;&gt;dir_43f8aa2529ec47ad37b553a33a2ea717 -->
<g id="edge13" class="edge">
<title>dir_6bc76a7ac06a3d117d11b93a0cd1820a&#45;&gt;dir_43f8aa2529ec47ad37b553a33a2ea717</title>
<g id="a_edge13"><a xlink:href="dir_000042_000099.html" target="_top">
<path fill="none" stroke="#63b8ff" d="M345.63,-127.76C286.56,-116.48 194.93,-98.13 190,-92 182.2,-82.3 182.55,-73.97 190,-64 200.54,-49.89 244.47,-39.26 277.29,-33.09"/>
<polygon fill="#63b8ff" stroke="#63b8ff" points="277.66,-36.58 286.88,-31.37 276.42,-29.7 277.66,-36.58"/>
</a>
</g>
<g id="a_edge13&#45;headlabel"><a xlink:href="dir_000042_000099.html" target="_top" xlink:title="31">
<text xml:space="preserve" text-anchor="middle" x="276.11" y="-36.25" font-family="Helvetica,sans-Serif" font-size="10.00" fill="#63b8ff">31</text>
</a>
</g>
</g>
<!-- dir_6bc76a7ac06a3d117d11b93a0cd1820a&#45;&gt;dir_066db6754a9c6d2110edb818b32154f8 -->
<g id="edge11" class="edge">
<title>dir_6bc76a7ac06a3d117d11b93a0cd1820a&#45;&gt;dir_066db6754a9c6d2110edb818b32154f8</title>
<g id="a_edge11"><a xlink:href="dir_000042_000031.html" target="_top">
<path fill="none" stroke="#63b8ff" d="M345.63,-128.28C283.8,-117.13 185.26,-98.47 180,-92 172.15,-82.34 174.45,-75.14 180,-64 184.29,-55.38 191.65,-48.24 199.38,-42.61"/>
<polygon fill="#63b8ff" stroke="#63b8ff" points="201.06,-45.69 207.54,-37.31 197.25,-39.82 201.06,-45.69"/>
</a>
</g>
<g id="a_edge11&#45;headlabel"><a xlink:href="dir_000042_000031.html" target="_top" xlink:title="2">
<text xml:space="preserve" text-anchor="middle" x="200.86" y="-45.71" font-family="Helvetica,sans-Serif" font-size="10.00" fill="#63b8ff">2</text>
</a>
</g>
</g>
<!-- dir_6bc76a7ac06a3d117d11b93a0cd1820a&#45;&gt;dir_b08448ab66980ac237b9eba210eedb4a -->
<g id="edge15" class="edge">
<title>dir_6bc76a7ac06a3d117d11b93a0cd1820a&#45;&gt;dir_b08448ab66980ac237b9eba210eedb4a</title>
<g id="a_edge15"><a xlink:href="dir_000042_000076.html" target="_top">
<path fill="none" stroke="#63b8ff" d="M418.75,-127.51C433.53,-120.2 451.34,-108.53 460,-92 465.78,-80.98 465.89,-74.96 460,-64 455.07,-54.83 446.75,-47.55 438.02,-41.96"/>
<polygon fill="#63b8ff" stroke="#63b8ff" points="439.88,-39 429.46,-37.11 436.43,-45.09 439.88,-39"/>
</a>
</g>
<g id="a_edge15&#45;headlabel"><a xlink:href="dir_000042_000076.html" target="_top" xlink:title="8">
<text xml:space="preserve" text-anchor="middle" x="443.1" y="-34.05" font-family="Helvetica,sans-Serif" font-size="10.00" fill="#63b8ff">8</text>
</a>
</g>
</g>
<!-- dir_6bc76a7ac06a3d117d11b93a0cd1820a&#45;&gt;dir_cb2f984bab5d8415904083f7c2b03401 -->
<g id="edge16" class="edge">
<title>dir_6bc76a7ac06a3d117d11b93a0cd1820a&#45;&gt;dir_cb2f984bab5d8415904083f7c2b03401</title>
<g id="a_edge16"><a xlink:href="dir_000042_000011.html" target="_top">
<path fill="none" stroke="#63b8ff" d="M398.66,-127.59C401.31,-120.78 404.99,-111.32 408.28,-102.86"/>
<polygon fill="#63b8ff" stroke="#63b8ff" points="411.47,-104.3 411.84,-93.71 404.95,-101.76 411.47,-104.3"/>
</a>
</g>
<g id="a_edge16&#45;headlabel"><a xlink:href="dir_000042_000011.html" target="_top" xlink:title="1">
<text xml:space="preserve" text-anchor="middle" x="413.36" y="-103.77" font-family="Helvetica,sans-Serif" font-size="10.00" fill="#63b8ff">1</text>
</a>
</g>
</g>
<!-- dir_9b16a64387d68a55f2749859edf07bb6 -->
<g id="node14" class="node">
<title>dir_9b16a64387d68a55f2749859edf07bb6</title>
<g id="a_node14"><a xlink:href="dir_9b16a64387d68a55f2749859edf07bb6.html" target="_top" xlink:title="usecase_dispatch">
<polygon fill="#a2b4d6" stroke="#404040" points="362.38,-92 267.62,-92 267.62,-72 362.38,-72 362.38,-92"/>
<text xml:space="preserve" text-anchor="middle" x="315" y="-78.5" font-family="Helvetica,sans-Serif" font-size="10.00">usecase_dispatch</text>
</a>
</g>
</g>
<!-- dir_6bc76a7ac06a3d117d11b93a0cd1820a&#45;&gt;dir_9b16a64387d68a55f2749859edf07bb6 -->
<g id="edge14" class="edge">
<title>dir_6bc76a7ac06a3d117d11b93a0cd1820a&#45;&gt;dir_9b16a64387d68a55f2749859edf07bb6</title>
<g id="a_edge14"><a xlink:href="dir_000042_000101.html" target="_top">
<path fill="none" stroke="#63b8ff" d="M381.07,-127.59C369.32,-119.67 352.27,-108.16 338.43,-98.82"/>
<polygon fill="#63b8ff" stroke="#63b8ff" points="340.54,-96.02 330.3,-93.33 336.63,-101.82 340.54,-96.02"/>
</a>
</g>
<g id="a_edge14&#45;headlabel"><a xlink:href="dir_000042_000101.html" target="_top" xlink:title="1">
<text xml:space="preserve" text-anchor="middle" x="343.86" y="-91.33" font-family="Helvetica,sans-Serif" font-size="10.00" fill="#63b8ff">1</text>
</a>
</g>
</g>
<!-- dir_db7fd1b1c514877b03b2e204705b23cb -->
<g id="node13" class="node">
<title>dir_db7fd1b1c514877b03b2e204705b23cb</title>
<g id="a_node13"><a xlink:href="dir_db7fd1b1c514877b03b2e204705b23cb.html" target="_top" xlink:title="debug">
<polygon fill="#a2b4d6" stroke="#404040" points="504.12,-148 461.88,-148 461.88,-128 504.12,-128 504.12,-148"/>
<text xml:space="preserve" text-anchor="middle" x="483" y="-134.5" font-family="Helvetica,sans-Serif" font-size="10.00">debug</text>
</a>
</g>
</g>
<!-- dir_db7fd1b1c514877b03b2e204705b23cb&#45;&gt;dir_cea6b123251f3cedcaebc32d093e626d -->
<g id="edge19" class="edge">
<title>dir_db7fd1b1c514877b03b2e204705b23cb&#45;&gt;dir_cea6b123251f3cedcaebc32d093e626d</title>
<g id="a_edge19"><a xlink:href="dir_000045_000039.html" target="_top">
<path fill="none" stroke="#63b8ff" d="M492.36,-127.63C500.12,-119.14 510.57,-105.88 515,-92 518.79,-80.15 518.3,-76 515,-64 513.24,-57.6 510.06,-51.2 506.65,-45.55"/>
<polygon fill="#63b8ff" stroke="#63b8ff" points="509.83,-44.02 501.37,-37.65 504.01,-47.91 509.83,-44.02"/>
</a>
</g>
<g id="a_edge19&#45;headlabel"><a xlink:href="dir_000045_000039.html" target="_top" xlink:title="1">
<text xml:space="preserve" text-anchor="middle" x="513.35" y="-40.67" font-family="Helvetica,sans-Serif" font-size="10.00" fill="#63b8ff">1</text>
</a>
</g>
</g>
<!-- dir_db7fd1b1c514877b03b2e204705b23cb&#45;&gt;dir_57f1aaa3fa8f9297e7b1fd04f654d594 -->
<g id="edge18" class="edge">
<title>dir_db7fd1b1c514877b03b2e204705b23cb&#45;&gt;dir_57f1aaa3fa8f9297e7b1fd04f654d594</title>
<g id="a_edge18"><a xlink:href="dir_000045_000103.html" target="_top">
<path fill="none" stroke="#63b8ff" d="M504.47,-132.99C526.03,-127.7 558.12,-116.07 573,-92 581.29,-78.58 578.79,-60.53 574.78,-46.86"/>
<polygon fill="#63b8ff" stroke="#63b8ff" points="578.17,-45.94 571.6,-37.63 571.55,-48.22 578.17,-45.94"/>
</a>
</g>
<g id="a_edge18&#45;headlabel"><a xlink:href="dir_000045_000103.html" target="_top" xlink:title="1">
<text xml:space="preserve" text-anchor="middle" x="581.53" y="-43.48" font-family="Helvetica,sans-Serif" font-size="10.00" fill="#63b8ff">1</text>
</a>
</g>
</g>
<!-- dir_9b16a64387d68a55f2749859edf07bb6&#45;&gt;dir_cea6b123251f3cedcaebc32d093e626d -->
<g id="edge23" class="edge">
<title>dir_9b16a64387d68a55f2749859edf07bb6&#45;&gt;dir_cea6b123251f3cedcaebc32d093e626d</title>
<g id="a_edge23"><a xlink:href="dir_000101_000039.html" target="_top">
<path fill="none" stroke="#63b8ff" d="M346.01,-71.59C375.05,-62.78 418.7,-49.54 450.89,-39.78"/>
<polygon fill="#63b8ff" stroke="#63b8ff" points="451.75,-43.17 460.3,-36.92 449.72,-36.47 451.75,-43.17"/>
</a>
</g>
<g id="a_edge23&#45;headlabel"><a xlink:href="dir_000101_000039.html" target="_top" xlink:title="1">
<text xml:space="preserve" text-anchor="middle" x="450.58" y="-42.99" font-family="Helvetica,sans-Serif" font-size="10.00" fill="#63b8ff">1</text>
</a>
</g>
</g>
<!-- dir_9b16a64387d68a55f2749859edf07bb6&#45;&gt;dir_43f8aa2529ec47ad37b553a33a2ea717 -->
<g id="edge21" class="edge">
<title>dir_9b16a64387d68a55f2749859edf07bb6&#45;&gt;dir_43f8aa2529ec47ad37b553a33a2ea717</title>
<g id="a_edge21"><a xlink:href="dir_000101_000099.html" target="_top">
<path fill="none" stroke="#63b8ff" d="M315,-71.59C315,-65.01 315,-55.96 315,-47.73"/>
<polygon fill="#63b8ff" stroke="#63b8ff" points="318.5,-47.81 315,-37.81 311.5,-47.81 318.5,-47.81"/>
</a>
</g>
<g id="a_edge21&#45;headlabel"><a xlink:href="dir_000101_000099.html" target="_top" xlink:title="27">
<text xml:space="preserve" text-anchor="middle" x="321.34" y="-46.39" font-family="Helvetica,sans-Serif" font-size="10.00" fill="#63b8ff">27</text>
</a>
</g>
</g>
<!-- dir_9b16a64387d68a55f2749859edf07bb6&#45;&gt;dir_066db6754a9c6d2110edb818b32154f8 -->
<g id="edge20" class="edge">
<title>dir_9b16a64387d68a55f2749859edf07bb6&#45;&gt;dir_066db6754a9c6d2110edb818b32154f8</title>
<g id="a_edge20"><a xlink:href="dir_000101_000031.html" target="_top">
<path fill="none" stroke="#63b8ff" d="M300.02,-71.59C287.27,-63.59 268.71,-51.93 253.76,-42.54"/>
<polygon fill="#63b8ff" stroke="#63b8ff" points="255.71,-39.64 245.38,-37.28 251.99,-45.57 255.71,-39.64"/>
</a>
</g>
<g id="a_edge20&#45;headlabel"><a xlink:href="dir_000101_000031.html" target="_top" xlink:title="2">
<text xml:space="preserve" text-anchor="middle" x="258.98" y="-34.84" font-family="Helvetica,sans-Serif" font-size="10.00" fill="#63b8ff">2</text>
</a>
</g>
</g>
<!-- dir_9b16a64387d68a55f2749859edf07bb6&#45;&gt;dir_b08448ab66980ac237b9eba210eedb4a -->
<g id="edge22" class="edge">
<title>dir_9b16a64387d68a55f2749859edf07bb6&#45;&gt;dir_b08448ab66980ac237b9eba210eedb4a</title>
<g id="a_edge22"><a xlink:href="dir_000101_000076.html" target="_top">
<path fill="none" stroke="#63b8ff" d="M330.5,-71.59C343.82,-63.51 363.28,-51.71 378.83,-42.27"/>
<polygon fill="#63b8ff" stroke="#63b8ff" points="380.35,-45.44 387.08,-37.26 376.72,-39.46 380.35,-45.44"/>
</a>
</g>
<g id="a_edge22&#45;headlabel"><a xlink:href="dir_000101_000076.html" target="_top" xlink:title="5">
<text xml:space="preserve" text-anchor="middle" x="380.04" y="-45.45" font-family="Helvetica,sans-Serif" font-size="10.00" fill="#63b8ff">5</text>
</a>
</g>
</g>
</g>
</svg>

<g id="navigator" transform="translate(0 0)" fill="#404254">
  <rect fill="#f2f5e9" fill-opacity="0.5" stroke="#606060" stroke-width=".5" x="0" y="0" width="60" height="60"/>
  <use id="zoomplus" xlink:href="#zoomPlus" x="17" y="9" onmousedown="handleZoom(evt,'in')"/>
  <use id="zoomminus" xlink:href="#zoomMin" x="42" y="9" onmousedown="handleZoom(evt,'out')"/>
  <use id="reset" xlink:href="#resetDef" x="30" y="36" onmousedown="handleReset()"/>
   <use id="arrowup" xlink:href="#arrowUp" x="0" y="0" onmousedown="handlePan(0,-1)"/>
  <use id="arrowright" xlink:href="#arrowRight" x="0" y="0" onmousedown="handlePan(1,0)"/>
  <use id="arrowdown" xlink:href="#arrowDown" x="0" y="0" onmousedown="handlePan(0,1)"/>
  <use id="arrowleft" xlink:href="#arrowLeft" x="0" y="0" onmousedown="handlePan(-1,0)"/>
</g>
<svg viewBox="0 0 15 15" width="100%" height="30px" preserveAspectRatio="xMaxYMin meet">
 <g id="arrow_out" transform="scale(0.3 0.3)">
  <a xlink:href="dir_62153e020276f17450b004104a906c1d_dep_org.svg" target="_base">
   <rect id="button" ry="5" rx="5" y="6" x="6" height="38" width="38"
        fill="#f2f5e9" fill-opacity="0.5" stroke="#606060" stroke-width="1.0"/>
   <path id="arrow"
     d="M 11.500037,31.436501 C 11.940474,20.09759 22.043105,11.32322 32.158766,21.979434 L 37.068811,17.246167 C 37.068811,17.246167 37.088388,32 37.088388,32 L 22.160133,31.978069 C 22.160133,31.978069 26.997745,27.140456 26.997745,27.140456 C 18.528582,18.264221 13.291696,25.230495 11.500037,31.436501 z"
     style="fill:#404040;"/>
  </a>
 </g>
</svg>

<style type='text/css'>
<![CDATA[
[data-mouse-over-selected='false'] { opacity: 0.7; }
[data-mouse-over-selected='true']  { opacity: 1.0; }
]]>
</style>
<script type="application/ecmascript"><![CDATA[
document.addEventListener('DOMContentLoaded', (event) => {
  highlightEdges();
  highlightAdjacentNodes();
});
]]></script>
</svg>
