<?xml version="1.0" encoding="UTF-8" standalone="no"?>
<!DOCTYPE svg PUBLIC "-//W3C//DTD SVG 1.1//EN"
 "http://www.w3.org/Graphics/SVG/1.1/DTD/svg11.dtd">
<!-- Generated by graphviz version 14.1.2 (20260124.0452)
 -->
<!-- Title: depicture_menu/src/core/application/cs_binding_factory Pages: 1 -->
<!--zoomable 184 -->

<svg id="main" version="1.1" xmlns="http://www.w3.org/2000/svg" xmlns:xlink="http://www.w3.org/1999/xlink" xml:space="preserve" onload="init(evt)">

<style type="text/css"><![CDATA[
.node, .edge {opacity: 0.7;}
.node.selected, .edge.selected {opacity: 1;}
.edge:hover path { stroke: red; }
.edge:hover polygon { stroke: red; fill: red; }
]]></style>

<defs>
  <circle id="rim" cx="0" cy="0" r="7"/>
  <circle id="rim2" cx="0" cy="0" r="3.5"/>
  <g id="zoomPlus">
    <use xlink:href="#rim" fill="#404040"><set attributeName="fill" to="#808080" begin="zoomplus.mouseover" end="zoomplus.mouseout"/></use>
    <path d="M-4,0h8M0,-4v8" fill="none" stroke="white" stroke-width="1.5" pointer-events="none"/>
  </g>
  <g id="zoomMin">
    <use xlink:href="#rim" fill="#404040"><set attributeName="fill" to="#808080" begin="zoomminus.mouseover" end="zoomminus.mouseout"/></use>
    <path d="M-4,0h8" fill="none" stroke="white" stroke-width="1.5" pointer-events="none"/>
  </g>
  <g id="arrowUp" transform="translate(30 24)">
    <use xlink:href="#rim"/>
    <path pointer-events="none" fill="none" stroke="white" stroke-width="1.5" d="M0,-3.0v7 M-2.5,-0.5L0,-3.0L2.5,-0.5"/>
  </g>
  <g id="arrowRight" transform="rotate(90) translate(36 -43)">
    <use xlink:href="#rim"/>
    <path pointer-events="none" fill="none" stroke="white" stroke-width="1.5" d="M0,-3.0v7 M-2.5,-0.5L0,-3.0L2.5,-0.5"/>
  </g>
  <g id="arrowDown" transform="rotate(180) translate(-30 -48)">
    <use xlink:href="#rim"/>
    <path pointer-events="none" fill="none" stroke="white" stroke-width="1.5" d="M0,-3.0v7 M-2.5,-0.5L0,-3.0L2.5,-0.5"/>
  </g>
  <g id="arrowLeft" transform="rotate(270) translate(-36 17)">
    <use xlink:href="#rim"/>
    <path pointer-events="none" fill="none" stroke="white" stroke-width="1.5" d="M0,-3.0v7 M-2.5,-0.5L0,-3.0L2.5,-0.5"/>
  </g>
  <g id="resetDef">
    <use xlink:href="#rim2" fill="#404040"><set attributeName="fill" to="#808080" begin="reset.mouseover" end="reset.mouseout"/></use>
  </g>
</defs>
<script type="application/ecmascript">
var viewWidth = 561;
var viewHeight = 184;
var sectionId = 'dynsection-0';
</script>
<script type="application/ecmascript" xlink:href="svg.min.js"/>
<svg id="graph" class="graph">
<g id="viewport">
<title>depicture_menu/src/core/application/cs_binding_factory</title>
<g id="clust1" class="cluster">
<title>clusterdir_62153e020276f17450b004104a906c1d</title>
<g id="a_clust1"><a xlink:href="dir_62153e020276f17450b004104a906c1d.html" target="_top" xlink:title="application">
<polygon fill="#edf0f7" stroke="#7f7f7f" stroke-dasharray="5,2" points="8,-40.34 8,-168.34 354,-168.34 354,-40.34 8,-40.34"/>
<text xml:space="preserve" text-anchor="middle" x="181" y="-154.84" font-family="Helvetica,sans-Serif" font-size="10.00">application</text>
</a>
</g>
</g>
<g id="clust2" class="cluster">
<title>clusterdir_6bc76a7ac06a3d117d11b93a0cd1820a</title>
<g id="a_clust2"><a xlink:href="dir_6bc76a7ac06a3d117d11b93a0cd1820a.html" target="_top">
<polygon fill="#edf0f7" stroke="#404040" stroke-width="2" points="16,-48.34 16,-140.34 152,-140.34 152,-48.34 16,-48.34"/>
</a>
</g>
</g>
<!-- dir_9b16a64387d68a55f2749859edf07bb6 -->
<g id="node1" class="node">
<title>dir_9b16a64387d68a55f2749859edf07bb6</title>
<g id="a_node1"><a xlink:href="dir_9b16a64387d68a55f2749859edf07bb6.html" target="_top" xlink:title="usecase_dispatch">
<polygon fill="#a2b4d6" stroke="#404040" points="257.38,-76.34 162.62,-76.34 162.62,-56.34 257.38,-56.34 257.38,-76.34"/>
<text xml:space="preserve" text-anchor="middle" x="210" y="-62.84" font-family="Helvetica,sans-Serif" font-size="10.00">usecase_dispatch</text>
</a>
</g>
</g>
<!-- dir_cb2f984bab5d8415904083f7c2b03401 -->
<g id="node2" class="node">
<title>dir_cb2f984bab5d8415904083f7c2b03401</title>
<g id="a_node2"><a xlink:href="dir_cb2f984bab5d8415904083f7c2b03401.html" target="_top" xlink:title="backup_json">
<polygon fill="#a2b4d6" stroke="red" points="346.38,-76.34 275.62,-76.34 275.62,-56.34 346.38,-56.34 346.38,-76.34"/>
<text xml:space="preserve" text-anchor="middle" x="311" y="-62.84" font-family="Helvetica,sans-Serif" font-size="10.00">backup_json</text>
</a>
</g>
</g>
<!-- dir_6bc76a7ac06a3d117d11b93a0cd1820a -->
<g id="node3" class="node">
<title>dir_6bc76a7ac06a3d117d11b93a0cd1820a</title>
<text xml:space="preserve" text-anchor="middle" x="95" y="-118.84" font-family="Helvetica,sans-Serif" font-size="10.00">cs_binding_factory</text>
</g>
<!-- dir_6bc76a7ac06a3d117d11b93a0cd1820a&#45;&gt;dir_9b16a64387d68a55f2749859edf07bb6 -->
<g id="edge5" class="edge">
<title>dir_6bc76a7ac06a3d117d11b93a0cd1820a&#45;&gt;dir_9b16a64387d68a55f2749859edf07bb6</title>
<g id="a_edge5"><a xlink:href="dir_000042_000106.html" target="_top">
<path fill="none" stroke="#63b8ff" d="M113.99,-112.42C131.81,-104.06 158.76,-91.4 179.58,-81.63"/>
<polygon fill="#63b8ff" stroke="#63b8ff" points="180.89,-84.88 188.45,-77.46 177.91,-78.54 180.89,-84.88"/>
</a>
</g>
<g id="a_edge5&#45;headlabel"><a xlink:href="dir_000042_000106.html" target="_top" xlink:title="1">
<text xml:space="preserve" text-anchor="middle" x="180.21" y="-84.83" font-family="Helvetica,sans-Serif" font-size="10.00" fill="#63b8ff">1</text>
</a>
</g>
</g>
<!-- dir_6bc76a7ac06a3d117d11b93a0cd1820a&#45;&gt;dir_cb2f984bab5d8415904083f7c2b03401 -->
<g id="edge7" class="edge">
<title>dir_6bc76a7ac06a3d117d11b93a0cd1820a&#45;&gt;dir_cb2f984bab5d8415904083f7c2b03401</title>
<g id="a_edge7"><a xlink:href="dir_000042_000011.html" target="_top">
<path fill="none" stroke="#63b8ff" d="M130.67,-112.42C167.17,-103.3 224.08,-89.07 264.19,-79.04"/>
<polygon fill="#63b8ff" stroke="#63b8ff" points="264.96,-82.46 273.81,-76.64 263.26,-75.67 264.96,-82.46"/>
</a>
</g>
<g id="a_edge7&#45;headlabel"><a xlink:href="dir_000042_000011.html" target="_top" xlink:title="1">
<text xml:space="preserve" text-anchor="middle" x="263.63" y="-82.22" font-family="Helvetica,sans-Serif" font-size="10.00" fill="#63b8ff">1</text>
</a>
</g>
</g>
<!-- dir_54fdd11fda945d58226690c223fac04e -->
<g id="node4" class="node">
<title>dir_54fdd11fda945d58226690c223fac04e</title>
<g id="a_node4"><a xlink:href="dir_54fdd11fda945d58226690c223fac04e.html" target="_top" xlink:title="config_view_arg_builder">
<polygon fill="#a2b4d6" stroke="#404040" points="144.12,-76.34 23.88,-76.34 23.88,-56.34 144.12,-56.34 144.12,-76.34"/>
<text xml:space="preserve" text-anchor="middle" x="84" y="-62.84" font-family="Helvetica,sans-Serif" font-size="10.00">config_view_arg_builder</text>
</a>
</g>
</g>
<!-- dir_6bc76a7ac06a3d117d11b93a0cd1820a&#45;&gt;dir_54fdd11fda945d58226690c223fac04e -->
<g id="edge4" class="edge">
<title>dir_6bc76a7ac06a3d117d11b93a0cd1820a&#45;&gt;dir_54fdd11fda945d58226690c223fac04e</title>
<g id="a_edge4"><a xlink:href="dir_000042_000029.html" target="_top">
<path fill="none" stroke="#63b8ff" d="M93.18,-112.42C91.82,-105.74 89.91,-96.33 88.18,-87.84"/>
<polygon fill="#63b8ff" stroke="#63b8ff" points="91.66,-87.4 86.23,-78.3 84.8,-88.8 91.66,-87.4"/>
</a>
</g>
<g id="a_edge4&#45;headlabel"><a xlink:href="dir_000042_000029.html" target="_top" xlink:title="1">
<text xml:space="preserve" text-anchor="middle" x="94.86" y="-85.37" font-family="Helvetica,sans-Serif" font-size="10.00" fill="#63b8ff">1</text>
</a>
</g>
</g>
<!-- dir_066db6754a9c6d2110edb818b32154f8 -->
<g id="node5" class="node">
<title>dir_066db6754a9c6d2110edb818b32154f8</title>
<g id="a_node5"><a xlink:href="dir_066db6754a9c6d2110edb818b32154f8.html" target="_top" xlink:title="control">
<polygon fill="#edf0f7" stroke="red" stroke-dasharray="5,2" points="409.62,-76.34 364.38,-76.34 364.38,-56.34 409.62,-56.34 409.62,-76.34"/>
<text xml:space="preserve" text-anchor="middle" x="387" y="-62.84" font-family="Helvetica,sans-Serif" font-size="10.00">control</text>
</a>
</g>
</g>
<!-- dir_6bc76a7ac06a3d117d11b93a0cd1820a&#45;&gt;dir_066db6754a9c6d2110edb818b32154f8 -->
<g id="edge1" class="edge">
<title>dir_6bc76a7ac06a3d117d11b93a0cd1820a&#45;&gt;dir_066db6754a9c6d2110edb818b32154f8</title>
<g id="a_edge1"><a xlink:href="dir_000042_000031.html" target="_top">
<path fill="none" stroke="#63b8ff" d="M143.86,-114.94C194.58,-107.86 276.36,-95.24 353.16,-77.35"/>
<polygon fill="#63b8ff" stroke="#63b8ff" points="353.57,-80.85 362.49,-75.14 351.95,-74.04 353.57,-80.85"/>
</a>
</g>
<g id="a_edge1&#45;headlabel"><a xlink:href="dir_000042_000031.html" target="_top" xlink:title="2">
<text xml:space="preserve" text-anchor="middle" x="352.2" y="-80.59" font-family="Helvetica,sans-Serif" font-size="10.00" fill="#63b8ff">2</text>
</a>
</g>
</g>
<!-- dir_4099da298ded5c89b37f083ec42d8d40 -->
<g id="node6" class="node">
<title>dir_4099da298ded5c89b37f083ec42d8d40</title>
<g id="a_node6"><a xlink:href="dir_4099da298ded5c89b37f083ec42d8d40.html" target="_top" xlink:title="domain">
<polygon fill="#edf0f7" stroke="red" stroke-dasharray="5,2" points="68.75,-20.34 21.25,-20.34 21.25,-0.34 68.75,-0.34 68.75,-20.34"/>
<text xml:space="preserve" text-anchor="middle" x="45" y="-6.84" font-family="Helvetica,sans-Serif" font-size="10.00">domain</text>
</a>
</g>
</g>
<!-- dir_6bc76a7ac06a3d117d11b93a0cd1820a&#45;&gt;dir_4099da298ded5c89b37f083ec42d8d40 -->
<g id="edge2" class="edge">
<title>dir_6bc76a7ac06a3d117d11b93a0cd1820a&#45;&gt;dir_4099da298ded5c89b37f083ec42d8d40</title>
<g id="a_edge2"><a xlink:href="dir_000042_000049.html" target="_top">
<path fill="none" stroke="#63b8ff" d="M63.54,-112.36C45.92,-105.55 25.46,-94.22 15,-76.34 6.92,-62.53 8.75,-55.07 15,-40.34 16.83,-36.04 19.64,-32.06 22.82,-28.52"/>
<polygon fill="#63b8ff" stroke="#63b8ff" points="25.17,-31.11 30.05,-21.71 20.37,-26.02 25.17,-31.11"/>
</a>
</g>
<g id="a_edge2&#45;headlabel"><a xlink:href="dir_000042_000049.html" target="_top" xlink:title="4">
<text xml:space="preserve" text-anchor="middle" x="25.6" y="-31.11" font-family="Helvetica,sans-Serif" font-size="10.00" fill="#63b8ff">4</text>
</a>
</g>
</g>
<!-- dir_43f8aa2529ec47ad37b553a33a2ea717 -->
<g id="node7" class="node">
<title>dir_43f8aa2529ec47ad37b553a33a2ea717</title>
<g id="a_node7"><a xlink:href="dir_43f8aa2529ec47ad37b553a33a2ea717.html" target="_top" xlink:title="usecase">
<polygon fill="#edf0f7" stroke="red" stroke-dasharray="5,2" points="149.38,-20.34 96.62,-20.34 96.62,-0.34 149.38,-0.34 149.38,-20.34"/>
<text xml:space="preserve" text-anchor="middle" x="123" y="-6.84" font-family="Helvetica,sans-Serif" font-size="10.00">usecase</text>
</a>
</g>
</g>
<!-- dir_6bc76a7ac06a3d117d11b93a0cd1820a&#45;&gt;dir_43f8aa2529ec47ad37b553a33a2ea717 -->
<g id="edge3" class="edge">
<title>dir_6bc76a7ac06a3d117d11b93a0cd1820a&#45;&gt;dir_43f8aa2529ec47ad37b553a33a2ea717</title>
<g id="a_edge3"><a xlink:href="dir_000042_000104.html" target="_top">
<path fill="none" stroke="#63b8ff" d="M143.69,-122.02C225.22,-122.01 383.9,-116.65 419,-76.34 429.51,-64.27 429.75,-52.19 419,-40.34 401.98,-21.57 237.1,-14.54 161.06,-12.27"/>
<polygon fill="#63b8ff" stroke="#63b8ff" points="161.27,-8.78 151.17,-11.99 161.07,-15.78 161.27,-8.78"/>
</a>
</g>
<g id="a_edge3&#45;headlabel"><a xlink:href="dir_000042_000104.html" target="_top" xlink:title="32">
<text xml:space="preserve" text-anchor="middle" x="163.43" y="-2.5" font-family="Helvetica,sans-Serif" font-size="10.00" fill="#63b8ff">32</text>
</a>
</g>
</g>
<!-- dir_b08448ab66980ac237b9eba210eedb4a -->
<g id="node8" class="node">
<title>dir_b08448ab66980ac237b9eba210eedb4a</title>
<g id="a_node8"><a xlink:href="dir_b08448ab66980ac237b9eba210eedb4a.html" target="_top" xlink:title="presentation">
<polygon fill="#edf0f7" stroke="red" stroke-dasharray="5,2" points="535.62,-76.34 466.38,-76.34 466.38,-56.34 535.62,-56.34 535.62,-76.34"/>
<text xml:space="preserve" text-anchor="middle" x="501" y="-62.84" font-family="Helvetica,sans-Serif" font-size="10.00">presentation</text>
</a>
</g>
</g>
<!-- dir_6bc76a7ac06a3d117d11b93a0cd1820a&#45;&gt;dir_b08448ab66980ac237b9eba210eedb4a -->
<g id="edge6" class="edge">
<title>dir_6bc76a7ac06a3d117d11b93a0cd1820a&#45;&gt;dir_b08448ab66980ac237b9eba210eedb4a</title>
<g id="a_edge6"><a xlink:href="dir_000042_000080.html" target="_top">
<path fill="none" stroke="#63b8ff" d="M143.63,-116.09C212.44,-108.46 342.11,-93.34 452,-76.34 452.99,-76.19 453.99,-76.03 455,-75.87"/>
<polygon fill="#63b8ff" stroke="#63b8ff" points="455.2,-79.38 464.48,-74.27 454.04,-72.48 455.2,-79.38"/>
</a>
</g>
<g id="a_edge6&#45;headlabel"><a xlink:href="dir_000042_000080.html" target="_top" xlink:title="8">
<text xml:space="preserve" text-anchor="middle" x="453.62" y="-79.03" font-family="Helvetica,sans-Serif" font-size="10.00" fill="#63b8ff">8</text>
</a>
</g>
</g>
<!-- dir_cea6b123251f3cedcaebc32d093e626d -->
<g id="node9" class="node">
<title>dir_cea6b123251f3cedcaebc32d093e626d</title>
<g id="a_node9"><a xlink:href="dir_cea6b123251f3cedcaebc32d093e626d.html" target="_top" xlink:title="cs_binding">
<polygon fill="#edf0f7" stroke="red" stroke-dasharray="5,2" points="432.25,-20.34 369.75,-20.34 369.75,-0.34 432.25,-0.34 432.25,-20.34"/>
<text xml:space="preserve" text-anchor="middle" x="401" y="-6.84" font-family="Helvetica,sans-Serif" font-size="10.00">cs_binding</text>
</a>
</g>
</g>
<!-- dir_6bc76a7ac06a3d117d11b93a0cd1820a&#45;&gt;dir_cea6b123251f3cedcaebc32d093e626d -->
<g id="edge8" class="edge">
<title>dir_6bc76a7ac06a3d117d11b93a0cd1820a&#45;&gt;dir_cea6b123251f3cedcaebc32d093e626d</title>
<g id="a_edge8"><a xlink:href="dir_000042_000039.html" target="_top">
<path fill="none" stroke="#63b8ff" d="M143.48,-120.09C254.25,-116.73 518.43,-105.7 545,-76.34 555.74,-64.48 555.14,-52.72 545,-40.34 532.37,-24.92 481.47,-17.52 443.75,-14.09"/>
<polygon fill="#63b8ff" stroke="#63b8ff" points="444.28,-10.62 434.03,-13.28 443.7,-17.6 444.28,-10.62"/>
</a>
</g>
<g id="a_edge8&#45;headlabel"><a xlink:href="dir_000042_000039.html" target="_top" xlink:title="9">
<text xml:space="preserve" text-anchor="middle" x="446.59" y="-4.47" font-family="Helvetica,sans-Serif" font-size="10.00" fill="#63b8ff">9</text>
</a>
</g>
</g>
<!-- dir_54fdd11fda945d58226690c223fac04e&#45;&gt;dir_4099da298ded5c89b37f083ec42d8d40 -->
<g id="edge9" class="edge">
<title>dir_54fdd11fda945d58226690c223fac04e&#45;&gt;dir_4099da298ded5c89b37f083ec42d8d40</title>
<g id="a_edge9"><a xlink:href="dir_000029_000049.html" target="_top">
<path fill="none" stroke="#63b8ff" d="M77.21,-55.93C72.01,-48.73 64.67,-38.57 58.31,-29.77"/>
<polygon fill="#63b8ff" stroke="#63b8ff" points="61.29,-27.92 52.6,-21.87 55.62,-32.02 61.29,-27.92"/>
</a>
</g>
<g id="a_edge9&#45;headlabel"><a xlink:href="dir_000029_000049.html" target="_top" xlink:title="3">
<text xml:space="preserve" text-anchor="middle" x="64.81" y="-24.45" font-family="Helvetica,sans-Serif" font-size="10.00" fill="#63b8ff">3</text>
</a>
</g>
</g>
<!-- dir_54fdd11fda945d58226690c223fac04e&#45;&gt;dir_43f8aa2529ec47ad37b553a33a2ea717 -->
<g id="edge10" class="edge">
<title>dir_54fdd11fda945d58226690c223fac04e&#45;&gt;dir_43f8aa2529ec47ad37b553a33a2ea717</title>
<g id="a_edge10"><a xlink:href="dir_000029_000104.html" target="_top">
<path fill="none" stroke="#63b8ff" d="M90.79,-55.93C95.99,-48.73 103.33,-38.57 109.69,-29.77"/>
<polygon fill="#63b8ff" stroke="#63b8ff" points="112.38,-32.02 115.4,-21.87 106.71,-27.92 112.38,-32.02"/>
</a>
</g>
<g id="a_edge10&#45;headlabel"><a xlink:href="dir_000029_000104.html" target="_top" xlink:title="8">
<text xml:space="preserve" text-anchor="middle" x="113.46" y="-31.87" font-family="Helvetica,sans-Serif" font-size="10.00" fill="#63b8ff">8</text>
</a>
</g>
</g>
<!-- dir_54fdd11fda945d58226690c223fac04e&#45;&gt;dir_cea6b123251f3cedcaebc32d093e626d -->
<g id="edge11" class="edge">
<title>dir_54fdd11fda945d58226690c223fac04e&#45;&gt;dir_cea6b123251f3cedcaebc32d093e626d</title>
<g id="a_edge11"><a xlink:href="dir_000029_000039.html" target="_top">
<path fill="none" stroke="#63b8ff" d="M104.31,-55.85C116.68,-50.46 132.95,-44.08 148,-40.34 220.45,-22.36 307.39,-15.48 358.19,-12.88"/>
<polygon fill="#63b8ff" stroke="#63b8ff" points="358.04,-16.39 367.87,-12.42 357.71,-9.4 358.04,-16.39"/>
</a>
</g>
<g id="a_edge11&#45;headlabel"><a xlink:href="dir_000029_000039.html" target="_top" xlink:title="2">
<text xml:space="preserve" text-anchor="middle" x="356.1" y="-15.83" font-family="Helvetica,sans-Serif" font-size="10.00" fill="#63b8ff">2</text>
</a>
</g>
</g>
</g>
</svg>

<g id="navigator" transform="translate(0 0)" fill="#404254">
  <rect fill="#f2f5e9" fill-opacity="0.5" stroke="#606060" stroke-width=".5" x="0" y="0" width="60" height="60"/>
  <use id="zoomplus" xlink:href="#zoomPlus" x="17" y="9" onmousedown="handleZoom(evt,'in')"/>
  <use id="zoomminus" xlink:href="#zoomMin" x="42" y="9" onmousedown="handleZoom(evt,'out')"/>
  <use id="reset" xlink:href="#resetDef" x="30" y="36" onmousedown="handleReset()"/>
   <use id="arrowup" xlink:href="#arrowUp" x="0" y="0" onmousedown="handlePan(0,-1)"/>
  <use id="arrowright" xlink:href="#arrowRight" x="0" y="0" onmousedown="handlePan(1,0)"/>
  <use id="arrowdown" xlink:href="#arrowDown" x="0" y="0" onmousedown="handlePan(0,1)"/>
  <use id="arrowleft" xlink:href="#arrowLeft" x="0" y="0" onmousedown="handlePan(-1,0)"/>
</g>
<svg viewBox="0 0 15 15" width="100%" height="30px" preserveAspectRatio="xMaxYMin meet">
 <g id="arrow_out" transform="scale(0.3 0.3)">
  <a xlink:href="dir_6bc76a7ac06a3d117d11b93a0cd1820a_dep_org.svg" target="_base">
   <rect id="button" ry="5" rx="5" y="6" x="6" height="38" width="38"
        fill="#f2f5e9" fill-opacity="0.5" stroke="#606060" stroke-width="1.0"/>
   <path id="arrow"
     d="M 11.500037,31.436501 C 11.940474,20.09759 22.043105,11.32322 32.158766,21.979434 L 37.068811,17.246167 C 37.068811,17.246167 37.088388,32 37.088388,32 L 22.160133,31.978069 C 22.160133,31.978069 26.997745,27.140456 26.997745,27.140456 C 18.528582,18.264221 13.291696,25.230495 11.500037,31.436501 z"
     style="fill:#404040;"/>
  </a>
 </g>
</svg>

<style type='text/css'>
<![CDATA[
[data-mouse-over-selected='false'] { opacity: 0.7; }
[data-mouse-over-selected='true']  { opacity: 1.0; }
]]>
</style>
<script type="application/ecmascript"><![CDATA[
document.addEventListener('DOMContentLoaded', (event) => {
  highlightEdges();
  highlightAdjacentNodes();
});
]]></script>
</svg>
