<?xml version="1.0" encoding="UTF-8" standalone="no"?>
<!DOCTYPE svg PUBLIC "-//W3C//DTD SVG 1.1//EN"
 "http://www.w3.org/Graphics/SVG/1.1/DTD/svg11.dtd">
<!-- Generated by graphviz version 14.1.2 (20260124.0452)
 -->
<!-- Title: depicture_menu/test/test_tool Pages: 1 -->
<svg width="154pt" height="184pt"
 viewBox="0.00 0.00 154.00 184.00" xmlns="http://www.w3.org/2000/svg" xmlns:xlink="http://www.w3.org/1999/xlink">
<g id="graph0" class="graph" transform="scale(1 1) rotate(0) translate(4 180)">
<title>depicture_menu/test/test_tool</title>
<g id="clust1" class="cluster">
<title>clusterdir_0281b912293b0150165693b325cfab25</title>
<g id="a_clust1"><a xlink:href="dir_0281b912293b0150165693b325cfab25.html" target="_top" xlink:title="test">
<polygon fill="#edf0f7" stroke="#7f7f7f" stroke-dasharray="5,2" points="8,-40 8,-168 136,-168 136,-40 8,-40"/>
<text xml:space="preserve" text-anchor="middle" x="72" y="-154.5" font-family="Helvetica,sans-Serif" font-size="10.00">test</text>
</a>
</g>
</g>
<g id="clust2" class="cluster">
<title>clusterdir_8518e418425e0e5c104c82afc487a578</title>
<g id="a_clust2"><a xlink:href="dir_8518e418425e0e5c104c82afc487a578.html" target="_top">
<polygon fill="#edf0f7" stroke="#404040" stroke-width="2" points="16,-48 16,-140 86,-140 86,-48 16,-48"/>
</a>
</g>
</g>
<!-- dir_13bb975b5c6918e0cdb932e8baceeae5 -->
<g id="node1" class="node">
<title>dir_13bb975b5c6918e0cdb932e8baceeae5</title>
<g id="a_node1"><a xlink:href="dir_13bb975b5c6918e0cdb932e8baceeae5.html" target="_top" xlink:title="core">
<polygon fill="#a2b4d6" stroke="red" points="128.38,-76 93.62,-76 93.62,-56 128.38,-56 128.38,-76"/>
<text xml:space="preserve" text-anchor="middle" x="111" y="-62.5" font-family="Helvetica,sans-Serif" font-size="10.00">core</text>
</a>
</g>
</g>
<!-- dir_8518e418425e0e5c104c82afc487a578 -->
<g id="node2" class="node">
<title>dir_8518e418425e0e5c104c82afc487a578</title>
<text xml:space="preserve" text-anchor="middle" x="51" y="-118.5" font-family="Helvetica,sans-Serif" font-size="10.00">test_tool</text>
</g>
<!-- dir_8518e418425e0e5c104c82afc487a578&#45;&gt;dir_13bb975b5c6918e0cdb932e8baceeae5 -->
<g id="edge1" class="edge">
<title>dir_8518e418425e0e5c104c82afc487a578&#45;&gt;dir_13bb975b5c6918e0cdb932e8baceeae5</title>
<g id="a_edge1"><a xlink:href="dir_000092_000038.html" target="_top">
<path fill="none" stroke="#63b8ff" d="M60.91,-112.08C69.35,-104.48 81.73,-93.35 92.06,-84.04"/>
<polygon fill="#63b8ff" stroke="#63b8ff" points="94.25,-86.78 99.35,-77.49 89.57,-81.58 94.25,-86.78"/>
</a>
</g>
<g id="a_edge1&#45;headlabel"><a xlink:href="dir_000092_000038.html" target="_top" xlink:title="1">
<text xml:space="preserve" text-anchor="middle" x="94.61" y="-86.78" font-family="Helvetica,sans-Serif" font-size="10.00" fill="#63b8ff">1</text>
</a>
</g>
</g>
<!-- dir_b64797a710992784ab16538d1266ecb8 -->
<g id="node3" class="node">
<title>dir_b64797a710992784ab16538d1266ecb8</title>
<g id="a_node3"><a xlink:href="dir_b64797a710992784ab16538d1266ecb8.html" target="_top" xlink:title="mock">
<polygon fill="#a2b4d6" stroke="#404040" points="73,-76 33,-76 33,-56 73,-56 73,-76"/>
<text xml:space="preserve" text-anchor="middle" x="53" y="-62.5" font-family="Helvetica,sans-Serif" font-size="10.00">mock</text>
</a>
</g>
</g>
<!-- dir_8518e418425e0e5c104c82afc487a578&#45;&gt;dir_b64797a710992784ab16538d1266ecb8 -->
<g id="edge2" class="edge">
<title>dir_8518e418425e0e5c104c82afc487a578&#45;&gt;dir_b64797a710992784ab16538d1266ecb8</title>
<g id="a_edge2"><a xlink:href="dir_000092_000072.html" target="_top">
<path fill="none" stroke="#63b8ff" d="M51.33,-112.08C51.57,-105.48 51.92,-96.21 52.23,-87.79"/>
<polygon fill="#63b8ff" stroke="#63b8ff" points="55.72,-88.11 52.59,-77.99 48.73,-87.85 55.72,-88.11"/>
</a>
</g>
<g id="a_edge2&#45;headlabel"><a xlink:href="dir_000092_000072.html" target="_top" xlink:title="2">
<text xml:space="preserve" text-anchor="middle" x="58.48" y="-86.8" font-family="Helvetica,sans-Serif" font-size="10.00" fill="#63b8ff">2</text>
</a>
</g>
</g>
<!-- dir_d26f0ed8b287a778d960ad2241e01057 -->
<g id="node4" class="node">
<title>dir_d26f0ed8b287a778d960ad2241e01057</title>
<g id="a_node4"><a xlink:href="dir_d26f0ed8b287a778d960ad2241e01057.html" target="_top" xlink:title="src">
<polygon fill="#edf0f7" stroke="red" stroke-dasharray="5,2" points="119.75,-20 90.25,-20 90.25,0 119.75,0 119.75,-20"/>
<text xml:space="preserve" text-anchor="middle" x="105" y="-6.5" font-family="Helvetica,sans-Serif" font-size="10.00">src</text>
</a>
</g>
</g>
<!-- dir_8518e418425e0e5c104c82afc487a578&#45;&gt;dir_d26f0ed8b287a778d960ad2241e01057 -->
<g id="edge3" class="edge">
<title>dir_8518e418425e0e5c104c82afc487a578&#45;&gt;dir_d26f0ed8b287a778d960ad2241e01057</title>
<g id="a_edge3"><a xlink:href="dir_000092_000088.html" target="_top">
<path fill="none" stroke="#63b8ff" d="M77.56,-115.5C98.55,-109.61 126.49,-97.98 140,-76 148.38,-62.37 146.81,-54.48 140,-40 137.46,-34.6 133.37,-29.87 128.87,-25.87"/>
<polygon fill="#63b8ff" stroke="#63b8ff" points="131.28,-23.3 121.2,-20.03 127.04,-28.87 131.28,-23.3"/>
</a>
</g>
<g id="a_edge3&#45;headlabel"><a xlink:href="dir_000092_000088.html" target="_top" xlink:title="21">
<text xml:space="preserve" text-anchor="middle" x="134.66" y="-18.81" font-family="Helvetica,sans-Serif" font-size="10.00" fill="#63b8ff">21</text>
</a>
</g>
</g>
<!-- dir_b64797a710992784ab16538d1266ecb8&#45;&gt;dir_d26f0ed8b287a778d960ad2241e01057 -->
<g id="edge4" class="edge">
<title>dir_b64797a710992784ab16538d1266ecb8&#45;&gt;dir_d26f0ed8b287a778d960ad2241e01057</title>
<g id="a_edge4"><a xlink:href="dir_000072_000088.html" target="_top">
<path fill="none" stroke="#63b8ff" d="M61.88,-55.73C66.41,-51.02 71.99,-45.2 77,-40 80.55,-36.31 84.36,-32.37 87.98,-28.61"/>
<polygon fill="#63b8ff" stroke="#63b8ff" points="90.43,-31.11 94.86,-21.49 85.4,-26.25 90.43,-31.11"/>
</a>
</g>
<g id="a_edge4&#45;headlabel"><a xlink:href="dir_000072_000088.html" target="_top" xlink:title="7">
<text xml:space="preserve" text-anchor="middle" x="91.03" y="-31.08" font-family="Helvetica,sans-Serif" font-size="10.00" fill="#63b8ff">7</text>
</a>
</g>
</g>
</g>
</svg>
