<?xml version="1.0" encoding="UTF-8" standalone="no"?>
<!DOCTYPE svg PUBLIC "-//W3C//DTD SVG 1.1//EN"
 "http://www.w3.org/Graphics/SVG/1.1/DTD/svg11.dtd">
<!-- Generated by graphviz version 14.1.2 (20260124.0452)
 -->
<!-- Title: depicture_menu/src/core/usecase/config_view Pages: 1 -->
<!--zoomable 256 -->

<svg id="main" version="1.1" xmlns="http://www.w3.org/2000/svg" xmlns:xlink="http://www.w3.org/1999/xlink" xml:space="preserve" onload="init(evt)">

<style type="text/css"><![CDATA[
.node, .edge {opacity: 0.7;}
.node.selected, .edge.selected {opacity: 1;}
.edge:hover path { stroke: red; }
.edge:hover polygon { stroke: red; fill: red; }
]]></style>

<defs>
  <circle id="rim" cx="0" cy="0" r="7"/>
  <circle id="rim2" cx="0" cy="0" r="3.5"/>
  <g id="zoomPlus">
    <use xlink:href="#rim" fill="#404040"><set attributeName="fill" to="#808080" begin="zoomplus.mouseover" end="zoomplus.mouseout"/></use>
    <path d="M-4,0h8M0,-4v8" fill="none" stroke="white" stroke-width="1.5" pointer-events="none"/>
  </g>
  <g id="zoomMin">
    <use xlink:href="#rim" fill="#404040"><set attributeName="fill" to="#808080" begin="zoomminus.mouseover" end="zoomminus.mouseout"/></use>
    <path d="M-4,0h8" fill="none" stroke="white" stroke-width="1.5" pointer-events="none"/>
  </g>
  <g id="arrowUp" transform="translate(30 24)">
    <use xlink:href="#rim"/>
    <path pointer-events="none" fill="none" stroke="white" stroke-width="1.5" d="M0,-3.0v7 M-2.5,-0.5L0,-3.0L2.5,-0.5"/>
  </g>
  <g id="arrowRight" transform="rotate(90) translate(36 -43)">
    <use xlink:href="#rim"/>
    <path pointer-events="none" fill="none" stroke="white" stroke-width="1.5" d="M0,-3.0v7 M-2.5,-0.5L0,-3.0L2.5,-0.5"/>
  </g>
  <g id="arrowDown" transform="rotate(180) translate(-30 -48)">
    <use xlink:href="#rim"/>
    <path pointer-events="none" fill="none" stroke="white" stroke-width="1.5" d="M0,-3.0v7 M-2.5,-0.5L0,-3.0L2.5,-0.5"/>
  </g>
  <g id="arrowLeft" transform="rotate(270) translate(-36 17)">
    <use xlink:href="#rim"/>
    <path pointer-events="none" fill="none" stroke="white" stroke-width="1.5" d="M0,-3.0v7 M-2.5,-0.5L0,-3.0L2.5,-0.5"/>
  </g>
  <g id="resetDef">
    <use xlink:href="#rim2" fill="#404040"><set attributeName="fill" to="#808080" begin="reset.mouseover" end="reset.mouseout"/></use>
  </g>
</defs>
<script type="application/ecmascript">
var viewWidth = 532;
var viewHeight = 256;
var sectionId = 'dynsection-0';
</script>
<script type="application/ecmascript" xlink:href="svg.min.js"/>
<svg id="graph" class="graph">
<g id="viewport">
<title>depicture_menu/src/core/usecase/config_view</title>
<g id="clust1" class="cluster">
<title>clusterdir_43f8aa2529ec47ad37b553a33a2ea717</title>
<g id="a_clust1"><a xlink:href="dir_43f8aa2529ec47ad37b553a33a2ea717.html" target="_top" xlink:title="usecase">
<polygon fill="#edf0f7" stroke="#7f7f7f" stroke-dasharray="5,2" points="8,-8 8,-240 240,-240 240,-8 8,-8"/>
<text xml:space="preserve" text-anchor="middle" x="124" y="-226.5" font-family="Helvetica,sans-Serif" font-size="10.00">usecase</text>
</a>
</g>
</g>
<g id="clust2" class="cluster">
<title>clusterdir_63e3b4c20525be311d786392d608ffa7</title>
<g id="a_clust2"><a xlink:href="dir_63e3b4c20525be311d786392d608ffa7.html" target="_top">
<polygon fill="#edf0f7" stroke="#404040" stroke-width="2" points="16,-64 16,-212 158,-212 158,-64 16,-64"/>
</a>
</g>
</g>
<!-- dir_3df51733557b1db99185f48545fc5193 -->
<g id="node1" class="node">
<title>dir_3df51733557b1db99185f48545fc5193</title>
<g id="a_node1"><a xlink:href="dir_3df51733557b1db99185f48545fc5193.html" target="_top" xlink:title="backup">
<polygon fill="#a2b4d6" stroke="red" points="146.75,-36 99.25,-36 99.25,-16 146.75,-16 146.75,-36"/>
<text xml:space="preserve" text-anchor="middle" x="123" y="-22.5" font-family="Helvetica,sans-Serif" font-size="10.00">backup</text>
</a>
</g>
</g>
<!-- dir_c123fb404a9da02ba079fc769c5d1dce -->
<g id="node2" class="node">
<title>dir_c123fb404a9da02ba079fc769c5d1dce</title>
<g id="a_node2"><a xlink:href="dir_c123fb404a9da02ba079fc769c5d1dce.html" target="_top" xlink:title="menu_view">
<polygon fill="#a2b4d6" stroke="red" points="231.75,-92 166.25,-92 166.25,-72 231.75,-72 231.75,-92"/>
<text xml:space="preserve" text-anchor="middle" x="199" y="-78.5" font-family="Helvetica,sans-Serif" font-size="10.00">menu_view</text>
</a>
</g>
</g>
<!-- dir_63e3b4c20525be311d786392d608ffa7 -->
<g id="node3" class="node">
<title>dir_63e3b4c20525be311d786392d608ffa7</title>
<text xml:space="preserve" text-anchor="middle" x="58" y="-190.5" font-family="Helvetica,sans-Serif" font-size="10.00">config_view</text>
</g>
<!-- dir_f62b4b6507d024ed9815753f78723de4 -->
<g id="node4" class="node">
<title>dir_f62b4b6507d024ed9815753f78723de4</title>
<g id="a_node4"><a xlink:href="dir_f62b4b6507d024ed9815753f78723de4.html" target="_top" xlink:title="dto">
<polygon fill="#a2b4d6" stroke="#404040" points="137.75,-92 108.25,-92 108.25,-72 137.75,-72 137.75,-92"/>
<text xml:space="preserve" text-anchor="middle" x="123" y="-78.5" font-family="Helvetica,sans-Serif" font-size="10.00">dto</text>
</a>
</g>
</g>
<!-- dir_63e3b4c20525be311d786392d608ffa7&#45;&gt;dir_f62b4b6507d024ed9815753f78723de4 -->
<g id="edge7" class="edge">
<title>dir_63e3b4c20525be311d786392d608ffa7&#45;&gt;dir_f62b4b6507d024ed9815753f78723de4</title>
<g id="a_edge7"><a xlink:href="dir_000027_000053.html" target="_top">
<path fill="none" stroke="#63b8ff" d="M61.09,-184.24C65.79,-171.41 75.43,-146.99 87,-128 92.7,-118.65 100.11,-109.06 106.72,-101.16"/>
<polygon fill="#63b8ff" stroke="#63b8ff" points="109.35,-103.47 113.24,-93.62 104.05,-98.89 109.35,-103.47"/>
</a>
</g>
<g id="a_edge7&#45;headlabel"><a xlink:href="dir_000027_000053.html" target="_top" xlink:title="24">
<text xml:space="preserve" text-anchor="middle" x="110.13" y="-103.4" font-family="Helvetica,sans-Serif" font-size="10.00" fill="#63b8ff">24</text>
</a>
</g>
</g>
<!-- dir_b7078be4f62b7a9e1fc367e789e417d6 -->
<g id="node5" class="node">
<title>dir_b7078be4f62b7a9e1fc367e789e417d6</title>
<g id="a_node5"><a xlink:href="dir_b7078be4f62b7a9e1fc367e789e417d6.html" target="_top" xlink:title="interface">
<polygon fill="#a2b4d6" stroke="#404040" points="149.75,-148 96.25,-148 96.25,-128 149.75,-128 149.75,-148"/>
<text xml:space="preserve" text-anchor="middle" x="123" y="-134.5" font-family="Helvetica,sans-Serif" font-size="10.00">interface</text>
</a>
</g>
</g>
<!-- dir_63e3b4c20525be311d786392d608ffa7&#45;&gt;dir_b7078be4f62b7a9e1fc367e789e417d6 -->
<g id="edge5" class="edge">
<title>dir_63e3b4c20525be311d786392d608ffa7&#45;&gt;dir_b7078be4f62b7a9e1fc367e789e417d6</title>
<g id="a_edge5"><a xlink:href="dir_000027_000064.html" target="_top">
<path fill="none" stroke="#63b8ff" d="M68.73,-184.08C77.97,-176.41 91.56,-165.12 102.82,-155.76"/>
<polygon fill="#63b8ff" stroke="#63b8ff" points="104.97,-158.53 110.43,-149.44 100.5,-153.14 104.97,-158.53"/>
</a>
</g>
<g id="a_edge5&#45;headlabel"><a xlink:href="dir_000027_000064.html" target="_top" xlink:title="11">
<text xml:space="preserve" text-anchor="middle" x="105.19" y="-158.54" font-family="Helvetica,sans-Serif" font-size="10.00" fill="#63b8ff">11</text>
</a>
</g>
</g>
<!-- dir_4099da298ded5c89b37f083ec42d8d40 -->
<g id="node7" class="node">
<title>dir_4099da298ded5c89b37f083ec42d8d40</title>
<g id="a_node7"><a xlink:href="dir_4099da298ded5c89b37f083ec42d8d40.html" target="_top" xlink:title="domain">
<polygon fill="#edf0f7" stroke="red" stroke-dasharray="5,2" points="308.75,-36 261.25,-36 261.25,-16 308.75,-16 308.75,-36"/>
<text xml:space="preserve" text-anchor="middle" x="285" y="-22.5" font-family="Helvetica,sans-Serif" font-size="10.00">domain</text>
</a>
</g>
</g>
<!-- dir_63e3b4c20525be311d786392d608ffa7&#45;&gt;dir_4099da298ded5c89b37f083ec42d8d40 -->
<g id="edge1" class="edge">
<title>dir_63e3b4c20525be311d786392d608ffa7&#45;&gt;dir_4099da298ded5c89b37f083ec42d8d40</title>
<g id="a_edge1"><a xlink:href="dir_000027_000049.html" target="_top">
<path fill="none" stroke="#63b8ff" d="M83.26,-184.09C133.72,-165.82 244.27,-123.18 269,-92 278.95,-79.45 282.83,-61.58 284.28,-47.75"/>
<polygon fill="#63b8ff" stroke="#63b8ff" points="287.76,-48.17 284.94,-37.96 280.78,-47.7 287.76,-48.17"/>
</a>
</g>
<g id="a_edge1&#45;headlabel"><a xlink:href="dir_000027_000049.html" target="_top" xlink:title="75">
<text xml:space="preserve" text-anchor="middle" x="290.45" y="-46.94" font-family="Helvetica,sans-Serif" font-size="10.00" fill="#63b8ff">75</text>
</a>
</g>
</g>
<!-- dir_57f1aaa3fa8f9297e7b1fd04f654d594 -->
<g id="node8" class="node">
<title>dir_57f1aaa3fa8f9297e7b1fd04f654d594</title>
<g id="a_node8"><a xlink:href="dir_57f1aaa3fa8f9297e7b1fd04f654d594.html" target="_top" xlink:title="utility">
<polygon fill="#edf0f7" stroke="red" stroke-dasharray="5,2" points="287.62,-148 248.38,-148 248.38,-128 287.62,-128 287.62,-148"/>
<text xml:space="preserve" text-anchor="middle" x="268" y="-134.5" font-family="Helvetica,sans-Serif" font-size="10.00">utility</text>
</a>
</g>
</g>
<!-- dir_63e3b4c20525be311d786392d608ffa7&#45;&gt;dir_57f1aaa3fa8f9297e7b1fd04f654d594 -->
<g id="edge2" class="edge">
<title>dir_63e3b4c20525be311d786392d608ffa7&#45;&gt;dir_57f1aaa3fa8f9297e7b1fd04f654d594</title>
<g id="a_edge2"><a xlink:href="dir_000027_000103.html" target="_top">
<path fill="none" stroke="#63b8ff" d="M91.76,-184.46C127.21,-175.47 184.55,-160.87 234,-148 235.15,-147.7 236.33,-147.39 237.51,-147.08"/>
<polygon fill="#63b8ff" stroke="#63b8ff" points="237.99,-150.58 246.77,-144.65 236.21,-143.81 237.99,-150.58"/>
</a>
</g>
<g id="a_edge2&#45;headlabel"><a xlink:href="dir_000027_000103.html" target="_top" xlink:title="2">
<text xml:space="preserve" text-anchor="middle" x="236.7" y="-150.35" font-family="Helvetica,sans-Serif" font-size="10.00" fill="#63b8ff">2</text>
</a>
</g>
</g>
<!-- dir_62153e020276f17450b004104a906c1d -->
<g id="node9" class="node">
<title>dir_62153e020276f17450b004104a906c1d</title>
<g id="a_node9"><a xlink:href="dir_62153e020276f17450b004104a906c1d.html" target="_top" xlink:title="application">
<polygon fill="#edf0f7" stroke="red" stroke-dasharray="5,2" points="368.25,-148 305.75,-148 305.75,-128 368.25,-128 368.25,-148"/>
<text xml:space="preserve" text-anchor="middle" x="337" y="-134.5" font-family="Helvetica,sans-Serif" font-size="10.00">application</text>
</a>
</g>
</g>
<!-- dir_63e3b4c20525be311d786392d608ffa7&#45;&gt;dir_62153e020276f17450b004104a906c1d -->
<g id="edge3" class="edge">
<title>dir_63e3b4c20525be311d786392d608ffa7&#45;&gt;dir_62153e020276f17450b004104a906c1d</title>
<g id="a_edge3"><a xlink:href="dir_000027_000004.html" target="_top">
<path fill="none" stroke="#63b8ff" d="M91.79,-185.85C94.9,-185.21 98.01,-184.59 101,-184 184.43,-167.61 208.33,-165.85 294.47,-148.45"/>
<polygon fill="#63b8ff" stroke="#63b8ff" points="295,-151.92 304.1,-146.49 293.6,-145.06 295,-151.92"/>
</a>
</g>
<g id="a_edge3&#45;headlabel"><a xlink:href="dir_000027_000004.html" target="_top" xlink:title="22">
<text xml:space="preserve" text-anchor="middle" x="293.52" y="-151.61" font-family="Helvetica,sans-Serif" font-size="10.00" fill="#63b8ff">22</text>
</a>
</g>
</g>
<!-- dir_6c154d7510949a2b37f111126ba92ccf -->
<g id="node10" class="node">
<title>dir_6c154d7510949a2b37f111126ba92ccf</title>
<g id="a_node10"><a xlink:href="dir_6c154d7510949a2b37f111126ba92ccf.html" target="_top" xlink:title="repository">
<polygon fill="#edf0f7" stroke="red" stroke-dasharray="5,2" points="445.38,-148 386.62,-148 386.62,-128 445.38,-128 445.38,-148"/>
<text xml:space="preserve" text-anchor="middle" x="416" y="-134.5" font-family="Helvetica,sans-Serif" font-size="10.00">repository</text>
</a>
</g>
</g>
<!-- dir_63e3b4c20525be311d786392d608ffa7&#45;&gt;dir_6c154d7510949a2b37f111126ba92ccf -->
<g id="edge4" class="edge">
<title>dir_63e3b4c20525be311d786392d608ffa7&#45;&gt;dir_6c154d7510949a2b37f111126ba92ccf</title>
<g id="a_edge4"><a xlink:href="dir_000027_000082.html" target="_top">
<path fill="none" stroke="#63b8ff" d="M91.75,-185.68C94.87,-185.08 97.99,-184.51 101,-184 219.39,-163.92 253.29,-169.57 374.99,-148.19"/>
<polygon fill="#63b8ff" stroke="#63b8ff" points="375.53,-151.65 384.76,-146.44 374.3,-144.76 375.53,-151.65"/>
</a>
</g>
<g id="a_edge4&#45;headlabel"><a xlink:href="dir_000027_000082.html" target="_top" xlink:title="1">
<text xml:space="preserve" text-anchor="middle" x="373.98" y="-151.31" font-family="Helvetica,sans-Serif" font-size="10.00" fill="#63b8ff">1</text>
</a>
</g>
</g>
<!-- dir_bcb51583d731690cfe793e8c91dddf0f -->
<g id="node11" class="node">
<title>dir_bcb51583d731690cfe793e8c91dddf0f</title>
<g id="a_node11"><a xlink:href="dir_bcb51583d731690cfe793e8c91dddf0f.html" target="_top" xlink:title="utility">
<polygon fill="#edf0f7" stroke="red" stroke-dasharray="5,2" points="502.62,-148 463.38,-148 463.38,-128 502.62,-128 502.62,-148"/>
<text xml:space="preserve" text-anchor="middle" x="483" y="-134.5" font-family="Helvetica,sans-Serif" font-size="10.00">utility</text>
</a>
</g>
</g>
<!-- dir_63e3b4c20525be311d786392d608ffa7&#45;&gt;dir_bcb51583d731690cfe793e8c91dddf0f -->
<g id="edge6" class="edge">
<title>dir_63e3b4c20525be311d786392d608ffa7&#45;&gt;dir_bcb51583d731690cfe793e8c91dddf0f</title>
<g id="a_edge6"><a xlink:href="dir_000027_000102.html" target="_top">
<path fill="none" stroke="#63b8ff" d="M91.74,-185.59C94.86,-185.01 97.99,-184.47 101,-184 253.34,-160.36 297.51,-178.66 452.32,-147.92"/>
<polygon fill="#63b8ff" stroke="#63b8ff" points="452.58,-151.44 461.68,-146.03 451.19,-144.58 452.58,-151.44"/>
</a>
</g>
<g id="a_edge6&#45;headlabel"><a xlink:href="dir_000027_000102.html" target="_top" xlink:title="1">
<text xml:space="preserve" text-anchor="middle" x="451.1" y="-151.14" font-family="Helvetica,sans-Serif" font-size="10.00" fill="#63b8ff">1</text>
</a>
</g>
</g>
<!-- dir_f62b4b6507d024ed9815753f78723de4&#45;&gt;dir_3df51733557b1db99185f48545fc5193 -->
<g id="edge8" class="edge">
<title>dir_f62b4b6507d024ed9815753f78723de4&#45;&gt;dir_3df51733557b1db99185f48545fc5193</title>
<g id="a_edge8"><a xlink:href="dir_000053_000008.html" target="_top">
<path fill="none" stroke="#63b8ff" d="M123,-71.59C123,-65.01 123,-55.96 123,-47.73"/>
<polygon fill="#63b8ff" stroke="#63b8ff" points="126.5,-47.81 123,-37.81 119.5,-47.81 126.5,-47.81"/>
</a>
</g>
<g id="a_edge8&#45;headlabel"><a xlink:href="dir_000053_000008.html" target="_top" xlink:title="1">
<text xml:space="preserve" text-anchor="middle" x="129.34" y="-46.39" font-family="Helvetica,sans-Serif" font-size="10.00" fill="#63b8ff">1</text>
</a>
</g>
</g>
<!-- dir_f62b4b6507d024ed9815753f78723de4&#45;&gt;dir_4099da298ded5c89b37f083ec42d8d40 -->
<g id="edge9" class="edge">
<title>dir_f62b4b6507d024ed9815753f78723de4&#45;&gt;dir_4099da298ded5c89b37f083ec42d8d40</title>
<g id="a_edge9"><a xlink:href="dir_000053_000049.html" target="_top">
<path fill="none" stroke="#63b8ff" d="M131.6,-71.73C134.65,-68.9 138.25,-66.01 142,-64 151.52,-58.9 210.44,-44.49 249.62,-35.23"/>
<polygon fill="#63b8ff" stroke="#63b8ff" points="250.42,-38.64 259.35,-32.94 248.81,-31.82 250.42,-38.64"/>
</a>
</g>
<g id="a_edge9&#45;headlabel"><a xlink:href="dir_000053_000049.html" target="_top" xlink:title="48">
<text xml:space="preserve" text-anchor="middle" x="249.04" y="-38.38" font-family="Helvetica,sans-Serif" font-size="10.00" fill="#63b8ff">48</text>
</a>
</g>
</g>
<!-- dir_b7078be4f62b7a9e1fc367e789e417d6&#45;&gt;dir_c123fb404a9da02ba079fc769c5d1dce -->
<g id="edge11" class="edge">
<title>dir_b7078be4f62b7a9e1fc367e789e417d6&#45;&gt;dir_c123fb404a9da02ba079fc769c5d1dce</title>
<g id="a_edge11"><a xlink:href="dir_000064_000070.html" target="_top">
<path fill="none" stroke="#63b8ff" d="M136.24,-127.59C147.29,-119.74 163.28,-108.38 176.36,-99.09"/>
<polygon fill="#63b8ff" stroke="#63b8ff" points="178.3,-102 184.42,-93.36 174.25,-96.3 178.3,-102"/>
</a>
</g>
<g id="a_edge11&#45;headlabel"><a xlink:href="dir_000064_000070.html" target="_top" xlink:title="1">
<text xml:space="preserve" text-anchor="middle" x="178.25" y="-102.02" font-family="Helvetica,sans-Serif" font-size="10.00" fill="#63b8ff">1</text>
</a>
</g>
</g>
<!-- dir_b7078be4f62b7a9e1fc367e789e417d6&#45;&gt;dir_f62b4b6507d024ed9815753f78723de4 -->
<g id="edge12" class="edge">
<title>dir_b7078be4f62b7a9e1fc367e789e417d6&#45;&gt;dir_f62b4b6507d024ed9815753f78723de4</title>
<g id="a_edge12"><a xlink:href="dir_000064_000053.html" target="_top">
<path fill="none" stroke="#63b8ff" d="M123,-127.59C123,-121.01 123,-111.96 123,-103.73"/>
<polygon fill="#63b8ff" stroke="#63b8ff" points="126.5,-103.81 123,-93.81 119.5,-103.81 126.5,-103.81"/>
</a>
</g>
<g id="a_edge12&#45;headlabel"><a xlink:href="dir_000064_000053.html" target="_top" xlink:title="6">
<text xml:space="preserve" text-anchor="middle" x="129.34" y="-102.39" font-family="Helvetica,sans-Serif" font-size="10.00" fill="#63b8ff">6</text>
</a>
</g>
</g>
<!-- dir_b7078be4f62b7a9e1fc367e789e417d6&#45;&gt;dir_4099da298ded5c89b37f083ec42d8d40 -->
<g id="edge10" class="edge">
<title>dir_b7078be4f62b7a9e1fc367e789e417d6&#45;&gt;dir_4099da298ded5c89b37f083ec42d8d40</title>
<g id="a_edge10"><a xlink:href="dir_000064_000049.html" target="_top">
<path fill="none" stroke="#63b8ff" d="M150.04,-132.19C176.36,-126.38 216.34,-114.46 244,-92 258.87,-79.92 269.96,-60.94 276.83,-46.6"/>
<polygon fill="#63b8ff" stroke="#63b8ff" points="279.93,-48.26 280.81,-37.7 273.53,-45.4 279.93,-48.26"/>
</a>
</g>
<g id="a_edge10&#45;headlabel"><a xlink:href="dir_000064_000049.html" target="_top" xlink:title="3">
<text xml:space="preserve" text-anchor="middle" x="281.67" y="-47.81" font-family="Helvetica,sans-Serif" font-size="10.00" fill="#63b8ff">3</text>
</a>
</g>
</g>
<!-- dir_bae030ac3a2a54f1be28fbe1d840efac -->
<g id="node6" class="node">
<title>dir_bae030ac3a2a54f1be28fbe1d840efac</title>
<g id="a_node6"><a xlink:href="dir_bae030ac3a2a54f1be28fbe1d840efac.html" target="_top" xlink:title="query">
<polygon fill="#a2b4d6" stroke="#404040" points="150,-204 110,-204 110,-184 150,-184 150,-204"/>
<text xml:space="preserve" text-anchor="middle" x="130" y="-190.5" font-family="Helvetica,sans-Serif" font-size="10.00">query</text>
</a>
</g>
</g>
<!-- dir_bae030ac3a2a54f1be28fbe1d840efac&#45;&gt;dir_4099da298ded5c89b37f083ec42d8d40 -->
<g id="edge13" class="edge">
<title>dir_bae030ac3a2a54f1be28fbe1d840efac&#45;&gt;dir_4099da298ded5c89b37f083ec42d8d40</title>
<g id="a_edge13"><a xlink:href="dir_000079_000049.html" target="_top">
<path fill="none" stroke="#63b8ff" d="M150.37,-192.15C226.02,-188.8 487.73,-175.29 512,-148 571.7,-80.86 397.39,-44.52 319.99,-32.03"/>
<polygon fill="#63b8ff" stroke="#63b8ff" points="320.8,-28.62 310.38,-30.53 319.72,-35.53 320.8,-28.62"/>
</a>
</g>
<g id="a_edge13&#45;headlabel"><a xlink:href="dir_000079_000049.html" target="_top" xlink:title="5">
<text xml:space="preserve" text-anchor="middle" x="323.29" y="-22.63" font-family="Helvetica,sans-Serif" font-size="10.00" fill="#63b8ff">5</text>
</a>
</g>
</g>
</g>
</svg>

<g id="navigator" transform="translate(0 0)" fill="#404254">
  <rect fill="#f2f5e9" fill-opacity="0.5" stroke="#606060" stroke-width=".5" x="0" y="0" width="60" height="60"/>
  <use id="zoomplus" xlink:href="#zoomPlus" x="17" y="9" onmousedown="handleZoom(evt,'in')"/>
  <use id="zoomminus" xlink:href="#zoomMin" x="42" y="9" onmousedown="handleZoom(evt,'out')"/>
  <use id="reset" xlink:href="#resetDef" x="30" y="36" onmousedown="handleReset()"/>
   <use id="arrowup" xlink:href="#arrowUp" x="0" y="0" onmousedown="handlePan(0,-1)"/>
  <use id="arrowright" xlink:href="#arrowRight" x="0" y="0" onmousedown="handlePan(1,0)"/>
  <use id="arrowdown" xlink:href="#arrowDown" x="0" y="0" onmousedown="handlePan(0,1)"/>
  <use id="arrowleft" xlink:href="#arrowLeft" x="0" y="0" onmousedown="handlePan(-1,0)"/>
</g>
<svg viewBox="0 0 15 15" width="100%" height="30px" preserveAspectRatio="xMaxYMin meet">
 <g id="arrow_out" transform="scale(0.3 0.3)">
  <a xlink:href="dir_63e3b4c20525be311d786392d608ffa7_dep_org.svg" target="_base">
   <rect id="button" ry="5" rx="5" y="6" x="6" height="38" width="38"
        fill="#f2f5e9" fill-opacity="0.5" stroke="#606060" stroke-width="1.0"/>
   <path id="arrow"
     d="M 11.500037,31.436501 C 11.940474,20.09759 22.043105,11.32322 32.158766,21.979434 L 37.068811,17.246167 C 37.068811,17.246167 37.088388,32 37.088388,32 L 22.160133,31.978069 C 22.160133,31.978069 26.997745,27.140456 26.997745,27.140456 C 18.528582,18.264221 13.291696,25.230495 11.500037,31.436501 z"
     style="fill:#404040;"/>
  </a>
 </g>
</svg>

<style type='text/css'>
<![CDATA[
[data-mouse-over-selected='false'] { opacity: 0.7; }
[data-mouse-over-selected='true']  { opacity: 1.0; }
]]>
</style>
<script type="application/ecmascript"><![CDATA[
document.addEventListener('DOMContentLoaded', (event) => {
  highlightEdges();
  highlightAdjacentNodes();
});
]]></script>
</svg>
