<?xml version="1.0" encoding="UTF-8" standalone="no"?>
<!DOCTYPE svg PUBLIC "-//W3C//DTD SVG 1.1//EN"
 "http://www.w3.org/Graphics/SVG/1.1/DTD/svg11.dtd">
<!-- Generated by graphviz version 14.1.2 (20260124.0452)
 -->
<!-- Title: save_application_data Pages: 1 -->
<svg width="859pt" height="178pt"
 viewBox="0.00 0.00 859.00 178.00" xmlns="http://www.w3.org/2000/svg" xmlns:xlink="http://www.w3.org/1999/xlink">
<g id="graph0" class="graph" transform="scale(1 1) rotate(0) translate(4 174)">
<title>save_application_data</title>
<!-- Node1 -->
<g id="Node000001" class="node">
<title>Node1</title>
<g id="a_Node000001"><a xlink:title=" ">
<polygon fill="#999999" stroke="#666666" points="112.75,-92 0,-92 0,-72 112.75,-72 112.75,-92"/>
<text xml:space="preserve" text-anchor="middle" x="56.38" y="-78.5" font-family="Helvetica,sans-Serif" font-size="10.00">save_application_data</text>
</a>
</g>
</g>
<!-- Node2 -->
<g id="Node000002" class="node">
<title>Node2</title>
<g id="a_Node000002"><a xlink:href="classdepicture__menu_1_1applications_1_1application__archiver.html#a1a3986f047fa5ae0df15ee9a9efd1cd2" target="_top" xlink:title=" ">
<polygon fill="white" stroke="#666666" points="302,-98 148.75,-98 148.75,-66 302,-66 302,-98"/>
<text xml:space="preserve" text-anchor="start" x="156.75" y="-84.5" font-family="Helvetica,sans-Serif" font-size="10.00">depicture_menu::applications</text>
<text xml:space="preserve" text-anchor="middle" x="225.38" y="-72.5" font-family="Helvetica,sans-Serif" font-size="10.00">::application_archiver::save_file</text>
</a>
</g>
</g>
<!-- Node1&#45;&gt;Node2 -->
<g id="edge1_Node000001_Node000002" class="edge">
<title>Node1&#45;&gt;Node2</title>
<g id="a_edge1_Node000001_Node000002"><a xlink:title=" ">
<path fill="none" stroke="#63b8ff" d="M112.98,-82C120.81,-82 129.01,-82 137.25,-82"/>
<polygon fill="#63b8ff" stroke="#63b8ff" points="136.98,-85.5 146.98,-82 136.98,-78.5 136.98,-85.5"/>
</a>
</g>
</g>
<!-- Node3 -->
<g id="Node000003" class="node">
<title>Node3</title>
<g id="a_Node000003"><a xlink:href="namespacedepicture__menu_1_1applications.html#a1a83cc7219079a22026653e1d71774a6" target="_top" xlink:title=" ">
<polygon fill="white" stroke="#666666" points="480.75,-98 338,-98 338,-66 480.75,-66 480.75,-98"/>
<text xml:space="preserve" text-anchor="start" x="346" y="-84.5" font-family="Helvetica,sans-Serif" font-size="10.00">depicture_menu::applications</text>
<text xml:space="preserve" text-anchor="middle" x="409.38" y="-72.5" font-family="Helvetica,sans-Serif" font-size="10.00">::build_archive</text>
</a>
</g>
</g>
<!-- Node2&#45;&gt;Node3 -->
<g id="edge2_Node000002_Node000003" class="edge">
<title>Node2&#45;&gt;Node3</title>
<g id="a_edge2_Node000002_Node000003"><a xlink:title=" ">
<path fill="none" stroke="#63b8ff" d="M302.24,-82C310.2,-82 318.31,-82 326.33,-82"/>
<polygon fill="#63b8ff" stroke="#63b8ff" points="326.07,-85.5 336.07,-82 326.07,-78.5 326.07,-85.5"/>
</a>
</g>
</g>
<!-- Node4 -->
<g id="Node000004" class="node">
<title>Node4</title>
<g id="a_Node000004"><a xlink:href="namespacedepicture__menu_1_1applications.html#aea55f9188deab20c69c500e215de01a5" target="_top" xlink:title=" ">
<polygon fill="white" stroke="#666666" points="659.5,-170 516.75,-170 516.75,-138 659.5,-138 659.5,-170"/>
<text xml:space="preserve" text-anchor="start" x="524.75" y="-156.5" font-family="Helvetica,sans-Serif" font-size="10.00">depicture_menu::applications</text>
<text xml:space="preserve" text-anchor="middle" x="588.12" y="-144.5" font-family="Helvetica,sans-Serif" font-size="10.00">::archive_tuple</text>
</a>
</g>
</g>
<!-- Node3&#45;&gt;Node4 -->
<g id="edge3_Node000003_Node000004" class="edge">
<title>Node3&#45;&gt;Node4</title>
<g id="a_edge3_Node000003_Node000004"><a xlink:title=" ">
<path fill="none" stroke="#63b8ff" d="M445.55,-98.33C466.14,-107.7 492.74,-119.45 516.75,-129 520.59,-130.53 524.56,-132.06 528.58,-133.58"/>
<polygon fill="#63b8ff" stroke="#63b8ff" points="527.23,-136.81 537.83,-137.01 529.67,-130.25 527.23,-136.81"/>
</a>
</g>
</g>
<!-- Node5 -->
<g id="Node000005" class="node">
<title>Node5</title>
<g id="a_Node000005"><a xlink:href="namespacedepicture__menu_1_1applications.html#aba78edff7f85480ed50f1420066c1dd6" target="_top" xlink:title=" ">
<polygon fill="white" stroke="#666666" points="659.5,-120 516.75,-120 516.75,-88 659.5,-88 659.5,-120"/>
<text xml:space="preserve" text-anchor="start" x="524.75" y="-106.5" font-family="Helvetica,sans-Serif" font-size="10.00">depicture_menu::applications</text>
<text xml:space="preserve" text-anchor="middle" x="588.12" y="-94.5" font-family="Helvetica,sans-Serif" font-size="10.00">::data_pack</text>
</a>
</g>
</g>
<!-- Node3&#45;&gt;Node5 -->
<g id="edge4_Node000003_Node000005" class="edge">
<title>Node3&#45;&gt;Node5</title>
<g id="a_edge4_Node000003_Node000005"><a xlink:title=" ">
<path fill="none" stroke="#63b8ff" d="M481.25,-90.82C489.15,-91.8 497.24,-92.81 505.26,-93.81"/>
<polygon fill="#63b8ff" stroke="#63b8ff" points="504.67,-97.26 515.02,-95.03 505.53,-90.32 504.67,-97.26"/>
</a>
</g>
</g>
<!-- Node7 -->
<g id="Node000007" class="node">
<title>Node7</title>
<g id="a_Node000007"><a xlink:href="classdepicture__menu_1_1singleton.html#ab3a8df96e817c8ccb1ab61434f90c416" target="_top" xlink:title=" ">
<polygon fill="white" stroke="#666666" points="851,-57 695.5,-57 695.5,-13 851,-13 851,-57"/>
<text xml:space="preserve" text-anchor="start" x="703.5" y="-43.5" font-family="Helvetica,sans-Serif" font-size="10.00">depicture_menu::singleton</text>
<text xml:space="preserve" text-anchor="start" x="703.5" y="-31.5" font-family="Helvetica,sans-Serif" font-size="10.00">&lt; detail_d_menu::core_interface</text>
<text xml:space="preserve" text-anchor="middle" x="773.25" y="-19.5" font-family="Helvetica,sans-Serif" font-size="10.00">_impl &gt;::get_instance</text>
</a>
</g>
</g>
<!-- Node3&#45;&gt;Node7 -->
<g id="edge6_Node000003_Node000007" class="edge">
<title>Node3&#45;&gt;Node7</title>
<g id="a_edge6_Node000003_Node000007"><a xlink:title=" ">
<path fill="none" stroke="#63b8ff" d="M481.01,-72.83C539,-65.29 621.44,-54.59 683.82,-46.49"/>
<polygon fill="#63b8ff" stroke="#63b8ff" points="684.26,-49.96 693.72,-45.2 683.35,-43.02 684.26,-49.96"/>
</a>
</g>
</g>
<!-- Node8 -->
<g id="Node000008" class="node">
<title>Node8</title>
<g id="a_Node000008"><a xlink:href="namespacedepicture__menu_1_1applications.html#af2f3f1b3b5999de9758861d236b73323" target="_top" xlink:title=" ">
<polygon fill="white" stroke="#666666" points="659.5,-32 516.75,-32 516.75,0 659.5,0 659.5,-32"/>
<text xml:space="preserve" text-anchor="start" x="524.75" y="-18.5" font-family="Helvetica,sans-Serif" font-size="10.00">depicture_menu::applications</text>
<text xml:space="preserve" text-anchor="middle" x="588.12" y="-6.5" font-family="Helvetica,sans-Serif" font-size="10.00">::make_transaction_injector</text>
</a>
</g>
</g>
<!-- Node3&#45;&gt;Node8 -->
<g id="edge7_Node000003_Node000008" class="edge">
<title>Node3&#45;&gt;Node8</title>
<g id="a_edge7_Node000003_Node000008"><a xlink:title=" ">
<path fill="none" stroke="#63b8ff" d="M454.52,-65.52C478.23,-56.66 507.66,-45.67 532.77,-36.3"/>
<polygon fill="#63b8ff" stroke="#63b8ff" points="533.67,-39.7 541.82,-32.92 531.23,-33.14 533.67,-39.7"/>
</a>
</g>
</g>
<!-- Node6 -->
<g id="Node000006" class="node">
<title>Node6</title>
<g id="a_Node000006"><a xlink:href="_test_config_view_presenter_8cpp.html#a21b35e47ac3d8358063ede6968e59eaa" target="_top" xlink:title=" ">
<polygon fill="white" stroke="#666666" points="793.25,-114 753.25,-114 753.25,-94 793.25,-94 793.25,-114"/>
<text xml:space="preserve" text-anchor="middle" x="773.25" y="-100.5" font-family="Helvetica,sans-Serif" font-size="10.00">name</text>
</a>
</g>
</g>
<!-- Node5&#45;&gt;Node6 -->
<g id="edge5_Node000005_Node000006" class="edge">
<title>Node5&#45;&gt;Node6</title>
<g id="a_edge5_Node000005_Node000006"><a xlink:title=" ">
<path fill="none" stroke="#63b8ff" d="M659.93,-104C688.12,-104 719.09,-104 741.35,-104"/>
<polygon fill="#63b8ff" stroke="#63b8ff" points="741.24,-107.5 751.24,-104 741.24,-100.5 741.24,-107.5"/>
</a>
</g>
</g>
<!-- Node8&#45;&gt;Node7 -->
<g id="edge8_Node000008_Node000007" class="edge">
<title>Node8&#45;&gt;Node7</title>
<g id="a_edge8_Node000008_Node000007"><a xlink:title=" ">
<path fill="none" stroke="#63b8ff" d="M659.93,-23.35C667.79,-24.16 675.88,-25 683.93,-25.84"/>
<polygon fill="#63b8ff" stroke="#63b8ff" points="683.44,-29.3 693.75,-26.86 684.17,-22.34 683.44,-29.3"/>
</a>
</g>
</g>
</g>
</svg>
