<?xml version="1.0" encoding="UTF-8" standalone="no"?>
<!DOCTYPE svg PUBLIC "-//W3C//DTD SVG 1.1//EN"
 "http://www.w3.org/Graphics/SVG/1.1/DTD/svg11.dtd">
<!-- Generated by graphviz version 14.1.2 (20260124.0452)
 -->
<!-- Title: depicture_menu/test/core/usecase/backup/dto_entity_mapping_tools.hpp Pages: 1 -->
<svg width="659pt" height="132pt"
 viewBox="0.00 0.00 659.00 132.00" xmlns="http://www.w3.org/2000/svg" xmlns:xlink="http://www.w3.org/1999/xlink">
<g id="graph0" class="graph" transform="scale(1 1) rotate(0) translate(4 128)">
<title>depicture_menu/test/core/usecase/backup/dto_entity_mapping_tools.hpp</title>
<!-- Node1 -->
<g id="Node000001" class="node">
<title>Node1</title>
<g id="a_Node000001"><a xlink:title=" ">
<polygon fill="#999999" stroke="#666666" points="400.12,-124 251.38,-124 251.38,-80 400.12,-80 400.12,-124"/>
<text xml:space="preserve" text-anchor="start" x="259.38" y="-110.5" font-family="Helvetica,sans-Serif" font-size="10.00">depicture_menu/test</text>
<text xml:space="preserve" text-anchor="start" x="259.38" y="-98.5" font-family="Helvetica,sans-Serif" font-size="10.00">/core/usecase/backup</text>
<text xml:space="preserve" text-anchor="middle" x="325.75" y="-86.5" font-family="Helvetica,sans-Serif" font-size="10.00">/dto_entity_mapping_tools.hpp</text>
</a>
</g>
</g>
<!-- Node2 -->
<g id="Node000002" class="node">
<title>Node2</title>
<g id="a_Node000002"><a xlink:href="_test_export_backup__action_8cpp.html" target="_top" xlink:title=" ">
<polygon fill="white" stroke="#666666" points="149.5,-44 0,-44 0,0 149.5,0 149.5,-44"/>
<text xml:space="preserve" text-anchor="start" x="8" y="-30.5" font-family="Helvetica,sans-Serif" font-size="10.00">depicture_menu/test</text>
<text xml:space="preserve" text-anchor="start" x="8" y="-18.5" font-family="Helvetica,sans-Serif" font-size="10.00">/core/usecase/backup</text>
<text xml:space="preserve" text-anchor="middle" x="74.75" y="-6.5" font-family="Helvetica,sans-Serif" font-size="10.00">/TestExportBackup_action.cpp</text>
</a>
</g>
</g>
<!-- Node1&#45;&gt;Node2 -->
<g id="edge1_Node000001_Node000002" class="edge">
<title>Node1&#45;&gt;Node2</title>
<g id="a_edge1_Node000001_Node000002"><a xlink:title=" ">
<path fill="none" stroke="#63b8ff" d="M245.87,-76.18C212.95,-65.95 175.18,-54.21 143.52,-44.37"/>
<polygon fill="#63b8ff" stroke="#63b8ff" points="244.8,-79.51 255.39,-79.13 246.87,-72.82 244.8,-79.51"/>
</a>
</g>
</g>
<!-- Node3 -->
<g id="Node000003" class="node">
<title>Node3</title>
<g id="a_Node000003"><a xlink:href="_test_export_backup__config_8cpp.html" target="_top" xlink:title=" ">
<polygon fill="white" stroke="#666666" points="317.5,-44 168,-44 168,0 317.5,0 317.5,-44"/>
<text xml:space="preserve" text-anchor="start" x="176" y="-30.5" font-family="Helvetica,sans-Serif" font-size="10.00">depicture_menu/test</text>
<text xml:space="preserve" text-anchor="start" x="176" y="-18.5" font-family="Helvetica,sans-Serif" font-size="10.00">/core/usecase/backup</text>
<text xml:space="preserve" text-anchor="middle" x="242.75" y="-6.5" font-family="Helvetica,sans-Serif" font-size="10.00">/TestExportBackup_config.cpp</text>
</a>
</g>
</g>
<!-- Node1&#45;&gt;Node3 -->
<g id="edge2_Node000001_Node000003" class="edge">
<title>Node1&#45;&gt;Node3</title>
<g id="a_edge2_Node000001_Node000003"><a xlink:title=" ">
<path fill="none" stroke="#63b8ff" d="M294.78,-71.89C285.03,-62.74 274.46,-52.8 265.4,-44.29"/>
<polygon fill="#63b8ff" stroke="#63b8ff" points="292.28,-74.35 301.97,-78.65 297.08,-69.25 292.28,-74.35"/>
</a>
</g>
</g>
<!-- Node4 -->
<g id="Node000004" class="node">
<title>Node4</title>
<g id="a_Node000004"><a xlink:href="_test_export_backup__menu_8cpp.html" target="_top" xlink:title=" ">
<polygon fill="white" stroke="#666666" points="482.38,-44 335.12,-44 335.12,0 482.38,0 482.38,-44"/>
<text xml:space="preserve" text-anchor="start" x="343.12" y="-30.5" font-family="Helvetica,sans-Serif" font-size="10.00">depicture_menu/test</text>
<text xml:space="preserve" text-anchor="start" x="343.12" y="-18.5" font-family="Helvetica,sans-Serif" font-size="10.00">/core/usecase/backup</text>
<text xml:space="preserve" text-anchor="middle" x="408.75" y="-6.5" font-family="Helvetica,sans-Serif" font-size="10.00">/TestExportBackup_menu.cpp</text>
</a>
</g>
</g>
<!-- Node1&#45;&gt;Node4 -->
<g id="edge3_Node000001_Node000004" class="edge">
<title>Node1&#45;&gt;Node4</title>
<g id="a_edge3_Node000001_Node000004"><a xlink:title=" ">
<path fill="none" stroke="#63b8ff" d="M356.72,-71.89C366.47,-62.74 377.04,-52.8 386.1,-44.29"/>
<polygon fill="#63b8ff" stroke="#63b8ff" points="354.42,-69.25 349.53,-78.65 359.22,-74.35 354.42,-69.25"/>
</a>
</g>
</g>
<!-- Node5 -->
<g id="Node000005" class="node">
<title>Node5</title>
<g id="a_Node000005"><a xlink:href="_test_export_backup__trigger_8cpp.html" target="_top" xlink:title=" ">
<polygon fill="white" stroke="#666666" points="650.88,-44 500.62,-44 500.62,0 650.88,0 650.88,-44"/>
<text xml:space="preserve" text-anchor="start" x="508.62" y="-30.5" font-family="Helvetica,sans-Serif" font-size="10.00">depicture_menu/test</text>
<text xml:space="preserve" text-anchor="start" x="508.62" y="-18.5" font-family="Helvetica,sans-Serif" font-size="10.00">/core/usecase/backup</text>
<text xml:space="preserve" text-anchor="middle" x="575.75" y="-6.5" font-family="Helvetica,sans-Serif" font-size="10.00">/TestExportBackup_trigger.cpp</text>
</a>
</g>
</g>
<!-- Node1&#45;&gt;Node5 -->
<g id="edge4_Node000001_Node000005" class="edge">
<title>Node1&#45;&gt;Node5</title>
<g id="a_edge4_Node000001_Node000005"><a xlink:title=" ">
<path fill="none" stroke="#63b8ff" d="M405.31,-76.18C438.1,-65.95 475.72,-54.21 507.26,-44.37"/>
<polygon fill="#63b8ff" stroke="#63b8ff" points="404.34,-72.81 395.84,-79.13 406.43,-79.49 404.34,-72.81"/>
</a>
</g>
</g>
</g>
</svg>
