<?xml version="1.0" encoding="UTF-8" standalone="no"?>
<!DOCTYPE svg PUBLIC "-//W3C//DTD SVG 1.1//EN"
 "http://www.w3.org/Graphics/SVG/1.1/DTD/svg11.dtd">
<!-- Generated by graphviz version 14.1.2 (20260124.0452)
 -->
<!-- Title: depicture_menu/src/core/cs_binding/entry_map/entry_map.hpp Pages: 1 -->
<svg width="824pt" height="408pt"
 viewBox="0.00 0.00 824.00 408.00" xmlns="http://www.w3.org/2000/svg" xmlns:xlink="http://www.w3.org/1999/xlink">
<g id="graph0" class="graph" transform="scale(1 1) rotate(0) translate(4 404)">
<title>depicture_menu/src/core/cs_binding/entry_map/entry_map.hpp</title>
<!-- Node1 -->
<g id="Node000001" class="node">
<title>Node1</title>
<g id="a_Node000001"><a xlink:title=" ">
<polygon fill="#999999" stroke="#666666" points="620.25,-400 508.25,-400 508.25,-356 620.25,-356 620.25,-400"/>
<text xml:space="preserve" text-anchor="start" x="516.25" y="-386.5" font-family="Helvetica,sans-Serif" font-size="10.00">depicture_menu/src</text>
<text xml:space="preserve" text-anchor="start" x="516.25" y="-374.5" font-family="Helvetica,sans-Serif" font-size="10.00">/core/cs_binding/entry</text>
<text xml:space="preserve" text-anchor="middle" x="564.25" y="-362.5" font-family="Helvetica,sans-Serif" font-size="10.00">_map/entry_map.hpp</text>
</a>
</g>
</g>
<!-- Node2 -->
<g id="Node000002" class="node">
<title>Node2</title>
<g id="a_Node000002"><a xlink:href="bindable__lock_8hpp.html" target="_top" xlink:title="バインドオブジェクトに纏わるNotify Lock管理">
<polygon fill="white" stroke="#666666" points="438.12,-320 310.38,-320 310.38,-276 438.12,-276 438.12,-320"/>
<text xml:space="preserve" text-anchor="start" x="318.38" y="-306.5" font-family="Helvetica,sans-Serif" font-size="10.00">depicture_menu/src</text>
<text xml:space="preserve" text-anchor="start" x="318.38" y="-294.5" font-family="Helvetica,sans-Serif" font-size="10.00">/core/cs_binding/observer</text>
<text xml:space="preserve" text-anchor="middle" x="374.25" y="-282.5" font-family="Helvetica,sans-Serif" font-size="10.00">/bindable_lock.hpp</text>
</a>
</g>
</g>
<!-- Node1&#45;&gt;Node2 -->
<g id="edge1_Node000001_Node000002" class="edge">
<title>Node1&#45;&gt;Node2</title>
<g id="a_edge1_Node000001_Node000002"><a xlink:title=" ">
<path fill="none" stroke="#63b8ff" d="M501.5,-351.24C477.13,-341.23 449.54,-329.91 426.3,-320.37"/>
<polygon fill="#63b8ff" stroke="#63b8ff" points="500.1,-354.45 510.68,-355.01 502.76,-347.97 500.1,-354.45"/>
</a>
</g>
</g>
<!-- Node10 -->
<g id="Node000010" class="node">
<title>Node10</title>
<g id="a_Node000010"><a xlink:href="prop__map_8hpp.html" target="_top" xlink:title=" ">
<polygon fill="white" stroke="#666666" points="628.12,-320 500.38,-320 500.38,-276 628.12,-276 628.12,-320"/>
<text xml:space="preserve" text-anchor="start" x="508.38" y="-306.5" font-family="Helvetica,sans-Serif" font-size="10.00">depicture_menu/src</text>
<text xml:space="preserve" text-anchor="start" x="508.38" y="-294.5" font-family="Helvetica,sans-Serif" font-size="10.00">/core/cs_binding/observer</text>
<text xml:space="preserve" text-anchor="middle" x="564.25" y="-282.5" font-family="Helvetica,sans-Serif" font-size="10.00">/prop_map.hpp</text>
</a>
</g>
</g>
<!-- Node1&#45;&gt;Node10 -->
<g id="edge10_Node000001_Node000010" class="edge">
<title>Node1&#45;&gt;Node10</title>
<g id="a_edge10_Node000001_Node000010"><a xlink:title=" ">
<path fill="none" stroke="#63b8ff" d="M564.25,-344.25C564.25,-336.15 564.25,-327.68 564.25,-320.29"/>
<polygon fill="#63b8ff" stroke="#63b8ff" points="560.75,-344.17 564.25,-354.17 567.75,-344.17 560.75,-344.17"/>
</a>
</g>
</g>
<!-- Node12 -->
<g id="Node000012" class="node">
<title>Node12</title>
<g id="a_Node000012"><a xlink:href="test__c__u__notify__traits_8cpp.html" target="_top" xlink:title=" ">
<polygon fill="white" stroke="#666666" points="815.88,-234 662.62,-234 662.62,-190 815.88,-190 815.88,-234"/>
<text xml:space="preserve" text-anchor="start" x="670.62" y="-220.5" font-family="Helvetica,sans-Serif" font-size="10.00">depicture_menu/test</text>
<text xml:space="preserve" text-anchor="start" x="670.62" y="-208.5" font-family="Helvetica,sans-Serif" font-size="10.00">/cs_binding_test/unmanaged</text>
<text xml:space="preserve" text-anchor="middle" x="739.25" y="-196.5" font-family="Helvetica,sans-Serif" font-size="10.00">_test/test_c_u_notify_traits.cpp</text>
</a>
</g>
</g>
<!-- Node1&#45;&gt;Node12 -->
<g id="edge15_Node000001_Node000012" class="edge">
<title>Node1&#45;&gt;Node12</title>
<g id="a_edge15_Node000001_Node000012"><a xlink:title=" ">
<path fill="none" stroke="#63b8ff" d="M602.42,-348.89C613.9,-339.98 626.34,-329.88 637.25,-320 668.06,-292.08 700.72,-256.65 720.55,-234.39"/>
<polygon fill="#63b8ff" stroke="#63b8ff" points="600.48,-345.96 594.67,-354.82 604.74,-351.52 600.48,-345.96"/>
</a>
</g>
</g>
<!-- Node3 -->
<g id="Node000003" class="node">
<title>Node3</title>
<g id="a_Node000003"><a xlink:href="config__view__presenter_8hpp.html" target="_top" xlink:title="コンフィグビュープレゼンター">
<polygon fill="white" stroke="#666666" points="279.5,-240 151,-240 151,-184 279.5,-184 279.5,-240"/>
<text xml:space="preserve" text-anchor="start" x="159" y="-226.5" font-family="Helvetica,sans-Serif" font-size="10.00">depicture_menu/src</text>
<text xml:space="preserve" text-anchor="start" x="159" y="-214.5" font-family="Helvetica,sans-Serif" font-size="10.00">/core/presentation/change</text>
<text xml:space="preserve" text-anchor="start" x="159" y="-202.5" font-family="Helvetica,sans-Serif" font-size="10.00">_view_model/config_view</text>
<text xml:space="preserve" text-anchor="middle" x="215.25" y="-190.5" font-family="Helvetica,sans-Serif" font-size="10.00">_presenter.hpp</text>
</a>
</g>
</g>
<!-- Node2&#45;&gt;Node3 -->
<g id="edge2_Node000002_Node000003" class="edge">
<title>Node2&#45;&gt;Node3</title>
<g id="a_edge2_Node000002_Node000003"><a xlink:title=" ">
<path fill="none" stroke="#63b8ff" d="M323.68,-270.28C305.64,-260.75 285.29,-250 267.14,-240.42"/>
<polygon fill="#63b8ff" stroke="#63b8ff" points="321.9,-273.3 332.38,-274.88 325.17,-267.11 321.9,-273.3"/>
</a>
</g>
</g>
<!-- Node9 -->
<g id="Node000009" class="node">
<title>Node9</title>
<g id="a_Node000009"><a xlink:href="test-observers__connection_8cpp.html" target="_top" xlink:title=" ">
<polygon fill="white" stroke="#666666" points="450.5,-234 298,-234 298,-190 450.5,-190 450.5,-234"/>
<text xml:space="preserve" text-anchor="start" x="306" y="-220.5" font-family="Helvetica,sans-Serif" font-size="10.00">depicture_menu/test</text>
<text xml:space="preserve" text-anchor="start" x="306" y="-208.5" font-family="Helvetica,sans-Serif" font-size="10.00">/core/cs_binding/observer</text>
<text xml:space="preserve" text-anchor="middle" x="374.25" y="-196.5" font-family="Helvetica,sans-Serif" font-size="10.00">/test&#45;observers_connection.cpp</text>
</a>
</g>
</g>
<!-- Node2&#45;&gt;Node9 -->
<g id="edge9_Node000002_Node000009" class="edge">
<title>Node2&#45;&gt;Node9</title>
<g id="a_edge9_Node000002_Node000009"><a xlink:title=" ">
<path fill="none" stroke="#63b8ff" d="M374.25,-264.49C374.25,-254.43 374.25,-243.6 374.25,-234.48"/>
<polygon fill="#63b8ff" stroke="#63b8ff" points="370.75,-264.29 374.25,-274.29 377.75,-264.29 370.75,-264.29"/>
</a>
</g>
</g>
<!-- Node4 -->
<g id="Node000004" class="node">
<title>Node4</title>
<g id="a_Node000004"><a xlink:href="config__view__arg__builder_8cpp.html" target="_top" xlink:title="ConfigArg ファクトリー">
<polygon fill="white" stroke="#666666" points="594.5,-56 478,-56 478,0 594.5,0 594.5,-56"/>
<text xml:space="preserve" text-anchor="start" x="486" y="-42.5" font-family="Helvetica,sans-Serif" font-size="10.00">depicture_menu/src</text>
<text xml:space="preserve" text-anchor="start" x="486" y="-30.5" font-family="Helvetica,sans-Serif" font-size="10.00">/core/application/cs</text>
<text xml:space="preserve" text-anchor="start" x="486" y="-18.5" font-family="Helvetica,sans-Serif" font-size="10.00">_binding_factory/config</text>
<text xml:space="preserve" text-anchor="middle" x="536.25" y="-6.5" font-family="Helvetica,sans-Serif" font-size="10.00">_view_arg_builder.cpp</text>
</a>
</g>
</g>
<!-- Node3&#45;&gt;Node4 -->
<g id="edge3_Node000003_Node000004" class="edge">
<title>Node3&#45;&gt;Node4</title>
<g id="a_edge3_Node000003_Node000004"><a xlink:title=" ">
<path fill="none" stroke="#63b8ff" d="M291.17,-184.14C355.19,-172.51 483.08,-182.12 517.25,-148 541.01,-124.28 542.45,-83.52 540.21,-56.42"/>
<polygon fill="#63b8ff" stroke="#63b8ff" points="290.5,-180.7 281.48,-186.25 291.99,-187.54 290.5,-180.7"/>
</a>
</g>
</g>
<!-- Node5 -->
<g id="Node000005" class="node">
<title>Node5</title>
<g id="a_Node000005"><a xlink:href="config__view__presenter_8cpp.html" target="_top" xlink:title=" ">
<polygon fill="white" stroke="#666666" points="128.5,-148 0,-148 0,-92 128.5,-92 128.5,-148"/>
<text xml:space="preserve" text-anchor="start" x="8" y="-134.5" font-family="Helvetica,sans-Serif" font-size="10.00">depicture_menu/src</text>
<text xml:space="preserve" text-anchor="start" x="8" y="-122.5" font-family="Helvetica,sans-Serif" font-size="10.00">/core/presentation/change</text>
<text xml:space="preserve" text-anchor="start" x="8" y="-110.5" font-family="Helvetica,sans-Serif" font-size="10.00">_view_model/config_view</text>
<text xml:space="preserve" text-anchor="middle" x="64.25" y="-98.5" font-family="Helvetica,sans-Serif" font-size="10.00">_presenter.cpp</text>
</a>
</g>
</g>
<!-- Node3&#45;&gt;Node5 -->
<g id="edge4_Node000003_Node000005" class="edge">
<title>Node3&#45;&gt;Node5</title>
<g id="a_edge4_Node000003_Node000005"><a xlink:title=" ">
<path fill="none" stroke="#63b8ff" d="M159.29,-177.64C143.18,-168.04 125.79,-157.68 110.35,-148.48"/>
<polygon fill="#63b8ff" stroke="#63b8ff" points="157.44,-180.62 167.82,-182.73 161.03,-174.61 157.44,-180.62"/>
</a>
</g>
</g>
<!-- Node6 -->
<g id="Node000006" class="node">
<title>Node6</title>
<g id="a_Node000006"><a xlink:href="combine__view__model__presenter_8hpp.html" target="_top" xlink:title=" ">
<polygon fill="white" stroke="#666666" points="284,-142 146.5,-142 146.5,-98 284,-98 284,-142"/>
<text xml:space="preserve" text-anchor="start" x="154.5" y="-128.5" font-family="Helvetica,sans-Serif" font-size="10.00">depicture_menu/src</text>
<text xml:space="preserve" text-anchor="start" x="154.5" y="-116.5" font-family="Helvetica,sans-Serif" font-size="10.00">/core/presentation/combine</text>
<text xml:space="preserve" text-anchor="middle" x="215.25" y="-104.5" font-family="Helvetica,sans-Serif" font-size="10.00">_view_model_presenter.hpp</text>
</a>
</g>
</g>
<!-- Node3&#45;&gt;Node6 -->
<g id="edge5_Node000003_Node000006" class="edge">
<title>Node3&#45;&gt;Node6</title>
<g id="a_edge5_Node000003_Node000006"><a xlink:title=" ">
<path fill="none" stroke="#63b8ff" d="M215.25,-172.23C215.25,-161.98 215.25,-151.28 215.25,-142.33"/>
<polygon fill="#63b8ff" stroke="#63b8ff" points="211.75,-171.99 215.25,-181.99 218.75,-171.99 211.75,-171.99"/>
</a>
</g>
</g>
<!-- Node8 -->
<g id="Node000008" class="node">
<title>Node8</title>
<g id="a_Node000008"><a xlink:href="_test_config_view_presenter_8cpp.html" target="_top" xlink:title=" ">
<polygon fill="white" stroke="#666666" points="508.12,-142 302.38,-142 302.38,-98 508.12,-98 508.12,-142"/>
<text xml:space="preserve" text-anchor="start" x="310.38" y="-128.5" font-family="Helvetica,sans-Serif" font-size="10.00">depicture_menu/test</text>
<text xml:space="preserve" text-anchor="start" x="310.38" y="-116.5" font-family="Helvetica,sans-Serif" font-size="10.00">/core/presentation/change</text>
<text xml:space="preserve" text-anchor="middle" x="405.25" y="-104.5" font-family="Helvetica,sans-Serif" font-size="10.00">_view_model/TestConfigViewPresenter.cpp</text>
</a>
</g>
</g>
<!-- Node3&#45;&gt;Node8 -->
<g id="edge8_Node000003_Node000008" class="edge">
<title>Node3&#45;&gt;Node8</title>
<g id="a_edge8_Node000003_Node000008"><a xlink:title=" ">
<path fill="none" stroke="#63b8ff" d="M283.6,-178.62C308.97,-166.61 337.1,-153.28 359.92,-142.47"/>
<polygon fill="#63b8ff" stroke="#63b8ff" points="282.2,-175.42 274.66,-182.86 285.19,-181.74 282.2,-175.42"/>
</a>
</g>
</g>
<!-- Node6&#45;&gt;Node4 -->
<g id="edge6_Node000006_Node000004" class="edge">
<title>Node6&#45;&gt;Node4</title>
<g id="a_edge6_Node000006_Node000004"><a xlink:title=" ">
<path fill="none" stroke="#63b8ff" d="M286.42,-94.11C288.72,-93.38 291,-92.68 293.25,-92 355.83,-73.09 428.5,-54.71 477.95,-42.73"/>
<polygon fill="#63b8ff" stroke="#63b8ff" points="285.45,-90.74 277,-97.13 287.59,-97.4 285.45,-90.74"/>
</a>
</g>
</g>
<!-- Node7 -->
<g id="Node000007" class="node">
<title>Node7</title>
<g id="a_Node000007"><a xlink:href="setup__core_8cpp.html" target="_top" xlink:title=" ">
<polygon fill="white" stroke="#666666" points="271.25,-56 159.25,-56 159.25,0 271.25,0 271.25,-56"/>
<text xml:space="preserve" text-anchor="start" x="167.25" y="-42.5" font-family="Helvetica,sans-Serif" font-size="10.00">depicture_menu/src</text>
<text xml:space="preserve" text-anchor="start" x="167.25" y="-30.5" font-family="Helvetica,sans-Serif" font-size="10.00">/core/dll_entry_point</text>
<text xml:space="preserve" text-anchor="start" x="167.25" y="-18.5" font-family="Helvetica,sans-Serif" font-size="10.00">/domain_control/setup</text>
<text xml:space="preserve" text-anchor="middle" x="215.25" y="-6.5" font-family="Helvetica,sans-Serif" font-size="10.00">_core.cpp</text>
</a>
</g>
</g>
<!-- Node6&#45;&gt;Node7 -->
<g id="edge7_Node000006_Node000007" class="edge">
<title>Node6&#45;&gt;Node7</title>
<g id="a_edge7_Node000006_Node000007"><a xlink:title=" ">
<path fill="none" stroke="#63b8ff" d="M215.25,-86.25C215.25,-76.42 215.25,-65.76 215.25,-56.32"/>
<polygon fill="#63b8ff" stroke="#63b8ff" points="211.75,-86.16 215.25,-96.16 218.75,-86.16 211.75,-86.16"/>
</a>
</g>
</g>
<!-- Node10&#45;&gt;Node4 -->
<g id="edge11_Node000010_Node000004" class="edge">
<title>Node10&#45;&gt;Node4</title>
<g id="a_edge11_Node000010_Node000004"><a xlink:title=" ">
<path fill="none" stroke="#63b8ff" d="M598.03,-267.31C605.05,-259.22 611.46,-249.93 615.25,-240 624.13,-216.75 621.06,-208.2 615.25,-184 603.72,-135.98 574.69,-86.08 555.22,-56.28"/>
<polygon fill="#63b8ff" stroke="#63b8ff" points="595.6,-264.78 591.31,-274.47 600.71,-269.57 595.6,-264.78"/>
</a>
</g>
</g>
<!-- Node10&#45;&gt;Node9 -->
<g id="edge13_Node000010_Node000009" class="edge">
<title>Node10&#45;&gt;Node9</title>
<g id="a_edge13_Node000010_Node000009"><a xlink:title=" ">
<path fill="none" stroke="#63b8ff" d="M505.48,-271.02C478.88,-259.26 447.82,-245.53 422.6,-234.37"/>
<polygon fill="#63b8ff" stroke="#63b8ff" points="503.87,-274.13 514.43,-274.97 506.7,-267.73 503.87,-274.13"/>
</a>
</g>
</g>
<!-- Node11 -->
<g id="Node000011" class="node">
<title>Node11</title>
<g id="a_Node000011"><a xlink:href="_test_config_arg_8cpp.html" target="_top" xlink:title=" ">
<polygon fill="white" stroke="#666666" points="606,-234 468.5,-234 468.5,-190 606,-190 606,-234"/>
<text xml:space="preserve" text-anchor="start" x="476.5" y="-220.5" font-family="Helvetica,sans-Serif" font-size="10.00">depicture_menu/test</text>
<text xml:space="preserve" text-anchor="start" x="476.5" y="-208.5" font-family="Helvetica,sans-Serif" font-size="10.00">/core/cs_binding/TestConfig</text>
<text xml:space="preserve" text-anchor="middle" x="537.25" y="-196.5" font-family="Helvetica,sans-Serif" font-size="10.00">Arg.cpp</text>
</a>
</g>
</g>
<!-- Node10&#45;&gt;Node11 -->
<g id="edge12_Node000010_Node000011" class="edge">
<title>Node10&#45;&gt;Node11</title>
<g id="a_edge12_Node000010_Node000011"><a xlink:title=" ">
<path fill="none" stroke="#63b8ff" d="M554.01,-265.15C550.72,-254.9 547.15,-243.8 544.15,-234.48"/>
<polygon fill="#63b8ff" stroke="#63b8ff" points="550.58,-265.91 556.97,-274.36 557.25,-263.77 550.58,-265.91"/>
</a>
</g>
</g>
<!-- Node10&#45;&gt;Node12 -->
<g id="edge14_Node000010_Node000012" class="edge">
<title>Node10&#45;&gt;Node12</title>
<g id="a_edge14_Node000010_Node000012"><a xlink:title=" ">
<path fill="none" stroke="#63b8ff" d="M619.03,-270.7C643.39,-259.01 671.69,-245.43 694.72,-234.37"/>
<polygon fill="#63b8ff" stroke="#63b8ff" points="617.73,-267.45 610.23,-274.93 620.76,-273.76 617.73,-267.45"/>
</a>
</g>
</g>
</g>
</svg>
