<?xml version="1.0" encoding="UTF-8" standalone="no"?>
<!DOCTYPE svg PUBLIC "-//W3C//DTD SVG 1.1//EN"
 "http://www.w3.org/Graphics/SVG/1.1/DTD/svg11.dtd">
<!-- Generated by graphviz version 14.1.2 (20260124.0452)
 -->
<!-- Title: depicture_menu/src/core/repository/enum_top_window.hpp Pages: 1 -->
<svg width="196pt" height="120pt"
 viewBox="0.00 0.00 196.00 120.00" xmlns="http://www.w3.org/2000/svg" xmlns:xlink="http://www.w3.org/1999/xlink">
<g id="graph0" class="graph" transform="scale(1 1) rotate(0) translate(4 116)">
<title>depicture_menu/src/core/repository/enum_top_window.hpp</title>
<!-- Node1 -->
<g id="Node000001" class="node">
<title>Node1</title>
<g id="a_Node000001"><a xlink:title=" ">
<polygon fill="#999999" stroke="#666666" points="170.12,-112 59.62,-112 59.62,-68 170.12,-68 170.12,-112"/>
<text xml:space="preserve" text-anchor="start" x="67.62" y="-98.5" font-family="Helvetica,sans-Serif" font-size="10.00">depicture_menu/src</text>
<text xml:space="preserve" text-anchor="start" x="67.62" y="-86.5" font-family="Helvetica,sans-Serif" font-size="10.00">/core/repository/enum</text>
<text xml:space="preserve" text-anchor="middle" x="114.88" y="-74.5" font-family="Helvetica,sans-Serif" font-size="10.00">_top_window.hpp</text>
</a>
</g>
</g>
<!-- Node2 -->
<g id="Node000002" class="node">
<title>Node2</title>
<g id="a_Node000002"><a xlink:title=" ">
<polygon fill="#e0e0e0" stroke="#999999" points="127.75,-32 0,-32 0,0 127.75,0 127.75,-32"/>
<text xml:space="preserve" text-anchor="start" x="8" y="-18.5" font-family="Helvetica,sans-Serif" font-size="10.00">core/domain/model/action</text>
<text xml:space="preserve" text-anchor="middle" x="63.88" y="-6.5" font-family="Helvetica,sans-Serif" font-size="10.00">/gui/window.hpp</text>
</a>
</g>
</g>
<!-- Node1&#45;&gt;Node2 -->
<g id="edge1_Node000001_Node000002" class="edge">
<title>Node1&#45;&gt;Node2</title>
<g id="a_edge1_Node000001_Node000002"><a xlink:title=" ">
<path fill="none" stroke="#63b8ff" d="M99.85,-67.79C93.96,-59.47 87.16,-49.88 81.08,-41.28"/>
<polygon fill="#63b8ff" stroke="#63b8ff" points="84.1,-39.5 75.46,-33.36 78.39,-43.54 84.1,-39.5"/>
</a>
</g>
</g>
<!-- Node3 -->
<g id="Node000003" class="node">
<title>Node3</title>
<g id="a_Node000003"><a xlink:title=" ">
<polygon fill="#e0e0e0" stroke="#999999" points="188.38,-26 145.38,-26 145.38,-6 188.38,-6 188.38,-26"/>
<text xml:space="preserve" text-anchor="middle" x="166.88" y="-12.5" font-family="Helvetica,sans-Serif" font-size="10.00">vector</text>
</a>
</g>
</g>
<!-- Node1&#45;&gt;Node3 -->
<g id="edge2_Node000001_Node000003" class="edge">
<title>Node1&#45;&gt;Node3</title>
<g id="a_edge2_Node000001_Node000003"><a xlink:title=" ">
<path fill="none" stroke="#63b8ff" d="M130.2,-67.79C137.58,-57.57 146.35,-45.42 153.46,-35.57"/>
<polygon fill="#63b8ff" stroke="#63b8ff" points="156.25,-37.69 159.26,-27.54 150.57,-33.6 156.25,-37.69"/>
</a>
</g>
</g>
</g>
</svg>
