<?xml version="1.0" encoding="UTF-8" standalone="no"?>
<!DOCTYPE svg PUBLIC "-//W3C//DTD SVG 1.1//EN"
 "http://www.w3.org/Graphics/SVG/1.1/DTD/svg11.dtd">
<!-- Generated by graphviz version 14.1.2 (20260124.0452)
 -->
<!-- Title: depicture_menu/src/core/repository/enum_top_window.cpp Pages: 1 -->
<svg width="340pt" height="176pt"
 viewBox="0.00 0.00 340.00 176.00" xmlns="http://www.w3.org/2000/svg" xmlns:xlink="http://www.w3.org/1999/xlink">

<svg id="main" version="1.1" xmlns="http://www.w3.org/2000/svg" xmlns:xlink="http://www.w3.org/1999/xlink" xml:space="preserve">

<style type="text/css"><![CDATA[
.node, .edge {opacity: 0.7;}
.node.selected, .edge.selected {opacity: 1;}
.edge:hover path { stroke: red; }
.edge:hover polygon { stroke: red; fill: red; }
]]></style>
<script type="application/ecmascript" xlink:href="svg.min.js"/>
<svg id="graph" class="graph">
<g id="graph0" class="graph" transform="scale(1 1) rotate(0) translate(4 172)">
<title>depicture_menu/src/core/repository/enum_top_window.cpp</title>
<!-- Node1 -->
<g id="Node000001" class="node">
<title>Node1</title>
<g id="a_Node000001"><a xlink:title=" ">
<polygon fill="#999999" stroke="#666666" points="276.12,-168 165.62,-168 165.62,-124 276.12,-124 276.12,-168"/>
<text xml:space="preserve" text-anchor="start" x="173.62" y="-154.5" font-family="Helvetica,sans-Serif" font-size="10.00">depicture_menu/src</text>
<text xml:space="preserve" text-anchor="start" x="173.62" y="-142.5" font-family="Helvetica,sans-Serif" font-size="10.00">/core/repository/enum</text>
<text xml:space="preserve" text-anchor="middle" x="220.88" y="-130.5" font-family="Helvetica,sans-Serif" font-size="10.00">_top_window.cpp</text>
</a>
</g>
</g>
<!-- Node2 -->
<g id="Node000002" class="node">
<title>Node2</title>
<g id="a_Node000002"><a xlink:href="enum__top__window_8hpp.html" target="_top" xlink:title=" ">
<polygon fill="white" stroke="#666666" points="172.38,-88 57.38,-88 57.38,-68 172.38,-68 172.38,-88"/>
<text xml:space="preserve" text-anchor="middle" x="114.88" y="-74.5" font-family="Helvetica,sans-Serif" font-size="10.00">enum_top_window.hpp</text>
</a>
</g>
</g>
<!-- Node1&#45;&gt;Node2 -->
<g id="edge1_Node000001_Node000002" class="edge">
<title>Node1&#45;&gt;Node2</title>
<g id="a_edge1_Node000001_Node000002"><a xlink:title=" ">
<path fill="none" stroke="#63b8ff" d="M186.46,-123.57C171.09,-114 153.33,-102.94 139.34,-94.24"/>
<polygon fill="#63b8ff" stroke="#63b8ff" points="141.54,-91.48 131.2,-89.17 137.84,-97.42 141.54,-91.48"/>
</a>
</g>
</g>
<!-- Node5 -->
<g id="Node000005" class="node">
<title>Node5</title>
<g id="a_Node000005"><a xlink:title=" ">
<polygon fill="#e0e0e0" stroke="#999999" points="251.38,-88 190.38,-88 190.38,-68 251.38,-68 251.38,-88"/>
<text xml:space="preserve" text-anchor="middle" x="220.88" y="-74.5" font-family="Helvetica,sans-Serif" font-size="10.00">config.hpp</text>
</a>
</g>
</g>
<!-- Node1&#45;&gt;Node5 -->
<g id="edge4_Node000001_Node000005" class="edge">
<title>Node1&#45;&gt;Node5</title>
<g id="a_edge4_Node000001_Node000005"><a xlink:title=" ">
<path fill="none" stroke="#63b8ff" d="M220.88,-123.75C220.88,-116.13 220.88,-107.53 220.88,-99.93"/>
<polygon fill="#63b8ff" stroke="#63b8ff" points="224.38,-99.93 220.88,-89.93 217.38,-99.93 224.38,-99.93"/>
</a>
</g>
</g>
<!-- Node6 -->
<g id="Node000006" class="node">
<title>Node6</title>
<g id="a_Node000006"><a xlink:title=" ">
<polygon fill="#e0e0e0" stroke="#999999" points="332.12,-88 269.62,-88 269.62,-68 332.12,-68 332.12,-88"/>
<text xml:space="preserve" text-anchor="middle" x="300.88" y="-74.5" font-family="Helvetica,sans-Serif" font-size="10.00">windows.h</text>
</a>
</g>
</g>
<!-- Node1&#45;&gt;Node6 -->
<g id="edge5_Node000001_Node000006" class="edge">
<title>Node1&#45;&gt;Node6</title>
<g id="a_edge5_Node000001_Node000006"><a xlink:title=" ">
<path fill="none" stroke="#63b8ff" d="M246.63,-123.75C257.68,-114.64 270.4,-104.14 280.74,-95.61"/>
<polygon fill="#63b8ff" stroke="#63b8ff" points="282.8,-98.45 288.29,-89.38 278.35,-93.05 282.8,-98.45"/>
</a>
</g>
</g>
<!-- Node3 -->
<g id="Node000003" class="node">
<title>Node3</title>
<g id="a_Node000003"><a xlink:title=" ">
<polygon fill="#e0e0e0" stroke="#999999" points="127.75,-32 0,-32 0,0 127.75,0 127.75,-32"/>
<text xml:space="preserve" text-anchor="start" x="8" y="-18.5" font-family="Helvetica,sans-Serif" font-size="10.00">core/domain/model/action</text>
<text xml:space="preserve" text-anchor="middle" x="63.88" y="-6.5" font-family="Helvetica,sans-Serif" font-size="10.00">/gui/window.hpp</text>
</a>
</g>
</g>
<!-- Node2&#45;&gt;Node3 -->
<g id="edge2_Node000002_Node000003" class="edge">
<title>Node2&#45;&gt;Node3</title>
<g id="a_edge2_Node000002_Node000003"><a xlink:title=" ">
<path fill="none" stroke="#63b8ff" d="M106.91,-67.62C100.79,-60.43 92.07,-50.17 84.08,-40.77"/>
<polygon fill="#63b8ff" stroke="#63b8ff" points="86.87,-38.65 77.72,-33.29 81.53,-43.18 86.87,-38.65"/>
</a>
</g>
</g>
<!-- Node4 -->
<g id="Node000004" class="node">
<title>Node4</title>
<g id="a_Node000004"><a xlink:title=" ">
<polygon fill="#e0e0e0" stroke="#999999" points="188.38,-26 145.38,-26 145.38,-6 188.38,-6 188.38,-26"/>
<text xml:space="preserve" text-anchor="middle" x="166.88" y="-12.5" font-family="Helvetica,sans-Serif" font-size="10.00">vector</text>
</a>
</g>
</g>
<!-- Node2&#45;&gt;Node4 -->
<g id="edge3_Node000002_Node000004" class="edge">
<title>Node2&#45;&gt;Node4</title>
<g id="a_edge3_Node000002_Node000004"><a xlink:title=" ">
<path fill="none" stroke="#63b8ff" d="M123,-67.62C130.6,-58.86 142.15,-45.53 151.49,-34.75"/>
<polygon fill="#63b8ff" stroke="#63b8ff" points="154.08,-37.11 157.99,-27.26 148.79,-32.52 154.08,-37.11"/>
</a>
</g>
</g>
</g>
</svg>
</svg>

<style type='text/css'>
<![CDATA[
[data-mouse-over-selected='false'] { opacity: 0.7; }
[data-mouse-over-selected='true']  { opacity: 1.0; }
]]>
</style>
<script type="application/ecmascript"><![CDATA[
document.addEventListener('DOMContentLoaded', (event) => {
  highlightEdges();
  highlightAdjacentNodes();
});
]]></script>
</svg>
