<?xml version="1.0" encoding="UTF-8" standalone="no"?>
<!DOCTYPE svg PUBLIC "-//W3C//DTD SVG 1.1//EN"
 "http://www.w3.org/Graphics/SVG/1.1/DTD/svg11.dtd">
<!-- Generated by graphviz version 14.1.2 (20260124.0452)
 -->
<!-- Title: depicture_menu/src/core/application/backup_json/format/format_version.hpp Pages: 1 -->
<svg width="662pt" height="464pt"
 viewBox="0.00 0.00 662.00 464.00" xmlns="http://www.w3.org/2000/svg" xmlns:xlink="http://www.w3.org/1999/xlink">
<g id="graph0" class="graph" transform="scale(1 1) rotate(0) translate(4 460)">
<title>depicture_menu/src/core/application/backup_json/format/format_version.hpp</title>
<!-- Node1 -->
<g id="Node000001" class="node">
<title>Node1</title>
<g id="a_Node000001"><a xlink:title=" ">
<polygon fill="#999999" stroke="#666666" points="268.01,-456 111.76,-456 111.76,-412 268.01,-412 268.01,-456"/>
<text xml:space="preserve" text-anchor="start" x="119.76" y="-442.5" font-family="Helvetica,sans-Serif" font-size="10.00">depicture_menu/src</text>
<text xml:space="preserve" text-anchor="start" x="119.76" y="-430.5" font-family="Helvetica,sans-Serif" font-size="10.00">/core/application/backup</text>
<text xml:space="preserve" text-anchor="middle" x="189.88" y="-418.5" font-family="Helvetica,sans-Serif" font-size="10.00">_json/format/format_version.hpp</text>
</a>
</g>
</g>
<!-- Node2 -->
<g id="Node000002" class="node">
<title>Node2</title>
<g id="a_Node000002"><a xlink:href="minimum_8hpp.html" target="_top" xlink:title=" ">
<polygon fill="white" stroke="#666666" points="141.63,-136 10.13,-136 10.13,-92 141.63,-92 141.63,-136"/>
<text xml:space="preserve" text-anchor="start" x="18.13" y="-122.5" font-family="Helvetica,sans-Serif" font-size="10.00">depicture_menu/src</text>
<text xml:space="preserve" text-anchor="start" x="18.13" y="-110.5" font-family="Helvetica,sans-Serif" font-size="10.00">/core/application/backup</text>
<text xml:space="preserve" text-anchor="middle" x="75.88" y="-98.5" font-family="Helvetica,sans-Serif" font-size="10.00">_json/format/minimum.hpp</text>
</a>
</g>
</g>
<!-- Node1&#45;&gt;Node2 -->
<g id="edge1_Node000001_Node000002" class="edge">
<title>Node1&#45;&gt;Node2</title>
<g id="a_edge1_Node000001_Node000002"><a xlink:title=" ">
<path fill="none" stroke="#63b8ff" d="M153.38,-404.4C108.66,-366.8 35.25,-296.04 5.88,-216 -0.85,-197.64 -2.51,-189.66 5.88,-172 12.74,-157.56 25.25,-145.58 37.81,-136.39"/>
<polygon fill="#63b8ff" stroke="#63b8ff" points="151.08,-407.05 161.02,-410.73 155.55,-401.66 151.08,-407.05"/>
</a>
</g>
</g>
<!-- Node4 -->
<g id="Node000004" class="node">
<title>Node4</title>
<g id="a_Node000004"><a xlink:href="v001_8hpp.html" target="_top" xlink:title=" ">
<polygon fill="white" stroke="#666666" points="339.76,-376 218.01,-376 218.01,-332 339.76,-332 339.76,-376"/>
<text xml:space="preserve" text-anchor="start" x="226.01" y="-362.5" font-family="Helvetica,sans-Serif" font-size="10.00">depicture_menu/src</text>
<text xml:space="preserve" text-anchor="start" x="226.01" y="-350.5" font-family="Helvetica,sans-Serif" font-size="10.00">/core/application/backup</text>
<text xml:space="preserve" text-anchor="middle" x="278.88" y="-338.5" font-family="Helvetica,sans-Serif" font-size="10.00">_json/format/v001.hpp</text>
</a>
</g>
</g>
<!-- Node1&#45;&gt;Node4 -->
<g id="edge3_Node000001_Node000004" class="edge">
<title>Node1&#45;&gt;Node4</title>
<g id="a_edge3_Node000001_Node000004"><a xlink:title=" ">
<path fill="none" stroke="#63b8ff" d="M222.78,-404.17C233.31,-394.94 244.78,-384.88 254.59,-376.29"/>
<polygon fill="#63b8ff" stroke="#63b8ff" points="220.55,-401.47 215.34,-410.69 225.17,-406.73 220.55,-401.47"/>
</a>
</g>
</g>
<!-- Node6 -->
<g id="Node000006" class="node">
<title>Node6</title>
<g id="a_Node000006"><a xlink:href="v002_8hpp.html" target="_top" xlink:title=" ">
<polygon fill="white" stroke="#666666" points="250.76,-296 129.01,-296 129.01,-252 250.76,-252 250.76,-296"/>
<text xml:space="preserve" text-anchor="start" x="137.01" y="-282.5" font-family="Helvetica,sans-Serif" font-size="10.00">depicture_menu/src</text>
<text xml:space="preserve" text-anchor="start" x="137.01" y="-270.5" font-family="Helvetica,sans-Serif" font-size="10.00">/core/application/backup</text>
<text xml:space="preserve" text-anchor="middle" x="189.88" y="-258.5" font-family="Helvetica,sans-Serif" font-size="10.00">_json/format/v002.hpp</text>
</a>
</g>
</g>
<!-- Node1&#45;&gt;Node6 -->
<g id="edge16_Node000001_Node000006" class="edge">
<title>Node1&#45;&gt;Node6</title>
<g id="a_edge16_Node000001_Node000006"><a xlink:title=" ">
<path fill="none" stroke="#63b8ff" d="M189.88,-400.57C189.88,-369.43 189.88,-323.3 189.88,-296.48"/>
<polygon fill="#63b8ff" stroke="#63b8ff" points="186.38,-400.18 189.88,-410.18 193.38,-400.18 186.38,-400.18"/>
</a>
</g>
</g>
<!-- Node3 -->
<g id="Node000003" class="node">
<title>Node3</title>
<g id="a_Node000003"><a xlink:href="backup__json_8cpp.html" target="_top" xlink:title=" ">
<polygon fill="white" stroke="#666666" points="205.76,-50 84.01,-50 84.01,-6 205.76,-6 205.76,-50"/>
<text xml:space="preserve" text-anchor="start" x="92.01" y="-36.5" font-family="Helvetica,sans-Serif" font-size="10.00">depicture_menu/src</text>
<text xml:space="preserve" text-anchor="start" x="92.01" y="-24.5" font-family="Helvetica,sans-Serif" font-size="10.00">/core/application/backup</text>
<text xml:space="preserve" text-anchor="middle" x="144.88" y="-12.5" font-family="Helvetica,sans-Serif" font-size="10.00">_json/backup_json.cpp</text>
</a>
</g>
</g>
<!-- Node2&#45;&gt;Node3 -->
<g id="edge2_Node000002_Node000003" class="edge">
<title>Node2&#45;&gt;Node3</title>
<g id="a_edge2_Node000002_Node000003"><a xlink:title=" ">
<path fill="none" stroke="#63b8ff" d="M100.44,-83.1C109.29,-72.33 119.09,-60.39 127.24,-50.48"/>
<polygon fill="#63b8ff" stroke="#63b8ff" points="97.9,-80.68 94.25,-90.63 103.31,-85.13 97.9,-80.68"/>
</a>
</g>
</g>
<!-- Node4&#45;&gt;Node3 -->
<g id="edge4_Node000004_Node000003" class="edge">
<title>Node4&#45;&gt;Node3</title>
<g id="a_edge4_Node000004_Node000003"><a xlink:title=" ">
<path fill="none" stroke="#63b8ff" d="M302.42,-322.29C327.66,-285.34 360.92,-222.03 335.88,-172 306.68,-113.66 241.11,-72.98 194.98,-50.31"/>
<polygon fill="#63b8ff" stroke="#63b8ff" points="299.68,-320.11 296.77,-330.3 305.4,-324.14 299.68,-320.11"/>
</a>
</g>
</g>
<!-- Node5 -->
<g id="Node000005" class="node">
<title>Node5</title>
<g id="a_Node000005"><a xlink:href="to__vxxx__converter_8cpp.html" target="_top" xlink:title=" ">
<polygon fill="white" stroke="#666666" points="326.88,-216 154.88,-216 154.88,-172 326.88,-172 326.88,-216"/>
<text xml:space="preserve" text-anchor="start" x="162.88" y="-202.5" font-family="Helvetica,sans-Serif" font-size="10.00">depicture_menu/src</text>
<text xml:space="preserve" text-anchor="start" x="162.88" y="-190.5" font-family="Helvetica,sans-Serif" font-size="10.00">/core/application/backup</text>
<text xml:space="preserve" text-anchor="middle" x="240.88" y="-178.5" font-family="Helvetica,sans-Serif" font-size="10.00">_json/format/to_vxxx_converter.cpp</text>
</a>
</g>
</g>
<!-- Node4&#45;&gt;Node5 -->
<g id="edge5_Node000004_Node000005" class="edge">
<title>Node4&#45;&gt;Node5</title>
<g id="a_edge5_Node000004_Node000005"><a xlink:title=" ">
<path fill="none" stroke="#63b8ff" d="M273.89,-320.29C270.56,-300.39 265.73,-274.56 259.88,-252 256.79,-240.09 252.51,-227.04 248.8,-216.45"/>
<polygon fill="#63b8ff" stroke="#63b8ff" points="270.41,-320.73 275.47,-330.04 277.32,-319.61 270.41,-320.73"/>
</a>
</g>
</g>
<!-- Node4&#45;&gt;Node6 -->
<g id="edge6_Node000004_Node000006" class="edge">
<title>Node4&#45;&gt;Node6</title>
<g id="a_edge6_Node000004_Node000006"><a xlink:title=" ">
<path fill="none" stroke="#63b8ff" d="M245.99,-324.17C235.45,-314.94 223.98,-304.88 214.17,-296.29"/>
<polygon fill="#63b8ff" stroke="#63b8ff" points="243.6,-326.73 253.42,-330.69 248.21,-321.47 243.6,-326.73"/>
</a>
</g>
</g>
<!-- Node11 -->
<g id="Node000011" class="node">
<title>Node11</title>
<g id="a_Node000011"><a xlink:href="_test_backup_json_8cpp.html" target="_top" xlink:title=" ">
<polygon fill="white" stroke="#666666" points="653.76,-50 520.01,-50 520.01,-6 653.76,-6 653.76,-50"/>
<text xml:space="preserve" text-anchor="start" x="528.01" y="-36.5" font-family="Helvetica,sans-Serif" font-size="10.00">depicture_menu/test</text>
<text xml:space="preserve" text-anchor="start" x="528.01" y="-24.5" font-family="Helvetica,sans-Serif" font-size="10.00">/core/application/backup</text>
<text xml:space="preserve" text-anchor="middle" x="586.88" y="-12.5" font-family="Helvetica,sans-Serif" font-size="10.00">_json/TestBackupJson.cpp</text>
</a>
</g>
</g>
<!-- Node4&#45;&gt;Node11 -->
<g id="edge15_Node000004_Node000011" class="edge">
<title>Node4&#45;&gt;Node11</title>
<g id="a_edge15_Node000004_Node000011"><a xlink:title=" ">
<path fill="none" stroke="#63b8ff" d="M311.57,-324.17C321.65,-315.19 332.77,-305.23 342.88,-296 419.75,-225.83 446.14,-215.02 513.88,-136 537.59,-108.34 560.53,-72.84 574.17,-50.5"/>
<polygon fill="#63b8ff" stroke="#63b8ff" points="309.3,-321.5 304.15,-330.75 313.95,-326.73 309.3,-321.5"/>
</a>
</g>
</g>
<!-- Node6&#45;&gt;Node5 -->
<g id="edge14_Node000006_Node000005" class="edge">
<title>Node6&#45;&gt;Node5</title>
<g id="a_edge14_Node000006_Node000005"><a xlink:title=" ">
<path fill="none" stroke="#63b8ff" d="M210.01,-242.22C215.68,-233.54 221.74,-224.28 226.96,-216.29"/>
<polygon fill="#63b8ff" stroke="#63b8ff" points="207.19,-240.13 204.65,-250.42 213.05,-243.97 207.19,-240.13"/>
</a>
</g>
</g>
<!-- Node7 -->
<g id="Node000007" class="node">
<title>Node7</title>
<g id="a_Node000007"><a xlink:href="latest_8hpp.html" target="_top" xlink:title=" ">
<polygon fill="white" stroke="#666666" points="136.76,-216 15.01,-216 15.01,-172 136.76,-172 136.76,-216"/>
<text xml:space="preserve" text-anchor="start" x="23.01" y="-202.5" font-family="Helvetica,sans-Serif" font-size="10.00">depicture_menu/src</text>
<text xml:space="preserve" text-anchor="start" x="23.01" y="-190.5" font-family="Helvetica,sans-Serif" font-size="10.00">/core/application/backup</text>
<text xml:space="preserve" text-anchor="middle" x="75.88" y="-178.5" font-family="Helvetica,sans-Serif" font-size="10.00">_json/format/latest.hpp</text>
</a>
</g>
</g>
<!-- Node6&#45;&gt;Node7 -->
<g id="edge7_Node000006_Node000007" class="edge">
<title>Node6&#45;&gt;Node7</title>
<g id="a_edge7_Node000006_Node000007"><a xlink:title=" ">
<path fill="none" stroke="#63b8ff" d="M149.36,-245.28C135.43,-235.74 120.06,-225.23 106.99,-216.29"/>
<polygon fill="#63b8ff" stroke="#63b8ff" points="147.25,-248.07 157.48,-250.83 151.2,-242.3 147.25,-248.07"/>
</a>
</g>
</g>
<!-- Node7&#45;&gt;Node2 -->
<g id="edge13_Node000007_Node000002" class="edge">
<title>Node7&#45;&gt;Node2</title>
<g id="a_edge13_Node000007_Node000002"><a xlink:title=" ">
<path fill="none" stroke="#63b8ff" d="M75.88,-160.25C75.88,-152.15 75.88,-143.68 75.88,-136.29"/>
<polygon fill="#63b8ff" stroke="#63b8ff" points="72.38,-160.17 75.88,-170.17 79.38,-160.17 72.38,-160.17"/>
</a>
</g>
</g>
<!-- Node8 -->
<g id="Node000008" class="node">
<title>Node8</title>
<g id="a_Node000008"><a xlink:href="backup__json_8hpp.html" target="_top" xlink:title=" ">
<polygon fill="white" stroke="#666666" points="504.76,-136 383.01,-136 383.01,-92 504.76,-92 504.76,-136"/>
<text xml:space="preserve" text-anchor="start" x="391.01" y="-122.5" font-family="Helvetica,sans-Serif" font-size="10.00">depicture_menu/src</text>
<text xml:space="preserve" text-anchor="start" x="391.01" y="-110.5" font-family="Helvetica,sans-Serif" font-size="10.00">/core/application/backup</text>
<text xml:space="preserve" text-anchor="middle" x="443.88" y="-98.5" font-family="Helvetica,sans-Serif" font-size="10.00">_json/backup_json.hpp</text>
</a>
</g>
</g>
<!-- Node7&#45;&gt;Node8 -->
<g id="edge8_Node000007_Node000008" class="edge">
<title>Node7&#45;&gt;Node8</title>
<g id="a_edge8_Node000007_Node000008"><a xlink:title=" ">
<path fill="none" stroke="#63b8ff" d="M148.32,-171.51C234.84,-150.71 324.67,-134.55 382.7,-124.81"/>
<polygon fill="#63b8ff" stroke="#63b8ff" points="147.6,-168.08 138.71,-173.85 149.26,-174.88 147.6,-168.08"/>
</a>
</g>
</g>
<!-- Node8&#45;&gt;Node3 -->
<g id="edge9_Node000008_Node000003" class="edge">
<title>Node8&#45;&gt;Node3</title>
<g id="a_edge9_Node000008_Node000003"><a xlink:title=" ">
<path fill="none" stroke="#63b8ff" d="M371.82,-92.76C370.84,-92.5 369.86,-92.25 368.88,-92 300.8,-74.52 282.05,-76.7 214.88,-56 209.4,-54.31 203.74,-52.41 198.12,-50.41"/>
<polygon fill="#63b8ff" stroke="#63b8ff" points="370.52,-96.04 381.08,-95.21 372.31,-89.27 370.52,-96.04"/>
</a>
</g>
</g>
<!-- Node9 -->
<g id="Node000009" class="node">
<title>Node9</title>
<g id="a_Node000009"><a xlink:href="config__view__arg__builder_8cpp.html" target="_top" xlink:title=" ">
<polygon fill="white" stroke="#666666" points="502.13,-56 385.63,-56 385.63,0 502.13,0 502.13,-56"/>
<text xml:space="preserve" text-anchor="start" x="393.63" y="-42.5" font-family="Helvetica,sans-Serif" font-size="10.00">depicture_menu/src</text>
<text xml:space="preserve" text-anchor="start" x="393.63" y="-30.5" font-family="Helvetica,sans-Serif" font-size="10.00">/core/application/cs</text>
<text xml:space="preserve" text-anchor="start" x="393.63" y="-18.5" font-family="Helvetica,sans-Serif" font-size="10.00">_binding_factory/config</text>
<text xml:space="preserve" text-anchor="middle" x="443.88" y="-6.5" font-family="Helvetica,sans-Serif" font-size="10.00">_view_arg_builder.cpp</text>
</a>
</g>
</g>
<!-- Node8&#45;&gt;Node9 -->
<g id="edge10_Node000008_Node000009" class="edge">
<title>Node8&#45;&gt;Node9</title>
<g id="a_edge10_Node000008_Node000009"><a xlink:title=" ">
<path fill="none" stroke="#63b8ff" d="M443.88,-80.54C443.88,-72.51 443.88,-63.99 443.88,-56.24"/>
<polygon fill="#63b8ff" stroke="#63b8ff" points="440.38,-80.29 443.88,-90.29 447.38,-80.29 440.38,-80.29"/>
</a>
</g>
</g>
<!-- Node10 -->
<g id="Node000010" class="node">
<title>Node10</title>
<g id="a_Node000010"><a xlink:href="backup__data__presenter_8cpp.html" target="_top" xlink:title=" ">
<polygon fill="white" stroke="#666666" points="368.01,-56 223.76,-56 223.76,0 368.01,0 368.01,-56"/>
<text xml:space="preserve" text-anchor="start" x="231.76" y="-42.5" font-family="Helvetica,sans-Serif" font-size="10.00">depicture_menu/src</text>
<text xml:space="preserve" text-anchor="start" x="231.76" y="-30.5" font-family="Helvetica,sans-Serif" font-size="10.00">/core/presentation/backup</text>
<text xml:space="preserve" text-anchor="start" x="231.76" y="-18.5" font-family="Helvetica,sans-Serif" font-size="10.00">_data_presenter/backup_data</text>
<text xml:space="preserve" text-anchor="middle" x="295.88" y="-6.5" font-family="Helvetica,sans-Serif" font-size="10.00">_presenter.cpp</text>
</a>
</g>
</g>
<!-- Node8&#45;&gt;Node10 -->
<g id="edge11_Node000008_Node000010" class="edge">
<title>Node8&#45;&gt;Node10</title>
<g id="a_edge11_Node000008_Node000010"><a xlink:title=" ">
<path fill="none" stroke="#63b8ff" d="M396.57,-86.15C379.84,-76.65 361,-65.96 344.19,-56.42"/>
<polygon fill="#63b8ff" stroke="#63b8ff" points="394.41,-88.95 404.84,-90.84 397.87,-82.86 394.41,-88.95"/>
</a>
</g>
</g>
<!-- Node8&#45;&gt;Node11 -->
<g id="edge12_Node000008_Node000011" class="edge">
<title>Node8&#45;&gt;Node11</title>
<g id="a_edge12_Node000008_Node000011"><a xlink:title=" ">
<path fill="none" stroke="#63b8ff" d="M490.25,-85.76C509.78,-74.29 532.18,-61.13 550.49,-50.37"/>
<polygon fill="#63b8ff" stroke="#63b8ff" points="488.49,-82.74 481.64,-90.82 492.04,-88.77 488.49,-82.74"/>
</a>
</g>
</g>
</g>
</svg>
