<?xml version="1.0" encoding="UTF-8" standalone="no"?>
<!DOCTYPE svg PUBLIC "-//W3C//DTD SVG 1.1//EN"
 "http://www.w3.org/Graphics/SVG/1.1/DTD/svg11.dtd">
<!-- Generated by graphviz version 14.1.2 (20260124.0452)
 -->
<!-- Title: depicture_menu/src/core/usecase/config_view/dto/global_trigger_key_data.hpp Pages: 1 -->
<svg width="558pt" height="248pt"
 viewBox="0.00 0.00 558.00 248.00" xmlns="http://www.w3.org/2000/svg" xmlns:xlink="http://www.w3.org/1999/xlink">
<g id="graph0" class="graph" transform="scale(1 1) rotate(0) translate(4 244)">
<title>depicture_menu/src/core/usecase/config_view/dto/global_trigger_key_data.hpp</title>
<!-- Node1 -->
<g id="Node000001" class="node">
<title>Node1</title>
<g id="a_Node000001"><a xlink:title=" ">
<polygon fill="#999999" stroke="#666666" points="390.38,-240 271.62,-240 271.62,-184 390.38,-184 390.38,-240"/>
<text xml:space="preserve" text-anchor="start" x="279.62" y="-226.5" font-family="Helvetica,sans-Serif" font-size="10.00">depicture_menu/src</text>
<text xml:space="preserve" text-anchor="start" x="279.62" y="-214.5" font-family="Helvetica,sans-Serif" font-size="10.00">/core/usecase/config</text>
<text xml:space="preserve" text-anchor="start" x="279.62" y="-202.5" font-family="Helvetica,sans-Serif" font-size="10.00">_view/dto/global_trigger</text>
<text xml:space="preserve" text-anchor="middle" x="331" y="-190.5" font-family="Helvetica,sans-Serif" font-size="10.00">_key_data.hpp</text>
</a>
</g>
</g>
<!-- Node2 -->
<g id="Node000002" class="node">
<title>Node2</title>
<g id="a_Node000002"><a xlink:href="config__view__arg__builder_8cpp.html" target="_top" xlink:title="ConfigArg ファクトリー">
<polygon fill="white" stroke="#666666" points="252.25,-56 135.75,-56 135.75,0 252.25,0 252.25,-56"/>
<text xml:space="preserve" text-anchor="start" x="143.75" y="-42.5" font-family="Helvetica,sans-Serif" font-size="10.00">depicture_menu/src</text>
<text xml:space="preserve" text-anchor="start" x="143.75" y="-30.5" font-family="Helvetica,sans-Serif" font-size="10.00">/core/application/cs</text>
<text xml:space="preserve" text-anchor="start" x="143.75" y="-18.5" font-family="Helvetica,sans-Serif" font-size="10.00">_binding_factory/config</text>
<text xml:space="preserve" text-anchor="middle" x="194" y="-6.5" font-family="Helvetica,sans-Serif" font-size="10.00">_view_arg_builder.cpp</text>
</a>
</g>
</g>
<!-- Node1&#45;&gt;Node2 -->
<g id="edge1_Node000001_Node000002" class="edge">
<title>Node1&#45;&gt;Node2</title>
<g id="a_edge1_Node000001_Node000002"><a xlink:title=" ">
<path fill="none" stroke="#63b8ff" d="M260.34,-200.55C201.92,-190.3 125.65,-172.62 107,-148 91.97,-128.16 95.68,-114.17 107,-92 114.38,-77.55 126.79,-65.65 139.96,-56.22"/>
<polygon fill="#63b8ff" stroke="#63b8ff" points="259.45,-203.95 269.9,-202.19 260.63,-197.05 259.45,-203.95"/>
</a>
</g>
</g>
<!-- Node3 -->
<g id="Node000003" class="node">
<title>Node3</title>
<g id="a_Node000003"><a xlink:href="setup__core_8cpp.html" target="_top" xlink:title=" ">
<polygon fill="white" stroke="#666666" points="387,-56 275,-56 275,0 387,0 387,-56"/>
<text xml:space="preserve" text-anchor="start" x="283" y="-42.5" font-family="Helvetica,sans-Serif" font-size="10.00">depicture_menu/src</text>
<text xml:space="preserve" text-anchor="start" x="283" y="-30.5" font-family="Helvetica,sans-Serif" font-size="10.00">/core/dll_entry_point</text>
<text xml:space="preserve" text-anchor="start" x="283" y="-18.5" font-family="Helvetica,sans-Serif" font-size="10.00">/domain_control/setup</text>
<text xml:space="preserve" text-anchor="middle" x="331" y="-6.5" font-family="Helvetica,sans-Serif" font-size="10.00">_core.cpp</text>
</a>
</g>
</g>
<!-- Node1&#45;&gt;Node3 -->
<g id="edge2_Node000001_Node000003" class="edge">
<title>Node1&#45;&gt;Node3</title>
<g id="a_edge2_Node000001_Node000003"><a xlink:title=" ">
<path fill="none" stroke="#63b8ff" d="M375.02,-175.48C382.35,-167.29 388.9,-158.01 393,-148 402.43,-124.97 402.43,-115.03 393,-92 387.48,-78.51 377.51,-66.36 367.17,-56.4"/>
<polygon fill="#63b8ff" stroke="#63b8ff" points="372.66,-172.89 368.22,-182.51 377.69,-177.75 372.66,-172.89"/>
</a>
</g>
</g>
<!-- Node4 -->
<g id="Node000004" class="node">
<title>Node4</title>
<g id="a_Node000004"><a xlink:href="global__hotkey__presenter_8hpp.html" target="_top" xlink:title=" ">
<polygon fill="white" stroke="#666666" points="259.75,-142 116.25,-142 116.25,-98 259.75,-98 259.75,-142"/>
<text xml:space="preserve" text-anchor="start" x="124.25" y="-128.5" font-family="Helvetica,sans-Serif" font-size="10.00">depicture_menu/src</text>
<text xml:space="preserve" text-anchor="start" x="124.25" y="-116.5" font-family="Helvetica,sans-Serif" font-size="10.00">/core/presentation/hotkey</text>
<text xml:space="preserve" text-anchor="middle" x="188" y="-104.5" font-family="Helvetica,sans-Serif" font-size="10.00">/global_hotkey_presenter.hpp</text>
</a>
</g>
</g>
<!-- Node1&#45;&gt;Node4 -->
<g id="edge3_Node000001_Node000004" class="edge">
<title>Node1&#45;&gt;Node4</title>
<g id="a_edge3_Node000001_Node000004"><a xlink:title=" ">
<path fill="none" stroke="#63b8ff" d="M277.73,-177.48C259.04,-165.71 238.56,-152.82 221.89,-142.33"/>
<polygon fill="#63b8ff" stroke="#63b8ff" points="275.71,-180.34 286.04,-182.7 279.44,-174.41 275.71,-180.34"/>
</a>
</g>
</g>
<!-- Node6 -->
<g id="Node000006" class="node">
<title>Node6</title>
<g id="a_Node000006"><a xlink:href="update__trigger__config_8hpp.html" target="_top" xlink:title=" ">
<polygon fill="white" stroke="#666666" points="384.38,-148 277.62,-148 277.62,-92 384.38,-92 384.38,-148"/>
<text xml:space="preserve" text-anchor="start" x="285.62" y="-134.5" font-family="Helvetica,sans-Serif" font-size="10.00">depicture_menu/src</text>
<text xml:space="preserve" text-anchor="start" x="285.62" y="-122.5" font-family="Helvetica,sans-Serif" font-size="10.00">/core/usecase/config</text>
<text xml:space="preserve" text-anchor="start" x="285.62" y="-110.5" font-family="Helvetica,sans-Serif" font-size="10.00">_view/update_trigger</text>
<text xml:space="preserve" text-anchor="middle" x="331" y="-98.5" font-family="Helvetica,sans-Serif" font-size="10.00">_config.hpp</text>
</a>
</g>
</g>
<!-- Node1&#45;&gt;Node6 -->
<g id="edge7_Node000001_Node000006" class="edge">
<title>Node1&#45;&gt;Node6</title>
<g id="a_edge7_Node000001_Node000006"><a xlink:title=" ">
<path fill="none" stroke="#63b8ff" d="M331,-172.09C331,-164.08 331,-155.81 331,-148.32"/>
<polygon fill="#63b8ff" stroke="#63b8ff" points="327.5,-171.99 331,-181.99 334.5,-171.99 327.5,-171.99"/>
</a>
</g>
</g>
<!-- Node7 -->
<g id="Node000007" class="node">
<title>Node7</title>
<g id="a_Node000007"><a xlink:href="deploy__default__setting_8cpp.html" target="_top" xlink:title=" ">
<polygon fill="white" stroke="#666666" points="549.5,-142 440.5,-142 440.5,-98 549.5,-98 549.5,-142"/>
<text xml:space="preserve" text-anchor="start" x="448.5" y="-128.5" font-family="Helvetica,sans-Serif" font-size="10.00">depicture_menu/src</text>
<text xml:space="preserve" text-anchor="start" x="448.5" y="-116.5" font-family="Helvetica,sans-Serif" font-size="10.00">/core/usecase/deploy</text>
<text xml:space="preserve" text-anchor="middle" x="495" y="-104.5" font-family="Helvetica,sans-Serif" font-size="10.00">_default_setting.cpp</text>
</a>
</g>
</g>
<!-- Node1&#45;&gt;Node7 -->
<g id="edge10_Node000001_Node000007" class="edge">
<title>Node1&#45;&gt;Node7</title>
<g id="a_edge10_Node000001_Node000007"><a xlink:title=" ">
<path fill="none" stroke="#63b8ff" d="M391.17,-177.98C412.76,-166.13 436.53,-153.09 455.87,-142.47"/>
<polygon fill="#63b8ff" stroke="#63b8ff" points="389.51,-174.9 382.42,-182.78 392.87,-181.04 389.51,-174.9"/>
</a>
</g>
</g>
<!-- Node4&#45;&gt;Node2 -->
<g id="edge4_Node000004_Node000002" class="edge">
<title>Node4&#45;&gt;Node2</title>
<g id="a_edge4_Node000004_Node000002"><a xlink:title=" ">
<path fill="none" stroke="#63b8ff" d="M190.18,-86.25C190.84,-76.42 191.55,-65.76 192.18,-56.32"/>
<polygon fill="#63b8ff" stroke="#63b8ff" points="186.7,-85.95 189.52,-96.16 193.68,-86.42 186.7,-85.95"/>
</a>
</g>
</g>
<!-- Node4&#45;&gt;Node3 -->
<g id="edge6_Node000004_Node000003" class="edge">
<title>Node4&#45;&gt;Node3</title>
<g id="a_edge6_Node000004_Node000003"><a xlink:title=" ">
<path fill="none" stroke="#63b8ff" d="M231.41,-91.68C249.13,-80.53 269.58,-67.66 287.32,-56.49"/>
<polygon fill="#63b8ff" stroke="#63b8ff" points="229.77,-88.58 223.17,-96.87 233.5,-94.5 229.77,-88.58"/>
</a>
</g>
</g>
<!-- Node5 -->
<g id="Node000005" class="node">
<title>Node5</title>
<g id="a_Node000005"><a xlink:href="initilize__core_8cpp.html" target="_top" xlink:title=" ">
<polygon fill="white" stroke="#666666" points="118,-56 0,-56 0,0 118,0 118,-56"/>
<text xml:space="preserve" text-anchor="start" x="8" y="-42.5" font-family="Helvetica,sans-Serif" font-size="10.00">depicture_menu/src</text>
<text xml:space="preserve" text-anchor="start" x="8" y="-30.5" font-family="Helvetica,sans-Serif" font-size="10.00">/core/dll_entry_point</text>
<text xml:space="preserve" text-anchor="start" x="8" y="-18.5" font-family="Helvetica,sans-Serif" font-size="10.00">/domain_control/initilize</text>
<text xml:space="preserve" text-anchor="middle" x="59" y="-6.5" font-family="Helvetica,sans-Serif" font-size="10.00">_core.cpp</text>
</a>
</g>
</g>
<!-- Node4&#45;&gt;Node5 -->
<g id="edge5_Node000004_Node000005" class="edge">
<title>Node4&#45;&gt;Node5</title>
<g id="a_edge5_Node000004_Node000005"><a xlink:title=" ">
<path fill="none" stroke="#63b8ff" d="M148.35,-91.34C132.4,-80.21 114.06,-67.41 98.16,-56.32"/>
<polygon fill="#63b8ff" stroke="#63b8ff" points="145.98,-93.95 156.19,-96.81 149.99,-88.21 145.98,-93.95"/>
</a>
</g>
</g>
<!-- Node6&#45;&gt;Node2 -->
<g id="edge8_Node000006_Node000002" class="edge">
<title>Node6&#45;&gt;Node2</title>
<g id="a_edge8_Node000006_Node000002"><a xlink:title=" ">
<path fill="none" stroke="#63b8ff" d="M279.77,-85.34C265.2,-75.77 249.51,-65.47 235.59,-56.32"/>
<polygon fill="#63b8ff" stroke="#63b8ff" points="277.61,-88.11 287.89,-90.68 281.45,-82.26 277.61,-88.11"/>
</a>
</g>
</g>
<!-- Node6&#45;&gt;Node3 -->
<g id="edge9_Node000006_Node000003" class="edge">
<title>Node6&#45;&gt;Node3</title>
<g id="a_edge9_Node000006_Node000003"><a xlink:title=" ">
<path fill="none" stroke="#63b8ff" d="M331,-80.09C331,-72.08 331,-63.81 331,-56.32"/>
<polygon fill="#63b8ff" stroke="#63b8ff" points="327.5,-79.99 331,-89.99 334.5,-79.99 327.5,-79.99"/>
</a>
</g>
</g>
</g>
</svg>
