<?xml version="1.0" encoding="UTF-8" standalone="no"?>
<!DOCTYPE svg PUBLIC "-//W3C//DTD SVG 1.1//EN"
 "http://www.w3.org/Graphics/SVG/1.1/DTD/svg11.dtd">
<!-- Generated by graphviz version 14.1.2 (20260124.0452)
 -->
<!-- Title: depicture_menu/src/core/application/gui_dispatch.hpp Pages: 1 -->
<svg width="1628pt" height="236pt"
 viewBox="0.00 0.00 1628.00 236.00" xmlns="http://www.w3.org/2000/svg" xmlns:xlink="http://www.w3.org/1999/xlink">
<g id="graph0" class="graph" transform="scale(1 1) rotate(0) translate(4 232)">
<title>depicture_menu/src/core/application/gui_dispatch.hpp</title>
<!-- Node1 -->
<g id="Node000001" class="node">
<title>Node1</title>
<g id="a_Node000001"><a xlink:title=" ">
<polygon fill="#999999" stroke="#666666" points="945.25,-228 842.25,-228 842.25,-184 945.25,-184 945.25,-228"/>
<text xml:space="preserve" text-anchor="start" x="850.25" y="-214.5" font-family="Helvetica,sans-Serif" font-size="10.00">depicture_menu/src</text>
<text xml:space="preserve" text-anchor="start" x="850.25" y="-202.5" font-family="Helvetica,sans-Serif" font-size="10.00">/core/application/gui</text>
<text xml:space="preserve" text-anchor="middle" x="893.75" y="-190.5" font-family="Helvetica,sans-Serif" font-size="10.00">_dispatch.hpp</text>
</a>
</g>
</g>
<!-- Node2 -->
<g id="Node000002" class="node">
<title>Node2</title>
<g id="a_Node000002"><a xlink:href="set__dispatch__handle_8cpp.html" target="_top" xlink:title=" ">
<polygon fill="white" stroke="#666666" points="143.5,-148 0,-148 0,-92 143.5,-92 143.5,-148"/>
<text xml:space="preserve" text-anchor="start" x="8" y="-134.5" font-family="Helvetica,sans-Serif" font-size="10.00">depicture_menu/src</text>
<text xml:space="preserve" text-anchor="start" x="8" y="-122.5" font-family="Helvetica,sans-Serif" font-size="10.00">/core/dll_entry_point</text>
<text xml:space="preserve" text-anchor="start" x="8" y="-110.5" font-family="Helvetica,sans-Serif" font-size="10.00">/domain_control/set_dispatch</text>
<text xml:space="preserve" text-anchor="middle" x="71.75" y="-98.5" font-family="Helvetica,sans-Serif" font-size="10.00">_handle.cpp</text>
</a>
</g>
</g>
<!-- Node1&#45;&gt;Node2 -->
<g id="edge1_Node000001_Node000002" class="edge">
<title>Node1&#45;&gt;Node2</title>
<g id="a_edge1_Node000001_Node000002"><a xlink:title=" ">
<path fill="none" stroke="#63b8ff" d="M830.77,-205.32C702.06,-204.85 400.13,-197.96 152.75,-148 149.84,-147.41 146.9,-146.75 143.94,-146.04"/>
<polygon fill="#63b8ff" stroke="#63b8ff" points="830.43,-208.82 840.43,-205.34 830.44,-201.82 830.43,-208.82"/>
</a>
</g>
</g>
<!-- Node3 -->
<g id="Node000003" class="node">
<title>Node3</title>
<g id="a_Node000003"><a xlink:href="config__view__presenter_8cpp.html" target="_top" xlink:title=" ">
<polygon fill="white" stroke="#666666" points="290,-148 161.5,-148 161.5,-92 290,-92 290,-148"/>
<text xml:space="preserve" text-anchor="start" x="169.5" y="-134.5" font-family="Helvetica,sans-Serif" font-size="10.00">depicture_menu/src</text>
<text xml:space="preserve" text-anchor="start" x="169.5" y="-122.5" font-family="Helvetica,sans-Serif" font-size="10.00">/core/presentation/change</text>
<text xml:space="preserve" text-anchor="start" x="169.5" y="-110.5" font-family="Helvetica,sans-Serif" font-size="10.00">_view_model/config_view</text>
<text xml:space="preserve" text-anchor="middle" x="225.75" y="-98.5" font-family="Helvetica,sans-Serif" font-size="10.00">_presenter.cpp</text>
</a>
</g>
</g>
<!-- Node1&#45;&gt;Node3 -->
<g id="edge2_Node000001_Node000003" class="edge">
<title>Node1&#45;&gt;Node3</title>
<g id="a_edge2_Node000001_Node000003"><a xlink:title=" ">
<path fill="none" stroke="#63b8ff" d="M830.62,-204.29C721.03,-201.87 489.07,-191.54 298.75,-148 295.98,-147.37 293.18,-146.66 290.36,-145.89"/>
<polygon fill="#63b8ff" stroke="#63b8ff" points="830.52,-207.78 840.59,-204.49 830.66,-200.79 830.52,-207.78"/>
</a>
</g>
</g>
<!-- Node4 -->
<g id="Node000004" class="node">
<title>Node4</title>
<g id="a_Node000004"><a xlink:href="menu__view__presenter_8cpp.html" target="_top" xlink:title="メニュープレゼンター">
<polygon fill="white" stroke="#666666" points="497.75,-142 307.75,-142 307.75,-98 497.75,-98 497.75,-142"/>
<text xml:space="preserve" text-anchor="start" x="315.75" y="-128.5" font-family="Helvetica,sans-Serif" font-size="10.00">depicture_menu/src</text>
<text xml:space="preserve" text-anchor="start" x="315.75" y="-116.5" font-family="Helvetica,sans-Serif" font-size="10.00">/core/presentation/change</text>
<text xml:space="preserve" text-anchor="middle" x="402.75" y="-104.5" font-family="Helvetica,sans-Serif" font-size="10.00">_view_model/menu_view_presenter.cpp</text>
</a>
</g>
</g>
<!-- Node1&#45;&gt;Node4 -->
<g id="edge3_Node000001_Node000004" class="edge">
<title>Node1&#45;&gt;Node4</title>
<g id="a_edge3_Node000001_Node000004"><a xlink:title=" ">
<path fill="none" stroke="#63b8ff" d="M830.41,-197.8C753.46,-188.56 619.91,-170.95 506.75,-148 498.61,-146.35 490.17,-144.46 481.76,-142.46"/>
<polygon fill="#63b8ff" stroke="#63b8ff" points="829.95,-201.27 840.3,-198.97 830.78,-194.32 829.95,-201.27"/>
</a>
</g>
</g>
<!-- Node5 -->
<g id="Node000005" class="node">
<title>Node5</title>
<g id="a_Node000005"><a xlink:href="command__invoker_8hpp.html" target="_top" xlink:title=" ">
<polygon fill="white" stroke="#666666" points="644,-142 515.5,-142 515.5,-98 644,-98 644,-142"/>
<text xml:space="preserve" text-anchor="start" x="523.5" y="-128.5" font-family="Helvetica,sans-Serif" font-size="10.00">depicture_menu/src</text>
<text xml:space="preserve" text-anchor="start" x="523.5" y="-116.5" font-family="Helvetica,sans-Serif" font-size="10.00">/core/presentation/invoker</text>
<text xml:space="preserve" text-anchor="middle" x="579.75" y="-104.5" font-family="Helvetica,sans-Serif" font-size="10.00">/command_invoker.hpp</text>
</a>
</g>
</g>
<!-- Node1&#45;&gt;Node5 -->
<g id="edge4_Node000001_Node000005" class="edge">
<title>Node1&#45;&gt;Node5</title>
<g id="a_edge4_Node000001_Node000005"><a xlink:title=" ">
<path fill="none" stroke="#63b8ff" d="M830.97,-192.35C782,-181.96 712.51,-166.04 652.75,-148 647.19,-146.32 641.43,-144.44 635.71,-142.48"/>
<polygon fill="#63b8ff" stroke="#63b8ff" points="830.03,-195.73 840.54,-194.36 831.48,-188.88 830.03,-195.73"/>
</a>
</g>
</g>
<!-- Node10 -->
<g id="Node000010" class="node">
<title>Node10</title>
<g id="a_Node000010"><a xlink:href="change__action__config_8cpp.html" target="_top" xlink:title=" ">
<polygon fill="white" stroke="#666666" points="819.62,-142 661.88,-142 661.88,-98 819.62,-98 819.62,-142"/>
<text xml:space="preserve" text-anchor="start" x="669.88" y="-128.5" font-family="Helvetica,sans-Serif" font-size="10.00">depicture_menu/src</text>
<text xml:space="preserve" text-anchor="start" x="669.88" y="-116.5" font-family="Helvetica,sans-Serif" font-size="10.00">/core/usecase/config</text>
<text xml:space="preserve" text-anchor="middle" x="740.75" y="-104.5" font-family="Helvetica,sans-Serif" font-size="10.00">_view/change_action_config.cpp</text>
</a>
</g>
</g>
<!-- Node1&#45;&gt;Node10 -->
<g id="edge9_Node000001_Node000010" class="edge">
<title>Node1&#45;&gt;Node10</title>
<g id="a_edge9_Node000001_Node000010"><a xlink:title=" ">
<path fill="none" stroke="#63b8ff" d="M844.71,-178.08C823.68,-166.53 799.45,-153.23 779.68,-142.37"/>
<polygon fill="#63b8ff" stroke="#63b8ff" points="842.97,-181.11 853.42,-182.86 846.34,-174.98 842.97,-181.11"/>
</a>
</g>
</g>
<!-- Node11 -->
<g id="Node000011" class="node">
<title>Node11</title>
<g id="a_Node000011"><a xlink:href="duplicate__menu__item_8cpp.html" target="_top" xlink:title=" ">
<polygon fill="white" stroke="#666666" points="1034.12,-56 921.38,-56 921.38,0 1034.12,0 1034.12,-56"/>
<text xml:space="preserve" text-anchor="start" x="929.38" y="-42.5" font-family="Helvetica,sans-Serif" font-size="10.00">depicture_menu/src</text>
<text xml:space="preserve" text-anchor="start" x="929.38" y="-30.5" font-family="Helvetica,sans-Serif" font-size="10.00">/core/usecase/config</text>
<text xml:space="preserve" text-anchor="start" x="929.38" y="-18.5" font-family="Helvetica,sans-Serif" font-size="10.00">_view/duplicate_menu</text>
<text xml:space="preserve" text-anchor="middle" x="977.75" y="-6.5" font-family="Helvetica,sans-Serif" font-size="10.00">_item.cpp</text>
</a>
</g>
</g>
<!-- Node1&#45;&gt;Node11 -->
<g id="edge10_Node000001_Node000011" class="edge">
<title>Node1&#45;&gt;Node11</title>
<g id="a_edge10_Node000001_Node000011"><a xlink:title=" ">
<path fill="none" stroke="#63b8ff" d="M935.33,-176.22C944.35,-168.1 952.92,-158.55 958.75,-148 974.53,-119.43 978.13,-81.49 978.54,-56.21"/>
<polygon fill="#63b8ff" stroke="#63b8ff" points="933.17,-173.47 927.78,-182.59 937.68,-178.82 933.17,-173.47"/>
</a>
</g>
</g>
<!-- Node12 -->
<g id="Node000012" class="node">
<title>Node12</title>
<g id="a_Node000012"><a xlink:href="duplicate__menu__item_8hpp.html" target="_top" xlink:title=" ">
<polygon fill="white" stroke="#666666" points="950.12,-148 837.38,-148 837.38,-92 950.12,-92 950.12,-148"/>
<text xml:space="preserve" text-anchor="start" x="845.38" y="-134.5" font-family="Helvetica,sans-Serif" font-size="10.00">depicture_menu/src</text>
<text xml:space="preserve" text-anchor="start" x="845.38" y="-122.5" font-family="Helvetica,sans-Serif" font-size="10.00">/core/usecase/config</text>
<text xml:space="preserve" text-anchor="start" x="845.38" y="-110.5" font-family="Helvetica,sans-Serif" font-size="10.00">_view/duplicate_menu</text>
<text xml:space="preserve" text-anchor="middle" x="893.75" y="-98.5" font-family="Helvetica,sans-Serif" font-size="10.00">_item.hpp</text>
</a>
</g>
</g>
<!-- Node1&#45;&gt;Node12 -->
<g id="edge11_Node000001_Node000012" class="edge">
<title>Node1&#45;&gt;Node12</title>
<g id="a_edge11_Node000001_Node000012"><a xlink:title=" ">
<path fill="none" stroke="#63b8ff" d="M893.75,-172.54C893.75,-164.51 893.75,-155.99 893.75,-148.24"/>
<polygon fill="#63b8ff" stroke="#63b8ff" points="890.25,-172.29 893.75,-182.29 897.25,-172.29 890.25,-172.29"/>
</a>
</g>
</g>
<!-- Node13 -->
<g id="Node000013" class="node">
<title>Node13</title>
<g id="a_Node000013"><a xlink:href="show__config__view_8cpp.html" target="_top" xlink:title=" ">
<polygon fill="white" stroke="#666666" points="1148.12,-142 1005.38,-142 1005.38,-98 1148.12,-98 1148.12,-142"/>
<text xml:space="preserve" text-anchor="start" x="1013.38" y="-128.5" font-family="Helvetica,sans-Serif" font-size="10.00">depicture_menu/src</text>
<text xml:space="preserve" text-anchor="start" x="1013.38" y="-116.5" font-family="Helvetica,sans-Serif" font-size="10.00">/core/usecase/config</text>
<text xml:space="preserve" text-anchor="middle" x="1076.75" y="-104.5" font-family="Helvetica,sans-Serif" font-size="10.00">_view/show_config_view.cpp</text>
</a>
</g>
</g>
<!-- Node1&#45;&gt;Node13 -->
<g id="edge14_Node000001_Node000013" class="edge">
<title>Node1&#45;&gt;Node13</title>
<g id="a_edge14_Node000001_Node000013"><a xlink:title=" ">
<path fill="none" stroke="#63b8ff" d="M950.7,-178.86C976.24,-167.14 1006,-153.48 1030.18,-142.37"/>
<polygon fill="#63b8ff" stroke="#63b8ff" points="949.41,-175.6 941.78,-182.95 952.33,-181.96 949.41,-175.6"/>
</a>
</g>
</g>
<!-- Node14 -->
<g id="Node000014" class="node">
<title>Node14</title>
<g id="a_Node000014"><a xlink:href="update__menu__config_8cpp.html" target="_top" xlink:title=" ">
<polygon fill="white" stroke="#666666" points="1319.38,-142 1166.12,-142 1166.12,-98 1319.38,-98 1319.38,-142"/>
<text xml:space="preserve" text-anchor="start" x="1174.12" y="-128.5" font-family="Helvetica,sans-Serif" font-size="10.00">depicture_menu/src</text>
<text xml:space="preserve" text-anchor="start" x="1174.12" y="-116.5" font-family="Helvetica,sans-Serif" font-size="10.00">/core/usecase/config</text>
<text xml:space="preserve" text-anchor="middle" x="1242.75" y="-104.5" font-family="Helvetica,sans-Serif" font-size="10.00">_view/update_menu_config.cpp</text>
</a>
</g>
</g>
<!-- Node1&#45;&gt;Node14 -->
<g id="edge15_Node000001_Node000014" class="edge">
<title>Node1&#45;&gt;Node14</title>
<g id="a_edge15_Node000001_Node000014"><a xlink:title=" ">
<path fill="none" stroke="#63b8ff" d="M956.51,-193.07C1010.03,-182.49 1088.87,-165.97 1156.75,-148 1163.25,-146.28 1170,-144.37 1176.72,-142.39"/>
<polygon fill="#63b8ff" stroke="#63b8ff" points="956.11,-189.58 946.97,-194.94 957.46,-196.45 956.11,-189.58"/>
</a>
</g>
</g>
<!-- Node15 -->
<g id="Node000015" class="node">
<title>Node15</title>
<g id="a_Node000015"><a xlink:href="hidden__menu__view_8hpp.html" target="_top" xlink:title=" ">
<polygon fill="white" stroke="#666666" points="1467.75,-142 1337.75,-142 1337.75,-98 1467.75,-98 1467.75,-142"/>
<text xml:space="preserve" text-anchor="start" x="1345.75" y="-128.5" font-family="Helvetica,sans-Serif" font-size="10.00">depicture_menu/src</text>
<text xml:space="preserve" text-anchor="start" x="1345.75" y="-116.5" font-family="Helvetica,sans-Serif" font-size="10.00">/core/usecase/menu_view</text>
<text xml:space="preserve" text-anchor="middle" x="1402.75" y="-104.5" font-family="Helvetica,sans-Serif" font-size="10.00">/hidden_menu_view.hpp</text>
</a>
</g>
</g>
<!-- Node1&#45;&gt;Node15 -->
<g id="edge16_Node000001_Node000015" class="edge">
<title>Node1&#45;&gt;Node15</title>
<g id="a_edge16_Node000001_Node000015"><a xlink:title=" ">
<path fill="none" stroke="#63b8ff" d="M956.97,-201.08C1042.34,-194.81 1198.78,-179.82 1328.75,-148 1335.13,-146.44 1341.71,-144.51 1348.21,-142.42"/>
<polygon fill="#63b8ff" stroke="#63b8ff" points="956.89,-197.58 947.16,-201.79 957.39,-204.56 956.89,-197.58"/>
</a>
</g>
</g>
<!-- Node17 -->
<g id="Node000017" class="node">
<title>Node17</title>
<g id="a_Node000017"><a xlink:href="test-config__view_8cpp.html" target="_top" xlink:title=" ">
<polygon fill="white" stroke="#666666" points="1619.62,-142 1485.88,-142 1485.88,-98 1619.62,-98 1619.62,-142"/>
<text xml:space="preserve" text-anchor="start" x="1493.88" y="-128.5" font-family="Helvetica,sans-Serif" font-size="10.00">depicture_menu/test</text>
<text xml:space="preserve" text-anchor="start" x="1493.88" y="-116.5" font-family="Helvetica,sans-Serif" font-size="10.00">/core/usecase/config</text>
<text xml:space="preserve" text-anchor="middle" x="1552.75" y="-104.5" font-family="Helvetica,sans-Serif" font-size="10.00">_view/test&#45;config_view.cpp</text>
</a>
</g>
</g>
<!-- Node1&#45;&gt;Node17 -->
<g id="edge18_Node000001_Node000017" class="edge">
<title>Node1&#45;&gt;Node17</title>
<g id="a_edge18_Node000001_Node000017"><a xlink:title=" ">
<path fill="none" stroke="#63b8ff" d="M956.8,-203.85C1064.6,-200.78 1290.72,-189.49 1476.75,-148 1483.45,-146.51 1490.36,-144.6 1497.17,-142.48"/>
<polygon fill="#63b8ff" stroke="#63b8ff" points="956.91,-200.35 947.01,-204.11 957.1,-207.34 956.91,-200.35"/>
</a>
</g>
</g>
<!-- Node6 -->
<g id="Node000006" class="node">
<title>Node6</title>
<g id="a_Node000006"><a xlink:href="config__view__arg__builder_8cpp.html" target="_top" xlink:title="ConfigArg ファクトリー">
<polygon fill="white" stroke="#666666" points="903,-56 786.5,-56 786.5,0 903,0 903,-56"/>
<text xml:space="preserve" text-anchor="start" x="794.5" y="-42.5" font-family="Helvetica,sans-Serif" font-size="10.00">depicture_menu/src</text>
<text xml:space="preserve" text-anchor="start" x="794.5" y="-30.5" font-family="Helvetica,sans-Serif" font-size="10.00">/core/application/cs</text>
<text xml:space="preserve" text-anchor="start" x="794.5" y="-18.5" font-family="Helvetica,sans-Serif" font-size="10.00">_binding_factory/config</text>
<text xml:space="preserve" text-anchor="middle" x="844.75" y="-6.5" font-family="Helvetica,sans-Serif" font-size="10.00">_view_arg_builder.cpp</text>
</a>
</g>
</g>
<!-- Node5&#45;&gt;Node6 -->
<g id="edge5_Node000005_Node000006" class="edge">
<title>Node5&#45;&gt;Node6</title>
<g id="a_edge5_Node000005_Node000006"><a xlink:title=" ">
<path fill="none" stroke="#63b8ff" d="M647.27,-93.83C649.11,-93.21 650.94,-92.6 652.75,-92 707.25,-74.03 722.46,-74.61 776.75,-56 779.87,-54.93 783.06,-53.8 786.28,-52.63"/>
<polygon fill="#63b8ff" stroke="#63b8ff" points="646.33,-90.45 638.03,-97.03 648.62,-97.07 646.33,-90.45"/>
</a>
</g>
</g>
<!-- Node7 -->
<g id="Node000007" class="node">
<title>Node7</title>
<g id="a_Node000007"><a xlink:href="menu__view__arg__builder_8cpp.html" target="_top" xlink:title=" ">
<polygon fill="white" stroke="#666666" points="429.88,-56 315.62,-56 315.62,0 429.88,0 429.88,-56"/>
<text xml:space="preserve" text-anchor="start" x="323.62" y="-42.5" font-family="Helvetica,sans-Serif" font-size="10.00">depicture_menu/src</text>
<text xml:space="preserve" text-anchor="start" x="323.62" y="-30.5" font-family="Helvetica,sans-Serif" font-size="10.00">/core/application/cs</text>
<text xml:space="preserve" text-anchor="start" x="323.62" y="-18.5" font-family="Helvetica,sans-Serif" font-size="10.00">_binding_factory/menu</text>
<text xml:space="preserve" text-anchor="middle" x="372.75" y="-6.5" font-family="Helvetica,sans-Serif" font-size="10.00">_view_arg_builder.cpp</text>
</a>
</g>
</g>
<!-- Node5&#45;&gt;Node7 -->
<g id="edge6_Node000005_Node000007" class="edge">
<title>Node5&#45;&gt;Node7</title>
<g id="a_edge6_Node000005_Node000007"><a xlink:title=" ">
<path fill="none" stroke="#63b8ff" d="M519.88,-92.97C491.63,-80.69 458.06,-66.09 430.13,-53.95"/>
<polygon fill="#63b8ff" stroke="#63b8ff" points="518.48,-96.18 529.04,-96.95 521.27,-89.76 518.48,-96.18"/>
</a>
</g>
</g>
<!-- Node8 -->
<g id="Node000008" class="node">
<title>Node8</title>
<g id="a_Node000008"><a xlink:href="config__view__dispatch_8cpp.html" target="_top" xlink:title=" ">
<polygon fill="white" stroke="#666666" points="621.5,-50 448,-50 448,-6 621.5,-6 621.5,-50"/>
<text xml:space="preserve" text-anchor="start" x="456" y="-36.5" font-family="Helvetica,sans-Serif" font-size="10.00">depicture_menu/src</text>
<text xml:space="preserve" text-anchor="start" x="456" y="-24.5" font-family="Helvetica,sans-Serif" font-size="10.00">/core/application/usecase</text>
<text xml:space="preserve" text-anchor="middle" x="534.75" y="-12.5" font-family="Helvetica,sans-Serif" font-size="10.00">_dispatch/config_view_dispatch.cpp</text>
</a>
</g>
</g>
<!-- Node5&#45;&gt;Node8 -->
<g id="edge7_Node000005_Node000008" class="edge">
<title>Node5&#45;&gt;Node8</title>
<g id="a_edge7_Node000005_Node000008"><a xlink:title=" ">
<path fill="none" stroke="#63b8ff" d="M563.96,-87.41C557.85,-75.2 551.01,-61.53 545.49,-50.49"/>
<polygon fill="#63b8ff" stroke="#63b8ff" points="560.81,-88.94 568.41,-96.32 567.07,-85.81 560.81,-88.94"/>
</a>
</g>
</g>
<!-- Node9 -->
<g id="Node000009" class="node">
<title>Node9</title>
<g id="a_Node000009"><a xlink:href="command__invoker_8cpp.html" target="_top" xlink:title=" ">
<polygon fill="white" stroke="#666666" points="768,-50 639.5,-50 639.5,-6 768,-6 768,-50"/>
<text xml:space="preserve" text-anchor="start" x="647.5" y="-36.5" font-family="Helvetica,sans-Serif" font-size="10.00">depicture_menu/src</text>
<text xml:space="preserve" text-anchor="start" x="647.5" y="-24.5" font-family="Helvetica,sans-Serif" font-size="10.00">/core/presentation/invoker</text>
<text xml:space="preserve" text-anchor="middle" x="703.75" y="-12.5" font-family="Helvetica,sans-Serif" font-size="10.00">/command_invoker.cpp</text>
</a>
</g>
</g>
<!-- Node5&#45;&gt;Node9 -->
<g id="edge8_Node000005_Node000009" class="edge">
<title>Node5&#45;&gt;Node9</title>
<g id="a_edge8_Node000005_Node000009"><a xlink:title=" ">
<path fill="none" stroke="#63b8ff" d="M618.24,-91.07C636.26,-77.98 657.4,-62.64 674.14,-50.49"/>
<polygon fill="#63b8ff" stroke="#63b8ff" points="616.4,-88.08 610.36,-96.78 620.51,-93.74 616.4,-88.08"/>
</a>
</g>
</g>
<!-- Node12&#45;&gt;Node6 -->
<g id="edge12_Node000012_Node000006" class="edge">
<title>Node12&#45;&gt;Node6</title>
<g id="a_edge12_Node000012_Node000006"><a xlink:title=" ">
<path fill="none" stroke="#63b8ff" d="M873.32,-81.48C868.73,-73.05 863.94,-64.25 859.63,-56.32"/>
<polygon fill="#63b8ff" stroke="#63b8ff" points="870.2,-83.07 878.06,-90.18 876.35,-79.72 870.2,-83.07"/>
</a>
</g>
</g>
<!-- Node12&#45;&gt;Node11 -->
<g id="edge13_Node000012_Node000011" class="edge">
<title>Node12&#45;&gt;Node11</title>
<g id="a_edge13_Node000012_Node000011"><a xlink:title=" ">
<path fill="none" stroke="#63b8ff" d="M927.22,-83.14C935.55,-74.21 944.36,-64.77 952.25,-56.32"/>
<polygon fill="#63b8ff" stroke="#63b8ff" points="924.71,-80.7 920.44,-90.4 929.82,-85.48 924.71,-80.7"/>
</a>
</g>
</g>
<!-- Node16 -->
<g id="Node000016" class="node">
<title>Node16</title>
<g id="a_Node000016"><a xlink:href="setup__core_8cpp.html" target="_top" xlink:title=" ">
<polygon fill="white" stroke="#666666" points="1458.75,-56 1346.75,-56 1346.75,0 1458.75,0 1458.75,-56"/>
<text xml:space="preserve" text-anchor="start" x="1354.75" y="-42.5" font-family="Helvetica,sans-Serif" font-size="10.00">depicture_menu/src</text>
<text xml:space="preserve" text-anchor="start" x="1354.75" y="-30.5" font-family="Helvetica,sans-Serif" font-size="10.00">/core/dll_entry_point</text>
<text xml:space="preserve" text-anchor="start" x="1354.75" y="-18.5" font-family="Helvetica,sans-Serif" font-size="10.00">/domain_control/setup</text>
<text xml:space="preserve" text-anchor="middle" x="1402.75" y="-6.5" font-family="Helvetica,sans-Serif" font-size="10.00">_core.cpp</text>
</a>
</g>
</g>
<!-- Node15&#45;&gt;Node16 -->
<g id="edge17_Node000015_Node000016" class="edge">
<title>Node15&#45;&gt;Node16</title>
<g id="a_edge17_Node000015_Node000016"><a xlink:title=" ">
<path fill="none" stroke="#63b8ff" d="M1402.75,-86.25C1402.75,-76.42 1402.75,-65.76 1402.75,-56.32"/>
<polygon fill="#63b8ff" stroke="#63b8ff" points="1399.25,-86.16 1402.75,-96.16 1406.25,-86.16 1399.25,-86.16"/>
</a>
</g>
</g>
</g>
</svg>
