<?xml version="1.0" encoding="UTF-8" standalone="no"?>
<!DOCTYPE svg PUBLIC "-//W3C//DTD SVG 1.1//EN"
 "http://www.w3.org/Graphics/SVG/1.1/DTD/svg11.dtd">
<!-- Generated by graphviz version 14.1.2 (20260124.0452)
 -->
<!-- Title: depicture_menu/src/core/application/gui_dispatch.hpp Pages: 1 -->
<!--zoomable 236 -->

<svg id="main" version="1.1" xmlns="http://www.w3.org/2000/svg" xmlns:xlink="http://www.w3.org/1999/xlink" xml:space="preserve" onload="init(evt)">

<style type="text/css"><![CDATA[
.node, .edge {opacity: 0.7;}
.node.selected, .edge.selected {opacity: 1;}
.edge:hover path { stroke: red; }
.edge:hover polygon { stroke: red; fill: red; }
]]></style>

<defs>
  <circle id="rim" cx="0" cy="0" r="7"/>
  <circle id="rim2" cx="0" cy="0" r="3.5"/>
  <g id="zoomPlus">
    <use xlink:href="#rim" fill="#404040"><set attributeName="fill" to="#808080" begin="zoomplus.mouseover" end="zoomplus.mouseout"/></use>
    <path d="M-4,0h8M0,-4v8" fill="none" stroke="white" stroke-width="1.5" pointer-events="none"/>
  </g>
  <g id="zoomMin">
    <use xlink:href="#rim" fill="#404040"><set attributeName="fill" to="#808080" begin="zoomminus.mouseover" end="zoomminus.mouseout"/></use>
    <path d="M-4,0h8" fill="none" stroke="white" stroke-width="1.5" pointer-events="none"/>
  </g>
  <g id="arrowUp" transform="translate(30 24)">
    <use xlink:href="#rim"/>
    <path pointer-events="none" fill="none" stroke="white" stroke-width="1.5" d="M0,-3.0v7 M-2.5,-0.5L0,-3.0L2.5,-0.5"/>
  </g>
  <g id="arrowRight" transform="rotate(90) translate(36 -43)">
    <use xlink:href="#rim"/>
    <path pointer-events="none" fill="none" stroke="white" stroke-width="1.5" d="M0,-3.0v7 M-2.5,-0.5L0,-3.0L2.5,-0.5"/>
  </g>
  <g id="arrowDown" transform="rotate(180) translate(-30 -48)">
    <use xlink:href="#rim"/>
    <path pointer-events="none" fill="none" stroke="white" stroke-width="1.5" d="M0,-3.0v7 M-2.5,-0.5L0,-3.0L2.5,-0.5"/>
  </g>
  <g id="arrowLeft" transform="rotate(270) translate(-36 17)">
    <use xlink:href="#rim"/>
    <path pointer-events="none" fill="none" stroke="white" stroke-width="1.5" d="M0,-3.0v7 M-2.5,-0.5L0,-3.0L2.5,-0.5"/>
  </g>
  <g id="resetDef">
    <use xlink:href="#rim2" fill="#404040"><set attributeName="fill" to="#808080" begin="reset.mouseover" end="reset.mouseout"/></use>
  </g>
</defs>
<script type="application/ecmascript">
var viewWidth = 1569;
var viewHeight = 236;
var sectionId = 'dynsection-1';
</script>
<script type="application/ecmascript" xlink:href="svg.min.js"/>
<svg id="graph" class="graph">
<g id="viewport">
<title>depicture_menu/src/core/application/gui_dispatch.hpp</title>
<!-- Node1 -->
<g id="Node000001" class="node">
<title>Node1</title>
<g id="a_Node000001"><a xlink:title=" ">
<polygon fill="#999999" stroke="#666666" points="849.25,-228 746.25,-228 746.25,-184 849.25,-184 849.25,-228"/>
<text xml:space="preserve" text-anchor="start" x="754.25" y="-214.5" font-family="Helvetica,sans-Serif" font-size="10.00">depicture_menu/src</text>
<text xml:space="preserve" text-anchor="start" x="754.25" y="-202.5" font-family="Helvetica,sans-Serif" font-size="10.00">/core/application/gui</text>
<text xml:space="preserve" text-anchor="middle" x="797.75" y="-190.5" font-family="Helvetica,sans-Serif" font-size="10.00">_dispatch.hpp</text>
</a>
</g>
</g>
<!-- Node2 -->
<g id="Node000002" class="node">
<title>Node2</title>
<g id="a_Node000002"><a xlink:href="set__dispatch__handle_8cpp.html" target="_top" xlink:title=" ">
<polygon fill="white" stroke="#666666" points="143.5,-148 0,-148 0,-92 143.5,-92 143.5,-148"/>
<text xml:space="preserve" text-anchor="start" x="8" y="-134.5" font-family="Helvetica,sans-Serif" font-size="10.00">depicture_menu/src</text>
<text xml:space="preserve" text-anchor="start" x="8" y="-122.5" font-family="Helvetica,sans-Serif" font-size="10.00">/core/dll_entry_point</text>
<text xml:space="preserve" text-anchor="start" x="8" y="-110.5" font-family="Helvetica,sans-Serif" font-size="10.00">/domain_control/set_dispatch</text>
<text xml:space="preserve" text-anchor="middle" x="71.75" y="-98.5" font-family="Helvetica,sans-Serif" font-size="10.00">_handle.cpp</text>
</a>
</g>
</g>
<!-- Node1&#45;&gt;Node2 -->
<g id="edge1_Node000001_Node000002" class="edge">
<title>Node1&#45;&gt;Node2</title>
<g id="a_edge1_Node000001_Node000002"><a xlink:title=" ">
<path fill="none" stroke="#63b8ff" d="M734.67,-204.29C618.39,-201.91 362.91,-191.68 152.75,-148 149.85,-147.4 146.9,-146.72 143.94,-145.99"/>
<polygon fill="#63b8ff" stroke="#63b8ff" points="734.57,-207.79 744.64,-204.48 734.71,-200.79 734.57,-207.79"/>
</a>
</g>
</g>
<!-- Node3 -->
<g id="Node000003" class="node">
<title>Node3</title>
<g id="a_Node000003"><a xlink:href="config__view__presenter_8cpp.html" target="_top" xlink:title=" ">
<polygon fill="white" stroke="#666666" points="290,-148 161.5,-148 161.5,-92 290,-92 290,-148"/>
<text xml:space="preserve" text-anchor="start" x="169.5" y="-134.5" font-family="Helvetica,sans-Serif" font-size="10.00">depicture_menu/src</text>
<text xml:space="preserve" text-anchor="start" x="169.5" y="-122.5" font-family="Helvetica,sans-Serif" font-size="10.00">/core/presentation/change</text>
<text xml:space="preserve" text-anchor="start" x="169.5" y="-110.5" font-family="Helvetica,sans-Serif" font-size="10.00">_view_model/config_view</text>
<text xml:space="preserve" text-anchor="middle" x="225.75" y="-98.5" font-family="Helvetica,sans-Serif" font-size="10.00">_presenter.cpp</text>
</a>
</g>
</g>
<!-- Node1&#45;&gt;Node3 -->
<g id="edge2_Node000001_Node000003" class="edge">
<title>Node1&#45;&gt;Node3</title>
<g id="a_edge2_Node000001_Node000003"><a xlink:title=" ">
<path fill="none" stroke="#63b8ff" d="M734.34,-202.53C638.91,-197.73 453.21,-184.24 299.75,-148 296.69,-147.28 293.58,-146.47 290.46,-145.59"/>
<polygon fill="#63b8ff" stroke="#63b8ff" points="734.13,-206.02 744.29,-203.01 734.47,-199.03 734.13,-206.02"/>
</a>
</g>
</g>
<!-- Node4 -->
<g id="Node000004" class="node">
<title>Node4</title>
<g id="a_Node000004"><a xlink:href="command__invoker_8hpp.html" target="_top" xlink:title=" ">
<polygon fill="white" stroke="#666666" points="437,-142 308.5,-142 308.5,-98 437,-98 437,-142"/>
<text xml:space="preserve" text-anchor="start" x="316.5" y="-128.5" font-family="Helvetica,sans-Serif" font-size="10.00">depicture_menu/src</text>
<text xml:space="preserve" text-anchor="start" x="316.5" y="-116.5" font-family="Helvetica,sans-Serif" font-size="10.00">/core/presentation/invoker</text>
<text xml:space="preserve" text-anchor="middle" x="372.75" y="-104.5" font-family="Helvetica,sans-Serif" font-size="10.00">/command_invoker.hpp</text>
</a>
</g>
</g>
<!-- Node1&#45;&gt;Node4 -->
<g id="edge3_Node000001_Node000004" class="edge">
<title>Node1&#45;&gt;Node4</title>
<g id="a_edge3_Node000001_Node000004"><a xlink:title=" ">
<path fill="none" stroke="#63b8ff" d="M734.38,-198.48C663.31,-190.32 544.99,-174.12 445.75,-148 439.61,-146.38 433.26,-144.45 426.99,-142.37"/>
<polygon fill="#63b8ff" stroke="#63b8ff" points="733.96,-201.96 744.29,-199.6 734.75,-195 733.96,-201.96"/>
</a>
</g>
</g>
<!-- Node9 -->
<g id="Node000009" class="node">
<title>Node9</title>
<g id="a_Node000009"><a xlink:href="change__action__config_8cpp.html" target="_top" xlink:title=" ">
<polygon fill="white" stroke="#666666" points="1076.62,-142 918.88,-142 918.88,-98 1076.62,-98 1076.62,-142"/>
<text xml:space="preserve" text-anchor="start" x="926.88" y="-128.5" font-family="Helvetica,sans-Serif" font-size="10.00">depicture_menu/src</text>
<text xml:space="preserve" text-anchor="start" x="926.88" y="-116.5" font-family="Helvetica,sans-Serif" font-size="10.00">/core/usecase/config</text>
<text xml:space="preserve" text-anchor="middle" x="997.75" y="-104.5" font-family="Helvetica,sans-Serif" font-size="10.00">_view/change_action_config.cpp</text>
</a>
</g>
</g>
<!-- Node1&#45;&gt;Node9 -->
<g id="edge8_Node000001_Node000009" class="edge">
<title>Node1&#45;&gt;Node9</title>
<g id="a_edge8_Node000001_Node000009"><a xlink:title=" ">
<path fill="none" stroke="#63b8ff" d="M859.24,-179.17C887.32,-167.38 920.19,-153.58 946.86,-142.37"/>
<polygon fill="#63b8ff" stroke="#63b8ff" points="858,-175.9 850.13,-183 860.71,-182.35 858,-175.9"/>
</a>
</g>
</g>
<!-- Node10 -->
<g id="Node000010" class="node">
<title>Node10</title>
<g id="a_Node000010"><a xlink:href="duplicate__menu__item_8cpp.html" target="_top" xlink:title=" ">
<polygon fill="white" stroke="#666666" points="995.12,-56 882.38,-56 882.38,0 995.12,0 995.12,-56"/>
<text xml:space="preserve" text-anchor="start" x="890.38" y="-42.5" font-family="Helvetica,sans-Serif" font-size="10.00">depicture_menu/src</text>
<text xml:space="preserve" text-anchor="start" x="890.38" y="-30.5" font-family="Helvetica,sans-Serif" font-size="10.00">/core/usecase/config</text>
<text xml:space="preserve" text-anchor="start" x="890.38" y="-18.5" font-family="Helvetica,sans-Serif" font-size="10.00">_view/duplicate_menu</text>
<text xml:space="preserve" text-anchor="middle" x="938.75" y="-6.5" font-family="Helvetica,sans-Serif" font-size="10.00">_item.cpp</text>
</a>
</g>
</g>
<!-- Node1&#45;&gt;Node10 -->
<g id="edge9_Node000001_Node000010" class="edge">
<title>Node1&#45;&gt;Node10</title>
<g id="a_edge9_Node000001_Node000010"><a xlink:title=" ">
<path fill="none" stroke="#63b8ff" d="M840.25,-176.91C851.29,-168.42 862.63,-158.54 871.75,-148 895.96,-120.04 915.54,-81.97 927.15,-56.49"/>
<polygon fill="#63b8ff" stroke="#63b8ff" points="838.27,-174.02 832.33,-182.79 842.44,-179.64 838.27,-174.02"/>
</a>
</g>
</g>
<!-- Node11 -->
<g id="Node000011" class="node">
<title>Node11</title>
<g id="a_Node000011"><a xlink:href="duplicate__menu__item_8hpp.html" target="_top" xlink:title=" ">
<polygon fill="white" stroke="#666666" points="715.12,-148 602.38,-148 602.38,-92 715.12,-92 715.12,-148"/>
<text xml:space="preserve" text-anchor="start" x="610.38" y="-134.5" font-family="Helvetica,sans-Serif" font-size="10.00">depicture_menu/src</text>
<text xml:space="preserve" text-anchor="start" x="610.38" y="-122.5" font-family="Helvetica,sans-Serif" font-size="10.00">/core/usecase/config</text>
<text xml:space="preserve" text-anchor="start" x="610.38" y="-110.5" font-family="Helvetica,sans-Serif" font-size="10.00">_view/duplicate_menu</text>
<text xml:space="preserve" text-anchor="middle" x="658.75" y="-98.5" font-family="Helvetica,sans-Serif" font-size="10.00">_item.hpp</text>
</a>
</g>
</g>
<!-- Node1&#45;&gt;Node11 -->
<g id="edge10_Node000001_Node000011" class="edge">
<title>Node1&#45;&gt;Node11</title>
<g id="a_edge10_Node000001_Node000011"><a xlink:title=" ">
<path fill="none" stroke="#63b8ff" d="M752.88,-177.88C737.27,-168.45 719.76,-157.87 704.12,-148.42"/>
<polygon fill="#63b8ff" stroke="#63b8ff" points="750.65,-180.63 761.02,-182.8 754.27,-174.64 750.65,-180.63"/>
</a>
</g>
</g>
<!-- Node12 -->
<g id="Node000012" class="node">
<title>Node12</title>
<g id="a_Node000012"><a xlink:href="show__config__view_8cpp.html" target="_top" xlink:title=" ">
<polygon fill="white" stroke="#666666" points="1237.12,-142 1094.38,-142 1094.38,-98 1237.12,-98 1237.12,-142"/>
<text xml:space="preserve" text-anchor="start" x="1102.38" y="-128.5" font-family="Helvetica,sans-Serif" font-size="10.00">depicture_menu/src</text>
<text xml:space="preserve" text-anchor="start" x="1102.38" y="-116.5" font-family="Helvetica,sans-Serif" font-size="10.00">/core/usecase/config</text>
<text xml:space="preserve" text-anchor="middle" x="1165.75" y="-104.5" font-family="Helvetica,sans-Serif" font-size="10.00">_view/show_config_view.cpp</text>
</a>
</g>
</g>
<!-- Node1&#45;&gt;Node12 -->
<g id="edge14_Node000001_Node000012" class="edge">
<title>Node1&#45;&gt;Node12</title>
<g id="a_edge14_Node000001_Node000012"><a xlink:title=" ">
<path fill="none" stroke="#63b8ff" d="M861.04,-194.91C919.75,-184.98 1009.33,-168.36 1085.75,-148 1091.98,-146.34 1098.44,-144.45 1104.85,-142.46"/>
<polygon fill="#63b8ff" stroke="#63b8ff" points="860.5,-191.46 851.21,-196.56 861.65,-198.36 860.5,-191.46"/>
</a>
</g>
</g>
<!-- Node13 -->
<g id="Node000013" class="node">
<title>Node13</title>
<g id="a_Node000013"><a xlink:href="update__menu__config_8cpp.html" target="_top" xlink:title=" ">
<polygon fill="white" stroke="#666666" points="1408.38,-142 1255.12,-142 1255.12,-98 1408.38,-98 1408.38,-142"/>
<text xml:space="preserve" text-anchor="start" x="1263.12" y="-128.5" font-family="Helvetica,sans-Serif" font-size="10.00">depicture_menu/src</text>
<text xml:space="preserve" text-anchor="start" x="1263.12" y="-116.5" font-family="Helvetica,sans-Serif" font-size="10.00">/core/usecase/config</text>
<text xml:space="preserve" text-anchor="middle" x="1331.75" y="-104.5" font-family="Helvetica,sans-Serif" font-size="10.00">_view/update_menu_config.cpp</text>
</a>
</g>
</g>
<!-- Node1&#45;&gt;Node13 -->
<g id="edge15_Node000001_Node000013" class="edge">
<title>Node1&#45;&gt;Node13</title>
<g id="a_edge15_Node000001_Node000013"><a xlink:title=" ">
<path fill="none" stroke="#63b8ff" d="M860.96,-200.52C948.26,-193.52 1110.32,-177.63 1245.75,-148 1252.94,-146.43 1260.38,-144.52 1267.75,-142.46"/>
<polygon fill="#63b8ff" stroke="#63b8ff" points="860.86,-197.01 851.17,-201.29 861.41,-203.99 860.86,-197.01"/>
</a>
</g>
</g>
<!-- Node14 -->
<g id="Node000014" class="node">
<title>Node14</title>
<g id="a_Node000014"><a xlink:href="hidden__menu__view_8hpp.html" target="_top" xlink:title=" ">
<polygon fill="white" stroke="#666666" points="862.75,-142 732.75,-142 732.75,-98 862.75,-98 862.75,-142"/>
<text xml:space="preserve" text-anchor="start" x="740.75" y="-128.5" font-family="Helvetica,sans-Serif" font-size="10.00">depicture_menu/src</text>
<text xml:space="preserve" text-anchor="start" x="740.75" y="-116.5" font-family="Helvetica,sans-Serif" font-size="10.00">/core/usecase/menu_view</text>
<text xml:space="preserve" text-anchor="middle" x="797.75" y="-104.5" font-family="Helvetica,sans-Serif" font-size="10.00">/hidden_menu_view.hpp</text>
</a>
</g>
</g>
<!-- Node1&#45;&gt;Node14 -->
<g id="edge16_Node000001_Node000014" class="edge">
<title>Node1&#45;&gt;Node14</title>
<g id="a_edge16_Node000001_Node000014"><a xlink:title=" ">
<path fill="none" stroke="#63b8ff" d="M797.75,-172.49C797.75,-162.43 797.75,-151.6 797.75,-142.48"/>
<polygon fill="#63b8ff" stroke="#63b8ff" points="794.25,-172.29 797.75,-182.29 801.25,-172.29 794.25,-172.29"/>
</a>
</g>
</g>
<!-- Node16 -->
<g id="Node000016" class="node">
<title>Node16</title>
<g id="a_Node000016"><a xlink:href="show__menu__view_8hpp.html" target="_top" xlink:title="メニュー表示ユースケース">
<polygon fill="white" stroke="#666666" points="584.75,-142 454.75,-142 454.75,-98 584.75,-98 584.75,-142"/>
<text xml:space="preserve" text-anchor="start" x="462.75" y="-128.5" font-family="Helvetica,sans-Serif" font-size="10.00">depicture_menu/src</text>
<text xml:space="preserve" text-anchor="start" x="462.75" y="-116.5" font-family="Helvetica,sans-Serif" font-size="10.00">/core/usecase/menu_view</text>
<text xml:space="preserve" text-anchor="middle" x="519.75" y="-104.5" font-family="Helvetica,sans-Serif" font-size="10.00">/show_menu_view.hpp</text>
</a>
</g>
</g>
<!-- Node1&#45;&gt;Node16 -->
<g id="edge18_Node000001_Node000016" class="edge">
<title>Node1&#45;&gt;Node16</title>
<g id="a_edge18_Node000001_Node000016"><a xlink:title=" ">
<path fill="none" stroke="#63b8ff" d="M734.8,-188.76C694.28,-177.98 640.63,-163.08 593.75,-148 588.28,-146.24 582.62,-144.33 576.97,-142.37"/>
<polygon fill="#63b8ff" stroke="#63b8ff" points="733.83,-192.13 744.4,-191.3 735.62,-185.36 733.83,-192.13"/>
</a>
</g>
</g>
<!-- Node18 -->
<g id="Node000018" class="node">
<title>Node18</title>
<g id="a_Node000018"><a xlink:href="test-config__view_8cpp.html" target="_top" xlink:title=" ">
<polygon fill="white" stroke="#666666" points="1560.62,-142 1426.88,-142 1426.88,-98 1560.62,-98 1560.62,-142"/>
<text xml:space="preserve" text-anchor="start" x="1434.88" y="-128.5" font-family="Helvetica,sans-Serif" font-size="10.00">depicture_menu/test</text>
<text xml:space="preserve" text-anchor="start" x="1434.88" y="-116.5" font-family="Helvetica,sans-Serif" font-size="10.00">/core/usecase/config</text>
<text xml:space="preserve" text-anchor="middle" x="1493.75" y="-104.5" font-family="Helvetica,sans-Serif" font-size="10.00">_view/test&#45;config_view.cpp</text>
</a>
</g>
</g>
<!-- Node1&#45;&gt;Node18 -->
<g id="edge24_Node000001_Node000018" class="edge">
<title>Node1&#45;&gt;Node18</title>
<g id="a_edge24_Node000001_Node000018"><a xlink:title=" ">
<path fill="none" stroke="#63b8ff" d="M860.95,-204.37C973.98,-202.1 1217.65,-192.01 1417.75,-148 1424.59,-146.5 1431.65,-144.55 1438.6,-142.39"/>
<polygon fill="#63b8ff" stroke="#63b8ff" points="860.9,-200.87 850.96,-204.55 861.03,-207.87 860.9,-200.87"/>
</a>
</g>
</g>
<!-- Node5 -->
<g id="Node000005" class="node">
<title>Node5</title>
<g id="a_Node000005"><a xlink:href="config__view__arg__builder_8cpp.html" target="_top" xlink:title="ConfigArg ファクトリー">
<polygon fill="white" stroke="#666666" points="543,-56 426.5,-56 426.5,0 543,0 543,-56"/>
<text xml:space="preserve" text-anchor="start" x="434.5" y="-42.5" font-family="Helvetica,sans-Serif" font-size="10.00">depicture_menu/src</text>
<text xml:space="preserve" text-anchor="start" x="434.5" y="-30.5" font-family="Helvetica,sans-Serif" font-size="10.00">/core/application/cs</text>
<text xml:space="preserve" text-anchor="start" x="434.5" y="-18.5" font-family="Helvetica,sans-Serif" font-size="10.00">_binding_factory/config</text>
<text xml:space="preserve" text-anchor="middle" x="484.75" y="-6.5" font-family="Helvetica,sans-Serif" font-size="10.00">_view_arg_builder.cpp</text>
</a>
</g>
</g>
<!-- Node4&#45;&gt;Node5 -->
<g id="edge4_Node000004_Node000005" class="edge">
<title>Node4&#45;&gt;Node5</title>
<g id="a_edge4_Node000004_Node000005"><a xlink:title=" ">
<path fill="none" stroke="#63b8ff" d="M407.95,-90.71C421.62,-79.73 437.2,-67.21 450.75,-56.32"/>
<polygon fill="#63b8ff" stroke="#63b8ff" points="406.07,-87.73 400.47,-96.72 410.46,-93.19 406.07,-87.73"/>
</a>
</g>
</g>
<!-- Node6 -->
<g id="Node000006" class="node">
<title>Node6</title>
<g id="a_Node000006"><a xlink:href="menu__view__arg__builder_8cpp.html" target="_top" xlink:title=" ">
<polygon fill="white" stroke="#666666" points="260.88,-56 146.62,-56 146.62,0 260.88,0 260.88,-56"/>
<text xml:space="preserve" text-anchor="start" x="154.62" y="-42.5" font-family="Helvetica,sans-Serif" font-size="10.00">depicture_menu/src</text>
<text xml:space="preserve" text-anchor="start" x="154.62" y="-30.5" font-family="Helvetica,sans-Serif" font-size="10.00">/core/application/cs</text>
<text xml:space="preserve" text-anchor="start" x="154.62" y="-18.5" font-family="Helvetica,sans-Serif" font-size="10.00">_binding_factory/menu</text>
<text xml:space="preserve" text-anchor="middle" x="203.75" y="-6.5" font-family="Helvetica,sans-Serif" font-size="10.00">_view_arg_builder.cpp</text>
</a>
</g>
</g>
<!-- Node4&#45;&gt;Node6 -->
<g id="edge5_Node000004_Node000006" class="edge">
<title>Node4&#45;&gt;Node6</title>
<g id="a_edge5_Node000004_Node000006"><a xlink:title=" ">
<path fill="none" stroke="#63b8ff" d="M322.6,-92.29C301.4,-81 276.72,-67.86 255.37,-56.49"/>
<polygon fill="#63b8ff" stroke="#63b8ff" points="320.89,-95.35 331.36,-96.96 324.18,-89.17 320.89,-95.35"/>
</a>
</g>
</g>
<!-- Node7 -->
<g id="Node000007" class="node">
<title>Node7</title>
<g id="a_Node000007"><a xlink:href="config__view__dispatch_8cpp.html" target="_top" xlink:title=" ">
<polygon fill="white" stroke="#666666" points="734.5,-50 561,-50 561,-6 734.5,-6 734.5,-50"/>
<text xml:space="preserve" text-anchor="start" x="569" y="-36.5" font-family="Helvetica,sans-Serif" font-size="10.00">depicture_menu/src</text>
<text xml:space="preserve" text-anchor="start" x="569" y="-24.5" font-family="Helvetica,sans-Serif" font-size="10.00">/core/application/usecase</text>
<text xml:space="preserve" text-anchor="middle" x="647.75" y="-12.5" font-family="Helvetica,sans-Serif" font-size="10.00">_dispatch/config_view_dispatch.cpp</text>
</a>
</g>
</g>
<!-- Node4&#45;&gt;Node7 -->
<g id="edge6_Node000004_Node000007" class="edge">
<title>Node4&#45;&gt;Node7</title>
<g id="a_edge6_Node000004_Node000007"><a xlink:title=" ">
<path fill="none" stroke="#63b8ff" d="M440.28,-93.88C442.12,-93.24 443.95,-92.61 445.75,-92 488.7,-77.37 537.22,-62.2 575.94,-50.4"/>
<polygon fill="#63b8ff" stroke="#63b8ff" points="439.33,-90.51 431.06,-97.13 441.66,-97.11 439.33,-90.51"/>
</a>
</g>
</g>
<!-- Node8 -->
<g id="Node000008" class="node">
<title>Node8</title>
<g id="a_Node000008"><a xlink:href="command__invoker_8cpp.html" target="_top" xlink:title=" ">
<polygon fill="white" stroke="#666666" points="129,-50 0.5,-50 0.5,-6 129,-6 129,-50"/>
<text xml:space="preserve" text-anchor="start" x="8.5" y="-36.5" font-family="Helvetica,sans-Serif" font-size="10.00">depicture_menu/src</text>
<text xml:space="preserve" text-anchor="start" x="8.5" y="-24.5" font-family="Helvetica,sans-Serif" font-size="10.00">/core/presentation/invoker</text>
<text xml:space="preserve" text-anchor="middle" x="64.75" y="-12.5" font-family="Helvetica,sans-Serif" font-size="10.00">/command_invoker.cpp</text>
</a>
</g>
</g>
<!-- Node4&#45;&gt;Node8 -->
<g id="edge7_Node000004_Node000008" class="edge">
<title>Node4&#45;&gt;Node8</title>
<g id="a_edge7_Node000004_Node000008"><a xlink:title=" ">
<path fill="none" stroke="#63b8ff" d="M305.59,-94.07C303.29,-93.35 301.01,-92.66 298.75,-92 228.38,-71.39 208.07,-76.76 137.75,-56 132.05,-54.32 126.15,-52.41 120.29,-50.42"/>
<polygon fill="#63b8ff" stroke="#63b8ff" points="304.41,-97.37 315,-97.13 306.57,-90.71 304.41,-97.37"/>
</a>
</g>
</g>
<!-- Node11&#45;&gt;Node5 -->
<g id="edge11_Node000011_Node000005" class="edge">
<title>Node11&#45;&gt;Node5</title>
<g id="a_edge11_Node000011_Node000005"><a xlink:title=" ">
<path fill="none" stroke="#63b8ff" d="M595.57,-86.32C576.65,-76.53 556.09,-65.9 537.88,-56.48"/>
<polygon fill="#63b8ff" stroke="#63b8ff" points="593.76,-89.33 604.25,-90.81 596.98,-83.11 593.76,-89.33"/>
</a>
</g>
</g>
<!-- Node11&#45;&gt;Node7 -->
<g id="edge12_Node000011_Node000007" class="edge">
<title>Node11&#45;&gt;Node7</title>
<g id="a_edge12_Node000011_Node000007"><a xlink:title=" ">
<path fill="none" stroke="#63b8ff" d="M654.01,-80.23C652.76,-69.98 651.45,-59.28 650.36,-50.33"/>
<polygon fill="#63b8ff" stroke="#63b8ff" points="650.52,-80.5 655.21,-90.01 657.47,-79.65 650.52,-80.5"/>
</a>
</g>
</g>
<!-- Node11&#45;&gt;Node10 -->
<g id="edge13_Node000011_Node000010" class="edge">
<title>Node11&#45;&gt;Node10</title>
<g id="a_edge13_Node000011_Node000010"><a xlink:title=" ">
<path fill="none" stroke="#63b8ff" d="M726.09,-91.46C791.05,-71.37 811.87,-76.14 873.75,-56 876.54,-55.09 879.38,-54.12 882.23,-53.1"/>
<polygon fill="#63b8ff" stroke="#63b8ff" points="725.18,-88.07 716.71,-94.44 727.3,-94.74 725.18,-88.07"/>
</a>
</g>
</g>
<!-- Node15 -->
<g id="Node000015" class="node">
<title>Node15</title>
<g id="a_Node000015"><a xlink:href="setup__core_8cpp.html" target="_top" xlink:title=" ">
<polygon fill="white" stroke="#666666" points="864.75,-56 752.75,-56 752.75,0 864.75,0 864.75,-56"/>
<text xml:space="preserve" text-anchor="start" x="760.75" y="-42.5" font-family="Helvetica,sans-Serif" font-size="10.00">depicture_menu/src</text>
<text xml:space="preserve" text-anchor="start" x="760.75" y="-30.5" font-family="Helvetica,sans-Serif" font-size="10.00">/core/dll_entry_point</text>
<text xml:space="preserve" text-anchor="start" x="760.75" y="-18.5" font-family="Helvetica,sans-Serif" font-size="10.00">/domain_control/setup</text>
<text xml:space="preserve" text-anchor="middle" x="808.75" y="-6.5" font-family="Helvetica,sans-Serif" font-size="10.00">_core.cpp</text>
</a>
</g>
</g>
<!-- Node14&#45;&gt;Node15 -->
<g id="edge17_Node000014_Node000015" class="edge">
<title>Node14&#45;&gt;Node15</title>
<g id="a_edge17_Node000014_Node000015"><a xlink:title=" ">
<path fill="none" stroke="#63b8ff" d="M801.75,-86.25C802.95,-76.42 804.26,-65.76 805.41,-56.32"/>
<polygon fill="#63b8ff" stroke="#63b8ff" points="798.28,-85.82 800.54,-96.17 805.23,-86.67 798.28,-85.82"/>
</a>
</g>
</g>
<!-- Node16&#45;&gt;Node5 -->
<g id="edge19_Node000016_Node000005" class="edge">
<title>Node16&#45;&gt;Node5</title>
<g id="a_edge19_Node000016_Node000005"><a xlink:title=" ">
<path fill="none" stroke="#63b8ff" d="M507.39,-87.21C503.47,-77.13 499.16,-66.07 495.38,-56.32"/>
<polygon fill="#63b8ff" stroke="#63b8ff" points="504.02,-88.21 510.91,-96.26 510.54,-85.67 504.02,-88.21"/>
</a>
</g>
</g>
<!-- Node16&#45;&gt;Node6 -->
<g id="edge20_Node000016_Node000006" class="edge">
<title>Node16&#45;&gt;Node6</title>
<g id="a_edge20_Node000016_Node000006"><a xlink:title=" ">
<path fill="none" stroke="#63b8ff" d="M453.05,-94.15C450.59,-93.4 448.16,-92.68 445.75,-92 368.93,-70.26 346.14,-79.22 269.75,-56 266.91,-55.14 264.02,-54.2 261.11,-53.2"/>
<polygon fill="#63b8ff" stroke="#63b8ff" points="451.84,-97.44 462.43,-97.16 453.98,-90.78 451.84,-97.44"/>
</a>
</g>
</g>
<!-- Node16&#45;&gt;Node7 -->
<g id="edge21_Node000016_Node000007" class="edge">
<title>Node16&#45;&gt;Node7</title>
<g id="a_edge21_Node000016_Node000007"><a xlink:title=" ">
<path fill="none" stroke="#63b8ff" d="M559.48,-91.07C578.08,-77.98 599.9,-62.64 617.19,-50.49"/>
<polygon fill="#63b8ff" stroke="#63b8ff" points="557.49,-88.19 551.32,-96.8 561.52,-93.91 557.49,-88.19"/>
</a>
</g>
</g>
<!-- Node16&#45;&gt;Node15 -->
<g id="edge22_Node000016_Node000015" class="edge">
<title>Node16&#45;&gt;Node15</title>
<g id="a_edge22_Node000016_Node000015"><a xlink:title=" ">
<path fill="none" stroke="#63b8ff" d="M587.34,-93.98C589.5,-93.3 591.64,-92.64 593.75,-92 659.39,-72.22 678.56,-77.22 743.75,-56 746.65,-55.05 749.61,-54.04 752.58,-52.97"/>
<polygon fill="#63b8ff" stroke="#63b8ff" points="586.34,-90.63 577.93,-97.08 588.53,-97.28 586.34,-90.63"/>
</a>
</g>
</g>
<!-- Node17 -->
<g id="Node000017" class="node">
<title>Node17</title>
<g id="a_Node000017"><a xlink:href="show__menu__view_8cpp.html" target="_top" xlink:title=" ">
<polygon fill="white" stroke="#666666" points="408.75,-50 278.75,-50 278.75,-6 408.75,-6 408.75,-50"/>
<text xml:space="preserve" text-anchor="start" x="286.75" y="-36.5" font-family="Helvetica,sans-Serif" font-size="10.00">depicture_menu/src</text>
<text xml:space="preserve" text-anchor="start" x="286.75" y="-24.5" font-family="Helvetica,sans-Serif" font-size="10.00">/core/usecase/menu_view</text>
<text xml:space="preserve" text-anchor="middle" x="343.75" y="-12.5" font-family="Helvetica,sans-Serif" font-size="10.00">/show_menu_view.cpp</text>
</a>
</g>
</g>
<!-- Node16&#45;&gt;Node17 -->
<g id="edge23_Node000016_Node000017" class="edge">
<title>Node16&#45;&gt;Node17</title>
<g id="a_edge23_Node000016_Node000017"><a xlink:title=" ">
<path fill="none" stroke="#63b8ff" d="M467.92,-92.5C441.75,-79.11 410.42,-63.09 385.77,-50.49"/>
<polygon fill="#63b8ff" stroke="#63b8ff" points="466.2,-95.55 476.69,-96.98 469.38,-89.31 466.2,-95.55"/>
</a>
</g>
</g>
</g>
</svg>

<g id="navigator" transform="translate(0 0)" fill="#404254">
  <rect fill="#f2f5e9" fill-opacity="0.5" stroke="#606060" stroke-width=".5" x="0" y="0" width="60" height="60"/>
  <use id="zoomplus" xlink:href="#zoomPlus" x="17" y="9" onmousedown="handleZoom(evt,'in')"/>
  <use id="zoomminus" xlink:href="#zoomMin" x="42" y="9" onmousedown="handleZoom(evt,'out')"/>
  <use id="reset" xlink:href="#resetDef" x="30" y="36" onmousedown="handleReset()"/>
   <use id="arrowup" xlink:href="#arrowUp" x="0" y="0" onmousedown="handlePan(0,-1)"/>
  <use id="arrowright" xlink:href="#arrowRight" x="0" y="0" onmousedown="handlePan(1,0)"/>
  <use id="arrowdown" xlink:href="#arrowDown" x="0" y="0" onmousedown="handlePan(0,1)"/>
  <use id="arrowleft" xlink:href="#arrowLeft" x="0" y="0" onmousedown="handlePan(-1,0)"/>
</g>
<svg viewBox="0 0 15 15" width="100%" height="30px" preserveAspectRatio="xMaxYMin meet">
 <g id="arrow_out" transform="scale(0.3 0.3)">
  <a xlink:href="gui__dispatch_8hpp__dep__incl_org.svg" target="_base">
   <rect id="button" ry="5" rx="5" y="6" x="6" height="38" width="38"
        fill="#f2f5e9" fill-opacity="0.5" stroke="#606060" stroke-width="1.0"/>
   <path id="arrow"
     d="M 11.500037,31.436501 C 11.940474,20.09759 22.043105,11.32322 32.158766,21.979434 L 37.068811,17.246167 C 37.068811,17.246167 37.088388,32 37.088388,32 L 22.160133,31.978069 C 22.160133,31.978069 26.997745,27.140456 26.997745,27.140456 C 18.528582,18.264221 13.291696,25.230495 11.500037,31.436501 z"
     style="fill:#404040;"/>
  </a>
 </g>
</svg>

<style type='text/css'>
<![CDATA[
[data-mouse-over-selected='false'] { opacity: 0.7; }
[data-mouse-over-selected='true']  { opacity: 1.0; }
]]>
</style>
<script type="application/ecmascript"><![CDATA[
document.addEventListener('DOMContentLoaded', (event) => {
  highlightEdges();
  highlightAdjacentNodes();
});
]]></script>
</svg>
