<?xml version="1.0" encoding="UTF-8" standalone="no"?>
<!DOCTYPE svg PUBLIC "-//W3C//DTD SVG 1.1//EN"
 "http://www.w3.org/Graphics/SVG/1.1/DTD/svg11.dtd">
<!-- Generated by graphviz version 14.1.2 (20260124.0452)
 -->
<!-- Title: depicture_menu/src/core/application/hotkey_event_source.hpp Pages: 1 -->
<svg width="239pt" height="108pt"
 viewBox="0.00 0.00 239.00 108.00" xmlns="http://www.w3.org/2000/svg" xmlns:xlink="http://www.w3.org/1999/xlink">
<g id="graph0" class="graph" transform="scale(1 1) rotate(0) translate(4 104)">
<title>depicture_menu/src/core/application/hotkey_event_source.hpp</title>
<!-- Node1 -->
<g id="Node000001" class="node">
<title>Node1</title>
<g id="a_Node000001"><a xlink:title=" ">
<polygon fill="#999999" stroke="#666666" points="172.38,-100 52.88,-100 52.88,-56 172.38,-56 172.38,-100"/>
<text xml:space="preserve" text-anchor="start" x="60.88" y="-86.5" font-family="Helvetica,sans-Serif" font-size="10.00">depicture_menu/src</text>
<text xml:space="preserve" text-anchor="start" x="60.88" y="-74.5" font-family="Helvetica,sans-Serif" font-size="10.00">/core/application/hotkey</text>
<text xml:space="preserve" text-anchor="middle" x="112.62" y="-62.5" font-family="Helvetica,sans-Serif" font-size="10.00">_event_source.hpp</text>
</a>
</g>
</g>
<!-- Node2 -->
<g id="Node000002" class="node">
<title>Node2</title>
<g id="a_Node000002"><a xlink:title=" ">
<polygon fill="#e0e0e0" stroke="#999999" points="45.25,-20 0,-20 0,0 45.25,0 45.25,-20"/>
<text xml:space="preserve" text-anchor="middle" x="22.62" y="-6.5" font-family="Helvetica,sans-Serif" font-size="10.00">atomic</text>
</a>
</g>
</g>
<!-- Node1&#45;&gt;Node2 -->
<g id="edge1_Node000001_Node000002" class="edge">
<title>Node1&#45;&gt;Node2</title>
<g id="a_edge1_Node000001_Node000002"><a xlink:title=" ">
<path fill="none" stroke="#63b8ff" d="M83.65,-55.75C70.97,-46.45 56.33,-35.71 44.56,-27.09"/>
<polygon fill="#63b8ff" stroke="#63b8ff" points="46.82,-24.41 36.69,-21.31 42.68,-30.05 46.82,-24.41"/>
</a>
</g>
</g>
<!-- Node3 -->
<g id="Node000003" class="node">
<title>Node3</title>
<g id="a_Node000003"><a xlink:title=" ">
<polygon fill="#e0e0e0" stroke="#999999" points="161.5,-20 63.75,-20 63.75,0 161.5,0 161.5,-20"/>
<text xml:space="preserve" text-anchor="middle" x="112.62" y="-6.5" font-family="Helvetica,sans-Serif" font-size="10.00">boost/signals2.hpp</text>
</a>
</g>
</g>
<!-- Node1&#45;&gt;Node3 -->
<g id="edge2_Node000001_Node000003" class="edge">
<title>Node1&#45;&gt;Node3</title>
<g id="a_edge2_Node000001_Node000003"><a xlink:title=" ">
<path fill="none" stroke="#63b8ff" d="M112.62,-55.75C112.62,-48.13 112.62,-39.53 112.62,-31.93"/>
<polygon fill="#63b8ff" stroke="#63b8ff" points="116.13,-31.93 112.63,-21.93 109.13,-31.93 116.13,-31.93"/>
</a>
</g>
</g>
<!-- Node4 -->
<g id="Node000004" class="node">
<title>Node4</title>
<g id="a_Node000004"><a xlink:title=" ">
<polygon fill="#e0e0e0" stroke="#999999" points="231.25,-20 180,-20 180,0 231.25,0 231.25,-20"/>
<text xml:space="preserve" text-anchor="middle" x="205.62" y="-6.5" font-family="Helvetica,sans-Serif" font-size="10.00">memory</text>
</a>
</g>
</g>
<!-- Node1&#45;&gt;Node4 -->
<g id="edge3_Node000001_Node000004" class="edge">
<title>Node1&#45;&gt;Node4</title>
<g id="a_edge3_Node000001_Node000004"><a xlink:title=" ">
<path fill="none" stroke="#63b8ff" d="M142.82,-55.57C155.91,-46.28 170.98,-35.59 183.08,-27"/>
<polygon fill="#63b8ff" stroke="#63b8ff" points="185.06,-29.88 191.19,-21.24 181.01,-24.17 185.06,-29.88"/>
</a>
</g>
</g>
</g>
</svg>
