<?xml version="1.0" encoding="UTF-8" standalone="no"?>
<!DOCTYPE svg PUBLIC "-//W3C//DTD SVG 1.1//EN"
 "http://www.w3.org/Graphics/SVG/1.1/DTD/svg11.dtd">
<!-- Generated by graphviz version 14.1.2 (20260124.0452)
 -->
<!-- Title: depicture_menu/src/core/presentation/change_view_model/view_model_operation/ids_buffer.hpp Pages: 1 -->
<!--zoomable 364 -->

<svg id="main" version="1.1" xmlns="http://www.w3.org/2000/svg" xmlns:xlink="http://www.w3.org/1999/xlink" xml:space="preserve" onload="init(evt)">

<style type="text/css"><![CDATA[
.node, .edge {opacity: 0.7;}
.node.selected, .edge.selected {opacity: 1;}
.edge:hover path { stroke: red; }
.edge:hover polygon { stroke: red; fill: red; }
]]></style>

<defs>
  <circle id="rim" cx="0" cy="0" r="7"/>
  <circle id="rim2" cx="0" cy="0" r="3.5"/>
  <g id="zoomPlus">
    <use xlink:href="#rim" fill="#404040"><set attributeName="fill" to="#808080" begin="zoomplus.mouseover" end="zoomplus.mouseout"/></use>
    <path d="M-4,0h8M0,-4v8" fill="none" stroke="white" stroke-width="1.5" pointer-events="none"/>
  </g>
  <g id="zoomMin">
    <use xlink:href="#rim" fill="#404040"><set attributeName="fill" to="#808080" begin="zoomminus.mouseover" end="zoomminus.mouseout"/></use>
    <path d="M-4,0h8" fill="none" stroke="white" stroke-width="1.5" pointer-events="none"/>
  </g>
  <g id="arrowUp" transform="translate(30 24)">
    <use xlink:href="#rim"/>
    <path pointer-events="none" fill="none" stroke="white" stroke-width="1.5" d="M0,-3.0v7 M-2.5,-0.5L0,-3.0L2.5,-0.5"/>
  </g>
  <g id="arrowRight" transform="rotate(90) translate(36 -43)">
    <use xlink:href="#rim"/>
    <path pointer-events="none" fill="none" stroke="white" stroke-width="1.5" d="M0,-3.0v7 M-2.5,-0.5L0,-3.0L2.5,-0.5"/>
  </g>
  <g id="arrowDown" transform="rotate(180) translate(-30 -48)">
    <use xlink:href="#rim"/>
    <path pointer-events="none" fill="none" stroke="white" stroke-width="1.5" d="M0,-3.0v7 M-2.5,-0.5L0,-3.0L2.5,-0.5"/>
  </g>
  <g id="arrowLeft" transform="rotate(270) translate(-36 17)">
    <use xlink:href="#rim"/>
    <path pointer-events="none" fill="none" stroke="white" stroke-width="1.5" d="M0,-3.0v7 M-2.5,-0.5L0,-3.0L2.5,-0.5"/>
  </g>
  <g id="resetDef">
    <use xlink:href="#rim2" fill="#404040"><set attributeName="fill" to="#808080" begin="reset.mouseover" end="reset.mouseout"/></use>
  </g>
</defs>
<script type="application/ecmascript">
var viewWidth = 1012;
var viewHeight = 364;
var sectionId = 'dynsection-1';
</script>
<script type="application/ecmascript" xlink:href="svg.min.js"/>
<svg id="graph" class="graph">
<g id="viewport">
<title>depicture_menu/src/core/presentation/change_view_model/view_model_operation/ids_buffer.hpp</title>
<!-- Node1 -->
<g id="Node000001" class="node">
<title>Node1</title>
<g id="a_Node000001"><a xlink:title=" ">
<polygon fill="#999999" stroke="#666666" points="674.38,-356 501.62,-356 501.62,-300 674.38,-300 674.38,-356"/>
<text xml:space="preserve" text-anchor="start" x="509.62" y="-342.5" font-family="Helvetica,sans-Serif" font-size="10.00">depicture_menu/src</text>
<text xml:space="preserve" text-anchor="start" x="509.62" y="-330.5" font-family="Helvetica,sans-Serif" font-size="10.00">/core/presentation/change</text>
<text xml:space="preserve" text-anchor="start" x="509.62" y="-318.5" font-family="Helvetica,sans-Serif" font-size="10.00">_view_model/view_model_operation</text>
<text xml:space="preserve" text-anchor="middle" x="588" y="-306.5" font-family="Helvetica,sans-Serif" font-size="10.00">/ids_buffer.hpp</text>
</a>
</g>
</g>
<!-- Node2 -->
<g id="Node000002" class="node">
<title>Node2</title>
<g id="a_Node000002"><a xlink:href="config__view__presenter_8hpp.html" target="_top" xlink:title=" ">
<polygon fill="white" stroke="#666666" points="568.25,-258 439.75,-258 439.75,-202 568.25,-202 568.25,-258"/>
<text xml:space="preserve" text-anchor="start" x="447.75" y="-244.5" font-family="Helvetica,sans-Serif" font-size="10.00">depicture_menu/src</text>
<text xml:space="preserve" text-anchor="start" x="447.75" y="-232.5" font-family="Helvetica,sans-Serif" font-size="10.00">/core/presentation/change</text>
<text xml:space="preserve" text-anchor="start" x="447.75" y="-220.5" font-family="Helvetica,sans-Serif" font-size="10.00">_view_model/config_view</text>
<text xml:space="preserve" text-anchor="middle" x="504" y="-208.5" font-family="Helvetica,sans-Serif" font-size="10.00">_presenter.hpp</text>
</a>
</g>
</g>
<!-- Node1&#45;&gt;Node2 -->
<g id="edge1_Node000001_Node000002" class="edge">
<title>Node1&#45;&gt;Node2</title>
<g id="a_edge1_Node000001_Node000002"><a xlink:title=" ">
<path fill="none" stroke="#63b8ff" d="M556.72,-291.25C547.19,-280.36 536.87,-268.56 527.91,-258.32"/>
<polygon fill="#63b8ff" stroke="#63b8ff" points="553.94,-293.39 563.16,-298.61 559.21,-288.78 553.94,-293.39"/>
</a>
</g>
</g>
<!-- Node10 -->
<g id="Node000010" class="node">
<title>Node10</title>
<g id="a_Node000010"><a xlink:href="view__id__accumerator_8hpp.html" target="_top" xlink:title=" ">
<polygon fill="white" stroke="#666666" points="881.38,-264 708.62,-264 708.62,-196 881.38,-196 881.38,-264"/>
<text xml:space="preserve" text-anchor="start" x="716.62" y="-250.5" font-family="Helvetica,sans-Serif" font-size="10.00">depicture_menu/src</text>
<text xml:space="preserve" text-anchor="start" x="716.62" y="-238.5" font-family="Helvetica,sans-Serif" font-size="10.00">/core/presentation/change</text>
<text xml:space="preserve" text-anchor="start" x="716.62" y="-226.5" font-family="Helvetica,sans-Serif" font-size="10.00">_view_model/view_model_operation</text>
<text xml:space="preserve" text-anchor="start" x="716.62" y="-214.5" font-family="Helvetica,sans-Serif" font-size="10.00">/config_view_operations/view</text>
<text xml:space="preserve" text-anchor="middle" x="795" y="-202.5" font-family="Helvetica,sans-Serif" font-size="10.00">_id_accumerator.hpp</text>
</a>
</g>
</g>
<!-- Node1&#45;&gt;Node10 -->
<g id="edge10_Node000001_Node000010" class="edge">
<title>Node1&#45;&gt;Node10</title>
<g id="a_edge10_Node000001_Node000010"><a xlink:title=" ">
<path fill="none" stroke="#63b8ff" d="M657.23,-294.89C678.38,-285.08 701.68,-274.28 723.01,-264.39"/>
<polygon fill="#63b8ff" stroke="#63b8ff" points="656.01,-291.6 648.41,-298.98 658.96,-297.95 656.01,-291.6"/>
</a>
</g>
</g>
<!-- Node3 -->
<g id="Node000003" class="node">
<title>Node3</title>
<g id="a_Node000003"><a xlink:href="config__view__arg__builder_8cpp.html" target="_top" xlink:title="ConfigArg ファクトリー">
<polygon fill="white" stroke="#666666" points="246.25,-56 129.75,-56 129.75,0 246.25,0 246.25,-56"/>
<text xml:space="preserve" text-anchor="start" x="137.75" y="-42.5" font-family="Helvetica,sans-Serif" font-size="10.00">depicture_menu/src</text>
<text xml:space="preserve" text-anchor="start" x="137.75" y="-30.5" font-family="Helvetica,sans-Serif" font-size="10.00">/core/application/cs</text>
<text xml:space="preserve" text-anchor="start" x="137.75" y="-18.5" font-family="Helvetica,sans-Serif" font-size="10.00">_binding_factory/config</text>
<text xml:space="preserve" text-anchor="middle" x="188" y="-6.5" font-family="Helvetica,sans-Serif" font-size="10.00">_view_arg_builder.cpp</text>
</a>
</g>
</g>
<!-- Node2&#45;&gt;Node3 -->
<g id="edge2_Node000002_Node000003" class="edge">
<title>Node2&#45;&gt;Node3</title>
<g id="a_edge2_Node000002_Node000003"><a xlink:title=" ">
<path fill="none" stroke="#63b8ff" d="M428.13,-221.08C350.25,-211.33 236.41,-191.99 207,-160 181.34,-132.08 180.86,-85.73 183.77,-56.31"/>
<polygon fill="#63b8ff" stroke="#63b8ff" points="427.49,-224.53 437.84,-222.27 428.34,-217.58 427.49,-224.53"/>
</a>
</g>
</g>
<!-- Node4 -->
<g id="Node000004" class="node">
<title>Node4</title>
<g id="a_Node000004"><a xlink:href="config__view__presenter_8cpp.html" target="_top" xlink:title=" ">
<polygon fill="white" stroke="#666666" points="925.25,-56 796.75,-56 796.75,0 925.25,0 925.25,-56"/>
<text xml:space="preserve" text-anchor="start" x="804.75" y="-42.5" font-family="Helvetica,sans-Serif" font-size="10.00">depicture_menu/src</text>
<text xml:space="preserve" text-anchor="start" x="804.75" y="-30.5" font-family="Helvetica,sans-Serif" font-size="10.00">/core/presentation/change</text>
<text xml:space="preserve" text-anchor="start" x="804.75" y="-18.5" font-family="Helvetica,sans-Serif" font-size="10.00">_view_model/config_view</text>
<text xml:space="preserve" text-anchor="middle" x="861" y="-6.5" font-family="Helvetica,sans-Serif" font-size="10.00">_presenter.cpp</text>
</a>
</g>
</g>
<!-- Node2&#45;&gt;Node4 -->
<g id="edge3_Node000002_Node000004" class="edge">
<title>Node2&#45;&gt;Node4</title>
<g id="a_edge3_Node000002_Node000004"><a xlink:title=" ">
<path fill="none" stroke="#63b8ff" d="M579.82,-217.37C651.63,-205.14 753.09,-184.31 785,-160 812.54,-139.02 805.61,-121.94 823,-92 829.8,-80.29 837.48,-67.48 844.15,-56.48"/>
<polygon fill="#63b8ff" stroke="#63b8ff" points="579.34,-213.91 570.06,-219.01 580.5,-220.81 579.34,-213.91"/>
</a>
</g>
</g>
<!-- Node5 -->
<g id="Node000005" class="node">
<title>Node5</title>
<g id="a_Node000005"><a xlink:href="combine__view__model__presenter_8hpp.html" target="_top" xlink:title=" ">
<polygon fill="white" stroke="#666666" points="159.75,-148 22.25,-148 22.25,-104 159.75,-104 159.75,-148"/>
<text xml:space="preserve" text-anchor="start" x="30.25" y="-134.5" font-family="Helvetica,sans-Serif" font-size="10.00">depicture_menu/src</text>
<text xml:space="preserve" text-anchor="start" x="30.25" y="-122.5" font-family="Helvetica,sans-Serif" font-size="10.00">/core/presentation/combine</text>
<text xml:space="preserve" text-anchor="middle" x="91" y="-110.5" font-family="Helvetica,sans-Serif" font-size="10.00">_view_model_presenter.hpp</text>
</a>
</g>
</g>
<!-- Node2&#45;&gt;Node5 -->
<g id="edge4_Node000002_Node000005" class="edge">
<title>Node2&#45;&gt;Node5</title>
<g id="a_edge4_Node000002_Node000005"><a xlink:title=" ">
<path fill="none" stroke="#63b8ff" d="M428.35,-217.01C360.86,-205.41 259.74,-185.8 174,-160 163.16,-156.74 151.75,-152.65 140.98,-148.48"/>
<polygon fill="#63b8ff" stroke="#63b8ff" points="427.36,-220.39 437.81,-218.61 428.54,-213.49 427.36,-220.39"/>
</a>
</g>
</g>
<!-- Node7 -->
<g id="Node000007" class="node">
<title>Node7</title>
<g id="a_Node000007"><a xlink:href="_test_config_view_presenter_8cpp.html" target="_top" xlink:title=" ">
<polygon fill="white" stroke="#666666" points="421.88,-148 216.12,-148 216.12,-104 421.88,-104 421.88,-148"/>
<text xml:space="preserve" text-anchor="start" x="224.12" y="-134.5" font-family="Helvetica,sans-Serif" font-size="10.00">depicture_menu/test</text>
<text xml:space="preserve" text-anchor="start" x="224.12" y="-122.5" font-family="Helvetica,sans-Serif" font-size="10.00">/core/presentation/change</text>
<text xml:space="preserve" text-anchor="middle" x="319" y="-110.5" font-family="Helvetica,sans-Serif" font-size="10.00">_view_model/TestConfigViewPresenter.cpp</text>
</a>
</g>
</g>
<!-- Node2&#45;&gt;Node7 -->
<g id="edge7_Node000002_Node000007" class="edge">
<title>Node2&#45;&gt;Node7</title>
<g id="a_edge7_Node000002_Node000007"><a xlink:title=" ">
<path fill="none" stroke="#63b8ff" d="M444.6,-196.25C416.19,-180.59 382.99,-162.28 357.86,-148.43"/>
<polygon fill="#63b8ff" stroke="#63b8ff" points="442.65,-199.17 453.1,-200.94 446.03,-193.04 442.65,-199.17"/>
</a>
</g>
</g>
<!-- Node8 -->
<g id="Node000008" class="node">
<title>Node8</title>
<g id="a_Node000008"><a xlink:href="action__change__operation_8cpp.html" target="_top" xlink:title=" ">
<polygon fill="white" stroke="#666666" points="568.25,-160 439.75,-160 439.75,-92 568.25,-92 568.25,-160"/>
<text xml:space="preserve" text-anchor="start" x="447.75" y="-146.5" font-family="Helvetica,sans-Serif" font-size="10.00">depicture_menu/test</text>
<text xml:space="preserve" text-anchor="start" x="447.75" y="-134.5" font-family="Helvetica,sans-Serif" font-size="10.00">/core/presentation/change</text>
<text xml:space="preserve" text-anchor="start" x="447.75" y="-122.5" font-family="Helvetica,sans-Serif" font-size="10.00">_view_model/config_view</text>
<text xml:space="preserve" text-anchor="start" x="447.75" y="-110.5" font-family="Helvetica,sans-Serif" font-size="10.00">_presenter/action_change</text>
<text xml:space="preserve" text-anchor="middle" x="504" y="-98.5" font-family="Helvetica,sans-Serif" font-size="10.00">_operation.cpp</text>
</a>
</g>
</g>
<!-- Node2&#45;&gt;Node8 -->
<g id="edge8_Node000002_Node000008" class="edge">
<title>Node2&#45;&gt;Node8</title>
<g id="a_edge8_Node000002_Node000008"><a xlink:title=" ">
<path fill="none" stroke="#63b8ff" d="M504,-190.41C504,-180.47 504,-169.87 504,-160.23"/>
<polygon fill="#63b8ff" stroke="#63b8ff" points="500.5,-190.15 504,-200.15 507.5,-190.15 500.5,-190.15"/>
</a>
</g>
</g>
<!-- Node9 -->
<g id="Node000009" class="node">
<title>Node9</title>
<g id="a_Node000009"><a xlink:href="menu__change__operation_8cpp.html" target="_top" xlink:title=" ">
<polygon fill="white" stroke="#666666" points="775.62,-154 586.38,-154 586.38,-98 775.62,-98 775.62,-154"/>
<text xml:space="preserve" text-anchor="start" x="594.38" y="-140.5" font-family="Helvetica,sans-Serif" font-size="10.00">depicture_menu/test</text>
<text xml:space="preserve" text-anchor="start" x="594.38" y="-128.5" font-family="Helvetica,sans-Serif" font-size="10.00">/core/presentation/change</text>
<text xml:space="preserve" text-anchor="start" x="594.38" y="-116.5" font-family="Helvetica,sans-Serif" font-size="10.00">_view_model/config_view</text>
<text xml:space="preserve" text-anchor="middle" x="681" y="-104.5" font-family="Helvetica,sans-Serif" font-size="10.00">_presenter/menu_change_operation.cpp</text>
</a>
</g>
</g>
<!-- Node2&#45;&gt;Node9 -->
<g id="edge9_Node000002_Node000009" class="edge">
<title>Node2&#45;&gt;Node9</title>
<g id="a_edge9_Node000002_Node000009"><a xlink:title=" ">
<path fill="none" stroke="#63b8ff" d="M561.21,-196.03C584.54,-182.59 611.2,-167.22 633.44,-154.41"/>
<polygon fill="#63b8ff" stroke="#63b8ff" points="559.66,-192.88 552.74,-200.91 563.16,-198.95 559.66,-192.88"/>
</a>
</g>
</g>
<!-- Node5&#45;&gt;Node3 -->
<g id="edge5_Node000005_Node000003" class="edge">
<title>Node5&#45;&gt;Node3</title>
<g id="a_edge5_Node000005_Node000003"><a xlink:title=" ">
<path fill="none" stroke="#63b8ff" d="M120.49,-95.81C133.13,-83.3 147.82,-68.77 160.26,-56.45"/>
<polygon fill="#63b8ff" stroke="#63b8ff" points="118.25,-93.11 113.6,-102.63 123.17,-98.08 118.25,-93.11"/>
</a>
</g>
</g>
<!-- Node6 -->
<g id="Node000006" class="node">
<title>Node6</title>
<g id="a_Node000006"><a xlink:href="setup__core_8cpp.html" target="_top" xlink:title=" ">
<polygon fill="white" stroke="#666666" points="112,-56 0,-56 0,0 112,0 112,-56"/>
<text xml:space="preserve" text-anchor="start" x="8" y="-42.5" font-family="Helvetica,sans-Serif" font-size="10.00">depicture_menu/src</text>
<text xml:space="preserve" text-anchor="start" x="8" y="-30.5" font-family="Helvetica,sans-Serif" font-size="10.00">/core/dll_entry_point</text>
<text xml:space="preserve" text-anchor="start" x="8" y="-18.5" font-family="Helvetica,sans-Serif" font-size="10.00">/domain_control/setup</text>
<text xml:space="preserve" text-anchor="middle" x="56" y="-6.5" font-family="Helvetica,sans-Serif" font-size="10.00">_core.cpp</text>
</a>
</g>
</g>
<!-- Node5&#45;&gt;Node6 -->
<g id="edge6_Node000005_Node000006" class="edge">
<title>Node5&#45;&gt;Node6</title>
<g id="a_edge6_Node000005_Node000006"><a xlink:title=" ">
<path fill="none" stroke="#63b8ff" d="M79.3,-92.92C74.99,-81.1 70.16,-67.83 66.01,-56.45"/>
<polygon fill="#63b8ff" stroke="#63b8ff" points="76,-94.08 82.71,-102.27 82.58,-91.68 76,-94.08"/>
</a>
</g>
</g>
<!-- Node11 -->
<g id="Node000011" class="node">
<title>Node11</title>
<g id="a_Node000011"><a xlink:href="config__view__operations_8hpp.html" target="_top" xlink:title=" ">
<polygon fill="white" stroke="#666666" points="1004.38,-154 831.62,-154 831.62,-98 1004.38,-98 1004.38,-154"/>
<text xml:space="preserve" text-anchor="start" x="839.62" y="-140.5" font-family="Helvetica,sans-Serif" font-size="10.00">depicture_menu/src</text>
<text xml:space="preserve" text-anchor="start" x="839.62" y="-128.5" font-family="Helvetica,sans-Serif" font-size="10.00">/core/presentation/change</text>
<text xml:space="preserve" text-anchor="start" x="839.62" y="-116.5" font-family="Helvetica,sans-Serif" font-size="10.00">_view_model/view_model_operation</text>
<text xml:space="preserve" text-anchor="middle" x="918" y="-104.5" font-family="Helvetica,sans-Serif" font-size="10.00">/config_view_operations.hpp</text>
</a>
</g>
</g>
<!-- Node10&#45;&gt;Node11 -->
<g id="edge11_Node000010_Node000011" class="edge">
<title>Node10&#45;&gt;Node11</title>
<g id="a_edge11_Node000010_Node000011"><a xlink:title=" ">
<path fill="none" stroke="#63b8ff" d="M843.75,-188.57C857.6,-177.09 872.35,-164.86 885.02,-154.35"/>
<polygon fill="#63b8ff" stroke="#63b8ff" points="841.9,-185.56 836.44,-194.64 846.37,-190.95 841.9,-185.56"/>
</a>
</g>
</g>
<!-- Node11&#45;&gt;Node4 -->
<g id="edge12_Node000011_Node000004" class="edge">
<title>Node11&#45;&gt;Node4</title>
<g id="a_edge12_Node000011_Node000004"><a xlink:title=" ">
<path fill="none" stroke="#63b8ff" d="M896,-87.95C889.75,-77.43 883.06,-66.16 877.22,-56.32"/>
<polygon fill="#63b8ff" stroke="#63b8ff" points="892.93,-89.63 901.05,-96.45 898.95,-86.06 892.93,-89.63"/>
</a>
</g>
</g>
</g>
</svg>

<g id="navigator" transform="translate(0 0)" fill="#404254">
  <rect fill="#f2f5e9" fill-opacity="0.5" stroke="#606060" stroke-width=".5" x="0" y="0" width="60" height="60"/>
  <use id="zoomplus" xlink:href="#zoomPlus" x="17" y="9" onmousedown="handleZoom(evt,'in')"/>
  <use id="zoomminus" xlink:href="#zoomMin" x="42" y="9" onmousedown="handleZoom(evt,'out')"/>
  <use id="reset" xlink:href="#resetDef" x="30" y="36" onmousedown="handleReset()"/>
   <use id="arrowup" xlink:href="#arrowUp" x="0" y="0" onmousedown="handlePan(0,-1)"/>
  <use id="arrowright" xlink:href="#arrowRight" x="0" y="0" onmousedown="handlePan(1,0)"/>
  <use id="arrowdown" xlink:href="#arrowDown" x="0" y="0" onmousedown="handlePan(0,1)"/>
  <use id="arrowleft" xlink:href="#arrowLeft" x="0" y="0" onmousedown="handlePan(-1,0)"/>
</g>
<svg viewBox="0 0 15 15" width="100%" height="30px" preserveAspectRatio="xMaxYMin meet">
 <g id="arrow_out" transform="scale(0.3 0.3)">
  <a xlink:href="ids__buffer_8hpp__dep__incl_org.svg" target="_base">
   <rect id="button" ry="5" rx="5" y="6" x="6" height="38" width="38"
        fill="#f2f5e9" fill-opacity="0.5" stroke="#606060" stroke-width="1.0"/>
   <path id="arrow"
     d="M 11.500037,31.436501 C 11.940474,20.09759 22.043105,11.32322 32.158766,21.979434 L 37.068811,17.246167 C 37.068811,17.246167 37.088388,32 37.088388,32 L 22.160133,31.978069 C 22.160133,31.978069 26.997745,27.140456 26.997745,27.140456 C 18.528582,18.264221 13.291696,25.230495 11.500037,31.436501 z"
     style="fill:#404040;"/>
  </a>
 </g>
</svg>

<style type='text/css'>
<![CDATA[
[data-mouse-over-selected='false'] { opacity: 0.7; }
[data-mouse-over-selected='true']  { opacity: 1.0; }
]]>
</style>
<script type="application/ecmascript"><![CDATA[
document.addEventListener('DOMContentLoaded', (event) => {
  highlightEdges();
  highlightAdjacentNodes();
});
]]></script>
</svg>
