<?xml version="1.0" encoding="UTF-8" standalone="no"?>
<!DOCTYPE svg PUBLIC "-//W3C//DTD SVG 1.1//EN"
 "http://www.w3.org/Graphics/SVG/1.1/DTD/svg11.dtd">
<!-- Generated by graphviz version 14.1.2 (20260124.0452)
 -->
<!-- Title: depicture_menu/src/core/presentation/change_view_model/view_model_operation/ids_buffer.hpp Pages: 1 -->
<svg width="278pt" height="120pt"
 viewBox="0.00 0.00 278.00 120.00" xmlns="http://www.w3.org/2000/svg" xmlns:xlink="http://www.w3.org/1999/xlink">
<g id="graph0" class="graph" transform="scale(1 1) rotate(0) translate(4 116)">
<title>depicture_menu/src/core/presentation/change_view_model/view_model_operation/ids_buffer.hpp</title>
<!-- Node1 -->
<g id="Node000001" class="node">
<title>Node1</title>
<g id="a_Node000001"><a xlink:title=" ">
<polygon fill="#999999" stroke="#666666" points="210.25,-112 37.5,-112 37.5,-56 210.25,-56 210.25,-112"/>
<text xml:space="preserve" text-anchor="start" x="45.5" y="-98.5" font-family="Helvetica,sans-Serif" font-size="10.00">depicture_menu/src</text>
<text xml:space="preserve" text-anchor="start" x="45.5" y="-86.5" font-family="Helvetica,sans-Serif" font-size="10.00">/core/presentation/change</text>
<text xml:space="preserve" text-anchor="start" x="45.5" y="-74.5" font-family="Helvetica,sans-Serif" font-size="10.00">_view_model/view_model_operation</text>
<text xml:space="preserve" text-anchor="middle" x="123.88" y="-62.5" font-family="Helvetica,sans-Serif" font-size="10.00">/ids_buffer.hpp</text>
</a>
</g>
</g>
<!-- Node2 -->
<g id="Node000002" class="node">
<title>Node2</title>
<g id="a_Node000002"><a xlink:title=" ">
<polygon fill="#e0e0e0" stroke="#999999" points="55.75,-20 0,-20 0,0 55.75,0 55.75,-20"/>
<text xml:space="preserve" text-anchor="middle" x="27.88" y="-6.5" font-family="Helvetica,sans-Serif" font-size="10.00">algorithm</text>
</a>
</g>
</g>
<!-- Node1&#45;&gt;Node2 -->
<g id="edge1_Node000001_Node000002" class="edge">
<title>Node1&#45;&gt;Node2</title>
<g id="a_edge1_Node000001_Node000002"><a xlink:title=" ">
<path fill="none" stroke="#63b8ff" d="M87.31,-55.57C74.52,-45.98 60.59,-35.53 49.42,-27.16"/>
<polygon fill="#63b8ff" stroke="#63b8ff" points="51.74,-24.52 41.64,-21.32 47.54,-30.12 51.74,-24.52"/>
</a>
</g>
</g>
<!-- Node3 -->
<g id="Node000003" class="node">
<title>Node3</title>
<g id="a_Node000003"><a xlink:title=" ">
<polygon fill="#e0e0e0" stroke="#999999" points="174.25,-20 73.5,-20 73.5,0 174.25,0 174.25,-20"/>
<text xml:space="preserve" text-anchor="middle" x="123.88" y="-6.5" font-family="Helvetica,sans-Serif" font-size="10.00">boost/uuid/uuid.hpp</text>
</a>
</g>
</g>
<!-- Node1&#45;&gt;Node3 -->
<g id="edge2_Node000001_Node000003" class="edge">
<title>Node1&#45;&gt;Node3</title>
<g id="a_edge2_Node000001_Node000003"><a xlink:title=" ">
<path fill="none" stroke="#63b8ff" d="M123.88,-55.78C123.88,-47.82 123.88,-39.25 123.88,-31.76"/>
<polygon fill="#63b8ff" stroke="#63b8ff" points="127.38,-31.99 123.88,-21.99 120.38,-31.99 127.38,-31.99"/>
</a>
</g>
</g>
<!-- Node4 -->
<g id="Node000004" class="node">
<title>Node4</title>
<g id="a_Node000004"><a xlink:title=" ">
<polygon fill="#e0e0e0" stroke="#999999" points="269.62,-20 192.12,-20 192.12,0 269.62,0 269.62,-20"/>
<text xml:space="preserve" text-anchor="middle" x="230.88" y="-6.5" font-family="Helvetica,sans-Serif" font-size="10.00">unordered_set</text>
</a>
</g>
</g>
<!-- Node1&#45;&gt;Node4 -->
<g id="edge3_Node000001_Node000004" class="edge">
<title>Node1&#45;&gt;Node4</title>
<g id="a_edge3_Node000001_Node000004"><a xlink:title=" ">
<path fill="none" stroke="#63b8ff" d="M164.63,-55.57C179.17,-45.79 195.04,-35.11 207.61,-26.66"/>
<polygon fill="#63b8ff" stroke="#63b8ff" points="209.28,-29.75 215.63,-21.26 205.38,-23.94 209.28,-29.75"/>
</a>
</g>
</g>
</g>
</svg>
