<?xml version="1.0" encoding="UTF-8" standalone="no"?>
<!DOCTYPE svg PUBLIC "-//W3C//DTD SVG 1.1//EN"
 "http://www.w3.org/Graphics/SVG/1.1/DTD/svg11.dtd">
<!-- Generated by graphviz version 14.1.2 (20260124.0452)
 -->
<!-- Title: クラス階層図 Pages: 1 -->
<svg width="207pt" height="114pt"
 viewBox="0.00 0.00 207.00 114.00" xmlns="http://www.w3.org/2000/svg" xmlns:xlink="http://www.w3.org/1999/xlink">
<g id="graph0" class="graph" transform="scale(1 1) rotate(0) translate(4 110)">
<title>クラス階層図</title>
<!-- Node0 -->
<g id="Node000000" class="node">
<title>Node0</title>
<g id="a_Node000000"><a xlink:title=" ">
<polygon fill="#e0e0e0" stroke="#999999" points="40,-63 0,-63 0,-43 40,-43 40,-63"/>
<text xml:space="preserve" text-anchor="middle" x="20" y="-49.5" font-family="Helvetica,sans-Serif" font-size="10.00">Value</text>
</a>
</g>
</g>
<!-- Node1 -->
<g id="Node000001" class="node">
<title>Node1</title>
<g id="a_Node000001"><a xlink:href="structdepicture__menu_1_1domain_1_1models_1_1base_1_1entity__base.html" target="_top" xlink:title=" ">
<polygon fill="white" stroke="#666666" points="198.5,-106 76,-106 76,-62 198.5,-62 198.5,-106"/>
<text xml:space="preserve" text-anchor="start" x="84" y="-92.5" font-family="Helvetica,sans-Serif" font-size="10.00">depicture_menu::domain</text>
<text xml:space="preserve" text-anchor="start" x="84" y="-80.5" font-family="Helvetica,sans-Serif" font-size="10.00">::models::base::entity</text>
<text xml:space="preserve" text-anchor="middle" x="137.25" y="-68.5" font-family="Helvetica,sans-Serif" font-size="10.00">_base&lt; Value, IdTag &gt;</text>
</a>
</g>
</g>
<!-- Node0&#45;&gt;Node1 -->
<g id="edge91_Node000000_Node000001" class="edge">
<title>Node0&#45;&gt;Node1</title>
<g id="a_edge91_Node000000_Node000001"><a xlink:title=" ">
<path fill="none" stroke="darkgreen" d="M51.34,-61.16C58.85,-63.18 67.18,-65.42 75.59,-67.68"/>
<polygon fill="darkgreen" stroke="darkgreen" points="52.32,-57.8 41.75,-58.58 50.5,-64.56 52.32,-57.8"/>
</a>
</g>
</g>
<!-- Node2 -->
<g id="Node000002" class="node">
<title>Node2</title>
<g id="a_Node000002"><a xlink:href="structdepicture__menu_1_1domain_1_1models_1_1base_1_1entity__base.html" target="_top" xlink:title=" ">
<polygon fill="white" stroke="#666666" points="198.5,-44 76,-44 76,0 198.5,0 198.5,-44"/>
<text xml:space="preserve" text-anchor="start" x="84" y="-30.5" font-family="Helvetica,sans-Serif" font-size="10.00">depicture_menu::domain</text>
<text xml:space="preserve" text-anchor="start" x="84" y="-18.5" font-family="Helvetica,sans-Serif" font-size="10.00">::models::base::entity</text>
<text xml:space="preserve" text-anchor="middle" x="137.25" y="-6.5" font-family="Helvetica,sans-Serif" font-size="10.00">_base&lt; Value, IdTag &gt;</text>
</a>
</g>
</g>
<!-- Node0&#45;&gt;Node2 -->
<g id="edge92_Node000000_Node000002" class="edge">
<title>Node0&#45;&gt;Node2</title>
<g id="a_edge92_Node000000_Node000002"><a xlink:title=" ">
<path fill="none" stroke="darkgreen" d="M51.34,-44.84C58.85,-42.82 67.18,-40.58 75.59,-38.32"/>
<polygon fill="darkgreen" stroke="darkgreen" points="50.5,-41.44 41.75,-47.42 52.32,-48.2 50.5,-41.44"/>
</a>
</g>
</g>
</g>
</svg>
