<?xml version="1.0" encoding="UTF-8" standalone="no"?>
<!DOCTYPE svg PUBLIC "-//W3C//DTD SVG 1.1//EN"
 "http://www.w3.org/Graphics/SVG/1.1/DTD/svg11.dtd">
<!-- Generated by graphviz version 14.1.2 (20260124.0452)
 -->
<!-- Title: クラス階層図 Pages: 1 -->
<svg width="575pt" height="1308pt"
 viewBox="0.00 0.00 575.00 1308.00" xmlns="http://www.w3.org/2000/svg" xmlns:xlink="http://www.w3.org/1999/xlink">
<g id="graph0" class="graph" transform="scale(1 1) rotate(0) translate(4 1304)">
<title>クラス階層図</title>
<!-- Node0 -->
<g id="Node000000" class="node">
<title>Node0</title>
<g id="a_Node000000"><a xlink:title=" ">
<polygon fill="#e0e0e0" stroke="#999999" points="28.8,-626 0,-626 0,-606 28.8,-606 28.8,-626"/>
<text xml:space="preserve" text-anchor="middle" x="14.4" y="-612.5" font-family="Helvetica,sans-Serif" font-size="10.00">V</text>
</a>
</g>
</g>
<!-- Node1 -->
<g id="Node000001" class="node">
<title>Node1</title>
<g id="a_Node000001"><a xlink:href="structdepicture__menu_1_1domain_1_1models_1_1base_1_1entity__base.html" target="_top" xlink:title=" ">
<polygon fill="white" stroke="#666666" points="187.3,-946 64.8,-946 64.8,-902 187.3,-902 187.3,-946"/>
<text xml:space="preserve" text-anchor="start" x="72.8" y="-932.5" font-family="Helvetica,sans-Serif" font-size="10.00">depicture_menu::domain</text>
<text xml:space="preserve" text-anchor="start" x="72.8" y="-920.5" font-family="Helvetica,sans-Serif" font-size="10.00">::models::base::entity</text>
<text xml:space="preserve" text-anchor="middle" x="126.05" y="-908.5" font-family="Helvetica,sans-Serif" font-size="10.00">_base&lt; V, ID &gt;</text>
</a>
</g>
</g>
<!-- Node0&#45;&gt;Node1 -->
<g id="edge64_Node000000_Node000001" class="edge">
<title>Node0&#45;&gt;Node1</title>
<g id="a_edge64_Node000000_Node000001"><a xlink:title=" ">
<path fill="none" stroke="darkgreen" d="M22.83,-636.87C42.64,-692.53 96.61,-844.12 117.06,-901.55"/>
<polygon fill="darkgreen" stroke="darkgreen" points="26.21,-635.92 19.56,-627.67 19.61,-638.27 26.21,-635.92"/>
</a>
</g>
</g>
<!-- Node19 -->
<g id="Node000019" class="node">
<title>Node19</title>
<g id="a_Node000019"><a xlink:href="structdepicture__menu_1_1domain_1_1models_1_1base_1_1value__object__base.html" target="_top" xlink:title=" ">
<polygon fill="white" stroke="#666666" points="187.3,-361 64.8,-361 64.8,-317 187.3,-317 187.3,-361"/>
<text xml:space="preserve" text-anchor="start" x="72.8" y="-347.5" font-family="Helvetica,sans-Serif" font-size="10.00">depicture_menu::domain</text>
<text xml:space="preserve" text-anchor="start" x="72.8" y="-335.5" font-family="Helvetica,sans-Serif" font-size="10.00">::models::base::value</text>
<text xml:space="preserve" text-anchor="middle" x="126.05" y="-323.5" font-family="Helvetica,sans-Serif" font-size="10.00">_object_base&lt; V &gt;</text>
</a>
</g>
</g>
<!-- Node0&#45;&gt;Node19 -->
<g id="edge82_Node000000_Node000019" class="edge">
<title>Node0&#45;&gt;Node19</title>
<g id="a_edge82_Node000000_Node000019"><a xlink:title=" ">
<path fill="none" stroke="#63b8ff" d="M23.64,-595.19C43.79,-544.28 95.42,-413.85 116.2,-361.37"/>
<polygon fill="#63b8ff" stroke="#63b8ff" points="20.42,-593.82 19.99,-604.41 26.92,-596.4 20.42,-593.82"/>
</a>
</g>
</g>
<!-- Node2 -->
<g id="Node000002" class="node">
<title>Node2</title>
<g id="a_Node000002"><a xlink:href="structdepicture__menu_1_1domain_1_1models_1_1aggregate__base.html" target="_top" xlink:title=" ">
<polygon fill="white" stroke="#666666" points="384.8,-1300 226.3,-1300 226.3,-1256 384.8,-1256 384.8,-1300"/>
<text xml:space="preserve" text-anchor="start" x="234.3" y="-1286.5" font-family="Helvetica,sans-Serif" font-size="10.00">depicture_menu::domain</text>
<text xml:space="preserve" text-anchor="start" x="234.3" y="-1274.5" font-family="Helvetica,sans-Serif" font-size="10.00">::models::aggregate_base</text>
<text xml:space="preserve" text-anchor="middle" x="305.55" y="-1262.5" font-family="Helvetica,sans-Serif" font-size="10.00">&lt; Value, Id, Event, EventStore &gt;</text>
</a>
</g>
</g>
<!-- Node1&#45;&gt;Node2 -->
<g id="edge65_Node000001_Node000002" class="edge">
<title>Node1&#45;&gt;Node2</title>
<g id="a_edge65_Node000001_Node000002"><a xlink:title=" ">
<path fill="none" stroke="#63b8ff" d="M127.71,-957.96C130.78,-1022.58 146.47,-1164.19 223.3,-1247 226.28,-1250.21 229.62,-1253.09 233.22,-1255.67"/>
<polygon fill="#63b8ff" stroke="#63b8ff" points="131.21,-957.83 127.32,-947.97 124.21,-958.1 131.21,-957.83"/>
</a>
</g>
</g>
<!-- Node3 -->
<g id="Node000003" class="node">
<title>Node3</title>
<g id="a_Node000003"><a xlink:href="structdepicture__menu_1_1domain_1_1models_1_1aggregate__base.html" target="_top" xlink:title=" ">
<polygon fill="white" stroke="#666666" points="369.8,-1238 241.3,-1238 241.3,-1194 369.8,-1194 369.8,-1238"/>
<text xml:space="preserve" text-anchor="start" x="249.3" y="-1224.5" font-family="Helvetica,sans-Serif" font-size="10.00">depicture_menu::domain</text>
<text xml:space="preserve" text-anchor="start" x="249.3" y="-1212.5" font-family="Helvetica,sans-Serif" font-size="10.00">::models::aggregate_base</text>
<text xml:space="preserve" text-anchor="middle" x="305.55" y="-1200.5" font-family="Helvetica,sans-Serif" font-size="10.00">&lt; value_t, ID &gt;</text>
</a>
</g>
</g>
<!-- Node1&#45;&gt;Node3 -->
<g id="edge66_Node000001_Node000003" class="edge">
<title>Node1&#45;&gt;Node3</title>
<g id="a_edge66_Node000001_Node000003"><a xlink:title=" ">
<path fill="none" stroke="#63b8ff" d="M130.5,-957.26C137.87,-1011.9 160.03,-1121.01 223.3,-1185 228.4,-1190.15 234.44,-1194.46 240.89,-1198.07"/>
<polygon fill="#63b8ff" stroke="#63b8ff" points="134.01,-957.13 129.29,-947.65 127.06,-958 134.01,-957.13"/>
</a>
</g>
</g>
<!-- Node4 -->
<g id="Node000004" class="node">
<title>Node4</title>
<g id="a_Node000004"><a xlink:href="structdepicture__menu_1_1domain_1_1models_1_1aggregate__base.html" target="_top" xlink:title=" ">
<polygon fill="white" stroke="#666666" points="378.42,-1176 232.67,-1176 232.67,-1108 378.42,-1108 378.42,-1176"/>
<text xml:space="preserve" text-anchor="start" x="240.67" y="-1162.5" font-family="Helvetica,sans-Serif" font-size="10.00">depicture_menu::domain</text>
<text xml:space="preserve" text-anchor="start" x="240.67" y="-1150.5" font-family="Helvetica,sans-Serif" font-size="10.00">::models::aggregate_base</text>
<text xml:space="preserve" text-anchor="start" x="240.67" y="-1138.5" font-family="Helvetica,sans-Serif" font-size="10.00">&lt; detail_test_tools::value</text>
<text xml:space="preserve" text-anchor="start" x="240.67" y="-1126.5" font-family="Helvetica,sans-Serif" font-size="10.00">_holder&lt; T &gt;, domain::models</text>
<text xml:space="preserve" text-anchor="middle" x="305.55" y="-1114.5" font-family="Helvetica,sans-Serif" font-size="10.00">::entity_id &gt;</text>
</a>
</g>
</g>
<!-- Node1&#45;&gt;Node4 -->
<g id="edge67_Node000001_Node000004" class="edge">
<title>Node1&#45;&gt;Node4</title>
<g id="a_edge67_Node000001_Node000004"><a xlink:title=" ">
<path fill="none" stroke="#63b8ff" d="M138.41,-956.77C153.02,-994.92 181.57,-1057.94 223.3,-1099 226.37,-1102.02 229.7,-1104.89 233.19,-1107.59"/>
<polygon fill="#63b8ff" stroke="#63b8ff" points="141.79,-955.81 135.03,-947.66 135.23,-958.25 141.79,-955.81"/>
</a>
</g>
</g>
<!-- Node6 -->
<g id="Node000006" class="node">
<title>Node6</title>
<g id="a_Node000006"><a xlink:href="classdepicture__menu_1_1domain_1_1actions_1_1v2_1_1action.html" target="_top" xlink:title=" ">
<polygon fill="white" stroke="#666666" points="366.8,-1090 244.3,-1090 244.3,-1058 366.8,-1058 366.8,-1090"/>
<text xml:space="preserve" text-anchor="start" x="252.3" y="-1076.5" font-family="Helvetica,sans-Serif" font-size="10.00">depicture_menu::domain</text>
<text xml:space="preserve" text-anchor="middle" x="305.55" y="-1064.5" font-family="Helvetica,sans-Serif" font-size="10.00">::actions::v2::action</text>
</a>
</g>
</g>
<!-- Node1&#45;&gt;Node6 -->
<g id="edge69_Node000001_Node000006" class="edge">
<title>Node1&#45;&gt;Node6</title>
<g id="a_edge69_Node000001_Node000006"><a xlink:title=" ">
<path fill="none" stroke="#63b8ff" d="M144.18,-956.22C160.83,-984.56 188.63,-1024.94 223.3,-1049 229.61,-1053.37 236.7,-1057 244.01,-1060.01"/>
<polygon fill="#63b8ff" stroke="#63b8ff" points="147.31,-954.65 139.32,-947.7 141.23,-958.12 147.31,-954.65"/>
</a>
</g>
</g>
<!-- Node7 -->
<g id="Node000007" class="node">
<title>Node7</title>
<g id="a_Node000007"><a xlink:href="classdepicture__menu_1_1domain_1_1actions_1_1v2_1_1publisher.html" target="_top" xlink:title=" ">
<polygon fill="white" stroke="#666666" points="366.8,-1040 244.3,-1040 244.3,-1008 366.8,-1008 366.8,-1040"/>
<text xml:space="preserve" text-anchor="start" x="252.3" y="-1026.5" font-family="Helvetica,sans-Serif" font-size="10.00">depicture_menu::domain</text>
<text xml:space="preserve" text-anchor="middle" x="305.55" y="-1014.5" font-family="Helvetica,sans-Serif" font-size="10.00">::actions::v2::publisher</text>
</a>
</g>
</g>
<!-- Node1&#45;&gt;Node7 -->
<g id="edge70_Node000001_Node000007" class="edge">
<title>Node1&#45;&gt;Node7</title>
<g id="a_edge70_Node000001_Node000007"><a xlink:title=" ">
<path fill="none" stroke="#63b8ff" d="M158.96,-953.67C176.79,-968.96 200.05,-986.89 223.3,-999 229.84,-1002.41 236.93,-1005.44 244.1,-1008.11"/>
<polygon fill="#63b8ff" stroke="#63b8ff" points="161.63,-951.36 151.8,-947.41 157.02,-956.63 161.63,-951.36"/>
</a>
</g>
</g>
<!-- Node8 -->
<g id="Node000008" class="node">
<title>Node8</title>
<g id="a_Node000008"><a xlink:href="classdepicture__menu_1_1domain_1_1app_1_1config.html" target="_top" xlink:title=" ">
<polygon fill="white" stroke="#666666" points="366.8,-990 244.3,-990 244.3,-958 366.8,-958 366.8,-990"/>
<text xml:space="preserve" text-anchor="start" x="252.3" y="-976.5" font-family="Helvetica,sans-Serif" font-size="10.00">depicture_menu::domain</text>
<text xml:space="preserve" text-anchor="middle" x="305.55" y="-964.5" font-family="Helvetica,sans-Serif" font-size="10.00">::app::config</text>
</a>
</g>
</g>
<!-- Node1&#45;&gt;Node8 -->
<g id="edge71_Node000001_Node000008" class="edge">
<title>Node1&#45;&gt;Node8</title>
<g id="a_edge71_Node000001_Node000008"><a xlink:title=" ">
<path fill="none" stroke="#63b8ff" d="M198.43,-944.11C214.24,-948.56 230.81,-953.23 246.03,-957.52"/>
<polygon fill="#63b8ff" stroke="#63b8ff" points="199.67,-940.82 189.1,-941.48 197.77,-947.56 199.67,-940.82"/>
</a>
</g>
</g>
<!-- Node9 -->
<g id="Node000009" class="node">
<title>Node9</title>
<g id="a_Node000009"><a xlink:href="classdepicture__menu_1_1domain_1_1app_1_1option.html" target="_top" xlink:title=" ">
<polygon fill="white" stroke="#666666" points="366.8,-940 244.3,-940 244.3,-908 366.8,-908 366.8,-940"/>
<text xml:space="preserve" text-anchor="start" x="252.3" y="-926.5" font-family="Helvetica,sans-Serif" font-size="10.00">depicture_menu::domain</text>
<text xml:space="preserve" text-anchor="middle" x="305.55" y="-914.5" font-family="Helvetica,sans-Serif" font-size="10.00">::app::option</text>
</a>
</g>
</g>
<!-- Node1&#45;&gt;Node9 -->
<g id="edge72_Node000001_Node000009" class="edge">
<title>Node1&#45;&gt;Node9</title>
<g id="a_edge72_Node000001_Node000009"><a xlink:title=" ">
<path fill="none" stroke="#63b8ff" d="M198.9,-924C213.84,-924 229.45,-924 243.93,-924"/>
<polygon fill="#63b8ff" stroke="#63b8ff" points="199.15,-920.5 189.15,-924 199.15,-927.5 199.15,-920.5"/>
</a>
</g>
</g>
<!-- Node10 -->
<g id="Node000010" class="node">
<title>Node10</title>
<g id="a_Node000010"><a xlink:href="classdepicture__menu_1_1domain_1_1commands_1_1command.html" target="_top" xlink:title=" ">
<polygon fill="white" stroke="#666666" points="366.8,-890 244.3,-890 244.3,-858 366.8,-858 366.8,-890"/>
<text xml:space="preserve" text-anchor="start" x="252.3" y="-876.5" font-family="Helvetica,sans-Serif" font-size="10.00">depicture_menu::domain</text>
<text xml:space="preserve" text-anchor="middle" x="305.55" y="-864.5" font-family="Helvetica,sans-Serif" font-size="10.00">::commands::command</text>
</a>
</g>
</g>
<!-- Node1&#45;&gt;Node10 -->
<g id="edge73_Node000001_Node000010" class="edge">
<title>Node1&#45;&gt;Node10</title>
<g id="a_edge73_Node000001_Node000010"><a xlink:title=" ">
<path fill="none" stroke="#63b8ff" d="M198.43,-903.89C214.24,-899.44 230.81,-894.77 246.03,-890.48"/>
<polygon fill="#63b8ff" stroke="#63b8ff" points="197.77,-900.44 189.1,-906.52 199.67,-907.18 197.77,-900.44"/>
</a>
</g>
</g>
<!-- Node11 -->
<g id="Node000011" class="node">
<title>Node11</title>
<g id="a_Node000011"><a xlink:href="classdepicture__menu_1_1domain_1_1commands_1_1invoker.html" target="_top" xlink:title=" ">
<polygon fill="white" stroke="#666666" points="366.8,-840 244.3,-840 244.3,-808 366.8,-808 366.8,-840"/>
<text xml:space="preserve" text-anchor="start" x="252.3" y="-826.5" font-family="Helvetica,sans-Serif" font-size="10.00">depicture_menu::domain</text>
<text xml:space="preserve" text-anchor="middle" x="305.55" y="-814.5" font-family="Helvetica,sans-Serif" font-size="10.00">::commands::invoker</text>
</a>
</g>
</g>
<!-- Node1&#45;&gt;Node11 -->
<g id="edge74_Node000001_Node000011" class="edge">
<title>Node1&#45;&gt;Node11</title>
<g id="a_edge74_Node000001_Node000011"><a xlink:title=" ">
<path fill="none" stroke="#63b8ff" d="M158.96,-894.33C176.79,-879.04 200.05,-861.11 223.3,-849 229.84,-845.59 236.93,-842.56 244.1,-839.89"/>
<polygon fill="#63b8ff" stroke="#63b8ff" points="157.02,-891.37 151.8,-900.59 161.63,-896.64 157.02,-891.37"/>
</a>
</g>
</g>
<!-- Node12 -->
<g id="Node000012" class="node">
<title>Node12</title>
<g id="a_Node000012"><a xlink:href="structdepicture__menu_1_1domain_1_1menu_1_1radialmenu.html" target="_top" xlink:title=" ">
<polygon fill="white" stroke="#666666" points="366.8,-790 244.3,-790 244.3,-758 366.8,-758 366.8,-790"/>
<text xml:space="preserve" text-anchor="start" x="252.3" y="-776.5" font-family="Helvetica,sans-Serif" font-size="10.00">depicture_menu::domain</text>
<text xml:space="preserve" text-anchor="middle" x="305.55" y="-764.5" font-family="Helvetica,sans-Serif" font-size="10.00">::menu::radialmenu</text>
</a>
</g>
</g>
<!-- Node1&#45;&gt;Node12 -->
<g id="edge75_Node000001_Node000012" class="edge">
<title>Node1&#45;&gt;Node12</title>
<g id="a_edge75_Node000001_Node000012"><a xlink:title=" ">
<path fill="none" stroke="#63b8ff" d="M144.18,-891.78C160.83,-863.44 188.63,-823.06 223.3,-799 229.61,-794.63 236.7,-791 244.01,-787.99"/>
<polygon fill="#63b8ff" stroke="#63b8ff" points="141.23,-889.88 139.32,-900.3 147.31,-893.35 141.23,-889.88"/>
</a>
</g>
</g>
<!-- Node13 -->
<g id="Node000013" class="node">
<title>Node13</title>
<g id="a_Node000013"><a xlink:href="classdepicture__menu_1_1domain_1_1menu_1_1radialmenu__centralitem.html" target="_top" xlink:title=" ">
<polygon fill="white" stroke="#666666" points="381.8,-740 229.3,-740 229.3,-708 381.8,-708 381.8,-740"/>
<text xml:space="preserve" text-anchor="start" x="237.3" y="-726.5" font-family="Helvetica,sans-Serif" font-size="10.00">depicture_menu::domain</text>
<text xml:space="preserve" text-anchor="middle" x="305.55" y="-714.5" font-family="Helvetica,sans-Serif" font-size="10.00">::menu::radialmenu_centralitem</text>
</a>
</g>
</g>
<!-- Node1&#45;&gt;Node13 -->
<g id="edge76_Node000001_Node000013" class="edge">
<title>Node1&#45;&gt;Node13</title>
<g id="a_edge76_Node000001_Node000013"><a xlink:title=" ">
<path fill="none" stroke="#63b8ff" d="M136.81,-890.76C150.08,-851.33 177.53,-786.26 223.3,-749 227.31,-745.74 231.74,-742.9 236.4,-740.44"/>
<polygon fill="#63b8ff" stroke="#63b8ff" points="133.51,-889.6 133.76,-900.19 140.17,-891.76 133.51,-889.6"/>
</a>
</g>
</g>
<!-- Node14 -->
<g id="Node000014" class="node">
<title>Node14</title>
<g id="a_Node000014"><a xlink:href="structdepicture__menu_1_1domain_1_1models_1_1aggregate__base.html" target="_top" xlink:title=" ">
<polygon fill="white" stroke="#666666" points="384.8,-690 226.3,-690 226.3,-646 384.8,-646 384.8,-690"/>
<text xml:space="preserve" text-anchor="start" x="234.3" y="-676.5" font-family="Helvetica,sans-Serif" font-size="10.00">depicture_menu::domain</text>
<text xml:space="preserve" text-anchor="start" x="234.3" y="-664.5" font-family="Helvetica,sans-Serif" font-size="10.00">::models::aggregate_base</text>
<text xml:space="preserve" text-anchor="middle" x="305.55" y="-652.5" font-family="Helvetica,sans-Serif" font-size="10.00">&lt; Value, Id, Event, EventStore &gt;</text>
</a>
</g>
</g>
<!-- Node1&#45;&gt;Node14 -->
<g id="edge77_Node000001_Node000014" class="edge">
<title>Node1&#45;&gt;Node14</title>
<g id="a_edge77_Node000001_Node000014"><a xlink:title=" ">
<path fill="none" stroke="#63b8ff" d="M132.86,-890.41C142.94,-841.85 168.12,-752.03 223.3,-699 226.57,-695.86 230.18,-693.03 234.02,-690.48"/>
<polygon fill="#63b8ff" stroke="#63b8ff" points="129.46,-889.57 130.96,-900.06 136.33,-890.92 129.46,-889.57"/>
</a>
</g>
</g>
<!-- Node5 -->
<g id="Node000005" class="node">
<title>Node5</title>
<g id="a_Node000005"><a xlink:href="structdepicture__menu_1_1test_1_1test__tools_1_1mock__aggregate.html" target="_top" xlink:title=" ">
<polygon fill="white" stroke="#666666" points="566.55,-1164 423.8,-1164 423.8,-1120 566.55,-1120 566.55,-1164"/>
<text xml:space="preserve" text-anchor="start" x="431.8" y="-1150.5" font-family="Helvetica,sans-Serif" font-size="10.00">depicture_menu::test</text>
<text xml:space="preserve" text-anchor="start" x="431.8" y="-1138.5" font-family="Helvetica,sans-Serif" font-size="10.00">::test_tools::mock_aggregate</text>
<text xml:space="preserve" text-anchor="middle" x="495.17" y="-1126.5" font-family="Helvetica,sans-Serif" font-size="10.00">&lt; T, ID &gt;</text>
</a>
</g>
</g>
<!-- Node4&#45;&gt;Node5 -->
<g id="edge68_Node000004_Node000005" class="edge">
<title>Node4&#45;&gt;Node5</title>
<g id="a_edge68_Node000004_Node000005"><a xlink:title=" ">
<path fill="none" stroke="#63b8ff" d="M390.28,-1142C401.37,-1142 412.65,-1142 423.49,-1142"/>
<polygon fill="#63b8ff" stroke="#63b8ff" points="390.34,-1138.5 380.34,-1142 390.34,-1145.5 390.34,-1138.5"/>
</a>
</g>
</g>
<!-- Node15 -->
<g id="Node000015" class="node">
<title>Node15</title>
<g id="a_Node000015"><a xlink:href="structdepicture__menu_1_1test_1_1test__tools_1_1mock__aggregate.html" target="_top" xlink:title=" ">
<polygon fill="white" stroke="#666666" points="566.55,-783 423.8,-783 423.8,-739 566.55,-739 566.55,-783"/>
<text xml:space="preserve" text-anchor="start" x="431.8" y="-769.5" font-family="Helvetica,sans-Serif" font-size="10.00">depicture_menu::test</text>
<text xml:space="preserve" text-anchor="start" x="431.8" y="-757.5" font-family="Helvetica,sans-Serif" font-size="10.00">::test_tools::mock_aggregate</text>
<text xml:space="preserve" text-anchor="middle" x="495.17" y="-745.5" font-family="Helvetica,sans-Serif" font-size="10.00">&lt; int &gt;</text>
</a>
</g>
</g>
<!-- Node14&#45;&gt;Node15 -->
<g id="edge78_Node000014_Node000015" class="edge">
<title>Node14&#45;&gt;Node15</title>
<g id="a_edge78_Node000014_Node000015"><a xlink:title=" ">
<path fill="none" stroke="#63b8ff" d="M381.57,-695.47C383.69,-696.62 385.77,-697.79 387.8,-699 405.94,-709.81 405.94,-718.73 423.8,-730 428.54,-732.99 433.62,-735.84 438.8,-738.5"/>
<polygon fill="#63b8ff" stroke="#63b8ff" points="383.25,-692.4 372.74,-691.04 380.11,-698.66 383.25,-692.4"/>
</a>
</g>
</g>
<!-- Node16 -->
<g id="Node000016" class="node">
<title>Node16</title>
<g id="a_Node000016"><a xlink:href="structdepicture__menu_1_1test_1_1test__tools_1_1mock__aggregate.html" target="_top" xlink:title=" ">
<polygon fill="white" stroke="#666666" points="566.55,-721 423.8,-721 423.8,-677 566.55,-677 566.55,-721"/>
<text xml:space="preserve" text-anchor="start" x="431.8" y="-707.5" font-family="Helvetica,sans-Serif" font-size="10.00">depicture_menu::test</text>
<text xml:space="preserve" text-anchor="start" x="431.8" y="-695.5" font-family="Helvetica,sans-Serif" font-size="10.00">::test_tools::mock_aggregate</text>
<text xml:space="preserve" text-anchor="middle" x="495.17" y="-683.5" font-family="Helvetica,sans-Serif" font-size="10.00">&lt; int, int_id &gt;</text>
</a>
</g>
</g>
<!-- Node14&#45;&gt;Node16 -->
<g id="edge79_Node000014_Node000016" class="edge">
<title>Node14&#45;&gt;Node16</title>
<g id="a_edge79_Node000014_Node000016"><a xlink:title=" ">
<path fill="none" stroke="#63b8ff" d="M396.17,-682.81C405.33,-684.32 414.56,-685.85 423.48,-687.32"/>
<polygon fill="#63b8ff" stroke="#63b8ff" points="396.96,-679.39 386.53,-681.21 395.82,-686.3 396.96,-679.39"/>
</a>
</g>
</g>
<!-- Node17 -->
<g id="Node000017" class="node">
<title>Node17</title>
<g id="a_Node000017"><a xlink:href="structdepicture__menu_1_1test_1_1test__tools_1_1mock__aggregate.html" target="_top" xlink:title=" ">
<polygon fill="white" stroke="#666666" points="566.55,-659 423.8,-659 423.8,-615 566.55,-615 566.55,-659"/>
<text xml:space="preserve" text-anchor="start" x="431.8" y="-645.5" font-family="Helvetica,sans-Serif" font-size="10.00">depicture_menu::test</text>
<text xml:space="preserve" text-anchor="start" x="431.8" y="-633.5" font-family="Helvetica,sans-Serif" font-size="10.00">::test_tools::mock_aggregate</text>
<text xml:space="preserve" text-anchor="middle" x="495.17" y="-621.5" font-family="Helvetica,sans-Serif" font-size="10.00">&lt; std::string, str_id &gt;</text>
</a>
</g>
</g>
<!-- Node14&#45;&gt;Node17 -->
<g id="edge80_Node000014_Node000017" class="edge">
<title>Node14&#45;&gt;Node17</title>
<g id="a_edge80_Node000014_Node000017"><a xlink:title=" ">
<path fill="none" stroke="#63b8ff" d="M396.17,-653.19C405.33,-651.68 414.56,-650.15 423.48,-648.68"/>
<polygon fill="#63b8ff" stroke="#63b8ff" points="395.82,-649.7 386.53,-654.79 396.96,-656.61 395.82,-649.7"/>
</a>
</g>
</g>
<!-- Node18 -->
<g id="Node000018" class="node">
<title>Node18</title>
<g id="a_Node000018"><a xlink:href="structdepicture__menu_1_1test_1_1test__tools_1_1mock__aggregate.html" target="_top" xlink:title=" ">
<polygon fill="white" stroke="#666666" points="566.55,-597 423.8,-597 423.8,-553 566.55,-553 566.55,-597"/>
<text xml:space="preserve" text-anchor="start" x="431.8" y="-583.5" font-family="Helvetica,sans-Serif" font-size="10.00">depicture_menu::test</text>
<text xml:space="preserve" text-anchor="start" x="431.8" y="-571.5" font-family="Helvetica,sans-Serif" font-size="10.00">::test_tools::mock_aggregate</text>
<text xml:space="preserve" text-anchor="middle" x="495.17" y="-559.5" font-family="Helvetica,sans-Serif" font-size="10.00">&lt; double, double_id &gt;</text>
</a>
</g>
</g>
<!-- Node14&#45;&gt;Node18 -->
<g id="edge81_Node000014_Node000018" class="edge">
<title>Node14&#45;&gt;Node18</title>
<g id="a_edge81_Node000014_Node000018"><a xlink:title=" ">
<path fill="none" stroke="#63b8ff" d="M381.57,-640.53C383.69,-639.38 385.77,-638.21 387.8,-637 405.94,-626.19 405.94,-617.27 423.8,-606 428.54,-603.01 433.62,-600.16 438.8,-597.5"/>
<polygon fill="#63b8ff" stroke="#63b8ff" points="380.11,-637.34 372.74,-644.96 383.25,-643.6 380.11,-637.34"/>
</a>
</g>
</g>
<!-- Node20 -->
<g id="Node000020" class="node">
<title>Node20</title>
<g id="a_Node000020"><a xlink:href="classdepicture__menu_1_1domain_1_1actions_1_1action__name.html" target="_top" xlink:title=" ">
<polygon fill="white" stroke="#666666" points="366.8,-628 244.3,-628 244.3,-596 366.8,-596 366.8,-628"/>
<text xml:space="preserve" text-anchor="start" x="252.3" y="-614.5" font-family="Helvetica,sans-Serif" font-size="10.00">depicture_menu::domain</text>
<text xml:space="preserve" text-anchor="middle" x="305.55" y="-602.5" font-family="Helvetica,sans-Serif" font-size="10.00">::actions::action_name</text>
</a>
</g>
</g>
<!-- Node19&#45;&gt;Node20 -->
<g id="edge83_Node000019_Node000020" class="edge">
<title>Node19&#45;&gt;Node20</title>
<g id="a_edge83_Node000019_Node000020"><a xlink:title=" ">
<path fill="none" stroke="#63b8ff" d="M130.78,-372.61C138.45,-425.71 160.91,-528.93 223.3,-587 229.24,-592.53 236.38,-596.84 243.93,-600.19"/>
<polygon fill="#63b8ff" stroke="#63b8ff" points="134.28,-372.41 129.48,-362.96 127.35,-373.34 134.28,-372.41"/>
</a>
</g>
</g>
<!-- Node21 -->
<g id="Node000021" class="node">
<title>Node21</title>
<g id="a_Node000021"><a xlink:href="classdepicture__menu_1_1domain_1_1actions_1_1buildin_1_1shellexecute__action__parameter.html" target="_top" xlink:title=" ">
<polygon fill="white" stroke="#666666" points="379.55,-578 231.55,-578 231.55,-534 379.55,-534 379.55,-578"/>
<text xml:space="preserve" text-anchor="start" x="239.55" y="-564.5" font-family="Helvetica,sans-Serif" font-size="10.00">depicture_menu::domain</text>
<text xml:space="preserve" text-anchor="start" x="239.55" y="-552.5" font-family="Helvetica,sans-Serif" font-size="10.00">::actions::buildin::shellexecute</text>
<text xml:space="preserve" text-anchor="middle" x="305.55" y="-540.5" font-family="Helvetica,sans-Serif" font-size="10.00">_action_parameter</text>
</a>
</g>
</g>
<!-- Node19&#45;&gt;Node21 -->
<g id="edge84_Node000019_Node000021" class="edge">
<title>Node19&#45;&gt;Node21</title>
<g id="a_edge84_Node000019_Node000021"><a xlink:title=" ">
<path fill="none" stroke="#63b8ff" d="M136.2,-372.27C149.14,-413.46 176.57,-483.28 223.3,-525 226.9,-528.22 230.88,-531.12 235.07,-533.72"/>
<polygon fill="#63b8ff" stroke="#63b8ff" points="139.62,-371.46 133.37,-362.9 132.92,-373.49 139.62,-371.46"/>
</a>
</g>
</g>
<!-- Node22 -->
<g id="Node000022" class="node">
<title>Node22</title>
<g id="a_Node000022"><a xlink:href="classdepicture__menu_1_1domain_1_1actions_1_1v2_1_1action__sequence.html" target="_top" xlink:title=" ">
<polygon fill="white" stroke="#666666" points="366.8,-516 244.3,-516 244.3,-472 366.8,-472 366.8,-516"/>
<text xml:space="preserve" text-anchor="start" x="252.3" y="-502.5" font-family="Helvetica,sans-Serif" font-size="10.00">depicture_menu::domain</text>
<text xml:space="preserve" text-anchor="start" x="252.3" y="-490.5" font-family="Helvetica,sans-Serif" font-size="10.00">::actions::v2::action</text>
<text xml:space="preserve" text-anchor="middle" x="305.55" y="-478.5" font-family="Helvetica,sans-Serif" font-size="10.00">_sequence</text>
</a>
</g>
</g>
<!-- Node19&#45;&gt;Node22 -->
<g id="edge85_Node000019_Node000022" class="edge">
<title>Node19&#45;&gt;Node22</title>
<g id="a_edge85_Node000019_Node000022"><a xlink:title=" ">
<path fill="none" stroke="#63b8ff" d="M144.92,-370.91C161.89,-398.64 189.76,-438.15 223.3,-463 229.61,-467.67 236.71,-471.73 244.01,-475.22"/>
<polygon fill="#63b8ff" stroke="#63b8ff" points="148.08,-369.37 139.95,-362.58 142.07,-372.96 148.08,-369.37"/>
</a>
</g>
</g>
<!-- Node23 -->
<g id="Node000023" class="node">
<title>Node23</title>
<g id="a_Node000023"><a xlink:href="classdepicture__menu_1_1domain_1_1commands_1_1buildin_1_1close__menu__command__parameter.html" target="_top" xlink:title=" ">
<polygon fill="white" stroke="#666666" points="376.55,-454 234.55,-454 234.55,-410 376.55,-410 376.55,-454"/>
<text xml:space="preserve" text-anchor="start" x="242.55" y="-440.5" font-family="Helvetica,sans-Serif" font-size="10.00">depicture_menu::domain</text>
<text xml:space="preserve" text-anchor="start" x="242.55" y="-428.5" font-family="Helvetica,sans-Serif" font-size="10.00">::commands::buildin::close</text>
<text xml:space="preserve" text-anchor="middle" x="305.55" y="-416.5" font-family="Helvetica,sans-Serif" font-size="10.00">_menu_command_parameter</text>
</a>
</g>
</g>
<!-- Node19&#45;&gt;Node23 -->
<g id="edge86_Node000019_Node000023" class="edge">
<title>Node19&#45;&gt;Node23</title>
<g id="a_edge86_Node000019_Node000023"><a xlink:title=" ">
<path fill="none" stroke="#63b8ff" d="M167.63,-367.8C184.39,-378.99 204.32,-391.4 223.3,-401 229.23,-404 235.52,-406.88 241.87,-409.6"/>
<polygon fill="#63b8ff" stroke="#63b8ff" points="169.64,-364.94 159.4,-362.23 165.72,-370.74 169.64,-364.94"/>
</a>
</g>
</g>
<!-- Node24 -->
<g id="Node000024" class="node">
<title>Node24</title>
<g id="a_Node000024"><a xlink:href="classdepicture__menu_1_1domain_1_1commands_1_1buildin_1_1nop__command__parameter.html" target="_top" xlink:title=" ">
<polygon fill="white" stroke="#666666" points="368.3,-392 242.8,-392 242.8,-348 368.3,-348 368.3,-392"/>
<text xml:space="preserve" text-anchor="start" x="250.8" y="-378.5" font-family="Helvetica,sans-Serif" font-size="10.00">depicture_menu::domain</text>
<text xml:space="preserve" text-anchor="start" x="250.8" y="-366.5" font-family="Helvetica,sans-Serif" font-size="10.00">::commands::buildin::nop</text>
<text xml:space="preserve" text-anchor="middle" x="305.55" y="-354.5" font-family="Helvetica,sans-Serif" font-size="10.00">_command_parameter</text>
</a>
</g>
</g>
<!-- Node19&#45;&gt;Node24 -->
<g id="edge87_Node000019_Node000024" class="edge">
<title>Node19&#45;&gt;Node24</title>
<g id="a_edge87_Node000019_Node000024"><a xlink:title=" ">
<path fill="none" stroke="#63b8ff" d="M198.59,-351.49C213.11,-354.03 228.26,-356.68 242.42,-359.15"/>
<polygon fill="#63b8ff" stroke="#63b8ff" points="199.58,-348.11 189.13,-349.84 198.38,-355.01 199.58,-348.11"/>
</a>
</g>
</g>
<!-- Node25 -->
<g id="Node000025" class="node">
<title>Node25</title>
<g id="a_Node000025"><a xlink:href="classdepicture__menu_1_1domain_1_1commands_1_1buildin_1_1open__menu__command__parameter.html" target="_top" xlink:title="@TODO rename open_sub_menu_command_parameter">
<polygon fill="white" stroke="#666666" points="376.55,-330 234.55,-330 234.55,-286 376.55,-286 376.55,-330"/>
<text xml:space="preserve" text-anchor="start" x="242.55" y="-316.5" font-family="Helvetica,sans-Serif" font-size="10.00">depicture_menu::domain</text>
<text xml:space="preserve" text-anchor="start" x="242.55" y="-304.5" font-family="Helvetica,sans-Serif" font-size="10.00">::commands::buildin::open</text>
<text xml:space="preserve" text-anchor="middle" x="305.55" y="-292.5" font-family="Helvetica,sans-Serif" font-size="10.00">_menu_command_parameter</text>
</a>
</g>
</g>
<!-- Node19&#45;&gt;Node25 -->
<g id="edge88_Node000019_Node000025" class="edge">
<title>Node19&#45;&gt;Node25</title>
<g id="a_edge88_Node000019_Node000025"><a xlink:title=" ">
<path fill="none" stroke="#63b8ff" d="M198.69,-326.49C210.38,-324.45 222.49,-322.33 234.15,-320.3"/>
<polygon fill="#63b8ff" stroke="#63b8ff" points="198.38,-322.99 189.13,-328.16 199.58,-329.89 198.38,-322.99"/>
</a>
</g>
</g>
<!-- Node26 -->
<g id="Node000026" class="node">
<title>Node26</title>
<g id="a_Node000026"><a xlink:href="classdepicture__menu_1_1domain_1_1commands_1_1buildin_1_1shellexecute__command__parameter.html" target="_top" xlink:title="シェル実行コマンドパラメータ ValueObject">
<polygon fill="white" stroke="#666666" points="387.8,-268 223.3,-268 223.3,-224 387.8,-224 387.8,-268"/>
<text xml:space="preserve" text-anchor="start" x="231.3" y="-254.5" font-family="Helvetica,sans-Serif" font-size="10.00">depicture_menu::domain</text>
<text xml:space="preserve" text-anchor="start" x="231.3" y="-242.5" font-family="Helvetica,sans-Serif" font-size="10.00">::commands::buildin::shellexecute</text>
<text xml:space="preserve" text-anchor="middle" x="305.55" y="-230.5" font-family="Helvetica,sans-Serif" font-size="10.00">_command_parameter</text>
</a>
</g>
</g>
<!-- Node19&#45;&gt;Node26 -->
<g id="edge89_Node000019_Node000026" class="edge">
<title>Node19&#45;&gt;Node26</title>
<g id="a_edge89_Node000019_Node000026"><a xlink:title=" ">
<path fill="none" stroke="#63b8ff" d="M167.63,-310.2C184.39,-299.01 204.32,-286.6 223.3,-277 229.23,-274 235.52,-271.12 241.87,-268.4"/>
<polygon fill="#63b8ff" stroke="#63b8ff" points="165.72,-307.26 159.4,-315.77 169.64,-313.06 165.72,-307.26"/>
</a>
</g>
</g>
<!-- Node27 -->
<g id="Node000027" class="node">
<title>Node27</title>
<g id="a_Node000027"><a xlink:href="classdepicture__menu_1_1domain_1_1commands_1_1common__command__define.html" target="_top" xlink:title=" ">
<polygon fill="white" stroke="#666666" points="386.3,-206 224.8,-206 224.8,-162 386.3,-162 386.3,-206"/>
<text xml:space="preserve" text-anchor="start" x="232.8" y="-192.5" font-family="Helvetica,sans-Serif" font-size="10.00">depicture_menu::domain</text>
<text xml:space="preserve" text-anchor="start" x="232.8" y="-180.5" font-family="Helvetica,sans-Serif" font-size="10.00">::commands::common_command</text>
<text xml:space="preserve" text-anchor="middle" x="305.55" y="-168.5" font-family="Helvetica,sans-Serif" font-size="10.00">_define</text>
</a>
</g>
</g>
<!-- Node19&#45;&gt;Node27 -->
<g id="edge90_Node000019_Node000027" class="edge">
<title>Node19&#45;&gt;Node27</title>
<g id="a_edge90_Node000019_Node000027"><a xlink:title=" ">
<path fill="none" stroke="#63b8ff" d="M144.92,-307.09C161.89,-279.36 189.76,-239.85 223.3,-215 227.55,-211.85 232.15,-208.99 236.93,-206.39"/>
<polygon fill="#63b8ff" stroke="#63b8ff" points="142.07,-305.04 139.95,-315.42 148.08,-308.63 142.07,-305.04"/>
</a>
</g>
</g>
<!-- Node28 -->
<g id="Node000028" class="node">
<title>Node28</title>
<g id="a_Node000028"><a xlink:href="classdepicture__menu_1_1domain_1_1commands_1_1parameters__define.html" target="_top" xlink:title=" ">
<polygon fill="white" stroke="#666666" points="367.92,-144 243.17,-144 243.17,-100 367.92,-100 367.92,-144"/>
<text xml:space="preserve" text-anchor="start" x="251.17" y="-130.5" font-family="Helvetica,sans-Serif" font-size="10.00">depicture_menu::domain</text>
<text xml:space="preserve" text-anchor="start" x="251.17" y="-118.5" font-family="Helvetica,sans-Serif" font-size="10.00">::commands::parameters</text>
<text xml:space="preserve" text-anchor="middle" x="305.55" y="-106.5" font-family="Helvetica,sans-Serif" font-size="10.00">_define</text>
</a>
</g>
</g>
<!-- Node19&#45;&gt;Node28 -->
<g id="edge91_Node000019_Node000028" class="edge">
<title>Node19&#45;&gt;Node28</title>
<g id="a_edge91_Node000019_Node000028"><a xlink:title=" ">
<path fill="none" stroke="#63b8ff" d="M136.2,-305.73C149.14,-264.54 176.57,-194.72 223.3,-153 229.04,-147.87 235.72,-143.56 242.74,-139.93"/>
<polygon fill="#63b8ff" stroke="#63b8ff" points="132.92,-304.51 133.37,-315.1 139.62,-306.54 132.92,-304.51"/>
</a>
</g>
</g>
<!-- Node29 -->
<g id="Node000029" class="node">
<title>Node29</title>
<g id="a_Node000029"><a xlink:href="classdepicture__menu_1_1domain_1_1menu_1_1app__command__ids.html" target="_top" xlink:title=" ">
<polygon fill="white" stroke="#666666" points="372.42,-82 238.67,-82 238.67,-50 372.42,-50 372.42,-82"/>
<text xml:space="preserve" text-anchor="start" x="246.67" y="-68.5" font-family="Helvetica,sans-Serif" font-size="10.00">depicture_menu::domain</text>
<text xml:space="preserve" text-anchor="middle" x="305.55" y="-56.5" font-family="Helvetica,sans-Serif" font-size="10.00">::menu::app_command_ids</text>
</a>
</g>
</g>
<!-- Node19&#45;&gt;Node29 -->
<g id="edge92_Node000019_Node000029" class="edge">
<title>Node19&#45;&gt;Node29</title>
<g id="a_edge92_Node000019_Node000029"><a xlink:title=" ">
<path fill="none" stroke="#63b8ff" d="M130.78,-305.39C138.45,-252.29 160.91,-149.07 223.3,-91 227.73,-86.88 232.82,-83.43 238.26,-80.56"/>
<polygon fill="#63b8ff" stroke="#63b8ff" points="127.35,-304.66 129.48,-315.04 134.28,-305.59 127.35,-304.66"/>
</a>
</g>
</g>
<!-- Node30 -->
<g id="Node000030" class="node">
<title>Node30</title>
<g id="a_Node000030"><a xlink:href="classdepicture__menu_1_1domain_1_1menu_1_1menu__label.html" target="_top" xlink:title=" ">
<polygon fill="white" stroke="#666666" points="366.8,-32 244.3,-32 244.3,0 366.8,0 366.8,-32"/>
<text xml:space="preserve" text-anchor="start" x="252.3" y="-18.5" font-family="Helvetica,sans-Serif" font-size="10.00">depicture_menu::domain</text>
<text xml:space="preserve" text-anchor="middle" x="305.55" y="-6.5" font-family="Helvetica,sans-Serif" font-size="10.00">::menu::menu_label</text>
</a>
</g>
</g>
<!-- Node19&#45;&gt;Node30 -->
<g id="edge93_Node000019_Node000030" class="edge">
<title>Node19&#45;&gt;Node30</title>
<g id="a_edge93_Node000019_Node000030"><a xlink:title=" ">
<path fill="none" stroke="#63b8ff" d="M128.2,-305.46C132.13,-244.25 149.27,-114.01 223.3,-41 229.18,-35.2 236.38,-30.74 244.04,-27.31"/>
<polygon fill="#63b8ff" stroke="#63b8ff" points="124.72,-305.06 127.66,-315.24 131.71,-305.45 124.72,-305.06"/>
</a>
</g>
</g>
</g>
</svg>
