<?xml version="1.0" encoding="UTF-8" standalone="no"?>
<!DOCTYPE svg PUBLIC "-//W3C//DTD SVG 1.1//EN"
 "http://www.w3.org/Graphics/SVG/1.1/DTD/svg11.dtd">
<!-- Generated by graphviz version 14.1.2 (20260124.0452)
 -->
<!-- Title: depicture_menu/src/core/application/backup_json/format/latest.hpp Pages: 1 -->
<svg width="400pt" height="276pt"
 viewBox="0.00 0.00 400.00 276.00" xmlns="http://www.w3.org/2000/svg" xmlns:xlink="http://www.w3.org/1999/xlink">
<g id="graph0" class="graph" transform="scale(1 1) rotate(0) translate(4 272)">
<title>depicture_menu/src/core/application/backup_json/format/latest.hpp</title>
<!-- Node1 -->
<g id="Node000001" class="node">
<title>Node1</title>
<g id="a_Node000001"><a xlink:title=" ">
<polygon fill="#999999" stroke="#666666" points="305.5,-268 183.75,-268 183.75,-224 305.5,-224 305.5,-268"/>
<text xml:space="preserve" text-anchor="start" x="191.75" y="-254.5" font-family="Helvetica,sans-Serif" font-size="10.00">depicture_menu/src</text>
<text xml:space="preserve" text-anchor="start" x="191.75" y="-242.5" font-family="Helvetica,sans-Serif" font-size="10.00">/core/application/backup</text>
<text xml:space="preserve" text-anchor="middle" x="244.62" y="-230.5" font-family="Helvetica,sans-Serif" font-size="10.00">_json/format/latest.hpp</text>
</a>
</g>
</g>
<!-- Node2 -->
<g id="Node000002" class="node">
<title>Node2</title>
<g id="a_Node000002"><a xlink:href="v002_8hpp.html" target="_top" xlink:title=" ">
<polygon fill="white" stroke="#666666" points="272.5,-188 216.75,-188 216.75,-168 272.5,-168 272.5,-188"/>
<text xml:space="preserve" text-anchor="middle" x="244.62" y="-174.5" font-family="Helvetica,sans-Serif" font-size="10.00">v002.hpp</text>
</a>
</g>
</g>
<!-- Node1&#45;&gt;Node2 -->
<g id="edge1_Node000001_Node000002" class="edge">
<title>Node1&#45;&gt;Node2</title>
<g id="a_edge1_Node000001_Node000002"><a xlink:title=" ">
<path fill="none" stroke="#63b8ff" d="M244.62,-223.75C244.62,-216.13 244.62,-207.53 244.62,-199.93"/>
<polygon fill="#63b8ff" stroke="#63b8ff" points="248.13,-199.93 244.63,-189.93 241.13,-199.93 248.13,-199.93"/>
</a>
</g>
</g>
<!-- Node3 -->
<g id="Node000003" class="node">
<title>Node3</title>
<g id="a_Node000003"><a xlink:href="format__version_8hpp.html" target="_top" xlink:title=" ">
<polygon fill="white" stroke="#666666" points="99.25,-76 0,-76 0,-56 99.25,-56 99.25,-76"/>
<text xml:space="preserve" text-anchor="middle" x="49.62" y="-62.5" font-family="Helvetica,sans-Serif" font-size="10.00">format_version.hpp</text>
</a>
</g>
</g>
<!-- Node2&#45;&gt;Node3 -->
<g id="edge2_Node000002_Node000003" class="edge">
<title>Node2&#45;&gt;Node3</title>
<g id="a_edge2_Node000002_Node000003"><a xlink:title=" ">
<path fill="none" stroke="#63b8ff" d="M228,-167.62C194.11,-148.5 116.8,-104.89 75.98,-81.87"/>
<polygon fill="#63b8ff" stroke="#63b8ff" points="77.96,-78.96 67.53,-77.1 74.52,-85.06 77.96,-78.96"/>
</a>
</g>
</g>
<!-- Node5 -->
<g id="Node000005" class="node">
<title>Node5</title>
<g id="a_Node000005"><a xlink:href="v001_8hpp.html" target="_top" xlink:title=" ">
<polygon fill="white" stroke="#666666" points="244.5,-132 188.75,-132 188.75,-112 244.5,-112 244.5,-132"/>
<text xml:space="preserve" text-anchor="middle" x="216.62" y="-118.5" font-family="Helvetica,sans-Serif" font-size="10.00">v001.hpp</text>
</a>
</g>
</g>
<!-- Node2&#45;&gt;Node5 -->
<g id="edge4_Node000002_Node000005" class="edge">
<title>Node2&#45;&gt;Node5</title>
<g id="a_edge4_Node000002_Node000005"><a xlink:title=" ">
<path fill="none" stroke="#63b8ff" d="M239.75,-167.59C236.13,-160.63 231.08,-150.89 226.63,-142.29"/>
<polygon fill="#63b8ff" stroke="#63b8ff" points="229.85,-140.91 222.14,-133.64 223.64,-144.13 229.85,-140.91"/>
</a>
</g>
</g>
<!-- Node6 -->
<g id="Node000006" class="node">
<title>Node6</title>
<g id="a_Node000006"><a xlink:title=" ">
<polygon fill="#e0e0e0" stroke="#999999" points="209.5,-76 117.75,-76 117.75,-56 209.5,-56 209.5,-76"/>
<text xml:space="preserve" text-anchor="middle" x="163.62" y="-62.5" font-family="Helvetica,sans-Serif" font-size="10.00">boost/pfr/ops.hpp</text>
</a>
</g>
</g>
<!-- Node2&#45;&gt;Node6 -->
<g id="edge10_Node000002_Node000006" class="edge">
<title>Node2&#45;&gt;Node6</title>
<g id="a_edge10_Node000002_Node000006"><a xlink:title=" ">
<path fill="none" stroke="#63b8ff" d="M223.71,-167.56C209.21,-159.97 190.6,-147.94 179.62,-132 170.54,-118.81 166.6,-100.99 164.9,-87.34"/>
<polygon fill="#63b8ff" stroke="#63b8ff" points="168.41,-87.38 164.02,-77.74 161.44,-88.01 168.41,-87.38"/>
</a>
</g>
</g>
<!-- Node7 -->
<g id="Node000007" class="node">
<title>Node7</title>
<g id="a_Node000007"><a xlink:title=" ">
<polygon fill="#e0e0e0" stroke="#999999" points="267.62,-76 227.62,-76 227.62,-56 267.62,-56 267.62,-76"/>
<text xml:space="preserve" text-anchor="middle" x="247.62" y="-62.5" font-family="Helvetica,sans-Serif" font-size="10.00">string</text>
</a>
</g>
</g>
<!-- Node2&#45;&gt;Node7 -->
<g id="edge11_Node000002_Node000007" class="edge">
<title>Node2&#45;&gt;Node7</title>
<g id="a_edge11_Node000002_Node000007"><a xlink:title=" ">
<path fill="none" stroke="#63b8ff" d="M247.03,-167.77C249.25,-158.73 252.38,-144.53 253.62,-132 255.1,-117.11 253.46,-100.3 251.52,-87.5"/>
<polygon fill="#63b8ff" stroke="#63b8ff" points="254.99,-87.02 249.85,-77.75 248.09,-88.2 254.99,-87.02"/>
</a>
</g>
</g>
<!-- Node8 -->
<g id="Node000008" class="node">
<title>Node8</title>
<g id="a_Node000008"><a xlink:title=" ">
<polygon fill="#e0e0e0" stroke="#999999" points="331.25,-76 286,-76 286,-56 331.25,-56 331.25,-76"/>
<text xml:space="preserve" text-anchor="middle" x="308.62" y="-62.5" font-family="Helvetica,sans-Serif" font-size="10.00">variant</text>
</a>
</g>
</g>
<!-- Node2&#45;&gt;Node8 -->
<g id="edge12_Node000002_Node000008" class="edge">
<title>Node2&#45;&gt;Node8</title>
<g id="a_edge12_Node000002_Node000008"><a xlink:title=" ">
<path fill="none" stroke="#63b8ff" d="M250.08,-167.62C260.57,-149.6 283.72,-109.81 297.56,-86.02"/>
<polygon fill="#63b8ff" stroke="#63b8ff" points="300.42,-88.07 302.42,-77.66 294.37,-84.55 300.42,-88.07"/>
</a>
</g>
</g>
<!-- Node9 -->
<g id="Node000009" class="node">
<title>Node9</title>
<g id="a_Node000009"><a xlink:title=" ">
<polygon fill="#e0e0e0" stroke="#999999" points="392.12,-76 349.12,-76 349.12,-56 392.12,-56 392.12,-76"/>
<text xml:space="preserve" text-anchor="middle" x="370.62" y="-62.5" font-family="Helvetica,sans-Serif" font-size="10.00">vector</text>
</a>
</g>
</g>
<!-- Node2&#45;&gt;Node9 -->
<g id="edge13_Node000002_Node000009" class="edge">
<title>Node2&#45;&gt;Node9</title>
<g id="a_edge13_Node000002_Node000009"><a xlink:title=" ">
<path fill="none" stroke="#63b8ff" d="M255.37,-167.62C276.66,-149.03 324.48,-107.28 351.36,-83.82"/>
<polygon fill="#63b8ff" stroke="#63b8ff" points="353.54,-86.56 358.77,-77.35 348.93,-81.29 353.54,-86.56"/>
</a>
</g>
</g>
<!-- Node4 -->
<g id="Node000004" class="node">
<title>Node4</title>
<g id="a_Node000004"><a xlink:title=" ">
<polygon fill="#e0e0e0" stroke="#999999" points="73.75,-20 25.5,-20 25.5,0 73.75,0 73.75,-20"/>
<text xml:space="preserve" text-anchor="middle" x="49.62" y="-6.5" font-family="Helvetica,sans-Serif" font-size="10.00">cassert</text>
</a>
</g>
</g>
<!-- Node3&#45;&gt;Node4 -->
<g id="edge3_Node000003_Node000004" class="edge">
<title>Node3&#45;&gt;Node4</title>
<g id="a_edge3_Node000003_Node000004"><a xlink:title=" ">
<path fill="none" stroke="#63b8ff" d="M49.62,-55.59C49.62,-49.01 49.62,-39.96 49.62,-31.73"/>
<polygon fill="#63b8ff" stroke="#63b8ff" points="53.13,-31.81 49.63,-21.81 46.13,-31.81 53.13,-31.81"/>
</a>
</g>
</g>
<!-- Node5&#45;&gt;Node3 -->
<g id="edge5_Node000005_Node000003" class="edge">
<title>Node5&#45;&gt;Node3</title>
<g id="a_edge5_Node000005_Node000003"><a xlink:title=" ">
<path fill="none" stroke="#63b8ff" d="M188.3,-111.84C161.19,-103.08 120.06,-89.77 89.62,-79.93"/>
<polygon fill="#63b8ff" stroke="#63b8ff" points="90.97,-76.69 80.38,-76.94 88.81,-83.35 90.97,-76.69"/>
</a>
</g>
</g>
<!-- Node5&#45;&gt;Node6 -->
<g id="edge6_Node000005_Node000006" class="edge">
<title>Node5&#45;&gt;Node6</title>
<g id="a_edge6_Node000005_Node000006"><a xlink:title=" ">
<path fill="none" stroke="#63b8ff" d="M207.39,-111.59C200.02,-104.08 189.49,-93.35 180.61,-84.3"/>
<polygon fill="#63b8ff" stroke="#63b8ff" points="183.31,-82.06 173.81,-77.38 178.32,-86.97 183.31,-82.06"/>
</a>
</g>
</g>
<!-- Node5&#45;&gt;Node7 -->
<g id="edge7_Node000005_Node000007" class="edge">
<title>Node5&#45;&gt;Node7</title>
<g id="a_edge7_Node000005_Node000007"><a xlink:title=" ">
<path fill="none" stroke="#63b8ff" d="M222.02,-111.59C226.07,-104.55 231.74,-94.67 236.72,-86"/>
<polygon fill="#63b8ff" stroke="#63b8ff" points="239.59,-88.03 241.53,-77.61 233.52,-84.54 239.59,-88.03"/>
</a>
</g>
</g>
<!-- Node5&#45;&gt;Node8 -->
<g id="edge8_Node000005_Node000008" class="edge">
<title>Node5&#45;&gt;Node8</title>
<g id="a_edge8_Node000005_Node000008"><a xlink:title=" ">
<path fill="none" stroke="#63b8ff" d="M232.65,-111.59C246.42,-103.51 266.53,-91.71 282.6,-82.27"/>
<polygon fill="#63b8ff" stroke="#63b8ff" points="284.32,-85.33 291.17,-77.25 280.77,-79.29 284.32,-85.33"/>
</a>
</g>
</g>
<!-- Node5&#45;&gt;Node9 -->
<g id="edge9_Node000005_Node000009" class="edge">
<title>Node5&#45;&gt;Node9</title>
<g id="a_edge9_Node000005_Node000009"><a xlink:title=" ">
<path fill="none" stroke="#63b8ff" d="M243.45,-111.59C269.92,-102.31 310.42,-88.11 338.57,-78.24"/>
<polygon fill="#63b8ff" stroke="#63b8ff" points="339.36,-81.67 347.64,-75.06 337.05,-75.07 339.36,-81.67"/>
</a>
</g>
</g>
</g>
</svg>
