<?xml version="1.0" encoding="UTF-8" standalone="no"?>
<!DOCTYPE svg PUBLIC "-//W3C//DTD SVG 1.1//EN"
 "http://www.w3.org/Graphics/SVG/1.1/DTD/svg11.dtd">
<!-- Generated by graphviz version 14.1.2 (20260124.0452)
 -->
<!-- Title: depicture_menu/src/core/application/log/log.cpp Pages: 1 -->
<svg width="670pt" height="232pt"
 viewBox="0.00 0.00 670.00 232.00" xmlns="http://www.w3.org/2000/svg" xmlns:xlink="http://www.w3.org/1999/xlink">
<g id="graph0" class="graph" transform="scale(1 1) rotate(0) translate(4 228)">
<title>depicture_menu/src/core/application/log/log.cpp</title>
<!-- Node1 -->
<g id="Node000001" class="node">
<title>Node1</title>
<g id="a_Node000001"><a xlink:title="ロガー出力">
<polygon fill="#999999" stroke="#666666" points="491.12,-224 388.12,-224 388.12,-180 491.12,-180 491.12,-224"/>
<text xml:space="preserve" text-anchor="start" x="396.12" y="-210.5" font-family="Helvetica,sans-Serif" font-size="10.00">depicture_menu/src</text>
<text xml:space="preserve" text-anchor="start" x="396.12" y="-198.5" font-family="Helvetica,sans-Serif" font-size="10.00">/core/application/log</text>
<text xml:space="preserve" text-anchor="middle" x="439.62" y="-186.5" font-family="Helvetica,sans-Serif" font-size="10.00">/log.cpp</text>
</a>
</g>
</g>
<!-- Node2 -->
<g id="Node000002" class="node">
<title>Node2</title>
<g id="a_Node000002"><a xlink:href="log_2log_8hpp.html" target="_top" xlink:title=" ">
<polygon fill="white" stroke="#666666" points="178.38,-144 130.88,-144 130.88,-124 178.38,-124 178.38,-144"/>
<text xml:space="preserve" text-anchor="middle" x="154.62" y="-130.5" font-family="Helvetica,sans-Serif" font-size="10.00">log.hpp</text>
</a>
</g>
</g>
<!-- Node1&#45;&gt;Node2 -->
<g id="edge1_Node000001_Node000002" class="edge">
<title>Node1&#45;&gt;Node2</title>
<g id="a_edge1_Node000001_Node000002"><a xlink:title=" ">
<path fill="none" stroke="#63b8ff" d="M387.68,-188.97C330.31,-175.68 239.49,-154.65 189.86,-143.16"/>
<polygon fill="#63b8ff" stroke="#63b8ff" points="190.77,-139.78 180.24,-140.93 189.19,-146.6 190.77,-139.78"/>
</a>
</g>
</g>
<!-- Node6 -->
<g id="Node000006" class="node">
<title>Node6</title>
<g id="a_Node000006"><a xlink:href="app__worker_8hpp.html" target="_top" xlink:title=" ">
<polygon fill="white" stroke="#666666" points="360.62,-144 266.62,-144 266.62,-124 360.62,-124 360.62,-144"/>
<text xml:space="preserve" text-anchor="middle" x="313.62" y="-130.5" font-family="Helvetica,sans-Serif" font-size="10.00">../app_worker.hpp</text>
</a>
</g>
</g>
<!-- Node1&#45;&gt;Node6 -->
<g id="edge5_Node000001_Node000006" class="edge">
<title>Node1&#45;&gt;Node6</title>
<g id="a_edge5_Node000001_Node000006"><a xlink:title=" ">
<path fill="none" stroke="#63b8ff" d="M398.72,-179.57C379.91,-169.72 358.1,-158.3 341.27,-149.48"/>
<polygon fill="#63b8ff" stroke="#63b8ff" points="343.33,-146.61 332.85,-145.07 340.08,-152.81 343.33,-146.61"/>
</a>
</g>
</g>
<!-- Node11 -->
<g id="Node000011" class="node">
<title>Node11</title>
<g id="a_Node000011"><a xlink:href="worker__pool_8hpp.html" target="_top" xlink:title=" ">
<polygon fill="white" stroke="#666666" points="461.38,-88 359.88,-88 359.88,-56 461.38,-56 461.38,-88"/>
<text xml:space="preserve" text-anchor="start" x="367.88" y="-74.5" font-family="Helvetica,sans-Serif" font-size="10.00">utility/thread/worker</text>
<text xml:space="preserve" text-anchor="middle" x="410.62" y="-62.5" font-family="Helvetica,sans-Serif" font-size="10.00">_pool.hpp</text>
</a>
</g>
</g>
<!-- Node1&#45;&gt;Node11 -->
<g id="edge16_Node000001_Node000011" class="edge">
<title>Node1&#45;&gt;Node11</title>
<g id="a_edge16_Node000001_Node000011"><a xlink:title=" ">
<path fill="none" stroke="#63b8ff" d="M424.2,-179.66C417.72,-169.41 410.93,-156.63 407.62,-144 403.87,-129.65 404.31,-113.13 405.82,-99.63"/>
<polygon fill="#63b8ff" stroke="#63b8ff" points="409.29,-100.12 407.22,-89.73 402.35,-99.15 409.29,-100.12"/>
</a>
</g>
</g>
<!-- Node16 -->
<g id="Node000016" class="node">
<title>Node16</title>
<g id="a_Node000016"><a xlink:title=" ">
<polygon fill="#e0e0e0" stroke="#999999" points="462.25,-144 417,-144 417,-124 462.25,-124 462.25,-144"/>
<text xml:space="preserve" text-anchor="middle" x="439.62" y="-130.5" font-family="Helvetica,sans-Serif" font-size="10.00">chrono</text>
</a>
</g>
</g>
<!-- Node1&#45;&gt;Node16 -->
<g id="edge17_Node000001_Node000016" class="edge">
<title>Node1&#45;&gt;Node16</title>
<g id="a_edge17_Node000001_Node000016"><a xlink:title=" ">
<path fill="none" stroke="#63b8ff" d="M439.62,-179.75C439.62,-172.13 439.62,-163.53 439.62,-155.93"/>
<polygon fill="#63b8ff" stroke="#63b8ff" points="443.13,-155.93 439.63,-145.93 436.13,-155.93 443.13,-155.93"/>
</a>
</g>
</g>
<!-- Node17 -->
<g id="Node000017" class="node">
<title>Node17</title>
<g id="a_Node000017"><a xlink:title=" ">
<polygon fill="#e0e0e0" stroke="#999999" points="524.5,-144 480.75,-144 480.75,-124 524.5,-124 524.5,-144"/>
<text xml:space="preserve" text-anchor="middle" x="502.62" y="-130.5" font-family="Helvetica,sans-Serif" font-size="10.00">format</text>
</a>
</g>
</g>
<!-- Node1&#45;&gt;Node17 -->
<g id="edge18_Node000001_Node000017" class="edge">
<title>Node1&#45;&gt;Node17</title>
<g id="a_edge18_Node000001_Node000017"><a xlink:title=" ">
<path fill="none" stroke="#63b8ff" d="M459.91,-179.75C468.25,-171.01 477.81,-161 485.76,-152.66"/>
<polygon fill="#63b8ff" stroke="#63b8ff" points="488.22,-155.16 492.59,-145.51 483.15,-150.33 488.22,-155.16"/>
</a>
</g>
</g>
<!-- Node18 -->
<g id="Node000018" class="node">
<title>Node18</title>
<g id="a_Node000018"><a xlink:title=" ">
<polygon fill="#e0e0e0" stroke="#999999" points="591.12,-144 542.12,-144 542.12,-124 591.12,-124 591.12,-144"/>
<text xml:space="preserve" text-anchor="middle" x="566.62" y="-130.5" font-family="Helvetica,sans-Serif" font-size="10.00">fstream</text>
</a>
</g>
</g>
<!-- Node1&#45;&gt;Node18 -->
<g id="edge19_Node000001_Node000018" class="edge">
<title>Node1&#45;&gt;Node18</title>
<g id="a_edge19_Node000001_Node000018"><a xlink:title=" ">
<path fill="none" stroke="#63b8ff" d="M480.86,-179.57C499.81,-169.72 521.8,-158.3 538.76,-149.48"/>
<polygon fill="#63b8ff" stroke="#63b8ff" points="540,-152.78 547.26,-145.06 536.77,-146.57 540,-152.78"/>
</a>
</g>
</g>
<!-- Node19 -->
<g id="Node000019" class="node">
<title>Node19</title>
<g id="a_Node000019"><a xlink:title=" ">
<polygon fill="#e0e0e0" stroke="#999999" points="662.38,-144 608.88,-144 608.88,-124 662.38,-124 662.38,-144"/>
<text xml:space="preserve" text-anchor="middle" x="635.62" y="-130.5" font-family="Helvetica,sans-Serif" font-size="10.00">iostream</text>
</a>
</g>
</g>
<!-- Node1&#45;&gt;Node19 -->
<g id="edge20_Node000001_Node000019" class="edge">
<title>Node1&#45;&gt;Node19</title>
<g id="a_edge20_Node000001_Node000019"><a xlink:title=" ">
<path fill="none" stroke="#63b8ff" d="M491.38,-183.57C524.91,-172.28 567.82,-157.83 598.1,-147.64"/>
<polygon fill="#63b8ff" stroke="#63b8ff" points="598.84,-151.08 607.2,-144.57 596.61,-144.45 598.84,-151.08"/>
</a>
</g>
</g>
<!-- Node3 -->
<g id="Node000003" class="node">
<title>Node3</title>
<g id="a_Node000003"><a xlink:title=" ">
<polygon fill="#e0e0e0" stroke="#999999" points="51.25,-82 0,-82 0,-62 51.25,-62 51.25,-82"/>
<text xml:space="preserve" text-anchor="middle" x="25.62" y="-68.5" font-family="Helvetica,sans-Serif" font-size="10.00">ostream</text>
</a>
</g>
</g>
<!-- Node2&#45;&gt;Node3 -->
<g id="edge2_Node000002_Node000003" class="edge">
<title>Node2&#45;&gt;Node3</title>
<g id="a_edge2_Node000002_Node000003"><a xlink:title=" ">
<path fill="none" stroke="#63b8ff" d="M134.47,-123.62C113.45,-113.85 80.26,-98.41 56.05,-87.15"/>
<polygon fill="#63b8ff" stroke="#63b8ff" points="57.56,-83.99 47.01,-82.95 54.6,-90.34 57.56,-83.99"/>
</a>
</g>
</g>
<!-- Node4 -->
<g id="Node000004" class="node">
<title>Node4</title>
<g id="a_Node000004"><a xlink:title=" ">
<polygon fill="#e0e0e0" stroke="#999999" points="153.75,-82 69.5,-82 69.5,-62 153.75,-62 153.75,-82"/>
<text xml:space="preserve" text-anchor="middle" x="111.62" y="-68.5" font-family="Helvetica,sans-Serif" font-size="10.00">source_location</text>
</a>
</g>
</g>
<!-- Node2&#45;&gt;Node4 -->
<g id="edge3_Node000002_Node000004" class="edge">
<title>Node2&#45;&gt;Node4</title>
<g id="a_edge3_Node000002_Node000004"><a xlink:title=" ">
<path fill="none" stroke="#63b8ff" d="M147.91,-123.62C141.75,-115.03 132.46,-102.07 124.82,-91.41"/>
<polygon fill="#63b8ff" stroke="#63b8ff" points="127.71,-89.43 119.04,-83.34 122.02,-93.51 127.71,-89.43"/>
</a>
</g>
</g>
<!-- Node5 -->
<g id="Node000005" class="node">
<title>Node5</title>
<g id="a_Node000005"><a xlink:title=" ">
<polygon fill="#e0e0e0" stroke="#999999" points="223.25,-82 172,-82 172,-62 223.25,-62 223.25,-82"/>
<text xml:space="preserve" text-anchor="middle" x="197.62" y="-68.5" font-family="Helvetica,sans-Serif" font-size="10.00">sstream</text>
</a>
</g>
</g>
<!-- Node2&#45;&gt;Node5 -->
<g id="edge4_Node000002_Node000005" class="edge">
<title>Node2&#45;&gt;Node5</title>
<g id="a_edge4_Node000002_Node000005"><a xlink:title=" ">
<path fill="none" stroke="#63b8ff" d="M161.34,-123.62C167.5,-115.03 176.79,-102.07 184.43,-91.41"/>
<polygon fill="#63b8ff" stroke="#63b8ff" points="187.23,-93.51 190.21,-83.34 181.54,-89.43 187.23,-93.51"/>
</a>
</g>
</g>
<!-- Node7 -->
<g id="Node000007" class="node">
<title>Node7</title>
<g id="a_Node000007"><a xlink:href="singleton_8hpp.html" target="_top" xlink:title=" ">
<polygon fill="white" stroke="#666666" points="341.62,-82 241.62,-82 241.62,-62 341.62,-62 341.62,-82"/>
<text xml:space="preserve" text-anchor="middle" x="291.62" y="-68.5" font-family="Helvetica,sans-Serif" font-size="10.00">utility/singleton.hpp</text>
</a>
</g>
</g>
<!-- Node6&#45;&gt;Node7 -->
<g id="edge6_Node000006_Node000007" class="edge">
<title>Node6&#45;&gt;Node7</title>
<g id="a_edge6_Node000006_Node000007"><a xlink:title=" ">
<path fill="none" stroke="#63b8ff" d="M310.19,-123.62C307.17,-115.39 302.67,-103.13 298.86,-92.74"/>
<polygon fill="#63b8ff" stroke="#63b8ff" points="302.22,-91.72 295.49,-83.53 295.64,-94.13 302.22,-91.72"/>
</a>
</g>
</g>
<!-- Node6&#45;&gt;Node11 -->
<g id="edge10_Node000006_Node000011" class="edge">
<title>Node6&#45;&gt;Node11</title>
<g id="a_edge10_Node000006_Node000011"><a xlink:title=" ">
<path fill="none" stroke="#63b8ff" d="M328.78,-123.62C341.4,-115.82 359.86,-104.4 376.05,-94.38"/>
<polygon fill="#63b8ff" stroke="#63b8ff" points="377.82,-97.41 384.48,-89.17 374.14,-91.45 377.82,-97.41"/>
</a>
</g>
</g>
<!-- Node8 -->
<g id="Node000008" class="node">
<title>Node8</title>
<g id="a_Node000008"><a xlink:title=" ">
<polygon fill="#e0e0e0" stroke="#999999" points="198.75,-20 150.5,-20 150.5,0 198.75,0 198.75,-20"/>
<text xml:space="preserve" text-anchor="middle" x="174.62" y="-6.5" font-family="Helvetica,sans-Serif" font-size="10.00">cassert</text>
</a>
</g>
</g>
<!-- Node7&#45;&gt;Node8 -->
<g id="edge7_Node000007_Node000008" class="edge">
<title>Node7&#45;&gt;Node8</title>
<g id="a_edge7_Node000007_Node000008"><a xlink:title=" ">
<path fill="none" stroke="#63b8ff" d="M273.34,-61.62C254.45,-51.94 224.72,-36.69 202.82,-25.46"/>
<polygon fill="#63b8ff" stroke="#63b8ff" points="204.62,-22.45 194.12,-21 201.43,-28.68 204.62,-22.45"/>
</a>
</g>
</g>
<!-- Node9 -->
<g id="Node000009" class="node">
<title>Node9</title>
<g id="a_Node000009"><a xlink:title=" ">
<polygon fill="#e0e0e0" stroke="#999999" points="268.25,-20 217,-20 217,0 268.25,0 268.25,-20"/>
<text xml:space="preserve" text-anchor="middle" x="242.62" y="-6.5" font-family="Helvetica,sans-Serif" font-size="10.00">memory</text>
</a>
</g>
</g>
<!-- Node7&#45;&gt;Node9 -->
<g id="edge8_Node000007_Node000009" class="edge">
<title>Node7&#45;&gt;Node9</title>
<g id="a_edge8_Node000007_Node000009"><a xlink:title=" ">
<path fill="none" stroke="#63b8ff" d="M283.97,-61.62C276.81,-52.86 265.92,-39.53 257.12,-28.75"/>
<polygon fill="#63b8ff" stroke="#63b8ff" points="260.06,-26.82 251.02,-21.28 254.64,-31.24 260.06,-26.82"/>
</a>
</g>
</g>
<!-- Node10 -->
<g id="Node000010" class="node">
<title>Node10</title>
<g id="a_Node000010"><a xlink:title=" ">
<polygon fill="#e0e0e0" stroke="#999999" points="329.12,-20 286.12,-20 286.12,0 329.12,0 329.12,-20"/>
<text xml:space="preserve" text-anchor="middle" x="307.62" y="-6.5" font-family="Helvetica,sans-Serif" font-size="10.00">mutex</text>
</a>
</g>
</g>
<!-- Node7&#45;&gt;Node10 -->
<g id="edge9_Node000007_Node000010" class="edge">
<title>Node7&#45;&gt;Node10</title>
<g id="a_edge9_Node000007_Node000010"><a xlink:title=" ">
<path fill="none" stroke="#63b8ff" d="M294.12,-61.62C296.3,-53.48 299.52,-41.39 302.27,-31.07"/>
<polygon fill="#63b8ff" stroke="#63b8ff" points="305.61,-32.14 304.8,-21.58 298.85,-30.34 305.61,-32.14"/>
</a>
</g>
</g>
<!-- Node11&#45;&gt;Node10 -->
<g id="edge14_Node000011_Node000010" class="edge">
<title>Node11&#45;&gt;Node10</title>
<g id="a_edge14_Node000011_Node000010"><a xlink:title=" ">
<path fill="none" stroke="#63b8ff" d="M384.1,-55.55C368.6,-46.52 349.12,-35.17 333.7,-26.19"/>
<polygon fill="#63b8ff" stroke="#63b8ff" points="335.49,-23.18 325.08,-21.17 331.96,-29.23 335.49,-23.18"/>
</a>
</g>
</g>
<!-- Node12 -->
<g id="Node000012" class="node">
<title>Node12</title>
<g id="a_Node000012"><a xlink:title=" ">
<polygon fill="#e0e0e0" stroke="#999999" points="441.62,-20 347.62,-20 347.62,0 441.62,0 441.62,-20"/>
<text xml:space="preserve" text-anchor="middle" x="394.62" y="-6.5" font-family="Helvetica,sans-Serif" font-size="10.00">condition_variable</text>
</a>
</g>
</g>
<!-- Node11&#45;&gt;Node12 -->
<g id="edge11_Node000011_Node000012" class="edge">
<title>Node11&#45;&gt;Node12</title>
<g id="a_edge11_Node000011_Node000012"><a xlink:title=" ">
<path fill="none" stroke="#63b8ff" d="M406.5,-55.55C404.54,-48.17 402.16,-39.24 400.04,-31.32"/>
<polygon fill="#63b8ff" stroke="#63b8ff" points="403.48,-30.63 397.52,-21.87 396.72,-32.43 403.48,-30.63"/>
</a>
</g>
</g>
<!-- Node13 -->
<g id="Node000013" class="node">
<title>Node13</title>
<g id="a_Node000013"><a xlink:title=" ">
<polygon fill="#e0e0e0" stroke="#999999" points="501.75,-20 459.5,-20 459.5,0 501.75,0 501.75,-20"/>
<text xml:space="preserve" text-anchor="middle" x="480.62" y="-6.5" font-family="Helvetica,sans-Serif" font-size="10.00">deque</text>
</a>
</g>
</g>
<!-- Node11&#45;&gt;Node13 -->
<g id="edge12_Node000011_Node000013" class="edge">
<title>Node11&#45;&gt;Node13</title>
<g id="a_edge12_Node000011_Node000013"><a xlink:title=" ">
<path fill="none" stroke="#63b8ff" d="M428.65,-55.55C438.58,-47.04 450.9,-36.48 461.06,-27.77"/>
<polygon fill="#63b8ff" stroke="#63b8ff" points="463.19,-30.56 468.5,-21.39 458.63,-25.24 463.19,-30.56"/>
</a>
</g>
</g>
<!-- Node14 -->
<g id="Node000014" class="node">
<title>Node14</title>
<g id="a_Node000014"><a xlink:title=" ">
<polygon fill="#e0e0e0" stroke="#999999" points="577.62,-20 519.62,-20 519.62,0 577.62,0 577.62,-20"/>
<text xml:space="preserve" text-anchor="middle" x="548.62" y="-6.5" font-family="Helvetica,sans-Serif" font-size="10.00">functional</text>
</a>
</g>
</g>
<!-- Node11&#45;&gt;Node14 -->
<g id="edge13_Node000011_Node000014" class="edge">
<title>Node11&#45;&gt;Node14</title>
<g id="a_edge13_Node000011_Node000014"><a xlink:title=" ">
<path fill="none" stroke="#63b8ff" d="M446.16,-55.55C467.93,-46.09 495.55,-34.08 516.63,-24.91"/>
<polygon fill="#63b8ff" stroke="#63b8ff" points="517.82,-28.21 525.6,-21.01 515.03,-21.79 517.82,-28.21"/>
</a>
</g>
</g>
<!-- Node15 -->
<g id="Node000015" class="node">
<title>Node15</title>
<g id="a_Node000015"><a xlink:title=" ">
<polygon fill="#e0e0e0" stroke="#999999" points="639.12,-20 596.12,-20 596.12,0 639.12,0 639.12,-20"/>
<text xml:space="preserve" text-anchor="middle" x="617.62" y="-6.5" font-family="Helvetica,sans-Serif" font-size="10.00">thread</text>
</a>
</g>
</g>
<!-- Node11&#45;&gt;Node15 -->
<g id="edge15_Node000011_Node000015" class="edge">
<title>Node11&#45;&gt;Node15</title>
<g id="a_edge15_Node000011_Node000015"><a xlink:title=" ">
<path fill="none" stroke="#63b8ff" d="M461.84,-56.17C494.49,-46.71 537.97,-34.11 585.18,-20.42"/>
<polygon fill="#63b8ff" stroke="#63b8ff" points="585.86,-23.86 594.49,-17.72 583.91,-17.14 585.86,-23.86"/>
</a>
</g>
</g>
</g>
</svg>
