<?xml version="1.0" encoding="UTF-8" standalone="no"?>
<!DOCTYPE svg PUBLIC "-//W3C//DTD SVG 1.1//EN"
 "http://www.w3.org/Graphics/SVG/1.1/DTD/svg11.dtd">
<!-- Generated by graphviz version 14.1.2 (20260124.0452)
 -->
<!-- Title: get_menu Pages: 1 -->
<svg width="433pt" height="180pt"
 viewBox="0.00 0.00 433.00 180.00" xmlns="http://www.w3.org/2000/svg" xmlns:xlink="http://www.w3.org/1999/xlink">

<svg id="main" version="1.1" xmlns="http://www.w3.org/2000/svg" xmlns:xlink="http://www.w3.org/1999/xlink" xml:space="preserve">

<style type="text/css"><![CDATA[
.node, .edge {opacity: 0.7;}
.node.selected, .edge.selected {opacity: 1;}
.edge:hover path { stroke: red; }
.edge:hover polygon { stroke: red; fill: red; }
]]></style>
<script type="application/ecmascript" xlink:href="svg.min.js"/>
<svg id="graph" class="graph">
<g id="graph0" class="graph" transform="scale(1 1) rotate(0) translate(4 176)">
<title>get_menu</title>
<!-- Node1 -->
<g id="Node000001" class="node">
<title>Node1</title>
<g id="a_Node000001"><a xlink:title=" ">
<polygon fill="#999999" stroke="#666666" points="425.25,-115 366.5,-115 366.5,-95 425.25,-95 425.25,-115"/>
<text xml:space="preserve" text-anchor="middle" x="395.88" y="-101.5" font-family="Helvetica,sans-Serif" font-size="10.00">get_menu</text>
</a>
</g>
</g>
<!-- Node2 -->
<g id="Node000002" class="node">
<title>Node2</title>
<g id="a_Node000002"><a xlink:href="menu__change__operation_8cpp.html#af3c463352d93e69c6fc3ec81fada9552" target="_top" xlink:title=" ">
<polygon fill="white" stroke="#666666" points="330.5,-134 183.25,-134 183.25,-114 330.5,-114 330.5,-134"/>
<text xml:space="preserve" text-anchor="middle" x="256.88" y="-120.5" font-family="Helvetica,sans-Serif" font-size="10.00">BOOST_AUTO_TEST_CASE</text>
</a>
</g>
</g>
<!-- Node1&#45;&gt;Node2 -->
<g id="edge1_Node000001_Node000002" class="edge">
<title>Node1&#45;&gt;Node2</title>
<g id="a_edge1_Node000001_Node000002"><a xlink:title=" ">
<path fill="none" stroke="#63b8ff" d="M354.79,-110.56C347.23,-111.61 339.09,-112.74 330.88,-113.88"/>
<polygon fill="#63b8ff" stroke="#63b8ff" points="355.23,-114.03 364.66,-109.19 354.27,-107.1 355.23,-114.03"/>
</a>
</g>
</g>
<!-- Node3 -->
<g id="Node000003" class="node">
<title>Node3</title>
<g id="a_Node000003"><a xlink:href="menu__change__operation_8cpp.html#a21cd4ad5cb7cf2e145fff9f01cfa56f1" target="_top" xlink:title=" ">
<polygon fill="white" stroke="#666666" points="298.25,-96 215.5,-96 215.5,-76 298.25,-76 298.25,-96"/>
<text xml:space="preserve" text-anchor="middle" x="256.88" y="-82.5" font-family="Helvetica,sans-Serif" font-size="10.00">get_menu_item</text>
</a>
</g>
</g>
<!-- Node1&#45;&gt;Node3 -->
<g id="edge2_Node000001_Node000003" class="edge">
<title>Node1&#45;&gt;Node3</title>
<g id="a_edge2_Node000001_Node000003"><a xlink:title=" ">
<path fill="none" stroke="#63b8ff" d="M355,-99.47C337.24,-97.01 316.35,-94.11 298.51,-91.64"/>
<polygon fill="#63b8ff" stroke="#63b8ff" points="354.27,-102.9 364.66,-100.81 355.23,-95.97 354.27,-102.9"/>
</a>
</g>
</g>
<!-- Node4 -->
<g id="Node000004" class="node">
<title>Node4</title>
<g id="a_Node000004"><a xlink:href="menu__change__operation_8cpp.html#ac154a1b200249f6bdbafafff0bd5fd08" target="_top" xlink:title=" ">
<polygon fill="white" stroke="#666666" points="147.25,-172 0,-172 0,-152 147.25,-152 147.25,-172"/>
<text xml:space="preserve" text-anchor="middle" x="73.62" y="-158.5" font-family="Helvetica,sans-Serif" font-size="10.00">BOOST_AUTO_TEST_CASE</text>
</a>
</g>
</g>
<!-- Node3&#45;&gt;Node4 -->
<g id="edge3_Node000003_Node000004" class="edge">
<title>Node3&#45;&gt;Node4</title>
<g id="a_edge3_Node000003_Node000004"><a xlink:title=" ">
<path fill="none" stroke="#63b8ff" d="M204.08,-95.72C196.82,-98.17 189.66,-101.21 183.25,-105 163.23,-116.84 167.27,-131.16 147.25,-143 141.42,-146.45 134.96,-149.28 128.37,-151.61"/>
<polygon fill="#63b8ff" stroke="#63b8ff" points="205.05,-99.09 213.64,-92.89 203.06,-92.38 205.05,-99.09"/>
</a>
</g>
</g>
<!-- Node5 -->
<g id="Node000005" class="node">
<title>Node5</title>
<g id="a_Node000005"><a xlink:href="menu__change__operation_8cpp.html#a81fa9e577bb1313893e9fd84bfe8e42e" target="_top" xlink:title=" ">
<polygon fill="white" stroke="#666666" points="147.25,-134 0,-134 0,-114 147.25,-114 147.25,-134"/>
<text xml:space="preserve" text-anchor="middle" x="73.62" y="-120.5" font-family="Helvetica,sans-Serif" font-size="10.00">BOOST_AUTO_TEST_CASE</text>
</a>
</g>
</g>
<!-- Node3&#45;&gt;Node5 -->
<g id="edge4_Node000003_Node000005" class="edge">
<title>Node3&#45;&gt;Node5</title>
<g id="a_edge4_Node000003_Node000005"><a xlink:title=" ">
<path fill="none" stroke="#63b8ff" d="M204.1,-96.86C179.11,-102.09 149.27,-108.35 124.54,-113.54"/>
<polygon fill="#63b8ff" stroke="#63b8ff" points="204.65,-100.32 213.72,-94.84 203.21,-93.47 204.65,-100.32"/>
</a>
</g>
</g>
<!-- Node6 -->
<g id="Node000006" class="node">
<title>Node6</title>
<g id="a_Node000006"><a xlink:href="menu__change__operation_8cpp.html#af1ec2700c6332c1ebe308759d9b531f6" target="_top" xlink:title=" ">
<polygon fill="white" stroke="#666666" points="147.25,-96 0,-96 0,-76 147.25,-76 147.25,-96"/>
<text xml:space="preserve" text-anchor="middle" x="73.62" y="-82.5" font-family="Helvetica,sans-Serif" font-size="10.00">BOOST_AUTO_TEST_CASE</text>
</a>
</g>
</g>
<!-- Node3&#45;&gt;Node6 -->
<g id="edge5_Node000003_Node000006" class="edge">
<title>Node3&#45;&gt;Node6</title>
<g id="a_edge5_Node000003_Node000006"><a xlink:title=" ">
<path fill="none" stroke="#63b8ff" d="M203.78,-86C186.28,-86 166.41,-86 147.6,-86"/>
<polygon fill="#63b8ff" stroke="#63b8ff" points="203.69,-89.5 213.69,-86 203.69,-82.5 203.69,-89.5"/>
</a>
</g>
</g>
<!-- Node7 -->
<g id="Node000007" class="node">
<title>Node7</title>
<g id="a_Node000007"><a xlink:href="menu__change__operation_8cpp.html#a7f4477f42394db26f782d45e49cb2e64" target="_top" xlink:title=" ">
<polygon fill="white" stroke="#666666" points="147.25,-58 0,-58 0,-38 147.25,-38 147.25,-58"/>
<text xml:space="preserve" text-anchor="middle" x="73.62" y="-44.5" font-family="Helvetica,sans-Serif" font-size="10.00">BOOST_AUTO_TEST_CASE</text>
</a>
</g>
</g>
<!-- Node3&#45;&gt;Node7 -->
<g id="edge6_Node000003_Node000007" class="edge">
<title>Node3&#45;&gt;Node7</title>
<g id="a_edge6_Node000003_Node000007"><a xlink:title=" ">
<path fill="none" stroke="#63b8ff" d="M204.1,-75.14C179.11,-69.91 149.27,-63.65 124.54,-58.46"/>
<polygon fill="#63b8ff" stroke="#63b8ff" points="203.21,-78.53 213.72,-77.16 204.65,-71.68 203.21,-78.53"/>
</a>
</g>
</g>
<!-- Node8 -->
<g id="Node000008" class="node">
<title>Node8</title>
<g id="a_Node000008"><a xlink:href="menu__change__operation_8cpp.html#a47c493cda5dad7713cef20424cd34477" target="_top" xlink:title=" ">
<polygon fill="white" stroke="#666666" points="147.25,-20 0,-20 0,0 147.25,0 147.25,-20"/>
<text xml:space="preserve" text-anchor="middle" x="73.62" y="-6.5" font-family="Helvetica,sans-Serif" font-size="10.00">BOOST_AUTO_TEST_CASE</text>
</a>
</g>
</g>
<!-- Node3&#45;&gt;Node8 -->
<g id="edge7_Node000003_Node000008" class="edge">
<title>Node3&#45;&gt;Node8</title>
<g id="a_edge7_Node000003_Node000008"><a xlink:title=" ">
<path fill="none" stroke="#63b8ff" d="M229.42,-69.94C207.91,-57.41 176.43,-40.3 147.25,-29 138.86,-25.75 129.72,-22.87 120.84,-20.4"/>
<polygon fill="#63b8ff" stroke="#63b8ff" points="227.44,-72.83 237.83,-74.9 231,-66.8 227.44,-72.83"/>
</a>
</g>
</g>
</g>
</svg>
</svg>

<style type='text/css'>
<![CDATA[
[data-mouse-over-selected='false'] { opacity: 0.7; }
[data-mouse-over-selected='true']  { opacity: 1.0; }
]]>
</style>
<script type="application/ecmascript"><![CDATA[
document.addEventListener('DOMContentLoaded', (event) => {
  highlightEdges();
  highlightAdjacentNodes();
});
]]></script>
</svg>
