<?xml version="1.0" encoding="UTF-8" standalone="no"?>
<!DOCTYPE svg PUBLIC "-//W3C//DTD SVG 1.1//EN"
 "http://www.w3.org/Graphics/SVG/1.1/DTD/svg11.dtd">
<!-- Generated by graphviz version 14.1.2 (20260124.0452)
 -->
<!-- Title: depicture_menu/src/core/usecase/menu_view/dto/menu_view_dto.hpp Pages: 1 -->
<svg width="1095pt" height="316pt"
 viewBox="0.00 0.00 1095.00 316.00" xmlns="http://www.w3.org/2000/svg" xmlns:xlink="http://www.w3.org/1999/xlink">
<g id="graph0" class="graph" transform="scale(1 1) rotate(0) translate(4 312)">
<title>depicture_menu/src/core/usecase/menu_view/dto/menu_view_dto.hpp</title>
<!-- Node1 -->
<g id="Node000001" class="node">
<title>Node1</title>
<g id="a_Node000001"><a xlink:title=" ">
<polygon fill="#999999" stroke="#666666" points="538.12,-308 408.12,-308 408.12,-264 538.12,-264 538.12,-308"/>
<text xml:space="preserve" text-anchor="start" x="416.12" y="-294.5" font-family="Helvetica,sans-Serif" font-size="10.00">depicture_menu/src</text>
<text xml:space="preserve" text-anchor="start" x="416.12" y="-282.5" font-family="Helvetica,sans-Serif" font-size="10.00">/core/usecase/menu_view</text>
<text xml:space="preserve" text-anchor="middle" x="473.12" y="-270.5" font-family="Helvetica,sans-Serif" font-size="10.00">/dto/menu_view_dto.hpp</text>
</a>
</g>
</g>
<!-- Node2 -->
<g id="Node000002" class="node">
<title>Node2</title>
<g id="a_Node000002"><a xlink:href="menu__view__presenter_8hpp.html" target="_top" xlink:title=" ">
<polygon fill="white" stroke="#666666" points="764.12,-222 574.12,-222 574.12,-178 764.12,-178 764.12,-222"/>
<text xml:space="preserve" text-anchor="start" x="582.12" y="-208.5" font-family="Helvetica,sans-Serif" font-size="10.00">depicture_menu/src</text>
<text xml:space="preserve" text-anchor="start" x="582.12" y="-196.5" font-family="Helvetica,sans-Serif" font-size="10.00">/core/presentation/change</text>
<text xml:space="preserve" text-anchor="middle" x="669.12" y="-184.5" font-family="Helvetica,sans-Serif" font-size="10.00">_view_model/menu_view_presenter.hpp</text>
</a>
</g>
</g>
<!-- Node1&#45;&gt;Node2 -->
<g id="edge1_Node000001_Node000002" class="edge">
<title>Node1&#45;&gt;Node2</title>
<g id="a_edge1_Node000001_Node000002"><a xlink:title=" ">
<path fill="none" stroke="#63b8ff" d="M533.39,-259.17C560.91,-247.38 593.12,-233.58 619.25,-222.37"/>
<polygon fill="#63b8ff" stroke="#63b8ff" points="532.3,-255.83 524.48,-262.99 535.05,-262.27 532.3,-255.83"/>
</a>
</g>
</g>
<!-- Node10 -->
<g id="Node000010" class="node">
<title>Node10</title>
<g id="a_Node000010"><a xlink:href="menu__view__model__interface_8hpp.html" target="_top" xlink:title=" ">
<polygon fill="white" stroke="#666666" points="450.38,-228 315.88,-228 315.88,-172 450.38,-172 450.38,-228"/>
<text xml:space="preserve" text-anchor="start" x="323.88" y="-214.5" font-family="Helvetica,sans-Serif" font-size="10.00">depicture_menu/src</text>
<text xml:space="preserve" text-anchor="start" x="323.88" y="-202.5" font-family="Helvetica,sans-Serif" font-size="10.00">/core/usecase/config</text>
<text xml:space="preserve" text-anchor="start" x="323.88" y="-190.5" font-family="Helvetica,sans-Serif" font-size="10.00">_view/interface/menu</text>
<text xml:space="preserve" text-anchor="middle" x="383.12" y="-178.5" font-family="Helvetica,sans-Serif" font-size="10.00">_view_model_interface.hpp</text>
</a>
</g>
</g>
<!-- Node1&#45;&gt;Node10 -->
<g id="edge11_Node000001_Node000010" class="edge">
<title>Node1&#45;&gt;Node10</title>
<g id="a_edge11_Node000001_Node000010"><a xlink:title=" ">
<path fill="none" stroke="#63b8ff" d="M442.2,-256.14C432.52,-247.1 421.87,-237.16 412.31,-228.24"/>
<polygon fill="#63b8ff" stroke="#63b8ff" points="439.61,-258.51 449.31,-262.77 444.39,-253.39 439.61,-258.51"/>
</a>
</g>
</g>
<!-- Node3 -->
<g id="Node000003" class="node">
<title>Node3</title>
<g id="a_Node000003"><a xlink:href="config__view__arg__builder_8cpp.html" target="_top" xlink:title="ConfigArg ファクトリー">
<polygon fill="white" stroke="#666666" points="1059.38,-56 942.88,-56 942.88,0 1059.38,0 1059.38,-56"/>
<text xml:space="preserve" text-anchor="start" x="950.88" y="-42.5" font-family="Helvetica,sans-Serif" font-size="10.00">depicture_menu/src</text>
<text xml:space="preserve" text-anchor="start" x="950.88" y="-30.5" font-family="Helvetica,sans-Serif" font-size="10.00">/core/application/cs</text>
<text xml:space="preserve" text-anchor="start" x="950.88" y="-18.5" font-family="Helvetica,sans-Serif" font-size="10.00">_binding_factory/config</text>
<text xml:space="preserve" text-anchor="middle" x="1001.12" y="-6.5" font-family="Helvetica,sans-Serif" font-size="10.00">_view_arg_builder.cpp</text>
</a>
</g>
</g>
<!-- Node2&#45;&gt;Node3 -->
<g id="edge2_Node000002_Node000003" class="edge">
<title>Node2&#45;&gt;Node3</title>
<g id="a_edge2_Node000002_Node000003"><a xlink:title=" ">
<path fill="none" stroke="#63b8ff" d="M775.6,-197.78C883.78,-194.02 1040.74,-180.74 1079.12,-136 1091.86,-121.16 1087.56,-109.65 1079.12,-92 1072.37,-77.86 1060.73,-65.88 1048.46,-56.28"/>
<polygon fill="#63b8ff" stroke="#63b8ff" points="775.7,-194.28 765.82,-198.1 775.93,-201.27 775.7,-194.28"/>
</a>
</g>
</g>
<!-- Node4 -->
<g id="Node000004" class="node">
<title>Node4</title>
<g id="a_Node000004"><a xlink:href="menu__view__arg__builder_8cpp.html" target="_top" xlink:title=" ">
<polygon fill="white" stroke="#666666" points="114.25,-56 0,-56 0,0 114.25,0 114.25,-56"/>
<text xml:space="preserve" text-anchor="start" x="8" y="-42.5" font-family="Helvetica,sans-Serif" font-size="10.00">depicture_menu/src</text>
<text xml:space="preserve" text-anchor="start" x="8" y="-30.5" font-family="Helvetica,sans-Serif" font-size="10.00">/core/application/cs</text>
<text xml:space="preserve" text-anchor="start" x="8" y="-18.5" font-family="Helvetica,sans-Serif" font-size="10.00">_binding_factory/menu</text>
<text xml:space="preserve" text-anchor="middle" x="57.12" y="-6.5" font-family="Helvetica,sans-Serif" font-size="10.00">_view_arg_builder.cpp</text>
</a>
</g>
</g>
<!-- Node2&#45;&gt;Node4 -->
<g id="edge3_Node000002_Node000004" class="edge">
<title>Node2&#45;&gt;Node4</title>
<g id="a_edge3_Node000002_Node000004"><a xlink:title=" ">
<path fill="none" stroke="#63b8ff" d="M562.69,-184.87C529.53,-180.59 492.83,-175.97 459.12,-172 384.55,-163.21 186.65,-176.04 123.12,-136 94.14,-117.73 75.88,-81.62 66.1,-56.43"/>
<polygon fill="#63b8ff" stroke="#63b8ff" points="561.92,-188.3 572.28,-186.11 562.82,-181.36 561.92,-188.3"/>
</a>
</g>
</g>
<!-- Node5 -->
<g id="Node000005" class="node">
<title>Node5</title>
<g id="a_Node000005"><a xlink:href="config__view__dispatch_8cpp.html" target="_top" xlink:title=" ">
<polygon fill="white" stroke="#666666" points="453.88,-50 280.38,-50 280.38,-6 453.88,-6 453.88,-50"/>
<text xml:space="preserve" text-anchor="start" x="288.38" y="-36.5" font-family="Helvetica,sans-Serif" font-size="10.00">depicture_menu/src</text>
<text xml:space="preserve" text-anchor="start" x="288.38" y="-24.5" font-family="Helvetica,sans-Serif" font-size="10.00">/core/application/usecase</text>
<text xml:space="preserve" text-anchor="middle" x="367.12" y="-12.5" font-family="Helvetica,sans-Serif" font-size="10.00">_dispatch/config_view_dispatch.cpp</text>
</a>
</g>
</g>
<!-- Node2&#45;&gt;Node5 -->
<g id="edge4_Node000002_Node000005" class="edge">
<title>Node2&#45;&gt;Node5</title>
<g id="a_edge4_Node000002_Node000005"><a xlink:title=" ">
<path fill="none" stroke="#63b8ff" d="M562.68,-183.76C459.52,-168.48 317.4,-145.84 309.12,-136 286.83,-109.47 316.91,-73.02 341.4,-50.25"/>
<polygon fill="#63b8ff" stroke="#63b8ff" points="561.89,-187.18 572.29,-185.18 562.91,-180.26 561.89,-187.18"/>
</a>
</g>
</g>
<!-- Node6 -->
<g id="Node000006" class="node">
<title>Node6</title>
<g id="a_Node000006"><a xlink:href="setup__core_8cpp.html" target="_top" xlink:title=" ">
<polygon fill="white" stroke="#666666" points="755.12,-56 643.12,-56 643.12,0 755.12,0 755.12,-56"/>
<text xml:space="preserve" text-anchor="start" x="651.12" y="-42.5" font-family="Helvetica,sans-Serif" font-size="10.00">depicture_menu/src</text>
<text xml:space="preserve" text-anchor="start" x="651.12" y="-30.5" font-family="Helvetica,sans-Serif" font-size="10.00">/core/dll_entry_point</text>
<text xml:space="preserve" text-anchor="start" x="651.12" y="-18.5" font-family="Helvetica,sans-Serif" font-size="10.00">/domain_control/setup</text>
<text xml:space="preserve" text-anchor="middle" x="699.12" y="-6.5" font-family="Helvetica,sans-Serif" font-size="10.00">_core.cpp</text>
</a>
</g>
</g>
<!-- Node2&#45;&gt;Node6 -->
<g id="edge5_Node000002_Node000006" class="edge">
<title>Node2&#45;&gt;Node6</title>
<g id="a_edge5_Node000002_Node000006"><a xlink:title=" ">
<path fill="none" stroke="#63b8ff" d="M775.44,-180.4C822.8,-169.74 871.07,-154.74 885.12,-136 896.86,-120.36 896.52,-107.89 885.12,-92 855.82,-51.13 798.54,-36.44 755.25,-31.33"/>
<polygon fill="#63b8ff" stroke="#63b8ff" points="774.9,-176.94 765.88,-182.49 776.4,-183.77 774.9,-176.94"/>
</a>
</g>
</g>
<!-- Node7 -->
<g id="Node000007" class="node">
<title>Node7</title>
<g id="a_Node000007"><a xlink:href="menu__view__presenter_8cpp.html" target="_top" xlink:title="メニュープレゼンター">
<polygon fill="white" stroke="#666666" points="656.12,-136 466.12,-136 466.12,-92 656.12,-92 656.12,-136"/>
<text xml:space="preserve" text-anchor="start" x="474.12" y="-122.5" font-family="Helvetica,sans-Serif" font-size="10.00">depicture_menu/src</text>
<text xml:space="preserve" text-anchor="start" x="474.12" y="-110.5" font-family="Helvetica,sans-Serif" font-size="10.00">/core/presentation/change</text>
<text xml:space="preserve" text-anchor="middle" x="561.12" y="-98.5" font-family="Helvetica,sans-Serif" font-size="10.00">_view_model/menu_view_presenter.cpp</text>
</a>
</g>
</g>
<!-- Node2&#45;&gt;Node7 -->
<g id="edge6_Node000002_Node000007" class="edge">
<title>Node2&#45;&gt;Node7</title>
<g id="a_edge6_Node000002_Node000007"><a xlink:title=" ">
<path fill="none" stroke="#63b8ff" d="M632.88,-170.81C618.42,-159.57 602.06,-146.84 588.61,-136.37"/>
<polygon fill="#63b8ff" stroke="#63b8ff" points="630.36,-173.28 640.4,-176.66 634.65,-167.75 630.36,-173.28"/>
</a>
</g>
</g>
<!-- Node8 -->
<g id="Node000008" class="node">
<title>Node8</title>
<g id="a_Node000008"><a xlink:href="combine__view__model__presenter_8hpp.html" target="_top" xlink:title=" ">
<polygon fill="white" stroke="#666666" points="1069.88,-136 932.38,-136 932.38,-92 1069.88,-92 1069.88,-136"/>
<text xml:space="preserve" text-anchor="start" x="940.38" y="-122.5" font-family="Helvetica,sans-Serif" font-size="10.00">depicture_menu/src</text>
<text xml:space="preserve" text-anchor="start" x="940.38" y="-110.5" font-family="Helvetica,sans-Serif" font-size="10.00">/core/presentation/combine</text>
<text xml:space="preserve" text-anchor="middle" x="1001.12" y="-98.5" font-family="Helvetica,sans-Serif" font-size="10.00">_view_model_presenter.hpp</text>
</a>
</g>
</g>
<!-- Node2&#45;&gt;Node8 -->
<g id="edge7_Node000002_Node000008" class="edge">
<title>Node2&#45;&gt;Node8</title>
<g id="a_edge7_Node000002_Node000008"><a xlink:title=" ">
<path fill="none" stroke="#63b8ff" d="M764.63,-174.84C818.09,-161.31 883.53,-144.75 932.01,-132.49"/>
<polygon fill="#63b8ff" stroke="#63b8ff" points="764.06,-171.37 755.23,-177.21 765.78,-178.15 764.06,-171.37"/>
</a>
</g>
</g>
<!-- Node9 -->
<g id="Node000009" class="node">
<title>Node9</title>
<g id="a_Node000009"><a xlink:href="_test_menu_view_presenter_8cpp.html" target="_top" xlink:title=" ">
<polygon fill="white" stroke="#666666" points="875.75,-136 674.5,-136 674.5,-92 875.75,-92 875.75,-136"/>
<text xml:space="preserve" text-anchor="start" x="682.5" y="-122.5" font-family="Helvetica,sans-Serif" font-size="10.00">depicture_menu/test</text>
<text xml:space="preserve" text-anchor="start" x="682.5" y="-110.5" font-family="Helvetica,sans-Serif" font-size="10.00">/core/presentation/change</text>
<text xml:space="preserve" text-anchor="middle" x="775.12" y="-98.5" font-family="Helvetica,sans-Serif" font-size="10.00">_view_model/TestMenuViewPresenter.cpp</text>
</a>
</g>
</g>
<!-- Node2&#45;&gt;Node9 -->
<g id="edge10_Node000002_Node000009" class="edge">
<title>Node2&#45;&gt;Node9</title>
<g id="a_edge10_Node000002_Node000009"><a xlink:title=" ">
<path fill="none" stroke="#63b8ff" d="M705.1,-170.49C719.19,-159.33 735.08,-146.74 748.15,-136.37"/>
<polygon fill="#63b8ff" stroke="#63b8ff" points="703,-167.69 697.33,-176.65 707.35,-173.18 703,-167.69"/>
</a>
</g>
</g>
<!-- Node8&#45;&gt;Node3 -->
<g id="edge8_Node000008_Node000003" class="edge">
<title>Node8&#45;&gt;Node3</title>
<g id="a_edge8_Node000008_Node000003"><a xlink:title=" ">
<path fill="none" stroke="#63b8ff" d="M1001.12,-80.54C1001.12,-72.51 1001.12,-63.99 1001.12,-56.24"/>
<polygon fill="#63b8ff" stroke="#63b8ff" points="997.63,-80.29 1001.13,-90.29 1004.63,-80.29 997.63,-80.29"/>
</a>
</g>
</g>
<!-- Node8&#45;&gt;Node6 -->
<g id="edge9_Node000008_Node000006" class="edge">
<title>Node8&#45;&gt;Node6</title>
<g id="a_edge9_Node000008_Node000006"><a xlink:title=" ">
<path fill="none" stroke="#63b8ff" d="M921.32,-90.8C869.16,-76.29 802.3,-57.7 755.6,-44.71"/>
<polygon fill="#63b8ff" stroke="#63b8ff" points="920.19,-94.12 930.76,-93.43 922.06,-87.38 920.19,-94.12"/>
</a>
</g>
</g>
<!-- Node11 -->
<g id="Node000011" class="node">
<title>Node11</title>
<g id="a_Node000011"><a xlink:href="hidden__menu__view_8hpp.html" target="_top" xlink:title=" ">
<polygon fill="white" stroke="#666666" points="448.12,-136 318.12,-136 318.12,-92 448.12,-92 448.12,-136"/>
<text xml:space="preserve" text-anchor="start" x="326.12" y="-122.5" font-family="Helvetica,sans-Serif" font-size="10.00">depicture_menu/src</text>
<text xml:space="preserve" text-anchor="start" x="326.12" y="-110.5" font-family="Helvetica,sans-Serif" font-size="10.00">/core/usecase/menu_view</text>
<text xml:space="preserve" text-anchor="middle" x="383.12" y="-98.5" font-family="Helvetica,sans-Serif" font-size="10.00">/hidden_menu_view.hpp</text>
</a>
</g>
</g>
<!-- Node10&#45;&gt;Node11 -->
<g id="edge12_Node000010_Node000011" class="edge">
<title>Node10&#45;&gt;Node11</title>
<g id="a_edge12_Node000010_Node000011"><a xlink:title=" ">
<path fill="none" stroke="#63b8ff" d="M383.12,-160.5C383.12,-152.22 383.12,-143.75 383.12,-136.4"/>
<polygon fill="#63b8ff" stroke="#63b8ff" points="379.63,-160.45 383.13,-170.45 386.63,-160.45 379.63,-160.45"/>
</a>
</g>
</g>
<!-- Node12 -->
<g id="Node000012" class="node">
<title>Node12</title>
<g id="a_Node000012"><a xlink:href="show__menu__view_8hpp.html" target="_top" xlink:title="メニュー表示ユースケース">
<polygon fill="white" stroke="#666666" points="262.12,-136 132.12,-136 132.12,-92 262.12,-92 262.12,-136"/>
<text xml:space="preserve" text-anchor="start" x="140.12" y="-122.5" font-family="Helvetica,sans-Serif" font-size="10.00">depicture_menu/src</text>
<text xml:space="preserve" text-anchor="start" x="140.12" y="-110.5" font-family="Helvetica,sans-Serif" font-size="10.00">/core/usecase/menu_view</text>
<text xml:space="preserve" text-anchor="middle" x="197.12" y="-98.5" font-family="Helvetica,sans-Serif" font-size="10.00">/show_menu_view.hpp</text>
</a>
</g>
</g>
<!-- Node10&#45;&gt;Node12 -->
<g id="edge14_Node000010_Node000012" class="edge">
<title>Node10&#45;&gt;Node12</title>
<g id="a_edge14_Node000010_Node000012"><a xlink:title=" ">
<path fill="none" stroke="#63b8ff" d="M312.25,-166.99C289.67,-156.8 265.24,-145.76 244.72,-136.5"/>
<polygon fill="#63b8ff" stroke="#63b8ff" points="310.55,-170.06 321.1,-170.99 313.43,-163.68 310.55,-170.06"/>
</a>
</g>
</g>
<!-- Node11&#45;&gt;Node6 -->
<g id="edge13_Node000011_Node000006" class="edge">
<title>Node11&#45;&gt;Node6</title>
<g id="a_edge13_Node000011_Node000006"><a xlink:title=" ">
<path fill="none" stroke="#63b8ff" d="M459.46,-91.39C527.95,-72.83 596.19,-55.2 642.8,-43.29"/>
<polygon fill="#63b8ff" stroke="#63b8ff" points="458.67,-87.98 449.93,-93.97 460.5,-94.73 458.67,-87.98"/>
</a>
</g>
</g>
<!-- Node12&#45;&gt;Node3 -->
<g id="edge15_Node000012_Node000003" class="edge">
<title>Node12&#45;&gt;Node3</title>
<g id="a_edge15_Node000012_Node000003"><a xlink:title=" ">
<path fill="none" stroke="#63b8ff" d="M273.63,-97.54C285.48,-95.46 297.61,-93.53 309.12,-92 510.21,-65.27 562.21,-75.48 764.12,-56 825.13,-50.11 894.81,-42.01 942.75,-36.22"/>
<polygon fill="#63b8ff" stroke="#63b8ff" points="273.09,-94.08 263.87,-99.29 274.33,-100.97 273.09,-94.08"/>
</a>
</g>
</g>
<!-- Node12&#45;&gt;Node4 -->
<g id="edge16_Node000012_Node000004" class="edge">
<title>Node12&#45;&gt;Node4</title>
<g id="a_edge16_Node000012_Node000004"><a xlink:title=" ">
<path fill="none" stroke="#63b8ff" d="M151.93,-85.88C136.21,-76.45 118.58,-65.87 102.82,-56.42"/>
<polygon fill="#63b8ff" stroke="#63b8ff" points="149.76,-88.66 160.14,-90.81 153.36,-82.66 149.76,-88.66"/>
</a>
</g>
</g>
<!-- Node12&#45;&gt;Node5 -->
<g id="edge17_Node000012_Node000005" class="edge">
<title>Node12&#45;&gt;Node5</title>
<g id="a_edge17_Node000012_Node000005"><a xlink:title=" ">
<path fill="none" stroke="#63b8ff" d="M250.66,-86.55C274.25,-74.89 301.6,-61.38 323.87,-50.37"/>
<polygon fill="#63b8ff" stroke="#63b8ff" points="249.23,-83.35 241.82,-90.92 252.34,-89.62 249.23,-83.35"/>
</a>
</g>
</g>
<!-- Node12&#45;&gt;Node6 -->
<g id="edge18_Node000012_Node000006" class="edge">
<title>Node12&#45;&gt;Node6</title>
<g id="a_edge18_Node000012_Node000006"><a xlink:title=" ">
<path fill="none" stroke="#63b8ff" d="M273.76,-98.37C285.59,-96.18 297.68,-94 309.12,-92 427.7,-71.31 566.99,-49.38 642.86,-37.63"/>
<polygon fill="#63b8ff" stroke="#63b8ff" points="273.2,-94.91 264,-100.18 274.48,-101.79 273.2,-94.91"/>
</a>
</g>
</g>
<!-- Node13 -->
<g id="Node000013" class="node">
<title>Node13</title>
<g id="a_Node000013"><a xlink:href="show__menu__view_8cpp.html" target="_top" xlink:title=" ">
<polygon fill="white" stroke="#666666" points="262.12,-50 132.12,-50 132.12,-6 262.12,-6 262.12,-50"/>
<text xml:space="preserve" text-anchor="start" x="140.12" y="-36.5" font-family="Helvetica,sans-Serif" font-size="10.00">depicture_menu/src</text>
<text xml:space="preserve" text-anchor="start" x="140.12" y="-24.5" font-family="Helvetica,sans-Serif" font-size="10.00">/core/usecase/menu_view</text>
<text xml:space="preserve" text-anchor="middle" x="197.12" y="-12.5" font-family="Helvetica,sans-Serif" font-size="10.00">/show_menu_view.cpp</text>
</a>
</g>
</g>
<!-- Node12&#45;&gt;Node13 -->
<g id="edge19_Node000012_Node000013" class="edge">
<title>Node12&#45;&gt;Node13</title>
<g id="a_edge19_Node000012_Node000013"><a xlink:title=" ">
<path fill="none" stroke="#63b8ff" d="M197.12,-80.49C197.12,-70.43 197.12,-59.6 197.12,-50.48"/>
<polygon fill="#63b8ff" stroke="#63b8ff" points="193.63,-80.29 197.13,-90.29 200.63,-80.29 193.63,-80.29"/>
</a>
</g>
</g>
</g>
</svg>
