<?xml version="1.0" encoding="UTF-8" standalone="no"?>
<!DOCTYPE svg PUBLIC "-//W3C//DTD SVG 1.1//EN"
 "http://www.w3.org/Graphics/SVG/1.1/DTD/svg11.dtd">
<!-- Generated by graphviz version 14.1.2 (20260124.0452)
 -->
<!-- Title: depicture_menu/src/core/presentation/change_view_model/menu_view_presenter.hpp Pages: 1 -->
<svg width="764pt" height="236pt"
 viewBox="0.00 0.00 764.00 236.00" xmlns="http://www.w3.org/2000/svg" xmlns:xlink="http://www.w3.org/1999/xlink">
<g id="graph0" class="graph" transform="scale(1 1) rotate(0) translate(4 232)">
<title>depicture_menu/src/core/presentation/change_view_model/menu_view_presenter.hpp</title>
<!-- Node1 -->
<g id="Node000001" class="node">
<title>Node1</title>
<g id="a_Node000001"><a xlink:title=" ">
<polygon fill="#999999" stroke="#666666" points="406.97,-228 216.97,-228 216.97,-184 406.97,-184 406.97,-228"/>
<text xml:space="preserve" text-anchor="start" x="224.97" y="-214.5" font-family="Helvetica,sans-Serif" font-size="10.00">depicture_menu/src</text>
<text xml:space="preserve" text-anchor="start" x="224.97" y="-202.5" font-family="Helvetica,sans-Serif" font-size="10.00">/core/presentation/change</text>
<text xml:space="preserve" text-anchor="middle" x="311.97" y="-190.5" font-family="Helvetica,sans-Serif" font-size="10.00">_view_model/menu_view_presenter.hpp</text>
</a>
</g>
</g>
<!-- Node2 -->
<g id="Node000002" class="node">
<title>Node2</title>
<g id="a_Node000002"><a xlink:href="config__view__arg__builder_8cpp.html" target="_top" xlink:title="ConfigArg ファクトリー">
<polygon fill="white" stroke="#666666" points="189.22,-56 72.72,-56 72.72,0 189.22,0 189.22,-56"/>
<text xml:space="preserve" text-anchor="start" x="80.72" y="-42.5" font-family="Helvetica,sans-Serif" font-size="10.00">depicture_menu/src</text>
<text xml:space="preserve" text-anchor="start" x="80.72" y="-30.5" font-family="Helvetica,sans-Serif" font-size="10.00">/core/application/cs</text>
<text xml:space="preserve" text-anchor="start" x="80.72" y="-18.5" font-family="Helvetica,sans-Serif" font-size="10.00">_binding_factory/config</text>
<text xml:space="preserve" text-anchor="middle" x="130.97" y="-6.5" font-family="Helvetica,sans-Serif" font-size="10.00">_view_arg_builder.cpp</text>
</a>
</g>
</g>
<!-- Node1&#45;&gt;Node2 -->
<g id="edge1_Node000001_Node000002" class="edge">
<title>Node1&#45;&gt;Node2</title>
<g id="a_edge1_Node000001_Node000002"><a xlink:title=" ">
<path fill="none" stroke="#63b8ff" d="M205.7,-198.94C129.32,-192.11 35.63,-177.77 10.97,-148 -4.91,-128.83 -1.9,-113.3 10.97,-92 24.54,-69.55 49.05,-54.7 72.4,-45.1"/>
<polygon fill="#63b8ff" stroke="#63b8ff" points="205.07,-202.4 215.33,-199.77 205.67,-195.43 205.07,-202.4"/>
</a>
</g>
</g>
<!-- Node3 -->
<g id="Node000003" class="node">
<title>Node3</title>
<g id="a_Node000003"><a xlink:href="menu__view__arg__builder_8cpp.html" target="_top" xlink:title=" ">
<polygon fill="white" stroke="#666666" points="134.09,-148 19.84,-148 19.84,-92 134.09,-92 134.09,-148"/>
<text xml:space="preserve" text-anchor="start" x="27.84" y="-134.5" font-family="Helvetica,sans-Serif" font-size="10.00">depicture_menu/src</text>
<text xml:space="preserve" text-anchor="start" x="27.84" y="-122.5" font-family="Helvetica,sans-Serif" font-size="10.00">/core/application/cs</text>
<text xml:space="preserve" text-anchor="start" x="27.84" y="-110.5" font-family="Helvetica,sans-Serif" font-size="10.00">_binding_factory/menu</text>
<text xml:space="preserve" text-anchor="middle" x="76.97" y="-98.5" font-family="Helvetica,sans-Serif" font-size="10.00">_view_arg_builder.cpp</text>
</a>
</g>
</g>
<!-- Node1&#45;&gt;Node3 -->
<g id="edge2_Node000001_Node000003" class="edge">
<title>Node1&#45;&gt;Node3</title>
<g id="a_edge2_Node000001_Node000003"><a xlink:title=" ">
<path fill="none" stroke="#63b8ff" d="M234.56,-180.03C205.67,-170.41 172.68,-159.08 142.97,-148 140.19,-146.96 137.34,-145.88 134.48,-144.78"/>
<polygon fill="#63b8ff" stroke="#63b8ff" points="233.38,-183.33 243.98,-183.15 235.58,-176.68 233.38,-183.33"/>
</a>
</g>
</g>
<!-- Node4 -->
<g id="Node000004" class="node">
<title>Node4</title>
<g id="a_Node000004"><a xlink:href="setup__core_8cpp.html" target="_top" xlink:title=" ">
<polygon fill="white" stroke="#666666" points="366.97,-56 254.97,-56 254.97,0 366.97,0 366.97,-56"/>
<text xml:space="preserve" text-anchor="start" x="262.97" y="-42.5" font-family="Helvetica,sans-Serif" font-size="10.00">depicture_menu/src</text>
<text xml:space="preserve" text-anchor="start" x="262.97" y="-30.5" font-family="Helvetica,sans-Serif" font-size="10.00">/core/dll_entry_point</text>
<text xml:space="preserve" text-anchor="start" x="262.97" y="-18.5" font-family="Helvetica,sans-Serif" font-size="10.00">/domain_control/setup</text>
<text xml:space="preserve" text-anchor="middle" x="310.97" y="-6.5" font-family="Helvetica,sans-Serif" font-size="10.00">_core.cpp</text>
</a>
</g>
</g>
<!-- Node1&#45;&gt;Node4 -->
<g id="edge3_Node000001_Node000004" class="edge">
<title>Node1&#45;&gt;Node4</title>
<g id="a_edge3_Node000001_Node000004"><a xlink:title=" ">
<path fill="none" stroke="#63b8ff" d="M418.39,-185.71C457.6,-176.26 495.32,-163.54 506.97,-148 521.9,-128.08 521.63,-112.11 506.97,-92 475.28,-48.53 413.11,-34.4 367.25,-30.13"/>
<polygon fill="#63b8ff" stroke="#63b8ff" points="417.74,-182.27 408.79,-187.95 419.32,-189.09 417.74,-182.27"/>
</a>
</g>
</g>
<!-- Node5 -->
<g id="Node000005" class="node">
<title>Node5</title>
<g id="a_Node000005"><a xlink:href="menu__view__presenter_8cpp.html" target="_top" xlink:title=" ">
<polygon fill="white" stroke="#666666" points="497.97,-142 307.97,-142 307.97,-98 497.97,-98 497.97,-142"/>
<text xml:space="preserve" text-anchor="start" x="315.97" y="-128.5" font-family="Helvetica,sans-Serif" font-size="10.00">depicture_menu/src</text>
<text xml:space="preserve" text-anchor="start" x="315.97" y="-116.5" font-family="Helvetica,sans-Serif" font-size="10.00">/core/presentation/change</text>
<text xml:space="preserve" text-anchor="middle" x="402.97" y="-104.5" font-family="Helvetica,sans-Serif" font-size="10.00">_view_model/menu_view_presenter.cpp</text>
</a>
</g>
</g>
<!-- Node1&#45;&gt;Node5 -->
<g id="edge4_Node000001_Node000005" class="edge">
<title>Node1&#45;&gt;Node5</title>
<g id="a_edge4_Node000001_Node000005"><a xlink:title=" ">
<path fill="none" stroke="#63b8ff" d="M343.32,-176.06C355.26,-165.04 368.64,-152.69 379.7,-142.48"/>
<polygon fill="#63b8ff" stroke="#63b8ff" points="341.02,-173.42 336.05,-182.78 345.77,-178.57 341.02,-173.42"/>
</a>
</g>
</g>
<!-- Node6 -->
<g id="Node000006" class="node">
<title>Node6</title>
<g id="a_Node000006"><a xlink:href="combine__view__model__presenter_8hpp.html" target="_top" xlink:title=" ">
<polygon fill="white" stroke="#666666" points="289.72,-142 152.22,-142 152.22,-98 289.72,-98 289.72,-142"/>
<text xml:space="preserve" text-anchor="start" x="160.22" y="-128.5" font-family="Helvetica,sans-Serif" font-size="10.00">depicture_menu/src</text>
<text xml:space="preserve" text-anchor="start" x="160.22" y="-116.5" font-family="Helvetica,sans-Serif" font-size="10.00">/core/presentation/combine</text>
<text xml:space="preserve" text-anchor="middle" x="220.97" y="-104.5" font-family="Helvetica,sans-Serif" font-size="10.00">_view_model_presenter.hpp</text>
</a>
</g>
</g>
<!-- Node1&#45;&gt;Node6 -->
<g id="edge5_Node000001_Node000006" class="edge">
<title>Node1&#45;&gt;Node6</title>
<g id="a_edge5_Node000001_Node000006"><a xlink:title=" ">
<path fill="none" stroke="#63b8ff" d="M280.62,-176.06C268.68,-165.04 255.3,-152.69 244.24,-142.48"/>
<polygon fill="#63b8ff" stroke="#63b8ff" points="278.17,-178.57 287.89,-182.78 282.92,-173.42 278.17,-178.57"/>
</a>
</g>
</g>
<!-- Node7 -->
<g id="Node000007" class="node">
<title>Node7</title>
<g id="a_Node000007"><a xlink:href="_test_menu_view_presenter_8cpp.html" target="_top" xlink:title=" ">
<polygon fill="white" stroke="#666666" points="755.59,-142 554.34,-142 554.34,-98 755.59,-98 755.59,-142"/>
<text xml:space="preserve" text-anchor="start" x="562.34" y="-128.5" font-family="Helvetica,sans-Serif" font-size="10.00">depicture_menu/test</text>
<text xml:space="preserve" text-anchor="start" x="562.34" y="-116.5" font-family="Helvetica,sans-Serif" font-size="10.00">/core/presentation/change</text>
<text xml:space="preserve" text-anchor="middle" x="654.97" y="-104.5" font-family="Helvetica,sans-Serif" font-size="10.00">_view_model/TestMenuViewPresenter.cpp</text>
</a>
</g>
</g>
<!-- Node1&#45;&gt;Node7 -->
<g id="edge8_Node000001_Node000007" class="edge">
<title>Node1&#45;&gt;Node7</title>
<g id="a_edge8_Node000001_Node000007"><a xlink:title=" ">
<path fill="none" stroke="#63b8ff" d="M410.47,-180.88C459.98,-168.75 519.48,-154.18 567.39,-142.45"/>
<polygon fill="#63b8ff" stroke="#63b8ff" points="409.76,-177.45 400.88,-183.23 411.43,-184.25 409.76,-177.45"/>
</a>
</g>
</g>
<!-- Node6&#45;&gt;Node2 -->
<g id="edge6_Node000006_Node000002" class="edge">
<title>Node6&#45;&gt;Node2</title>
<g id="a_edge6_Node000006_Node000002"><a xlink:title=" ">
<path fill="none" stroke="#63b8ff" d="M191.74,-89.77C180.99,-79.02 168.87,-66.9 158.29,-56.32"/>
<polygon fill="#63b8ff" stroke="#63b8ff" points="189.02,-92 198.57,-96.6 193.97,-87.06 189.02,-92"/>
</a>
</g>
</g>
<!-- Node6&#45;&gt;Node4 -->
<g id="edge7_Node000006_Node000004" class="edge">
<title>Node6&#45;&gt;Node4</title>
<g id="a_edge7_Node000006_Node000004"><a xlink:title=" ">
<path fill="none" stroke="#63b8ff" d="M250.2,-89.77C260.95,-79.02 273.07,-66.9 283.65,-56.32"/>
<polygon fill="#63b8ff" stroke="#63b8ff" points="247.96,-87.06 243.37,-96.6 252.91,-92 247.96,-87.06"/>
</a>
</g>
</g>
</g>
</svg>
