<?xml version="1.0" encoding="UTF-8" standalone="no"?>
<!DOCTYPE svg PUBLIC "-//W3C//DTD SVG 1.1//EN"
 "http://www.w3.org/Graphics/SVG/1.1/DTD/svg11.dtd">
<!-- Generated by graphviz version 14.1.2 (20260124.0452)
 -->
<!-- Title: depicture_menu/src/core/usecase/config_view/dto/menu_item_updated.hpp Pages: 1 -->
<!--zoomable 436 -->

<svg id="main" version="1.1" xmlns="http://www.w3.org/2000/svg" xmlns:xlink="http://www.w3.org/1999/xlink" xml:space="preserve" onload="init(evt)">

<style type="text/css"><![CDATA[
.node, .edge {opacity: 0.7;}
.node.selected, .edge.selected {opacity: 1;}
.edge:hover path { stroke: red; }
.edge:hover polygon { stroke: red; fill: red; }
]]></style>

<defs>
  <circle id="rim" cx="0" cy="0" r="7"/>
  <circle id="rim2" cx="0" cy="0" r="3.5"/>
  <g id="zoomPlus">
    <use xlink:href="#rim" fill="#404040"><set attributeName="fill" to="#808080" begin="zoomplus.mouseover" end="zoomplus.mouseout"/></use>
    <path d="M-4,0h8M0,-4v8" fill="none" stroke="white" stroke-width="1.5" pointer-events="none"/>
  </g>
  <g id="zoomMin">
    <use xlink:href="#rim" fill="#404040"><set attributeName="fill" to="#808080" begin="zoomminus.mouseover" end="zoomminus.mouseout"/></use>
    <path d="M-4,0h8" fill="none" stroke="white" stroke-width="1.5" pointer-events="none"/>
  </g>
  <g id="arrowUp" transform="translate(30 24)">
    <use xlink:href="#rim"/>
    <path pointer-events="none" fill="none" stroke="white" stroke-width="1.5" d="M0,-3.0v7 M-2.5,-0.5L0,-3.0L2.5,-0.5"/>
  </g>
  <g id="arrowRight" transform="rotate(90) translate(36 -43)">
    <use xlink:href="#rim"/>
    <path pointer-events="none" fill="none" stroke="white" stroke-width="1.5" d="M0,-3.0v7 M-2.5,-0.5L0,-3.0L2.5,-0.5"/>
  </g>
  <g id="arrowDown" transform="rotate(180) translate(-30 -48)">
    <use xlink:href="#rim"/>
    <path pointer-events="none" fill="none" stroke="white" stroke-width="1.5" d="M0,-3.0v7 M-2.5,-0.5L0,-3.0L2.5,-0.5"/>
  </g>
  <g id="arrowLeft" transform="rotate(270) translate(-36 17)">
    <use xlink:href="#rim"/>
    <path pointer-events="none" fill="none" stroke="white" stroke-width="1.5" d="M0,-3.0v7 M-2.5,-0.5L0,-3.0L2.5,-0.5"/>
  </g>
  <g id="resetDef">
    <use xlink:href="#rim2" fill="#404040"><set attributeName="fill" to="#808080" begin="reset.mouseover" end="reset.mouseout"/></use>
  </g>
</defs>
<script type="application/ecmascript">
var viewWidth = 1819;
var viewHeight = 436;
var sectionId = 'dynsection-0';
</script>
<script type="application/ecmascript" xlink:href="svg.min.js"/>
<svg id="graph" class="graph">
<g id="viewport">
<title>depicture_menu/src/core/usecase/config_view/dto/menu_item_updated.hpp</title>
<!-- Node1 -->
<g id="Node000001" class="node">
<title>Node1</title>
<g id="a_Node000001"><a xlink:title="メニューアイテム更新output DTO">
<polygon fill="#999999" stroke="#666666" points="1317.15,-428 1149.65,-428 1149.65,-384 1317.15,-384 1317.15,-428"/>
<text xml:space="preserve" text-anchor="start" x="1157.65" y="-414.5" font-family="Helvetica,sans-Serif" font-size="10.00">depicture_menu/src</text>
<text xml:space="preserve" text-anchor="start" x="1157.65" y="-402.5" font-family="Helvetica,sans-Serif" font-size="10.00">/core/usecase/config</text>
<text xml:space="preserve" text-anchor="middle" x="1233.4" y="-390.5" font-family="Helvetica,sans-Serif" font-size="10.00">_view/dto/menu_item_updated.hpp</text>
</a>
</g>
</g>
<!-- Node2 -->
<g id="Node000002" class="node">
<title>Node2</title>
<g id="a_Node000002"><a xlink:href="menu__ids_8hpp.html" target="_top" xlink:title=" ">
<polygon fill="white" stroke="#666666" points="1296.15,-348 1170.65,-348 1170.65,-316 1296.15,-316 1296.15,-348"/>
<text xml:space="preserve" text-anchor="start" x="1178.65" y="-334.5" font-family="Helvetica,sans-Serif" font-size="10.00">core/domain/model/menu</text>
<text xml:space="preserve" text-anchor="middle" x="1233.4" y="-322.5" font-family="Helvetica,sans-Serif" font-size="10.00">/menu_ids.hpp</text>
</a>
</g>
</g>
<!-- Node1&#45;&gt;Node2 -->
<g id="edge1_Node000001_Node000002" class="edge">
<title>Node1&#45;&gt;Node2</title>
<g id="a_edge1_Node000001_Node000002"><a xlink:title=" ">
<path fill="none" stroke="#63b8ff" d="M1233.4,-383.79C1233.4,-376.18 1233.4,-367.52 1233.4,-359.52"/>
<polygon fill="#63b8ff" stroke="#63b8ff" points="1236.9,-359.64 1233.4,-349.64 1229.9,-359.64 1236.9,-359.64"/>
</a>
</g>
</g>
<!-- Node3 -->
<g id="Node000003" class="node">
<title>Node3</title>
<g id="a_Node000003"><a xlink:href="model_2entity__id_8hpp.html" target="_top" xlink:title=" ">
<polygon fill="white" stroke="#666666" points="1296.15,-280 1170.65,-280 1170.65,-248 1296.15,-248 1296.15,-280"/>
<text xml:space="preserve" text-anchor="start" x="1178.65" y="-266.5" font-family="Helvetica,sans-Serif" font-size="10.00">core/domain/model/entity</text>
<text xml:space="preserve" text-anchor="middle" x="1233.4" y="-254.5" font-family="Helvetica,sans-Serif" font-size="10.00">_id.hpp</text>
</a>
</g>
</g>
<!-- Node2&#45;&gt;Node3 -->
<g id="edge2_Node000002_Node000003" class="edge">
<title>Node2&#45;&gt;Node3</title>
<g id="a_edge2_Node000002_Node000003"><a xlink:title=" ">
<path fill="none" stroke="#63b8ff" d="M1233.4,-315.69C1233.4,-308.53 1233.4,-299.79 1233.4,-291.59"/>
<polygon fill="#63b8ff" stroke="#63b8ff" points="1236.9,-291.74 1233.4,-281.74 1229.9,-291.74 1236.9,-291.74"/>
</a>
</g>
</g>
<!-- Node4 -->
<g id="Node000004" class="node">
<title>Node4</title>
<g id="a_Node000004"><a xlink:href="model_2value__object_8hpp.html" target="_top" xlink:title=" ">
<polygon fill="white" stroke="#666666" points="865.15,-206 775.65,-206 775.65,-186 865.15,-186 865.15,-206"/>
<text xml:space="preserve" text-anchor="middle" x="820.4" y="-192.5" font-family="Helvetica,sans-Serif" font-size="10.00">value_object.hpp</text>
</a>
</g>
</g>
<!-- Node3&#45;&gt;Node4 -->
<g id="edge3_Node000003_Node000004" class="edge">
<title>Node3&#45;&gt;Node4</title>
<g id="a_edge3_Node000003_Node000004"><a xlink:title=" ">
<path fill="none" stroke="#63b8ff" d="M1170.23,-252.9C1090.16,-240.11 953.38,-218.25 876.73,-206"/>
<polygon fill="#63b8ff" stroke="#63b8ff" points="877.33,-202.55 866.91,-204.43 876.23,-209.47 877.33,-202.55"/>
</a>
</g>
</g>
<!-- Node13 -->
<g id="Node000013" class="node">
<title>Node13</title>
<g id="a_Node000013"><a xlink:title=" ">
<polygon fill="#e0e0e0" stroke="#999999" points="1157.78,-88 1063.03,-88 1063.03,-56 1157.78,-56 1157.78,-88"/>
<text xml:space="preserve" text-anchor="start" x="1071.03" y="-74.5" font-family="Helvetica,sans-Serif" font-size="10.00">boost/serialization</text>
<text xml:space="preserve" text-anchor="middle" x="1110.4" y="-62.5" font-family="Helvetica,sans-Serif" font-size="10.00">/access.hpp</text>
</a>
</g>
</g>
<!-- Node3&#45;&gt;Node13 -->
<g id="edge27_Node000003_Node000013" class="edge">
<title>Node3&#45;&gt;Node13</title>
<g id="a_edge27_Node000003_Node000013"><a xlink:title=" ">
<path fill="none" stroke="#63b8ff" d="M1170.19,-256.03C1142.13,-249.43 1111.62,-236.66 1094.4,-212 1070.97,-178.45 1085.31,-128.85 1097.85,-98.87"/>
<polygon fill="#63b8ff" stroke="#63b8ff" points="1101.02,-100.35 1101.88,-89.79 1094.62,-97.51 1101.02,-100.35"/>
</a>
</g>
</g>
<!-- Node22 -->
<g id="Node000022" class="node">
<title>Node22</title>
<g id="a_Node000022"><a xlink:title=" ">
<polygon fill="#e0e0e0" stroke="#999999" points="1047.78,-144 947.03,-144 947.03,-124 1047.78,-124 1047.78,-144"/>
<text xml:space="preserve" text-anchor="middle" x="997.4" y="-130.5" font-family="Helvetica,sans-Serif" font-size="10.00">boost/uuid/uuid.hpp</text>
</a>
</g>
</g>
<!-- Node3&#45;&gt;Node22 -->
<g id="edge29_Node000003_Node000022" class="edge">
<title>Node3&#45;&gt;Node22</title>
<g id="a_edge29_Node000003_Node000022"><a xlink:title=" ">
<path fill="none" stroke="#63b8ff" d="M1170.32,-253.52C1136.01,-246.19 1094.04,-233.51 1061.4,-212 1038.69,-197.03 1019.82,-171.58 1008.59,-154.06"/>
<polygon fill="#63b8ff" stroke="#63b8ff" points="1011.63,-152.32 1003.41,-145.64 1005.67,-155.99 1011.63,-152.32"/>
</a>
</g>
</g>
<!-- Node23 -->
<g id="Node000023" class="node">
<title>Node23</title>
<g id="a_Node000023"><a xlink:title=" ">
<polygon fill="#e0e0e0" stroke="#999999" points="1231.28,-206 1103.53,-206 1103.53,-186 1231.28,-186 1231.28,-206"/>
<text xml:space="preserve" text-anchor="middle" x="1167.4" y="-192.5" font-family="Helvetica,sans-Serif" font-size="10.00">boost/functional/hash.hpp</text>
</a>
</g>
</g>
<!-- Node3&#45;&gt;Node23 -->
<g id="edge26_Node000003_Node000023" class="edge">
<title>Node3&#45;&gt;Node23</title>
<g id="a_edge26_Node000003_Node000023"><a xlink:title=" ">
<path fill="none" stroke="#63b8ff" d="M1218.09,-247.69C1208.1,-237.7 1195.03,-224.63 1184.66,-214.26"/>
<polygon fill="#63b8ff" stroke="#63b8ff" points="1187.33,-211.98 1177.79,-207.39 1182.38,-216.93 1187.33,-211.98"/>
</a>
</g>
</g>
<!-- Node24 -->
<g id="Node000024" class="node">
<title>Node24</title>
<g id="a_Node000024"><a xlink:title=" ">
<polygon fill="#e0e0e0" stroke="#999999" points="1349.03,-212 1249.78,-212 1249.78,-180 1349.03,-180 1349.03,-212"/>
<text xml:space="preserve" text-anchor="start" x="1257.78" y="-198.5" font-family="Helvetica,sans-Serif" font-size="10.00">boost/serialization</text>
<text xml:space="preserve" text-anchor="middle" x="1299.4" y="-186.5" font-family="Helvetica,sans-Serif" font-size="10.00">/array_wrapper.hpp</text>
</a>
</g>
</g>
<!-- Node3&#45;&gt;Node24 -->
<g id="edge28_Node000003_Node000024" class="edge">
<title>Node3&#45;&gt;Node24</title>
<g id="a_edge28_Node000003_Node000024"><a xlink:title=" ">
<path fill="none" stroke="#63b8ff" d="M1248.71,-247.69C1256.87,-239.53 1267.09,-229.31 1276.2,-220.2"/>
<polygon fill="#63b8ff" stroke="#63b8ff" points="1278.51,-222.84 1283.11,-213.29 1273.56,-217.89 1278.51,-222.84"/>
</a>
</g>
</g>
<!-- Node25 -->
<g id="Node000025" class="node">
<title>Node25</title>
<g id="a_Node000025"><a xlink:title=" ">
<polygon fill="#e0e0e0" stroke="#999999" points="1519.28,-206 1367.53,-206 1367.53,-186 1519.28,-186 1519.28,-206"/>
<text xml:space="preserve" text-anchor="middle" x="1443.4" y="-192.5" font-family="Helvetica,sans-Serif" font-size="10.00">boost/uuid/uuid_generators.hpp</text>
</a>
</g>
</g>
<!-- Node3&#45;&gt;Node25 -->
<g id="edge30_Node000003_Node000025" class="edge">
<title>Node3&#45;&gt;Node25</title>
<g id="a_edge30_Node000003_Node000025"><a xlink:title=" ">
<path fill="none" stroke="#63b8ff" d="M1282.64,-247.53C1319.17,-236.04 1368.4,-220.57 1402.72,-209.79"/>
<polygon fill="#63b8ff" stroke="#63b8ff" points="1403.37,-213.25 1411.86,-206.91 1401.27,-206.57 1403.37,-213.25"/>
</a>
</g>
</g>
<!-- Node26 -->
<g id="Node000026" class="node">
<title>Node26</title>
<g id="a_Node000026"><a xlink:title=" ">
<polygon fill="#e0e0e0" stroke="#999999" points="1651.15,-206 1537.65,-206 1537.65,-186 1651.15,-186 1651.15,-206"/>
<text xml:space="preserve" text-anchor="middle" x="1594.4" y="-192.5" font-family="Helvetica,sans-Serif" font-size="10.00">boost/uuid/uuid_io.hpp</text>
</a>
</g>
</g>
<!-- Node3&#45;&gt;Node26 -->
<g id="edge31_Node000003_Node000026" class="edge">
<title>Node3&#45;&gt;Node26</title>
<g id="a_edge31_Node000003_Node000026"><a xlink:title=" ">
<path fill="none" stroke="#63b8ff" d="M1296.59,-253.06C1356.45,-243.41 1448.77,-227.92 1528.4,-212 1533.26,-211.03 1538.32,-209.97 1543.37,-208.88"/>
<polygon fill="#63b8ff" stroke="#63b8ff" points="1543.85,-212.36 1552.86,-206.78 1542.34,-205.52 1543.85,-212.36"/>
</a>
</g>
</g>
<!-- Node27 -->
<g id="Node000027" class="node">
<title>Node27</title>
<g id="a_Node000027"><a xlink:title=" ">
<polygon fill="#e0e0e0" stroke="#999999" points="1811.4,-206 1669.4,-206 1669.4,-186 1811.4,-186 1811.4,-206"/>
<text xml:space="preserve" text-anchor="middle" x="1740.4" y="-192.5" font-family="Helvetica,sans-Serif" font-size="10.00">boost/uuid/uuid_serialize.hpp</text>
</a>
</g>
</g>
<!-- Node3&#45;&gt;Node27 -->
<g id="edge32_Node000003_Node000027" class="edge">
<title>Node3&#45;&gt;Node27</title>
<g id="a_edge32_Node000003_Node000027"><a xlink:title=" ">
<path fill="none" stroke="#63b8ff" d="M1296.52,-256.79C1380.01,-248.27 1531.63,-231.74 1660.4,-212 1667.28,-210.95 1674.46,-209.74 1681.59,-208.49"/>
<polygon fill="#63b8ff" stroke="#63b8ff" points="1681.98,-211.97 1691.2,-206.75 1680.74,-205.09 1681.98,-211.97"/>
</a>
</g>
</g>
<!-- Node5 -->
<g id="Node000005" class="node">
<title>Node5</title>
<g id="a_Node000005"><a xlink:href="model_2presistence_8hpp.html" target="_top" xlink:title=" ">
<polygon fill="white" stroke="#666666" points="743.9,-144 658.9,-144 658.9,-124 743.9,-124 743.9,-144"/>
<text xml:space="preserve" text-anchor="middle" x="701.4" y="-130.5" font-family="Helvetica,sans-Serif" font-size="10.00">presistence.hpp</text>
</a>
</g>
</g>
<!-- Node4&#45;&gt;Node5 -->
<g id="edge4_Node000004_Node000005" class="edge">
<title>Node4&#45;&gt;Node5</title>
<g id="a_edge4_Node000004_Node000005"><a xlink:title=" ">
<path fill="none" stroke="#63b8ff" d="M801.81,-185.62C782.6,-175.94 752.35,-160.69 730.08,-149.46"/>
<polygon fill="#63b8ff" stroke="#63b8ff" points="731.72,-146.37 721.22,-144.99 728.57,-152.62 731.72,-146.37"/>
</a>
</g>
</g>
<!-- Node7 -->
<g id="Node000007" class="node">
<title>Node7</title>
<g id="a_Node000007"><a xlink:title=" ">
<polygon fill="#e0e0e0" stroke="#999999" points="928.78,-20 834.03,-20 834.03,0 928.78,0 928.78,-20"/>
<text xml:space="preserve" text-anchor="middle" x="881.4" y="-6.5" font-family="Helvetica,sans-Serif" font-size="10.00">boost/pfr/core.hpp</text>
</a>
</g>
</g>
<!-- Node4&#45;&gt;Node7 -->
<g id="edge22_Node000004_Node000007" class="edge">
<title>Node4&#45;&gt;Node7</title>
<g id="a_edge22_Node000004_Node000007"><a xlink:title=" ">
<path fill="none" stroke="#63b8ff" d="M835.21,-185.62C848.08,-176.61 866.1,-161.76 875.4,-144 894.2,-108.12 890.07,-59.04 885.6,-31.64"/>
<polygon fill="#63b8ff" stroke="#63b8ff" points="889.05,-31.09 883.81,-21.89 882.17,-32.35 889.05,-31.09"/>
</a>
</g>
</g>
<!-- Node8 -->
<g id="Node000008" class="node">
<title>Node8</title>
<g id="a_Node000008"><a xlink:title=" ">
<polygon fill="#e0e0e0" stroke="#999999" points="54.03,-20 14.78,-20 14.78,0 54.03,0 54.03,-20"/>
<text xml:space="preserve" text-anchor="middle" x="34.4" y="-6.5" font-family="Helvetica,sans-Serif" font-size="10.00">utility</text>
</a>
</g>
</g>
<!-- Node4&#45;&gt;Node8 -->
<g id="edge25_Node000004_Node000008" class="edge">
<title>Node4&#45;&gt;Node8</title>
<g id="a_edge25_Node000004_Node000008"><a xlink:title=" ">
<path fill="none" stroke="#63b8ff" d="M775.2,-192.58C611.39,-183.35 55.96,-147.82 6.4,-88 -7.86,-70.79 5.94,-45.69 18.72,-28.87"/>
<polygon fill="#63b8ff" stroke="#63b8ff" points="21.35,-31.19 24.96,-21.23 15.93,-26.77 21.35,-31.19"/>
</a>
</g>
</g>
<!-- Node20 -->
<g id="Node000020" class="node">
<title>Node20</title>
<g id="a_Node000020"><a xlink:href="concepts_8hpp.html" target="_top" xlink:title=" ">
<polygon fill="white" stroke="#666666" points="385.65,-144 311.15,-144 311.15,-124 385.65,-124 385.65,-144"/>
<text xml:space="preserve" text-anchor="middle" x="348.4" y="-130.5" font-family="Helvetica,sans-Serif" font-size="10.00">concepts.hpp</text>
</a>
</g>
</g>
<!-- Node4&#45;&gt;Node20 -->
<g id="edge20_Node000004_Node000020" class="edge">
<title>Node4&#45;&gt;Node20</title>
<g id="a_edge20_Node000004_Node000020"><a xlink:title=" ">
<path fill="none" stroke="#63b8ff" d="M775.57,-189.3C686.75,-178.01 489.07,-152.88 397.15,-141.2"/>
<polygon fill="#63b8ff" stroke="#63b8ff" points="397.81,-137.75 387.45,-139.96 396.93,-144.7 397.81,-137.75"/>
</a>
</g>
</g>
<!-- Node21 -->
<g id="Node000021" class="node">
<title>Node21</title>
<g id="a_Node000021"><a xlink:title=" ">
<polygon fill="#e0e0e0" stroke="#999999" points="866.28,-144 774.53,-144 774.53,-124 866.28,-124 866.28,-144"/>
<text xml:space="preserve" text-anchor="middle" x="820.4" y="-130.5" font-family="Helvetica,sans-Serif" font-size="10.00">boost/pfr/ops.hpp</text>
</a>
</g>
</g>
<!-- Node4&#45;&gt;Node21 -->
<g id="edge23_Node000004_Node000021" class="edge">
<title>Node4&#45;&gt;Node21</title>
<g id="a_edge23_Node000004_Node000021"><a xlink:title=" ">
<path fill="none" stroke="#63b8ff" d="M820.4,-185.62C820.4,-177.56 820.4,-165.65 820.4,-155.41"/>
<polygon fill="#63b8ff" stroke="#63b8ff" points="823.9,-155.63 820.4,-145.63 816.9,-155.63 823.9,-155.63"/>
</a>
</g>
</g>
<!-- Node4&#45;&gt;Node22 -->
<g id="edge24_Node000004_Node000022" class="edge">
<title>Node4&#45;&gt;Node22</title>
<g id="a_edge24_Node000004_Node000022"><a xlink:title=" ">
<path fill="none" stroke="#63b8ff" d="M848.06,-185.62C877.85,-175.53 925.46,-159.39 958.9,-148.05"/>
<polygon fill="#63b8ff" stroke="#63b8ff" points="959.87,-151.42 968.21,-144.89 957.62,-144.79 959.87,-151.42"/>
</a>
</g>
</g>
<!-- Node6 -->
<g id="Node000006" class="node">
<title>Node6</title>
<g id="a_Node000006"><a xlink:href="model__base__concepts_8hpp.html" target="_top" xlink:title=" ">
<polygon fill="white" stroke="#666666" points="147.53,-82 15.28,-82 15.28,-62 147.53,-62 147.53,-82"/>
<text xml:space="preserve" text-anchor="middle" x="81.4" y="-68.5" font-family="Helvetica,sans-Serif" font-size="10.00">model_base_concepts.hpp</text>
</a>
</g>
</g>
<!-- Node5&#45;&gt;Node6 -->
<g id="edge5_Node000005_Node000006" class="edge">
<title>Node5&#45;&gt;Node6</title>
<g id="a_edge5_Node000005_Node000006"><a xlink:title=" ">
<path fill="none" stroke="#63b8ff" d="M658.47,-131.14C566.2,-126.76 342.31,-114.18 156.4,-88 149.67,-87.05 142.62,-85.88 135.66,-84.62"/>
<polygon fill="#63b8ff" stroke="#63b8ff" points="136.45,-81.2 125.97,-82.78 135.15,-88.08 136.45,-81.2"/>
</a>
</g>
</g>
<!-- Node5&#45;&gt;Node7 -->
<g id="edge12_Node000005_Node000007" class="edge">
<title>Node5&#45;&gt;Node7</title>
<g id="a_edge12_Node000005_Node000007"><a xlink:title=" ">
<path fill="none" stroke="#63b8ff" d="M744.04,-125.93C785.68,-118.19 845.09,-104.64 861.4,-88 875.96,-73.15 880.31,-49.14 881.43,-31.87"/>
<polygon fill="#63b8ff" stroke="#63b8ff" points="884.92,-32.1 881.72,-22 877.92,-31.89 884.92,-32.1"/>
</a>
</g>
</g>
<!-- Node9 -->
<g id="Node000009" class="node">
<title>Node9</title>
<g id="a_Node000009"><a xlink:href="str__conv_8hpp.html" target="_top" xlink:title=" ">
<polygon fill="white" stroke="#666666" points="1045.28,-82 947.53,-82 947.53,-62 1045.28,-62 1045.28,-82"/>
<text xml:space="preserve" text-anchor="middle" x="996.4" y="-68.5" font-family="Helvetica,sans-Serif" font-size="10.00">utility/str_conv.hpp</text>
</a>
</g>
</g>
<!-- Node5&#45;&gt;Node9 -->
<g id="edge8_Node000005_Node000009" class="edge">
<title>Node5&#45;&gt;Node9</title>
<g id="a_edge8_Node000005_Node000009"><a xlink:title=" ">
<path fill="none" stroke="#63b8ff" d="M744.3,-124.28C795.68,-113.82 881.96,-96.28 939.04,-84.67"/>
<polygon fill="#63b8ff" stroke="#63b8ff" points="939.46,-88.15 948.56,-82.73 938.07,-81.29 939.46,-88.15"/>
</a>
</g>
</g>
<!-- Node12 -->
<g id="Node000012" class="node">
<title>Node12</title>
<g id="a_Node000012"><a xlink:title=" ">
<polygon fill="#e0e0e0" stroke="#999999" points="271.03,-88 165.78,-88 165.78,-56 271.03,-56 271.03,-88"/>
<text xml:space="preserve" text-anchor="start" x="173.78" y="-74.5" font-family="Helvetica,sans-Serif" font-size="10.00">boost/archive/basic</text>
<text xml:space="preserve" text-anchor="middle" x="218.4" y="-62.5" font-family="Helvetica,sans-Serif" font-size="10.00">_binary_iarchive.hpp</text>
</a>
</g>
</g>
<!-- Node5&#45;&gt;Node12 -->
<g id="edge11_Node000005_Node000012" class="edge">
<title>Node5&#45;&gt;Node12</title>
<g id="a_edge11_Node000005_Node000012"><a xlink:title=" ">
<path fill="none" stroke="#63b8ff" d="M658.42,-130.27C583.9,-125.14 425.76,-112.47 282.57,-88.22"/>
<polygon fill="#63b8ff" stroke="#63b8ff" points="283.35,-84.81 272.9,-86.56 282.16,-91.71 283.35,-84.81"/>
</a>
</g>
</g>
<!-- Node5&#45;&gt;Node13 -->
<g id="edge13_Node000005_Node000013" class="edge">
<title>Node5&#45;&gt;Node13</title>
<g id="a_edge13_Node000005_Node000013"><a xlink:title=" ">
<path fill="none" stroke="#63b8ff" d="M744.08,-126.9C751.2,-125.91 758.51,-124.91 765.4,-124 890.08,-107.47 925.38,-112.49 1051.3,-88.46"/>
<polygon fill="#63b8ff" stroke="#63b8ff" points="1051.9,-91.91 1061.06,-86.57 1050.57,-85.04 1051.9,-91.91"/>
</a>
</g>
</g>
<!-- Node14 -->
<g id="Node000014" class="node">
<title>Node14</title>
<g id="a_Node000014"><a xlink:title=" ">
<polygon fill="#e0e0e0" stroke="#999999" points="383.78,-88 289.03,-88 289.03,-56 383.78,-56 383.78,-88"/>
<text xml:space="preserve" text-anchor="start" x="297.03" y="-74.5" font-family="Helvetica,sans-Serif" font-size="10.00">boost/serialization</text>
<text xml:space="preserve" text-anchor="middle" x="336.4" y="-62.5" font-family="Helvetica,sans-Serif" font-size="10.00">/optional.hpp</text>
</a>
</g>
</g>
<!-- Node5&#45;&gt;Node14 -->
<g id="edge14_Node000005_Node000014" class="edge">
<title>Node5&#45;&gt;Node14</title>
<g id="a_edge14_Node000005_Node000014"><a xlink:title=" ">
<path fill="none" stroke="#63b8ff" d="M658.54,-128.28C600.96,-121.6 495.25,-108.16 395.4,-88.26"/>
<polygon fill="#63b8ff" stroke="#63b8ff" points="396.18,-84.85 385.69,-86.3 394.8,-91.71 396.18,-84.85"/>
</a>
</g>
</g>
<!-- Node15 -->
<g id="Node000015" class="node">
<title>Node15</title>
<g id="a_Node000015"><a xlink:title=" ">
<polygon fill="#e0e0e0" stroke="#999999" points="506.65,-88 402.15,-88 402.15,-56 506.65,-56 506.65,-88"/>
<text xml:space="preserve" text-anchor="start" x="410.15" y="-74.5" font-family="Helvetica,sans-Serif" font-size="10.00">boost/serialization</text>
<text xml:space="preserve" text-anchor="middle" x="454.4" y="-62.5" font-family="Helvetica,sans-Serif" font-size="10.00">/unordered_map.hpp</text>
</a>
</g>
</g>
<!-- Node5&#45;&gt;Node15 -->
<g id="edge15_Node000005_Node000015" class="edge">
<title>Node5&#45;&gt;Node15</title>
<g id="a_edge15_Node000005_Node000015"><a xlink:title=" ">
<path fill="none" stroke="#63b8ff" d="M662.2,-123.56C626.91,-115.05 573.3,-102.11 518.04,-88.64"/>
<polygon fill="#63b8ff" stroke="#63b8ff" points="518.99,-85.27 508.44,-86.3 517.33,-92.07 518.99,-85.27"/>
</a>
</g>
</g>
<!-- Node16 -->
<g id="Node000016" class="node">
<title>Node16</title>
<g id="a_Node000016"><a xlink:title=" ">
<polygon fill="#e0e0e0" stroke="#999999" points="624.03,-88 524.78,-88 524.78,-56 624.03,-56 624.03,-88"/>
<text xml:space="preserve" text-anchor="start" x="532.78" y="-74.5" font-family="Helvetica,sans-Serif" font-size="10.00">boost/serialization</text>
<text xml:space="preserve" text-anchor="middle" x="574.4" y="-62.5" font-family="Helvetica,sans-Serif" font-size="10.00">/unordered_set.hpp</text>
</a>
</g>
</g>
<!-- Node5&#45;&gt;Node16 -->
<g id="edge16_Node000005_Node000016" class="edge">
<title>Node5&#45;&gt;Node16</title>
<g id="a_edge16_Node000005_Node000016"><a xlink:title=" ">
<path fill="none" stroke="#63b8ff" d="M681.56,-123.62C664.41,-115.52 639.03,-103.53 617.28,-93.26"/>
<polygon fill="#63b8ff" stroke="#63b8ff" points="618.85,-90.13 608.31,-89.02 615.86,-96.46 618.85,-90.13"/>
</a>
</g>
</g>
<!-- Node17 -->
<g id="Node000017" class="node">
<title>Node17</title>
<g id="a_Node000017"><a xlink:title=" ">
<polygon fill="#e0e0e0" stroke="#999999" points="736.78,-88 642.03,-88 642.03,-56 736.78,-56 736.78,-88"/>
<text xml:space="preserve" text-anchor="start" x="650.03" y="-74.5" font-family="Helvetica,sans-Serif" font-size="10.00">boost/serialization</text>
<text xml:space="preserve" text-anchor="middle" x="689.4" y="-62.5" font-family="Helvetica,sans-Serif" font-size="10.00">/vector.hpp</text>
</a>
</g>
</g>
<!-- Node5&#45;&gt;Node17 -->
<g id="edge17_Node000005_Node000017" class="edge">
<title>Node5&#45;&gt;Node17</title>
<g id="a_edge17_Node000005_Node000017"><a xlink:title=" ">
<path fill="none" stroke="#63b8ff" d="M699.53,-123.62C698.22,-117.1 696.41,-108.05 694.68,-99.4"/>
<polygon fill="#63b8ff" stroke="#63b8ff" points="698.12,-98.74 692.73,-89.62 691.26,-100.12 698.12,-98.74"/>
</a>
</g>
</g>
<!-- Node18 -->
<g id="Node000018" class="node">
<title>Node18</title>
<g id="a_Node000018"><a xlink:title=" ">
<polygon fill="#e0e0e0" stroke="#999999" points="798.28,-82 754.53,-82 754.53,-62 798.28,-62 798.28,-82"/>
<text xml:space="preserve" text-anchor="middle" x="776.4" y="-68.5" font-family="Helvetica,sans-Serif" font-size="10.00">format</text>
</a>
</g>
</g>
<!-- Node5&#45;&gt;Node18 -->
<g id="edge18_Node000005_Node000018" class="edge">
<title>Node5&#45;&gt;Node18</title>
<g id="a_edge18_Node000005_Node000018"><a xlink:title=" ">
<path fill="none" stroke="#63b8ff" d="M713.12,-123.62C724.64,-114.41 742.44,-100.17 756.23,-89.14"/>
<polygon fill="#63b8ff" stroke="#63b8ff" points="758.21,-92.04 763.83,-83.06 753.83,-86.57 758.21,-92.04"/>
</a>
</g>
</g>
<!-- Node19 -->
<g id="Node000019" class="node">
<title>Node19</title>
<g id="a_Node000019"><a xlink:title=" ">
<polygon fill="#e0e0e0" stroke="#999999" points="852.9,-82 815.9,-82 815.9,-62 852.9,-62 852.9,-82"/>
<text xml:space="preserve" text-anchor="middle" x="834.4" y="-68.5" font-family="Helvetica,sans-Serif" font-size="10.00">tuple</text>
</a>
</g>
</g>
<!-- Node5&#45;&gt;Node19 -->
<g id="edge19_Node000005_Node000019" class="edge">
<title>Node5&#45;&gt;Node19</title>
<g id="a_edge19_Node000005_Node000019"><a xlink:title=" ">
<path fill="none" stroke="#63b8ff" d="M725.72,-123.53C747.42,-114.87 779.92,-101.42 807.4,-88 807.62,-87.89 807.84,-87.79 808.05,-87.68"/>
<polygon fill="#63b8ff" stroke="#63b8ff" points="809.41,-90.92 816.64,-83.18 806.16,-84.72 809.41,-90.92"/>
</a>
</g>
</g>
<!-- Node6&#45;&gt;Node7 -->
<g id="edge6_Node000006_Node000007" class="edge">
<title>Node6&#45;&gt;Node7</title>
<g id="a_edge6_Node000006_Node000007"><a xlink:title=" ">
<path fill="none" stroke="#63b8ff" d="M123.68,-61.5C134.31,-59.4 145.74,-57.39 156.4,-56 402.32,-23.93 698.25,-14.57 822.23,-11.96"/>
<polygon fill="#63b8ff" stroke="#63b8ff" points="822.25,-15.46 832.17,-11.76 822.1,-8.46 822.25,-15.46"/>
</a>
</g>
</g>
<!-- Node6&#45;&gt;Node8 -->
<g id="edge7_Node000006_Node000008" class="edge">
<title>Node6&#45;&gt;Node8</title>
<g id="a_edge7_Node000006_Node000008"><a xlink:title=" ">
<path fill="none" stroke="#63b8ff" d="M74.06,-61.62C67.26,-52.94 56.96,-39.8 48.56,-29.08"/>
<polygon fill="#63b8ff" stroke="#63b8ff" points="51.4,-27.02 42.47,-21.3 45.88,-31.33 51.4,-27.02"/>
</a>
</g>
</g>
<!-- Node10 -->
<g id="Node000010" class="node">
<title>Node10</title>
<g id="a_Node000010"><a xlink:title=" ">
<polygon fill="#e0e0e0" stroke="#999999" points="1001.4,-20 961.4,-20 961.4,0 1001.4,0 1001.4,-20"/>
<text xml:space="preserve" text-anchor="middle" x="981.4" y="-6.5" font-family="Helvetica,sans-Serif" font-size="10.00">string</text>
</a>
</g>
</g>
<!-- Node9&#45;&gt;Node10 -->
<g id="edge9_Node000009_Node000010" class="edge">
<title>Node9&#45;&gt;Node10</title>
<g id="a_edge9_Node000009_Node000010"><a xlink:title=" ">
<path fill="none" stroke="#63b8ff" d="M994.06,-61.62C992.02,-53.48 989,-41.39 986.42,-31.07"/>
<polygon fill="#63b8ff" stroke="#63b8ff" points="989.87,-30.43 984.05,-21.58 983.08,-32.13 989.87,-30.43"/>
</a>
</g>
</g>
<!-- Node11 -->
<g id="Node000011" class="node">
<title>Node11</title>
<g id="a_Node000011"><a xlink:title=" ">
<polygon fill="#e0e0e0" stroke="#999999" points="1085.15,-20 1019.65,-20 1019.65,0 1085.15,0 1085.15,-20"/>
<text xml:space="preserve" text-anchor="middle" x="1052.4" y="-6.5" font-family="Helvetica,sans-Serif" font-size="10.00">string_view</text>
</a>
</g>
</g>
<!-- Node9&#45;&gt;Node11 -->
<g id="edge10_Node000009_Node000011" class="edge">
<title>Node9&#45;&gt;Node11</title>
<g id="a_edge10_Node000009_Node000011"><a xlink:title=" ">
<path fill="none" stroke="#63b8ff" d="M1005.15,-61.62C1013.42,-52.77 1026.03,-39.26 1036.14,-28.43"/>
<polygon fill="#63b8ff" stroke="#63b8ff" points="1038.6,-30.92 1042.86,-21.22 1033.48,-26.14 1038.6,-30.92"/>
</a>
</g>
</g>
<!-- Node20&#45;&gt;Node6 -->
<g id="edge21_Node000020_Node000006" class="edge">
<title>Node20&#45;&gt;Node6</title>
<g id="a_edge21_Node000020_Node000006"><a xlink:title=" ">
<path fill="none" stroke="#63b8ff" d="M310.71,-124.53C264.64,-114.18 186.4,-96.6 134.31,-84.89"/>
<polygon fill="#63b8ff" stroke="#63b8ff" points="135.3,-81.52 124.77,-82.75 133.76,-88.35 135.3,-81.52"/>
</a>
</g>
</g>
</g>
</svg>

<g id="navigator" transform="translate(0 0)" fill="#404254">
  <rect fill="#f2f5e9" fill-opacity="0.5" stroke="#606060" stroke-width=".5" x="0" y="0" width="60" height="60"/>
  <use id="zoomplus" xlink:href="#zoomPlus" x="17" y="9" onmousedown="handleZoom(evt,'in')"/>
  <use id="zoomminus" xlink:href="#zoomMin" x="42" y="9" onmousedown="handleZoom(evt,'out')"/>
  <use id="reset" xlink:href="#resetDef" x="30" y="36" onmousedown="handleReset()"/>
   <use id="arrowup" xlink:href="#arrowUp" x="0" y="0" onmousedown="handlePan(0,-1)"/>
  <use id="arrowright" xlink:href="#arrowRight" x="0" y="0" onmousedown="handlePan(1,0)"/>
  <use id="arrowdown" xlink:href="#arrowDown" x="0" y="0" onmousedown="handlePan(0,1)"/>
  <use id="arrowleft" xlink:href="#arrowLeft" x="0" y="0" onmousedown="handlePan(-1,0)"/>
</g>
<svg viewBox="0 0 15 15" width="100%" height="30px" preserveAspectRatio="xMaxYMin meet">
 <g id="arrow_out" transform="scale(0.3 0.3)">
  <a xlink:href="menu__item__updated_8hpp__incl_org.svg" target="_base">
   <rect id="button" ry="5" rx="5" y="6" x="6" height="38" width="38"
        fill="#f2f5e9" fill-opacity="0.5" stroke="#606060" stroke-width="1.0"/>
   <path id="arrow"
     d="M 11.500037,31.436501 C 11.940474,20.09759 22.043105,11.32322 32.158766,21.979434 L 37.068811,17.246167 C 37.068811,17.246167 37.088388,32 37.088388,32 L 22.160133,31.978069 C 22.160133,31.978069 26.997745,27.140456 26.997745,27.140456 C 18.528582,18.264221 13.291696,25.230495 11.500037,31.436501 z"
     style="fill:#404040;"/>
  </a>
 </g>
</svg>

<style type='text/css'>
<![CDATA[
[data-mouse-over-selected='false'] { opacity: 0.7; }
[data-mouse-over-selected='true']  { opacity: 1.0; }
]]>
</style>
<script type="application/ecmascript"><![CDATA[
document.addEventListener('DOMContentLoaded', (event) => {
  highlightEdges();
  highlightAdjacentNodes();
});
]]></script>
</svg>
