<?xml version="1.0" encoding="UTF-8" standalone="no"?>
<!DOCTYPE svg PUBLIC "-//W3C//DTD SVG 1.1//EN"
 "http://www.w3.org/Graphics/SVG/1.1/DTD/svg11.dtd">
<!-- Generated by graphviz version 14.1.2 (20260124.0452)
 -->
<!-- Title: depicture_menu/src/core/usecase/menu_view/dto/menu_view_dto.hpp Pages: 1 -->
<!--zoomable 316 -->

<svg id="main" version="1.1" xmlns="http://www.w3.org/2000/svg" xmlns:xlink="http://www.w3.org/1999/xlink" xml:space="preserve" onload="init(evt)">

<style type="text/css"><![CDATA[
.node, .edge {opacity: 0.7;}
.node.selected, .edge.selected {opacity: 1;}
.edge:hover path { stroke: red; }
.edge:hover polygon { stroke: red; fill: red; }
]]></style>

<defs>
  <circle id="rim" cx="0" cy="0" r="7"/>
  <circle id="rim2" cx="0" cy="0" r="3.5"/>
  <g id="zoomPlus">
    <use xlink:href="#rim" fill="#404040"><set attributeName="fill" to="#808080" begin="zoomplus.mouseover" end="zoomplus.mouseout"/></use>
    <path d="M-4,0h8M0,-4v8" fill="none" stroke="white" stroke-width="1.5" pointer-events="none"/>
  </g>
  <g id="zoomMin">
    <use xlink:href="#rim" fill="#404040"><set attributeName="fill" to="#808080" begin="zoomminus.mouseover" end="zoomminus.mouseout"/></use>
    <path d="M-4,0h8" fill="none" stroke="white" stroke-width="1.5" pointer-events="none"/>
  </g>
  <g id="arrowUp" transform="translate(30 24)">
    <use xlink:href="#rim"/>
    <path pointer-events="none" fill="none" stroke="white" stroke-width="1.5" d="M0,-3.0v7 M-2.5,-0.5L0,-3.0L2.5,-0.5"/>
  </g>
  <g id="arrowRight" transform="rotate(90) translate(36 -43)">
    <use xlink:href="#rim"/>
    <path pointer-events="none" fill="none" stroke="white" stroke-width="1.5" d="M0,-3.0v7 M-2.5,-0.5L0,-3.0L2.5,-0.5"/>
  </g>
  <g id="arrowDown" transform="rotate(180) translate(-30 -48)">
    <use xlink:href="#rim"/>
    <path pointer-events="none" fill="none" stroke="white" stroke-width="1.5" d="M0,-3.0v7 M-2.5,-0.5L0,-3.0L2.5,-0.5"/>
  </g>
  <g id="arrowLeft" transform="rotate(270) translate(-36 17)">
    <use xlink:href="#rim"/>
    <path pointer-events="none" fill="none" stroke="white" stroke-width="1.5" d="M0,-3.0v7 M-2.5,-0.5L0,-3.0L2.5,-0.5"/>
  </g>
  <g id="resetDef">
    <use xlink:href="#rim2" fill="#404040"><set attributeName="fill" to="#808080" begin="reset.mouseover" end="reset.mouseout"/></use>
  </g>
</defs>
<script type="application/ecmascript">
var viewWidth = 1031;
var viewHeight = 316;
var sectionId = 'dynsection-1';
</script>
<script type="application/ecmascript" xlink:href="svg.min.js"/>
<svg id="graph" class="graph">
<g id="viewport">
<title>depicture_menu/src/core/usecase/menu_view/dto/menu_view_dto.hpp</title>
<!-- Node1 -->
<g id="Node000001" class="node">
<title>Node1</title>
<g id="a_Node000001"><a xlink:title=" ">
<polygon fill="#999999" stroke="#666666" points="458.12,-308 328.12,-308 328.12,-264 458.12,-264 458.12,-308"/>
<text xml:space="preserve" text-anchor="start" x="336.12" y="-294.5" font-family="Helvetica,sans-Serif" font-size="10.00">depicture_menu/src</text>
<text xml:space="preserve" text-anchor="start" x="336.12" y="-282.5" font-family="Helvetica,sans-Serif" font-size="10.00">/core/usecase/menu_view</text>
<text xml:space="preserve" text-anchor="middle" x="393.12" y="-270.5" font-family="Helvetica,sans-Serif" font-size="10.00">/dto/menu_view_dto.hpp</text>
</a>
</g>
</g>
<!-- Node2 -->
<g id="Node000002" class="node">
<title>Node2</title>
<g id="a_Node000002"><a xlink:href="menu__view__presenter_8hpp.html" target="_top" xlink:title=" ">
<polygon fill="white" stroke="#666666" points="583.12,-222 393.12,-222 393.12,-178 583.12,-178 583.12,-222"/>
<text xml:space="preserve" text-anchor="start" x="401.12" y="-208.5" font-family="Helvetica,sans-Serif" font-size="10.00">depicture_menu/src</text>
<text xml:space="preserve" text-anchor="start" x="401.12" y="-196.5" font-family="Helvetica,sans-Serif" font-size="10.00">/core/presentation/change</text>
<text xml:space="preserve" text-anchor="middle" x="488.12" y="-184.5" font-family="Helvetica,sans-Serif" font-size="10.00">_view_model/menu_view_presenter.hpp</text>
</a>
</g>
</g>
<!-- Node1&#45;&gt;Node2 -->
<g id="edge1_Node000001_Node000002" class="edge">
<title>Node1&#45;&gt;Node2</title>
<g id="a_edge1_Node000001_Node000002"><a xlink:title=" ">
<path fill="none" stroke="#63b8ff" d="M425.49,-256.38C438.04,-245.28 452.17,-232.79 463.83,-222.48"/>
<polygon fill="#63b8ff" stroke="#63b8ff" points="423.4,-253.55 418.23,-262.8 428.04,-258.8 423.4,-253.55"/>
</a>
</g>
</g>
<!-- Node9 -->
<g id="Node000009" class="node">
<title>Node9</title>
<g id="a_Node000009"><a xlink:href="menu__view__model__interface_8hpp.html" target="_top" xlink:title=" ">
<polygon fill="white" stroke="#666666" points="365.38,-228 230.88,-228 230.88,-172 365.38,-172 365.38,-228"/>
<text xml:space="preserve" text-anchor="start" x="238.88" y="-214.5" font-family="Helvetica,sans-Serif" font-size="10.00">depicture_menu/src</text>
<text xml:space="preserve" text-anchor="start" x="238.88" y="-202.5" font-family="Helvetica,sans-Serif" font-size="10.00">/core/usecase/config</text>
<text xml:space="preserve" text-anchor="start" x="238.88" y="-190.5" font-family="Helvetica,sans-Serif" font-size="10.00">_view/interface/menu</text>
<text xml:space="preserve" text-anchor="middle" x="298.12" y="-178.5" font-family="Helvetica,sans-Serif" font-size="10.00">_view_model_interface.hpp</text>
</a>
</g>
</g>
<!-- Node1&#45;&gt;Node9 -->
<g id="edge10_Node000001_Node000009" class="edge">
<title>Node1&#45;&gt;Node9</title>
<g id="a_edge10_Node000001_Node000009"><a xlink:title=" ">
<path fill="none" stroke="#63b8ff" d="M360.8,-256.41C350.49,-247.3 339.12,-237.25 328.93,-228.24"/>
<polygon fill="#63b8ff" stroke="#63b8ff" points="358.21,-258.8 368.02,-262.8 362.85,-253.55 358.21,-258.8"/>
</a>
</g>
</g>
<!-- Node3 -->
<g id="Node000003" class="node">
<title>Node3</title>
<g id="a_Node000003"><a xlink:href="config__view__arg__builder_8cpp.html" target="_top" xlink:title="ConfigArg ファクトリー">
<polygon fill="white" stroke="#666666" points="546.38,-56 429.88,-56 429.88,0 546.38,0 546.38,-56"/>
<text xml:space="preserve" text-anchor="start" x="437.88" y="-42.5" font-family="Helvetica,sans-Serif" font-size="10.00">depicture_menu/src</text>
<text xml:space="preserve" text-anchor="start" x="437.88" y="-30.5" font-family="Helvetica,sans-Serif" font-size="10.00">/core/application/cs</text>
<text xml:space="preserve" text-anchor="start" x="437.88" y="-18.5" font-family="Helvetica,sans-Serif" font-size="10.00">_binding_factory/config</text>
<text xml:space="preserve" text-anchor="middle" x="488.12" y="-6.5" font-family="Helvetica,sans-Serif" font-size="10.00">_view_arg_builder.cpp</text>
</a>
</g>
</g>
<!-- Node2&#45;&gt;Node3 -->
<g id="edge2_Node000002_Node000003" class="edge">
<title>Node2&#45;&gt;Node3</title>
<g id="a_edge2_Node000002_Node000003"><a xlink:title=" ">
<path fill="none" stroke="#63b8ff" d="M594.66,-193.63C696.91,-184.43 828.38,-159.51 774.12,-92 746.14,-57.17 621.78,-40.47 546.57,-33.42"/>
<polygon fill="#63b8ff" stroke="#63b8ff" points="594.47,-190.13 584.81,-194.47 595.07,-197.11 594.47,-190.13"/>
</a>
</g>
</g>
<!-- Node4 -->
<g id="Node000004" class="node">
<title>Node4</title>
<g id="a_Node000004"><a xlink:href="menu__view__arg__builder_8cpp.html" target="_top" xlink:title=" ">
<polygon fill="white" stroke="#666666" points="114.25,-56 0,-56 0,0 114.25,0 114.25,-56"/>
<text xml:space="preserve" text-anchor="start" x="8" y="-42.5" font-family="Helvetica,sans-Serif" font-size="10.00">depicture_menu/src</text>
<text xml:space="preserve" text-anchor="start" x="8" y="-30.5" font-family="Helvetica,sans-Serif" font-size="10.00">/core/application/cs</text>
<text xml:space="preserve" text-anchor="start" x="8" y="-18.5" font-family="Helvetica,sans-Serif" font-size="10.00">_binding_factory/menu</text>
<text xml:space="preserve" text-anchor="middle" x="57.13" y="-6.5" font-family="Helvetica,sans-Serif" font-size="10.00">_view_arg_builder.cpp</text>
</a>
</g>
</g>
<!-- Node2&#45;&gt;Node4 -->
<g id="edge3_Node000002_Node000004" class="edge">
<title>Node2&#45;&gt;Node4</title>
<g id="a_edge3_Node000002_Node000004"><a xlink:title=" ">
<path fill="none" stroke="#63b8ff" d="M391.09,-175.24C385.36,-174.08 379.68,-172.99 374.12,-172 308.46,-160.3 124.58,-181.84 76.12,-136 54.88,-115.9 52.4,-80.92 53.74,-56.44"/>
<polygon fill="#63b8ff" stroke="#63b8ff" points="390.14,-178.62 400.65,-177.24 391.57,-171.77 390.14,-178.62"/>
</a>
</g>
</g>
<!-- Node5 -->
<g id="Node000005" class="node">
<title>Node5</title>
<g id="a_Node000005"><a xlink:href="setup__core_8cpp.html" target="_top" xlink:title=" ">
<polygon fill="white" stroke="#666666" points="402.12,-56 290.12,-56 290.12,0 402.12,0 402.12,-56"/>
<text xml:space="preserve" text-anchor="start" x="298.12" y="-42.5" font-family="Helvetica,sans-Serif" font-size="10.00">depicture_menu/src</text>
<text xml:space="preserve" text-anchor="start" x="298.12" y="-30.5" font-family="Helvetica,sans-Serif" font-size="10.00">/core/dll_entry_point</text>
<text xml:space="preserve" text-anchor="start" x="298.12" y="-18.5" font-family="Helvetica,sans-Serif" font-size="10.00">/domain_control/setup</text>
<text xml:space="preserve" text-anchor="middle" x="346.12" y="-6.5" font-family="Helvetica,sans-Serif" font-size="10.00">_core.cpp</text>
</a>
</g>
</g>
<!-- Node2&#45;&gt;Node5 -->
<g id="edge4_Node000002_Node000005" class="edge">
<title>Node2&#45;&gt;Node5</title>
<g id="a_edge4_Node000002_Node000005"><a xlink:title=" ">
<path fill="none" stroke="#63b8ff" d="M447.55,-170.64C434.72,-160.57 421.06,-148.58 410.12,-136 388.83,-111.49 370.52,-78.97 359,-56.24"/>
<polygon fill="#63b8ff" stroke="#63b8ff" points="445.41,-173.41 455.49,-176.7 449.66,-167.85 445.41,-173.41"/>
</a>
</g>
</g>
<!-- Node6 -->
<g id="Node000006" class="node">
<title>Node6</title>
<g id="a_Node000006"><a xlink:href="menu__view__presenter_8cpp.html" target="_top" xlink:title=" ">
<polygon fill="white" stroke="#666666" points="765.12,-136 575.12,-136 575.12,-92 765.12,-92 765.12,-136"/>
<text xml:space="preserve" text-anchor="start" x="583.12" y="-122.5" font-family="Helvetica,sans-Serif" font-size="10.00">depicture_menu/src</text>
<text xml:space="preserve" text-anchor="start" x="583.12" y="-110.5" font-family="Helvetica,sans-Serif" font-size="10.00">/core/presentation/change</text>
<text xml:space="preserve" text-anchor="middle" x="670.12" y="-98.5" font-family="Helvetica,sans-Serif" font-size="10.00">_view_model/menu_view_presenter.cpp</text>
</a>
</g>
</g>
<!-- Node2&#45;&gt;Node6 -->
<g id="edge5_Node000002_Node000006" class="edge">
<title>Node2&#45;&gt;Node6</title>
<g id="a_edge5_Node000002_Node000006"><a xlink:title=" ">
<path fill="none" stroke="#63b8ff" d="M544.76,-172.86C570.16,-161.14 599.76,-147.48 623.81,-136.37"/>
<polygon fill="#63b8ff" stroke="#63b8ff" points="543.51,-169.58 535.9,-176.95 546.44,-175.94 543.51,-169.58"/>
</a>
</g>
</g>
<!-- Node7 -->
<g id="Node000007" class="node">
<title>Node7</title>
<g id="a_Node000007"><a xlink:href="combine__view__model__presenter_8hpp.html" target="_top" xlink:title=" ">
<polygon fill="white" stroke="#666666" points="556.88,-136 419.38,-136 419.38,-92 556.88,-92 556.88,-136"/>
<text xml:space="preserve" text-anchor="start" x="427.38" y="-122.5" font-family="Helvetica,sans-Serif" font-size="10.00">depicture_menu/src</text>
<text xml:space="preserve" text-anchor="start" x="427.38" y="-110.5" font-family="Helvetica,sans-Serif" font-size="10.00">/core/presentation/combine</text>
<text xml:space="preserve" text-anchor="middle" x="488.12" y="-98.5" font-family="Helvetica,sans-Serif" font-size="10.00">_view_model_presenter.hpp</text>
</a>
</g>
</g>
<!-- Node2&#45;&gt;Node7 -->
<g id="edge6_Node000002_Node000007" class="edge">
<title>Node2&#45;&gt;Node7</title>
<g id="a_edge6_Node000002_Node000007"><a xlink:title=" ">
<path fill="none" stroke="#63b8ff" d="M488.12,-166.49C488.12,-156.43 488.12,-145.6 488.12,-136.48"/>
<polygon fill="#63b8ff" stroke="#63b8ff" points="484.63,-166.29 488.13,-176.29 491.63,-166.29 484.63,-166.29"/>
</a>
</g>
</g>
<!-- Node8 -->
<g id="Node000008" class="node">
<title>Node8</title>
<g id="a_Node000008"><a xlink:href="_test_menu_view_presenter_8cpp.html" target="_top" xlink:title=" ">
<polygon fill="white" stroke="#666666" points="1022.75,-136 821.5,-136 821.5,-92 1022.75,-92 1022.75,-136"/>
<text xml:space="preserve" text-anchor="start" x="829.5" y="-122.5" font-family="Helvetica,sans-Serif" font-size="10.00">depicture_menu/test</text>
<text xml:space="preserve" text-anchor="start" x="829.5" y="-110.5" font-family="Helvetica,sans-Serif" font-size="10.00">/core/presentation/change</text>
<text xml:space="preserve" text-anchor="middle" x="922.12" y="-98.5" font-family="Helvetica,sans-Serif" font-size="10.00">_view_model/TestMenuViewPresenter.cpp</text>
</a>
</g>
</g>
<!-- Node2&#45;&gt;Node8 -->
<g id="edge9_Node000002_Node000008" class="edge">
<title>Node2&#45;&gt;Node8</title>
<g id="a_edge9_Node000002_Node000008"><a xlink:title=" ">
<path fill="none" stroke="#63b8ff" d="M594.28,-178.45C663.38,-165.08 752.99,-147.74 821.06,-134.56"/>
<polygon fill="#63b8ff" stroke="#63b8ff" points="594.01,-174.94 584.85,-180.28 595.34,-181.81 594.01,-174.94"/>
</a>
</g>
</g>
<!-- Node7&#45;&gt;Node3 -->
<g id="edge7_Node000007_Node000003" class="edge">
<title>Node7&#45;&gt;Node3</title>
<g id="a_edge7_Node000007_Node000003"><a xlink:title=" ">
<path fill="none" stroke="#63b8ff" d="M488.12,-80.54C488.12,-72.51 488.12,-63.99 488.12,-56.24"/>
<polygon fill="#63b8ff" stroke="#63b8ff" points="484.63,-80.29 488.13,-90.29 491.63,-80.29 484.63,-80.29"/>
</a>
</g>
</g>
<!-- Node7&#45;&gt;Node5 -->
<g id="edge8_Node000007_Node000005" class="edge">
<title>Node7&#45;&gt;Node5</title>
<g id="a_edge8_Node000007_Node000005"><a xlink:title=" ">
<path fill="none" stroke="#63b8ff" d="M442.28,-85.88C426.34,-76.45 408.45,-65.87 392.47,-56.42"/>
<polygon fill="#63b8ff" stroke="#63b8ff" points="440.23,-88.74 450.62,-90.82 443.8,-82.71 440.23,-88.74"/>
</a>
</g>
</g>
<!-- Node10 -->
<g id="Node000010" class="node">
<title>Node10</title>
<g id="a_Node000010"><a xlink:href="hidden__menu__view_8hpp.html" target="_top" xlink:title=" ">
<polygon fill="white" stroke="#666666" points="363.12,-136 233.12,-136 233.12,-92 363.12,-92 363.12,-136"/>
<text xml:space="preserve" text-anchor="start" x="241.12" y="-122.5" font-family="Helvetica,sans-Serif" font-size="10.00">depicture_menu/src</text>
<text xml:space="preserve" text-anchor="start" x="241.12" y="-110.5" font-family="Helvetica,sans-Serif" font-size="10.00">/core/usecase/menu_view</text>
<text xml:space="preserve" text-anchor="middle" x="298.12" y="-98.5" font-family="Helvetica,sans-Serif" font-size="10.00">/hidden_menu_view.hpp</text>
</a>
</g>
</g>
<!-- Node9&#45;&gt;Node10 -->
<g id="edge11_Node000009_Node000010" class="edge">
<title>Node9&#45;&gt;Node10</title>
<g id="a_edge11_Node000009_Node000010"><a xlink:title=" ">
<path fill="none" stroke="#63b8ff" d="M298.12,-160.5C298.12,-152.22 298.12,-143.75 298.12,-136.4"/>
<polygon fill="#63b8ff" stroke="#63b8ff" points="294.63,-160.45 298.13,-170.45 301.63,-160.45 294.63,-160.45"/>
</a>
</g>
</g>
<!-- Node11 -->
<g id="Node000011" class="node">
<title>Node11</title>
<g id="a_Node000011"><a xlink:href="show__menu__view_8hpp.html" target="_top" xlink:title=" ">
<polygon fill="white" stroke="#666666" points="215.12,-136 85.12,-136 85.12,-92 215.12,-92 215.12,-136"/>
<text xml:space="preserve" text-anchor="start" x="93.12" y="-122.5" font-family="Helvetica,sans-Serif" font-size="10.00">depicture_menu/src</text>
<text xml:space="preserve" text-anchor="start" x="93.12" y="-110.5" font-family="Helvetica,sans-Serif" font-size="10.00">/core/usecase/menu_view</text>
<text xml:space="preserve" text-anchor="middle" x="150.12" y="-98.5" font-family="Helvetica,sans-Serif" font-size="10.00">/show_menu_view.hpp</text>
</a>
</g>
</g>
<!-- Node9&#45;&gt;Node11 -->
<g id="edge13_Node000009_Node000011" class="edge">
<title>Node9&#45;&gt;Node11</title>
<g id="a_edge13_Node000009_Node000011"><a xlink:title=" ">
<path fill="none" stroke="#63b8ff" d="M240.39,-166.23C222.66,-156.17 203.63,-145.37 187.63,-136.28"/>
<polygon fill="#63b8ff" stroke="#63b8ff" points="238.33,-169.09 248.76,-170.98 241.79,-163 238.33,-169.09"/>
</a>
</g>
</g>
<!-- Node10&#45;&gt;Node5 -->
<g id="edge12_Node000010_Node000005" class="edge">
<title>Node10&#45;&gt;Node5</title>
<g id="a_edge12_Node000010_Node000005"><a xlink:title=" ">
<path fill="none" stroke="#63b8ff" d="M315.88,-81.93C320.7,-73.5 325.87,-64.44 330.56,-56.24"/>
<polygon fill="#63b8ff" stroke="#63b8ff" points="312.91,-80.07 310.99,-90.49 318.99,-83.54 312.91,-80.07"/>
</a>
</g>
</g>
<!-- Node11&#45;&gt;Node3 -->
<g id="edge14_Node000011_Node000003" class="edge">
<title>Node11&#45;&gt;Node3</title>
<g id="a_edge14_Node000011_Node000003"><a xlink:title=" ">
<path fill="none" stroke="#63b8ff" d="M226.53,-91.55C308.5,-72.85 332.85,-77.14 411.12,-56 417.14,-54.38 423.37,-52.51 429.55,-50.54"/>
<polygon fill="#63b8ff" stroke="#63b8ff" points="225.83,-88.12 216.89,-93.8 227.42,-94.93 225.83,-88.12"/>
</a>
</g>
</g>
<!-- Node11&#45;&gt;Node4 -->
<g id="edge15_Node000011_Node000004" class="edge">
<title>Node11&#45;&gt;Node4</title>
<g id="a_edge15_Node000011_Node000004"><a xlink:title=" ">
<path fill="none" stroke="#63b8ff" d="M118.17,-84.14C108.17,-75.1 97.16,-65.16 87.28,-56.24"/>
<polygon fill="#63b8ff" stroke="#63b8ff" points="115.77,-86.68 125.53,-90.79 120.46,-81.49 115.77,-86.68"/>
</a>
</g>
</g>
<!-- Node11&#45;&gt;Node5 -->
<g id="edge16_Node000011_Node000005" class="edge">
<title>Node11&#45;&gt;Node5</title>
<g id="a_edge16_Node000011_Node000005"><a xlink:title=" ">
<path fill="none" stroke="#63b8ff" d="M210.63,-87.07C235.83,-76.27 264.92,-63.8 289.67,-53.19"/>
<polygon fill="#63b8ff" stroke="#63b8ff" points="209.3,-83.83 201.48,-90.99 212.05,-90.27 209.3,-83.83"/>
</a>
</g>
</g>
<!-- Node12 -->
<g id="Node000012" class="node">
<title>Node12</title>
<g id="a_Node000012"><a xlink:href="show__menu__view_8cpp.html" target="_top" xlink:title=" ">
<polygon fill="white" stroke="#666666" points="262.12,-50 132.12,-50 132.12,-6 262.12,-6 262.12,-50"/>
<text xml:space="preserve" text-anchor="start" x="140.12" y="-36.5" font-family="Helvetica,sans-Serif" font-size="10.00">depicture_menu/src</text>
<text xml:space="preserve" text-anchor="start" x="140.12" y="-24.5" font-family="Helvetica,sans-Serif" font-size="10.00">/core/usecase/menu_view</text>
<text xml:space="preserve" text-anchor="middle" x="197.12" y="-12.5" font-family="Helvetica,sans-Serif" font-size="10.00">/show_menu_view.cpp</text>
</a>
</g>
</g>
<!-- Node11&#45;&gt;Node12 -->
<g id="edge17_Node000011_Node000012" class="edge">
<title>Node11&#45;&gt;Node12</title>
<g id="a_edge17_Node000011_Node000012"><a xlink:title=" ">
<path fill="none" stroke="#63b8ff" d="M167.58,-81.8C173.42,-71.37 179.78,-60 185.11,-50.48"/>
<polygon fill="#63b8ff" stroke="#63b8ff" points="164.55,-80.05 162.72,-90.48 170.66,-83.46 164.55,-80.05"/>
</a>
</g>
</g>
</g>
</svg>

<g id="navigator" transform="translate(0 0)" fill="#404254">
  <rect fill="#f2f5e9" fill-opacity="0.5" stroke="#606060" stroke-width=".5" x="0" y="0" width="60" height="60"/>
  <use id="zoomplus" xlink:href="#zoomPlus" x="17" y="9" onmousedown="handleZoom(evt,'in')"/>
  <use id="zoomminus" xlink:href="#zoomMin" x="42" y="9" onmousedown="handleZoom(evt,'out')"/>
  <use id="reset" xlink:href="#resetDef" x="30" y="36" onmousedown="handleReset()"/>
   <use id="arrowup" xlink:href="#arrowUp" x="0" y="0" onmousedown="handlePan(0,-1)"/>
  <use id="arrowright" xlink:href="#arrowRight" x="0" y="0" onmousedown="handlePan(1,0)"/>
  <use id="arrowdown" xlink:href="#arrowDown" x="0" y="0" onmousedown="handlePan(0,1)"/>
  <use id="arrowleft" xlink:href="#arrowLeft" x="0" y="0" onmousedown="handlePan(-1,0)"/>
</g>
<svg viewBox="0 0 15 15" width="100%" height="30px" preserveAspectRatio="xMaxYMin meet">
 <g id="arrow_out" transform="scale(0.3 0.3)">
  <a xlink:href="menu__view__dto_8hpp__dep__incl_org.svg" target="_base">
   <rect id="button" ry="5" rx="5" y="6" x="6" height="38" width="38"
        fill="#f2f5e9" fill-opacity="0.5" stroke="#606060" stroke-width="1.0"/>
   <path id="arrow"
     d="M 11.500037,31.436501 C 11.940474,20.09759 22.043105,11.32322 32.158766,21.979434 L 37.068811,17.246167 C 37.068811,17.246167 37.088388,32 37.088388,32 L 22.160133,31.978069 C 22.160133,31.978069 26.997745,27.140456 26.997745,27.140456 C 18.528582,18.264221 13.291696,25.230495 11.500037,31.436501 z"
     style="fill:#404040;"/>
  </a>
 </g>
</svg>

<style type='text/css'>
<![CDATA[
[data-mouse-over-selected='false'] { opacity: 0.7; }
[data-mouse-over-selected='true']  { opacity: 1.0; }
]]>
</style>
<script type="application/ecmascript"><![CDATA[
document.addEventListener('DOMContentLoaded', (event) => {
  highlightEdges();
  highlightAdjacentNodes();
});
]]></script>
</svg>
