<?xml version="1.0" encoding="UTF-8" standalone="no"?>
<!DOCTYPE svg PUBLIC "-//W3C//DTD SVG 1.1//EN"
 "http://www.w3.org/Graphics/SVG/1.1/DTD/svg11.dtd">
<!-- Generated by graphviz version 14.1.2 (20260124.0452)
 -->
<!-- Title: depicture_menu/src/core/usecase/config_view/interface/menu_view_model_interface.hpp Pages: 1 -->
<svg width="726pt" height="236pt"
 viewBox="0.00 0.00 726.00 236.00" xmlns="http://www.w3.org/2000/svg" xmlns:xlink="http://www.w3.org/1999/xlink">
<g id="graph0" class="graph" transform="scale(1 1) rotate(0) translate(4 232)">
<title>depicture_menu/src/core/usecase/config_view/interface/menu_view_model_interface.hpp</title>
<!-- Node1 -->
<g id="Node000001" class="node">
<title>Node1</title>
<g id="a_Node000001"><a xlink:title=" ">
<polygon fill="#999999" stroke="#666666" points="255.25,-228 120.75,-228 120.75,-172 255.25,-172 255.25,-228"/>
<text xml:space="preserve" text-anchor="start" x="128.75" y="-214.5" font-family="Helvetica,sans-Serif" font-size="10.00">depicture_menu/src</text>
<text xml:space="preserve" text-anchor="start" x="128.75" y="-202.5" font-family="Helvetica,sans-Serif" font-size="10.00">/core/usecase/config</text>
<text xml:space="preserve" text-anchor="start" x="128.75" y="-190.5" font-family="Helvetica,sans-Serif" font-size="10.00">_view/interface/menu</text>
<text xml:space="preserve" text-anchor="middle" x="188" y="-178.5" font-family="Helvetica,sans-Serif" font-size="10.00">_view_model_interface.hpp</text>
</a>
</g>
</g>
<!-- Node2 -->
<g id="Node000002" class="node">
<title>Node2</title>
<g id="a_Node000002"><a xlink:href="hidden__menu__view_8hpp.html" target="_top" xlink:title=" ">
<polygon fill="white" stroke="#666666" points="179,-136 49,-136 49,-92 179,-92 179,-136"/>
<text xml:space="preserve" text-anchor="start" x="57" y="-122.5" font-family="Helvetica,sans-Serif" font-size="10.00">depicture_menu/src</text>
<text xml:space="preserve" text-anchor="start" x="57" y="-110.5" font-family="Helvetica,sans-Serif" font-size="10.00">/core/usecase/menu_view</text>
<text xml:space="preserve" text-anchor="middle" x="114" y="-98.5" font-family="Helvetica,sans-Serif" font-size="10.00">/hidden_menu_view.hpp</text>
</a>
</g>
</g>
<!-- Node1&#45;&gt;Node2 -->
<g id="edge1_Node000001_Node000002" class="edge">
<title>Node1&#45;&gt;Node2</title>
<g id="a_edge1_Node000001_Node000002"><a xlink:title=" ">
<path fill="none" stroke="#63b8ff" d="M156.6,-163.35C148.52,-154.18 140.07,-144.6 132.85,-136.4"/>
<polygon fill="#63b8ff" stroke="#63b8ff" points="153.94,-165.63 163.18,-170.82 159.19,-161.01 153.94,-165.63"/>
</a>
</g>
</g>
<!-- Node4 -->
<g id="Node000004" class="node">
<title>Node4</title>
<g id="a_Node000004"><a xlink:href="show__menu__view_8hpp.html" target="_top" xlink:title="メニュー表示ユースケース">
<polygon fill="white" stroke="#666666" points="356,-136 226,-136 226,-92 356,-92 356,-136"/>
<text xml:space="preserve" text-anchor="start" x="234" y="-122.5" font-family="Helvetica,sans-Serif" font-size="10.00">depicture_menu/src</text>
<text xml:space="preserve" text-anchor="start" x="234" y="-110.5" font-family="Helvetica,sans-Serif" font-size="10.00">/core/usecase/menu_view</text>
<text xml:space="preserve" text-anchor="middle" x="291" y="-98.5" font-family="Helvetica,sans-Serif" font-size="10.00">/show_menu_view.hpp</text>
</a>
</g>
</g>
<!-- Node1&#45;&gt;Node4 -->
<g id="edge3_Node000001_Node000004" class="edge">
<title>Node1&#45;&gt;Node4</title>
<g id="a_edge3_Node000001_Node000004"><a xlink:title=" ">
<path fill="none" stroke="#63b8ff" d="M230.25,-164.55C241.98,-154.97 254.38,-144.86 264.9,-136.28"/>
<polygon fill="#63b8ff" stroke="#63b8ff" points="228.15,-161.74 222.61,-170.77 232.58,-167.16 228.15,-161.74"/>
</a>
</g>
</g>
<!-- Node3 -->
<g id="Node000003" class="node">
<title>Node3</title>
<g id="a_Node000003"><a xlink:href="setup__core_8cpp.html" target="_top" xlink:title=" ">
<polygon fill="white" stroke="#666666" points="112,-56 0,-56 0,0 112,0 112,-56"/>
<text xml:space="preserve" text-anchor="start" x="8" y="-42.5" font-family="Helvetica,sans-Serif" font-size="10.00">depicture_menu/src</text>
<text xml:space="preserve" text-anchor="start" x="8" y="-30.5" font-family="Helvetica,sans-Serif" font-size="10.00">/core/dll_entry_point</text>
<text xml:space="preserve" text-anchor="start" x="8" y="-18.5" font-family="Helvetica,sans-Serif" font-size="10.00">/domain_control/setup</text>
<text xml:space="preserve" text-anchor="middle" x="56" y="-6.5" font-family="Helvetica,sans-Serif" font-size="10.00">_core.cpp</text>
</a>
</g>
</g>
<!-- Node2&#45;&gt;Node3 -->
<g id="edge2_Node000002_Node000003" class="edge">
<title>Node2&#45;&gt;Node3</title>
<g id="a_edge2_Node000002_Node000003"><a xlink:title=" ">
<path fill="none" stroke="#63b8ff" d="M92.93,-82.49C87,-73.9 80.59,-64.62 74.81,-56.24"/>
<polygon fill="#63b8ff" stroke="#63b8ff" points="89.94,-84.32 98.5,-90.56 95.7,-80.34 89.94,-84.32"/>
</a>
</g>
</g>
<!-- Node4&#45;&gt;Node3 -->
<g id="edge7_Node000004_Node000003" class="edge">
<title>Node4&#45;&gt;Node3</title>
<g id="a_edge7_Node000004_Node000003"><a xlink:title=" ">
<path fill="none" stroke="#63b8ff" d="M214.98,-88.78C185.48,-79.04 151.5,-67.43 121,-56 118.14,-54.93 115.22,-53.81 112.27,-52.66"/>
<polygon fill="#63b8ff" stroke="#63b8ff" points="213.61,-92.01 224.2,-91.8 215.79,-85.36 213.61,-92.01"/>
</a>
</g>
</g>
<!-- Node5 -->
<g id="Node000005" class="node">
<title>Node5</title>
<g id="a_Node000005"><a xlink:href="config__view__arg__builder_8cpp.html" target="_top" xlink:title="ConfigArg ファクトリー">
<polygon fill="white" stroke="#666666" points="246.25,-56 129.75,-56 129.75,0 246.25,0 246.25,-56"/>
<text xml:space="preserve" text-anchor="start" x="137.75" y="-42.5" font-family="Helvetica,sans-Serif" font-size="10.00">depicture_menu/src</text>
<text xml:space="preserve" text-anchor="start" x="137.75" y="-30.5" font-family="Helvetica,sans-Serif" font-size="10.00">/core/application/cs</text>
<text xml:space="preserve" text-anchor="start" x="137.75" y="-18.5" font-family="Helvetica,sans-Serif" font-size="10.00">_binding_factory/config</text>
<text xml:space="preserve" text-anchor="middle" x="188" y="-6.5" font-family="Helvetica,sans-Serif" font-size="10.00">_view_arg_builder.cpp</text>
</a>
</g>
</g>
<!-- Node4&#45;&gt;Node5 -->
<g id="edge4_Node000004_Node000005" class="edge">
<title>Node4&#45;&gt;Node5</title>
<g id="a_edge4_Node000004_Node000005"><a xlink:title=" ">
<path fill="none" stroke="#63b8ff" d="M256.1,-84.54C244.96,-75.46 232.66,-65.42 221.62,-56.42"/>
<polygon fill="#63b8ff" stroke="#63b8ff" points="253.61,-87.02 263.57,-90.63 258.03,-81.6 253.61,-87.02"/>
</a>
</g>
</g>
<!-- Node6 -->
<g id="Node000006" class="node">
<title>Node6</title>
<g id="a_Node000006"><a xlink:href="menu__view__arg__builder_8cpp.html" target="_top" xlink:title=" ">
<polygon fill="white" stroke="#666666" points="378.12,-56 263.88,-56 263.88,0 378.12,0 378.12,-56"/>
<text xml:space="preserve" text-anchor="start" x="271.88" y="-42.5" font-family="Helvetica,sans-Serif" font-size="10.00">depicture_menu/src</text>
<text xml:space="preserve" text-anchor="start" x="271.88" y="-30.5" font-family="Helvetica,sans-Serif" font-size="10.00">/core/application/cs</text>
<text xml:space="preserve" text-anchor="start" x="271.88" y="-18.5" font-family="Helvetica,sans-Serif" font-size="10.00">_binding_factory/menu</text>
<text xml:space="preserve" text-anchor="middle" x="321" y="-6.5" font-family="Helvetica,sans-Serif" font-size="10.00">_view_arg_builder.cpp</text>
</a>
</g>
</g>
<!-- Node4&#45;&gt;Node6 -->
<g id="edge5_Node000004_Node000006" class="edge">
<title>Node4&#45;&gt;Node6</title>
<g id="a_edge5_Node000004_Node000006"><a xlink:title=" ">
<path fill="none" stroke="#63b8ff" d="M302.39,-81.1C305.32,-72.9 308.44,-64.17 311.27,-56.24"/>
<polygon fill="#63b8ff" stroke="#63b8ff" points="299.15,-79.78 299.08,-90.38 305.74,-82.14 299.15,-79.78"/>
</a>
</g>
</g>
<!-- Node7 -->
<g id="Node000007" class="node">
<title>Node7</title>
<g id="a_Node000007"><a xlink:href="config__view__dispatch_8cpp.html" target="_top" xlink:title=" ">
<polygon fill="white" stroke="#666666" points="569.75,-50 396.25,-50 396.25,-6 569.75,-6 569.75,-50"/>
<text xml:space="preserve" text-anchor="start" x="404.25" y="-36.5" font-family="Helvetica,sans-Serif" font-size="10.00">depicture_menu/src</text>
<text xml:space="preserve" text-anchor="start" x="404.25" y="-24.5" font-family="Helvetica,sans-Serif" font-size="10.00">/core/application/usecase</text>
<text xml:space="preserve" text-anchor="middle" x="483" y="-12.5" font-family="Helvetica,sans-Serif" font-size="10.00">_dispatch/config_view_dispatch.cpp</text>
</a>
</g>
</g>
<!-- Node4&#45;&gt;Node7 -->
<g id="edge6_Node000004_Node000007" class="edge">
<title>Node4&#45;&gt;Node7</title>
<g id="a_edge6_Node000004_Node000007"><a xlink:title=" ">
<path fill="none" stroke="#63b8ff" d="M350.39,-87.02C377.27,-75.26 408.66,-61.53 434.14,-50.37"/>
<polygon fill="#63b8ff" stroke="#63b8ff" points="349.09,-83.76 341.33,-90.98 351.9,-90.18 349.09,-83.76"/>
</a>
</g>
</g>
<!-- Node8 -->
<g id="Node000008" class="node">
<title>Node8</title>
<g id="a_Node000008"><a xlink:href="show__menu__view_8cpp.html" target="_top" xlink:title=" ">
<polygon fill="white" stroke="#666666" points="718,-50 588,-50 588,-6 718,-6 718,-50"/>
<text xml:space="preserve" text-anchor="start" x="596" y="-36.5" font-family="Helvetica,sans-Serif" font-size="10.00">depicture_menu/src</text>
<text xml:space="preserve" text-anchor="start" x="596" y="-24.5" font-family="Helvetica,sans-Serif" font-size="10.00">/core/usecase/menu_view</text>
<text xml:space="preserve" text-anchor="middle" x="653" y="-12.5" font-family="Helvetica,sans-Serif" font-size="10.00">/show_menu_view.cpp</text>
</a>
</g>
</g>
<!-- Node4&#45;&gt;Node8 -->
<g id="edge8_Node000004_Node000008" class="edge">
<title>Node4&#45;&gt;Node8</title>
<g id="a_edge8_Node000004_Node000008"><a xlink:title=" ">
<path fill="none" stroke="#63b8ff" d="M367.3,-101.21C425.79,-91.37 508.21,-75.79 579,-56 584.93,-54.34 591.06,-52.43 597.13,-50.41"/>
<polygon fill="#63b8ff" stroke="#63b8ff" points="367.08,-97.69 357.79,-102.79 368.23,-104.6 367.08,-97.69"/>
</a>
</g>
</g>
</g>
</svg>
