<?xml version="1.0" encoding="UTF-8" standalone="no"?>
<!DOCTYPE svg PUBLIC "-//W3C//DTD SVG 1.1//EN"
 "http://www.w3.org/Graphics/SVG/1.1/DTD/svg11.dtd">
<!-- Generated by graphviz version 14.1.2 (20260124.0452)
 -->
<!-- Title: BOOST_AUTO_TEST_CASE Pages: 1 -->
<svg width="369pt" height="66pt"
 viewBox="0.00 0.00 369.00 66.00" xmlns="http://www.w3.org/2000/svg" xmlns:xlink="http://www.w3.org/1999/xlink">
<g id="graph0" class="graph" transform="scale(1 1) rotate(0) translate(4 62)">
<title>BOOST_AUTO_TEST_CASE</title>
<!-- Node1 -->
<g id="Node000001" class="node">
<title>Node1</title>
<g id="a_Node000001"><a xlink:title=" ">
<polygon fill="#999999" stroke="#666666" points="147.25,-39 0,-39 0,-19 147.25,-19 147.25,-39"/>
<text xml:space="preserve" text-anchor="middle" x="73.62" y="-25.5" font-family="Helvetica,sans-Serif" font-size="10.00">BOOST_AUTO_TEST_CASE</text>
</a>
</g>
</g>
<!-- Node2 -->
<g id="Node000002" class="node">
<title>Node2</title>
<g id="a_Node000002"><a xlink:href="_test_config_view_presenter_8cpp.html#a7845eb0c68b997d6d329618f36f7e794" target="_top" xlink:title=" ">
<polygon fill="white" stroke="#666666" points="265.25,-58 184,-58 184,-38 265.25,-38 265.25,-58"/>
<text xml:space="preserve" text-anchor="middle" x="224.62" y="-44.5" font-family="Helvetica,sans-Serif" font-size="10.00">BOOST_TEST</text>
</a>
</g>
</g>
<!-- Node1&#45;&gt;Node2 -->
<g id="edge1_Node000001_Node000002" class="edge">
<title>Node1&#45;&gt;Node2</title>
<g id="a_edge1_Node000001_Node000002"><a xlink:title=" ">
<path fill="none" stroke="#63b8ff" d="M147.38,-38.28C155.91,-39.37 164.48,-40.46 172.63,-41.5"/>
<polygon fill="#63b8ff" stroke="#63b8ff" points="171.96,-44.94 182.32,-42.73 172.85,-38 171.96,-44.94"/>
</a>
</g>
</g>
<!-- Node3 -->
<g id="Node000003" class="node">
<title>Node3</title>
<g id="a_Node000003"><a xlink:href="menu__change__operation_8cpp.html#a21cd4ad5cb7cf2e145fff9f01cfa56f1" target="_top" xlink:title=" ">
<polygon fill="white" stroke="#666666" points="266,-20 183.25,-20 183.25,0 266,0 266,-20"/>
<text xml:space="preserve" text-anchor="middle" x="224.62" y="-6.5" font-family="Helvetica,sans-Serif" font-size="10.00">get_menu_item</text>
</a>
</g>
</g>
<!-- Node1&#45;&gt;Node3 -->
<g id="edge2_Node000001_Node000003" class="edge">
<title>Node1&#45;&gt;Node3</title>
<g id="a_edge2_Node000001_Node000003"><a xlink:title=" ">
<path fill="none" stroke="#63b8ff" d="M147.38,-19.72C155.62,-18.67 163.89,-17.62 171.78,-16.61"/>
<polygon fill="#63b8ff" stroke="#63b8ff" points="172.05,-20.11 181.53,-15.37 171.16,-13.16 172.05,-20.11"/>
</a>
</g>
</g>
<!-- Node4 -->
<g id="Node000004" class="node">
<title>Node4</title>
<g id="a_Node000004"><a xlink:href="menu__change__operation_8cpp.html#a2934c95d04c77f3d34f9b8440d758d6e" target="_top" xlink:title=" ">
<polygon fill="white" stroke="#666666" points="360.75,-20 302,-20 302,0 360.75,0 360.75,-20"/>
<text xml:space="preserve" text-anchor="middle" x="331.38" y="-6.5" font-family="Helvetica,sans-Serif" font-size="10.00">get_menu</text>
</a>
</g>
</g>
<!-- Node3&#45;&gt;Node4 -->
<g id="edge3_Node000003_Node000004" class="edge">
<title>Node3&#45;&gt;Node4</title>
<g id="a_edge3_Node000003_Node000004"><a xlink:title=" ">
<path fill="none" stroke="#63b8ff" d="M266.42,-10C274.21,-10 282.35,-10 290.11,-10"/>
<polygon fill="#63b8ff" stroke="#63b8ff" points="290,-13.5 300,-10 290,-6.5 290,-13.5"/>
</a>
</g>
</g>
</g>
</svg>
