<?xml version="1.0" encoding="UTF-8" standalone="no"?>
<!DOCTYPE svg PUBLIC "-//W3C//DTD SVG 1.1//EN"
 "http://www.w3.org/Graphics/SVG/1.1/DTD/svg11.dtd">
<!-- Generated by graphviz version 14.1.2 (20260124.0452)
 -->
<!-- Title: depicture_menu/src/core/usecase/config_view/dto/menu_update.hpp Pages: 1 -->
<!--zoomable 304 -->

<svg id="main" version="1.1" xmlns="http://www.w3.org/2000/svg" xmlns:xlink="http://www.w3.org/1999/xlink" xml:space="preserve" onload="init(evt)">

<style type="text/css"><![CDATA[
.node, .edge {opacity: 0.7;}
.node.selected, .edge.selected {opacity: 1;}
.edge:hover path { stroke: red; }
.edge:hover polygon { stroke: red; fill: red; }
]]></style>

<defs>
  <circle id="rim" cx="0" cy="0" r="7"/>
  <circle id="rim2" cx="0" cy="0" r="3.5"/>
  <g id="zoomPlus">
    <use xlink:href="#rim" fill="#404040"><set attributeName="fill" to="#808080" begin="zoomplus.mouseover" end="zoomplus.mouseout"/></use>
    <path d="M-4,0h8M0,-4v8" fill="none" stroke="white" stroke-width="1.5" pointer-events="none"/>
  </g>
  <g id="zoomMin">
    <use xlink:href="#rim" fill="#404040"><set attributeName="fill" to="#808080" begin="zoomminus.mouseover" end="zoomminus.mouseout"/></use>
    <path d="M-4,0h8" fill="none" stroke="white" stroke-width="1.5" pointer-events="none"/>
  </g>
  <g id="arrowUp" transform="translate(30 24)">
    <use xlink:href="#rim"/>
    <path pointer-events="none" fill="none" stroke="white" stroke-width="1.5" d="M0,-3.0v7 M-2.5,-0.5L0,-3.0L2.5,-0.5"/>
  </g>
  <g id="arrowRight" transform="rotate(90) translate(36 -43)">
    <use xlink:href="#rim"/>
    <path pointer-events="none" fill="none" stroke="white" stroke-width="1.5" d="M0,-3.0v7 M-2.5,-0.5L0,-3.0L2.5,-0.5"/>
  </g>
  <g id="arrowDown" transform="rotate(180) translate(-30 -48)">
    <use xlink:href="#rim"/>
    <path pointer-events="none" fill="none" stroke="white" stroke-width="1.5" d="M0,-3.0v7 M-2.5,-0.5L0,-3.0L2.5,-0.5"/>
  </g>
  <g id="arrowLeft" transform="rotate(270) translate(-36 17)">
    <use xlink:href="#rim"/>
    <path pointer-events="none" fill="none" stroke="white" stroke-width="1.5" d="M0,-3.0v7 M-2.5,-0.5L0,-3.0L2.5,-0.5"/>
  </g>
  <g id="resetDef">
    <use xlink:href="#rim2" fill="#404040"><set attributeName="fill" to="#808080" begin="reset.mouseover" end="reset.mouseout"/></use>
  </g>
</defs>
<script type="application/ecmascript">
var viewWidth = 561;
var viewHeight = 304;
var sectionId = 'dynsection-1';
</script>
<script type="application/ecmascript" xlink:href="svg.min.js"/>
<svg id="graph" class="graph">
<g id="viewport">
<title>depicture_menu/src/core/usecase/config_view/dto/menu_update.hpp</title>
<!-- Node1 -->
<g id="Node000001" class="node">
<title>Node1</title>
<g id="a_Node000001"><a xlink:title="メニューupdate input DTO">
<polygon fill="#999999" stroke="#666666" points="525.25,-296 387,-296 387,-252 525.25,-252 525.25,-296"/>
<text xml:space="preserve" text-anchor="start" x="395" y="-282.5" font-family="Helvetica,sans-Serif" font-size="10.00">depicture_menu/src</text>
<text xml:space="preserve" text-anchor="start" x="395" y="-270.5" font-family="Helvetica,sans-Serif" font-size="10.00">/core/usecase/config</text>
<text xml:space="preserve" text-anchor="middle" x="456.12" y="-258.5" font-family="Helvetica,sans-Serif" font-size="10.00">_view/dto/menu_update.hpp</text>
</a>
</g>
</g>
<!-- Node2 -->
<g id="Node000002" class="node">
<title>Node2</title>
<g id="a_Node000002"><a xlink:href="config__view__arg__builder_8cpp.html" target="_top" xlink:title=" ">
<polygon fill="white" stroke="#666666" points="438.38,-56 321.88,-56 321.88,0 438.38,0 438.38,-56"/>
<text xml:space="preserve" text-anchor="start" x="329.88" y="-42.5" font-family="Helvetica,sans-Serif" font-size="10.00">depicture_menu/src</text>
<text xml:space="preserve" text-anchor="start" x="329.88" y="-30.5" font-family="Helvetica,sans-Serif" font-size="10.00">/core/application/cs</text>
<text xml:space="preserve" text-anchor="start" x="329.88" y="-18.5" font-family="Helvetica,sans-Serif" font-size="10.00">_binding_factory/config</text>
<text xml:space="preserve" text-anchor="middle" x="380.12" y="-6.5" font-family="Helvetica,sans-Serif" font-size="10.00">_view_arg_builder.cpp</text>
</a>
</g>
</g>
<!-- Node1&#45;&gt;Node2 -->
<g id="edge1_Node000001_Node000002" class="edge">
<title>Node1&#45;&gt;Node2</title>
<g id="a_edge1_Node000001_Node000002"><a xlink:title=" ">
<path fill="none" stroke="#63b8ff" d="M488.15,-243.87C524.93,-206.81 576.09,-141.65 542.12,-92 519.04,-58.25 475.01,-42.58 438.67,-35.3"/>
<polygon fill="#63b8ff" stroke="#63b8ff" points="485.86,-241.22 481.17,-250.72 490.76,-246.21 485.86,-241.22"/>
</a>
</g>
</g>
<!-- Node3 -->
<g id="Node000003" class="node">
<title>Node3</title>
<g id="a_Node000003"><a xlink:href="update__menu__config_8hpp.html" target="_top" xlink:title=" ">
<polygon fill="white" stroke="#666666" points="427.75,-216 274.5,-216 274.5,-172 427.75,-172 427.75,-216"/>
<text xml:space="preserve" text-anchor="start" x="282.5" y="-202.5" font-family="Helvetica,sans-Serif" font-size="10.00">depicture_menu/src</text>
<text xml:space="preserve" text-anchor="start" x="282.5" y="-190.5" font-family="Helvetica,sans-Serif" font-size="10.00">/core/usecase/config</text>
<text xml:space="preserve" text-anchor="middle" x="351.12" y="-178.5" font-family="Helvetica,sans-Serif" font-size="10.00">_view/update_menu_config.hpp</text>
</a>
</g>
</g>
<!-- Node1&#45;&gt;Node3 -->
<g id="edge2_Node000001_Node000003" class="edge">
<title>Node1&#45;&gt;Node3</title>
<g id="a_edge2_Node000001_Node000003"><a xlink:title=" ">
<path fill="none" stroke="#63b8ff" d="M418.43,-245C405.7,-235.54 391.7,-225.14 379.78,-216.29"/>
<polygon fill="#63b8ff" stroke="#63b8ff" points="416.1,-247.63 426.22,-250.78 420.28,-242.01 416.1,-247.63"/>
</a>
</g>
</g>
<!-- Node3&#45;&gt;Node2 -->
<g id="edge3_Node000003_Node000002" class="edge">
<title>Node3&#45;&gt;Node2</title>
<g id="a_edge3_Node000003_Node000002"><a xlink:title=" ">
<path fill="none" stroke="#63b8ff" d="M356.91,-160.28C362.29,-129.86 370.21,-85.06 375.27,-56.46"/>
<polygon fill="#63b8ff" stroke="#63b8ff" points="353.47,-159.61 355.18,-170.07 360.37,-160.83 353.47,-159.61"/>
</a>
</g>
</g>
<!-- Node4 -->
<g id="Node000004" class="node">
<title>Node4</title>
<g id="a_Node000004"><a xlink:href="menu__config__controler_8cpp.html" target="_top" xlink:title=" ">
<polygon fill="white" stroke="#666666" points="174.25,-50 0,-50 0,-6 174.25,-6 174.25,-50"/>
<text xml:space="preserve" text-anchor="start" x="8" y="-36.5" font-family="Helvetica,sans-Serif" font-size="10.00">depicture_menu/src</text>
<text xml:space="preserve" text-anchor="start" x="8" y="-24.5" font-family="Helvetica,sans-Serif" font-size="10.00">/core/control/config</text>
<text xml:space="preserve" text-anchor="middle" x="87.12" y="-12.5" font-family="Helvetica,sans-Serif" font-size="10.00">_window/menu_config_controler.cpp</text>
</a>
</g>
</g>
<!-- Node3&#45;&gt;Node4 -->
<g id="edge4_Node000003_Node000004" class="edge">
<title>Node3&#45;&gt;Node4</title>
<g id="a_edge4_Node000003_Node000004"><a xlink:title=" ">
<path fill="none" stroke="#63b8ff" d="M262.91,-185.84C221.85,-178.61 174.58,-164.28 140.12,-136 113.21,-113.9 98.79,-74.73 92.07,-50.4"/>
<polygon fill="#63b8ff" stroke="#63b8ff" points="262.11,-189.25 272.54,-187.41 263.23,-182.34 262.11,-189.25"/>
</a>
</g>
</g>
<!-- Node5 -->
<g id="Node000005" class="node">
<title>Node5</title>
<g id="a_Node000005"><a xlink:href="menu__config__controler_8hpp.html" target="_top" xlink:title=" ">
<polygon fill="white" stroke="#666666" points="323.25,-136 149,-136 149,-92 323.25,-92 323.25,-136"/>
<text xml:space="preserve" text-anchor="start" x="157" y="-122.5" font-family="Helvetica,sans-Serif" font-size="10.00">depicture_menu/src</text>
<text xml:space="preserve" text-anchor="start" x="157" y="-110.5" font-family="Helvetica,sans-Serif" font-size="10.00">/core/control/config</text>
<text xml:space="preserve" text-anchor="middle" x="236.12" y="-98.5" font-family="Helvetica,sans-Serif" font-size="10.00">_window/menu_config_controler.hpp</text>
</a>
</g>
</g>
<!-- Node3&#45;&gt;Node5 -->
<g id="edge5_Node000003_Node000005" class="edge">
<title>Node3&#45;&gt;Node5</title>
<g id="a_edge5_Node000003_Node000005"><a xlink:title=" ">
<path fill="none" stroke="#63b8ff" d="M310.25,-165.28C296.19,-155.74 280.69,-145.23 267.51,-136.29"/>
<polygon fill="#63b8ff" stroke="#63b8ff" points="308.21,-168.12 318.45,-170.84 312.14,-162.33 308.21,-168.12"/>
</a>
</g>
</g>
<!-- Node7 -->
<g id="Node000007" class="node">
<title>Node7</title>
<g id="a_Node000007"><a xlink:href="update__menu__config_8cpp.html" target="_top" xlink:title=" ">
<polygon fill="white" stroke="#666666" points="532.75,-136 379.5,-136 379.5,-92 532.75,-92 532.75,-136"/>
<text xml:space="preserve" text-anchor="start" x="387.5" y="-122.5" font-family="Helvetica,sans-Serif" font-size="10.00">depicture_menu/src</text>
<text xml:space="preserve" text-anchor="start" x="387.5" y="-110.5" font-family="Helvetica,sans-Serif" font-size="10.00">/core/usecase/config</text>
<text xml:space="preserve" text-anchor="middle" x="456.12" y="-98.5" font-family="Helvetica,sans-Serif" font-size="10.00">_view/update_menu_config.cpp</text>
</a>
</g>
</g>
<!-- Node3&#45;&gt;Node7 -->
<g id="edge9_Node000003_Node000007" class="edge">
<title>Node3&#45;&gt;Node7</title>
<g id="a_edge9_Node000003_Node000007"><a xlink:title=" ">
<path fill="none" stroke="#63b8ff" d="M388.82,-165C401.55,-155.54 415.55,-145.14 427.47,-136.29"/>
<polygon fill="#63b8ff" stroke="#63b8ff" points="386.97,-162.01 381.03,-170.78 391.15,-167.63 386.97,-162.01"/>
</a>
</g>
</g>
<!-- Node5&#45;&gt;Node2 -->
<g id="edge6_Node000005_Node000002" class="edge">
<title>Node5&#45;&gt;Node2</title>
<g id="a_edge6_Node000005_Node000002"><a xlink:title=" ">
<path fill="none" stroke="#63b8ff" d="M282.61,-85.88C298.78,-76.45 316.92,-65.87 333.13,-56.42"/>
<polygon fill="#63b8ff" stroke="#63b8ff" points="281.02,-82.76 274.14,-90.82 284.54,-88.81 281.02,-82.76"/>
</a>
</g>
</g>
<!-- Node5&#45;&gt;Node4 -->
<g id="edge7_Node000005_Node000004" class="edge">
<title>Node5&#45;&gt;Node4</title>
<g id="a_edge7_Node000005_Node000004"><a xlink:title=" ">
<path fill="none" stroke="#63b8ff" d="M188.37,-86.08C167.89,-74.53 144.29,-61.23 125.04,-50.37"/>
<polygon fill="#63b8ff" stroke="#63b8ff" points="186.39,-88.98 196.82,-90.84 189.83,-82.88 186.39,-88.98"/>
</a>
</g>
</g>
<!-- Node6 -->
<g id="Node000006" class="node">
<title>Node6</title>
<g id="a_Node000006"><a xlink:href="setup__core_8cpp.html" target="_top" xlink:title=" ">
<polygon fill="white" stroke="#666666" points="304.12,-56 192.12,-56 192.12,0 304.12,0 304.12,-56"/>
<text xml:space="preserve" text-anchor="start" x="200.12" y="-42.5" font-family="Helvetica,sans-Serif" font-size="10.00">depicture_menu/src</text>
<text xml:space="preserve" text-anchor="start" x="200.12" y="-30.5" font-family="Helvetica,sans-Serif" font-size="10.00">/core/dll_entry_point</text>
<text xml:space="preserve" text-anchor="start" x="200.12" y="-18.5" font-family="Helvetica,sans-Serif" font-size="10.00">/domain_control/setup</text>
<text xml:space="preserve" text-anchor="middle" x="248.12" y="-6.5" font-family="Helvetica,sans-Serif" font-size="10.00">_core.cpp</text>
</a>
</g>
</g>
<!-- Node5&#45;&gt;Node6 -->
<g id="edge8_Node000005_Node000006" class="edge">
<title>Node5&#45;&gt;Node6</title>
<g id="a_edge8_Node000005_Node000006"><a xlink:title=" ">
<path fill="none" stroke="#63b8ff" d="M240.76,-80.54C241.91,-72.51 243.13,-63.99 244.23,-56.24"/>
<polygon fill="#63b8ff" stroke="#63b8ff" points="237.32,-79.91 239.37,-90.3 244.25,-80.9 237.32,-79.91"/>
</a>
</g>
</g>
</g>
</svg>

<g id="navigator" transform="translate(0 0)" fill="#404254">
  <rect fill="#f2f5e9" fill-opacity="0.5" stroke="#606060" stroke-width=".5" x="0" y="0" width="60" height="60"/>
  <use id="zoomplus" xlink:href="#zoomPlus" x="17" y="9" onmousedown="handleZoom(evt,'in')"/>
  <use id="zoomminus" xlink:href="#zoomMin" x="42" y="9" onmousedown="handleZoom(evt,'out')"/>
  <use id="reset" xlink:href="#resetDef" x="30" y="36" onmousedown="handleReset()"/>
   <use id="arrowup" xlink:href="#arrowUp" x="0" y="0" onmousedown="handlePan(0,-1)"/>
  <use id="arrowright" xlink:href="#arrowRight" x="0" y="0" onmousedown="handlePan(1,0)"/>
  <use id="arrowdown" xlink:href="#arrowDown" x="0" y="0" onmousedown="handlePan(0,1)"/>
  <use id="arrowleft" xlink:href="#arrowLeft" x="0" y="0" onmousedown="handlePan(-1,0)"/>
</g>
<svg viewBox="0 0 15 15" width="100%" height="30px" preserveAspectRatio="xMaxYMin meet">
 <g id="arrow_out" transform="scale(0.3 0.3)">
  <a xlink:href="menu__update_8hpp__dep__incl_org.svg" target="_base">
   <rect id="button" ry="5" rx="5" y="6" x="6" height="38" width="38"
        fill="#f2f5e9" fill-opacity="0.5" stroke="#606060" stroke-width="1.0"/>
   <path id="arrow"
     d="M 11.500037,31.436501 C 11.940474,20.09759 22.043105,11.32322 32.158766,21.979434 L 37.068811,17.246167 C 37.068811,17.246167 37.088388,32 37.088388,32 L 22.160133,31.978069 C 22.160133,31.978069 26.997745,27.140456 26.997745,27.140456 C 18.528582,18.264221 13.291696,25.230495 11.500037,31.436501 z"
     style="fill:#404040;"/>
  </a>
 </g>
</svg>

<style type='text/css'>
<![CDATA[
[data-mouse-over-selected='false'] { opacity: 0.7; }
[data-mouse-over-selected='true']  { opacity: 1.0; }
]]>
</style>
<script type="application/ecmascript"><![CDATA[
document.addEventListener('DOMContentLoaded', (event) => {
  highlightEdges();
  highlightAdjacentNodes();
});
]]></script>
</svg>
