<?xml version="1.0" encoding="UTF-8" standalone="no"?>
<!DOCTYPE svg PUBLIC "-//W3C//DTD SVG 1.1//EN"
 "http://www.w3.org/Graphics/SVG/1.1/DTD/svg11.dtd">
<!-- Generated by graphviz version 14.1.2 (20260124.0452)
 -->
<!-- Title: depicture_menu/src/core/usecase/config_view/dto/menu_update.hpp Pages: 1 -->
<!--zoomable 340 -->

<svg id="main" version="1.1" xmlns="http://www.w3.org/2000/svg" xmlns:xlink="http://www.w3.org/1999/xlink" xml:space="preserve" onload="init(evt)">

<style type="text/css"><![CDATA[
.node, .edge {opacity: 0.7;}
.node.selected, .edge.selected {opacity: 1;}
.edge:hover path { stroke: red; }
.edge:hover polygon { stroke: red; fill: red; }
]]></style>

<defs>
  <circle id="rim" cx="0" cy="0" r="7"/>
  <circle id="rim2" cx="0" cy="0" r="3.5"/>
  <g id="zoomPlus">
    <use xlink:href="#rim" fill="#404040"><set attributeName="fill" to="#808080" begin="zoomplus.mouseover" end="zoomplus.mouseout"/></use>
    <path d="M-4,0h8M0,-4v8" fill="none" stroke="white" stroke-width="1.5" pointer-events="none"/>
  </g>
  <g id="zoomMin">
    <use xlink:href="#rim" fill="#404040"><set attributeName="fill" to="#808080" begin="zoomminus.mouseover" end="zoomminus.mouseout"/></use>
    <path d="M-4,0h8" fill="none" stroke="white" stroke-width="1.5" pointer-events="none"/>
  </g>
  <g id="arrowUp" transform="translate(30 24)">
    <use xlink:href="#rim"/>
    <path pointer-events="none" fill="none" stroke="white" stroke-width="1.5" d="M0,-3.0v7 M-2.5,-0.5L0,-3.0L2.5,-0.5"/>
  </g>
  <g id="arrowRight" transform="rotate(90) translate(36 -43)">
    <use xlink:href="#rim"/>
    <path pointer-events="none" fill="none" stroke="white" stroke-width="1.5" d="M0,-3.0v7 M-2.5,-0.5L0,-3.0L2.5,-0.5"/>
  </g>
  <g id="arrowDown" transform="rotate(180) translate(-30 -48)">
    <use xlink:href="#rim"/>
    <path pointer-events="none" fill="none" stroke="white" stroke-width="1.5" d="M0,-3.0v7 M-2.5,-0.5L0,-3.0L2.5,-0.5"/>
  </g>
  <g id="arrowLeft" transform="rotate(270) translate(-36 17)">
    <use xlink:href="#rim"/>
    <path pointer-events="none" fill="none" stroke="white" stroke-width="1.5" d="M0,-3.0v7 M-2.5,-0.5L0,-3.0L2.5,-0.5"/>
  </g>
  <g id="resetDef">
    <use xlink:href="#rim2" fill="#404040"><set attributeName="fill" to="#808080" begin="reset.mouseover" end="reset.mouseout"/></use>
  </g>
</defs>
<script type="application/ecmascript">
var viewWidth = 815;
var viewHeight = 340;
var sectionId = 'dynsection-1';
</script>
<script type="application/ecmascript" xlink:href="svg.min.js"/>
<svg id="graph" class="graph">
<g id="viewport">
<title>depicture_menu/src/core/usecase/config_view/dto/menu_update.hpp</title>
<!-- Node1 -->
<g id="Node000001" class="node">
<title>Node1</title>
<g id="a_Node000001"><a xlink:title="メニューupdate input DTO">
<polygon fill="#999999" stroke="#666666" points="227.5,-332 89.25,-332 89.25,-288 227.5,-288 227.5,-332"/>
<text xml:space="preserve" text-anchor="start" x="97.25" y="-318.5" font-family="Helvetica,sans-Serif" font-size="10.00">depicture_menu/src</text>
<text xml:space="preserve" text-anchor="start" x="97.25" y="-306.5" font-family="Helvetica,sans-Serif" font-size="10.00">/core/usecase/config</text>
<text xml:space="preserve" text-anchor="middle" x="158.37" y="-294.5" font-family="Helvetica,sans-Serif" font-size="10.00">_view/dto/menu_update.hpp</text>
</a>
</g>
</g>
<!-- Node2 -->
<g id="Node000002" class="node">
<title>Node2</title>
<g id="a_Node000002"><a xlink:href="config__view__arg__builder_8cpp.html" target="_top" xlink:title="ConfigArg ファクトリー">
<polygon fill="white" stroke="#666666" points="164.62,-56 48.12,-56 48.12,0 164.62,0 164.62,-56"/>
<text xml:space="preserve" text-anchor="start" x="56.12" y="-42.5" font-family="Helvetica,sans-Serif" font-size="10.00">depicture_menu/src</text>
<text xml:space="preserve" text-anchor="start" x="56.12" y="-30.5" font-family="Helvetica,sans-Serif" font-size="10.00">/core/application/cs</text>
<text xml:space="preserve" text-anchor="start" x="56.12" y="-18.5" font-family="Helvetica,sans-Serif" font-size="10.00">_binding_factory/config</text>
<text xml:space="preserve" text-anchor="middle" x="106.37" y="-6.5" font-family="Helvetica,sans-Serif" font-size="10.00">_view_arg_builder.cpp</text>
</a>
</g>
</g>
<!-- Node1&#45;&gt;Node2 -->
<g id="edge1_Node000001_Node000002" class="edge">
<title>Node1&#45;&gt;Node2</title>
<g id="a_edge1_Node000001_Node000002"><a xlink:title=" ">
<path fill="none" stroke="#63b8ff" d="M78.02,-298.35C50,-290.35 21.34,-276.37 4.37,-252 -2.79,-241.72 0.01,-103.24 6.37,-92 15.77,-75.39 31.54,-62.54 47.81,-52.9"/>
<polygon fill="#63b8ff" stroke="#63b8ff" points="77.1,-301.73 87.66,-300.85 78.86,-294.95 77.1,-301.73"/>
</a>
</g>
</g>
<!-- Node3 -->
<g id="Node000003" class="node">
<title>Node3</title>
<g id="a_Node000003"><a xlink:href="config__view__observer_8hpp.html" target="_top" xlink:title="ConfigViewのObserver">
<polygon fill="white" stroke="#666666" points="137,-252 13.75,-252 13.75,-184 137,-184 137,-252"/>
<text xml:space="preserve" text-anchor="start" x="21.75" y="-238.5" font-family="Helvetica,sans-Serif" font-size="10.00">depicture_menu/src</text>
<text xml:space="preserve" text-anchor="start" x="21.75" y="-226.5" font-family="Helvetica,sans-Serif" font-size="10.00">/core/application/cs</text>
<text xml:space="preserve" text-anchor="start" x="21.75" y="-214.5" font-family="Helvetica,sans-Serif" font-size="10.00">_binding_factory/config</text>
<text xml:space="preserve" text-anchor="start" x="21.75" y="-202.5" font-family="Helvetica,sans-Serif" font-size="10.00">_view_arg_builder/config</text>
<text xml:space="preserve" text-anchor="middle" x="75.37" y="-190.5" font-family="Helvetica,sans-Serif" font-size="10.00">_view_observer.hpp</text>
</a>
</g>
</g>
<!-- Node1&#45;&gt;Node3 -->
<g id="edge2_Node000001_Node000003" class="edge">
<title>Node1&#45;&gt;Node3</title>
<g id="a_edge2_Node000001_Node000003"><a xlink:title=" ">
<path fill="none" stroke="#63b8ff" d="M131.07,-279.4C123.13,-270.79 114.4,-261.32 106.26,-252.49"/>
<polygon fill="#63b8ff" stroke="#63b8ff" points="128.32,-281.58 137.68,-286.56 133.47,-276.83 128.32,-281.58"/>
</a>
</g>
</g>
<!-- Node6 -->
<g id="Node000006" class="node">
<title>Node6</title>
<g id="a_Node000006"><a xlink:href="config__view__dispatch_8hpp.html" target="_top" xlink:title="コンフィグビューのディスパッチ">
<polygon fill="white" stroke="#666666" points="328.12,-240 154.62,-240 154.62,-196 328.12,-196 328.12,-240"/>
<text xml:space="preserve" text-anchor="start" x="162.62" y="-226.5" font-family="Helvetica,sans-Serif" font-size="10.00">depicture_menu/src</text>
<text xml:space="preserve" text-anchor="start" x="162.62" y="-214.5" font-family="Helvetica,sans-Serif" font-size="10.00">/core/application/usecase</text>
<text xml:space="preserve" text-anchor="middle" x="241.37" y="-202.5" font-family="Helvetica,sans-Serif" font-size="10.00">_dispatch/config_view_dispatch.hpp</text>
</a>
</g>
</g>
<!-- Node1&#45;&gt;Node6 -->
<g id="edge6_Node000001_Node000006" class="edge">
<title>Node1&#45;&gt;Node6</title>
<g id="a_edge6_Node000001_Node000006"><a xlink:title=" ">
<path fill="none" stroke="#63b8ff" d="M185.81,-279.25C197.49,-266.58 210.86,-252.09 221.56,-240.49"/>
<polygon fill="#63b8ff" stroke="#63b8ff" points="183.27,-276.83 179.07,-286.56 188.42,-281.58 183.27,-276.83"/>
</a>
</g>
</g>
<!-- Node9 -->
<g id="Node000009" class="node">
<title>Node9</title>
<g id="a_Node000009"><a xlink:href="update__menu__config_8hpp.html" target="_top" xlink:title=" ">
<polygon fill="white" stroke="#666666" points="606,-240 452.75,-240 452.75,-196 606,-196 606,-240"/>
<text xml:space="preserve" text-anchor="start" x="460.75" y="-226.5" font-family="Helvetica,sans-Serif" font-size="10.00">depicture_menu/src</text>
<text xml:space="preserve" text-anchor="start" x="460.75" y="-214.5" font-family="Helvetica,sans-Serif" font-size="10.00">/core/usecase/config</text>
<text xml:space="preserve" text-anchor="middle" x="529.37" y="-202.5" font-family="Helvetica,sans-Serif" font-size="10.00">_view/update_menu_config.hpp</text>
</a>
</g>
</g>
<!-- Node1&#45;&gt;Node9 -->
<g id="edge11_Node000001_Node000009" class="edge">
<title>Node1&#45;&gt;Node9</title>
<g id="a_edge11_Node000001_Node000009"><a xlink:title=" ">
<path fill="none" stroke="#63b8ff" d="M238.86,-289.48C302.21,-274.11 389.93,-252.83 452.36,-237.68"/>
<polygon fill="#63b8ff" stroke="#63b8ff" points="238.08,-286.06 229.19,-291.82 239.73,-292.86 238.08,-286.06"/>
</a>
</g>
</g>
<!-- Node4 -->
<g id="Node000004" class="node">
<title>Node4</title>
<g id="a_Node000004"><a xlink:href="config__view__arg__builder_8hpp.html" target="_top" xlink:title=" ">
<polygon fill="white" stroke="#666666" points="131.62,-148 15.12,-148 15.12,-92 131.62,-92 131.62,-148"/>
<text xml:space="preserve" text-anchor="start" x="23.12" y="-134.5" font-family="Helvetica,sans-Serif" font-size="10.00">depicture_menu/src</text>
<text xml:space="preserve" text-anchor="start" x="23.12" y="-122.5" font-family="Helvetica,sans-Serif" font-size="10.00">/core/application/cs</text>
<text xml:space="preserve" text-anchor="start" x="23.12" y="-110.5" font-family="Helvetica,sans-Serif" font-size="10.00">_binding_factory/config</text>
<text xml:space="preserve" text-anchor="middle" x="73.37" y="-98.5" font-family="Helvetica,sans-Serif" font-size="10.00">_view_arg_builder.hpp</text>
</a>
</g>
</g>
<!-- Node3&#45;&gt;Node4 -->
<g id="edge3_Node000003_Node000004" class="edge">
<title>Node3&#45;&gt;Node4</title>
<g id="a_edge3_Node000003_Node000004"><a xlink:title=" ">
<path fill="none" stroke="#63b8ff" d="M74.44,-172.27C74.27,-164.06 74.09,-155.72 73.94,-148.21"/>
<polygon fill="#63b8ff" stroke="#63b8ff" points="70.94,-172.26 74.65,-182.18 77.94,-172.11 70.94,-172.26"/>
</a>
</g>
</g>
<!-- Node4&#45;&gt;Node2 -->
<g id="edge4_Node000004_Node000002" class="edge">
<title>Node4&#45;&gt;Node2</title>
<g id="a_edge4_Node000004_Node000002"><a xlink:title=" ">
<path fill="none" stroke="#63b8ff" d="M87.33,-80.92C90.36,-72.66 93.51,-64.08 96.35,-56.32"/>
<polygon fill="#63b8ff" stroke="#63b8ff" points="84.13,-79.49 83.97,-90.09 90.7,-81.9 84.13,-79.49"/>
</a>
</g>
</g>
<!-- Node5 -->
<g id="Node000005" class="node">
<title>Node5</title>
<g id="a_Node000005"><a xlink:href="setup__core_8cpp.html" target="_top" xlink:title=" ">
<polygon fill="white" stroke="#666666" points="311.37,-56 199.37,-56 199.37,0 311.37,0 311.37,-56"/>
<text xml:space="preserve" text-anchor="start" x="207.37" y="-42.5" font-family="Helvetica,sans-Serif" font-size="10.00">depicture_menu/src</text>
<text xml:space="preserve" text-anchor="start" x="207.37" y="-30.5" font-family="Helvetica,sans-Serif" font-size="10.00">/core/dll_entry_point</text>
<text xml:space="preserve" text-anchor="start" x="207.37" y="-18.5" font-family="Helvetica,sans-Serif" font-size="10.00">/domain_control/setup</text>
<text xml:space="preserve" text-anchor="middle" x="255.37" y="-6.5" font-family="Helvetica,sans-Serif" font-size="10.00">_core.cpp</text>
</a>
</g>
</g>
<!-- Node4&#45;&gt;Node5 -->
<g id="edge5_Node000004_Node000005" class="edge">
<title>Node4&#45;&gt;Node5</title>
<g id="a_edge5_Node000004_Node000005"><a xlink:title=" ">
<path fill="none" stroke="#63b8ff" d="M139.18,-86.46C159.05,-76.63 180.67,-65.94 199.8,-56.48"/>
<polygon fill="#63b8ff" stroke="#63b8ff" points="137.74,-83.27 130.32,-90.84 140.84,-89.54 137.74,-83.27"/>
</a>
</g>
</g>
<!-- Node6&#45;&gt;Node4 -->
<g id="edge7_Node000006_Node000004" class="edge">
<title>Node6&#45;&gt;Node4</title>
<g id="a_edge7_Node000006_Node000004"><a xlink:title=" ">
<path fill="none" stroke="#63b8ff" d="M194.31,-190.11C171.56,-177.11 144.29,-161.53 121.42,-148.45"/>
<polygon fill="#63b8ff" stroke="#63b8ff" points="192.35,-193.02 202.77,-194.94 195.83,-186.94 192.35,-193.02"/>
</a>
</g>
</g>
<!-- Node7 -->
<g id="Node000007" class="node">
<title>Node7</title>
<g id="a_Node000007"><a xlink:href="config__view__dispatch_8cpp.html" target="_top" xlink:title=" ">
<polygon fill="white" stroke="#666666" points="511.12,-50 337.62,-50 337.62,-6 511.12,-6 511.12,-50"/>
<text xml:space="preserve" text-anchor="start" x="345.62" y="-36.5" font-family="Helvetica,sans-Serif" font-size="10.00">depicture_menu/src</text>
<text xml:space="preserve" text-anchor="start" x="345.62" y="-24.5" font-family="Helvetica,sans-Serif" font-size="10.00">/core/application/usecase</text>
<text xml:space="preserve" text-anchor="middle" x="424.37" y="-12.5" font-family="Helvetica,sans-Serif" font-size="10.00">_dispatch/config_view_dispatch.cpp</text>
</a>
</g>
</g>
<!-- Node6&#45;&gt;Node7 -->
<g id="edge8_Node000006_Node000007" class="edge">
<title>Node6&#45;&gt;Node7</title>
<g id="a_edge8_Node000006_Node000007"><a xlink:title=" ">
<path fill="none" stroke="#63b8ff" d="M205.89,-187.86C194.91,-176.68 184.18,-162.97 178.37,-148 169.37,-124.8 163.09,-111.64 178.37,-92 218.35,-40.62 257.31,-72.18 320.37,-56 327.33,-54.22 334.54,-52.36 341.79,-50.49"/>
<polygon fill="#63b8ff" stroke="#63b8ff" points="203.15,-190.08 212.78,-194.49 208,-185.03 203.15,-190.08"/>
</a>
</g>
</g>
<!-- Node8 -->
<g id="Node000008" class="node">
<title>Node8</title>
<g id="a_Node000008"><a xlink:href="stacked__views__presenter_8hpp.html" target="_top" xlink:title="view_stackに対するビュープレセンター">
<polygon fill="white" stroke="#666666" points="329,-148 187.75,-148 187.75,-92 329,-92 329,-148"/>
<text xml:space="preserve" text-anchor="start" x="195.75" y="-134.5" font-family="Helvetica,sans-Serif" font-size="10.00">depicture_menu/src</text>
<text xml:space="preserve" text-anchor="start" x="195.75" y="-122.5" font-family="Helvetica,sans-Serif" font-size="10.00">/core/presentation/change</text>
<text xml:space="preserve" text-anchor="start" x="195.75" y="-110.5" font-family="Helvetica,sans-Serif" font-size="10.00">_view_model/stacked_views</text>
<text xml:space="preserve" text-anchor="middle" x="258.37" y="-98.5" font-family="Helvetica,sans-Serif" font-size="10.00">_presenter.hpp</text>
</a>
</g>
</g>
<!-- Node6&#45;&gt;Node8 -->
<g id="edge9_Node000006_Node000008" class="edge">
<title>Node6&#45;&gt;Node8</title>
<g id="a_edge9_Node000006_Node000008"><a xlink:title=" ">
<path fill="none" stroke="#63b8ff" d="M247.12,-184.55C249.19,-172.82 251.52,-159.71 253.51,-148.45"/>
<polygon fill="#63b8ff" stroke="#63b8ff" points="243.71,-183.75 245.41,-194.2 250.6,-184.97 243.71,-183.75"/>
</a>
</g>
</g>
<!-- Node8&#45;&gt;Node7 -->
<g id="edge10_Node000008_Node000007" class="edge">
<title>Node8&#45;&gt;Node7</title>
<g id="a_edge10_Node000008_Node000007"><a xlink:title=" ">
<path fill="none" stroke="#63b8ff" d="M318.97,-86.14C340.91,-74.25 365.1,-61.14 384.77,-50.47"/>
<polygon fill="#63b8ff" stroke="#63b8ff" points="317.53,-82.94 310.41,-90.79 320.87,-89.1 317.53,-82.94"/>
</a>
</g>
</g>
<!-- Node9&#45;&gt;Node2 -->
<g id="edge12_Node000009_Node000002" class="edge">
<title>Node9&#45;&gt;Node2</title>
<g id="a_edge12_Node000009_Node000002"><a xlink:title=" ">
<path fill="none" stroke="#63b8ff" d="M450.75,-191.3C425.28,-180.54 398.03,-166.21 376.37,-148 353.35,-128.64 363.08,-109.15 338.37,-92 282.75,-53.41 255.53,-74.37 190.37,-56 182.12,-53.67 173.45,-51.07 164.95,-48.43"/>
<polygon fill="#63b8ff" stroke="#63b8ff" points="449.18,-194.44 459.76,-194.98 451.83,-187.96 449.18,-194.44"/>
</a>
</g>
</g>
<!-- Node9&#45;&gt;Node7 -->
<g id="edge13_Node000009_Node000007" class="edge">
<title>Node9&#45;&gt;Node7</title>
<g id="a_edge13_Node000009_Node000007"><a xlink:title=" ">
<path fill="none" stroke="#63b8ff" d="M552.72,-186.35C569.92,-159.71 587.32,-120.98 568.37,-92 559.04,-77.73 524.49,-62.37 491.57,-50.39"/>
<polygon fill="#63b8ff" stroke="#63b8ff" points="550.02,-184.08 547.3,-194.32 555.82,-188.01 550.02,-184.08"/>
</a>
</g>
</g>
<!-- Node10 -->
<g id="Node000010" class="node">
<title>Node10</title>
<g id="a_Node000010"><a xlink:href="menu__config__controler_8cpp.html" target="_top" xlink:title=" ">
<polygon fill="white" stroke="#666666" points="707.5,-50 533.25,-50 533.25,-6 707.5,-6 707.5,-50"/>
<text xml:space="preserve" text-anchor="start" x="541.25" y="-36.5" font-family="Helvetica,sans-Serif" font-size="10.00">depicture_menu/src</text>
<text xml:space="preserve" text-anchor="start" x="541.25" y="-24.5" font-family="Helvetica,sans-Serif" font-size="10.00">/core/control/config</text>
<text xml:space="preserve" text-anchor="middle" x="620.37" y="-12.5" font-family="Helvetica,sans-Serif" font-size="10.00">_window/menu_config_controler.cpp</text>
</a>
</g>
</g>
<!-- Node9&#45;&gt;Node10 -->
<g id="edge14_Node000009_Node000010" class="edge">
<title>Node9&#45;&gt;Node10</title>
<g id="a_edge14_Node000009_Node000010"><a xlink:title=" ">
<path fill="none" stroke="#63b8ff" d="M568.07,-188.42C580.61,-177.2 593.34,-163.33 601.37,-148 617.68,-116.86 620.77,-75.35 620.96,-50.48"/>
<polygon fill="#63b8ff" stroke="#63b8ff" points="565.97,-185.62 560.63,-194.77 570.51,-190.94 565.97,-185.62"/>
</a>
</g>
</g>
<!-- Node11 -->
<g id="Node000011" class="node">
<title>Node11</title>
<g id="a_Node000011"><a xlink:href="menu__config__controler_8hpp.html" target="_top" xlink:title=" ">
<polygon fill="white" stroke="#666666" points="559.5,-142 385.25,-142 385.25,-98 559.5,-98 559.5,-142"/>
<text xml:space="preserve" text-anchor="start" x="393.25" y="-128.5" font-family="Helvetica,sans-Serif" font-size="10.00">depicture_menu/src</text>
<text xml:space="preserve" text-anchor="start" x="393.25" y="-116.5" font-family="Helvetica,sans-Serif" font-size="10.00">/core/control/config</text>
<text xml:space="preserve" text-anchor="middle" x="472.37" y="-104.5" font-family="Helvetica,sans-Serif" font-size="10.00">_window/menu_config_controler.hpp</text>
</a>
</g>
</g>
<!-- Node9&#45;&gt;Node11 -->
<g id="edge15_Node000009_Node000011" class="edge">
<title>Node9&#45;&gt;Node11</title>
<g id="a_edge15_Node000009_Node000011"><a xlink:title=" ">
<path fill="none" stroke="#63b8ff" d="M510.85,-185.8C502.39,-171.55 492.58,-155.04 484.99,-142.25"/>
<polygon fill="#63b8ff" stroke="#63b8ff" points="507.83,-187.58 515.95,-194.39 513.85,-184.01 507.83,-187.58"/>
</a>
</g>
</g>
<!-- Node12 -->
<g id="Node000012" class="node">
<title>Node12</title>
<g id="a_Node000012"><a xlink:href="update__menu__config_8cpp.html" target="_top" xlink:title=" ">
<polygon fill="white" stroke="#666666" points="807,-142 653.75,-142 653.75,-98 807,-98 807,-142"/>
<text xml:space="preserve" text-anchor="start" x="661.75" y="-128.5" font-family="Helvetica,sans-Serif" font-size="10.00">depicture_menu/src</text>
<text xml:space="preserve" text-anchor="start" x="661.75" y="-116.5" font-family="Helvetica,sans-Serif" font-size="10.00">/core/usecase/config</text>
<text xml:space="preserve" text-anchor="middle" x="730.37" y="-104.5" font-family="Helvetica,sans-Serif" font-size="10.00">_view/update_menu_config.cpp</text>
</a>
</g>
</g>
<!-- Node9&#45;&gt;Node12 -->
<g id="edge20_Node000009_Node000012" class="edge">
<title>Node9&#45;&gt;Node12</title>
<g id="a_edge20_Node000009_Node000012"><a xlink:title=" ">
<path fill="none" stroke="#63b8ff" d="M584.27,-190.78C616.12,-175.57 655.72,-156.66 685.65,-142.36"/>
<polygon fill="#63b8ff" stroke="#63b8ff" points="583.11,-187.45 575.6,-194.92 586.13,-193.77 583.11,-187.45"/>
</a>
</g>
</g>
<!-- Node11&#45;&gt;Node2 -->
<g id="edge16_Node000011_Node000002" class="edge">
<title>Node11&#45;&gt;Node2</title>
<g id="a_edge16_Node000011_Node000002"><a xlink:title=" ">
<path fill="none" stroke="#63b8ff" d="M383.04,-94.79C379.1,-93.83 375.2,-92.89 371.37,-92 291.49,-73.4 269.77,-76.58 190.37,-56 182.07,-53.85 173.38,-51.34 164.87,-48.75"/>
<polygon fill="#63b8ff" stroke="#63b8ff" points="382.18,-98.18 392.73,-97.2 383.87,-91.39 382.18,-98.18"/>
</a>
</g>
</g>
<!-- Node11&#45;&gt;Node5 -->
<g id="edge19_Node000011_Node000005" class="edge">
<title>Node11&#45;&gt;Node5</title>
<g id="a_edge19_Node000011_Node000005"><a xlink:title=" ">
<path fill="none" stroke="#63b8ff" d="M410.38,-93.29C379.28,-80.39 341.89,-64.88 311.62,-52.33"/>
<polygon fill="#63b8ff" stroke="#63b8ff" points="408.69,-96.38 419.27,-96.98 411.38,-89.91 408.69,-96.38"/>
</a>
</g>
</g>
<!-- Node11&#45;&gt;Node7 -->
<g id="edge17_Node000011_Node000007" class="edge">
<title>Node11&#45;&gt;Node7</title>
<g id="a_edge17_Node000011_Node000007"><a xlink:title=" ">
<path fill="none" stroke="#63b8ff" d="M455.72,-87.78C449.16,-75.47 441.78,-61.64 435.83,-50.49"/>
<polygon fill="#63b8ff" stroke="#63b8ff" points="452.49,-89.16 460.28,-96.34 458.67,-85.87 452.49,-89.16"/>
</a>
</g>
</g>
<!-- Node11&#45;&gt;Node10 -->
<g id="edge18_Node000011_Node000010" class="edge">
<title>Node11&#45;&gt;Node10</title>
<g id="a_edge18_Node000011_Node000010"><a xlink:title=" ">
<path fill="none" stroke="#63b8ff" d="M517.13,-91.78C538.89,-78.55 564.68,-62.87 585.04,-50.49"/>
<polygon fill="#63b8ff" stroke="#63b8ff" points="515.46,-88.7 508.74,-96.88 519.1,-94.68 515.46,-88.7"/>
</a>
</g>
</g>
</g>
</svg>

<g id="navigator" transform="translate(0 0)" fill="#404254">
  <rect fill="#f2f5e9" fill-opacity="0.5" stroke="#606060" stroke-width=".5" x="0" y="0" width="60" height="60"/>
  <use id="zoomplus" xlink:href="#zoomPlus" x="17" y="9" onmousedown="handleZoom(evt,'in')"/>
  <use id="zoomminus" xlink:href="#zoomMin" x="42" y="9" onmousedown="handleZoom(evt,'out')"/>
  <use id="reset" xlink:href="#resetDef" x="30" y="36" onmousedown="handleReset()"/>
   <use id="arrowup" xlink:href="#arrowUp" x="0" y="0" onmousedown="handlePan(0,-1)"/>
  <use id="arrowright" xlink:href="#arrowRight" x="0" y="0" onmousedown="handlePan(1,0)"/>
  <use id="arrowdown" xlink:href="#arrowDown" x="0" y="0" onmousedown="handlePan(0,1)"/>
  <use id="arrowleft" xlink:href="#arrowLeft" x="0" y="0" onmousedown="handlePan(-1,0)"/>
</g>
<svg viewBox="0 0 15 15" width="100%" height="30px" preserveAspectRatio="xMaxYMin meet">
 <g id="arrow_out" transform="scale(0.3 0.3)">
  <a xlink:href="menu__update_8hpp__dep__incl_org.svg" target="_base">
   <rect id="button" ry="5" rx="5" y="6" x="6" height="38" width="38"
        fill="#f2f5e9" fill-opacity="0.5" stroke="#606060" stroke-width="1.0"/>
   <path id="arrow"
     d="M 11.500037,31.436501 C 11.940474,20.09759 22.043105,11.32322 32.158766,21.979434 L 37.068811,17.246167 C 37.068811,17.246167 37.088388,32 37.088388,32 L 22.160133,31.978069 C 22.160133,31.978069 26.997745,27.140456 26.997745,27.140456 C 18.528582,18.264221 13.291696,25.230495 11.500037,31.436501 z"
     style="fill:#404040;"/>
  </a>
 </g>
</svg>

<style type='text/css'>
<![CDATA[
[data-mouse-over-selected='false'] { opacity: 0.7; }
[data-mouse-over-selected='true']  { opacity: 1.0; }
]]>
</style>
<script type="application/ecmascript"><![CDATA[
document.addEventListener('DOMContentLoaded', (event) => {
  highlightEdges();
  highlightAdjacentNodes();
});
]]></script>
</svg>
