<?xml version="1.0" encoding="UTF-8" standalone="no"?>
<!DOCTYPE svg PUBLIC "-//W3C//DTD SVG 1.1//EN"
 "http://www.w3.org/Graphics/SVG/1.1/DTD/svg11.dtd">
<!-- Generated by graphviz version 14.1.2 (20260124.0452)
 -->
<!-- Title: depicture_menu/src/win32/message_receive_window.hpp Pages: 1 -->
<svg width="616pt" height="144pt"
 viewBox="0.00 0.00 616.00 144.00" xmlns="http://www.w3.org/2000/svg" xmlns:xlink="http://www.w3.org/1999/xlink">
<g id="graph0" class="graph" transform="scale(1 1) rotate(0) translate(4 140)">
<title>depicture_menu/src/win32/message_receive_window.hpp</title>
<!-- Node1 -->
<g id="Node000001" class="node">
<title>Node1</title>
<g id="a_Node000001"><a xlink:title=" ">
<polygon fill="#999999" stroke="#666666" points="343,-136 219,-136 219,-92 343,-92 343,-136"/>
<text xml:space="preserve" text-anchor="start" x="227" y="-122.5" font-family="Helvetica,sans-Serif" font-size="10.00">depicture_menu/src</text>
<text xml:space="preserve" text-anchor="start" x="227" y="-110.5" font-family="Helvetica,sans-Serif" font-size="10.00">/win32/message_receive</text>
<text xml:space="preserve" text-anchor="middle" x="281" y="-98.5" font-family="Helvetica,sans-Serif" font-size="10.00">_window.hpp</text>
</a>
</g>
</g>
<!-- Node2 -->
<g id="Node000002" class="node">
<title>Node2</title>
<g id="a_Node000002"><a xlink:href="setup__core_8cpp.html" target="_top" xlink:title=" ">
<polygon fill="white" stroke="#666666" points="112,-56 0,-56 0,0 112,0 112,-56"/>
<text xml:space="preserve" text-anchor="start" x="8" y="-42.5" font-family="Helvetica,sans-Serif" font-size="10.00">depicture_menu/src</text>
<text xml:space="preserve" text-anchor="start" x="8" y="-30.5" font-family="Helvetica,sans-Serif" font-size="10.00">/core/dll_entry_point</text>
<text xml:space="preserve" text-anchor="start" x="8" y="-18.5" font-family="Helvetica,sans-Serif" font-size="10.00">/domain_control/setup</text>
<text xml:space="preserve" text-anchor="middle" x="56" y="-6.5" font-family="Helvetica,sans-Serif" font-size="10.00">_core.cpp</text>
</a>
</g>
</g>
<!-- Node1&#45;&gt;Node2 -->
<g id="edge1_Node000001_Node000002" class="edge">
<title>Node1&#45;&gt;Node2</title>
<g id="a_edge1_Node000001_Node000002"><a xlink:title=" ">
<path fill="none" stroke="#63b8ff" d="M208.11,-87.92C180.68,-78.25 149.3,-66.91 121,-56 118.15,-54.9 115.24,-53.76 112.3,-52.59"/>
<polygon fill="#63b8ff" stroke="#63b8ff" points="206.78,-91.16 217.37,-91.18 209.1,-84.56 206.78,-91.16"/>
</a>
</g>
</g>
<!-- Node3 -->
<g id="Node000003" class="node">
<title>Node3</title>
<g id="a_Node000003"><a xlink:href="message__receive__window_8cpp.html" target="_top" xlink:title=" ">
<polygon fill="white" stroke="#666666" points="254,-50 130,-50 130,-6 254,-6 254,-50"/>
<text xml:space="preserve" text-anchor="start" x="138" y="-36.5" font-family="Helvetica,sans-Serif" font-size="10.00">depicture_menu/src</text>
<text xml:space="preserve" text-anchor="start" x="138" y="-24.5" font-family="Helvetica,sans-Serif" font-size="10.00">/win32/message_receive</text>
<text xml:space="preserve" text-anchor="middle" x="192" y="-12.5" font-family="Helvetica,sans-Serif" font-size="10.00">_window.cpp</text>
</a>
</g>
</g>
<!-- Node1&#45;&gt;Node3 -->
<g id="edge2_Node000001_Node000003" class="edge">
<title>Node1&#45;&gt;Node3</title>
<g id="a_edge2_Node000001_Node000003"><a xlink:title=" ">
<path fill="none" stroke="#63b8ff" d="M250.34,-84.06C238.67,-73.04 225.58,-60.69 214.76,-50.48"/>
<polygon fill="#63b8ff" stroke="#63b8ff" points="247.77,-86.45 257.44,-90.76 252.57,-81.36 247.77,-86.45"/>
</a>
</g>
</g>
<!-- Node4 -->
<g id="Node000004" class="node">
<title>Node4</title>
<g id="a_Node000004"><a xlink:href="_test_message_receive_window_8cpp.html" target="_top" xlink:title=" ">
<polygon fill="white" stroke="#666666" points="467.62,-44 272.38,-44 272.38,-12 467.62,-12 467.62,-44"/>
<text xml:space="preserve" text-anchor="start" x="280.38" y="-30.5" font-family="Helvetica,sans-Serif" font-size="10.00">depicture_menu/test</text>
<text xml:space="preserve" text-anchor="middle" x="370" y="-18.5" font-family="Helvetica,sans-Serif" font-size="10.00">/win32/TestMessageReceiveWindow.cpp</text>
</a>
</g>
</g>
<!-- Node1&#45;&gt;Node4 -->
<g id="edge3_Node000001_Node000004" class="edge">
<title>Node1&#45;&gt;Node4</title>
<g id="a_edge3_Node000001_Node000004"><a xlink:title=" ">
<path fill="none" stroke="#63b8ff" d="M311.51,-84.21C325.67,-70.84 341.95,-55.48 353.73,-44.36"/>
<polygon fill="#63b8ff" stroke="#63b8ff" points="309.43,-81.36 304.56,-90.76 314.23,-86.45 309.43,-81.36"/>
</a>
</g>
</g>
<!-- Node5 -->
<g id="Node000005" class="node">
<title>Node5</title>
<g id="a_Node000005"><a xlink:href="win32__message__sender__test__helper_8cpp.html" target="_top" xlink:title=" ">
<polygon fill="white" stroke="#666666" points="608.25,-50 485.75,-50 485.75,-6 608.25,-6 608.25,-50"/>
<text xml:space="preserve" text-anchor="start" x="493.75" y="-36.5" font-family="Helvetica,sans-Serif" font-size="10.00">depicture_menu/test</text>
<text xml:space="preserve" text-anchor="start" x="493.75" y="-24.5" font-family="Helvetica,sans-Serif" font-size="10.00">/win32/win32_message</text>
<text xml:space="preserve" text-anchor="middle" x="547" y="-12.5" font-family="Helvetica,sans-Serif" font-size="10.00">_sender_test_helper.cpp</text>
</a>
</g>
</g>
<!-- Node1&#45;&gt;Node5 -->
<g id="edge4_Node000001_Node000005" class="edge">
<title>Node1&#45;&gt;Node5</title>
<g id="a_edge4_Node000001_Node000005"><a xlink:title=" ">
<path fill="none" stroke="#63b8ff" d="M353.93,-93.38C391.02,-83.01 436.66,-69.62 477,-56 482.18,-54.25 487.55,-52.35 492.9,-50.39"/>
<polygon fill="#63b8ff" stroke="#63b8ff" points="353.37,-89.91 344.67,-95.96 355.24,-96.65 353.37,-89.91"/>
</a>
</g>
</g>
</g>
</svg>
