<?xml version="1.0" encoding="UTF-8" standalone="no"?>
<!DOCTYPE svg PUBLIC "-//W3C//DTD SVG 1.1//EN"
 "http://www.w3.org/Graphics/SVG/1.1/DTD/svg11.dtd">
<!-- Generated by graphviz version 14.1.2 (20260124.0452)
 -->
<!-- Title: depicture_menu/src/core/domain/model/presistence.hpp Pages: 1 -->
<svg width="1145pt" height="164pt"
 viewBox="0.00 0.00 1145.00 164.00" xmlns="http://www.w3.org/2000/svg" xmlns:xlink="http://www.w3.org/1999/xlink">
<g id="graph0" class="graph" transform="scale(1 1) rotate(0) translate(4 160)">
<title>depicture_menu/src/core/domain/model/presistence.hpp</title>
<!-- Node1 -->
<g id="Node000001" class="node">
<title>Node1</title>
<g id="a_Node000001"><a xlink:title=" ">
<polygon fill="#999999" stroke="#666666" points="707.12,-156 533.62,-156 533.62,-124 707.12,-124 707.12,-156"/>
<text xml:space="preserve" text-anchor="start" x="541.62" y="-142.5" font-family="Helvetica,sans-Serif" font-size="10.00">depicture_menu/src</text>
<text xml:space="preserve" text-anchor="middle" x="620.38" y="-130.5" font-family="Helvetica,sans-Serif" font-size="10.00">/core/domain/model/presistence.hpp</text>
</a>
</g>
</g>
<!-- Node2 -->
<g id="Node000002" class="node">
<title>Node2</title>
<g id="a_Node000002"><a xlink:href="model__base__concepts_8hpp.html" target="_top" xlink:title=" ">
<polygon fill="white" stroke="#666666" points="202.5,-82 70.25,-82 70.25,-62 202.5,-62 202.5,-82"/>
<text xml:space="preserve" text-anchor="middle" x="136.38" y="-68.5" font-family="Helvetica,sans-Serif" font-size="10.00">model_base_concepts.hpp</text>
</a>
</g>
</g>
<!-- Node1&#45;&gt;Node2 -->
<g id="edge1_Node000001_Node000002" class="edge">
<title>Node1&#45;&gt;Node2</title>
<g id="a_edge1_Node000001_Node000002"><a xlink:title=" ">
<path fill="none" stroke="#63b8ff" d="M533.14,-130C450.16,-120.99 321.92,-105.92 211.38,-88 204.99,-86.97 198.33,-85.78 191.71,-84.54"/>
<polygon fill="#63b8ff" stroke="#63b8ff" points="192.66,-81.16 182.18,-82.71 191.34,-88.04 192.66,-81.16"/>
</a>
</g>
</g>
<!-- Node3 -->
<g id="Node000003" class="node">
<title>Node3</title>
<g id="a_Node000003"><a xlink:title=" ">
<polygon fill="#e0e0e0" stroke="#999999" points="94.75,-20 0,-20 0,0 94.75,0 94.75,-20"/>
<text xml:space="preserve" text-anchor="middle" x="47.38" y="-6.5" font-family="Helvetica,sans-Serif" font-size="10.00">boost/pfr/core.hpp</text>
</a>
</g>
</g>
<!-- Node1&#45;&gt;Node3 -->
<g id="edge8_Node000001_Node000003" class="edge">
<title>Node1&#45;&gt;Node3</title>
<g id="a_edge8_Node000001_Node000003"><a xlink:title=" ">
<path fill="none" stroke="#63b8ff" d="M533.41,-136.76C384.99,-132.12 95.42,-119.14 61.38,-88 46.05,-73.98 44.03,-49.24 44.9,-31.59"/>
<polygon fill="#63b8ff" stroke="#63b8ff" points="48.38,-32.01 45.76,-21.75 41.4,-31.41 48.38,-32.01"/>
</a>
</g>
</g>
<!-- Node5 -->
<g id="Node000005" class="node">
<title>Node5</title>
<g id="a_Node000005"><a xlink:href="str__conv_8hpp.html" target="_top" xlink:title=" ">
<polygon fill="white" stroke="#666666" points="318.25,-82 220.5,-82 220.5,-62 318.25,-62 318.25,-82"/>
<text xml:space="preserve" text-anchor="middle" x="269.38" y="-68.5" font-family="Helvetica,sans-Serif" font-size="10.00">utility/str_conv.hpp</text>
</a>
</g>
</g>
<!-- Node1&#45;&gt;Node5 -->
<g id="edge4_Node000001_Node000005" class="edge">
<title>Node1&#45;&gt;Node5</title>
<g id="a_edge4_Node000001_Node000005"><a xlink:title=" ">
<path fill="none" stroke="#63b8ff" d="M533.16,-125.71C474.7,-116.34 396.14,-102.85 327.38,-88 323.32,-87.13 319.13,-86.16 314.93,-85.15"/>
<polygon fill="#63b8ff" stroke="#63b8ff" points="315.94,-81.8 305.39,-82.79 314.26,-88.59 315.94,-81.8"/>
</a>
</g>
</g>
<!-- Node8 -->
<g id="Node000008" class="node">
<title>Node8</title>
<g id="a_Node000008"><a xlink:title=" ">
<polygon fill="#e0e0e0" stroke="#999999" points="442,-88 336.75,-88 336.75,-56 442,-56 442,-88"/>
<text xml:space="preserve" text-anchor="start" x="344.75" y="-74.5" font-family="Helvetica,sans-Serif" font-size="10.00">boost/archive/basic</text>
<text xml:space="preserve" text-anchor="middle" x="389.38" y="-62.5" font-family="Helvetica,sans-Serif" font-size="10.00">_binary_iarchive.hpp</text>
</a>
</g>
</g>
<!-- Node1&#45;&gt;Node8 -->
<g id="edge7_Node000001_Node000008" class="edge">
<title>Node1&#45;&gt;Node8</title>
<g id="a_edge7_Node000001_Node000008"><a xlink:title=" ">
<path fill="none" stroke="#63b8ff" d="M566.22,-123.53C532.38,-113.86 488.64,-101.36 453.13,-91.22"/>
<polygon fill="#63b8ff" stroke="#63b8ff" points="454.43,-87.95 443.85,-88.57 452.51,-94.68 454.43,-87.95"/>
</a>
</g>
</g>
<!-- Node9 -->
<g id="Node000009" class="node">
<title>Node9</title>
<g id="a_Node000009"><a xlink:title=" ">
<polygon fill="#e0e0e0" stroke="#999999" points="554.75,-88 460,-88 460,-56 554.75,-56 554.75,-88"/>
<text xml:space="preserve" text-anchor="start" x="468" y="-74.5" font-family="Helvetica,sans-Serif" font-size="10.00">boost/serialization</text>
<text xml:space="preserve" text-anchor="middle" x="507.38" y="-62.5" font-family="Helvetica,sans-Serif" font-size="10.00">/access.hpp</text>
</a>
</g>
</g>
<!-- Node1&#45;&gt;Node9 -->
<g id="edge9_Node000001_Node000009" class="edge">
<title>Node1&#45;&gt;Node9</title>
<g id="a_edge9_Node000001_Node000009"><a xlink:title=" ">
<path fill="none" stroke="#63b8ff" d="M593.88,-123.53C578.86,-114.75 559.86,-103.66 543.49,-94.1"/>
<polygon fill="#63b8ff" stroke="#63b8ff" points="545.41,-91.16 535.01,-89.14 541.88,-97.21 545.41,-91.16"/>
</a>
</g>
</g>
<!-- Node10 -->
<g id="Node000010" class="node">
<title>Node10</title>
<g id="a_Node000010"><a xlink:title=" ">
<polygon fill="#e0e0e0" stroke="#999999" points="667.75,-88 573,-88 573,-56 667.75,-56 667.75,-88"/>
<text xml:space="preserve" text-anchor="start" x="581" y="-74.5" font-family="Helvetica,sans-Serif" font-size="10.00">boost/serialization</text>
<text xml:space="preserve" text-anchor="middle" x="620.38" y="-62.5" font-family="Helvetica,sans-Serif" font-size="10.00">/optional.hpp</text>
</a>
</g>
</g>
<!-- Node1&#45;&gt;Node10 -->
<g id="edge10_Node000001_Node000010" class="edge">
<title>Node1&#45;&gt;Node10</title>
<g id="a_edge10_Node000001_Node000010"><a xlink:title=" ">
<path fill="none" stroke="#63b8ff" d="M620.38,-123.69C620.38,-116.53 620.38,-107.79 620.38,-99.59"/>
<polygon fill="#63b8ff" stroke="#63b8ff" points="623.88,-99.74 620.38,-89.74 616.88,-99.74 623.88,-99.74"/>
</a>
</g>
</g>
<!-- Node11 -->
<g id="Node000011" class="node">
<title>Node11</title>
<g id="a_Node000011"><a xlink:title=" ">
<polygon fill="#e0e0e0" stroke="#999999" points="790.62,-88 686.12,-88 686.12,-56 790.62,-56 790.62,-88"/>
<text xml:space="preserve" text-anchor="start" x="694.12" y="-74.5" font-family="Helvetica,sans-Serif" font-size="10.00">boost/serialization</text>
<text xml:space="preserve" text-anchor="middle" x="738.38" y="-62.5" font-family="Helvetica,sans-Serif" font-size="10.00">/unordered_map.hpp</text>
</a>
</g>
</g>
<!-- Node1&#45;&gt;Node11 -->
<g id="edge11_Node000001_Node000011" class="edge">
<title>Node1&#45;&gt;Node11</title>
<g id="a_edge11_Node000001_Node000011"><a xlink:title=" ">
<path fill="none" stroke="#63b8ff" d="M648.04,-123.53C663.87,-114.67 683.94,-103.45 701.14,-93.83"/>
<polygon fill="#63b8ff" stroke="#63b8ff" points="702.54,-97.05 709.56,-89.12 699.13,-90.94 702.54,-97.05"/>
</a>
</g>
</g>
<!-- Node12 -->
<g id="Node000012" class="node">
<title>Node12</title>
<g id="a_Node000012"><a xlink:title=" ">
<polygon fill="#e0e0e0" stroke="#999999" points="908,-88 808.75,-88 808.75,-56 908,-56 908,-88"/>
<text xml:space="preserve" text-anchor="start" x="816.75" y="-74.5" font-family="Helvetica,sans-Serif" font-size="10.00">boost/serialization</text>
<text xml:space="preserve" text-anchor="middle" x="858.38" y="-62.5" font-family="Helvetica,sans-Serif" font-size="10.00">/unordered_set.hpp</text>
</a>
</g>
</g>
<!-- Node1&#45;&gt;Node12 -->
<g id="edge12_Node000001_Node000012" class="edge">
<title>Node1&#45;&gt;Node12</title>
<g id="a_edge12_Node000001_Node000012"><a xlink:title=" ">
<path fill="none" stroke="#63b8ff" d="M676.18,-123.53C712.69,-113.4 760.39,-100.17 797.82,-89.79"/>
<polygon fill="#63b8ff" stroke="#63b8ff" points="798.43,-93.26 807.13,-87.21 796.56,-86.51 798.43,-93.26"/>
</a>
</g>
</g>
<!-- Node13 -->
<g id="Node000013" class="node">
<title>Node13</title>
<g id="a_Node000013"><a xlink:title=" ">
<polygon fill="#e0e0e0" stroke="#999999" points="1020.75,-88 926,-88 926,-56 1020.75,-56 1020.75,-88"/>
<text xml:space="preserve" text-anchor="start" x="934" y="-74.5" font-family="Helvetica,sans-Serif" font-size="10.00">boost/serialization</text>
<text xml:space="preserve" text-anchor="middle" x="973.38" y="-62.5" font-family="Helvetica,sans-Serif" font-size="10.00">/vector.hpp</text>
</a>
</g>
</g>
<!-- Node1&#45;&gt;Node13 -->
<g id="edge13_Node000001_Node000013" class="edge">
<title>Node1&#45;&gt;Node13</title>
<g id="a_edge13_Node000001_Node000013"><a xlink:title=" ">
<path fill="none" stroke="#63b8ff" d="M707.53,-126.19C764.15,-117.36 839.75,-104.64 914.73,-88.47"/>
<polygon fill="#63b8ff" stroke="#63b8ff" points="915.29,-91.94 924.31,-86.39 913.79,-85.1 915.29,-91.94"/>
</a>
</g>
</g>
<!-- Node14 -->
<g id="Node000014" class="node">
<title>Node14</title>
<g id="a_Node000014"><a xlink:title=" ">
<polygon fill="#e0e0e0" stroke="#999999" points="1082.25,-82 1038.5,-82 1038.5,-62 1082.25,-62 1082.25,-82"/>
<text xml:space="preserve" text-anchor="middle" x="1060.38" y="-68.5" font-family="Helvetica,sans-Serif" font-size="10.00">format</text>
</a>
</g>
</g>
<!-- Node1&#45;&gt;Node14 -->
<g id="edge14_Node000001_Node000014" class="edge">
<title>Node1&#45;&gt;Node14</title>
<g id="a_edge14_Node000001_Node000014"><a xlink:title=" ">
<path fill="none" stroke="#63b8ff" d="M707.43,-136.35C791.39,-131.88 921.29,-119.94 1029.38,-88 1030.55,-87.65 1031.74,-87.26 1032.92,-86.84"/>
<polygon fill="#63b8ff" stroke="#63b8ff" points="1034.14,-90.13 1042,-83.03 1031.43,-83.68 1034.14,-90.13"/>
</a>
</g>
</g>
<!-- Node15 -->
<g id="Node000015" class="node">
<title>Node15</title>
<g id="a_Node000015"><a xlink:title=" ">
<polygon fill="#e0e0e0" stroke="#999999" points="1136.88,-82 1099.88,-82 1099.88,-62 1136.88,-62 1136.88,-82"/>
<text xml:space="preserve" text-anchor="middle" x="1118.38" y="-68.5" font-family="Helvetica,sans-Serif" font-size="10.00">tuple</text>
</a>
</g>
</g>
<!-- Node1&#45;&gt;Node15 -->
<g id="edge15_Node000001_Node000015" class="edge">
<title>Node1&#45;&gt;Node15</title>
<g id="a_edge15_Node000001_Node000015"><a xlink:title=" ">
<path fill="none" stroke="#63b8ff" d="M707.43,-133.72C823.4,-125.98 1022,-110.03 1091.38,-88 1092.18,-87.74 1092.99,-87.46 1093.8,-87.16"/>
<polygon fill="#63b8ff" stroke="#63b8ff" points="1095.07,-90.43 1102.63,-83.01 1092.09,-84.09 1095.07,-90.43"/>
</a>
</g>
</g>
<!-- Node2&#45;&gt;Node3 -->
<g id="edge2_Node000002_Node000003" class="edge">
<title>Node2&#45;&gt;Node3</title>
<g id="a_edge2_Node000002_Node000003"><a xlink:title=" ">
<path fill="none" stroke="#63b8ff" d="M122.47,-61.62C108.62,-52.29 87.12,-37.79 70.66,-26.7"/>
<polygon fill="#63b8ff" stroke="#63b8ff" points="72.69,-23.84 62.44,-21.16 68.77,-29.65 72.69,-23.84"/>
</a>
</g>
</g>
<!-- Node4 -->
<g id="Node000004" class="node">
<title>Node4</title>
<g id="a_Node000004"><a xlink:title=" ">
<polygon fill="#e0e0e0" stroke="#999999" points="156,-20 116.75,-20 116.75,0 156,0 156,-20"/>
<text xml:space="preserve" text-anchor="middle" x="136.38" y="-6.5" font-family="Helvetica,sans-Serif" font-size="10.00">utility</text>
</a>
</g>
</g>
<!-- Node2&#45;&gt;Node4 -->
<g id="edge3_Node000002_Node000004" class="edge">
<title>Node2&#45;&gt;Node4</title>
<g id="a_edge3_Node000002_Node000004"><a xlink:title=" ">
<path fill="none" stroke="#63b8ff" d="M136.38,-61.62C136.38,-53.56 136.38,-41.65 136.38,-31.41"/>
<polygon fill="#63b8ff" stroke="#63b8ff" points="139.88,-31.63 136.38,-21.63 132.88,-31.63 139.88,-31.63"/>
</a>
</g>
</g>
<!-- Node6 -->
<g id="Node000006" class="node">
<title>Node6</title>
<g id="a_Node000006"><a xlink:title=" ">
<polygon fill="#e0e0e0" stroke="#999999" points="253.38,-20 213.38,-20 213.38,0 253.38,0 253.38,-20"/>
<text xml:space="preserve" text-anchor="middle" x="233.38" y="-6.5" font-family="Helvetica,sans-Serif" font-size="10.00">string</text>
</a>
</g>
</g>
<!-- Node5&#45;&gt;Node6 -->
<g id="edge5_Node000005_Node000006" class="edge">
<title>Node5&#45;&gt;Node6</title>
<g id="a_edge5_Node000005_Node000006"><a xlink:title=" ">
<path fill="none" stroke="#63b8ff" d="M263.75,-61.62C258.65,-53.12 250.97,-40.33 244.62,-29.74"/>
<polygon fill="#63b8ff" stroke="#63b8ff" points="247.77,-28.18 239.62,-21.41 241.77,-31.79 247.77,-28.18"/>
</a>
</g>
</g>
<!-- Node7 -->
<g id="Node000007" class="node">
<title>Node7</title>
<g id="a_Node000007"><a xlink:title=" ">
<polygon fill="#e0e0e0" stroke="#999999" points="337.12,-20 271.62,-20 271.62,0 337.12,0 337.12,-20"/>
<text xml:space="preserve" text-anchor="middle" x="304.38" y="-6.5" font-family="Helvetica,sans-Serif" font-size="10.00">string_view</text>
</a>
</g>
</g>
<!-- Node5&#45;&gt;Node7 -->
<g id="edge6_Node000005_Node000007" class="edge">
<title>Node5&#45;&gt;Node7</title>
<g id="a_edge6_Node000005_Node000007"><a xlink:title=" ">
<path fill="none" stroke="#63b8ff" d="M274.84,-61.62C279.8,-53.12 287.26,-40.33 293.44,-29.74"/>
<polygon fill="#63b8ff" stroke="#63b8ff" points="296.28,-31.82 298.3,-21.42 290.23,-28.29 296.28,-31.82"/>
</a>
</g>
</g>
</g>
</svg>
