<?xml version="1.0" encoding="UTF-8" standalone="no"?>
<!DOCTYPE svg PUBLIC "-//W3C//DTD SVG 1.1//EN"
 "http://www.w3.org/Graphics/SVG/1.1/DTD/svg11.dtd">
<!-- Generated by graphviz version 14.1.2 (20260124.0452)
 -->
<!-- Title: depicture_menu::usecase::convert_to_dto Pages: 1 -->
<!--zoomable 981 -->

<svg id="main" version="1.1" xmlns="http://www.w3.org/2000/svg" xmlns:xlink="http://www.w3.org/1999/xlink" xml:space="preserve" onload="init(evt)">

<style type="text/css"><![CDATA[
.node, .edge {opacity: 0.7;}
.node.selected, .edge.selected {opacity: 1;}
.edge:hover path { stroke: red; }
.edge:hover polygon { stroke: red; fill: red; }
]]></style>

<defs>
  <circle id="rim" cx="0" cy="0" r="7"/>
  <circle id="rim2" cx="0" cy="0" r="3.5"/>
  <g id="zoomPlus">
    <use xlink:href="#rim" fill="#404040"><set attributeName="fill" to="#808080" begin="zoomplus.mouseover" end="zoomplus.mouseout"/></use>
    <path d="M-4,0h8M0,-4v8" fill="none" stroke="white" stroke-width="1.5" pointer-events="none"/>
  </g>
  <g id="zoomMin">
    <use xlink:href="#rim" fill="#404040"><set attributeName="fill" to="#808080" begin="zoomminus.mouseover" end="zoomminus.mouseout"/></use>
    <path d="M-4,0h8" fill="none" stroke="white" stroke-width="1.5" pointer-events="none"/>
  </g>
  <g id="arrowUp" transform="translate(30 24)">
    <use xlink:href="#rim"/>
    <path pointer-events="none" fill="none" stroke="white" stroke-width="1.5" d="M0,-3.0v7 M-2.5,-0.5L0,-3.0L2.5,-0.5"/>
  </g>
  <g id="arrowRight" transform="rotate(90) translate(36 -43)">
    <use xlink:href="#rim"/>
    <path pointer-events="none" fill="none" stroke="white" stroke-width="1.5" d="M0,-3.0v7 M-2.5,-0.5L0,-3.0L2.5,-0.5"/>
  </g>
  <g id="arrowDown" transform="rotate(180) translate(-30 -48)">
    <use xlink:href="#rim"/>
    <path pointer-events="none" fill="none" stroke="white" stroke-width="1.5" d="M0,-3.0v7 M-2.5,-0.5L0,-3.0L2.5,-0.5"/>
  </g>
  <g id="arrowLeft" transform="rotate(270) translate(-36 17)">
    <use xlink:href="#rim"/>
    <path pointer-events="none" fill="none" stroke="white" stroke-width="1.5" d="M0,-3.0v7 M-2.5,-0.5L0,-3.0L2.5,-0.5"/>
  </g>
  <g id="resetDef">
    <use xlink:href="#rim2" fill="#404040"><set attributeName="fill" to="#808080" begin="reset.mouseover" end="reset.mouseout"/></use>
  </g>
</defs>
<script type="application/ecmascript">
var viewWidth = 654;
var viewHeight = 981;
var sectionId = 'dynsection-0';
</script>
<script type="application/ecmascript" xlink:href="svg.min.js"/>
<svg id="graph" class="graph">
<g id="viewport">
<title>depicture_menu::usecase::convert_to_dto</title>
<!-- Node1 -->
<g id="Node000001" class="node">
<title>Node1</title>
<g id="a_Node000001"><a xlink:title=" ">
<polygon fill="#999999" stroke="#666666" points="127.75,-487 0,-487 0,-455 127.75,-455 127.75,-487"/>
<text xml:space="preserve" text-anchor="start" x="8" y="-473.5" font-family="Helvetica,sans-Serif" font-size="10.00">depicture_menu::usecase</text>
<text xml:space="preserve" text-anchor="middle" x="63.88" y="-461.5" font-family="Helvetica,sans-Serif" font-size="10.00">::convert_to_dto</text>
</a>
</g>
</g>
<!-- Node2 -->
<g id="Node000002" class="node">
<title>Node2</title>
<g id="a_Node000002"><a xlink:href="structdepicture__menu_1_1domain_1_1menu_1_1radialmenu__item.html#a401fbb41b8231960bb8443168ddb56a5" target="_top" xlink:title=" ">
<polygon fill="white" stroke="#666666" points="290,-958 166.75,-958 166.75,-914 290,-914 290,-958"/>
<text xml:space="preserve" text-anchor="start" x="174.75" y="-944.5" font-family="Helvetica,sans-Serif" font-size="10.00">depicture_menu::domain</text>
<text xml:space="preserve" text-anchor="start" x="174.75" y="-932.5" font-family="Helvetica,sans-Serif" font-size="10.00">::menu::radialmenu_item</text>
<text xml:space="preserve" text-anchor="middle" x="228.38" y="-920.5" font-family="Helvetica,sans-Serif" font-size="10.00">::current_action_id</text>
</a>
</g>
</g>
<!-- Node1&#45;&gt;Node2 -->
<g id="edge1_Node000001_Node000002" class="edge">
<title>Node1&#45;&gt;Node2</title>
<g id="a_edge1_Node000001_Node000002"><a xlink:title=" ">
<path fill="none" stroke="#63b8ff" d="M65.68,-487.15C69.14,-543.99 86.33,-738.61 163.75,-874 170.44,-885.7 179.98,-896.64 189.64,-905.97"/>
<polygon fill="#63b8ff" stroke="#63b8ff" points="187.25,-908.53 196.98,-912.71 191.98,-903.37 187.25,-908.53"/>
</a>
</g>
</g>
<!-- Node5 -->
<g id="Node000005" class="node">
<title>Node5</title>
<g id="a_Node000005"><a xlink:href="structdepicture__menu_1_1domain_1_1menu_1_1radialmenu__item.html#aadf2f8ebe06021b018c6c67e3dfa3682" target="_top" xlink:title=" ">
<polygon fill="white" stroke="#666666" points="290,-865 166.75,-865 166.75,-821 290,-821 290,-865"/>
<text xml:space="preserve" text-anchor="start" x="174.75" y="-851.5" font-family="Helvetica,sans-Serif" font-size="10.00">depicture_menu::domain</text>
<text xml:space="preserve" text-anchor="start" x="174.75" y="-839.5" font-family="Helvetica,sans-Serif" font-size="10.00">::menu::radialmenu_item</text>
<text xml:space="preserve" text-anchor="middle" x="228.38" y="-827.5" font-family="Helvetica,sans-Serif" font-size="10.00">::current_action_kind</text>
</a>
</g>
</g>
<!-- Node1&#45;&gt;Node5 -->
<g id="edge4_Node000001_Node000005" class="edge">
<title>Node1&#45;&gt;Node5</title>
<g id="a_edge4_Node000001_Node000005"><a xlink:title=" ">
<path fill="none" stroke="#63b8ff" d="M65.13,-487.38C66.78,-540.6 78.79,-711.09 163.75,-812 164,-812.3 164.26,-812.6 164.52,-812.89"/>
<polygon fill="#63b8ff" stroke="#63b8ff" points="162.08,-815.41 171.78,-819.67 166.86,-810.29 162.08,-815.41"/>
</a>
</g>
</g>
<!-- Node10 -->
<g id="Node000010" class="node">
<title>Node10</title>
<g id="a_Node000010"><a xlink:href="structdepicture__menu_1_1domain_1_1models_1_1base_1_1entity__base.html#adce587e64220cc3a3407233c1fc61ba4" target="_top" xlink:title=" ">
<polygon fill="white" stroke="#666666" points="289.62,-803 167.12,-803 167.12,-759 289.62,-759 289.62,-803"/>
<text xml:space="preserve" text-anchor="start" x="175.12" y="-789.5" font-family="Helvetica,sans-Serif" font-size="10.00">depicture_menu::domain</text>
<text xml:space="preserve" text-anchor="start" x="175.12" y="-777.5" font-family="Helvetica,sans-Serif" font-size="10.00">::models::base::entity</text>
<text xml:space="preserve" text-anchor="middle" x="228.38" y="-765.5" font-family="Helvetica,sans-Serif" font-size="10.00">_base::entity_id</text>
</a>
</g>
</g>
<!-- Node1&#45;&gt;Node10 -->
<g id="edge12_Node000001_Node000010" class="edge">
<title>Node1&#45;&gt;Node10</title>
<g id="a_edge12_Node000001_Node000010"><a xlink:title=" ">
<path fill="none" stroke="#63b8ff" d="M66.38,-487.32C71.48,-533.98 92.03,-669.7 163.75,-750 164.01,-750.29 164.28,-750.58 164.54,-750.87"/>
<polygon fill="#63b8ff" stroke="#63b8ff" points="162.18,-753.45 171.97,-757.52 166.85,-748.24 162.18,-753.45"/>
</a>
</g>
</g>
<!-- Node11 -->
<g id="Node000011" class="node">
<title>Node11</title>
<g id="a_Node000011"><a xlink:href="structdepicture__menu_1_1domain_1_1menu_1_1radialmenu__item.html#a6f5466e6c3314ecf59f91acd78aed94f" target="_top" xlink:title=" ">
<polygon fill="white" stroke="#666666" points="290,-741 166.75,-741 166.75,-697 290,-697 290,-741"/>
<text xml:space="preserve" text-anchor="start" x="174.75" y="-727.5" font-family="Helvetica,sans-Serif" font-size="10.00">depicture_menu::domain</text>
<text xml:space="preserve" text-anchor="start" x="174.75" y="-715.5" font-family="Helvetica,sans-Serif" font-size="10.00">::menu::radialmenu_item</text>
<text xml:space="preserve" text-anchor="middle" x="228.38" y="-703.5" font-family="Helvetica,sans-Serif" font-size="10.00">::get_background</text>
</a>
</g>
</g>
<!-- Node1&#45;&gt;Node11 -->
<g id="edge13_Node000001_Node000011" class="edge">
<title>Node1&#45;&gt;Node11</title>
<g id="a_edge13_Node000001_Node000011"><a xlink:title=" ">
<path fill="none" stroke="#63b8ff" d="M68.29,-487.31C77.29,-526.63 105.1,-627.81 163.75,-688 164.23,-688.5 164.72,-688.98 165.23,-689.46"/>
<polygon fill="#63b8ff" stroke="#63b8ff" points="162.89,-692.08 172.84,-695.72 167.34,-686.67 162.89,-692.08"/>
</a>
</g>
</g>
<!-- Node12 -->
<g id="Node000012" class="node">
<title>Node12</title>
<g id="a_Node000012"><a xlink:href="structdepicture__menu_1_1domain_1_1menu_1_1radialmenu.html#a9cb72efb2d0085409d7880cd2812e5f4" target="_top" xlink:title=" ">
<polygon fill="white" stroke="#666666" points="289.62,-679 167.12,-679 167.12,-635 289.62,-635 289.62,-679"/>
<text xml:space="preserve" text-anchor="start" x="175.12" y="-665.5" font-family="Helvetica,sans-Serif" font-size="10.00">depicture_menu::domain</text>
<text xml:space="preserve" text-anchor="start" x="175.12" y="-653.5" font-family="Helvetica,sans-Serif" font-size="10.00">::menu::radialmenu::get</text>
<text xml:space="preserve" text-anchor="middle" x="228.38" y="-641.5" font-family="Helvetica,sans-Serif" font-size="10.00">_central_item_action_id</text>
</a>
</g>
</g>
<!-- Node1&#45;&gt;Node12 -->
<g id="edge14_Node000001_Node000012" class="edge">
<title>Node1&#45;&gt;Node12</title>
<g id="a_edge14_Node000001_Node000012"><a xlink:title=" ">
<path fill="none" stroke="#63b8ff" d="M71.54,-487.09C84.92,-517.72 117.77,-585 163.75,-626 164.51,-626.68 165.29,-627.35 166.09,-628"/>
<polygon fill="#63b8ff" stroke="#63b8ff" points="163.76,-630.64 173.9,-633.71 167.89,-624.99 163.76,-630.64"/>
</a>
</g>
</g>
<!-- Node13 -->
<g id="Node000013" class="node">
<title>Node13</title>
<g id="a_Node000013"><a xlink:href="structdepicture__menu_1_1domain_1_1menu_1_1radialmenu.html#ad8ca5bc81809f6368593615b1f132584" target="_top" xlink:title=" ">
<polygon fill="white" stroke="#666666" points="289.62,-617 167.12,-617 167.12,-573 289.62,-573 289.62,-617"/>
<text xml:space="preserve" text-anchor="start" x="175.12" y="-603.5" font-family="Helvetica,sans-Serif" font-size="10.00">depicture_menu::domain</text>
<text xml:space="preserve" text-anchor="start" x="175.12" y="-591.5" font-family="Helvetica,sans-Serif" font-size="10.00">::menu::radialmenu::get</text>
<text xml:space="preserve" text-anchor="middle" x="228.38" y="-579.5" font-family="Helvetica,sans-Serif" font-size="10.00">_central_item_label</text>
</a>
</g>
</g>
<!-- Node1&#45;&gt;Node13 -->
<g id="edge15_Node000001_Node000013" class="edge">
<title>Node1&#45;&gt;Node13</title>
<g id="a_edge15_Node000001_Node000013"><a xlink:title=" ">
<path fill="none" stroke="#63b8ff" d="M79.37,-487.38C97.61,-507.31 130.58,-541.11 163.75,-564 165.11,-564.94 166.5,-565.86 167.92,-566.77"/>
<polygon fill="#63b8ff" stroke="#63b8ff" points="165.89,-569.64 176.27,-571.78 169.49,-563.64 165.89,-569.64"/>
</a>
</g>
</g>
<!-- Node14 -->
<g id="Node000014" class="node">
<title>Node14</title>
<g id="a_Node000014"><a xlink:href="classdepicture__menu_1_1domain_1_1app_1_1config.html#a8793d4a0af91650654b36c76f1e9851d" target="_top" xlink:title=" ">
<polygon fill="white" stroke="#666666" points="290.38,-555 166.38,-555 166.38,-511 290.38,-511 290.38,-555"/>
<text xml:space="preserve" text-anchor="start" x="174.38" y="-541.5" font-family="Helvetica,sans-Serif" font-size="10.00">depicture_menu::domain</text>
<text xml:space="preserve" text-anchor="start" x="174.38" y="-529.5" font-family="Helvetica,sans-Serif" font-size="10.00">::app::config::get_default</text>
<text xml:space="preserve" text-anchor="middle" x="228.38" y="-517.5" font-family="Helvetica,sans-Serif" font-size="10.00">_menu_color</text>
</a>
</g>
</g>
<!-- Node1&#45;&gt;Node14 -->
<g id="edge16_Node000001_Node000014" class="edge">
<title>Node1&#45;&gt;Node14</title>
<g id="a_edge16_Node000001_Node000014"><a xlink:title=" ">
<path fill="none" stroke="#63b8ff" d="M108,-487.45C123.33,-493.3 141.02,-500.05 158,-506.53"/>
<polygon fill="#63b8ff" stroke="#63b8ff" points="156.44,-509.68 167.04,-509.98 158.94,-503.14 156.44,-509.68"/>
</a>
</g>
</g>
<!-- Node15 -->
<g id="Node000015" class="node">
<title>Node15</title>
<g id="a_Node000015"><a xlink:href="classdepicture__menu_1_1domain_1_1app_1_1config.html#ac0b4971dd52f8d9bd0cf907284cd06e4" target="_top" xlink:title=" ">
<polygon fill="white" stroke="#666666" points="290.38,-493 166.38,-493 166.38,-449 290.38,-449 290.38,-493"/>
<text xml:space="preserve" text-anchor="start" x="174.38" y="-479.5" font-family="Helvetica,sans-Serif" font-size="10.00">depicture_menu::domain</text>
<text xml:space="preserve" text-anchor="start" x="174.38" y="-467.5" font-family="Helvetica,sans-Serif" font-size="10.00">::app::config::get_default</text>
<text xml:space="preserve" text-anchor="middle" x="228.38" y="-455.5" font-family="Helvetica,sans-Serif" font-size="10.00">_menu_dimension</text>
</a>
</g>
</g>
<!-- Node1&#45;&gt;Node15 -->
<g id="edge17_Node000001_Node000015" class="edge">
<title>Node1&#45;&gt;Node15</title>
<g id="a_edge17_Node000001_Node000015"><a xlink:title=" ">
<path fill="none" stroke="#63b8ff" d="M128.17,-471C136.84,-471 145.8,-471 154.63,-471"/>
<polygon fill="#63b8ff" stroke="#63b8ff" points="154.61,-474.5 164.61,-471 154.61,-467.5 154.61,-474.5"/>
</a>
</g>
</g>
<!-- Node16 -->
<g id="Node000016" class="node">
<title>Node16</title>
<g id="a_Node000016"><a xlink:href="structdepicture__menu_1_1domain_1_1menu_1_1radialmenu__item.html#a7a523e07ec109d483be9a606a086c2e0" target="_top" xlink:title=" ">
<polygon fill="white" stroke="#666666" points="290,-431 166.75,-431 166.75,-387 290,-387 290,-431"/>
<text xml:space="preserve" text-anchor="start" x="174.75" y="-417.5" font-family="Helvetica,sans-Serif" font-size="10.00">depicture_menu::domain</text>
<text xml:space="preserve" text-anchor="start" x="174.75" y="-405.5" font-family="Helvetica,sans-Serif" font-size="10.00">::menu::radialmenu_item</text>
<text xml:space="preserve" text-anchor="middle" x="228.38" y="-393.5" font-family="Helvetica,sans-Serif" font-size="10.00">::get_icon_id</text>
</a>
</g>
</g>
<!-- Node1&#45;&gt;Node16 -->
<g id="edge18_Node000001_Node000016" class="edge">
<title>Node1&#45;&gt;Node16</title>
<g id="a_edge18_Node000001_Node000016"><a xlink:title=" ">
<path fill="none" stroke="#63b8ff" d="M108,-454.55C123.33,-448.7 141.02,-441.95 158,-435.47"/>
<polygon fill="#63b8ff" stroke="#63b8ff" points="158.94,-438.86 167.04,-432.02 156.44,-432.32 158.94,-438.86"/>
</a>
</g>
</g>
<!-- Node17 -->
<g id="Node000017" class="node">
<title>Node17</title>
<g id="a_Node000017"><a xlink:href="structdepicture__menu_1_1domain_1_1models_1_1entity__id__base.html#a71866154646981ed1213a76e8e7c9d6b" target="_top" xlink:title=" ">
<polygon fill="white" stroke="#666666" points="469.12,-412 346.62,-412 346.62,-356 469.12,-356 469.12,-412"/>
<text xml:space="preserve" text-anchor="start" x="354.62" y="-398.5" font-family="Helvetica,sans-Serif" font-size="10.00">depicture_menu::domain</text>
<text xml:space="preserve" text-anchor="start" x="354.62" y="-386.5" font-family="Helvetica,sans-Serif" font-size="10.00">::models::entity_id_base</text>
<text xml:space="preserve" text-anchor="start" x="354.62" y="-374.5" font-family="Helvetica,sans-Serif" font-size="10.00">&lt; detail_icons::icon_id</text>
<text xml:space="preserve" text-anchor="middle" x="407.88" y="-362.5" font-family="Helvetica,sans-Serif" font-size="10.00">_tag &gt;::nil_id</text>
</a>
</g>
</g>
<!-- Node1&#45;&gt;Node17 -->
<g id="edge23_Node000001_Node000017" class="edge">
<title>Node1&#45;&gt;Node17</title>
<g id="a_edge23_Node000001_Node000017"><a xlink:title=" ">
<path fill="none" stroke="#63b8ff" d="M75.96,-454.67C92.19,-432.38 124.75,-393.46 163.75,-378 218.28,-356.38 285.23,-360 335.06,-367.82"/>
<polygon fill="#63b8ff" stroke="#63b8ff" points="334.44,-371.27 344.88,-369.47 335.6,-364.36 334.44,-371.27"/>
</a>
</g>
</g>
<!-- Node18 -->
<g id="Node000018" class="node">
<title>Node18</title>
<g id="a_Node000018"><a xlink:href="structdepicture__menu_1_1domain_1_1menu_1_1radialmenu__item.html#a88ff93a95491491736c7c092fa79fbdd" target="_top" xlink:title=" ">
<polygon fill="white" stroke="#666666" points="290,-331 166.75,-331 166.75,-287 290,-287 290,-331"/>
<text xml:space="preserve" text-anchor="start" x="174.75" y="-317.5" font-family="Helvetica,sans-Serif" font-size="10.00">depicture_menu::domain</text>
<text xml:space="preserve" text-anchor="start" x="174.75" y="-305.5" font-family="Helvetica,sans-Serif" font-size="10.00">::menu::radialmenu_item</text>
<text xml:space="preserve" text-anchor="middle" x="228.38" y="-293.5" font-family="Helvetica,sans-Serif" font-size="10.00">::get_label</text>
</a>
</g>
</g>
<!-- Node1&#45;&gt;Node18 -->
<g id="edge20_Node000001_Node000018" class="edge">
<title>Node1&#45;&gt;Node18</title>
<g id="a_edge20_Node000001_Node000018"><a xlink:title=" ">
<path fill="none" stroke="#63b8ff" d="M74.73,-454.62C90.85,-428.85 124.96,-378.36 163.75,-345 166.68,-342.48 169.81,-340.06 173.05,-337.73"/>
<polygon fill="#63b8ff" stroke="#63b8ff" points="174.79,-340.78 181.16,-332.31 170.9,-334.96 174.79,-340.78"/>
</a>
</g>
</g>
<!-- Node19 -->
<g id="Node000019" class="node">
<title>Node19</title>
<g id="a_Node000019"><a xlink:href="structdepicture__menu_1_1domain_1_1menu_1_1radialmenu.html#a9f7df112e576efff8ee7b38444bd960b" target="_top" xlink:title=" ">
<polygon fill="white" stroke="#666666" points="293,-269 163.75,-269 163.75,-237 293,-237 293,-269"/>
<text xml:space="preserve" text-anchor="start" x="171.75" y="-255.5" font-family="Helvetica,sans-Serif" font-size="10.00">depicture_menu::domain</text>
<text xml:space="preserve" text-anchor="middle" x="228.38" y="-243.5" font-family="Helvetica,sans-Serif" font-size="10.00">::menu::radialmenu::items</text>
</a>
</g>
</g>
<!-- Node1&#45;&gt;Node19 -->
<g id="edge21_Node000001_Node000019" class="edge">
<title>Node1&#45;&gt;Node19</title>
<g id="a_edge21_Node000001_Node000019"><a xlink:title=" ">
<path fill="none" stroke="#63b8ff" d="M68.99,-454.59C78.98,-417.91 107.94,-328.54 163.75,-278 164.65,-277.18 165.58,-276.39 166.54,-275.63"/>
<polygon fill="#63b8ff" stroke="#63b8ff" points="168.2,-278.73 174.5,-270.22 164.26,-272.94 168.2,-278.73"/>
</a>
</g>
</g>
<!-- Node20 -->
<g id="Node000020" class="node">
<title>Node20</title>
<g id="a_Node000020"><a xlink:href="structdepicture__menu_1_1domain_1_1menu_1_1radialmenu__item.html#a4345d8dc99a845f0a3bc8c9210f01e42" target="_top" xlink:title=" ">
<polygon fill="white" stroke="#666666" points="290,-219 166.75,-219 166.75,-175 290,-175 290,-219"/>
<text xml:space="preserve" text-anchor="start" x="174.75" y="-205.5" font-family="Helvetica,sans-Serif" font-size="10.00">depicture_menu::domain</text>
<text xml:space="preserve" text-anchor="start" x="174.75" y="-193.5" font-family="Helvetica,sans-Serif" font-size="10.00">::menu::radialmenu_item</text>
<text xml:space="preserve" text-anchor="middle" x="228.38" y="-181.5" font-family="Helvetica,sans-Serif" font-size="10.00">::label</text>
</a>
</g>
</g>
<!-- Node1&#45;&gt;Node20 -->
<g id="edge22_Node000001_Node000020" class="edge">
<title>Node1&#45;&gt;Node20</title>
<g id="a_edge22_Node000001_Node000020"><a xlink:title=" ">
<path fill="none" stroke="#63b8ff" d="M67.38,-454.65C74.69,-412.12 99.66,-296.53 163.75,-228 164.12,-227.61 164.49,-227.22 164.87,-226.84"/>
<polygon fill="#63b8ff" stroke="#63b8ff" points="167.09,-229.54 172.41,-220.38 162.54,-224.22 167.09,-229.54"/>
</a>
</g>
</g>
<!-- Node21 -->
<g id="Node000021" class="node">
<title>Node21</title>
<g id="a_Node000021"><a xlink:href="namespacedepicture__menu_1_1domain_1_1common.html#a9a2a3993b907c0ff1a85a4b53aea5962" target="_top" xlink:title="RGBへキャスト">
<polygon fill="white" stroke="#666666" points="289.62,-157 167.12,-157 167.12,-125 289.62,-125 289.62,-157"/>
<text xml:space="preserve" text-anchor="start" x="175.12" y="-143.5" font-family="Helvetica,sans-Serif" font-size="10.00">depicture_menu::domain</text>
<text xml:space="preserve" text-anchor="middle" x="228.38" y="-131.5" font-family="Helvetica,sans-Serif" font-size="10.00">::common::rgb_cast</text>
</a>
</g>
</g>
<!-- Node1&#45;&gt;Node21 -->
<g id="edge24_Node000001_Node000021" class="edge">
<title>Node1&#45;&gt;Node21</title>
<g id="a_edge24_Node000001_Node000021"><a xlink:title=" ">
<path fill="none" stroke="#63b8ff" d="M65.47,-454.68C68.15,-404.71 82.88,-251.95 163.75,-166 164.23,-165.49 164.73,-164.98 165.23,-164.49"/>
<polygon fill="#63b8ff" stroke="#63b8ff" points="167.39,-167.25 173.07,-158.3 163.06,-161.75 167.39,-167.25"/>
</a>
</g>
</g>
<!-- Node29 -->
<g id="Node000029" class="node">
<title>Node29</title>
<g id="a_Node000029"><a xlink:href="classdepicture__menu_1_1domain_1_1menu_1_1menu__label.html#acea5cf913f0c3e18e4f3f473a33be1d0" target="_top" xlink:title=" ">
<polygon fill="white" stroke="#666666" points="289.62,-107 167.12,-107 167.12,-63 289.62,-63 289.62,-107"/>
<text xml:space="preserve" text-anchor="start" x="175.12" y="-93.5" font-family="Helvetica,sans-Serif" font-size="10.00">depicture_menu::domain</text>
<text xml:space="preserve" text-anchor="start" x="175.12" y="-81.5" font-family="Helvetica,sans-Serif" font-size="10.00">::menu::menu_label::to</text>
<text xml:space="preserve" text-anchor="middle" x="228.38" y="-69.5" font-family="Helvetica,sans-Serif" font-size="10.00">_ansi_str</text>
</a>
</g>
</g>
<!-- Node1&#45;&gt;Node29 -->
<g id="edge32_Node000001_Node000029" class="edge">
<title>Node1&#45;&gt;Node29</title>
<g id="a_edge32_Node000001_Node000029"><a xlink:title=" ">
<path fill="none" stroke="#63b8ff" d="M64.9,-454.73C65.81,-400.25 75.71,-221.69 163.75,-116 163.91,-115.81 164.08,-115.61 164.24,-115.42"/>
<polygon fill="#63b8ff" stroke="#63b8ff" points="166.64,-117.97 171.46,-108.54 161.81,-112.9 166.64,-117.97"/>
</a>
</g>
</g>
<!-- Node3 -->
<g id="Node000003" class="node">
<title>Node3</title>
<g id="a_Node000003"><a xlink:href="structdepicture__menu_1_1domain_1_1menu_1_1radialmenu__item.html#abaa0796bacff30852dbdf9eee08d38b2" target="_top" xlink:title=" ">
<polygon fill="white" stroke="#666666" points="469.5,-973 346.25,-973 346.25,-929 469.5,-929 469.5,-973"/>
<text xml:space="preserve" text-anchor="start" x="354.25" y="-959.5" font-family="Helvetica,sans-Serif" font-size="10.00">depicture_menu::domain</text>
<text xml:space="preserve" text-anchor="start" x="354.25" y="-947.5" font-family="Helvetica,sans-Serif" font-size="10.00">::menu::radialmenu_item</text>
<text xml:space="preserve" text-anchor="middle" x="407.88" y="-935.5" font-family="Helvetica,sans-Serif" font-size="10.00">::current_index</text>
</a>
</g>
</g>
<!-- Node2&#45;&gt;Node3 -->
<g id="edge2_Node000002_Node000003" class="edge">
<title>Node2&#45;&gt;Node3</title>
<g id="a_edge2_Node000002_Node000003"><a xlink:title=" ">
<path fill="none" stroke="#63b8ff" d="M290.46,-941.16C304.76,-942.37 320.13,-943.67 334.87,-944.91"/>
<polygon fill="#63b8ff" stroke="#63b8ff" points="334.21,-948.37 344.47,-945.73 334.8,-941.4 334.21,-948.37"/>
</a>
</g>
</g>
<!-- Node4 -->
<g id="Node000004" class="node">
<title>Node4</title>
<g id="a_Node000004"><a xlink:href="structdepicture__menu_1_1domain_1_1menu_1_1radialmenu__item.html#adee607b452fafcf8b6aa3ce5471f87a4" target="_top" xlink:title=" ">
<polygon fill="white" stroke="#666666" points="646,-911 522.75,-911 522.75,-867 646,-867 646,-911"/>
<text xml:space="preserve" text-anchor="start" x="530.75" y="-897.5" font-family="Helvetica,sans-Serif" font-size="10.00">depicture_menu::domain</text>
<text xml:space="preserve" text-anchor="start" x="530.75" y="-885.5" font-family="Helvetica,sans-Serif" font-size="10.00">::menu::radialmenu_item</text>
<text xml:space="preserve" text-anchor="middle" x="584.38" y="-873.5" font-family="Helvetica,sans-Serif" font-size="10.00">::com_kind_to_index</text>
</a>
</g>
</g>
<!-- Node3&#45;&gt;Node4 -->
<g id="edge3_Node000003_Node000004" class="edge">
<title>Node3&#45;&gt;Node4</title>
<g id="a_edge3_Node000003_Node000004"><a xlink:title=" ">
<path fill="none" stroke="#63b8ff" d="M469.91,-929.32C483.46,-924.5 497.93,-919.36 511.86,-914.41"/>
<polygon fill="#63b8ff" stroke="#63b8ff" points="512.7,-917.83 520.95,-911.18 510.36,-911.23 512.7,-917.83"/>
</a>
</g>
</g>
<!-- Node6 -->
<g id="Node000006" class="node">
<title>Node6</title>
<g id="a_Node000006"><a xlink:href="structdepicture__menu_1_1domain_1_1menu_1_1radialmenu__item.html#a181422df8a043da811ce10d6d72f9d13" target="_top" xlink:title=" ">
<polygon fill="white" stroke="#666666" points="469.5,-911 346.25,-911 346.25,-867 469.5,-867 469.5,-911"/>
<text xml:space="preserve" text-anchor="start" x="354.25" y="-897.5" font-family="Helvetica,sans-Serif" font-size="10.00">depicture_menu::domain</text>
<text xml:space="preserve" text-anchor="start" x="354.25" y="-885.5" font-family="Helvetica,sans-Serif" font-size="10.00">::menu::radialmenu_item</text>
<text xml:space="preserve" text-anchor="middle" x="407.88" y="-873.5" font-family="Helvetica,sans-Serif" font-size="10.00">::get_action_id</text>
</a>
</g>
</g>
<!-- Node5&#45;&gt;Node6 -->
<g id="edge5_Node000005_Node000006" class="edge">
<title>Node5&#45;&gt;Node6</title>
<g id="a_edge5_Node000005_Node000006"><a xlink:title=" ">
<path fill="none" stroke="#63b8ff" d="M290.46,-858.83C304.76,-862.54 320.13,-866.52 334.87,-870.34"/>
<polygon fill="#63b8ff" stroke="#63b8ff" points="333.95,-873.72 344.51,-872.84 335.71,-866.94 333.95,-873.72"/>
</a>
</g>
</g>
<!-- Node7 -->
<g id="Node000007" class="node">
<title>Node7</title>
<g id="a_Node000007"><a xlink:href="structdepicture__menu_1_1domain_1_1models_1_1entity__id__base.html#aba7d6d01fb13b02fdf7a089b02e6c0b2" target="_top" xlink:title=" ">
<polygon fill="white" stroke="#666666" points="471.38,-787 344.38,-787 344.38,-731 471.38,-731 471.38,-787"/>
<text xml:space="preserve" text-anchor="start" x="352.38" y="-773.5" font-family="Helvetica,sans-Serif" font-size="10.00">depicture_menu::domain</text>
<text xml:space="preserve" text-anchor="start" x="352.38" y="-761.5" font-family="Helvetica,sans-Serif" font-size="10.00">::models::entity_id_base</text>
<text xml:space="preserve" text-anchor="start" x="352.38" y="-749.5" font-family="Helvetica,sans-Serif" font-size="10.00">&lt; action_publisher_id_tag</text>
<text xml:space="preserve" text-anchor="middle" x="407.88" y="-737.5" font-family="Helvetica,sans-Serif" font-size="10.00"> &gt;::random_id</text>
</a>
</g>
</g>
<!-- Node5&#45;&gt;Node7 -->
<g id="edge7_Node000005_Node000007" class="edge">
<title>Node5&#45;&gt;Node7</title>
<g id="a_edge7_Node000005_Node000007"><a xlink:title=" ">
<path fill="none" stroke="#63b8ff" d="M276.48,-820.71C294.84,-812.02 316.29,-801.87 336.42,-792.34"/>
<polygon fill="#63b8ff" stroke="#63b8ff" points="337.89,-795.52 345.43,-788.08 334.9,-789.19 337.89,-795.52"/>
</a>
</g>
</g>
<!-- Node9 -->
<g id="Node000009" class="node">
<title>Node9</title>
<g id="a_Node000009"><a xlink:href="structdepicture__menu_1_1domain_1_1menu_1_1radialmenu__item.html#a8c4c4fb516ddc27ca04ae1f8babe76f3" target="_top" xlink:title=" ">
<polygon fill="white" stroke="#666666" points="469.5,-849 346.25,-849 346.25,-805 469.5,-805 469.5,-849"/>
<text xml:space="preserve" text-anchor="start" x="354.25" y="-835.5" font-family="Helvetica,sans-Serif" font-size="10.00">depicture_menu::domain</text>
<text xml:space="preserve" text-anchor="start" x="354.25" y="-823.5" font-family="Helvetica,sans-Serif" font-size="10.00">::menu::radialmenu_item</text>
<text xml:space="preserve" text-anchor="middle" x="407.88" y="-811.5" font-family="Helvetica,sans-Serif" font-size="10.00">::set_action_id</text>
</a>
</g>
</g>
<!-- Node5&#45;&gt;Node9 -->
<g id="edge10_Node000005_Node000009" class="edge">
<title>Node5&#45;&gt;Node9</title>
<g id="a_edge10_Node000005_Node000009"><a xlink:title=" ">
<path fill="none" stroke="#63b8ff" d="M290.46,-837.49C304.76,-836.2 320.13,-834.82 334.87,-833.49"/>
<polygon fill="#63b8ff" stroke="#63b8ff" points="334.82,-837.01 344.47,-832.63 334.2,-830.04 334.82,-837.01"/>
</a>
</g>
</g>
<!-- Node6&#45;&gt;Node4 -->
<g id="edge6_Node000006_Node000004" class="edge">
<title>Node6&#45;&gt;Node4</title>
<g id="a_edge6_Node000006_Node000004"><a xlink:title=" ">
<path fill="none" stroke="#63b8ff" d="M469.91,-889C483.19,-889 497.37,-889 511.04,-889"/>
<polygon fill="#63b8ff" stroke="#63b8ff" points="510.86,-892.5 520.86,-889 510.86,-885.5 510.86,-892.5"/>
</a>
</g>
</g>
<!-- Node8 -->
<g id="Node000008" class="node">
<title>Node8</title>
<g id="a_Node000008"><a xlink:href="structdepicture__menu_1_1domain_1_1models_1_1entity__id__base.html#a504cba7877c98dbe44f55e0b1379a717" target="_top" xlink:title=" ">
<polygon fill="white" stroke="#666666" points="645.62,-781 523.12,-781 523.12,-737 645.62,-737 645.62,-781"/>
<text xml:space="preserve" text-anchor="start" x="531.12" y="-767.5" font-family="Helvetica,sans-Serif" font-size="10.00">depicture_menu::domain</text>
<text xml:space="preserve" text-anchor="start" x="531.12" y="-755.5" font-family="Helvetica,sans-Serif" font-size="10.00">::models::entity_id_base</text>
<text xml:space="preserve" text-anchor="middle" x="584.38" y="-743.5" font-family="Helvetica,sans-Serif" font-size="10.00">::entity_id_base</text>
</a>
</g>
</g>
<!-- Node7&#45;&gt;Node8 -->
<g id="edge8_Node000007_Node000008" class="edge">
<title>Node7&#45;&gt;Node8</title>
<g id="a_edge8_Node000007_Node000008"><a xlink:title=" ">
<path fill="none" stroke="#63b8ff" d="M471.87,-752.49C484.71,-752.23 498.31,-752.18 511.43,-752.34"/>
<polygon fill="#63b8ff" stroke="#63b8ff" points="511.23,-755.84 521.29,-752.51 511.35,-748.84 511.23,-755.84"/>
</a>
</g>
</g>
<!-- Node7&#45;&gt;Node8 -->
<g id="edge9_Node000007_Node000008" class="edge">
<title>Node7&#45;&gt;Node8</title>
<g id="a_edge9_Node000007_Node000008"><a xlink:title=" ">
<path fill="none" stroke="#63b8ff" d="M471.87,-765.51C484.71,-765.77 498.31,-765.82 511.43,-765.66"/>
<polygon fill="#63b8ff" stroke="#63b8ff" points="511.35,-769.16 521.29,-765.49 511.23,-762.16 511.35,-769.16"/>
</a>
</g>
</g>
<!-- Node9&#45;&gt;Node4 -->
<g id="edge11_Node000009_Node000004" class="edge">
<title>Node9&#45;&gt;Node4</title>
<g id="a_edge11_Node000009_Node000004"><a xlink:title=" ">
<path fill="none" stroke="#63b8ff" d="M469.91,-848.68C483.46,-853.5 497.93,-858.64 511.86,-863.59"/>
<polygon fill="#63b8ff" stroke="#63b8ff" points="510.36,-866.77 520.95,-866.82 512.7,-860.17 510.36,-866.77"/>
</a>
</g>
</g>
<!-- Node16&#45;&gt;Node17 -->
<g id="edge19_Node000016_Node000017" class="edge">
<title>Node16&#45;&gt;Node17</title>
<g id="a_edge19_Node000016_Node000017"><a xlink:title=" ">
<path fill="none" stroke="#63b8ff" d="M290.46,-400.4C304.84,-398.37 320.31,-396.19 335.11,-394.11"/>
<polygon fill="#63b8ff" stroke="#63b8ff" points="335.37,-397.61 344.78,-392.75 334.39,-390.67 335.37,-397.61"/>
</a>
</g>
</g>
<!-- Node22 -->
<g id="Node000022" class="node">
<title>Node22</title>
<g id="a_Node000022"><a xlink:href="namespacedepicture__menu_1_1domain_1_1common_1_1helper.html#a004cd9f97f6ccb07be2ebdf656f5444d" target="_top" xlink:title="RGB各チャンネル毎の射影ヘルパー">
<polygon fill="white" stroke="#666666" points="486.75,-157 329,-157 329,-125 486.75,-125 486.75,-157"/>
<text xml:space="preserve" text-anchor="start" x="337" y="-143.5" font-family="Helvetica,sans-Serif" font-size="10.00">depicture_menu::domain</text>
<text xml:space="preserve" text-anchor="middle" x="407.88" y="-131.5" font-family="Helvetica,sans-Serif" font-size="10.00">::common::helper::transform_rgb</text>
</a>
</g>
</g>
<!-- Node21&#45;&gt;Node22 -->
<g id="edge25_Node000021_Node000022" class="edge">
<title>Node21&#45;&gt;Node22</title>
<g id="a_edge25_Node000021_Node000022"><a xlink:title=" ">
<path fill="none" stroke="#63b8ff" d="M289.96,-141C298.82,-141 308.09,-141 317.37,-141"/>
<polygon fill="#63b8ff" stroke="#63b8ff" points="317.16,-144.5 327.16,-141 317.16,-137.5 317.16,-144.5"/>
</a>
</g>
</g>
<!-- Node23 -->
<g id="Node000023" class="node">
<title>Node23</title>
<g id="a_Node000023"><a xlink:href="namespacedepicture__menu_1_1domain_1_1common.html#a45530f48fa4d5ac4595cc9c279263846" target="_top" xlink:title=" ">
<polygon fill="white" stroke="#666666" points="645.62,-282 523.12,-282 523.12,-250 645.62,-250 645.62,-282"/>
<text xml:space="preserve" text-anchor="start" x="531.12" y="-268.5" font-family="Helvetica,sans-Serif" font-size="10.00">depicture_menu::domain</text>
<text xml:space="preserve" text-anchor="middle" x="584.38" y="-256.5" font-family="Helvetica,sans-Serif" font-size="10.00">::common::get_blue</text>
</a>
</g>
</g>
<!-- Node22&#45;&gt;Node23 -->
<g id="edge26_Node000022_Node000023" class="edge">
<title>Node22&#45;&gt;Node23</title>
<g id="a_edge26_Node000022_Node000023"><a xlink:title=" ">
<path fill="none" stroke="#63b8ff" d="M424.12,-157.4C444.79,-178.89 483.64,-216.7 522.75,-241 524.64,-242.17 526.59,-243.31 528.58,-244.41"/>
<polygon fill="#63b8ff" stroke="#63b8ff" points="526.97,-247.52 537.47,-248.94 530.15,-241.28 526.97,-247.52"/>
</a>
</g>
</g>
<!-- Node24 -->
<g id="Node000024" class="node">
<title>Node24</title>
<g id="a_Node000024"><a xlink:href="namespacedepicture__menu_1_1domain_1_1common.html#ae234959f503d97b8bc6352178b766dd9" target="_top" xlink:title=" ">
<polygon fill="white" stroke="#666666" points="645.62,-232 523.12,-232 523.12,-200 645.62,-200 645.62,-232"/>
<text xml:space="preserve" text-anchor="start" x="531.12" y="-218.5" font-family="Helvetica,sans-Serif" font-size="10.00">depicture_menu::domain</text>
<text xml:space="preserve" text-anchor="middle" x="584.38" y="-206.5" font-family="Helvetica,sans-Serif" font-size="10.00">::common::get_green</text>
</a>
</g>
</g>
<!-- Node22&#45;&gt;Node24 -->
<g id="edge27_Node000022_Node000024" class="edge">
<title>Node22&#45;&gt;Node24</title>
<g id="a_edge27_Node000022_Node000024"><a xlink:title=" ">
<path fill="none" stroke="#63b8ff" d="M445.71,-157.42C467.96,-167.28 496.92,-180.01 522.75,-191 526.05,-192.4 529.46,-193.84 532.89,-195.28"/>
<polygon fill="#63b8ff" stroke="#63b8ff" points="531.24,-198.39 541.81,-199 533.93,-191.92 531.24,-198.39"/>
</a>
</g>
</g>
<!-- Node25 -->
<g id="Node000025" class="node">
<title>Node25</title>
<g id="a_Node000025"><a xlink:href="namespacedepicture__menu_1_1domain_1_1common.html#ac64a5f4b93851c489aeaab246bb04cfa" target="_top" xlink:title=" ">
<polygon fill="white" stroke="#666666" points="645.62,-182 523.12,-182 523.12,-150 645.62,-150 645.62,-182"/>
<text xml:space="preserve" text-anchor="start" x="531.12" y="-168.5" font-family="Helvetica,sans-Serif" font-size="10.00">depicture_menu::domain</text>
<text xml:space="preserve" text-anchor="middle" x="584.38" y="-156.5" font-family="Helvetica,sans-Serif" font-size="10.00">::common::get_red</text>
</a>
</g>
</g>
<!-- Node22&#45;&gt;Node25 -->
<g id="edge28_Node000022_Node000025" class="edge">
<title>Node22&#45;&gt;Node25</title>
<g id="a_edge28_Node000022_Node000025"><a xlink:title=" ">
<path fill="none" stroke="#63b8ff" d="M487.19,-152.22C495.32,-153.38 503.55,-154.56 511.61,-155.72"/>
<polygon fill="#63b8ff" stroke="#63b8ff" points="510.95,-159.16 521.34,-157.11 511.94,-152.23 510.95,-159.16"/>
</a>
</g>
</g>
<!-- Node26 -->
<g id="Node000026" class="node">
<title>Node26</title>
<g id="a_Node000026"><a xlink:href="namespacedepicture__menu_1_1domain_1_1common.html#ac550f0a2aeea2bcbe42f98d354742419" target="_top" xlink:title=" ">
<polygon fill="white" stroke="#666666" points="645.62,-132 523.12,-132 523.12,-100 645.62,-100 645.62,-132"/>
<text xml:space="preserve" text-anchor="start" x="531.12" y="-118.5" font-family="Helvetica,sans-Serif" font-size="10.00">depicture_menu::domain</text>
<text xml:space="preserve" text-anchor="middle" x="584.38" y="-106.5" font-family="Helvetica,sans-Serif" font-size="10.00">::common::set_blue</text>
</a>
</g>
</g>
<!-- Node22&#45;&gt;Node26 -->
<g id="edge29_Node000022_Node000026" class="edge">
<title>Node22&#45;&gt;Node26</title>
<g id="a_edge29_Node000022_Node000026"><a xlink:title=" ">
<path fill="none" stroke="#63b8ff" d="M487.19,-129.78C495.32,-128.62 503.55,-127.44 511.61,-126.28"/>
<polygon fill="#63b8ff" stroke="#63b8ff" points="511.94,-129.77 521.34,-124.89 510.95,-122.84 511.94,-129.77"/>
</a>
</g>
</g>
<!-- Node27 -->
<g id="Node000027" class="node">
<title>Node27</title>
<g id="a_Node000027"><a xlink:href="namespacedepicture__menu_1_1domain_1_1common.html#a8be59216e1b3b8a23be94027b5f2b2c0" target="_top" xlink:title=" ">
<polygon fill="white" stroke="#666666" points="645.62,-82 523.12,-82 523.12,-50 645.62,-50 645.62,-82"/>
<text xml:space="preserve" text-anchor="start" x="531.12" y="-68.5" font-family="Helvetica,sans-Serif" font-size="10.00">depicture_menu::domain</text>
<text xml:space="preserve" text-anchor="middle" x="584.38" y="-56.5" font-family="Helvetica,sans-Serif" font-size="10.00">::common::set_green</text>
</a>
</g>
</g>
<!-- Node22&#45;&gt;Node27 -->
<g id="edge30_Node000022_Node000027" class="edge">
<title>Node22&#45;&gt;Node27</title>
<g id="a_edge30_Node000022_Node000027"><a xlink:title=" ">
<path fill="none" stroke="#63b8ff" d="M452.47,-124.59C463.74,-120.1 475.78,-115.06 486.75,-110 503.18,-102.42 506.37,-98.68 522.75,-91 525.65,-89.64 528.64,-88.28 531.68,-86.93"/>
<polygon fill="#63b8ff" stroke="#63b8ff" points="532.89,-90.22 540.67,-83.03 530.1,-83.8 532.89,-90.22"/>
</a>
</g>
</g>
<!-- Node28 -->
<g id="Node000028" class="node">
<title>Node28</title>
<g id="a_Node000028"><a xlink:href="namespacedepicture__menu_1_1domain_1_1common.html#ab01e3a23c6f9d6f4b1f6b246c95e534c" target="_top" xlink:title=" ">
<polygon fill="white" stroke="#666666" points="645.62,-32 523.12,-32 523.12,0 645.62,0 645.62,-32"/>
<text xml:space="preserve" text-anchor="start" x="531.12" y="-18.5" font-family="Helvetica,sans-Serif" font-size="10.00">depicture_menu::domain</text>
<text xml:space="preserve" text-anchor="middle" x="584.38" y="-6.5" font-family="Helvetica,sans-Serif" font-size="10.00">::common::set_red</text>
</a>
</g>
</g>
<!-- Node22&#45;&gt;Node28 -->
<g id="edge31_Node000022_Node000028" class="edge">
<title>Node22&#45;&gt;Node28</title>
<g id="a_edge31_Node000022_Node000028"><a xlink:title=" ">
<path fill="none" stroke="#63b8ff" d="M464.53,-124.6C472.55,-120.66 480.27,-115.85 486.75,-110 512.42,-86.82 497.22,-64.34 522.75,-41 523.52,-40.29 524.32,-39.61 525.13,-38.94"/>
<polygon fill="#63b8ff" stroke="#63b8ff" points="527.04,-41.87 533.27,-33.3 523.05,-36.12 527.04,-41.87"/>
</a>
</g>
</g>
<!-- Node30 -->
<g id="Node000030" class="node">
<title>Node30</title>
<g id="a_Node000030"><a xlink:href="namespacedepicture__menu_1_1util_1_1strconv.html#a08ee9762f61abb902eac449b23391fe1" target="_top" xlink:title=" ">
<polygon fill="white" stroke="#666666" points="465.75,-101 350,-101 350,-69 465.75,-69 465.75,-101"/>
<text xml:space="preserve" text-anchor="start" x="358" y="-87.5" font-family="Helvetica,sans-Serif" font-size="10.00">depicture_menu::util</text>
<text xml:space="preserve" text-anchor="middle" x="407.88" y="-75.5" font-family="Helvetica,sans-Serif" font-size="10.00">::strconv::wide_to_utf8</text>
</a>
</g>
</g>
<!-- Node29&#45;&gt;Node30 -->
<g id="edge33_Node000029_Node000030" class="edge">
<title>Node29&#45;&gt;Node30</title>
<g id="a_edge33_Node000029_Node000030"><a xlink:title=" ">
<path fill="none" stroke="#63b8ff" d="M289.96,-85C305.48,-85 322.28,-85 338.17,-85"/>
<polygon fill="#63b8ff" stroke="#63b8ff" points="338.04,-88.5 348.04,-85 338.04,-81.5 338.04,-88.5"/>
</a>
</g>
</g>
</g>
</svg>

<g id="navigator" transform="translate(0 0)" fill="#404254">
  <rect fill="#f2f5e9" fill-opacity="0.5" stroke="#606060" stroke-width=".5" x="0" y="0" width="60" height="60"/>
  <use id="zoomplus" xlink:href="#zoomPlus" x="17" y="9" onmousedown="handleZoom(evt,'in')"/>
  <use id="zoomminus" xlink:href="#zoomMin" x="42" y="9" onmousedown="handleZoom(evt,'out')"/>
  <use id="reset" xlink:href="#resetDef" x="30" y="36" onmousedown="handleReset()"/>
   <use id="arrowup" xlink:href="#arrowUp" x="0" y="0" onmousedown="handlePan(0,-1)"/>
  <use id="arrowright" xlink:href="#arrowRight" x="0" y="0" onmousedown="handlePan(1,0)"/>
  <use id="arrowdown" xlink:href="#arrowDown" x="0" y="0" onmousedown="handlePan(0,1)"/>
  <use id="arrowleft" xlink:href="#arrowLeft" x="0" y="0" onmousedown="handlePan(-1,0)"/>
</g>
<svg viewBox="0 0 15 15" width="100%" height="30px" preserveAspectRatio="xMaxYMin meet">
 <g id="arrow_out" transform="scale(0.3 0.3)">
  <a xlink:href="namespacedepicture__menu_1_1usecase_a2c254e4837bdea923a00c9bb9387ea05_cgraph_org.svg" target="_base">
   <rect id="button" ry="5" rx="5" y="6" x="6" height="38" width="38"
        fill="#f2f5e9" fill-opacity="0.5" stroke="#606060" stroke-width="1.0"/>
   <path id="arrow"
     d="M 11.500037,31.436501 C 11.940474,20.09759 22.043105,11.32322 32.158766,21.979434 L 37.068811,17.246167 C 37.068811,17.246167 37.088388,32 37.088388,32 L 22.160133,31.978069 C 22.160133,31.978069 26.997745,27.140456 26.997745,27.140456 C 18.528582,18.264221 13.291696,25.230495 11.500037,31.436501 z"
     style="fill:#404040;"/>
  </a>
 </g>
</svg>

<style type='text/css'>
<![CDATA[
[data-mouse-over-selected='false'] { opacity: 0.7; }
[data-mouse-over-selected='true']  { opacity: 1.0; }
]]>
</style>
<script type="application/ecmascript"><![CDATA[
document.addEventListener('DOMContentLoaded', (event) => {
  highlightEdges();
  highlightAdjacentNodes();
});
]]></script>
</svg>
