<?xml version="1.0" encoding="UTF-8" standalone="no"?>
<!DOCTYPE svg PUBLIC "-//W3C//DTD SVG 1.1//EN"
 "http://www.w3.org/Graphics/SVG/1.1/DTD/svg11.dtd">
<!-- Generated by graphviz version 14.1.2 (20260124.0452)
 -->
<!-- Title: detail::make_config_view_injection Pages: 1 -->
<!--zoomable 570 -->

<svg id="main" version="1.1" xmlns="http://www.w3.org/2000/svg" xmlns:xlink="http://www.w3.org/1999/xlink" xml:space="preserve" onload="init(evt)">

<style type="text/css"><![CDATA[
.node, .edge {opacity: 0.7;}
.node.selected, .edge.selected {opacity: 1;}
.edge:hover path { stroke: red; }
.edge:hover polygon { stroke: red; fill: red; }
]]></style>

<defs>
  <circle id="rim" cx="0" cy="0" r="7"/>
  <circle id="rim2" cx="0" cy="0" r="3.5"/>
  <g id="zoomPlus">
    <use xlink:href="#rim" fill="#404040"><set attributeName="fill" to="#808080" begin="zoomplus.mouseover" end="zoomplus.mouseout"/></use>
    <path d="M-4,0h8M0,-4v8" fill="none" stroke="white" stroke-width="1.5" pointer-events="none"/>
  </g>
  <g id="zoomMin">
    <use xlink:href="#rim" fill="#404040"><set attributeName="fill" to="#808080" begin="zoomminus.mouseover" end="zoomminus.mouseout"/></use>
    <path d="M-4,0h8" fill="none" stroke="white" stroke-width="1.5" pointer-events="none"/>
  </g>
  <g id="arrowUp" transform="translate(30 24)">
    <use xlink:href="#rim"/>
    <path pointer-events="none" fill="none" stroke="white" stroke-width="1.5" d="M0,-3.0v7 M-2.5,-0.5L0,-3.0L2.5,-0.5"/>
  </g>
  <g id="arrowRight" transform="rotate(90) translate(36 -43)">
    <use xlink:href="#rim"/>
    <path pointer-events="none" fill="none" stroke="white" stroke-width="1.5" d="M0,-3.0v7 M-2.5,-0.5L0,-3.0L2.5,-0.5"/>
  </g>
  <g id="arrowDown" transform="rotate(180) translate(-30 -48)">
    <use xlink:href="#rim"/>
    <path pointer-events="none" fill="none" stroke="white" stroke-width="1.5" d="M0,-3.0v7 M-2.5,-0.5L0,-3.0L2.5,-0.5"/>
  </g>
  <g id="arrowLeft" transform="rotate(270) translate(-36 17)">
    <use xlink:href="#rim"/>
    <path pointer-events="none" fill="none" stroke="white" stroke-width="1.5" d="M0,-3.0v7 M-2.5,-0.5L0,-3.0L2.5,-0.5"/>
  </g>
  <g id="resetDef">
    <use xlink:href="#rim2" fill="#404040"><set attributeName="fill" to="#808080" begin="reset.mouseover" end="reset.mouseout"/></use>
  </g>
</defs>
<script type="application/ecmascript">
var viewWidth = 488;
var viewHeight = 570;
var sectionId = 'dynsection-6';
</script>
<script type="application/ecmascript" xlink:href="svg.min.js"/>
<svg id="graph" class="graph">
<g id="viewport">
<title>detail::make_config_view_injection</title>
<!-- Node1 -->
<g id="Node000001" class="node">
<title>Node1</title>
<g id="a_Node000001"><a xlink:title=" ">
<polygon fill="#999999" stroke="#666666" points="480,-328 379.25,-328 379.25,-296 480,-296 480,-328"/>
<text xml:space="preserve" text-anchor="start" x="387.25" y="-314.5" font-family="Helvetica,sans-Serif" font-size="10.00">detail::make_config</text>
<text xml:space="preserve" text-anchor="middle" x="429.62" y="-302.5" font-family="Helvetica,sans-Serif" font-size="10.00">_view_injection</text>
</a>
</g>
</g>
<!-- Node2 -->
<g id="Node000002" class="node">
<title>Node2</title>
<g id="a_Node000002"><a xlink:href="classdepicture__menu_1_1applications_1_1view__factories_1_1config__view__arg__builder.html#a81771a2eb3dd080cb12d97086f19e37b" target="_top" xlink:title=" ">
<polygon fill="white" stroke="#666666" points="343.25,-359 200.5,-359 200.5,-315 343.25,-315 343.25,-359"/>
<text xml:space="preserve" text-anchor="start" x="208.5" y="-345.5" font-family="Helvetica,sans-Serif" font-size="10.00">depicture_menu::applications</text>
<text xml:space="preserve" text-anchor="start" x="208.5" y="-333.5" font-family="Helvetica,sans-Serif" font-size="10.00">::view_factories::config</text>
<text xml:space="preserve" text-anchor="middle" x="271.88" y="-321.5" font-family="Helvetica,sans-Serif" font-size="10.00">_view_arg_builder::build</text>
</a>
</g>
</g>
<!-- Node1&#45;&gt;Node2 -->
<g id="edge1_Node000001_Node000002" class="edge">
<title>Node1&#45;&gt;Node2</title>
<g id="a_edge1_Node000001_Node000002"><a xlink:title=" ">
<path fill="none" stroke="#63b8ff" d="M367.62,-321.79C359.77,-323.05 351.68,-324.35 343.68,-325.63"/>
<polygon fill="#63b8ff" stroke="#63b8ff" points="368.1,-325.26 377.42,-320.22 366.99,-318.35 368.1,-325.26"/>
</a>
</g>
</g>
<!-- Node3 -->
<g id="Node000003" class="node">
<title>Node3</title>
<g id="a_Node000003"><a xlink:href="namespacedetail.html#a9059c63b55917525f60302be2ad6701b" target="_top" xlink:title=" ">
<polygon fill="white" stroke="#666666" points="329,-297 214.75,-297 214.75,-277 329,-277 329,-297"/>
<text xml:space="preserve" text-anchor="middle" x="271.88" y="-283.5" font-family="Helvetica,sans-Serif" font-size="10.00">detail::create_usecase</text>
</a>
</g>
</g>
<!-- Node1&#45;&gt;Node3 -->
<g id="edge2_Node000001_Node000003" class="edge">
<title>Node1&#45;&gt;Node3</title>
<g id="a_edge2_Node000001_Node000003"><a xlink:title=" ">
<path fill="none" stroke="#63b8ff" d="M367.58,-302.2C355.01,-300.18 341.83,-298.07 329.42,-296.08"/>
<polygon fill="#63b8ff" stroke="#63b8ff" points="366.99,-305.65 377.42,-303.78 368.1,-298.74 366.99,-305.65"/>
</a>
</g>
</g>
<!-- Node4 -->
<g id="Node000004" class="node">
<title>Node4</title>
<g id="a_Node000004"><a xlink:href="classdepicture__menu_1_1applications_1_1view__factories_1_1config__view__arg__builder.html#ada8abae5fb46a758aa2b954eedfdd560" target="_top" xlink:title=" ">
<polygon fill="white" stroke="#666666" points="164.5,-562 0,-562 0,-518 164.5,-518 164.5,-562"/>
<text xml:space="preserve" text-anchor="start" x="8" y="-548.5" font-family="Helvetica,sans-Serif" font-size="10.00">depicture_menu::applications</text>
<text xml:space="preserve" text-anchor="start" x="8" y="-536.5" font-family="Helvetica,sans-Serif" font-size="10.00">::view_factories::config</text>
<text xml:space="preserve" text-anchor="middle" x="82.25" y="-524.5" font-family="Helvetica,sans-Serif" font-size="10.00">_view_arg_builder::build_publisher</text>
</a>
</g>
</g>
<!-- Node3&#45;&gt;Node4 -->
<g id="edge3_Node000003_Node000004" class="edge">
<title>Node3&#45;&gt;Node4</title>
<g id="a_edge3_Node000003_Node000004"><a xlink:title=" ">
<path fill="none" stroke="#63b8ff" d="M204.84,-301.89C203.3,-303.16 201.85,-304.52 200.5,-306 138.63,-373.58 222.89,-438.38 164.5,-509 161.9,-512.14 158.95,-514.97 155.74,-517.5"/>
<polygon fill="#63b8ff" stroke="#63b8ff" points="206.65,-304.89 213.16,-296.53 202.86,-299.01 206.65,-304.89"/>
</a>
</g>
</g>
<!-- Node5 -->
<g id="Node000005" class="node">
<title>Node5</title>
<g id="a_Node000005"><a xlink:href="structdepicture__menu_1_1cs__binding_1_1observer_1_1detail__observer_1_1cfg__observer.html#a25999e4fbcd258309e9a77f53a649d5e" target="_top" xlink:title=" ">
<polygon fill="white" stroke="#666666" points="135.25,-500 29.25,-500 29.25,-444 135.25,-444 135.25,-500"/>
<text xml:space="preserve" text-anchor="start" x="37.25" y="-486.5" font-family="Helvetica,sans-Serif" font-size="10.00">depicture_menu::cs</text>
<text xml:space="preserve" text-anchor="start" x="37.25" y="-474.5" font-family="Helvetica,sans-Serif" font-size="10.00">_binding::observer::</text>
<text xml:space="preserve" text-anchor="start" x="37.25" y="-462.5" font-family="Helvetica,sans-Serif" font-size="10.00">detail_observer::cfg</text>
<text xml:space="preserve" text-anchor="middle" x="82.25" y="-450.5" font-family="Helvetica,sans-Serif" font-size="10.00">_observer::operator()</text>
</a>
</g>
</g>
<!-- Node3&#45;&gt;Node5 -->
<g id="edge4_Node000003_Node000005" class="edge">
<title>Node3&#45;&gt;Node5</title>
<g id="a_edge4_Node000003_Node000005"><a xlink:title=" ">
<path fill="none" stroke="#63b8ff" d="M204.92,-302.15C203.37,-303.34 201.89,-304.62 200.5,-306 158.23,-347.91 203.2,-389.77 164.5,-435 156.74,-444.07 146.3,-451.03 135.49,-456.33"/>
<polygon fill="#63b8ff" stroke="#63b8ff" points="206.52,-305.28 213.21,-297.06 202.86,-299.31 206.52,-305.28"/>
</a>
</g>
</g>
<!-- Node6 -->
<g id="Node000006" class="node">
<title>Node6</title>
<g id="a_Node000006"><a xlink:href="structdepicture__menu_1_1cs__binding_1_1observer_1_1detail__observer_1_1cfg__observer.html#af6ce1b77166781317738d49e1ce315c6" target="_top" xlink:title=" ">
<polygon fill="white" stroke="#666666" points="135.25,-426 29.25,-426 29.25,-370 135.25,-370 135.25,-426"/>
<text xml:space="preserve" text-anchor="start" x="37.25" y="-412.5" font-family="Helvetica,sans-Serif" font-size="10.00">depicture_menu::cs</text>
<text xml:space="preserve" text-anchor="start" x="37.25" y="-400.5" font-family="Helvetica,sans-Serif" font-size="10.00">_binding::observer::</text>
<text xml:space="preserve" text-anchor="start" x="37.25" y="-388.5" font-family="Helvetica,sans-Serif" font-size="10.00">detail_observer::cfg</text>
<text xml:space="preserve" text-anchor="middle" x="82.25" y="-376.5" font-family="Helvetica,sans-Serif" font-size="10.00">_observer::operator()</text>
</a>
</g>
</g>
<!-- Node3&#45;&gt;Node6 -->
<g id="edge5_Node000003_Node000006" class="edge">
<title>Node3&#45;&gt;Node6</title>
<g id="a_edge5_Node000003_Node000006"><a xlink:title=" ">
<path fill="none" stroke="#63b8ff" d="M206.03,-302.41C204.12,-303.52 202.27,-304.72 200.5,-306 176.85,-323.15 186.67,-341.97 164.5,-361 156.03,-368.27 145.9,-374.37 135.71,-379.4"/>
<polygon fill="#63b8ff" stroke="#63b8ff" points="207.24,-305.71 214.66,-298.15 204.14,-299.44 207.24,-305.71"/>
</a>
</g>
</g>
<!-- Node7 -->
<g id="Node000007" class="node">
<title>Node7</title>
<g id="a_Node000007"><a xlink:href="structdepicture__menu_1_1cs__binding_1_1observer_1_1detail__observer_1_1cfg__observer.html#aec923a342db16d60fe6eabe2697966a7" target="_top" xlink:title=" ">
<polygon fill="white" stroke="#666666" points="135.25,-352 29.25,-352 29.25,-296 135.25,-296 135.25,-352"/>
<text xml:space="preserve" text-anchor="start" x="37.25" y="-338.5" font-family="Helvetica,sans-Serif" font-size="10.00">depicture_menu::cs</text>
<text xml:space="preserve" text-anchor="start" x="37.25" y="-326.5" font-family="Helvetica,sans-Serif" font-size="10.00">_binding::observer::</text>
<text xml:space="preserve" text-anchor="start" x="37.25" y="-314.5" font-family="Helvetica,sans-Serif" font-size="10.00">detail_observer::cfg</text>
<text xml:space="preserve" text-anchor="middle" x="82.25" y="-302.5" font-family="Helvetica,sans-Serif" font-size="10.00">_observer::operator()</text>
</a>
</g>
</g>
<!-- Node3&#45;&gt;Node7 -->
<g id="edge6_Node000003_Node000007" class="edge">
<title>Node3&#45;&gt;Node7</title>
<g id="a_edge6_Node000003_Node000007"><a xlink:title=" ">
<path fill="none" stroke="#63b8ff" d="M206.95,-299.61C183.71,-304.19 157.74,-309.31 135.62,-313.67"/>
<polygon fill="#63b8ff" stroke="#63b8ff" points="207.49,-303.07 216.63,-297.7 206.14,-296.2 207.49,-303.07"/>
</a>
</g>
</g>
<!-- Node8 -->
<g id="Node000008" class="node">
<title>Node8</title>
<g id="a_Node000008"><a xlink:href="structdepicture__menu_1_1cs__binding_1_1observer_1_1detail__observer_1_1cfg__observer.html#a9ee87a59abe50cc9c3862ad2cef0c00c" target="_top" xlink:title=" ">
<polygon fill="white" stroke="#666666" points="135.25,-278 29.25,-278 29.25,-222 135.25,-222 135.25,-278"/>
<text xml:space="preserve" text-anchor="start" x="37.25" y="-264.5" font-family="Helvetica,sans-Serif" font-size="10.00">depicture_menu::cs</text>
<text xml:space="preserve" text-anchor="start" x="37.25" y="-252.5" font-family="Helvetica,sans-Serif" font-size="10.00">_binding::observer::</text>
<text xml:space="preserve" text-anchor="start" x="37.25" y="-240.5" font-family="Helvetica,sans-Serif" font-size="10.00">detail_observer::cfg</text>
<text xml:space="preserve" text-anchor="middle" x="82.25" y="-228.5" font-family="Helvetica,sans-Serif" font-size="10.00">_observer::operator()</text>
</a>
</g>
</g>
<!-- Node3&#45;&gt;Node8 -->
<g id="edge7_Node000003_Node000008" class="edge">
<title>Node3&#45;&gt;Node8</title>
<g id="a_edge7_Node000003_Node000008"><a xlink:title=" ">
<path fill="none" stroke="#63b8ff" d="M206.95,-274.39C183.71,-269.81 157.74,-264.69 135.62,-260.33"/>
<polygon fill="#63b8ff" stroke="#63b8ff" points="206.14,-277.8 216.63,-276.3 207.49,-270.93 206.14,-277.8"/>
</a>
</g>
</g>
<!-- Node9 -->
<g id="Node000009" class="node">
<title>Node9</title>
<g id="a_Node000009"><a xlink:href="structdepicture__menu_1_1cs__binding_1_1observer_1_1detail__observer_1_1cfg__observer.html#a0572b1cd28952a7fb45cf72ce14ffb85" target="_top" xlink:title=" ">
<polygon fill="white" stroke="#666666" points="135.25,-204 29.25,-204 29.25,-148 135.25,-148 135.25,-204"/>
<text xml:space="preserve" text-anchor="start" x="37.25" y="-190.5" font-family="Helvetica,sans-Serif" font-size="10.00">depicture_menu::cs</text>
<text xml:space="preserve" text-anchor="start" x="37.25" y="-178.5" font-family="Helvetica,sans-Serif" font-size="10.00">_binding::observer::</text>
<text xml:space="preserve" text-anchor="start" x="37.25" y="-166.5" font-family="Helvetica,sans-Serif" font-size="10.00">detail_observer::cfg</text>
<text xml:space="preserve" text-anchor="middle" x="82.25" y="-154.5" font-family="Helvetica,sans-Serif" font-size="10.00">_observer::operator()</text>
</a>
</g>
</g>
<!-- Node3&#45;&gt;Node9 -->
<g id="edge8_Node000003_Node000009" class="edge">
<title>Node3&#45;&gt;Node9</title>
<g id="a_edge8_Node000003_Node000009"><a xlink:title=" ">
<path fill="none" stroke="#63b8ff" d="M248.58,-269.71C227.57,-253.86 194.88,-230.3 164.5,-213 155.34,-207.79 145.31,-202.73 135.53,-198.12"/>
<polygon fill="#63b8ff" stroke="#63b8ff" points="246.34,-272.41 256.42,-275.69 250.59,-266.84 246.34,-272.41"/>
</a>
</g>
</g>
<!-- Node10 -->
<g id="Node000010" class="node">
<title>Node10</title>
<g id="a_Node000010"><a xlink:href="structdepicture__menu_1_1cs__binding_1_1observer_1_1detail__observer_1_1cfg__observer.html#ad7fb546fa932134b201bd871e74a123e" target="_top" xlink:title=" ">
<polygon fill="white" stroke="#666666" points="135.25,-130 29.25,-130 29.25,-74 135.25,-74 135.25,-130"/>
<text xml:space="preserve" text-anchor="start" x="37.25" y="-116.5" font-family="Helvetica,sans-Serif" font-size="10.00">depicture_menu::cs</text>
<text xml:space="preserve" text-anchor="start" x="37.25" y="-104.5" font-family="Helvetica,sans-Serif" font-size="10.00">_binding::observer::</text>
<text xml:space="preserve" text-anchor="start" x="37.25" y="-92.5" font-family="Helvetica,sans-Serif" font-size="10.00">detail_observer::cfg</text>
<text xml:space="preserve" text-anchor="middle" x="82.25" y="-80.5" font-family="Helvetica,sans-Serif" font-size="10.00">_observer::operator()</text>
</a>
</g>
</g>
<!-- Node3&#45;&gt;Node10 -->
<g id="edge9_Node000003_Node000010" class="edge">
<title>Node3&#45;&gt;Node10</title>
<g id="a_edge9_Node000003_Node000010"><a xlink:title=" ">
<path fill="none" stroke="#63b8ff" d="M260.66,-266.51C244.22,-235.31 209.15,-175.66 164.5,-139 155.88,-131.92 145.67,-125.89 135.47,-120.89"/>
<polygon fill="#63b8ff" stroke="#63b8ff" points="257.48,-267.98 265.17,-275.27 263.71,-264.78 257.48,-267.98"/>
</a>
</g>
</g>
<!-- Node11 -->
<g id="Node000011" class="node">
<title>Node11</title>
<g id="a_Node000011"><a xlink:href="structdepicture__menu_1_1cs__binding_1_1observer_1_1detail__observer_1_1cfg__observer.html#a943ebef7618ecff0cc0eeab0267f766f" target="_top" xlink:title=" ">
<polygon fill="white" stroke="#666666" points="135.25,-56 29.25,-56 29.25,0 135.25,0 135.25,-56"/>
<text xml:space="preserve" text-anchor="start" x="37.25" y="-42.5" font-family="Helvetica,sans-Serif" font-size="10.00">depicture_menu::cs</text>
<text xml:space="preserve" text-anchor="start" x="37.25" y="-30.5" font-family="Helvetica,sans-Serif" font-size="10.00">_binding::observer::</text>
<text xml:space="preserve" text-anchor="start" x="37.25" y="-18.5" font-family="Helvetica,sans-Serif" font-size="10.00">detail_observer::cfg</text>
<text xml:space="preserve" text-anchor="middle" x="82.25" y="-6.5" font-family="Helvetica,sans-Serif" font-size="10.00">_observer::operator()</text>
</a>
</g>
</g>
<!-- Node3&#45;&gt;Node11 -->
<g id="edge10_Node000003_Node000011" class="edge">
<title>Node3&#45;&gt;Node11</title>
<g id="a_edge10_Node000003_Node000011"><a xlink:title=" ">
<path fill="none" stroke="#63b8ff" d="M265.89,-265.59C254.79,-222.31 224.21,-123.56 164.5,-65 156.31,-56.97 146.07,-50.49 135.64,-45.34"/>
<polygon fill="#63b8ff" stroke="#63b8ff" points="262.47,-266.34 268.25,-275.22 269.27,-264.68 262.47,-266.34"/>
</a>
</g>
</g>
</g>
</svg>

<g id="navigator" transform="translate(0 0)" fill="#404254">
  <rect fill="#f2f5e9" fill-opacity="0.5" stroke="#606060" stroke-width=".5" x="0" y="0" width="60" height="60"/>
  <use id="zoomplus" xlink:href="#zoomPlus" x="17" y="9" onmousedown="handleZoom(evt,'in')"/>
  <use id="zoomminus" xlink:href="#zoomMin" x="42" y="9" onmousedown="handleZoom(evt,'out')"/>
  <use id="reset" xlink:href="#resetDef" x="30" y="36" onmousedown="handleReset()"/>
   <use id="arrowup" xlink:href="#arrowUp" x="0" y="0" onmousedown="handlePan(0,-1)"/>
  <use id="arrowright" xlink:href="#arrowRight" x="0" y="0" onmousedown="handlePan(1,0)"/>
  <use id="arrowdown" xlink:href="#arrowDown" x="0" y="0" onmousedown="handlePan(0,1)"/>
  <use id="arrowleft" xlink:href="#arrowLeft" x="0" y="0" onmousedown="handlePan(-1,0)"/>
</g>
<svg viewBox="0 0 15 15" width="100%" height="30px" preserveAspectRatio="xMaxYMin meet">
 <g id="arrow_out" transform="scale(0.3 0.3)">
  <a xlink:href="namespacedetail_a8aee8542a8e50ac503aeda7f2e247b33_icgraph_org.svg" target="_base">
   <rect id="button" ry="5" rx="5" y="6" x="6" height="38" width="38"
        fill="#f2f5e9" fill-opacity="0.5" stroke="#606060" stroke-width="1.0"/>
   <path id="arrow"
     d="M 11.500037,31.436501 C 11.940474,20.09759 22.043105,11.32322 32.158766,21.979434 L 37.068811,17.246167 C 37.068811,17.246167 37.088388,32 37.088388,32 L 22.160133,31.978069 C 22.160133,31.978069 26.997745,27.140456 26.997745,27.140456 C 18.528582,18.264221 13.291696,25.230495 11.500037,31.436501 z"
     style="fill:#404040;"/>
  </a>
 </g>
</svg>

<style type='text/css'>
<![CDATA[
[data-mouse-over-selected='false'] { opacity: 0.7; }
[data-mouse-over-selected='true']  { opacity: 1.0; }
]]>
</style>
<script type="application/ecmascript"><![CDATA[
document.addEventListener('DOMContentLoaded', (event) => {
  highlightEdges();
  highlightAdjacentNodes();
});
]]></script>
</svg>
