<?xml version="1.0" encoding="UTF-8" standalone="no"?>
<!DOCTYPE svg PUBLIC "-//W3C//DTD SVG 1.1//EN"
 "http://www.w3.org/Graphics/SVG/1.1/DTD/svg11.dtd">
<!-- Generated by graphviz version 14.1.2 (20260124.0452)
 -->
<!-- Title: depicture_menu::domain::common::helper::transform_rgb Pages: 1 -->
<svg width="324pt" height="290pt"
 viewBox="0.00 0.00 324.00 290.00" xmlns="http://www.w3.org/2000/svg" xmlns:xlink="http://www.w3.org/1999/xlink">
<g id="graph0" class="graph" transform="scale(1 1) rotate(0) translate(4 286)">
<title>depicture_menu::domain::common::helper::transform_rgb</title>
<!-- Node1 -->
<g id="Node000001" class="node">
<title>Node1</title>
<g id="a_Node000001"><a xlink:title="RGB各チャンネル毎の射影ヘルパー">
<polygon fill="#999999" stroke="#666666" points="157.75,-157 0,-157 0,-125 157.75,-125 157.75,-157"/>
<text xml:space="preserve" text-anchor="start" x="8" y="-143.5" font-family="Helvetica,sans-Serif" font-size="10.00">depicture_menu::domain</text>
<text xml:space="preserve" text-anchor="middle" x="78.88" y="-131.5" font-family="Helvetica,sans-Serif" font-size="10.00">::common::helper::transform_rgb</text>
</a>
</g>
</g>
<!-- Node2 -->
<g id="Node000002" class="node">
<title>Node2</title>
<g id="a_Node000002"><a xlink:href="namespacedepicture__menu_1_1domain_1_1common.html#a45530f48fa4d5ac4595cc9c279263846" target="_top" xlink:title=" ">
<polygon fill="white" stroke="#666666" points="316.25,-282 193.75,-282 193.75,-250 316.25,-250 316.25,-282"/>
<text xml:space="preserve" text-anchor="start" x="201.75" y="-268.5" font-family="Helvetica,sans-Serif" font-size="10.00">depicture_menu::domain</text>
<text xml:space="preserve" text-anchor="middle" x="255" y="-256.5" font-family="Helvetica,sans-Serif" font-size="10.00">::common::get_blue</text>
</a>
</g>
</g>
<!-- Node1&#45;&gt;Node2 -->
<g id="edge1_Node000001_Node000002" class="edge">
<title>Node1&#45;&gt;Node2</title>
<g id="a_edge1_Node000001_Node000002"><a xlink:title=" ">
<path fill="none" stroke="#63b8ff" d="M95.12,-157.39C115.8,-178.87 154.66,-216.66 193.75,-241 195.62,-242.17 197.56,-243.3 199.55,-244.4"/>
<polygon fill="#63b8ff" stroke="#63b8ff" points="197.88,-247.48 208.37,-248.92 201.06,-241.25 197.88,-247.48"/>
</a>
</g>
</g>
<!-- Node3 -->
<g id="Node000003" class="node">
<title>Node3</title>
<g id="a_Node000003"><a xlink:href="namespacedepicture__menu_1_1domain_1_1common.html#ae234959f503d97b8bc6352178b766dd9" target="_top" xlink:title=" ">
<polygon fill="white" stroke="#666666" points="316.25,-232 193.75,-232 193.75,-200 316.25,-200 316.25,-232"/>
<text xml:space="preserve" text-anchor="start" x="201.75" y="-218.5" font-family="Helvetica,sans-Serif" font-size="10.00">depicture_menu::domain</text>
<text xml:space="preserve" text-anchor="middle" x="255" y="-206.5" font-family="Helvetica,sans-Serif" font-size="10.00">::common::get_green</text>
</a>
</g>
</g>
<!-- Node1&#45;&gt;Node3 -->
<g id="edge2_Node000001_Node000003" class="edge">
<title>Node1&#45;&gt;Node3</title>
<g id="a_edge2_Node000001_Node000003"><a xlink:title=" ">
<path fill="none" stroke="#63b8ff" d="M116.72,-157.4C138.97,-167.26 167.94,-179.98 193.75,-191 196.93,-192.36 200.2,-193.75 203.51,-195.14"/>
<polygon fill="#63b8ff" stroke="#63b8ff" points="202.12,-198.35 212.69,-198.99 204.82,-191.89 202.12,-198.35"/>
</a>
</g>
</g>
<!-- Node4 -->
<g id="Node000004" class="node">
<title>Node4</title>
<g id="a_Node000004"><a xlink:href="namespacedepicture__menu_1_1domain_1_1common.html#ac64a5f4b93851c489aeaab246bb04cfa" target="_top" xlink:title=" ">
<polygon fill="white" stroke="#666666" points="316.25,-182 193.75,-182 193.75,-150 316.25,-150 316.25,-182"/>
<text xml:space="preserve" text-anchor="start" x="201.75" y="-168.5" font-family="Helvetica,sans-Serif" font-size="10.00">depicture_menu::domain</text>
<text xml:space="preserve" text-anchor="middle" x="255" y="-156.5" font-family="Helvetica,sans-Serif" font-size="10.00">::common::get_red</text>
</a>
</g>
</g>
<!-- Node1&#45;&gt;Node4 -->
<g id="edge3_Node000001_Node000004" class="edge">
<title>Node1&#45;&gt;Node4</title>
<g id="a_edge3_Node000001_Node000004"><a xlink:title=" ">
<path fill="none" stroke="#63b8ff" d="M158.02,-152.22C166.07,-153.38 174.23,-154.55 182.2,-155.69"/>
<polygon fill="#63b8ff" stroke="#63b8ff" points="181.44,-159.12 191.83,-157.07 182.43,-152.19 181.44,-159.12"/>
</a>
</g>
</g>
<!-- Node5 -->
<g id="Node000005" class="node">
<title>Node5</title>
<g id="a_Node000005"><a xlink:href="namespacedepicture__menu_1_1domain_1_1common.html#ac550f0a2aeea2bcbe42f98d354742419" target="_top" xlink:title=" ">
<polygon fill="white" stroke="#666666" points="316.25,-132 193.75,-132 193.75,-100 316.25,-100 316.25,-132"/>
<text xml:space="preserve" text-anchor="start" x="201.75" y="-118.5" font-family="Helvetica,sans-Serif" font-size="10.00">depicture_menu::domain</text>
<text xml:space="preserve" text-anchor="middle" x="255" y="-106.5" font-family="Helvetica,sans-Serif" font-size="10.00">::common::set_blue</text>
</a>
</g>
</g>
<!-- Node1&#45;&gt;Node5 -->
<g id="edge4_Node000001_Node000005" class="edge">
<title>Node1&#45;&gt;Node5</title>
<g id="a_edge4_Node000001_Node000005"><a xlink:title=" ">
<path fill="none" stroke="#63b8ff" d="M158.02,-129.78C166.07,-128.62 174.23,-127.45 182.2,-126.31"/>
<polygon fill="#63b8ff" stroke="#63b8ff" points="182.43,-129.81 191.83,-124.93 181.44,-122.88 182.43,-129.81"/>
</a>
</g>
</g>
<!-- Node6 -->
<g id="Node000006" class="node">
<title>Node6</title>
<g id="a_Node000006"><a xlink:href="namespacedepicture__menu_1_1domain_1_1common.html#a8be59216e1b3b8a23be94027b5f2b2c0" target="_top" xlink:title=" ">
<polygon fill="white" stroke="#666666" points="316.25,-82 193.75,-82 193.75,-50 316.25,-50 316.25,-82"/>
<text xml:space="preserve" text-anchor="start" x="201.75" y="-68.5" font-family="Helvetica,sans-Serif" font-size="10.00">depicture_menu::domain</text>
<text xml:space="preserve" text-anchor="middle" x="255" y="-56.5" font-family="Helvetica,sans-Serif" font-size="10.00">::common::set_green</text>
</a>
</g>
</g>
<!-- Node1&#45;&gt;Node6 -->
<g id="edge5_Node000001_Node000006" class="edge">
<title>Node1&#45;&gt;Node6</title>
<g id="a_edge5_Node000001_Node000006"><a xlink:title=" ">
<path fill="none" stroke="#63b8ff" d="M116.72,-124.6C138.97,-114.74 167.94,-102.02 193.75,-91 196.93,-89.64 200.2,-88.25 203.51,-86.86"/>
<polygon fill="#63b8ff" stroke="#63b8ff" points="204.82,-90.11 212.69,-83.01 202.12,-83.65 204.82,-90.11"/>
</a>
</g>
</g>
<!-- Node7 -->
<g id="Node000007" class="node">
<title>Node7</title>
<g id="a_Node000007"><a xlink:href="namespacedepicture__menu_1_1domain_1_1common.html#ab01e3a23c6f9d6f4b1f6b246c95e534c" target="_top" xlink:title=" ">
<polygon fill="white" stroke="#666666" points="316.25,-32 193.75,-32 193.75,0 316.25,0 316.25,-32"/>
<text xml:space="preserve" text-anchor="start" x="201.75" y="-18.5" font-family="Helvetica,sans-Serif" font-size="10.00">depicture_menu::domain</text>
<text xml:space="preserve" text-anchor="middle" x="255" y="-6.5" font-family="Helvetica,sans-Serif" font-size="10.00">::common::set_red</text>
</a>
</g>
</g>
<!-- Node1&#45;&gt;Node7 -->
<g id="edge6_Node000001_Node000007" class="edge">
<title>Node1&#45;&gt;Node7</title>
<g id="a_edge6_Node000001_Node000007"><a xlink:title=" ">
<path fill="none" stroke="#63b8ff" d="M95.12,-124.61C115.8,-103.13 154.66,-65.34 193.75,-41 195.62,-39.83 197.56,-38.7 199.55,-37.6"/>
<polygon fill="#63b8ff" stroke="#63b8ff" points="201.06,-40.75 208.37,-33.08 197.88,-34.52 201.06,-40.75"/>
</a>
</g>
</g>
</g>
</svg>
