<?xml version="1.0" encoding="UTF-8" standalone="no"?>
<!DOCTYPE svg PUBLIC "-//W3C//DTD SVG 1.1//EN"
 "http://www.w3.org/Graphics/SVG/1.1/DTD/svg11.dtd">
<!-- Generated by graphviz version 14.1.2 (20260124.0452)
 -->
<!-- Title: depicture_menu::util::enum_to_string Pages: 1 -->
<svg width="632pt" height="90pt"
 viewBox="0.00 0.00 632.00 90.00" xmlns="http://www.w3.org/2000/svg" xmlns:xlink="http://www.w3.org/1999/xlink">
<g id="graph0" class="graph" transform="scale(1 1) rotate(0) translate(4 86)">
<title>depicture_menu::util::enum_to_string</title>
<!-- Node1 -->
<g id="Node000001" class="node">
<title>Node1</title>
<g id="a_Node000001"><a xlink:title=" ">
<polygon fill="#999999" stroke="#666666" points="624.25,-51 520.5,-51 520.5,-19 624.25,-19 624.25,-51"/>
<text xml:space="preserve" text-anchor="start" x="528.5" y="-37.5" font-family="Helvetica,sans-Serif" font-size="10.00">depicture_menu::util</text>
<text xml:space="preserve" text-anchor="middle" x="572.38" y="-25.5" font-family="Helvetica,sans-Serif" font-size="10.00">::enum_to_string</text>
</a>
</g>
</g>
<!-- Node2 -->
<g id="Node000002" class="node">
<title>Node2</title>
<g id="a_Node000002"><a xlink:href="structdepicture__menu_1_1usecase_1_1menu__item__sync.html#afb802cc384c318b18ff8e16e92b8fb8b" target="_top" xlink:title=" ">
<polygon fill="white" stroke="#666666" points="479.25,-82 350,-82 350,-38 479.25,-38 479.25,-82"/>
<text xml:space="preserve" text-anchor="start" x="358" y="-68.5" font-family="Helvetica,sans-Serif" font-size="10.00">depicture_menu::usecase</text>
<text xml:space="preserve" text-anchor="start" x="358" y="-56.5" font-family="Helvetica,sans-Serif" font-size="10.00">::menu_item_sync::create</text>
<text xml:space="preserve" text-anchor="middle" x="414.62" y="-44.5" font-family="Helvetica,sans-Serif" font-size="10.00">_new_command</text>
</a>
</g>
</g>
<!-- Node1&#45;&gt;Node2 -->
<g id="edge1_Node000001_Node000002" class="edge">
<title>Node1&#45;&gt;Node2</title>
<g id="a_edge1_Node000001_Node000002"><a xlink:title=" ">
<path fill="none" stroke="#63b8ff" d="M509.14,-44.99C499.4,-46.55 489.32,-48.17 479.55,-49.74"/>
<polygon fill="#63b8ff" stroke="#63b8ff" points="509.56,-48.47 518.88,-43.43 508.45,-41.55 509.56,-48.47"/>
</a>
</g>
</g>
<!-- Node5 -->
<g id="Node000005" class="node">
<title>Node5</title>
<g id="a_Node000005"><a xlink:href="deploy__default__setting_8cpp.html#aba78e86894e6ff450c033d1939b96031" target="_top" xlink:title=" ">
<polygon fill="white" stroke="#666666" points="484.5,-20 344.75,-20 344.75,0 484.5,0 484.5,-20"/>
<text xml:space="preserve" text-anchor="middle" x="414.62" y="-6.5" font-family="Helvetica,sans-Serif" font-size="10.00">setup_application_command</text>
</a>
</g>
</g>
<!-- Node1&#45;&gt;Node5 -->
<g id="edge4_Node000001_Node000005" class="edge">
<title>Node1&#45;&gt;Node5</title>
<g id="a_edge4_Node000001_Node000005"><a xlink:title=" ">
<path fill="none" stroke="#63b8ff" d="M509.22,-25.02C499.92,-23.53 490.3,-21.99 480.94,-20.48"/>
<polygon fill="#63b8ff" stroke="#63b8ff" points="508.45,-28.45 518.88,-26.57 509.56,-21.53 508.45,-28.45"/>
</a>
</g>
</g>
<!-- Node3 -->
<g id="Node000003" class="node">
<title>Node3</title>
<g id="a_Node000003"><a xlink:href="structdepicture__menu_1_1usecase_1_1menu__item__sync.html#ad4a294098777093d4900b371810b3842" target="_top" xlink:title=" ">
<polygon fill="white" stroke="#666666" points="308.75,-82 179.5,-82 179.5,-38 308.75,-38 308.75,-82"/>
<text xml:space="preserve" text-anchor="start" x="187.5" y="-68.5" font-family="Helvetica,sans-Serif" font-size="10.00">depicture_menu::usecase</text>
<text xml:space="preserve" text-anchor="start" x="187.5" y="-56.5" font-family="Helvetica,sans-Serif" font-size="10.00">::menu_item_sync::create</text>
<text xml:space="preserve" text-anchor="middle" x="244.12" y="-44.5" font-family="Helvetica,sans-Serif" font-size="10.00">_new_action</text>
</a>
</g>
</g>
<!-- Node2&#45;&gt;Node3 -->
<g id="edge2_Node000002_Node000003" class="edge">
<title>Node2&#45;&gt;Node3</title>
<g id="a_edge2_Node000002_Node000003"><a xlink:title=" ">
<path fill="none" stroke="#63b8ff" d="M338.54,-60C328.74,-60 318.79,-60 309.2,-60"/>
<polygon fill="#63b8ff" stroke="#63b8ff" points="338.41,-63.5 348.41,-60 338.41,-56.5 338.41,-63.5"/>
</a>
</g>
</g>
<!-- Node4 -->
<g id="Node000004" class="node">
<title>Node4</title>
<g id="a_Node000004"><a xlink:href="structdepicture__menu_1_1usecase_1_1menu__item__sync.html#a9fd674e4ea4f37a1275b7fcf15ad2ae5" target="_top" xlink:title=" ">
<polygon fill="white" stroke="#666666" points="143.5,-76 0,-76 0,-44 143.5,-44 143.5,-76"/>
<text xml:space="preserve" text-anchor="start" x="8" y="-62.5" font-family="Helvetica,sans-Serif" font-size="10.00">depicture_menu::usecase</text>
<text xml:space="preserve" text-anchor="middle" x="71.75" y="-50.5" font-family="Helvetica,sans-Serif" font-size="10.00">::menu_item_sync::operator()</text>
</a>
</g>
</g>
<!-- Node3&#45;&gt;Node4 -->
<g id="edge3_Node000003_Node000004" class="edge">
<title>Node3&#45;&gt;Node4</title>
<g id="a_edge3_Node000003_Node000004"><a xlink:title=" ">
<path fill="none" stroke="#63b8ff" d="M167.71,-60C159.8,-60 151.76,-60 143.9,-60"/>
<polygon fill="#63b8ff" stroke="#63b8ff" points="167.69,-63.5 177.69,-60 167.69,-56.5 167.69,-63.5"/>
</a>
</g>
</g>
</g>
</svg>
