<?xml version="1.0" encoding="UTF-8" standalone="no"?>
<!DOCTYPE svg PUBLIC "-//W3C//DTD SVG 1.1//EN"
 "http://www.w3.org/Graphics/SVG/1.1/DTD/svg11.dtd">
<!-- Generated by graphviz version 14.1.2 (20260124.0452)
 -->
<!-- Title: depicture_menu::applications::backup_json::write_backup_json Pages: 1 -->
<!--zoomable 712 -->

<svg id="main" version="1.1" xmlns="http://www.w3.org/2000/svg" xmlns:xlink="http://www.w3.org/1999/xlink" xml:space="preserve" onload="init(evt)">

<style type="text/css"><![CDATA[
.node, .edge {opacity: 0.7;}
.node.selected, .edge.selected {opacity: 1;}
.edge:hover path { stroke: red; }
.edge:hover polygon { stroke: red; fill: red; }
]]></style>

<defs>
  <circle id="rim" cx="0" cy="0" r="7"/>
  <circle id="rim2" cx="0" cy="0" r="3.5"/>
  <g id="zoomPlus">
    <use xlink:href="#rim" fill="#404040"><set attributeName="fill" to="#808080" begin="zoomplus.mouseover" end="zoomplus.mouseout"/></use>
    <path d="M-4,0h8M0,-4v8" fill="none" stroke="white" stroke-width="1.5" pointer-events="none"/>
  </g>
  <g id="zoomMin">
    <use xlink:href="#rim" fill="#404040"><set attributeName="fill" to="#808080" begin="zoomminus.mouseover" end="zoomminus.mouseout"/></use>
    <path d="M-4,0h8" fill="none" stroke="white" stroke-width="1.5" pointer-events="none"/>
  </g>
  <g id="arrowUp" transform="translate(30 24)">
    <use xlink:href="#rim"/>
    <path pointer-events="none" fill="none" stroke="white" stroke-width="1.5" d="M0,-3.0v7 M-2.5,-0.5L0,-3.0L2.5,-0.5"/>
  </g>
  <g id="arrowRight" transform="rotate(90) translate(36 -43)">
    <use xlink:href="#rim"/>
    <path pointer-events="none" fill="none" stroke="white" stroke-width="1.5" d="M0,-3.0v7 M-2.5,-0.5L0,-3.0L2.5,-0.5"/>
  </g>
  <g id="arrowDown" transform="rotate(180) translate(-30 -48)">
    <use xlink:href="#rim"/>
    <path pointer-events="none" fill="none" stroke="white" stroke-width="1.5" d="M0,-3.0v7 M-2.5,-0.5L0,-3.0L2.5,-0.5"/>
  </g>
  <g id="arrowLeft" transform="rotate(270) translate(-36 17)">
    <use xlink:href="#rim"/>
    <path pointer-events="none" fill="none" stroke="white" stroke-width="1.5" d="M0,-3.0v7 M-2.5,-0.5L0,-3.0L2.5,-0.5"/>
  </g>
  <g id="resetDef">
    <use xlink:href="#rim2" fill="#404040"><set attributeName="fill" to="#808080" begin="reset.mouseover" end="reset.mouseout"/></use>
  </g>
</defs>
<script type="application/ecmascript">
var viewWidth = 541;
var viewHeight = 712;
var sectionId = 'dynsection-6';
</script>
<script type="application/ecmascript" xlink:href="svg.min.js"/>
<svg id="graph" class="graph">
<g id="viewport">
<title>depicture_menu::applications::backup_json::write_backup_json</title>
<!-- Node1 -->
<g id="Node000001" class="node">
<title>Node1</title>
<g id="a_Node000001"><a xlink:title=" ">
<polygon fill="#999999" stroke="#666666" points="532.5,-343 368.75,-343 368.75,-311 532.5,-311 532.5,-343"/>
<text xml:space="preserve" text-anchor="start" x="376.75" y="-329.5" font-family="Helvetica,sans-Serif" font-size="10.00">depicture_menu::applications</text>
<text xml:space="preserve" text-anchor="middle" x="450.62" y="-317.5" font-family="Helvetica,sans-Serif" font-size="10.00">::backup_json::write_backup_json</text>
</a>
</g>
</g>
<!-- Node1&#45;&gt;Node1 -->
<g id="edge22_Node000001_Node000001" class="edge">
<title>Node1&#45;&gt;Node1</title>
<g id="a_edge22_Node000001_Node000001"><a xlink:title=" ">
<path fill="none" stroke="#63b8ff" d="M482.73,-354.71C477.37,-358.48 466.67,-361 450.62,-361 421.28,-361 409.82,-352.58 416.24,-343.44"/>
<polygon fill="#63b8ff" stroke="#63b8ff" points="486.15,-355.42 484.71,-344.93 479.29,-354.03 486.15,-355.42"/>
</a>
</g>
</g>
<!-- Node2 -->
<g id="Node000002" class="node">
<title>Node2</title>
<g id="a_Node000002"><a xlink:href="_test_backup_json_8cpp.html#ac60c25c7e7fe69dfd220f4fb5bc17c5d" target="_top" xlink:title="test_write_backup_json : TestCase">
<polygon fill="white" stroke="#666666" points="331.62,-362 184.38,-362 184.38,-342 331.62,-342 331.62,-362"/>
<text xml:space="preserve" text-anchor="middle" x="258" y="-348.5" font-family="Helvetica,sans-Serif" font-size="10.00">BOOST_AUTO_TEST_CASE</text>
</a>
</g>
</g>
<!-- Node1&#45;&gt;Node2 -->
<g id="edge1_Node000001_Node000002" class="edge">
<title>Node1&#45;&gt;Node2</title>
<g id="a_edge1_Node000001_Node000002"><a xlink:title=" ">
<path fill="none" stroke="#63b8ff" d="M357.33,-339.1C348.79,-340.22 340.22,-341.35 331.9,-342.44"/>
<polygon fill="#63b8ff" stroke="#63b8ff" points="357.55,-342.61 367.01,-337.84 356.64,-335.67 357.55,-342.61"/>
</a>
</g>
</g>
<!-- Node22 -->
<g id="Node000022" class="node">
<title>Node22</title>
<g id="a_Node000022"><a xlink:href="classdepicture__menu_1_1presentations_1_1backup__data__presenter.html#a16c97ba76635f9027ebb6b6c93098632" target="_top" xlink:title=" ">
<polygon fill="white" stroke="#666666" points="332.75,-324 183.25,-324 183.25,-280 332.75,-280 332.75,-324"/>
<text xml:space="preserve" text-anchor="start" x="191.25" y="-310.5" font-family="Helvetica,sans-Serif" font-size="10.00">depicture_menu::presentations</text>
<text xml:space="preserve" text-anchor="start" x="191.25" y="-298.5" font-family="Helvetica,sans-Serif" font-size="10.00">::backup_data_presenter::</text>
<text xml:space="preserve" text-anchor="middle" x="258" y="-286.5" font-family="Helvetica,sans-Serif" font-size="10.00">export_data</text>
</a>
</g>
</g>
<!-- Node1&#45;&gt;Node22 -->
<g id="edge21_Node000001_Node000022" class="edge">
<title>Node1&#45;&gt;Node22</title>
<g id="a_edge21_Node000001_Node000022"><a xlink:title=" ">
<path fill="none" stroke="#63b8ff" d="M357.14,-314.87C349.08,-313.81 340.98,-312.75 333.09,-311.72"/>
<polygon fill="#63b8ff" stroke="#63b8ff" points="356.64,-318.33 367.01,-316.16 357.55,-311.39 356.64,-318.33"/>
</a>
</g>
</g>
<!-- Node3 -->
<g id="Node000003" class="node">
<title>Node3</title>
<g id="a_Node000003"><a xlink:href="_testvtbl_8cpp.html#a61606f35cd51509a4eb3fd7cd16e1407" target="_top" xlink:title=" ">
<polygon fill="white" stroke="#666666" points="147.25,-704 0,-704 0,-684 147.25,-684 147.25,-704"/>
<text xml:space="preserve" text-anchor="middle" x="73.62" y="-690.5" font-family="Helvetica,sans-Serif" font-size="10.00">BOOST_AUTO_TEST_CASE</text>
</a>
</g>
</g>
<!-- Node2&#45;&gt;Node3 -->
<g id="edge2_Node000002_Node000003" class="edge">
<title>Node2&#45;&gt;Node3</title>
<g id="a_edge2_Node000002_Node000003"><a xlink:title=" ">
<path fill="none" stroke="#63b8ff" d="M256.35,-373.52C253.41,-431.35 237.13,-591.34 147.25,-675 143.53,-678.46 139.26,-681.31 134.69,-683.65"/>
<polygon fill="#63b8ff" stroke="#63b8ff" points="259.84,-373.88 256.76,-363.74 252.85,-373.59 259.84,-373.88"/>
</a>
</g>
</g>
<!-- Node4 -->
<g id="Node000004" class="node">
<title>Node4</title>
<g id="a_Node000004"><a xlink:href="_test_cs_binding_8cpp.html#a0246cb3f7b9bcb2bfed6bfd4959064b7" target="_top" xlink:title=" ">
<polygon fill="white" stroke="#666666" points="147.25,-666 0,-666 0,-646 147.25,-646 147.25,-666"/>
<text xml:space="preserve" text-anchor="middle" x="73.62" y="-652.5" font-family="Helvetica,sans-Serif" font-size="10.00">BOOST_AUTO_TEST_CASE</text>
</a>
</g>
</g>
<!-- Node2&#45;&gt;Node4 -->
<g id="edge3_Node000002_Node000004" class="edge">
<title>Node2&#45;&gt;Node4</title>
<g id="a_edge3_Node000002_Node000004"><a xlink:title=" ">
<path fill="none" stroke="#63b8ff" d="M255.21,-373.81C249.64,-427.13 227.77,-565.01 147.25,-637 143.36,-640.47 138.92,-643.33 134.18,-645.67"/>
<polygon fill="#63b8ff" stroke="#63b8ff" points="258.69,-374.22 256.14,-363.93 251.72,-373.56 258.69,-374.22"/>
</a>
</g>
</g>
<!-- Node5 -->
<g id="Node000005" class="node">
<title>Node5</title>
<g id="a_Node000005"><a xlink:href="test__command__line__option_8cpp.html#a0ba4ff3ec435915cea4dd0214e61051d" target="_top" xlink:title=" ">
<polygon fill="white" stroke="#666666" points="147.25,-628 0,-628 0,-608 147.25,-608 147.25,-628"/>
<text xml:space="preserve" text-anchor="middle" x="73.62" y="-614.5" font-family="Helvetica,sans-Serif" font-size="10.00">BOOST_AUTO_TEST_CASE</text>
</a>
</g>
</g>
<!-- Node2&#45;&gt;Node5 -->
<g id="edge4_Node000002_Node000005" class="edge">
<title>Node2&#45;&gt;Node5</title>
<g id="a_edge4_Node000002_Node000005"><a xlink:title=" ">
<path fill="none" stroke="#63b8ff" d="M253.82,-373.48C245.56,-421.52 218.81,-538.2 147.25,-599 143.18,-602.46 138.55,-605.3 133.64,-607.63"/>
<polygon fill="#63b8ff" stroke="#63b8ff" points="257.24,-374.26 255.38,-363.83 250.33,-373.14 257.24,-374.26"/>
</a>
</g>
</g>
<!-- Node6 -->
<g id="Node000006" class="node">
<title>Node6</title>
<g id="a_Node000006"><a xlink:href="test__list__wrapper_8cpp.html#a66d6c3d16f15aea58d158fc0ab2a2f96" target="_top" xlink:title=" ">
<polygon fill="white" stroke="#666666" points="147.25,-590 0,-590 0,-570 147.25,-570 147.25,-590"/>
<text xml:space="preserve" text-anchor="middle" x="73.62" y="-576.5" font-family="Helvetica,sans-Serif" font-size="10.00">BOOST_AUTO_TEST_CASE</text>
</a>
</g>
</g>
<!-- Node2&#45;&gt;Node6 -->
<g id="edge5_Node000002_Node000006" class="edge">
<title>Node2&#45;&gt;Node6</title>
<g id="a_edge5_Node000002_Node000006"><a xlink:title=" ">
<path fill="none" stroke="#63b8ff" d="M251.98,-373.3C240.83,-415.78 209.9,-511.21 147.25,-561 142.96,-564.41 138.13,-567.21 133.04,-569.51"/>
<polygon fill="#63b8ff" stroke="#63b8ff" points="255.37,-374.17 254.4,-363.61 248.58,-372.47 255.37,-374.17"/>
</a>
</g>
</g>
<!-- Node7 -->
<g id="Node000007" class="node">
<title>Node7</title>
<g id="a_Node000007"><a xlink:href="_test_radial_menu_8cpp.html#a959e9e54cf679eb97cc96d27c9dda4cd" target="_top" xlink:title="serialize : TestCase">
<polygon fill="white" stroke="#666666" points="147.25,-552 0,-552 0,-532 147.25,-532 147.25,-552"/>
<text xml:space="preserve" text-anchor="middle" x="73.62" y="-538.5" font-family="Helvetica,sans-Serif" font-size="10.00">BOOST_AUTO_TEST_CASE</text>
</a>
</g>
</g>
<!-- Node2&#45;&gt;Node7 -->
<g id="edge6_Node000002_Node000007" class="edge">
<title>Node2&#45;&gt;Node7</title>
<g id="a_edge6_Node000002_Node000007"><a xlink:title=" ">
<path fill="none" stroke="#63b8ff" d="M249.58,-372.67C235.49,-408.9 201.34,-483.72 147.25,-523 142.5,-526.45 137.18,-529.27 131.64,-531.58"/>
<polygon fill="#63b8ff" stroke="#63b8ff" points="252.68,-374.37 252.92,-363.78 246.13,-371.91 252.68,-374.37"/>
</a>
</g>
</g>
<!-- Node8 -->
<g id="Node000008" class="node">
<title>Node8</title>
<g id="a_Node000008"><a xlink:href="test__create__command__domain__service_8cpp.html#ad2485bcc7175bf7b37f83d9007b43a1b" target="_top" xlink:title=" ">
<polygon fill="white" stroke="#666666" points="147.25,-514 0,-514 0,-494 147.25,-494 147.25,-514"/>
<text xml:space="preserve" text-anchor="middle" x="73.62" y="-500.5" font-family="Helvetica,sans-Serif" font-size="10.00">BOOST_AUTO_TEST_CASE</text>
</a>
</g>
</g>
<!-- Node2&#45;&gt;Node8 -->
<g id="edge7_Node000002_Node000008" class="edge">
<title>Node2&#45;&gt;Node8</title>
<g id="a_edge7_Node000002_Node000008"><a xlink:title=" ">
<path fill="none" stroke="#63b8ff" d="M245.99,-372.1C228.83,-401.49 192.89,-455.85 147.25,-485 141.87,-488.44 135.89,-491.26 129.73,-493.56"/>
<polygon fill="#63b8ff" stroke="#63b8ff" points="248.99,-373.91 250.88,-363.48 242.9,-370.45 248.99,-373.91"/>
</a>
</g>
</g>
<!-- Node9 -->
<g id="Node000009" class="node">
<title>Node9</title>
<g id="a_Node000009"><a xlink:href="_test_reflection_8cpp.html#a5d695cb181db2d186de057c9a74cd53d" target="_top" xlink:title=" ">
<polygon fill="white" stroke="#666666" points="147.25,-476 0,-476 0,-456 147.25,-456 147.25,-476"/>
<text xml:space="preserve" text-anchor="middle" x="73.62" y="-462.5" font-family="Helvetica,sans-Serif" font-size="10.00">BOOST_AUTO_TEST_CASE</text>
</a>
</g>
</g>
<!-- Node2&#45;&gt;Node9 -->
<g id="edge8_Node000002_Node000009" class="edge">
<title>Node2&#45;&gt;Node9</title>
<g id="a_edge8_Node000002_Node000009"><a xlink:title=" ">
<path fill="none" stroke="#63b8ff" d="M240.6,-370.63C220.64,-392.16 184.91,-427.17 147.25,-447 140.79,-450.4 133.68,-453.22 126.52,-455.56"/>
<polygon fill="#63b8ff" stroke="#63b8ff" points="243.01,-373.19 247.13,-363.43 237.82,-368.49 243.01,-373.19"/>
</a>
</g>
</g>
<!-- Node10 -->
<g id="Node000010" class="node">
<title>Node10</title>
<g id="a_Node000010"><a xlink:href="test__list__wrapper_8cpp.html#a1129bac24b98e7981066518808acdbc9" target="_top" xlink:title="add_only : TestCase">
<polygon fill="white" stroke="#666666" points="147.25,-438 0,-438 0,-418 147.25,-418 147.25,-438"/>
<text xml:space="preserve" text-anchor="middle" x="73.62" y="-424.5" font-family="Helvetica,sans-Serif" font-size="10.00">BOOST_AUTO_TEST_CASE</text>
</a>
</g>
</g>
<!-- Node2&#45;&gt;Node10 -->
<g id="edge9_Node000002_Node000010" class="edge">
<title>Node2&#45;&gt;Node10</title>
<g id="a_edge9_Node000002_Node000010"><a xlink:title=" ">
<path fill="none" stroke="#63b8ff" d="M230.25,-368.05C208.5,-380.56 176.7,-397.67 147.25,-409 138.86,-412.23 129.71,-415.1 120.83,-417.57"/>
<polygon fill="#63b8ff" stroke="#63b8ff" points="231.89,-371.14 238.76,-363.08 228.36,-365.1 231.89,-371.14"/>
</a>
</g>
</g>
<!-- Node11 -->
<g id="Node000011" class="node">
<title>Node11</title>
<g id="a_Node000011"><a xlink:href="test__config__view_8cpp.html#a5941cee30aa5f39c1d4b1b0c2f27e4e4" target="_top" xlink:title="constroct : TestCase">
<polygon fill="white" stroke="#666666" points="147.25,-400 0,-400 0,-380 147.25,-380 147.25,-400"/>
<text xml:space="preserve" text-anchor="middle" x="73.62" y="-386.5" font-family="Helvetica,sans-Serif" font-size="10.00">BOOST_AUTO_TEST_CASE</text>
</a>
</g>
</g>
<!-- Node2&#45;&gt;Node11 -->
<g id="edge10_Node000002_Node000011" class="edge">
<title>Node2&#45;&gt;Node11</title>
<g id="a_edge10_Node000002_Node000011"><a xlink:title=" ">
<path fill="none" stroke="#63b8ff" d="M195.63,-364.79C172.58,-369.59 146.69,-374.99 124.78,-379.55"/>
<polygon fill="#63b8ff" stroke="#63b8ff" points="196.12,-368.26 205.2,-362.79 194.7,-361.41 196.12,-368.26"/>
</a>
</g>
</g>
<!-- Node12 -->
<g id="Node000012" class="node">
<title>Node12</title>
<g id="a_Node000012"><a xlink:href="test__command_8cpp.html#ad5bc5c78f070e08d314e8f313ef5f6d7" target="_top" xlink:title="construct : TestCase">
<polygon fill="white" stroke="#666666" points="147.25,-362 0,-362 0,-342 147.25,-342 147.25,-362"/>
<text xml:space="preserve" text-anchor="middle" x="73.62" y="-348.5" font-family="Helvetica,sans-Serif" font-size="10.00">BOOST_AUTO_TEST_CASE</text>
</a>
</g>
</g>
<!-- Node2&#45;&gt;Node12 -->
<g id="edge11_Node000002_Node000012" class="edge">
<title>Node2&#45;&gt;Node12</title>
<g id="a_edge11_Node000002_Node000012"><a xlink:title=" ">
<path fill="none" stroke="#63b8ff" d="M172.78,-352C164.39,-352 155.93,-352 147.67,-352"/>
<polygon fill="#63b8ff" stroke="#63b8ff" points="172.62,-355.5 182.62,-352 172.62,-348.5 172.62,-355.5"/>
</a>
</g>
</g>
<!-- Node13 -->
<g id="Node000013" class="node">
<title>Node13</title>
<g id="a_Node000013"><a xlink:href="test__c__u__notify__traits_8cpp.html#a8378f5fb29609da91bf9bfd0d2ed8c86" target="_top" xlink:title="func : TestCase">
<polygon fill="white" stroke="#666666" points="147.25,-324 0,-324 0,-304 147.25,-304 147.25,-324"/>
<text xml:space="preserve" text-anchor="middle" x="73.62" y="-310.5" font-family="Helvetica,sans-Serif" font-size="10.00">BOOST_AUTO_TEST_CASE</text>
</a>
</g>
</g>
<!-- Node2&#45;&gt;Node13 -->
<g id="edge12_Node000002_Node000013" class="edge">
<title>Node2&#45;&gt;Node13</title>
<g id="a_edge12_Node000002_Node000013"><a xlink:title=" ">
<path fill="none" stroke="#63b8ff" d="M195.63,-339.21C172.58,-334.41 146.69,-329.01 124.78,-324.45"/>
<polygon fill="#63b8ff" stroke="#63b8ff" points="194.7,-342.59 205.2,-341.21 196.12,-335.74 194.7,-342.59"/>
</a>
</g>
</g>
<!-- Node14 -->
<g id="Node000014" class="node">
<title>Node14</title>
<g id="a_Node000014"><a xlink:href="test__config__view_8cpp.html#a1702d8786d91383fdec011242489ce16" target="_top" xlink:title="menu : TestCase">
<polygon fill="white" stroke="#666666" points="147.25,-286 0,-286 0,-266 147.25,-266 147.25,-286"/>
<text xml:space="preserve" text-anchor="middle" x="73.62" y="-272.5" font-family="Helvetica,sans-Serif" font-size="10.00">BOOST_AUTO_TEST_CASE</text>
</a>
</g>
</g>
<!-- Node2&#45;&gt;Node14 -->
<g id="edge13_Node000002_Node000014" class="edge">
<title>Node2&#45;&gt;Node14</title>
<g id="a_edge13_Node000002_Node000014"><a xlink:title=" ">
<path fill="none" stroke="#63b8ff" d="M191.48,-337.29C188.64,-335.98 185.88,-334.55 183.25,-333 163.2,-321.19 167.27,-306.84 147.25,-295 141.42,-291.55 134.96,-288.72 128.37,-286.39"/>
<polygon fill="#63b8ff" stroke="#63b8ff" points="190.06,-340.49 200.64,-340.98 192.67,-333.99 190.06,-340.49"/>
</a>
</g>
</g>
<!-- Node15 -->
<g id="Node000015" class="node">
<title>Node15</title>
<g id="a_Node000015"><a xlink:href="test__process__startup__signal_8cpp.html#a4250e814da937a681e5d3d92bd61d64b" target="_top" xlink:title="open : TestCase">
<polygon fill="white" stroke="#666666" points="147.25,-248 0,-248 0,-228 147.25,-228 147.25,-248"/>
<text xml:space="preserve" text-anchor="middle" x="73.62" y="-234.5" font-family="Helvetica,sans-Serif" font-size="10.00">BOOST_AUTO_TEST_CASE</text>
</a>
</g>
</g>
<!-- Node2&#45;&gt;Node15 -->
<g id="edge14_Node000002_Node000015" class="edge">
<title>Node2&#45;&gt;Node15</title>
<g id="a_edge14_Node000002_Node000015"><a xlink:title=" ">
<path fill="none" stroke="#63b8ff" d="M187.32,-336.06C185.92,-335.1 184.56,-334.08 183.25,-333 154.43,-309.2 176.02,-280.85 147.25,-257 143.14,-253.59 138.48,-250.78 133.55,-248.48"/>
<polygon fill="#63b8ff" stroke="#63b8ff" points="185.42,-339 195.85,-340.87 188.86,-332.9 185.42,-339"/>
</a>
</g>
</g>
<!-- Node16 -->
<g id="Node000016" class="node">
<title>Node16</title>
<g id="a_Node000016"><a xlink:href="test__command_8cpp.html#ad8a3490b977b50e53d7ab6e4a45a985c" target="_top" xlink:title=" ">
<polygon fill="white" stroke="#666666" points="147.25,-210 0,-210 0,-190 147.25,-190 147.25,-210"/>
<text xml:space="preserve" text-anchor="middle" x="73.62" y="-196.5" font-family="Helvetica,sans-Serif" font-size="10.00">BOOST_AUTO_TEST_CASE</text>
</a>
</g>
</g>
<!-- Node2&#45;&gt;Node16 -->
<g id="edge15_Node000002_Node000016" class="edge">
<title>Node2&#45;&gt;Node16</title>
<g id="a_edge15_Node000002_Node000016"><a xlink:title=" ">
<path fill="none" stroke="#63b8ff" d="M186.08,-335.48C185.11,-334.69 184.16,-333.86 183.25,-333 144.68,-296.45 185.75,-255.62 147.25,-219 143.66,-215.59 139.54,-212.77 135.12,-210.44"/>
<polygon fill="#63b8ff" stroke="#63b8ff" points="184.02,-338.31 194.31,-340.83 187.83,-332.44 184.02,-338.31"/>
</a>
</g>
</g>
<!-- Node17 -->
<g id="Node000017" class="node">
<title>Node17</title>
<g id="a_Node000017"><a xlink:href="_test_snapshot_repository_8cpp.html#a65676fadbdbfe2ae84907f83b5ad539d" target="_top" xlink:title=" ">
<polygon fill="white" stroke="#666666" points="147.25,-172 0,-172 0,-152 147.25,-152 147.25,-172"/>
<text xml:space="preserve" text-anchor="middle" x="73.62" y="-158.5" font-family="Helvetica,sans-Serif" font-size="10.00">BOOST_AUTO_TEST_CASE</text>
</a>
</g>
</g>
<!-- Node2&#45;&gt;Node17 -->
<g id="edge16_Node000002_Node000017" class="edge">
<title>Node2&#45;&gt;Node17</title>
<g id="a_edge16_Node000002_Node000017"><a xlink:title=" ">
<path fill="none" stroke="#63b8ff" d="M185.51,-335.15C184.73,-334.46 183.98,-333.74 183.25,-333 134.64,-283.43 195.76,-230.66 147.25,-181 143.88,-177.55 139.97,-174.7 135.74,-172.35"/>
<polygon fill="#63b8ff" stroke="#63b8ff" points="183.17,-337.78 193.36,-340.68 187.2,-332.06 183.17,-337.78"/>
</a>
</g>
</g>
<!-- Node18 -->
<g id="Node000018" class="node">
<title>Node18</title>
<g id="a_Node000018"><a xlink:href="_test_transaction_8cpp.html#ad171980ff709b74d47119d321dc4b82e" target="_top" xlink:title=" ">
<polygon fill="white" stroke="#666666" points="147.25,-134 0,-134 0,-114 147.25,-114 147.25,-134"/>
<text xml:space="preserve" text-anchor="middle" x="73.62" y="-120.5" font-family="Helvetica,sans-Serif" font-size="10.00">BOOST_AUTO_TEST_CASE</text>
</a>
</g>
</g>
<!-- Node2&#45;&gt;Node18 -->
<g id="edge17_Node000002_Node000018" class="edge">
<title>Node2&#45;&gt;Node18</title>
<g id="a_edge17_Node000002_Node000018"><a xlink:title=" ">
<path fill="none" stroke="#63b8ff" d="M185.08,-334.84C184.45,-334.25 183.84,-333.63 183.25,-333 124.48,-270.29 205.9,-205.82 147.25,-143 144.05,-139.57 140.31,-136.73 136.25,-134.38"/>
<polygon fill="#63b8ff" stroke="#63b8ff" points="182.75,-337.47 192.87,-340.62 186.92,-331.85 182.75,-337.47"/>
</a>
</g>
</g>
<!-- Node19 -->
<g id="Node000019" class="node">
<title>Node19</title>
<g id="a_Node000019"><a xlink:href="_test_transaction_8cpp.html#a77e78089cb8cdb77c5003d624290f98f" target="_top" xlink:title="transaction_error : TestCase">
<polygon fill="white" stroke="#666666" points="147.25,-96 0,-96 0,-76 147.25,-76 147.25,-96"/>
<text xml:space="preserve" text-anchor="middle" x="73.62" y="-82.5" font-family="Helvetica,sans-Serif" font-size="10.00">BOOST_AUTO_TEST_CASE</text>
</a>
</g>
</g>
<!-- Node2&#45;&gt;Node19 -->
<g id="edge18_Node000002_Node000019" class="edge">
<title>Node2&#45;&gt;Node19</title>
<g id="a_edge18_Node000002_Node000019"><a xlink:title=" ">
<path fill="none" stroke="#63b8ff" d="M185.05,-334.87C184.44,-334.26 183.83,-333.64 183.25,-333 114.26,-257.08 216.1,-181.05 147.25,-105 144.19,-101.62 140.61,-98.81 136.7,-96.47"/>
<polygon fill="#63b8ff" stroke="#63b8ff" points="182.68,-337.46 192.76,-340.71 186.91,-331.88 182.68,-337.46"/>
</a>
</g>
</g>
<!-- Node20 -->
<g id="Node000020" class="node">
<title>Node20</title>
<g id="a_Node000020"><a xlink:href="test__c__u__notify__traits_8cpp.html#a7c2e52aaee5fe11dcd57db65c29ba8e1" target="_top" xlink:title="get_collection_accesser : TestCase">
<polygon fill="white" stroke="#666666" points="147.25,-58 0,-58 0,-38 147.25,-38 147.25,-58"/>
<text xml:space="preserve" text-anchor="middle" x="73.62" y="-44.5" font-family="Helvetica,sans-Serif" font-size="10.00">BOOST_AUTO_TEST_CASE</text>
</a>
</g>
</g>
<!-- Node2&#45;&gt;Node20 -->
<g id="edge19_Node000002_Node000020" class="edge">
<title>Node2&#45;&gt;Node20</title>
<g id="a_edge19_Node000002_Node000020"><a xlink:title=" ">
<path fill="none" stroke="#63b8ff" d="M185.03,-334.88C184.42,-334.28 183.83,-333.65 183.25,-333 104,-243.83 226.34,-156.32 147.25,-67 144.23,-63.58 140.67,-60.75 136.79,-58.4"/>
<polygon fill="#63b8ff" stroke="#63b8ff" points="182.63,-337.45 192.68,-340.78 186.9,-331.9 182.63,-337.45"/>
</a>
</g>
</g>
<!-- Node21 -->
<g id="Node000021" class="node">
<title>Node21</title>
<g id="a_Node000021"><a xlink:href="_test_atomic_mutex_8cpp.html#a8b1033a7afbd2e3b6c37b523520acadc" target="_top" xlink:title=" ">
<polygon fill="white" stroke="#666666" points="147.25,-20 0,-20 0,0 147.25,0 147.25,-20"/>
<text xml:space="preserve" text-anchor="middle" x="73.62" y="-6.5" font-family="Helvetica,sans-Serif" font-size="10.00">BOOST_AUTO_TEST_CASE</text>
</a>
</g>
</g>
<!-- Node2&#45;&gt;Node21 -->
<g id="edge20_Node000002_Node000021" class="edge">
<title>Node2&#45;&gt;Node21</title>
<g id="a_edge20_Node000002_Node000021"><a xlink:title=" ">
<path fill="none" stroke="#63b8ff" d="M184.67,-334.55C184.19,-334.04 183.71,-333.53 183.25,-333 93.72,-230.56 236.59,-131.61 147.25,-29 144.25,-25.56 140.72,-22.71 136.85,-20.34"/>
<polygon fill="#63b8ff" stroke="#63b8ff" points="182.29,-337.12 192.3,-340.61 186.65,-331.65 182.29,-337.12"/>
</a>
</g>
</g>
</g>
</svg>

<g id="navigator" transform="translate(0 0)" fill="#404254">
  <rect fill="#f2f5e9" fill-opacity="0.5" stroke="#606060" stroke-width=".5" x="0" y="0" width="60" height="60"/>
  <use id="zoomplus" xlink:href="#zoomPlus" x="17" y="9" onmousedown="handleZoom(evt,'in')"/>
  <use id="zoomminus" xlink:href="#zoomMin" x="42" y="9" onmousedown="handleZoom(evt,'out')"/>
  <use id="reset" xlink:href="#resetDef" x="30" y="36" onmousedown="handleReset()"/>
   <use id="arrowup" xlink:href="#arrowUp" x="0" y="0" onmousedown="handlePan(0,-1)"/>
  <use id="arrowright" xlink:href="#arrowRight" x="0" y="0" onmousedown="handlePan(1,0)"/>
  <use id="arrowdown" xlink:href="#arrowDown" x="0" y="0" onmousedown="handlePan(0,1)"/>
  <use id="arrowleft" xlink:href="#arrowLeft" x="0" y="0" onmousedown="handlePan(-1,0)"/>
</g>
<svg viewBox="0 0 15 15" width="100%" height="30px" preserveAspectRatio="xMaxYMin meet">
 <g id="arrow_out" transform="scale(0.3 0.3)">
  <a xlink:href="namespacedepicture__menu_1_1applications_1_1backup__json_af28aa6379e4bca50b80a3fb068f71b9e_icgraph_org.svg" target="_base">
   <rect id="button" ry="5" rx="5" y="6" x="6" height="38" width="38"
        fill="#f2f5e9" fill-opacity="0.5" stroke="#606060" stroke-width="1.0"/>
   <path id="arrow"
     d="M 11.500037,31.436501 C 11.940474,20.09759 22.043105,11.32322 32.158766,21.979434 L 37.068811,17.246167 C 37.068811,17.246167 37.088388,32 37.088388,32 L 22.160133,31.978069 C 22.160133,31.978069 26.997745,27.140456 26.997745,27.140456 C 18.528582,18.264221 13.291696,25.230495 11.500037,31.436501 z"
     style="fill:#404040;"/>
  </a>
 </g>
</svg>

<style type='text/css'>
<![CDATA[
[data-mouse-over-selected='false'] { opacity: 0.7; }
[data-mouse-over-selected='true']  { opacity: 1.0; }
]]>
</style>
<script type="application/ecmascript"><![CDATA[
document.addEventListener('DOMContentLoaded', (event) => {
  highlightEdges();
  highlightAdjacentNodes();
});
]]></script>
</svg>
