<?xml version="1.0" encoding="UTF-8" standalone="no"?>
<!DOCTYPE svg PUBLIC "-//W3C//DTD SVG 1.1//EN"
 "http://www.w3.org/Graphics/SVG/1.1/DTD/svg11.dtd">
<!-- Generated by graphviz version 14.1.2 (20260124.0452)
 -->
<!-- Title: depicture_menu::cs_binding::pre_regist Pages: 1 -->
<svg width="299pt" height="214pt"
 viewBox="0.00 0.00 299.00 214.00" xmlns="http://www.w3.org/2000/svg" xmlns:xlink="http://www.w3.org/1999/xlink">
<g id="graph0" class="graph" transform="scale(1 1) rotate(0) translate(4 210)">
<title>depicture_menu::cs_binding::pre_regist</title>
<!-- Node1 -->
<g id="Node000001" class="node">
<title>Node1</title>
<g id="a_Node000001"><a xlink:title=" ">
<polygon fill="#999999" stroke="#666666" points="290.75,-113 189.25,-113 189.25,-81 290.75,-81 290.75,-113"/>
<text xml:space="preserve" text-anchor="start" x="197.25" y="-99.5" font-family="Helvetica,sans-Serif" font-size="10.00">depicture_menu::cs</text>
<text xml:space="preserve" text-anchor="middle" x="240" y="-87.5" font-family="Helvetica,sans-Serif" font-size="10.00">_binding::pre_regist</text>
</a>
</g>
</g>
<!-- Node2 -->
<g id="Node000002" class="node">
<title>Node2</title>
<g id="a_Node000002"><a xlink:href="structdepicture__menu_1_1presentations_1_1app__option__window__presenter.html#af5a4ca652f0d6940aea82762e8870da5" target="_top" xlink:title=" ">
<polygon fill="white" stroke="#666666" points="153.25,-206 0,-206 0,-162 153.25,-162 153.25,-206"/>
<text xml:space="preserve" text-anchor="start" x="8" y="-192.5" font-family="Helvetica,sans-Serif" font-size="10.00">depicture_menu::presentations</text>
<text xml:space="preserve" text-anchor="start" x="8" y="-180.5" font-family="Helvetica,sans-Serif" font-size="10.00">::app_option_window_presenter</text>
<text xml:space="preserve" text-anchor="middle" x="76.62" y="-168.5" font-family="Helvetica,sans-Serif" font-size="10.00">::operator()</text>
</a>
</g>
</g>
<!-- Node1&#45;&gt;Node2 -->
<g id="edge1_Node000001_Node000002" class="edge">
<title>Node1&#45;&gt;Node2</title>
<g id="a_edge1_Node000001_Node000002"><a xlink:title=" ">
<path fill="none" stroke="#63b8ff" d="M207.14,-119.88C191.36,-130.67 171.76,-143.27 153.25,-153 147.6,-155.97 141.6,-158.85 135.54,-161.59"/>
<polygon fill="#63b8ff" stroke="#63b8ff" points="208.96,-122.87 215.18,-114.3 204.97,-117.12 208.96,-122.87"/>
</a>
</g>
</g>
<!-- Node3 -->
<g id="Node000003" class="node">
<title>Node3</title>
<g id="a_Node000003"><a xlink:href="test__dll__singleton__access_8cpp.html#a1e0648b59fc7dde4dea06f86e0caca18" target="_top" xlink:title=" ">
<polygon fill="white" stroke="#666666" points="132.25,-144 21,-144 21,-112 132.25,-112 132.25,-144"/>
<text xml:space="preserve" text-anchor="start" x="29" y="-130.5" font-family="Helvetica,sans-Serif" font-size="10.00">preregist_test_binding</text>
<text xml:space="preserve" text-anchor="middle" x="76.62" y="-118.5" font-family="Helvetica,sans-Serif" font-size="10.00">_entry_dispose</text>
</a>
</g>
</g>
<!-- Node1&#45;&gt;Node3 -->
<g id="edge2_Node000001_Node000003" class="edge">
<title>Node1&#45;&gt;Node3</title>
<g id="a_edge2_Node000001_Node000003"><a xlink:title=" ">
<path fill="none" stroke="#63b8ff" d="M177.69,-108.78C162.84,-111.63 147.07,-114.66 132.54,-117.45"/>
<polygon fill="#63b8ff" stroke="#63b8ff" points="178.18,-112.25 187.34,-106.92 176.86,-105.37 178.18,-112.25"/>
</a>
</g>
</g>
<!-- Node4 -->
<g id="Node000004" class="node">
<title>Node4</title>
<g id="a_Node000004"><a xlink:href="structdepicture__menu_1_1cs__binding_1_1detail__cs__binding_1_1list__impl.html#addc8f7f1cd29096de7708132d849f9f7" target="_top" xlink:title=" ">
<polygon fill="white" stroke="#666666" points="127.38,-94 25.88,-94 25.88,-38 127.38,-38 127.38,-94"/>
<text xml:space="preserve" text-anchor="start" x="33.88" y="-80.5" font-family="Helvetica,sans-Serif" font-size="10.00">depicture_menu::cs</text>
<text xml:space="preserve" text-anchor="start" x="33.88" y="-68.5" font-family="Helvetica,sans-Serif" font-size="10.00">_binding::detail_cs</text>
<text xml:space="preserve" text-anchor="start" x="33.88" y="-56.5" font-family="Helvetica,sans-Serif" font-size="10.00">_binding::list_impl::</text>
<text xml:space="preserve" text-anchor="middle" x="76.62" y="-44.5" font-family="Helvetica,sans-Serif" font-size="10.00">request_pre_regist</text>
</a>
</g>
</g>
<!-- Node1&#45;&gt;Node4 -->
<g id="edge3_Node000001_Node000004" class="edge">
<title>Node1&#45;&gt;Node4</title>
<g id="a_edge3_Node000001_Node000004"><a xlink:title=" ">
<path fill="none" stroke="#63b8ff" d="M177.64,-85.21C161.17,-82.05 143.55,-78.66 127.77,-75.63"/>
<polygon fill="#63b8ff" stroke="#63b8ff" points="176.86,-88.63 187.34,-87.08 178.18,-81.75 176.86,-88.63"/>
</a>
</g>
</g>
<!-- Node5 -->
<g id="Node000005" class="node">
<title>Node5</title>
<g id="a_Node000005"><a xlink:href="test__multi__thread__access_8cpp.html#a46058ad45823e8fad654ffb971566470" target="_top" xlink:title=" ">
<polygon fill="white" stroke="#666666" points="142,-20 11.25,-20 11.25,0 142,0 142,-20"/>
<text xml:space="preserve" text-anchor="middle" x="76.62" y="-6.5" font-family="Helvetica,sans-Serif" font-size="10.00">setup_dmtest_ThreadSafe</text>
</a>
</g>
</g>
<!-- Node1&#45;&gt;Node5 -->
<g id="edge4_Node000001_Node000005" class="edge">
<title>Node1&#45;&gt;Node5</title>
<g id="a_edge4_Node000001_Node000005"><a xlink:title=" ">
<path fill="none" stroke="#63b8ff" d="M214.44,-72.84C198.28,-58.18 175.97,-40.21 153.25,-29 146.33,-25.59 138.74,-22.75 131.13,-20.4"/>
<polygon fill="#63b8ff" stroke="#63b8ff" points="211.95,-75.29 221.65,-79.54 216.71,-70.17 211.95,-75.29"/>
</a>
</g>
</g>
</g>
</svg>
