<?xml version="1.0" encoding="UTF-8" standalone="no"?>
<!DOCTYPE svg PUBLIC "-//W3C//DTD SVG 1.1//EN"
 "http://www.w3.org/Graphics/SVG/1.1/DTD/svg11.dtd">
<!-- Generated by graphviz version 14.1.2 (20260124.0452)
 -->
<!-- Title: depicture_menu::applications::make_transaction_injector Pages: 1 -->
<svg width="719pt" height="299pt"
 viewBox="0.00 0.00 719.00 299.00" xmlns="http://www.w3.org/2000/svg" xmlns:xlink="http://www.w3.org/1999/xlink">
<g id="graph0" class="graph" transform="scale(1 1) rotate(0) translate(4 295)">
<title>depicture_menu::applications::make_transaction_injector</title>
<!-- Node1 -->
<g id="Node000001" class="node">
<title>Node1</title>
<g id="a_Node000001"><a xlink:title=" ">
<polygon fill="#999999" stroke="#666666" points="711.25,-207 568.5,-207 568.5,-175 711.25,-175 711.25,-207"/>
<text xml:space="preserve" text-anchor="start" x="576.5" y="-193.5" font-family="Helvetica,sans-Serif" font-size="10.00">depicture_menu::applications</text>
<text xml:space="preserve" text-anchor="middle" x="639.88" y="-181.5" font-family="Helvetica,sans-Serif" font-size="10.00">::make_transaction_injector</text>
</a>
</g>
</g>
<!-- Node2 -->
<g id="Node000002" class="node">
<title>Node2</title>
<g id="a_Node000002"><a xlink:href="namespacedepicture__menu_1_1applications.html#a1a83cc7219079a22026653e1d71774a6" target="_top" xlink:title=" ">
<polygon fill="white" stroke="#666666" points="532.5,-251 389.75,-251 389.75,-219 532.5,-219 532.5,-251"/>
<text xml:space="preserve" text-anchor="start" x="397.75" y="-237.5" font-family="Helvetica,sans-Serif" font-size="10.00">depicture_menu::applications</text>
<text xml:space="preserve" text-anchor="middle" x="461.12" y="-225.5" font-family="Helvetica,sans-Serif" font-size="10.00">::build_archive</text>
</a>
</g>
</g>
<!-- Node1&#45;&gt;Node2 -->
<g id="edge1_Node000001_Node000002" class="edge">
<title>Node1&#45;&gt;Node2</title>
<g id="a_edge1_Node000001_Node000002"><a xlink:title=" ">
<path fill="none" stroke="#63b8ff" d="M561.79,-210.19C550.66,-212.96 539.3,-215.79 528.41,-218.5"/>
<polygon fill="#63b8ff" stroke="#63b8ff" points="562.48,-213.62 571.34,-207.81 560.79,-206.83 562.48,-213.62"/>
</a>
</g>
</g>
<!-- Node6 -->
<g id="Node000006" class="node">
<title>Node6</title>
<g id="a_Node000006"><a xlink:href="initilize__core_8cpp.html#ae9fab8dc9dc01a9309b111177ea6025f" target="_top" xlink:title=" ">
<polygon fill="white" stroke="#666666" points="496.12,-201 426.12,-201 426.12,-181 496.12,-181 496.12,-201"/>
<text xml:space="preserve" text-anchor="middle" x="461.12" y="-187.5" font-family="Helvetica,sans-Serif" font-size="10.00">initilize_core</text>
</a>
</g>
</g>
<!-- Node1&#45;&gt;Node6 -->
<g id="edge5_Node000001_Node000006" class="edge">
<title>Node1&#45;&gt;Node6</title>
<g id="a_edge5_Node000001_Node000006"><a xlink:title=" ">
<path fill="none" stroke="#63b8ff" d="M556.66,-191C535.49,-191 513.85,-191 496.62,-191"/>
<polygon fill="#63b8ff" stroke="#63b8ff" points="556.49,-194.5 566.49,-191 556.49,-187.5 556.49,-194.5"/>
</a>
</g>
</g>
<!-- Node7 -->
<g id="Node000007" class="node">
<title>Node7</title>
<g id="a_Node000007"><a xlink:href="namespacedetail.html#a8aee8542a8e50ac503aeda7f2e247b33" target="_top" xlink:title=" ">
<polygon fill="white" stroke="#666666" points="511.5,-163 410.75,-163 410.75,-131 511.5,-131 511.5,-163"/>
<text xml:space="preserve" text-anchor="start" x="418.75" y="-149.5" font-family="Helvetica,sans-Serif" font-size="10.00">detail::make_config</text>
<text xml:space="preserve" text-anchor="middle" x="461.12" y="-137.5" font-family="Helvetica,sans-Serif" font-size="10.00">_view_injection</text>
</a>
</g>
</g>
<!-- Node1&#45;&gt;Node7 -->
<g id="edge6_Node000001_Node000007" class="edge">
<title>Node1&#45;&gt;Node7</title>
<g id="a_edge6_Node000001_Node000007"><a xlink:title=" ">
<path fill="none" stroke="#63b8ff" d="M561.79,-171.81C544.85,-167.59 527.35,-163.24 511.83,-159.37"/>
<polygon fill="#63b8ff" stroke="#63b8ff" points="560.79,-175.17 571.34,-174.19 562.48,-168.38 560.79,-175.17"/>
</a>
</g>
</g>
<!-- Node3 -->
<g id="Node000003" class="node">
<title>Node3</title>
<g id="a_Node000003"><a xlink:href="classdepicture__menu_1_1applications_1_1application__archiver.html#ae4d40acad3f7a4041c82bbdb3986d106" target="_top" xlink:title=" ">
<polygon fill="white" stroke="#666666" points="352.25,-291 202,-291 202,-259 352.25,-259 352.25,-291"/>
<text xml:space="preserve" text-anchor="start" x="210" y="-277.5" font-family="Helvetica,sans-Serif" font-size="10.00">depicture_menu::applications</text>
<text xml:space="preserve" text-anchor="middle" x="277.12" y="-265.5" font-family="Helvetica,sans-Serif" font-size="10.00">::application_archiver::load_file</text>
</a>
</g>
</g>
<!-- Node2&#45;&gt;Node3 -->
<g id="edge2_Node000002_Node000003" class="edge">
<title>Node2&#45;&gt;Node3</title>
<g id="a_edge2_Node000002_Node000003"><a xlink:title=" ">
<path fill="none" stroke="#63b8ff" d="M378.33,-252.98C369.77,-254.86 361.1,-256.76 352.62,-258.63"/>
<polygon fill="#63b8ff" stroke="#63b8ff" points="379,-256.41 388.02,-250.85 377.5,-249.58 379,-256.41"/>
</a>
</g>
</g>
<!-- Node4 -->
<g id="Node000004" class="node">
<title>Node4</title>
<g id="a_Node000004"><a xlink:href="classdepicture__menu_1_1applications_1_1application__archiver.html#a1a3986f047fa5ae0df15ee9a9efd1cd2" target="_top" xlink:title=" ">
<polygon fill="white" stroke="#666666" points="353.75,-241 200.5,-241 200.5,-209 353.75,-209 353.75,-241"/>
<text xml:space="preserve" text-anchor="start" x="208.5" y="-227.5" font-family="Helvetica,sans-Serif" font-size="10.00">depicture_menu::applications</text>
<text xml:space="preserve" text-anchor="middle" x="277.12" y="-215.5" font-family="Helvetica,sans-Serif" font-size="10.00">::application_archiver::save_file</text>
</a>
</g>
</g>
<!-- Node2&#45;&gt;Node4 -->
<g id="edge3_Node000002_Node000004" class="edge">
<title>Node2&#45;&gt;Node4</title>
<g id="a_edge3_Node000002_Node000004"><a xlink:title=" ">
<path fill="none" stroke="#63b8ff" d="M378.24,-230.5C370.22,-230.06 362.1,-229.61 354.14,-229.18"/>
<polygon fill="#63b8ff" stroke="#63b8ff" points="377.81,-233.98 387.99,-231.04 378.19,-226.99 377.81,-233.98"/>
</a>
</g>
</g>
<!-- Node5 -->
<g id="Node000005" class="node">
<title>Node5</title>
<g id="a_Node000005"><a xlink:href="dll__main_8cpp.html#a143e19691f5709bf3df4ab1af5219908" target="_top" xlink:title=" ">
<polygon fill="white" stroke="#666666" points="138.62,-235 25.88,-235 25.88,-215 138.62,-215 138.62,-235"/>
<text xml:space="preserve" text-anchor="middle" x="82.25" y="-221.5" font-family="Helvetica,sans-Serif" font-size="10.00">save_application_data</text>
</a>
</g>
</g>
<!-- Node4&#45;&gt;Node5 -->
<g id="edge4_Node000004_Node000005" class="edge">
<title>Node4&#45;&gt;Node5</title>
<g id="a_edge4_Node000004_Node000005"><a xlink:title=" ">
<path fill="none" stroke="#63b8ff" d="M189.05,-225C171.99,-225 154.55,-225 138.87,-225"/>
<polygon fill="#63b8ff" stroke="#63b8ff" points="188.66,-228.5 198.66,-225 188.66,-221.5 188.66,-228.5"/>
</a>
</g>
</g>
<!-- Node8 -->
<g id="Node000008" class="node">
<title>Node8</title>
<g id="a_Node000008"><a xlink:href="classdepicture__menu_1_1applications_1_1view__factories_1_1config__view__arg__builder.html#a81771a2eb3dd080cb12d97086f19e37b" target="_top" xlink:title=" ">
<polygon fill="white" stroke="#666666" points="348.5,-174 205.75,-174 205.75,-130 348.5,-130 348.5,-174"/>
<text xml:space="preserve" text-anchor="start" x="213.75" y="-160.5" font-family="Helvetica,sans-Serif" font-size="10.00">depicture_menu::applications</text>
<text xml:space="preserve" text-anchor="start" x="213.75" y="-148.5" font-family="Helvetica,sans-Serif" font-size="10.00">::view_factories::config</text>
<text xml:space="preserve" text-anchor="middle" x="277.12" y="-136.5" font-family="Helvetica,sans-Serif" font-size="10.00">_view_arg_builder::build</text>
</a>
</g>
</g>
<!-- Node7&#45;&gt;Node8 -->
<g id="edge7_Node000007_Node000008" class="edge">
<title>Node7&#45;&gt;Node8</title>
<g id="a_edge7_Node000007_Node000008"><a xlink:title=" ">
<path fill="none" stroke="#63b8ff" d="M398.98,-148.68C382.92,-149.12 365.47,-149.6 348.95,-150.05"/>
<polygon fill="#63b8ff" stroke="#63b8ff" points="398.98,-152.18 408.88,-148.41 398.79,-145.18 398.98,-152.18"/>
</a>
</g>
</g>
<!-- Node9 -->
<g id="Node000009" class="node">
<title>Node9</title>
<g id="a_Node000009"><a xlink:href="namespacedetail.html#a9059c63b55917525f60302be2ad6701b" target="_top" xlink:title=" ">
<polygon fill="white" stroke="#666666" points="334.25,-112 220,-112 220,-92 334.25,-92 334.25,-112"/>
<text xml:space="preserve" text-anchor="middle" x="277.12" y="-98.5" font-family="Helvetica,sans-Serif" font-size="10.00">detail::create_usecase</text>
</a>
</g>
</g>
<!-- Node7&#45;&gt;Node9 -->
<g id="edge8_Node000007_Node000009" class="edge">
<title>Node7&#45;&gt;Node9</title>
<g id="a_edge8_Node000007_Node000009"><a xlink:title=" ">
<path fill="none" stroke="#63b8ff" d="M399.53,-132.02C373.58,-125.6 343.91,-118.27 320.39,-112.45"/>
<polygon fill="#63b8ff" stroke="#63b8ff" points="398.38,-135.34 408.92,-134.34 400.06,-128.54 398.38,-135.34"/>
</a>
</g>
</g>
<!-- Node10 -->
<g id="Node000010" class="node">
<title>Node10</title>
<g id="a_Node000010"><a xlink:href="classdepicture__menu_1_1applications_1_1view__factories_1_1config__view__arg__builder.html#ada8abae5fb46a758aa2b954eedfdd560" target="_top" xlink:title=" ">
<polygon fill="white" stroke="#666666" points="164.5,-192 0,-192 0,-148 164.5,-148 164.5,-192"/>
<text xml:space="preserve" text-anchor="start" x="8" y="-178.5" font-family="Helvetica,sans-Serif" font-size="10.00">depicture_menu::applications</text>
<text xml:space="preserve" text-anchor="start" x="8" y="-166.5" font-family="Helvetica,sans-Serif" font-size="10.00">::view_factories::config</text>
<text xml:space="preserve" text-anchor="middle" x="82.25" y="-154.5" font-family="Helvetica,sans-Serif" font-size="10.00">_view_arg_builder::build_publisher</text>
</a>
</g>
</g>
<!-- Node9&#45;&gt;Node10 -->
<g id="edge9_Node000009_Node000010" class="edge">
<title>Node9&#45;&gt;Node10</title>
<g id="a_edge9_Node000009_Node000010"><a xlink:title=" ">
<path fill="none" stroke="#63b8ff" d="M217.13,-115.49C211.46,-117.18 205.84,-119.02 200.5,-121 183.73,-127.22 180.88,-131.8 164.5,-139 157.87,-141.92 150.86,-144.83 143.86,-147.64"/>
<polygon fill="#63b8ff" stroke="#63b8ff" points="217.91,-118.9 226.58,-112.82 216.01,-112.17 217.91,-118.9"/>
</a>
</g>
</g>
<!-- Node11 -->
<g id="Node000011" class="node">
<title>Node11</title>
<g id="a_Node000011"><a xlink:href="structdepicture__menu_1_1cs__binding_1_1observer_1_1detail__observer_1_1cfg__observer.html#a993f85552b1f70a855e335b46aa1c538" target="_top" xlink:title=" ">
<polygon fill="white" stroke="#666666" points="135.25,-130 29.25,-130 29.25,-74 135.25,-74 135.25,-130"/>
<text xml:space="preserve" text-anchor="start" x="37.25" y="-116.5" font-family="Helvetica,sans-Serif" font-size="10.00">depicture_menu::cs</text>
<text xml:space="preserve" text-anchor="start" x="37.25" y="-104.5" font-family="Helvetica,sans-Serif" font-size="10.00">_binding::observer::</text>
<text xml:space="preserve" text-anchor="start" x="37.25" y="-92.5" font-family="Helvetica,sans-Serif" font-size="10.00">detail_observer::cfg</text>
<text xml:space="preserve" text-anchor="middle" x="82.25" y="-80.5" font-family="Helvetica,sans-Serif" font-size="10.00">_observer::operator()</text>
</a>
</g>
</g>
<!-- Node9&#45;&gt;Node11 -->
<g id="edge10_Node000009_Node000011" class="edge">
<title>Node9&#45;&gt;Node11</title>
<g id="a_edge10_Node000009_Node000011"><a xlink:title=" ">
<path fill="none" stroke="#63b8ff" d="M208.09,-102C184.25,-102 157.87,-102 135.52,-102"/>
<polygon fill="#63b8ff" stroke="#63b8ff" points="208.05,-105.5 218.05,-102 208.05,-98.5 208.05,-105.5"/>
</a>
</g>
</g>
<!-- Node12 -->
<g id="Node000012" class="node">
<title>Node12</title>
<g id="a_Node000012"><a xlink:href="structdepicture__menu_1_1cs__binding_1_1observer_1_1detail__observer_1_1cfg__observer.html#a1cb41fc13c699632ec16c7b02ffdb17d" target="_top" xlink:title=" ">
<polygon fill="white" stroke="#666666" points="135.25,-56 29.25,-56 29.25,0 135.25,0 135.25,-56"/>
<text xml:space="preserve" text-anchor="start" x="37.25" y="-42.5" font-family="Helvetica,sans-Serif" font-size="10.00">depicture_menu::cs</text>
<text xml:space="preserve" text-anchor="start" x="37.25" y="-30.5" font-family="Helvetica,sans-Serif" font-size="10.00">_binding::observer::</text>
<text xml:space="preserve" text-anchor="start" x="37.25" y="-18.5" font-family="Helvetica,sans-Serif" font-size="10.00">detail_observer::cfg</text>
<text xml:space="preserve" text-anchor="middle" x="82.25" y="-6.5" font-family="Helvetica,sans-Serif" font-size="10.00">_observer::operator()</text>
</a>
</g>
</g>
<!-- Node9&#45;&gt;Node12 -->
<g id="edge11_Node000009_Node000012" class="edge">
<title>Node9&#45;&gt;Node12</title>
<g id="a_edge11_Node000009_Node000012"><a xlink:title=" ">
<path fill="none" stroke="#63b8ff" d="M238.26,-87.47C208.89,-76.2 167.86,-60.46 135.38,-48"/>
<polygon fill="#63b8ff" stroke="#63b8ff" points="236.9,-90.7 247.49,-91.01 239.4,-84.16 236.9,-90.7"/>
</a>
</g>
</g>
</g>
</svg>
