<?xml version="1.0" encoding="UTF-8" standalone="no"?>
<!DOCTYPE svg PUBLIC "-//W3C//DTD SVG 1.1//EN"
 "http://www.w3.org/Graphics/SVG/1.1/DTD/svg11.dtd">
<!-- Generated by graphviz version 14.1.2 (20260124.0452)
 -->
<!-- Title: detail::make_config_view_injection Pages: 1 -->
<!--zoomable 678 -->

<svg id="main" version="1.1" xmlns="http://www.w3.org/2000/svg" xmlns:xlink="http://www.w3.org/1999/xlink" xml:space="preserve" onload="init(evt)">

<style type="text/css"><![CDATA[
.node, .edge {opacity: 0.7;}
.node.selected, .edge.selected {opacity: 1;}
.edge:hover path { stroke: red; }
.edge:hover polygon { stroke: red; fill: red; }
]]></style>

<defs>
  <circle id="rim" cx="0" cy="0" r="7"/>
  <circle id="rim2" cx="0" cy="0" r="3.5"/>
  <g id="zoomPlus">
    <use xlink:href="#rim" fill="#404040"><set attributeName="fill" to="#808080" begin="zoomplus.mouseover" end="zoomplus.mouseout"/></use>
    <path d="M-4,0h8M0,-4v8" fill="none" stroke="white" stroke-width="1.5" pointer-events="none"/>
  </g>
  <g id="zoomMin">
    <use xlink:href="#rim" fill="#404040"><set attributeName="fill" to="#808080" begin="zoomminus.mouseover" end="zoomminus.mouseout"/></use>
    <path d="M-4,0h8" fill="none" stroke="white" stroke-width="1.5" pointer-events="none"/>
  </g>
  <g id="arrowUp" transform="translate(30 24)">
    <use xlink:href="#rim"/>
    <path pointer-events="none" fill="none" stroke="white" stroke-width="1.5" d="M0,-3.0v7 M-2.5,-0.5L0,-3.0L2.5,-0.5"/>
  </g>
  <g id="arrowRight" transform="rotate(90) translate(36 -43)">
    <use xlink:href="#rim"/>
    <path pointer-events="none" fill="none" stroke="white" stroke-width="1.5" d="M0,-3.0v7 M-2.5,-0.5L0,-3.0L2.5,-0.5"/>
  </g>
  <g id="arrowDown" transform="rotate(180) translate(-30 -48)">
    <use xlink:href="#rim"/>
    <path pointer-events="none" fill="none" stroke="white" stroke-width="1.5" d="M0,-3.0v7 M-2.5,-0.5L0,-3.0L2.5,-0.5"/>
  </g>
  <g id="arrowLeft" transform="rotate(270) translate(-36 17)">
    <use xlink:href="#rim"/>
    <path pointer-events="none" fill="none" stroke="white" stroke-width="1.5" d="M0,-3.0v7 M-2.5,-0.5L0,-3.0L2.5,-0.5"/>
  </g>
  <g id="resetDef">
    <use xlink:href="#rim2" fill="#404040"><set attributeName="fill" to="#808080" begin="reset.mouseover" end="reset.mouseout"/></use>
  </g>
</defs>
<script type="application/ecmascript">
var viewWidth = 438;
var viewHeight = 678;
var sectionId = 'dynsection-10';
</script>
<script type="application/ecmascript" xlink:href="svg.min.js"/>
<svg id="graph" class="graph">
<g id="viewport">
<title>detail::make_config_view_injection</title>
<!-- Node1 -->
<g id="Node000001" class="node">
<title>Node1</title>
<g id="a_Node000001"><a xlink:title=" ">
<polygon fill="#999999" stroke="#666666" points="429.75,-548 329,-548 329,-516 429.75,-516 429.75,-548"/>
<text xml:space="preserve" text-anchor="start" x="337" y="-534.5" font-family="Helvetica,sans-Serif" font-size="10.00">detail::make_config</text>
<text xml:space="preserve" text-anchor="middle" x="379.38" y="-522.5" font-family="Helvetica,sans-Serif" font-size="10.00">_view_injection</text>
</a>
</g>
</g>
<!-- Node2 -->
<g id="Node000002" class="node">
<title>Node2</title>
<g id="a_Node000002"><a xlink:href="classdepicture__menu_1_1applications_1_1view__factories_1_1config__view__arg__builder.html#a7fad9971fe8a0fa887c7279435287da5" target="_top" xlink:title=" ">
<polygon fill="white" stroke="#666666" points="293,-604 150.25,-604 150.25,-560 293,-560 293,-604"/>
<text xml:space="preserve" text-anchor="start" x="158.25" y="-590.5" font-family="Helvetica,sans-Serif" font-size="10.00">depicture_menu::applications</text>
<text xml:space="preserve" text-anchor="start" x="158.25" y="-578.5" font-family="Helvetica,sans-Serif" font-size="10.00">::view_factories::config</text>
<text xml:space="preserve" text-anchor="middle" x="221.62" y="-566.5" font-family="Helvetica,sans-Serif" font-size="10.00">_view_arg_builder::build</text>
</a>
</g>
</g>
<!-- Node1&#45;&gt;Node2 -->
<g id="edge1_Node000001_Node000002" class="edge">
<title>Node1&#45;&gt;Node2</title>
<g id="a_edge1_Node000001_Node000002"><a xlink:title=" ">
<path fill="none" stroke="#63b8ff" d="M317.94,-551.4C309.63,-554.07 301.05,-556.82 292.58,-559.54"/>
<polygon fill="#63b8ff" stroke="#63b8ff" points="318.77,-554.81 327.23,-548.42 316.63,-548.14 318.77,-554.81"/>
</a>
</g>
</g>
<!-- Node3 -->
<g id="Node000003" class="node">
<title>Node3</title>
<g id="a_Node000003"><a xlink:href="namespacedetail.html#a9059c63b55917525f60302be2ad6701b" target="_top" xlink:title=" ">
<polygon fill="white" stroke="#666666" points="278.75,-376 164.5,-376 164.5,-356 278.75,-356 278.75,-376"/>
<text xml:space="preserve" text-anchor="middle" x="221.62" y="-362.5" font-family="Helvetica,sans-Serif" font-size="10.00">detail::create_usecase</text>
</a>
</g>
</g>
<!-- Node1&#45;&gt;Node3 -->
<g id="edge2_Node000001_Node000003" class="edge">
<title>Node1&#45;&gt;Node3</title>
<g id="a_edge2_Node000001_Node000003"><a xlink:title=" ">
<path fill="none" stroke="#63b8ff" d="M355.43,-507.54C320.76,-470.59 256.5,-402.1 232.24,-376.24"/>
<polygon fill="#63b8ff" stroke="#63b8ff" points="352.73,-509.78 362.12,-514.68 357.83,-504.99 352.73,-509.78"/>
</a>
</g>
</g>
<!-- Node4 -->
<g id="Node000004" class="node">
<title>Node4</title>
<g id="a_Node000004"><a xlink:href="namespacedetail.html#ae3241688f34c6c4966363baf9214f815" target="_top" xlink:title=" ">
<polygon fill="white" stroke="#666666" points="114.25,-670 0,-670 0,-650 114.25,-650 114.25,-670"/>
<text xml:space="preserve" text-anchor="middle" x="57.13" y="-656.5" font-family="Helvetica,sans-Serif" font-size="10.00">detail::create_usecase</text>
</a>
</g>
</g>
<!-- Node1&#45;&gt;Node4 -->
<g id="edge17_Node000001_Node000004" class="edge">
<title>Node1&#45;&gt;Node4</title>
<g id="a_edge17_Node000001_Node000004"><a xlink:title=" ">
<path fill="none" stroke="#63b8ff" d="M317.45,-520.77C267.67,-515.13 197.98,-515.71 150.25,-551 115.61,-576.61 145.53,-611.37 114.25,-641 110.59,-644.47 106.28,-647.3 101.69,-649.62"/>
<polygon fill="#63b8ff" stroke="#63b8ff" points="316.84,-524.22 327.2,-522 317.71,-517.28 316.84,-524.22"/>
</a>
</g>
</g>
<!-- Node3&#45;&gt;Node4 -->
<g id="edge3_Node000003_Node000004" class="edge">
<title>Node3&#45;&gt;Node4</title>
<g id="a_edge3_Node000003_Node000004"><a xlink:title=" ">
<path fill="none" stroke="#63b8ff" d="M209.94,-386.51C195.19,-415.32 168.39,-469.69 150.25,-518 130.23,-571.33 153.68,-599.89 114.25,-641 110.97,-644.42 107.06,-647.22 102.85,-649.51"/>
<polygon fill="#63b8ff" stroke="#63b8ff" points="212.95,-388.29 214.43,-377.8 206.73,-385.08 212.95,-388.29"/>
</a>
</g>
</g>
<!-- Node5 -->
<g id="Node000005" class="node">
<title>Node5</title>
<g id="a_Node000005"><a xlink:href="structdetail_1_1config__view__dispatch.html#aa3a108804e4e17af423a152d8a5b6b6e" target="_top" xlink:title=" ">
<polygon fill="white" stroke="#666666" points="109.75,-632 4.5,-632 4.5,-600 109.75,-600 109.75,-632"/>
<text xml:space="preserve" text-anchor="start" x="12.5" y="-618.5" font-family="Helvetica,sans-Serif" font-size="10.00">detail::config_view</text>
<text xml:space="preserve" text-anchor="middle" x="57.13" y="-606.5" font-family="Helvetica,sans-Serif" font-size="10.00">_dispatch::operator()</text>
</a>
</g>
</g>
<!-- Node3&#45;&gt;Node5 -->
<g id="edge4_Node000003_Node000005" class="edge">
<title>Node3&#45;&gt;Node5</title>
<g id="a_edge4_Node000003_Node000005"><a xlink:title=" ">
<path fill="none" stroke="#63b8ff" d="M211.13,-386.57C185.8,-441.38 118.26,-587.08 114.25,-591 110.97,-594.21 107.21,-597.04 103.22,-599.54"/>
<polygon fill="#63b8ff" stroke="#63b8ff" points="214.21,-388.25 215.22,-377.71 207.85,-385.32 214.21,-388.25"/>
</a>
</g>
</g>
<!-- Node6 -->
<g id="Node000006" class="node">
<title>Node6</title>
<g id="a_Node000006"><a xlink:href="structdetail_1_1config__view__dispatch.html#a41903c01ec35f58bb05db603f661d495" target="_top" xlink:title=" ">
<polygon fill="white" stroke="#666666" points="109.75,-582 4.5,-582 4.5,-550 109.75,-550 109.75,-582"/>
<text xml:space="preserve" text-anchor="start" x="12.5" y="-568.5" font-family="Helvetica,sans-Serif" font-size="10.00">detail::config_view</text>
<text xml:space="preserve" text-anchor="middle" x="57.13" y="-556.5" font-family="Helvetica,sans-Serif" font-size="10.00">_dispatch::operator()</text>
</a>
</g>
</g>
<!-- Node3&#45;&gt;Node6 -->
<g id="edge5_Node000003_Node000006" class="edge">
<title>Node3&#45;&gt;Node6</title>
<g id="a_edge5_Node000003_Node000006"><a xlink:title=" ">
<path fill="none" stroke="#63b8ff" d="M212.87,-386.75C198.51,-422.63 164.6,-496.68 114.25,-541 110.65,-544.17 106.58,-547 102.31,-549.51"/>
<polygon fill="#63b8ff" stroke="#63b8ff" points="216.08,-388.14 216.44,-377.55 209.56,-385.61 216.08,-388.14"/>
</a>
</g>
</g>
<!-- Node7 -->
<g id="Node000007" class="node">
<title>Node7</title>
<g id="a_Node000007"><a xlink:href="structdetail_1_1config__view__dispatch.html#ab153bd4e90b8c6058b92be00888b603a" target="_top" xlink:title=" ">
<polygon fill="white" stroke="#666666" points="109.75,-532 4.5,-532 4.5,-500 109.75,-500 109.75,-532"/>
<text xml:space="preserve" text-anchor="start" x="12.5" y="-518.5" font-family="Helvetica,sans-Serif" font-size="10.00">detail::config_view</text>
<text xml:space="preserve" text-anchor="middle" x="57.13" y="-506.5" font-family="Helvetica,sans-Serif" font-size="10.00">_dispatch::operator()</text>
</a>
</g>
</g>
<!-- Node3&#45;&gt;Node7 -->
<g id="edge6_Node000003_Node000007" class="edge">
<title>Node3&#45;&gt;Node7</title>
<g id="a_edge6_Node000003_Node000007"><a xlink:title=" ">
<path fill="none" stroke="#63b8ff" d="M207.89,-385.93C189.85,-412.83 154.53,-460.86 114.25,-491 110.07,-494.13 105.43,-496.98 100.66,-499.54"/>
<polygon fill="#63b8ff" stroke="#63b8ff" points="210.74,-387.97 213.3,-377.69 204.89,-384.13 210.74,-387.97"/>
</a>
</g>
</g>
<!-- Node8 -->
<g id="Node000008" class="node">
<title>Node8</title>
<g id="a_Node000008"><a xlink:href="structdetail_1_1config__view__dispatch.html#a6813a6c35a9eb1d397bef9213d55d6db" target="_top" xlink:title=" ">
<polygon fill="white" stroke="#666666" points="109.75,-482 4.5,-482 4.5,-450 109.75,-450 109.75,-482"/>
<text xml:space="preserve" text-anchor="start" x="12.5" y="-468.5" font-family="Helvetica,sans-Serif" font-size="10.00">detail::config_view</text>
<text xml:space="preserve" text-anchor="middle" x="57.13" y="-456.5" font-family="Helvetica,sans-Serif" font-size="10.00">_dispatch::operator()</text>
</a>
</g>
</g>
<!-- Node3&#45;&gt;Node8 -->
<g id="edge7_Node000003_Node000008" class="edge">
<title>Node3&#45;&gt;Node8</title>
<g id="a_edge7_Node000003_Node000008"><a xlink:title=" ">
<path fill="none" stroke="#63b8ff" d="M198.74,-383.34C177.8,-399.47 144.95,-423.56 114.25,-441 108.96,-444 103.25,-446.91 97.56,-449.61"/>
<polygon fill="#63b8ff" stroke="#63b8ff" points="200.81,-386.17 206.55,-377.27 196.51,-380.65 200.81,-386.17"/>
</a>
</g>
</g>
<!-- Node9 -->
<g id="Node000009" class="node">
<title>Node9</title>
<g id="a_Node000009"><a xlink:href="structdetail_1_1config__view__dispatch.html#a76b30ceed9f44c7486fe6ce723b0d586" target="_top" xlink:title=" ">
<polygon fill="white" stroke="#666666" points="109.75,-432 4.5,-432 4.5,-400 109.75,-400 109.75,-432"/>
<text xml:space="preserve" text-anchor="start" x="12.5" y="-418.5" font-family="Helvetica,sans-Serif" font-size="10.00">detail::config_view</text>
<text xml:space="preserve" text-anchor="middle" x="57.13" y="-406.5" font-family="Helvetica,sans-Serif" font-size="10.00">_dispatch::operator()</text>
</a>
</g>
</g>
<!-- Node3&#45;&gt;Node9 -->
<g id="edge8_Node000003_Node000009" class="edge">
<title>Node3&#45;&gt;Node9</title>
<g id="a_edge8_Node000003_Node000009"><a xlink:title=" ">
<path fill="none" stroke="#63b8ff" d="M175.7,-379.82C155.36,-386.08 131.19,-393.52 110.07,-400.02"/>
<polygon fill="#63b8ff" stroke="#63b8ff" points="176.58,-383.21 185.11,-376.93 174.53,-376.52 176.58,-383.21"/>
</a>
</g>
</g>
<!-- Node10 -->
<g id="Node000010" class="node">
<title>Node10</title>
<g id="a_Node000010"><a xlink:href="structdetail_1_1config__view__dispatch.html#a626371d6da54a29abcfb88ee0da91038" target="_top" xlink:title=" ">
<polygon fill="white" stroke="#666666" points="109.75,-382 4.5,-382 4.5,-350 109.75,-350 109.75,-382"/>
<text xml:space="preserve" text-anchor="start" x="12.5" y="-368.5" font-family="Helvetica,sans-Serif" font-size="10.00">detail::config_view</text>
<text xml:space="preserve" text-anchor="middle" x="57.13" y="-356.5" font-family="Helvetica,sans-Serif" font-size="10.00">_dispatch::operator()</text>
</a>
</g>
</g>
<!-- Node3&#45;&gt;Node10 -->
<g id="edge9_Node000003_Node000010" class="edge">
<title>Node3&#45;&gt;Node10</title>
<g id="a_edge9_Node000003_Node000010"><a xlink:title=" ">
<path fill="none" stroke="#63b8ff" d="M152.91,-366C138.59,-366 123.68,-366 110.04,-366"/>
<polygon fill="#63b8ff" stroke="#63b8ff" points="152.73,-369.5 162.73,-366 152.73,-362.5 152.73,-369.5"/>
</a>
</g>
</g>
<!-- Node11 -->
<g id="Node000011" class="node">
<title>Node11</title>
<g id="a_Node000011"><a xlink:href="structdetail_1_1config__view__dispatch.html#ad3071227f01b14edaa9acd17d84b86ce" target="_top" xlink:title=" ">
<polygon fill="white" stroke="#666666" points="109.75,-332 4.5,-332 4.5,-300 109.75,-300 109.75,-332"/>
<text xml:space="preserve" text-anchor="start" x="12.5" y="-318.5" font-family="Helvetica,sans-Serif" font-size="10.00">detail::config_view</text>
<text xml:space="preserve" text-anchor="middle" x="57.13" y="-306.5" font-family="Helvetica,sans-Serif" font-size="10.00">_dispatch::operator()</text>
</a>
</g>
</g>
<!-- Node3&#45;&gt;Node11 -->
<g id="edge10_Node000003_Node000011" class="edge">
<title>Node3&#45;&gt;Node11</title>
<g id="a_edge10_Node000003_Node000011"><a xlink:title=" ">
<path fill="none" stroke="#63b8ff" d="M175.7,-352.18C155.36,-345.92 131.19,-338.48 110.07,-331.98"/>
<polygon fill="#63b8ff" stroke="#63b8ff" points="174.53,-355.48 185.11,-355.07 176.58,-348.79 174.53,-355.48"/>
</a>
</g>
</g>
<!-- Node12 -->
<g id="Node000012" class="node">
<title>Node12</title>
<g id="a_Node000012"><a xlink:href="structdetail_1_1config__view__dispatch.html#ad811d67fc5b9793e86c4f597a7de6ad9" target="_top" xlink:title=" ">
<polygon fill="white" stroke="#666666" points="109.75,-282 4.5,-282 4.5,-250 109.75,-250 109.75,-282"/>
<text xml:space="preserve" text-anchor="start" x="12.5" y="-268.5" font-family="Helvetica,sans-Serif" font-size="10.00">detail::config_view</text>
<text xml:space="preserve" text-anchor="middle" x="57.13" y="-256.5" font-family="Helvetica,sans-Serif" font-size="10.00">_dispatch::operator()</text>
</a>
</g>
</g>
<!-- Node3&#45;&gt;Node12 -->
<g id="edge11_Node000003_Node000012" class="edge">
<title>Node3&#45;&gt;Node12</title>
<g id="a_edge11_Node000003_Node000012"><a xlink:title=" ">
<path fill="none" stroke="#63b8ff" d="M198.74,-348.66C177.8,-332.53 144.95,-308.44 114.25,-291 108.96,-288 103.25,-285.09 97.56,-282.39"/>
<polygon fill="#63b8ff" stroke="#63b8ff" points="196.51,-351.35 206.55,-354.73 200.81,-345.83 196.51,-351.35"/>
</a>
</g>
</g>
<!-- Node13 -->
<g id="Node000013" class="node">
<title>Node13</title>
<g id="a_Node000013"><a xlink:href="structdetail_1_1config__view__dispatch.html#a175c76ecf1f9a4796d214ab9788d2a4c" target="_top" xlink:title=" ">
<polygon fill="white" stroke="#666666" points="109.75,-232 4.5,-232 4.5,-200 109.75,-200 109.75,-232"/>
<text xml:space="preserve" text-anchor="start" x="12.5" y="-218.5" font-family="Helvetica,sans-Serif" font-size="10.00">detail::config_view</text>
<text xml:space="preserve" text-anchor="middle" x="57.13" y="-206.5" font-family="Helvetica,sans-Serif" font-size="10.00">_dispatch::operator()</text>
</a>
</g>
</g>
<!-- Node3&#45;&gt;Node13 -->
<g id="edge12_Node000003_Node000013" class="edge">
<title>Node3&#45;&gt;Node13</title>
<g id="a_edge12_Node000003_Node000013"><a xlink:title=" ">
<path fill="none" stroke="#63b8ff" d="M207.89,-346.07C189.85,-319.17 154.53,-271.14 114.25,-241 110.07,-237.87 105.43,-235.02 100.66,-232.46"/>
<polygon fill="#63b8ff" stroke="#63b8ff" points="204.89,-347.87 213.3,-354.31 210.74,-344.03 204.89,-347.87"/>
</a>
</g>
</g>
<!-- Node14 -->
<g id="Node000014" class="node">
<title>Node14</title>
<g id="a_Node000014"><a xlink:href="structdetail_1_1config__view__dispatch.html#ad4e544f2b7648e7d70ae705383c16f90" target="_top" xlink:title=" ">
<polygon fill="white" stroke="#666666" points="109.75,-182 4.5,-182 4.5,-150 109.75,-150 109.75,-182"/>
<text xml:space="preserve" text-anchor="start" x="12.5" y="-168.5" font-family="Helvetica,sans-Serif" font-size="10.00">detail::config_view</text>
<text xml:space="preserve" text-anchor="middle" x="57.13" y="-156.5" font-family="Helvetica,sans-Serif" font-size="10.00">_dispatch::operator()</text>
</a>
</g>
</g>
<!-- Node3&#45;&gt;Node14 -->
<g id="edge13_Node000003_Node000014" class="edge">
<title>Node3&#45;&gt;Node14</title>
<g id="a_edge13_Node000003_Node000014"><a xlink:title=" ">
<path fill="none" stroke="#63b8ff" d="M212.87,-345.25C198.51,-309.37 164.6,-235.32 114.25,-191 110.65,-187.83 106.58,-185 102.31,-182.49"/>
<polygon fill="#63b8ff" stroke="#63b8ff" points="209.56,-346.39 216.44,-354.45 216.08,-343.86 209.56,-346.39"/>
</a>
</g>
</g>
<!-- Node15 -->
<g id="Node000015" class="node">
<title>Node15</title>
<g id="a_Node000015"><a xlink:href="structdetail_1_1config__view__dispatch.html#a6afd84d3581049f1dc3662a5fa15bd3c" target="_top" xlink:title=" ">
<polygon fill="white" stroke="#666666" points="109.75,-132 4.5,-132 4.5,-100 109.75,-100 109.75,-132"/>
<text xml:space="preserve" text-anchor="start" x="12.5" y="-118.5" font-family="Helvetica,sans-Serif" font-size="10.00">detail::config_view</text>
<text xml:space="preserve" text-anchor="middle" x="57.13" y="-106.5" font-family="Helvetica,sans-Serif" font-size="10.00">_dispatch::operator()</text>
</a>
</g>
</g>
<!-- Node3&#45;&gt;Node15 -->
<g id="edge14_Node000003_Node000015" class="edge">
<title>Node3&#45;&gt;Node15</title>
<g id="a_edge14_Node000003_Node000015"><a xlink:title=" ">
<path fill="none" stroke="#63b8ff" d="M215.83,-344.54C205.02,-300.75 174.84,-200.23 114.25,-141 110.97,-137.79 107.21,-134.96 103.22,-132.46"/>
<polygon fill="#63b8ff" stroke="#63b8ff" points="212.37,-345.13 218.08,-354.06 219.19,-343.52 212.37,-345.13"/>
</a>
</g>
</g>
<!-- Node16 -->
<g id="Node000016" class="node">
<title>Node16</title>
<g id="a_Node000016"><a xlink:href="structdetail_1_1config__view__dispatch.html#a270ac79b5fc529a8f220eaae53588cf0" target="_top" xlink:title=" ">
<polygon fill="white" stroke="#666666" points="109.75,-82 4.5,-82 4.5,-50 109.75,-50 109.75,-82"/>
<text xml:space="preserve" text-anchor="start" x="12.5" y="-68.5" font-family="Helvetica,sans-Serif" font-size="10.00">detail::config_view</text>
<text xml:space="preserve" text-anchor="middle" x="57.13" y="-56.5" font-family="Helvetica,sans-Serif" font-size="10.00">_dispatch::operator()</text>
</a>
</g>
</g>
<!-- Node3&#45;&gt;Node16 -->
<g id="edge15_Node000003_Node000016" class="edge">
<title>Node3&#45;&gt;Node16</title>
<g id="a_edge15_Node000003_Node000016"><a xlink:title=" ">
<path fill="none" stroke="#63b8ff" d="M217.92,-344.37C210.52,-293.69 185.48,-165.88 114.25,-91 111.16,-87.75 107.58,-84.9 103.74,-82.4"/>
<polygon fill="#63b8ff" stroke="#63b8ff" points="214.42,-344.58 219.24,-354.02 221.36,-343.64 214.42,-344.58"/>
</a>
</g>
</g>
<!-- Node17 -->
<g id="Node000017" class="node">
<title>Node17</title>
<g id="a_Node000017"><a xlink:href="structdetail_1_1config__view__dispatch.html#a641f18c1d8e8c61341b345ee9761a7fe" target="_top" xlink:title=" ">
<polygon fill="white" stroke="#666666" points="109.75,-32 4.5,-32 4.5,0 109.75,0 109.75,-32"/>
<text xml:space="preserve" text-anchor="start" x="12.5" y="-18.5" font-family="Helvetica,sans-Serif" font-size="10.00">detail::config_view</text>
<text xml:space="preserve" text-anchor="middle" x="57.13" y="-6.5" font-family="Helvetica,sans-Serif" font-size="10.00">_dispatch::operator()</text>
</a>
</g>
</g>
<!-- Node3&#45;&gt;Node17 -->
<g id="edge16_Node000003_Node000017" class="edge">
<title>Node3&#45;&gt;Node17</title>
<g id="a_edge16_Node000003_Node000017"><a xlink:title=" ">
<path fill="none" stroke="#63b8ff" d="M219.44,-344.37C215.2,-287.5 196.33,-131.98 114.25,-41 111.32,-37.75 107.89,-34.9 104.19,-32.41"/>
<polygon fill="#63b8ff" stroke="#63b8ff" points="215.92,-344.24 220.07,-353.99 222.91,-343.79 215.92,-344.24"/>
</a>
</g>
</g>
</g>
</svg>

<g id="navigator" transform="translate(0 0)" fill="#404254">
  <rect fill="#f2f5e9" fill-opacity="0.5" stroke="#606060" stroke-width=".5" x="0" y="0" width="60" height="60"/>
  <use id="zoomplus" xlink:href="#zoomPlus" x="17" y="9" onmousedown="handleZoom(evt,'in')"/>
  <use id="zoomminus" xlink:href="#zoomMin" x="42" y="9" onmousedown="handleZoom(evt,'out')"/>
  <use id="reset" xlink:href="#resetDef" x="30" y="36" onmousedown="handleReset()"/>
   <use id="arrowup" xlink:href="#arrowUp" x="0" y="0" onmousedown="handlePan(0,-1)"/>
  <use id="arrowright" xlink:href="#arrowRight" x="0" y="0" onmousedown="handlePan(1,0)"/>
  <use id="arrowdown" xlink:href="#arrowDown" x="0" y="0" onmousedown="handlePan(0,1)"/>
  <use id="arrowleft" xlink:href="#arrowLeft" x="0" y="0" onmousedown="handlePan(-1,0)"/>
</g>
<svg viewBox="0 0 15 15" width="100%" height="30px" preserveAspectRatio="xMaxYMin meet">
 <g id="arrow_out" transform="scale(0.3 0.3)">
  <a xlink:href="namespacedetail_a8aee8542a8e50ac503aeda7f2e247b33_icgraph_org.svg" target="_base">
   <rect id="button" ry="5" rx="5" y="6" x="6" height="38" width="38"
        fill="#f2f5e9" fill-opacity="0.5" stroke="#606060" stroke-width="1.0"/>
   <path id="arrow"
     d="M 11.500037,31.436501 C 11.940474,20.09759 22.043105,11.32322 32.158766,21.979434 L 37.068811,17.246167 C 37.068811,17.246167 37.088388,32 37.088388,32 L 22.160133,31.978069 C 22.160133,31.978069 26.997745,27.140456 26.997745,27.140456 C 18.528582,18.264221 13.291696,25.230495 11.500037,31.436501 z"
     style="fill:#404040;"/>
  </a>
 </g>
</svg>

<style type='text/css'>
<![CDATA[
[data-mouse-over-selected='false'] { opacity: 0.7; }
[data-mouse-over-selected='true']  { opacity: 1.0; }
]]>
</style>
<script type="application/ecmascript"><![CDATA[
document.addEventListener('DOMContentLoaded', (event) => {
  highlightEdges();
  highlightAdjacentNodes();
});
]]></script>
</svg>
