<?xml version="1.0" encoding="UTF-8" standalone="no"?>
<!DOCTYPE svg PUBLIC "-//W3C//DTD SVG 1.1//EN"
 "http://www.w3.org/Graphics/SVG/1.1/DTD/svg11.dtd">
<!-- Generated by graphviz version 14.1.2 (20260124.0452)
 -->
<!-- Title: depicture_menu::domain::models::base::to_const_ref_tuple Pages: 1 -->
<svg width="333pt" height="422pt"
 viewBox="0.00 0.00 333.00 422.00" xmlns="http://www.w3.org/2000/svg" xmlns:xlink="http://www.w3.org/1999/xlink">
<g id="graph0" class="graph" transform="scale(1 1) rotate(0) translate(4 418)">
<title>depicture_menu::domain::models::base::to_const_ref_tuple</title>
<!-- Node1 -->
<g id="Node000001" class="node">
<title>Node1</title>
<g id="a_Node000001"><a xlink:title=" ">
<polygon fill="#999999" stroke="#666666" points="325.25,-196 201.25,-196 201.25,-152 325.25,-152 325.25,-196"/>
<text xml:space="preserve" text-anchor="start" x="209.25" y="-182.5" font-family="Helvetica,sans-Serif" font-size="10.00">depicture_menu::domain</text>
<text xml:space="preserve" text-anchor="start" x="209.25" y="-170.5" font-family="Helvetica,sans-Serif" font-size="10.00">::models::base::to_const</text>
<text xml:space="preserve" text-anchor="middle" x="263.25" y="-158.5" font-family="Helvetica,sans-Serif" font-size="10.00">_ref_tuple</text>
</a>
</g>
</g>
<!-- Node2 -->
<g id="Node000002" class="node">
<title>Node2</title>
<g id="a_Node000002"><a xlink:href="structboost_1_1test__tools_1_1tt__detail_1_1print__log__value_3_01_e_01_4.html#a3a2a39ece6ce084cfc42cf91b00a29c2" target="_top" xlink:title=" ">
<polygon fill="white" stroke="#666666" points="140.88,-414 24.38,-414 24.38,-370 140.88,-370 140.88,-414"/>
<text xml:space="preserve" text-anchor="start" x="32.38" y="-400.5" font-family="Helvetica,sans-Serif" font-size="10.00">boost::test_tools::</text>
<text xml:space="preserve" text-anchor="start" x="32.38" y="-388.5" font-family="Helvetica,sans-Serif" font-size="10.00">tt_detail::print_log</text>
<text xml:space="preserve" text-anchor="middle" x="82.62" y="-376.5" font-family="Helvetica,sans-Serif" font-size="10.00">_value&lt; E &gt;::operator()</text>
</a>
</g>
</g>
<!-- Node1&#45;&gt;Node2 -->
<g id="edge1_Node000001_Node000002" class="edge">
<title>Node1&#45;&gt;Node2</title>
<g id="a_edge1_Node000001_Node000002"><a xlink:title=" ">
<path fill="none" stroke="#63b8ff" d="M253.12,-207.13C240.11,-248.51 212.43,-318.98 165.25,-361 158.23,-367.25 149.83,-372.29 141.11,-376.34"/>
<polygon fill="#63b8ff" stroke="#63b8ff" points="256.42,-208.31 255.96,-197.72 249.72,-206.28 256.42,-208.31"/>
</a>
</g>
</g>
<!-- Node3 -->
<g id="Node000003" class="node">
<title>Node3</title>
<g id="a_Node000003"><a xlink:href="structboost_1_1test__tools_1_1tt__detail_1_1print__log__value_3_01_v_o_01_4.html#aaf4c3a0ed118a198ef433b443ea4d3d0" target="_top" xlink:title=" ">
<polygon fill="white" stroke="#666666" points="144.62,-352 20.62,-352 20.62,-308 144.62,-308 144.62,-352"/>
<text xml:space="preserve" text-anchor="start" x="28.62" y="-338.5" font-family="Helvetica,sans-Serif" font-size="10.00">boost::test_tools::</text>
<text xml:space="preserve" text-anchor="start" x="28.62" y="-326.5" font-family="Helvetica,sans-Serif" font-size="10.00">tt_detail::print_log</text>
<text xml:space="preserve" text-anchor="middle" x="82.62" y="-314.5" font-family="Helvetica,sans-Serif" font-size="10.00">_value&lt; VO &gt;::operator()</text>
</a>
</g>
</g>
<!-- Node1&#45;&gt;Node3 -->
<g id="edge2_Node000001_Node000003" class="edge">
<title>Node1&#45;&gt;Node3</title>
<g id="a_edge2_Node000001_Node000003"><a xlink:title=" ">
<path fill="none" stroke="#63b8ff" d="M244.25,-206.18C227.15,-234.14 199.08,-273.97 165.25,-299 159.03,-303.6 152.06,-307.59 144.87,-311.05"/>
<polygon fill="#63b8ff" stroke="#63b8ff" points="247.15,-208.15 249.27,-197.77 241.14,-204.56 247.15,-208.15"/>
</a>
</g>
</g>
<!-- Node4 -->
<g id="Node000004" class="node">
<title>Node4</title>
<g id="a_Node000004"><a xlink:href="structdepicture__menu_1_1test_1_1test__tools_1_1field__checker.html#aa34650d61c770b2a7d65c02f0d69a58c" target="_top" xlink:title=" ">
<polygon fill="white" stroke="#666666" points="165.25,-290 0,-290 0,-162 165.25,-162 165.25,-290"/>
<text xml:space="preserve" text-anchor="start" x="8" y="-276.5" font-family="Helvetica,sans-Serif" font-size="10.00">depicture_menu::test</text>
<text xml:space="preserve" text-anchor="start" x="8" y="-264.5" font-family="Helvetica,sans-Serif" font-size="10.00">::test_tools::field_checker</text>
<text xml:space="preserve" text-anchor="start" x="8" y="-252.5" font-family="Helvetica,sans-Serif" font-size="10.00">&lt; dub::create_command_dto,</text>
<text xml:space="preserve" text-anchor="start" x="8" y="-240.5" font-family="Helvetica,sans-Serif" font-size="10.00"> dub::create_command_entity,</text>
<text xml:space="preserve" text-anchor="start" x="8" y="-228.5" font-family="Helvetica,sans-Serif" font-size="10.00"> command_data_factory, Dto,</text>
<text xml:space="preserve" text-anchor="start" x="8" y="-216.5" font-family="Helvetica,sans-Serif" font-size="10.00"> EntSetter, EntGetter, D, E &gt;</text>
<text xml:space="preserve" text-anchor="start" x="8" y="-204.5" font-family="Helvetica,sans-Serif" font-size="10.00">&lt; &quot;name&quot;, decltype([](auto &amp;v,</text>
<text xml:space="preserve" text-anchor="start" x="8" y="-192.5" font-family="Helvetica,sans-Serif" font-size="10.00"> auto const &amp;d) { v.name(d);}),</text>
<text xml:space="preserve" text-anchor="start" x="8" y="-180.5" font-family="Helvetica,sans-Serif" font-size="10.00"> decltype([](auto const &amp;v) { return</text>
<text xml:space="preserve" text-anchor="middle" x="82.62" y="-168.5" font-family="Helvetica,sans-Serif" font-size="10.00"> v.name();}), D, E &gt;::operator()</text>
</a>
</g>
</g>
<!-- Node1&#45;&gt;Node4 -->
<g id="edge3_Node000001_Node000004" class="edge">
<title>Node1&#45;&gt;Node4</title>
<g id="a_edge3_Node000001_Node000004"><a xlink:title=" ">
<path fill="none" stroke="#63b8ff" d="M189.74,-195.11C181.83,-197.41 173.73,-199.77 165.72,-202.1"/>
<polygon fill="#63b8ff" stroke="#63b8ff" points="190.7,-198.47 199.32,-192.32 188.74,-191.75 190.7,-198.47"/>
</a>
</g>
</g>
<!-- Node5 -->
<g id="Node000005" class="node">
<title>Node5</title>
<g id="a_Node000005"><a xlink:href="structdepicture__menu_1_1test_1_1test__tools_1_1init__checker.html#a7a5e9e712053a1287e9e86d0a6dcef7a" target="_top" xlink:title=" ">
<polygon fill="white" stroke="#666666" points="144.25,-144 21,-144 21,-100 144.25,-100 144.25,-144"/>
<text xml:space="preserve" text-anchor="start" x="29" y="-130.5" font-family="Helvetica,sans-Serif" font-size="10.00">depicture_menu::test</text>
<text xml:space="preserve" text-anchor="start" x="29" y="-118.5" font-family="Helvetica,sans-Serif" font-size="10.00">::test_tools::init_checker</text>
<text xml:space="preserve" text-anchor="middle" x="82.62" y="-106.5" font-family="Helvetica,sans-Serif" font-size="10.00">::operator()</text>
</a>
</g>
</g>
<!-- Node1&#45;&gt;Node5 -->
<g id="edge4_Node000001_Node000005" class="edge">
<title>Node1&#45;&gt;Node5</title>
<g id="a_edge4_Node000001_Node000005"><a xlink:title=" ">
<path fill="none" stroke="#63b8ff" d="M189.96,-152.96C174.92,-148.58 159.2,-144 144.61,-139.75"/>
<polygon fill="#63b8ff" stroke="#63b8ff" points="188.74,-156.25 199.32,-155.68 190.7,-149.53 188.74,-156.25"/>
</a>
</g>
</g>
<!-- Node6 -->
<g id="Node000006" class="node">
<title>Node6</title>
<g id="a_Node000006"><a xlink:href="structtt_1_1field__checker.html#aa1610a051ad7cd8478779af738420668" target="_top" xlink:title=" ">
<polygon fill="white" stroke="#666666" points="128.5,-82 36.75,-82 36.75,-50 128.5,-50 128.5,-82"/>
<text xml:space="preserve" text-anchor="start" x="44.75" y="-68.5" font-family="Helvetica,sans-Serif" font-size="10.00">tt::field_checker::</text>
<text xml:space="preserve" text-anchor="middle" x="82.62" y="-56.5" font-family="Helvetica,sans-Serif" font-size="10.00">operator()</text>
</a>
</g>
</g>
<!-- Node1&#45;&gt;Node6 -->
<g id="edge5_Node000001_Node000006" class="edge">
<title>Node1&#45;&gt;Node6</title>
<g id="a_edge5_Node000001_Node000006"><a xlink:title=" ">
<path fill="none" stroke="#63b8ff" d="M233.63,-143.94C215.48,-126.37 190.68,-104.98 165.25,-91 153.95,-84.79 140.9,-79.91 128.6,-76.18"/>
<polygon fill="#63b8ff" stroke="#63b8ff" points="230.84,-146.1 240.41,-150.64 235.76,-141.12 230.84,-146.1"/>
</a>
</g>
</g>
<!-- Node7 -->
<g id="Node000007" class="node">
<title>Node7</title>
<g id="a_Node000007"><a xlink:href="namespacedepicture__menu_1_1domain_1_1models_1_1base.html#aabec1f4c5bbc320bd602a9a2b49611c9" target="_top" xlink:title=" ">
<polygon fill="white" stroke="#666666" points="149.5,-32 15.75,-32 15.75,0 149.5,0 149.5,-32"/>
<text xml:space="preserve" text-anchor="start" x="23.75" y="-18.5" font-family="Helvetica,sans-Serif" font-size="10.00">depicture_menu::domain</text>
<text xml:space="preserve" text-anchor="middle" x="82.62" y="-6.5" font-family="Helvetica,sans-Serif" font-size="10.00">::models::base::operator==</text>
</a>
</g>
</g>
<!-- Node1&#45;&gt;Node7 -->
<g id="edge6_Node000001_Node000007" class="edge">
<title>Node1&#45;&gt;Node7</title>
<g id="a_edge6_Node000001_Node000007"><a xlink:title=" ">
<path fill="none" stroke="#63b8ff" d="M246.48,-141.64C230.16,-111.4 201.9,-67.1 165.25,-41 160.54,-37.65 155.37,-34.73 150,-32.21"/>
<polygon fill="#63b8ff" stroke="#63b8ff" points="243.31,-143.13 251.05,-150.36 249.51,-139.88 243.31,-143.13"/>
</a>
</g>
</g>
</g>
</svg>
