<?xml version="1.0" encoding="UTF-8" standalone="no"?>
<!DOCTYPE svg PUBLIC "-//W3C//DTD SVG 1.1//EN"
 "http://www.w3.org/Graphics/SVG/1.1/DTD/svg11.dtd">
<!-- Generated by graphviz version 14.1.2 (20260124.0452)
 -->
<!-- Title: depicture_menu::domain::common::set_blue Pages: 1 -->
<svg width="880pt" height="221pt"
 viewBox="0.00 0.00 880.00 221.00" xmlns="http://www.w3.org/2000/svg" xmlns:xlink="http://www.w3.org/1999/xlink">
<g id="graph0" class="graph" transform="scale(1 1) rotate(0) translate(4 217)">
<title>depicture_menu::domain::common::set_blue</title>
<!-- Node1 -->
<g id="Node000001" class="node">
<title>Node1</title>
<g id="a_Node000001"><a xlink:title=" ">
<polygon fill="#999999" stroke="#666666" points="872,-166 749.5,-166 749.5,-134 872,-134 872,-166"/>
<text xml:space="preserve" text-anchor="start" x="757.5" y="-152.5" font-family="Helvetica,sans-Serif" font-size="10.00">depicture_menu::domain</text>
<text xml:space="preserve" text-anchor="middle" x="810.75" y="-140.5" font-family="Helvetica,sans-Serif" font-size="10.00">::common::set_blue</text>
</a>
</g>
</g>
<!-- Node2 -->
<g id="Node000002" class="node">
<title>Node2</title>
<g id="a_Node000002"><a xlink:href="structdepicture__menu_1_1domain_1_1common_1_1rgba__color.html#a183027d60566324d551ad43c8258c2e0" target="_top" xlink:title=" ">
<polygon fill="white" stroke="#666666" points="695.88,-200 573.38,-200 573.38,-156 695.88,-156 695.88,-200"/>
<text xml:space="preserve" text-anchor="start" x="581.38" y="-186.5" font-family="Helvetica,sans-Serif" font-size="10.00">depicture_menu::domain</text>
<text xml:space="preserve" text-anchor="start" x="581.38" y="-174.5" font-family="Helvetica,sans-Serif" font-size="10.00">::common::rgba_color::</text>
<text xml:space="preserve" text-anchor="middle" x="634.62" y="-162.5" font-family="Helvetica,sans-Serif" font-size="10.00">operator T</text>
</a>
</g>
</g>
<!-- Node1&#45;&gt;Node2 -->
<g id="edge1_Node000001_Node000002" class="edge">
<title>Node1&#45;&gt;Node2</title>
<g id="a_edge1_Node000001_Node000002"><a xlink:title=" ">
<path fill="none" stroke="#63b8ff" d="M738.28,-161.49C724.32,-163.74 709.8,-166.07 696.22,-168.26"/>
<polygon fill="#63b8ff" stroke="#63b8ff" points="738.53,-165 747.84,-159.95 737.41,-158.09 738.53,-165"/>
</a>
</g>
</g>
<!-- Node3 -->
<g id="Node000003" class="node">
<title>Node3</title>
<g id="a_Node000003"><a xlink:href="namespacedepicture__menu_1_1domain_1_1common_1_1helper.html#a004cd9f97f6ccb07be2ebdf656f5444d" target="_top" xlink:title="RGB各チャンネル毎の射影ヘルパー">
<polygon fill="white" stroke="#666666" points="713.5,-138 555.75,-138 555.75,-106 713.5,-106 713.5,-138"/>
<text xml:space="preserve" text-anchor="start" x="563.75" y="-124.5" font-family="Helvetica,sans-Serif" font-size="10.00">depicture_menu::domain</text>
<text xml:space="preserve" text-anchor="middle" x="634.62" y="-112.5" font-family="Helvetica,sans-Serif" font-size="10.00">::common::helper::transform_rgb</text>
</a>
</g>
</g>
<!-- Node1&#45;&gt;Node3 -->
<g id="edge2_Node000001_Node000003" class="edge">
<title>Node1&#45;&gt;Node3</title>
<g id="a_edge2_Node000001_Node000003"><a xlink:title=" ">
<path fill="none" stroke="#63b8ff" d="M738.11,-138.48C730.07,-137.19 721.84,-135.86 713.72,-134.56"/>
<polygon fill="#63b8ff" stroke="#63b8ff" points="737.41,-141.91 747.84,-140.05 738.53,-135 737.41,-141.91"/>
</a>
</g>
</g>
<!-- Node4 -->
<g id="Node000004" class="node">
<title>Node4</title>
<g id="a_Node000004"><a xlink:href="namespacedepicture__menu_1_1domain_1_1common.html#a489762427aadf1319342642f91143575" target="_top" xlink:title="値をリミット">
<polygon fill="white" stroke="#666666" points="513,-213 390.5,-213 390.5,-181 513,-181 513,-213"/>
<text xml:space="preserve" text-anchor="start" x="398.5" y="-199.5" font-family="Helvetica,sans-Serif" font-size="10.00">depicture_menu::domain</text>
<text xml:space="preserve" text-anchor="middle" x="451.75" y="-187.5" font-family="Helvetica,sans-Serif" font-size="10.00">::common::ensure_rgba</text>
</a>
</g>
</g>
<!-- Node3&#45;&gt;Node4 -->
<g id="edge3_Node000003_Node000004" class="edge">
<title>Node3&#45;&gt;Node4</title>
<g id="a_edge3_Node000003_Node000004"><a xlink:title=" ">
<path fill="none" stroke="#63b8ff" d="M565.29,-142.63C562.03,-144.02 558.83,-145.48 555.75,-147 538.28,-155.63 537.01,-162.97 519.75,-172 513.92,-175.05 507.63,-177.91 501.33,-180.53"/>
<polygon fill="#63b8ff" stroke="#63b8ff" points="566.47,-145.92 574.46,-138.96 563.88,-139.42 566.47,-145.92"/>
</a>
</g>
</g>
<!-- Node6 -->
<g id="Node000006" class="node">
<title>Node6</title>
<g id="a_Node000006"><a xlink:href="namespacedepicture__menu_1_1domain_1_1common.html#aaf1c5b5d88690a4e3b6d18bc4675d0e6" target="_top" xlink:title="カラー加算">
<polygon fill="white" stroke="#666666" points="519.75,-163 383.75,-163 383.75,-131 519.75,-131 519.75,-163"/>
<text xml:space="preserve" text-anchor="start" x="391.75" y="-149.5" font-family="Helvetica,sans-Serif" font-size="10.00">depicture_menu::domain</text>
<text xml:space="preserve" text-anchor="middle" x="451.75" y="-137.5" font-family="Helvetica,sans-Serif" font-size="10.00">::common::linier_dodge_rgb</text>
</a>
</g>
</g>
<!-- Node3&#45;&gt;Node6 -->
<g id="edge5_Node000003_Node000006" class="edge">
<title>Node3&#45;&gt;Node6</title>
<g id="a_edge5_Node000003_Node000006"><a xlink:title=" ">
<path fill="none" stroke="#63b8ff" d="M544,-134.39C535.95,-135.5 527.9,-136.61 520.09,-137.69"/>
<polygon fill="#63b8ff" stroke="#63b8ff" points="544.42,-137.86 553.84,-133.03 543.46,-130.93 544.42,-137.86"/>
</a>
</g>
</g>
<!-- Node7 -->
<g id="Node000007" class="node">
<title>Node7</title>
<g id="a_Node000007"><a xlink:href="namespacedepicture__menu_1_1domain_1_1common.html#a9a2a3993b907c0ff1a85a4b53aea5962" target="_top" xlink:title="RGBへキャスト">
<polygon fill="white" stroke="#666666" points="513,-113 390.5,-113 390.5,-81 513,-81 513,-113"/>
<text xml:space="preserve" text-anchor="start" x="398.5" y="-99.5" font-family="Helvetica,sans-Serif" font-size="10.00">depicture_menu::domain</text>
<text xml:space="preserve" text-anchor="middle" x="451.75" y="-87.5" font-family="Helvetica,sans-Serif" font-size="10.00">::common::rgb_cast</text>
</a>
</g>
</g>
<!-- Node3&#45;&gt;Node7 -->
<g id="edge7_Node000003_Node000007" class="edge">
<title>Node3&#45;&gt;Node7</title>
<g id="a_edge7_Node000003_Node000007"><a xlink:title=" ">
<path fill="none" stroke="#63b8ff" d="M544.1,-109.63C533.71,-108.19 523.3,-106.75 513.43,-105.39"/>
<polygon fill="#63b8ff" stroke="#63b8ff" points="543.46,-113.07 553.84,-110.97 544.42,-106.14 543.46,-113.07"/>
</a>
</g>
</g>
<!-- Node9 -->
<g id="Node000009" class="node">
<title>Node9</title>
<g id="a_Node000009"><a xlink:href="namespacedepicture__menu_1_1domain_1_1common.html#af930cfed4ae67c5a4686d0f1bfc02fff" target="_top" xlink:title="RGBAへキャスト">
<polygon fill="white" stroke="#666666" points="513,-63 390.5,-63 390.5,-31 513,-31 513,-63"/>
<text xml:space="preserve" text-anchor="start" x="398.5" y="-49.5" font-family="Helvetica,sans-Serif" font-size="10.00">depicture_menu::domain</text>
<text xml:space="preserve" text-anchor="middle" x="451.75" y="-37.5" font-family="Helvetica,sans-Serif" font-size="10.00">::common::rgba_cast</text>
</a>
</g>
</g>
<!-- Node3&#45;&gt;Node9 -->
<g id="edge9_Node000003_Node000009" class="edge">
<title>Node3&#45;&gt;Node9</title>
<g id="a_edge9_Node000003_Node000009"><a xlink:title=" ">
<path fill="none" stroke="#63b8ff" d="M587.33,-100.96C566.75,-91.79 542.15,-81.09 519.75,-72 512.73,-69.15 505.25,-66.24 497.94,-63.46"/>
<polygon fill="#63b8ff" stroke="#63b8ff" points="585.75,-104.09 596.31,-104.98 588.61,-97.7 585.75,-104.09"/>
</a>
</g>
</g>
<!-- Node5 -->
<g id="Node000005" class="node">
<title>Node5</title>
<g id="a_Node000005"><a xlink:href="classdepicture__menu_1_1presentations_1_1menu__view__presenter.html#ac97fef37701785b4132172963a771071" target="_top" xlink:title="メニュー表示">
<polygon fill="white" stroke="#666666" points="347.75,-188 183.25,-188 183.25,-156 347.75,-156 347.75,-188"/>
<text xml:space="preserve" text-anchor="start" x="191.25" y="-174.5" font-family="Helvetica,sans-Serif" font-size="10.00">depicture_menu::presentations</text>
<text xml:space="preserve" text-anchor="middle" x="265.5" y="-162.5" font-family="Helvetica,sans-Serif" font-size="10.00">::menu_view_presenter::operator()</text>
</a>
</g>
</g>
<!-- Node4&#45;&gt;Node5 -->
<g id="edge4_Node000004_Node000005" class="edge">
<title>Node4&#45;&gt;Node5</title>
<g id="a_edge4_Node000004_Node000005"><a xlink:title=" ">
<path fill="none" stroke="#63b8ff" d="M378.95,-187.26C368.87,-185.89 358.44,-184.47 348.19,-183.08"/>
<polygon fill="#63b8ff" stroke="#63b8ff" points="378.28,-190.7 388.66,-188.58 379.23,-183.76 378.28,-190.7"/>
</a>
</g>
</g>
<!-- Node6&#45;&gt;Node5 -->
<g id="edge6_Node000006_Node000005" class="edge">
<title>Node6&#45;&gt;Node5</title>
<g id="a_edge6_Node000006_Node000005"><a xlink:title=" ">
<path fill="none" stroke="#63b8ff" d="M372.24,-157.65C364.23,-158.74 356.07,-159.85 348.03,-160.94"/>
<polygon fill="#63b8ff" stroke="#63b8ff" points="372.51,-161.15 381.95,-156.34 371.57,-154.21 372.51,-161.15"/>
</a>
</g>
</g>
<!-- Node8 -->
<g id="Node000008" class="node">
<title>Node8</title>
<g id="a_Node000008"><a xlink:href="namespacedepicture__menu_1_1usecase.html#a2c254e4837bdea923a00c9bb9387ea05" target="_top" xlink:title=" ">
<polygon fill="white" stroke="#666666" points="329.38,-113 201.62,-113 201.62,-81 329.38,-81 329.38,-113"/>
<text xml:space="preserve" text-anchor="start" x="209.62" y="-99.5" font-family="Helvetica,sans-Serif" font-size="10.00">depicture_menu::usecase</text>
<text xml:space="preserve" text-anchor="middle" x="265.5" y="-87.5" font-family="Helvetica,sans-Serif" font-size="10.00">::convert_to_dto</text>
</a>
</g>
</g>
<!-- Node7&#45;&gt;Node8 -->
<g id="edge8_Node000007_Node000008" class="edge">
<title>Node7&#45;&gt;Node8</title>
<g id="a_edge8_Node000007_Node000008"><a xlink:title=" ">
<path fill="none" stroke="#63b8ff" d="M379.05,-97C362.76,-97 345.56,-97 329.65,-97"/>
<polygon fill="#63b8ff" stroke="#63b8ff" points="378.65,-100.5 388.65,-97 378.65,-93.5 378.65,-100.5"/>
</a>
</g>
</g>
<!-- Node10 -->
<g id="Node000010" class="node">
<title>Node10</title>
<g id="a_Node000010"><a xlink:href="namespacedepicture__menu_1_1usecase_1_1backup.html#aa119e67f0ce64b2f8e57e6b634f686fa" target="_top" xlink:title=" ">
<polygon fill="white" stroke="#666666" points="333.88,-63 197.12,-63 197.12,-31 333.88,-31 333.88,-63"/>
<text xml:space="preserve" text-anchor="start" x="205.12" y="-49.5" font-family="Helvetica,sans-Serif" font-size="10.00">depicture_menu::usecase</text>
<text xml:space="preserve" text-anchor="middle" x="265.5" y="-37.5" font-family="Helvetica,sans-Serif" font-size="10.00">::backup::create_config_dto</text>
</a>
</g>
</g>
<!-- Node9&#45;&gt;Node10 -->
<g id="edge10_Node000009_Node000010" class="edge">
<title>Node9&#45;&gt;Node10</title>
<g id="a_edge10_Node000009_Node000010"><a xlink:title=" ">
<path fill="none" stroke="#63b8ff" d="M379.04,-47C364.26,-47 348.75,-47 334.13,-47"/>
<polygon fill="#63b8ff" stroke="#63b8ff" points="378.65,-50.5 388.65,-47 378.65,-43.5 378.65,-50.5"/>
</a>
</g>
</g>
<!-- Node11 -->
<g id="Node000011" class="node">
<title>Node11</title>
<g id="a_Node000011"><a xlink:href="_test_export_backup__config_8cpp.html#a5fe0ff451c75fb43e58d6e57c4b65750" target="_top" xlink:title=" ">
<polygon fill="white" stroke="#666666" points="147.25,-82 0,-82 0,-62 147.25,-62 147.25,-82"/>
<text xml:space="preserve" text-anchor="middle" x="73.62" y="-68.5" font-family="Helvetica,sans-Serif" font-size="10.00">BOOST_AUTO_TEST_CASE</text>
</a>
</g>
</g>
<!-- Node10&#45;&gt;Node11 -->
<g id="edge11_Node000010_Node000011" class="edge">
<title>Node10&#45;&gt;Node11</title>
<g id="a_edge11_Node000010_Node000011"><a xlink:title=" ">
<path fill="none" stroke="#63b8ff" d="M185.36,-57.42C172.81,-59.07 159.89,-60.77 147.49,-62.41"/>
<polygon fill="#63b8ff" stroke="#63b8ff" points="185.8,-60.89 195.25,-56.12 184.88,-53.95 185.8,-60.89"/>
</a>
</g>
</g>
<!-- Node12 -->
<g id="Node000012" class="node">
<title>Node12</title>
<g id="a_Node000012"><a xlink:href="classdepicture__menu_1_1usecase_1_1backup_1_1export__backup.html#a28bbc2b85c1c87eb63ef672be633ffca" target="_top" xlink:title=" ">
<polygon fill="white" stroke="#666666" points="137.5,-44 9.75,-44 9.75,0 137.5,0 137.5,-44"/>
<text xml:space="preserve" text-anchor="start" x="17.75" y="-30.5" font-family="Helvetica,sans-Serif" font-size="10.00">depicture_menu::usecase</text>
<text xml:space="preserve" text-anchor="start" x="17.75" y="-18.5" font-family="Helvetica,sans-Serif" font-size="10.00">::backup::export_backup</text>
<text xml:space="preserve" text-anchor="middle" x="73.62" y="-6.5" font-family="Helvetica,sans-Serif" font-size="10.00">::done_export</text>
</a>
</g>
</g>
<!-- Node10&#45;&gt;Node12 -->
<g id="edge12_Node000010_Node000012" class="edge">
<title>Node10&#45;&gt;Node12</title>
<g id="a_edge12_Node000010_Node000012"><a xlink:title=" ">
<path fill="none" stroke="#63b8ff" d="M185.36,-36.58C169.54,-34.5 153.11,-32.33 137.9,-30.33"/>
<polygon fill="#63b8ff" stroke="#63b8ff" points="184.88,-40.05 195.25,-37.88 185.8,-33.11 184.88,-40.05"/>
</a>
</g>
</g>
</g>
</svg>
