<?xml version="1.0" encoding="UTF-8" standalone="no"?>
<!DOCTYPE svg PUBLIC "-//W3C//DTD SVG 1.1//EN"
 "http://www.w3.org/Graphics/SVG/1.1/DTD/svg11.dtd">
<!-- Generated by graphviz version 14.1.2 (20260124.0452)
 -->
<!-- Title: depicture_menu::win32::process::query_process_image_name Pages: 1 -->
<svg width="695pt" height="97pt"
 viewBox="0.00 0.00 695.00 97.00" xmlns="http://www.w3.org/2000/svg" xmlns:xlink="http://www.w3.org/1999/xlink">
<g id="graph0" class="graph" transform="scale(1 1) rotate(0) translate(4 93)">
<title>depicture_menu::win32::process::query_process_image_name</title>
<!-- Node1 -->
<g id="Node000001" class="node">
<title>Node1</title>
<g id="a_Node000001"><a xlink:title="query_process_image_name">
<polygon fill="#999999" stroke="#666666" points="687.25,-76 561,-76 561,-32 687.25,-32 687.25,-76"/>
<text xml:space="preserve" text-anchor="start" x="569" y="-62.5" font-family="Helvetica,sans-Serif" font-size="10.00">depicture_menu::win32</text>
<text xml:space="preserve" text-anchor="start" x="569" y="-50.5" font-family="Helvetica,sans-Serif" font-size="10.00">::process::query_process</text>
<text xml:space="preserve" text-anchor="middle" x="624.12" y="-38.5" font-family="Helvetica,sans-Serif" font-size="10.00">_image_name</text>
</a>
</g>
</g>
<!-- Node2 -->
<g id="Node000002" class="node">
<title>Node2</title>
<g id="a_Node000002"><a xlink:href="_test_win32_message_sender_8cpp.html#a3c3da837ba1398c1fd43a7a9cd2bd930" target="_top" xlink:title=" ">
<polygon fill="white" stroke="#666666" points="525,-89 362,-89 362,-69 525,-69 525,-89"/>
<text xml:space="preserve" text-anchor="middle" x="443.5" y="-75.5" font-family="Helvetica,sans-Serif" font-size="10.00">BOOST_FIXTURE_TEST_CASE</text>
</a>
</g>
</g>
<!-- Node1&#45;&gt;Node2 -->
<g id="edge1_Node000001_Node000002" class="edge">
<title>Node1&#45;&gt;Node2</title>
<g id="a_edge1_Node000001_Node000002"><a xlink:title=" ">
<path fill="none" stroke="#63b8ff" d="M549.5,-64.3C539.5,-65.7 529.23,-67.14 519.21,-68.54"/>
<polygon fill="#63b8ff" stroke="#63b8ff" points="549.73,-67.81 559.15,-62.95 548.76,-60.87 549.73,-67.81"/>
</a>
</g>
</g>
<!-- Node3 -->
<g id="Node000003" class="node">
<title>Node3</title>
<g id="a_Node000003"><a xlink:href="namespacedepicture__menu_1_1win32_1_1process.html#a88443eb9ecadc80c7efce1b603485cf1" target="_top" xlink:title=" ">
<polygon fill="white" stroke="#666666" points="516,-51 371,-51 371,-7 516,-7 516,-51"/>
<text xml:space="preserve" text-anchor="start" x="379" y="-37.5" font-family="Helvetica,sans-Serif" font-size="10.00">depicture_menu::win32</text>
<text xml:space="preserve" text-anchor="start" x="379" y="-25.5" font-family="Helvetica,sans-Serif" font-size="10.00">::process::query_process</text>
<text xml:space="preserve" text-anchor="middle" x="443.5" y="-13.5" font-family="Helvetica,sans-Serif" font-size="10.00">_image_name_by_process_id</text>
</a>
</g>
</g>
<!-- Node1&#45;&gt;Node3 -->
<g id="edge2_Node000001_Node000003" class="edge">
<title>Node1&#45;&gt;Node3</title>
<g id="a_edge2_Node000001_Node000003"><a xlink:title=" ">
<path fill="none" stroke="#63b8ff" d="M549.43,-43.69C538.52,-42.16 527.29,-40.59 516.42,-39.07"/>
<polygon fill="#63b8ff" stroke="#63b8ff" points="548.76,-47.13 559.15,-45.05 549.73,-40.19 548.76,-47.13"/>
</a>
</g>
</g>
<!-- Node4 -->
<g id="Node000004" class="node">
<title>Node4</title>
<g id="a_Node000004"><a xlink:href="structdepicture__menu_1_1win32_1_1win32__message__sender.html#a5f6afb44f7854de795877bd3bf9ae07e" target="_top" xlink:title=" ">
<polygon fill="white" stroke="#666666" points="326,-51 199,-51 199,-7 326,-7 326,-51"/>
<text xml:space="preserve" text-anchor="start" x="207" y="-37.5" font-family="Helvetica,sans-Serif" font-size="10.00">depicture_menu::win32</text>
<text xml:space="preserve" text-anchor="start" x="207" y="-25.5" font-family="Helvetica,sans-Serif" font-size="10.00">::win32_message_sender</text>
<text xml:space="preserve" text-anchor="middle" x="262.5" y="-13.5" font-family="Helvetica,sans-Serif" font-size="10.00">::enum_window_handle</text>
</a>
</g>
</g>
<!-- Node3&#45;&gt;Node4 -->
<g id="edge3_Node000003_Node000004" class="edge">
<title>Node3&#45;&gt;Node4</title>
<g id="a_edge3_Node000003_Node000004"><a xlink:title=" ">
<path fill="none" stroke="#63b8ff" d="M359.26,-29C348.19,-29 336.99,-29 326.34,-29"/>
<polygon fill="#63b8ff" stroke="#63b8ff" points="359.21,-32.5 369.21,-29 359.21,-25.5 359.21,-32.5"/>
</a>
</g>
</g>
<!-- Node5 -->
<g id="Node000005" class="node">
<title>Node5</title>
<g id="a_Node000005"><a xlink:href="_test_win32_message_sender_8cpp.html#a83cf73cd7adacff519e3b811d207f251" target="_top" xlink:title=" ">
<polygon fill="white" stroke="#666666" points="155.12,-58 7.88,-58 7.88,-38 155.12,-38 155.12,-58"/>
<text xml:space="preserve" text-anchor="middle" x="81.5" y="-44.5" font-family="Helvetica,sans-Serif" font-size="10.00">BOOST_AUTO_TEST_CASE</text>
</a>
</g>
</g>
<!-- Node4&#45;&gt;Node5 -->
<g id="edge4_Node000004_Node000005" class="edge">
<title>Node4&#45;&gt;Node5</title>
<g id="a_edge4_Node000004_Node000005"><a xlink:title=" ">
<path fill="none" stroke="#63b8ff" d="M187.31,-36.87C176.74,-38 165.87,-39.15 155.32,-40.27"/>
<polygon fill="#63b8ff" stroke="#63b8ff" points="187.56,-40.37 197.14,-35.83 186.82,-33.41 187.56,-40.37"/>
</a>
</g>
</g>
<!-- Node6 -->
<g id="Node000006" class="node">
<title>Node6</title>
<g id="a_Node000006"><a xlink:href="_test_win32_message_sender_8cpp.html#aa816833a7f90635f6ea957131ad42def" target="_top" xlink:title=" ">
<polygon fill="white" stroke="#666666" points="163,-20 0,-20 0,0 163,0 163,-20"/>
<text xml:space="preserve" text-anchor="middle" x="81.5" y="-6.5" font-family="Helvetica,sans-Serif" font-size="10.00">BOOST_FIXTURE_TEST_CASE</text>
</a>
</g>
</g>
<!-- Node4&#45;&gt;Node6 -->
<g id="edge5_Node000004_Node000006" class="edge">
<title>Node4&#45;&gt;Node6</title>
<g id="a_edge5_Node000004_Node000006"><a xlink:title=" ">
<path fill="none" stroke="#63b8ff" d="M187.26,-21.12C179.4,-20.29 171.37,-19.43 163.43,-18.59"/>
<polygon fill="#63b8ff" stroke="#63b8ff" points="186.82,-24.59 197.14,-22.17 187.56,-17.63 186.82,-24.59"/>
</a>
</g>
</g>
</g>
</svg>
