<?xml version="1.0" encoding="UTF-8" standalone="no"?>
<!DOCTYPE svg PUBLIC "-//W3C//DTD SVG 1.1//EN"
 "http://www.w3.org/Graphics/SVG/1.1/DTD/svg11.dtd">
<!-- Generated by graphviz version 14.1.2 (20260124.0452)
 -->
<!-- Title: detail_menu_convert_::convert_menu_unit Pages: 1 -->
<svg width="457pt" height="114pt"
 viewBox="0.00 0.00 457.00 114.00" xmlns="http://www.w3.org/2000/svg" xmlns:xlink="http://www.w3.org/1999/xlink">
<g id="graph0" class="graph" transform="scale(1 1) rotate(0) translate(4 110)">
<title>detail_menu_convert_::convert_menu_unit</title>
<!-- Node1 -->
<g id="Node000001" class="node">
<title>Node1</title>
<g id="a_Node000001"><a xlink:title=" ">
<polygon fill="#999999" stroke="#666666" points="448.5,-69 338.75,-69 338.75,-37 448.5,-37 448.5,-69"/>
<text xml:space="preserve" text-anchor="start" x="346.75" y="-55.5" font-family="Helvetica,sans-Serif" font-size="10.00">detail_menu_convert</text>
<text xml:space="preserve" text-anchor="middle" x="393.62" y="-43.5" font-family="Helvetica,sans-Serif" font-size="10.00">_::convert_menu_unit</text>
</a>
</g>
</g>
<!-- Node2 -->
<g id="Node000002" class="node">
<title>Node2</title>
<g id="a_Node000002"><a xlink:href="namespacedetail__menu__convert__.html#a1a84cb8701551132628c5a6a1c7898fb" target="_top" xlink:title=" ">
<polygon fill="white" stroke="#666666" points="290.75,-97 173.5,-97 173.5,-65 290.75,-65 290.75,-97"/>
<text xml:space="preserve" text-anchor="start" x="181.5" y="-83.5" font-family="Helvetica,sans-Serif" font-size="10.00">detail_menu_convert</text>
<text xml:space="preserve" text-anchor="middle" x="232.12" y="-71.5" font-family="Helvetica,sans-Serif" font-size="10.00">_::convert_menu_by_id</text>
</a>
</g>
</g>
<!-- Node1&#45;&gt;Node2 -->
<g id="edge1_Node000001_Node000002" class="edge">
<title>Node1&#45;&gt;Node2</title>
<g id="a_edge1_Node000001_Node000002"><a xlink:title=" ">
<path fill="none" stroke="#63b8ff" d="M327.32,-64.46C315.34,-66.57 302.91,-68.75 291.17,-70.81"/>
<polygon fill="#63b8ff" stroke="#63b8ff" points="327.89,-67.92 337.13,-62.74 326.68,-61.02 327.89,-67.92"/>
</a>
</g>
</g>
<!-- Node4 -->
<g id="Node000004" class="node">
<title>Node4</title>
<g id="a_Node000004"><a xlink:href="namespacedetail__menu__convert__.html#a399b400672b7e92487e29d60497960e8" target="_top" xlink:title=" ">
<polygon fill="white" stroke="#666666" points="302.75,-44 161.5,-44 161.5,-12 302.75,-12 302.75,-44"/>
<text xml:space="preserve" text-anchor="start" x="169.5" y="-30.5" font-family="Helvetica,sans-Serif" font-size="10.00">detail_menu_convert</text>
<text xml:space="preserve" text-anchor="middle" x="232.12" y="-18.5" font-family="Helvetica,sans-Serif" font-size="10.00">_::convert_menu_item_by_id</text>
</a>
</g>
</g>
<!-- Node1&#45;&gt;Node4 -->
<g id="edge3_Node000001_Node000004" class="edge">
<title>Node1&#45;&gt;Node4</title>
<g id="a_edge3_Node000001_Node000004"><a xlink:title=" ">
<path fill="none" stroke="#63b8ff" d="M327.48,-42.79C319.47,-41.53 311.26,-40.25 303.19,-38.98"/>
<polygon fill="#63b8ff" stroke="#63b8ff" points="326.71,-46.21 337.13,-44.3 327.79,-39.3 326.71,-46.21"/>
</a>
</g>
</g>
<!-- Node3 -->
<g id="Node000003" class="node">
<title>Node3</title>
<g id="a_Node000003"><a xlink:href="classdepicture__menu_1_1controls_1_1menu__config__controler.html#ac9157d89c50b858e145eb8d4c56e706c" target="_top" xlink:title=" ">
<polygon fill="white" stroke="#666666" points="125.5,-106 0,-106 0,-62 125.5,-62 125.5,-106"/>
<text xml:space="preserve" text-anchor="start" x="8" y="-92.5" font-family="Helvetica,sans-Serif" font-size="10.00">depicture_menu::controls</text>
<text xml:space="preserve" text-anchor="start" x="8" y="-80.5" font-family="Helvetica,sans-Serif" font-size="10.00">::menu_config_controler</text>
<text xml:space="preserve" text-anchor="middle" x="62.75" y="-68.5" font-family="Helvetica,sans-Serif" font-size="10.00">::extract_data</text>
</a>
</g>
</g>
<!-- Node2&#45;&gt;Node3 -->
<g id="edge2_Node000002_Node000003" class="edge">
<title>Node2&#45;&gt;Node3</title>
<g id="a_edge2_Node000002_Node000003"><a xlink:title=" ">
<path fill="none" stroke="#63b8ff" d="M161.82,-82.24C149.95,-82.46 137.67,-82.68 126,-82.88"/>
<polygon fill="#63b8ff" stroke="#63b8ff" points="161.61,-85.75 171.54,-82.07 161.48,-78.75 161.61,-85.75"/>
</a>
</g>
</g>
<!-- Node5 -->
<g id="Node000005" class="node">
<title>Node5</title>
<g id="a_Node000005"><a xlink:href="classdepicture__menu_1_1controls_1_1menu__config__controler.html#a422cacd7b700d772f5ff33e107303b95" target="_top" xlink:title=" ">
<polygon fill="white" stroke="#666666" points="125.5,-44 0,-44 0,0 125.5,0 125.5,-44"/>
<text xml:space="preserve" text-anchor="start" x="8" y="-30.5" font-family="Helvetica,sans-Serif" font-size="10.00">depicture_menu::controls</text>
<text xml:space="preserve" text-anchor="start" x="8" y="-18.5" font-family="Helvetica,sans-Serif" font-size="10.00">::menu_config_controler</text>
<text xml:space="preserve" text-anchor="middle" x="62.75" y="-6.5" font-family="Helvetica,sans-Serif" font-size="10.00">::extract_data</text>
</a>
</g>
</g>
<!-- Node4&#45;&gt;Node5 -->
<g id="edge4_Node000004_Node000005" class="edge">
<title>Node4&#45;&gt;Node5</title>
<g id="a_edge4_Node000004_Node000005"><a xlink:title=" ">
<path fill="none" stroke="#63b8ff" d="M149.75,-25.08C141.68,-24.79 133.59,-24.5 125.76,-24.22"/>
<polygon fill="#63b8ff" stroke="#63b8ff" points="149.48,-28.58 159.6,-25.44 149.73,-21.58 149.48,-28.58"/>
</a>
</g>
</g>
</g>
</svg>
