<?xml version="1.0" encoding="UTF-8" standalone="no"?>
<!DOCTYPE svg PUBLIC "-//W3C//DTD SVG 1.1//EN"
 "http://www.w3.org/Graphics/SVG/1.1/DTD/svg11.dtd">
<!-- Generated by graphviz version 14.1.2 (20260124.0452)
 -->
<!-- Title: depicture_menu::applications::view_factories::get_menu_view_arg_injection Pages: 1 -->
<!--zoomable 422 -->

<svg id="main" version="1.1" xmlns="http://www.w3.org/2000/svg" xmlns:xlink="http://www.w3.org/1999/xlink" xml:space="preserve" onload="init(evt)">

<style type="text/css"><![CDATA[
.node, .edge {opacity: 0.7;}
.node.selected, .edge.selected {opacity: 1;}
.edge:hover path { stroke: red; }
.edge:hover polygon { stroke: red; fill: red; }
]]></style>

<defs>
  <circle id="rim" cx="0" cy="0" r="7"/>
  <circle id="rim2" cx="0" cy="0" r="3.5"/>
  <g id="zoomPlus">
    <use xlink:href="#rim" fill="#404040"><set attributeName="fill" to="#808080" begin="zoomplus.mouseover" end="zoomplus.mouseout"/></use>
    <path d="M-4,0h8M0,-4v8" fill="none" stroke="white" stroke-width="1.5" pointer-events="none"/>
  </g>
  <g id="zoomMin">
    <use xlink:href="#rim" fill="#404040"><set attributeName="fill" to="#808080" begin="zoomminus.mouseover" end="zoomminus.mouseout"/></use>
    <path d="M-4,0h8" fill="none" stroke="white" stroke-width="1.5" pointer-events="none"/>
  </g>
  <g id="arrowUp" transform="translate(30 24)">
    <use xlink:href="#rim"/>
    <path pointer-events="none" fill="none" stroke="white" stroke-width="1.5" d="M0,-3.0v7 M-2.5,-0.5L0,-3.0L2.5,-0.5"/>
  </g>
  <g id="arrowRight" transform="rotate(90) translate(36 -43)">
    <use xlink:href="#rim"/>
    <path pointer-events="none" fill="none" stroke="white" stroke-width="1.5" d="M0,-3.0v7 M-2.5,-0.5L0,-3.0L2.5,-0.5"/>
  </g>
  <g id="arrowDown" transform="rotate(180) translate(-30 -48)">
    <use xlink:href="#rim"/>
    <path pointer-events="none" fill="none" stroke="white" stroke-width="1.5" d="M0,-3.0v7 M-2.5,-0.5L0,-3.0L2.5,-0.5"/>
  </g>
  <g id="arrowLeft" transform="rotate(270) translate(-36 17)">
    <use xlink:href="#rim"/>
    <path pointer-events="none" fill="none" stroke="white" stroke-width="1.5" d="M0,-3.0v7 M-2.5,-0.5L0,-3.0L2.5,-0.5"/>
  </g>
  <g id="resetDef">
    <use xlink:href="#rim2" fill="#404040"><set attributeName="fill" to="#808080" begin="reset.mouseover" end="reset.mouseout"/></use>
  </g>
</defs>
<script type="application/ecmascript">
var viewWidth = 667;
var viewHeight = 422;
var sectionId = 'dynsection-0';
</script>
<script type="application/ecmascript" xlink:href="svg.min.js"/>
<svg id="graph" class="graph">
<g id="viewport">
<title>depicture_menu::applications::view_factories::get_menu_view_arg_injection</title>
<!-- Node1 -->
<g id="Node000001" class="node">
<title>Node1</title>
<g id="a_Node000001"><a xlink:title=" ">
<polygon fill="#999999" stroke="#666666" points="658.75,-260 516,-260 516,-216 658.75,-216 658.75,-260"/>
<text xml:space="preserve" text-anchor="start" x="524" y="-246.5" font-family="Helvetica,sans-Serif" font-size="10.00">depicture_menu::applications</text>
<text xml:space="preserve" text-anchor="start" x="524" y="-234.5" font-family="Helvetica,sans-Serif" font-size="10.00">::view_factories::get_menu</text>
<text xml:space="preserve" text-anchor="middle" x="587.38" y="-222.5" font-family="Helvetica,sans-Serif" font-size="10.00">_view_arg_injection</text>
</a>
</g>
</g>
<!-- Node2 -->
<g id="Node000002" class="node">
<title>Node2</title>
<g id="a_Node000002"><a xlink:href="namespacedetail.html#a8aee8542a8e50ac503aeda7f2e247b33" target="_top" xlink:title=" ">
<polygon fill="white" stroke="#666666" points="480,-254 379.25,-254 379.25,-222 480,-222 480,-254"/>
<text xml:space="preserve" text-anchor="start" x="387.25" y="-240.5" font-family="Helvetica,sans-Serif" font-size="10.00">detail::make_config</text>
<text xml:space="preserve" text-anchor="middle" x="429.62" y="-228.5" font-family="Helvetica,sans-Serif" font-size="10.00">_view_injection</text>
</a>
</g>
</g>
<!-- Node1&#45;&gt;Node2 -->
<g id="edge1_Node000001_Node000002" class="edge">
<title>Node1&#45;&gt;Node2</title>
<g id="a_edge1_Node000001_Node000002"><a xlink:title=" ">
<path fill="none" stroke="#63b8ff" d="M504.31,-238C496.19,-238 488.14,-238 480.49,-238"/>
<polygon fill="#63b8ff" stroke="#63b8ff" points="504.28,-241.5 514.28,-238 504.28,-234.5 504.28,-241.5"/>
</a>
</g>
</g>
<!-- Node3 -->
<g id="Node000003" class="node">
<title>Node3</title>
<g id="a_Node000003"><a xlink:href="classdepicture__menu_1_1applications_1_1view__factories_1_1config__view__arg__builder.html#a81771a2eb3dd080cb12d97086f19e37b" target="_top" xlink:title=" ">
<polygon fill="white" stroke="#666666" points="343.25,-285 200.5,-285 200.5,-241 343.25,-241 343.25,-285"/>
<text xml:space="preserve" text-anchor="start" x="208.5" y="-271.5" font-family="Helvetica,sans-Serif" font-size="10.00">depicture_menu::applications</text>
<text xml:space="preserve" text-anchor="start" x="208.5" y="-259.5" font-family="Helvetica,sans-Serif" font-size="10.00">::view_factories::config</text>
<text xml:space="preserve" text-anchor="middle" x="271.88" y="-247.5" font-family="Helvetica,sans-Serif" font-size="10.00">_view_arg_builder::build</text>
</a>
</g>
</g>
<!-- Node2&#45;&gt;Node3 -->
<g id="edge2_Node000002_Node000003" class="edge">
<title>Node2&#45;&gt;Node3</title>
<g id="a_edge2_Node000002_Node000003"><a xlink:title=" ">
<path fill="none" stroke="#63b8ff" d="M367.62,-247.79C359.77,-249.05 351.68,-250.35 343.68,-251.63"/>
<polygon fill="#63b8ff" stroke="#63b8ff" points="368.1,-251.26 377.42,-246.22 366.99,-244.35 368.1,-251.26"/>
</a>
</g>
</g>
<!-- Node4 -->
<g id="Node000004" class="node">
<title>Node4</title>
<g id="a_Node000004"><a xlink:href="namespacedetail.html#a9059c63b55917525f60302be2ad6701b" target="_top" xlink:title=" ">
<polygon fill="white" stroke="#666666" points="329,-223 214.75,-223 214.75,-203 329,-203 329,-223"/>
<text xml:space="preserve" text-anchor="middle" x="271.88" y="-209.5" font-family="Helvetica,sans-Serif" font-size="10.00">detail::create_usecase</text>
</a>
</g>
</g>
<!-- Node2&#45;&gt;Node4 -->
<g id="edge3_Node000002_Node000004" class="edge">
<title>Node2&#45;&gt;Node4</title>
<g id="a_edge3_Node000002_Node000004"><a xlink:title=" ">
<path fill="none" stroke="#63b8ff" d="M367.58,-228.2C355.01,-226.18 341.83,-224.07 329.42,-222.08"/>
<polygon fill="#63b8ff" stroke="#63b8ff" points="366.99,-231.65 377.42,-229.78 368.1,-224.74 366.99,-231.65"/>
</a>
</g>
</g>
<!-- Node5 -->
<g id="Node000005" class="node">
<title>Node5</title>
<g id="a_Node000005"><a xlink:href="classdepicture__menu_1_1applications_1_1view__factories_1_1config__view__arg__builder.html#ada8abae5fb46a758aa2b954eedfdd560" target="_top" xlink:title=" ">
<polygon fill="white" stroke="#666666" points="164.5,-414 0,-414 0,-370 164.5,-370 164.5,-414"/>
<text xml:space="preserve" text-anchor="start" x="8" y="-400.5" font-family="Helvetica,sans-Serif" font-size="10.00">depicture_menu::applications</text>
<text xml:space="preserve" text-anchor="start" x="8" y="-388.5" font-family="Helvetica,sans-Serif" font-size="10.00">::view_factories::config</text>
<text xml:space="preserve" text-anchor="middle" x="82.25" y="-376.5" font-family="Helvetica,sans-Serif" font-size="10.00">_view_arg_builder::build_publisher</text>
</a>
</g>
</g>
<!-- Node4&#45;&gt;Node5 -->
<g id="edge4_Node000004_Node000005" class="edge">
<title>Node4&#45;&gt;Node5</title>
<g id="a_edge4_Node000004_Node000005"><a xlink:title=" ">
<path fill="none" stroke="#63b8ff" d="M204.92,-228.15C203.37,-229.34 201.89,-230.62 200.5,-232 158.23,-273.91 204.6,-317.01 164.5,-361 161.55,-364.24 158.23,-367.14 154.65,-369.74"/>
<polygon fill="#63b8ff" stroke="#63b8ff" points="206.52,-231.28 213.21,-223.06 202.86,-225.31 206.52,-231.28"/>
</a>
</g>
</g>
<!-- Node6 -->
<g id="Node000006" class="node">
<title>Node6</title>
<g id="a_Node000006"><a xlink:href="structdepicture__menu_1_1cs__binding_1_1observer_1_1detail__observer_1_1cfg__observer.html#a25999e4fbcd258309e9a77f53a649d5e" target="_top" xlink:title=" ">
<polygon fill="white" stroke="#666666" points="135.25,-352 29.25,-352 29.25,-296 135.25,-296 135.25,-352"/>
<text xml:space="preserve" text-anchor="start" x="37.25" y="-338.5" font-family="Helvetica,sans-Serif" font-size="10.00">depicture_menu::cs</text>
<text xml:space="preserve" text-anchor="start" x="37.25" y="-326.5" font-family="Helvetica,sans-Serif" font-size="10.00">_binding::observer::</text>
<text xml:space="preserve" text-anchor="start" x="37.25" y="-314.5" font-family="Helvetica,sans-Serif" font-size="10.00">detail_observer::cfg</text>
<text xml:space="preserve" text-anchor="middle" x="82.25" y="-302.5" font-family="Helvetica,sans-Serif" font-size="10.00">_observer::operator()</text>
</a>
</g>
</g>
<!-- Node4&#45;&gt;Node6 -->
<g id="edge5_Node000004_Node000006" class="edge">
<title>Node4&#45;&gt;Node6</title>
<g id="a_edge5_Node000004_Node000006"><a xlink:title=" ">
<path fill="none" stroke="#63b8ff" d="M206.03,-228.41C204.12,-229.52 202.27,-230.72 200.5,-232 176.85,-249.15 186.67,-267.97 164.5,-287 156.03,-294.27 145.9,-300.37 135.71,-305.4"/>
<polygon fill="#63b8ff" stroke="#63b8ff" points="207.24,-231.71 214.66,-224.15 204.14,-225.44 207.24,-231.71"/>
</a>
</g>
</g>
<!-- Node7 -->
<g id="Node000007" class="node">
<title>Node7</title>
<g id="a_Node000007"><a xlink:href="structdepicture__menu_1_1cs__binding_1_1observer_1_1detail__observer_1_1cfg__observer.html#af6ce1b77166781317738d49e1ce315c6" target="_top" xlink:title=" ">
<polygon fill="white" stroke="#666666" points="135.25,-278 29.25,-278 29.25,-222 135.25,-222 135.25,-278"/>
<text xml:space="preserve" text-anchor="start" x="37.25" y="-264.5" font-family="Helvetica,sans-Serif" font-size="10.00">depicture_menu::cs</text>
<text xml:space="preserve" text-anchor="start" x="37.25" y="-252.5" font-family="Helvetica,sans-Serif" font-size="10.00">_binding::observer::</text>
<text xml:space="preserve" text-anchor="start" x="37.25" y="-240.5" font-family="Helvetica,sans-Serif" font-size="10.00">detail_observer::cfg</text>
<text xml:space="preserve" text-anchor="middle" x="82.25" y="-228.5" font-family="Helvetica,sans-Serif" font-size="10.00">_observer::operator()</text>
</a>
</g>
</g>
<!-- Node4&#45;&gt;Node7 -->
<g id="edge6_Node000004_Node000007" class="edge">
<title>Node4&#45;&gt;Node7</title>
<g id="a_edge6_Node000004_Node000007"><a xlink:title=" ">
<path fill="none" stroke="#63b8ff" d="M206.95,-225.61C183.71,-230.19 157.74,-235.31 135.62,-239.67"/>
<polygon fill="#63b8ff" stroke="#63b8ff" points="207.49,-229.07 216.63,-223.7 206.14,-222.2 207.49,-229.07"/>
</a>
</g>
</g>
<!-- Node8 -->
<g id="Node000008" class="node">
<title>Node8</title>
<g id="a_Node000008"><a xlink:href="structdepicture__menu_1_1cs__binding_1_1observer_1_1detail__observer_1_1cfg__observer.html#a9ee87a59abe50cc9c3862ad2cef0c00c" target="_top" xlink:title=" ">
<polygon fill="white" stroke="#666666" points="135.25,-204 29.25,-204 29.25,-148 135.25,-148 135.25,-204"/>
<text xml:space="preserve" text-anchor="start" x="37.25" y="-190.5" font-family="Helvetica,sans-Serif" font-size="10.00">depicture_menu::cs</text>
<text xml:space="preserve" text-anchor="start" x="37.25" y="-178.5" font-family="Helvetica,sans-Serif" font-size="10.00">_binding::observer::</text>
<text xml:space="preserve" text-anchor="start" x="37.25" y="-166.5" font-family="Helvetica,sans-Serif" font-size="10.00">detail_observer::cfg</text>
<text xml:space="preserve" text-anchor="middle" x="82.25" y="-154.5" font-family="Helvetica,sans-Serif" font-size="10.00">_observer::operator()</text>
</a>
</g>
</g>
<!-- Node4&#45;&gt;Node8 -->
<g id="edge7_Node000004_Node000008" class="edge">
<title>Node4&#45;&gt;Node8</title>
<g id="a_edge7_Node000004_Node000008"><a xlink:title=" ">
<path fill="none" stroke="#63b8ff" d="M206.95,-200.39C183.71,-195.81 157.74,-190.69 135.62,-186.33"/>
<polygon fill="#63b8ff" stroke="#63b8ff" points="206.14,-203.8 216.63,-202.3 207.49,-196.93 206.14,-203.8"/>
</a>
</g>
</g>
<!-- Node9 -->
<g id="Node000009" class="node">
<title>Node9</title>
<g id="a_Node000009"><a xlink:href="structdepicture__menu_1_1cs__binding_1_1observer_1_1detail__observer_1_1cfg__observer.html#ad7fb546fa932134b201bd871e74a123e" target="_top" xlink:title=" ">
<polygon fill="white" stroke="#666666" points="135.25,-130 29.25,-130 29.25,-74 135.25,-74 135.25,-130"/>
<text xml:space="preserve" text-anchor="start" x="37.25" y="-116.5" font-family="Helvetica,sans-Serif" font-size="10.00">depicture_menu::cs</text>
<text xml:space="preserve" text-anchor="start" x="37.25" y="-104.5" font-family="Helvetica,sans-Serif" font-size="10.00">_binding::observer::</text>
<text xml:space="preserve" text-anchor="start" x="37.25" y="-92.5" font-family="Helvetica,sans-Serif" font-size="10.00">detail_observer::cfg</text>
<text xml:space="preserve" text-anchor="middle" x="82.25" y="-80.5" font-family="Helvetica,sans-Serif" font-size="10.00">_observer::operator()</text>
</a>
</g>
</g>
<!-- Node4&#45;&gt;Node9 -->
<g id="edge8_Node000004_Node000009" class="edge">
<title>Node4&#45;&gt;Node9</title>
<g id="a_edge8_Node000004_Node000009"><a xlink:title=" ">
<path fill="none" stroke="#63b8ff" d="M248.58,-195.71C227.57,-179.86 194.88,-156.3 164.5,-139 155.34,-133.79 145.31,-128.73 135.53,-124.12"/>
<polygon fill="#63b8ff" stroke="#63b8ff" points="246.34,-198.41 256.42,-201.69 250.59,-192.84 246.34,-198.41"/>
</a>
</g>
</g>
<!-- Node10 -->
<g id="Node000010" class="node">
<title>Node10</title>
<g id="a_Node000010"><a xlink:href="structdepicture__menu_1_1cs__binding_1_1observer_1_1detail__observer_1_1cfg__observer.html#a943ebef7618ecff0cc0eeab0267f766f" target="_top" xlink:title=" ">
<polygon fill="white" stroke="#666666" points="135.25,-56 29.25,-56 29.25,0 135.25,0 135.25,-56"/>
<text xml:space="preserve" text-anchor="start" x="37.25" y="-42.5" font-family="Helvetica,sans-Serif" font-size="10.00">depicture_menu::cs</text>
<text xml:space="preserve" text-anchor="start" x="37.25" y="-30.5" font-family="Helvetica,sans-Serif" font-size="10.00">_binding::observer::</text>
<text xml:space="preserve" text-anchor="start" x="37.25" y="-18.5" font-family="Helvetica,sans-Serif" font-size="10.00">detail_observer::cfg</text>
<text xml:space="preserve" text-anchor="middle" x="82.25" y="-6.5" font-family="Helvetica,sans-Serif" font-size="10.00">_observer::operator()</text>
</a>
</g>
</g>
<!-- Node4&#45;&gt;Node10 -->
<g id="edge9_Node000004_Node000010" class="edge">
<title>Node4&#45;&gt;Node10</title>
<g id="a_edge9_Node000004_Node000010"><a xlink:title=" ">
<path fill="none" stroke="#63b8ff" d="M260.66,-192.51C244.22,-161.31 209.15,-101.66 164.5,-65 155.88,-57.92 145.67,-51.89 135.47,-46.89"/>
<polygon fill="#63b8ff" stroke="#63b8ff" points="257.48,-193.98 265.17,-201.27 263.71,-190.78 257.48,-193.98"/>
</a>
</g>
</g>
</g>
</svg>

<g id="navigator" transform="translate(0 0)" fill="#404254">
  <rect fill="#f2f5e9" fill-opacity="0.5" stroke="#606060" stroke-width=".5" x="0" y="0" width="60" height="60"/>
  <use id="zoomplus" xlink:href="#zoomPlus" x="17" y="9" onmousedown="handleZoom(evt,'in')"/>
  <use id="zoomminus" xlink:href="#zoomMin" x="42" y="9" onmousedown="handleZoom(evt,'out')"/>
  <use id="reset" xlink:href="#resetDef" x="30" y="36" onmousedown="handleReset()"/>
   <use id="arrowup" xlink:href="#arrowUp" x="0" y="0" onmousedown="handlePan(0,-1)"/>
  <use id="arrowright" xlink:href="#arrowRight" x="0" y="0" onmousedown="handlePan(1,0)"/>
  <use id="arrowdown" xlink:href="#arrowDown" x="0" y="0" onmousedown="handlePan(0,1)"/>
  <use id="arrowleft" xlink:href="#arrowLeft" x="0" y="0" onmousedown="handlePan(-1,0)"/>
</g>
<svg viewBox="0 0 15 15" width="100%" height="30px" preserveAspectRatio="xMaxYMin meet">
 <g id="arrow_out" transform="scale(0.3 0.3)">
  <a xlink:href="namespacedepicture__menu_1_1applications_1_1view__factories_a13f1cd4f7caf439c65df67b637dcb061_icgraph_org.svg" target="_base">
   <rect id="button" ry="5" rx="5" y="6" x="6" height="38" width="38"
        fill="#f2f5e9" fill-opacity="0.5" stroke="#606060" stroke-width="1.0"/>
   <path id="arrow"
     d="M 11.500037,31.436501 C 11.940474,20.09759 22.043105,11.32322 32.158766,21.979434 L 37.068811,17.246167 C 37.068811,17.246167 37.088388,32 37.088388,32 L 22.160133,31.978069 C 22.160133,31.978069 26.997745,27.140456 26.997745,27.140456 C 18.528582,18.264221 13.291696,25.230495 11.500037,31.436501 z"
     style="fill:#404040;"/>
  </a>
 </g>
</svg>

<style type='text/css'>
<![CDATA[
[data-mouse-over-selected='false'] { opacity: 0.7; }
[data-mouse-over-selected='true']  { opacity: 1.0; }
]]>
</style>
<script type="application/ecmascript"><![CDATA[
document.addEventListener('DOMContentLoaded', (event) => {
  highlightEdges();
  highlightAdjacentNodes();
});
]]></script>
</svg>
