<?xml version="1.0" encoding="UTF-8" standalone="no"?>
<!DOCTYPE svg PUBLIC "-//W3C//DTD SVG 1.1//EN"
 "http://www.w3.org/Graphics/SVG/1.1/DTD/svg11.dtd">
<!-- Generated by graphviz version 14.1.2 (20260124.0452)
 -->
<!-- Title: detail::create_usecase Pages: 1 -->
<svg width="780pt" height="119pt"
 viewBox="0.00 0.00 780.00 119.00" xmlns="http://www.w3.org/2000/svg" xmlns:xlink="http://www.w3.org/1999/xlink">
<g id="graph0" class="graph" transform="scale(1 1) rotate(0) translate(4 114.7)">
<title>detail::create_usecase</title>
<!-- Node1 -->
<g id="Node000001" class="node">
<title>Node1</title>
<g id="a_Node000001"><a xlink:title=" ">
<polygon fill="#999999" stroke="#666666" points="114.25,-82 0,-82 0,-62 114.25,-62 114.25,-82"/>
<text xml:space="preserve" text-anchor="middle" x="57.12" y="-68.5" font-family="Helvetica,sans-Serif" font-size="10.00">detail::create_usecase</text>
</a>
</g>
</g>
<!-- Node2 -->
<g id="Node000002" class="node">
<title>Node2</title>
<g id="a_Node000002"><a xlink:href="namespacedetail.html#a9059c63b55917525f60302be2ad6701b" target="_top" xlink:title=" ">
<polygon fill="white" stroke="#666666" points="264.5,-101 150.25,-101 150.25,-81 264.5,-81 264.5,-101"/>
<text xml:space="preserve" text-anchor="middle" x="207.38" y="-87.5" font-family="Helvetica,sans-Serif" font-size="10.00">detail::create_usecase</text>
</a>
</g>
</g>
<!-- Node1&#45;&gt;Node2 -->
<g id="edge1_Node000001_Node000002" class="edge">
<title>Node1&#45;&gt;Node2</title>
<g id="a_edge1_Node000001_Node000002"><a xlink:title=" ">
<path fill="none" stroke="#63b8ff" d="M114.59,-79.24C122.49,-80.25 130.67,-81.3 138.75,-82.33"/>
<polygon fill="#63b8ff" stroke="#63b8ff" points="138.2,-85.79 148.56,-83.59 139.09,-78.85 138.2,-85.79"/>
</a>
</g>
</g>
<!-- Node3 -->
<g id="Node000003" class="node">
<title>Node3</title>
<g id="a_Node000003"><a xlink:href="namespacedetail.html#a8aee8542a8e50ac503aeda7f2e247b33" target="_top" xlink:title=" ">
<polygon fill="white" stroke="#666666" points="401.25,-88 300.5,-88 300.5,-56 401.25,-56 401.25,-88"/>
<text xml:space="preserve" text-anchor="start" x="308.5" y="-74.5" font-family="Helvetica,sans-Serif" font-size="10.00">detail::make_config</text>
<text xml:space="preserve" text-anchor="middle" x="350.88" y="-62.5" font-family="Helvetica,sans-Serif" font-size="10.00">_view_injection</text>
</a>
</g>
</g>
<!-- Node1&#45;&gt;Node3 -->
<g id="edge7_Node000001_Node000003" class="edge">
<title>Node1&#45;&gt;Node3</title>
<g id="a_edge7_Node000001_Node000003"><a xlink:title=" ">
<path fill="none" stroke="#63b8ff" d="M114.72,-72C164.79,-72 237.66,-72 288.98,-72"/>
<polygon fill="#63b8ff" stroke="#63b8ff" points="288.72,-75.5 298.72,-72 288.72,-68.5 288.72,-75.5"/>
</a>
</g>
</g>
<!-- Node2&#45;&gt;Node3 -->
<g id="edge2_Node000002_Node000003" class="edge">
<title>Node2&#45;&gt;Node3</title>
<g id="a_edge2_Node000002_Node000003"><a xlink:title=" ">
<path fill="none" stroke="#63b8ff" d="M264.71,-83.44C272.67,-82.37 280.89,-81.26 288.93,-80.18"/>
<polygon fill="#63b8ff" stroke="#63b8ff" points="289.2,-83.68 298.64,-78.88 288.27,-76.74 289.2,-83.68"/>
</a>
</g>
</g>
<!-- Node4 -->
<g id="Node000004" class="node">
<title>Node4</title>
<g id="a_Node000004"><a xlink:href="classdepicture__menu_1_1singleton.html#ab3a8df96e817c8ccb1ab61434f90c416" target="_top" xlink:title=" ">
<polygon fill="white" stroke="#666666" points="771.5,-91 616,-91 616,-47 771.5,-47 771.5,-91"/>
<text xml:space="preserve" text-anchor="start" x="624" y="-77.5" font-family="Helvetica,sans-Serif" font-size="10.00">depicture_menu::singleton</text>
<text xml:space="preserve" text-anchor="start" x="624" y="-65.5" font-family="Helvetica,sans-Serif" font-size="10.00">&lt; detail_d_menu::core_interface</text>
<text xml:space="preserve" text-anchor="middle" x="693.75" y="-53.5" font-family="Helvetica,sans-Serif" font-size="10.00">_impl &gt;::get_instance</text>
</a>
</g>
</g>
<!-- Node3&#45;&gt;Node4 -->
<g id="edge3_Node000003_Node000004" class="edge">
<title>Node3&#45;&gt;Node4</title>
<g id="a_edge3_Node000003_Node000004"><a xlink:title=" ">
<path fill="none" stroke="#63b8ff" d="M388.5,-88.47C403.32,-94.29 420.79,-100.1 437.25,-103 499.73,-113.99 517.23,-112.26 580,-103 592.88,-101.1 606.33,-98.04 619.26,-94.52"/>
<polygon fill="#63b8ff" stroke="#63b8ff" points="619.87,-97.99 628.53,-91.88 617.95,-91.25 619.87,-97.99"/>
</a>
</g>
</g>
<!-- Node5 -->
<g id="Node000005" class="node">
<title>Node5</title>
<g id="a_Node000005"><a xlink:href="namespacedepicture__menu_1_1applications_1_1view__factories.html#a13f1cd4f7caf439c65df67b637dcb061" target="_top" xlink:title=" ">
<polygon fill="white" stroke="#666666" points="580,-94 437.25,-94 437.25,-50 580,-50 580,-94"/>
<text xml:space="preserve" text-anchor="start" x="445.25" y="-80.5" font-family="Helvetica,sans-Serif" font-size="10.00">depicture_menu::applications</text>
<text xml:space="preserve" text-anchor="start" x="445.25" y="-68.5" font-family="Helvetica,sans-Serif" font-size="10.00">::view_factories::get_menu</text>
<text xml:space="preserve" text-anchor="middle" x="508.62" y="-56.5" font-family="Helvetica,sans-Serif" font-size="10.00">_view_arg_injection</text>
</a>
</g>
</g>
<!-- Node3&#45;&gt;Node5 -->
<g id="edge4_Node000003_Node000005" class="edge">
<title>Node3&#45;&gt;Node5</title>
<g id="a_edge4_Node000003_Node000005"><a xlink:title=" ">
<path fill="none" stroke="#63b8ff" d="M401.58,-72C409.21,-72 417.25,-72 425.35,-72"/>
<polygon fill="#63b8ff" stroke="#63b8ff" points="425.3,-75.5 435.3,-72 425.3,-68.5 425.3,-75.5"/>
</a>
</g>
</g>
<!-- Node6 -->
<g id="Node000006" class="node">
<title>Node6</title>
<g id="a_Node000006"><a xlink:href="namespacedepicture__menu_1_1applications.html#af2f3f1b3b5999de9758861d236b73323" target="_top" xlink:title=" ">
<polygon fill="white" stroke="#666666" points="580,-32 437.25,-32 437.25,0 580,0 580,-32"/>
<text xml:space="preserve" text-anchor="start" x="445.25" y="-18.5" font-family="Helvetica,sans-Serif" font-size="10.00">depicture_menu::applications</text>
<text xml:space="preserve" text-anchor="middle" x="508.62" y="-6.5" font-family="Helvetica,sans-Serif" font-size="10.00">::make_transaction_injector</text>
</a>
</g>
</g>
<!-- Node3&#45;&gt;Node6 -->
<g id="edge5_Node000003_Node000006" class="edge">
<title>Node3&#45;&gt;Node6</title>
<g id="a_edge5_Node000003_Node000006"><a xlink:title=" ">
<path fill="none" stroke="#63b8ff" d="M397.05,-55.53C410.02,-50.82 424.19,-45.69 437.25,-41 441.57,-39.45 446.05,-37.84 450.55,-36.24"/>
<polygon fill="#63b8ff" stroke="#63b8ff" points="451.38,-39.66 459.62,-33 449.03,-33.06 451.38,-39.66"/>
</a>
</g>
</g>
<!-- Node6&#45;&gt;Node4 -->
<g id="edge6_Node000006_Node000004" class="edge">
<title>Node6&#45;&gt;Node4</title>
<g id="a_edge6_Node000006_Node000004"><a xlink:title=" ">
<path fill="none" stroke="#63b8ff" d="M566.56,-32.48C578.7,-35.99 591.8,-39.78 604.79,-43.54"/>
<polygon fill="#63b8ff" stroke="#63b8ff" points="603.63,-46.85 614.21,-46.27 605.57,-40.13 603.63,-46.85"/>
</a>
</g>
</g>
</g>
</svg>
