<?xml version="1.0" encoding="UTF-8" standalone="no"?>
<!DOCTYPE svg PUBLIC "-//W3C//DTD SVG 1.1//EN"
 "http://www.w3.org/Graphics/SVG/1.1/DTD/svg11.dtd">
<!-- Generated by graphviz version 14.1.2 (20260124.0452)
 -->
<!-- Title: depicture_menu::win32::process::enum_toplevel_window_handle Pages: 1 -->
<svg width="532pt" height="97pt"
 viewBox="0.00 0.00 532.00 97.00" xmlns="http://www.w3.org/2000/svg" xmlns:xlink="http://www.w3.org/1999/xlink">
<g id="graph0" class="graph" transform="scale(1 1) rotate(0) translate(4 93)">
<title>depicture_menu::win32::process::enum_toplevel_window_handle</title>
<!-- Node1 -->
<g id="Node000001" class="node">
<title>Node1</title>
<g id="a_Node000001"><a xlink:title="enum_toplevel_window_handle">
<polygon fill="#999999" stroke="#666666" points="523.5,-76 398,-76 398,-32 523.5,-32 523.5,-76"/>
<text xml:space="preserve" text-anchor="start" x="406" y="-62.5" font-family="Helvetica,sans-Serif" font-size="10.00">depicture_menu::win32</text>
<text xml:space="preserve" text-anchor="start" x="406" y="-50.5" font-family="Helvetica,sans-Serif" font-size="10.00">::process::enum_toplevel</text>
<text xml:space="preserve" text-anchor="middle" x="460.75" y="-38.5" font-family="Helvetica,sans-Serif" font-size="10.00">_window_handle</text>
</a>
</g>
</g>
<!-- Node2 -->
<g id="Node000002" class="node">
<title>Node2</title>
<g id="a_Node000002"><a xlink:href="_test_win32_message_sender_8cpp.html#a3c3da837ba1398c1fd43a7a9cd2bd930" target="_top" xlink:title=" ">
<polygon fill="white" stroke="#666666" points="362,-89 199,-89 199,-69 362,-69 362,-89"/>
<text xml:space="preserve" text-anchor="middle" x="280.5" y="-75.5" font-family="Helvetica,sans-Serif" font-size="10.00">BOOST_FIXTURE_TEST_CASE</text>
</a>
</g>
</g>
<!-- Node1&#45;&gt;Node2 -->
<g id="edge1_Node000001_Node000002" class="edge">
<title>Node1&#45;&gt;Node2</title>
<g id="a_edge1_Node000001_Node000002"><a xlink:title=" ">
<path fill="none" stroke="#63b8ff" d="M386.68,-64.25C376.6,-65.66 366.23,-67.12 356.13,-68.53"/>
<polygon fill="#63b8ff" stroke="#63b8ff" points="386.99,-67.74 396.41,-62.88 386.02,-60.81 386.99,-67.74"/>
</a>
</g>
</g>
<!-- Node3 -->
<g id="Node000003" class="node">
<title>Node3</title>
<g id="a_Node000003"><a xlink:href="structdepicture__menu_1_1win32_1_1win32__message__sender.html#a5f6afb44f7854de795877bd3bf9ae07e" target="_top" xlink:title=" ">
<polygon fill="white" stroke="#666666" points="344,-51 217,-51 217,-7 344,-7 344,-51"/>
<text xml:space="preserve" text-anchor="start" x="225" y="-37.5" font-family="Helvetica,sans-Serif" font-size="10.00">depicture_menu::win32</text>
<text xml:space="preserve" text-anchor="start" x="225" y="-25.5" font-family="Helvetica,sans-Serif" font-size="10.00">::win32_message_sender</text>
<text xml:space="preserve" text-anchor="middle" x="280.5" y="-13.5" font-family="Helvetica,sans-Serif" font-size="10.00">::enum_window_handle</text>
</a>
</g>
</g>
<!-- Node1&#45;&gt;Node3 -->
<g id="edge2_Node000001_Node000003" class="edge">
<title>Node1&#45;&gt;Node3</title>
<g id="a_edge2_Node000001_Node000003"><a xlink:title=" ">
<path fill="none" stroke="#63b8ff" d="M386.79,-43.77C372.74,-41.8 358.14,-39.75 344.44,-37.83"/>
<polygon fill="#63b8ff" stroke="#63b8ff" points="386.02,-47.19 396.41,-45.12 386.99,-40.26 386.02,-47.19"/>
</a>
</g>
</g>
<!-- Node4 -->
<g id="Node000004" class="node">
<title>Node4</title>
<g id="a_Node000004"><a xlink:href="_test_win32_message_sender_8cpp.html#a83cf73cd7adacff519e3b811d207f251" target="_top" xlink:title=" ">
<polygon fill="white" stroke="#666666" points="155.12,-58 7.88,-58 7.88,-38 155.12,-38 155.12,-58"/>
<text xml:space="preserve" text-anchor="middle" x="81.5" y="-44.5" font-family="Helvetica,sans-Serif" font-size="10.00">BOOST_AUTO_TEST_CASE</text>
</a>
</g>
</g>
<!-- Node3&#45;&gt;Node4 -->
<g id="edge3_Node000003_Node000004" class="edge">
<title>Node3&#45;&gt;Node4</title>
<g id="a_edge3_Node000003_Node000004"><a xlink:title=" ">
<path fill="none" stroke="#63b8ff" d="M205.47,-36.14C189.09,-37.72 171.75,-39.39 155.41,-40.97"/>
<polygon fill="#63b8ff" stroke="#63b8ff" points="205.5,-39.65 215.12,-35.21 204.83,-32.69 205.5,-39.65"/>
</a>
</g>
</g>
<!-- Node5 -->
<g id="Node000005" class="node">
<title>Node5</title>
<g id="a_Node000005"><a xlink:href="_test_win32_message_sender_8cpp.html#aa816833a7f90635f6ea957131ad42def" target="_top" xlink:title=" ">
<polygon fill="white" stroke="#666666" points="163,-20 0,-20 0,0 163,0 163,-20"/>
<text xml:space="preserve" text-anchor="middle" x="81.5" y="-6.5" font-family="Helvetica,sans-Serif" font-size="10.00">BOOST_FIXTURE_TEST_CASE</text>
</a>
</g>
</g>
<!-- Node3&#45;&gt;Node5 -->
<g id="edge4_Node000003_Node000005" class="edge">
<title>Node3&#45;&gt;Node5</title>
<g id="a_edge4_Node000003_Node000005"><a xlink:title=" ">
<path fill="none" stroke="#63b8ff" d="M205.26,-21.84C191.51,-20.51 177.08,-19.12 163.15,-17.78"/>
<polygon fill="#63b8ff" stroke="#63b8ff" points="204.83,-25.31 215.12,-22.79 205.5,-18.35 204.83,-25.31"/>
</a>
</g>
</g>
</g>
</svg>
