<?xml version="1.0" encoding="UTF-8" standalone="no"?>
<!DOCTYPE svg PUBLIC "-//W3C//DTD SVG 1.1//EN"
 "http://www.w3.org/Graphics/SVG/1.1/DTD/svg11.dtd">
<!-- Generated by graphviz version 14.1.2 (20260124.0452)
 -->
<!-- Title: depicture_menu::usecase::detail_usecase_change_default_menu_config::do_transaction Pages: 1 -->
<svg width="296pt" height="176pt"
 viewBox="0.00 0.00 296.00 176.00" xmlns="http://www.w3.org/2000/svg" xmlns:xlink="http://www.w3.org/1999/xlink">
<g id="graph0" class="graph" transform="scale(1 1) rotate(0) translate(4 172)">
<title>depicture_menu::usecase::detail_usecase_change_default_menu_config::do_transaction</title>
<!-- Node1 -->
<g id="Node000001" class="node">
<title>Node1</title>
<g id="a_Node000001"><a xlink:title=" ">
<polygon fill="#999999" stroke="#666666" points="127.75,-112 0,-112 0,-56 127.75,-56 127.75,-112"/>
<text xml:space="preserve" text-anchor="start" x="8" y="-98.5" font-family="Helvetica,sans-Serif" font-size="10.00">depicture_menu::usecase</text>
<text xml:space="preserve" text-anchor="start" x="8" y="-86.5" font-family="Helvetica,sans-Serif" font-size="10.00">::detail_usecase_change</text>
<text xml:space="preserve" text-anchor="start" x="8" y="-74.5" font-family="Helvetica,sans-Serif" font-size="10.00">_default_menu_config::do</text>
<text xml:space="preserve" text-anchor="middle" x="63.88" y="-62.5" font-family="Helvetica,sans-Serif" font-size="10.00">_transaction</text>
</a>
</g>
</g>
<!-- Node1&#45;&gt;Node1 -->
<g id="edge1_Node000001_Node000001" class="edge">
<title>Node1&#45;&gt;Node1</title>
<g id="a_edge1_Node000001_Node000001"><a xlink:title=" ">
<path fill="none" stroke="#63b8ff" d="M33.53,-112.3C33.21,-122.09 43.32,-130 63.88,-130 76.4,-130 85.05,-127.06 89.82,-122.55"/>
<polygon fill="#63b8ff" stroke="#63b8ff" points="92.89,-124.26 93.62,-113.69 86.46,-121.5 92.89,-124.26"/>
</a>
</g>
</g>
<!-- Node2 -->
<g id="Node000002" class="node">
<title>Node2</title>
<g id="a_Node000002"><a xlink:href="classdepicture__menu_1_1domain_1_1app_1_1config.html#a8793d4a0af91650654b36c76f1e9851d" target="_top" xlink:title=" ">
<polygon fill="white" stroke="#666666" points="287.75,-168 163.75,-168 163.75,-124 287.75,-124 287.75,-168"/>
<text xml:space="preserve" text-anchor="start" x="171.75" y="-154.5" font-family="Helvetica,sans-Serif" font-size="10.00">depicture_menu::domain</text>
<text xml:space="preserve" text-anchor="start" x="171.75" y="-142.5" font-family="Helvetica,sans-Serif" font-size="10.00">::app::config::get_default</text>
<text xml:space="preserve" text-anchor="middle" x="225.75" y="-130.5" font-family="Helvetica,sans-Serif" font-size="10.00">_menu_color</text>
</a>
</g>
</g>
<!-- Node1&#45;&gt;Node2 -->
<g id="edge2_Node000001_Node000002" class="edge">
<title>Node1&#45;&gt;Node2</title>
<g id="a_edge2_Node000001_Node000002"><a xlink:title=" ">
<path fill="none" stroke="#63b8ff" d="M128.06,-108.5C137.38,-112.12 147.02,-115.86 156.44,-119.51"/>
<polygon fill="#63b8ff" stroke="#63b8ff" points="154.96,-122.69 165.55,-123.04 157.49,-116.16 154.96,-122.69"/>
</a>
</g>
</g>
<!-- Node3 -->
<g id="Node000003" class="node">
<title>Node3</title>
<g id="a_Node000003"><a xlink:href="classdepicture__menu_1_1domain_1_1app_1_1config.html#a277219fdedbac934a47f1652b14d42ed" target="_top" xlink:title=" ">
<polygon fill="white" stroke="#666666" points="287.75,-106 163.75,-106 163.75,-62 287.75,-62 287.75,-106"/>
<text xml:space="preserve" text-anchor="start" x="171.75" y="-92.5" font-family="Helvetica,sans-Serif" font-size="10.00">depicture_menu::domain</text>
<text xml:space="preserve" text-anchor="start" x="171.75" y="-80.5" font-family="Helvetica,sans-Serif" font-size="10.00">::app::config::set_default</text>
<text xml:space="preserve" text-anchor="middle" x="225.75" y="-68.5" font-family="Helvetica,sans-Serif" font-size="10.00">_menu_color</text>
</a>
</g>
</g>
<!-- Node1&#45;&gt;Node3 -->
<g id="edge3_Node000001_Node000003" class="edge">
<title>Node1&#45;&gt;Node3</title>
<g id="a_edge3_Node000001_Node000003"><a xlink:title=" ">
<path fill="none" stroke="#63b8ff" d="M128.06,-84C135.95,-84 144.07,-84 152.09,-84"/>
<polygon fill="#63b8ff" stroke="#63b8ff" points="151.81,-87.5 161.81,-84 151.81,-80.5 151.81,-87.5"/>
</a>
</g>
</g>
<!-- Node4 -->
<g id="Node000004" class="node">
<title>Node4</title>
<g id="a_Node000004"><a xlink:href="classdepicture__menu_1_1domain_1_1app_1_1config.html#a630f190966199e59d26d70432de50349" target="_top" xlink:title=" ">
<polygon fill="white" stroke="#666666" points="287.75,-44 163.75,-44 163.75,0 287.75,0 287.75,-44"/>
<text xml:space="preserve" text-anchor="start" x="171.75" y="-30.5" font-family="Helvetica,sans-Serif" font-size="10.00">depicture_menu::domain</text>
<text xml:space="preserve" text-anchor="start" x="171.75" y="-18.5" font-family="Helvetica,sans-Serif" font-size="10.00">::app::config::set_default</text>
<text xml:space="preserve" text-anchor="middle" x="225.75" y="-6.5" font-family="Helvetica,sans-Serif" font-size="10.00">_menu_dimension</text>
</a>
</g>
</g>
<!-- Node1&#45;&gt;Node4 -->
<g id="edge4_Node000001_Node000004" class="edge">
<title>Node1&#45;&gt;Node4</title>
<g id="a_edge4_Node000001_Node000004"><a xlink:title=" ">
<path fill="none" stroke="#63b8ff" d="M128.06,-59.5C137.38,-55.88 147.02,-52.14 156.44,-48.49"/>
<polygon fill="#63b8ff" stroke="#63b8ff" points="157.49,-51.84 165.55,-44.96 154.96,-45.31 157.49,-51.84"/>
</a>
</g>
</g>
</g>
</svg>
