<?xml version="1.0" encoding="UTF-8" standalone="no"?>
<!DOCTYPE svg PUBLIC "-//W3C//DTD SVG 1.1//EN"
 "http://www.w3.org/Graphics/SVG/1.1/DTD/svg11.dtd">
<!-- Generated by graphviz version 14.1.2 (20260124.0452)
 -->
<!-- Title: depicture_menu::reflection::detail_reflection::get_field_index Pages: 1 -->
<!--zoomable 846 -->

<svg id="main" version="1.1" xmlns="http://www.w3.org/2000/svg" xmlns:xlink="http://www.w3.org/1999/xlink" xml:space="preserve" onload="init(evt)">

<style type="text/css"><![CDATA[
.node, .edge {opacity: 0.7;}
.node.selected, .edge.selected {opacity: 1;}
.edge:hover path { stroke: red; }
.edge:hover polygon { stroke: red; fill: red; }
]]></style>

<defs>
  <circle id="rim" cx="0" cy="0" r="7"/>
  <circle id="rim2" cx="0" cy="0" r="3.5"/>
  <g id="zoomPlus">
    <use xlink:href="#rim" fill="#404040"><set attributeName="fill" to="#808080" begin="zoomplus.mouseover" end="zoomplus.mouseout"/></use>
    <path d="M-4,0h8M0,-4v8" fill="none" stroke="white" stroke-width="1.5" pointer-events="none"/>
  </g>
  <g id="zoomMin">
    <use xlink:href="#rim" fill="#404040"><set attributeName="fill" to="#808080" begin="zoomminus.mouseover" end="zoomminus.mouseout"/></use>
    <path d="M-4,0h8" fill="none" stroke="white" stroke-width="1.5" pointer-events="none"/>
  </g>
  <g id="arrowUp" transform="translate(30 24)">
    <use xlink:href="#rim"/>
    <path pointer-events="none" fill="none" stroke="white" stroke-width="1.5" d="M0,-3.0v7 M-2.5,-0.5L0,-3.0L2.5,-0.5"/>
  </g>
  <g id="arrowRight" transform="rotate(90) translate(36 -43)">
    <use xlink:href="#rim"/>
    <path pointer-events="none" fill="none" stroke="white" stroke-width="1.5" d="M0,-3.0v7 M-2.5,-0.5L0,-3.0L2.5,-0.5"/>
  </g>
  <g id="arrowDown" transform="rotate(180) translate(-30 -48)">
    <use xlink:href="#rim"/>
    <path pointer-events="none" fill="none" stroke="white" stroke-width="1.5" d="M0,-3.0v7 M-2.5,-0.5L0,-3.0L2.5,-0.5"/>
  </g>
  <g id="arrowLeft" transform="rotate(270) translate(-36 17)">
    <use xlink:href="#rim"/>
    <path pointer-events="none" fill="none" stroke="white" stroke-width="1.5" d="M0,-3.0v7 M-2.5,-0.5L0,-3.0L2.5,-0.5"/>
  </g>
  <g id="resetDef">
    <use xlink:href="#rim2" fill="#404040"><set attributeName="fill" to="#808080" begin="reset.mouseover" end="reset.mouseout"/></use>
  </g>
</defs>
<script type="application/ecmascript">
var viewWidth = 822;
var viewHeight = 846;
var sectionId = 'dynsection-1';
</script>
<script type="application/ecmascript" xlink:href="svg.min.js"/>
<svg id="graph" class="graph">
<g id="viewport">
<title>depicture_menu::reflection::detail_reflection::get_field_index</title>
<!-- Node1 -->
<g id="Node000001" class="node">
<title>Node1</title>
<g id="a_Node000001"><a xlink:title=" ">
<polygon fill="#999999" stroke="#666666" points="814.25,-479 683.5,-479 683.5,-435 814.25,-435 814.25,-479"/>
<text xml:space="preserve" text-anchor="start" x="691.5" y="-465.5" font-family="Helvetica,sans-Serif" font-size="10.00">depicture_menu::reflection</text>
<text xml:space="preserve" text-anchor="start" x="691.5" y="-453.5" font-family="Helvetica,sans-Serif" font-size="10.00">::detail_reflection::get</text>
<text xml:space="preserve" text-anchor="middle" x="748.88" y="-441.5" font-family="Helvetica,sans-Serif" font-size="10.00">_field_index</text>
</a>
</g>
</g>
<!-- Node1&#45;&gt;Node1 -->
<g id="edge1_Node000001_Node000001" class="edge">
<title>Node1&#45;&gt;Node1</title>
<g id="a_edge1_Node000001_Node000001"><a xlink:title=" ">
<path fill="none" stroke="#63b8ff" d="M776.12,-490.09C771.32,-494.26 762.24,-497 748.88,-497 725.75,-497 715.45,-488.8 717.98,-479.21"/>
<polygon fill="#63b8ff" stroke="#63b8ff" points="779.43,-491.24 779.29,-480.65 772.79,-489.02 779.43,-491.24"/>
</a>
</g>
</g>
<!-- Node2 -->
<g id="Node000002" class="node">
<title>Node2</title>
<g id="a_Node000002"><a xlink:href="namespacedepicture__menu_1_1reflection.html#adb9faa46ece21b7d378d916f04923bbc" target="_top" xlink:title=" ">
<polygon fill="white" stroke="#666666" points="647.5,-473 516.75,-473 516.75,-441 647.5,-441 647.5,-473"/>
<text xml:space="preserve" text-anchor="start" x="524.75" y="-459.5" font-family="Helvetica,sans-Serif" font-size="10.00">depicture_menu::reflection</text>
<text xml:space="preserve" text-anchor="middle" x="582.12" y="-447.5" font-family="Helvetica,sans-Serif" font-size="10.00">::get_field_index</text>
</a>
</g>
</g>
<!-- Node1&#45;&gt;Node2 -->
<g id="edge2_Node000001_Node000002" class="edge">
<title>Node1&#45;&gt;Node2</title>
<g id="a_edge2_Node000001_Node000002"><a xlink:title=" ">
<path fill="none" stroke="#63b8ff" d="M671.94,-457C663.89,-457 655.76,-457 647.85,-457"/>
<polygon fill="#63b8ff" stroke="#63b8ff" points="671.72,-460.5 681.72,-457 671.72,-453.5 671.72,-460.5"/>
</a>
</g>
</g>
<!-- Node3 -->
<g id="Node000003" class="node">
<title>Node3</title>
<g id="a_Node000003"><a xlink:href="namespacedepicture__menu_1_1reflection.html#aaf69402efde67d3327b0a5878e0bb46c" target="_top" xlink:title=" ">
<polygon fill="white" stroke="#666666" points="480.75,-498 350,-498 350,-466 480.75,-466 480.75,-498"/>
<text xml:space="preserve" text-anchor="start" x="358" y="-484.5" font-family="Helvetica,sans-Serif" font-size="10.00">depicture_menu::reflection</text>
<text xml:space="preserve" text-anchor="middle" x="415.38" y="-472.5" font-family="Helvetica,sans-Serif" font-size="10.00">::access_field</text>
</a>
</g>
</g>
<!-- Node2&#45;&gt;Node3 -->
<g id="edge3_Node000002_Node000003" class="edge">
<title>Node2&#45;&gt;Node3</title>
<g id="a_edge3_Node000002_Node000003"><a xlink:title=" ">
<path fill="none" stroke="#63b8ff" d="M505.19,-468.52C497.14,-469.74 489.01,-470.98 481.1,-472.18"/>
<polygon fill="#63b8ff" stroke="#63b8ff" points="505.63,-472 514.99,-467.04 504.58,-465.08 505.63,-472"/>
</a>
</g>
</g>
<!-- Node19 -->
<g id="Node000019" class="node">
<title>Node19</title>
<g id="a_Node000019"><a xlink:href="namespacedepicture__menu_1_1reflection.html#a5f48fdd8d117be0776e6754851596f71" target="_top" xlink:title=" ">
<polygon fill="white" stroke="#666666" points="480.75,-448 350,-448 350,-416 480.75,-416 480.75,-448"/>
<text xml:space="preserve" text-anchor="start" x="358" y="-434.5" font-family="Helvetica,sans-Serif" font-size="10.00">depicture_menu::reflection</text>
<text xml:space="preserve" text-anchor="middle" x="415.38" y="-422.5" font-family="Helvetica,sans-Serif" font-size="10.00">::access_field</text>
</a>
</g>
</g>
<!-- Node2&#45;&gt;Node19 -->
<g id="edge19_Node000002_Node000019" class="edge">
<title>Node2&#45;&gt;Node19</title>
<g id="a_edge19_Node000002_Node000019"><a xlink:title=" ">
<path fill="none" stroke="#63b8ff" d="M505.19,-445.48C497.14,-444.26 489.01,-443.02 481.1,-441.82"/>
<polygon fill="#63b8ff" stroke="#63b8ff" points="504.58,-448.92 514.99,-446.96 505.63,-442 504.58,-448.92"/>
</a>
</g>
</g>
<!-- Node4 -->
<g id="Node000004" class="node">
<title>Node4</title>
<g id="a_Node000004"><a xlink:href="namespacedepicture__menu_1_1reflection.html#a6de3a40c5d476600b51a4f9c591009e6" target="_top" xlink:title=" ">
<polygon fill="white" stroke="#666666" points="296.75,-838 166,-838 166,-806 296.75,-806 296.75,-838"/>
<text xml:space="preserve" text-anchor="start" x="174" y="-824.5" font-family="Helvetica,sans-Serif" font-size="10.00">depicture_menu::reflection</text>
<text xml:space="preserve" text-anchor="middle" x="231.38" y="-812.5" font-family="Helvetica,sans-Serif" font-size="10.00">::access_field</text>
</a>
</g>
</g>
<!-- Node3&#45;&gt;Node4 -->
<g id="edge4_Node000003_Node000004" class="edge">
<title>Node3&#45;&gt;Node4</title>
<g id="a_edge4_Node000003_Node000004"><a xlink:title=" ">
<path fill="none" stroke="#63b8ff" d="M413.75,-509.7C410.86,-570.5 395.33,-716.58 314,-797 309.05,-801.9 303.16,-805.84 296.85,-809.01"/>
<polygon fill="#63b8ff" stroke="#63b8ff" points="417.24,-510.04 414.13,-499.91 410.25,-509.77 417.24,-510.04"/>
</a>
</g>
</g>
<!-- Node5 -->
<g id="Node000005" class="node">
<title>Node5</title>
<g id="a_Node000005"><a xlink:href="namespacedepicture__menu_1_1reflection.html#a4d56f2a19f3ab457624a3dbdcd5bc8ca" target="_top" xlink:title=" ">
<polygon fill="white" stroke="#666666" points="296.75,-788 166,-788 166,-756 296.75,-756 296.75,-788"/>
<text xml:space="preserve" text-anchor="start" x="174" y="-774.5" font-family="Helvetica,sans-Serif" font-size="10.00">depicture_menu::reflection</text>
<text xml:space="preserve" text-anchor="middle" x="231.38" y="-762.5" font-family="Helvetica,sans-Serif" font-size="10.00">::access_field</text>
</a>
</g>
</g>
<!-- Node3&#45;&gt;Node5 -->
<g id="edge5_Node000003_Node000005" class="edge">
<title>Node3&#45;&gt;Node5</title>
<g id="a_edge5_Node000003_Node000005"><a xlink:title=" ">
<path fill="none" stroke="#63b8ff" d="M411.81,-509.7C405.35,-563.33 383.6,-681.77 314,-747 309.03,-751.66 303.2,-755.46 297,-758.54"/>
<polygon fill="#63b8ff" stroke="#63b8ff" points="415.27,-510.24 412.89,-499.91 408.31,-509.47 415.27,-510.24"/>
</a>
</g>
</g>
<!-- Node6 -->
<g id="Node000006" class="node">
<title>Node6</title>
<g id="a_Node000006"><a xlink:href="classdepicture__menu_1_1test_1_1test__tools_1_1base__pair__factory.html#a559f5d13a5180681c02b78509fe84dc5" target="_top" xlink:title=" ">
<polygon fill="white" stroke="#666666" points="298.62,-738 164.12,-738 164.12,-694 298.62,-694 298.62,-738"/>
<text xml:space="preserve" text-anchor="start" x="172.12" y="-724.5" font-family="Helvetica,sans-Serif" font-size="10.00">depicture_menu::test</text>
<text xml:space="preserve" text-anchor="start" x="172.12" y="-712.5" font-family="Helvetica,sans-Serif" font-size="10.00">::test_tools::base_pair</text>
<text xml:space="preserve" text-anchor="middle" x="231.38" y="-700.5" font-family="Helvetica,sans-Serif" font-size="10.00">_factory::base_pair_factory</text>
</a>
</g>
</g>
<!-- Node3&#45;&gt;Node6 -->
<g id="edge6_Node000003_Node000006" class="edge">
<title>Node3&#45;&gt;Node6</title>
<g id="a_edge6_Node000003_Node000006"><a xlink:title=" ">
<path fill="none" stroke="#63b8ff" d="M407.77,-509.47C396.04,-552.61 367.61,-636.32 314,-685 309.51,-689.08 304.43,-692.64 299.06,-695.74"/>
<polygon fill="#63b8ff" stroke="#63b8ff" points="411.12,-510.47 410.26,-499.91 404.35,-508.7 411.12,-510.47"/>
</a>
</g>
</g>
<!-- Node7 -->
<g id="Node000007" class="node">
<title>Node7</title>
<g id="a_Node000007"><a xlink:href="structtt_1_1base__pair__factory.html#ac4b867657c544bcc5557959955dea941" target="_top" xlink:title=" ">
<polygon fill="white" stroke="#666666" points="284,-676 178.75,-676 178.75,-644 284,-644 284,-676"/>
<text xml:space="preserve" text-anchor="start" x="186.75" y="-662.5" font-family="Helvetica,sans-Serif" font-size="10.00">tt::base_pair_factory</text>
<text xml:space="preserve" text-anchor="middle" x="231.38" y="-650.5" font-family="Helvetica,sans-Serif" font-size="10.00">::base_pair_factory</text>
</a>
</g>
</g>
<!-- Node3&#45;&gt;Node7 -->
<g id="edge7_Node000003_Node000007" class="edge">
<title>Node3&#45;&gt;Node7</title>
<g id="a_edge7_Node000003_Node000007"><a xlink:title=" ">
<path fill="none" stroke="#63b8ff" d="M403.76,-508.65C388.8,-542.86 358.29,-601.77 314,-635 305.23,-641.58 294.71,-646.45 284.18,-650.04"/>
<polygon fill="#63b8ff" stroke="#63b8ff" points="406.98,-510.03 407.65,-499.46 400.53,-507.31 406.98,-510.03"/>
</a>
</g>
</g>
<!-- Node8 -->
<g id="Node000008" class="node">
<title>Node8</title>
<g id="a_Node000008"><a xlink:href="_test_reflection_8cpp.html#a773ac09788182ab39b932fa77674368b" target="_top" xlink:title=" ">
<polygon fill="white" stroke="#666666" points="305,-626 157.75,-626 157.75,-606 305,-606 305,-626"/>
<text xml:space="preserve" text-anchor="middle" x="231.38" y="-612.5" font-family="Helvetica,sans-Serif" font-size="10.00">BOOST_AUTO_TEST_CASE</text>
</a>
</g>
</g>
<!-- Node3&#45;&gt;Node8 -->
<g id="edge8_Node000003_Node000008" class="edge">
<title>Node3&#45;&gt;Node8</title>
<g id="a_edge8_Node000003_Node000008"><a xlink:title=" ">
<path fill="none" stroke="#63b8ff" d="M398.97,-507.62C381.66,-534.14 351.06,-574.73 314,-597 308.26,-600.45 301.95,-603.27 295.46,-605.58"/>
<polygon fill="#63b8ff" stroke="#63b8ff" points="401.72,-509.81 404.13,-499.49 395.82,-506.06 401.72,-509.81"/>
</a>
</g>
</g>
<!-- Node9 -->
<g id="Node000009" class="node">
<title>Node9</title>
<g id="a_Node000009"><a xlink:href="structdepicture__menu_1_1test_1_1test__tools_1_1field__accesser.html#a39703471d50a1ee15f43e70716d3f357" target="_top" xlink:title=" ">
<polygon fill="white" stroke="#666666" points="298.25,-588 164.5,-588 164.5,-544 298.25,-544 298.25,-588"/>
<text xml:space="preserve" text-anchor="start" x="172.5" y="-574.5" font-family="Helvetica,sans-Serif" font-size="10.00">depicture_menu::test</text>
<text xml:space="preserve" text-anchor="start" x="172.5" y="-562.5" font-family="Helvetica,sans-Serif" font-size="10.00">::test_tools::field_accesser</text>
<text xml:space="preserve" text-anchor="middle" x="231.38" y="-550.5" font-family="Helvetica,sans-Serif" font-size="10.00">::get_value</text>
</a>
</g>
</g>
<!-- Node3&#45;&gt;Node9 -->
<g id="edge9_Node000003_Node000009" class="edge">
<title>Node3&#45;&gt;Node9</title>
<g id="a_edge9_Node000003_Node000009"><a xlink:title=" ">
<path fill="none" stroke="#63b8ff" d="M375.79,-503.8C357.35,-513.84 334.81,-525.6 314,-535 307.51,-537.93 300.65,-540.83 293.77,-543.62"/>
<polygon fill="#63b8ff" stroke="#63b8ff" points="377.45,-506.88 384.53,-498.99 374.08,-500.75 377.45,-506.88"/>
</a>
</g>
</g>
<!-- Node10 -->
<g id="Node000010" class="node">
<title>Node10</title>
<g id="a_Node000010"><a xlink:href="structtt_1_1field__accesser.html#a6aa9fa89141541a4da3f275fb339a0f1" target="_top" xlink:title=" ">
<polygon fill="white" stroke="#666666" points="276.88,-526 185.88,-526 185.88,-494 276.88,-494 276.88,-526"/>
<text xml:space="preserve" text-anchor="start" x="193.88" y="-512.5" font-family="Helvetica,sans-Serif" font-size="10.00">tt::field_accesser</text>
<text xml:space="preserve" text-anchor="middle" x="231.38" y="-500.5" font-family="Helvetica,sans-Serif" font-size="10.00">::get_value</text>
</a>
</g>
</g>
<!-- Node3&#45;&gt;Node10 -->
<g id="edge10_Node000003_Node000010" class="edge">
<title>Node3&#45;&gt;Node10</title>
<g id="a_edge10_Node000003_Node000010"><a xlink:title=" ">
<path fill="none" stroke="#63b8ff" d="M338.56,-493.66C317.67,-496.88 295.67,-500.26 277.15,-503.11"/>
<polygon fill="#63b8ff" stroke="#63b8ff" points="338.85,-497.16 348.2,-492.18 337.78,-490.24 338.85,-497.16"/>
</a>
</g>
</g>
<!-- Node11 -->
<g id="Node000011" class="node">
<title>Node11</title>
<g id="a_Node000011"><a xlink:href="structdepicture__menu_1_1conv__mapping_1_1buildin_1_1field__name__reader.html#a31c3855fa2936091bf2008db9d612ff0" target="_top" xlink:title=" ">
<polygon fill="white" stroke="#666666" points="293.75,-476 169,-476 169,-432 293.75,-432 293.75,-476"/>
<text xml:space="preserve" text-anchor="start" x="177" y="-462.5" font-family="Helvetica,sans-Serif" font-size="10.00">depicture_menu::conv</text>
<text xml:space="preserve" text-anchor="start" x="177" y="-450.5" font-family="Helvetica,sans-Serif" font-size="10.00">_mapping::buildin::field</text>
<text xml:space="preserve" text-anchor="middle" x="231.38" y="-438.5" font-family="Helvetica,sans-Serif" font-size="10.00">_name_reader::operator()</text>
</a>
</g>
</g>
<!-- Node3&#45;&gt;Node11 -->
<g id="edge11_Node000003_Node000011" class="edge">
<title>Node3&#45;&gt;Node11</title>
<g id="a_edge11_Node000003_Node000011"><a xlink:title=" ">
<path fill="none" stroke="#63b8ff" d="M338.52,-470.33C323.72,-468.05 308.37,-465.69 294.1,-463.5"/>
<polygon fill="#63b8ff" stroke="#63b8ff" points="337.78,-473.76 348.2,-471.82 338.85,-466.84 337.78,-473.76"/>
</a>
</g>
</g>
<!-- Node12 -->
<g id="Node000012" class="node">
<title>Node12</title>
<g id="a_Node000012"><a xlink:href="structdepicture__menu_1_1conv__mapping_1_1buildin_1_1field__name__writer.html#a871429e6837819ce4947d98cdc276bdb" target="_top" xlink:title=" ">
<polygon fill="white" stroke="#666666" points="292.25,-414 170.5,-414 170.5,-370 292.25,-370 292.25,-414"/>
<text xml:space="preserve" text-anchor="start" x="178.5" y="-400.5" font-family="Helvetica,sans-Serif" font-size="10.00">depicture_menu::conv</text>
<text xml:space="preserve" text-anchor="start" x="178.5" y="-388.5" font-family="Helvetica,sans-Serif" font-size="10.00">_mapping::buildin::field</text>
<text xml:space="preserve" text-anchor="middle" x="231.38" y="-376.5" font-family="Helvetica,sans-Serif" font-size="10.00">_name_writer::operator()</text>
</a>
</g>
</g>
<!-- Node3&#45;&gt;Node12 -->
<g id="edge12_Node000003_Node000012" class="edge">
<title>Node3&#45;&gt;Node12</title>
<g id="a_edge12_Node000003_Node000012"><a xlink:title=" ">
<path fill="none" stroke="#63b8ff" d="M355.76,-460.41C353.79,-459.31 351.86,-458.18 350,-457 331.4,-445.24 332.65,-434.69 314,-423 307.32,-418.81 299.99,-415.05 292.54,-411.71"/>
<polygon fill="#63b8ff" stroke="#63b8ff" points="354.06,-463.47 364.56,-464.87 357.22,-457.23 354.06,-463.47"/>
</a>
</g>
</g>
<!-- Node13 -->
<g id="Node000013" class="node">
<title>Node13</title>
<g id="a_Node000013"><a xlink:href="structdepicture__menu_1_1test_1_1test__tools_1_1field__accesser.html#a6e02417aac64e03d19ff52a6925986b3" target="_top" xlink:title=" ">
<polygon fill="white" stroke="#666666" points="298.25,-352 164.5,-352 164.5,-308 298.25,-308 298.25,-352"/>
<text xml:space="preserve" text-anchor="start" x="172.5" y="-338.5" font-family="Helvetica,sans-Serif" font-size="10.00">depicture_menu::test</text>
<text xml:space="preserve" text-anchor="start" x="172.5" y="-326.5" font-family="Helvetica,sans-Serif" font-size="10.00">::test_tools::field_accesser</text>
<text xml:space="preserve" text-anchor="middle" x="231.38" y="-314.5" font-family="Helvetica,sans-Serif" font-size="10.00">::operator()</text>
</a>
</g>
</g>
<!-- Node3&#45;&gt;Node13 -->
<g id="edge13_Node000003_Node000013" class="edge">
<title>Node3&#45;&gt;Node13</title>
<g id="a_edge13_Node000003_Node000013"><a xlink:title=" ">
<path fill="none" stroke="#63b8ff" d="M351.85,-458.78C351.22,-458.2 350.6,-457.61 350,-457 317.97,-424.59 346.15,-393.29 314,-361 309.51,-356.49 304.29,-352.62 298.71,-349.31"/>
<polygon fill="#63b8ff" stroke="#63b8ff" points="349.5,-461.39 359.59,-464.63 353.72,-455.81 349.5,-461.39"/>
</a>
</g>
</g>
<!-- Node14 -->
<g id="Node000014" class="node">
<title>Node14</title>
<g id="a_Node000014"><a xlink:href="structdepicture__menu_1_1test_1_1test__tools_1_1field__checker.html#aa34650d61c770b2a7d65c02f0d69a58c" target="_top" xlink:title=" ">
<polygon fill="white" stroke="#666666" points="314,-290 148.75,-290 148.75,-162 314,-162 314,-290"/>
<text xml:space="preserve" text-anchor="start" x="156.75" y="-276.5" font-family="Helvetica,sans-Serif" font-size="10.00">depicture_menu::test</text>
<text xml:space="preserve" text-anchor="start" x="156.75" y="-264.5" font-family="Helvetica,sans-Serif" font-size="10.00">::test_tools::field_checker</text>
<text xml:space="preserve" text-anchor="start" x="156.75" y="-252.5" font-family="Helvetica,sans-Serif" font-size="10.00">&lt; dub::create_command_dto,</text>
<text xml:space="preserve" text-anchor="start" x="156.75" y="-240.5" font-family="Helvetica,sans-Serif" font-size="10.00"> dub::create_command_entity,</text>
<text xml:space="preserve" text-anchor="start" x="156.75" y="-228.5" font-family="Helvetica,sans-Serif" font-size="10.00"> command_data_factory, Dto,</text>
<text xml:space="preserve" text-anchor="start" x="156.75" y="-216.5" font-family="Helvetica,sans-Serif" font-size="10.00"> EntSetter, EntGetter, D, E &gt;</text>
<text xml:space="preserve" text-anchor="start" x="156.75" y="-204.5" font-family="Helvetica,sans-Serif" font-size="10.00">&lt; &quot;name&quot;, decltype([](auto &amp;v,</text>
<text xml:space="preserve" text-anchor="start" x="156.75" y="-192.5" font-family="Helvetica,sans-Serif" font-size="10.00"> auto const &amp;d) { v.name(d);}),</text>
<text xml:space="preserve" text-anchor="start" x="156.75" y="-180.5" font-family="Helvetica,sans-Serif" font-size="10.00"> decltype([](auto const &amp;v) { return</text>
<text xml:space="preserve" text-anchor="middle" x="231.38" y="-168.5" font-family="Helvetica,sans-Serif" font-size="10.00"> v.name();}), D, E &gt;::operator()</text>
</a>
</g>
</g>
<!-- Node3&#45;&gt;Node14 -->
<g id="edge14_Node000003_Node000014" class="edge">
<title>Node3&#45;&gt;Node14</title>
<g id="a_edge14_Node000003_Node000014"><a xlink:title=" ">
<path fill="none" stroke="#63b8ff" d="M351.08,-458.21C350.71,-457.81 350.35,-457.41 350,-457 302.93,-402.48 350.57,-361.05 314,-299 312.26,-296.05 310.37,-293.16 308.34,-290.32"/>
<polygon fill="#63b8ff" stroke="#63b8ff" points="348.68,-460.76 358.56,-464.6 353.23,-455.44 348.68,-460.76"/>
</a>
</g>
</g>
<!-- Node15 -->
<g id="Node000015" class="node">
<title>Node15</title>
<g id="a_Node000015"><a xlink:href="structtt_1_1field__accesser.html#ab1526a6a9562b16ea893d6274eaf8c94" target="_top" xlink:title=" ">
<polygon fill="white" stroke="#666666" points="276.88,-144 185.88,-144 185.88,-112 276.88,-112 276.88,-144"/>
<text xml:space="preserve" text-anchor="start" x="193.88" y="-130.5" font-family="Helvetica,sans-Serif" font-size="10.00">tt::field_accesser</text>
<text xml:space="preserve" text-anchor="middle" x="231.38" y="-118.5" font-family="Helvetica,sans-Serif" font-size="10.00">::operator()</text>
</a>
</g>
</g>
<!-- Node3&#45;&gt;Node15 -->
<g id="edge15_Node000003_Node000015" class="edge">
<title>Node3&#45;&gt;Node15</title>
<g id="a_edge15_Node000003_Node000015"><a xlink:title=" ">
<path fill="none" stroke="#63b8ff" d="M350.74,-457.92C350.49,-457.62 350.24,-457.31 350,-457 266.68,-349.44 401.2,-257.43 314,-153 304.79,-141.97 290.84,-135.7 277.06,-132.18"/>
<polygon fill="#63b8ff" stroke="#63b8ff" points="348.23,-460.37 357.92,-464.66 353.02,-455.26 348.23,-460.37"/>
</a>
</g>
</g>
<!-- Node16 -->
<g id="Node000016" class="node">
<title>Node16</title>
<g id="a_Node000016"><a xlink:href="structtt_1_1field__checker.html#aa1610a051ad7cd8478779af738420668" target="_top" xlink:title=" ">
<polygon fill="white" stroke="#666666" points="277.25,-94 185.5,-94 185.5,-62 277.25,-62 277.25,-94"/>
<text xml:space="preserve" text-anchor="start" x="193.5" y="-80.5" font-family="Helvetica,sans-Serif" font-size="10.00">tt::field_checker::</text>
<text xml:space="preserve" text-anchor="middle" x="231.38" y="-68.5" font-family="Helvetica,sans-Serif" font-size="10.00">operator()</text>
</a>
</g>
</g>
<!-- Node3&#45;&gt;Node16 -->
<g id="edge16_Node000003_Node000016" class="edge">
<title>Node3&#45;&gt;Node16</title>
<g id="a_edge16_Node000003_Node000016"><a xlink:title=" ">
<path fill="none" stroke="#63b8ff" d="M350.47,-457.6C350.31,-457.4 350.15,-457.2 350,-457 254.18,-331.19 414.36,-225.22 314,-103 304.97,-92 291.24,-85.74 277.59,-82.2"/>
<polygon fill="#63b8ff" stroke="#63b8ff" points="347.96,-460.05 357.59,-464.47 352.82,-455.01 347.96,-460.05"/>
</a>
</g>
</g>
<!-- Node17 -->
<g id="Node000017" class="node">
<title>Node17</title>
<g id="a_Node000017"><a xlink:href="classdepicture__menu_1_1test_1_1test__tools_1_1base__pair__factory.html#af42f61a11b1d5657e827ba4c9fd6e7d1" target="_top" xlink:title=" ">
<polygon fill="white" stroke="#666666" points="287.75,-44 175,-44 175,0 287.75,0 287.75,-44"/>
<text xml:space="preserve" text-anchor="start" x="183" y="-30.5" font-family="Helvetica,sans-Serif" font-size="10.00">depicture_menu::test</text>
<text xml:space="preserve" text-anchor="start" x="183" y="-18.5" font-family="Helvetica,sans-Serif" font-size="10.00">::test_tools::base_pair</text>
<text xml:space="preserve" text-anchor="middle" x="231.38" y="-6.5" font-family="Helvetica,sans-Serif" font-size="10.00">_factory::reset</text>
</a>
</g>
</g>
<!-- Node3&#45;&gt;Node17 -->
<g id="edge17_Node000003_Node000017" class="edge">
<title>Node3&#45;&gt;Node17</title>
<g id="a_edge17_Node000003_Node000017"><a xlink:title=" ">
<path fill="none" stroke="#63b8ff" d="M350.46,-457.61C350.31,-457.41 350.15,-457.2 350,-457 295.84,-384.95 368.43,-124.84 314,-53 307.41,-44.3 298.07,-38.04 288.05,-33.54"/>
<polygon fill="#63b8ff" stroke="#63b8ff" points="347.94,-460.03 357.55,-464.5 352.82,-455.02 347.94,-460.03"/>
</a>
</g>
</g>
<!-- Node18 -->
<g id="Node000018" class="node">
<title>Node18</title>
<g id="a_Node000018"><a xlink:href="classdepicture__menu_1_1test_1_1test__tools_1_1base__pair__factory.html#a44f53cc81c2ec2601a3160d14acd60b4" target="_top" xlink:title=" ">
<polygon fill="white" stroke="#666666" points="112.75,-44 0,-44 0,0 112.75,0 112.75,-44"/>
<text xml:space="preserve" text-anchor="start" x="8" y="-30.5" font-family="Helvetica,sans-Serif" font-size="10.00">depicture_menu::test</text>
<text xml:space="preserve" text-anchor="start" x="8" y="-18.5" font-family="Helvetica,sans-Serif" font-size="10.00">::test_tools::base_pair</text>
<text xml:space="preserve" text-anchor="middle" x="56.38" y="-6.5" font-family="Helvetica,sans-Serif" font-size="10.00">_factory::reset</text>
</a>
</g>
</g>
<!-- Node17&#45;&gt;Node18 -->
<g id="edge18_Node000017_Node000018" class="edge">
<title>Node17&#45;&gt;Node18</title>
<g id="a_edge18_Node000017_Node000018"><a xlink:title=" ">
<path fill="none" stroke="#63b8ff" d="M163.34,-22C146.68,-22 129.01,-22 112.96,-22"/>
<polygon fill="#63b8ff" stroke="#63b8ff" points="163.17,-25.5 173.17,-22 163.17,-18.5 163.17,-25.5"/>
</a>
</g>
</g>
</g>
</svg>

<g id="navigator" transform="translate(0 0)" fill="#404254">
  <rect fill="#f2f5e9" fill-opacity="0.5" stroke="#606060" stroke-width=".5" x="0" y="0" width="60" height="60"/>
  <use id="zoomplus" xlink:href="#zoomPlus" x="17" y="9" onmousedown="handleZoom(evt,'in')"/>
  <use id="zoomminus" xlink:href="#zoomMin" x="42" y="9" onmousedown="handleZoom(evt,'out')"/>
  <use id="reset" xlink:href="#resetDef" x="30" y="36" onmousedown="handleReset()"/>
   <use id="arrowup" xlink:href="#arrowUp" x="0" y="0" onmousedown="handlePan(0,-1)"/>
  <use id="arrowright" xlink:href="#arrowRight" x="0" y="0" onmousedown="handlePan(1,0)"/>
  <use id="arrowdown" xlink:href="#arrowDown" x="0" y="0" onmousedown="handlePan(0,1)"/>
  <use id="arrowleft" xlink:href="#arrowLeft" x="0" y="0" onmousedown="handlePan(-1,0)"/>
</g>
<svg viewBox="0 0 15 15" width="100%" height="30px" preserveAspectRatio="xMaxYMin meet">
 <g id="arrow_out" transform="scale(0.3 0.3)">
  <a xlink:href="namespacedepicture__menu_1_1reflection_1_1detail__reflection_acf183d0f4dd4183a2334fe27a68f9b1e_icgraph_org.svg" target="_base">
   <rect id="button" ry="5" rx="5" y="6" x="6" height="38" width="38"
        fill="#f2f5e9" fill-opacity="0.5" stroke="#606060" stroke-width="1.0"/>
   <path id="arrow"
     d="M 11.500037,31.436501 C 11.940474,20.09759 22.043105,11.32322 32.158766,21.979434 L 37.068811,17.246167 C 37.068811,17.246167 37.088388,32 37.088388,32 L 22.160133,31.978069 C 22.160133,31.978069 26.997745,27.140456 26.997745,27.140456 C 18.528582,18.264221 13.291696,25.230495 11.500037,31.436501 z"
     style="fill:#404040;"/>
  </a>
 </g>
</svg>

<style type='text/css'>
<![CDATA[
[data-mouse-over-selected='false'] { opacity: 0.7; }
[data-mouse-over-selected='true']  { opacity: 1.0; }
]]>
</style>
<script type="application/ecmascript"><![CDATA[
document.addEventListener('DOMContentLoaded', (event) => {
  highlightEdges();
  highlightAdjacentNodes();
});
]]></script>
</svg>
