<?xml version="1.0" encoding="UTF-8" standalone="no"?>
<!DOCTYPE svg PUBLIC "-//W3C//DTD SVG 1.1//EN"
 "http://www.w3.org/Graphics/SVG/1.1/DTD/svg11.dtd">
<!-- Generated by graphviz version 14.1.2 (20260124.0452)
 -->
<!-- Title: depicture_menu::applications::make_transaction_injector Pages: 1 -->
<!--zoomable 806 -->

<svg id="main" version="1.1" xmlns="http://www.w3.org/2000/svg" xmlns:xlink="http://www.w3.org/1999/xlink" xml:space="preserve" onload="init(evt)">

<style type="text/css"><![CDATA[
.node, .edge {opacity: 0.7;}
.node.selected, .edge.selected {opacity: 1;}
.edge:hover path { stroke: red; }
.edge:hover polygon { stroke: red; fill: red; }
]]></style>

<defs>
  <circle id="rim" cx="0" cy="0" r="7"/>
  <circle id="rim2" cx="0" cy="0" r="3.5"/>
  <g id="zoomPlus">
    <use xlink:href="#rim" fill="#404040"><set attributeName="fill" to="#808080" begin="zoomplus.mouseover" end="zoomplus.mouseout"/></use>
    <path d="M-4,0h8M0,-4v8" fill="none" stroke="white" stroke-width="1.5" pointer-events="none"/>
  </g>
  <g id="zoomMin">
    <use xlink:href="#rim" fill="#404040"><set attributeName="fill" to="#808080" begin="zoomminus.mouseover" end="zoomminus.mouseout"/></use>
    <path d="M-4,0h8" fill="none" stroke="white" stroke-width="1.5" pointer-events="none"/>
  </g>
  <g id="arrowUp" transform="translate(30 24)">
    <use xlink:href="#rim"/>
    <path pointer-events="none" fill="none" stroke="white" stroke-width="1.5" d="M0,-3.0v7 M-2.5,-0.5L0,-3.0L2.5,-0.5"/>
  </g>
  <g id="arrowRight" transform="rotate(90) translate(36 -43)">
    <use xlink:href="#rim"/>
    <path pointer-events="none" fill="none" stroke="white" stroke-width="1.5" d="M0,-3.0v7 M-2.5,-0.5L0,-3.0L2.5,-0.5"/>
  </g>
  <g id="arrowDown" transform="rotate(180) translate(-30 -48)">
    <use xlink:href="#rim"/>
    <path pointer-events="none" fill="none" stroke="white" stroke-width="1.5" d="M0,-3.0v7 M-2.5,-0.5L0,-3.0L2.5,-0.5"/>
  </g>
  <g id="arrowLeft" transform="rotate(270) translate(-36 17)">
    <use xlink:href="#rim"/>
    <path pointer-events="none" fill="none" stroke="white" stroke-width="1.5" d="M0,-3.0v7 M-2.5,-0.5L0,-3.0L2.5,-0.5"/>
  </g>
  <g id="resetDef">
    <use xlink:href="#rim2" fill="#404040"><set attributeName="fill" to="#808080" begin="reset.mouseover" end="reset.mouseout"/></use>
  </g>
</defs>
<script type="application/ecmascript">
var viewWidth = 669;
var viewHeight = 806;
var sectionId = 'dynsection-7';
</script>
<script type="application/ecmascript" xlink:href="svg.min.js"/>
<svg id="graph" class="graph">
<g id="viewport">
<title>depicture_menu::applications::make_transaction_injector</title>
<!-- Node1 -->
<g id="Node000001" class="node">
<title>Node1</title>
<g id="a_Node000001"><a xlink:title=" ">
<polygon fill="#999999" stroke="#666666" points="661,-673 518.25,-673 518.25,-641 661,-641 661,-673"/>
<text xml:space="preserve" text-anchor="start" x="526.25" y="-659.5" font-family="Helvetica,sans-Serif" font-size="10.00">depicture_menu::applications</text>
<text xml:space="preserve" text-anchor="middle" x="589.62" y="-647.5" font-family="Helvetica,sans-Serif" font-size="10.00">::make_transaction_injector</text>
</a>
</g>
</g>
<!-- Node2 -->
<g id="Node000002" class="node">
<title>Node2</title>
<g id="a_Node000002"><a xlink:href="namespacedepicture__menu_1_1applications.html#a1a83cc7219079a22026653e1d71774a6" target="_top" xlink:title=" ">
<polygon fill="white" stroke="#666666" points="482.25,-748 339.5,-748 339.5,-716 482.25,-716 482.25,-748"/>
<text xml:space="preserve" text-anchor="start" x="347.5" y="-734.5" font-family="Helvetica,sans-Serif" font-size="10.00">depicture_menu::applications</text>
<text xml:space="preserve" text-anchor="middle" x="410.88" y="-722.5" font-family="Helvetica,sans-Serif" font-size="10.00">::build_archive</text>
</a>
</g>
</g>
<!-- Node1&#45;&gt;Node2 -->
<g id="edge1_Node000001_Node000002" class="edge">
<title>Node1&#45;&gt;Node2</title>
<g id="a_edge1_Node000001_Node000002"><a xlink:title=" ">
<path fill="none" stroke="#63b8ff" d="M539.43,-677.87C511.37,-689.78 476.68,-704.5 450.57,-715.58"/>
<polygon fill="#63b8ff" stroke="#63b8ff" points="540.6,-681.18 548.44,-674.05 537.87,-674.73 540.6,-681.18"/>
</a>
</g>
</g>
<!-- Node6 -->
<g id="Node000006" class="node">
<title>Node6</title>
<g id="a_Node000006"><a xlink:href="initilize__core_8cpp.html#ae9fab8dc9dc01a9309b111177ea6025f" target="_top" xlink:title=" ">
<polygon fill="white" stroke="#666666" points="445.88,-689 375.88,-689 375.88,-669 445.88,-669 445.88,-689"/>
<text xml:space="preserve" text-anchor="middle" x="410.88" y="-675.5" font-family="Helvetica,sans-Serif" font-size="10.00">initilize_core</text>
</a>
</g>
</g>
<!-- Node1&#45;&gt;Node6 -->
<g id="edge5_Node000001_Node000006" class="edge">
<title>Node1&#45;&gt;Node6</title>
<g id="a_edge5_Node000001_Node000006"><a xlink:title=" ">
<path fill="none" stroke="#63b8ff" d="M506.41,-667.23C485.24,-669.87 463.6,-672.56 446.37,-674.71"/>
<polygon fill="#63b8ff" stroke="#63b8ff" points="506.76,-670.72 516.25,-666.01 505.89,-663.77 506.76,-670.72"/>
</a>
</g>
</g>
<!-- Node7 -->
<g id="Node000007" class="node">
<title>Node7</title>
<g id="a_Node000007"><a xlink:href="namespacedetail.html#a8aee8542a8e50ac503aeda7f2e247b33" target="_top" xlink:title=" ">
<polygon fill="white" stroke="#666666" points="461.25,-651 360.5,-651 360.5,-619 461.25,-619 461.25,-651"/>
<text xml:space="preserve" text-anchor="start" x="368.5" y="-637.5" font-family="Helvetica,sans-Serif" font-size="10.00">detail::make_config</text>
<text xml:space="preserve" text-anchor="middle" x="410.88" y="-625.5" font-family="Helvetica,sans-Serif" font-size="10.00">_view_injection</text>
</a>
</g>
</g>
<!-- Node1&#45;&gt;Node7 -->
<g id="edge6_Node000001_Node000007" class="edge">
<title>Node1&#45;&gt;Node7</title>
<g id="a_edge6_Node000001_Node000007"><a xlink:title=" ">
<path fill="none" stroke="#63b8ff" d="M506.62,-646.79C491.24,-644.88 475.6,-642.93 461.57,-641.19"/>
<polygon fill="#63b8ff" stroke="#63b8ff" points="505.89,-650.23 516.25,-647.99 506.76,-643.28 505.89,-650.23"/>
</a>
</g>
</g>
<!-- Node24 -->
<g id="Node000024" class="node">
<title>Node24</title>
<g id="a_Node000024"><a xlink:href="namespacedetail.html#a24241d5a385992358d23f5ad3111e5e2" target="_top" xlink:title=" ">
<polygon fill="white" stroke="#666666" points="461.25,-601 360.5,-601 360.5,-569 461.25,-569 461.25,-601"/>
<text xml:space="preserve" text-anchor="start" x="368.5" y="-587.5" font-family="Helvetica,sans-Serif" font-size="10.00">detail::make_config</text>
<text xml:space="preserve" text-anchor="middle" x="410.88" y="-575.5" font-family="Helvetica,sans-Serif" font-size="10.00">_view_injection</text>
</a>
</g>
</g>
<!-- Node1&#45;&gt;Node24 -->
<g id="edge24_Node000001_Node000024" class="edge">
<title>Node1&#45;&gt;Node24</title>
<g id="a_edge24_Node000001_Node000024"><a xlink:title=" ">
<path fill="none" stroke="#63b8ff" d="M543.13,-636C524.4,-627.6 502.42,-618.02 482.25,-610 475.02,-607.12 467.32,-604.22 459.75,-601.47"/>
<polygon fill="#63b8ff" stroke="#63b8ff" points="541.51,-639.11 552.07,-640.04 544.4,-632.74 541.51,-639.11"/>
</a>
</g>
</g>
<!-- Node3 -->
<g id="Node000003" class="node">
<title>Node3</title>
<g id="a_Node000003"><a xlink:href="classdepicture__menu_1_1applications_1_1application__archiver.html#ae4d40acad3f7a4041c82bbdb3986d106" target="_top" xlink:title=" ">
<polygon fill="white" stroke="#666666" points="302,-798 151.75,-798 151.75,-766 302,-766 302,-798"/>
<text xml:space="preserve" text-anchor="start" x="159.75" y="-784.5" font-family="Helvetica,sans-Serif" font-size="10.00">depicture_menu::applications</text>
<text xml:space="preserve" text-anchor="middle" x="226.88" y="-772.5" font-family="Helvetica,sans-Serif" font-size="10.00">::application_archiver::load_file</text>
</a>
</g>
</g>
<!-- Node2&#45;&gt;Node3 -->
<g id="edge2_Node000002_Node000003" class="edge">
<title>Node2&#45;&gt;Node3</title>
<g id="a_edge2_Node000002_Node000003"><a xlink:title=" ">
<path fill="none" stroke="#63b8ff" d="M339.06,-751.46C322.1,-756.11 304.16,-761.04 287.76,-765.55"/>
<polygon fill="#63b8ff" stroke="#63b8ff" points="339.85,-754.87 348.57,-748.84 338,-748.12 339.85,-754.87"/>
</a>
</g>
</g>
<!-- Node4 -->
<g id="Node000004" class="node">
<title>Node4</title>
<g id="a_Node000004"><a xlink:href="classdepicture__menu_1_1applications_1_1application__archiver.html#a1a3986f047fa5ae0df15ee9a9efd1cd2" target="_top" xlink:title=" ">
<polygon fill="white" stroke="#666666" points="303.5,-748 150.25,-748 150.25,-716 303.5,-716 303.5,-748"/>
<text xml:space="preserve" text-anchor="start" x="158.25" y="-734.5" font-family="Helvetica,sans-Serif" font-size="10.00">depicture_menu::applications</text>
<text xml:space="preserve" text-anchor="middle" x="226.88" y="-722.5" font-family="Helvetica,sans-Serif" font-size="10.00">::application_archiver::save_file</text>
</a>
</g>
</g>
<!-- Node2&#45;&gt;Node4 -->
<g id="edge3_Node000002_Node000004" class="edge">
<title>Node2&#45;&gt;Node4</title>
<g id="a_edge3_Node000002_Node000004"><a xlink:title=" ">
<path fill="none" stroke="#63b8ff" d="M327.99,-732C319.97,-732 311.85,-732 303.89,-732"/>
<polygon fill="#63b8ff" stroke="#63b8ff" points="327.74,-735.5 337.74,-732 327.73,-728.5 327.74,-735.5"/>
</a>
</g>
</g>
<!-- Node5 -->
<g id="Node000005" class="node">
<title>Node5</title>
<g id="a_Node000005"><a xlink:href="dll__main_8cpp.html#a143e19691f5709bf3df4ab1af5219908" target="_top" xlink:title=" ">
<polygon fill="white" stroke="#666666" points="113.5,-742 0.75,-742 0.75,-722 113.5,-722 113.5,-742"/>
<text xml:space="preserve" text-anchor="middle" x="57.13" y="-728.5" font-family="Helvetica,sans-Serif" font-size="10.00">save_application_data</text>
</a>
</g>
</g>
<!-- Node4&#45;&gt;Node5 -->
<g id="edge4_Node000004_Node000005" class="edge">
<title>Node4&#45;&gt;Node5</title>
<g id="a_edge4_Node000004_Node000005"><a xlink:title=" ">
<path fill="none" stroke="#63b8ff" d="M138.44,-732C130.07,-732 121.75,-732 113.81,-732"/>
<polygon fill="#63b8ff" stroke="#63b8ff" points="138.34,-735.5 148.34,-732 138.34,-728.5 138.34,-735.5"/>
</a>
</g>
</g>
<!-- Node8 -->
<g id="Node000008" class="node">
<title>Node8</title>
<g id="a_Node000008"><a xlink:href="classdepicture__menu_1_1applications_1_1view__factories_1_1config__view__arg__builder.html#a7fad9971fe8a0fa887c7279435287da5" target="_top" xlink:title=" ">
<polygon fill="white" stroke="#666666" points="298.25,-698 155.5,-698 155.5,-654 298.25,-654 298.25,-698"/>
<text xml:space="preserve" text-anchor="start" x="163.5" y="-684.5" font-family="Helvetica,sans-Serif" font-size="10.00">depicture_menu::applications</text>
<text xml:space="preserve" text-anchor="start" x="163.5" y="-672.5" font-family="Helvetica,sans-Serif" font-size="10.00">::view_factories::config</text>
<text xml:space="preserve" text-anchor="middle" x="226.88" y="-660.5" font-family="Helvetica,sans-Serif" font-size="10.00">_view_arg_builder::build</text>
</a>
</g>
</g>
<!-- Node7&#45;&gt;Node8 -->
<g id="edge7_Node000007_Node000008" class="edge">
<title>Node7&#45;&gt;Node8</title>
<g id="a_edge7_Node000007_Node000008"><a xlink:title=" ">
<path fill="none" stroke="#63b8ff" d="M349.2,-648.67C333.01,-652.32 315.38,-656.29 298.7,-660.05"/>
<polygon fill="#63b8ff" stroke="#63b8ff" points="349.68,-652.15 358.67,-646.54 348.14,-645.32 349.68,-652.15"/>
</a>
</g>
</g>
<!-- Node9 -->
<g id="Node000009" class="node">
<title>Node9</title>
<g id="a_Node000009"><a xlink:href="namespacedetail.html#a9059c63b55917525f60302be2ad6701b" target="_top" xlink:title=" ">
<polygon fill="white" stroke="#666666" points="284,-376 169.75,-376 169.75,-356 284,-356 284,-376"/>
<text xml:space="preserve" text-anchor="middle" x="226.88" y="-362.5" font-family="Helvetica,sans-Serif" font-size="10.00">detail::create_usecase</text>
</a>
</g>
</g>
<!-- Node7&#45;&gt;Node9 -->
<g id="edge8_Node000007_Node000009" class="edge">
<title>Node7&#45;&gt;Node9</title>
<g id="a_edge8_Node000007_Node000009"><a xlink:title=" ">
<path fill="none" stroke="#63b8ff" d="M350.2,-617.9C346.36,-615.59 342.74,-612.97 339.5,-610 264.78,-541.57 236.45,-413.29 229.62,-376.25"/>
<polygon fill="#63b8ff" stroke="#63b8ff" points="348.27,-620.85 358.75,-622.35 351.49,-614.63 348.27,-620.85"/>
</a>
</g>
</g>
<!-- Node10 -->
<g id="Node000010" class="node">
<title>Node10</title>
<g id="a_Node000010"><a xlink:href="namespacedetail.html#ae3241688f34c6c4966363baf9214f815" target="_top" xlink:title=" ">
<polygon fill="white" stroke="#666666" points="114.25,-670 0,-670 0,-650 114.25,-650 114.25,-670"/>
<text xml:space="preserve" text-anchor="middle" x="57.13" y="-656.5" font-family="Helvetica,sans-Serif" font-size="10.00">detail::create_usecase</text>
</a>
</g>
</g>
<!-- Node7&#45;&gt;Node10 -->
<g id="edge23_Node000007_Node000010" class="edge">
<title>Node7&#45;&gt;Node10</title>
<g id="a_edge23_Node000007_Node000010"><a xlink:title=" ">
<path fill="none" stroke="#63b8ff" d="M348.96,-635.24C296.25,-635.94 218.06,-638.2 150.25,-645 138.64,-646.16 126.27,-647.86 114.5,-649.7"/>
<polygon fill="#63b8ff" stroke="#63b8ff" points="348.99,-638.74 358.95,-635.12 348.91,-631.74 348.99,-638.74"/>
</a>
</g>
</g>
<!-- Node9&#45;&gt;Node10 -->
<g id="edge9_Node000009_Node000010" class="edge">
<title>Node9&#45;&gt;Node10</title>
<g id="a_edge9_Node000009_Node000010"><a xlink:title=" ">
<path fill="none" stroke="#63b8ff" d="M223.22,-387.75C215.79,-439.21 190.12,-569.49 114.25,-641 110.58,-644.46 106.26,-647.29 101.67,-649.6"/>
<polygon fill="#63b8ff" stroke="#63b8ff" points="226.67,-388.32 224.53,-377.95 219.74,-387.39 226.67,-388.32"/>
</a>
</g>
</g>
<!-- Node11 -->
<g id="Node000011" class="node">
<title>Node11</title>
<g id="a_Node000011"><a xlink:href="structdetail_1_1config__view__dispatch.html#aa3a108804e4e17af423a152d8a5b6b6e" target="_top" xlink:title=" ">
<polygon fill="white" stroke="#666666" points="109.75,-632 4.5,-632 4.5,-600 109.75,-600 109.75,-632"/>
<text xml:space="preserve" text-anchor="start" x="12.5" y="-618.5" font-family="Helvetica,sans-Serif" font-size="10.00">detail::config_view</text>
<text xml:space="preserve" text-anchor="middle" x="57.13" y="-606.5" font-family="Helvetica,sans-Serif" font-size="10.00">_dispatch::operator()</text>
</a>
</g>
</g>
<!-- Node9&#45;&gt;Node11 -->
<g id="edge10_Node000009_Node000011" class="edge">
<title>Node9&#45;&gt;Node11</title>
<g id="a_edge10_Node000009_Node000011"><a xlink:title=" ">
<path fill="none" stroke="#63b8ff" d="M220.54,-387.47C208.63,-431.27 175.96,-531.8 114.25,-591 110.86,-594.25 106.98,-597.12 102.88,-599.65"/>
<polygon fill="#63b8ff" stroke="#63b8ff" points="223.88,-388.5 223.03,-377.94 217.11,-386.73 223.88,-388.5"/>
</a>
</g>
</g>
<!-- Node12 -->
<g id="Node000012" class="node">
<title>Node12</title>
<g id="a_Node000012"><a xlink:href="structdetail_1_1config__view__dispatch.html#a41903c01ec35f58bb05db603f661d495" target="_top" xlink:title=" ">
<polygon fill="white" stroke="#666666" points="109.75,-582 4.5,-582 4.5,-550 109.75,-550 109.75,-582"/>
<text xml:space="preserve" text-anchor="start" x="12.5" y="-568.5" font-family="Helvetica,sans-Serif" font-size="10.00">detail::config_view</text>
<text xml:space="preserve" text-anchor="middle" x="57.13" y="-556.5" font-family="Helvetica,sans-Serif" font-size="10.00">_dispatch::operator()</text>
</a>
</g>
</g>
<!-- Node9&#45;&gt;Node12 -->
<g id="edge11_Node000009_Node000012" class="edge">
<title>Node9&#45;&gt;Node12</title>
<g id="a_edge11_Node000009_Node000012"><a xlink:title=" ">
<path fill="none" stroke="#63b8ff" d="M217.46,-386.74C201.98,-422.61 165.77,-496.63 114.25,-541 110.53,-544.2 106.34,-547.06 101.96,-549.6"/>
<polygon fill="#63b8ff" stroke="#63b8ff" points="220.68,-388.11 221.33,-377.53 214.23,-385.4 220.68,-388.11"/>
</a>
</g>
</g>
<!-- Node13 -->
<g id="Node000013" class="node">
<title>Node13</title>
<g id="a_Node000013"><a xlink:href="structdetail_1_1config__view__dispatch.html#ab153bd4e90b8c6058b92be00888b603a" target="_top" xlink:title=" ">
<polygon fill="white" stroke="#666666" points="109.75,-532 4.5,-532 4.5,-500 109.75,-500 109.75,-532"/>
<text xml:space="preserve" text-anchor="start" x="12.5" y="-518.5" font-family="Helvetica,sans-Serif" font-size="10.00">detail::config_view</text>
<text xml:space="preserve" text-anchor="middle" x="57.13" y="-506.5" font-family="Helvetica,sans-Serif" font-size="10.00">_dispatch::operator()</text>
</a>
</g>
</g>
<!-- Node9&#45;&gt;Node13 -->
<g id="edge12_Node000009_Node000013" class="edge">
<title>Node9&#45;&gt;Node13</title>
<g id="a_edge12_Node000009_Node000013"><a xlink:title=" ">
<path fill="none" stroke="#63b8ff" d="M212.54,-385.54C193.43,-412.32 155.93,-460.58 114.25,-491 109.94,-494.14 105.18,-497.01 100.29,-499.6"/>
<polygon fill="#63b8ff" stroke="#63b8ff" points="215.2,-387.84 218.07,-377.64 209.46,-383.83 215.2,-387.84"/>
</a>
</g>
</g>
<!-- Node14 -->
<g id="Node000014" class="node">
<title>Node14</title>
<g id="a_Node000014"><a xlink:href="structdetail_1_1config__view__dispatch.html#a6813a6c35a9eb1d397bef9213d55d6db" target="_top" xlink:title=" ">
<polygon fill="white" stroke="#666666" points="109.75,-482 4.5,-482 4.5,-450 109.75,-450 109.75,-482"/>
<text xml:space="preserve" text-anchor="start" x="12.5" y="-468.5" font-family="Helvetica,sans-Serif" font-size="10.00">detail::config_view</text>
<text xml:space="preserve" text-anchor="middle" x="57.13" y="-456.5" font-family="Helvetica,sans-Serif" font-size="10.00">_dispatch::operator()</text>
</a>
</g>
</g>
<!-- Node9&#45;&gt;Node14 -->
<g id="edge13_Node000009_Node000014" class="edge">
<title>Node9&#45;&gt;Node14</title>
<g id="a_edge13_Node000009_Node000014"><a xlink:title=" ">
<path fill="none" stroke="#63b8ff" d="M203.08,-383.02C181.02,-399.08 146.32,-423.26 114.25,-441 108.93,-443.94 103.2,-446.82 97.5,-449.5"/>
<polygon fill="#63b8ff" stroke="#63b8ff" points="205.06,-385.91 211.05,-377.17 200.92,-380.27 205.06,-385.91"/>
</a>
</g>
</g>
<!-- Node15 -->
<g id="Node000015" class="node">
<title>Node15</title>
<g id="a_Node000015"><a xlink:href="structdetail_1_1config__view__dispatch.html#a76b30ceed9f44c7486fe6ce723b0d586" target="_top" xlink:title=" ">
<polygon fill="white" stroke="#666666" points="109.75,-432 4.5,-432 4.5,-400 109.75,-400 109.75,-432"/>
<text xml:space="preserve" text-anchor="start" x="12.5" y="-418.5" font-family="Helvetica,sans-Serif" font-size="10.00">detail::config_view</text>
<text xml:space="preserve" text-anchor="middle" x="57.13" y="-406.5" font-family="Helvetica,sans-Serif" font-size="10.00">_dispatch::operator()</text>
</a>
</g>
</g>
<!-- Node9&#45;&gt;Node15 -->
<g id="edge14_Node000009_Node000015" class="edge">
<title>Node9&#45;&gt;Node15</title>
<g id="a_edge14_Node000009_Node000015"><a xlink:title=" ">
<path fill="none" stroke="#63b8ff" d="M179.84,-379.72C158.25,-386.16 132.43,-393.85 110.13,-400.5"/>
<polygon fill="#63b8ff" stroke="#63b8ff" points="180.68,-383.12 189.26,-376.91 178.68,-376.42 180.68,-383.12"/>
</a>
</g>
</g>
<!-- Node16 -->
<g id="Node000016" class="node">
<title>Node16</title>
<g id="a_Node000016"><a xlink:href="structdetail_1_1config__view__dispatch.html#a626371d6da54a29abcfb88ee0da91038" target="_top" xlink:title=" ">
<polygon fill="white" stroke="#666666" points="109.75,-382 4.5,-382 4.5,-350 109.75,-350 109.75,-382"/>
<text xml:space="preserve" text-anchor="start" x="12.5" y="-368.5" font-family="Helvetica,sans-Serif" font-size="10.00">detail::config_view</text>
<text xml:space="preserve" text-anchor="middle" x="57.13" y="-356.5" font-family="Helvetica,sans-Serif" font-size="10.00">_dispatch::operator()</text>
</a>
</g>
</g>
<!-- Node9&#45;&gt;Node16 -->
<g id="edge15_Node000009_Node000016" class="edge">
<title>Node9&#45;&gt;Node16</title>
<g id="a_edge15_Node000009_Node000016"><a xlink:title=" ">
<path fill="none" stroke="#63b8ff" d="M158.07,-366C142.06,-366 125.24,-366 110.06,-366"/>
<polygon fill="#63b8ff" stroke="#63b8ff" points="158.04,-369.5 168.04,-366 158.04,-362.5 158.04,-369.5"/>
</a>
</g>
</g>
<!-- Node17 -->
<g id="Node000017" class="node">
<title>Node17</title>
<g id="a_Node000017"><a xlink:href="structdetail_1_1config__view__dispatch.html#ad3071227f01b14edaa9acd17d84b86ce" target="_top" xlink:title=" ">
<polygon fill="white" stroke="#666666" points="109.75,-332 4.5,-332 4.5,-300 109.75,-300 109.75,-332"/>
<text xml:space="preserve" text-anchor="start" x="12.5" y="-318.5" font-family="Helvetica,sans-Serif" font-size="10.00">detail::config_view</text>
<text xml:space="preserve" text-anchor="middle" x="57.13" y="-306.5" font-family="Helvetica,sans-Serif" font-size="10.00">_dispatch::operator()</text>
</a>
</g>
</g>
<!-- Node9&#45;&gt;Node17 -->
<g id="edge16_Node000009_Node000017" class="edge">
<title>Node9&#45;&gt;Node17</title>
<g id="a_edge16_Node000009_Node000017"><a xlink:title=" ">
<path fill="none" stroke="#63b8ff" d="M179.84,-352.28C158.25,-345.84 132.43,-338.15 110.13,-331.5"/>
<polygon fill="#63b8ff" stroke="#63b8ff" points="178.68,-355.58 189.26,-355.09 180.68,-348.88 178.68,-355.58"/>
</a>
</g>
</g>
<!-- Node18 -->
<g id="Node000018" class="node">
<title>Node18</title>
<g id="a_Node000018"><a xlink:href="structdetail_1_1config__view__dispatch.html#ad811d67fc5b9793e86c4f597a7de6ad9" target="_top" xlink:title=" ">
<polygon fill="white" stroke="#666666" points="109.75,-282 4.5,-282 4.5,-250 109.75,-250 109.75,-282"/>
<text xml:space="preserve" text-anchor="start" x="12.5" y="-268.5" font-family="Helvetica,sans-Serif" font-size="10.00">detail::config_view</text>
<text xml:space="preserve" text-anchor="middle" x="57.13" y="-256.5" font-family="Helvetica,sans-Serif" font-size="10.00">_dispatch::operator()</text>
</a>
</g>
</g>
<!-- Node9&#45;&gt;Node18 -->
<g id="edge17_Node000009_Node000018" class="edge">
<title>Node9&#45;&gt;Node18</title>
<g id="a_edge17_Node000009_Node000018"><a xlink:title=" ">
<path fill="none" stroke="#63b8ff" d="M203.08,-348.98C181.02,-332.92 146.32,-308.74 114.25,-291 108.93,-288.06 103.2,-285.18 97.5,-282.5"/>
<polygon fill="#63b8ff" stroke="#63b8ff" points="200.92,-351.73 211.05,-354.83 205.06,-346.09 200.92,-351.73"/>
</a>
</g>
</g>
<!-- Node19 -->
<g id="Node000019" class="node">
<title>Node19</title>
<g id="a_Node000019"><a xlink:href="structdetail_1_1config__view__dispatch.html#a175c76ecf1f9a4796d214ab9788d2a4c" target="_top" xlink:title=" ">
<polygon fill="white" stroke="#666666" points="109.75,-232 4.5,-232 4.5,-200 109.75,-200 109.75,-232"/>
<text xml:space="preserve" text-anchor="start" x="12.5" y="-218.5" font-family="Helvetica,sans-Serif" font-size="10.00">detail::config_view</text>
<text xml:space="preserve" text-anchor="middle" x="57.13" y="-206.5" font-family="Helvetica,sans-Serif" font-size="10.00">_dispatch::operator()</text>
</a>
</g>
</g>
<!-- Node9&#45;&gt;Node19 -->
<g id="edge18_Node000009_Node000019" class="edge">
<title>Node9&#45;&gt;Node19</title>
<g id="a_edge18_Node000009_Node000019"><a xlink:title=" ">
<path fill="none" stroke="#63b8ff" d="M212.54,-346.46C193.43,-319.68 155.93,-271.42 114.25,-241 109.94,-237.86 105.18,-234.99 100.29,-232.4"/>
<polygon fill="#63b8ff" stroke="#63b8ff" points="209.46,-348.17 218.07,-354.36 215.2,-344.16 209.46,-348.17"/>
</a>
</g>
</g>
<!-- Node20 -->
<g id="Node000020" class="node">
<title>Node20</title>
<g id="a_Node000020"><a xlink:href="structdetail_1_1config__view__dispatch.html#ad4e544f2b7648e7d70ae705383c16f90" target="_top" xlink:title=" ">
<polygon fill="white" stroke="#666666" points="109.75,-182 4.5,-182 4.5,-150 109.75,-150 109.75,-182"/>
<text xml:space="preserve" text-anchor="start" x="12.5" y="-168.5" font-family="Helvetica,sans-Serif" font-size="10.00">detail::config_view</text>
<text xml:space="preserve" text-anchor="middle" x="57.13" y="-156.5" font-family="Helvetica,sans-Serif" font-size="10.00">_dispatch::operator()</text>
</a>
</g>
</g>
<!-- Node9&#45;&gt;Node20 -->
<g id="edge19_Node000009_Node000020" class="edge">
<title>Node9&#45;&gt;Node20</title>
<g id="a_edge19_Node000009_Node000020"><a xlink:title=" ">
<path fill="none" stroke="#63b8ff" d="M217.46,-345.26C201.98,-309.39 165.77,-235.37 114.25,-191 110.53,-187.8 106.34,-184.94 101.96,-182.4"/>
<polygon fill="#63b8ff" stroke="#63b8ff" points="214.23,-346.6 221.33,-354.47 220.68,-343.89 214.23,-346.6"/>
</a>
</g>
</g>
<!-- Node21 -->
<g id="Node000021" class="node">
<title>Node21</title>
<g id="a_Node000021"><a xlink:href="structdetail_1_1config__view__dispatch.html#a6afd84d3581049f1dc3662a5fa15bd3c" target="_top" xlink:title=" ">
<polygon fill="white" stroke="#666666" points="109.75,-132 4.5,-132 4.5,-100 109.75,-100 109.75,-132"/>
<text xml:space="preserve" text-anchor="start" x="12.5" y="-118.5" font-family="Helvetica,sans-Serif" font-size="10.00">detail::config_view</text>
<text xml:space="preserve" text-anchor="middle" x="57.13" y="-106.5" font-family="Helvetica,sans-Serif" font-size="10.00">_dispatch::operator()</text>
</a>
</g>
</g>
<!-- Node9&#45;&gt;Node21 -->
<g id="edge20_Node000009_Node000021" class="edge">
<title>Node9&#45;&gt;Node21</title>
<g id="a_edge20_Node000009_Node000021"><a xlink:title=" ">
<path fill="none" stroke="#63b8ff" d="M220.54,-344.53C208.63,-300.73 175.96,-200.2 114.25,-141 110.86,-137.75 106.98,-134.88 102.88,-132.35"/>
<polygon fill="#63b8ff" stroke="#63b8ff" points="217.11,-345.27 223.03,-354.06 223.88,-343.5 217.11,-345.27"/>
</a>
</g>
</g>
<!-- Node22 -->
<g id="Node000022" class="node">
<title>Node22</title>
<g id="a_Node000022"><a xlink:href="structdetail_1_1config__view__dispatch.html#a270ac79b5fc529a8f220eaae53588cf0" target="_top" xlink:title=" ">
<polygon fill="white" stroke="#666666" points="109.75,-82 4.5,-82 4.5,-50 109.75,-50 109.75,-82"/>
<text xml:space="preserve" text-anchor="start" x="12.5" y="-68.5" font-family="Helvetica,sans-Serif" font-size="10.00">detail::config_view</text>
<text xml:space="preserve" text-anchor="middle" x="57.13" y="-56.5" font-family="Helvetica,sans-Serif" font-size="10.00">_dispatch::operator()</text>
</a>
</g>
</g>
<!-- Node9&#45;&gt;Node22 -->
<g id="edge21_Node000009_Node000022" class="edge">
<title>Node9&#45;&gt;Node22</title>
<g id="a_edge21_Node000009_Node000022"><a xlink:title=" ">
<path fill="none" stroke="#63b8ff" d="M222.71,-344.36C214.25,-293.65 186.57,-165.78 114.25,-91 111.14,-87.78 107.53,-84.94 103.68,-82.45"/>
<polygon fill="#63b8ff" stroke="#63b8ff" points="219.22,-344.68 224.23,-354.02 226.14,-343.59 219.22,-344.68"/>
</a>
</g>
</g>
<!-- Node23 -->
<g id="Node000023" class="node">
<title>Node23</title>
<g id="a_Node000023"><a xlink:href="structdetail_1_1config__view__dispatch.html#a641f18c1d8e8c61341b345ee9761a7fe" target="_top" xlink:title=" ">
<polygon fill="white" stroke="#666666" points="109.75,-32 4.5,-32 4.5,0 109.75,0 109.75,-32"/>
<text xml:space="preserve" text-anchor="start" x="12.5" y="-18.5" font-family="Helvetica,sans-Serif" font-size="10.00">detail::config_view</text>
<text xml:space="preserve" text-anchor="middle" x="57.13" y="-6.5" font-family="Helvetica,sans-Serif" font-size="10.00">_dispatch::operator()</text>
</a>
</g>
</g>
<!-- Node9&#45;&gt;Node23 -->
<g id="edge22_Node000009_Node000023" class="edge">
<title>Node9&#45;&gt;Node23</title>
<g id="a_edge22_Node000009_Node000023"><a xlink:title=" ">
<path fill="none" stroke="#63b8ff" d="M224.29,-344.37C219.03,-287.49 197.4,-131.83 114.25,-41 111.3,-37.77 107.85,-34.94 104.14,-32.46"/>
<polygon fill="#63b8ff" stroke="#63b8ff" points="220.8,-344.61 225.12,-354.28 227.78,-344.03 220.8,-344.61"/>
</a>
</g>
</g>
</g>
</svg>

<g id="navigator" transform="translate(0 0)" fill="#404254">
  <rect fill="#f2f5e9" fill-opacity="0.5" stroke="#606060" stroke-width=".5" x="0" y="0" width="60" height="60"/>
  <use id="zoomplus" xlink:href="#zoomPlus" x="17" y="9" onmousedown="handleZoom(evt,'in')"/>
  <use id="zoomminus" xlink:href="#zoomMin" x="42" y="9" onmousedown="handleZoom(evt,'out')"/>
  <use id="reset" xlink:href="#resetDef" x="30" y="36" onmousedown="handleReset()"/>
   <use id="arrowup" xlink:href="#arrowUp" x="0" y="0" onmousedown="handlePan(0,-1)"/>
  <use id="arrowright" xlink:href="#arrowRight" x="0" y="0" onmousedown="handlePan(1,0)"/>
  <use id="arrowdown" xlink:href="#arrowDown" x="0" y="0" onmousedown="handlePan(0,1)"/>
  <use id="arrowleft" xlink:href="#arrowLeft" x="0" y="0" onmousedown="handlePan(-1,0)"/>
</g>
<svg viewBox="0 0 15 15" width="100%" height="30px" preserveAspectRatio="xMaxYMin meet">
 <g id="arrow_out" transform="scale(0.3 0.3)">
  <a xlink:href="namespacedepicture__menu_1_1applications_af2f3f1b3b5999de9758861d236b73323_icgraph_org.svg" target="_base">
   <rect id="button" ry="5" rx="5" y="6" x="6" height="38" width="38"
        fill="#f2f5e9" fill-opacity="0.5" stroke="#606060" stroke-width="1.0"/>
   <path id="arrow"
     d="M 11.500037,31.436501 C 11.940474,20.09759 22.043105,11.32322 32.158766,21.979434 L 37.068811,17.246167 C 37.068811,17.246167 37.088388,32 37.088388,32 L 22.160133,31.978069 C 22.160133,31.978069 26.997745,27.140456 26.997745,27.140456 C 18.528582,18.264221 13.291696,25.230495 11.500037,31.436501 z"
     style="fill:#404040;"/>
  </a>
 </g>
</svg>

<style type='text/css'>
<![CDATA[
[data-mouse-over-selected='false'] { opacity: 0.7; }
[data-mouse-over-selected='true']  { opacity: 1.0; }
]]>
</style>
<script type="application/ecmascript"><![CDATA[
document.addEventListener('DOMContentLoaded', (event) => {
  highlightEdges();
  highlightAdjacentNodes();
});
]]></script>
</svg>
