<?xml version="1.0" encoding="UTF-8" standalone="no"?>
<!DOCTYPE svg PUBLIC "-//W3C//DTD SVG 1.1//EN"
 "http://www.w3.org/Graphics/SVG/1.1/DTD/svg11.dtd">
<!-- Generated by graphviz version 14.1.2 (20260124.0452)
 -->
<!-- Title: depicture_menu::applications::make_transaction_injector Pages: 1 -->
<!--zoomable 509 -->

<svg id="main" version="1.1" xmlns="http://www.w3.org/2000/svg" xmlns:xlink="http://www.w3.org/1999/xlink" xml:space="preserve" onload="init(evt)">

<style type="text/css"><![CDATA[
.node, .edge {opacity: 0.7;}
.node.selected, .edge.selected {opacity: 1;}
.edge:hover path { stroke: red; }
.edge:hover polygon { stroke: red; fill: red; }
]]></style>

<defs>
  <circle id="rim" cx="0" cy="0" r="7"/>
  <circle id="rim2" cx="0" cy="0" r="3.5"/>
  <g id="zoomPlus">
    <use xlink:href="#rim" fill="#404040"><set attributeName="fill" to="#808080" begin="zoomplus.mouseover" end="zoomplus.mouseout"/></use>
    <path d="M-4,0h8M0,-4v8" fill="none" stroke="white" stroke-width="1.5" pointer-events="none"/>
  </g>
  <g id="zoomMin">
    <use xlink:href="#rim" fill="#404040"><set attributeName="fill" to="#808080" begin="zoomminus.mouseover" end="zoomminus.mouseout"/></use>
    <path d="M-4,0h8" fill="none" stroke="white" stroke-width="1.5" pointer-events="none"/>
  </g>
  <g id="arrowUp" transform="translate(30 24)">
    <use xlink:href="#rim"/>
    <path pointer-events="none" fill="none" stroke="white" stroke-width="1.5" d="M0,-3.0v7 M-2.5,-0.5L0,-3.0L2.5,-0.5"/>
  </g>
  <g id="arrowRight" transform="rotate(90) translate(36 -43)">
    <use xlink:href="#rim"/>
    <path pointer-events="none" fill="none" stroke="white" stroke-width="1.5" d="M0,-3.0v7 M-2.5,-0.5L0,-3.0L2.5,-0.5"/>
  </g>
  <g id="arrowDown" transform="rotate(180) translate(-30 -48)">
    <use xlink:href="#rim"/>
    <path pointer-events="none" fill="none" stroke="white" stroke-width="1.5" d="M0,-3.0v7 M-2.5,-0.5L0,-3.0L2.5,-0.5"/>
  </g>
  <g id="arrowLeft" transform="rotate(270) translate(-36 17)">
    <use xlink:href="#rim"/>
    <path pointer-events="none" fill="none" stroke="white" stroke-width="1.5" d="M0,-3.0v7 M-2.5,-0.5L0,-3.0L2.5,-0.5"/>
  </g>
  <g id="resetDef">
    <use xlink:href="#rim2" fill="#404040"><set attributeName="fill" to="#808080" begin="reset.mouseover" end="reset.mouseout"/></use>
  </g>
</defs>
<script type="application/ecmascript">
var viewWidth = 719;
var viewHeight = 509;
var sectionId = 'dynsection-8';
</script>
<script type="application/ecmascript" xlink:href="svg.min.js"/>
<svg id="graph" class="graph">
<g id="viewport">
<title>depicture_menu::applications::make_transaction_injector</title>
<!-- Node1 -->
<g id="Node000001" class="node">
<title>Node1</title>
<g id="a_Node000001"><a xlink:title=" ">
<polygon fill="#999999" stroke="#666666" points="711.25,-394 568.5,-394 568.5,-362 711.25,-362 711.25,-394"/>
<text xml:space="preserve" text-anchor="start" x="576.5" y="-380.5" font-family="Helvetica,sans-Serif" font-size="10.00">depicture_menu::applications</text>
<text xml:space="preserve" text-anchor="middle" x="639.88" y="-368.5" font-family="Helvetica,sans-Serif" font-size="10.00">::make_transaction_injector</text>
</a>
</g>
</g>
<!-- Node2 -->
<g id="Node000002" class="node">
<title>Node2</title>
<g id="a_Node000002"><a xlink:href="namespacedepicture__menu_1_1applications.html#a1a83cc7219079a22026653e1d71774a6" target="_top" xlink:title=" ">
<polygon fill="white" stroke="#666666" points="532.5,-451 389.75,-451 389.75,-419 532.5,-419 532.5,-451"/>
<text xml:space="preserve" text-anchor="start" x="397.75" y="-437.5" font-family="Helvetica,sans-Serif" font-size="10.00">depicture_menu::applications</text>
<text xml:space="preserve" text-anchor="middle" x="461.12" y="-425.5" font-family="Helvetica,sans-Serif" font-size="10.00">::build_archive</text>
</a>
</g>
</g>
<!-- Node1&#45;&gt;Node2 -->
<g id="edge1_Node000001_Node000002" class="edge">
<title>Node1&#45;&gt;Node2</title>
<g id="a_edge1_Node000001_Node000002"><a xlink:title=" ">
<path fill="none" stroke="#63b8ff" d="M577.05,-397.94C556.16,-404.67 533.09,-412.11 513.13,-418.55"/>
<polygon fill="#63b8ff" stroke="#63b8ff" points="577.87,-401.35 586.31,-394.95 575.72,-394.69 577.87,-401.35"/>
</a>
</g>
</g>
<!-- Node6 -->
<g id="Node000006" class="node">
<title>Node6</title>
<g id="a_Node000006"><a xlink:href="initilize__core_8cpp.html#ae9fab8dc9dc01a9309b111177ea6025f" target="_top" xlink:title=" ">
<polygon fill="white" stroke="#666666" points="496.12,-388 426.12,-388 426.12,-368 496.12,-368 496.12,-388"/>
<text xml:space="preserve" text-anchor="middle" x="461.12" y="-374.5" font-family="Helvetica,sans-Serif" font-size="10.00">initilize_core</text>
</a>
</g>
</g>
<!-- Node1&#45;&gt;Node6 -->
<g id="edge5_Node000001_Node000006" class="edge">
<title>Node1&#45;&gt;Node6</title>
<g id="a_edge5_Node000001_Node000006"><a xlink:title=" ">
<path fill="none" stroke="#63b8ff" d="M556.66,-378C535.49,-378 513.85,-378 496.62,-378"/>
<polygon fill="#63b8ff" stroke="#63b8ff" points="556.49,-381.5 566.49,-378 556.49,-374.5 556.49,-381.5"/>
</a>
</g>
</g>
<!-- Node7 -->
<g id="Node000007" class="node">
<title>Node7</title>
<g id="a_Node000007"><a xlink:href="namespacedetail.html#a8aee8542a8e50ac503aeda7f2e247b33" target="_top" xlink:title=" ">
<polygon fill="white" stroke="#666666" points="511.5,-323 410.75,-323 410.75,-291 511.5,-291 511.5,-323"/>
<text xml:space="preserve" text-anchor="start" x="418.75" y="-309.5" font-family="Helvetica,sans-Serif" font-size="10.00">detail::make_config</text>
<text xml:space="preserve" text-anchor="middle" x="461.12" y="-297.5" font-family="Helvetica,sans-Serif" font-size="10.00">_view_injection</text>
</a>
</g>
</g>
<!-- Node1&#45;&gt;Node7 -->
<g id="edge6_Node000001_Node000007" class="edge">
<title>Node1&#45;&gt;Node7</title>
<g id="a_edge6_Node000001_Node000007"><a xlink:title=" ">
<path fill="none" stroke="#63b8ff" d="M587.49,-357.36C560.57,-346.54 528.06,-333.49 502.9,-323.38"/>
<polygon fill="#63b8ff" stroke="#63b8ff" points="585.89,-360.49 596.48,-360.97 588.5,-353.99 585.89,-360.49"/>
</a>
</g>
</g>
<!-- Node3 -->
<g id="Node000003" class="node">
<title>Node3</title>
<g id="a_Node000003"><a xlink:href="classdepicture__menu_1_1applications_1_1application__archiver.html#ae4d40acad3f7a4041c82bbdb3986d106" target="_top" xlink:title=" ">
<polygon fill="white" stroke="#666666" points="352.25,-501 202,-501 202,-469 352.25,-469 352.25,-501"/>
<text xml:space="preserve" text-anchor="start" x="210" y="-487.5" font-family="Helvetica,sans-Serif" font-size="10.00">depicture_menu::applications</text>
<text xml:space="preserve" text-anchor="middle" x="277.12" y="-475.5" font-family="Helvetica,sans-Serif" font-size="10.00">::application_archiver::load_file</text>
</a>
</g>
</g>
<!-- Node2&#45;&gt;Node3 -->
<g id="edge2_Node000002_Node000003" class="edge">
<title>Node2&#45;&gt;Node3</title>
<g id="a_edge2_Node000002_Node000003"><a xlink:title=" ">
<path fill="none" stroke="#63b8ff" d="M389.31,-454.46C372.35,-459.11 354.41,-464.04 338.01,-468.55"/>
<polygon fill="#63b8ff" stroke="#63b8ff" points="390.1,-457.87 398.82,-451.84 388.25,-451.12 390.1,-457.87"/>
</a>
</g>
</g>
<!-- Node4 -->
<g id="Node000004" class="node">
<title>Node4</title>
<g id="a_Node000004"><a xlink:href="classdepicture__menu_1_1applications_1_1application__archiver.html#a1a3986f047fa5ae0df15ee9a9efd1cd2" target="_top" xlink:title=" ">
<polygon fill="white" stroke="#666666" points="353.75,-451 200.5,-451 200.5,-419 353.75,-419 353.75,-451"/>
<text xml:space="preserve" text-anchor="start" x="208.5" y="-437.5" font-family="Helvetica,sans-Serif" font-size="10.00">depicture_menu::applications</text>
<text xml:space="preserve" text-anchor="middle" x="277.12" y="-425.5" font-family="Helvetica,sans-Serif" font-size="10.00">::application_archiver::save_file</text>
</a>
</g>
</g>
<!-- Node2&#45;&gt;Node4 -->
<g id="edge3_Node000002_Node000004" class="edge">
<title>Node2&#45;&gt;Node4</title>
<g id="a_edge3_Node000002_Node000004"><a xlink:title=" ">
<path fill="none" stroke="#63b8ff" d="M378.24,-435C370.22,-435 362.1,-435 354.14,-435"/>
<polygon fill="#63b8ff" stroke="#63b8ff" points="377.99,-438.5 387.99,-435 377.98,-431.5 377.99,-438.5"/>
</a>
</g>
</g>
<!-- Node5 -->
<g id="Node000005" class="node">
<title>Node5</title>
<g id="a_Node000005"><a xlink:href="dll__main_8cpp.html#a143e19691f5709bf3df4ab1af5219908" target="_top" xlink:title=" ">
<polygon fill="white" stroke="#666666" points="138.62,-452 25.88,-452 25.88,-432 138.62,-432 138.62,-452"/>
<text xml:space="preserve" text-anchor="middle" x="82.25" y="-438.5" font-family="Helvetica,sans-Serif" font-size="10.00">save_application_data</text>
</a>
</g>
</g>
<!-- Node4&#45;&gt;Node5 -->
<g id="edge4_Node000004_Node000005" class="edge">
<title>Node4&#45;&gt;Node5</title>
<g id="a_edge4_Node000004_Node000005"><a xlink:title=" ">
<path fill="none" stroke="#63b8ff" d="M189.05,-438.16C171.99,-438.78 154.55,-439.41 138.87,-439.98"/>
<polygon fill="#63b8ff" stroke="#63b8ff" points="188.79,-441.67 198.66,-437.81 188.54,-434.68 188.79,-441.67"/>
</a>
</g>
</g>
<!-- Node8 -->
<g id="Node000008" class="node">
<title>Node8</title>
<g id="a_Node000008"><a xlink:href="classdepicture__menu_1_1applications_1_1view__factories_1_1config__view__arg__builder.html#a81771a2eb3dd080cb12d97086f19e37b" target="_top" xlink:title=" ">
<polygon fill="white" stroke="#666666" points="348.5,-329 205.75,-329 205.75,-285 348.5,-285 348.5,-329"/>
<text xml:space="preserve" text-anchor="start" x="213.75" y="-315.5" font-family="Helvetica,sans-Serif" font-size="10.00">depicture_menu::applications</text>
<text xml:space="preserve" text-anchor="start" x="213.75" y="-303.5" font-family="Helvetica,sans-Serif" font-size="10.00">::view_factories::config</text>
<text xml:space="preserve" text-anchor="middle" x="277.12" y="-291.5" font-family="Helvetica,sans-Serif" font-size="10.00">_view_arg_builder::build</text>
</a>
</g>
</g>
<!-- Node7&#45;&gt;Node8 -->
<g id="edge7_Node000007_Node000008" class="edge">
<title>Node7&#45;&gt;Node8</title>
<g id="a_edge7_Node000007_Node000008"><a xlink:title=" ">
<path fill="none" stroke="#63b8ff" d="M398.98,-307C382.92,-307 365.47,-307 348.95,-307"/>
<polygon fill="#63b8ff" stroke="#63b8ff" points="398.88,-310.5 408.88,-307 398.88,-303.5 398.88,-310.5"/>
</a>
</g>
</g>
<!-- Node9 -->
<g id="Node000009" class="node">
<title>Node9</title>
<g id="a_Node000009"><a xlink:href="namespacedetail.html#a9059c63b55917525f60302be2ad6701b" target="_top" xlink:title=" ">
<polygon fill="white" stroke="#666666" points="334.25,-260 220,-260 220,-240 334.25,-240 334.25,-260"/>
<text xml:space="preserve" text-anchor="middle" x="277.12" y="-246.5" font-family="Helvetica,sans-Serif" font-size="10.00">detail::create_usecase</text>
</a>
</g>
</g>
<!-- Node7&#45;&gt;Node9 -->
<g id="edge8_Node000007_Node000009" class="edge">
<title>Node7&#45;&gt;Node9</title>
<g id="a_edge8_Node000007_Node000009"><a xlink:title=" ">
<path fill="none" stroke="#63b8ff" d="M399.41,-287.98C370.06,-278.79 335.96,-268.11 311.41,-260.43"/>
<polygon fill="#63b8ff" stroke="#63b8ff" points="398.36,-291.32 408.95,-290.97 400.45,-284.64 398.36,-291.32"/>
</a>
</g>
</g>
<!-- Node10 -->
<g id="Node000010" class="node">
<title>Node10</title>
<g id="a_Node000010"><a xlink:href="classdepicture__menu_1_1applications_1_1view__factories_1_1config__view__arg__builder.html#ada8abae5fb46a758aa2b954eedfdd560" target="_top" xlink:title=" ">
<polygon fill="white" stroke="#666666" points="164.5,-414 0,-414 0,-370 164.5,-370 164.5,-414"/>
<text xml:space="preserve" text-anchor="start" x="8" y="-400.5" font-family="Helvetica,sans-Serif" font-size="10.00">depicture_menu::applications</text>
<text xml:space="preserve" text-anchor="start" x="8" y="-388.5" font-family="Helvetica,sans-Serif" font-size="10.00">::view_factories::config</text>
<text xml:space="preserve" text-anchor="middle" x="82.25" y="-376.5" font-family="Helvetica,sans-Serif" font-size="10.00">_view_arg_builder::build_publisher</text>
</a>
</g>
</g>
<!-- Node9&#45;&gt;Node10 -->
<g id="edge9_Node000009_Node000010" class="edge">
<title>Node9&#45;&gt;Node10</title>
<g id="a_edge9_Node000009_Node000010"><a xlink:title=" ">
<path fill="none" stroke="#63b8ff" d="M216,-265.19C210.37,-268.17 205.07,-271.74 200.5,-276 170.5,-303.98 194.03,-332.52 164.5,-361 161.24,-364.14 157.63,-366.98 153.79,-369.53"/>
<polygon fill="#63b8ff" stroke="#63b8ff" points="217.4,-268.4 225.03,-261.05 214.48,-262.03 217.4,-268.4"/>
</a>
</g>
</g>
<!-- Node11 -->
<g id="Node000011" class="node">
<title>Node11</title>
<g id="a_Node000011"><a xlink:href="structdepicture__menu_1_1cs__binding_1_1observer_1_1detail__observer_1_1cfg__observer.html#a25999e4fbcd258309e9a77f53a649d5e" target="_top" xlink:title=" ">
<polygon fill="white" stroke="#666666" points="135.25,-352 29.25,-352 29.25,-296 135.25,-296 135.25,-352"/>
<text xml:space="preserve" text-anchor="start" x="37.25" y="-338.5" font-family="Helvetica,sans-Serif" font-size="10.00">depicture_menu::cs</text>
<text xml:space="preserve" text-anchor="start" x="37.25" y="-326.5" font-family="Helvetica,sans-Serif" font-size="10.00">_binding::observer::</text>
<text xml:space="preserve" text-anchor="start" x="37.25" y="-314.5" font-family="Helvetica,sans-Serif" font-size="10.00">detail_observer::cfg</text>
<text xml:space="preserve" text-anchor="middle" x="82.25" y="-302.5" font-family="Helvetica,sans-Serif" font-size="10.00">_observer::operator()</text>
</a>
</g>
</g>
<!-- Node9&#45;&gt;Node11 -->
<g id="edge10_Node000009_Node000011" class="edge">
<title>Node9&#45;&gt;Node11</title>
<g id="a_edge10_Node000009_Node000011"><a xlink:title=" ">
<path fill="none" stroke="#63b8ff" d="M233.77,-264.08C222.89,-267.83 211.22,-271.97 200.5,-276 179.09,-284.06 155.72,-293.49 135.53,-301.85"/>
<polygon fill="#63b8ff" stroke="#63b8ff" points="234.57,-267.51 242.9,-260.97 232.31,-260.88 234.57,-267.51"/>
</a>
</g>
</g>
<!-- Node12 -->
<g id="Node000012" class="node">
<title>Node12</title>
<g id="a_Node000012"><a xlink:href="structdepicture__menu_1_1cs__binding_1_1observer_1_1detail__observer_1_1cfg__observer.html#af6ce1b77166781317738d49e1ce315c6" target="_top" xlink:title=" ">
<polygon fill="white" stroke="#666666" points="135.25,-278 29.25,-278 29.25,-222 135.25,-222 135.25,-278"/>
<text xml:space="preserve" text-anchor="start" x="37.25" y="-264.5" font-family="Helvetica,sans-Serif" font-size="10.00">depicture_menu::cs</text>
<text xml:space="preserve" text-anchor="start" x="37.25" y="-252.5" font-family="Helvetica,sans-Serif" font-size="10.00">_binding::observer::</text>
<text xml:space="preserve" text-anchor="start" x="37.25" y="-240.5" font-family="Helvetica,sans-Serif" font-size="10.00">detail_observer::cfg</text>
<text xml:space="preserve" text-anchor="middle" x="82.25" y="-228.5" font-family="Helvetica,sans-Serif" font-size="10.00">_observer::operator()</text>
</a>
</g>
</g>
<!-- Node9&#45;&gt;Node12 -->
<g id="edge11_Node000009_Node000012" class="edge">
<title>Node9&#45;&gt;Node12</title>
<g id="a_edge11_Node000009_Node000012"><a xlink:title=" ">
<path fill="none" stroke="#63b8ff" d="M208.09,-250C184.25,-250 157.87,-250 135.52,-250"/>
<polygon fill="#63b8ff" stroke="#63b8ff" points="208.05,-253.5 218.05,-250 208.05,-246.5 208.05,-253.5"/>
</a>
</g>
</g>
<!-- Node13 -->
<g id="Node000013" class="node">
<title>Node13</title>
<g id="a_Node000013"><a xlink:href="structdepicture__menu_1_1cs__binding_1_1observer_1_1detail__observer_1_1cfg__observer.html#a9ee87a59abe50cc9c3862ad2cef0c00c" target="_top" xlink:title=" ">
<polygon fill="white" stroke="#666666" points="135.25,-204 29.25,-204 29.25,-148 135.25,-148 135.25,-204"/>
<text xml:space="preserve" text-anchor="start" x="37.25" y="-190.5" font-family="Helvetica,sans-Serif" font-size="10.00">depicture_menu::cs</text>
<text xml:space="preserve" text-anchor="start" x="37.25" y="-178.5" font-family="Helvetica,sans-Serif" font-size="10.00">_binding::observer::</text>
<text xml:space="preserve" text-anchor="start" x="37.25" y="-166.5" font-family="Helvetica,sans-Serif" font-size="10.00">detail_observer::cfg</text>
<text xml:space="preserve" text-anchor="middle" x="82.25" y="-154.5" font-family="Helvetica,sans-Serif" font-size="10.00">_observer::operator()</text>
</a>
</g>
</g>
<!-- Node9&#45;&gt;Node13 -->
<g id="edge12_Node000009_Node000013" class="edge">
<title>Node9&#45;&gt;Node13</title>
<g id="a_edge12_Node000009_Node000013"><a xlink:title=" ">
<path fill="none" stroke="#63b8ff" d="M238.26,-235.47C208.89,-224.2 167.86,-208.46 135.38,-196"/>
<polygon fill="#63b8ff" stroke="#63b8ff" points="236.9,-238.7 247.49,-239.01 239.4,-232.16 236.9,-238.7"/>
</a>
</g>
</g>
<!-- Node14 -->
<g id="Node000014" class="node">
<title>Node14</title>
<g id="a_Node000014"><a xlink:href="structdepicture__menu_1_1cs__binding_1_1observer_1_1detail__observer_1_1cfg__observer.html#ad7fb546fa932134b201bd871e74a123e" target="_top" xlink:title=" ">
<polygon fill="white" stroke="#666666" points="135.25,-130 29.25,-130 29.25,-74 135.25,-74 135.25,-130"/>
<text xml:space="preserve" text-anchor="start" x="37.25" y="-116.5" font-family="Helvetica,sans-Serif" font-size="10.00">depicture_menu::cs</text>
<text xml:space="preserve" text-anchor="start" x="37.25" y="-104.5" font-family="Helvetica,sans-Serif" font-size="10.00">_binding::observer::</text>
<text xml:space="preserve" text-anchor="start" x="37.25" y="-92.5" font-family="Helvetica,sans-Serif" font-size="10.00">detail_observer::cfg</text>
<text xml:space="preserve" text-anchor="middle" x="82.25" y="-80.5" font-family="Helvetica,sans-Serif" font-size="10.00">_observer::operator()</text>
</a>
</g>
</g>
<!-- Node9&#45;&gt;Node14 -->
<g id="edge13_Node000009_Node000014" class="edge">
<title>Node9&#45;&gt;Node14</title>
<g id="a_edge13_Node000009_Node000014"><a xlink:title=" ">
<path fill="none" stroke="#63b8ff" d="M260.54,-230.74C240.38,-206.78 203.22,-165.78 164.5,-139 155.58,-132.83 145.46,-127.27 135.46,-122.44"/>
<polygon fill="#63b8ff" stroke="#63b8ff" points="257.83,-232.95 266.9,-238.42 263.22,-228.49 257.83,-232.95"/>
</a>
</g>
</g>
<!-- Node15 -->
<g id="Node000015" class="node">
<title>Node15</title>
<g id="a_Node000015"><a xlink:href="structdepicture__menu_1_1cs__binding_1_1observer_1_1detail__observer_1_1cfg__observer.html#a943ebef7618ecff0cc0eeab0267f766f" target="_top" xlink:title=" ">
<polygon fill="white" stroke="#666666" points="135.25,-56 29.25,-56 29.25,0 135.25,0 135.25,-56"/>
<text xml:space="preserve" text-anchor="start" x="37.25" y="-42.5" font-family="Helvetica,sans-Serif" font-size="10.00">depicture_menu::cs</text>
<text xml:space="preserve" text-anchor="start" x="37.25" y="-30.5" font-family="Helvetica,sans-Serif" font-size="10.00">_binding::observer::</text>
<text xml:space="preserve" text-anchor="start" x="37.25" y="-18.5" font-family="Helvetica,sans-Serif" font-size="10.00">detail_observer::cfg</text>
<text xml:space="preserve" text-anchor="middle" x="82.25" y="-6.5" font-family="Helvetica,sans-Serif" font-size="10.00">_observer::operator()</text>
</a>
</g>
</g>
<!-- Node9&#45;&gt;Node15 -->
<g id="edge14_Node000009_Node000015" class="edge">
<title>Node9&#45;&gt;Node15</title>
<g id="a_edge14_Node000009_Node000015"><a xlink:title=" ">
<path fill="none" stroke="#63b8ff" d="M268.4,-229.14C253.58,-191.68 217.83,-112.5 164.5,-65 156.05,-57.47 145.81,-51.23 135.49,-46.15"/>
<polygon fill="#63b8ff" stroke="#63b8ff" points="265.07,-230.25 271.93,-238.33 271.61,-227.74 265.07,-230.25"/>
</a>
</g>
</g>
</g>
</svg>

<g id="navigator" transform="translate(0 0)" fill="#404254">
  <rect fill="#f2f5e9" fill-opacity="0.5" stroke="#606060" stroke-width=".5" x="0" y="0" width="60" height="60"/>
  <use id="zoomplus" xlink:href="#zoomPlus" x="17" y="9" onmousedown="handleZoom(evt,'in')"/>
  <use id="zoomminus" xlink:href="#zoomMin" x="42" y="9" onmousedown="handleZoom(evt,'out')"/>
  <use id="reset" xlink:href="#resetDef" x="30" y="36" onmousedown="handleReset()"/>
   <use id="arrowup" xlink:href="#arrowUp" x="0" y="0" onmousedown="handlePan(0,-1)"/>
  <use id="arrowright" xlink:href="#arrowRight" x="0" y="0" onmousedown="handlePan(1,0)"/>
  <use id="arrowdown" xlink:href="#arrowDown" x="0" y="0" onmousedown="handlePan(0,1)"/>
  <use id="arrowleft" xlink:href="#arrowLeft" x="0" y="0" onmousedown="handlePan(-1,0)"/>
</g>
<svg viewBox="0 0 15 15" width="100%" height="30px" preserveAspectRatio="xMaxYMin meet">
 <g id="arrow_out" transform="scale(0.3 0.3)">
  <a xlink:href="namespacedepicture__menu_1_1applications_af2f3f1b3b5999de9758861d236b73323_icgraph_org.svg" target="_base">
   <rect id="button" ry="5" rx="5" y="6" x="6" height="38" width="38"
        fill="#f2f5e9" fill-opacity="0.5" stroke="#606060" stroke-width="1.0"/>
   <path id="arrow"
     d="M 11.500037,31.436501 C 11.940474,20.09759 22.043105,11.32322 32.158766,21.979434 L 37.068811,17.246167 C 37.068811,17.246167 37.088388,32 37.088388,32 L 22.160133,31.978069 C 22.160133,31.978069 26.997745,27.140456 26.997745,27.140456 C 18.528582,18.264221 13.291696,25.230495 11.500037,31.436501 z"
     style="fill:#404040;"/>
  </a>
 </g>
</svg>

<style type='text/css'>
<![CDATA[
[data-mouse-over-selected='false'] { opacity: 0.7; }
[data-mouse-over-selected='true']  { opacity: 1.0; }
]]>
</style>
<script type="application/ecmascript"><![CDATA[
document.addEventListener('DOMContentLoaded', (event) => {
  highlightEdges();
  highlightAdjacentNodes();
});
]]></script>
</svg>
