<?xml version="1.0" encoding="UTF-8" standalone="no"?>
<!DOCTYPE svg PUBLIC "-//W3C//DTD SVG 1.1//EN"
 "http://www.w3.org/Graphics/SVG/1.1/DTD/svg11.dtd">
<!-- Generated by graphviz version 14.1.2 (20260124.0452)
 -->
<!-- Title: depicture_menu::usecase::do_change_menu_config_impl Pages: 1 -->
<svg width="547pt" height="276pt"
 viewBox="0.00 0.00 547.00 276.00" xmlns="http://www.w3.org/2000/svg" xmlns:xlink="http://www.w3.org/1999/xlink">
<g id="graph0" class="graph" transform="scale(1 1) rotate(0) translate(4 272)">
<title>depicture_menu::usecase::do_change_menu_config_impl</title>
<!-- Node1 -->
<g id="Node000001" class="node">
<title>Node1</title>
<g id="a_Node000001"><a xlink:title=" ">
<polygon fill="#999999" stroke="#666666" points="153.25,-156 0,-156 0,-124 153.25,-124 153.25,-156"/>
<text xml:space="preserve" text-anchor="start" x="8" y="-142.5" font-family="Helvetica,sans-Serif" font-size="10.00">depicture_menu::usecase</text>
<text xml:space="preserve" text-anchor="middle" x="76.62" y="-130.5" font-family="Helvetica,sans-Serif" font-size="10.00">::do_change_menu_config_impl</text>
</a>
</g>
</g>
<!-- Node2 -->
<g id="Node000002" class="node">
<title>Node2</title>
<g id="a_Node000002"><a xlink:href="structupdate__result.html#a998fdbde9fe3fb176bb68e24c3ad2212" target="_top" xlink:title=" ">
<polygon fill="white" stroke="#666666" points="315.88,-268 219.62,-268 219.62,-236 315.88,-236 315.88,-268"/>
<text xml:space="preserve" text-anchor="start" x="227.62" y="-254.5" font-family="Helvetica,sans-Serif" font-size="10.00">update_result::add</text>
<text xml:space="preserve" text-anchor="middle" x="267.75" y="-242.5" font-family="Helvetica,sans-Serif" font-size="10.00">_update</text>
</a>
</g>
</g>
<!-- Node1&#45;&gt;Node2 -->
<g id="edge1_Node000001_Node000002" class="edge">
<title>Node1&#45;&gt;Node2</title>
<g id="a_edge1_Node000001_Node000002"><a xlink:title=" ">
<path fill="none" stroke="#63b8ff" d="M94.46,-156.24C115.23,-175.5 152.34,-207.45 189.25,-227 195.4,-230.26 202.05,-233.19 208.78,-235.79"/>
<polygon fill="#63b8ff" stroke="#63b8ff" points="207.34,-238.99 217.94,-239.11 209.73,-232.41 207.34,-238.99"/>
</a>
</g>
</g>
<!-- Node3 -->
<g id="Node000003" class="node">
<title>Node3</title>
<g id="a_Node000003"><a xlink:href="classdepicture__menu_1_1domain_1_1services_1_1current__config__access__service.html#a982a04e702fc1ea5a0acfb20e458289e" target="_top" xlink:title=" ">
<polygon fill="white" stroke="#666666" points="346.25,-218 189.25,-218 189.25,-174 346.25,-174 346.25,-218"/>
<text xml:space="preserve" text-anchor="start" x="197.25" y="-204.5" font-family="Helvetica,sans-Serif" font-size="10.00">depicture_menu::domain</text>
<text xml:space="preserve" text-anchor="start" x="197.25" y="-192.5" font-family="Helvetica,sans-Serif" font-size="10.00">::services::current_config</text>
<text xml:space="preserve" text-anchor="middle" x="267.75" y="-180.5" font-family="Helvetica,sans-Serif" font-size="10.00">_access_service::current_config</text>
</a>
</g>
</g>
<!-- Node1&#45;&gt;Node3 -->
<g id="edge2_Node000001_Node000003" class="edge">
<title>Node1&#45;&gt;Node3</title>
<g id="a_edge2_Node000001_Node000003"><a xlink:title=" ">
<path fill="none" stroke="#63b8ff" d="M133.35,-156.5C148.04,-160.85 164.25,-165.65 180.16,-170.36"/>
<polygon fill="#63b8ff" stroke="#63b8ff" points="179.07,-173.69 189.65,-173.17 181.06,-166.98 179.07,-173.69"/>
</a>
</g>
</g>
<!-- Node5 -->
<g id="Node000005" class="node">
<title>Node5</title>
<g id="a_Node000005"><a xlink:href="namespacedepicture__menu_1_1repositories.html#a245ba008949ea92721d80817fea6a2c8" target="_top" xlink:title=" ">
<polygon fill="white" stroke="#666666" points="338.38,-156 197.12,-156 197.12,-124 338.38,-124 338.38,-156"/>
<text xml:space="preserve" text-anchor="start" x="205.12" y="-142.5" font-family="Helvetica,sans-Serif" font-size="10.00">depicture_menu::repositories</text>
<text xml:space="preserve" text-anchor="middle" x="267.75" y="-130.5" font-family="Helvetica,sans-Serif" font-size="10.00">::do_transaction</text>
</a>
</g>
</g>
<!-- Node1&#45;&gt;Node5 -->
<g id="edge4_Node000001_Node000005" class="edge">
<title>Node1&#45;&gt;Node5</title>
<g id="a_edge4_Node000001_Node000005"><a xlink:title=" ">
<path fill="none" stroke="#63b8ff" d="M153.73,-140C164.21,-140 175,-140 185.57,-140"/>
<polygon fill="#63b8ff" stroke="#63b8ff" points="185.4,-143.5 195.4,-140 185.4,-136.5 185.4,-143.5"/>
</a>
</g>
</g>
<!-- Node6 -->
<g id="Node000006" class="node">
<title>Node6</title>
<g id="a_Node000006"><a xlink:href="classdepicture__menu_1_1singleton.html#ab3a8df96e817c8ccb1ab61434f90c416" target="_top" xlink:title=" ">
<polygon fill="white" stroke="#666666" points="332.75,-106 202.75,-106 202.75,-50 332.75,-50 332.75,-106"/>
<text xml:space="preserve" text-anchor="start" x="210.75" y="-92.5" font-family="Helvetica,sans-Serif" font-size="10.00">depicture_menu::singleton</text>
<text xml:space="preserve" text-anchor="start" x="210.75" y="-80.5" font-family="Helvetica,sans-Serif" font-size="10.00">&lt; detail_applications::</text>
<text xml:space="preserve" text-anchor="start" x="210.75" y="-68.5" font-family="Helvetica,sans-Serif" font-size="10.00">gui_dispatch_impl &gt;::get</text>
<text xml:space="preserve" text-anchor="middle" x="267.75" y="-56.5" font-family="Helvetica,sans-Serif" font-size="10.00">_instance</text>
</a>
</g>
</g>
<!-- Node1&#45;&gt;Node6 -->
<g id="edge5_Node000001_Node000006" class="edge">
<title>Node1&#45;&gt;Node6</title>
<g id="a_edge5_Node000001_Node000006"><a xlink:title=" ">
<path fill="none" stroke="#63b8ff" d="M127.81,-123.55C147.38,-117.13 170.22,-109.65 191.67,-102.61"/>
<polygon fill="#63b8ff" stroke="#63b8ff" points="192.54,-106.01 200.96,-99.57 190.36,-99.36 192.54,-106.01"/>
</a>
</g>
</g>
<!-- Node7 -->
<g id="Node000007" class="node">
<title>Node7</title>
<g id="a_Node000007"><a xlink:href="namespacedepicture__menu_1_1util_1_1ranges.html#ad6b0437e683382b7b816bcd9c4d7f08b" target="_top" xlink:title=" ">
<polygon fill="white" stroke="#666666" points="324.12,-32 211.38,-32 211.38,0 324.12,0 324.12,-32"/>
<text xml:space="preserve" text-anchor="start" x="219.38" y="-18.5" font-family="Helvetica,sans-Serif" font-size="10.00">depicture_menu::util</text>
<text xml:space="preserve" text-anchor="middle" x="267.75" y="-6.5" font-family="Helvetica,sans-Serif" font-size="10.00">::ranges::sync_ranges</text>
</a>
</g>
</g>
<!-- Node1&#45;&gt;Node7 -->
<g id="edge6_Node000001_Node000007" class="edge">
<title>Node1&#45;&gt;Node7</title>
<g id="a_edge6_Node000001_Node000007"><a xlink:title=" ">
<path fill="none" stroke="#63b8ff" d="M91.92,-123.66C111.75,-101.92 149.66,-63.6 189.25,-41 192.84,-38.95 196.62,-37.05 200.49,-35.28"/>
<polygon fill="#63b8ff" stroke="#63b8ff" points="201.66,-38.58 209.54,-31.49 198.96,-32.12 201.66,-38.58"/>
</a>
</g>
</g>
<!-- Node4 -->
<g id="Node000004" class="node">
<title>Node4</title>
<g id="a_Node000004"><a xlink:href="classdepicture__menu_1_1domain_1_1crud__repository__interface.html#ac170ece1adbf7138a6322bba5beea167" target="_top" xlink:title=" ">
<polygon fill="white" stroke="#666666" points="538.5,-212 382.25,-212 382.25,-180 538.5,-180 538.5,-212"/>
<text xml:space="preserve" text-anchor="start" x="390.25" y="-198.5" font-family="Helvetica,sans-Serif" font-size="10.00">depicture_menu::domain</text>
<text xml:space="preserve" text-anchor="middle" x="460.38" y="-186.5" font-family="Helvetica,sans-Serif" font-size="10.00">::crud_repository_interface::read</text>
</a>
</g>
</g>
<!-- Node3&#45;&gt;Node4 -->
<g id="edge3_Node000003_Node000004" class="edge">
<title>Node3&#45;&gt;Node4</title>
<g id="a_edge3_Node000003_Node000004"><a xlink:title=" ">
<path fill="none" stroke="#63b8ff" d="M346.56,-196C354.47,-196 362.54,-196 370.55,-196"/>
<polygon fill="#63b8ff" stroke="#63b8ff" points="370.3,-199.5 380.3,-196 370.3,-192.5 370.3,-199.5"/>
</a>
</g>
</g>
</g>
</svg>
