<?xml version="1.0" encoding="UTF-8" standalone="no"?>
<!DOCTYPE svg PUBLIC "-//W3C//DTD SVG 1.1//EN"
 "http://www.w3.org/Graphics/SVG/1.1/DTD/svg11.dtd">
<!-- Generated by graphviz version 14.1.2 (20260124.0452)
 -->
<!-- Title: depicture_menu::cs_binding::apply_radialmenu Pages: 1 -->
<svg width="794pt" height="232pt"
 viewBox="0.00 0.00 794.00 232.00" xmlns="http://www.w3.org/2000/svg" xmlns:xlink="http://www.w3.org/1999/xlink">
<g id="graph0" class="graph" transform="scale(1 1) rotate(0) translate(4 228)">
<title>depicture_menu::cs_binding::apply_radialmenu</title>
<!-- Node1 -->
<g id="Node000001" class="node">
<title>Node1</title>
<g id="a_Node000001"><a xlink:title=" ">
<polygon fill="#999999" stroke="#666666" points="133.75,-143 0,-143 0,-111 133.75,-111 133.75,-143"/>
<text xml:space="preserve" text-anchor="start" x="8" y="-129.5" font-family="Helvetica,sans-Serif" font-size="10.00">depicture_menu::cs</text>
<text xml:space="preserve" text-anchor="middle" x="66.88" y="-117.5" font-family="Helvetica,sans-Serif" font-size="10.00">_binding::apply_radialmenu</text>
</a>
</g>
</g>
<!-- Node2 -->
<g id="Node000002" class="node">
<title>Node2</title>
<g id="a_Node000002"><a xlink:href="namespacedepicture__menu_1_1cs__binding.html#ae572bad0d69db1d1c8b9e1934514c6d9" target="_top" xlink:title=" ">
<polygon fill="white" stroke="#666666" points="304.25,-143 169.75,-143 169.75,-111 304.25,-111 304.25,-143"/>
<text xml:space="preserve" text-anchor="start" x="177.75" y="-129.5" font-family="Helvetica,sans-Serif" font-size="10.00">depicture_menu::cs</text>
<text xml:space="preserve" text-anchor="middle" x="237" y="-117.5" font-family="Helvetica,sans-Serif" font-size="10.00">_binding::apply_menu_item</text>
</a>
</g>
</g>
<!-- Node1&#45;&gt;Node2 -->
<g id="edge1_Node000001_Node000002" class="edge">
<title>Node1&#45;&gt;Node2</title>
<g id="a_edge1_Node000001_Node000002"><a xlink:title=" ">
<path fill="none" stroke="#63b8ff" d="M133.84,-127C141.78,-127 149.95,-127 158.04,-127"/>
<polygon fill="#63b8ff" stroke="#63b8ff" points="157.88,-130.5 167.88,-127 157.88,-123.5 157.88,-130.5"/>
</a>
</g>
</g>
<!-- Node3 -->
<g id="Node000003" class="node">
<title>Node3</title>
<g id="a_Node000003"><a xlink:href="structdepicture__menu_1_1domain_1_1menu_1_1radialmenu__item.html#a8eba68344da6fb2bce085404df9ff831" target="_top" xlink:title=" ">
<polygon fill="white" stroke="#666666" points="463.5,-224 340.25,-224 340.25,-180 463.5,-180 463.5,-224"/>
<text xml:space="preserve" text-anchor="start" x="348.25" y="-210.5" font-family="Helvetica,sans-Serif" font-size="10.00">depicture_menu::domain</text>
<text xml:space="preserve" text-anchor="start" x="348.25" y="-198.5" font-family="Helvetica,sans-Serif" font-size="10.00">::menu::radialmenu_item</text>
<text xml:space="preserve" text-anchor="middle" x="401.88" y="-186.5" font-family="Helvetica,sans-Serif" font-size="10.00">::background</text>
</a>
</g>
</g>
<!-- Node2&#45;&gt;Node3 -->
<g id="edge2_Node000002_Node000003" class="edge">
<title>Node2&#45;&gt;Node3</title>
<g id="a_edge2_Node000002_Node000003"><a xlink:title=" ">
<path fill="none" stroke="#63b8ff" d="M273.74,-143.46C293.72,-152.66 319.12,-164.35 341.96,-174.87"/>
<polygon fill="#63b8ff" stroke="#63b8ff" points="340.32,-177.97 350.87,-178.97 343.25,-171.61 340.32,-177.97"/>
</a>
</g>
</g>
<!-- Node4 -->
<g id="Node000004" class="node">
<title>Node4</title>
<g id="a_Node000004"><a xlink:href="structdepicture__menu_1_1domain_1_1menu_1_1radialmenu__item.html#aadf2f8ebe06021b018c6c67e3dfa3682" target="_top" xlink:title=" ">
<polygon fill="white" stroke="#666666" points="463.5,-124 340.25,-124 340.25,-80 463.5,-80 463.5,-124"/>
<text xml:space="preserve" text-anchor="start" x="348.25" y="-110.5" font-family="Helvetica,sans-Serif" font-size="10.00">depicture_menu::domain</text>
<text xml:space="preserve" text-anchor="start" x="348.25" y="-98.5" font-family="Helvetica,sans-Serif" font-size="10.00">::menu::radialmenu_item</text>
<text xml:space="preserve" text-anchor="middle" x="401.88" y="-86.5" font-family="Helvetica,sans-Serif" font-size="10.00">::current_action_kind</text>
</a>
</g>
</g>
<!-- Node2&#45;&gt;Node4 -->
<g id="edge3_Node000002_Node000004" class="edge">
<title>Node2&#45;&gt;Node4</title>
<g id="a_edge3_Node000002_Node000004"><a xlink:title=" ">
<path fill="none" stroke="#63b8ff" d="M304.72,-116.76C312.6,-115.55 320.67,-114.31 328.63,-113.09"/>
<polygon fill="#63b8ff" stroke="#63b8ff" points="328.91,-116.59 338.26,-111.61 327.85,-109.67 328.91,-116.59"/>
</a>
</g>
</g>
<!-- Node5 -->
<g id="Node000005" class="node">
<title>Node5</title>
<g id="a_Node000005"><a xlink:href="structdepicture__menu_1_1domain_1_1menu_1_1radialmenu__item.html#a181422df8a043da811ce10d6d72f9d13" target="_top" xlink:title=" ">
<polygon fill="white" stroke="#666666" points="624.62,-180 501.38,-180 501.38,-136 624.62,-136 624.62,-180"/>
<text xml:space="preserve" text-anchor="start" x="509.38" y="-166.5" font-family="Helvetica,sans-Serif" font-size="10.00">depicture_menu::domain</text>
<text xml:space="preserve" text-anchor="start" x="509.38" y="-154.5" font-family="Helvetica,sans-Serif" font-size="10.00">::menu::radialmenu_item</text>
<text xml:space="preserve" text-anchor="middle" x="563" y="-142.5" font-family="Helvetica,sans-Serif" font-size="10.00">::get_action_id</text>
</a>
</g>
</g>
<!-- Node2&#45;&gt;Node5 -->
<g id="edge11_Node000002_Node000005" class="edge">
<title>Node2&#45;&gt;Node5</title>
<g id="a_edge11_Node000002_Node000005"><a xlink:title=" ">
<path fill="none" stroke="#63b8ff" d="M304.74,-133.39C358.73,-138.55 434.6,-145.81 489.96,-151.11"/>
<polygon fill="#63b8ff" stroke="#63b8ff" points="489.3,-154.56 499.59,-152.03 489.96,-147.59 489.3,-154.56"/>
</a>
</g>
</g>
<!-- Node10 -->
<g id="Node000010" class="node">
<title>Node10</title>
<g id="a_Node000010"><a xlink:href="structdepicture__menu_1_1domain_1_1menu_1_1radialmenu__item.html#a4345d8dc99a845f0a3bc8c9210f01e42" target="_top" xlink:title=" ">
<polygon fill="white" stroke="#666666" points="463.5,-62 340.25,-62 340.25,-18 463.5,-18 463.5,-62"/>
<text xml:space="preserve" text-anchor="start" x="348.25" y="-48.5" font-family="Helvetica,sans-Serif" font-size="10.00">depicture_menu::domain</text>
<text xml:space="preserve" text-anchor="start" x="348.25" y="-36.5" font-family="Helvetica,sans-Serif" font-size="10.00">::menu::radialmenu_item</text>
<text xml:space="preserve" text-anchor="middle" x="401.88" y="-24.5" font-family="Helvetica,sans-Serif" font-size="10.00">::label</text>
</a>
</g>
</g>
<!-- Node2&#45;&gt;Node10 -->
<g id="edge12_Node000002_Node000010" class="edge">
<title>Node2&#45;&gt;Node10</title>
<g id="a_edge12_Node000002_Node000010"><a xlink:title=" ">
<path fill="none" stroke="#63b8ff" d="M267.41,-110.6C287.78,-99.32 315.56,-84.07 340.25,-71 342.33,-69.9 344.46,-68.78 346.6,-67.65"/>
<polygon fill="#63b8ff" stroke="#63b8ff" points="348.16,-70.79 355.42,-63.07 344.93,-64.58 348.16,-70.79"/>
</a>
</g>
</g>
<!-- Node4&#45;&gt;Node5 -->
<g id="edge4_Node000004_Node000005" class="edge">
<title>Node4&#45;&gt;Node5</title>
<g id="a_edge4_Node000004_Node000005"><a xlink:title=" ">
<path fill="none" stroke="#63b8ff" d="M463.94,-123.49C472.6,-126.54 481.57,-129.7 490.41,-132.81"/>
<polygon fill="#63b8ff" stroke="#63b8ff" points="489.07,-136.05 499.67,-136.06 491.4,-129.44 489.07,-136.05"/>
</a>
</g>
</g>
<!-- Node7 -->
<g id="Node000007" class="node">
<title>Node7</title>
<g id="a_Node000007"><a xlink:href="structdepicture__menu_1_1domain_1_1models_1_1entity__id__base.html#aba7d6d01fb13b02fdf7a089b02e6c0b2" target="_top" xlink:title=" ">
<polygon fill="white" stroke="#666666" points="626.5,-56 499.5,-56 499.5,0 626.5,0 626.5,-56"/>
<text xml:space="preserve" text-anchor="start" x="507.5" y="-42.5" font-family="Helvetica,sans-Serif" font-size="10.00">depicture_menu::domain</text>
<text xml:space="preserve" text-anchor="start" x="507.5" y="-30.5" font-family="Helvetica,sans-Serif" font-size="10.00">::models::entity_id_base</text>
<text xml:space="preserve" text-anchor="start" x="507.5" y="-18.5" font-family="Helvetica,sans-Serif" font-size="10.00">&lt; action_publisher_id_tag</text>
<text xml:space="preserve" text-anchor="middle" x="563" y="-6.5" font-family="Helvetica,sans-Serif" font-size="10.00"> &gt;::random_id</text>
</a>
</g>
</g>
<!-- Node4&#45;&gt;Node7 -->
<g id="edge6_Node000004_Node000007" class="edge">
<title>Node4&#45;&gt;Node7</title>
<g id="a_edge6_Node000004_Node000007"><a xlink:title=" ">
<path fill="none" stroke="#63b8ff" d="M451.05,-79.6C463.51,-73.8 477.2,-67.43 490.58,-61.21"/>
<polygon fill="#63b8ff" stroke="#63b8ff" points="491.76,-64.52 499.35,-57.13 488.81,-58.18 491.76,-64.52"/>
</a>
</g>
</g>
<!-- Node9 -->
<g id="Node000009" class="node">
<title>Node9</title>
<g id="a_Node000009"><a xlink:href="structdepicture__menu_1_1domain_1_1menu_1_1radialmenu__item.html#a8c4c4fb516ddc27ca04ae1f8babe76f3" target="_top" xlink:title=" ">
<polygon fill="white" stroke="#666666" points="624.62,-118 501.38,-118 501.38,-74 624.62,-74 624.62,-118"/>
<text xml:space="preserve" text-anchor="start" x="509.38" y="-104.5" font-family="Helvetica,sans-Serif" font-size="10.00">depicture_menu::domain</text>
<text xml:space="preserve" text-anchor="start" x="509.38" y="-92.5" font-family="Helvetica,sans-Serif" font-size="10.00">::menu::radialmenu_item</text>
<text xml:space="preserve" text-anchor="middle" x="563" y="-80.5" font-family="Helvetica,sans-Serif" font-size="10.00">::set_action_id</text>
</a>
</g>
</g>
<!-- Node4&#45;&gt;Node9 -->
<g id="edge9_Node000004_Node000009" class="edge">
<title>Node4&#45;&gt;Node9</title>
<g id="a_edge9_Node000004_Node000009"><a xlink:title=" ">
<path fill="none" stroke="#63b8ff" d="M463.94,-99.7C472.41,-99.38 481.18,-99.05 489.83,-98.72"/>
<polygon fill="#63b8ff" stroke="#63b8ff" points="489.72,-102.23 499.58,-98.35 489.46,-95.23 489.72,-102.23"/>
</a>
</g>
</g>
<!-- Node6 -->
<g id="Node000006" class="node">
<title>Node6</title>
<g id="a_Node000006"><a xlink:href="structdepicture__menu_1_1domain_1_1menu_1_1radialmenu__item.html#adee607b452fafcf8b6aa3ce5471f87a4" target="_top" xlink:title=" ">
<polygon fill="white" stroke="#666666" points="785.75,-149 662.5,-149 662.5,-105 785.75,-105 785.75,-149"/>
<text xml:space="preserve" text-anchor="start" x="670.5" y="-135.5" font-family="Helvetica,sans-Serif" font-size="10.00">depicture_menu::domain</text>
<text xml:space="preserve" text-anchor="start" x="670.5" y="-123.5" font-family="Helvetica,sans-Serif" font-size="10.00">::menu::radialmenu_item</text>
<text xml:space="preserve" text-anchor="middle" x="724.12" y="-111.5" font-family="Helvetica,sans-Serif" font-size="10.00">::com_kind_to_index</text>
</a>
</g>
</g>
<!-- Node5&#45;&gt;Node6 -->
<g id="edge5_Node000005_Node000006" class="edge">
<title>Node5&#45;&gt;Node6</title>
<g id="a_edge5_Node000005_Node000006"><a xlink:title=" ">
<path fill="none" stroke="#63b8ff" d="M625.07,-146.1C633.54,-144.45 642.3,-142.75 650.95,-141.06"/>
<polygon fill="#63b8ff" stroke="#63b8ff" points="651.59,-144.5 660.74,-139.15 650.25,-137.63 651.59,-144.5"/>
</a>
</g>
</g>
<!-- Node8 -->
<g id="Node000008" class="node">
<title>Node8</title>
<g id="a_Node000008"><a xlink:href="structdepicture__menu_1_1domain_1_1models_1_1entity__id__base.html#a504cba7877c98dbe44f55e0b1379a717" target="_top" xlink:title=" ">
<polygon fill="white" stroke="#666666" points="785.38,-50 662.88,-50 662.88,-6 785.38,-6 785.38,-50"/>
<text xml:space="preserve" text-anchor="start" x="670.88" y="-36.5" font-family="Helvetica,sans-Serif" font-size="10.00">depicture_menu::domain</text>
<text xml:space="preserve" text-anchor="start" x="670.88" y="-24.5" font-family="Helvetica,sans-Serif" font-size="10.00">::models::entity_id_base</text>
<text xml:space="preserve" text-anchor="middle" x="724.12" y="-12.5" font-family="Helvetica,sans-Serif" font-size="10.00">::entity_id_base</text>
</a>
</g>
</g>
<!-- Node7&#45;&gt;Node8 -->
<g id="edge7_Node000007_Node000008" class="edge">
<title>Node7&#45;&gt;Node8</title>
<g id="a_edge7_Node000007_Node000008"><a xlink:title=" ">
<path fill="none" stroke="#63b8ff" d="M626.89,-21.38C634.86,-21.25 643.07,-21.22 651.17,-21.28"/>
<polygon fill="#63b8ff" stroke="#63b8ff" points="650.95,-24.77 661,-21.4 651.04,-17.78 650.95,-24.77"/>
</a>
</g>
</g>
<!-- Node7&#45;&gt;Node8 -->
<g id="edge8_Node000007_Node000008" class="edge">
<title>Node7&#45;&gt;Node8</title>
<g id="a_edge8_Node000007_Node000008"><a xlink:title=" ">
<path fill="none" stroke="#63b8ff" d="M626.89,-34.62C634.86,-34.75 643.07,-34.78 651.17,-34.72"/>
<polygon fill="#63b8ff" stroke="#63b8ff" points="651.04,-38.22 661,-34.6 650.95,-31.23 651.04,-38.22"/>
</a>
</g>
</g>
<!-- Node9&#45;&gt;Node6 -->
<g id="edge10_Node000009_Node000006" class="edge">
<title>Node9&#45;&gt;Node6</title>
<g id="a_edge10_Node000009_Node000006"><a xlink:title=" ">
<path fill="none" stroke="#63b8ff" d="M625.07,-107.9C633.54,-109.55 642.3,-111.25 650.95,-112.94"/>
<polygon fill="#63b8ff" stroke="#63b8ff" points="650.25,-116.37 660.74,-114.85 651.59,-109.5 650.25,-116.37"/>
</a>
</g>
</g>
</g>
</svg>
