<?xml version="1.0" encoding="UTF-8" standalone="no"?>
<!DOCTYPE svg PUBLIC "-//W3C//DTD SVG 1.1//EN"
 "http://www.w3.org/Graphics/SVG/1.1/DTD/svg11.dtd">
<!-- Generated by graphviz version 14.1.2 (20260124.0452)
 -->
<!-- Title: depicture_menu::usecase::detail_usecase::show_default_menu_view_impl Pages: 1 -->
<svg width="495pt" height="90pt"
 viewBox="0.00 0.00 495.00 90.00" xmlns="http://www.w3.org/2000/svg" xmlns:xlink="http://www.w3.org/1999/xlink">
<g id="graph0" class="graph" transform="scale(1 1) rotate(0) translate(4 86)">
<title>depicture_menu::usecase::detail_usecase::show_default_menu_view_impl</title>
<!-- Node1 -->
<g id="Node000001" class="node">
<title>Node1</title>
<g id="a_Node000001"><a xlink:title=" ">
<polygon fill="#999999" stroke="#666666" points="128.5,-69 0,-69 0,-25 128.5,-25 128.5,-69"/>
<text xml:space="preserve" text-anchor="start" x="8" y="-55.5" font-family="Helvetica,sans-Serif" font-size="10.00">depicture_menu::usecase</text>
<text xml:space="preserve" text-anchor="start" x="8" y="-43.5" font-family="Helvetica,sans-Serif" font-size="10.00">::detail_usecase::show</text>
<text xml:space="preserve" text-anchor="middle" x="64.25" y="-31.5" font-family="Helvetica,sans-Serif" font-size="10.00">_default_menu_view_impl</text>
</a>
</g>
</g>
<!-- Node2 -->
<g id="Node000002" class="node">
<title>Node2</title>
<g id="a_Node000002"><a xlink:href="namespaceimpl.html#acd2e53047ed61a2ec83aaa41949d06c3" target="_top" xlink:title=" ">
<polygon fill="white" stroke="#666666" points="294.5,-76 164.5,-76 164.5,-56 294.5,-56 294.5,-76"/>
<text xml:space="preserve" text-anchor="middle" x="229.5" y="-62.5" font-family="Helvetica,sans-Serif" font-size="10.00">impl::get_default_menu_id</text>
</a>
</g>
</g>
<!-- Node1&#45;&gt;Node2 -->
<g id="edge1_Node000001_Node000002" class="edge">
<title>Node1&#45;&gt;Node2</title>
<g id="a_edge1_Node000001_Node000002"><a xlink:title=" ">
<path fill="none" stroke="#63b8ff" d="M128.83,-54.4C136.68,-55.31 144.77,-56.25 152.78,-57.19"/>
<polygon fill="#63b8ff" stroke="#63b8ff" points="152.17,-60.64 162.51,-58.32 152.98,-53.69 152.17,-60.64"/>
</a>
</g>
</g>
<!-- Node4 -->
<g id="Node000004" class="node">
<title>Node4</title>
<g id="a_Node000004"><a xlink:href="namespaceimpl.html#a10dc9eb9f8beea4d404cf047bc3b7848" target="_top" xlink:title=" ">
<polygon fill="white" stroke="#666666" points="270.88,-38 188.12,-38 188.12,-18 270.88,-18 270.88,-38"/>
<text xml:space="preserve" text-anchor="middle" x="229.5" y="-24.5" font-family="Helvetica,sans-Serif" font-size="10.00">impl::get_menu</text>
</a>
</g>
</g>
<!-- Node1&#45;&gt;Node4 -->
<g id="edge3_Node000001_Node000004" class="edge">
<title>Node1&#45;&gt;Node4</title>
<g id="a_edge3_Node000001_Node000004"><a xlink:title=" ">
<path fill="none" stroke="#63b8ff" d="M128.83,-39.6C144.67,-37.76 161.46,-35.8 176.66,-34.03"/>
<polygon fill="#63b8ff" stroke="#63b8ff" points="176.89,-37.53 186.42,-32.9 176.09,-30.58 176.89,-37.53"/>
</a>
</g>
</g>
<!-- Node3 -->
<g id="Node000003" class="node">
<title>Node3</title>
<g id="a_Node000003"><a xlink:href="classdepicture__menu_1_1domain_1_1crud__repository__interface.html#ac170ece1adbf7138a6322bba5beea167" target="_top" xlink:title=" ">
<polygon fill="white" stroke="#666666" points="486.75,-82 330.5,-82 330.5,-50 486.75,-50 486.75,-82"/>
<text xml:space="preserve" text-anchor="start" x="338.5" y="-68.5" font-family="Helvetica,sans-Serif" font-size="10.00">depicture_menu::domain</text>
<text xml:space="preserve" text-anchor="middle" x="408.62" y="-56.5" font-family="Helvetica,sans-Serif" font-size="10.00">::crud_repository_interface::read</text>
</a>
</g>
</g>
<!-- Node2&#45;&gt;Node3 -->
<g id="edge2_Node000002_Node000003" class="edge">
<title>Node2&#45;&gt;Node3</title>
<g id="a_edge2_Node000002_Node000003"><a xlink:title=" ">
<path fill="none" stroke="#63b8ff" d="M294.95,-66C302.75,-66 310.81,-66 318.89,-66"/>
<polygon fill="#63b8ff" stroke="#63b8ff" points="318.76,-69.5 328.76,-66 318.76,-62.5 318.76,-69.5"/>
</a>
</g>
</g>
<!-- Node4&#45;&gt;Node3 -->
<g id="edge5_Node000004_Node000003" class="edge">
<title>Node4&#45;&gt;Node3</title>
<g id="a_edge5_Node000004_Node000003"><a xlink:title=" ">
<path fill="none" stroke="#63b8ff" d="M271.14,-36.72C285.71,-39.85 302.77,-43.51 319.79,-47.16"/>
<polygon fill="#63b8ff" stroke="#63b8ff" points="318.96,-50.56 329.47,-49.23 320.42,-43.71 318.96,-50.56"/>
</a>
</g>
</g>
<!-- Node5 -->
<g id="Node000005" class="node">
<title>Node5</title>
<g id="a_Node000005"><a xlink:href="namespacedepicture__menu_1_1applications.html#a31479f9c9955111c56b19fff54471a60" target="_top" xlink:title=" ">
<polygon fill="white" stroke="#666666" points="480,-32 337.25,-32 337.25,0 480,0 480,-32"/>
<text xml:space="preserve" text-anchor="start" x="345.25" y="-18.5" font-family="Helvetica,sans-Serif" font-size="10.00">depicture_menu::applications</text>
<text xml:space="preserve" text-anchor="middle" x="408.62" y="-6.5" font-family="Helvetica,sans-Serif" font-size="10.00">::get_mouse_cursor_position</text>
</a>
</g>
</g>
<!-- Node4&#45;&gt;Node5 -->
<g id="edge4_Node000004_Node000005" class="edge">
<title>Node4&#45;&gt;Node5</title>
<g id="a_edge4_Node000004_Node000005"><a xlink:title=" ">
<path fill="none" stroke="#63b8ff" d="M271.14,-25.25C287.37,-24.15 306.67,-22.84 325.58,-21.56"/>
<polygon fill="#63b8ff" stroke="#63b8ff" points="325.7,-25.06 335.44,-20.89 325.23,-18.07 325.7,-25.06"/>
</a>
</g>
</g>
</g>
</svg>
