<?xml version="1.0" encoding="UTF-8" standalone="no"?>
<!DOCTYPE svg PUBLIC "-//W3C//DTD SVG 1.1//EN"
 "http://www.w3.org/Graphics/SVG/1.1/DTD/svg11.dtd">
<!-- Generated by graphviz version 14.1.2 (20260124.0452)
 -->
<!-- Title: depicture_menu::repositories::do_transaction Pages: 1 -->
<svg width="707pt" height="892pt"
 viewBox="0.00 0.00 707.00 892.00" xmlns="http://www.w3.org/2000/svg" xmlns:xlink="http://www.w3.org/1999/xlink">
<g id="graph0" class="graph" transform="scale(1 1) rotate(0) translate(4 888)">
<title>depicture_menu::repositories::do_transaction</title>
<!-- Node1 -->
<g id="Node000001" class="node">
<title>Node1</title>
<g id="a_Node000001"><a xlink:title=" ">
<polygon fill="#999999" stroke="#666666" points="698.5,-524 557.25,-524 557.25,-492 698.5,-492 698.5,-524"/>
<text xml:space="preserve" text-anchor="start" x="565.25" y="-510.5" font-family="Helvetica,sans-Serif" font-size="10.00">depicture_menu::repositories</text>
<text xml:space="preserve" text-anchor="middle" x="627.88" y="-498.5" font-family="Helvetica,sans-Serif" font-size="10.00">::do_transaction</text>
</a>
</g>
</g>
<!-- Node2 -->
<g id="Node000002" class="node">
<title>Node2</title>
<g id="a_Node000002"><a xlink:href="namespacedepicture__menu_1_1usecase_1_1detail__usecase__add__new__menu.html#adcccdacee0183f07572ac2dd2543bc88" target="_top" xlink:title=" ">
<polygon fill="white" stroke="#666666" points="496.88,-884 354.12,-884 354.12,-840 496.88,-840 496.88,-884"/>
<text xml:space="preserve" text-anchor="start" x="362.12" y="-870.5" font-family="Helvetica,sans-Serif" font-size="10.00">depicture_menu::usecase</text>
<text xml:space="preserve" text-anchor="start" x="362.12" y="-858.5" font-family="Helvetica,sans-Serif" font-size="10.00">::detail_usecase_add_new</text>
<text xml:space="preserve" text-anchor="middle" x="425.5" y="-846.5" font-family="Helvetica,sans-Serif" font-size="10.00">_menu::add_new_menu_impl</text>
</a>
</g>
</g>
<!-- Node1&#45;&gt;Node2 -->
<g id="edge1_Node000001_Node000002" class="edge">
<title>Node1&#45;&gt;Node2</title>
<g id="a_edge1_Node000001_Node000002"><a xlink:title=" ">
<path fill="none" stroke="#63b8ff" d="M625.89,-535.87C622.17,-597.74 604.57,-747.67 521.25,-831 514.4,-837.85 506.01,-843.19 497.08,-847.35"/>
<polygon fill="#63b8ff" stroke="#63b8ff" points="629.38,-536.06 626.39,-525.9 622.39,-535.71 629.38,-536.06"/>
</a>
</g>
</g>
<!-- Node4 -->
<g id="Node000004" class="node">
<title>Node4</title>
<g id="a_Node000004"><a xlink:href="_test_transaction_8cpp.html#a0b1121f17874a0e8c1191dc30c973ca2" target="_top" xlink:title="&#45;&#45;&#45;&#45;&#45;&#45;&#45;&#45;&#45;&#45;&#45;&#45;&#45;&#45;&#45;&#45;&#45;&#45;&#45;&#45;&#45;&#45;&#45;&#45;&#45;&#45;&#45;&#45;&#45;&#45;&#45;&#45;&#45;&#45;&#45;&#45;&#45;&#45;&#45;&#45;&#45;&#45;&#45;&#45;&#45;&#45;&#45;&#45;&#45;&#45;&#45;&#45;&#45;&#45;&#45;&#45;&#45;&#45;&#45;&#45;&#45;&#45;&#45;&#45;&#45;&#45;&#45;—//">
<polygon fill="white" stroke="#666666" points="499.12,-822 351.88,-822 351.88,-802 499.12,-802 499.12,-822"/>
<text xml:space="preserve" text-anchor="middle" x="425.5" y="-808.5" font-family="Helvetica,sans-Serif" font-size="10.00">BOOST_AUTO_TEST_CASE</text>
</a>
</g>
</g>
<!-- Node1&#45;&gt;Node4 -->
<g id="edge3_Node000001_Node000004" class="edge">
<title>Node1&#45;&gt;Node4</title>
<g id="a_edge3_Node000001_Node000004"><a xlink:title=" ">
<path fill="none" stroke="#63b8ff" d="M625.23,-535.64C620.24,-593.05 600.31,-725.47 521.25,-793 514.87,-798.45 507.37,-802.49 499.43,-805.47"/>
<polygon fill="#63b8ff" stroke="#63b8ff" points="628.71,-536.02 625.99,-525.78 621.73,-535.48 628.71,-536.02"/>
</a>
</g>
</g>
<!-- Node5 -->
<g id="Node000005" class="node">
<title>Node5</title>
<g id="a_Node000005"><a xlink:href="_test_transaction_8cpp.html#afc825aa3bcc05d07747d245874460962" target="_top" xlink:title=" ">
<polygon fill="white" stroke="#666666" points="499.12,-784 351.88,-784 351.88,-764 499.12,-764 499.12,-784"/>
<text xml:space="preserve" text-anchor="middle" x="425.5" y="-770.5" font-family="Helvetica,sans-Serif" font-size="10.00">BOOST_AUTO_TEST_CASE</text>
</a>
</g>
</g>
<!-- Node1&#45;&gt;Node5 -->
<g id="edge4_Node000001_Node000005" class="edge">
<title>Node1&#45;&gt;Node5</title>
<g id="a_edge4_Node000001_Node000005"><a xlink:title=" ">
<path fill="none" stroke="#63b8ff" d="M623.47,-535.55C615.56,-587.18 590.95,-698.37 521.25,-755 514.74,-760.29 507.16,-764.24 499.17,-767.17"/>
<polygon fill="#63b8ff" stroke="#63b8ff" points="626.91,-536.23 624.85,-525.84 619.98,-535.25 626.91,-536.23"/>
</a>
</g>
</g>
<!-- Node6 -->
<g id="Node000006" class="node">
<title>Node6</title>
<g id="a_Node000006"><a xlink:href="_test_transaction_8cpp.html#adecf032ad796ffa8f0699ce869e35891" target="_top" xlink:title="erase_entity : TestCase">
<polygon fill="white" stroke="#666666" points="499.12,-746 351.88,-746 351.88,-726 499.12,-726 499.12,-746"/>
<text xml:space="preserve" text-anchor="middle" x="425.5" y="-732.5" font-family="Helvetica,sans-Serif" font-size="10.00">BOOST_AUTO_TEST_CASE</text>
</a>
</g>
</g>
<!-- Node1&#45;&gt;Node6 -->
<g id="edge5_Node000001_Node000006" class="edge">
<title>Node1&#45;&gt;Node6</title>
<g id="a_edge5_Node000001_Node000006"><a xlink:title=" ">
<path fill="none" stroke="#63b8ff" d="M621.14,-535.47C610.17,-580.85 581.69,-671.02 521.25,-717 514.71,-721.98 507.2,-725.75 499.33,-728.59"/>
<polygon fill="#63b8ff" stroke="#63b8ff" points="624.51,-536.45 623.34,-525.92 617.69,-534.88 624.51,-536.45"/>
</a>
</g>
</g>
<!-- Node7 -->
<g id="Node000007" class="node">
<title>Node7</title>
<g id="a_Node000007"><a xlink:href="_test_transaction_8cpp.html#ac248af3c8db7e5a88f1757dcfba37689" target="_top" xlink:title=" ">
<polygon fill="white" stroke="#666666" points="499.12,-708 351.88,-708 351.88,-688 499.12,-688 499.12,-708"/>
<text xml:space="preserve" text-anchor="middle" x="425.5" y="-694.5" font-family="Helvetica,sans-Serif" font-size="10.00">BOOST_AUTO_TEST_CASE</text>
</a>
</g>
</g>
<!-- Node1&#45;&gt;Node7 -->
<g id="edge6_Node000001_Node000007" class="edge">
<title>Node1&#45;&gt;Node7</title>
<g id="a_edge6_Node000001_Node000007"><a xlink:title=" ">
<path fill="none" stroke="#63b8ff" d="M618.16,-534.65C604.16,-573 572.88,-643.1 521.25,-679 514.64,-683.6 507.18,-687.14 499.41,-689.86"/>
<polygon fill="#63b8ff" stroke="#63b8ff" points="621.29,-536.3 621.3,-525.71 614.68,-533.98 621.29,-536.3"/>
</a>
</g>
</g>
<!-- Node8 -->
<g id="Node000008" class="node">
<title>Node8</title>
<g id="a_Node000008"><a xlink:href="_test_transaction_8cpp.html#ad171980ff709b74d47119d321dc4b82e" target="_top" xlink:title=" ">
<polygon fill="white" stroke="#666666" points="499.12,-670 351.88,-670 351.88,-650 499.12,-650 499.12,-670"/>
<text xml:space="preserve" text-anchor="middle" x="425.5" y="-656.5" font-family="Helvetica,sans-Serif" font-size="10.00">BOOST_AUTO_TEST_CASE</text>
</a>
</g>
</g>
<!-- Node1&#45;&gt;Node8 -->
<g id="edge7_Node000001_Node000008" class="edge">
<title>Node1&#45;&gt;Node8</title>
<g id="a_edge7_Node000001_Node000008"><a xlink:title=" ">
<path fill="none" stroke="#63b8ff" d="M613.59,-534.11C596.55,-564.8 564.01,-614.86 521.25,-641 514.52,-645.11 507.07,-648.36 499.39,-650.91"/>
<polygon fill="#63b8ff" stroke="#63b8ff" points="616.59,-535.93 618.25,-525.47 610.42,-532.61 616.59,-535.93"/>
</a>
</g>
</g>
<!-- Node9 -->
<g id="Node000009" class="node">
<title>Node9</title>
<g id="a_Node000009"><a xlink:href="_test_transaction_8cpp.html#a66bdc2d0db75eba01db6bd5082334ba9" target="_top" xlink:title="test_range_factory : TestCase">
<polygon fill="white" stroke="#666666" points="499.12,-632 351.88,-632 351.88,-612 499.12,-612 499.12,-632"/>
<text xml:space="preserve" text-anchor="middle" x="425.5" y="-618.5" font-family="Helvetica,sans-Serif" font-size="10.00">BOOST_AUTO_TEST_CASE</text>
</a>
</g>
</g>
<!-- Node1&#45;&gt;Node9 -->
<g id="edge8_Node000001_Node000009" class="edge">
<title>Node1&#45;&gt;Node9</title>
<g id="a_edge8_Node000001_Node000009"><a xlink:title=" ">
<path fill="none" stroke="#63b8ff" d="M606.36,-532.82C586.8,-554.77 555.35,-585.89 521.25,-603 514.35,-606.46 506.87,-609.29 499.25,-611.61"/>
<polygon fill="#63b8ff" stroke="#63b8ff" points="608.83,-535.31 612.75,-525.47 603.55,-530.72 608.83,-535.31"/>
</a>
</g>
</g>
<!-- Node10 -->
<g id="Node000010" class="node">
<title>Node10</title>
<g id="a_Node000010"><a xlink:href="_test_transaction_8cpp.html#a77e78089cb8cdb77c5003d624290f98f" target="_top" xlink:title="transaction_error : TestCase">
<polygon fill="white" stroke="#666666" points="499.12,-594 351.88,-594 351.88,-574 499.12,-574 499.12,-594"/>
<text xml:space="preserve" text-anchor="middle" x="425.5" y="-580.5" font-family="Helvetica,sans-Serif" font-size="10.00">BOOST_AUTO_TEST_CASE</text>
</a>
</g>
</g>
<!-- Node1&#45;&gt;Node10 -->
<g id="edge9_Node000001_Node000010" class="edge">
<title>Node1&#45;&gt;Node10</title>
<g id="a_edge9_Node000001_Node000010"><a xlink:title=" ">
<path fill="none" stroke="#63b8ff" d="M592.22,-530.1C572.17,-542 546.07,-556.04 521.25,-565 511.94,-568.36 501.89,-571.18 491.93,-573.53"/>
<polygon fill="#63b8ff" stroke="#63b8ff" points="593.79,-533.24 600.53,-525.07 590.17,-527.25 593.79,-533.24"/>
</a>
</g>
</g>
<!-- Node11 -->
<g id="Node000011" class="node">
<title>Node11</title>
<g id="a_Node000011"><a xlink:href="_test_transaction_8cpp.html#aff4a1a1858642ce7cdc1c3e4470ae180" target="_top" xlink:title=" ">
<polygon fill="white" stroke="#666666" points="499.12,-556 351.88,-556 351.88,-536 499.12,-536 499.12,-556"/>
<text xml:space="preserve" text-anchor="middle" x="425.5" y="-542.5" font-family="Helvetica,sans-Serif" font-size="10.00">BOOST_AUTO_TEST_CASE</text>
</a>
</g>
</g>
<!-- Node1&#45;&gt;Node11 -->
<g id="edge10_Node000001_Node000011" class="edge">
<title>Node1&#45;&gt;Node11</title>
<g id="a_edge10_Node000001_Node000011"><a xlink:title=" ">
<path fill="none" stroke="#63b8ff" d="M545.68,-523.4C524.18,-527.47 501.47,-531.78 481.71,-535.53"/>
<polygon fill="#63b8ff" stroke="#63b8ff" points="546.13,-526.87 555.31,-521.57 544.83,-520 546.13,-526.87"/>
</a>
</g>
</g>
<!-- Node12 -->
<g id="Node000012" class="node">
<title>Node12</title>
<g id="a_Node000012"><a xlink:href="_test_transaction_8cpp.html#ab10983204a4586b0af1e0389358a615e" target="_top" xlink:title=" ">
<polygon fill="white" stroke="#666666" points="499.12,-518 351.88,-518 351.88,-498 499.12,-498 499.12,-518"/>
<text xml:space="preserve" text-anchor="middle" x="425.5" y="-504.5" font-family="Helvetica,sans-Serif" font-size="10.00">BOOST_AUTO_TEST_CASE</text>
</a>
</g>
</g>
<!-- Node1&#45;&gt;Node12 -->
<g id="edge11_Node000001_Node000012" class="edge">
<title>Node1&#45;&gt;Node12</title>
<g id="a_edge11_Node000001_Node000012"><a xlink:title=" ">
<path fill="none" stroke="#63b8ff" d="M545.35,-508C530.21,-508 514.47,-508 499.6,-508"/>
<polygon fill="#63b8ff" stroke="#63b8ff" points="545.28,-511.5 555.28,-508 545.28,-504.5 545.28,-511.5"/>
</a>
</g>
</g>
<!-- Node13 -->
<g id="Node000013" class="node">
<title>Node13</title>
<g id="a_Node000013"><a xlink:href="namespacedepicture__menu_1_1usecase.html#ad1756cbfc162285ee309da7c317256a4" target="_top" xlink:title=" ">
<polygon fill="white" stroke="#666666" points="502.12,-480 348.88,-480 348.88,-448 502.12,-448 502.12,-480"/>
<text xml:space="preserve" text-anchor="start" x="356.88" y="-466.5" font-family="Helvetica,sans-Serif" font-size="10.00">depicture_menu::usecase</text>
<text xml:space="preserve" text-anchor="middle" x="425.5" y="-454.5" font-family="Helvetica,sans-Serif" font-size="10.00">::do_change_menu_config_impl</text>
</a>
</g>
</g>
<!-- Node1&#45;&gt;Node13 -->
<g id="edge12_Node000001_Node000013" class="edge">
<title>Node1&#45;&gt;Node13</title>
<g id="a_edge12_Node000001_Node000013"><a xlink:title=" ">
<path fill="none" stroke="#63b8ff" d="M545.7,-490.18C531.03,-486.95 515.79,-483.61 501.31,-480.43"/>
<polygon fill="#63b8ff" stroke="#63b8ff" points="544.8,-493.56 555.32,-492.29 546.3,-486.72 544.8,-493.56"/>
</a>
</g>
</g>
<!-- Node16 -->
<g id="Node000016" class="node">
<title>Node16</title>
<g id="a_Node000016"><a xlink:href="namespacedepicture__menu_1_1usecase_1_1detail__usecase__change__menu__item.html#aba778dda63ee385a31fe471a4cfb8155" target="_top" xlink:title="common_action_select 処理">
<polygon fill="white" stroke="#666666" points="521.25,-430 329.75,-430 329.75,-386 521.25,-386 521.25,-430"/>
<text xml:space="preserve" text-anchor="start" x="337.75" y="-416.5" font-family="Helvetica,sans-Serif" font-size="10.00">depicture_menu::usecase</text>
<text xml:space="preserve" text-anchor="start" x="337.75" y="-404.5" font-family="Helvetica,sans-Serif" font-size="10.00">::detail_usecase_change</text>
<text xml:space="preserve" text-anchor="middle" x="425.5" y="-392.5" font-family="Helvetica,sans-Serif" font-size="10.00">_menu_item::do_common_action_select</text>
</a>
</g>
</g>
<!-- Node1&#45;&gt;Node16 -->
<g id="edge15_Node000001_Node000016" class="edge">
<title>Node1&#45;&gt;Node16</title>
<g id="a_edge15_Node000001_Node000016"><a xlink:title=" ">
<path fill="none" stroke="#63b8ff" d="M596.5,-485.08C576.05,-470.43 548.01,-451.84 521.25,-439 514.93,-435.97 508.24,-433.12 501.45,-430.47"/>
<polygon fill="#63b8ff" stroke="#63b8ff" points="594.24,-487.76 604.39,-490.81 598.36,-482.1 594.24,-487.76"/>
</a>
</g>
</g>
<!-- Node18 -->
<g id="Node000018" class="node">
<title>Node18</title>
<g id="a_Node000018"><a xlink:href="namespacedepicture__menu_1_1test_1_1test__tools.html#a63e1557e94d169533fc4f8ee80bb12a5" target="_top" xlink:title="do_test_transaction">
<polygon fill="white" stroke="#666666" points="479.25,-368 371.75,-368 371.75,-324 479.25,-324 479.25,-368"/>
<text xml:space="preserve" text-anchor="start" x="379.75" y="-354.5" font-family="Helvetica,sans-Serif" font-size="10.00">depicture_menu::test</text>
<text xml:space="preserve" text-anchor="start" x="379.75" y="-342.5" font-family="Helvetica,sans-Serif" font-size="10.00">::test_tools::do_test</text>
<text xml:space="preserve" text-anchor="middle" x="425.5" y="-330.5" font-family="Helvetica,sans-Serif" font-size="10.00">_transaction</text>
</a>
</g>
</g>
<!-- Node1&#45;&gt;Node18 -->
<g id="edge17_Node000001_Node000018" class="edge">
<title>Node1&#45;&gt;Node18</title>
<g id="a_edge17_Node000001_Node000018"><a xlink:title=" ">
<path fill="none" stroke="#63b8ff" d="M612.39,-482.18C594.58,-452.68 561.68,-404.91 521.25,-377 508.86,-368.45 493.95,-362.13 479.66,-357.51"/>
<polygon fill="#63b8ff" stroke="#63b8ff" points="609.19,-483.64 617.28,-490.48 615.22,-480.09 609.19,-483.64"/>
</a>
</g>
</g>
<!-- Node23 -->
<g id="Node000023" class="node">
<title>Node23</title>
<g id="a_Node000023"><a xlink:href="namespacedepicture__menu_1_1test_1_1test__tools.html#a3bc0722b6d26ba684d929250a24c88c2" target="_top" xlink:title="get_object">
<polygon fill="white" stroke="#666666" points="274.62,-262 158.88,-262 158.88,-230 274.62,-230 274.62,-262"/>
<text xml:space="preserve" text-anchor="start" x="166.88" y="-248.5" font-family="Helvetica,sans-Serif" font-size="10.00">depicture_menu::test</text>
<text xml:space="preserve" text-anchor="middle" x="216.75" y="-236.5" font-family="Helvetica,sans-Serif" font-size="10.00">::test_tools::get_object</text>
</a>
</g>
</g>
<!-- Node1&#45;&gt;Node23 -->
<g id="edge23_Node000001_Node000023" class="edge">
<title>Node1&#45;&gt;Node23</title>
<g id="a_edge23_Node000001_Node000023"><a xlink:title=" ">
<path fill="none" stroke="#63b8ff" d="M619.99,-480.78C607.75,-438.25 577.97,-356.62 521.25,-315 451.29,-263.67 414.18,-297.03 329.75,-277 311.49,-272.67 291.72,-267.39 273.94,-262.43"/>
<polygon fill="#63b8ff" stroke="#63b8ff" points="616.56,-481.5 622.59,-490.21 623.31,-479.64 616.56,-481.5"/>
</a>
</g>
</g>
<!-- Node24 -->
<g id="Node000024" class="node">
<title>Node24</title>
<g id="a_Node000024"><a xlink:href="structdepicture__menu_1_1usecase_1_1move__order__menu__item.html#a19675c3961f0029781c43bb647135684" target="_top" xlink:title=" ">
<polygon fill="white" stroke="#666666" points="489.38,-268 361.62,-268 361.62,-224 489.38,-224 489.38,-268"/>
<text xml:space="preserve" text-anchor="start" x="369.62" y="-254.5" font-family="Helvetica,sans-Serif" font-size="10.00">depicture_menu::usecase</text>
<text xml:space="preserve" text-anchor="start" x="369.62" y="-242.5" font-family="Helvetica,sans-Serif" font-size="10.00">::move_order_menu_item</text>
<text xml:space="preserve" text-anchor="middle" x="425.5" y="-230.5" font-family="Helvetica,sans-Serif" font-size="10.00">::operator()</text>
</a>
</g>
</g>
<!-- Node1&#45;&gt;Node24 -->
<g id="edge25_Node000001_Node000024" class="edge">
<title>Node1&#45;&gt;Node24</title>
<g id="a_edge25_Node000001_Node000024"><a xlink:title=" ">
<path fill="none" stroke="#63b8ff" d="M621.13,-480.45C609.95,-433.44 580.96,-337.44 521.25,-282 512.22,-273.62 501.05,-267.13 489.58,-262.12"/>
<polygon fill="#63b8ff" stroke="#63b8ff" points="617.69,-481.11 623.32,-490.08 624.51,-479.56 617.69,-481.11"/>
</a>
</g>
</g>
<!-- Node25 -->
<g id="Node000025" class="node">
<title>Node25</title>
<g id="a_Node000025"><a xlink:href="classdepicture__menu_1_1usecase_1_1show__config__view.html#af6c1b6f2e3b1d2f527db32fab2d0e62f" target="_top" xlink:title=" ">
<polygon fill="white" stroke="#666666" points="500.25,-206 350.75,-206 350.75,-174 500.25,-174 500.25,-206"/>
<text xml:space="preserve" text-anchor="start" x="358.75" y="-192.5" font-family="Helvetica,sans-Serif" font-size="10.00">depicture_menu::usecase</text>
<text xml:space="preserve" text-anchor="middle" x="425.5" y="-180.5" font-family="Helvetica,sans-Serif" font-size="10.00">::show_config_view::operator()</text>
</a>
</g>
</g>
<!-- Node1&#45;&gt;Node25 -->
<g id="edge26_Node000001_Node000025" class="edge">
<title>Node1&#45;&gt;Node25</title>
<g id="a_edge26_Node000001_Node000025"><a xlink:title=" ">
<path fill="none" stroke="#63b8ff" d="M625.18,-480.35C620.1,-422.29 600,-287.1 521.25,-215 515.23,-209.49 508.13,-205.16 500.58,-201.77"/>
<polygon fill="#63b8ff" stroke="#63b8ff" points="621.67,-480.31 625.94,-490.01 628.65,-479.77 621.67,-480.31"/>
</a>
</g>
</g>
<!-- Node26 -->
<g id="Node000026" class="node">
<title>Node26</title>
<g id="a_Node000026"><a xlink:href="classdepicture__menu_1_1usecase_1_1show__config__view.html#a6239fddfd299503c1d9c91cf51a16046" target="_top" xlink:title=" ">
<polygon fill="white" stroke="#666666" points="500.25,-156 350.75,-156 350.75,-124 500.25,-124 500.25,-156"/>
<text xml:space="preserve" text-anchor="start" x="358.75" y="-142.5" font-family="Helvetica,sans-Serif" font-size="10.00">depicture_menu::usecase</text>
<text xml:space="preserve" text-anchor="middle" x="425.5" y="-130.5" font-family="Helvetica,sans-Serif" font-size="10.00">::show_config_view::operator()</text>
</a>
</g>
</g>
<!-- Node1&#45;&gt;Node26 -->
<g id="edge27_Node000001_Node000026" class="edge">
<title>Node1&#45;&gt;Node26</title>
<g id="a_edge27_Node000001_Node000026"><a xlink:title=" ">
<path fill="none" stroke="#63b8ff" d="M626.88,-480.27C625.32,-415.3 612.04,-252.16 521.25,-165 515.24,-159.23 508.05,-154.75 500.37,-151.28"/>
<polygon fill="#63b8ff" stroke="#63b8ff" points="623.37,-480.11 627.03,-490.05 630.37,-480 623.37,-480.11"/>
</a>
</g>
</g>
<!-- Node27 -->
<g id="Node000027" class="node">
<title>Node27</title>
<g id="a_Node000027"><a xlink:href="namespacedepicture__menu_1_1usecase_1_1detail__usecase.html#a7b737605653c8cbbeb6f4a6bf95f01a7" target="_top" xlink:title=" ">
<polygon fill="white" stroke="#666666" points="496.5,-106 354.5,-106 354.5,-62 496.5,-62 496.5,-106"/>
<text xml:space="preserve" text-anchor="start" x="362.5" y="-92.5" font-family="Helvetica,sans-Serif" font-size="10.00">depicture_menu::usecase</text>
<text xml:space="preserve" text-anchor="start" x="362.5" y="-80.5" font-family="Helvetica,sans-Serif" font-size="10.00">::detail_usecase::show</text>
<text xml:space="preserve" text-anchor="middle" x="425.5" y="-68.5" font-family="Helvetica,sans-Serif" font-size="10.00">_menu_view_by_trigger_impl</text>
</a>
</g>
</g>
<!-- Node1&#45;&gt;Node27 -->
<g id="edge28_Node000001_Node000027" class="edge">
<title>Node1&#45;&gt;Node27</title>
<g id="a_edge28_Node000001_Node000027"><a xlink:title=" ">
<path fill="none" stroke="#63b8ff" d="M622.93,-480.49C610.92,-400.31 572.45,-169.02 521.25,-115 514.46,-107.84 506,-102.33 496.95,-98.09"/>
<polygon fill="#63b8ff" stroke="#63b8ff" points="619.43,-480.73 624.35,-490.11 626.35,-479.7 619.43,-480.73"/>
</a>
</g>
</g>
<!-- Node29 -->
<g id="Node000029" class="node">
<title>Node29</title>
<g id="a_Node000029"><a xlink:href="namespacedepicture__menu_1_1usecase_1_1detail__usecase.html#a30a805872d1e1babe72014851ae4468f" target="_top" xlink:title=" ">
<polygon fill="white" stroke="#666666" points="489.38,-44 361.62,-44 361.62,0 489.38,0 489.38,-44"/>
<text xml:space="preserve" text-anchor="start" x="369.62" y="-30.5" font-family="Helvetica,sans-Serif" font-size="10.00">depicture_menu::usecase</text>
<text xml:space="preserve" text-anchor="start" x="369.62" y="-18.5" font-family="Helvetica,sans-Serif" font-size="10.00">::detail_usecase::show</text>
<text xml:space="preserve" text-anchor="middle" x="425.5" y="-6.5" font-family="Helvetica,sans-Serif" font-size="10.00">_menu_view_impl</text>
</a>
</g>
</g>
<!-- Node1&#45;&gt;Node29 -->
<g id="edge30_Node000001_Node000029" class="edge">
<title>Node1&#45;&gt;Node29</title>
<g id="a_edge30_Node000001_Node000029"><a xlink:title=" ">
<path fill="none" stroke="#63b8ff" d="M624,-480.37C614.27,-391.79 579.83,-116.98 521.25,-53 512.72,-43.68 501.35,-37.16 489.45,-32.59"/>
<polygon fill="#63b8ff" stroke="#63b8ff" points="620.5,-480.52 625.05,-490.08 627.46,-479.77 620.5,-480.52"/>
</a>
</g>
</g>
<!-- Node3 -->
<g id="Node000003" class="node">
<title>Node3</title>
<g id="a_Node000003"><a xlink:href="classdepicture__menu_1_1usecase_1_1add__new__menu.html#a91e1f19446cb9de1abfbf1a7ecc6a95a" target="_top" xlink:title=" ">
<polygon fill="white" stroke="#666666" points="285.5,-878 148,-878 148,-846 285.5,-846 285.5,-878"/>
<text xml:space="preserve" text-anchor="start" x="156" y="-864.5" font-family="Helvetica,sans-Serif" font-size="10.00">depicture_menu::usecase</text>
<text xml:space="preserve" text-anchor="middle" x="216.75" y="-852.5" font-family="Helvetica,sans-Serif" font-size="10.00">::add_new_menu::operator()</text>
</a>
</g>
</g>
<!-- Node2&#45;&gt;Node3 -->
<g id="edge2_Node000002_Node000003" class="edge">
<title>Node2&#45;&gt;Node3</title>
<g id="a_edge2_Node000002_Node000003"><a xlink:title=" ">
<path fill="none" stroke="#63b8ff" d="M342.14,-862C323.43,-862 303.76,-862 285.73,-862"/>
<polygon fill="#63b8ff" stroke="#63b8ff" points="342.12,-865.5 352.12,-862 342.12,-858.5 342.12,-865.5"/>
</a>
</g>
</g>
<!-- Node14 -->
<g id="Node000014" class="node">
<title>Node14</title>
<g id="a_Node000014"><a xlink:href="namespacedepicture__menu_1_1usecase_1_1detail__usecases.html#acfef245293d115c707e5170d5da5e186" target="_top" xlink:title=" ">
<polygon fill="white" stroke="#666666" points="280.62,-486 152.88,-486 152.88,-442 280.62,-442 280.62,-486"/>
<text xml:space="preserve" text-anchor="start" x="160.88" y="-472.5" font-family="Helvetica,sans-Serif" font-size="10.00">depicture_menu::usecase</text>
<text xml:space="preserve" text-anchor="start" x="160.88" y="-460.5" font-family="Helvetica,sans-Serif" font-size="10.00">::detail_usecases::do</text>
<text xml:space="preserve" text-anchor="middle" x="216.75" y="-448.5" font-family="Helvetica,sans-Serif" font-size="10.00">_change_menu_config</text>
</a>
</g>
</g>
<!-- Node13&#45;&gt;Node14 -->
<g id="edge13_Node000013_Node000014" class="edge">
<title>Node13&#45;&gt;Node14</title>
<g id="a_edge13_Node000013_Node000014"><a xlink:title=" ">
<path fill="none" stroke="#63b8ff" d="M337.07,-464C318.18,-464 298.56,-464 280.82,-464"/>
<polygon fill="#63b8ff" stroke="#63b8ff" points="336.88,-467.5 346.88,-464 336.88,-460.5 336.88,-467.5"/>
</a>
</g>
</g>
<!-- Node15 -->
<g id="Node000015" class="node">
<title>Node15</title>
<g id="a_Node000015"><a xlink:href="namespacedepicture__menu_1_1usecase_1_1detail__usecases.html#ac5fca35483c781048a6c5661308545c0" target="_top" xlink:title=" ">
<polygon fill="white" stroke="#666666" points="280.62,-548 152.88,-548 152.88,-504 280.62,-504 280.62,-548"/>
<text xml:space="preserve" text-anchor="start" x="160.88" y="-534.5" font-family="Helvetica,sans-Serif" font-size="10.00">depicture_menu::usecase</text>
<text xml:space="preserve" text-anchor="start" x="160.88" y="-522.5" font-family="Helvetica,sans-Serif" font-size="10.00">::detail_usecases::do</text>
<text xml:space="preserve" text-anchor="middle" x="216.75" y="-510.5" font-family="Helvetica,sans-Serif" font-size="10.00">_change_menu_config</text>
</a>
</g>
</g>
<!-- Node13&#45;&gt;Node15 -->
<g id="edge14_Node000013_Node000015" class="edge">
<title>Node13&#45;&gt;Node15</title>
<g id="a_edge14_Node000013_Node000015"><a xlink:title=" ">
<path fill="none" stroke="#63b8ff" d="M348.94,-483.49C342.43,-485.3 335.97,-487.15 329.75,-489 313.85,-493.72 296.8,-499.16 280.92,-504.38"/>
<polygon fill="#63b8ff" stroke="#63b8ff" points="349.7,-486.91 358.42,-480.89 347.85,-480.16 349.7,-486.91"/>
</a>
</g>
</g>
<!-- Node17 -->
<g id="Node000017" class="node">
<title>Node17</title>
<g id="a_Node000017"><a xlink:href="classdepicture__menu_1_1usecase_1_1change__menu__item.html#a41599de2e4dcbd311704f8801fde1af9" target="_top" xlink:title=" ">
<polygon fill="white" stroke="#666666" points="293.75,-424 139.75,-424 139.75,-392 293.75,-392 293.75,-424"/>
<text xml:space="preserve" text-anchor="start" x="147.75" y="-410.5" font-family="Helvetica,sans-Serif" font-size="10.00">depicture_menu::usecase</text>
<text xml:space="preserve" text-anchor="middle" x="216.75" y="-398.5" font-family="Helvetica,sans-Serif" font-size="10.00">::change_menu_item::operator()</text>
</a>
</g>
</g>
<!-- Node16&#45;&gt;Node17 -->
<g id="edge16_Node000016_Node000017" class="edge">
<title>Node16&#45;&gt;Node17</title>
<g id="a_edge16_Node000016_Node000017"><a xlink:title=" ">
<path fill="none" stroke="#63b8ff" d="M317.97,-408C309.95,-408 301.96,-408 294.19,-408"/>
<polygon fill="#63b8ff" stroke="#63b8ff" points="317.78,-411.5 327.78,-408 317.78,-404.5 317.78,-411.5"/>
</a>
</g>
</g>
<!-- Node19 -->
<g id="Node000019" class="node">
<title>Node19</title>
<g id="a_Node000019"><a xlink:href="namespacedepicture__menu_1_1test_1_1test__tools.html#a2875ecae3596246c9cb30ef6f8125ad9" target="_top" xlink:title="add_object">
<polygon fill="white" stroke="#666666" points="275.75,-374 157.75,-374 157.75,-342 275.75,-342 275.75,-374"/>
<text xml:space="preserve" text-anchor="start" x="165.75" y="-360.5" font-family="Helvetica,sans-Serif" font-size="10.00">depicture_menu::test</text>
<text xml:space="preserve" text-anchor="middle" x="216.75" y="-348.5" font-family="Helvetica,sans-Serif" font-size="10.00">::test_tools::add_object</text>
</a>
</g>
</g>
<!-- Node18&#45;&gt;Node19 -->
<g id="edge18_Node000018_Node000019" class="edge">
<title>Node18&#45;&gt;Node19</title>
<g id="a_edge18_Node000018_Node000019"><a xlink:title=" ">
<path fill="none" stroke="#63b8ff" d="M360.01,-349.74C333.1,-351.3 302.09,-353.1 275.9,-354.62"/>
<polygon fill="#63b8ff" stroke="#63b8ff" points="359.97,-353.25 369.75,-349.18 359.56,-346.26 359.97,-353.25"/>
</a>
</g>
</g>
<!-- Node22 -->
<g id="Node000022" class="node">
<title>Node22</title>
<g id="a_Node000022"><a xlink:href="namespacedepicture__menu_1_1test_1_1test__tools.html#af306a1c5bb47444ef2a45fbff195078f" target="_top" xlink:title="add_object">
<polygon fill="white" stroke="#666666" points="270.5,-324 163,-324 163,-280 270.5,-280 270.5,-324"/>
<text xml:space="preserve" text-anchor="start" x="171" y="-310.5" font-family="Helvetica,sans-Serif" font-size="10.00">depicture_menu::test</text>
<text xml:space="preserve" text-anchor="start" x="171" y="-298.5" font-family="Helvetica,sans-Serif" font-size="10.00">::test_tools::update</text>
<text xml:space="preserve" text-anchor="middle" x="216.75" y="-286.5" font-family="Helvetica,sans-Serif" font-size="10.00">_object</text>
</a>
</g>
</g>
<!-- Node18&#45;&gt;Node22 -->
<g id="edge21_Node000018_Node000022" class="edge">
<title>Node18&#45;&gt;Node22</title>
<g id="a_edge21_Node000018_Node000022"><a xlink:title=" ">
<path fill="none" stroke="#63b8ff" d="M360.11,-332.3C331.42,-326.19 298.04,-319.09 270.81,-313.29"/>
<polygon fill="#63b8ff" stroke="#63b8ff" points="359.27,-335.7 369.78,-334.35 360.72,-328.85 359.27,-335.7"/>
</a>
</g>
</g>
<!-- Node20 -->
<g id="Node000020" class="node">
<title>Node20</title>
<g id="a_Node000020"><a xlink:href="structtransaction__fixture.html#a0b00d94ce6c3f705e6daf55ef58ad58a" target="_top" xlink:title=" ">
<polygon fill="white" stroke="#666666" points="103.75,-318 0,-318 0,-286 103.75,-286 103.75,-318"/>
<text xml:space="preserve" text-anchor="start" x="8" y="-304.5" font-family="Helvetica,sans-Serif" font-size="10.00">transaction_fixture</text>
<text xml:space="preserve" text-anchor="middle" x="51.88" y="-292.5" font-family="Helvetica,sans-Serif" font-size="10.00">::add_sample_entity</text>
</a>
</g>
</g>
<!-- Node19&#45;&gt;Node20 -->
<g id="edge19_Node000019_Node000020" class="edge">
<title>Node19&#45;&gt;Node20</title>
<g id="a_edge19_Node000019_Node000020"><a xlink:title=" ">
<path fill="none" stroke="#63b8ff" d="M154.25,-337.92C149.34,-336.27 144.46,-334.61 139.75,-333 126.27,-328.38 111.66,-323.22 98.34,-318.46"/>
<polygon fill="#63b8ff" stroke="#63b8ff" points="152.97,-341.18 163.56,-341.02 155.18,-334.54 152.97,-341.18"/>
</a>
</g>
</g>
<!-- Node21 -->
<g id="Node000021" class="node">
<title>Node21</title>
<g id="a_Node000021"><a xlink:href="structtransaction__fixture.html#a28f55eb8fb92554bc1fb3f57f6b943a6" target="_top" xlink:title=" ">
<polygon fill="white" stroke="#666666" points="100,-374 3.75,-374 3.75,-342 100,-342 100,-374"/>
<text xml:space="preserve" text-anchor="start" x="11.75" y="-360.5" font-family="Helvetica,sans-Serif" font-size="10.00">transaction_fixture</text>
<text xml:space="preserve" text-anchor="middle" x="51.88" y="-348.5" font-family="Helvetica,sans-Serif" font-size="10.00">::setup</text>
</a>
</g>
</g>
<!-- Node19&#45;&gt;Node21 -->
<g id="edge20_Node000019_Node000021" class="edge">
<title>Node19&#45;&gt;Node21</title>
<g id="a_edge20_Node000019_Node000021"><a xlink:title=" ">
<path fill="none" stroke="#63b8ff" d="M146.27,-358C130.79,-358 114.73,-358 100.37,-358"/>
<polygon fill="#63b8ff" stroke="#63b8ff" points="145.89,-361.5 155.89,-358 145.89,-354.5 145.89,-361.5"/>
</a>
</g>
</g>
<!-- Node22&#45;&gt;Node20 -->
<g id="edge22_Node000022_Node000020" class="edge">
<title>Node22&#45;&gt;Node20</title>
<g id="a_edge22_Node000022_Node000020"><a xlink:title=" ">
<path fill="none" stroke="#63b8ff" d="M151.59,-302C135.83,-302 119.16,-302 104.1,-302"/>
<polygon fill="#63b8ff" stroke="#63b8ff" points="151.36,-305.5 161.36,-302 151.36,-298.5 151.36,-305.5"/>
</a>
</g>
</g>
<!-- Node23&#45;&gt;Node20 -->
<g id="edge24_Node000023_Node000020" class="edge">
<title>Node23&#45;&gt;Node20</title>
<g id="a_edge24_Node000023_Node000020"><a xlink:title=" ">
<path fill="none" stroke="#63b8ff" d="M154.25,-266.08C149.34,-267.73 144.46,-269.39 139.75,-271 126.27,-275.62 111.66,-280.78 98.34,-285.54"/>
<polygon fill="#63b8ff" stroke="#63b8ff" points="155.18,-269.46 163.56,-262.98 152.97,-262.82 155.18,-269.46"/>
</a>
</g>
</g>
<!-- Node28 -->
<g id="Node000028" class="node">
<title>Node28</title>
<g id="a_Node000028"><a xlink:href="classdepicture__menu_1_1usecase_1_1show__menu__view.html#a84311fd25faec1ca569e6717dcd20480" target="_top" xlink:title=" ">
<polygon fill="white" stroke="#666666" points="290.38,-100 143.12,-100 143.12,-68 290.38,-68 290.38,-100"/>
<text xml:space="preserve" text-anchor="start" x="151.12" y="-86.5" font-family="Helvetica,sans-Serif" font-size="10.00">depicture_menu::usecase</text>
<text xml:space="preserve" text-anchor="middle" x="216.75" y="-74.5" font-family="Helvetica,sans-Serif" font-size="10.00">::show_menu_view::operator()</text>
</a>
</g>
</g>
<!-- Node27&#45;&gt;Node28 -->
<g id="edge29_Node000027_Node000028" class="edge">
<title>Node27&#45;&gt;Node28</title>
<g id="a_edge29_Node000027_Node000028"><a xlink:title=" ">
<path fill="none" stroke="#63b8ff" d="M343.01,-84C325.73,-84 307.59,-84 290.66,-84"/>
<polygon fill="#63b8ff" stroke="#63b8ff" points="342.7,-87.5 352.7,-84 342.7,-80.5 342.7,-87.5"/>
</a>
</g>
</g>
<!-- Node30 -->
<g id="Node000030" class="node">
<title>Node30</title>
<g id="a_Node000030"><a xlink:href="classdepicture__menu_1_1usecase_1_1show__menu__view.html#a4ce319c6aa992ac8d977452f232c15fc" target="_top" xlink:title=" ">
<polygon fill="white" stroke="#666666" points="290.38,-38 143.12,-38 143.12,-6 290.38,-6 290.38,-38"/>
<text xml:space="preserve" text-anchor="start" x="151.12" y="-24.5" font-family="Helvetica,sans-Serif" font-size="10.00">depicture_menu::usecase</text>
<text xml:space="preserve" text-anchor="middle" x="216.75" y="-12.5" font-family="Helvetica,sans-Serif" font-size="10.00">::show_menu_view::operator()</text>
</a>
</g>
</g>
<!-- Node29&#45;&gt;Node30 -->
<g id="edge31_Node000029_Node000030" class="edge">
<title>Node29&#45;&gt;Node30</title>
<g id="a_edge31_Node000029_Node000030"><a xlink:title=" ">
<path fill="none" stroke="#63b8ff" d="M349.87,-22C330.59,-22 309.85,-22 290.66,-22"/>
<polygon fill="#63b8ff" stroke="#63b8ff" points="349.83,-25.5 359.83,-22 349.83,-18.5 349.83,-25.5"/>
</a>
</g>
</g>
</g>
</svg>
