<?xml version="1.0" encoding="UTF-8" standalone="no"?>
<!DOCTYPE svg PUBLIC "-//W3C//DTD SVG 1.1//EN"
 "http://www.w3.org/Graphics/SVG/1.1/DTD/svg11.dtd">
<!-- Generated by graphviz version 14.1.2 (20260124.0452)
 -->
<!-- Title: depicture_menu::cs_binding::observer::generate_observe_configview Pages: 1 -->
<svg width="336pt" height="294pt"
 viewBox="0.00 0.00 336.00 294.00" xmlns="http://www.w3.org/2000/svg" xmlns:xlink="http://www.w3.org/1999/xlink">

<svg id="main" version="1.1" xmlns="http://www.w3.org/2000/svg" xmlns:xlink="http://www.w3.org/1999/xlink" xml:space="preserve">

<style type="text/css"><![CDATA[
.node, .edge {opacity: 0.7;}
.node.selected, .edge.selected {opacity: 1;}
.edge:hover path { stroke: red; }
.edge:hover polygon { stroke: red; fill: red; }
]]></style>
<script type="application/ecmascript" xlink:href="svg.min.js"/>
<svg id="graph" class="graph">
<g id="graph0" class="graph" transform="scale(1 1) rotate(0) translate(4 290)">
<title>depicture_menu::cs_binding::observer::generate_observe_configview</title>
<!-- Node1 -->
<g id="Node000001" class="node">
<title>Node1</title>
<g id="a_Node000001"><a xlink:title=" ">
<polygon fill="#999999" stroke="#666666" points="328.25,-165 183.25,-165 183.25,-121 328.25,-121 328.25,-165"/>
<text xml:space="preserve" text-anchor="start" x="191.25" y="-151.5" font-family="Helvetica,sans-Serif" font-size="10.00">depicture_menu::cs</text>
<text xml:space="preserve" text-anchor="start" x="191.25" y="-139.5" font-family="Helvetica,sans-Serif" font-size="10.00">_binding::observer::</text>
<text xml:space="preserve" text-anchor="middle" x="255.75" y="-127.5" font-family="Helvetica,sans-Serif" font-size="10.00">generate_observe_configview</text>
</a>
</g>
</g>
<!-- Node1&#45;&gt;Node1 -->
<g id="edge9_Node000001_Node000001" class="edge">
<title>Node1&#45;&gt;Node1</title>
<g id="a_edge9_Node000001_Node000001"><a xlink:title=" ">
<path fill="none" stroke="#63b8ff" d="M285.92,-175.75C280.8,-180.11 270.75,-183 255.75,-183 230.49,-183 219.25,-174.8 222.01,-165.21"/>
<polygon fill="#63b8ff" stroke="#63b8ff" points="289.11,-177.24 289,-166.65 282.48,-174.99 289.11,-177.24"/>
</a>
</g>
</g>
<!-- Node2 -->
<g id="Node000002" class="node">
<title>Node2</title>
<g id="a_Node000002"><a xlink:href="_test_config_view_observer_8cpp.html#a57e3b743b64a0209f241d86077a5daed" target="_top" xlink:title=" ">
<polygon fill="white" stroke="#666666" points="147.25,-286 0,-286 0,-266 147.25,-266 147.25,-286"/>
<text xml:space="preserve" text-anchor="middle" x="73.62" y="-272.5" font-family="Helvetica,sans-Serif" font-size="10.00">BOOST_AUTO_TEST_CASE</text>
</a>
</g>
</g>
<!-- Node1&#45;&gt;Node2 -->
<g id="edge1_Node000001_Node000002" class="edge">
<title>Node1&#45;&gt;Node2</title>
<g id="a_edge1_Node000001_Node000002"><a xlink:title=" ">
<path fill="none" stroke="#63b8ff" d="M232.97,-174.48C213.43,-200.38 182.47,-236.11 147.25,-257 141.42,-260.46 134.96,-263.29 128.37,-265.62"/>
<polygon fill="#63b8ff" stroke="#63b8ff" points="235.63,-176.77 238.75,-166.64 230,-172.62 235.63,-176.77"/>
</a>
</g>
</g>
<!-- Node3 -->
<g id="Node000003" class="node">
<title>Node3</title>
<g id="a_Node000003"><a xlink:href="_test_config_view_observer_8cpp.html#a4c7ebca6672a85273f8295df026e3c96" target="_top" xlink:title=" ">
<polygon fill="white" stroke="#666666" points="147.25,-248 0,-248 0,-228 147.25,-228 147.25,-248"/>
<text xml:space="preserve" text-anchor="middle" x="73.62" y="-234.5" font-family="Helvetica,sans-Serif" font-size="10.00">BOOST_AUTO_TEST_CASE</text>
</a>
</g>
</g>
<!-- Node1&#45;&gt;Node3 -->
<g id="edge2_Node000001_Node000003" class="edge">
<title>Node1&#45;&gt;Node3</title>
<g id="a_edge2_Node000001_Node000003"><a xlink:title=" ">
<path fill="none" stroke="#63b8ff" d="M220.23,-172.26C200.06,-188.07 173.49,-206.79 147.25,-219 140.04,-222.35 132.15,-225.19 124.3,-227.56"/>
<polygon fill="#63b8ff" stroke="#63b8ff" points="222.21,-175.16 227.84,-166.18 217.84,-169.69 222.21,-175.16"/>
</a>
</g>
</g>
<!-- Node4 -->
<g id="Node000004" class="node">
<title>Node4</title>
<g id="a_Node000004"><a xlink:href="_test_config_view_observer_8cpp.html#abfb1afbc11a2923fd92411829c546497" target="_top" xlink:title=" ">
<polygon fill="white" stroke="#666666" points="147.25,-210 0,-210 0,-190 147.25,-190 147.25,-210"/>
<text xml:space="preserve" text-anchor="middle" x="73.62" y="-196.5" font-family="Helvetica,sans-Serif" font-size="10.00">BOOST_AUTO_TEST_CASE</text>
</a>
</g>
</g>
<!-- Node1&#45;&gt;Node4 -->
<g id="edge3_Node000001_Node000004" class="edge">
<title>Node1&#45;&gt;Node4</title>
<g id="a_edge3_Node000001_Node000004"><a xlink:title=" ">
<path fill="none" stroke="#63b8ff" d="M183.11,-169.26C171.19,-173.36 158.91,-177.42 147.25,-181 137.53,-183.98 126.99,-186.91 117.04,-189.54"/>
<polygon fill="#63b8ff" stroke="#63b8ff" points="184.21,-172.59 192.5,-166 181.91,-165.97 184.21,-172.59"/>
</a>
</g>
</g>
<!-- Node5 -->
<g id="Node000005" class="node">
<title>Node5</title>
<g id="a_Node000005"><a xlink:href="_test_config_view_observer_8cpp.html#a3946f8cc20ce8d527570fe08f1edf28b" target="_top" xlink:title=" ">
<polygon fill="white" stroke="#666666" points="147.25,-172 0,-172 0,-152 147.25,-152 147.25,-172"/>
<text xml:space="preserve" text-anchor="middle" x="73.62" y="-158.5" font-family="Helvetica,sans-Serif" font-size="10.00">BOOST_AUTO_TEST_CASE</text>
</a>
</g>
</g>
<!-- Node1&#45;&gt;Node5 -->
<g id="edge4_Node000001_Node000005" class="edge">
<title>Node1&#45;&gt;Node5</title>
<g id="a_edge4_Node000001_Node000005"><a xlink:title=" ">
<path fill="none" stroke="#63b8ff" d="M171.57,-151.77C163.59,-152.62 155.53,-153.47 147.65,-154.3"/>
<polygon fill="#63b8ff" stroke="#63b8ff" points="171.7,-155.28 181.28,-150.75 170.97,-148.32 171.7,-155.28"/>
</a>
</g>
</g>
<!-- Node6 -->
<g id="Node000006" class="node">
<title>Node6</title>
<g id="a_Node000006"><a xlink:href="_test_config_view_observer_8cpp.html#a807634d359f099cd9da3df90ad6798d1" target="_top" xlink:title=" ">
<polygon fill="white" stroke="#666666" points="147.25,-134 0,-134 0,-114 147.25,-114 147.25,-134"/>
<text xml:space="preserve" text-anchor="middle" x="73.62" y="-120.5" font-family="Helvetica,sans-Serif" font-size="10.00">BOOST_AUTO_TEST_CASE</text>
</a>
</g>
</g>
<!-- Node1&#45;&gt;Node6 -->
<g id="edge5_Node000001_Node000006" class="edge">
<title>Node1&#45;&gt;Node6</title>
<g id="a_edge5_Node000001_Node000006"><a xlink:title=" ">
<path fill="none" stroke="#63b8ff" d="M171.57,-134.23C163.59,-133.38 155.53,-132.53 147.65,-131.7"/>
<polygon fill="#63b8ff" stroke="#63b8ff" points="170.97,-137.68 181.28,-135.25 171.7,-130.72 170.97,-137.68"/>
</a>
</g>
</g>
<!-- Node7 -->
<g id="Node000007" class="node">
<title>Node7</title>
<g id="a_Node000007"><a xlink:href="_test_config_view_observer_8cpp.html#aab1032a3b4ed28c3285d23d98aaa4272" target="_top" xlink:title=" ">
<polygon fill="white" stroke="#666666" points="147.25,-96 0,-96 0,-76 147.25,-76 147.25,-96"/>
<text xml:space="preserve" text-anchor="middle" x="73.62" y="-82.5" font-family="Helvetica,sans-Serif" font-size="10.00">BOOST_AUTO_TEST_CASE</text>
</a>
</g>
</g>
<!-- Node1&#45;&gt;Node7 -->
<g id="edge6_Node000001_Node000007" class="edge">
<title>Node1&#45;&gt;Node7</title>
<g id="a_edge6_Node000001_Node000007"><a xlink:title=" ">
<path fill="none" stroke="#63b8ff" d="M183.11,-116.74C171.19,-112.64 158.91,-108.58 147.25,-105 137.53,-102.02 126.99,-99.09 117.04,-96.46"/>
<polygon fill="#63b8ff" stroke="#63b8ff" points="181.91,-120.03 192.5,-120 184.21,-113.41 181.91,-120.03"/>
</a>
</g>
</g>
<!-- Node8 -->
<g id="Node000008" class="node">
<title>Node8</title>
<g id="a_Node000008"><a xlink:href="_test_config_view_observer_8cpp.html#ac82fb4087697e2616162f19585512b04" target="_top" xlink:title=" ">
<polygon fill="white" stroke="#666666" points="147.25,-58 0,-58 0,-38 147.25,-38 147.25,-58"/>
<text xml:space="preserve" text-anchor="middle" x="73.62" y="-44.5" font-family="Helvetica,sans-Serif" font-size="10.00">BOOST_AUTO_TEST_CASE</text>
</a>
</g>
</g>
<!-- Node1&#45;&gt;Node8 -->
<g id="edge7_Node000001_Node000008" class="edge">
<title>Node1&#45;&gt;Node8</title>
<g id="a_edge7_Node000001_Node000008"><a xlink:title=" ">
<path fill="none" stroke="#63b8ff" d="M220.23,-113.74C200.06,-97.93 173.49,-79.21 147.25,-67 140.04,-63.65 132.15,-60.81 124.3,-58.44"/>
<polygon fill="#63b8ff" stroke="#63b8ff" points="217.84,-116.31 227.84,-119.82 222.21,-110.84 217.84,-116.31"/>
</a>
</g>
</g>
<!-- Node9 -->
<g id="Node000009" class="node">
<title>Node9</title>
<g id="a_Node000009"><a xlink:href="_test_config_view_observer_8cpp.html#a3f36f52f4880dfe455c8b895a1334efb" target="_top" xlink:title=" ">
<polygon fill="white" stroke="#666666" points="147.25,-20 0,-20 0,0 147.25,0 147.25,-20"/>
<text xml:space="preserve" text-anchor="middle" x="73.62" y="-6.5" font-family="Helvetica,sans-Serif" font-size="10.00">BOOST_AUTO_TEST_CASE</text>
</a>
</g>
</g>
<!-- Node1&#45;&gt;Node9 -->
<g id="edge8_Node000001_Node000009" class="edge">
<title>Node1&#45;&gt;Node9</title>
<g id="a_edge8_Node000001_Node000009"><a xlink:title=" ">
<path fill="none" stroke="#63b8ff" d="M232.97,-111.52C213.43,-85.62 182.47,-49.89 147.25,-29 141.42,-25.54 134.96,-22.71 128.37,-20.38"/>
<polygon fill="#63b8ff" stroke="#63b8ff" points="230,-113.38 238.75,-119.36 235.63,-109.23 230,-113.38"/>
</a>
</g>
</g>
</g>
</svg>
</svg>

<style type='text/css'>
<![CDATA[
[data-mouse-over-selected='false'] { opacity: 0.7; }
[data-mouse-over-selected='true']  { opacity: 1.0; }
]]>
</style>
<script type="application/ecmascript"><![CDATA[
document.addEventListener('DOMContentLoaded', (event) => {
  highlightEdges();
  highlightAdjacentNodes();
});
]]></script>
</svg>
