<?xml version="1.0" encoding="UTF-8" standalone="no"?>
<!DOCTYPE svg PUBLIC "-//W3C//DTD SVG 1.1//EN"
 "http://www.w3.org/Graphics/SVG/1.1/DTD/svg11.dtd">
<!-- Generated by graphviz version 14.1.2 (20260124.0452)
 -->
<!-- Title: depicture_menu::applications::backup_json::read_backup_dto Pages: 1 -->
<svg width="899pt" height="212pt"
 viewBox="0.00 0.00 899.00 212.00" xmlns="http://www.w3.org/2000/svg" xmlns:xlink="http://www.w3.org/1999/xlink">
<g id="graph0" class="graph" transform="scale(1 1) rotate(0) translate(4 208)">
<title>depicture_menu::applications::backup_json::read_backup_dto</title>
<!-- Node1 -->
<g id="Node000001" class="node">
<title>Node1</title>
<g id="a_Node000001"><a xlink:title="ファイルパスからbackup DTO 読み込み">
<polygon fill="#999999" stroke="#666666" points="157,-204 0,-204 0,-172 157,-172 157,-204"/>
<text xml:space="preserve" text-anchor="start" x="8" y="-190.5" font-family="Helvetica,sans-Serif" font-size="10.00">depicture_menu::applications</text>
<text xml:space="preserve" text-anchor="middle" x="78.5" y="-178.5" font-family="Helvetica,sans-Serif" font-size="10.00">::backup_json::read_backup_dto</text>
</a>
</g>
</g>
<!-- Node2 -->
<g id="Node000002" class="node">
<title>Node2</title>
<g id="a_Node000002"><a xlink:href="namespacedepicture__menu_1_1applications_1_1backup__json_1_1detail.html#a3e231b62ee483eebf603f3a54cc82ee3" target="_top" xlink:title="エラー値構築関数">
<polygon fill="white" stroke="#666666" points="890.75,-175 748,-175 748,-131 890.75,-131 890.75,-175"/>
<text xml:space="preserve" text-anchor="start" x="756" y="-161.5" font-family="Helvetica,sans-Serif" font-size="10.00">depicture_menu::applications</text>
<text xml:space="preserve" text-anchor="start" x="756" y="-149.5" font-family="Helvetica,sans-Serif" font-size="10.00">::backup_json::detail::make</text>
<text xml:space="preserve" text-anchor="middle" x="819.38" y="-137.5" font-family="Helvetica,sans-Serif" font-size="10.00">_error_code</text>
</a>
</g>
</g>
<!-- Node1&#45;&gt;Node2 -->
<g id="edge1_Node000001_Node000002" class="edge">
<title>Node1&#45;&gt;Node2</title>
<g id="a_edge1_Node000001_Node000002"><a xlink:title=" ">
<path fill="none" stroke="#63b8ff" d="M157.34,-190.33C169.28,-190.61 181.47,-190.85 193,-191 423.82,-194.05 482.6,-196.74 712,-171 719.93,-170.11 728.18,-169.02 736.4,-167.81"/>
<polygon fill="#63b8ff" stroke="#63b8ff" points="736.72,-171.3 746.08,-166.34 735.67,-164.38 736.72,-171.3"/>
</a>
</g>
</g>
<!-- Node3 -->
<g id="Node000003" class="node">
<title>Node3</title>
<g id="a_Node000003"><a xlink:href="namespacedepicture__menu_1_1applications_1_1backup__json.html#a4326af1df0a360ec1ec1cbac3a69a961" target="_top" xlink:title="jsonファイルパスからbackup json DTO 読み込み">
<polygon fill="white" stroke="#666666" points="354.5,-182 193,-182 193,-150 354.5,-150 354.5,-182"/>
<text xml:space="preserve" text-anchor="start" x="201" y="-168.5" font-family="Helvetica,sans-Serif" font-size="10.00">depicture_menu::applications</text>
<text xml:space="preserve" text-anchor="middle" x="273.75" y="-156.5" font-family="Helvetica,sans-Serif" font-size="10.00">::backup_json::read_backup_json</text>
</a>
</g>
</g>
<!-- Node1&#45;&gt;Node3 -->
<g id="edge2_Node000001_Node000003" class="edge">
<title>Node1&#45;&gt;Node3</title>
<g id="a_edge2_Node000001_Node000003"><a xlink:title=" ">
<path fill="none" stroke="#63b8ff" d="M157.27,-179.15C165.18,-178.25 173.27,-177.33 181.31,-176.41"/>
<polygon fill="#63b8ff" stroke="#63b8ff" points="181.58,-179.9 191.12,-175.29 180.78,-172.95 181.58,-179.9"/>
</a>
</g>
</g>
<!-- Node3&#45;&gt;Node2 -->
<g id="edge3_Node000003_Node000002" class="edge">
<title>Node3&#45;&gt;Node2</title>
<g id="a_edge3_Node000003_Node000002"><a xlink:title=" ">
<path fill="none" stroke="#63b8ff" d="M354.96,-164.08C457.31,-161.63 633.38,-157.42 736.51,-154.96"/>
<polygon fill="#63b8ff" stroke="#63b8ff" points="736.36,-158.46 746.28,-154.72 736.19,-151.46 736.36,-158.46"/>
</a>
</g>
</g>
<!-- Node4 -->
<g id="Node000004" class="node">
<title>Node4</title>
<g id="a_Node000004"><a xlink:href="namespacedepicture__menu_1_1applications_1_1backup__json.html#a68903e2f5e99f26890574ae88caad36c" target="_top" xlink:title="json文字列からbackup DTOに変換">
<polygon fill="white" stroke="#666666" points="533.25,-125 390.5,-125 390.5,-81 533.25,-81 533.25,-125"/>
<text xml:space="preserve" text-anchor="start" x="398.5" y="-111.5" font-family="Helvetica,sans-Serif" font-size="10.00">depicture_menu::applications</text>
<text xml:space="preserve" text-anchor="start" x="398.5" y="-99.5" font-family="Helvetica,sans-Serif" font-size="10.00">::backup_json::read_backup</text>
<text xml:space="preserve" text-anchor="middle" x="461.88" y="-87.5" font-family="Helvetica,sans-Serif" font-size="10.00">_json_impl</text>
</a>
</g>
</g>
<!-- Node3&#45;&gt;Node4 -->
<g id="edge4_Node000003_Node000004" class="edge">
<title>Node3&#45;&gt;Node4</title>
<g id="a_edge4_Node000003_Node000004"><a xlink:title=" ">
<path fill="none" stroke="#63b8ff" d="M323.17,-149.61C341.69,-143.34 363.32,-136.02 383.86,-129.07"/>
<polygon fill="#63b8ff" stroke="#63b8ff" points="384.7,-132.48 393.05,-125.96 382.46,-125.85 384.7,-132.48"/>
</a>
</g>
</g>
<!-- Node4&#45;&gt;Node2 -->
<g id="edge6_Node000004_Node000002" class="edge">
<title>Node4&#45;&gt;Node2</title>
<g id="a_edge6_Node000004_Node000002"><a xlink:title=" ">
<path fill="none" stroke="#63b8ff" d="M533.54,-112.94C591.96,-121.16 675,-132.83 736.35,-141.46"/>
<polygon fill="#63b8ff" stroke="#63b8ff" points="735.66,-144.9 746.05,-142.83 736.63,-137.97 735.66,-144.9"/>
</a>
</g>
</g>
<!-- Node5 -->
<g id="Node000005" class="node">
<title>Node5</title>
<g id="a_Node000005"><a xlink:href="namespacedepicture__menu_1_1applications_1_1backup__json_1_1formats.html#a9e863dd7ba8f6dd1ee83718d9ee2fd30" target="_top" xlink:title=" ">
<polygon fill="white" stroke="#666666" points="712,-106 569.25,-106 569.25,-62 712,-62 712,-106"/>
<text xml:space="preserve" text-anchor="start" x="577.25" y="-92.5" font-family="Helvetica,sans-Serif" font-size="10.00">depicture_menu::applications</text>
<text xml:space="preserve" text-anchor="start" x="577.25" y="-80.5" font-family="Helvetica,sans-Serif" font-size="10.00">::backup_json::formats::get</text>
<text xml:space="preserve" text-anchor="middle" x="640.62" y="-68.5" font-family="Helvetica,sans-Serif" font-size="10.00">_latest_format_version</text>
</a>
</g>
</g>
<!-- Node4&#45;&gt;Node5 -->
<g id="edge5_Node000004_Node000005" class="edge">
<title>Node4&#45;&gt;Node5</title>
<g id="a_edge5_Node000004_Node000005"><a xlink:title=" ">
<path fill="none" stroke="#63b8ff" d="M533.75,-95.38C541.65,-94.53 549.74,-93.66 557.76,-92.8"/>
<polygon fill="#63b8ff" stroke="#63b8ff" points="557.95,-96.3 567.52,-91.75 557.2,-89.34 557.95,-96.3"/>
</a>
</g>
</g>
<!-- Node6 -->
<g id="Node000006" class="node">
<title>Node6</title>
<g id="a_Node000006"><a xlink:href="namespacedepicture__menu_1_1applications_1_1backup__json.html#a4b92dd4ce35fec07d5d30021f80600fa" target="_top" xlink:title="backup data version 取得">
<polygon fill="white" stroke="#666666" points="712,-44 569.25,-44 569.25,0 712,0 712,-44"/>
<text xml:space="preserve" text-anchor="start" x="577.25" y="-30.5" font-family="Helvetica,sans-Serif" font-size="10.00">depicture_menu::applications</text>
<text xml:space="preserve" text-anchor="start" x="577.25" y="-18.5" font-family="Helvetica,sans-Serif" font-size="10.00">::backup_json::read_backup</text>
<text xml:space="preserve" text-anchor="middle" x="640.62" y="-6.5" font-family="Helvetica,sans-Serif" font-size="10.00">_version</text>
</a>
</g>
</g>
<!-- Node4&#45;&gt;Node6 -->
<g id="edge7_Node000004_Node000006" class="edge">
<title>Node4&#45;&gt;Node6</title>
<g id="a_edge7_Node000004_Node000006"><a xlink:title=" ">
<path fill="none" stroke="#63b8ff" d="M509.89,-80.6C528.35,-71.88 549.75,-61.88 569.25,-53 572.15,-51.68 575.13,-50.33 578.14,-48.98"/>
<polygon fill="#63b8ff" stroke="#63b8ff" points="579.36,-52.27 587.06,-44.99 576.5,-45.88 579.36,-52.27"/>
</a>
</g>
</g>
<!-- Node6&#45;&gt;Node2 -->
<g id="edge8_Node000006_Node000002" class="edge">
<title>Node6&#45;&gt;Node2</title>
<g id="a_edge8_Node000006_Node000002"><a xlink:title=" ">
<path fill="none" stroke="#63b8ff" d="M697.5,-44.48C702.53,-47.13 707.44,-49.98 712,-53 741.85,-72.76 771.15,-101.16 791.41,-122.65"/>
<polygon fill="#63b8ff" stroke="#63b8ff" points="788.59,-124.75 797.95,-129.69 793.71,-119.98 788.59,-124.75"/>
</a>
</g>
</g>
</g>
</svg>
