<?xml version="1.0" encoding="UTF-8" standalone="no"?>
<!DOCTYPE svg PUBLIC "-//W3C//DTD SVG 1.1//EN"
 "http://www.w3.org/Graphics/SVG/1.1/DTD/svg11.dtd">
<!-- Generated by graphviz version 14.1.2 (20260124.0452)
 -->
<!-- Title: depicture_menu::domain::common::get_blue Pages: 1 -->
<svg width="891pt" height="564pt"
 viewBox="0.00 0.00 891.00 564.00" xmlns="http://www.w3.org/2000/svg" xmlns:xlink="http://www.w3.org/1999/xlink">
<g id="graph0" class="graph" transform="scale(1 1) rotate(0) translate(4 560)">
<title>depicture_menu::domain::common::get_blue</title>
<!-- Node1 -->
<g id="Node000001" class="node">
<title>Node1</title>
<g id="a_Node000001"><a xlink:title=" ">
<polygon fill="#999999" stroke="#666666" points="883.25,-210 760.75,-210 760.75,-178 883.25,-178 883.25,-210"/>
<text xml:space="preserve" text-anchor="start" x="768.75" y="-196.5" font-family="Helvetica,sans-Serif" font-size="10.00">depicture_menu::domain</text>
<text xml:space="preserve" text-anchor="middle" x="822" y="-184.5" font-family="Helvetica,sans-Serif" font-size="10.00">::common::get_blue</text>
</a>
</g>
</g>
<!-- Node2 -->
<g id="Node000002" class="node">
<title>Node2</title>
<g id="a_Node000002"><a xlink:href="namespacedepicture__menu_1_1domain_1_1common.html#a39911c1404793a9ddec939db345ea16b" target="_top" xlink:title=" ">
<polygon fill="white" stroke="#666666" points="707.12,-481 584.62,-481 584.62,-449 707.12,-449 707.12,-481"/>
<text xml:space="preserve" text-anchor="start" x="592.62" y="-467.5" font-family="Helvetica,sans-Serif" font-size="10.00">depicture_menu::domain</text>
<text xml:space="preserve" text-anchor="middle" x="645.88" y="-455.5" font-family="Helvetica,sans-Serif" font-size="10.00">::common::ensure</text>
</a>
</g>
</g>
<!-- Node1&#45;&gt;Node2 -->
<g id="edge1_Node000001_Node000002" class="edge">
<title>Node1&#45;&gt;Node2</title>
<g id="a_edge1_Node000001_Node000002"><a xlink:title=" ">
<path fill="none" stroke="#63b8ff" d="M817.91,-221.74C810.8,-272.34 788.67,-379.95 724.75,-440 719.68,-444.76 713.7,-448.62 707.34,-451.74"/>
<polygon fill="#63b8ff" stroke="#63b8ff" points="821.36,-222.31 819.18,-211.94 814.42,-221.41 821.36,-222.31"/>
</a>
</g>
</g>
<!-- Node3 -->
<g id="Node000003" class="node">
<title>Node3</title>
<g id="a_Node000003"><a xlink:href="structdepicture__menu_1_1domain_1_1common_1_1rgba__color.html#ae88437eac8806ea4ec0b09f9b71f7185" target="_top" xlink:title="RGBカラーコンセプトから構成">
<polygon fill="white" stroke="#666666" points="707.12,-312 584.62,-312 584.62,-268 707.12,-268 707.12,-312"/>
<text xml:space="preserve" text-anchor="start" x="592.62" y="-298.5" font-family="Helvetica,sans-Serif" font-size="10.00">depicture_menu::domain</text>
<text xml:space="preserve" text-anchor="start" x="592.62" y="-286.5" font-family="Helvetica,sans-Serif" font-size="10.00">::common::rgba_color::</text>
<text xml:space="preserve" text-anchor="middle" x="645.88" y="-274.5" font-family="Helvetica,sans-Serif" font-size="10.00">from_rgb</text>
</a>
</g>
</g>
<!-- Node1&#45;&gt;Node3 -->
<g id="edge2_Node000001_Node000003" class="edge">
<title>Node1&#45;&gt;Node3</title>
<g id="a_edge2_Node000001_Node000003"><a xlink:title=" ">
<path fill="none" stroke="#63b8ff" d="M786.55,-216.35C768.43,-227.79 745.69,-241.65 724.75,-253 715.54,-257.99 705.54,-263.02 695.88,-267.69"/>
<polygon fill="#63b8ff" stroke="#63b8ff" points="788.26,-219.41 794.82,-211.09 784.51,-213.5 788.26,-219.41"/>
</a>
</g>
</g>
<!-- Node7 -->
<g id="Node000007" class="node">
<title>Node7</title>
<g id="a_Node000007"><a xlink:href="structdepicture__menu_1_1domain_1_1common_1_1rgba__color.html#af628cd8308653e5f05ee6bbdd070e054" target="_top" xlink:title="RGBAカラーコンセプトから構成">
<polygon fill="white" stroke="#666666" points="707.12,-244 584.62,-244 584.62,-200 707.12,-200 707.12,-244"/>
<text xml:space="preserve" text-anchor="start" x="592.62" y="-230.5" font-family="Helvetica,sans-Serif" font-size="10.00">depicture_menu::domain</text>
<text xml:space="preserve" text-anchor="start" x="592.62" y="-218.5" font-family="Helvetica,sans-Serif" font-size="10.00">::common::rgba_color::</text>
<text xml:space="preserve" text-anchor="middle" x="645.88" y="-206.5" font-family="Helvetica,sans-Serif" font-size="10.00">from_rgba</text>
</a>
</g>
</g>
<!-- Node1&#45;&gt;Node7 -->
<g id="edge6_Node000001_Node000007" class="edge">
<title>Node1&#45;&gt;Node7</title>
<g id="a_edge6_Node000001_Node000007"><a xlink:title=" ">
<path fill="none" stroke="#63b8ff" d="M749.53,-205.49C735.57,-207.74 721.05,-210.07 707.47,-212.26"/>
<polygon fill="#63b8ff" stroke="#63b8ff" points="749.78,-209 759.09,-203.95 748.66,-202.09 749.78,-209"/>
</a>
</g>
</g>
<!-- Node11 -->
<g id="Node000011" class="node">
<title>Node11</title>
<g id="a_Node000011"><a xlink:href="namespacedepicture__menu_1_1domain_1_1common.html#a5a339195e37f4a00876ee35bfbd342ce" target="_top" xlink:title=" ">
<polygon fill="white" stroke="#666666" points="707.12,-182 584.62,-182 584.62,-150 707.12,-150 707.12,-182"/>
<text xml:space="preserve" text-anchor="start" x="592.62" y="-168.5" font-family="Helvetica,sans-Serif" font-size="10.00">depicture_menu::domain</text>
<text xml:space="preserve" text-anchor="middle" x="645.88" y="-156.5" font-family="Helvetica,sans-Serif" font-size="10.00">::common::get_rgb</text>
</a>
</g>
</g>
<!-- Node1&#45;&gt;Node11 -->
<g id="edge10_Node000001_Node000011" class="edge">
<title>Node1&#45;&gt;Node11</title>
<g id="a_edge10_Node000001_Node000011"><a xlink:title=" ">
<path fill="none" stroke="#63b8ff" d="M749.53,-182.51C735.57,-180.26 721.05,-177.93 707.47,-175.74"/>
<polygon fill="#63b8ff" stroke="#63b8ff" points="748.66,-185.91 759.09,-184.05 749.78,-179 748.66,-185.91"/>
</a>
</g>
</g>
<!-- Node13 -->
<g id="Node000013" class="node">
<title>Node13</title>
<g id="a_Node000013"><a xlink:href="namespacedepicture__menu_1_1domain_1_1common.html#a828968beb45cd360425240c07e9dca64" target="_top" xlink:title=" ">
<polygon fill="white" stroke="#666666" points="707.12,-132 584.62,-132 584.62,-100 707.12,-100 707.12,-132"/>
<text xml:space="preserve" text-anchor="start" x="592.62" y="-118.5" font-family="Helvetica,sans-Serif" font-size="10.00">depicture_menu::domain</text>
<text xml:space="preserve" text-anchor="middle" x="645.88" y="-106.5" font-family="Helvetica,sans-Serif" font-size="10.00">::common::get_rgba</text>
</a>
</g>
</g>
<!-- Node1&#45;&gt;Node13 -->
<g id="edge12_Node000001_Node000013" class="edge">
<title>Node1&#45;&gt;Node13</title>
<g id="a_edge12_Node000001_Node000013"><a xlink:title=" ">
<path fill="none" stroke="#63b8ff" d="M784.83,-171.91C767.12,-161.67 745.25,-149.84 724.75,-141 717.71,-137.96 710.17,-135.1 702.66,-132.46"/>
<polygon fill="#63b8ff" stroke="#63b8ff" points="783.03,-174.92 793.42,-176.96 786.57,-168.88 783.03,-174.92"/>
</a>
</g>
</g>
<!-- Node15 -->
<g id="Node000015" class="node">
<title>Node15</title>
<g id="a_Node000015"><a xlink:href="namespacedepicture__menu_1_1domain_1_1common.html#a5635cafa6f0d4e21e04ea5e56817d068" target="_top" xlink:title=" ">
<polygon fill="white" stroke="#666666" points="708.25,-82 583.5,-82 583.5,-50 708.25,-50 708.25,-82"/>
<text xml:space="preserve" text-anchor="start" x="591.5" y="-68.5" font-family="Helvetica,sans-Serif" font-size="10.00">depicture_menu::domain</text>
<text xml:space="preserve" text-anchor="middle" x="645.88" y="-56.5" font-family="Helvetica,sans-Serif" font-size="10.00">::common::to_argb_array</text>
</a>
</g>
</g>
<!-- Node1&#45;&gt;Node15 -->
<g id="edge15_Node000001_Node000015" class="edge">
<title>Node1&#45;&gt;Node15</title>
<g id="a_edge15_Node000001_Node000015"><a xlink:title=" ">
<path fill="none" stroke="#63b8ff" d="M803.09,-168.37C785.59,-145.11 756.95,-111.41 724.75,-91 719.59,-87.73 713.97,-84.86 708.19,-82.33"/>
<polygon fill="#63b8ff" stroke="#63b8ff" points="800.25,-170.42 808.99,-176.42 805.9,-166.28 800.25,-170.42"/>
</a>
</g>
</g>
<!-- Node16 -->
<g id="Node000016" class="node">
<title>Node16</title>
<g id="a_Node000016"><a xlink:href="namespacedepicture__menu_1_1domain_1_1common.html#ad99f01fe7cbfce350b779f0598733018" target="_top" xlink:title=" ">
<polygon fill="white" stroke="#666666" points="708.25,-32 583.5,-32 583.5,0 708.25,0 708.25,-32"/>
<text xml:space="preserve" text-anchor="start" x="591.5" y="-18.5" font-family="Helvetica,sans-Serif" font-size="10.00">depicture_menu::domain</text>
<text xml:space="preserve" text-anchor="middle" x="645.88" y="-6.5" font-family="Helvetica,sans-Serif" font-size="10.00">::common::to_rgba_array</text>
</a>
</g>
</g>
<!-- Node1&#45;&gt;Node16 -->
<g id="edge16_Node000001_Node000016" class="edge">
<title>Node1&#45;&gt;Node16</title>
<g id="a_edge16_Node000001_Node000016"><a xlink:title=" ">
<path fill="none" stroke="#63b8ff" d="M810.83,-166.91C796.65,-132.72 767.74,-74.36 724.75,-41 719.81,-37.17 714.27,-33.92 708.48,-31.16"/>
<polygon fill="#63b8ff" stroke="#63b8ff" points="807.55,-168.12 814.51,-176.1 814.04,-165.52 807.55,-168.12"/>
</a>
</g>
</g>
<!-- Node17 -->
<g id="Node000017" class="node">
<title>Node17</title>
<g id="a_Node000017"><a xlink:href="namespacedepicture__menu_1_1domain_1_1common_1_1helper.html#a004cd9f97f6ccb07be2ebdf656f5444d" target="_top" xlink:title="RGB各チャンネル毎の射影ヘルパー">
<polygon fill="white" stroke="#666666" points="724.75,-431 567,-431 567,-399 724.75,-399 724.75,-431"/>
<text xml:space="preserve" text-anchor="start" x="575" y="-417.5" font-family="Helvetica,sans-Serif" font-size="10.00">depicture_menu::domain</text>
<text xml:space="preserve" text-anchor="middle" x="645.88" y="-405.5" font-family="Helvetica,sans-Serif" font-size="10.00">::common::helper::transform_rgb</text>
</a>
</g>
</g>
<!-- Node1&#45;&gt;Node17 -->
<g id="edge17_Node000001_Node000017" class="edge">
<title>Node1&#45;&gt;Node17</title>
<g id="a_edge17_Node000001_Node000017"><a xlink:title=" ">
<path fill="none" stroke="#63b8ff" d="M802.32,-219.31C783.16,-245.12 752.33,-286.2 724.75,-321 702.9,-348.57 676.64,-379.91 660.88,-398.54"/>
<polygon fill="#63b8ff" stroke="#63b8ff" points="805.02,-221.54 808.16,-211.43 799.4,-217.38 805.02,-221.54"/>
</a>
</g>
</g>
<!-- Node4 -->
<g id="Node000004" class="node">
<title>Node4</title>
<g id="a_Node000004"><a xlink:href="classdepicture__menu_1_1presentations_1_1menu__view__presenter.html#ac97fef37701785b4132172963a771071" target="_top" xlink:title="メニュー表示">
<polygon fill="white" stroke="#666666" points="347.75,-406 183.25,-406 183.25,-374 347.75,-374 347.75,-406"/>
<text xml:space="preserve" text-anchor="start" x="191.25" y="-392.5" font-family="Helvetica,sans-Serif" font-size="10.00">depicture_menu::presentations</text>
<text xml:space="preserve" text-anchor="middle" x="265.5" y="-380.5" font-family="Helvetica,sans-Serif" font-size="10.00">::menu_view_presenter::operator()</text>
</a>
</g>
</g>
<!-- Node3&#45;&gt;Node4 -->
<g id="edge3_Node000003_Node000004" class="edge">
<title>Node3&#45;&gt;Node4</title>
<g id="a_edge3_Node000003_Node000004"><a xlink:title=" ">
<path fill="none" stroke="#63b8ff" d="M573.66,-314.11C559.58,-318.6 544.87,-323.1 531,-327 468.06,-344.69 395.8,-361.68 342.74,-373.55"/>
<polygon fill="#63b8ff" stroke="#63b8ff" points="574.39,-317.55 582.84,-311.15 572.25,-310.89 574.39,-317.55"/>
</a>
</g>
</g>
<!-- Node5 -->
<g id="Node000005" class="node">
<title>Node5</title>
<g id="a_Node000005"><a xlink:href="classdepicture__menu_1_1domain_1_1menu_1_1menu__color.html#ae8187d7777c38188ef0f64037b11864f" target="_top" xlink:title="背景色を変更したオブジェクトを取得">
<polygon fill="white" stroke="#666666" points="520.5,-318 394.25,-318 394.25,-274 520.5,-274 520.5,-318"/>
<text xml:space="preserve" text-anchor="start" x="402.25" y="-304.5" font-family="Helvetica,sans-Serif" font-size="10.00">depicture_menu::domain</text>
<text xml:space="preserve" text-anchor="start" x="402.25" y="-292.5" font-family="Helvetica,sans-Serif" font-size="10.00">::menu::menu_color::with</text>
<text xml:space="preserve" text-anchor="middle" x="457.38" y="-280.5" font-family="Helvetica,sans-Serif" font-size="10.00">_back_color</text>
</a>
</g>
</g>
<!-- Node3&#45;&gt;Node5 -->
<g id="edge4_Node000003_Node000005" class="edge">
<title>Node3&#45;&gt;Node5</title>
<g id="a_edge4_Node000003_Node000005"><a xlink:title=" ">
<path fill="none" stroke="#63b8ff" d="M573.17,-292.31C555.93,-292.86 537.65,-293.45 520.86,-293.99"/>
<polygon fill="#63b8ff" stroke="#63b8ff" points="572.93,-295.82 582.81,-292 572.7,-288.82 572.93,-295.82"/>
</a>
</g>
</g>
<!-- Node6 -->
<g id="Node000006" class="node">
<title>Node6</title>
<g id="a_Node000006"><a xlink:href="classdepicture__menu_1_1domain_1_1menu_1_1menu__color.html#ac4d8122efe67b53723b63cbe11a72ff0" target="_top" xlink:title="前景色を変更したオブジェクトを取得">
<polygon fill="white" stroke="#666666" points="520.5,-256 394.25,-256 394.25,-212 520.5,-212 520.5,-256"/>
<text xml:space="preserve" text-anchor="start" x="402.25" y="-242.5" font-family="Helvetica,sans-Serif" font-size="10.00">depicture_menu::domain</text>
<text xml:space="preserve" text-anchor="start" x="402.25" y="-230.5" font-family="Helvetica,sans-Serif" font-size="10.00">::menu::menu_color::with</text>
<text xml:space="preserve" text-anchor="middle" x="457.38" y="-218.5" font-family="Helvetica,sans-Serif" font-size="10.00">_fore_color</text>
</a>
</g>
</g>
<!-- Node3&#45;&gt;Node6 -->
<g id="edge5_Node000003_Node000006" class="edge">
<title>Node3&#45;&gt;Node6</title>
<g id="a_edge5_Node000003_Node000006"><a xlink:title=" ">
<path fill="none" stroke="#63b8ff" d="M573.66,-268.62C556.28,-263.4 537.81,-257.85 520.86,-252.76"/>
<polygon fill="#63b8ff" stroke="#63b8ff" points="572.29,-271.86 582.87,-271.38 574.3,-265.16 572.29,-271.86"/>
</a>
</g>
</g>
<!-- Node8 -->
<g id="Node000008" class="node">
<title>Node8</title>
<g id="a_Node000008"><a xlink:href="namespacedepicture__menu_1_1usecase_1_1backup.html#abdcff53881bb37c6cd4cce8bd8385973" target="_top" xlink:title=" ">
<polygon fill="white" stroke="#666666" points="521.25,-194 393.5,-194 393.5,-150 521.25,-150 521.25,-194"/>
<text xml:space="preserve" text-anchor="start" x="401.5" y="-180.5" font-family="Helvetica,sans-Serif" font-size="10.00">depicture_menu::usecase</text>
<text xml:space="preserve" text-anchor="start" x="401.5" y="-168.5" font-family="Helvetica,sans-Serif" font-size="10.00">::backup::create_config</text>
<text xml:space="preserve" text-anchor="middle" x="457.38" y="-156.5" font-family="Helvetica,sans-Serif" font-size="10.00">_entity</text>
</a>
</g>
</g>
<!-- Node7&#45;&gt;Node8 -->
<g id="edge7_Node000007_Node000008" class="edge">
<title>Node7&#45;&gt;Node8</title>
<g id="a_edge7_Node000007_Node000008"><a xlink:title=" ">
<path fill="none" stroke="#63b8ff" d="M573.29,-202.81C556.23,-198.24 538.15,-193.39 521.51,-188.93"/>
<polygon fill="#63b8ff" stroke="#63b8ff" points="572.3,-206.17 582.86,-205.37 574.11,-199.4 572.3,-206.17"/>
</a>
</g>
</g>
<!-- Node9 -->
<g id="Node000009" class="node">
<title>Node9</title>
<g id="a_Node000009"><a xlink:href="_test_export_backup__config_8cpp.html#a5fe0ff451c75fb43e58d6e57c4b65750" target="_top" xlink:title=" ">
<polygon fill="white" stroke="#666666" points="147.25,-360 0,-360 0,-340 147.25,-340 147.25,-360"/>
<text xml:space="preserve" text-anchor="middle" x="73.62" y="-346.5" font-family="Helvetica,sans-Serif" font-size="10.00">BOOST_AUTO_TEST_CASE</text>
</a>
</g>
</g>
<!-- Node8&#45;&gt;Node9 -->
<g id="edge8_Node000008_Node000009" class="edge">
<title>Node8&#45;&gt;Node9</title>
<g id="a_edge8_Node000008_Node000009"><a xlink:title=" ">
<path fill="none" stroke="#63b8ff" d="M392.72,-199C389.68,-200.34 386.68,-201.68 383.75,-203 274.59,-252.23 145.76,-315.03 95.85,-339.54"/>
<polygon fill="#63b8ff" stroke="#63b8ff" points="393.98,-202.27 401.73,-195.05 391.17,-195.86 393.98,-202.27"/>
</a>
</g>
</g>
<!-- Node10 -->
<g id="Node000010" class="node">
<title>Node10</title>
<g id="a_Node000010"><a xlink:href="classdepicture__menu_1_1usecase_1_1backup_1_1import__backup.html#a88fb36efae995f4fdd54393605fdc7a1" target="_top" xlink:title=" ">
<polygon fill="white" stroke="#666666" points="329.38,-194 201.62,-194 201.62,-150 329.38,-150 329.38,-194"/>
<text xml:space="preserve" text-anchor="start" x="209.62" y="-180.5" font-family="Helvetica,sans-Serif" font-size="10.00">depicture_menu::usecase</text>
<text xml:space="preserve" text-anchor="start" x="209.62" y="-168.5" font-family="Helvetica,sans-Serif" font-size="10.00">::backup::import_backup</text>
<text xml:space="preserve" text-anchor="middle" x="265.5" y="-156.5" font-family="Helvetica,sans-Serif" font-size="10.00">::done_import</text>
</a>
</g>
</g>
<!-- Node8&#45;&gt;Node10 -->
<g id="edge9_Node000008_Node000010" class="edge">
<title>Node8&#45;&gt;Node10</title>
<g id="a_edge9_Node000008_Node000010"><a xlink:title=" ">
<path fill="none" stroke="#63b8ff" d="M381.97,-172C364.71,-172 346.5,-172 329.77,-172"/>
<polygon fill="#63b8ff" stroke="#63b8ff" points="381.64,-175.5 391.64,-172 381.64,-168.5 381.64,-175.5"/>
</a>
</g>
</g>
<!-- Node12 -->
<g id="Node000012" class="node">
<title>Node12</title>
<g id="a_Node000012"><a xlink:href="namespacedepicture__menu_1_1domain_1_1common.html#a7f4156bdadadc366d5248eccad5dcdbc" target="_top" xlink:title=" ">
<polygon fill="white" stroke="#666666" points="518.62,-132 396.12,-132 396.12,-100 518.62,-100 518.62,-132"/>
<text xml:space="preserve" text-anchor="start" x="404.12" y="-118.5" font-family="Helvetica,sans-Serif" font-size="10.00">depicture_menu::domain</text>
<text xml:space="preserve" text-anchor="middle" x="457.38" y="-106.5" font-family="Helvetica,sans-Serif" font-size="10.00">::common::operator==</text>
</a>
</g>
</g>
<!-- Node11&#45;&gt;Node12 -->
<g id="edge11_Node000011_Node000012" class="edge">
<title>Node11&#45;&gt;Node12</title>
<g id="a_edge11_Node000011_Node000012"><a xlink:title=" ">
<path fill="none" stroke="#63b8ff" d="M573.32,-146.82C555.38,-142.01 536.29,-136.89 518.94,-132.24"/>
<polygon fill="#63b8ff" stroke="#63b8ff" points="572.3,-150.17 582.86,-149.37 574.11,-143.4 572.3,-150.17"/>
</a>
</g>
</g>
<!-- Node13&#45;&gt;Node12 -->
<g id="edge14_Node000013_Node000012" class="edge">
<title>Node13&#45;&gt;Node12</title>
<g id="a_edge14_Node000013_Node000012"><a xlink:title=" ">
<path fill="none" stroke="#63b8ff" d="M572.81,-116C555.02,-116 536.13,-116 518.94,-116"/>
<polygon fill="#63b8ff" stroke="#63b8ff" points="572.81,-119.5 582.81,-116 572.81,-112.5 572.81,-119.5"/>
</a>
</g>
</g>
<!-- Node14 -->
<g id="Node000014" class="node">
<title>Node14</title>
<g id="a_Node000014"><a xlink:href="_test_colors_8cpp.html#a0ba4ff3ec435915cea4dd0214e61051d" target="_top" xlink:title=" ">
<polygon fill="white" stroke="#666666" points="531,-82 383.75,-82 383.75,-62 531,-62 531,-82"/>
<text xml:space="preserve" text-anchor="middle" x="457.38" y="-68.5" font-family="Helvetica,sans-Serif" font-size="10.00">BOOST_AUTO_TEST_CASE</text>
</a>
</g>
</g>
<!-- Node13&#45;&gt;Node14 -->
<g id="edge13_Node000013_Node000014" class="edge">
<title>Node13&#45;&gt;Node14</title>
<g id="a_edge13_Node000013_Node000014"><a xlink:title=" ">
<path fill="none" stroke="#63b8ff" d="M573.22,-99.09C549.47,-93.49 523.74,-87.42 502.67,-82.45"/>
<polygon fill="#63b8ff" stroke="#63b8ff" points="572.31,-102.48 582.85,-101.37 573.92,-95.66 572.31,-102.48"/>
</a>
</g>
</g>
<!-- Node18 -->
<g id="Node000018" class="node">
<title>Node18</title>
<g id="a_Node000018"><a xlink:href="namespacedepicture__menu_1_1domain_1_1common.html#a489762427aadf1319342642f91143575" target="_top" xlink:title="値をリミット">
<polygon fill="white" stroke="#666666" points="518.62,-456 396.12,-456 396.12,-424 518.62,-424 518.62,-456"/>
<text xml:space="preserve" text-anchor="start" x="404.12" y="-442.5" font-family="Helvetica,sans-Serif" font-size="10.00">depicture_menu::domain</text>
<text xml:space="preserve" text-anchor="middle" x="457.38" y="-430.5" font-family="Helvetica,sans-Serif" font-size="10.00">::common::ensure_rgba</text>
</a>
</g>
</g>
<!-- Node17&#45;&gt;Node18 -->
<g id="edge18_Node000017_Node000018" class="edge">
<title>Node17&#45;&gt;Node18</title>
<g id="a_edge18_Node000017_Node000018"><a xlink:title=" ">
<path fill="none" stroke="#63b8ff" d="M555.3,-427.01C542.96,-428.66 530.53,-430.33 518.88,-431.89"/>
<polygon fill="#63b8ff" stroke="#63b8ff" points="555.65,-430.49 565.09,-425.69 554.72,-423.55 555.65,-430.49"/>
</a>
</g>
</g>
<!-- Node19 -->
<g id="Node000019" class="node">
<title>Node19</title>
<g id="a_Node000019"><a xlink:href="namespacedepicture__menu_1_1domain_1_1common.html#aaf1c5b5d88690a4e3b6d18bc4675d0e6" target="_top" xlink:title="カラー加算">
<polygon fill="white" stroke="#666666" points="525.38,-406 389.38,-406 389.38,-374 525.38,-374 525.38,-406"/>
<text xml:space="preserve" text-anchor="start" x="397.38" y="-392.5" font-family="Helvetica,sans-Serif" font-size="10.00">depicture_menu::domain</text>
<text xml:space="preserve" text-anchor="middle" x="457.38" y="-380.5" font-family="Helvetica,sans-Serif" font-size="10.00">::common::linier_dodge_rgb</text>
</a>
</g>
</g>
<!-- Node17&#45;&gt;Node19 -->
<g id="edge20_Node000017_Node000019" class="edge">
<title>Node17&#45;&gt;Node19</title>
<g id="a_edge20_Node000017_Node000019"><a xlink:title=" ">
<path fill="none" stroke="#63b8ff" d="M555.4,-403.01C545.44,-401.67 535.43,-400.33 525.81,-399.04"/>
<polygon fill="#63b8ff" stroke="#63b8ff" points="554.72,-406.45 565.09,-404.31 555.65,-399.51 554.72,-406.45"/>
</a>
</g>
</g>
<!-- Node20 -->
<g id="Node000020" class="node">
<title>Node20</title>
<g id="a_Node000020"><a xlink:href="namespacedepicture__menu_1_1domain_1_1common.html#a9a2a3993b907c0ff1a85a4b53aea5962" target="_top" xlink:title="RGBへキャスト">
<polygon fill="white" stroke="#666666" points="518.62,-556 396.12,-556 396.12,-524 518.62,-524 518.62,-556"/>
<text xml:space="preserve" text-anchor="start" x="404.12" y="-542.5" font-family="Helvetica,sans-Serif" font-size="10.00">depicture_menu::domain</text>
<text xml:space="preserve" text-anchor="middle" x="457.38" y="-530.5" font-family="Helvetica,sans-Serif" font-size="10.00">::common::rgb_cast</text>
</a>
</g>
</g>
<!-- Node17&#45;&gt;Node20 -->
<g id="edge22_Node000017_Node000020" class="edge">
<title>Node17&#45;&gt;Node20</title>
<g id="a_edge22_Node000017_Node000020"><a xlink:title=" ">
<path fill="none" stroke="#63b8ff" d="M569.89,-437.63C568.9,-438.39 567.94,-439.18 567,-440 539.13,-464.3 558.62,-490.41 531,-515 527.31,-518.28 523.18,-521.14 518.8,-523.62"/>
<polygon fill="#63b8ff" stroke="#63b8ff" points="571.64,-440.67 578.08,-432.25 567.8,-434.81 571.64,-440.67"/>
</a>
</g>
</g>
<!-- Node22 -->
<g id="Node000022" class="node">
<title>Node22</title>
<g id="a_Node000022"><a xlink:href="namespacedepicture__menu_1_1domain_1_1common.html#af930cfed4ae67c5a4686d0f1bfc02fff" target="_top" xlink:title="RGBAへキャスト">
<polygon fill="white" stroke="#666666" points="518.62,-506 396.12,-506 396.12,-474 518.62,-474 518.62,-506"/>
<text xml:space="preserve" text-anchor="start" x="404.12" y="-492.5" font-family="Helvetica,sans-Serif" font-size="10.00">depicture_menu::domain</text>
<text xml:space="preserve" text-anchor="middle" x="457.38" y="-480.5" font-family="Helvetica,sans-Serif" font-size="10.00">::common::rgba_cast</text>
</a>
</g>
</g>
<!-- Node17&#45;&gt;Node22 -->
<g id="edge24_Node000017_Node000022" class="edge">
<title>Node17&#45;&gt;Node22</title>
<g id="a_edge24_Node000017_Node000022"><a xlink:title=" ">
<path fill="none" stroke="#63b8ff" d="M576.54,-435.63C573.28,-437.02 570.08,-438.48 567,-440 549.53,-448.63 548.37,-456.19 531,-465 524.82,-468.14 518.15,-471.03 511.45,-473.65"/>
<polygon fill="#63b8ff" stroke="#63b8ff" points="577.72,-438.92 585.71,-431.96 575.13,-432.42 577.72,-438.92"/>
</a>
</g>
</g>
<!-- Node18&#45;&gt;Node4 -->
<g id="edge19_Node000018_Node000004" class="edge">
<title>Node18&#45;&gt;Node4</title>
<g id="a_edge19_Node000018_Node000004"><a xlink:title=" ">
<path fill="none" stroke="#63b8ff" d="M384.86,-421.17C366.53,-416.34 346.97,-411.19 329.14,-406.49"/>
<polygon fill="#63b8ff" stroke="#63b8ff" points="383.75,-424.49 394.31,-423.66 385.53,-417.73 383.75,-424.49"/>
</a>
</g>
</g>
<!-- Node19&#45;&gt;Node4 -->
<g id="edge21_Node000019_Node000004" class="edge">
<title>Node19&#45;&gt;Node4</title>
<g id="a_edge21_Node000019_Node000004"><a xlink:title=" ">
<path fill="none" stroke="#63b8ff" d="M377.59,-390C367.84,-390 357.85,-390 348.07,-390"/>
<polygon fill="#63b8ff" stroke="#63b8ff" points="377.38,-393.5 387.38,-390 377.38,-386.5 377.38,-393.5"/>
</a>
</g>
</g>
<!-- Node21 -->
<g id="Node000021" class="node">
<title>Node21</title>
<g id="a_Node000021"><a xlink:href="namespacedepicture__menu_1_1usecase.html#a2c254e4837bdea923a00c9bb9387ea05" target="_top" xlink:title=" ">
<polygon fill="white" stroke="#666666" points="329.38,-556 201.62,-556 201.62,-524 329.38,-524 329.38,-556"/>
<text xml:space="preserve" text-anchor="start" x="209.62" y="-542.5" font-family="Helvetica,sans-Serif" font-size="10.00">depicture_menu::usecase</text>
<text xml:space="preserve" text-anchor="middle" x="265.5" y="-530.5" font-family="Helvetica,sans-Serif" font-size="10.00">::convert_to_dto</text>
</a>
</g>
</g>
<!-- Node20&#45;&gt;Node21 -->
<g id="edge23_Node000020_Node000021" class="edge">
<title>Node20&#45;&gt;Node21</title>
<g id="a_edge23_Node000020_Node000021"><a xlink:title=" ">
<path fill="none" stroke="#63b8ff" d="M384.46,-540C366.48,-540 347.32,-540 329.79,-540"/>
<polygon fill="#63b8ff" stroke="#63b8ff" points="384.26,-543.5 394.26,-540 384.26,-536.5 384.26,-543.5"/>
</a>
</g>
</g>
<!-- Node23 -->
<g id="Node000023" class="node">
<title>Node23</title>
<g id="a_Node000023"><a xlink:href="namespacedepicture__menu_1_1usecase_1_1backup.html#aa119e67f0ce64b2f8e57e6b634f686fa" target="_top" xlink:title=" ">
<polygon fill="white" stroke="#666666" points="333.88,-481 197.12,-481 197.12,-449 333.88,-449 333.88,-481"/>
<text xml:space="preserve" text-anchor="start" x="205.12" y="-467.5" font-family="Helvetica,sans-Serif" font-size="10.00">depicture_menu::usecase</text>
<text xml:space="preserve" text-anchor="middle" x="265.5" y="-455.5" font-family="Helvetica,sans-Serif" font-size="10.00">::backup::create_config_dto</text>
</a>
</g>
</g>
<!-- Node22&#45;&gt;Node23 -->
<g id="edge25_Node000022_Node000023" class="edge">
<title>Node22&#45;&gt;Node23</title>
<g id="a_edge25_Node000022_Node000023"><a xlink:title=" ">
<path fill="none" stroke="#63b8ff" d="M384.51,-480.54C367.98,-478.36 350.45,-476.05 334.1,-473.9"/>
<polygon fill="#63b8ff" stroke="#63b8ff" points="383.9,-483.99 394.27,-481.82 384.82,-477.05 383.9,-483.99"/>
</a>
</g>
</g>
<!-- Node23&#45;&gt;Node9 -->
<g id="edge26_Node000023_Node000009" class="edge">
<title>Node23&#45;&gt;Node9</title>
<g id="a_edge26_Node000023_Node000009"><a xlink:title=" ">
<path fill="none" stroke="#63b8ff" d="M227.69,-442.7C186.78,-417.93 122.46,-378.97 91.88,-360.45"/>
<polygon fill="#63b8ff" stroke="#63b8ff" points="225.63,-445.55 236,-447.74 229.26,-439.56 225.63,-445.55"/>
</a>
</g>
</g>
<!-- Node24 -->
<g id="Node000024" class="node">
<title>Node24</title>
<g id="a_Node000024"><a xlink:href="classdepicture__menu_1_1usecase_1_1backup_1_1export__backup.html#a28bbc2b85c1c87eb63ef672be633ffca" target="_top" xlink:title=" ">
<polygon fill="white" stroke="#666666" points="137.5,-487 9.75,-487 9.75,-443 137.5,-443 137.5,-487"/>
<text xml:space="preserve" text-anchor="start" x="17.75" y="-473.5" font-family="Helvetica,sans-Serif" font-size="10.00">depicture_menu::usecase</text>
<text xml:space="preserve" text-anchor="start" x="17.75" y="-461.5" font-family="Helvetica,sans-Serif" font-size="10.00">::backup::export_backup</text>
<text xml:space="preserve" text-anchor="middle" x="73.62" y="-449.5" font-family="Helvetica,sans-Serif" font-size="10.00">::done_export</text>
</a>
</g>
</g>
<!-- Node23&#45;&gt;Node24 -->
<g id="edge27_Node000023_Node000024" class="edge">
<title>Node23&#45;&gt;Node24</title>
<g id="a_edge27_Node000023_Node000024"><a xlink:title=" ">
<path fill="none" stroke="#63b8ff" d="M185.36,-465C169.54,-465 153.11,-465 137.9,-465"/>
<polygon fill="#63b8ff" stroke="#63b8ff" points="185.24,-468.5 195.24,-465 185.24,-461.5 185.24,-468.5"/>
</a>
</g>
</g>
</g>
</svg>
