<?xml version="1.0" encoding="UTF-8" standalone="no"?>
<!DOCTYPE svg PUBLIC "-//W3C//DTD SVG 1.1//EN"
 "http://www.w3.org/Graphics/SVG/1.1/DTD/svg11.dtd">
<!-- Generated by graphviz version 14.1.2 (20260124.0452)
 -->
<!-- Title: depicture_menu::cs_binding::entry_map::regist_collection_notify_all Pages: 1 -->
<svg width="665pt" height="238pt"
 viewBox="0.00 0.00 665.00 238.00" xmlns="http://www.w3.org/2000/svg" xmlns:xlink="http://www.w3.org/1999/xlink">
<g id="graph0" class="graph" transform="scale(1 1) rotate(0) translate(4 234)">
<title>depicture_menu::cs_binding::entry_map::regist_collection_notify_all</title>
<!-- Node1 -->
<g id="Node000001" class="node">
<title>Node1</title>
<g id="a_Node000001"><a xlink:title=" ">
<polygon fill="#999999" stroke="#666666" points="136.75,-53 0,-53 0,-9 136.75,-9 136.75,-53"/>
<text xml:space="preserve" text-anchor="start" x="8" y="-39.5" font-family="Helvetica,sans-Serif" font-size="10.00">depicture_menu::cs</text>
<text xml:space="preserve" text-anchor="start" x="8" y="-27.5" font-family="Helvetica,sans-Serif" font-size="10.00">_binding::entry_map</text>
<text xml:space="preserve" text-anchor="middle" x="68.38" y="-15.5" font-family="Helvetica,sans-Serif" font-size="10.00">::regist_collection_notify_all</text>
</a>
</g>
</g>
<!-- Node2 -->
<g id="Node000002" class="node">
<title>Node2</title>
<g id="a_Node000002"><a xlink:href="namespacedepicture__menu_1_1cs__binding_1_1entry__map.html#a80c88bceef6b232d197619fb016d5f78" target="_top" xlink:title=" ">
<polygon fill="white" stroke="#666666" points="305,-100 172.75,-100 172.75,-56 305,-56 305,-100"/>
<text xml:space="preserve" text-anchor="start" x="180.75" y="-86.5" font-family="Helvetica,sans-Serif" font-size="10.00">depicture_menu::cs</text>
<text xml:space="preserve" text-anchor="start" x="180.75" y="-74.5" font-family="Helvetica,sans-Serif" font-size="10.00">_binding::entry_map</text>
<text xml:space="preserve" text-anchor="middle" x="238.88" y="-62.5" font-family="Helvetica,sans-Serif" font-size="10.00">::get_collection_accessers</text>
</a>
</g>
</g>
<!-- Node1&#45;&gt;Node2 -->
<g id="edge1_Node000001_Node000002" class="edge">
<title>Node1&#45;&gt;Node2</title>
<g id="a_edge1_Node000001_Node000002"><a xlink:title=" ">
<path fill="none" stroke="#63b8ff" d="M136.94,-49.85C145,-52.09 153.27,-54.4 161.44,-56.68"/>
<polygon fill="#63b8ff" stroke="#63b8ff" points="160.46,-60.04 171.03,-59.35 162.34,-53.3 160.46,-60.04"/>
</a>
</g>
</g>
<!-- Node8 -->
<g id="Node000008" class="node">
<title>Node8</title>
<g id="a_Node000008"><a xlink:href="namespacedepicture__menu_1_1cs__binding_1_1entry__map_1_1tuple__op.html#a72d4298d92def76da21b1bc8c931fb6e" target="_top" xlink:title=" ">
<polygon fill="white" stroke="#666666" points="652,-44 519.75,-44 519.75,0 652,0 652,-44"/>
<text xml:space="preserve" text-anchor="start" x="527.75" y="-30.5" font-family="Helvetica,sans-Serif" font-size="10.00">depicture_menu::cs</text>
<text xml:space="preserve" text-anchor="start" x="527.75" y="-18.5" font-family="Helvetica,sans-Serif" font-size="10.00">_binding::entry_map</text>
<text xml:space="preserve" text-anchor="middle" x="585.88" y="-6.5" font-family="Helvetica,sans-Serif" font-size="10.00">::tuple_op::tuple_transform</text>
</a>
</g>
</g>
<!-- Node1&#45;&gt;Node8 -->
<g id="edge10_Node000001_Node000008" class="edge">
<title>Node1&#45;&gt;Node8</title>
<g id="a_edge10_Node000001_Node000008"><a xlink:title=" ">
<path fill="none" stroke="#63b8ff" d="M137.03,-29.82C232.9,-28.14 407.78,-25.09 508.29,-23.34"/>
<polygon fill="#63b8ff" stroke="#63b8ff" points="508.13,-26.84 518.06,-23.17 508,-19.84 508.13,-26.84"/>
</a>
</g>
</g>
<!-- Node3 -->
<g id="Node000003" class="node">
<title>Node3</title>
<g id="a_Node000003"><a xlink:href="namespacedepicture__menu_1_1cs__binding_1_1entry__map.html#a05fd9ef1a1b634413a3b9f1848531395" target="_top" xlink:title=" ">
<polygon fill="white" stroke="#666666" points="479.25,-208 341,-208 341,-164 479.25,-164 479.25,-208"/>
<text xml:space="preserve" text-anchor="start" x="349" y="-194.5" font-family="Helvetica,sans-Serif" font-size="10.00">depicture_menu::cs</text>
<text xml:space="preserve" text-anchor="start" x="349" y="-182.5" font-family="Helvetica,sans-Serif" font-size="10.00">_binding::entry_map</text>
<text xml:space="preserve" text-anchor="middle" x="410.12" y="-170.5" font-family="Helvetica,sans-Serif" font-size="10.00">::get_collection_entry_maps</text>
</a>
</g>
</g>
<!-- Node2&#45;&gt;Node3 -->
<g id="edge2_Node000002_Node000003" class="edge">
<title>Node2&#45;&gt;Node3</title>
<g id="a_edge2_Node000002_Node000003"><a xlink:title=" ">
<path fill="none" stroke="#63b8ff" d="M265.76,-100.3C285.54,-116.68 313.92,-138.81 341,-155 342.88,-156.13 344.81,-157.24 346.78,-158.33"/>
<polygon fill="#63b8ff" stroke="#63b8ff" points="344.99,-161.35 355.47,-162.94 348.27,-155.16 344.99,-161.35"/>
</a>
</g>
</g>
<!-- Node4 -->
<g id="Node000004" class="node">
<title>Node4</title>
<g id="a_Node000004"><a xlink:href="namespacedepicture__menu_1_1cs__binding_1_1entry__map.html#ad33c5321ecf167ad9f3c5e9baeee4d07" target="_top" xlink:title=" ">
<polygon fill="white" stroke="#666666" points="472.5,-128 347.75,-128 347.75,-72 472.5,-72 472.5,-128"/>
<text xml:space="preserve" text-anchor="start" x="355.75" y="-114.5" font-family="Helvetica,sans-Serif" font-size="10.00">depicture_menu::cs</text>
<text xml:space="preserve" text-anchor="start" x="355.75" y="-102.5" font-family="Helvetica,sans-Serif" font-size="10.00">_binding::entry_map</text>
<text xml:space="preserve" text-anchor="start" x="355.75" y="-90.5" font-family="Helvetica,sans-Serif" font-size="10.00">::get_sub_class_acceser</text>
<text xml:space="preserve" text-anchor="middle" x="410.12" y="-78.5" font-family="Helvetica,sans-Serif" font-size="10.00">_chain_entries</text>
</a>
</g>
</g>
<!-- Node2&#45;&gt;Node4 -->
<g id="edge3_Node000002_Node000004" class="edge">
<title>Node2&#45;&gt;Node4</title>
<g id="a_edge3_Node000002_Node000004"><a xlink:title=" ">
<path fill="none" stroke="#63b8ff" d="M305.31,-86.51C315.38,-87.81 325.83,-89.17 336.06,-90.5"/>
<polygon fill="#63b8ff" stroke="#63b8ff" points="335.6,-93.97 345.97,-91.79 336.5,-87.03 335.6,-93.97"/>
</a>
</g>
</g>
<!-- Node2&#45;&gt;Node8 -->
<g id="edge9_Node000002_Node000008" class="edge">
<title>Node2&#45;&gt;Node8</title>
<g id="a_edge9_Node000002_Node000008"><a xlink:title=" ">
<path fill="none" stroke="#63b8ff" d="M305.17,-67.4C362.92,-58.03 447.22,-44.34 508.16,-34.45"/>
<polygon fill="#63b8ff" stroke="#63b8ff" points="508.45,-37.95 517.76,-32.89 507.33,-31.04 508.45,-37.95"/>
</a>
</g>
</g>
<!-- Node4&#45;&gt;Node4 -->
<g id="edge4_Node000004_Node000004" class="edge">
<title>Node4&#45;&gt;Node4</title>
<g id="a_edge4_Node000004_Node000004"><a xlink:title=" ">
<path fill="none" stroke="#63b8ff" d="M378.02,-128.3C377.68,-138.09 388.38,-146 410.12,-146 423.37,-146 432.52,-143.06 437.57,-138.55"/>
<polygon fill="#63b8ff" stroke="#63b8ff" points="440.65,-140.23 441.6,-129.68 434.28,-137.34 440.65,-140.23"/>
</a>
</g>
</g>
<!-- Node5 -->
<g id="Node000005" class="node">
<title>Node5</title>
<g id="a_Node000005"><a xlink:href="namespacedepicture__menu_1_1cs__binding_1_1entry__map.html#af50a6f76754797a8080b602b3870cb9a" target="_top" xlink:title=" ">
<polygon fill="white" stroke="#666666" points="656.5,-230 515.25,-230 515.25,-186 656.5,-186 656.5,-230"/>
<text xml:space="preserve" text-anchor="start" x="523.25" y="-216.5" font-family="Helvetica,sans-Serif" font-size="10.00">depicture_menu::cs</text>
<text xml:space="preserve" text-anchor="start" x="523.25" y="-204.5" font-family="Helvetica,sans-Serif" font-size="10.00">_binding::entry_map</text>
<text xml:space="preserve" text-anchor="middle" x="585.88" y="-192.5" font-family="Helvetica,sans-Serif" font-size="10.00">::get_sub_class_entry_maps</text>
</a>
</g>
</g>
<!-- Node4&#45;&gt;Node5 -->
<g id="edge5_Node000004_Node000005" class="edge">
<title>Node4&#45;&gt;Node5</title>
<g id="a_edge5_Node000004_Node000005"><a xlink:title=" ">
<path fill="none" stroke="#63b8ff" d="M445.47,-128.36C465.17,-143.86 490.78,-162.73 515.25,-177 517.26,-178.17 519.32,-179.33 521.42,-180.47"/>
<polygon fill="#63b8ff" stroke="#63b8ff" points="519.6,-183.46 530.09,-184.95 522.81,-177.25 519.6,-183.46"/>
</a>
</g>
</g>
<!-- Node6 -->
<g id="Node000006" class="node">
<title>Node6</title>
<g id="a_Node000006"><a xlink:href="namespacedepicture__menu_1_1cs__binding_1_1entry__map_1_1tuple__op.html#aa6b4653e521b35f1be71867fbdc6b3d5" target="_top" xlink:title=" ">
<polygon fill="white" stroke="#666666" points="638.88,-168 532.88,-168 532.88,-124 638.88,-124 638.88,-168"/>
<text xml:space="preserve" text-anchor="start" x="540.88" y="-154.5" font-family="Helvetica,sans-Serif" font-size="10.00">depicture_menu::cs</text>
<text xml:space="preserve" text-anchor="start" x="540.88" y="-142.5" font-family="Helvetica,sans-Serif" font-size="10.00">_binding::entry_map</text>
<text xml:space="preserve" text-anchor="middle" x="585.88" y="-130.5" font-family="Helvetica,sans-Serif" font-size="10.00">::tuple_op::tuple_join</text>
</a>
</g>
</g>
<!-- Node4&#45;&gt;Node6 -->
<g id="edge6_Node000004_Node000006" class="edge">
<title>Node4&#45;&gt;Node6</title>
<g id="a_edge6_Node000004_Node000006"><a xlink:title=" ">
<path fill="none" stroke="#63b8ff" d="M472.87,-116.35C488.72,-120.54 505.79,-125.06 521.71,-129.28"/>
<polygon fill="#63b8ff" stroke="#63b8ff" points="520.5,-132.58 531.06,-131.75 522.29,-125.81 520.5,-132.58"/>
</a>
</g>
</g>
<!-- Node7 -->
<g id="Node000007" class="node">
<title>Node7</title>
<g id="a_Node000007"><a xlink:href="namespacedepicture__menu_1_1cs__binding_1_1entry__map_1_1tuple__op.html#ab45608cb253d67195236e241b543cc24" target="_top" xlink:title=" ">
<polygon fill="white" stroke="#666666" points="654.25,-106 517.5,-106 517.5,-62 654.25,-62 654.25,-106"/>
<text xml:space="preserve" text-anchor="start" x="525.5" y="-92.5" font-family="Helvetica,sans-Serif" font-size="10.00">depicture_menu::cs</text>
<text xml:space="preserve" text-anchor="start" x="525.5" y="-80.5" font-family="Helvetica,sans-Serif" font-size="10.00">_binding::entry_map</text>
<text xml:space="preserve" text-anchor="middle" x="585.88" y="-68.5" font-family="Helvetica,sans-Serif" font-size="10.00">::tuple_op::tuple_push_front</text>
</a>
</g>
</g>
<!-- Node4&#45;&gt;Node7 -->
<g id="edge7_Node000004_Node000007" class="edge">
<title>Node4&#45;&gt;Node7</title>
<g id="a_edge7_Node000004_Node000007"><a xlink:title=" ">
<path fill="none" stroke="#63b8ff" d="M472.87,-94.31C483.51,-93.33 494.71,-92.3 505.73,-91.29"/>
<polygon fill="#63b8ff" stroke="#63b8ff" points="505.99,-94.78 515.62,-90.38 505.34,-87.81 505.99,-94.78"/>
</a>
</g>
</g>
<!-- Node4&#45;&gt;Node8 -->
<g id="edge8_Node000004_Node000008" class="edge">
<title>Node4&#45;&gt;Node8</title>
<g id="a_edge8_Node000004_Node000008"><a xlink:title=" ">
<path fill="none" stroke="#63b8ff" d="M472.77,-72.11C486.73,-65.81 501.5,-59.17 515.25,-53 518.04,-51.75 520.89,-50.47 523.78,-49.18"/>
<polygon fill="#63b8ff" stroke="#63b8ff" points="525.2,-52.38 532.9,-45.11 522.34,-45.99 525.2,-52.38"/>
</a>
</g>
</g>
</g>
</svg>
