<?xml version="1.0" encoding="UTF-8" standalone="no"?>
<!DOCTYPE svg PUBLIC "-//W3C//DTD SVG 1.1//EN"
 "http://www.w3.org/Graphics/SVG/1.1/DTD/svg11.dtd">
<!-- Generated by graphviz version 14.1.2 (20260124.0452)
 -->
<!-- Title: depicture_menu::presentations::datas::ref_buffer Pages: 1 -->
<svg width="714pt" height="128pt"
 viewBox="0.00 0.00 714.00 128.00" xmlns="http://www.w3.org/2000/svg" xmlns:xlink="http://www.w3.org/1999/xlink">
<g id="graph0" class="graph" transform="scale(1 1) rotate(0) translate(4 124)">
<title>depicture_menu::presentations::datas::ref_buffer</title>
<!-- Node1 -->
<g id="Node000001" class="node">
<title>Node1</title>
<g id="a_Node000001"><a xlink:title=" ">
<polygon fill="#999999" stroke="#666666" points="706,-76 556.5,-76 556.5,-44 706,-44 706,-76"/>
<text xml:space="preserve" text-anchor="start" x="564.5" y="-62.5" font-family="Helvetica,sans-Serif" font-size="10.00">depicture_menu::presentations</text>
<text xml:space="preserve" text-anchor="middle" x="631.25" y="-50.5" font-family="Helvetica,sans-Serif" font-size="10.00">::datas::ref_buffer</text>
</a>
</g>
</g>
<!-- Node2 -->
<g id="Node000002" class="node">
<title>Node2</title>
<g id="a_Node000002"><a xlink:href="namespacedepicture__menu_1_1presentations_1_1datas.html#a40c60f3376b1be380acd059cf3818763" target="_top" xlink:title=" ">
<polygon fill="white" stroke="#666666" points="335,-120 185.5,-120 185.5,-88 335,-88 335,-120"/>
<text xml:space="preserve" text-anchor="start" x="193.5" y="-106.5" font-family="Helvetica,sans-Serif" font-size="10.00">depicture_menu::presentations</text>
<text xml:space="preserve" text-anchor="middle" x="260.25" y="-94.5" font-family="Helvetica,sans-Serif" font-size="10.00">::datas::add</text>
</a>
</g>
</g>
<!-- Node1&#45;&gt;Node2 -->
<g id="edge1_Node000001_Node000002" class="edge">
<title>Node1&#45;&gt;Node2</title>
<g id="a_edge1_Node000001_Node000002"><a xlink:title=" ">
<path fill="none" stroke="#63b8ff" d="M554.37,-78.84C543.07,-81.2 531.52,-83.35 520.5,-85 458.46,-94.29 387.36,-99.09 335.33,-101.54"/>
<polygon fill="#63b8ff" stroke="#63b8ff" points="555.04,-82.28 564.08,-76.76 553.57,-75.44 555.04,-82.28"/>
</a>
</g>
</g>
<!-- Node4 -->
<g id="Node000004" class="node">
<title>Node4</title>
<g id="a_Node000004"><a xlink:href="namespacedepicture__menu_1_1presentations_1_1datas.html#ad551e32a3c0b04b6f45a1d71313b82bd" target="_top" xlink:title=" ">
<polygon fill="white" stroke="#666666" points="520.5,-76 371,-76 371,-44 520.5,-44 520.5,-76"/>
<text xml:space="preserve" text-anchor="start" x="379" y="-62.5" font-family="Helvetica,sans-Serif" font-size="10.00">depicture_menu::presentations</text>
<text xml:space="preserve" text-anchor="middle" x="445.75" y="-50.5" font-family="Helvetica,sans-Serif" font-size="10.00">::datas::contains</text>
</a>
</g>
</g>
<!-- Node1&#45;&gt;Node4 -->
<g id="edge3_Node000001_Node000004" class="edge">
<title>Node1&#45;&gt;Node4</title>
<g id="a_edge3_Node000001_Node000004"><a xlink:title=" ">
<path fill="none" stroke="#63b8ff" d="M544.86,-60C536.84,-60 528.75,-60 520.84,-60"/>
<polygon fill="#63b8ff" stroke="#63b8ff" points="544.63,-63.5 554.63,-60 544.63,-56.5 544.63,-63.5"/>
</a>
</g>
</g>
<!-- Node5 -->
<g id="Node000005" class="node">
<title>Node5</title>
<g id="a_Node000005"><a xlink:href="namespacedepicture__menu_1_1presentations_1_1datas.html#ad98701077096461aaae59c5a0d33b556" target="_top" xlink:title=" ">
<polygon fill="white" stroke="#666666" points="335,-32 185.5,-32 185.5,0 335,0 335,-32"/>
<text xml:space="preserve" text-anchor="start" x="193.5" y="-18.5" font-family="Helvetica,sans-Serif" font-size="10.00">depicture_menu::presentations</text>
<text xml:space="preserve" text-anchor="middle" x="260.25" y="-6.5" font-family="Helvetica,sans-Serif" font-size="10.00">::datas::erase</text>
</a>
</g>
</g>
<!-- Node1&#45;&gt;Node5 -->
<g id="edge6_Node000001_Node000005" class="edge">
<title>Node1&#45;&gt;Node5</title>
<g id="a_edge6_Node000001_Node000005"><a xlink:title=" ">
<path fill="none" stroke="#63b8ff" d="M554.37,-41.16C543.07,-38.8 531.52,-36.65 520.5,-35 458.46,-25.71 387.36,-20.91 335.33,-18.46"/>
<polygon fill="#63b8ff" stroke="#63b8ff" points="553.57,-44.56 564.08,-43.24 555.04,-37.72 553.57,-44.56"/>
</a>
</g>
</g>
<!-- Node3 -->
<g id="Node000003" class="node">
<title>Node3</title>
<g id="a_Node000003"><a xlink:href="classdepicture__menu_1_1presentations_1_1config__view__presenter.html#abca5e005ea6562bc3b87dabee3acc640" target="_top" xlink:title=" ">
<polygon fill="white" stroke="#666666" points="149.5,-82 0,-82 0,-38 149.5,-38 149.5,-82"/>
<text xml:space="preserve" text-anchor="start" x="8" y="-68.5" font-family="Helvetica,sans-Serif" font-size="10.00">depicture_menu::presentations</text>
<text xml:space="preserve" text-anchor="start" x="8" y="-56.5" font-family="Helvetica,sans-Serif" font-size="10.00">::config_view_presenter::</text>
<text xml:space="preserve" text-anchor="middle" x="74.75" y="-44.5" font-family="Helvetica,sans-Serif" font-size="10.00">change_menu</text>
</a>
</g>
</g>
<!-- Node2&#45;&gt;Node3 -->
<g id="edge2_Node000002_Node000003" class="edge">
<title>Node2&#45;&gt;Node3</title>
<g id="a_edge2_Node000002_Node000003"><a xlink:title=" ">
<path fill="none" stroke="#63b8ff" d="M179.59,-84.9C169.69,-82.53 159.6,-80.11 149.79,-77.75"/>
<polygon fill="#63b8ff" stroke="#63b8ff" points="178.65,-88.27 189.19,-87.2 180.28,-81.47 178.65,-88.27"/>
</a>
</g>
</g>
<!-- Node4&#45;&gt;Node2 -->
<g id="edge4_Node000004_Node000002" class="edge">
<title>Node4&#45;&gt;Node2</title>
<g id="a_edge4_Node000004_Node000002"><a xlink:title=" ">
<path fill="none" stroke="#63b8ff" d="M365.08,-79.1C353.42,-81.9 341.49,-84.76 330.06,-87.5"/>
<polygon fill="#63b8ff" stroke="#63b8ff" points="365.78,-82.53 374.69,-76.8 364.15,-75.73 365.78,-82.53"/>
</a>
</g>
</g>
<!-- Node4&#45;&gt;Node3 -->
<g id="edge5_Node000004_Node000003" class="edge">
<title>Node4&#45;&gt;Node3</title>
<g id="a_edge5_Node000004_Node000003"><a xlink:title=" ">
<path fill="none" stroke="#63b8ff" d="M359.35,-60C295.96,-60 210.38,-60 149.86,-60"/>
<polygon fill="#63b8ff" stroke="#63b8ff" points="359.01,-63.5 369.01,-60 359.01,-56.5 359.01,-63.5"/>
</a>
</g>
</g>
<!-- Node5&#45;&gt;Node3 -->
<g id="edge7_Node000005_Node000003" class="edge">
<title>Node5&#45;&gt;Node3</title>
<g id="a_edge7_Node000005_Node000003"><a xlink:title=" ">
<path fill="none" stroke="#63b8ff" d="M179.59,-35.1C169.69,-37.47 159.6,-39.89 149.79,-42.25"/>
<polygon fill="#63b8ff" stroke="#63b8ff" points="180.28,-38.53 189.19,-32.8 178.65,-31.73 180.28,-38.53"/>
</a>
</g>
</g>
</g>
</svg>
