<?xml version="1.0" encoding="UTF-8" standalone="no"?>
<!DOCTYPE svg PUBLIC "-//W3C//DTD SVG 1.1//EN"
 "http://www.w3.org/Graphics/SVG/1.1/DTD/svg11.dtd">
<!-- Generated by graphviz version 14.1.2 (20260124.0452)
 -->
<!-- Title: depicture_menu::applications::run_worker Pages: 1 -->
<svg width="515pt" height="548pt"
 viewBox="0.00 0.00 515.00 548.00" xmlns="http://www.w3.org/2000/svg" xmlns:xlink="http://www.w3.org/1999/xlink">
<g id="graph0" class="graph" transform="scale(1 1) rotate(0) translate(4 544)">
<title>depicture_menu::applications::run_worker</title>
<!-- Node1 -->
<g id="Node000001" class="node">
<title>Node1</title>
<g id="a_Node000001"><a xlink:title=" ">
<polygon fill="#999999" stroke="#666666" points="507,-392 364.25,-392 364.25,-360 507,-360 507,-392"/>
<text xml:space="preserve" text-anchor="start" x="372.25" y="-378.5" font-family="Helvetica,sans-Serif" font-size="10.00">depicture_menu::applications</text>
<text xml:space="preserve" text-anchor="middle" x="435.62" y="-366.5" font-family="Helvetica,sans-Serif" font-size="10.00">::run_worker</text>
</a>
</g>
</g>
<!-- Node2 -->
<g id="Node000002" class="node">
<title>Node2</title>
<g id="a_Node000002"><a xlink:href="classdepicture__menu_1_1applications_1_1view__factories_1_1config__view__arg__builder.html#a7fad9971fe8a0fa887c7279435287da5" target="_top" xlink:title=" ">
<polygon fill="white" stroke="#666666" points="324.88,-504 182.12,-504 182.12,-460 324.88,-460 324.88,-504"/>
<text xml:space="preserve" text-anchor="start" x="190.12" y="-490.5" font-family="Helvetica,sans-Serif" font-size="10.00">depicture_menu::applications</text>
<text xml:space="preserve" text-anchor="start" x="190.12" y="-478.5" font-family="Helvetica,sans-Serif" font-size="10.00">::view_factories::config</text>
<text xml:space="preserve" text-anchor="middle" x="253.5" y="-466.5" font-family="Helvetica,sans-Serif" font-size="10.00">_view_arg_builder::build</text>
</a>
</g>
</g>
<!-- Node1&#45;&gt;Node2 -->
<g id="edge1_Node000001_Node000002" class="edge">
<title>Node1&#45;&gt;Node2</title>
<g id="a_edge1_Node000001_Node000002"><a xlink:title=" ">
<path fill="none" stroke="#63b8ff" d="M405.38,-399.22C384.62,-415.05 355.67,-435.8 328.25,-451 322.9,-453.96 317.22,-456.82 311.47,-459.53"/>
<polygon fill="#63b8ff" stroke="#63b8ff" points="407.33,-402.14 413.11,-393.26 403.05,-396.6 407.33,-402.14"/>
</a>
</g>
</g>
<!-- Node3 -->
<g id="Node000003" class="node">
<title>Node3</title>
<g id="a_Node000003"><a xlink:href="classdepicture__menu_1_1presentations_1_1command__invoker.html#a25da3425517006205d14777aa280866a" target="_top" xlink:title=" ">
<polygon fill="white" stroke="#666666" points="328.25,-442 178.75,-442 178.75,-410 328.25,-410 328.25,-442"/>
<text xml:space="preserve" text-anchor="start" x="186.75" y="-428.5" font-family="Helvetica,sans-Serif" font-size="10.00">depicture_menu::presentations</text>
<text xml:space="preserve" text-anchor="middle" x="253.5" y="-416.5" font-family="Helvetica,sans-Serif" font-size="10.00">::command_invoker::invoke</text>
</a>
</g>
</g>
<!-- Node1&#45;&gt;Node3 -->
<g id="edge2_Node000001_Node000003" class="edge">
<title>Node1&#45;&gt;Node3</title>
<g id="a_edge2_Node000001_Node000003"><a xlink:title=" ">
<path fill="none" stroke="#63b8ff" d="M364.54,-395.46C347.76,-400.11 330,-405.04 313.76,-409.55"/>
<polygon fill="#63b8ff" stroke="#63b8ff" points="365.24,-398.89 373.94,-392.85 363.37,-392.15 365.24,-398.89"/>
</a>
</g>
</g>
<!-- Node4 -->
<g id="Node000004" class="node">
<title>Node4</title>
<g id="a_Node000004"><a xlink:href="classdepicture__menu_1_1presentations_1_1command__invoker.html#a37964b2266abbb633c5381fbfc116905" target="_top" xlink:title=" ">
<polygon fill="white" stroke="#666666" points="328.25,-392 178.75,-392 178.75,-360 328.25,-360 328.25,-392"/>
<text xml:space="preserve" text-anchor="start" x="186.75" y="-378.5" font-family="Helvetica,sans-Serif" font-size="10.00">depicture_menu::presentations</text>
<text xml:space="preserve" text-anchor="middle" x="253.5" y="-366.5" font-family="Helvetica,sans-Serif" font-size="10.00">::command_invoker::invoke</text>
</a>
</g>
</g>
<!-- Node1&#45;&gt;Node4 -->
<g id="edge3_Node000001_Node000004" class="edge">
<title>Node1&#45;&gt;Node4</title>
<g id="a_edge3_Node000001_Node000004"><a xlink:title=" ">
<path fill="none" stroke="#63b8ff" d="M352.66,-376C344.62,-376 336.49,-376 328.53,-376"/>
<polygon fill="#63b8ff" stroke="#63b8ff" points="352.44,-379.5 362.44,-376 352.44,-372.5 352.44,-379.5"/>
</a>
</g>
</g>
<!-- Node5 -->
<g id="Node000005" class="node">
<title>Node5</title>
<g id="a_Node000005"><a xlink:href="structdepicture__menu_1_1usecase_1_1invoke__action.html#a79c045bc3e00ffd7d9cf221e01432374" target="_top" xlink:title=" ">
<polygon fill="white" stroke="#666666" points="317.38,-342 189.62,-342 189.62,-310 317.38,-310 317.38,-342"/>
<text xml:space="preserve" text-anchor="start" x="197.62" y="-328.5" font-family="Helvetica,sans-Serif" font-size="10.00">depicture_menu::usecase</text>
<text xml:space="preserve" text-anchor="middle" x="253.5" y="-316.5" font-family="Helvetica,sans-Serif" font-size="10.00">::invoke_action::invoke</text>
</a>
</g>
</g>
<!-- Node1&#45;&gt;Node5 -->
<g id="edge4_Node000001_Node000005" class="edge">
<title>Node1&#45;&gt;Node5</title>
<g id="a_edge4_Node000001_Node000005"><a xlink:title=" ">
<path fill="none" stroke="#63b8ff" d="M364.54,-356.54C347.76,-351.89 330,-346.96 313.76,-342.45"/>
<polygon fill="#63b8ff" stroke="#63b8ff" points="363.37,-359.85 373.94,-359.15 365.24,-353.11 363.37,-359.85"/>
</a>
</g>
</g>
<!-- Node6 -->
<g id="Node000006" class="node">
<title>Node6</title>
<g id="a_Node000006"><a xlink:href="classdepicture__menu_1_1applications_1_1config__view__factory_1_1config__view__observer.html#a6368a0a839dd3d9074361f068bf77de3" target="_top" xlink:title=" ">
<polygon fill="white" stroke="#666666" points="324.88,-292 182.12,-292 182.12,-248 324.88,-248 324.88,-292"/>
<text xml:space="preserve" text-anchor="start" x="190.12" y="-278.5" font-family="Helvetica,sans-Serif" font-size="10.00">depicture_menu::applications</text>
<text xml:space="preserve" text-anchor="start" x="190.12" y="-266.5" font-family="Helvetica,sans-Serif" font-size="10.00">::config_view_factory::config</text>
<text xml:space="preserve" text-anchor="middle" x="253.5" y="-254.5" font-family="Helvetica,sans-Serif" font-size="10.00">_view_observer::relay</text>
</a>
</g>
</g>
<!-- Node1&#45;&gt;Node6 -->
<g id="edge5_Node000001_Node000006" class="edge">
<title>Node1&#45;&gt;Node6</title>
<g id="a_edge5_Node000001_Node000006"><a xlink:title=" ">
<path fill="none" stroke="#63b8ff" d="M405.38,-352.78C384.62,-336.95 355.67,-316.2 328.25,-301 322.9,-298.04 317.22,-295.18 311.47,-292.47"/>
<polygon fill="#63b8ff" stroke="#63b8ff" points="403.05,-355.4 413.11,-358.74 407.33,-349.86 403.05,-355.4"/>
</a>
</g>
</g>
<!-- Node7 -->
<g id="Node000007" class="node">
<title>Node7</title>
<g id="a_Node000007"><a xlink:href="classdepicture__menu_1_1applications_1_1config__view__factory_1_1config__view__observer.html#ab8f58fb20e9fe4a495a7dcf610dacbd1" target="_top" xlink:title="ConfBasicMenuShowAction &quot;ShowMenuId&quot; 更新">
<polygon fill="white" stroke="#666666" points="142.75,-540 0,-540 0,-496 142.75,-496 142.75,-540"/>
<text xml:space="preserve" text-anchor="start" x="8" y="-526.5" font-family="Helvetica,sans-Serif" font-size="10.00">depicture_menu::applications</text>
<text xml:space="preserve" text-anchor="start" x="8" y="-514.5" font-family="Helvetica,sans-Serif" font-size="10.00">::config_view_factory::config</text>
<text xml:space="preserve" text-anchor="middle" x="71.38" y="-502.5" font-family="Helvetica,sans-Serif" font-size="10.00">_view_observer::operator()</text>
</a>
</g>
</g>
<!-- Node6&#45;&gt;Node7 -->
<g id="edge6_Node000006_Node000007" class="edge">
<title>Node6&#45;&gt;Node7</title>
<g id="a_edge6_Node000006_Node000007"><a xlink:title=" ">
<path fill="none" stroke="#63b8ff" d="M179.5,-300.1C179.25,-300.4 179,-300.7 178.75,-301 125.67,-366.36 195.27,-421.19 142.75,-487 140.17,-490.23 137.18,-493.14 133.92,-495.75"/>
<polygon fill="#63b8ff" stroke="#63b8ff" points="181.79,-302.75 186.6,-293.31 176.95,-297.69 181.79,-302.75"/>
</a>
</g>
</g>
<!-- Node8 -->
<g id="Node000008" class="node">
<title>Node8</title>
<g id="a_Node000008"><a xlink:href="classdepicture__menu_1_1applications_1_1config__view__factory_1_1config__view__observer.html#a36e5ca19f9424b7ea5edeb98f5ae6e90" target="_top" xlink:title="ConfBasicShellExecuteAction &quot;IsAutoMenuClose&quot; 更新">
<polygon fill="white" stroke="#666666" points="142.75,-478 0,-478 0,-434 142.75,-434 142.75,-478"/>
<text xml:space="preserve" text-anchor="start" x="8" y="-464.5" font-family="Helvetica,sans-Serif" font-size="10.00">depicture_menu::applications</text>
<text xml:space="preserve" text-anchor="start" x="8" y="-452.5" font-family="Helvetica,sans-Serif" font-size="10.00">::config_view_factory::config</text>
<text xml:space="preserve" text-anchor="middle" x="71.38" y="-440.5" font-family="Helvetica,sans-Serif" font-size="10.00">_view_observer::operator()</text>
</a>
</g>
</g>
<!-- Node6&#45;&gt;Node8 -->
<g id="edge7_Node000006_Node000008" class="edge">
<title>Node6&#45;&gt;Node8</title>
<g id="a_edge7_Node000006_Node000008"><a xlink:title=" ">
<path fill="none" stroke="#63b8ff" d="M179.84,-299.81C179.47,-300.2 179.11,-300.6 178.75,-301 140.58,-343.85 180.56,-381.83 142.75,-425 139.94,-428.21 136.72,-431.11 133.26,-433.71"/>
<polygon fill="#63b8ff" stroke="#63b8ff" points="182.04,-302.53 187.23,-293.3 177.42,-297.28 182.04,-302.53"/>
</a>
</g>
</g>
<!-- Node9 -->
<g id="Node000009" class="node">
<title>Node9</title>
<g id="a_Node000009"><a xlink:href="classdepicture__menu_1_1applications_1_1config__view__factory_1_1config__view__observer.html#a658204c06f35b919508c58a984226a10" target="_top" xlink:title="ConfBasicShellExecuteAction &quot;Option&quot; 更新">
<polygon fill="white" stroke="#666666" points="142.75,-416 0,-416 0,-372 142.75,-372 142.75,-416"/>
<text xml:space="preserve" text-anchor="start" x="8" y="-402.5" font-family="Helvetica,sans-Serif" font-size="10.00">depicture_menu::applications</text>
<text xml:space="preserve" text-anchor="start" x="8" y="-390.5" font-family="Helvetica,sans-Serif" font-size="10.00">::config_view_factory::config</text>
<text xml:space="preserve" text-anchor="middle" x="71.38" y="-378.5" font-family="Helvetica,sans-Serif" font-size="10.00">_view_observer::operator()</text>
</a>
</g>
</g>
<!-- Node6&#45;&gt;Node9 -->
<g id="edge8_Node000006_Node000009" class="edge">
<title>Node6&#45;&gt;Node9</title>
<g id="a_edge8_Node000006_Node000009"><a xlink:title=" ">
<path fill="none" stroke="#63b8ff" d="M181.13,-298.99C180.32,-299.65 179.53,-300.32 178.75,-301 154.82,-322.04 166.5,-341.76 142.75,-363 139.27,-366.12 135.42,-368.96 131.38,-371.55"/>
<polygon fill="#63b8ff" stroke="#63b8ff" points="182.95,-301.99 189.07,-293.35 178.89,-296.29 182.95,-301.99"/>
</a>
</g>
</g>
<!-- Node10 -->
<g id="Node000010" class="node">
<title>Node10</title>
<g id="a_Node000010"><a xlink:href="classdepicture__menu_1_1applications_1_1config__view__factory_1_1config__view__observer.html#a62fa4f3094eb96a15592068779f42c0a" target="_top" xlink:title="ConfBasicShellExecuteAction &quot;RunPath&quot; 更新">
<polygon fill="white" stroke="#666666" points="142.75,-354 0,-354 0,-310 142.75,-310 142.75,-354"/>
<text xml:space="preserve" text-anchor="start" x="8" y="-340.5" font-family="Helvetica,sans-Serif" font-size="10.00">depicture_menu::applications</text>
<text xml:space="preserve" text-anchor="start" x="8" y="-328.5" font-family="Helvetica,sans-Serif" font-size="10.00">::config_view_factory::config</text>
<text xml:space="preserve" text-anchor="middle" x="71.38" y="-316.5" font-family="Helvetica,sans-Serif" font-size="10.00">_view_observer::operator()</text>
</a>
</g>
</g>
<!-- Node6&#45;&gt;Node10 -->
<g id="edge9_Node000006_Node000010" class="edge">
<title>Node6&#45;&gt;Node10</title>
<g id="a_edge9_Node000006_Node000010"><a xlink:title=" ">
<path fill="none" stroke="#63b8ff" d="M176.5,-296.16C163.61,-300.6 150.33,-305.17 137.74,-309.5"/>
<polygon fill="#63b8ff" stroke="#63b8ff" points="177.47,-299.53 185.78,-292.96 175.19,-292.91 177.47,-299.53"/>
</a>
</g>
</g>
<!-- Node11 -->
<g id="Node000011" class="node">
<title>Node11</title>
<g id="a_Node000011"><a xlink:href="classdepicture__menu_1_1applications_1_1config__view__factory_1_1config__view__observer.html#aaa3143abf36b93ee7f3db60cb717ffc1" target="_top" xlink:title="ConfMenu &quot;Name&quot;">
<polygon fill="white" stroke="#666666" points="142.75,-292 0,-292 0,-248 142.75,-248 142.75,-292"/>
<text xml:space="preserve" text-anchor="start" x="8" y="-278.5" font-family="Helvetica,sans-Serif" font-size="10.00">depicture_menu::applications</text>
<text xml:space="preserve" text-anchor="start" x="8" y="-266.5" font-family="Helvetica,sans-Serif" font-size="10.00">::config_view_factory::config</text>
<text xml:space="preserve" text-anchor="middle" x="71.38" y="-254.5" font-family="Helvetica,sans-Serif" font-size="10.00">_view_observer::operator()</text>
</a>
</g>
</g>
<!-- Node6&#45;&gt;Node11 -->
<g id="edge10_Node000006_Node000011" class="edge">
<title>Node6&#45;&gt;Node11</title>
<g id="a_edge10_Node000006_Node000011"><a xlink:title=" ">
<path fill="none" stroke="#63b8ff" d="M170.39,-270C161.29,-270 152.08,-270 143.14,-270"/>
<polygon fill="#63b8ff" stroke="#63b8ff" points="170.31,-273.5 180.31,-270 170.31,-266.5 170.31,-273.5"/>
</a>
</g>
</g>
<!-- Node12 -->
<g id="Node000012" class="node">
<title>Node12</title>
<g id="a_Node000012"><a xlink:href="classdepicture__menu_1_1applications_1_1config__view__factory_1_1config__view__observer.html#af1f44ebd2b37b0dfc6f2d9410daef158" target="_top" xlink:title=" ">
<polygon fill="white" stroke="#666666" points="142.75,-230 0,-230 0,-186 142.75,-186 142.75,-230"/>
<text xml:space="preserve" text-anchor="start" x="8" y="-216.5" font-family="Helvetica,sans-Serif" font-size="10.00">depicture_menu::applications</text>
<text xml:space="preserve" text-anchor="start" x="8" y="-204.5" font-family="Helvetica,sans-Serif" font-size="10.00">::config_view_factory::config</text>
<text xml:space="preserve" text-anchor="middle" x="71.38" y="-192.5" font-family="Helvetica,sans-Serif" font-size="10.00">_view_observer::operator()</text>
</a>
</g>
</g>
<!-- Node6&#45;&gt;Node12 -->
<g id="edge11_Node000006_Node000012" class="edge">
<title>Node6&#45;&gt;Node12</title>
<g id="a_edge11_Node000006_Node000012"><a xlink:title=" ">
<path fill="none" stroke="#63b8ff" d="M176.5,-243.84C163.61,-239.4 150.33,-234.83 137.74,-230.5"/>
<polygon fill="#63b8ff" stroke="#63b8ff" points="175.19,-247.09 185.78,-247.04 177.47,-240.47 175.19,-247.09"/>
</a>
</g>
</g>
<!-- Node13 -->
<g id="Node000013" class="node">
<title>Node13</title>
<g id="a_Node000013"><a xlink:href="classdepicture__menu_1_1applications_1_1config__view__factory_1_1config__view__observer.html#abd81afb503bd5d78eda20206f5cd4f85" target="_top" xlink:title="ConfMenuItem &quot;ActionKind&quot;">
<polygon fill="white" stroke="#666666" points="142.75,-168 0,-168 0,-124 142.75,-124 142.75,-168"/>
<text xml:space="preserve" text-anchor="start" x="8" y="-154.5" font-family="Helvetica,sans-Serif" font-size="10.00">depicture_menu::applications</text>
<text xml:space="preserve" text-anchor="start" x="8" y="-142.5" font-family="Helvetica,sans-Serif" font-size="10.00">::config_view_factory::config</text>
<text xml:space="preserve" text-anchor="middle" x="71.38" y="-130.5" font-family="Helvetica,sans-Serif" font-size="10.00">_view_observer::operator()</text>
</a>
</g>
</g>
<!-- Node6&#45;&gt;Node13 -->
<g id="edge12_Node000006_Node000013" class="edge">
<title>Node6&#45;&gt;Node13</title>
<g id="a_edge12_Node000006_Node000013"><a xlink:title=" ">
<path fill="none" stroke="#63b8ff" d="M221.85,-239.83C200.82,-220.22 171.6,-195.04 142.75,-177 137.88,-173.96 132.67,-171.06 127.35,-168.35"/>
<polygon fill="#63b8ff" stroke="#63b8ff" points="219.28,-242.22 228.96,-246.54 224.09,-237.13 219.28,-242.22"/>
</a>
</g>
</g>
<!-- Node14 -->
<g id="Node000014" class="node">
<title>Node14</title>
<g id="a_Node000014"><a xlink:href="classdepicture__menu_1_1applications_1_1config__view__factory_1_1config__view__observer.html#a0bf9aab15faa92f1a83d7560b1d8b52e" target="_top" xlink:title="ConfMenuItem &quot;Name&quot; 更新">
<polygon fill="white" stroke="#666666" points="142.75,-106 0,-106 0,-62 142.75,-62 142.75,-106"/>
<text xml:space="preserve" text-anchor="start" x="8" y="-92.5" font-family="Helvetica,sans-Serif" font-size="10.00">depicture_menu::applications</text>
<text xml:space="preserve" text-anchor="start" x="8" y="-80.5" font-family="Helvetica,sans-Serif" font-size="10.00">::config_view_factory::config</text>
<text xml:space="preserve" text-anchor="middle" x="71.38" y="-68.5" font-family="Helvetica,sans-Serif" font-size="10.00">_view_observer::operator()</text>
</a>
</g>
</g>
<!-- Node6&#45;&gt;Node14 -->
<g id="edge13_Node000006_Node000014" class="edge">
<title>Node6&#45;&gt;Node14</title>
<g id="a_edge13_Node000006_Node000014"><a xlink:title=" ">
<path fill="none" stroke="#63b8ff" d="M236.4,-237.61C217.91,-203.22 184.64,-149.21 142.75,-115 138.92,-111.88 134.73,-109.01 130.36,-106.38"/>
<polygon fill="#63b8ff" stroke="#63b8ff" points="233.21,-239.04 240.96,-246.26 239.4,-235.78 233.21,-239.04"/>
</a>
</g>
</g>
<!-- Node15 -->
<g id="Node000015" class="node">
<title>Node15</title>
<g id="a_Node000015"><a xlink:href="classdepicture__menu_1_1applications_1_1config__view__factory_1_1config__view__observer.html#a4aa1c243e254359b03ef54c48ba853dd" target="_top" xlink:title="ConfMenuItem &quot;IsActive&quot;">
<polygon fill="white" stroke="#666666" points="142.75,-44 0,-44 0,0 142.75,0 142.75,-44"/>
<text xml:space="preserve" text-anchor="start" x="8" y="-30.5" font-family="Helvetica,sans-Serif" font-size="10.00">depicture_menu::applications</text>
<text xml:space="preserve" text-anchor="start" x="8" y="-18.5" font-family="Helvetica,sans-Serif" font-size="10.00">::config_view_factory::config</text>
<text xml:space="preserve" text-anchor="middle" x="71.38" y="-6.5" font-family="Helvetica,sans-Serif" font-size="10.00">_view_observer::operator()</text>
</a>
</g>
</g>
<!-- Node6&#45;&gt;Node15 -->
<g id="edge14_Node000006_Node000015" class="edge">
<title>Node6&#45;&gt;Node15</title>
<g id="a_edge14_Node000006_Node000015"><a xlink:title=" ">
<path fill="none" stroke="#63b8ff" d="M243.42,-236.54C229.18,-189.78 197.4,-104.81 142.75,-53 139.46,-49.88 135.8,-47.04 131.92,-44.46"/>
<polygon fill="#63b8ff" stroke="#63b8ff" points="240.06,-237.51 246.24,-246.11 246.77,-235.53 240.06,-237.51"/>
</a>
</g>
</g>
</g>
</svg>
