<?xml version="1.0" encoding="UTF-8" standalone="no"?>
<!DOCTYPE svg PUBLIC "-//W3C//DTD SVG 1.1//EN"
 "http://www.w3.org/Graphics/SVG/1.1/DTD/svg11.dtd">
<!-- Generated by graphviz version 14.1.2 (20260124.0452)
 -->
<!-- Title: depicture_menu::presentations::datas::contains Pages: 1 -->
<svg width="529pt" height="68pt"
 viewBox="0.00 0.00 529.00 68.00" xmlns="http://www.w3.org/2000/svg" xmlns:xlink="http://www.w3.org/1999/xlink">
<g id="graph0" class="graph" transform="scale(1 1) rotate(0) translate(4 64)">
<title>depicture_menu::presentations::datas::contains</title>
<!-- Node1 -->
<g id="Node000001" class="node">
<title>Node1</title>
<g id="a_Node000001"><a xlink:title=" ">
<polygon fill="#999999" stroke="#666666" points="520.5,-38 371,-38 371,-6 520.5,-6 520.5,-38"/>
<text xml:space="preserve" text-anchor="start" x="379" y="-24.5" font-family="Helvetica,sans-Serif" font-size="10.00">depicture_menu::presentations</text>
<text xml:space="preserve" text-anchor="middle" x="445.75" y="-12.5" font-family="Helvetica,sans-Serif" font-size="10.00">::datas::contains</text>
</a>
</g>
</g>
<!-- Node2 -->
<g id="Node000002" class="node">
<title>Node2</title>
<g id="a_Node000002"><a xlink:href="namespacedepicture__menu_1_1presentations_1_1datas.html#a40c60f3376b1be380acd059cf3818763" target="_top" xlink:title=" ">
<polygon fill="white" stroke="#666666" points="335,-60 185.5,-60 185.5,-28 335,-28 335,-60"/>
<text xml:space="preserve" text-anchor="start" x="193.5" y="-46.5" font-family="Helvetica,sans-Serif" font-size="10.00">depicture_menu::presentations</text>
<text xml:space="preserve" text-anchor="middle" x="260.25" y="-34.5" font-family="Helvetica,sans-Serif" font-size="10.00">::datas::add</text>
</a>
</g>
</g>
<!-- Node1&#45;&gt;Node2 -->
<g id="edge1_Node000001_Node000002" class="edge">
<title>Node1&#45;&gt;Node2</title>
<g id="a_edge1_Node000001_Node000002"><a xlink:title=" ">
<path fill="none" stroke="#63b8ff" d="M359.36,-32.24C351.34,-33.2 343.25,-34.17 335.34,-35.12"/>
<polygon fill="#63b8ff" stroke="#63b8ff" points="359.63,-35.73 369.14,-31.07 358.79,-28.78 359.63,-35.73"/>
</a>
</g>
</g>
<!-- Node3 -->
<g id="Node000003" class="node">
<title>Node3</title>
<g id="a_Node000003"><a xlink:href="classdepicture__menu_1_1presentations_1_1config__view__presenter.html#abca5e005ea6562bc3b87dabee3acc640" target="_top" xlink:title=" ">
<polygon fill="white" stroke="#666666" points="149.5,-44 0,-44 0,0 149.5,0 149.5,-44"/>
<text xml:space="preserve" text-anchor="start" x="8" y="-30.5" font-family="Helvetica,sans-Serif" font-size="10.00">depicture_menu::presentations</text>
<text xml:space="preserve" text-anchor="start" x="8" y="-18.5" font-family="Helvetica,sans-Serif" font-size="10.00">::config_view_presenter::</text>
<text xml:space="preserve" text-anchor="middle" x="74.75" y="-6.5" font-family="Helvetica,sans-Serif" font-size="10.00">change_menu</text>
</a>
</g>
</g>
<!-- Node1&#45;&gt;Node3 -->
<g id="edge3_Node000001_Node000003" class="edge">
<title>Node1&#45;&gt;Node3</title>
<g id="a_edge3_Node000001_Node000003"><a xlink:title=" ">
<path fill="none" stroke="#63b8ff" d="M359.43,-19.44C351.18,-19.26 342.93,-19.11 335,-19 268.56,-18.09 251.94,-18.09 185.5,-19 173.97,-19.16 161.76,-19.41 149.83,-19.7"/>
<polygon fill="#63b8ff" stroke="#63b8ff" points="359.07,-22.93 369.15,-19.66 359.24,-15.93 359.07,-22.93"/>
</a>
</g>
</g>
<!-- Node2&#45;&gt;Node3 -->
<g id="edge2_Node000002_Node000003" class="edge">
<title>Node2&#45;&gt;Node3</title>
<g id="a_edge2_Node000002_Node000003"><a xlink:title=" ">
<path fill="none" stroke="#63b8ff" d="M173.86,-33.76C165.84,-32.8 157.75,-31.83 149.84,-30.88"/>
<polygon fill="#63b8ff" stroke="#63b8ff" points="173.29,-37.22 183.64,-34.93 174.13,-30.27 173.29,-37.22"/>
</a>
</g>
</g>
</g>
</svg>
