<?xml version="1.0" encoding="UTF-8" standalone="no"?>
<!DOCTYPE svg PUBLIC "-//W3C//DTD SVG 1.1//EN"
 "http://www.w3.org/Graphics/SVG/1.1/DTD/svg11.dtd">
<!-- Generated by graphviz version 14.1.2 (20260124.0452)
 -->
<!-- Title: depicture_menu::domain::commands::build_parameter_value Pages: 1 -->
<svg width="607pt" height="412pt"
 viewBox="0.00 0.00 607.00 412.00" xmlns="http://www.w3.org/2000/svg" xmlns:xlink="http://www.w3.org/1999/xlink">
<g id="graph0" class="graph" transform="scale(1 1) rotate(0) translate(4 408)">
<title>depicture_menu::domain::commands::build_parameter_value</title>
<!-- Node1 -->
<g id="Node000001" class="node">
<title>Node1</title>
<g id="a_Node000001"><a xlink:title=" ">
<polygon fill="#999999" stroke="#666666" points="599.25,-224 425.75,-224 425.75,-192 599.25,-192 599.25,-224"/>
<text xml:space="preserve" text-anchor="start" x="433.75" y="-210.5" font-family="Helvetica,sans-Serif" font-size="10.00">depicture_menu::domain</text>
<text xml:space="preserve" text-anchor="middle" x="512.5" y="-198.5" font-family="Helvetica,sans-Serif" font-size="10.00">::commands::build_parameter_value</text>
</a>
</g>
</g>
<!-- Node2 -->
<g id="Node000002" class="node">
<title>Node2</title>
<g id="a_Node000002"><a xlink:href="_test_export_backup_8cpp.html#a3edaded526d02a63ebf8bcff48af4087" target="_top" xlink:title=" ">
<polygon fill="white" stroke="#666666" points="370.25,-404 223,-404 223,-384 370.25,-384 370.25,-404"/>
<text xml:space="preserve" text-anchor="middle" x="296.62" y="-390.5" font-family="Helvetica,sans-Serif" font-size="10.00">BOOST_AUTO_TEST_CASE</text>
</a>
</g>
</g>
<!-- Node1&#45;&gt;Node2 -->
<g id="edge1_Node000001_Node000002" class="edge">
<title>Node1&#45;&gt;Node2</title>
<g id="a_edge1_Node000001_Node000002"><a xlink:title=" ">
<path fill="none" stroke="#63b8ff" d="M499.83,-234.61C481.89,-272.21 443.84,-340.17 389.75,-375 383.85,-378.8 377.33,-381.86 370.56,-384.32"/>
<polygon fill="#63b8ff" stroke="#63b8ff" points="502.88,-236.34 503.91,-225.8 496.53,-233.4 502.88,-236.34"/>
</a>
</g>
</g>
<!-- Node3 -->
<g id="Node000003" class="node">
<title>Node3</title>
<g id="a_Node000003"><a xlink:href="classdepicture__menu_1_1domain_1_1services_1_1common__action__builder.html#aa670bccd31eab4473fa4bf345cd44ff4" target="_top" xlink:title=" ">
<polygon fill="white" stroke="#666666" points="363.5,-366 229.75,-366 229.75,-310 363.5,-310 363.5,-366"/>
<text xml:space="preserve" text-anchor="start" x="237.75" y="-352.5" font-family="Helvetica,sans-Serif" font-size="10.00">depicture_menu::domain</text>
<text xml:space="preserve" text-anchor="start" x="237.75" y="-340.5" font-family="Helvetica,sans-Serif" font-size="10.00">::services::common_action</text>
<text xml:space="preserve" text-anchor="start" x="237.75" y="-328.5" font-family="Helvetica,sans-Serif" font-size="10.00">_builder::build_open_sub</text>
<text xml:space="preserve" text-anchor="middle" x="296.62" y="-316.5" font-family="Helvetica,sans-Serif" font-size="10.00">_menu_action</text>
</a>
</g>
</g>
<!-- Node1&#45;&gt;Node3 -->
<g id="edge2_Node000001_Node000003" class="edge">
<title>Node1&#45;&gt;Node3</title>
<g id="a_edge2_Node000001_Node000003"><a xlink:title=" ">
<path fill="none" stroke="#63b8ff" d="M485.19,-231.47C461.47,-251.78 425.01,-280.95 389.75,-301 381.51,-305.69 372.56,-310.07 363.58,-314.06"/>
<polygon fill="#63b8ff" stroke="#63b8ff" points="487.21,-234.35 492.48,-225.15 482.63,-229.06 487.21,-234.35"/>
</a>
</g>
</g>
<!-- Node4 -->
<g id="Node000004" class="node">
<title>Node4</title>
<g id="a_Node000004"><a xlink:href="classdepicture__menu_1_1domain_1_1commands_1_1command.html#a7838d760a9092e30737915a9069586df" target="_top" xlink:title=" ">
<polygon fill="white" stroke="#666666" points="369.12,-292 224.12,-292 224.12,-248 369.12,-248 369.12,-292"/>
<text xml:space="preserve" text-anchor="start" x="232.12" y="-278.5" font-family="Helvetica,sans-Serif" font-size="10.00">depicture_menu::domain</text>
<text xml:space="preserve" text-anchor="start" x="232.12" y="-266.5" font-family="Helvetica,sans-Serif" font-size="10.00">::commands::command::build</text>
<text xml:space="preserve" text-anchor="middle" x="296.62" y="-254.5" font-family="Helvetica,sans-Serif" font-size="10.00">_parameter_pack_by_tuple</text>
</a>
</g>
</g>
<!-- Node1&#45;&gt;Node4 -->
<g id="edge3_Node000001_Node000004" class="edge">
<title>Node1&#45;&gt;Node4</title>
<g id="a_edge3_Node000001_Node000004"><a xlink:title=" ">
<path fill="none" stroke="#63b8ff" d="M443.77,-227.63C420.15,-234.48 393.57,-242.19 369.61,-249.13"/>
<polygon fill="#63b8ff" stroke="#63b8ff" points="444.66,-231.02 453.29,-224.87 442.71,-224.3 444.66,-231.02"/>
</a>
</g>
</g>
<!-- Node6 -->
<g id="Node000006" class="node">
<title>Node6</title>
<g id="a_Node000006"><a xlink:href="structdepicture__menu_1_1domain_1_1commands_1_1parameter__pack.html#a280314e4a4e19cba3242d0f30fab4c20" target="_top" xlink:title=" ">
<polygon fill="white" stroke="#666666" points="357.88,-230 235.38,-230 235.38,-186 357.88,-186 357.88,-230"/>
<text xml:space="preserve" text-anchor="start" x="243.38" y="-216.5" font-family="Helvetica,sans-Serif" font-size="10.00">depicture_menu::domain</text>
<text xml:space="preserve" text-anchor="start" x="243.38" y="-204.5" font-family="Helvetica,sans-Serif" font-size="10.00">::commands::parameter</text>
<text xml:space="preserve" text-anchor="middle" x="296.62" y="-192.5" font-family="Helvetica,sans-Serif" font-size="10.00">_pack::generate</text>
</a>
</g>
</g>
<!-- Node1&#45;&gt;Node6 -->
<g id="edge5_Node000001_Node000006" class="edge">
<title>Node1&#45;&gt;Node6</title>
<g id="a_edge5_Node000001_Node000006"><a xlink:title=" ">
<path fill="none" stroke="#63b8ff" d="M414,-208C395,-208 375.6,-208 358.23,-208"/>
<polygon fill="#63b8ff" stroke="#63b8ff" points="413.92,-211.5 423.92,-208 413.92,-204.5 413.92,-211.5"/>
</a>
</g>
</g>
<!-- Node9 -->
<g id="Node000009" class="node">
<title>Node9</title>
<g id="a_Node000009"><a xlink:href="structparameter__data__test__base.html#a92cdf5c6f962881584449745ffbaac51" target="_top" xlink:title=" ">
<polygon fill="white" stroke="#666666" points="349.25,-168 244,-168 244,-136 349.25,-136 349.25,-168"/>
<text xml:space="preserve" text-anchor="start" x="252" y="-154.5" font-family="Helvetica,sans-Serif" font-size="10.00">parameter_data_test</text>
<text xml:space="preserve" text-anchor="middle" x="296.62" y="-142.5" font-family="Helvetica,sans-Serif" font-size="10.00">_base::get_entity</text>
</a>
</g>
</g>
<!-- Node1&#45;&gt;Node9 -->
<g id="edge8_Node000001_Node000009" class="edge">
<title>Node1&#45;&gt;Node9</title>
<g id="a_edge8_Node000001_Node000009"><a xlink:title=" ">
<path fill="none" stroke="#63b8ff" d="M437.59,-188.65C408.66,-181.07 376.15,-172.56 349.75,-165.65"/>
<polygon fill="#63b8ff" stroke="#63b8ff" points="436.46,-191.97 447.02,-191.12 438.24,-185.2 436.46,-191.97"/>
</a>
</g>
</g>
<!-- Node10 -->
<g id="Node000010" class="node">
<title>Node10</title>
<g id="a_Node000010"><a xlink:href="classdepicture__menu_1_1domain_1_1commands_1_1buildin_1_1shellexecute__command__parameter.html#acc8632d315ec07353a02ea485c99e984" target="_top" xlink:title=" ">
<polygon fill="white" stroke="#666666" points="389.75,-118 203.5,-118 203.5,-74 389.75,-74 389.75,-118"/>
<text xml:space="preserve" text-anchor="start" x="211.5" y="-104.5" font-family="Helvetica,sans-Serif" font-size="10.00">depicture_menu::domain</text>
<text xml:space="preserve" text-anchor="start" x="211.5" y="-92.5" font-family="Helvetica,sans-Serif" font-size="10.00">::commands::buildin::shellexecute</text>
<text xml:space="preserve" text-anchor="middle" x="296.62" y="-80.5" font-family="Helvetica,sans-Serif" font-size="10.00">_command_parameter::get_parameters</text>
</a>
</g>
</g>
<!-- Node1&#45;&gt;Node10 -->
<g id="edge9_Node000001_Node000010" class="edge">
<title>Node1&#45;&gt;Node10</title>
<g id="a_edge9_Node000001_Node000010"><a xlink:title=" ">
<path fill="none" stroke="#63b8ff" d="M481.33,-184.67C457.48,-167.05 422.81,-143.21 389.75,-127 383.54,-123.95 376.95,-121.09 370.27,-118.42"/>
<polygon fill="#63b8ff" stroke="#63b8ff" points="479.23,-187.46 489.33,-190.65 483.42,-181.86 479.23,-187.46"/>
</a>
</g>
</g>
<!-- Node14 -->
<g id="Node000014" class="node">
<title>Node14</title>
<g id="a_Node000014"><a xlink:href="structdepicture__menu_1_1usecase_1_1backup_1_1detail__backup_1_1paramter__dto__visiter.html#a65a7039658dbc8355e092585e9bf4670" target="_top" xlink:title=" ">
<polygon fill="white" stroke="#666666" points="360.5,-56 232.75,-56 232.75,0 360.5,0 360.5,-56"/>
<text xml:space="preserve" text-anchor="start" x="240.75" y="-42.5" font-family="Helvetica,sans-Serif" font-size="10.00">depicture_menu::usecase</text>
<text xml:space="preserve" text-anchor="start" x="240.75" y="-30.5" font-family="Helvetica,sans-Serif" font-size="10.00">::backup::detail_backup</text>
<text xml:space="preserve" text-anchor="start" x="240.75" y="-18.5" font-family="Helvetica,sans-Serif" font-size="10.00">::paramter_dto_visiter::</text>
<text xml:space="preserve" text-anchor="middle" x="296.62" y="-6.5" font-family="Helvetica,sans-Serif" font-size="10.00">operator()</text>
</a>
</g>
</g>
<!-- Node1&#45;&gt;Node14 -->
<g id="edge13_Node000001_Node000014" class="edge">
<title>Node1&#45;&gt;Node14</title>
<g id="a_edge13_Node000001_Node000014"><a xlink:title=" ">
<path fill="none" stroke="#63b8ff" d="M495.28,-182.19C474.33,-150.7 435.13,-97.65 389.75,-65 380.94,-58.66 370.88,-53.2 360.73,-48.57"/>
<polygon fill="#63b8ff" stroke="#63b8ff" points="492.2,-183.87 500.6,-190.33 498.06,-180.05 492.2,-183.87"/>
</a>
</g>
</g>
<!-- Node5 -->
<g id="Node000005" class="node">
<title>Node5</title>
<g id="a_Node000005"><a xlink:href="classdepicture__menu_1_1domain_1_1commands_1_1command.html#accf7c2a00f214fd3333d02f07ac51ee4" target="_top" xlink:title=" ">
<polygon fill="white" stroke="#666666" points="167.5,-302 0,-302 0,-270 167.5,-270 167.5,-302"/>
<text xml:space="preserve" text-anchor="start" x="8" y="-288.5" font-family="Helvetica,sans-Serif" font-size="10.00">depicture_menu::domain</text>
<text xml:space="preserve" text-anchor="middle" x="83.75" y="-276.5" font-family="Helvetica,sans-Serif" font-size="10.00">::commands::command::command</text>
</a>
</g>
</g>
<!-- Node4&#45;&gt;Node5 -->
<g id="edge4_Node000004_Node000005" class="edge">
<title>Node4&#45;&gt;Node5</title>
<g id="a_edge4_Node000004_Node000005"><a xlink:title=" ">
<path fill="none" stroke="#63b8ff" d="M212.51,-276.31C197.76,-277.43 182.4,-278.59 167.66,-279.71"/>
<polygon fill="#63b8ff" stroke="#63b8ff" points="212.43,-279.82 222.13,-275.58 211.9,-272.84 212.43,-279.82"/>
</a>
</g>
</g>
<!-- Node7 -->
<g id="Node000007" class="node">
<title>Node7</title>
<g id="a_Node000007"><a xlink:href="structdepicture__menu_1_1domain_1_1commands_1_1parameter__pack.html#ad81d83676ec4b56d0d568076293d7a31" target="_top" xlink:title=" ">
<polygon fill="white" stroke="#666666" points="145,-252 22.5,-252 22.5,-208 145,-208 145,-252"/>
<text xml:space="preserve" text-anchor="start" x="30.5" y="-238.5" font-family="Helvetica,sans-Serif" font-size="10.00">depicture_menu::domain</text>
<text xml:space="preserve" text-anchor="start" x="30.5" y="-226.5" font-family="Helvetica,sans-Serif" font-size="10.00">::commands::parameter</text>
<text xml:space="preserve" text-anchor="middle" x="83.75" y="-214.5" font-family="Helvetica,sans-Serif" font-size="10.00">_pack::parameter_pack</text>
</a>
</g>
</g>
<!-- Node6&#45;&gt;Node7 -->
<g id="edge6_Node000006_Node000007" class="edge">
<title>Node6&#45;&gt;Node7</title>
<g id="a_edge6_Node000006_Node000007"><a xlink:title=" ">
<path fill="none" stroke="#63b8ff" d="M223.46,-215.53C198.05,-218.18 169.76,-221.13 145.4,-223.67"/>
<polygon fill="#63b8ff" stroke="#63b8ff" points="223.83,-219.01 233.41,-214.49 223.1,-212.05 223.83,-219.01"/>
</a>
</g>
</g>
<!-- Node8 -->
<g id="Node000008" class="node">
<title>Node8</title>
<g id="a_Node000008"><a xlink:href="structdepicture__menu_1_1domain_1_1commands_1_1parameter__pack.html#add38ea3248cce31bf1eb8dd28c51b820" target="_top" xlink:title=" ">
<polygon fill="white" stroke="#666666" points="145,-190 22.5,-190 22.5,-146 145,-146 145,-190"/>
<text xml:space="preserve" text-anchor="start" x="30.5" y="-176.5" font-family="Helvetica,sans-Serif" font-size="10.00">depicture_menu::domain</text>
<text xml:space="preserve" text-anchor="start" x="30.5" y="-164.5" font-family="Helvetica,sans-Serif" font-size="10.00">::commands::parameter</text>
<text xml:space="preserve" text-anchor="middle" x="83.75" y="-152.5" font-family="Helvetica,sans-Serif" font-size="10.00">_pack::parameter_pack</text>
</a>
</g>
</g>
<!-- Node6&#45;&gt;Node8 -->
<g id="edge7_Node000006_Node000008" class="edge">
<title>Node6&#45;&gt;Node8</title>
<g id="a_edge7_Node000006_Node000008"><a xlink:title=" ">
<path fill="none" stroke="#63b8ff" d="M223.81,-194.38C198.31,-189.54 169.87,-184.15 145.4,-179.5"/>
<polygon fill="#63b8ff" stroke="#63b8ff" points="222.95,-197.78 233.43,-196.2 224.25,-190.9 222.95,-197.78"/>
</a>
</g>
</g>
<!-- Node11 -->
<g id="Node000011" class="node">
<title>Node11</title>
<g id="a_Node000011"><a xlink:href="menu__change__operation_8cpp.html#a47c493cda5dad7713cef20424cd34477" target="_top" xlink:title=" ">
<polygon fill="white" stroke="#666666" points="157.38,-128 10.12,-128 10.12,-108 157.38,-108 157.38,-128"/>
<text xml:space="preserve" text-anchor="middle" x="83.75" y="-114.5" font-family="Helvetica,sans-Serif" font-size="10.00">BOOST_AUTO_TEST_CASE</text>
</a>
</g>
</g>
<!-- Node10&#45;&gt;Node11 -->
<g id="edge10_Node000010_Node000011" class="edge">
<title>Node10&#45;&gt;Node11</title>
<g id="a_edge10_Node000010_Node000011"><a xlink:title=" ">
<path fill="none" stroke="#63b8ff" d="M191.71,-106.84C180.27,-108.03 168.8,-109.23 157.84,-110.37"/>
<polygon fill="#63b8ff" stroke="#63b8ff" points="192.04,-110.33 201.63,-105.81 191.32,-103.36 192.04,-110.33"/>
</a>
</g>
</g>
<!-- Node12 -->
<g id="Node000012" class="node">
<title>Node12</title>
<g id="a_Node000012"><a xlink:href="test__action_8cpp.html#a76cb17cb71c58d3ec08740d206162213" target="_top" xlink:title=" ">
<polygon fill="white" stroke="#666666" points="157.38,-90 10.12,-90 10.12,-70 157.38,-70 157.38,-90"/>
<text xml:space="preserve" text-anchor="middle" x="83.75" y="-76.5" font-family="Helvetica,sans-Serif" font-size="10.00">BOOST_AUTO_TEST_CASE</text>
</a>
</g>
</g>
<!-- Node10&#45;&gt;Node12 -->
<g id="edge11_Node000010_Node000012" class="edge">
<title>Node10&#45;&gt;Node12</title>
<g id="a_edge11_Node000010_Node000012"><a xlink:title=" ">
<path fill="none" stroke="#63b8ff" d="M191.71,-88.12C180.27,-87.25 168.8,-86.38 157.84,-85.55"/>
<polygon fill="#63b8ff" stroke="#63b8ff" points="191.39,-91.6 201.62,-88.87 191.92,-84.62 191.39,-91.6"/>
</a>
</g>
</g>
<!-- Node13 -->
<g id="Node000013" class="node">
<title>Node13</title>
<g id="a_Node000013"><a xlink:href="classdepicture__menu_1_1domain_1_1services_1_1common__action__builder.html#ab7e5be9582146abe38706570dab881fa" target="_top" xlink:title=" ">
<polygon fill="white" stroke="#666666" points="167.5,-52 0,-52 0,-8 167.5,-8 167.5,-52"/>
<text xml:space="preserve" text-anchor="start" x="8" y="-38.5" font-family="Helvetica,sans-Serif" font-size="10.00">depicture_menu::domain</text>
<text xml:space="preserve" text-anchor="start" x="8" y="-26.5" font-family="Helvetica,sans-Serif" font-size="10.00">::services::common_action</text>
<text xml:space="preserve" text-anchor="middle" x="83.75" y="-14.5" font-family="Helvetica,sans-Serif" font-size="10.00">_builder::build_shellexecute_action</text>
</a>
</g>
</g>
<!-- Node10&#45;&gt;Node13 -->
<g id="edge12_Node000010_Node000013" class="edge">
<title>Node10&#45;&gt;Node13</title>
<g id="a_edge12_Node000010_Node000013"><a xlink:title=" ">
<path fill="none" stroke="#63b8ff" d="M213.09,-70.17C194.43,-64.33 174.77,-58.17 156.6,-52.49"/>
<polygon fill="#63b8ff" stroke="#63b8ff" points="211.9,-73.46 222.49,-73.11 214,-66.78 211.9,-73.46"/>
</a>
</g>
</g>
</g>
</svg>
