<?xml version="1.0" encoding="UTF-8" standalone="no"?>
<!DOCTYPE svg PUBLIC "-//W3C//DTD SVG 1.1//EN"
 "http://www.w3.org/Graphics/SVG/1.1/DTD/svg11.dtd">
<!-- Generated by graphviz version 14.1.2 (20260124.0452)
 -->
<!-- Title: depicture_menu::domain::models::base::to_const_ref_tuple Pages: 1 -->
<svg width="534pt" height="447pt"
 viewBox="0.00 0.00 534.00 447.00" xmlns="http://www.w3.org/2000/svg" xmlns:xlink="http://www.w3.org/1999/xlink">
<g id="graph0" class="graph" transform="scale(1 1) rotate(0) translate(4 443)">
<title>depicture_menu::domain::models::base::to_const_ref_tuple</title>
<!-- Node1 -->
<g id="Node000001" class="node">
<title>Node1</title>
<g id="a_Node000001"><a xlink:title=" ">
<polygon fill="#999999" stroke="#666666" points="525.75,-175 401.75,-175 401.75,-131 525.75,-131 525.75,-175"/>
<text xml:space="preserve" text-anchor="start" x="409.75" y="-161.5" font-family="Helvetica,sans-Serif" font-size="10.00">depicture_menu::domain</text>
<text xml:space="preserve" text-anchor="start" x="409.75" y="-149.5" font-family="Helvetica,sans-Serif" font-size="10.00">::models::base::to_const</text>
<text xml:space="preserve" text-anchor="middle" x="463.75" y="-137.5" font-family="Helvetica,sans-Serif" font-size="10.00">_ref_tuple</text>
</a>
</g>
</g>
<!-- Node2 -->
<g id="Node000002" class="node">
<title>Node2</title>
<g id="a_Node000002"><a xlink:href="namespacedepicture__menu_1_1test_1_1test__tools.html#a433f952067b142a6d07d73c50e17f983" target="_top" xlink:title="チェック関数">
<polygon fill="white" stroke="#666666" points="365.75,-318 226,-318 226,-286 365.75,-286 365.75,-318"/>
<text xml:space="preserve" text-anchor="start" x="234" y="-304.5" font-family="Helvetica,sans-Serif" font-size="10.00">depicture_menu::test</text>
<text xml:space="preserve" text-anchor="middle" x="295.88" y="-292.5" font-family="Helvetica,sans-Serif" font-size="10.00">::test_tools::check_modders</text>
</a>
</g>
</g>
<!-- Node1&#45;&gt;Node2 -->
<g id="edge1_Node000001_Node000002" class="edge">
<title>Node1&#45;&gt;Node2</title>
<g id="a_edge1_Node000001_Node000002"><a xlink:title=" ">
<path fill="none" stroke="#63b8ff" d="M444.78,-185.04C427.7,-212.85 399.64,-252.41 365.75,-277 361.32,-280.21 356.44,-283.05 351.38,-285.55"/>
<polygon fill="#63b8ff" stroke="#63b8ff" points="447.65,-187.05 449.79,-176.67 441.65,-183.46 447.65,-187.05"/>
</a>
</g>
</g>
<!-- Node5 -->
<g id="Node000005" class="node">
<title>Node5</title>
<g id="a_Node000005"><a xlink:href="structboost_1_1test__tools_1_1tt__detail_1_1print__log__value_3_01_e_01_4.html#a3a2a39ece6ce084cfc42cf91b00a29c2" target="_top" xlink:title=" ">
<polygon fill="white" stroke="#666666" points="354.12,-268 237.62,-268 237.62,-224 354.12,-224 354.12,-268"/>
<text xml:space="preserve" text-anchor="start" x="245.62" y="-254.5" font-family="Helvetica,sans-Serif" font-size="10.00">boost::test_tools::</text>
<text xml:space="preserve" text-anchor="start" x="245.62" y="-242.5" font-family="Helvetica,sans-Serif" font-size="10.00">tt_detail::print_log</text>
<text xml:space="preserve" text-anchor="middle" x="295.88" y="-230.5" font-family="Helvetica,sans-Serif" font-size="10.00">_value&lt; E &gt;::operator()</text>
</a>
</g>
</g>
<!-- Node1&#45;&gt;Node5 -->
<g id="edge4_Node000001_Node000005" class="edge">
<title>Node1&#45;&gt;Node5</title>
<g id="a_edge4_Node000001_Node000005"><a xlink:title=" ">
<path fill="none" stroke="#63b8ff" d="M420.74,-181.74C403.97,-192.72 384.27,-204.98 365.75,-215 360.33,-217.93 354.58,-220.83 348.8,-223.61"/>
<polygon fill="#63b8ff" stroke="#63b8ff" points="422.57,-184.73 428.99,-176.29 418.71,-178.89 422.57,-184.73"/>
</a>
</g>
</g>
<!-- Node6 -->
<g id="Node000006" class="node">
<title>Node6</title>
<g id="a_Node000006"><a xlink:href="structboost_1_1test__tools_1_1tt__detail_1_1print__log__value_3_01_v_o_01_4.html#aaf4c3a0ed118a198ef433b443ea4d3d0" target="_top" xlink:title=" ">
<polygon fill="white" stroke="#666666" points="357.88,-206 233.88,-206 233.88,-162 357.88,-162 357.88,-206"/>
<text xml:space="preserve" text-anchor="start" x="241.88" y="-192.5" font-family="Helvetica,sans-Serif" font-size="10.00">boost::test_tools::</text>
<text xml:space="preserve" text-anchor="start" x="241.88" y="-180.5" font-family="Helvetica,sans-Serif" font-size="10.00">tt_detail::print_log</text>
<text xml:space="preserve" text-anchor="middle" x="295.88" y="-168.5" font-family="Helvetica,sans-Serif" font-size="10.00">_value&lt; VO &gt;::operator()</text>
</a>
</g>
</g>
<!-- Node1&#45;&gt;Node6 -->
<g id="edge5_Node000001_Node000006" class="edge">
<title>Node1&#45;&gt;Node6</title>
<g id="a_edge5_Node000001_Node000006"><a xlink:title=" ">
<path fill="none" stroke="#63b8ff" d="M390.39,-166.52C379.65,-168.53 368.67,-170.58 358.19,-172.54"/>
<polygon fill="#63b8ff" stroke="#63b8ff" points="390.78,-170.01 399.97,-164.73 389.49,-163.13 390.78,-170.01"/>
</a>
</g>
</g>
<!-- Node7 -->
<g id="Node000007" class="node">
<title>Node7</title>
<g id="a_Node000007"><a xlink:href="structdepicture__menu_1_1test_1_1test__tools_1_1init__checker.html#a7a5e9e712053a1287e9e86d0a6dcef7a" target="_top" xlink:title=" ">
<polygon fill="white" stroke="#666666" points="357.5,-144 234.25,-144 234.25,-100 357.5,-100 357.5,-144"/>
<text xml:space="preserve" text-anchor="start" x="242.25" y="-130.5" font-family="Helvetica,sans-Serif" font-size="10.00">depicture_menu::test</text>
<text xml:space="preserve" text-anchor="start" x="242.25" y="-118.5" font-family="Helvetica,sans-Serif" font-size="10.00">::test_tools::init_checker</text>
<text xml:space="preserve" text-anchor="middle" x="295.88" y="-106.5" font-family="Helvetica,sans-Serif" font-size="10.00">::operator()</text>
</a>
</g>
</g>
<!-- Node1&#45;&gt;Node7 -->
<g id="edge6_Node000001_Node000007" class="edge">
<title>Node1&#45;&gt;Node7</title>
<g id="a_edge6_Node000001_Node000007"><a xlink:title=" ">
<path fill="none" stroke="#63b8ff" d="M390.31,-139.46C379.51,-137.44 368.46,-135.38 357.92,-133.41"/>
<polygon fill="#63b8ff" stroke="#63b8ff" points="389.49,-142.87 399.97,-141.27 390.78,-135.99 389.49,-142.87"/>
</a>
</g>
</g>
<!-- Node8 -->
<g id="Node000008" class="node">
<title>Node8</title>
<g id="a_Node000008"><a xlink:href="structtt_1_1field__checker.html#aa1610a051ad7cd8478779af738420668" target="_top" xlink:title=" ">
<polygon fill="white" stroke="#666666" points="341.75,-82 250,-82 250,-50 341.75,-50 341.75,-82"/>
<text xml:space="preserve" text-anchor="start" x="258" y="-68.5" font-family="Helvetica,sans-Serif" font-size="10.00">tt::field_checker::</text>
<text xml:space="preserve" text-anchor="middle" x="295.88" y="-56.5" font-family="Helvetica,sans-Serif" font-size="10.00">operator()</text>
</a>
</g>
</g>
<!-- Node1&#45;&gt;Node8 -->
<g id="edge7_Node000001_Node000008" class="edge">
<title>Node1&#45;&gt;Node8</title>
<g id="a_edge7_Node000001_Node000008"><a xlink:title=" ">
<path fill="none" stroke="#63b8ff" d="M422.78,-124.64C405.71,-113.28 385.26,-100.63 365.75,-91 358.22,-87.28 350,-83.82 341.94,-80.73"/>
<polygon fill="#63b8ff" stroke="#63b8ff" points="420.39,-127.24 430.63,-129.94 424.31,-121.44 420.39,-127.24"/>
</a>
</g>
</g>
<!-- Node9 -->
<g id="Node000009" class="node">
<title>Node9</title>
<g id="a_Node000009"><a xlink:href="namespacedepicture__menu_1_1domain_1_1models_1_1base.html#aabec1f4c5bbc320bd602a9a2b49611c9" target="_top" xlink:title=" ">
<polygon fill="white" stroke="#666666" points="362.75,-32 229,-32 229,0 362.75,0 362.75,-32"/>
<text xml:space="preserve" text-anchor="start" x="237" y="-18.5" font-family="Helvetica,sans-Serif" font-size="10.00">depicture_menu::domain</text>
<text xml:space="preserve" text-anchor="middle" x="295.88" y="-6.5" font-family="Helvetica,sans-Serif" font-size="10.00">::models::base::operator==</text>
</a>
</g>
</g>
<!-- Node1&#45;&gt;Node9 -->
<g id="edge8_Node000001_Node000009" class="edge">
<title>Node1&#45;&gt;Node9</title>
<g id="a_edge8_Node000001_Node000009"><a xlink:title=" ">
<path fill="none" stroke="#63b8ff" d="M442.07,-121.25C424.42,-96.38 396.99,-62.5 365.75,-41 361.03,-37.76 355.85,-34.88 350.5,-32.34"/>
<polygon fill="#63b8ff" stroke="#63b8ff" points="439.13,-123.16 447.7,-129.39 444.88,-119.17 439.13,-123.16"/>
</a>
</g>
</g>
<!-- Node3 -->
<g id="Node000003" class="node">
<title>Node3</title>
<g id="a_Node000003"><a xlink:href="structdepicture__menu_1_1test_1_1test__tools_1_1dynamic__field__checker.html#abf865755d93cd5741324e769a47e77ea" target="_top" xlink:title=" ">
<polygon fill="white" stroke="#666666" points="190,-439 0,-439 0,-311 190,-311 190,-439"/>
<text xml:space="preserve" text-anchor="start" x="8" y="-425.5" font-family="Helvetica,sans-Serif" font-size="10.00">depicture_menu::test</text>
<text xml:space="preserve" text-anchor="start" x="8" y="-413.5" font-family="Helvetica,sans-Serif" font-size="10.00">::test_tools::dynamic</text>
<text xml:space="preserve" text-anchor="start" x="8" y="-401.5" font-family="Helvetica,sans-Serif" font-size="10.00">_field_checker&lt; dub::create</text>
<text xml:space="preserve" text-anchor="start" x="8" y="-389.5" font-family="Helvetica,sans-Serif" font-size="10.00">_config_dto, dub::create_config</text>
<text xml:space="preserve" text-anchor="start" x="8" y="-377.5" font-family="Helvetica,sans-Serif" font-size="10.00">_entity, config_data_initializer,</text>
<text xml:space="preserve" text-anchor="start" x="8" y="-365.5" font-family="Helvetica,sans-Serif" font-size="10.00"> dto_field, Setter, Getter &gt;&lt; &quot;default</text>
<text xml:space="preserve" text-anchor="start" x="8" y="-353.5" font-family="Helvetica,sans-Serif" font-size="10.00">_menu_id&quot;, decltype([](auto &amp;e, auto</text>
<text xml:space="preserve" text-anchor="start" x="8" y="-341.5" font-family="Helvetica,sans-Serif" font-size="10.00"> id) { e.set_default_menu_id(id);}),</text>
<text xml:space="preserve" text-anchor="start" x="8" y="-329.5" font-family="Helvetica,sans-Serif" font-size="10.00"> decltype([](auto const &amp;e) { return e.get</text>
<text xml:space="preserve" text-anchor="middle" x="95" y="-317.5" font-family="Helvetica,sans-Serif" font-size="10.00">_default_menu_id();}) &gt;::operator()</text>
</a>
</g>
</g>
<!-- Node2&#45;&gt;Node3 -->
<g id="edge2_Node000002_Node000003" class="edge">
<title>Node2&#45;&gt;Node3</title>
<g id="a_edge2_Node000002_Node000003"><a xlink:title=" ">
<path fill="none" stroke="#63b8ff" d="M239.86,-322.2C224.4,-327.87 207.15,-334.2 190.1,-340.46"/>
<polygon fill="#63b8ff" stroke="#63b8ff" points="240.64,-325.64 248.82,-318.9 238.23,-319.06 240.64,-325.64"/>
</a>
</g>
</g>
<!-- Node4 -->
<g id="Node000004" class="node">
<title>Node4</title>
<g id="a_Node000004"><a xlink:href="structdepicture__menu_1_1test_1_1test__tools_1_1field__checker.html#aa34650d61c770b2a7d65c02f0d69a58c" target="_top" xlink:title=" ">
<polygon fill="white" stroke="#666666" points="177.62,-293 12.38,-293 12.38,-165 177.62,-165 177.62,-293"/>
<text xml:space="preserve" text-anchor="start" x="20.38" y="-279.5" font-family="Helvetica,sans-Serif" font-size="10.00">depicture_menu::test</text>
<text xml:space="preserve" text-anchor="start" x="20.38" y="-267.5" font-family="Helvetica,sans-Serif" font-size="10.00">::test_tools::field_checker</text>
<text xml:space="preserve" text-anchor="start" x="20.38" y="-255.5" font-family="Helvetica,sans-Serif" font-size="10.00">&lt; dub::create_command_dto,</text>
<text xml:space="preserve" text-anchor="start" x="20.38" y="-243.5" font-family="Helvetica,sans-Serif" font-size="10.00"> dub::create_command_entity,</text>
<text xml:space="preserve" text-anchor="start" x="20.38" y="-231.5" font-family="Helvetica,sans-Serif" font-size="10.00"> command_data_factory, Dto,</text>
<text xml:space="preserve" text-anchor="start" x="20.38" y="-219.5" font-family="Helvetica,sans-Serif" font-size="10.00"> EntSetter, EntGetter, D, E &gt;</text>
<text xml:space="preserve" text-anchor="start" x="20.38" y="-207.5" font-family="Helvetica,sans-Serif" font-size="10.00">&lt; &quot;name&quot;, decltype([](auto &amp;v,</text>
<text xml:space="preserve" text-anchor="start" x="20.38" y="-195.5" font-family="Helvetica,sans-Serif" font-size="10.00"> auto const &amp;d) { v.name(d);}),</text>
<text xml:space="preserve" text-anchor="start" x="20.38" y="-183.5" font-family="Helvetica,sans-Serif" font-size="10.00"> decltype([](auto const &amp;v) { return</text>
<text xml:space="preserve" text-anchor="middle" x="95" y="-171.5" font-family="Helvetica,sans-Serif" font-size="10.00"> v.name();}), D, E &gt;::operator()</text>
</a>
</g>
</g>
<!-- Node2&#45;&gt;Node4 -->
<g id="edge3_Node000002_Node000004" class="edge">
<title>Node2&#45;&gt;Node4</title>
<g id="a_edge3_Node000002_Node000004"><a xlink:title=" ">
<path fill="none" stroke="#63b8ff" d="M238.86,-281.7C234.51,-280.11 230.18,-278.53 226,-277 210.41,-271.29 193.78,-265.18 177.8,-259.28"/>
<polygon fill="#63b8ff" stroke="#63b8ff" points="237.65,-284.98 248.24,-285.11 240.04,-278.4 237.65,-284.98"/>
</a>
</g>
</g>
</g>
</svg>
