<?xml version="1.0" encoding="UTF-8" standalone="no"?>
<!DOCTYPE svg PUBLIC "-//W3C//DTD SVG 1.1//EN"
 "http://www.w3.org/Graphics/SVG/1.1/DTD/svg11.dtd">
<!-- Generated by graphviz version 14.1.2 (20260124.0452)
 -->
<!-- Title: depicture_menu::cs_binding::observer::prop_map::regist_observer Pages: 1 -->
<svg width="323pt" height="280pt"
 viewBox="0.00 0.00 323.00 280.00" xmlns="http://www.w3.org/2000/svg" xmlns:xlink="http://www.w3.org/1999/xlink">
<g id="graph0" class="graph" transform="scale(1 1) rotate(0) translate(4 276)">
<title>depicture_menu::cs_binding::observer::prop_map::regist_observer</title>
<!-- Node1 -->
<g id="Node000001" class="node">
<title>Node1</title>
<g id="a_Node000001"><a xlink:title="regist_observer">
<polygon fill="#999999" stroke="#666666" points="314.75,-170 183.25,-170 183.25,-126 314.75,-126 314.75,-170"/>
<text xml:space="preserve" text-anchor="start" x="191.25" y="-156.5" font-family="Helvetica,sans-Serif" font-size="10.00">depicture_menu::cs</text>
<text xml:space="preserve" text-anchor="start" x="191.25" y="-144.5" font-family="Helvetica,sans-Serif" font-size="10.00">_binding::observer::</text>
<text xml:space="preserve" text-anchor="middle" x="249" y="-132.5" font-family="Helvetica,sans-Serif" font-size="10.00">prop_map::regist_observer</text>
</a>
</g>
</g>
<!-- Node1&#45;&gt;Node1 -->
<g id="edge8_Node000001_Node000001" class="edge">
<title>Node1&#45;&gt;Node1</title>
<g id="a_edge8_Node000001_Node000001"><a xlink:title=" ">
<path fill="none" stroke="#63b8ff" d="M278.05,-180.75C273.12,-185.11 263.44,-188 249,-188 224.68,-188 213.85,-179.8 216.51,-170.21"/>
<polygon fill="#63b8ff" stroke="#63b8ff" points="281.25,-182.24 281.02,-171.65 274.59,-180.07 281.25,-182.24"/>
</a>
</g>
</g>
<!-- Node2 -->
<g id="Node000002" class="node">
<title>Node2</title>
<g id="a_Node000002"><a xlink:href="test-observers__connection_8cpp.html#ad6d60c7f56481fcfef7cb5113433214d" target="_top" xlink:title="observers_connection block() unblock()">
<polygon fill="white" stroke="#666666" points="147.25,-272 0,-272 0,-252 147.25,-252 147.25,-272"/>
<text xml:space="preserve" text-anchor="middle" x="73.62" y="-258.5" font-family="Helvetica,sans-Serif" font-size="10.00">BOOST_AUTO_TEST_CASE</text>
</a>
</g>
</g>
<!-- Node1&#45;&gt;Node2 -->
<g id="edge1_Node000001_Node000002" class="edge">
<title>Node1&#45;&gt;Node2</title>
<g id="a_edge1_Node000001_Node000002"><a xlink:title=" ">
<path fill="none" stroke="#63b8ff" d="M222.82,-178.79C204.06,-199.81 176.69,-226.69 147.25,-243 141.09,-246.41 134.3,-249.23 127.42,-251.55"/>
<polygon fill="#63b8ff" stroke="#63b8ff" points="225.39,-181.17 229.32,-171.33 220.11,-176.57 225.39,-181.17"/>
</a>
</g>
</g>
<!-- Node3 -->
<g id="Node000003" class="node">
<title>Node3</title>
<g id="a_Node000003"><a xlink:href="test-observers__connection_8cpp.html#a5d049721cfe2410d916117e19b307a39" target="_top" xlink:title="observers_connection:: count() count_connected()">
<polygon fill="white" stroke="#666666" points="147.25,-234 0,-234 0,-214 147.25,-214 147.25,-234"/>
<text xml:space="preserve" text-anchor="middle" x="73.62" y="-220.5" font-family="Helvetica,sans-Serif" font-size="10.00">BOOST_AUTO_TEST_CASE</text>
</a>
</g>
</g>
<!-- Node1&#45;&gt;Node3 -->
<g id="edge2_Node000001_Node000003" class="edge">
<title>Node1&#45;&gt;Node3</title>
<g id="a_edge2_Node000001_Node000003"><a xlink:title=" ">
<path fill="none" stroke="#63b8ff" d="M203.94,-176.21C186.74,-186.34 166.55,-197.17 147.25,-205 139.16,-208.28 130.33,-211.15 121.7,-213.59"/>
<polygon fill="#63b8ff" stroke="#63b8ff" points="205.61,-179.29 212.39,-171.14 202.01,-173.29 205.61,-179.29"/>
</a>
</g>
</g>
<!-- Node4 -->
<g id="Node000004" class="node">
<title>Node4</title>
<g id="a_Node000004"><a xlink:href="test__c__u__notify__traits_8cpp.html#a8cab54768073fa4985fee0c4ae9a4272" target="_top" xlink:title=" ">
<polygon fill="white" stroke="#666666" points="147.25,-196 0,-196 0,-176 147.25,-176 147.25,-196"/>
<text xml:space="preserve" text-anchor="middle" x="73.62" y="-182.5" font-family="Helvetica,sans-Serif" font-size="10.00">BOOST_AUTO_TEST_CASE</text>
</a>
</g>
</g>
<!-- Node1&#45;&gt;Node4 -->
<g id="edge3_Node000001_Node000004" class="edge">
<title>Node1&#45;&gt;Node4</title>
<g id="a_edge3_Node000001_Node000004"><a xlink:title=" ">
<path fill="none" stroke="#63b8ff" d="M171.99,-164.66C155.15,-168.35 137.77,-172.16 122.44,-175.52"/>
<polygon fill="#63b8ff" stroke="#63b8ff" points="172.45,-168.14 181.47,-162.58 170.95,-161.3 172.45,-168.14"/>
</a>
</g>
</g>
<!-- Node5 -->
<g id="Node000005" class="node">
<title>Node5</title>
<g id="a_Node000005"><a xlink:href="test-observers__connection_8cpp.html#a03a9d18b43e53392340a9f1044bfde12" target="_top" xlink:title="lock : TestCase">
<polygon fill="white" stroke="#666666" points="147.25,-158 0,-158 0,-138 147.25,-138 147.25,-158"/>
<text xml:space="preserve" text-anchor="middle" x="73.62" y="-144.5" font-family="Helvetica,sans-Serif" font-size="10.00">BOOST_AUTO_TEST_CASE</text>
</a>
</g>
</g>
<!-- Node1&#45;&gt;Node5 -->
<g id="edge4_Node000001_Node000005" class="edge">
<title>Node1&#45;&gt;Node5</title>
<g id="a_edge4_Node000001_Node000005"><a xlink:title=" ">
<path fill="none" stroke="#63b8ff" d="M171.45,-148C163.53,-148 155.49,-148 147.61,-148"/>
<polygon fill="#63b8ff" stroke="#63b8ff" points="171.43,-151.5 181.43,-148 171.43,-144.5 171.43,-151.5"/>
</a>
</g>
</g>
<!-- Node6 -->
<g id="Node000006" class="node">
<title>Node6</title>
<g id="a_Node000006"><a xlink:href="test__c__u__notify__traits_8cpp.html#aea882eb72fe7cc45ba07eab739c9f48c" target="_top" xlink:title=" ">
<polygon fill="white" stroke="#666666" points="147.25,-120 0,-120 0,-100 147.25,-100 147.25,-120"/>
<text xml:space="preserve" text-anchor="middle" x="73.62" y="-106.5" font-family="Helvetica,sans-Serif" font-size="10.00">BOOST_AUTO_TEST_CASE</text>
</a>
</g>
</g>
<!-- Node1&#45;&gt;Node6 -->
<g id="edge5_Node000001_Node000006" class="edge">
<title>Node1&#45;&gt;Node6</title>
<g id="a_edge5_Node000001_Node000006"><a xlink:title=" ">
<path fill="none" stroke="#63b8ff" d="M171.99,-131.34C155.15,-127.65 137.77,-123.84 122.44,-120.48"/>
<polygon fill="#63b8ff" stroke="#63b8ff" points="170.95,-134.7 181.47,-133.42 172.45,-127.86 170.95,-134.7"/>
</a>
</g>
</g>
<!-- Node7 -->
<g id="Node000007" class="node">
<title>Node7</title>
<g id="a_Node000007"><a xlink:href="test__c__u__notify__traits_8cpp.html#aa059b88be17dbe6d7299afb6bf07272b" target="_top" xlink:title=" ">
<polygon fill="white" stroke="#666666" points="147.25,-82 0,-82 0,-62 147.25,-62 147.25,-82"/>
<text xml:space="preserve" text-anchor="middle" x="73.62" y="-68.5" font-family="Helvetica,sans-Serif" font-size="10.00">BOOST_AUTO_TEST_CASE</text>
</a>
</g>
</g>
<!-- Node1&#45;&gt;Node7 -->
<g id="edge6_Node000001_Node000007" class="edge">
<title>Node1&#45;&gt;Node7</title>
<g id="a_edge6_Node000001_Node000007"><a xlink:title=" ">
<path fill="none" stroke="#63b8ff" d="M203.94,-119.79C186.74,-109.66 166.55,-98.83 147.25,-91 139.16,-87.72 130.33,-84.85 121.7,-82.41"/>
<polygon fill="#63b8ff" stroke="#63b8ff" points="202.01,-122.71 212.39,-124.86 205.61,-116.71 202.01,-122.71"/>
</a>
</g>
</g>
<!-- Node8 -->
<g id="Node000008" class="node">
<title>Node8</title>
<g id="a_Node000008"><a xlink:href="classdepicture__menu_1_1applications_1_1view__factories_1_1config__view__arg__builder.html#a7fad9971fe8a0fa887c7279435287da5" target="_top" xlink:title=" ">
<polygon fill="white" stroke="#666666" points="145,-44 2.25,-44 2.25,0 145,0 145,-44"/>
<text xml:space="preserve" text-anchor="start" x="10.25" y="-30.5" font-family="Helvetica,sans-Serif" font-size="10.00">depicture_menu::applications</text>
<text xml:space="preserve" text-anchor="start" x="10.25" y="-18.5" font-family="Helvetica,sans-Serif" font-size="10.00">::view_factories::config</text>
<text xml:space="preserve" text-anchor="middle" x="73.62" y="-6.5" font-family="Helvetica,sans-Serif" font-size="10.00">_view_arg_builder::build</text>
</a>
</g>
</g>
<!-- Node1&#45;&gt;Node8 -->
<g id="edge7_Node000001_Node000008" class="edge">
<title>Node1&#45;&gt;Node8</title>
<g id="a_edge7_Node000001_Node000008"><a xlink:title=" ">
<path fill="none" stroke="#63b8ff" d="M220.95,-117.36C201.87,-97.12 174.88,-71.09 147.25,-53 142.55,-49.92 137.49,-47.03 132.31,-44.35"/>
<polygon fill="#63b8ff" stroke="#63b8ff" points="218.23,-119.58 227.59,-124.53 223.36,-114.82 218.23,-119.58"/>
</a>
</g>
</g>
</g>
</svg>
