<?xml version="1.0" encoding="UTF-8" standalone="no"?>
<!DOCTYPE svg PUBLIC "-//W3C//DTD SVG 1.1//EN"
 "http://www.w3.org/Graphics/SVG/1.1/DTD/svg11.dtd">
<!-- Generated by graphviz version 14.1.2 (20260124.0452)
 -->
<!-- Title: depicture_menu::cs_binding::entry_map::get_sub_classes Pages: 1 -->
<svg width="261pt" height="82pt"
 viewBox="0.00 0.00 261.00 82.00" xmlns="http://www.w3.org/2000/svg" xmlns:xlink="http://www.w3.org/1999/xlink">
<g id="graph0" class="graph" transform="scale(1 1) rotate(0) translate(4 78)">
<title>depicture_menu::cs_binding::entry_map::get_sub_classes</title>
<!-- Node1 -->
<g id="Node000001" class="node">
<title>Node1</title>
<g id="a_Node000001"><a xlink:title=" ">
<polygon fill="#999999" stroke="#666666" points="253.25,-50 149.5,-50 149.5,-6 253.25,-6 253.25,-50"/>
<text xml:space="preserve" text-anchor="start" x="157.5" y="-36.5" font-family="Helvetica,sans-Serif" font-size="10.00">depicture_menu::cs</text>
<text xml:space="preserve" text-anchor="start" x="157.5" y="-24.5" font-family="Helvetica,sans-Serif" font-size="10.00">_binding::entry_map</text>
<text xml:space="preserve" text-anchor="middle" x="201.38" y="-12.5" font-family="Helvetica,sans-Serif" font-size="10.00">::get_sub_classes</text>
</a>
</g>
</g>
<!-- Node2 -->
<g id="Node000002" class="node">
<title>Node2</title>
<g id="a_Node000002"><a xlink:href="namespacedepicture__menu_1_1cs__binding_1_1entry__map.html#a4692703a768a8377e341e96cbe1e4f13" target="_top" xlink:title=" ">
<polygon fill="white" stroke="#666666" points="113.5,-56 0,-56 0,0 113.5,0 113.5,-56"/>
<text xml:space="preserve" text-anchor="start" x="8" y="-42.5" font-family="Helvetica,sans-Serif" font-size="10.00">depicture_menu::cs</text>
<text xml:space="preserve" text-anchor="start" x="8" y="-30.5" font-family="Helvetica,sans-Serif" font-size="10.00">_binding::entry_map</text>
<text xml:space="preserve" text-anchor="start" x="8" y="-18.5" font-family="Helvetica,sans-Serif" font-size="10.00">::get_sub_class_chain</text>
<text xml:space="preserve" text-anchor="middle" x="56.75" y="-6.5" font-family="Helvetica,sans-Serif" font-size="10.00">_entries</text>
</a>
</g>
</g>
<!-- Node1&#45;&gt;Node2 -->
<g id="edge1_Node000001_Node000002" class="edge">
<title>Node1&#45;&gt;Node2</title>
<g id="a_edge1_Node000001_Node000002"><a xlink:title=" ">
<path fill="none" stroke="#63b8ff" d="M138.03,-28C129.97,-28 121.75,-28 113.8,-28"/>
<polygon fill="#63b8ff" stroke="#63b8ff" points="137.77,-31.5 147.77,-28 137.77,-24.5 137.77,-31.5"/>
</a>
</g>
</g>
<!-- Node2&#45;&gt;Node2 -->
<g id="edge2_Node000002_Node000002" class="edge">
<title>Node2&#45;&gt;Node2</title>
<g id="a_edge2_Node000002_Node000002"><a xlink:title=" ">
<path fill="none" stroke="#63b8ff" d="M79.59,-66.9C75.27,-71.21 67.65,-74 56.75,-74 38.39,-74 29.35,-66.09 29.64,-56.3"/>
<polygon fill="#63b8ff" stroke="#63b8ff" points="82.81,-68.29 83.3,-57.7 76.31,-65.67 82.81,-68.29"/>
</a>
</g>
</g>
</g>
</svg>
