<?xml version="1.0" encoding="UTF-8" standalone="no"?>
<!DOCTYPE svg PUBLIC "-//W3C//DTD SVG 1.1//EN"
 "http://www.w3.org/Graphics/SVG/1.1/DTD/svg11.dtd">
<!-- Generated by graphviz version 14.1.2 (20260124.0452)
 -->
<!-- Title: depicture_menu::applications::view_factories::get_menu_view_arg_injection Pages: 1 -->
<svg width="617pt" height="728pt"
 viewBox="0.00 0.00 617.00 728.00" xmlns="http://www.w3.org/2000/svg" xmlns:xlink="http://www.w3.org/1999/xlink">
<g id="graph0" class="graph" transform="scale(1 1) rotate(0) translate(4 724)">
<title>depicture_menu::applications::view_factories::get_menu_view_arg_injection</title>
<!-- Node1 -->
<g id="Node000001" class="node">
<title>Node1</title>
<g id="a_Node000001"><a xlink:title=" ">
<polygon fill="#999999" stroke="#666666" points="608.5,-604 465.75,-604 465.75,-560 608.5,-560 608.5,-604"/>
<text xml:space="preserve" text-anchor="start" x="473.75" y="-590.5" font-family="Helvetica,sans-Serif" font-size="10.00">depicture_menu::applications</text>
<text xml:space="preserve" text-anchor="start" x="473.75" y="-578.5" font-family="Helvetica,sans-Serif" font-size="10.00">::view_factories::get_menu</text>
<text xml:space="preserve" text-anchor="middle" x="537.12" y="-566.5" font-family="Helvetica,sans-Serif" font-size="10.00">_view_arg_injection</text>
</a>
</g>
</g>
<!-- Node2 -->
<g id="Node000002" class="node">
<title>Node2</title>
<g id="a_Node000002"><a xlink:href="namespacedetail.html#a8aee8542a8e50ac503aeda7f2e247b33" target="_top" xlink:title=" ">
<polygon fill="white" stroke="#666666" points="429.75,-598 329,-598 329,-566 429.75,-566 429.75,-598"/>
<text xml:space="preserve" text-anchor="start" x="337" y="-584.5" font-family="Helvetica,sans-Serif" font-size="10.00">detail::make_config</text>
<text xml:space="preserve" text-anchor="middle" x="379.38" y="-572.5" font-family="Helvetica,sans-Serif" font-size="10.00">_view_injection</text>
</a>
</g>
</g>
<!-- Node1&#45;&gt;Node2 -->
<g id="edge1_Node000001_Node000002" class="edge">
<title>Node1&#45;&gt;Node2</title>
<g id="a_edge1_Node000001_Node000002"><a xlink:title=" ">
<path fill="none" stroke="#63b8ff" d="M454.06,-582C445.94,-582 437.89,-582 430.24,-582"/>
<polygon fill="#63b8ff" stroke="#63b8ff" points="454.03,-585.5 464.03,-582 454.03,-578.5 454.03,-585.5"/>
</a>
</g>
</g>
<!-- Node3 -->
<g id="Node000003" class="node">
<title>Node3</title>
<g id="a_Node000003"><a xlink:href="classdepicture__menu_1_1applications_1_1view__factories_1_1config__view__arg__builder.html#a7fad9971fe8a0fa887c7279435287da5" target="_top" xlink:title=" ">
<polygon fill="white" stroke="#666666" points="293,-654 150.25,-654 150.25,-610 293,-610 293,-654"/>
<text xml:space="preserve" text-anchor="start" x="158.25" y="-640.5" font-family="Helvetica,sans-Serif" font-size="10.00">depicture_menu::applications</text>
<text xml:space="preserve" text-anchor="start" x="158.25" y="-628.5" font-family="Helvetica,sans-Serif" font-size="10.00">::view_factories::config</text>
<text xml:space="preserve" text-anchor="middle" x="221.62" y="-616.5" font-family="Helvetica,sans-Serif" font-size="10.00">_view_arg_builder::build</text>
</a>
</g>
</g>
<!-- Node2&#45;&gt;Node3 -->
<g id="edge2_Node000002_Node000003" class="edge">
<title>Node2&#45;&gt;Node3</title>
<g id="a_edge2_Node000002_Node000003"><a xlink:title=" ">
<path fill="none" stroke="#63b8ff" d="M317.94,-601.4C309.63,-604.07 301.05,-606.82 292.58,-609.54"/>
<polygon fill="#63b8ff" stroke="#63b8ff" points="318.77,-604.81 327.23,-598.42 316.63,-598.14 318.77,-604.81"/>
</a>
</g>
</g>
<!-- Node4 -->
<g id="Node000004" class="node">
<title>Node4</title>
<g id="a_Node000004"><a xlink:href="namespacedetail.html#a9059c63b55917525f60302be2ad6701b" target="_top" xlink:title=" ">
<polygon fill="white" stroke="#666666" points="278.75,-401 164.5,-401 164.5,-381 278.75,-381 278.75,-401"/>
<text xml:space="preserve" text-anchor="middle" x="221.62" y="-387.5" font-family="Helvetica,sans-Serif" font-size="10.00">detail::create_usecase</text>
</a>
</g>
</g>
<!-- Node2&#45;&gt;Node4 -->
<g id="edge3_Node000002_Node000004" class="edge">
<title>Node2&#45;&gt;Node4</title>
<g id="a_edge3_Node000002_Node000004"><a xlink:title=" ">
<path fill="none" stroke="#63b8ff" d="M357.87,-556.85C323.3,-514.46 254.87,-430.54 231.04,-401.32"/>
<polygon fill="#63b8ff" stroke="#63b8ff" points="355.11,-559 364.14,-564.54 360.53,-554.58 355.11,-559"/>
</a>
</g>
</g>
<!-- Node5 -->
<g id="Node000005" class="node">
<title>Node5</title>
<g id="a_Node000005"><a xlink:href="namespacedetail.html#ae3241688f34c6c4966363baf9214f815" target="_top" xlink:title=" ">
<polygon fill="white" stroke="#666666" points="114.25,-720 0,-720 0,-700 114.25,-700 114.25,-720"/>
<text xml:space="preserve" text-anchor="middle" x="57.13" y="-706.5" font-family="Helvetica,sans-Serif" font-size="10.00">detail::create_usecase</text>
</a>
</g>
</g>
<!-- Node2&#45;&gt;Node5 -->
<g id="edge19_Node000002_Node000005" class="edge">
<title>Node2&#45;&gt;Node5</title>
<g id="a_edge19_Node000002_Node000005"><a xlink:title=" ">
<path fill="none" stroke="#63b8ff" d="M317.45,-570.77C267.67,-565.13 197.98,-565.71 150.25,-601 115.61,-626.61 145.53,-661.37 114.25,-691 110.59,-694.47 106.28,-697.3 101.69,-699.62"/>
<polygon fill="#63b8ff" stroke="#63b8ff" points="316.84,-574.22 327.2,-572 317.71,-567.28 316.84,-574.22"/>
</a>
</g>
</g>
<!-- Node4&#45;&gt;Node5 -->
<g id="edge4_Node000004_Node000005" class="edge">
<title>Node4&#45;&gt;Node5</title>
<g id="a_edge4_Node000004_Node000005"><a xlink:title=" ">
<path fill="none" stroke="#63b8ff" d="M211.63,-411.76C197.59,-444.58 170,-510.63 150.25,-568 131.71,-621.86 153.68,-649.89 114.25,-691 110.97,-694.42 107.06,-697.22 102.85,-699.51"/>
<polygon fill="#63b8ff" stroke="#63b8ff" points="214.82,-413.21 215.56,-402.64 208.39,-410.44 214.82,-413.21"/>
</a>
</g>
</g>
<!-- Node6 -->
<g id="Node000006" class="node">
<title>Node6</title>
<g id="a_Node000006"><a xlink:href="structdetail_1_1config__view__dispatch.html#aa3a108804e4e17af423a152d8a5b6b6e" target="_top" xlink:title=" ">
<polygon fill="white" stroke="#666666" points="109.75,-682 4.5,-682 4.5,-650 109.75,-650 109.75,-682"/>
<text xml:space="preserve" text-anchor="start" x="12.5" y="-668.5" font-family="Helvetica,sans-Serif" font-size="10.00">detail::config_view</text>
<text xml:space="preserve" text-anchor="middle" x="57.13" y="-656.5" font-family="Helvetica,sans-Serif" font-size="10.00">_dispatch::operator()</text>
</a>
</g>
</g>
<!-- Node4&#45;&gt;Node6 -->
<g id="edge5_Node000004_Node000006" class="edge">
<title>Node4&#45;&gt;Node6</title>
<g id="a_edge5_Node000004_Node000006"><a xlink:title=" ">
<path fill="none" stroke="#63b8ff" d="M212.25,-411.82C188.68,-470.28 122.91,-632.19 114.25,-641 111.03,-644.27 107.31,-647.15 103.35,-649.67"/>
<polygon fill="#63b8ff" stroke="#63b8ff" points="215.43,-413.29 215.92,-402.7 208.94,-410.67 215.43,-413.29"/>
</a>
</g>
</g>
<!-- Node7 -->
<g id="Node000007" class="node">
<title>Node7</title>
<g id="a_Node000007"><a xlink:href="structdetail_1_1config__view__dispatch.html#a41903c01ec35f58bb05db603f661d495" target="_top" xlink:title=" ">
<polygon fill="white" stroke="#666666" points="109.75,-632 4.5,-632 4.5,-600 109.75,-600 109.75,-632"/>
<text xml:space="preserve" text-anchor="start" x="12.5" y="-618.5" font-family="Helvetica,sans-Serif" font-size="10.00">detail::config_view</text>
<text xml:space="preserve" text-anchor="middle" x="57.13" y="-606.5" font-family="Helvetica,sans-Serif" font-size="10.00">_dispatch::operator()</text>
</a>
</g>
</g>
<!-- Node4&#45;&gt;Node7 -->
<g id="edge6_Node000004_Node000007" class="edge">
<title>Node4&#45;&gt;Node7</title>
<g id="a_edge6_Node000004_Node000007"><a xlink:title=" ">
<path fill="none" stroke="#63b8ff" d="M214.48,-412.21C201.9,-452.19 169.65,-539.34 114.25,-591 110.82,-594.2 106.91,-597.04 102.78,-599.55"/>
<polygon fill="#63b8ff" stroke="#63b8ff" points="217.83,-413.23 217.38,-402.65 211.13,-411.2 217.83,-413.23"/>
</a>
</g>
</g>
<!-- Node8 -->
<g id="Node000008" class="node">
<title>Node8</title>
<g id="a_Node000008"><a xlink:href="structdetail_1_1config__view__dispatch.html#ab153bd4e90b8c6058b92be00888b603a" target="_top" xlink:title=" ">
<polygon fill="white" stroke="#666666" points="109.75,-582 4.5,-582 4.5,-550 109.75,-550 109.75,-582"/>
<text xml:space="preserve" text-anchor="start" x="12.5" y="-568.5" font-family="Helvetica,sans-Serif" font-size="10.00">detail::config_view</text>
<text xml:space="preserve" text-anchor="middle" x="57.13" y="-556.5" font-family="Helvetica,sans-Serif" font-size="10.00">_dispatch::operator()</text>
</a>
</g>
</g>
<!-- Node4&#45;&gt;Node8 -->
<g id="edge7_Node000004_Node000008" class="edge">
<title>Node4&#45;&gt;Node8</title>
<g id="a_edge7_Node000004_Node000008"><a xlink:title=" ">
<path fill="none" stroke="#63b8ff" d="M210.76,-411.36C194.56,-442.92 159.55,-503.87 114.25,-541 110.37,-544.18 106.03,-547.03 101.52,-549.57"/>
<polygon fill="#63b8ff" stroke="#63b8ff" points="213.84,-413.02 215.18,-402.51 207.58,-409.89 213.84,-413.02"/>
</a>
</g>
</g>
<!-- Node9 -->
<g id="Node000009" class="node">
<title>Node9</title>
<g id="a_Node000009"><a xlink:href="structdetail_1_1config__view__dispatch.html#a56b302315ab59b4ac76481cc1bd4c9db" target="_top" xlink:title=" ">
<polygon fill="white" stroke="#666666" points="109.75,-532 4.5,-532 4.5,-500 109.75,-500 109.75,-532"/>
<text xml:space="preserve" text-anchor="start" x="12.5" y="-518.5" font-family="Helvetica,sans-Serif" font-size="10.00">detail::config_view</text>
<text xml:space="preserve" text-anchor="middle" x="57.13" y="-506.5" font-family="Helvetica,sans-Serif" font-size="10.00">_dispatch::operator()</text>
</a>
</g>
</g>
<!-- Node4&#45;&gt;Node9 -->
<g id="edge8_Node000004_Node000009" class="edge">
<title>Node4&#45;&gt;Node9</title>
<g id="a_edge8_Node000004_Node000009"><a xlink:title=" ">
<path fill="none" stroke="#63b8ff" d="M204.43,-409.63C184.8,-431.35 149.89,-467.3 114.25,-491 109.63,-494.07 104.57,-496.93 99.44,-499.53"/>
<polygon fill="#63b8ff" stroke="#63b8ff" points="206.83,-412.2 210.86,-402.4 201.6,-407.54 206.83,-412.2"/>
</a>
</g>
</g>
<!-- Node10 -->
<g id="Node000010" class="node">
<title>Node10</title>
<g id="a_Node000010"><a xlink:href="structdetail_1_1config__view__dispatch.html#a6813a6c35a9eb1d397bef9213d55d6db" target="_top" xlink:title=" ">
<polygon fill="white" stroke="#666666" points="109.75,-482 4.5,-482 4.5,-450 109.75,-450 109.75,-482"/>
<text xml:space="preserve" text-anchor="start" x="12.5" y="-468.5" font-family="Helvetica,sans-Serif" font-size="10.00">detail::config_view</text>
<text xml:space="preserve" text-anchor="middle" x="57.13" y="-456.5" font-family="Helvetica,sans-Serif" font-size="10.00">_dispatch::operator()</text>
</a>
</g>
</g>
<!-- Node4&#45;&gt;Node10 -->
<g id="edge9_Node000004_Node000010" class="edge">
<title>Node4&#45;&gt;Node10</title>
<g id="a_edge9_Node000004_Node000010"><a xlink:title=" ">
<path fill="none" stroke="#63b8ff" d="M188.37,-406.37C167.32,-416.35 139.22,-429.57 114.25,-441 108.14,-443.8 101.64,-446.73 95.31,-449.57"/>
<polygon fill="#63b8ff" stroke="#63b8ff" points="189.78,-409.57 197.32,-402.12 186.78,-403.25 189.78,-409.57"/>
</a>
</g>
</g>
<!-- Node11 -->
<g id="Node000011" class="node">
<title>Node11</title>
<g id="a_Node000011"><a xlink:href="structdetail_1_1config__view__dispatch.html#a76b30ceed9f44c7486fe6ce723b0d586" target="_top" xlink:title=" ">
<polygon fill="white" stroke="#666666" points="109.75,-432 4.5,-432 4.5,-400 109.75,-400 109.75,-432"/>
<text xml:space="preserve" text-anchor="start" x="12.5" y="-418.5" font-family="Helvetica,sans-Serif" font-size="10.00">detail::config_view</text>
<text xml:space="preserve" text-anchor="middle" x="57.13" y="-406.5" font-family="Helvetica,sans-Serif" font-size="10.00">_dispatch::operator()</text>
</a>
</g>
</g>
<!-- Node4&#45;&gt;Node11 -->
<g id="edge10_Node000004_Node000011" class="edge">
<title>Node4&#45;&gt;Node11</title>
<g id="a_edge10_Node000004_Node000011"><a xlink:title=" ">
<path fill="none" stroke="#63b8ff" d="M152.91,-401.42C138.59,-403.62 123.68,-405.91 110.04,-408.01"/>
<polygon fill="#63b8ff" stroke="#63b8ff" points="153.4,-404.88 162.75,-399.9 152.33,-397.97 153.4,-404.88"/>
</a>
</g>
</g>
<!-- Node12 -->
<g id="Node000012" class="node">
<title>Node12</title>
<g id="a_Node000012"><a xlink:href="structdetail_1_1config__view__dispatch.html#a626371d6da54a29abcfb88ee0da91038" target="_top" xlink:title=" ">
<polygon fill="white" stroke="#666666" points="109.75,-382 4.5,-382 4.5,-350 109.75,-350 109.75,-382"/>
<text xml:space="preserve" text-anchor="start" x="12.5" y="-368.5" font-family="Helvetica,sans-Serif" font-size="10.00">detail::config_view</text>
<text xml:space="preserve" text-anchor="middle" x="57.13" y="-356.5" font-family="Helvetica,sans-Serif" font-size="10.00">_dispatch::operator()</text>
</a>
</g>
</g>
<!-- Node4&#45;&gt;Node12 -->
<g id="edge11_Node000004_Node000012" class="edge">
<title>Node4&#45;&gt;Node12</title>
<g id="a_edge11_Node000004_Node000012"><a xlink:title=" ">
<path fill="none" stroke="#63b8ff" d="M152.91,-380.58C138.59,-378.38 123.68,-376.09 110.04,-373.99"/>
<polygon fill="#63b8ff" stroke="#63b8ff" points="152.33,-384.03 162.75,-382.1 153.4,-377.12 152.33,-384.03"/>
</a>
</g>
</g>
<!-- Node13 -->
<g id="Node000013" class="node">
<title>Node13</title>
<g id="a_Node000013"><a xlink:href="structdetail_1_1config__view__dispatch.html#ad3071227f01b14edaa9acd17d84b86ce" target="_top" xlink:title=" ">
<polygon fill="white" stroke="#666666" points="109.75,-332 4.5,-332 4.5,-300 109.75,-300 109.75,-332"/>
<text xml:space="preserve" text-anchor="start" x="12.5" y="-318.5" font-family="Helvetica,sans-Serif" font-size="10.00">detail::config_view</text>
<text xml:space="preserve" text-anchor="middle" x="57.13" y="-306.5" font-family="Helvetica,sans-Serif" font-size="10.00">_dispatch::operator()</text>
</a>
</g>
</g>
<!-- Node4&#45;&gt;Node13 -->
<g id="edge12_Node000004_Node000013" class="edge">
<title>Node4&#45;&gt;Node13</title>
<g id="a_edge12_Node000004_Node000013"><a xlink:title=" ">
<path fill="none" stroke="#63b8ff" d="M188.37,-375.63C167.32,-365.65 139.22,-352.43 114.25,-341 108.14,-338.2 101.64,-335.27 95.31,-332.43"/>
<polygon fill="#63b8ff" stroke="#63b8ff" points="186.78,-378.75 197.32,-379.88 189.78,-372.43 186.78,-378.75"/>
</a>
</g>
</g>
<!-- Node14 -->
<g id="Node000014" class="node">
<title>Node14</title>
<g id="a_Node000014"><a xlink:href="structdetail_1_1config__view__dispatch.html#ad811d67fc5b9793e86c4f597a7de6ad9" target="_top" xlink:title=" ">
<polygon fill="white" stroke="#666666" points="109.75,-282 4.5,-282 4.5,-250 109.75,-250 109.75,-282"/>
<text xml:space="preserve" text-anchor="start" x="12.5" y="-268.5" font-family="Helvetica,sans-Serif" font-size="10.00">detail::config_view</text>
<text xml:space="preserve" text-anchor="middle" x="57.13" y="-256.5" font-family="Helvetica,sans-Serif" font-size="10.00">_dispatch::operator()</text>
</a>
</g>
</g>
<!-- Node4&#45;&gt;Node14 -->
<g id="edge13_Node000004_Node000014" class="edge">
<title>Node4&#45;&gt;Node14</title>
<g id="a_edge13_Node000004_Node000014"><a xlink:title=" ">
<path fill="none" stroke="#63b8ff" d="M204.43,-372.37C184.8,-350.65 149.89,-314.7 114.25,-291 109.63,-287.93 104.57,-285.07 99.44,-282.47"/>
<polygon fill="#63b8ff" stroke="#63b8ff" points="201.6,-374.46 210.86,-379.6 206.83,-369.8 201.6,-374.46"/>
</a>
</g>
</g>
<!-- Node15 -->
<g id="Node000015" class="node">
<title>Node15</title>
<g id="a_Node000015"><a xlink:href="structdetail_1_1config__view__dispatch.html#a175c76ecf1f9a4796d214ab9788d2a4c" target="_top" xlink:title=" ">
<polygon fill="white" stroke="#666666" points="109.75,-232 4.5,-232 4.5,-200 109.75,-200 109.75,-232"/>
<text xml:space="preserve" text-anchor="start" x="12.5" y="-218.5" font-family="Helvetica,sans-Serif" font-size="10.00">detail::config_view</text>
<text xml:space="preserve" text-anchor="middle" x="57.13" y="-206.5" font-family="Helvetica,sans-Serif" font-size="10.00">_dispatch::operator()</text>
</a>
</g>
</g>
<!-- Node4&#45;&gt;Node15 -->
<g id="edge14_Node000004_Node000015" class="edge">
<title>Node4&#45;&gt;Node15</title>
<g id="a_edge14_Node000004_Node000015"><a xlink:title=" ">
<path fill="none" stroke="#63b8ff" d="M210.76,-370.64C194.56,-339.08 159.55,-278.13 114.25,-241 110.37,-237.82 106.03,-234.97 101.52,-232.43"/>
<polygon fill="#63b8ff" stroke="#63b8ff" points="207.58,-372.11 215.18,-379.49 213.84,-368.98 207.58,-372.11"/>
</a>
</g>
</g>
<!-- Node16 -->
<g id="Node000016" class="node">
<title>Node16</title>
<g id="a_Node000016"><a xlink:href="structdetail_1_1config__view__dispatch.html#ad4e544f2b7648e7d70ae705383c16f90" target="_top" xlink:title=" ">
<polygon fill="white" stroke="#666666" points="109.75,-182 4.5,-182 4.5,-150 109.75,-150 109.75,-182"/>
<text xml:space="preserve" text-anchor="start" x="12.5" y="-168.5" font-family="Helvetica,sans-Serif" font-size="10.00">detail::config_view</text>
<text xml:space="preserve" text-anchor="middle" x="57.13" y="-156.5" font-family="Helvetica,sans-Serif" font-size="10.00">_dispatch::operator()</text>
</a>
</g>
</g>
<!-- Node4&#45;&gt;Node16 -->
<g id="edge15_Node000004_Node000016" class="edge">
<title>Node4&#45;&gt;Node16</title>
<g id="a_edge15_Node000004_Node000016"><a xlink:title=" ">
<path fill="none" stroke="#63b8ff" d="M214.48,-369.79C201.9,-329.81 169.65,-242.66 114.25,-191 110.82,-187.8 106.91,-184.96 102.78,-182.45"/>
<polygon fill="#63b8ff" stroke="#63b8ff" points="211.13,-370.8 217.38,-379.35 217.83,-368.77 211.13,-370.8"/>
</a>
</g>
</g>
<!-- Node17 -->
<g id="Node000017" class="node">
<title>Node17</title>
<g id="a_Node000017"><a xlink:href="structdetail_1_1config__view__dispatch.html#a6afd84d3581049f1dc3662a5fa15bd3c" target="_top" xlink:title=" ">
<polygon fill="white" stroke="#666666" points="109.75,-132 4.5,-132 4.5,-100 109.75,-100 109.75,-132"/>
<text xml:space="preserve" text-anchor="start" x="12.5" y="-118.5" font-family="Helvetica,sans-Serif" font-size="10.00">detail::config_view</text>
<text xml:space="preserve" text-anchor="middle" x="57.13" y="-106.5" font-family="Helvetica,sans-Serif" font-size="10.00">_dispatch::operator()</text>
</a>
</g>
</g>
<!-- Node4&#45;&gt;Node17 -->
<g id="edge16_Node000004_Node000017" class="edge">
<title>Node4&#45;&gt;Node17</title>
<g id="a_edge16_Node000004_Node000017"><a xlink:title=" ">
<path fill="none" stroke="#63b8ff" d="M216.97,-369.46C207.9,-322.14 180.14,-208 114.25,-141 111.03,-137.73 107.31,-134.85 103.35,-132.33"/>
<polygon fill="#63b8ff" stroke="#63b8ff" points="213.51,-370 218.74,-379.21 220.4,-368.75 213.51,-370"/>
</a>
</g>
</g>
<!-- Node18 -->
<g id="Node000018" class="node">
<title>Node18</title>
<g id="a_Node000018"><a xlink:href="structdetail_1_1config__view__dispatch.html#a270ac79b5fc529a8f220eaae53588cf0" target="_top" xlink:title=" ">
<polygon fill="white" stroke="#666666" points="109.75,-82 4.5,-82 4.5,-50 109.75,-50 109.75,-82"/>
<text xml:space="preserve" text-anchor="start" x="12.5" y="-68.5" font-family="Helvetica,sans-Serif" font-size="10.00">detail::config_view</text>
<text xml:space="preserve" text-anchor="middle" x="57.13" y="-56.5" font-family="Helvetica,sans-Serif" font-size="10.00">_dispatch::operator()</text>
</a>
</g>
</g>
<!-- Node4&#45;&gt;Node18 -->
<g id="edge17_Node000004_Node000018" class="edge">
<title>Node4&#45;&gt;Node18</title>
<g id="a_edge17_Node000004_Node000018"><a xlink:title=" ">
<path fill="none" stroke="#63b8ff" d="M218.76,-369.61C213.02,-315.96 191.01,-174.01 114.25,-91 111.28,-87.79 107.82,-84.97 104.11,-82.49"/>
<polygon fill="#63b8ff" stroke="#63b8ff" points="215.25,-369.62 219.71,-379.23 222.22,-368.94 215.25,-369.62"/>
</a>
</g>
</g>
<!-- Node19 -->
<g id="Node000019" class="node">
<title>Node19</title>
<g id="a_Node000019"><a xlink:href="structdetail_1_1config__view__dispatch.html#a641f18c1d8e8c61341b345ee9761a7fe" target="_top" xlink:title=" ">
<polygon fill="white" stroke="#666666" points="109.75,-32 4.5,-32 4.5,0 109.75,0 109.75,-32"/>
<text xml:space="preserve" text-anchor="start" x="12.5" y="-18.5" font-family="Helvetica,sans-Serif" font-size="10.00">detail::config_view</text>
<text xml:space="preserve" text-anchor="middle" x="57.13" y="-6.5" font-family="Helvetica,sans-Serif" font-size="10.00">_dispatch::operator()</text>
</a>
</g>
</g>
<!-- Node4&#45;&gt;Node19 -->
<g id="edge18_Node000004_Node000019" class="edge">
<title>Node4&#45;&gt;Node19</title>
<g id="a_edge18_Node000004_Node000019"><a xlink:title=" ">
<path fill="none" stroke="#63b8ff" d="M220.04,-369.33C217.3,-309.55 201.78,-140.12 114.25,-41 111.36,-37.72 107.95,-34.85 104.27,-32.35"/>
<polygon fill="#63b8ff" stroke="#63b8ff" points="216.53,-369.28 220.4,-379.14 223.53,-369.02 216.53,-369.28"/>
</a>
</g>
</g>
</g>
</svg>
