<?xml version="1.0" encoding="UTF-8" standalone="no"?>
<!DOCTYPE svg PUBLIC "-//W3C//DTD SVG 1.1//EN"
 "http://www.w3.org/Graphics/SVG/1.1/DTD/svg11.dtd">
<!-- Generated by graphviz version 14.1.2 (20260124.0452)
 -->
<!-- Title: depicture_menu::cs_binding::entry_map::visit_collections Pages: 1 -->
<svg width="632pt" height="238pt"
 viewBox="0.00 0.00 632.00 238.00" xmlns="http://www.w3.org/2000/svg" xmlns:xlink="http://www.w3.org/1999/xlink">
<g id="graph0" class="graph" transform="scale(1 1) rotate(0) translate(4 234)">
<title>depicture_menu::cs_binding::entry_map::visit_collections</title>
<!-- Node1 -->
<g id="Node000001" class="node">
<title>Node1</title>
<g id="a_Node000001"><a xlink:title=" ">
<polygon fill="#999999" stroke="#666666" points="103.75,-53 0,-53 0,-9 103.75,-9 103.75,-53"/>
<text xml:space="preserve" text-anchor="start" x="8" y="-39.5" font-family="Helvetica,sans-Serif" font-size="10.00">depicture_menu::cs</text>
<text xml:space="preserve" text-anchor="start" x="8" y="-27.5" font-family="Helvetica,sans-Serif" font-size="10.00">_binding::entry_map</text>
<text xml:space="preserve" text-anchor="middle" x="51.88" y="-15.5" font-family="Helvetica,sans-Serif" font-size="10.00">::visit_collections</text>
</a>
</g>
</g>
<!-- Node2 -->
<g id="Node000002" class="node">
<title>Node2</title>
<g id="a_Node000002"><a xlink:href="namespacedepicture__menu_1_1cs__binding_1_1entry__map.html#a80c88bceef6b232d197619fb016d5f78" target="_top" xlink:title=" ">
<polygon fill="white" stroke="#666666" points="272,-100 139.75,-100 139.75,-56 272,-56 272,-100"/>
<text xml:space="preserve" text-anchor="start" x="147.75" y="-86.5" font-family="Helvetica,sans-Serif" font-size="10.00">depicture_menu::cs</text>
<text xml:space="preserve" text-anchor="start" x="147.75" y="-74.5" font-family="Helvetica,sans-Serif" font-size="10.00">_binding::entry_map</text>
<text xml:space="preserve" text-anchor="middle" x="205.88" y="-62.5" font-family="Helvetica,sans-Serif" font-size="10.00">::get_collection_accessers</text>
</a>
</g>
</g>
<!-- Node1&#45;&gt;Node2 -->
<g id="edge1_Node000001_Node000002" class="edge">
<title>Node1&#45;&gt;Node2</title>
<g id="a_edge1_Node000001_Node000002"><a xlink:title=" ">
<path fill="none" stroke="#63b8ff" d="M103.91,-46.78C111.83,-49.23 120.15,-51.8 128.48,-54.38"/>
<polygon fill="#63b8ff" stroke="#63b8ff" points="127.36,-57.7 137.95,-57.31 129.43,-51.01 127.36,-57.7"/>
</a>
</g>
</g>
<!-- Node8 -->
<g id="Node000008" class="node">
<title>Node8</title>
<g id="a_Node000008"><a xlink:href="namespacedepicture__menu_1_1cs__binding_1_1entry__map_1_1tuple__op.html#a72d4298d92def76da21b1bc8c931fb6e" target="_top" xlink:title=" ">
<polygon fill="white" stroke="#666666" points="619,-44 486.75,-44 486.75,0 619,0 619,-44"/>
<text xml:space="preserve" text-anchor="start" x="494.75" y="-30.5" font-family="Helvetica,sans-Serif" font-size="10.00">depicture_menu::cs</text>
<text xml:space="preserve" text-anchor="start" x="494.75" y="-18.5" font-family="Helvetica,sans-Serif" font-size="10.00">_binding::entry_map</text>
<text xml:space="preserve" text-anchor="middle" x="552.88" y="-6.5" font-family="Helvetica,sans-Serif" font-size="10.00">::tuple_op::tuple_transform</text>
</a>
</g>
</g>
<!-- Node1&#45;&gt;Node8 -->
<g id="edge10_Node000001_Node000008" class="edge">
<title>Node1&#45;&gt;Node8</title>
<g id="a_edge10_Node000001_Node000008"><a xlink:title=" ">
<path fill="none" stroke="#63b8ff" d="M103.93,-30.08C191.8,-28.49 372.07,-25.24 475.12,-23.38"/>
<polygon fill="#63b8ff" stroke="#63b8ff" points="474.93,-26.89 484.86,-23.21 474.8,-19.89 474.93,-26.89"/>
</a>
</g>
</g>
<!-- Node3 -->
<g id="Node000003" class="node">
<title>Node3</title>
<g id="a_Node000003"><a xlink:href="namespacedepicture__menu_1_1cs__binding_1_1entry__map.html#a05fd9ef1a1b634413a3b9f1848531395" target="_top" xlink:title=" ">
<polygon fill="white" stroke="#666666" points="446.25,-208 308,-208 308,-164 446.25,-164 446.25,-208"/>
<text xml:space="preserve" text-anchor="start" x="316" y="-194.5" font-family="Helvetica,sans-Serif" font-size="10.00">depicture_menu::cs</text>
<text xml:space="preserve" text-anchor="start" x="316" y="-182.5" font-family="Helvetica,sans-Serif" font-size="10.00">_binding::entry_map</text>
<text xml:space="preserve" text-anchor="middle" x="377.12" y="-170.5" font-family="Helvetica,sans-Serif" font-size="10.00">::get_collection_entry_maps</text>
</a>
</g>
</g>
<!-- Node2&#45;&gt;Node3 -->
<g id="edge2_Node000002_Node000003" class="edge">
<title>Node2&#45;&gt;Node3</title>
<g id="a_edge2_Node000002_Node000003"><a xlink:title=" ">
<path fill="none" stroke="#63b8ff" d="M232.76,-100.3C252.54,-116.68 280.92,-138.81 308,-155 309.88,-156.13 311.81,-157.24 313.78,-158.33"/>
<polygon fill="#63b8ff" stroke="#63b8ff" points="311.99,-161.35 322.47,-162.94 315.27,-155.16 311.99,-161.35"/>
</a>
</g>
</g>
<!-- Node4 -->
<g id="Node000004" class="node">
<title>Node4</title>
<g id="a_Node000004"><a xlink:href="namespacedepicture__menu_1_1cs__binding_1_1entry__map.html#ad33c5321ecf167ad9f3c5e9baeee4d07" target="_top" xlink:title=" ">
<polygon fill="white" stroke="#666666" points="439.5,-128 314.75,-128 314.75,-72 439.5,-72 439.5,-128"/>
<text xml:space="preserve" text-anchor="start" x="322.75" y="-114.5" font-family="Helvetica,sans-Serif" font-size="10.00">depicture_menu::cs</text>
<text xml:space="preserve" text-anchor="start" x="322.75" y="-102.5" font-family="Helvetica,sans-Serif" font-size="10.00">_binding::entry_map</text>
<text xml:space="preserve" text-anchor="start" x="322.75" y="-90.5" font-family="Helvetica,sans-Serif" font-size="10.00">::get_sub_class_acceser</text>
<text xml:space="preserve" text-anchor="middle" x="377.12" y="-78.5" font-family="Helvetica,sans-Serif" font-size="10.00">_chain_entries</text>
</a>
</g>
</g>
<!-- Node2&#45;&gt;Node4 -->
<g id="edge3_Node000002_Node000004" class="edge">
<title>Node2&#45;&gt;Node4</title>
<g id="a_edge3_Node000002_Node000004"><a xlink:title=" ">
<path fill="none" stroke="#63b8ff" d="M272.31,-86.51C282.38,-87.81 292.83,-89.17 303.06,-90.5"/>
<polygon fill="#63b8ff" stroke="#63b8ff" points="302.6,-93.97 312.97,-91.79 303.5,-87.03 302.6,-93.97"/>
</a>
</g>
</g>
<!-- Node2&#45;&gt;Node8 -->
<g id="edge9_Node000002_Node000008" class="edge">
<title>Node2&#45;&gt;Node8</title>
<g id="a_edge9_Node000002_Node000008"><a xlink:title=" ">
<path fill="none" stroke="#63b8ff" d="M272.17,-67.4C329.92,-58.03 414.22,-44.34 475.16,-34.45"/>
<polygon fill="#63b8ff" stroke="#63b8ff" points="475.45,-37.95 484.76,-32.89 474.33,-31.04 475.45,-37.95"/>
</a>
</g>
</g>
<!-- Node4&#45;&gt;Node4 -->
<g id="edge4_Node000004_Node000004" class="edge">
<title>Node4&#45;&gt;Node4</title>
<g id="a_edge4_Node000004_Node000004"><a xlink:title=" ">
<path fill="none" stroke="#63b8ff" d="M345.02,-128.3C344.68,-138.09 355.38,-146 377.12,-146 390.37,-146 399.52,-143.06 404.57,-138.55"/>
<polygon fill="#63b8ff" stroke="#63b8ff" points="407.65,-140.23 408.6,-129.68 401.28,-137.34 407.65,-140.23"/>
</a>
</g>
</g>
<!-- Node5 -->
<g id="Node000005" class="node">
<title>Node5</title>
<g id="a_Node000005"><a xlink:href="namespacedepicture__menu_1_1cs__binding_1_1entry__map.html#af50a6f76754797a8080b602b3870cb9a" target="_top" xlink:title=" ">
<polygon fill="white" stroke="#666666" points="623.5,-230 482.25,-230 482.25,-186 623.5,-186 623.5,-230"/>
<text xml:space="preserve" text-anchor="start" x="490.25" y="-216.5" font-family="Helvetica,sans-Serif" font-size="10.00">depicture_menu::cs</text>
<text xml:space="preserve" text-anchor="start" x="490.25" y="-204.5" font-family="Helvetica,sans-Serif" font-size="10.00">_binding::entry_map</text>
<text xml:space="preserve" text-anchor="middle" x="552.88" y="-192.5" font-family="Helvetica,sans-Serif" font-size="10.00">::get_sub_class_entry_maps</text>
</a>
</g>
</g>
<!-- Node4&#45;&gt;Node5 -->
<g id="edge5_Node000004_Node000005" class="edge">
<title>Node4&#45;&gt;Node5</title>
<g id="a_edge5_Node000004_Node000005"><a xlink:title=" ">
<path fill="none" stroke="#63b8ff" d="M412.47,-128.36C432.17,-143.86 457.78,-162.73 482.25,-177 484.26,-178.17 486.32,-179.33 488.42,-180.47"/>
<polygon fill="#63b8ff" stroke="#63b8ff" points="486.6,-183.46 497.09,-184.95 489.81,-177.25 486.6,-183.46"/>
</a>
</g>
</g>
<!-- Node6 -->
<g id="Node000006" class="node">
<title>Node6</title>
<g id="a_Node000006"><a xlink:href="namespacedepicture__menu_1_1cs__binding_1_1entry__map_1_1tuple__op.html#aa6b4653e521b35f1be71867fbdc6b3d5" target="_top" xlink:title=" ">
<polygon fill="white" stroke="#666666" points="605.88,-168 499.88,-168 499.88,-124 605.88,-124 605.88,-168"/>
<text xml:space="preserve" text-anchor="start" x="507.88" y="-154.5" font-family="Helvetica,sans-Serif" font-size="10.00">depicture_menu::cs</text>
<text xml:space="preserve" text-anchor="start" x="507.88" y="-142.5" font-family="Helvetica,sans-Serif" font-size="10.00">_binding::entry_map</text>
<text xml:space="preserve" text-anchor="middle" x="552.88" y="-130.5" font-family="Helvetica,sans-Serif" font-size="10.00">::tuple_op::tuple_join</text>
</a>
</g>
</g>
<!-- Node4&#45;&gt;Node6 -->
<g id="edge6_Node000004_Node000006" class="edge">
<title>Node4&#45;&gt;Node6</title>
<g id="a_edge6_Node000004_Node000006"><a xlink:title=" ">
<path fill="none" stroke="#63b8ff" d="M439.87,-116.35C455.72,-120.54 472.79,-125.06 488.71,-129.28"/>
<polygon fill="#63b8ff" stroke="#63b8ff" points="487.5,-132.58 498.06,-131.75 489.29,-125.81 487.5,-132.58"/>
</a>
</g>
</g>
<!-- Node7 -->
<g id="Node000007" class="node">
<title>Node7</title>
<g id="a_Node000007"><a xlink:href="namespacedepicture__menu_1_1cs__binding_1_1entry__map_1_1tuple__op.html#ab45608cb253d67195236e241b543cc24" target="_top" xlink:title=" ">
<polygon fill="white" stroke="#666666" points="621.25,-106 484.5,-106 484.5,-62 621.25,-62 621.25,-106"/>
<text xml:space="preserve" text-anchor="start" x="492.5" y="-92.5" font-family="Helvetica,sans-Serif" font-size="10.00">depicture_menu::cs</text>
<text xml:space="preserve" text-anchor="start" x="492.5" y="-80.5" font-family="Helvetica,sans-Serif" font-size="10.00">_binding::entry_map</text>
<text xml:space="preserve" text-anchor="middle" x="552.88" y="-68.5" font-family="Helvetica,sans-Serif" font-size="10.00">::tuple_op::tuple_push_front</text>
</a>
</g>
</g>
<!-- Node4&#45;&gt;Node7 -->
<g id="edge7_Node000004_Node000007" class="edge">
<title>Node4&#45;&gt;Node7</title>
<g id="a_edge7_Node000004_Node000007"><a xlink:title=" ">
<path fill="none" stroke="#63b8ff" d="M439.87,-94.31C450.51,-93.33 461.71,-92.3 472.73,-91.29"/>
<polygon fill="#63b8ff" stroke="#63b8ff" points="472.99,-94.78 482.62,-90.38 472.34,-87.81 472.99,-94.78"/>
</a>
</g>
</g>
<!-- Node4&#45;&gt;Node8 -->
<g id="edge8_Node000004_Node000008" class="edge">
<title>Node4&#45;&gt;Node8</title>
<g id="a_edge8_Node000004_Node000008"><a xlink:title=" ">
<path fill="none" stroke="#63b8ff" d="M439.77,-72.11C453.73,-65.81 468.5,-59.17 482.25,-53 485.04,-51.75 487.89,-50.47 490.78,-49.18"/>
<polygon fill="#63b8ff" stroke="#63b8ff" points="492.2,-52.38 499.9,-45.11 489.34,-45.99 492.2,-52.38"/>
</a>
</g>
</g>
</g>
</svg>
