<?xml version="1.0" encoding="UTF-8" standalone="no"?>
<!DOCTYPE svg PUBLIC "-//W3C//DTD SVG 1.1//EN"
 "http://www.w3.org/Graphics/SVG/1.1/DTD/svg11.dtd">
<!-- Generated by graphviz version 14.1.2 (20260124.0452)
 -->
<!-- Title: depicture_menu::applications::backup_json::formats::get_latest_format_version Pages: 1 -->
<!--zoomable 957 -->

<svg id="main" version="1.1" xmlns="http://www.w3.org/2000/svg" xmlns:xlink="http://www.w3.org/1999/xlink" xml:space="preserve" onload="init(evt)">

<style type="text/css"><![CDATA[
.node, .edge {opacity: 0.7;}
.node.selected, .edge.selected {opacity: 1;}
.edge:hover path { stroke: red; }
.edge:hover polygon { stroke: red; fill: red; }
]]></style>

<defs>
  <circle id="rim" cx="0" cy="0" r="7"/>
  <circle id="rim2" cx="0" cy="0" r="3.5"/>
  <g id="zoomPlus">
    <use xlink:href="#rim" fill="#404040"><set attributeName="fill" to="#808080" begin="zoomplus.mouseover" end="zoomplus.mouseout"/></use>
    <path d="M-4,0h8M0,-4v8" fill="none" stroke="white" stroke-width="1.5" pointer-events="none"/>
  </g>
  <g id="zoomMin">
    <use xlink:href="#rim" fill="#404040"><set attributeName="fill" to="#808080" begin="zoomminus.mouseover" end="zoomminus.mouseout"/></use>
    <path d="M-4,0h8" fill="none" stroke="white" stroke-width="1.5" pointer-events="none"/>
  </g>
  <g id="arrowUp" transform="translate(30 24)">
    <use xlink:href="#rim"/>
    <path pointer-events="none" fill="none" stroke="white" stroke-width="1.5" d="M0,-3.0v7 M-2.5,-0.5L0,-3.0L2.5,-0.5"/>
  </g>
  <g id="arrowRight" transform="rotate(90) translate(36 -43)">
    <use xlink:href="#rim"/>
    <path pointer-events="none" fill="none" stroke="white" stroke-width="1.5" d="M0,-3.0v7 M-2.5,-0.5L0,-3.0L2.5,-0.5"/>
  </g>
  <g id="arrowDown" transform="rotate(180) translate(-30 -48)">
    <use xlink:href="#rim"/>
    <path pointer-events="none" fill="none" stroke="white" stroke-width="1.5" d="M0,-3.0v7 M-2.5,-0.5L0,-3.0L2.5,-0.5"/>
  </g>
  <g id="arrowLeft" transform="rotate(270) translate(-36 17)">
    <use xlink:href="#rim"/>
    <path pointer-events="none" fill="none" stroke="white" stroke-width="1.5" d="M0,-3.0v7 M-2.5,-0.5L0,-3.0L2.5,-0.5"/>
  </g>
  <g id="resetDef">
    <use xlink:href="#rim2" fill="#404040"><set attributeName="fill" to="#808080" begin="reset.mouseover" end="reset.mouseout"/></use>
  </g>
</defs>
<script type="application/ecmascript">
var viewWidth = 549;
var viewHeight = 957;
var sectionId = 'dynsection-0';
</script>
<script type="application/ecmascript" xlink:href="svg.min.js"/>
<svg id="graph" class="graph">
<g id="viewport">
<title>depicture_menu::applications::backup_json::formats::get_latest_format_version</title>
<!-- Node1 -->
<g id="Node000001" class="node">
<title>Node1</title>
<g id="a_Node000001"><a xlink:title=" ">
<polygon fill="#999999" stroke="#666666" points="540.75,-144 398,-144 398,-100 540.75,-100 540.75,-144"/>
<text xml:space="preserve" text-anchor="start" x="406" y="-130.5" font-family="Helvetica,sans-Serif" font-size="10.00">depicture_menu::applications</text>
<text xml:space="preserve" text-anchor="start" x="406" y="-118.5" font-family="Helvetica,sans-Serif" font-size="10.00">::backup_json::formats::get</text>
<text xml:space="preserve" text-anchor="middle" x="469.38" y="-106.5" font-family="Helvetica,sans-Serif" font-size="10.00">_latest_format_version</text>
</a>
</g>
</g>
<!-- Node2 -->
<g id="Node000002" class="node">
<title>Node2</title>
<g id="a_Node000002"><a xlink:href="_test_backup_json_8cpp.html#ac60c25c7e7fe69dfd220f4fb5bc17c5d" target="_top" xlink:title="test_write_backup_json : TestCase">
<polygon fill="white" stroke="#666666" points="354.12,-550 206.88,-550 206.88,-530 354.12,-530 354.12,-550"/>
<text xml:space="preserve" text-anchor="middle" x="280.5" y="-536.5" font-family="Helvetica,sans-Serif" font-size="10.00">BOOST_AUTO_TEST_CASE</text>
</a>
</g>
</g>
<!-- Node1&#45;&gt;Node2 -->
<g id="edge1_Node000001_Node000002" class="edge">
<title>Node1&#45;&gt;Node2</title>
<g id="a_edge1_Node000001_Node000002"><a xlink:title=" ">
<path fill="none" stroke="#63b8ff" d="M453.69,-154.85C414.62,-242.25 309.5,-477.36 286.14,-529.62"/>
<polygon fill="#63b8ff" stroke="#63b8ff" points="456.82,-156.41 457.71,-145.86 450.43,-153.56 456.82,-156.41"/>
</a>
</g>
</g>
<!-- Node24 -->
<g id="Node000024" class="node">
<title>Node24</title>
<g id="a_Node000024"><a xlink:href="_test_backup_json_8cpp.html#a0664edd112605eb047c3d72fe2f86c71" target="_top" xlink:title=" ">
<polygon fill="white" stroke="#666666" points="362,-188 199,-188 199,-168 362,-168 362,-188"/>
<text xml:space="preserve" text-anchor="middle" x="280.5" y="-174.5" font-family="Helvetica,sans-Serif" font-size="10.00">BOOST_FIXTURE_TEST_CASE</text>
</a>
</g>
</g>
<!-- Node1&#45;&gt;Node24 -->
<g id="edge23_Node000001_Node000024" class="edge">
<title>Node1&#45;&gt;Node24</title>
<g id="a_edge23_Node000001_Node000024"><a xlink:title=" ">
<path fill="none" stroke="#63b8ff" d="M396.52,-148.11C385.04,-151.96 373.24,-155.73 362,-159 351.52,-162.05 340.17,-164.96 329.39,-167.55"/>
<polygon fill="#63b8ff" stroke="#63b8ff" points="397.64,-151.43 405.98,-144.9 395.38,-144.81 397.64,-151.43"/>
</a>
</g>
</g>
<!-- Node25 -->
<g id="Node000025" class="node">
<title>Node25</title>
<g id="a_Node000025"><a xlink:href="_test_backup_json_8cpp.html#aae5e56c2e23354866f5c743b59c7629e" target="_top" xlink:title="read_json : TestCase">
<polygon fill="white" stroke="#666666" points="362,-132 199,-132 199,-112 362,-112 362,-132"/>
<text xml:space="preserve" text-anchor="middle" x="280.5" y="-118.5" font-family="Helvetica,sans-Serif" font-size="10.00">BOOST_FIXTURE_TEST_CASE</text>
</a>
</g>
</g>
<!-- Node1&#45;&gt;Node25 -->
<g id="edge24_Node000001_Node000025" class="edge">
<title>Node1&#45;&gt;Node25</title>
<g id="a_edge24_Node000001_Node000025"><a xlink:title=" ">
<path fill="none" stroke="#63b8ff" d="M386.47,-122C378.44,-122 370.3,-122 362.28,-122"/>
<polygon fill="#63b8ff" stroke="#63b8ff" points="386.21,-125.5 396.21,-122 386.21,-118.5 386.21,-125.5"/>
</a>
</g>
</g>
<!-- Node29 -->
<g id="Node000029" class="node">
<title>Node29</title>
<g id="a_Node000029"><a xlink:href="classdepicture__menu_1_1presentations_1_1backup__data__presenter.html#a16c97ba76635f9027ebb6b6c93098632" target="_top" xlink:title=" ">
<polygon fill="white" stroke="#666666" points="355.25,-94 205.75,-94 205.75,-50 355.25,-50 355.25,-94"/>
<text xml:space="preserve" text-anchor="start" x="213.75" y="-80.5" font-family="Helvetica,sans-Serif" font-size="10.00">depicture_menu::presentations</text>
<text xml:space="preserve" text-anchor="start" x="213.75" y="-68.5" font-family="Helvetica,sans-Serif" font-size="10.00">::backup_data_presenter::</text>
<text xml:space="preserve" text-anchor="middle" x="280.5" y="-56.5" font-family="Helvetica,sans-Serif" font-size="10.00">export_data</text>
</a>
</g>
</g>
<!-- Node1&#45;&gt;Node29 -->
<g id="edge29_Node000001_Node000029" class="edge">
<title>Node1&#45;&gt;Node29</title>
<g id="a_edge29_Node000001_Node000029"><a xlink:title=" ">
<path fill="none" stroke="#63b8ff" d="M386.65,-100.13C376.35,-97.38 365.85,-94.57 355.67,-91.85"/>
<polygon fill="#63b8ff" stroke="#63b8ff" points="385.7,-103.5 396.26,-102.71 387.51,-96.74 385.7,-103.5"/>
</a>
</g>
</g>
<!-- Node30 -->
<g id="Node000030" class="node">
<title>Node30</title>
<g id="a_Node000030"><a xlink:href="namespacedepicture__menu_1_1applications_1_1backup__json.html#a5e39c69107de932dd5584c374763c074" target="_top" xlink:title=" ">
<polygon fill="white" stroke="#666666" points="361.25,-32 199.75,-32 199.75,0 361.25,0 361.25,-32"/>
<text xml:space="preserve" text-anchor="start" x="207.75" y="-18.5" font-family="Helvetica,sans-Serif" font-size="10.00">depicture_menu::applications</text>
<text xml:space="preserve" text-anchor="middle" x="280.5" y="-6.5" font-family="Helvetica,sans-Serif" font-size="10.00">::backup_json::read_backup_json</text>
</a>
</g>
</g>
<!-- Node1&#45;&gt;Node30 -->
<g id="edge30_Node000001_Node000030" class="edge">
<title>Node1&#45;&gt;Node30</title>
<g id="a_edge30_Node000001_Node000030"><a xlink:title=" ">
<path fill="none" stroke="#63b8ff" d="M435.56,-92.19C415.51,-75.25 388.66,-54.74 362,-41 355.89,-37.85 349.3,-35.01 342.63,-32.48"/>
<polygon fill="#63b8ff" stroke="#63b8ff" points="433.26,-94.83 443.12,-98.7 437.83,-89.52 433.26,-94.83"/>
</a>
</g>
</g>
<!-- Node3 -->
<g id="Node000003" class="node">
<title>Node3</title>
<g id="a_Node000003"><a xlink:href="_testvtbl_8cpp.html#a61606f35cd51509a4eb3fd7cd16e1407" target="_top" xlink:title=" ">
<polygon fill="white" stroke="#666666" points="155.12,-949 7.88,-949 7.88,-929 155.12,-929 155.12,-949"/>
<text xml:space="preserve" text-anchor="middle" x="81.5" y="-935.5" font-family="Helvetica,sans-Serif" font-size="10.00">BOOST_AUTO_TEST_CASE</text>
</a>
</g>
</g>
<!-- Node2&#45;&gt;Node3 -->
<g id="edge2_Node000002_Node000003" class="edge">
<title>Node2&#45;&gt;Node3</title>
<g id="a_edge2_Node000002_Node000003"><a xlink:title=" ">
<path fill="none" stroke="#63b8ff" d="M279.82,-561.5C279.55,-626.12 269.48,-820.29 163,-920 159.33,-923.44 155.16,-926.29 150.7,-928.65"/>
<polygon fill="#63b8ff" stroke="#63b8ff" points="283.32,-561.87 279.78,-551.88 276.32,-561.9 283.32,-561.87"/>
</a>
</g>
</g>
<!-- Node4 -->
<g id="Node000004" class="node">
<title>Node4</title>
<g id="a_Node000004"><a xlink:href="menu__change__operation_8cpp.html#a3cdb3a668f30bf10c24c1fa9f8859b7d" target="_top" xlink:title=" ">
<polygon fill="white" stroke="#666666" points="155.12,-911 7.88,-911 7.88,-891 155.12,-891 155.12,-911"/>
<text xml:space="preserve" text-anchor="middle" x="81.5" y="-897.5" font-family="Helvetica,sans-Serif" font-size="10.00">BOOST_AUTO_TEST_CASE</text>
</a>
</g>
</g>
<!-- Node2&#45;&gt;Node4 -->
<g id="edge3_Node000002_Node000004" class="edge">
<title>Node2&#45;&gt;Node4</title>
<g id="a_edge3_Node000002_Node000004"><a xlink:title=" ">
<path fill="none" stroke="#63b8ff" d="M278.96,-561.71C276.24,-622.21 259.92,-794.01 163,-882 159.28,-885.38 155.07,-888.19 150.58,-890.52"/>
<polygon fill="#63b8ff" stroke="#63b8ff" points="282.46,-561.9 279.32,-551.78 275.46,-561.65 282.46,-561.9"/>
</a>
</g>
</g>
<!-- Node5 -->
<g id="Node000005" class="node">
<title>Node5</title>
<g id="a_Node000005"><a xlink:href="_test_cs_binding_8cpp.html#a0246cb3f7b9bcb2bfed6bfd4959064b7" target="_top" xlink:title=" ">
<polygon fill="white" stroke="#666666" points="155.12,-873 7.88,-873 7.88,-853 155.12,-853 155.12,-873"/>
<text xml:space="preserve" text-anchor="middle" x="81.5" y="-859.5" font-family="Helvetica,sans-Serif" font-size="10.00">BOOST_AUTO_TEST_CASE</text>
</a>
</g>
</g>
<!-- Node2&#45;&gt;Node5 -->
<g id="edge4_Node000002_Node000005" class="edge">
<title>Node2&#45;&gt;Node5</title>
<g id="a_edge4_Node000002_Node000005"><a xlink:title=" ">
<path fill="none" stroke="#63b8ff" d="M277.93,-561.53C272.67,-617.28 250.65,-767.39 163,-844 159.11,-847.4 154.72,-850.22 150.05,-852.56"/>
<polygon fill="#63b8ff" stroke="#63b8ff" points="281.4,-562.06 278.75,-551.8 274.42,-561.47 281.4,-562.06"/>
</a>
</g>
</g>
<!-- Node6 -->
<g id="Node000006" class="node">
<title>Node6</title>
<g id="a_Node000006"><a xlink:href="test__command__line__option_8cpp.html#a0ba4ff3ec435915cea4dd0214e61051d" target="_top" xlink:title=" ">
<polygon fill="white" stroke="#666666" points="155.12,-835 7.88,-835 7.88,-815 155.12,-815 155.12,-835"/>
<text xml:space="preserve" text-anchor="middle" x="81.5" y="-821.5" font-family="Helvetica,sans-Serif" font-size="10.00">BOOST_AUTO_TEST_CASE</text>
</a>
</g>
</g>
<!-- Node2&#45;&gt;Node6 -->
<g id="edge5_Node000002_Node000006" class="edge">
<title>Node2&#45;&gt;Node6</title>
<g id="a_edge5_Node000002_Node000006"><a xlink:title=" ">
<path fill="none" stroke="#63b8ff" d="M276.62,-561.54C268.63,-612.43 241.36,-740.68 163,-806 158.92,-809.4 154.34,-812.22 149.48,-814.54"/>
<polygon fill="#63b8ff" stroke="#63b8ff" points="280.05,-562.26 278.04,-551.86 273.13,-561.25 280.05,-562.26"/>
</a>
</g>
</g>
<!-- Node7 -->
<g id="Node000007" class="node">
<title>Node7</title>
<g id="a_Node000007"><a xlink:href="test__list__wrapper_8cpp.html#a66d6c3d16f15aea58d158fc0ab2a2f96" target="_top" xlink:title=" ">
<polygon fill="white" stroke="#666666" points="155.12,-797 7.88,-797 7.88,-777 155.12,-777 155.12,-797"/>
<text xml:space="preserve" text-anchor="middle" x="81.5" y="-783.5" font-family="Helvetica,sans-Serif" font-size="10.00">BOOST_AUTO_TEST_CASE</text>
</a>
</g>
</g>
<!-- Node2&#45;&gt;Node7 -->
<g id="edge6_Node000002_Node000007" class="edge">
<title>Node2&#45;&gt;Node7</title>
<g id="a_edge6_Node000002_Node000007"><a xlink:title=" ">
<path fill="none" stroke="#63b8ff" d="M274.99,-561.2C264.18,-606.62 232.38,-713.59 163,-768 158.59,-771.46 153.66,-774.3 148.47,-776.64"/>
<polygon fill="#63b8ff" stroke="#63b8ff" points="278.37,-562.12 277.16,-551.59 271.54,-560.58 278.37,-562.12"/>
</a>
</g>
</g>
<!-- Node8 -->
<g id="Node000008" class="node">
<title>Node8</title>
<g id="a_Node000008"><a xlink:href="_test_radial_menu_8cpp.html#a959e9e54cf679eb97cc96d27c9dda4cd" target="_top" xlink:title="serialize : TestCase">
<polygon fill="white" stroke="#666666" points="155.12,-759 7.88,-759 7.88,-739 155.12,-739 155.12,-759"/>
<text xml:space="preserve" text-anchor="middle" x="81.5" y="-745.5" font-family="Helvetica,sans-Serif" font-size="10.00">BOOST_AUTO_TEST_CASE</text>
</a>
</g>
</g>
<!-- Node2&#45;&gt;Node8 -->
<g id="edge7_Node000002_Node000008" class="edge">
<title>Node2&#45;&gt;Node8</title>
<g id="a_edge7_Node000002_Node000008"><a xlink:title=" ">
<path fill="none" stroke="#63b8ff" d="M272.81,-560.89C259.01,-600.44 223.52,-686.22 163,-730 158.23,-733.45 152.92,-736.28 147.37,-738.61"/>
<polygon fill="#63b8ff" stroke="#63b8ff" points="276.05,-562.22 275.91,-551.63 269.41,-559.99 276.05,-562.22"/>
</a>
</g>
</g>
<!-- Node9 -->
<g id="Node000009" class="node">
<title>Node9</title>
<g id="a_Node000009"><a xlink:href="test__create__command__domain__service_8cpp.html#ad2485bcc7175bf7b37f83d9007b43a1b" target="_top" xlink:title=" ">
<polygon fill="white" stroke="#666666" points="155.12,-721 7.88,-721 7.88,-701 155.12,-701 155.12,-721"/>
<text xml:space="preserve" text-anchor="middle" x="81.5" y="-707.5" font-family="Helvetica,sans-Serif" font-size="10.00">BOOST_AUTO_TEST_CASE</text>
</a>
</g>
</g>
<!-- Node2&#45;&gt;Node9 -->
<g id="edge8_Node000002_Node000009" class="edge">
<title>Node2&#45;&gt;Node9</title>
<g id="a_edge8_Node000002_Node000009"><a xlink:title=" ">
<path fill="none" stroke="#63b8ff" d="M269.77,-560.36C252.88,-593.4 214.91,-658.41 163,-692 157.7,-695.43 151.84,-698.25 145.77,-700.55"/>
<polygon fill="#63b8ff" stroke="#63b8ff" points="272.7,-562.33 274.01,-551.82 266.43,-559.22 272.7,-562.33"/>
</a>
</g>
</g>
<!-- Node10 -->
<g id="Node000010" class="node">
<title>Node10</title>
<g id="a_Node000010"><a xlink:href="_test_reflection_8cpp.html#a5d695cb181db2d186de057c9a74cd53d" target="_top" xlink:title=" ">
<polygon fill="white" stroke="#666666" points="155.12,-683 7.88,-683 7.88,-663 155.12,-663 155.12,-683"/>
<text xml:space="preserve" text-anchor="middle" x="81.5" y="-669.5" font-family="Helvetica,sans-Serif" font-size="10.00">BOOST_AUTO_TEST_CASE</text>
</a>
</g>
</g>
<!-- Node2&#45;&gt;Node10 -->
<g id="edge9_Node000002_Node000010" class="edge">
<title>Node2&#45;&gt;Node10</title>
<g id="a_edge9_Node000002_Node000010"><a xlink:title=" ">
<path fill="none" stroke="#63b8ff" d="M265.15,-559.54C245.19,-585.27 206.55,-630.03 163,-654 156.71,-657.46 149.81,-660.3 142.77,-662.62"/>
<polygon fill="#63b8ff" stroke="#63b8ff" points="267.92,-561.69 271.17,-551.61 262.34,-557.46 267.92,-561.69"/>
</a>
</g>
</g>
<!-- Node11 -->
<g id="Node000011" class="node">
<title>Node11</title>
<g id="a_Node000011"><a xlink:href="test__list__wrapper_8cpp.html#a1129bac24b98e7981066518808acdbc9" target="_top" xlink:title="add_only : TestCase">
<polygon fill="white" stroke="#666666" points="155.12,-645 7.88,-645 7.88,-625 155.12,-625 155.12,-645"/>
<text xml:space="preserve" text-anchor="middle" x="81.5" y="-631.5" font-family="Helvetica,sans-Serif" font-size="10.00">BOOST_AUTO_TEST_CASE</text>
</a>
</g>
</g>
<!-- Node2&#45;&gt;Node11 -->
<g id="edge10_Node000002_Node000011" class="edge">
<title>Node2&#45;&gt;Node11</title>
<g id="a_edge10_Node000002_Node000011"><a xlink:title=" ">
<path fill="none" stroke="#63b8ff" d="M257.74,-557.53C235.27,-574.81 198.58,-600.75 163,-616 155.08,-619.39 146.45,-622.24 137.88,-624.61"/>
<polygon fill="#63b8ff" stroke="#63b8ff" points="259.82,-560.35 265.54,-551.43 255.51,-554.84 259.82,-560.35"/>
</a>
</g>
</g>
<!-- Node12 -->
<g id="Node000012" class="node">
<title>Node12</title>
<g id="a_Node000012"><a xlink:href="test__c__u__notify__traits_8cpp.html#ad6d60c7f56481fcfef7cb5113433214d" target="_top" xlink:title=" ">
<polygon fill="white" stroke="#666666" points="155.12,-607 7.88,-607 7.88,-587 155.12,-587 155.12,-607"/>
<text xml:space="preserve" text-anchor="middle" x="81.5" y="-593.5" font-family="Helvetica,sans-Serif" font-size="10.00">BOOST_AUTO_TEST_CASE</text>
</a>
</g>
</g>
<!-- Node2&#45;&gt;Node12 -->
<g id="edge11_Node000002_Node000012" class="edge">
<title>Node2&#45;&gt;Node12</title>
<g id="a_edge11_Node000002_Node000012"><a xlink:title=" ">
<path fill="none" stroke="#63b8ff" d="M239.26,-554.04C216.93,-561.6 188.58,-570.82 163,-578 152.35,-580.99 140.83,-583.9 129.92,-586.5"/>
<polygon fill="#63b8ff" stroke="#63b8ff" points="240.25,-557.4 248.59,-550.86 237.99,-550.78 240.25,-557.4"/>
</a>
</g>
</g>
<!-- Node13 -->
<g id="Node000013" class="node">
<title>Node13</title>
<g id="a_Node000013"><a xlink:href="test__config__view_8cpp.html#a5941cee30aa5f39c1d4b1b0c2f27e4e4" target="_top" xlink:title="constroct : TestCase">
<polygon fill="white" stroke="#666666" points="155.12,-569 7.88,-569 7.88,-549 155.12,-549 155.12,-569"/>
<text xml:space="preserve" text-anchor="middle" x="81.5" y="-555.5" font-family="Helvetica,sans-Serif" font-size="10.00">BOOST_AUTO_TEST_CASE</text>
</a>
</g>
</g>
<!-- Node2&#45;&gt;Node13 -->
<g id="edge12_Node000002_Node000013" class="edge">
<title>Node2&#45;&gt;Node13</title>
<g id="a_edge12_Node000002_Node000013"><a xlink:title=" ">
<path fill="none" stroke="#63b8ff" d="M194.98,-548.15C181.82,-549.42 168.33,-550.72 155.46,-551.96"/>
<polygon fill="#63b8ff" stroke="#63b8ff" points="195.3,-551.64 204.92,-547.19 194.63,-544.67 195.3,-551.64"/>
</a>
</g>
</g>
<!-- Node14 -->
<g id="Node000014" class="node">
<title>Node14</title>
<g id="a_Node000014"><a xlink:href="test__command_8cpp.html#ad5bc5c78f070e08d314e8f313ef5f6d7" target="_top" xlink:title="construct : TestCase">
<polygon fill="white" stroke="#666666" points="155.12,-531 7.88,-531 7.88,-511 155.12,-511 155.12,-531"/>
<text xml:space="preserve" text-anchor="middle" x="81.5" y="-517.5" font-family="Helvetica,sans-Serif" font-size="10.00">BOOST_AUTO_TEST_CASE</text>
</a>
</g>
</g>
<!-- Node2&#45;&gt;Node14 -->
<g id="edge13_Node000002_Node000014" class="edge">
<title>Node2&#45;&gt;Node14</title>
<g id="a_edge13_Node000002_Node000014"><a xlink:title=" ">
<path fill="none" stroke="#63b8ff" d="M194.98,-531.85C181.82,-530.58 168.33,-529.28 155.46,-528.04"/>
<polygon fill="#63b8ff" stroke="#63b8ff" points="194.63,-535.33 204.92,-532.81 195.3,-528.36 194.63,-535.33"/>
</a>
</g>
</g>
<!-- Node15 -->
<g id="Node000015" class="node">
<title>Node15</title>
<g id="a_Node000015"><a xlink:href="test__c__u__notify__traits_8cpp.html#a8378f5fb29609da91bf9bfd0d2ed8c86" target="_top" xlink:title="func : TestCase">
<polygon fill="white" stroke="#666666" points="155.12,-493 7.88,-493 7.88,-473 155.12,-473 155.12,-493"/>
<text xml:space="preserve" text-anchor="middle" x="81.5" y="-479.5" font-family="Helvetica,sans-Serif" font-size="10.00">BOOST_AUTO_TEST_CASE</text>
</a>
</g>
</g>
<!-- Node2&#45;&gt;Node15 -->
<g id="edge14_Node000002_Node000015" class="edge">
<title>Node2&#45;&gt;Node15</title>
<g id="a_edge14_Node000002_Node000015"><a xlink:title=" ">
<path fill="none" stroke="#63b8ff" d="M239.26,-525.96C216.93,-518.4 188.58,-509.18 163,-502 152.35,-499.01 140.83,-496.1 129.92,-493.5"/>
<polygon fill="#63b8ff" stroke="#63b8ff" points="237.99,-529.22 248.59,-529.14 240.25,-522.6 237.99,-529.22"/>
</a>
</g>
</g>
<!-- Node16 -->
<g id="Node000016" class="node">
<title>Node16</title>
<g id="a_Node000016"><a xlink:href="test__config__view_8cpp.html#a1702d8786d91383fdec011242489ce16" target="_top" xlink:title="menu : TestCase">
<polygon fill="white" stroke="#666666" points="155.12,-455 7.88,-455 7.88,-435 155.12,-435 155.12,-455"/>
<text xml:space="preserve" text-anchor="middle" x="81.5" y="-441.5" font-family="Helvetica,sans-Serif" font-size="10.00">BOOST_AUTO_TEST_CASE</text>
</a>
</g>
</g>
<!-- Node2&#45;&gt;Node16 -->
<g id="edge15_Node000002_Node000016" class="edge">
<title>Node2&#45;&gt;Node16</title>
<g id="a_edge15_Node000002_Node000016"><a xlink:title=" ">
<path fill="none" stroke="#63b8ff" d="M257.74,-522.47C235.27,-505.19 198.58,-479.25 163,-464 155.08,-460.61 146.45,-457.76 137.88,-455.39"/>
<polygon fill="#63b8ff" stroke="#63b8ff" points="255.51,-525.16 265.54,-528.57 259.82,-519.65 255.51,-525.16"/>
</a>
</g>
</g>
<!-- Node17 -->
<g id="Node000017" class="node">
<title>Node17</title>
<g id="a_Node000017"><a xlink:href="test__process__startup__signal_8cpp.html#a4250e814da937a681e5d3d92bd61d64b" target="_top" xlink:title="open : TestCase">
<polygon fill="white" stroke="#666666" points="155.12,-417 7.88,-417 7.88,-397 155.12,-397 155.12,-417"/>
<text xml:space="preserve" text-anchor="middle" x="81.5" y="-403.5" font-family="Helvetica,sans-Serif" font-size="10.00">BOOST_AUTO_TEST_CASE</text>
</a>
</g>
</g>
<!-- Node2&#45;&gt;Node17 -->
<g id="edge16_Node000002_Node000017" class="edge">
<title>Node2&#45;&gt;Node17</title>
<g id="a_edge16_Node000002_Node000017"><a xlink:title=" ">
<path fill="none" stroke="#63b8ff" d="M265.15,-520.46C245.19,-494.73 206.55,-449.97 163,-426 156.71,-422.54 149.81,-419.7 142.77,-417.38"/>
<polygon fill="#63b8ff" stroke="#63b8ff" points="262.34,-522.54 271.17,-528.39 267.92,-518.31 262.34,-522.54"/>
</a>
</g>
</g>
<!-- Node18 -->
<g id="Node000018" class="node">
<title>Node18</title>
<g id="a_Node000018"><a xlink:href="test__command_8cpp.html#ad8a3490b977b50e53d7ab6e4a45a985c" target="_top" xlink:title=" ">
<polygon fill="white" stroke="#666666" points="155.12,-379 7.88,-379 7.88,-359 155.12,-359 155.12,-379"/>
<text xml:space="preserve" text-anchor="middle" x="81.5" y="-365.5" font-family="Helvetica,sans-Serif" font-size="10.00">BOOST_AUTO_TEST_CASE</text>
</a>
</g>
</g>
<!-- Node2&#45;&gt;Node18 -->
<g id="edge17_Node000002_Node000018" class="edge">
<title>Node2&#45;&gt;Node18</title>
<g id="a_edge17_Node000002_Node000018"><a xlink:title=" ">
<path fill="none" stroke="#63b8ff" d="M269.77,-519.64C252.88,-486.6 214.91,-421.59 163,-388 157.7,-384.57 151.84,-381.75 145.77,-379.45"/>
<polygon fill="#63b8ff" stroke="#63b8ff" points="266.43,-520.78 274.01,-528.18 272.7,-517.67 266.43,-520.78"/>
</a>
</g>
</g>
<!-- Node19 -->
<g id="Node000019" class="node">
<title>Node19</title>
<g id="a_Node000019"><a xlink:href="_test_snapshot_repository_8cpp.html#a65676fadbdbfe2ae84907f83b5ad539d" target="_top" xlink:title=" ">
<polygon fill="white" stroke="#666666" points="155.12,-341 7.88,-341 7.88,-321 155.12,-321 155.12,-341"/>
<text xml:space="preserve" text-anchor="middle" x="81.5" y="-327.5" font-family="Helvetica,sans-Serif" font-size="10.00">BOOST_AUTO_TEST_CASE</text>
</a>
</g>
</g>
<!-- Node2&#45;&gt;Node19 -->
<g id="edge18_Node000002_Node000019" class="edge">
<title>Node2&#45;&gt;Node19</title>
<g id="a_edge18_Node000002_Node000019"><a xlink:title=" ">
<path fill="none" stroke="#63b8ff" d="M272.81,-519.11C259.01,-479.56 223.52,-393.78 163,-350 158.23,-346.55 152.92,-343.72 147.37,-341.39"/>
<polygon fill="#63b8ff" stroke="#63b8ff" points="269.41,-520.01 275.91,-528.37 276.05,-517.78 269.41,-520.01"/>
</a>
</g>
</g>
<!-- Node20 -->
<g id="Node000020" class="node">
<title>Node20</title>
<g id="a_Node000020"><a xlink:href="_test_transaction_8cpp.html#ad171980ff709b74d47119d321dc4b82e" target="_top" xlink:title=" ">
<polygon fill="white" stroke="#666666" points="155.12,-303 7.88,-303 7.88,-283 155.12,-283 155.12,-303"/>
<text xml:space="preserve" text-anchor="middle" x="81.5" y="-289.5" font-family="Helvetica,sans-Serif" font-size="10.00">BOOST_AUTO_TEST_CASE</text>
</a>
</g>
</g>
<!-- Node2&#45;&gt;Node20 -->
<g id="edge19_Node000002_Node000020" class="edge">
<title>Node2&#45;&gt;Node20</title>
<g id="a_edge19_Node000002_Node000020"><a xlink:title=" ">
<path fill="none" stroke="#63b8ff" d="M274.99,-518.8C264.18,-473.38 232.38,-366.41 163,-312 158.59,-308.54 153.66,-305.7 148.47,-303.36"/>
<polygon fill="#63b8ff" stroke="#63b8ff" points="271.54,-519.42 277.16,-528.41 278.37,-517.88 271.54,-519.42"/>
</a>
</g>
</g>
<!-- Node21 -->
<g id="Node000021" class="node">
<title>Node21</title>
<g id="a_Node000021"><a xlink:href="_test_transaction_8cpp.html#a77e78089cb8cdb77c5003d624290f98f" target="_top" xlink:title="transaction_error : TestCase">
<polygon fill="white" stroke="#666666" points="155.12,-265 7.88,-265 7.88,-245 155.12,-245 155.12,-265"/>
<text xml:space="preserve" text-anchor="middle" x="81.5" y="-251.5" font-family="Helvetica,sans-Serif" font-size="10.00">BOOST_AUTO_TEST_CASE</text>
</a>
</g>
</g>
<!-- Node2&#45;&gt;Node21 -->
<g id="edge20_Node000002_Node000021" class="edge">
<title>Node2&#45;&gt;Node21</title>
<g id="a_edge20_Node000002_Node000021"><a xlink:title=" ">
<path fill="none" stroke="#63b8ff" d="M276.62,-518.46C268.63,-467.57 241.36,-339.32 163,-274 158.92,-270.6 154.34,-267.78 149.48,-265.46"/>
<polygon fill="#63b8ff" stroke="#63b8ff" points="273.13,-518.75 278.04,-528.14 280.05,-517.74 273.13,-518.75"/>
</a>
</g>
</g>
<!-- Node22 -->
<g id="Node000022" class="node">
<title>Node22</title>
<g id="a_Node000022"><a xlink:href="test__c__u__notify__traits_8cpp.html#a7c2e52aaee5fe11dcd57db65c29ba8e1" target="_top" xlink:title="get_collection_accesser : TestCase">
<polygon fill="white" stroke="#666666" points="155.12,-227 7.88,-227 7.88,-207 155.12,-207 155.12,-227"/>
<text xml:space="preserve" text-anchor="middle" x="81.5" y="-213.5" font-family="Helvetica,sans-Serif" font-size="10.00">BOOST_AUTO_TEST_CASE</text>
</a>
</g>
</g>
<!-- Node2&#45;&gt;Node22 -->
<g id="edge21_Node000002_Node000022" class="edge">
<title>Node2&#45;&gt;Node22</title>
<g id="a_edge21_Node000002_Node000022"><a xlink:title=" ">
<path fill="none" stroke="#63b8ff" d="M277.93,-518.47C272.67,-462.72 250.65,-312.61 163,-236 159.11,-232.6 154.72,-229.78 150.05,-227.44"/>
<polygon fill="#63b8ff" stroke="#63b8ff" points="274.42,-518.53 278.75,-528.2 281.4,-517.94 274.42,-518.53"/>
</a>
</g>
</g>
<!-- Node23 -->
<g id="Node000023" class="node">
<title>Node23</title>
<g id="a_Node000023"><a xlink:href="_test_atomic_mutex_8cpp.html#a8b1033a7afbd2e3b6c37b523520acadc" target="_top" xlink:title=" ">
<polygon fill="white" stroke="#666666" points="155.12,-189 7.88,-189 7.88,-169 155.12,-169 155.12,-189"/>
<text xml:space="preserve" text-anchor="middle" x="81.5" y="-175.5" font-family="Helvetica,sans-Serif" font-size="10.00">BOOST_AUTO_TEST_CASE</text>
</a>
</g>
</g>
<!-- Node2&#45;&gt;Node23 -->
<g id="edge22_Node000002_Node000023" class="edge">
<title>Node2&#45;&gt;Node23</title>
<g id="a_edge22_Node000002_Node000023"><a xlink:title=" ">
<path fill="none" stroke="#63b8ff" d="M278.96,-518.29C276.24,-457.79 259.92,-285.99 163,-198 159.28,-194.62 155.07,-191.81 150.58,-189.48"/>
<polygon fill="#63b8ff" stroke="#63b8ff" points="275.46,-518.35 279.32,-528.22 282.46,-518.1 275.46,-518.35"/>
</a>
</g>
</g>
<!-- Node25&#45;&gt;Node25 -->
<g id="edge27_Node000025_Node000025" class="edge">
<title>Node25&#45;&gt;Node25</title>
<g id="a_edge27_Node000025_Node000025"><a xlink:title=" ">
<path fill="none" stroke="#63b8ff" d="M314.23,-143.11C310.21,-147.14 298.97,-150 280.5,-150 247.67,-150 237.66,-140.98 250.49,-132.34"/>
<polygon fill="#63b8ff" stroke="#63b8ff" points="317.58,-142.08 311,-133.77 310.97,-144.36 317.58,-142.08"/>
</a>
</g>
</g>
<!-- Node26 -->
<g id="Node000026" class="node">
<title>Node26</title>
<g id="a_Node000026"><a xlink:href="_test_message_receive_window_8cpp.html#a681d9d47ef90a1c0010a2039ddcec606" target="_top" xlink:title=" ">
<polygon fill="white" stroke="#666666" points="163,-151 0,-151 0,-131 163,-131 163,-151"/>
<text xml:space="preserve" text-anchor="middle" x="81.5" y="-137.5" font-family="Helvetica,sans-Serif" font-size="10.00">BOOST_FIXTURE_TEST_CASE</text>
</a>
</g>
</g>
<!-- Node25&#45;&gt;Node26 -->
<g id="edge25_Node000025_Node000026" class="edge">
<title>Node25&#45;&gt;Node26</title>
<g id="a_edge25_Node000025_Node000026"><a xlink:title=" ">
<path fill="none" stroke="#63b8ff" d="M187.32,-130.89C179.36,-131.66 171.35,-132.43 163.48,-133.19"/>
<polygon fill="#63b8ff" stroke="#63b8ff" points="187.4,-134.4 197.01,-129.96 186.72,-127.43 187.4,-134.4"/>
</a>
</g>
</g>
<!-- Node27 -->
<g id="Node000027" class="node">
<title>Node27</title>
<g id="a_Node000027"><a xlink:href="test__config__view__factory__service_8cpp.html#ae1605c3b2946b0d72231ba5304c893b7" target="_top" xlink:title="construct : TestCase">
<polygon fill="white" stroke="#666666" points="163,-113 0,-113 0,-93 163,-93 163,-113"/>
<text xml:space="preserve" text-anchor="middle" x="81.5" y="-99.5" font-family="Helvetica,sans-Serif" font-size="10.00">BOOST_FIXTURE_TEST_CASE</text>
</a>
</g>
</g>
<!-- Node25&#45;&gt;Node27 -->
<g id="edge26_Node000025_Node000027" class="edge">
<title>Node25&#45;&gt;Node27</title>
<g id="a_edge26_Node000025_Node000027"><a xlink:title=" ">
<path fill="none" stroke="#63b8ff" d="M187.32,-113.11C179.36,-112.34 171.35,-111.57 163.48,-110.81"/>
<polygon fill="#63b8ff" stroke="#63b8ff" points="186.72,-116.57 197.01,-114.04 187.4,-109.6 186.72,-116.57"/>
</a>
</g>
</g>
<!-- Node28 -->
<g id="Node000028" class="node">
<title>Node28</title>
<g id="a_Node000028"><a xlink:href="test__list__wrapper_8cpp.html#aed81f88376df01ea1792223011d3402e" target="_top" xlink:title="sync : TestCase">
<polygon fill="white" stroke="#666666" points="163,-75 0,-75 0,-55 163,-55 163,-75"/>
<text xml:space="preserve" text-anchor="middle" x="81.5" y="-61.5" font-family="Helvetica,sans-Serif" font-size="10.00">BOOST_FIXTURE_TEST_CASE</text>
</a>
</g>
</g>
<!-- Node25&#45;&gt;Node28 -->
<g id="edge28_Node000025_Node000028" class="edge">
<title>Node25&#45;&gt;Node28</title>
<g id="a_edge28_Node000025_Node000028"><a xlink:title=" ">
<path fill="none" stroke="#63b8ff" d="M215.6,-108.5C209.93,-106.83 204.33,-105 199,-103 182.06,-96.65 179.94,-90.35 163,-84 154.26,-80.72 144.77,-77.89 135.47,-75.48"/>
<polygon fill="#63b8ff" stroke="#63b8ff" points="214.5,-111.83 225.07,-111.12 216.36,-105.08 214.5,-111.83"/>
</a>
</g>
</g>
</g>
</svg>

<g id="navigator" transform="translate(0 0)" fill="#404254">
  <rect fill="#f2f5e9" fill-opacity="0.5" stroke="#606060" stroke-width=".5" x="0" y="0" width="60" height="60"/>
  <use id="zoomplus" xlink:href="#zoomPlus" x="17" y="9" onmousedown="handleZoom(evt,'in')"/>
  <use id="zoomminus" xlink:href="#zoomMin" x="42" y="9" onmousedown="handleZoom(evt,'out')"/>
  <use id="reset" xlink:href="#resetDef" x="30" y="36" onmousedown="handleReset()"/>
   <use id="arrowup" xlink:href="#arrowUp" x="0" y="0" onmousedown="handlePan(0,-1)"/>
  <use id="arrowright" xlink:href="#arrowRight" x="0" y="0" onmousedown="handlePan(1,0)"/>
  <use id="arrowdown" xlink:href="#arrowDown" x="0" y="0" onmousedown="handlePan(0,1)"/>
  <use id="arrowleft" xlink:href="#arrowLeft" x="0" y="0" onmousedown="handlePan(-1,0)"/>
</g>
<svg viewBox="0 0 15 15" width="100%" height="30px" preserveAspectRatio="xMaxYMin meet">
 <g id="arrow_out" transform="scale(0.3 0.3)">
  <a xlink:href="namespacedepicture__menu_1_1applications_1_1backup__json_1_1formats_a9e863dd7ba8f6dd1ee83718d9ee2fd30_icgraph_org.svg" target="_base">
   <rect id="button" ry="5" rx="5" y="6" x="6" height="38" width="38"
        fill="#f2f5e9" fill-opacity="0.5" stroke="#606060" stroke-width="1.0"/>
   <path id="arrow"
     d="M 11.500037,31.436501 C 11.940474,20.09759 22.043105,11.32322 32.158766,21.979434 L 37.068811,17.246167 C 37.068811,17.246167 37.088388,32 37.088388,32 L 22.160133,31.978069 C 22.160133,31.978069 26.997745,27.140456 26.997745,27.140456 C 18.528582,18.264221 13.291696,25.230495 11.500037,31.436501 z"
     style="fill:#404040;"/>
  </a>
 </g>
</svg>

<style type='text/css'>
<![CDATA[
[data-mouse-over-selected='false'] { opacity: 0.7; }
[data-mouse-over-selected='true']  { opacity: 1.0; }
]]>
</style>
<script type="application/ecmascript"><![CDATA[
document.addEventListener('DOMContentLoaded', (event) => {
  highlightEdges();
  highlightAdjacentNodes();
});
]]></script>
</svg>
