<?xml version="1.0" encoding="UTF-8" standalone="no"?>
<!DOCTYPE svg PUBLIC "-//W3C//DTD SVG 1.1//EN"
 "http://www.w3.org/Graphics/SVG/1.1/DTD/svg11.dtd">
<!-- Generated by graphviz version 14.1.2 (20260124.0452)
 -->
<!-- Title: detail::create_usecase Pages: 1 -->
<svg width="629pt" height="119pt"
 viewBox="0.00 0.00 629.00 119.00" xmlns="http://www.w3.org/2000/svg" xmlns:xlink="http://www.w3.org/1999/xlink">
<g id="graph0" class="graph" transform="scale(1 1) rotate(0) translate(4 114.7)">
<title>detail::create_usecase</title>
<!-- Node1 -->
<g id="Node000001" class="node">
<title>Node1</title>
<g id="a_Node000001"><a xlink:title=" ">
<polygon fill="#999999" stroke="#666666" points="114.25,-82 0,-82 0,-62 114.25,-62 114.25,-82"/>
<text xml:space="preserve" text-anchor="middle" x="57.12" y="-68.5" font-family="Helvetica,sans-Serif" font-size="10.00">detail::create_usecase</text>
</a>
</g>
</g>
<!-- Node2 -->
<g id="Node000002" class="node">
<title>Node2</title>
<g id="a_Node000002"><a xlink:href="namespacedetail.html#a8aee8542a8e50ac503aeda7f2e247b33" target="_top" xlink:title=" ">
<polygon fill="white" stroke="#666666" points="251,-88 150.25,-88 150.25,-56 251,-56 251,-88"/>
<text xml:space="preserve" text-anchor="start" x="158.25" y="-74.5" font-family="Helvetica,sans-Serif" font-size="10.00">detail::make_config</text>
<text xml:space="preserve" text-anchor="middle" x="200.62" y="-62.5" font-family="Helvetica,sans-Serif" font-size="10.00">_view_injection</text>
</a>
</g>
</g>
<!-- Node1&#45;&gt;Node2 -->
<g id="edge1_Node000001_Node000002" class="edge">
<title>Node1&#45;&gt;Node2</title>
<g id="a_edge1_Node000001_Node000002"><a xlink:title=" ">
<path fill="none" stroke="#63b8ff" d="M114.46,-72C122.33,-72 130.45,-72 138.4,-72"/>
<polygon fill="#63b8ff" stroke="#63b8ff" points="138.38,-75.5 148.38,-72 138.38,-68.5 138.38,-75.5"/>
</a>
</g>
</g>
<!-- Node3 -->
<g id="Node000003" class="node">
<title>Node3</title>
<g id="a_Node000003"><a xlink:href="classdepicture__menu_1_1singleton.html#ab3a8df96e817c8ccb1ab61434f90c416" target="_top" xlink:title=" ">
<polygon fill="white" stroke="#666666" points="621.25,-91 465.75,-91 465.75,-47 621.25,-47 621.25,-91"/>
<text xml:space="preserve" text-anchor="start" x="473.75" y="-77.5" font-family="Helvetica,sans-Serif" font-size="10.00">depicture_menu::singleton</text>
<text xml:space="preserve" text-anchor="start" x="473.75" y="-65.5" font-family="Helvetica,sans-Serif" font-size="10.00">&lt; detail_d_menu::core_interface</text>
<text xml:space="preserve" text-anchor="middle" x="543.5" y="-53.5" font-family="Helvetica,sans-Serif" font-size="10.00">_impl &gt;::get_instance</text>
</a>
</g>
</g>
<!-- Node2&#45;&gt;Node3 -->
<g id="edge2_Node000002_Node000003" class="edge">
<title>Node2&#45;&gt;Node3</title>
<g id="a_edge2_Node000002_Node000003"><a xlink:title=" ">
<path fill="none" stroke="#63b8ff" d="M238.25,-88.47C253.07,-94.29 270.54,-100.1 287,-103 349.48,-113.99 366.98,-112.26 429.75,-103 442.63,-101.1 456.08,-98.04 469.01,-94.52"/>
<polygon fill="#63b8ff" stroke="#63b8ff" points="469.62,-97.99 478.28,-91.88 467.7,-91.25 469.62,-97.99"/>
</a>
</g>
</g>
<!-- Node4 -->
<g id="Node000004" class="node">
<title>Node4</title>
<g id="a_Node000004"><a xlink:href="namespacedepicture__menu_1_1applications_1_1view__factories.html#a13f1cd4f7caf439c65df67b637dcb061" target="_top" xlink:title=" ">
<polygon fill="white" stroke="#666666" points="429.75,-94 287,-94 287,-50 429.75,-50 429.75,-94"/>
<text xml:space="preserve" text-anchor="start" x="295" y="-80.5" font-family="Helvetica,sans-Serif" font-size="10.00">depicture_menu::applications</text>
<text xml:space="preserve" text-anchor="start" x="295" y="-68.5" font-family="Helvetica,sans-Serif" font-size="10.00">::view_factories::get_menu</text>
<text xml:space="preserve" text-anchor="middle" x="358.38" y="-56.5" font-family="Helvetica,sans-Serif" font-size="10.00">_view_arg_injection</text>
</a>
</g>
</g>
<!-- Node2&#45;&gt;Node4 -->
<g id="edge3_Node000002_Node000004" class="edge">
<title>Node2&#45;&gt;Node4</title>
<g id="a_edge3_Node000002_Node000004"><a xlink:title=" ">
<path fill="none" stroke="#63b8ff" d="M251.33,-72C258.96,-72 267,-72 275.1,-72"/>
<polygon fill="#63b8ff" stroke="#63b8ff" points="275.05,-75.5 285.05,-72 275.05,-68.5 275.05,-75.5"/>
</a>
</g>
</g>
<!-- Node5 -->
<g id="Node000005" class="node">
<title>Node5</title>
<g id="a_Node000005"><a xlink:href="namespacedepicture__menu_1_1applications.html#af2f3f1b3b5999de9758861d236b73323" target="_top" xlink:title=" ">
<polygon fill="white" stroke="#666666" points="429.75,-32 287,-32 287,0 429.75,0 429.75,-32"/>
<text xml:space="preserve" text-anchor="start" x="295" y="-18.5" font-family="Helvetica,sans-Serif" font-size="10.00">depicture_menu::applications</text>
<text xml:space="preserve" text-anchor="middle" x="358.38" y="-6.5" font-family="Helvetica,sans-Serif" font-size="10.00">::make_transaction_injector</text>
</a>
</g>
</g>
<!-- Node2&#45;&gt;Node5 -->
<g id="edge4_Node000002_Node000005" class="edge">
<title>Node2&#45;&gt;Node5</title>
<g id="a_edge4_Node000002_Node000005"><a xlink:title=" ">
<path fill="none" stroke="#63b8ff" d="M246.8,-55.53C259.77,-50.82 273.94,-45.69 287,-41 291.32,-39.45 295.8,-37.84 300.3,-36.24"/>
<polygon fill="#63b8ff" stroke="#63b8ff" points="301.13,-39.66 309.37,-33 298.78,-33.06 301.13,-39.66"/>
</a>
</g>
</g>
<!-- Node5&#45;&gt;Node3 -->
<g id="edge5_Node000005_Node000003" class="edge">
<title>Node5&#45;&gt;Node3</title>
<g id="a_edge5_Node000005_Node000003"><a xlink:title=" ">
<path fill="none" stroke="#63b8ff" d="M416.31,-32.48C428.45,-35.99 441.55,-39.78 454.54,-43.54"/>
<polygon fill="#63b8ff" stroke="#63b8ff" points="453.38,-46.85 463.96,-46.27 455.32,-40.13 453.38,-46.85"/>
</a>
</g>
</g>
</g>
</svg>
