<?xml version="1.0" encoding="UTF-8" standalone="no"?>
<!DOCTYPE svg PUBLIC "-//W3C//DTD SVG 1.1//EN"
 "http://www.w3.org/Graphics/SVG/1.1/DTD/svg11.dtd">
<!-- Generated by graphviz version 14.1.2 (20260124.0452)
 -->
<!-- Title: depicture_menu::usecase::detail_usecase_add_new_menu::add_new_menu_impl Pages: 1 -->
<svg width="715pt" height="400pt"
 viewBox="0.00 0.00 715.00 400.00" xmlns="http://www.w3.org/2000/svg" xmlns:xlink="http://www.w3.org/1999/xlink">
<g id="graph0" class="graph" transform="scale(1 1) rotate(0) translate(4 396)">
<title>depicture_menu::usecase::detail_usecase_add_new_menu::add_new_menu_impl</title>
<!-- Node1 -->
<g id="Node000001" class="node">
<title>Node1</title>
<g id="a_Node000001"><a xlink:title=" ">
<polygon fill="#999999" stroke="#666666" points="142.75,-206 0,-206 0,-162 142.75,-162 142.75,-206"/>
<text xml:space="preserve" text-anchor="start" x="8" y="-192.5" font-family="Helvetica,sans-Serif" font-size="10.00">depicture_menu::usecase</text>
<text xml:space="preserve" text-anchor="start" x="8" y="-180.5" font-family="Helvetica,sans-Serif" font-size="10.00">::detail_usecase_add_new</text>
<text xml:space="preserve" text-anchor="middle" x="71.38" y="-168.5" font-family="Helvetica,sans-Serif" font-size="10.00">_menu::add_new_menu_impl</text>
</a>
</g>
</g>
<!-- Node2 -->
<g id="Node000002" class="node">
<title>Node2</title>
<g id="a_Node000002"><a xlink:href="classdepicture__menu_1_1domain_1_1services_1_1common__action__builder.html#acab7593e460573f261b739ef666fa3c9" target="_top" xlink:title=" ">
<polygon fill="white" stroke="#666666" points="330.5,-319 190.75,-319 190.75,-275 330.5,-275 330.5,-319"/>
<text xml:space="preserve" text-anchor="start" x="198.75" y="-305.5" font-family="Helvetica,sans-Serif" font-size="10.00">depicture_menu::domain</text>
<text xml:space="preserve" text-anchor="start" x="198.75" y="-293.5" font-family="Helvetica,sans-Serif" font-size="10.00">::services::common_action</text>
<text xml:space="preserve" text-anchor="middle" x="260.62" y="-281.5" font-family="Helvetica,sans-Serif" font-size="10.00">_builder::build_default_menu</text>
</a>
</g>
</g>
<!-- Node1&#45;&gt;Node2 -->
<g id="edge1_Node000001_Node000002" class="edge">
<title>Node1&#45;&gt;Node2</title>
<g id="a_edge1_Node000001_Node000002"><a xlink:title=" ">
<path fill="none" stroke="#63b8ff" d="M107.11,-206.43C127.77,-219.63 154.6,-236.53 178.75,-251 188.73,-256.97 199.49,-263.23 209.8,-269.13"/>
<polygon fill="#63b8ff" stroke="#63b8ff" points="207.78,-272 218.2,-273.91 211.24,-265.92 207.78,-272"/>
</a>
</g>
</g>
<!-- Node3 -->
<g id="Node000003" class="node">
<title>Node3</title>
<g id="a_Node000003"><a xlink:href="structdepicture__menu_1_1domain_1_1models_1_1base_1_1entity__base.html#adce587e64220cc3a3407233c1fc61ba4" target="_top" xlink:title=" ">
<polygon fill="white" stroke="#666666" points="519,-392 396.5,-392 396.5,-348 519,-348 519,-392"/>
<text xml:space="preserve" text-anchor="start" x="404.5" y="-378.5" font-family="Helvetica,sans-Serif" font-size="10.00">depicture_menu::domain</text>
<text xml:space="preserve" text-anchor="start" x="404.5" y="-366.5" font-family="Helvetica,sans-Serif" font-size="10.00">::models::base::entity</text>
<text xml:space="preserve" text-anchor="middle" x="457.75" y="-354.5" font-family="Helvetica,sans-Serif" font-size="10.00">_base::entity_id</text>
</a>
</g>
</g>
<!-- Node1&#45;&gt;Node3 -->
<g id="edge12_Node000001_Node000003" class="edge">
<title>Node1&#45;&gt;Node3</title>
<g id="a_edge12_Node000001_Node000003"><a xlink:title=" ">
<path fill="none" stroke="#63b8ff" d="M82.01,-206.36C97.34,-239 130.56,-298.97 178.75,-328 241.3,-365.69 325.69,-373.67 385.02,-373.79"/>
<polygon fill="#63b8ff" stroke="#63b8ff" points="384.68,-377.3 394.66,-373.74 384.64,-370.3 384.68,-377.3"/>
</a>
</g>
</g>
<!-- Node4 -->
<g id="Node000004" class="node">
<title>Node4</title>
<g id="a_Node000004"><a xlink:href="structdepicture__menu_1_1domain_1_1models_1_1entity__id__base.html#aba7d6d01fb13b02fdf7a089b02e6c0b2" target="_top" xlink:title=" ">
<polygon fill="white" stroke="#666666" points="532.88,-268 382.62,-268 382.62,-212 532.88,-212 532.88,-268"/>
<text xml:space="preserve" text-anchor="start" x="390.62" y="-254.5" font-family="Helvetica,sans-Serif" font-size="10.00">depicture_menu::domain</text>
<text xml:space="preserve" text-anchor="start" x="390.62" y="-242.5" font-family="Helvetica,sans-Serif" font-size="10.00">::models::entity_id_base</text>
<text xml:space="preserve" text-anchor="start" x="390.62" y="-230.5" font-family="Helvetica,sans-Serif" font-size="10.00">&lt; detail_commands::command</text>
<text xml:space="preserve" text-anchor="middle" x="457.75" y="-218.5" font-family="Helvetica,sans-Serif" font-size="10.00">_id_tag &gt;::random_id</text>
</a>
</g>
</g>
<!-- Node1&#45;&gt;Node4 -->
<g id="edge13_Node000001_Node000004" class="edge">
<title>Node1&#45;&gt;Node4</title>
<g id="a_edge13_Node000001_Node000004"><a xlink:title=" ">
<path fill="none" stroke="#63b8ff" d="M142.29,-206.46C154.35,-209.73 166.84,-212.75 178.75,-215 242.57,-227.05 315.75,-233.33 371.01,-236.59"/>
<polygon fill="#63b8ff" stroke="#63b8ff" points="370.48,-240.06 380.66,-237.13 370.87,-233.07 370.48,-240.06"/>
</a>
</g>
</g>
<!-- Node7 -->
<g id="Node000007" class="node">
<title>Node7</title>
<g id="a_Node000007"><a xlink:href="classdepicture__menu_1_1domain_1_1services_1_1current__config__access__service.html#a982a04e702fc1ea5a0acfb20e458289e" target="_top" xlink:title=" ">
<polygon fill="white" stroke="#666666" points="339.12,-206 182.12,-206 182.12,-162 339.12,-162 339.12,-206"/>
<text xml:space="preserve" text-anchor="start" x="190.12" y="-192.5" font-family="Helvetica,sans-Serif" font-size="10.00">depicture_menu::domain</text>
<text xml:space="preserve" text-anchor="start" x="190.12" y="-180.5" font-family="Helvetica,sans-Serif" font-size="10.00">::services::current_config</text>
<text xml:space="preserve" text-anchor="middle" x="260.62" y="-168.5" font-family="Helvetica,sans-Serif" font-size="10.00">_access_service::current_config</text>
</a>
</g>
</g>
<!-- Node1&#45;&gt;Node7 -->
<g id="edge6_Node000001_Node000007" class="edge">
<title>Node1&#45;&gt;Node7</title>
<g id="a_edge6_Node000001_Node000007"><a xlink:title=" ">
<path fill="none" stroke="#63b8ff" d="M143.17,-184C152.05,-184 161.23,-184 170.35,-184"/>
<polygon fill="#63b8ff" stroke="#63b8ff" points="170.33,-187.5 180.33,-184 170.33,-180.5 170.33,-187.5"/>
</a>
</g>
</g>
<!-- Node9 -->
<g id="Node000009" class="node">
<title>Node9</title>
<g id="a_Node000009"><a xlink:href="structdepicture__menu_1_1domain_1_1menu_1_1radialmenu.html#ad9f4f8e242b494a7d885271949e4bca3" target="_top" xlink:title=" ">
<polygon fill="white" stroke="#666666" points="342.5,-144 178.75,-144 178.75,-112 342.5,-112 342.5,-144"/>
<text xml:space="preserve" text-anchor="start" x="186.75" y="-130.5" font-family="Helvetica,sans-Serif" font-size="10.00">depicture_menu::domain</text>
<text xml:space="preserve" text-anchor="middle" x="260.62" y="-118.5" font-family="Helvetica,sans-Serif" font-size="10.00">::menu::radialmenu::default_menu</text>
</a>
</g>
</g>
<!-- Node1&#45;&gt;Node9 -->
<g id="edge8_Node000001_Node000009" class="edge">
<title>Node1&#45;&gt;Node9</title>
<g id="a_edge8_Node000001_Node000009"><a xlink:title=" ">
<path fill="none" stroke="#63b8ff" d="M143.17,-162.83C159.82,-157.85 177.5,-152.56 193.91,-147.65"/>
<polygon fill="#63b8ff" stroke="#63b8ff" points="194.47,-151.14 203.05,-144.92 192.46,-144.43 194.47,-151.14"/>
</a>
</g>
</g>
<!-- Node12 -->
<g id="Node000012" class="node">
<title>Node12</title>
<g id="a_Node000012"><a xlink:href="namespacedepicture__menu_1_1repositories.html#a245ba008949ea92721d80817fea6a2c8" target="_top" xlink:title=" ">
<polygon fill="white" stroke="#666666" points="331.25,-94 190,-94 190,-62 331.25,-62 331.25,-94"/>
<text xml:space="preserve" text-anchor="start" x="198" y="-80.5" font-family="Helvetica,sans-Serif" font-size="10.00">depicture_menu::repositories</text>
<text xml:space="preserve" text-anchor="middle" x="260.62" y="-68.5" font-family="Helvetica,sans-Serif" font-size="10.00">::do_transaction</text>
</a>
</g>
</g>
<!-- Node1&#45;&gt;Node12 -->
<g id="edge11_Node000001_Node000012" class="edge">
<title>Node1&#45;&gt;Node12</title>
<g id="a_edge11_Node000001_Node000012"><a xlink:title=" ">
<path fill="none" stroke="#63b8ff" d="M96.47,-161.67C117.01,-143.67 148,-118.83 178.75,-103 181.63,-101.52 184.61,-100.11 187.66,-98.76"/>
<polygon fill="#63b8ff" stroke="#63b8ff" points="188.87,-102.05 196.81,-95.03 186.22,-95.57 188.87,-102.05"/>
</a>
</g>
</g>
<!-- Node13 -->
<g id="Node000013" class="node">
<title>Node13</title>
<g id="a_Node000013"><a xlink:href="classdepicture__menu_1_1domain_1_1actions_1_1v2_1_1publisher.html#ac87ae212e4c608a41c323e825c5de6e2" target="_top" xlink:title=" ">
<polygon fill="white" stroke="#666666" points="321.88,-44 199.38,-44 199.38,0 321.88,0 321.88,-44"/>
<text xml:space="preserve" text-anchor="start" x="207.38" y="-30.5" font-family="Helvetica,sans-Serif" font-size="10.00">depicture_menu::domain</text>
<text xml:space="preserve" text-anchor="start" x="207.38" y="-18.5" font-family="Helvetica,sans-Serif" font-size="10.00">::actions::v2::publisher</text>
<text xml:space="preserve" text-anchor="middle" x="260.62" y="-6.5" font-family="Helvetica,sans-Serif" font-size="10.00">::set_command_id</text>
</a>
</g>
</g>
<!-- Node1&#45;&gt;Node13 -->
<g id="edge14_Node000001_Node000013" class="edge">
<title>Node1&#45;&gt;Node13</title>
<g id="a_edge14_Node000001_Node000013"><a xlink:title=" ">
<path fill="none" stroke="#63b8ff" d="M85.12,-161.99C102.78,-133.26 137.24,-83.1 178.75,-53 181.95,-50.68 185.35,-48.51 188.87,-46.48"/>
<polygon fill="#63b8ff" stroke="#63b8ff" points="190.48,-49.59 197.7,-41.84 187.22,-43.39 190.48,-49.59"/>
</a>
</g>
</g>
<!-- Node2&#45;&gt;Node3 -->
<g id="edge2_Node000002_Node000003" class="edge">
<title>Node2&#45;&gt;Node3</title>
<g id="a_edge2_Node000002_Node000003"><a xlink:title=" ">
<path fill="none" stroke="#63b8ff" d="M321.76,-319.5C342.17,-327.13 365.14,-335.73 386.28,-343.64"/>
<polygon fill="#63b8ff" stroke="#63b8ff" points="384.8,-346.82 395.39,-347.05 387.26,-340.26 384.8,-346.82"/>
</a>
</g>
</g>
<!-- Node2&#45;&gt;Node4 -->
<g id="edge3_Node000002_Node000004" class="edge">
<title>Node2&#45;&gt;Node4</title>
<g id="a_edge3_Node000002_Node000004"><a xlink:title=" ">
<path fill="none" stroke="#63b8ff" d="M330.97,-276.74C344.11,-272.91 357.99,-268.85 371.55,-264.89"/>
<polygon fill="#63b8ff" stroke="#63b8ff" points="372.27,-268.33 380.89,-262.16 370.3,-261.61 372.27,-268.33"/>
</a>
</g>
</g>
<!-- Node5 -->
<g id="Node000005" class="node">
<title>Node5</title>
<g id="a_Node000005"><a xlink:href="classdepicture__menu_1_1domain_1_1menu_1_1app__command__ids.html#a09b2666c0cddd1ffffd456c26168a470" target="_top" xlink:title=" ">
<polygon fill="white" stroke="#666666" points="537,-330 378.5,-330 378.5,-286 537,-286 537,-330"/>
<text xml:space="preserve" text-anchor="start" x="386.5" y="-316.5" font-family="Helvetica,sans-Serif" font-size="10.00">depicture_menu::domain</text>
<text xml:space="preserve" text-anchor="start" x="386.5" y="-304.5" font-family="Helvetica,sans-Serif" font-size="10.00">::menu::app_command_ids</text>
<text xml:space="preserve" text-anchor="middle" x="457.75" y="-292.5" font-family="Helvetica,sans-Serif" font-size="10.00">::with_close_menu_command_id</text>
</a>
</g>
</g>
<!-- Node2&#45;&gt;Node5 -->
<g id="edge4_Node000002_Node000005" class="edge">
<title>Node2&#45;&gt;Node5</title>
<g id="a_edge4_Node000002_Node000005"><a xlink:title=" ">
<path fill="none" stroke="#63b8ff" d="M330.97,-300.91C342.59,-301.56 354.8,-302.25 366.85,-302.93"/>
<polygon fill="#63b8ff" stroke="#63b8ff" points="366.63,-306.43 376.81,-303.49 367.03,-299.44 366.63,-306.43"/>
</a>
</g>
</g>
<!-- Node6 -->
<g id="Node000006" class="node">
<title>Node6</title>
<g id="a_Node000006"><a xlink:href="classdepicture__menu_1_1domain_1_1menu_1_1app__command__ids.html#a3b5cc3c9687f94730e928c34c7168ace" target="_top" xlink:title=" ">
<polygon fill="white" stroke="#666666" points="706.75,-330 573,-330 573,-286 706.75,-286 706.75,-330"/>
<text xml:space="preserve" text-anchor="start" x="581" y="-316.5" font-family="Helvetica,sans-Serif" font-size="10.00">depicture_menu::domain</text>
<text xml:space="preserve" text-anchor="start" x="581" y="-304.5" font-family="Helvetica,sans-Serif" font-size="10.00">::menu::app_command_ids</text>
<text xml:space="preserve" text-anchor="middle" x="639.88" y="-292.5" font-family="Helvetica,sans-Serif" font-size="10.00">::app_command_ids</text>
</a>
</g>
</g>
<!-- Node5&#45;&gt;Node6 -->
<g id="edge5_Node000005_Node000006" class="edge">
<title>Node5&#45;&gt;Node6</title>
<g id="a_edge5_Node000005_Node000006"><a xlink:title=" ">
<path fill="none" stroke="#63b8ff" d="M537.49,-308C545.38,-308 553.38,-308 561.26,-308"/>
<polygon fill="#63b8ff" stroke="#63b8ff" points="561.16,-311.5 571.16,-308 561.16,-304.5 561.16,-311.5"/>
</a>
</g>
</g>
<!-- Node8 -->
<g id="Node000008" class="node">
<title>Node8</title>
<g id="a_Node000008"><a xlink:href="classdepicture__menu_1_1domain_1_1crud__repository__interface.html#ac170ece1adbf7138a6322bba5beea167" target="_top" xlink:title=" ">
<polygon fill="white" stroke="#666666" points="535.88,-194 379.62,-194 379.62,-162 535.88,-162 535.88,-194"/>
<text xml:space="preserve" text-anchor="start" x="387.62" y="-180.5" font-family="Helvetica,sans-Serif" font-size="10.00">depicture_menu::domain</text>
<text xml:space="preserve" text-anchor="middle" x="457.75" y="-168.5" font-family="Helvetica,sans-Serif" font-size="10.00">::crud_repository_interface::read</text>
</a>
</g>
</g>
<!-- Node7&#45;&gt;Node8 -->
<g id="edge7_Node000007_Node000008" class="edge">
<title>Node7&#45;&gt;Node8</title>
<g id="a_edge7_Node000007_Node000008"><a xlink:title=" ">
<path fill="none" stroke="#63b8ff" d="M339.58,-181.6C348.87,-181.32 358.4,-181.02 367.82,-180.73"/>
<polygon fill="#63b8ff" stroke="#63b8ff" points="367.83,-184.24 377.72,-180.43 367.62,-177.24 367.83,-184.24"/>
</a>
</g>
</g>
<!-- Node10 -->
<g id="Node000010" class="node">
<title>Node10</title>
<g id="a_Node000010"><a xlink:href="structdepicture__menu_1_1domain_1_1menu_1_1radialmenu.html#a5cbc3b4741348fe3d94998897e420766" target="_top" xlink:title=" ">
<polygon fill="white" stroke="#666666" points="530.25,-144 385.25,-144 385.25,-112 530.25,-112 530.25,-144"/>
<text xml:space="preserve" text-anchor="start" x="393.25" y="-130.5" font-family="Helvetica,sans-Serif" font-size="10.00">depicture_menu::domain</text>
<text xml:space="preserve" text-anchor="middle" x="457.75" y="-118.5" font-family="Helvetica,sans-Serif" font-size="10.00">::menu::radialmenu::add_item</text>
</a>
</g>
</g>
<!-- Node9&#45;&gt;Node10 -->
<g id="edge9_Node000009_Node000010" class="edge">
<title>Node9&#45;&gt;Node10</title>
<g id="a_edge9_Node000009_Node000010"><a xlink:title=" ">
<path fill="none" stroke="#63b8ff" d="M342.96,-128C353.07,-128 363.41,-128 373.54,-128"/>
<polygon fill="#63b8ff" stroke="#63b8ff" points="373.36,-131.5 383.36,-128 373.36,-124.5 373.36,-131.5"/>
</a>
</g>
</g>
<!-- Node11 -->
<g id="Node000011" class="node">
<title>Node11</title>
<g id="a_Node000011"><a xlink:href="structdepicture__menu_1_1domain_1_1menu_1_1radialmenu.html#a3d48f5ce5a1562e1714a3e2e83af81d3" target="_top" xlink:title=" ">
<polygon fill="white" stroke="#666666" points="534,-94 381.5,-94 381.5,-62 534,-62 534,-94"/>
<text xml:space="preserve" text-anchor="start" x="389.5" y="-80.5" font-family="Helvetica,sans-Serif" font-size="10.00">depicture_menu::domain</text>
<text xml:space="preserve" text-anchor="middle" x="457.75" y="-68.5" font-family="Helvetica,sans-Serif" font-size="10.00">::menu::radialmenu::radialmenu</text>
</a>
</g>
</g>
<!-- Node9&#45;&gt;Node11 -->
<g id="edge10_Node000009_Node000011" class="edge">
<title>Node9&#45;&gt;Node11</title>
<g id="a_edge10_Node000009_Node000011"><a xlink:title=" ">
<path fill="none" stroke="#63b8ff" d="M325.79,-111.56C343.62,-106.99 363.15,-101.98 381.56,-97.27"/>
<polygon fill="#63b8ff" stroke="#63b8ff" points="382.27,-100.7 391.08,-94.83 380.53,-93.92 382.27,-100.7"/>
</a>
</g>
</g>
<!-- Node14 -->
<g id="Node000014" class="node">
<title>Node14</title>
<g id="a_Node000014"><a xlink:href="classdepicture__menu_1_1domain_1_1actions_1_1v2_1_1publisher.html#a0411a8b1aeaa948c4c08b8f2ffc75f0a" target="_top" xlink:title=" ">
<polygon fill="white" stroke="#666666" points="519,-44 396.5,-44 396.5,0 519,0 519,-44"/>
<text xml:space="preserve" text-anchor="start" x="404.5" y="-30.5" font-family="Helvetica,sans-Serif" font-size="10.00">depicture_menu::domain</text>
<text xml:space="preserve" text-anchor="start" x="404.5" y="-18.5" font-family="Helvetica,sans-Serif" font-size="10.00">::actions::v2::publisher</text>
<text xml:space="preserve" text-anchor="middle" x="457.75" y="-6.5" font-family="Helvetica,sans-Serif" font-size="10.00">::add_command_id</text>
</a>
</g>
</g>
<!-- Node13&#45;&gt;Node14 -->
<g id="edge15_Node000013_Node000014" class="edge">
<title>Node13&#45;&gt;Node14</title>
<g id="a_edge15_Node000013_Node000014"><a xlink:title=" ">
<path fill="none" stroke="#63b8ff" d="M322.29,-22C342.12,-22 364.32,-22 384.89,-22"/>
<polygon fill="#63b8ff" stroke="#63b8ff" points="384.6,-25.5 394.6,-22 384.6,-18.5 384.6,-25.5"/>
</a>
</g>
</g>
</g>
</svg>
