<?xml version="1.0" encoding="UTF-8" standalone="no"?>
<!DOCTYPE svg PUBLIC "-//W3C//DTD SVG 1.1//EN"
 "http://www.w3.org/Graphics/SVG/1.1/DTD/svg11.dtd">
<!-- Generated by graphviz version 14.1.2 (20260124.0452)
 -->
<!-- Title: depicture_menu/src/core/cs_binding/observer/observers_connection.hpp Pages: 1 -->
<svg width="1054pt" height="408pt"
 viewBox="0.00 0.00 1054.00 408.00" xmlns="http://www.w3.org/2000/svg" xmlns:xlink="http://www.w3.org/1999/xlink">
<g id="graph0" class="graph" transform="scale(1 1) rotate(0) translate(4 404)">
<title>depicture_menu/src/core/cs_binding/observer/observers_connection.hpp</title>
<!-- Node1 -->
<g id="Node000001" class="node">
<title>Node1</title>
<g id="a_Node000001"><a xlink:title=" ">
<polygon fill="#999999" stroke="#666666" points="585.75,-400 452.75,-400 452.75,-356 585.75,-356 585.75,-400"/>
<text xml:space="preserve" text-anchor="start" x="460.75" y="-386.5" font-family="Helvetica,sans-Serif" font-size="10.00">depicture_menu/src</text>
<text xml:space="preserve" text-anchor="start" x="460.75" y="-374.5" font-family="Helvetica,sans-Serif" font-size="10.00">/core/cs_binding/observer</text>
<text xml:space="preserve" text-anchor="middle" x="519.25" y="-362.5" font-family="Helvetica,sans-Serif" font-size="10.00">/observers_connection.hpp</text>
</a>
</g>
</g>
<!-- Node2 -->
<g id="Node000002" class="node">
<title>Node2</title>
<g id="a_Node000002"><a xlink:href="config__view__arg__builder_8hpp.html" target="_top" xlink:title=" ">
<polygon fill="white" stroke="#666666" points="116.5,-148 0,-148 0,-92 116.5,-92 116.5,-148"/>
<text xml:space="preserve" text-anchor="start" x="8" y="-134.5" font-family="Helvetica,sans-Serif" font-size="10.00">depicture_menu/src</text>
<text xml:space="preserve" text-anchor="start" x="8" y="-122.5" font-family="Helvetica,sans-Serif" font-size="10.00">/core/application/cs</text>
<text xml:space="preserve" text-anchor="start" x="8" y="-110.5" font-family="Helvetica,sans-Serif" font-size="10.00">_binding_factory/config</text>
<text xml:space="preserve" text-anchor="middle" x="58.25" y="-98.5" font-family="Helvetica,sans-Serif" font-size="10.00">_view_arg_builder.hpp</text>
</a>
</g>
</g>
<!-- Node1&#45;&gt;Node2 -->
<g id="edge1_Node000001_Node000002" class="edge">
<title>Node1&#45;&gt;Node2</title>
<g id="a_edge1_Node000001_Node000002"><a xlink:title=" ">
<path fill="none" stroke="#63b8ff" d="M470.72,-350.05C382.44,-301.03 196.49,-197.76 107.6,-148.4"/>
<polygon fill="#63b8ff" stroke="#63b8ff" points="468.97,-353.08 479.42,-354.88 472.37,-346.96 468.97,-353.08"/>
</a>
</g>
</g>
<!-- Node5 -->
<g id="Node000005" class="node">
<title>Node5</title>
<g id="a_Node000005"><a xlink:href="bindable__lock_8hpp.html" target="_top" xlink:title="バインドオブジェクトに纏わるNotify Lock管理">
<polygon fill="white" stroke="#666666" points="583.12,-320 455.38,-320 455.38,-276 583.12,-276 583.12,-320"/>
<text xml:space="preserve" text-anchor="start" x="463.38" y="-306.5" font-family="Helvetica,sans-Serif" font-size="10.00">depicture_menu/src</text>
<text xml:space="preserve" text-anchor="start" x="463.38" y="-294.5" font-family="Helvetica,sans-Serif" font-size="10.00">/core/cs_binding/observer</text>
<text xml:space="preserve" text-anchor="middle" x="519.25" y="-282.5" font-family="Helvetica,sans-Serif" font-size="10.00">/bindable_lock.hpp</text>
</a>
</g>
</g>
<!-- Node1&#45;&gt;Node5 -->
<g id="edge4_Node000001_Node000005" class="edge">
<title>Node1&#45;&gt;Node5</title>
<g id="a_edge4_Node000001_Node000005"><a xlink:title=" ">
<path fill="none" stroke="#63b8ff" d="M519.25,-344.25C519.25,-336.15 519.25,-327.68 519.25,-320.29"/>
<polygon fill="#63b8ff" stroke="#63b8ff" points="515.75,-344.17 519.25,-354.17 522.75,-344.17 515.75,-344.17"/>
</a>
</g>
</g>
<!-- Node6 -->
<g id="Node000006" class="node">
<title>Node6</title>
<g id="a_Node000006"><a xlink:href="config__view__presenter_8hpp.html" target="_top" xlink:title="コンフィグビュープレゼンター">
<polygon fill="white" stroke="#666666" points="503.5,-240 375,-240 375,-184 503.5,-184 503.5,-240"/>
<text xml:space="preserve" text-anchor="start" x="383" y="-226.5" font-family="Helvetica,sans-Serif" font-size="10.00">depicture_menu/src</text>
<text xml:space="preserve" text-anchor="start" x="383" y="-214.5" font-family="Helvetica,sans-Serif" font-size="10.00">/core/presentation/change</text>
<text xml:space="preserve" text-anchor="start" x="383" y="-202.5" font-family="Helvetica,sans-Serif" font-size="10.00">_view_model/config_view</text>
<text xml:space="preserve" text-anchor="middle" x="439.25" y="-190.5" font-family="Helvetica,sans-Serif" font-size="10.00">_presenter.hpp</text>
</a>
</g>
</g>
<!-- Node1&#45;&gt;Node6 -->
<g id="edge18_Node000001_Node000006" class="edge">
<title>Node1&#45;&gt;Node6</title>
<g id="a_edge18_Node000001_Node000006"><a xlink:title=" ">
<path fill="none" stroke="#63b8ff" d="M470.99,-348.76C461.2,-340.73 452.12,-331.1 446.25,-320 433.19,-295.32 433.03,-262.82 435.14,-240.15"/>
<polygon fill="#63b8ff" stroke="#63b8ff" points="468.82,-351.5 478.9,-354.76 473.05,-345.93 468.82,-351.5"/>
</a>
</g>
</g>
<!-- Node10 -->
<g id="Node000010" class="node">
<title>Node10</title>
<g id="a_Node000010"><a xlink:href="test-observers__connection_8cpp.html" target="_top" xlink:title=" ">
<polygon fill="white" stroke="#666666" points="681.5,-234 529,-234 529,-190 681.5,-190 681.5,-234"/>
<text xml:space="preserve" text-anchor="start" x="537" y="-220.5" font-family="Helvetica,sans-Serif" font-size="10.00">depicture_menu/test</text>
<text xml:space="preserve" text-anchor="start" x="537" y="-208.5" font-family="Helvetica,sans-Serif" font-size="10.00">/core/cs_binding/observer</text>
<text xml:space="preserve" text-anchor="middle" x="605.25" y="-196.5" font-family="Helvetica,sans-Serif" font-size="10.00">/test&#45;observers_connection.cpp</text>
</a>
</g>
</g>
<!-- Node1&#45;&gt;Node10 -->
<g id="edge19_Node000001_Node000010" class="edge">
<title>Node1&#45;&gt;Node10</title>
<g id="a_edge19_Node000001_Node000010"><a xlink:title=" ">
<path fill="none" stroke="#63b8ff" d="M566.47,-349C576.5,-340.88 585.95,-331.15 592.25,-320 607.35,-293.28 608.44,-256.88 607.27,-234.17"/>
<polygon fill="#63b8ff" stroke="#63b8ff" points="564.66,-345.98 558.78,-354.8 568.88,-351.57 564.66,-345.98"/>
</a>
</g>
</g>
<!-- Node11 -->
<g id="Node000011" class="node">
<title>Node11</title>
<g id="a_Node000011"><a xlink:href="prop__map_8hpp.html" target="_top" xlink:title=" ">
<polygon fill="white" stroke="#666666" points="773.12,-320 645.38,-320 645.38,-276 773.12,-276 773.12,-320"/>
<text xml:space="preserve" text-anchor="start" x="653.38" y="-306.5" font-family="Helvetica,sans-Serif" font-size="10.00">depicture_menu/src</text>
<text xml:space="preserve" text-anchor="start" x="653.38" y="-294.5" font-family="Helvetica,sans-Serif" font-size="10.00">/core/cs_binding/observer</text>
<text xml:space="preserve" text-anchor="middle" x="709.25" y="-282.5" font-family="Helvetica,sans-Serif" font-size="10.00">/prop_map.hpp</text>
</a>
</g>
</g>
<!-- Node1&#45;&gt;Node11 -->
<g id="edge13_Node000001_Node000011" class="edge">
<title>Node1&#45;&gt;Node11</title>
<g id="a_edge13_Node000001_Node000011"><a xlink:title=" ">
<path fill="none" stroke="#63b8ff" d="M582,-351.24C606.37,-341.23 633.96,-329.91 657.2,-320.37"/>
<polygon fill="#63b8ff" stroke="#63b8ff" points="580.74,-347.97 572.82,-355.01 583.4,-354.45 580.74,-347.97"/>
</a>
</g>
</g>
<!-- Node3 -->
<g id="Node000003" class="node">
<title>Node3</title>
<g id="a_Node000003"><a xlink:href="config__view__arg__builder_8cpp.html" target="_top" xlink:title="ConfigArg ファクトリー">
<polygon fill="white" stroke="#666666" points="680.5,-56 564,-56 564,0 680.5,0 680.5,-56"/>
<text xml:space="preserve" text-anchor="start" x="572" y="-42.5" font-family="Helvetica,sans-Serif" font-size="10.00">depicture_menu/src</text>
<text xml:space="preserve" text-anchor="start" x="572" y="-30.5" font-family="Helvetica,sans-Serif" font-size="10.00">/core/application/cs</text>
<text xml:space="preserve" text-anchor="start" x="572" y="-18.5" font-family="Helvetica,sans-Serif" font-size="10.00">_binding_factory/config</text>
<text xml:space="preserve" text-anchor="middle" x="622.25" y="-6.5" font-family="Helvetica,sans-Serif" font-size="10.00">_view_arg_builder.cpp</text>
</a>
</g>
</g>
<!-- Node2&#45;&gt;Node3 -->
<g id="edge2_Node000002_Node000003" class="edge">
<title>Node2&#45;&gt;Node3</title>
<g id="a_edge2_Node000002_Node000003"><a xlink:title=" ">
<path fill="none" stroke="#63b8ff" d="M128.1,-92.12C199.44,-77.61 448.96,-48.64 563.81,-35.59"/>
<polygon fill="#63b8ff" stroke="#63b8ff" points="127.37,-88.7 118.4,-94.32 128.92,-95.52 127.37,-88.7"/>
</a>
</g>
</g>
<!-- Node4 -->
<g id="Node000004" class="node">
<title>Node4</title>
<g id="a_Node000004"><a xlink:href="setup__core_8cpp.html" target="_top" xlink:title=" ">
<polygon fill="white" stroke="#666666" points="354.25,-56 242.25,-56 242.25,0 354.25,0 354.25,-56"/>
<text xml:space="preserve" text-anchor="start" x="250.25" y="-42.5" font-family="Helvetica,sans-Serif" font-size="10.00">depicture_menu/src</text>
<text xml:space="preserve" text-anchor="start" x="250.25" y="-30.5" font-family="Helvetica,sans-Serif" font-size="10.00">/core/dll_entry_point</text>
<text xml:space="preserve" text-anchor="start" x="250.25" y="-18.5" font-family="Helvetica,sans-Serif" font-size="10.00">/domain_control/setup</text>
<text xml:space="preserve" text-anchor="middle" x="298.25" y="-6.5" font-family="Helvetica,sans-Serif" font-size="10.00">_core.cpp</text>
</a>
</g>
</g>
<!-- Node2&#45;&gt;Node4 -->
<g id="edge3_Node000002_Node000004" class="edge">
<title>Node2&#45;&gt;Node4</title>
<g id="a_edge3_Node000002_Node000004"><a xlink:title=" ">
<path fill="none" stroke="#63b8ff" d="M127.41,-91.59C171.14,-74.97 210.79,-60.46 241.95,-49.19"/>
<polygon fill="#63b8ff" stroke="#63b8ff" points="126.33,-88.26 118.23,-95.09 128.82,-94.8 126.33,-88.26"/>
</a>
</g>
</g>
<!-- Node5&#45;&gt;Node6 -->
<g id="edge5_Node000005_Node000006" class="edge">
<title>Node5&#45;&gt;Node6</title>
<g id="a_edge5_Node000005_Node000006"><a xlink:title=" ">
<path fill="none" stroke="#63b8ff" d="M491.24,-267.59C482.77,-258.7 473.52,-248.98 465.19,-240.24"/>
<polygon fill="#63b8ff" stroke="#63b8ff" points="488.59,-269.88 498.02,-274.71 493.66,-265.05 488.59,-269.88"/>
</a>
</g>
</g>
<!-- Node5&#45;&gt;Node10 -->
<g id="edge12_Node000005_Node000010" class="edge">
<title>Node5&#45;&gt;Node10</title>
<g id="a_edge12_Node000005_Node000010"><a xlink:title=" ">
<path fill="none" stroke="#63b8ff" d="M548.87,-268.06C560.16,-257.04 572.8,-244.69 583.26,-234.48"/>
<polygon fill="#63b8ff" stroke="#63b8ff" points="546.74,-265.25 542.03,-274.75 551.63,-270.26 546.74,-265.25"/>
</a>
</g>
</g>
<!-- Node6&#45;&gt;Node3 -->
<g id="edge6_Node000006_Node000003" class="edge">
<title>Node6&#45;&gt;Node3</title>
<g id="a_edge6_Node000006_Node000003"><a xlink:title=" ">
<path fill="none" stroke="#63b8ff" d="M514.63,-185.72C516.52,-185.14 518.4,-184.56 520.25,-184 578.45,-166.38 615.34,-196.33 652.25,-148 672.68,-121.25 656.47,-82.19 641.06,-56.2"/>
<polygon fill="#63b8ff" stroke="#63b8ff" points="513.63,-182.37 505.14,-188.7 515.73,-189.04 513.63,-182.37"/>
</a>
</g>
</g>
<!-- Node7 -->
<g id="Node000007" class="node">
<title>Node7</title>
<g id="a_Node000007"><a xlink:href="config__view__presenter_8cpp.html" target="_top" xlink:title=" ">
<polygon fill="white" stroke="#666666" points="263.5,-148 135,-148 135,-92 263.5,-92 263.5,-148"/>
<text xml:space="preserve" text-anchor="start" x="143" y="-134.5" font-family="Helvetica,sans-Serif" font-size="10.00">depicture_menu/src</text>
<text xml:space="preserve" text-anchor="start" x="143" y="-122.5" font-family="Helvetica,sans-Serif" font-size="10.00">/core/presentation/change</text>
<text xml:space="preserve" text-anchor="start" x="143" y="-110.5" font-family="Helvetica,sans-Serif" font-size="10.00">_view_model/config_view</text>
<text xml:space="preserve" text-anchor="middle" x="199.25" y="-98.5" font-family="Helvetica,sans-Serif" font-size="10.00">_presenter.cpp</text>
</a>
</g>
</g>
<!-- Node6&#45;&gt;Node7 -->
<g id="edge7_Node000006_Node000007" class="edge">
<title>Node6&#45;&gt;Node7</title>
<g id="a_edge7_Node000006_Node000007"><a xlink:title=" ">
<path fill="none" stroke="#63b8ff" d="M363.95,-182.76C331.87,-170.73 294.82,-156.84 264,-145.28"/>
<polygon fill="#63b8ff" stroke="#63b8ff" points="362.61,-186 373.2,-186.23 365.07,-179.44 362.61,-186"/>
</a>
</g>
</g>
<!-- Node8 -->
<g id="Node000008" class="node">
<title>Node8</title>
<g id="a_Node000008"><a xlink:href="combine__view__model__presenter_8hpp.html" target="_top" xlink:title=" ">
<polygon fill="white" stroke="#666666" points="643,-142 505.5,-142 505.5,-98 643,-98 643,-142"/>
<text xml:space="preserve" text-anchor="start" x="513.5" y="-128.5" font-family="Helvetica,sans-Serif" font-size="10.00">depicture_menu/src</text>
<text xml:space="preserve" text-anchor="start" x="513.5" y="-116.5" font-family="Helvetica,sans-Serif" font-size="10.00">/core/presentation/combine</text>
<text xml:space="preserve" text-anchor="middle" x="574.25" y="-104.5" font-family="Helvetica,sans-Serif" font-size="10.00">_view_model_presenter.hpp</text>
</a>
</g>
</g>
<!-- Node6&#45;&gt;Node8 -->
<g id="edge8_Node000006_Node000008" class="edge">
<title>Node6&#45;&gt;Node8</title>
<g id="a_edge8_Node000006_Node000008"><a xlink:title=" ">
<path fill="none" stroke="#63b8ff" d="M490.02,-177.15C507.54,-165.47 526.67,-152.72 542.26,-142.33"/>
<polygon fill="#63b8ff" stroke="#63b8ff" points="488.13,-174.21 481.75,-182.67 492.01,-180.03 488.13,-174.21"/>
</a>
</g>
</g>
<!-- Node9 -->
<g id="Node000009" class="node">
<title>Node9</title>
<g id="a_Node000009"><a xlink:href="_test_config_view_presenter_8cpp.html" target="_top" xlink:title=" ">
<polygon fill="white" stroke="#666666" points="487.12,-142 281.38,-142 281.38,-98 487.12,-98 487.12,-142"/>
<text xml:space="preserve" text-anchor="start" x="289.38" y="-128.5" font-family="Helvetica,sans-Serif" font-size="10.00">depicture_menu/test</text>
<text xml:space="preserve" text-anchor="start" x="289.38" y="-116.5" font-family="Helvetica,sans-Serif" font-size="10.00">/core/presentation/change</text>
<text xml:space="preserve" text-anchor="middle" x="384.25" y="-104.5" font-family="Helvetica,sans-Serif" font-size="10.00">_view_model/TestConfigViewPresenter.cpp</text>
</a>
</g>
</g>
<!-- Node6&#45;&gt;Node9 -->
<g id="edge11_Node000006_Node000009" class="edge">
<title>Node6&#45;&gt;Node9</title>
<g id="a_edge11_Node000006_Node000009"><a xlink:title=" ">
<path fill="none" stroke="#63b8ff" d="M416.57,-173.88C410,-163.13 403.05,-151.76 397.28,-142.33"/>
<polygon fill="#63b8ff" stroke="#63b8ff" points="413.46,-175.51 421.66,-182.22 419.43,-171.86 413.46,-175.51"/>
</a>
</g>
</g>
<!-- Node8&#45;&gt;Node3 -->
<g id="edge9_Node000008_Node000003" class="edge">
<title>Node8&#45;&gt;Node3</title>
<g id="a_edge9_Node000008_Node000003"><a xlink:title=" ">
<path fill="none" stroke="#63b8ff" d="M591.03,-87.54C596.46,-77.36 602.43,-66.17 607.68,-56.32"/>
<polygon fill="#63b8ff" stroke="#63b8ff" points="587.96,-85.87 586.34,-96.34 594.13,-89.16 587.96,-85.87"/>
</a>
</g>
</g>
<!-- Node8&#45;&gt;Node4 -->
<g id="edge10_Node000008_Node000004" class="edge">
<title>Node8&#45;&gt;Node4</title>
<g id="a_edge10_Node000008_Node000004"><a xlink:title=" ">
<path fill="none" stroke="#63b8ff" d="M502.18,-93.98C500.19,-93.31 498.2,-92.65 496.25,-92 448.66,-76.2 394.38,-58.98 354.7,-46.55"/>
<polygon fill="#63b8ff" stroke="#63b8ff" points="500.96,-97.26 511.55,-97.15 503.2,-90.63 500.96,-97.26"/>
</a>
</g>
</g>
<!-- Node11&#45;&gt;Node3 -->
<g id="edge14_Node000011_Node000003" class="edge">
<title>Node11&#45;&gt;Node3</title>
<g id="a_edge14_Node000011_Node000003"><a xlink:title=" ">
<path fill="none" stroke="#63b8ff" d="M708.13,-264.21C705.61,-222.43 697.48,-148.83 671.25,-92 665.39,-79.29 656.52,-66.81 647.94,-56.34"/>
<polygon fill="#63b8ff" stroke="#63b8ff" points="704.63,-264.28 708.64,-274.09 711.62,-263.92 704.63,-264.28"/>
</a>
</g>
</g>
<!-- Node11&#45;&gt;Node10 -->
<g id="edge16_Node000011_Node000010" class="edge">
<title>Node11&#45;&gt;Node10</title>
<g id="a_edge16_Node000011_Node000010"><a xlink:title=" ">
<path fill="none" stroke="#63b8ff" d="M673.95,-268.49C660.13,-257.33 644.54,-244.74 631.71,-234.37"/>
<polygon fill="#63b8ff" stroke="#63b8ff" points="671.58,-271.07 681.56,-274.63 675.98,-265.63 671.58,-271.07"/>
</a>
</g>
</g>
<!-- Node12 -->
<g id="Node000012" class="node">
<title>Node12</title>
<g id="a_Node000012"><a xlink:href="_test_config_arg_8cpp.html" target="_top" xlink:title=" ">
<polygon fill="white" stroke="#666666" points="875,-234 737.5,-234 737.5,-190 875,-190 875,-234"/>
<text xml:space="preserve" text-anchor="start" x="745.5" y="-220.5" font-family="Helvetica,sans-Serif" font-size="10.00">depicture_menu/test</text>
<text xml:space="preserve" text-anchor="start" x="745.5" y="-208.5" font-family="Helvetica,sans-Serif" font-size="10.00">/core/cs_binding/TestConfig</text>
<text xml:space="preserve" text-anchor="middle" x="806.25" y="-196.5" font-family="Helvetica,sans-Serif" font-size="10.00">Arg.cpp</text>
</a>
</g>
</g>
<!-- Node11&#45;&gt;Node12 -->
<g id="edge15_Node000011_Node000012" class="edge">
<title>Node11&#45;&gt;Node12</title>
<g id="a_edge15_Node000011_Node000012"><a xlink:title=" ">
<path fill="none" stroke="#63b8ff" d="M742.54,-268.17C755.34,-257.09 769.72,-244.64 781.57,-234.37"/>
<polygon fill="#63b8ff" stroke="#63b8ff" points="740.39,-265.4 735.12,-274.6 744.97,-270.69 740.39,-265.4"/>
</a>
</g>
</g>
<!-- Node13 -->
<g id="Node000013" class="node">
<title>Node13</title>
<g id="a_Node000013"><a xlink:href="test__c__u__notify__traits_8cpp.html" target="_top" xlink:title=" ">
<polygon fill="white" stroke="#666666" points="1045.88,-234 892.62,-234 892.62,-190 1045.88,-190 1045.88,-234"/>
<text xml:space="preserve" text-anchor="start" x="900.62" y="-220.5" font-family="Helvetica,sans-Serif" font-size="10.00">depicture_menu/test</text>
<text xml:space="preserve" text-anchor="start" x="900.62" y="-208.5" font-family="Helvetica,sans-Serif" font-size="10.00">/cs_binding_test/unmanaged</text>
<text xml:space="preserve" text-anchor="middle" x="969.25" y="-196.5" font-family="Helvetica,sans-Serif" font-size="10.00">_test/test_c_u_notify_traits.cpp</text>
</a>
</g>
</g>
<!-- Node11&#45;&gt;Node13 -->
<g id="edge17_Node000011_Node000013" class="edge">
<title>Node11&#45;&gt;Node13</title>
<g id="a_edge17_Node000011_Node000013"><a xlink:title=" ">
<path fill="none" stroke="#63b8ff" d="M784.39,-272.72C821.88,-260.61 866.82,-246.09 903.01,-234.4"/>
<polygon fill="#63b8ff" stroke="#63b8ff" points="783.4,-269.37 774.96,-275.77 785.55,-276.03 783.4,-269.37"/>
</a>
</g>
</g>
</g>
</svg>
