<?xml version="1.0" encoding="UTF-8" standalone="no"?>
<!DOCTYPE svg PUBLIC "-//W3C//DTD SVG 1.1//EN"
 "http://www.w3.org/Graphics/SVG/1.1/DTD/svg11.dtd">
<!-- Generated by graphviz version 14.1.2 (20260124.0452)
 -->
<!-- Title: depicture_menu/src/core/domain/model/command/buildin/open_menu_command_parameter.hpp Pages: 1 -->
<!--zoomable 504 -->

<svg id="main" version="1.1" xmlns="http://www.w3.org/2000/svg" xmlns:xlink="http://www.w3.org/1999/xlink" xml:space="preserve" onload="init(evt)">

<style type="text/css"><![CDATA[
.node, .edge {opacity: 0.7;}
.node.selected, .edge.selected {opacity: 1;}
.edge:hover path { stroke: red; }
.edge:hover polygon { stroke: red; fill: red; }
]]></style>

<defs>
  <circle id="rim" cx="0" cy="0" r="7"/>
  <circle id="rim2" cx="0" cy="0" r="3.5"/>
  <g id="zoomPlus">
    <use xlink:href="#rim" fill="#404040"><set attributeName="fill" to="#808080" begin="zoomplus.mouseover" end="zoomplus.mouseout"/></use>
    <path d="M-4,0h8M0,-4v8" fill="none" stroke="white" stroke-width="1.5" pointer-events="none"/>
  </g>
  <g id="zoomMin">
    <use xlink:href="#rim" fill="#404040"><set attributeName="fill" to="#808080" begin="zoomminus.mouseover" end="zoomminus.mouseout"/></use>
    <path d="M-4,0h8" fill="none" stroke="white" stroke-width="1.5" pointer-events="none"/>
  </g>
  <g id="arrowUp" transform="translate(30 24)">
    <use xlink:href="#rim"/>
    <path pointer-events="none" fill="none" stroke="white" stroke-width="1.5" d="M0,-3.0v7 M-2.5,-0.5L0,-3.0L2.5,-0.5"/>
  </g>
  <g id="arrowRight" transform="rotate(90) translate(36 -43)">
    <use xlink:href="#rim"/>
    <path pointer-events="none" fill="none" stroke="white" stroke-width="1.5" d="M0,-3.0v7 M-2.5,-0.5L0,-3.0L2.5,-0.5"/>
  </g>
  <g id="arrowDown" transform="rotate(180) translate(-30 -48)">
    <use xlink:href="#rim"/>
    <path pointer-events="none" fill="none" stroke="white" stroke-width="1.5" d="M0,-3.0v7 M-2.5,-0.5L0,-3.0L2.5,-0.5"/>
  </g>
  <g id="arrowLeft" transform="rotate(270) translate(-36 17)">
    <use xlink:href="#rim"/>
    <path pointer-events="none" fill="none" stroke="white" stroke-width="1.5" d="M0,-3.0v7 M-2.5,-0.5L0,-3.0L2.5,-0.5"/>
  </g>
  <g id="resetDef">
    <use xlink:href="#rim2" fill="#404040"><set attributeName="fill" to="#808080" begin="reset.mouseover" end="reset.mouseout"/></use>
  </g>
</defs>
<script type="application/ecmascript">
var viewWidth = 1856;
var viewHeight = 504;
var sectionId = 'dynsection-0';
</script>
<script type="application/ecmascript" xlink:href="svg.min.js"/>
<svg id="graph" class="graph">
<g id="viewport">
<title>depicture_menu/src/core/domain/model/command/buildin/open_menu_command_parameter.hpp</title>
<!-- Node1 -->
<g id="Node000001" class="node">
<title>Node1</title>
<g id="a_Node000001"><a xlink:title=" ">
<polygon fill="#999999" stroke="#666666" points="410.12,-496 262.12,-496 262.12,-440 410.12,-440 410.12,-496"/>
<text xml:space="preserve" text-anchor="start" x="270.12" y="-482.5" font-family="Helvetica,sans-Serif" font-size="10.00">depicture_menu/src</text>
<text xml:space="preserve" text-anchor="start" x="270.12" y="-470.5" font-family="Helvetica,sans-Serif" font-size="10.00">/core/domain/model/command</text>
<text xml:space="preserve" text-anchor="start" x="270.12" y="-458.5" font-family="Helvetica,sans-Serif" font-size="10.00">/buildin/open_menu_command</text>
<text xml:space="preserve" text-anchor="middle" x="336.12" y="-446.5" font-family="Helvetica,sans-Serif" font-size="10.00">_parameter.hpp</text>
</a>
</g>
</g>
<!-- Node2 -->
<g id="Node000002" class="node">
<title>Node2</title>
<g id="a_Node000002"><a xlink:href="command__kind_8hpp.html" target="_top" xlink:title=" ">
<polygon fill="white" stroke="#666666" points="144.25,-280 0,-280 0,-248 144.25,-248 144.25,-280"/>
<text xml:space="preserve" text-anchor="start" x="8" y="-266.5" font-family="Helvetica,sans-Serif" font-size="10.00">core/domain/model/command</text>
<text xml:space="preserve" text-anchor="middle" x="72.12" y="-254.5" font-family="Helvetica,sans-Serif" font-size="10.00">/command_kind.hpp</text>
</a>
</g>
</g>
<!-- Node1&#45;&gt;Node2 -->
<g id="edge1_Node000001_Node000002" class="edge">
<title>Node1&#45;&gt;Node2</title>
<g id="a_edge1_Node000001_Node000002"><a xlink:title=" ">
<path fill="none" stroke="#63b8ff" d="M290.43,-439.7C273.37,-429.04 254.04,-416.42 237.12,-404 185.25,-365.9 128.67,-316.32 97.08,-287.84"/>
<polygon fill="#63b8ff" stroke="#63b8ff" points="99.74,-285.52 89.97,-281.41 95.04,-290.71 99.74,-285.52"/>
</a>
</g>
</g>
<!-- Node4 -->
<g id="Node000004" class="node">
<title>Node4</title>
<g id="a_Node000004"><a xlink:href="common__command__kind_8hpp.html" target="_top" xlink:title=" ">
<polygon fill="white" stroke="#666666" points="308.38,-280 161.88,-280 161.88,-248 308.38,-248 308.38,-280"/>
<text xml:space="preserve" text-anchor="start" x="169.88" y="-266.5" font-family="Helvetica,sans-Serif" font-size="10.00">core/domain/model/command</text>
<text xml:space="preserve" text-anchor="middle" x="235.12" y="-254.5" font-family="Helvetica,sans-Serif" font-size="10.00">/common_command_kind.hpp</text>
</a>
</g>
</g>
<!-- Node1&#45;&gt;Node4 -->
<g id="edge3_Node000001_Node000004" class="edge">
<title>Node1&#45;&gt;Node4</title>
<g id="a_edge3_Node000001_Node000004"><a xlink:title=" ">
<path fill="none" stroke="#63b8ff" d="M287.63,-439.51C274.78,-429.91 262.23,-417.98 254.12,-404 233.91,-369.16 231.88,-321.33 232.98,-291.83"/>
<polygon fill="#63b8ff" stroke="#63b8ff" points="236.47,-292.08 233.52,-281.91 229.48,-291.71 236.47,-292.08"/>
</a>
</g>
</g>
<!-- Node5 -->
<g id="Node000005" class="node">
<title>Node5</title>
<g id="a_Node000005"><a xlink:href="parameter_8hpp.html" target="_top" xlink:title=" ">
<polygon fill="white" stroke="#666666" points="1034.25,-404 890,-404 890,-372 1034.25,-372 1034.25,-404"/>
<text xml:space="preserve" text-anchor="start" x="898" y="-390.5" font-family="Helvetica,sans-Serif" font-size="10.00">core/domain/model/command</text>
<text xml:space="preserve" text-anchor="middle" x="962.12" y="-378.5" font-family="Helvetica,sans-Serif" font-size="10.00">/parameter.hpp</text>
</a>
</g>
</g>
<!-- Node1&#45;&gt;Node5 -->
<g id="edge5_Node000001_Node000005" class="edge">
<title>Node1&#45;&gt;Node5</title>
<g id="a_edge5_Node000001_Node000005"><a xlink:title=" ">
<path fill="none" stroke="#63b8ff" d="M410.39,-457.75C527.85,-443.11 755.75,-414.71 878.68,-399.4"/>
<polygon fill="#63b8ff" stroke="#63b8ff" points="878.89,-402.9 888.38,-398.19 878.03,-395.95 878.89,-402.9"/>
</a>
</g>
</g>
<!-- Node40 -->
<g id="Node000040" class="node">
<title>Node40</title>
<g id="a_Node000040"><a xlink:href="menu__ids_8hpp.html" target="_top" xlink:title=" ">
<polygon fill="white" stroke="#666666" points="1336.88,-404 1211.38,-404 1211.38,-372 1336.88,-372 1336.88,-404"/>
<text xml:space="preserve" text-anchor="start" x="1219.38" y="-390.5" font-family="Helvetica,sans-Serif" font-size="10.00">core/domain/model/menu</text>
<text xml:space="preserve" text-anchor="middle" x="1274.12" y="-378.5" font-family="Helvetica,sans-Serif" font-size="10.00">/menu_ids.hpp</text>
</a>
</g>
</g>
<!-- Node1&#45;&gt;Node40 -->
<g id="edge51_Node000001_Node000040" class="edge">
<title>Node1&#45;&gt;Node40</title>
<g id="a_edge51_Node000001_Node000040"><a xlink:title=" ">
<path fill="none" stroke="#63b8ff" d="M410.51,-460.81C585.96,-446.22 1024.02,-409.8 1199.6,-395.2"/>
<polygon fill="#63b8ff" stroke="#63b8ff" points="1199.85,-398.69 1209.53,-394.37 1199.27,-391.71 1199.85,-398.69"/>
</a>
</g>
</g>
<!-- Node41 -->
<g id="Node000041" class="node">
<title>Node41</title>
<g id="a_Node000041"><a xlink:href="value__object_8hpp.html" target="_top" xlink:title=" ">
<polygon fill="white" stroke="#666666" points="409,-398 263.25,-398 263.25,-378 409,-378 409,-398"/>
<text xml:space="preserve" text-anchor="middle" x="336.12" y="-384.5" font-family="Helvetica,sans-Serif" font-size="10.00">core/domain/value_object.hpp</text>
</a>
</g>
</g>
<!-- Node1&#45;&gt;Node41 -->
<g id="edge53_Node000001_Node000041" class="edge">
<title>Node1&#45;&gt;Node41</title>
<g id="a_edge53_Node000001_Node000041"><a xlink:title=" ">
<path fill="none" stroke="#63b8ff" d="M336.12,-439.72C336.12,-429.81 336.12,-418.79 336.12,-409.56"/>
<polygon fill="#63b8ff" stroke="#63b8ff" points="339.63,-409.87 336.13,-399.87 332.63,-409.87 339.63,-409.87"/>
</a>
</g>
</g>
<!-- Node3 -->
<g id="Node000003" class="node">
<title>Node3</title>
<g id="a_Node000003"><a xlink:title=" ">
<polygon fill="#e0e0e0" stroke="#999999" points="297.88,-206 172.38,-206 172.38,-186 297.88,-186 297.88,-206"/>
<text xml:space="preserve" text-anchor="middle" x="235.12" y="-192.5" font-family="Helvetica,sans-Serif" font-size="10.00">boost/describe/enum.hpp</text>
</a>
</g>
</g>
<!-- Node2&#45;&gt;Node3 -->
<g id="edge2_Node000002_Node000003" class="edge">
<title>Node2&#45;&gt;Node3</title>
<g id="a_edge2_Node000002_Node000003"><a xlink:title=" ">
<path fill="none" stroke="#63b8ff" d="M110.34,-247.53C137.84,-236.39 174.6,-221.51 201.09,-210.78"/>
<polygon fill="#63b8ff" stroke="#63b8ff" points="202.4,-214.03 210.36,-207.03 199.78,-207.54 202.4,-214.03"/>
</a>
</g>
</g>
<!-- Node4&#45;&gt;Node3 -->
<g id="edge4_Node000004_Node000003" class="edge">
<title>Node4&#45;&gt;Node3</title>
<g id="a_edge4_Node000004_Node000003"><a xlink:title=" ">
<path fill="none" stroke="#63b8ff" d="M235.12,-247.69C235.12,-238.8 235.12,-227.46 235.12,-217.77"/>
<polygon fill="#63b8ff" stroke="#63b8ff" points="238.63,-217.83 235.13,-207.83 231.63,-217.83 238.63,-217.83"/>
</a>
</g>
</g>
<!-- Node6 -->
<g id="Node000006" class="node">
<title>Node6</title>
<g id="a_Node000006"><a xlink:href="command__ids_8hpp.html" target="_top" xlink:title=" ">
<polygon fill="white" stroke="#666666" points="1347.88,-336 1252.38,-336 1252.38,-316 1347.88,-316 1347.88,-336"/>
<text xml:space="preserve" text-anchor="middle" x="1300.12" y="-322.5" font-family="Helvetica,sans-Serif" font-size="10.00">command_ids.hpp</text>
</a>
</g>
</g>
<!-- Node5&#45;&gt;Node6 -->
<g id="edge6_Node000005_Node000006" class="edge">
<title>Node5&#45;&gt;Node6</title>
<g id="a_edge6_Node000005_Node000006"><a xlink:title=" ">
<path fill="none" stroke="#63b8ff" d="M1034.63,-374.13C1096.19,-363.2 1183.43,-347.71 1240.87,-337.52"/>
<polygon fill="#63b8ff" stroke="#63b8ff" points="1241.22,-341.01 1250.46,-335.82 1240,-334.12 1241.22,-341.01"/>
</a>
</g>
</g>
<!-- Node14 -->
<g id="Node000014" class="node">
<title>Node14</title>
<g id="a_Node000014"><a xlink:title=" ">
<polygon fill="#e0e0e0" stroke="#999999" points="1757.12,-20 1717.12,-20 1717.12,0 1757.12,0 1757.12,-20"/>
<text xml:space="preserve" text-anchor="middle" x="1737.12" y="-6.5" font-family="Helvetica,sans-Serif" font-size="10.00">string</text>
</a>
</g>
</g>
<!-- Node5&#45;&gt;Node14 -->
<g id="edge49_Node000005_Node000014" class="edge">
<title>Node5&#45;&gt;Node14</title>
<g id="a_edge49_Node000005_Node000014"><a xlink:title=" ">
<path fill="none" stroke="#63b8ff" d="M1034.63,-380.81C1246.23,-362.28 1848.12,-305.95 1848.12,-265 1848.12,-265 1848.12,-265 1848.12,-133 1848.12,-83.82 1798.17,-45.72 1765.29,-25.97"/>
<polygon fill="#63b8ff" stroke="#63b8ff" points="1767.42,-23.16 1757.01,-21.19 1763.92,-29.22 1767.42,-23.16"/>
</a>
</g>
</g>
<!-- Node26 -->
<g id="Node000026" class="node">
<title>Node26</title>
<g id="a_Node000026"><a xlink:title=" ">
<polygon fill="#e0e0e0" stroke="#999999" points="1356.5,-144 1255.75,-144 1255.75,-124 1356.5,-124 1356.5,-144"/>
<text xml:space="preserve" text-anchor="middle" x="1306.12" y="-130.5" font-family="Helvetica,sans-Serif" font-size="10.00">boost/uuid/uuid.hpp</text>
</a>
</g>
</g>
<!-- Node5&#45;&gt;Node26 -->
<g id="edge47_Node000005_Node000026" class="edge">
<title>Node5&#45;&gt;Node26</title>
<g id="a_edge47_Node000005_Node000026"><a xlink:title=" ">
<path fill="none" stroke="#63b8ff" d="M1034.69,-381.68C1098.33,-375.33 1183.93,-362.1 1205.12,-336 1271.43,-254.33 958.92,-260.09 1027.12,-180 1041.05,-163.65 1166.5,-148.61 1244.37,-140.74"/>
<polygon fill="#63b8ff" stroke="#63b8ff" points="1244.38,-144.25 1253.99,-139.78 1243.69,-137.29 1244.38,-144.25"/>
</a>
</g>
</g>
<!-- Node32 -->
<g id="Node000032" class="node">
<title>Node32</title>
<g id="a_Node000032"><a xlink:href="parameter__define_8hpp.html" target="_top" xlink:title=" ">
<polygon fill="white" stroke="#666666" points="512,-336 402.25,-336 402.25,-316 512,-316 512,-336"/>
<text xml:space="preserve" text-anchor="middle" x="457.12" y="-322.5" font-family="Helvetica,sans-Serif" font-size="10.00">parameter_define.hpp</text>
</a>
</g>
</g>
<!-- Node5&#45;&gt;Node32 -->
<g id="edge38_Node000005_Node000032" class="edge">
<title>Node5&#45;&gt;Node32</title>
<g id="a_edge38_Node000005_Node000032"><a xlink:title=" ">
<path fill="none" stroke="#63b8ff" d="M889.87,-379.2C804.86,-369.89 659.14,-353.55 523.67,-336.3"/>
<polygon fill="#63b8ff" stroke="#63b8ff" points="524.14,-332.83 513.77,-335.03 523.25,-339.77 524.14,-332.83"/>
</a>
</g>
</g>
<!-- Node33 -->
<g id="Node000033" class="node">
<title>Node33</title>
<g id="a_Node000033"><a xlink:href="parameter__kind_8hpp.html" target="_top" xlink:title=" ">
<polygon fill="white" stroke="#666666" points="465.88,-274 364.38,-274 364.38,-254 465.88,-254 465.88,-274"/>
<text xml:space="preserve" text-anchor="middle" x="415.12" y="-260.5" font-family="Helvetica,sans-Serif" font-size="10.00">parameter_kind.hpp</text>
</a>
</g>
</g>
<!-- Node5&#45;&gt;Node33 -->
<g id="edge42_Node000005_Node000033" class="edge">
<title>Node5&#45;&gt;Node33</title>
<g id="a_edge42_Node000005_Node000033"><a xlink:title=" ">
<path fill="none" stroke="#63b8ff" d="M889.53,-385.84C743.65,-382.76 426,-371.96 393.12,-336 379.84,-321.47 390.2,-299.04 400.75,-283.29"/>
<polygon fill="#63b8ff" stroke="#63b8ff" points="403.52,-285.42 406.57,-275.27 397.86,-281.31 403.52,-285.42"/>
</a>
</g>
</g>
<!-- Node34 -->
<g id="Node000034" class="node">
<title>Node34</title>
<g id="a_Node000034"><a xlink:title=" ">
<polygon fill="#e0e0e0" stroke="#999999" points="685.88,-336 530.38,-336 530.38,-316 685.88,-316 685.88,-336"/>
<text xml:space="preserve" text-anchor="middle" x="608.12" y="-322.5" font-family="Helvetica,sans-Serif" font-size="10.00">boost/describe/enumerators.hpp</text>
</a>
</g>
</g>
<!-- Node5&#45;&gt;Node34 -->
<g id="edge43_Node000005_Node000034" class="edge">
<title>Node5&#45;&gt;Node34</title>
<g id="a_edge43_Node000005_Node000034"><a xlink:title=" ">
<path fill="none" stroke="#63b8ff" d="M889.63,-374.71C826.7,-364.05 736.3,-348.72 675.05,-338.34"/>
<polygon fill="#63b8ff" stroke="#63b8ff" points="675.9,-334.94 665.46,-336.72 674.73,-341.84 675.9,-334.94"/>
</a>
</g>
</g>
<!-- Node35 -->
<g id="Node000035" class="node">
<title>Node35</title>
<g id="a_Node000035"><a xlink:title=" ">
<polygon fill="#e0e0e0" stroke="#999999" points="832,-336 704.25,-336 704.25,-316 832,-316 832,-336"/>
<text xml:space="preserve" text-anchor="middle" x="768.12" y="-322.5" font-family="Helvetica,sans-Serif" font-size="10.00">boost/mp11/algorithm.hpp</text>
</a>
</g>
</g>
<!-- Node5&#45;&gt;Node35 -->
<g id="edge44_Node000005_Node000035" class="edge">
<title>Node5&#45;&gt;Node35</title>
<g id="a_edge44_Node000005_Node000035"><a xlink:title=" ">
<path fill="none" stroke="#63b8ff" d="M912.17,-371.55C880.41,-361.73 839.78,-349.16 809.77,-339.88"/>
<polygon fill="#63b8ff" stroke="#63b8ff" points="810.86,-336.55 800.28,-336.94 808.8,-343.24 810.86,-336.55"/>
</a>
</g>
</g>
<!-- Node36 -->
<g id="Node000036" class="node">
<title>Node36</title>
<g id="a_Node000036"><a xlink:title=" ">
<polygon fill="#e0e0e0" stroke="#999999" points="960.38,-336 849.88,-336 849.88,-316 960.38,-316 960.38,-336"/>
<text xml:space="preserve" text-anchor="middle" x="905.12" y="-322.5" font-family="Helvetica,sans-Serif" font-size="10.00">boost/mp11/utility.hpp</text>
</a>
</g>
</g>
<!-- Node5&#45;&gt;Node36 -->
<g id="edge45_Node000005_Node000036" class="edge">
<title>Node5&#45;&gt;Node36</title>
<g id="a_edge45_Node000005_Node000036"><a xlink:title=" ">
<path fill="none" stroke="#63b8ff" d="M947.45,-371.55C939.61,-363.3 929.94,-353.12 921.82,-344.57"/>
<polygon fill="#63b8ff" stroke="#63b8ff" points="924.53,-342.34 915.11,-337.51 919.46,-347.17 924.53,-342.34"/>
</a>
</g>
</g>
<!-- Node37 -->
<g id="Node000037" class="node">
<title>Node37</title>
<g id="a_Node000037"><a xlink:title=" ">
<polygon fill="#e0e0e0" stroke="#999999" points="1061.5,-336 978.75,-336 978.75,-316 1061.5,-316 1061.5,-336"/>
<text xml:space="preserve" text-anchor="middle" x="1020.12" y="-322.5" font-family="Helvetica,sans-Serif" font-size="10.00">boost/hana.hpp</text>
</a>
</g>
</g>
<!-- Node5&#45;&gt;Node37 -->
<g id="edge46_Node000005_Node000037" class="edge">
<title>Node5&#45;&gt;Node37</title>
<g id="a_edge46_Node000005_Node000037"><a xlink:title=" ">
<path fill="none" stroke="#63b8ff" d="M977.06,-371.55C985.03,-363.3 994.88,-353.12 1003.14,-344.57"/>
<polygon fill="#63b8ff" stroke="#63b8ff" points="1005.54,-347.12 1009.98,-337.5 1000.51,-342.25 1005.54,-347.12"/>
</a>
</g>
</g>
<!-- Node38 -->
<g id="Node000038" class="node">
<title>Node38</title>
<g id="a_Node000038"><a xlink:title=" ">
<polygon fill="#e0e0e0" stroke="#999999" points="1132.88,-336 1079.38,-336 1079.38,-316 1132.88,-316 1132.88,-336"/>
<text xml:space="preserve" text-anchor="middle" x="1106.12" y="-322.5" font-family="Helvetica,sans-Serif" font-size="10.00">iostream</text>
</a>
</g>
</g>
<!-- Node5&#45;&gt;Node38 -->
<g id="edge48_Node000005_Node000038" class="edge">
<title>Node5&#45;&gt;Node38</title>
<g id="a_edge48_Node000005_Node000038"><a xlink:title=" ">
<path fill="none" stroke="#63b8ff" d="M999.21,-371.55C1022.02,-362.04 1051,-349.97 1073.04,-340.79"/>
<polygon fill="#63b8ff" stroke="#63b8ff" points="1074.26,-344.07 1082.15,-336.99 1071.57,-337.61 1074.26,-344.07"/>
</a>
</g>
</g>
<!-- Node39 -->
<g id="Node000039" class="node">
<title>Node39</title>
<g id="a_Node000039"><a xlink:title=" ">
<polygon fill="#e0e0e0" stroke="#999999" points="1195.75,-336 1150.5,-336 1150.5,-316 1195.75,-316 1195.75,-336"/>
<text xml:space="preserve" text-anchor="middle" x="1173.12" y="-322.5" font-family="Helvetica,sans-Serif" font-size="10.00">variant</text>
</a>
</g>
</g>
<!-- Node5&#45;&gt;Node39 -->
<g id="edge50_Node000005_Node000039" class="edge">
<title>Node5&#45;&gt;Node39</title>
<g id="a_edge50_Node000005_Node000039"><a xlink:title=" ">
<path fill="none" stroke="#63b8ff" d="M1016.9,-371.58C1050,-362.24 1093.32,-349.97 1139.31,-336.8"/>
<polygon fill="#63b8ff" stroke="#63b8ff" points="1140,-340.24 1148.65,-334.12 1138.07,-333.51 1140,-340.24"/>
</a>
</g>
</g>
<!-- Node7 -->
<g id="Node000007" class="node">
<title>Node7</title>
<g id="a_Node000007"><a xlink:href="model_2entity__id_8hpp.html" target="_top" xlink:title=" ">
<polygon fill="white" stroke="#666666" points="1416.38,-274 1335.88,-274 1335.88,-254 1416.38,-254 1416.38,-274"/>
<text xml:space="preserve" text-anchor="middle" x="1376.12" y="-260.5" font-family="Helvetica,sans-Serif" font-size="10.00">../entity_id.hpp</text>
</a>
</g>
</g>
<!-- Node6&#45;&gt;Node7 -->
<g id="edge7_Node000006_Node000007" class="edge">
<title>Node6&#45;&gt;Node7</title>
<g id="a_edge7_Node000006_Node000007"><a xlink:title=" ">
<path fill="none" stroke="#63b8ff" d="M1312,-315.62C1323.67,-306.41 1341.71,-292.17 1355.68,-281.14"/>
<polygon fill="#63b8ff" stroke="#63b8ff" points="1357.71,-283.99 1363.39,-275.05 1353.38,-278.5 1357.71,-283.99"/>
</a>
</g>
</g>
<!-- Node8 -->
<g id="Node000008" class="node">
<title>Node8</title>
<g id="a_Node000008"><a xlink:href="model_2value__object_8hpp.html" target="_top" xlink:title=" ">
<polygon fill="white" stroke="#666666" points="979.88,-206 890.38,-206 890.38,-186 979.88,-186 979.88,-206"/>
<text xml:space="preserve" text-anchor="middle" x="935.12" y="-192.5" font-family="Helvetica,sans-Serif" font-size="10.00">value_object.hpp</text>
</a>
</g>
</g>
<!-- Node7&#45;&gt;Node8 -->
<g id="edge8_Node000007_Node000008" class="edge">
<title>Node7&#45;&gt;Node8</title>
<g id="a_edge8_Node000007_Node000008"><a xlink:title=" ">
<path fill="none" stroke="#63b8ff" d="M1335.52,-257.29C1270.41,-248.08 1138.62,-229.24 1027.12,-212 1015.49,-210.2 1003.04,-208.21 991.17,-206.29"/>
<polygon fill="#63b8ff" stroke="#63b8ff" points="991.95,-202.87 981.52,-204.72 990.82,-209.78 991.95,-202.87"/>
</a>
</g>
</g>
<!-- Node17 -->
<g id="Node000017" class="node">
<title>Node17</title>
<g id="a_Node000017"><a xlink:title=" ">
<polygon fill="#e0e0e0" stroke="#999999" points="1719.5,-88 1624.75,-88 1624.75,-56 1719.5,-56 1719.5,-88"/>
<text xml:space="preserve" text-anchor="start" x="1632.75" y="-74.5" font-family="Helvetica,sans-Serif" font-size="10.00">boost/serialization</text>
<text xml:space="preserve" text-anchor="middle" x="1672.12" y="-62.5" font-family="Helvetica,sans-Serif" font-size="10.00">/access.hpp</text>
</a>
</g>
</g>
<!-- Node7&#45;&gt;Node17 -->
<g id="edge32_Node000007_Node000017" class="edge">
<title>Node7&#45;&gt;Node17</title>
<g id="a_edge32_Node000007_Node000017"><a xlink:title=" ">
<path fill="none" stroke="#63b8ff" d="M1416.57,-260.76C1512.58,-255.02 1747.93,-238.39 1771.12,-212 1805.17,-173.27 1747.16,-122.96 1706.53,-94.71"/>
<polygon fill="#63b8ff" stroke="#63b8ff" points="1708.65,-91.91 1698.41,-89.21 1704.73,-97.71 1708.65,-91.91"/>
</a>
</g>
</g>
<!-- Node7&#45;&gt;Node26 -->
<g id="edge34_Node000007_Node000026" class="edge">
<title>Node7&#45;&gt;Node26</title>
<g id="a_edge34_Node000007_Node000026"><a xlink:title=" ">
<path fill="none" stroke="#63b8ff" d="M1416.79,-260.48C1509.69,-254.31 1731.21,-237.08 1753.12,-212 1762.48,-201.29 1762.66,-190.55 1753.12,-180 1727.78,-151.97 1484.64,-140.59 1367.98,-136.72"/>
<polygon fill="#63b8ff" stroke="#63b8ff" points="1368.38,-133.23 1358.28,-136.4 1368.16,-140.22 1368.38,-133.23"/>
</a>
</g>
</g>
<!-- Node27 -->
<g id="Node000027" class="node">
<title>Node27</title>
<g id="a_Node000027"><a xlink:title=" ">
<polygon fill="#e0e0e0" stroke="#999999" points="1164,-206 1036.25,-206 1036.25,-186 1164,-186 1164,-206"/>
<text xml:space="preserve" text-anchor="middle" x="1100.12" y="-192.5" font-family="Helvetica,sans-Serif" font-size="10.00">boost/functional/hash.hpp</text>
</a>
</g>
</g>
<!-- Node7&#45;&gt;Node27 -->
<g id="edge31_Node000007_Node000027" class="edge">
<title>Node7&#45;&gt;Node27</title>
<g id="a_edge31_Node000007_Node000027"><a xlink:title=" ">
<path fill="none" stroke="#63b8ff" d="M1336.58,-253.54C1287.6,-241.83 1204.08,-221.86 1150.54,-209.06"/>
<polygon fill="#63b8ff" stroke="#63b8ff" points="1151.61,-205.71 1141.07,-206.79 1149.98,-212.52 1151.61,-205.71"/>
</a>
</g>
</g>
<!-- Node28 -->
<g id="Node000028" class="node">
<title>Node28</title>
<g id="a_Node000028"><a xlink:title=" ">
<polygon fill="#e0e0e0" stroke="#999999" points="1281.75,-212 1182.5,-212 1182.5,-180 1281.75,-180 1281.75,-212"/>
<text xml:space="preserve" text-anchor="start" x="1190.5" y="-198.5" font-family="Helvetica,sans-Serif" font-size="10.00">boost/serialization</text>
<text xml:space="preserve" text-anchor="middle" x="1232.12" y="-186.5" font-family="Helvetica,sans-Serif" font-size="10.00">/array_wrapper.hpp</text>
</a>
</g>
</g>
<!-- Node7&#45;&gt;Node28 -->
<g id="edge33_Node000007_Node000028" class="edge">
<title>Node7&#45;&gt;Node28</title>
<g id="a_edge33_Node000007_Node000028"><a xlink:title=" ">
<path fill="none" stroke="#63b8ff" d="M1355.49,-253.54C1334.83,-244.07 1302.38,-229.2 1275.95,-217.09"/>
<polygon fill="#63b8ff" stroke="#63b8ff" points="1277.71,-214.04 1267.16,-213.06 1274.79,-220.41 1277.71,-214.04"/>
</a>
</g>
</g>
<!-- Node29 -->
<g id="Node000029" class="node">
<title>Node29</title>
<g id="a_Node000029"><a xlink:title=" ">
<polygon fill="#e0e0e0" stroke="#999999" points="1452,-206 1300.25,-206 1300.25,-186 1452,-186 1452,-206"/>
<text xml:space="preserve" text-anchor="middle" x="1376.12" y="-192.5" font-family="Helvetica,sans-Serif" font-size="10.00">boost/uuid/uuid_generators.hpp</text>
</a>
</g>
</g>
<!-- Node7&#45;&gt;Node29 -->
<g id="edge35_Node000007_Node000029" class="edge">
<title>Node7&#45;&gt;Node29</title>
<g id="a_edge35_Node000007_Node000029"><a xlink:title=" ">
<path fill="none" stroke="#63b8ff" d="M1376.12,-253.54C1376.12,-244.23 1376.12,-229.7 1376.12,-217.7"/>
<polygon fill="#63b8ff" stroke="#63b8ff" points="1379.63,-217.95 1376.13,-207.95 1372.63,-217.95 1379.63,-217.95"/>
</a>
</g>
</g>
<!-- Node30 -->
<g id="Node000030" class="node">
<title>Node30</title>
<g id="a_Node000030"><a xlink:title=" ">
<polygon fill="#e0e0e0" stroke="#999999" points="1583.88,-206 1470.38,-206 1470.38,-186 1583.88,-186 1583.88,-206"/>
<text xml:space="preserve" text-anchor="middle" x="1527.12" y="-192.5" font-family="Helvetica,sans-Serif" font-size="10.00">boost/uuid/uuid_io.hpp</text>
</a>
</g>
</g>
<!-- Node7&#45;&gt;Node30 -->
<g id="edge36_Node000007_Node000030" class="edge">
<title>Node7&#45;&gt;Node30</title>
<g id="a_edge36_Node000007_Node000030"><a xlink:title=" ">
<path fill="none" stroke="#63b8ff" d="M1397.76,-253.54C1423.21,-242.42 1465.71,-223.84 1495.01,-211.04"/>
<polygon fill="#63b8ff" stroke="#63b8ff" points="1496.38,-214.26 1504.14,-207.04 1493.58,-207.84 1496.38,-214.26"/>
</a>
</g>
</g>
<!-- Node31 -->
<g id="Node000031" class="node">
<title>Node31</title>
<g id="a_Node000031"><a xlink:title=" ">
<polygon fill="#e0e0e0" stroke="#999999" points="1744.12,-206 1602.12,-206 1602.12,-186 1744.12,-186 1744.12,-206"/>
<text xml:space="preserve" text-anchor="middle" x="1673.12" y="-192.5" font-family="Helvetica,sans-Serif" font-size="10.00">boost/uuid/uuid_serialize.hpp</text>
</a>
</g>
</g>
<!-- Node7&#45;&gt;Node31 -->
<g id="edge37_Node000007_Node000031" class="edge">
<title>Node7&#45;&gt;Node31</title>
<g id="a_edge37_Node000007_Node000031"><a xlink:title=" ">
<path fill="none" stroke="#63b8ff" d="M1416.8,-253.96C1469.37,-242.28 1561.07,-221.9 1619.35,-208.95"/>
<polygon fill="#63b8ff" stroke="#63b8ff" points="1620.06,-212.38 1629.07,-206.79 1618.55,-205.54 1620.06,-212.38"/>
</a>
</g>
</g>
<!-- Node9 -->
<g id="Node000009" class="node">
<title>Node9</title>
<g id="a_Node000009"><a xlink:href="model_2presistence_8hpp.html" target="_top" xlink:title=" ">
<polygon fill="white" stroke="#666666" points="928.62,-144 843.62,-144 843.62,-124 928.62,-124 928.62,-144"/>
<text xml:space="preserve" text-anchor="middle" x="886.12" y="-130.5" font-family="Helvetica,sans-Serif" font-size="10.00">presistence.hpp</text>
</a>
</g>
</g>
<!-- Node8&#45;&gt;Node9 -->
<g id="edge9_Node000008_Node000009" class="edge">
<title>Node8&#45;&gt;Node9</title>
<g id="a_edge9_Node000008_Node000009"><a xlink:title=" ">
<path fill="none" stroke="#63b8ff" d="M927.47,-185.62C920.31,-176.86 909.42,-163.53 900.62,-152.75"/>
<polygon fill="#63b8ff" stroke="#63b8ff" points="903.56,-150.82 894.52,-145.28 898.14,-155.24 903.56,-150.82"/>
</a>
</g>
</g>
<!-- Node11 -->
<g id="Node000011" class="node">
<title>Node11</title>
<g id="a_Node000011"><a xlink:title=" ">
<polygon fill="#e0e0e0" stroke="#999999" points="381.5,-20 286.75,-20 286.75,0 381.5,0 381.5,-20"/>
<text xml:space="preserve" text-anchor="middle" x="334.12" y="-6.5" font-family="Helvetica,sans-Serif" font-size="10.00">boost/pfr/core.hpp</text>
</a>
</g>
</g>
<!-- Node8&#45;&gt;Node11 -->
<g id="edge27_Node000008_Node000011" class="edge">
<title>Node8&#45;&gt;Node11</title>
<g id="a_edge27_Node000008_Node000011"><a xlink:title=" ">
<path fill="none" stroke="#63b8ff" d="M890.21,-194.15C762.81,-190.71 403.75,-173.46 332.12,-88 319,-72.35 322.25,-47.96 327.01,-30.83"/>
<polygon fill="#63b8ff" stroke="#63b8ff" points="330.19,-32.37 329.9,-21.78 323.52,-30.24 330.19,-32.37"/>
</a>
</g>
</g>
<!-- Node12 -->
<g id="Node000012" class="node">
<title>Node12</title>
<g id="a_Node000012"><a xlink:title=" ">
<polygon fill="#e0e0e0" stroke="#999999" points="1200.75,-20 1161.5,-20 1161.5,0 1200.75,0 1200.75,-20"/>
<text xml:space="preserve" text-anchor="middle" x="1181.12" y="-6.5" font-family="Helvetica,sans-Serif" font-size="10.00">utility</text>
</a>
</g>
</g>
<!-- Node8&#45;&gt;Node12 -->
<g id="edge30_Node000008_Node000012" class="edge">
<title>Node8&#45;&gt;Node12</title>
<g id="a_edge30_Node000008_Node000012"><a xlink:title=" ">
<path fill="none" stroke="#63b8ff" d="M972.25,-185.52C979.5,-183.68 987.05,-181.77 994.12,-180 1058.96,-163.77 1080.29,-173.78 1140.12,-144 1175.48,-126.4 1192.14,-123.66 1209.12,-88 1218.36,-68.62 1206.97,-45.32 1196.07,-29.47"/>
<polygon fill="#63b8ff" stroke="#63b8ff" points="1198.88,-27.38 1190.1,-21.45 1193.26,-31.56 1198.88,-27.38"/>
</a>
</g>
</g>
<!-- Node24 -->
<g id="Node000024" class="node">
<title>Node24</title>
<g id="a_Node000024"><a xlink:href="concepts_8hpp.html" target="_top" xlink:title=" ">
<polygon fill="white" stroke="#666666" points="1021.38,-144 946.88,-144 946.88,-124 1021.38,-124 1021.38,-144"/>
<text xml:space="preserve" text-anchor="middle" x="984.12" y="-130.5" font-family="Helvetica,sans-Serif" font-size="10.00">concepts.hpp</text>
</a>
</g>
</g>
<!-- Node8&#45;&gt;Node24 -->
<g id="edge25_Node000008_Node000024" class="edge">
<title>Node8&#45;&gt;Node24</title>
<g id="a_edge25_Node000008_Node000024"><a xlink:title=" ">
<path fill="none" stroke="#63b8ff" d="M942.78,-185.62C949.94,-176.86 960.83,-163.53 969.63,-152.75"/>
<polygon fill="#63b8ff" stroke="#63b8ff" points="972.11,-155.24 975.73,-145.28 966.69,-150.82 972.11,-155.24"/>
</a>
</g>
</g>
<!-- Node25 -->
<g id="Node000025" class="node">
<title>Node25</title>
<g id="a_Node000025"><a xlink:title=" ">
<polygon fill="#e0e0e0" stroke="#999999" points="1131,-144 1039.25,-144 1039.25,-124 1131,-124 1131,-144"/>
<text xml:space="preserve" text-anchor="middle" x="1085.12" y="-130.5" font-family="Helvetica,sans-Serif" font-size="10.00">boost/pfr/ops.hpp</text>
</a>
</g>
</g>
<!-- Node8&#45;&gt;Node25 -->
<g id="edge28_Node000008_Node000025" class="edge">
<title>Node8&#45;&gt;Node25</title>
<g id="a_edge28_Node000008_Node000025"><a xlink:title=" ">
<path fill="none" stroke="#63b8ff" d="M958.56,-185.62C983.44,-175.67 1022.99,-159.85 1051.25,-148.55"/>
<polygon fill="#63b8ff" stroke="#63b8ff" points="1052.46,-151.83 1060.45,-144.87 1049.86,-145.34 1052.46,-151.83"/>
</a>
</g>
</g>
<!-- Node8&#45;&gt;Node26 -->
<g id="edge29_Node000008_Node000026" class="edge">
<title>Node8&#45;&gt;Node26</title>
<g id="a_edge29_Node000008_Node000026"><a xlink:title=" ">
<path fill="none" stroke="#63b8ff" d="M969.93,-185.5C977.85,-183.52 986.25,-181.57 994.12,-180 1006.25,-177.59 1156.61,-156.18 1244.08,-143.78"/>
<polygon fill="#63b8ff" stroke="#63b8ff" points="1244.56,-147.24 1253.97,-142.38 1243.58,-140.31 1244.56,-147.24"/>
</a>
</g>
</g>
<!-- Node10 -->
<g id="Node000010" class="node">
<title>Node10</title>
<g id="a_Node000010"><a xlink:href="model__base__concepts_8hpp.html" target="_top" xlink:title=" ">
<polygon fill="white" stroke="#666666" points="1200.25,-82 1068,-82 1068,-62 1200.25,-62 1200.25,-82"/>
<text xml:space="preserve" text-anchor="middle" x="1134.12" y="-68.5" font-family="Helvetica,sans-Serif" font-size="10.00">model_base_concepts.hpp</text>
</a>
</g>
</g>
<!-- Node9&#45;&gt;Node10 -->
<g id="edge10_Node000009_Node000010" class="edge">
<title>Node9&#45;&gt;Node10</title>
<g id="a_edge10_Node000009_Node000010"><a xlink:title=" ">
<path fill="none" stroke="#63b8ff" d="M925.15,-123.56C967.99,-113.19 1036.92,-96.52 1083.8,-85.18"/>
<polygon fill="#63b8ff" stroke="#63b8ff" points="1084.55,-88.59 1093.45,-82.84 1082.91,-81.79 1084.55,-88.59"/>
</a>
</g>
</g>
<!-- Node9&#45;&gt;Node11 -->
<g id="edge17_Node000009_Node000011" class="edge">
<title>Node9&#45;&gt;Node11</title>
<g id="a_edge17_Node000009_Node000011"><a xlink:title=" ">
<path fill="none" stroke="#63b8ff" d="M843.42,-132.21C723.52,-129.61 390.12,-119.58 353.12,-88 337.11,-74.33 333.45,-49.53 333.1,-31.76"/>
<polygon fill="#63b8ff" stroke="#63b8ff" points="336.59,-31.9 333.27,-21.84 329.6,-31.78 336.59,-31.9"/>
</a>
</g>
</g>
<!-- Node13 -->
<g id="Node000013" class="node">
<title>Node13</title>
<g id="a_Node000013"><a xlink:href="str__conv_8hpp.html" target="_top" xlink:title=" ">
<polygon fill="white" stroke="#666666" points="1555,-82 1457.25,-82 1457.25,-62 1555,-62 1555,-82"/>
<text xml:space="preserve" text-anchor="middle" x="1506.12" y="-68.5" font-family="Helvetica,sans-Serif" font-size="10.00">utility/str_conv.hpp</text>
</a>
</g>
</g>
<!-- Node9&#45;&gt;Node13 -->
<g id="edge13_Node000009_Node000013" class="edge">
<title>Node9&#45;&gt;Node13</title>
<g id="a_edge13_Node000009_Node000013"><a xlink:title=" ">
<path fill="none" stroke="#63b8ff" d="M928.93,-125.31C932.04,-124.83 935.13,-124.39 938.12,-124 1122.4,-99.82 1341.82,-83.68 1445.78,-76.79"/>
<polygon fill="#63b8ff" stroke="#63b8ff" points="1445.71,-80.3 1455.46,-76.15 1445.25,-73.32 1445.71,-80.3"/>
</a>
</g>
</g>
<!-- Node16 -->
<g id="Node000016" class="node">
<title>Node16</title>
<g id="a_Node000016"><a xlink:title=" ">
<polygon fill="#e0e0e0" stroke="#999999" points="467.75,-88 362.5,-88 362.5,-56 467.75,-56 467.75,-88"/>
<text xml:space="preserve" text-anchor="start" x="370.5" y="-74.5" font-family="Helvetica,sans-Serif" font-size="10.00">boost/archive/basic</text>
<text xml:space="preserve" text-anchor="middle" x="415.12" y="-62.5" font-family="Helvetica,sans-Serif" font-size="10.00">_binary_iarchive.hpp</text>
</a>
</g>
</g>
<!-- Node9&#45;&gt;Node16 -->
<g id="edge16_Node000009_Node000016" class="edge">
<title>Node9&#45;&gt;Node16</title>
<g id="a_edge16_Node000009_Node000016"><a xlink:title=" ">
<path fill="none" stroke="#63b8ff" d="M843.18,-130.09C770.37,-124.76 617.9,-111.91 479.35,-88.24"/>
<polygon fill="#63b8ff" stroke="#63b8ff" points="480.07,-84.82 469.62,-86.55 478.88,-91.71 480.07,-84.82"/>
</a>
</g>
</g>
<!-- Node9&#45;&gt;Node17 -->
<g id="edge18_Node000009_Node000017" class="edge">
<title>Node9&#45;&gt;Node17</title>
<g id="a_edge18_Node000009_Node000017"><a xlink:title=" ">
<path fill="none" stroke="#63b8ff" d="M928.92,-125.2C932.03,-124.75 935.12,-124.35 938.12,-124 1214.98,-92.18 1286.77,-115.19 1564.12,-88 1580.04,-86.44 1597.22,-84.28 1613.09,-82.08"/>
<polygon fill="#63b8ff" stroke="#63b8ff" points="1613.47,-85.56 1622.88,-80.69 1612.48,-78.63 1613.47,-85.56"/>
</a>
</g>
</g>
<!-- Node18 -->
<g id="Node000018" class="node">
<title>Node18</title>
<g id="a_Node000018"><a xlink:title=" ">
<polygon fill="#e0e0e0" stroke="#999999" points="580.5,-88 485.75,-88 485.75,-56 580.5,-56 580.5,-88"/>
<text xml:space="preserve" text-anchor="start" x="493.75" y="-74.5" font-family="Helvetica,sans-Serif" font-size="10.00">boost/serialization</text>
<text xml:space="preserve" text-anchor="middle" x="533.12" y="-62.5" font-family="Helvetica,sans-Serif" font-size="10.00">/optional.hpp</text>
</a>
</g>
</g>
<!-- Node9&#45;&gt;Node18 -->
<g id="edge19_Node000009_Node000018" class="edge">
<title>Node9&#45;&gt;Node18</title>
<g id="a_edge19_Node000009_Node000018"><a xlink:title=" ">
<path fill="none" stroke="#63b8ff" d="M843.23,-127.93C787.56,-121.04 687.25,-107.54 591.93,-88.23"/>
<polygon fill="#63b8ff" stroke="#63b8ff" points="592.91,-84.86 582.41,-86.28 591.51,-91.72 592.91,-84.86"/>
</a>
</g>
</g>
<!-- Node19 -->
<g id="Node000019" class="node">
<title>Node19</title>
<g id="a_Node000019"><a xlink:title=" ">
<polygon fill="#e0e0e0" stroke="#999999" points="703.38,-88 598.88,-88 598.88,-56 703.38,-56 703.38,-88"/>
<text xml:space="preserve" text-anchor="start" x="606.88" y="-74.5" font-family="Helvetica,sans-Serif" font-size="10.00">boost/serialization</text>
<text xml:space="preserve" text-anchor="middle" x="651.12" y="-62.5" font-family="Helvetica,sans-Serif" font-size="10.00">/unordered_map.hpp</text>
</a>
</g>
</g>
<!-- Node9&#45;&gt;Node19 -->
<g id="edge20_Node000009_Node000019" class="edge">
<title>Node9&#45;&gt;Node19</title>
<g id="a_edge20_Node000009_Node000019"><a xlink:title=" ">
<path fill="none" stroke="#63b8ff" d="M849.15,-123.56C813.12,-114.36 757.63,-100.19 714.55,-89.19"/>
<polygon fill="#63b8ff" stroke="#63b8ff" points="715.62,-85.85 705.06,-86.77 713.89,-92.64 715.62,-85.85"/>
</a>
</g>
</g>
<!-- Node20 -->
<g id="Node000020" class="node">
<title>Node20</title>
<g id="a_Node000020"><a xlink:title=" ">
<polygon fill="#e0e0e0" stroke="#999999" points="820.75,-88 721.5,-88 721.5,-56 820.75,-56 820.75,-88"/>
<text xml:space="preserve" text-anchor="start" x="729.5" y="-74.5" font-family="Helvetica,sans-Serif" font-size="10.00">boost/serialization</text>
<text xml:space="preserve" text-anchor="middle" x="771.12" y="-62.5" font-family="Helvetica,sans-Serif" font-size="10.00">/unordered_set.hpp</text>
</a>
</g>
</g>
<!-- Node9&#45;&gt;Node20 -->
<g id="edge21_Node000009_Node000020" class="edge">
<title>Node9&#45;&gt;Node20</title>
<g id="a_edge21_Node000009_Node000020"><a xlink:title=" ">
<path fill="none" stroke="#63b8ff" d="M868.16,-123.62C852.84,-115.63 830.28,-103.86 810.76,-93.68"/>
<polygon fill="#63b8ff" stroke="#63b8ff" points="812.42,-90.6 801.93,-89.07 809.18,-96.8 812.42,-90.6"/>
</a>
</g>
</g>
<!-- Node21 -->
<g id="Node000021" class="node">
<title>Node21</title>
<g id="a_Node000021"><a xlink:title=" ">
<polygon fill="#e0e0e0" stroke="#999999" points="933.5,-88 838.75,-88 838.75,-56 933.5,-56 933.5,-88"/>
<text xml:space="preserve" text-anchor="start" x="846.75" y="-74.5" font-family="Helvetica,sans-Serif" font-size="10.00">boost/serialization</text>
<text xml:space="preserve" text-anchor="middle" x="886.12" y="-62.5" font-family="Helvetica,sans-Serif" font-size="10.00">/vector.hpp</text>
</a>
</g>
</g>
<!-- Node9&#45;&gt;Node21 -->
<g id="edge22_Node000009_Node000021" class="edge">
<title>Node9&#45;&gt;Node21</title>
<g id="a_edge22_Node000009_Node000021"><a xlink:title=" ">
<path fill="none" stroke="#63b8ff" d="M886.12,-123.62C886.12,-117.1 886.12,-108.05 886.12,-99.4"/>
<polygon fill="#63b8ff" stroke="#63b8ff" points="889.63,-99.65 886.13,-89.65 882.63,-99.65 889.63,-99.65"/>
</a>
</g>
</g>
<!-- Node22 -->
<g id="Node000022" class="node">
<title>Node22</title>
<g id="a_Node000022"><a xlink:title=" ">
<polygon fill="#e0e0e0" stroke="#999999" points="995,-82 951.25,-82 951.25,-62 995,-62 995,-82"/>
<text xml:space="preserve" text-anchor="middle" x="973.12" y="-68.5" font-family="Helvetica,sans-Serif" font-size="10.00">format</text>
</a>
</g>
</g>
<!-- Node9&#45;&gt;Node22 -->
<g id="edge23_Node000009_Node000022" class="edge">
<title>Node9&#45;&gt;Node22</title>
<g id="a_edge23_Node000009_Node000022"><a xlink:title=" ">
<path fill="none" stroke="#63b8ff" d="M899.72,-123.62C913.25,-114.29 934.28,-99.79 950.36,-88.7"/>
<polygon fill="#63b8ff" stroke="#63b8ff" points="952.14,-91.73 958.38,-83.17 948.16,-85.96 952.14,-91.73"/>
</a>
</g>
</g>
<!-- Node23 -->
<g id="Node000023" class="node">
<title>Node23</title>
<g id="a_Node000023"><a xlink:title=" ">
<polygon fill="#e0e0e0" stroke="#999999" points="1049.62,-82 1012.62,-82 1012.62,-62 1049.62,-62 1049.62,-82"/>
<text xml:space="preserve" text-anchor="middle" x="1031.12" y="-68.5" font-family="Helvetica,sans-Serif" font-size="10.00">tuple</text>
</a>
</g>
</g>
<!-- Node9&#45;&gt;Node23 -->
<g id="edge24_Node000009_Node000023" class="edge">
<title>Node9&#45;&gt;Node23</title>
<g id="a_edge24_Node000009_Node000023"><a xlink:title=" ">
<path fill="none" stroke="#63b8ff" d="M914.25,-123.55C938.45,-115.12 974.11,-101.97 1004.12,-88 1004.35,-87.9 1004.58,-87.79 1004.8,-87.68"/>
<polygon fill="#63b8ff" stroke="#63b8ff" points="1006.4,-90.8 1013.7,-83.12 1003.2,-84.57 1006.4,-90.8"/>
</a>
</g>
</g>
<!-- Node10&#45;&gt;Node11 -->
<g id="edge11_Node000010_Node000011" class="edge">
<title>Node10&#45;&gt;Node11</title>
<g id="a_edge11_Node000010_Node000011"><a xlink:title=" ">
<path fill="none" stroke="#63b8ff" d="M1091.85,-61.5C1081.22,-59.4 1069.79,-57.39 1059.12,-56 813.2,-23.93 517.28,-14.57 393.29,-11.96"/>
<polygon fill="#63b8ff" stroke="#63b8ff" points="393.42,-8.46 383.35,-11.76 393.28,-15.46 393.42,-8.46"/>
</a>
</g>
</g>
<!-- Node10&#45;&gt;Node12 -->
<g id="edge12_Node000010_Node000012" class="edge">
<title>Node10&#45;&gt;Node12</title>
<g id="a_edge12_Node000010_Node000012"><a xlink:title=" ">
<path fill="none" stroke="#63b8ff" d="M1141.47,-61.62C1148.27,-52.94 1158.57,-39.8 1166.96,-29.08"/>
<polygon fill="#63b8ff" stroke="#63b8ff" points="1169.64,-31.33 1173.05,-21.3 1164.13,-27.02 1169.64,-31.33"/>
</a>
</g>
</g>
<!-- Node13&#45;&gt;Node14 -->
<g id="edge14_Node000013_Node000014" class="edge">
<title>Node13&#45;&gt;Node14</title>
<g id="a_edge14_Node000013_Node000014"><a xlink:title=" ">
<path fill="none" stroke="#63b8ff" d="M1542.47,-61.56C1587.42,-49.88 1663.17,-30.21 1705.71,-19.16"/>
<polygon fill="#63b8ff" stroke="#63b8ff" points="1706.51,-22.57 1715.31,-16.67 1704.75,-15.79 1706.51,-22.57"/>
</a>
</g>
</g>
<!-- Node15 -->
<g id="Node000015" class="node">
<title>Node15</title>
<g id="a_Node000015"><a xlink:title=" ">
<polygon fill="#e0e0e0" stroke="#999999" points="1538.88,-20 1473.38,-20 1473.38,0 1538.88,0 1538.88,-20"/>
<text xml:space="preserve" text-anchor="middle" x="1506.12" y="-6.5" font-family="Helvetica,sans-Serif" font-size="10.00">string_view</text>
</a>
</g>
</g>
<!-- Node13&#45;&gt;Node15 -->
<g id="edge15_Node000013_Node000015" class="edge">
<title>Node13&#45;&gt;Node15</title>
<g id="a_edge15_Node000013_Node000015"><a xlink:title=" ">
<path fill="none" stroke="#63b8ff" d="M1506.12,-61.62C1506.12,-53.56 1506.12,-41.65 1506.12,-31.41"/>
<polygon fill="#63b8ff" stroke="#63b8ff" points="1509.63,-31.63 1506.13,-21.63 1502.63,-31.63 1509.63,-31.63"/>
</a>
</g>
</g>
<!-- Node24&#45;&gt;Node10 -->
<g id="edge26_Node000024_Node000010" class="edge">
<title>Node24&#45;&gt;Node10</title>
<g id="a_edge26_Node000024_Node000010"><a xlink:title=" ">
<path fill="none" stroke="#63b8ff" d="M1007.56,-123.62C1032.44,-113.67 1071.99,-97.85 1100.25,-86.55"/>
<polygon fill="#63b8ff" stroke="#63b8ff" points="1101.46,-89.83 1109.45,-82.87 1098.86,-83.34 1101.46,-89.83"/>
</a>
</g>
</g>
<!-- Node32&#45;&gt;Node8 -->
<g id="edge39_Node000032_Node000008" class="edge">
<title>Node32&#45;&gt;Node8</title>
<g id="a_edge39_Node000032_Node000008"><a xlink:title=" ">
<path fill="none" stroke="#63b8ff" d="M492.27,-315.59C577.22,-292.84 793.66,-234.88 888.92,-209.37"/>
<polygon fill="#63b8ff" stroke="#63b8ff" points="889.71,-212.79 898.46,-206.82 887.9,-206.02 889.71,-212.79"/>
</a>
</g>
</g>
<!-- Node32&#45;&gt;Node33 -->
<g id="edge40_Node000032_Node000033" class="edge">
<title>Node32&#45;&gt;Node33</title>
<g id="a_edge40_Node000032_Node000033"><a xlink:title=" ">
<path fill="none" stroke="#63b8ff" d="M450.56,-315.62C444.55,-307.03 435.47,-294.07 428.01,-283.41"/>
<polygon fill="#63b8ff" stroke="#63b8ff" points="430.97,-281.54 422.37,-275.35 425.24,-285.55 430.97,-281.54"/>
</a>
</g>
</g>
<!-- Node33&#45;&gt;Node3 -->
<g id="edge41_Node000033_Node000003" class="edge">
<title>Node33&#45;&gt;Node3</title>
<g id="a_edge41_Node000033_Node000003"><a xlink:title=" ">
<path fill="none" stroke="#63b8ff" d="M389.34,-253.54C358.46,-242.22 306.54,-223.19 271.58,-210.37"/>
<polygon fill="#63b8ff" stroke="#63b8ff" points="272.88,-207.12 262.29,-206.96 270.47,-213.69 272.88,-207.12"/>
</a>
</g>
</g>
<!-- Node40&#45;&gt;Node7 -->
<g id="edge52_Node000040_Node000007" class="edge">
<title>Node40&#45;&gt;Node7</title>
<g id="a_edge52_Node000040_Node000007"><a xlink:title=" ">
<path fill="none" stroke="#63b8ff" d="M1311.77,-371.6C1327.88,-363.26 1345.6,-351.46 1357.12,-336 1368.09,-321.29 1372.73,-300.72 1374.69,-285.5"/>
<polygon fill="#63b8ff" stroke="#63b8ff" points="1378.16,-286.02 1375.65,-275.73 1371.19,-285.34 1378.16,-286.02"/>
</a>
</g>
</g>
<!-- Node41&#45;&gt;Node8 -->
<g id="edge54_Node000041_Node000008" class="edge">
<title>Node41&#45;&gt;Node8</title>
<g id="a_edge54_Node000041_Node000008"><a xlink:title=" ">
<path fill="none" stroke="#63b8ff" d="M334.01,-377.86C328.83,-352.87 318.45,-282.95 355.12,-248 392.58,-212.31 741.12,-201.08 879.19,-198.02"/>
<polygon fill="#63b8ff" stroke="#63b8ff" points="878.89,-201.53 888.81,-197.82 878.74,-194.53 878.89,-201.53"/>
</a>
</g>
</g>
</g>
</svg>

<g id="navigator" transform="translate(0 0)" fill="#404254">
  <rect fill="#f2f5e9" fill-opacity="0.5" stroke="#606060" stroke-width=".5" x="0" y="0" width="60" height="60"/>
  <use id="zoomplus" xlink:href="#zoomPlus" x="17" y="9" onmousedown="handleZoom(evt,'in')"/>
  <use id="zoomminus" xlink:href="#zoomMin" x="42" y="9" onmousedown="handleZoom(evt,'out')"/>
  <use id="reset" xlink:href="#resetDef" x="30" y="36" onmousedown="handleReset()"/>
   <use id="arrowup" xlink:href="#arrowUp" x="0" y="0" onmousedown="handlePan(0,-1)"/>
  <use id="arrowright" xlink:href="#arrowRight" x="0" y="0" onmousedown="handlePan(1,0)"/>
  <use id="arrowdown" xlink:href="#arrowDown" x="0" y="0" onmousedown="handlePan(0,1)"/>
  <use id="arrowleft" xlink:href="#arrowLeft" x="0" y="0" onmousedown="handlePan(-1,0)"/>
</g>
<svg viewBox="0 0 15 15" width="100%" height="30px" preserveAspectRatio="xMaxYMin meet">
 <g id="arrow_out" transform="scale(0.3 0.3)">
  <a xlink:href="open__menu__command__parameter_8hpp__incl_org.svg" target="_base">
   <rect id="button" ry="5" rx="5" y="6" x="6" height="38" width="38"
        fill="#f2f5e9" fill-opacity="0.5" stroke="#606060" stroke-width="1.0"/>
   <path id="arrow"
     d="M 11.500037,31.436501 C 11.940474,20.09759 22.043105,11.32322 32.158766,21.979434 L 37.068811,17.246167 C 37.068811,17.246167 37.088388,32 37.088388,32 L 22.160133,31.978069 C 22.160133,31.978069 26.997745,27.140456 26.997745,27.140456 C 18.528582,18.264221 13.291696,25.230495 11.500037,31.436501 z"
     style="fill:#404040;"/>
  </a>
 </g>
</svg>

<style type='text/css'>
<![CDATA[
[data-mouse-over-selected='false'] { opacity: 0.7; }
[data-mouse-over-selected='true']  { opacity: 1.0; }
]]>
</style>
<script type="application/ecmascript"><![CDATA[
document.addEventListener('DOMContentLoaded', (event) => {
  highlightEdges();
  highlightAdjacentNodes();
});
]]></script>
</svg>
