<?xml version="1.0" encoding="UTF-8" standalone="no"?>
<!DOCTYPE svg PUBLIC "-//W3C//DTD SVG 1.1//EN"
 "http://www.w3.org/Graphics/SVG/1.1/DTD/svg11.dtd">
<!-- Generated by graphviz version 14.1.2 (20260124.0452)
 -->
<!-- Title: depicture_menu/src/core/domain/model/command/buildin/open_menu_command_parameter.hpp Pages: 1 -->
<!--zoomable 248 -->

<svg id="main" version="1.1" xmlns="http://www.w3.org/2000/svg" xmlns:xlink="http://www.w3.org/1999/xlink" xml:space="preserve" onload="init(evt)">

<style type="text/css"><![CDATA[
.node, .edge {opacity: 0.7;}
.node.selected, .edge.selected {opacity: 1;}
.edge:hover path { stroke: red; }
.edge:hover polygon { stroke: red; fill: red; }
]]></style>

<defs>
  <circle id="rim" cx="0" cy="0" r="7"/>
  <circle id="rim2" cx="0" cy="0" r="3.5"/>
  <g id="zoomPlus">
    <use xlink:href="#rim" fill="#404040"><set attributeName="fill" to="#808080" begin="zoomplus.mouseover" end="zoomplus.mouseout"/></use>
    <path d="M-4,0h8M0,-4v8" fill="none" stroke="white" stroke-width="1.5" pointer-events="none"/>
  </g>
  <g id="zoomMin">
    <use xlink:href="#rim" fill="#404040"><set attributeName="fill" to="#808080" begin="zoomminus.mouseover" end="zoomminus.mouseout"/></use>
    <path d="M-4,0h8" fill="none" stroke="white" stroke-width="1.5" pointer-events="none"/>
  </g>
  <g id="arrowUp" transform="translate(30 24)">
    <use xlink:href="#rim"/>
    <path pointer-events="none" fill="none" stroke="white" stroke-width="1.5" d="M0,-3.0v7 M-2.5,-0.5L0,-3.0L2.5,-0.5"/>
  </g>
  <g id="arrowRight" transform="rotate(90) translate(36 -43)">
    <use xlink:href="#rim"/>
    <path pointer-events="none" fill="none" stroke="white" stroke-width="1.5" d="M0,-3.0v7 M-2.5,-0.5L0,-3.0L2.5,-0.5"/>
  </g>
  <g id="arrowDown" transform="rotate(180) translate(-30 -48)">
    <use xlink:href="#rim"/>
    <path pointer-events="none" fill="none" stroke="white" stroke-width="1.5" d="M0,-3.0v7 M-2.5,-0.5L0,-3.0L2.5,-0.5"/>
  </g>
  <g id="arrowLeft" transform="rotate(270) translate(-36 17)">
    <use xlink:href="#rim"/>
    <path pointer-events="none" fill="none" stroke="white" stroke-width="1.5" d="M0,-3.0v7 M-2.5,-0.5L0,-3.0L2.5,-0.5"/>
  </g>
  <g id="resetDef">
    <use xlink:href="#rim2" fill="#404040"><set attributeName="fill" to="#808080" begin="reset.mouseover" end="reset.mouseout"/></use>
  </g>
</defs>
<script type="application/ecmascript">
var viewWidth = 1261;
var viewHeight = 248;
var sectionId = 'dynsection-1';
</script>
<script type="application/ecmascript" xlink:href="svg.min.js"/>
<svg id="graph" class="graph">
<g id="viewport">
<title>depicture_menu/src/core/domain/model/command/buildin/open_menu_command_parameter.hpp</title>
<!-- Node1 -->
<g id="Node000001" class="node">
<title>Node1</title>
<g id="a_Node000001"><a xlink:title=" ">
<polygon fill="#999999" stroke="#666666" points="771.75,-240 623.75,-240 623.75,-184 771.75,-184 771.75,-240"/>
<text xml:space="preserve" text-anchor="start" x="631.75" y="-226.5" font-family="Helvetica,sans-Serif" font-size="10.00">depicture_menu/src</text>
<text xml:space="preserve" text-anchor="start" x="631.75" y="-214.5" font-family="Helvetica,sans-Serif" font-size="10.00">/core/domain/model/command</text>
<text xml:space="preserve" text-anchor="start" x="631.75" y="-202.5" font-family="Helvetica,sans-Serif" font-size="10.00">/buildin/open_menu_command</text>
<text xml:space="preserve" text-anchor="middle" x="697.75" y="-190.5" font-family="Helvetica,sans-Serif" font-size="10.00">_parameter.hpp</text>
</a>
</g>
</g>
<!-- Node2 -->
<g id="Node000002" class="node">
<title>Node2</title>
<g id="a_Node000002"><a xlink:href="common__action__builder_8hpp.html" target="_top" xlink:title=" ">
<polygon fill="white" stroke="#666666" points="274,-136 133.5,-136 133.5,-92 274,-92 274,-136"/>
<text xml:space="preserve" text-anchor="start" x="141.5" y="-122.5" font-family="Helvetica,sans-Serif" font-size="10.00">depicture_menu/src</text>
<text xml:space="preserve" text-anchor="start" x="141.5" y="-110.5" font-family="Helvetica,sans-Serif" font-size="10.00">/core/domain/service</text>
<text xml:space="preserve" text-anchor="middle" x="203.75" y="-98.5" font-family="Helvetica,sans-Serif" font-size="10.00">/common_action_builder.hpp</text>
</a>
</g>
</g>
<!-- Node1&#45;&gt;Node2 -->
<g id="edge1_Node000001_Node000002" class="edge">
<title>Node1&#45;&gt;Node2</title>
<g id="a_edge1_Node000001_Node000002"><a xlink:title=" ">
<path fill="none" stroke="#63b8ff" d="M612.12,-204.18C527.3,-195.98 394.28,-179.25 282.75,-148 271.87,-144.95 260.49,-140.81 249.86,-136.48"/>
<polygon fill="#63b8ff" stroke="#63b8ff" points="611.72,-207.65 622,-205.11 612.38,-200.68 611.72,-207.65"/>
</a>
</g>
</g>
<!-- Node6 -->
<g id="Node000006" class="node">
<title>Node6</title>
<g id="a_Node000006"><a xlink:href="change__menu__item_8cpp.html" target="_top" xlink:title="change_menu_item 実装">
<polygon fill="white" stroke="#666666" points="439.75,-136 291.75,-136 291.75,-92 439.75,-92 439.75,-136"/>
<text xml:space="preserve" text-anchor="start" x="299.75" y="-122.5" font-family="Helvetica,sans-Serif" font-size="10.00">depicture_menu/src</text>
<text xml:space="preserve" text-anchor="start" x="299.75" y="-110.5" font-family="Helvetica,sans-Serif" font-size="10.00">/core/usecase/config</text>
<text xml:space="preserve" text-anchor="middle" x="365.75" y="-98.5" font-family="Helvetica,sans-Serif" font-size="10.00">_view/change_menu_item.cpp</text>
</a>
</g>
</g>
<!-- Node1&#45;&gt;Node6 -->
<g id="edge5_Node000001_Node000006" class="edge">
<title>Node1&#45;&gt;Node6</title>
<g id="a_edge5_Node000001_Node000006"><a xlink:title=" ">
<path fill="none" stroke="#63b8ff" d="M612.42,-192.32C563.98,-181 502.47,-165.39 448.75,-148 438.28,-144.61 427.23,-140.56 416.73,-136.48"/>
<polygon fill="#63b8ff" stroke="#63b8ff" points="611.48,-195.7 622.01,-194.55 613.06,-188.88 611.48,-195.7"/>
</a>
</g>
</g>
<!-- Node7 -->
<g id="Node000007" class="node">
<title>Node7</title>
<g id="a_Node000007"><a xlink:href="update__menu__config_8cpp.html" target="_top" xlink:title=" ">
<polygon fill="white" stroke="#666666" points="611.38,-136 458.12,-136 458.12,-92 611.38,-92 611.38,-136"/>
<text xml:space="preserve" text-anchor="start" x="466.12" y="-122.5" font-family="Helvetica,sans-Serif" font-size="10.00">depicture_menu/src</text>
<text xml:space="preserve" text-anchor="start" x="466.12" y="-110.5" font-family="Helvetica,sans-Serif" font-size="10.00">/core/usecase/config</text>
<text xml:space="preserve" text-anchor="middle" x="534.75" y="-98.5" font-family="Helvetica,sans-Serif" font-size="10.00">_view/update_menu_config.cpp</text>
</a>
</g>
</g>
<!-- Node1&#45;&gt;Node7 -->
<g id="edge6_Node000001_Node000007" class="edge">
<title>Node1&#45;&gt;Node7</title>
<g id="a_edge6_Node000001_Node000007"><a xlink:title=" ">
<path fill="none" stroke="#63b8ff" d="M641.67,-177.97C618.29,-164.2 591.8,-148.6 571.04,-136.37"/>
<polygon fill="#63b8ff" stroke="#63b8ff" points="639.78,-180.92 650.17,-182.98 643.33,-174.89 639.78,-180.92"/>
</a>
</g>
</g>
<!-- Node8 -->
<g id="Node000008" class="node">
<title>Node8</title>
<g id="a_Node000008"><a xlink:href="test__create__action__domain__service_8cpp.html" target="_top" xlink:title=" ">
<polygon fill="white" stroke="#666666" points="765.75,-142 629.75,-142 629.75,-86 765.75,-86 765.75,-142"/>
<text xml:space="preserve" text-anchor="start" x="637.75" y="-128.5" font-family="Helvetica,sans-Serif" font-size="10.00">depicture_menu/test</text>
<text xml:space="preserve" text-anchor="start" x="637.75" y="-116.5" font-family="Helvetica,sans-Serif" font-size="10.00">/core/domain/service</text>
<text xml:space="preserve" text-anchor="start" x="637.75" y="-104.5" font-family="Helvetica,sans-Serif" font-size="10.00">/test_create_action_domain</text>
<text xml:space="preserve" text-anchor="middle" x="697.75" y="-92.5" font-family="Helvetica,sans-Serif" font-size="10.00">_service.cpp</text>
</a>
</g>
</g>
<!-- Node1&#45;&gt;Node8 -->
<g id="edge7_Node000001_Node000008" class="edge">
<title>Node1&#45;&gt;Node8</title>
<g id="a_edge7_Node000001_Node000008"><a xlink:title=" ">
<path fill="none" stroke="#63b8ff" d="M697.75,-172.32C697.75,-162.27 697.75,-151.65 697.75,-142.32"/>
<polygon fill="#63b8ff" stroke="#63b8ff" points="694.25,-172.23 697.75,-182.23 701.25,-172.23 694.25,-172.23"/>
</a>
</g>
</g>
<!-- Node9 -->
<g id="Node000009" class="node">
<title>Node9</title>
<g id="a_Node000009"><a xlink:href="test__create__command__domain__service_8cpp.html" target="_top" xlink:title=" ">
<polygon fill="white" stroke="#666666" points="899.62,-142 783.88,-142 783.88,-86 899.62,-86 899.62,-142"/>
<text xml:space="preserve" text-anchor="start" x="791.88" y="-128.5" font-family="Helvetica,sans-Serif" font-size="10.00">depicture_menu/test</text>
<text xml:space="preserve" text-anchor="start" x="791.88" y="-116.5" font-family="Helvetica,sans-Serif" font-size="10.00">/core/domain/service</text>
<text xml:space="preserve" text-anchor="start" x="791.88" y="-104.5" font-family="Helvetica,sans-Serif" font-size="10.00">/test_create_command</text>
<text xml:space="preserve" text-anchor="middle" x="841.75" y="-92.5" font-family="Helvetica,sans-Serif" font-size="10.00">_domain_service.cpp</text>
</a>
</g>
</g>
<!-- Node1&#45;&gt;Node9 -->
<g id="edge8_Node000001_Node000009" class="edge">
<title>Node1&#45;&gt;Node9</title>
<g id="a_edge8_Node000001_Node000009"><a xlink:title=" ">
<path fill="none" stroke="#63b8ff" d="M748,-177.5C765.25,-166 784.34,-153.27 800.77,-142.32"/>
<polygon fill="#63b8ff" stroke="#63b8ff" points="746.27,-174.45 739.89,-182.91 750.15,-180.27 746.27,-174.45"/>
</a>
</g>
</g>
<!-- Node10 -->
<g id="Node000010" class="node">
<title>Node10</title>
<g id="a_Node000010"><a xlink:href="action__change__operation_8cpp.html" target="_top" xlink:title=" ">
<polygon fill="white" stroke="#666666" points="1046,-148 917.5,-148 917.5,-80 1046,-80 1046,-148"/>
<text xml:space="preserve" text-anchor="start" x="925.5" y="-134.5" font-family="Helvetica,sans-Serif" font-size="10.00">depicture_menu/test</text>
<text xml:space="preserve" text-anchor="start" x="925.5" y="-122.5" font-family="Helvetica,sans-Serif" font-size="10.00">/core/presentation/change</text>
<text xml:space="preserve" text-anchor="start" x="925.5" y="-110.5" font-family="Helvetica,sans-Serif" font-size="10.00">_view_model/config_view</text>
<text xml:space="preserve" text-anchor="start" x="925.5" y="-98.5" font-family="Helvetica,sans-Serif" font-size="10.00">_presenter/action_change</text>
<text xml:space="preserve" text-anchor="middle" x="981.75" y="-86.5" font-family="Helvetica,sans-Serif" font-size="10.00">_operation.cpp</text>
</a>
</g>
</g>
<!-- Node1&#45;&gt;Node10 -->
<g id="edge9_Node000001_Node000010" class="edge">
<title>Node1&#45;&gt;Node10</title>
<g id="a_edge9_Node000001_Node000010"><a xlink:title=" ">
<path fill="none" stroke="#63b8ff" d="M782.54,-188.5C821.4,-177.47 867.83,-163.28 908.75,-148 911.49,-146.98 914.26,-145.9 917.06,-144.79"/>
<polygon fill="#63b8ff" stroke="#63b8ff" points="781.92,-185.04 773.25,-191.11 783.82,-191.77 781.92,-185.04"/>
</a>
</g>
</g>
<!-- Node11 -->
<g id="Node000011" class="node">
<title>Node11</title>
<g id="a_Node000011"><a xlink:href="menu__change__operation_8cpp.html" target="_top" xlink:title=" ">
<polygon fill="white" stroke="#666666" points="1253.38,-142 1064.12,-142 1064.12,-86 1253.38,-86 1253.38,-142"/>
<text xml:space="preserve" text-anchor="start" x="1072.12" y="-128.5" font-family="Helvetica,sans-Serif" font-size="10.00">depicture_menu/test</text>
<text xml:space="preserve" text-anchor="start" x="1072.12" y="-116.5" font-family="Helvetica,sans-Serif" font-size="10.00">/core/presentation/change</text>
<text xml:space="preserve" text-anchor="start" x="1072.12" y="-104.5" font-family="Helvetica,sans-Serif" font-size="10.00">_view_model/config_view</text>
<text xml:space="preserve" text-anchor="middle" x="1158.75" y="-92.5" font-family="Helvetica,sans-Serif" font-size="10.00">_presenter/menu_change_operation.cpp</text>
</a>
</g>
</g>
<!-- Node1&#45;&gt;Node11 -->
<g id="edge10_Node000001_Node000011" class="edge">
<title>Node1&#45;&gt;Node11</title>
<g id="a_edge10_Node000001_Node000011"><a xlink:title=" ">
<path fill="none" stroke="#63b8ff" d="M783.56,-199.12C856.3,-188.28 963.09,-170.53 1054.75,-148 1061.56,-146.33 1068.57,-144.45 1075.58,-142.46"/>
<polygon fill="#63b8ff" stroke="#63b8ff" points="783.07,-195.66 773.69,-200.58 784.09,-202.58 783.07,-195.66"/>
</a>
</g>
</g>
<!-- Node3 -->
<g id="Node000003" class="node">
<title>Node3</title>
<g id="a_Node000003"><a xlink:href="add__new__menu_8cpp.html" target="_top" xlink:title=" ">
<polygon fill="white" stroke="#666666" points="131.5,-44 0,-44 0,0 131.5,0 131.5,-44"/>
<text xml:space="preserve" text-anchor="start" x="8" y="-30.5" font-family="Helvetica,sans-Serif" font-size="10.00">depicture_menu/src</text>
<text xml:space="preserve" text-anchor="start" x="8" y="-18.5" font-family="Helvetica,sans-Serif" font-size="10.00">/core/usecase/config</text>
<text xml:space="preserve" text-anchor="middle" x="65.75" y="-6.5" font-family="Helvetica,sans-Serif" font-size="10.00">_view/add_new_menu.cpp</text>
</a>
</g>
</g>
<!-- Node2&#45;&gt;Node3 -->
<g id="edge2_Node000002_Node000003" class="edge">
<title>Node2&#45;&gt;Node3</title>
<g id="a_edge2_Node000002_Node000003"><a xlink:title=" ">
<path fill="none" stroke="#63b8ff" d="M161.47,-85.42C141.29,-72.27 117.51,-56.76 98.7,-44.49"/>
<polygon fill="#63b8ff" stroke="#63b8ff" points="159.49,-88.31 169.78,-90.84 163.31,-82.45 159.49,-88.31"/>
</a>
</g>
</g>
<!-- Node4 -->
<g id="Node000004" class="node">
<title>Node4</title>
<g id="a_Node000004"><a xlink:href="deploy__default__setting_8cpp.html" target="_top" xlink:title=" ">
<polygon fill="white" stroke="#666666" points="258.25,-44 149.25,-44 149.25,0 258.25,0 258.25,-44"/>
<text xml:space="preserve" text-anchor="start" x="157.25" y="-30.5" font-family="Helvetica,sans-Serif" font-size="10.00">depicture_menu/src</text>
<text xml:space="preserve" text-anchor="start" x="157.25" y="-18.5" font-family="Helvetica,sans-Serif" font-size="10.00">/core/usecase/deploy</text>
<text xml:space="preserve" text-anchor="middle" x="203.75" y="-6.5" font-family="Helvetica,sans-Serif" font-size="10.00">_default_setting.cpp</text>
</a>
</g>
</g>
<!-- Node2&#45;&gt;Node4 -->
<g id="edge3_Node000002_Node000004" class="edge">
<title>Node2&#45;&gt;Node4</title>
<g id="a_edge3_Node000002_Node000004"><a xlink:title=" ">
<path fill="none" stroke="#63b8ff" d="M203.75,-80.3C203.75,-68.37 203.75,-55.19 203.75,-44.49"/>
<polygon fill="#63b8ff" stroke="#63b8ff" points="200.25,-80.16 203.75,-90.16 207.25,-80.16 200.25,-80.16"/>
</a>
</g>
</g>
<!-- Node5 -->
<g id="Node000005" class="node">
<title>Node5</title>
<g id="a_Node000005"><a xlink:href="test__common__action__builder_8cpp.html" target="_top" xlink:title=" ">
<polygon fill="white" stroke="#666666" points="438.88,-44 276.62,-44 276.62,0 438.88,0 438.88,-44"/>
<text xml:space="preserve" text-anchor="start" x="284.62" y="-30.5" font-family="Helvetica,sans-Serif" font-size="10.00">depicture_menu/test</text>
<text xml:space="preserve" text-anchor="start" x="284.62" y="-18.5" font-family="Helvetica,sans-Serif" font-size="10.00">/core/domain/service</text>
<text xml:space="preserve" text-anchor="middle" x="357.75" y="-6.5" font-family="Helvetica,sans-Serif" font-size="10.00">/test_common_action_builder.cpp</text>
</a>
</g>
</g>
<!-- Node2&#45;&gt;Node5 -->
<g id="edge4_Node000002_Node000005" class="edge">
<title>Node2&#45;&gt;Node5</title>
<g id="a_edge4_Node000002_Node000005"><a xlink:title=" ">
<path fill="none" stroke="#63b8ff" d="M250.02,-85.96C272.73,-72.69 299.7,-56.92 320.98,-44.49"/>
<polygon fill="#63b8ff" stroke="#63b8ff" points="248.42,-82.84 241.55,-90.91 251.95,-88.88 248.42,-82.84"/>
</a>
</g>
</g>
</g>
</svg>

<g id="navigator" transform="translate(0 0)" fill="#404254">
  <rect fill="#f2f5e9" fill-opacity="0.5" stroke="#606060" stroke-width=".5" x="0" y="0" width="60" height="60"/>
  <use id="zoomplus" xlink:href="#zoomPlus" x="17" y="9" onmousedown="handleZoom(evt,'in')"/>
  <use id="zoomminus" xlink:href="#zoomMin" x="42" y="9" onmousedown="handleZoom(evt,'out')"/>
  <use id="reset" xlink:href="#resetDef" x="30" y="36" onmousedown="handleReset()"/>
   <use id="arrowup" xlink:href="#arrowUp" x="0" y="0" onmousedown="handlePan(0,-1)"/>
  <use id="arrowright" xlink:href="#arrowRight" x="0" y="0" onmousedown="handlePan(1,0)"/>
  <use id="arrowdown" xlink:href="#arrowDown" x="0" y="0" onmousedown="handlePan(0,1)"/>
  <use id="arrowleft" xlink:href="#arrowLeft" x="0" y="0" onmousedown="handlePan(-1,0)"/>
</g>
<svg viewBox="0 0 15 15" width="100%" height="30px" preserveAspectRatio="xMaxYMin meet">
 <g id="arrow_out" transform="scale(0.3 0.3)">
  <a xlink:href="open__menu__command__parameter_8hpp__dep__incl_org.svg" target="_base">
   <rect id="button" ry="5" rx="5" y="6" x="6" height="38" width="38"
        fill="#f2f5e9" fill-opacity="0.5" stroke="#606060" stroke-width="1.0"/>
   <path id="arrow"
     d="M 11.500037,31.436501 C 11.940474,20.09759 22.043105,11.32322 32.158766,21.979434 L 37.068811,17.246167 C 37.068811,17.246167 37.088388,32 37.088388,32 L 22.160133,31.978069 C 22.160133,31.978069 26.997745,27.140456 26.997745,27.140456 C 18.528582,18.264221 13.291696,25.230495 11.500037,31.436501 z"
     style="fill:#404040;"/>
  </a>
 </g>
</svg>

<style type='text/css'>
<![CDATA[
[data-mouse-over-selected='false'] { opacity: 0.7; }
[data-mouse-over-selected='true']  { opacity: 1.0; }
]]>
</style>
<script type="application/ecmascript"><![CDATA[
document.addEventListener('DOMContentLoaded', (event) => {
  highlightEdges();
  highlightAdjacentNodes();
});
]]></script>
</svg>
