<?xml version="1.0" encoding="UTF-8" standalone="no"?>
<!DOCTYPE svg PUBLIC "-//W3C//DTD SVG 1.1//EN"
 "http://www.w3.org/Graphics/SVG/1.1/DTD/svg11.dtd">
<!-- Generated by graphviz version 14.1.2 (20260124.0452)
 -->
<!-- Title: depicture_menu/src/core/domain/model/command/buildin/open_menu_command_parameter.hpp Pages: 1 -->
<!--zoomable 236 -->

<svg id="main" version="1.1" xmlns="http://www.w3.org/2000/svg" xmlns:xlink="http://www.w3.org/1999/xlink" xml:space="preserve" onload="init(evt)">

<style type="text/css"><![CDATA[
.node, .edge {opacity: 0.7;}
.node.selected, .edge.selected {opacity: 1;}
.edge:hover path { stroke: red; }
.edge:hover polygon { stroke: red; fill: red; }
]]></style>

<defs>
  <circle id="rim" cx="0" cy="0" r="7"/>
  <circle id="rim2" cx="0" cy="0" r="3.5"/>
  <g id="zoomPlus">
    <use xlink:href="#rim" fill="#404040"><set attributeName="fill" to="#808080" begin="zoomplus.mouseover" end="zoomplus.mouseout"/></use>
    <path d="M-4,0h8M0,-4v8" fill="none" stroke="white" stroke-width="1.5" pointer-events="none"/>
  </g>
  <g id="zoomMin">
    <use xlink:href="#rim" fill="#404040"><set attributeName="fill" to="#808080" begin="zoomminus.mouseover" end="zoomminus.mouseout"/></use>
    <path d="M-4,0h8" fill="none" stroke="white" stroke-width="1.5" pointer-events="none"/>
  </g>
  <g id="arrowUp" transform="translate(30 24)">
    <use xlink:href="#rim"/>
    <path pointer-events="none" fill="none" stroke="white" stroke-width="1.5" d="M0,-3.0v7 M-2.5,-0.5L0,-3.0L2.5,-0.5"/>
  </g>
  <g id="arrowRight" transform="rotate(90) translate(36 -43)">
    <use xlink:href="#rim"/>
    <path pointer-events="none" fill="none" stroke="white" stroke-width="1.5" d="M0,-3.0v7 M-2.5,-0.5L0,-3.0L2.5,-0.5"/>
  </g>
  <g id="arrowDown" transform="rotate(180) translate(-30 -48)">
    <use xlink:href="#rim"/>
    <path pointer-events="none" fill="none" stroke="white" stroke-width="1.5" d="M0,-3.0v7 M-2.5,-0.5L0,-3.0L2.5,-0.5"/>
  </g>
  <g id="arrowLeft" transform="rotate(270) translate(-36 17)">
    <use xlink:href="#rim"/>
    <path pointer-events="none" fill="none" stroke="white" stroke-width="1.5" d="M0,-3.0v7 M-2.5,-0.5L0,-3.0L2.5,-0.5"/>
  </g>
  <g id="resetDef">
    <use xlink:href="#rim2" fill="#404040"><set attributeName="fill" to="#808080" begin="reset.mouseover" end="reset.mouseout"/></use>
  </g>
</defs>
<script type="application/ecmascript">
var viewWidth = 1112;
var viewHeight = 236;
var sectionId = 'dynsection-1';
</script>
<script type="application/ecmascript" xlink:href="svg.min.js"/>
<svg id="graph" class="graph">
<g id="viewport">
<title>depicture_menu/src/core/domain/model/command/buildin/open_menu_command_parameter.hpp</title>
<!-- Node1 -->
<g id="Node000001" class="node">
<title>Node1</title>
<g id="a_Node000001"><a xlink:title=" ">
<polygon fill="#999999" stroke="#666666" points="727.75,-228 579.75,-228 579.75,-172 727.75,-172 727.75,-228"/>
<text xml:space="preserve" text-anchor="start" x="587.75" y="-214.5" font-family="Helvetica,sans-Serif" font-size="10.00">depicture_menu/src</text>
<text xml:space="preserve" text-anchor="start" x="587.75" y="-202.5" font-family="Helvetica,sans-Serif" font-size="10.00">/core/domain/model/command</text>
<text xml:space="preserve" text-anchor="start" x="587.75" y="-190.5" font-family="Helvetica,sans-Serif" font-size="10.00">/buildin/open_menu_command</text>
<text xml:space="preserve" text-anchor="middle" x="653.75" y="-178.5" font-family="Helvetica,sans-Serif" font-size="10.00">_parameter.hpp</text>
</a>
</g>
</g>
<!-- Node2 -->
<g id="Node000002" class="node">
<title>Node2</title>
<g id="a_Node000002"><a xlink:href="common__action__builder_8hpp.html" target="_top" xlink:title=" ">
<polygon fill="white" stroke="#666666" points="274,-130 133.5,-130 133.5,-86 274,-86 274,-130"/>
<text xml:space="preserve" text-anchor="start" x="141.5" y="-116.5" font-family="Helvetica,sans-Serif" font-size="10.00">depicture_menu/src</text>
<text xml:space="preserve" text-anchor="start" x="141.5" y="-104.5" font-family="Helvetica,sans-Serif" font-size="10.00">/core/domain/service</text>
<text xml:space="preserve" text-anchor="middle" x="203.75" y="-92.5" font-family="Helvetica,sans-Serif" font-size="10.00">/common_action_builder.hpp</text>
</a>
</g>
</g>
<!-- Node1&#45;&gt;Node2 -->
<g id="edge1_Node000001_Node000002" class="edge">
<title>Node1&#45;&gt;Node2</title>
<g id="a_edge1_Node000001_Node000002"><a xlink:title=" ">
<path fill="none" stroke="#63b8ff" d="M568.1,-188.45C492.37,-178.17 379.27,-160.52 282.75,-136 276.29,-134.36 269.6,-132.44 262.97,-130.38"/>
<polygon fill="#63b8ff" stroke="#63b8ff" points="567.58,-191.91 577.96,-189.77 568.51,-184.97 567.58,-191.91"/>
</a>
</g>
</g>
<!-- Node6 -->
<g id="Node000006" class="node">
<title>Node6</title>
<g id="a_Node000006"><a xlink:href="change__common__command_8cpp.html" target="_top" xlink:title=" ">
<polygon fill="white" stroke="#666666" points="477.5,-130 292,-130 292,-86 477.5,-86 477.5,-130"/>
<text xml:space="preserve" text-anchor="start" x="300" y="-116.5" font-family="Helvetica,sans-Serif" font-size="10.00">depicture_menu/src</text>
<text xml:space="preserve" text-anchor="start" x="300" y="-104.5" font-family="Helvetica,sans-Serif" font-size="10.00">/core/usecase/config</text>
<text xml:space="preserve" text-anchor="middle" x="384.75" y="-92.5" font-family="Helvetica,sans-Serif" font-size="10.00">_view/change_common_command.cpp</text>
</a>
</g>
</g>
<!-- Node1&#45;&gt;Node6 -->
<g id="edge5_Node000001_Node000006" class="edge">
<title>Node1&#45;&gt;Node6</title>
<g id="a_edge5_Node000001_Node000006"><a xlink:title=" ">
<path fill="none" stroke="#63b8ff" d="M568.75,-170.56C529.88,-157.56 484.6,-142.41 448.68,-130.39"/>
<polygon fill="#63b8ff" stroke="#63b8ff" points="567.5,-173.83 578.1,-173.69 569.72,-167.2 567.5,-173.83"/>
</a>
</g>
</g>
<!-- Node7 -->
<g id="Node000007" class="node">
<title>Node7</title>
<g id="a_Node000007"><a xlink:href="change__menu__item_8cpp.html" target="_top" xlink:title="change_menu_item 実装">
<polygon fill="white" stroke="#666666" points="643.75,-130 495.75,-130 495.75,-86 643.75,-86 643.75,-130"/>
<text xml:space="preserve" text-anchor="start" x="503.75" y="-116.5" font-family="Helvetica,sans-Serif" font-size="10.00">depicture_menu/src</text>
<text xml:space="preserve" text-anchor="start" x="503.75" y="-104.5" font-family="Helvetica,sans-Serif" font-size="10.00">/core/usecase/config</text>
<text xml:space="preserve" text-anchor="middle" x="569.75" y="-92.5" font-family="Helvetica,sans-Serif" font-size="10.00">_view/change_menu_item.cpp</text>
</a>
</g>
</g>
<!-- Node1&#45;&gt;Node7 -->
<g id="edge6_Node000001_Node000007" class="edge">
<title>Node1&#45;&gt;Node7</title>
<g id="a_edge6_Node000001_Node000007"><a xlink:title=" ">
<path fill="none" stroke="#63b8ff" d="M620.33,-163.2C609.94,-152.06 598.82,-140.15 589.66,-130.33"/>
<polygon fill="#63b8ff" stroke="#63b8ff" points="617.68,-165.48 627.06,-170.4 622.79,-160.7 617.68,-165.48"/>
</a>
</g>
</g>
<!-- Node8 -->
<g id="Node000008" class="node">
<title>Node8</title>
<g id="a_Node000008"><a xlink:href="update__menu__config_8cpp.html" target="_top" xlink:title=" ">
<polygon fill="white" stroke="#666666" points="815.38,-130 662.12,-130 662.12,-86 815.38,-86 815.38,-130"/>
<text xml:space="preserve" text-anchor="start" x="670.12" y="-116.5" font-family="Helvetica,sans-Serif" font-size="10.00">depicture_menu/src</text>
<text xml:space="preserve" text-anchor="start" x="670.12" y="-104.5" font-family="Helvetica,sans-Serif" font-size="10.00">/core/usecase/config</text>
<text xml:space="preserve" text-anchor="middle" x="738.75" y="-92.5" font-family="Helvetica,sans-Serif" font-size="10.00">_view/update_menu_config.cpp</text>
</a>
</g>
</g>
<!-- Node1&#45;&gt;Node8 -->
<g id="edge7_Node000001_Node000008" class="edge">
<title>Node1&#45;&gt;Node8</title>
<g id="a_edge7_Node000001_Node000008"><a xlink:title=" ">
<path fill="none" stroke="#63b8ff" d="M687.57,-163.2C698.08,-152.06 709.34,-140.15 718.61,-130.33"/>
<polygon fill="#63b8ff" stroke="#63b8ff" points="685.08,-160.73 680.75,-170.41 690.16,-165.54 685.08,-160.73"/>
</a>
</g>
</g>
<!-- Node9 -->
<g id="Node000009" class="node">
<title>Node9</title>
<g id="a_Node000009"><a xlink:href="test__create__action__domain__service_8cpp.html" target="_top" xlink:title=" ">
<polygon fill="white" stroke="#666666" points="969.75,-136 833.75,-136 833.75,-80 969.75,-80 969.75,-136"/>
<text xml:space="preserve" text-anchor="start" x="841.75" y="-122.5" font-family="Helvetica,sans-Serif" font-size="10.00">depicture_menu/test</text>
<text xml:space="preserve" text-anchor="start" x="841.75" y="-110.5" font-family="Helvetica,sans-Serif" font-size="10.00">/core/domain/service</text>
<text xml:space="preserve" text-anchor="start" x="841.75" y="-98.5" font-family="Helvetica,sans-Serif" font-size="10.00">/test_create_action_domain</text>
<text xml:space="preserve" text-anchor="middle" x="901.75" y="-86.5" font-family="Helvetica,sans-Serif" font-size="10.00">_service.cpp</text>
</a>
</g>
</g>
<!-- Node1&#45;&gt;Node9 -->
<g id="edge8_Node000001_Node000009" class="edge">
<title>Node1&#45;&gt;Node9</title>
<g id="a_edge8_Node000001_Node000009"><a xlink:title=" ">
<path fill="none" stroke="#63b8ff" d="M738.9,-168.1C769.73,-156.91 804.12,-144.43 833.32,-133.83"/>
<polygon fill="#63b8ff" stroke="#63b8ff" points="737.79,-164.78 729.58,-171.48 740.18,-171.36 737.79,-164.78"/>
</a>
</g>
</g>
<!-- Node10 -->
<g id="Node000010" class="node">
<title>Node10</title>
<g id="a_Node000010"><a xlink:href="test__create__command__domain__service_8cpp.html" target="_top" xlink:title=" ">
<polygon fill="white" stroke="#666666" points="1103.62,-136 987.88,-136 987.88,-80 1103.62,-80 1103.62,-136"/>
<text xml:space="preserve" text-anchor="start" x="995.88" y="-122.5" font-family="Helvetica,sans-Serif" font-size="10.00">depicture_menu/test</text>
<text xml:space="preserve" text-anchor="start" x="995.88" y="-110.5" font-family="Helvetica,sans-Serif" font-size="10.00">/core/domain/service</text>
<text xml:space="preserve" text-anchor="start" x="995.88" y="-98.5" font-family="Helvetica,sans-Serif" font-size="10.00">/test_create_command</text>
<text xml:space="preserve" text-anchor="middle" x="1045.75" y="-86.5" font-family="Helvetica,sans-Serif" font-size="10.00">_domain_service.cpp</text>
</a>
</g>
</g>
<!-- Node1&#45;&gt;Node10 -->
<g id="edge9_Node000001_Node000010" class="edge">
<title>Node1&#45;&gt;Node10</title>
<g id="a_edge9_Node000001_Node000010"><a xlink:title=" ">
<path fill="none" stroke="#63b8ff" d="M739.17,-187.03C805.35,-176.66 898.9,-159.59 978.75,-136 981.64,-135.15 984.57,-134.22 987.52,-133.23"/>
<polygon fill="#63b8ff" stroke="#63b8ff" points="738.81,-183.54 729.46,-188.53 739.88,-190.46 738.81,-183.54"/>
</a>
</g>
</g>
<!-- Node3 -->
<g id="Node000003" class="node">
<title>Node3</title>
<g id="a_Node000003"><a xlink:href="add__new__menu_8cpp.html" target="_top" xlink:title=" ">
<polygon fill="white" stroke="#666666" points="131.5,-44 0,-44 0,0 131.5,0 131.5,-44"/>
<text xml:space="preserve" text-anchor="start" x="8" y="-30.5" font-family="Helvetica,sans-Serif" font-size="10.00">depicture_menu/src</text>
<text xml:space="preserve" text-anchor="start" x="8" y="-18.5" font-family="Helvetica,sans-Serif" font-size="10.00">/core/usecase/config</text>
<text xml:space="preserve" text-anchor="middle" x="65.75" y="-6.5" font-family="Helvetica,sans-Serif" font-size="10.00">_view/add_new_menu.cpp</text>
</a>
</g>
</g>
<!-- Node2&#45;&gt;Node3 -->
<g id="edge2_Node000002_Node000003" class="edge">
<title>Node2&#45;&gt;Node3</title>
<g id="a_edge2_Node000002_Node000003"><a xlink:title=" ">
<path fill="none" stroke="#63b8ff" d="M158.74,-79.6C139.95,-68.17 118.46,-55.08 100.87,-44.37"/>
<polygon fill="#63b8ff" stroke="#63b8ff" points="156.92,-82.59 167.28,-84.8 160.55,-76.61 156.92,-82.59"/>
</a>
</g>
</g>
<!-- Node4 -->
<g id="Node000004" class="node">
<title>Node4</title>
<g id="a_Node000004"><a xlink:href="deploy__default__setting_8cpp.html" target="_top" xlink:title=" ">
<polygon fill="white" stroke="#666666" points="258.25,-44 149.25,-44 149.25,0 258.25,0 258.25,-44"/>
<text xml:space="preserve" text-anchor="start" x="157.25" y="-30.5" font-family="Helvetica,sans-Serif" font-size="10.00">depicture_menu/src</text>
<text xml:space="preserve" text-anchor="start" x="157.25" y="-18.5" font-family="Helvetica,sans-Serif" font-size="10.00">/core/usecase/deploy</text>
<text xml:space="preserve" text-anchor="middle" x="203.75" y="-6.5" font-family="Helvetica,sans-Serif" font-size="10.00">_default_setting.cpp</text>
</a>
</g>
</g>
<!-- Node2&#45;&gt;Node4 -->
<g id="edge3_Node000002_Node000004" class="edge">
<title>Node2&#45;&gt;Node4</title>
<g id="a_edge3_Node000002_Node000004"><a xlink:title=" ">
<path fill="none" stroke="#63b8ff" d="M203.75,-74.49C203.75,-64.43 203.75,-53.6 203.75,-44.48"/>
<polygon fill="#63b8ff" stroke="#63b8ff" points="200.25,-74.29 203.75,-84.29 207.25,-74.29 200.25,-74.29"/>
</a>
</g>
</g>
<!-- Node5 -->
<g id="Node000005" class="node">
<title>Node5</title>
<g id="a_Node000005"><a xlink:href="test__common__action__builder_8cpp.html" target="_top" xlink:title=" ">
<polygon fill="white" stroke="#666666" points="438.88,-44 276.62,-44 276.62,0 438.88,0 438.88,-44"/>
<text xml:space="preserve" text-anchor="start" x="284.62" y="-30.5" font-family="Helvetica,sans-Serif" font-size="10.00">depicture_menu/test</text>
<text xml:space="preserve" text-anchor="start" x="284.62" y="-18.5" font-family="Helvetica,sans-Serif" font-size="10.00">/core/domain/service</text>
<text xml:space="preserve" text-anchor="middle" x="357.75" y="-6.5" font-family="Helvetica,sans-Serif" font-size="10.00">/test_common_action_builder.cpp</text>
</a>
</g>
</g>
<!-- Node2&#45;&gt;Node5 -->
<g id="edge4_Node000002_Node000005" class="edge">
<title>Node2&#45;&gt;Node5</title>
<g id="a_edge4_Node000002_Node000005"><a xlink:title=" ">
<path fill="none" stroke="#63b8ff" d="M253.11,-80.08C274.28,-68.53 298.66,-55.23 318.56,-44.37"/>
<polygon fill="#63b8ff" stroke="#63b8ff" points="251.44,-77 244.34,-84.86 254.79,-83.15 251.44,-77"/>
</a>
</g>
</g>
</g>
</svg>

<g id="navigator" transform="translate(0 0)" fill="#404254">
  <rect fill="#f2f5e9" fill-opacity="0.5" stroke="#606060" stroke-width=".5" x="0" y="0" width="60" height="60"/>
  <use id="zoomplus" xlink:href="#zoomPlus" x="17" y="9" onmousedown="handleZoom(evt,'in')"/>
  <use id="zoomminus" xlink:href="#zoomMin" x="42" y="9" onmousedown="handleZoom(evt,'out')"/>
  <use id="reset" xlink:href="#resetDef" x="30" y="36" onmousedown="handleReset()"/>
   <use id="arrowup" xlink:href="#arrowUp" x="0" y="0" onmousedown="handlePan(0,-1)"/>
  <use id="arrowright" xlink:href="#arrowRight" x="0" y="0" onmousedown="handlePan(1,0)"/>
  <use id="arrowdown" xlink:href="#arrowDown" x="0" y="0" onmousedown="handlePan(0,1)"/>
  <use id="arrowleft" xlink:href="#arrowLeft" x="0" y="0" onmousedown="handlePan(-1,0)"/>
</g>
<svg viewBox="0 0 15 15" width="100%" height="30px" preserveAspectRatio="xMaxYMin meet">
 <g id="arrow_out" transform="scale(0.3 0.3)">
  <a xlink:href="open__menu__command__parameter_8hpp__dep__incl_org.svg" target="_base">
   <rect id="button" ry="5" rx="5" y="6" x="6" height="38" width="38"
        fill="#f2f5e9" fill-opacity="0.5" stroke="#606060" stroke-width="1.0"/>
   <path id="arrow"
     d="M 11.500037,31.436501 C 11.940474,20.09759 22.043105,11.32322 32.158766,21.979434 L 37.068811,17.246167 C 37.068811,17.246167 37.088388,32 37.088388,32 L 22.160133,31.978069 C 22.160133,31.978069 26.997745,27.140456 26.997745,27.140456 C 18.528582,18.264221 13.291696,25.230495 11.500037,31.436501 z"
     style="fill:#404040;"/>
  </a>
 </g>
</svg>

<style type='text/css'>
<![CDATA[
[data-mouse-over-selected='false'] { opacity: 0.7; }
[data-mouse-over-selected='true']  { opacity: 1.0; }
]]>
</style>
<script type="application/ecmascript"><![CDATA[
document.addEventListener('DOMContentLoaded', (event) => {
  highlightEdges();
  highlightAdjacentNodes();
});
]]></script>
</svg>
