<?xml version="1.0" encoding="UTF-8" standalone="no"?>
<!DOCTYPE svg PUBLIC "-//W3C//DTD SVG 1.1//EN"
 "http://www.w3.org/Graphics/SVG/1.1/DTD/svg11.dtd">
<!-- Generated by graphviz version 14.1.2 (20260124.0452)
 -->
<!-- Title: depicture_menu/src/core/domain/model/app/option.hpp Pages: 1 -->
<!--zoomable 548 -->

<svg id="main" version="1.1" xmlns="http://www.w3.org/2000/svg" xmlns:xlink="http://www.w3.org/1999/xlink" xml:space="preserve" onload="init(evt)">

<style type="text/css"><![CDATA[
.node, .edge {opacity: 0.7;}
.node.selected, .edge.selected {opacity: 1;}
.edge:hover path { stroke: red; }
.edge:hover polygon { stroke: red; fill: red; }
]]></style>

<defs>
  <circle id="rim" cx="0" cy="0" r="7"/>
  <circle id="rim2" cx="0" cy="0" r="3.5"/>
  <g id="zoomPlus">
    <use xlink:href="#rim" fill="#404040"><set attributeName="fill" to="#808080" begin="zoomplus.mouseover" end="zoomplus.mouseout"/></use>
    <path d="M-4,0h8M0,-4v8" fill="none" stroke="white" stroke-width="1.5" pointer-events="none"/>
  </g>
  <g id="zoomMin">
    <use xlink:href="#rim" fill="#404040"><set attributeName="fill" to="#808080" begin="zoomminus.mouseover" end="zoomminus.mouseout"/></use>
    <path d="M-4,0h8" fill="none" stroke="white" stroke-width="1.5" pointer-events="none"/>
  </g>
  <g id="arrowUp" transform="translate(30 24)">
    <use xlink:href="#rim"/>
    <path pointer-events="none" fill="none" stroke="white" stroke-width="1.5" d="M0,-3.0v7 M-2.5,-0.5L0,-3.0L2.5,-0.5"/>
  </g>
  <g id="arrowRight" transform="rotate(90) translate(36 -43)">
    <use xlink:href="#rim"/>
    <path pointer-events="none" fill="none" stroke="white" stroke-width="1.5" d="M0,-3.0v7 M-2.5,-0.5L0,-3.0L2.5,-0.5"/>
  </g>
  <g id="arrowDown" transform="rotate(180) translate(-30 -48)">
    <use xlink:href="#rim"/>
    <path pointer-events="none" fill="none" stroke="white" stroke-width="1.5" d="M0,-3.0v7 M-2.5,-0.5L0,-3.0L2.5,-0.5"/>
  </g>
  <g id="arrowLeft" transform="rotate(270) translate(-36 17)">
    <use xlink:href="#rim"/>
    <path pointer-events="none" fill="none" stroke="white" stroke-width="1.5" d="M0,-3.0v7 M-2.5,-0.5L0,-3.0L2.5,-0.5"/>
  </g>
  <g id="resetDef">
    <use xlink:href="#rim2" fill="#404040"><set attributeName="fill" to="#808080" begin="reset.mouseover" end="reset.mouseout"/></use>
  </g>
</defs>
<script type="application/ecmascript">
var viewWidth = 2017;
var viewHeight = 548;
var sectionId = 'dynsection-0';
</script>
<script type="application/ecmascript" xlink:href="svg.min.js"/>
<svg id="graph" class="graph">
<g id="viewport">
<title>depicture_menu/src/core/domain/model/app/option.hpp</title>
<!-- Node1 -->
<g id="Node000001" class="node">
<title>Node1</title>
<g id="a_Node000001"><a xlink:title=" ">
<polygon fill="#999999" stroke="#666666" points="1298.62,-540 1178.38,-540 1178.38,-496 1298.62,-496 1298.62,-540"/>
<text xml:space="preserve" text-anchor="start" x="1186.38" y="-526.5" font-family="Helvetica,sans-Serif" font-size="10.00">depicture_menu/src</text>
<text xml:space="preserve" text-anchor="start" x="1186.38" y="-514.5" font-family="Helvetica,sans-Serif" font-size="10.00">/core/domain/model/app</text>
<text xml:space="preserve" text-anchor="middle" x="1238.5" y="-502.5" font-family="Helvetica,sans-Serif" font-size="10.00">/option.hpp</text>
</a>
</g>
</g>
<!-- Node2 -->
<g id="Node000002" class="node">
<title>Node2</title>
<g id="a_Node000002"><a xlink:href="app__ids_8hpp.html" target="_top" xlink:title=" ">
<polygon fill="white" stroke="#666666" points="1272.75,-380 1204.25,-380 1204.25,-360 1272.75,-360 1272.75,-380"/>
<text xml:space="preserve" text-anchor="middle" x="1238.5" y="-366.5" font-family="Helvetica,sans-Serif" font-size="10.00">app_ids.hpp</text>
</a>
</g>
</g>
<!-- Node1&#45;&gt;Node2 -->
<g id="edge1_Node000001_Node000002" class="edge">
<title>Node1&#45;&gt;Node2</title>
<g id="a_edge1_Node000001_Node000002"><a xlink:title=" ">
<path fill="none" stroke="#63b8ff" d="M1229.04,-495.53C1224.92,-485.04 1220.56,-472.1 1218.5,-460 1215.22,-440.72 1214.44,-435.13 1218.5,-416 1220.36,-407.23 1224.05,-398.1 1227.76,-390.38"/>
<polygon fill="#63b8ff" stroke="#63b8ff" points="1230.81,-392.1 1232.3,-381.61 1224.59,-388.88 1230.81,-392.1"/>
</a>
</g>
</g>
<!-- Node35 -->
<g id="Node000035" class="node">
<title>Node35</title>
<g id="a_Node000035"><a xlink:href="create__application__option__event_8hpp.html" target="_top" xlink:title=" ">
<polygon fill="white" stroke="#666666" points="1327.12,-460 1227.88,-460 1227.88,-416 1327.12,-416 1327.12,-460"/>
<text xml:space="preserve" text-anchor="start" x="1235.88" y="-446.5" font-family="Helvetica,sans-Serif" font-size="10.00">../../event/create</text>
<text xml:space="preserve" text-anchor="start" x="1235.88" y="-434.5" font-family="Helvetica,sans-Serif" font-size="10.00">_application_option</text>
<text xml:space="preserve" text-anchor="middle" x="1277.5" y="-422.5" font-family="Helvetica,sans-Serif" font-size="10.00">_event.hpp</text>
</a>
</g>
</g>
<!-- Node1&#45;&gt;Node35 -->
<g id="edge47_Node000001_Node000035" class="edge">
<title>Node1&#45;&gt;Node35</title>
<g id="a_edge47_Node000001_Node000035"><a xlink:title=" ">
<path fill="none" stroke="#63b8ff" d="M1249.16,-495.69C1253.07,-487.86 1257.58,-478.83 1261.84,-470.31"/>
<polygon fill="#63b8ff" stroke="#63b8ff" points="1264.84,-472.15 1266.18,-461.64 1258.58,-469.02 1264.84,-472.15"/>
</a>
</g>
</g>
<!-- Node41 -->
<g id="Node000041" class="node">
<title>Node41</title>
<g id="a_Node000041"><a xlink:href="model_2entity_8hpp.html" target="_top" xlink:title=" ">
<polygon fill="white" stroke="#666666" points="1051.25,-380 907.75,-380 907.75,-360 1051.25,-360 1051.25,-380"/>
<text xml:space="preserve" text-anchor="middle" x="979.5" y="-366.5" font-family="Helvetica,sans-Serif" font-size="10.00">core/domain/model/entity.hpp</text>
</a>
</g>
</g>
<!-- Node1&#45;&gt;Node41 -->
<g id="edge55_Node000001_Node000041" class="edge">
<title>Node1&#45;&gt;Node41</title>
<g id="a_edge55_Node000001_Node000041"><a xlink:title=" ">
<path fill="none" stroke="#63b8ff" d="M1200.56,-495.61C1147.38,-465.63 1052.01,-411.87 1005.9,-385.88"/>
<polygon fill="#63b8ff" stroke="#63b8ff" points="1007.81,-382.94 997.38,-381.08 1004.37,-389.04 1007.81,-382.94"/>
</a>
</g>
</g>
<!-- Node42 -->
<g id="Node000042" class="node">
<title>Node42</title>
<g id="a_Node000042"><a xlink:title=" ">
<polygon fill="#e0e0e0" stroke="#999999" points="1497.75,-448 1345.25,-448 1345.25,-428 1497.75,-428 1497.75,-448"/>
<text xml:space="preserve" text-anchor="middle" x="1421.5" y="-434.5" font-family="Helvetica,sans-Serif" font-size="10.00">boost/uuid/string_generator.hpp</text>
</a>
</g>
</g>
<!-- Node1&#45;&gt;Node42 -->
<g id="edge60_Node000001_Node000042" class="edge">
<title>Node1&#45;&gt;Node42</title>
<g id="a_edge60_Node000001_Node000042"><a xlink:title=" ">
<path fill="none" stroke="#63b8ff" d="M1288.51,-495.69C1320.46,-482.07 1360.97,-464.8 1388.84,-452.92"/>
<polygon fill="#63b8ff" stroke="#63b8ff" points="1390,-456.23 1397.83,-449.09 1387.26,-449.79 1390,-456.23"/>
</a>
</g>
</g>
<!-- Node3 -->
<g id="Node000003" class="node">
<title>Node3</title>
<g id="a_Node000003"><a xlink:href="model_2entity__id_8hpp.html" target="_top" xlink:title=" ">
<polygon fill="white" stroke="#666666" points="1278.75,-324 1198.25,-324 1198.25,-304 1278.75,-304 1278.75,-324"/>
<text xml:space="preserve" text-anchor="middle" x="1238.5" y="-310.5" font-family="Helvetica,sans-Serif" font-size="10.00">../entity_id.hpp</text>
</a>
</g>
</g>
<!-- Node2&#45;&gt;Node3 -->
<g id="edge2_Node000002_Node000003" class="edge">
<title>Node2&#45;&gt;Node3</title>
<g id="a_edge2_Node000002_Node000003"><a xlink:title=" ">
<path fill="none" stroke="#63b8ff" d="M1238.5,-359.59C1238.5,-353.01 1238.5,-343.96 1238.5,-335.73"/>
<polygon fill="#63b8ff" stroke="#63b8ff" points="1242,-335.81 1238.5,-325.81 1235,-335.81 1242,-335.81"/>
</a>
</g>
</g>
<!-- Node4 -->
<g id="Node000004" class="node">
<title>Node4</title>
<g id="a_Node000004"><a xlink:href="model_2value__object_8hpp.html" target="_top" xlink:title=" ">
<polygon fill="white" stroke="#666666" points="1024.25,-262 934.75,-262 934.75,-242 1024.25,-242 1024.25,-262"/>
<text xml:space="preserve" text-anchor="middle" x="979.5" y="-248.5" font-family="Helvetica,sans-Serif" font-size="10.00">value_object.hpp</text>
</a>
</g>
</g>
<!-- Node3&#45;&gt;Node4 -->
<g id="edge3_Node000003_Node000004" class="edge">
<title>Node3&#45;&gt;Node4</title>
<g id="a_edge3_Node000003_Node000004"><a xlink:title=" ">
<path fill="none" stroke="#63b8ff" d="M1197.89,-304.77C1156.43,-296.21 1090.26,-282.1 1033.5,-268 1030.21,-267.18 1026.81,-266.31 1023.4,-265.41"/>
<polygon fill="#63b8ff" stroke="#63b8ff" points="1024.58,-262.1 1014.01,-262.88 1022.76,-268.86 1024.58,-262.1"/>
</a>
</g>
</g>
<!-- Node13 -->
<g id="Node000013" class="node">
<title>Node13</title>
<g id="a_Node000013"><a xlink:title=" ">
<polygon fill="#e0e0e0" stroke="#999999" points="953.88,-144 859.12,-144 859.12,-112 953.88,-112 953.88,-144"/>
<text xml:space="preserve" text-anchor="start" x="867.12" y="-130.5" font-family="Helvetica,sans-Serif" font-size="10.00">boost/serialization</text>
<text xml:space="preserve" text-anchor="middle" x="906.5" y="-118.5" font-family="Helvetica,sans-Serif" font-size="10.00">/access.hpp</text>
</a>
</g>
</g>
<!-- Node3&#45;&gt;Node13 -->
<g id="edge41_Node000003_Node000013" class="edge">
<title>Node3&#45;&gt;Node13</title>
<g id="a_edge41_Node000003_Node000013"><a xlink:title=" ">
<path fill="none" stroke="#63b8ff" d="M1198.04,-313C1122.19,-312.1 962.88,-305.64 925.5,-268 896.41,-238.71 897.51,-187.27 901.58,-155.85"/>
<polygon fill="#63b8ff" stroke="#63b8ff" points="905.03,-156.4 903.06,-145.99 898.11,-155.36 905.03,-156.4"/>
</a>
</g>
</g>
<!-- Node29 -->
<g id="Node000029" class="node">
<title>Node29</title>
<g id="a_Node000029"><a xlink:title=" ">
<polygon fill="#e0e0e0" stroke="#999999" points="1690.88,-200 1590.12,-200 1590.12,-180 1690.88,-180 1690.88,-200"/>
<text xml:space="preserve" text-anchor="middle" x="1640.5" y="-186.5" font-family="Helvetica,sans-Serif" font-size="10.00">boost/uuid/uuid.hpp</text>
</a>
</g>
</g>
<!-- Node3&#45;&gt;Node29 -->
<g id="edge43_Node000003_Node000029" class="edge">
<title>Node3&#45;&gt;Node29</title>
<g id="a_edge43_Node000003_Node000029"><a xlink:title=" ">
<path fill="none" stroke="#63b8ff" d="M1278.96,-312.58C1395.76,-310.94 1727.2,-303.21 1759.5,-268 1769.11,-257.52 1767.58,-247.7 1759.5,-236 1746.34,-216.96 1724.02,-205.96 1702.23,-199.62"/>
<polygon fill="#63b8ff" stroke="#63b8ff" points="1703.31,-196.28 1692.75,-197.17 1701.55,-203.06 1703.31,-196.28"/>
</a>
</g>
</g>
<!-- Node30 -->
<g id="Node000030" class="node">
<title>Node30</title>
<g id="a_Node000030"><a xlink:title=" ">
<polygon fill="#e0e0e0" stroke="#999999" points="1170.38,-262 1042.62,-262 1042.62,-242 1170.38,-242 1170.38,-262"/>
<text xml:space="preserve" text-anchor="middle" x="1106.5" y="-248.5" font-family="Helvetica,sans-Serif" font-size="10.00">boost/functional/hash.hpp</text>
</a>
</g>
</g>
<!-- Node3&#45;&gt;Node30 -->
<g id="edge40_Node000003_Node000030" class="edge">
<title>Node3&#45;&gt;Node30</title>
<g id="a_edge40_Node000003_Node000030"><a xlink:title=" ">
<path fill="none" stroke="#63b8ff" d="M1217.88,-303.62C1196.27,-293.81 1162.1,-278.27 1137.3,-267"/>
<polygon fill="#63b8ff" stroke="#63b8ff" points="1138.91,-263.89 1128.36,-262.94 1136.01,-270.26 1138.91,-263.89"/>
</a>
</g>
</g>
<!-- Node31 -->
<g id="Node000031" class="node">
<title>Node31</title>
<g id="a_Node000031"><a xlink:title=" ">
<polygon fill="#e0e0e0" stroke="#999999" points="1288.12,-268 1188.88,-268 1188.88,-236 1288.12,-236 1288.12,-268"/>
<text xml:space="preserve" text-anchor="start" x="1196.88" y="-254.5" font-family="Helvetica,sans-Serif" font-size="10.00">boost/serialization</text>
<text xml:space="preserve" text-anchor="middle" x="1238.5" y="-242.5" font-family="Helvetica,sans-Serif" font-size="10.00">/array_wrapper.hpp</text>
</a>
</g>
</g>
<!-- Node3&#45;&gt;Node31 -->
<g id="edge42_Node000003_Node000031" class="edge">
<title>Node3&#45;&gt;Node31</title>
<g id="a_edge42_Node000003_Node000031"><a xlink:title=" ">
<path fill="none" stroke="#63b8ff" d="M1238.5,-303.62C1238.5,-297.1 1238.5,-288.05 1238.5,-279.4"/>
<polygon fill="#63b8ff" stroke="#63b8ff" points="1242,-279.65 1238.5,-269.65 1235,-279.65 1242,-279.65"/>
</a>
</g>
</g>
<!-- Node32 -->
<g id="Node000032" class="node">
<title>Node32</title>
<g id="a_Node000032"><a xlink:title=" ">
<polygon fill="#e0e0e0" stroke="#999999" points="1458.38,-262 1306.62,-262 1306.62,-242 1458.38,-242 1458.38,-262"/>
<text xml:space="preserve" text-anchor="middle" x="1382.5" y="-248.5" font-family="Helvetica,sans-Serif" font-size="10.00">boost/uuid/uuid_generators.hpp</text>
</a>
</g>
</g>
<!-- Node3&#45;&gt;Node32 -->
<g id="edge44_Node000003_Node000032" class="edge">
<title>Node3&#45;&gt;Node32</title>
<g id="a_edge44_Node000003_Node000032"><a xlink:title=" ">
<path fill="none" stroke="#63b8ff" d="M1261,-303.62C1284.78,-293.72 1322.51,-277.99 1349.62,-266.7"/>
<polygon fill="#63b8ff" stroke="#63b8ff" points="1350.88,-269.97 1358.76,-262.89 1348.18,-263.51 1350.88,-269.97"/>
</a>
</g>
</g>
<!-- Node33 -->
<g id="Node000033" class="node">
<title>Node33</title>
<g id="a_Node000033"><a xlink:title=" ">
<polygon fill="#e0e0e0" stroke="#999999" points="1590.25,-262 1476.75,-262 1476.75,-242 1590.25,-242 1590.25,-262"/>
<text xml:space="preserve" text-anchor="middle" x="1533.5" y="-248.5" font-family="Helvetica,sans-Serif" font-size="10.00">boost/uuid/uuid_io.hpp</text>
</a>
</g>
</g>
<!-- Node3&#45;&gt;Node33 -->
<g id="edge45_Node000003_Node000033" class="edge">
<title>Node3&#45;&gt;Node33</title>
<g id="a_edge45_Node000003_Node000033"><a xlink:title=" ">
<path fill="none" stroke="#63b8ff" d="M1279.11,-305.39C1324.95,-296.72 1401.7,-281.94 1467.5,-268 1472.09,-267.03 1476.86,-265.99 1481.63,-264.94"/>
<polygon fill="#63b8ff" stroke="#63b8ff" points="1482.23,-268.39 1491.22,-262.8 1480.7,-261.56 1482.23,-268.39"/>
</a>
</g>
</g>
<!-- Node34 -->
<g id="Node000034" class="node">
<title>Node34</title>
<g id="a_Node000034"><a xlink:title=" ">
<polygon fill="#e0e0e0" stroke="#999999" points="1750.5,-262 1608.5,-262 1608.5,-242 1750.5,-242 1750.5,-262"/>
<text xml:space="preserve" text-anchor="middle" x="1679.5" y="-248.5" font-family="Helvetica,sans-Serif" font-size="10.00">boost/uuid/uuid_serialize.hpp</text>
</a>
</g>
</g>
<!-- Node3&#45;&gt;Node34 -->
<g id="edge46_Node000003_Node000034" class="edge">
<title>Node3&#45;&gt;Node34</title>
<g id="a_edge46_Node000003_Node000034"><a xlink:title=" ">
<path fill="none" stroke="#63b8ff" d="M1279.22,-308.75C1346.2,-301.57 1483.74,-286.05 1599.5,-268 1606.37,-266.93 1613.56,-265.71 1620.69,-264.45"/>
<polygon fill="#63b8ff" stroke="#63b8ff" points="1621.07,-267.94 1630.29,-262.71 1619.83,-261.05 1621.07,-267.94"/>
</a>
</g>
</g>
<!-- Node5 -->
<g id="Node000005" class="node">
<title>Node5</title>
<g id="a_Node000005"><a xlink:href="model_2presistence_8hpp.html" target="_top" xlink:title=" ">
<polygon fill="white" stroke="#666666" points="737,-200 652,-200 652,-180 737,-180 737,-200"/>
<text xml:space="preserve" text-anchor="middle" x="694.5" y="-186.5" font-family="Helvetica,sans-Serif" font-size="10.00">presistence.hpp</text>
</a>
</g>
</g>
<!-- Node4&#45;&gt;Node5 -->
<g id="edge4_Node000004_Node000005" class="edge">
<title>Node4&#45;&gt;Node5</title>
<g id="a_edge4_Node000004_Node000005"><a xlink:title=" ">
<path fill="none" stroke="#63b8ff" d="M934.66,-241.56C884.17,-230.93 802.16,-213.67 748.27,-202.32"/>
<polygon fill="#63b8ff" stroke="#63b8ff" points="749.21,-198.94 738.7,-200.31 747.77,-205.79 749.21,-198.94"/>
</a>
</g>
</g>
<!-- Node7 -->
<g id="Node000007" class="node">
<title>Node7</title>
<g id="a_Node000007"><a xlink:title=" ">
<polygon fill="#e0e0e0" stroke="#999999" points="1160.88,-76 1066.12,-76 1066.12,-56 1160.88,-56 1160.88,-76"/>
<text xml:space="preserve" text-anchor="middle" x="1113.5" y="-62.5" font-family="Helvetica,sans-Serif" font-size="10.00">boost/pfr/core.hpp</text>
</a>
</g>
</g>
<!-- Node4&#45;&gt;Node7 -->
<g id="edge35_Node000004_Node000007" class="edge">
<title>Node4&#45;&gt;Node7</title>
<g id="a_edge35_Node000004_Node000007"><a xlink:title=" ">
<path fill="none" stroke="#63b8ff" d="M988.34,-241.64C1002,-227.44 1029.41,-199.98 1055.5,-180 1079.59,-161.56 1098.75,-170.51 1113.5,-144 1123.13,-126.68 1121.61,-103.61 1118.62,-87.25"/>
<polygon fill="#63b8ff" stroke="#63b8ff" points="1122.1,-86.75 1116.54,-77.73 1115.26,-88.25 1122.1,-86.75"/>
</a>
</g>
</g>
<!-- Node8 -->
<g id="Node000008" class="node">
<title>Node8</title>
<g id="a_Node000008"><a xlink:title=" ">
<polygon fill="#e0e0e0" stroke="#999999" points="1048.12,-76 1008.88,-76 1008.88,-56 1048.12,-56 1048.12,-76"/>
<text xml:space="preserve" text-anchor="middle" x="1028.5" y="-62.5" font-family="Helvetica,sans-Serif" font-size="10.00">utility</text>
</a>
</g>
</g>
<!-- Node4&#45;&gt;Node8 -->
<g id="edge39_Node000004_Node000008" class="edge">
<title>Node4&#45;&gt;Node8</title>
<g id="a_edge39_Node000004_Node000008"><a xlink:title=" ">
<path fill="none" stroke="#63b8ff" d="M1013.48,-241.53C1020.12,-239.69 1027.03,-237.78 1033.5,-236 1092.13,-219.86 1128.59,-248.33 1165.5,-200 1203.65,-150.05 1110.15,-101.14 1059.08,-79.12"/>
<polygon fill="#63b8ff" stroke="#63b8ff" points="1060.56,-75.95 1049.98,-75.31 1057.85,-82.41 1060.56,-75.95"/>
</a>
</g>
</g>
<!-- Node20 -->
<g id="Node000020" class="node">
<title>Node20</title>
<g id="a_Node000020"><a xlink:href="concepts_8hpp.html" target="_top" xlink:title=" ">
<polygon fill="white" stroke="#666666" points="1008.75,-200 934.25,-200 934.25,-180 1008.75,-180 1008.75,-200"/>
<text xml:space="preserve" text-anchor="middle" x="971.5" y="-186.5" font-family="Helvetica,sans-Serif" font-size="10.00">concepts.hpp</text>
</a>
</g>
</g>
<!-- Node4&#45;&gt;Node20 -->
<g id="edge20_Node000004_Node000020" class="edge">
<title>Node4&#45;&gt;Node20</title>
<g id="a_edge20_Node000004_Node000020"><a xlink:title=" ">
<path fill="none" stroke="#63b8ff" d="M978.25,-241.62C977.18,-233.56 975.59,-221.65 974.22,-211.41"/>
<polygon fill="#63b8ff" stroke="#63b8ff" points="977.71,-211.06 972.92,-201.61 970.77,-211.99 977.71,-211.06"/>
</a>
</g>
</g>
<!-- Node21 -->
<g id="Node000021" class="node">
<title>Node21</title>
<g id="a_Node000021"><a xlink:href="reflection_8hpp.html" target="_top" xlink:title=" ">
<polygon fill="white" stroke="#666666" points="1472.88,-200 1372.12,-200 1372.12,-180 1472.88,-180 1472.88,-200"/>
<text xml:space="preserve" text-anchor="middle" x="1422.5" y="-186.5" font-family="Helvetica,sans-Serif" font-size="10.00">utility/reflection.hpp</text>
</a>
</g>
</g>
<!-- Node4&#45;&gt;Node21 -->
<g id="edge22_Node000004_Node000021" class="edge">
<title>Node4&#45;&gt;Node21</title>
<g id="a_edge22_Node000004_Node000021"><a xlink:title=" ">
<path fill="none" stroke="#63b8ff" d="M1010.14,-241.57C1017.72,-239.49 1025.86,-237.47 1033.5,-236 1176.2,-208.46 1214.31,-218.12 1358.5,-200 1359.18,-199.91 1359.86,-199.83 1360.55,-199.74"/>
<polygon fill="#63b8ff" stroke="#63b8ff" points="1360.9,-203.22 1370.36,-198.46 1359.99,-196.28 1360.9,-203.22"/>
</a>
</g>
</g>
<!-- Node23 -->
<g id="Node000023" class="node">
<title>Node23</title>
<g id="a_Node000023"><a xlink:title=" ">
<polygon fill="#e0e0e0" stroke="#999999" points="1436.5,-76 1312.5,-76 1312.5,-56 1436.5,-56 1436.5,-76"/>
<text xml:space="preserve" text-anchor="middle" x="1374.5" y="-62.5" font-family="Helvetica,sans-Serif" font-size="10.00">boost/pfr/core_name.hpp</text>
</a>
</g>
</g>
<!-- Node4&#45;&gt;Node23 -->
<g id="edge36_Node000004_Node000023" class="edge">
<title>Node4&#45;&gt;Node23</title>
<g id="a_edge36_Node000004_Node000023"><a xlink:title=" ">
<path fill="none" stroke="#63b8ff" d="M1012.87,-241.53C1019.68,-239.66 1026.81,-237.73 1033.5,-236 1165.23,-201.91 1220.55,-230.6 1325.5,-144 1344.35,-128.45 1358.27,-103.69 1366.36,-86.46"/>
<polygon fill="#63b8ff" stroke="#63b8ff" points="1369.35,-88.34 1370.21,-77.78 1362.96,-85.5 1369.35,-88.34"/>
</a>
</g>
</g>
<!-- Node28 -->
<g id="Node000028" class="node">
<title>Node28</title>
<g id="a_Node000028"><a xlink:title=" ">
<polygon fill="#e0e0e0" stroke="#999999" points="1156.38,-200 1064.62,-200 1064.62,-180 1156.38,-180 1156.38,-200"/>
<text xml:space="preserve" text-anchor="middle" x="1110.5" y="-186.5" font-family="Helvetica,sans-Serif" font-size="10.00">boost/pfr/ops.hpp</text>
</a>
</g>
</g>
<!-- Node4&#45;&gt;Node28 -->
<g id="edge37_Node000004_Node000028" class="edge">
<title>Node4&#45;&gt;Node28</title>
<g id="a_edge37_Node000004_Node000028"><a xlink:title=" ">
<path fill="none" stroke="#63b8ff" d="M999.97,-241.62C1021.41,-231.81 1055.32,-216.27 1079.93,-205"/>
<polygon fill="#63b8ff" stroke="#63b8ff" points="1081.16,-208.29 1088.8,-200.94 1078.25,-201.92 1081.16,-208.29"/>
</a>
</g>
</g>
<!-- Node4&#45;&gt;Node29 -->
<g id="edge38_Node000004_Node000029" class="edge">
<title>Node4&#45;&gt;Node29</title>
<g id="a_edge38_Node000004_Node000029"><a xlink:title=" ">
<path fill="none" stroke="#63b8ff" d="M1009.53,-241.53C1017.27,-239.4 1025.64,-237.37 1033.5,-236 1086.14,-226.83 1434.55,-204.06 1578.47,-194.9"/>
<polygon fill="#63b8ff" stroke="#63b8ff" points="1578.43,-198.41 1588.19,-194.29 1577.99,-191.43 1578.43,-198.41"/>
</a>
</g>
</g>
<!-- Node6 -->
<g id="Node000006" class="node">
<title>Node6</title>
<g id="a_Node000006"><a xlink:href="model__base__concepts_8hpp.html" target="_top" xlink:title=" ">
<polygon fill="white" stroke="#666666" points="1104.62,-138 972.38,-138 972.38,-118 1104.62,-118 1104.62,-138"/>
<text xml:space="preserve" text-anchor="middle" x="1038.5" y="-124.5" font-family="Helvetica,sans-Serif" font-size="10.00">model_base_concepts.hpp</text>
</a>
</g>
</g>
<!-- Node5&#45;&gt;Node6 -->
<g id="edge5_Node000005_Node000006" class="edge">
<title>Node5&#45;&gt;Node6</title>
<g id="a_edge5_Node000005_Node000006"><a xlink:title=" ">
<path fill="none" stroke="#63b8ff" d="M737.27,-182.2C790.22,-173.7 883.14,-158.49 962.5,-144 968.37,-142.93 974.49,-141.78 980.59,-140.61"/>
<polygon fill="#63b8ff" stroke="#63b8ff" points="980.87,-144.12 990.03,-138.78 979.54,-137.25 980.87,-144.12"/>
</a>
</g>
</g>
<!-- Node5&#45;&gt;Node7 -->
<g id="edge12_Node000005_Node000007" class="edge">
<title>Node5&#45;&gt;Node7</title>
<g id="a_edge12_Node000005_Node000007"><a xlink:title=" ">
<path fill="none" stroke="#63b8ff" d="M727.9,-179.57C752.3,-171.91 785.67,-159.8 812.5,-144 831.53,-132.8 830.47,-121.3 850.5,-112 855.13,-109.85 978.31,-89.29 1054.43,-76.71"/>
<polygon fill="#63b8ff" stroke="#63b8ff" points="1054.97,-80.17 1064.26,-75.09 1053.83,-73.27 1054.97,-80.17"/>
</a>
</g>
</g>
<!-- Node9 -->
<g id="Node000009" class="node">
<title>Node9</title>
<g id="a_Node000009"><a xlink:href="str__conv_8hpp.html" target="_top" xlink:title=" ">
<polygon fill="white" stroke="#666666" points="152.38,-138 54.62,-138 54.62,-118 152.38,-118 152.38,-138"/>
<text xml:space="preserve" text-anchor="middle" x="103.5" y="-124.5" font-family="Helvetica,sans-Serif" font-size="10.00">utility/str_conv.hpp</text>
</a>
</g>
</g>
<!-- Node5&#45;&gt;Node9 -->
<g id="edge8_Node000005_Node000009" class="edge">
<title>Node5&#45;&gt;Node9</title>
<g id="a_edge8_Node000005_Node000009"><a xlink:title=" ">
<path fill="none" stroke="#63b8ff" d="M651.7,-187.84C560.81,-184.83 342.08,-174.75 161.5,-144 156.83,-143.2 151.98,-142.22 147.17,-141.13"/>
<polygon fill="#63b8ff" stroke="#63b8ff" points="148.13,-137.76 137.58,-138.82 146.48,-144.57 148.13,-137.76"/>
</a>
</g>
</g>
<!-- Node12 -->
<g id="Node000012" class="node">
<title>Node12</title>
<g id="a_Node000012"><a xlink:title=" ">
<polygon fill="#e0e0e0" stroke="#999999" points="276.12,-144 170.88,-144 170.88,-112 276.12,-112 276.12,-144"/>
<text xml:space="preserve" text-anchor="start" x="178.88" y="-130.5" font-family="Helvetica,sans-Serif" font-size="10.00">boost/archive/basic</text>
<text xml:space="preserve" text-anchor="middle" x="223.5" y="-118.5" font-family="Helvetica,sans-Serif" font-size="10.00">_binary_iarchive.hpp</text>
</a>
</g>
</g>
<!-- Node5&#45;&gt;Node12 -->
<g id="edge11_Node000005_Node000012" class="edge">
<title>Node5&#45;&gt;Node12</title>
<g id="a_edge11_Node000005_Node000012"><a xlink:title=" ">
<path fill="none" stroke="#63b8ff" d="M651.56,-186.09C578.75,-180.76 426.28,-167.91 287.73,-144.24"/>
<polygon fill="#63b8ff" stroke="#63b8ff" points="288.45,-140.82 278,-142.55 287.25,-147.71 288.45,-140.82"/>
</a>
</g>
</g>
<!-- Node5&#45;&gt;Node13 -->
<g id="edge13_Node000005_Node000013" class="edge">
<title>Node5&#45;&gt;Node13</title>
<g id="a_edge13_Node000005_Node000013"><a xlink:title=" ">
<path fill="none" stroke="#63b8ff" d="M727.62,-179.62C759.77,-170.53 809.25,-156.52 848.03,-145.55"/>
<polygon fill="#63b8ff" stroke="#63b8ff" points="848.53,-149.04 857.2,-142.95 846.63,-142.31 848.53,-149.04"/>
</a>
</g>
</g>
<!-- Node14 -->
<g id="Node000014" class="node">
<title>Node14</title>
<g id="a_Node000014"><a xlink:title=" ">
<polygon fill="#e0e0e0" stroke="#999999" points="388.88,-144 294.12,-144 294.12,-112 388.88,-112 388.88,-144"/>
<text xml:space="preserve" text-anchor="start" x="302.12" y="-130.5" font-family="Helvetica,sans-Serif" font-size="10.00">boost/serialization</text>
<text xml:space="preserve" text-anchor="middle" x="341.5" y="-118.5" font-family="Helvetica,sans-Serif" font-size="10.00">/optional.hpp</text>
</a>
</g>
</g>
<!-- Node5&#45;&gt;Node14 -->
<g id="edge14_Node000005_Node000014" class="edge">
<title>Node5&#45;&gt;Node14</title>
<g id="a_edge14_Node000005_Node000014"><a xlink:title=" ">
<path fill="none" stroke="#63b8ff" d="M651.6,-183.93C595.94,-177.04 495.63,-163.54 400.3,-144.23"/>
<polygon fill="#63b8ff" stroke="#63b8ff" points="401.29,-140.86 390.79,-142.28 399.88,-147.72 401.29,-140.86"/>
</a>
</g>
</g>
<!-- Node15 -->
<g id="Node000015" class="node">
<title>Node15</title>
<g id="a_Node000015"><a xlink:title=" ">
<polygon fill="#e0e0e0" stroke="#999999" points="511.75,-144 407.25,-144 407.25,-112 511.75,-112 511.75,-144"/>
<text xml:space="preserve" text-anchor="start" x="415.25" y="-130.5" font-family="Helvetica,sans-Serif" font-size="10.00">boost/serialization</text>
<text xml:space="preserve" text-anchor="middle" x="459.5" y="-118.5" font-family="Helvetica,sans-Serif" font-size="10.00">/unordered_map.hpp</text>
</a>
</g>
</g>
<!-- Node5&#45;&gt;Node15 -->
<g id="edge15_Node000005_Node000015" class="edge">
<title>Node5&#45;&gt;Node15</title>
<g id="a_edge15_Node000005_Node000015"><a xlink:title=" ">
<path fill="none" stroke="#63b8ff" d="M657.52,-179.56C621.49,-170.36 566,-156.19 522.92,-145.19"/>
<polygon fill="#63b8ff" stroke="#63b8ff" points="523.99,-141.85 513.44,-142.77 522.26,-148.64 523.99,-141.85"/>
</a>
</g>
</g>
<!-- Node16 -->
<g id="Node000016" class="node">
<title>Node16</title>
<g id="a_Node000016"><a xlink:title=" ">
<polygon fill="#e0e0e0" stroke="#999999" points="629.12,-144 529.88,-144 529.88,-112 629.12,-112 629.12,-144"/>
<text xml:space="preserve" text-anchor="start" x="537.88" y="-130.5" font-family="Helvetica,sans-Serif" font-size="10.00">boost/serialization</text>
<text xml:space="preserve" text-anchor="middle" x="579.5" y="-118.5" font-family="Helvetica,sans-Serif" font-size="10.00">/unordered_set.hpp</text>
</a>
</g>
</g>
<!-- Node5&#45;&gt;Node16 -->
<g id="edge16_Node000005_Node000016" class="edge">
<title>Node5&#45;&gt;Node16</title>
<g id="a_edge16_Node000005_Node000016"><a xlink:title=" ">
<path fill="none" stroke="#63b8ff" d="M676.53,-179.62C661.22,-171.63 638.65,-159.86 619.13,-149.68"/>
<polygon fill="#63b8ff" stroke="#63b8ff" points="620.79,-146.6 610.31,-145.07 617.55,-152.8 620.79,-146.6"/>
</a>
</g>
</g>
<!-- Node17 -->
<g id="Node000017" class="node">
<title>Node17</title>
<g id="a_Node000017"><a xlink:title=" ">
<polygon fill="#e0e0e0" stroke="#999999" points="741.88,-144 647.12,-144 647.12,-112 741.88,-112 741.88,-144"/>
<text xml:space="preserve" text-anchor="start" x="655.12" y="-130.5" font-family="Helvetica,sans-Serif" font-size="10.00">boost/serialization</text>
<text xml:space="preserve" text-anchor="middle" x="694.5" y="-118.5" font-family="Helvetica,sans-Serif" font-size="10.00">/vector.hpp</text>
</a>
</g>
</g>
<!-- Node5&#45;&gt;Node17 -->
<g id="edge17_Node000005_Node000017" class="edge">
<title>Node5&#45;&gt;Node17</title>
<g id="a_edge17_Node000005_Node000017"><a xlink:title=" ">
<path fill="none" stroke="#63b8ff" d="M694.5,-179.62C694.5,-173.1 694.5,-164.05 694.5,-155.4"/>
<polygon fill="#63b8ff" stroke="#63b8ff" points="698,-155.65 694.5,-145.65 691,-155.65 698,-155.65"/>
</a>
</g>
</g>
<!-- Node18 -->
<g id="Node000018" class="node">
<title>Node18</title>
<g id="a_Node000018"><a xlink:title=" ">
<polygon fill="#e0e0e0" stroke="#999999" points="803.38,-138 759.62,-138 759.62,-118 803.38,-118 803.38,-138"/>
<text xml:space="preserve" text-anchor="middle" x="781.5" y="-124.5" font-family="Helvetica,sans-Serif" font-size="10.00">format</text>
</a>
</g>
</g>
<!-- Node5&#45;&gt;Node18 -->
<g id="edge18_Node000005_Node000018" class="edge">
<title>Node5&#45;&gt;Node18</title>
<g id="a_edge18_Node000005_Node000018"><a xlink:title=" ">
<path fill="none" stroke="#63b8ff" d="M708.09,-179.62C721.63,-170.29 742.65,-155.79 758.74,-144.7"/>
<polygon fill="#63b8ff" stroke="#63b8ff" points="760.51,-147.73 766.76,-139.17 756.54,-141.96 760.51,-147.73"/>
</a>
</g>
</g>
<!-- Node19 -->
<g id="Node000019" class="node">
<title>Node19</title>
<g id="a_Node000019"><a xlink:title=" ">
<polygon fill="#e0e0e0" stroke="#999999" points="37,-138 0,-138 0,-118 37,-118 37,-138"/>
<text xml:space="preserve" text-anchor="middle" x="18.5" y="-124.5" font-family="Helvetica,sans-Serif" font-size="10.00">tuple</text>
</a>
</g>
</g>
<!-- Node5&#45;&gt;Node19 -->
<g id="edge19_Node000005_Node000019" class="edge">
<title>Node5&#45;&gt;Node19</title>
<g id="a_edge19_Node000005_Node000019"><a xlink:title=" ">
<path fill="none" stroke="#63b8ff" d="M651.53,-188.45C525.68,-186.45 159.61,-177.82 45.5,-144 44.69,-143.76 43.88,-143.49 43.07,-143.2"/>
<polygon fill="#63b8ff" stroke="#63b8ff" points="44.76,-140.13 34.21,-139.12 41.83,-146.48 44.76,-140.13"/>
</a>
</g>
</g>
<!-- Node6&#45;&gt;Node7 -->
<g id="edge6_Node000006_Node000007" class="edge">
<title>Node6&#45;&gt;Node7</title>
<g id="a_edge6_Node000006_Node000007"><a xlink:title=" ">
<path fill="none" stroke="#63b8ff" d="M1050.22,-117.62C1061.73,-108.41 1079.53,-94.17 1093.33,-83.14"/>
<polygon fill="#63b8ff" stroke="#63b8ff" points="1095.3,-86.04 1100.93,-77.06 1090.93,-80.57 1095.3,-86.04"/>
</a>
</g>
</g>
<!-- Node6&#45;&gt;Node8 -->
<g id="edge7_Node000006_Node000008" class="edge">
<title>Node6&#45;&gt;Node8</title>
<g id="a_edge7_Node000006_Node000008"><a xlink:title=" ">
<path fill="none" stroke="#63b8ff" d="M1036.94,-117.62C1035.59,-109.56 1033.61,-97.65 1031.9,-87.41"/>
<polygon fill="#63b8ff" stroke="#63b8ff" points="1035.36,-86.89 1030.27,-77.61 1028.46,-88.05 1035.36,-86.89"/>
</a>
</g>
</g>
<!-- Node10 -->
<g id="Node000010" class="node">
<title>Node10</title>
<g id="a_Node000010"><a xlink:title=" ">
<polygon fill="#e0e0e0" stroke="#999999" points="123.5,-76 83.5,-76 83.5,-56 123.5,-56 123.5,-76"/>
<text xml:space="preserve" text-anchor="middle" x="103.5" y="-62.5" font-family="Helvetica,sans-Serif" font-size="10.00">string</text>
</a>
</g>
</g>
<!-- Node9&#45;&gt;Node10 -->
<g id="edge9_Node000009_Node000010" class="edge">
<title>Node9&#45;&gt;Node10</title>
<g id="a_edge9_Node000009_Node000010"><a xlink:title=" ">
<path fill="none" stroke="#63b8ff" d="M103.5,-117.62C103.5,-109.56 103.5,-97.65 103.5,-87.41"/>
<polygon fill="#63b8ff" stroke="#63b8ff" points="107,-87.63 103.5,-77.63 100,-87.63 107,-87.63"/>
</a>
</g>
</g>
<!-- Node11 -->
<g id="Node000011" class="node">
<title>Node11</title>
<g id="a_Node000011"><a xlink:title=" ">
<polygon fill="#e0e0e0" stroke="#999999" points="1269.25,-20 1203.75,-20 1203.75,0 1269.25,0 1269.25,-20"/>
<text xml:space="preserve" text-anchor="middle" x="1236.5" y="-6.5" font-family="Helvetica,sans-Serif" font-size="10.00">string_view</text>
</a>
</g>
</g>
<!-- Node9&#45;&gt;Node11 -->
<g id="edge10_Node000009_Node000011" class="edge">
<title>Node9&#45;&gt;Node11</title>
<g id="a_edge10_Node000009_Node000011"><a xlink:title=" ">
<path fill="none" stroke="#63b8ff" d="M136.43,-117.51C144.57,-115.44 153.3,-113.44 161.5,-112 557.45,-42.65 1044.36,-18.62 1192.01,-12.64"/>
<polygon fill="#63b8ff" stroke="#63b8ff" points="1191.89,-16.15 1201.74,-12.25 1191.61,-9.15 1191.89,-16.15"/>
</a>
</g>
</g>
<!-- Node20&#45;&gt;Node6 -->
<g id="edge21_Node000020_Node000006" class="edge">
<title>Node20&#45;&gt;Node6</title>
<g id="a_edge21_Node000020_Node000006"><a xlink:title=" ">
<path fill="none" stroke="#63b8ff" d="M981.97,-179.62C992.06,-170.59 1007.55,-156.72 1019.76,-145.78"/>
<polygon fill="#63b8ff" stroke="#63b8ff" points="1022.08,-148.4 1027.2,-139.12 1017.41,-143.19 1022.08,-148.4"/>
</a>
</g>
</g>
<!-- Node22 -->
<g id="Node000022" class="node">
<title>Node22</title>
<g id="a_Node000022"><a xlink:href="pfr__assign_8hpp.html" target="_top" xlink:title=" ">
<polygon fill="white" stroke="#666666" points="1505.75,-138 1383.25,-138 1383.25,-118 1505.75,-118 1505.75,-138"/>
<text xml:space="preserve" text-anchor="middle" x="1444.5" y="-124.5" font-family="Helvetica,sans-Serif" font-size="10.00">reflection/pfr_assign.hpp</text>
</a>
</g>
</g>
<!-- Node21&#45;&gt;Node22 -->
<g id="edge23_Node000021_Node000022" class="edge">
<title>Node21&#45;&gt;Node22</title>
<g id="a_edge23_Node000021_Node000022"><a xlink:title=" ">
<path fill="none" stroke="#63b8ff" d="M1425.94,-179.62C1428.96,-171.39 1433.45,-159.13 1437.26,-148.74"/>
<polygon fill="#63b8ff" stroke="#63b8ff" points="1440.48,-150.13 1440.64,-139.53 1433.91,-147.72 1440.48,-150.13"/>
</a>
</g>
</g>
<!-- Node26 -->
<g id="Node000026" class="node">
<title>Node26</title>
<g id="a_Node000026"><a xlink:href="reflection_2reflection_8hpp.html" target="_top" xlink:title=" ">
<polygon fill="white" stroke="#666666" points="1316.12,-138 1198.88,-138 1198.88,-118 1316.12,-118 1316.12,-138"/>
<text xml:space="preserve" text-anchor="middle" x="1257.5" y="-124.5" font-family="Helvetica,sans-Serif" font-size="10.00">reflection/reflection.hpp</text>
</a>
</g>
</g>
<!-- Node21&#45;&gt;Node26 -->
<g id="edge29_Node000021_Node000026" class="edge">
<title>Node21&#45;&gt;Node26</title>
<g id="a_edge29_Node000021_Node000026"><a xlink:title=" ">
<path fill="none" stroke="#63b8ff" d="M1396.72,-179.62C1369.07,-169.57 1324.95,-153.53 1293.8,-142.2"/>
<polygon fill="#63b8ff" stroke="#63b8ff" points="1295.39,-139.05 1284.79,-138.93 1293,-145.63 1295.39,-139.05"/>
</a>
</g>
</g>
<!-- Node22&#45;&gt;Node7 -->
<g id="edge24_Node000022_Node000007" class="edge">
<title>Node22&#45;&gt;Node7</title>
<g id="a_edge24_Node000022_Node000007"><a xlink:title=" ">
<path fill="none" stroke="#63b8ff" d="M1392.42,-117.56C1332.69,-106.73 1234.98,-89.02 1172.49,-77.69"/>
<polygon fill="#63b8ff" stroke="#63b8ff" points="1173.21,-74.27 1162.74,-75.93 1171.96,-81.15 1173.21,-74.27"/>
</a>
</g>
</g>
<!-- Node22&#45;&gt;Node11 -->
<g id="edge28_Node000022_Node000011" class="edge">
<title>Node22&#45;&gt;Node11</title>
<g id="a_edge28_Node000022_Node000011"><a xlink:title=" ">
<path fill="none" stroke="#63b8ff" d="M1447.91,-117.98C1452.85,-103.24 1459.91,-73.84 1445.5,-56 1425.2,-30.86 1335.83,-19.1 1280.74,-14.15"/>
<polygon fill="#63b8ff" stroke="#63b8ff" points="1281.31,-10.69 1271.05,-13.32 1280.71,-17.66 1281.31,-10.69"/>
</a>
</g>
</g>
<!-- Node22&#45;&gt;Node23 -->
<g id="edge25_Node000022_Node000023" class="edge">
<title>Node22&#45;&gt;Node23</title>
<g id="a_edge25_Node000022_Node000023"><a xlink:title=" ">
<path fill="none" stroke="#63b8ff" d="M1433.56,-117.62C1422.92,-108.5 1406.52,-94.45 1393.7,-83.46"/>
<polygon fill="#63b8ff" stroke="#63b8ff" points="1396.15,-80.95 1386.28,-77.1 1391.6,-86.26 1396.15,-80.95"/>
</a>
</g>
</g>
<!-- Node24 -->
<g id="Node000024" class="node">
<title>Node24</title>
<g id="a_Node000024"><a xlink:title=" ">
<polygon fill="#e0e0e0" stroke="#999999" points="1704.62,-76 1656.38,-76 1656.38,-56 1704.62,-56 1704.62,-76"/>
<text xml:space="preserve" text-anchor="middle" x="1680.5" y="-62.5" font-family="Helvetica,sans-Serif" font-size="10.00">cassert</text>
</a>
</g>
</g>
<!-- Node22&#45;&gt;Node24 -->
<g id="edge26_Node000022_Node000024" class="edge">
<title>Node22&#45;&gt;Node24</title>
<g id="a_edge26_Node000022_Node000024"><a xlink:title=" ">
<path fill="none" stroke="#63b8ff" d="M1481.63,-117.56C1526.44,-106.17 1601.21,-87.16 1645.18,-75.98"/>
<polygon fill="#63b8ff" stroke="#63b8ff" points="1645.9,-79.41 1654.72,-73.55 1644.17,-72.63 1645.9,-79.41"/>
</a>
</g>
</g>
<!-- Node25 -->
<g id="Node000025" class="node">
<title>Node25</title>
<g id="a_Node000025"><a xlink:title=" ">
<polygon fill="#e0e0e0" stroke="#999999" points="1430.62,-20 1382.38,-20 1382.38,0 1430.62,0 1430.62,-20"/>
<text xml:space="preserve" text-anchor="middle" x="1406.5" y="-6.5" font-family="Helvetica,sans-Serif" font-size="10.00">cstddef</text>
</a>
</g>
</g>
<!-- Node22&#45;&gt;Node25 -->
<g id="edge27_Node000022_Node000025" class="edge">
<title>Node22&#45;&gt;Node25</title>
<g id="a_edge27_Node000022_Node000025"><a xlink:title=" ">
<path fill="none" stroke="#63b8ff" d="M1454.86,-117.63C1468.77,-103.88 1490.43,-77.52 1478.5,-56 1470.39,-41.37 1455.33,-30.87 1441.07,-23.71"/>
<polygon fill="#63b8ff" stroke="#63b8ff" points="1442.86,-20.68 1432.31,-19.71 1439.95,-27.05 1442.86,-20.68"/>
</a>
</g>
</g>
<!-- Node26&#45;&gt;Node7 -->
<g id="edge33_Node000026_Node000007" class="edge">
<title>Node26&#45;&gt;Node7</title>
<g id="a_edge33_Node000026_Node000007"><a xlink:title=" ">
<path fill="none" stroke="#63b8ff" d="M1235,-117.62C1211.22,-107.72 1173.49,-91.99 1146.38,-80.7"/>
<polygon fill="#63b8ff" stroke="#63b8ff" points="1147.82,-77.51 1137.24,-76.89 1145.12,-83.97 1147.82,-77.51"/>
</a>
</g>
</g>
<!-- Node26&#45;&gt;Node23 -->
<g id="edge34_Node000026_Node000023" class="edge">
<title>Node26&#45;&gt;Node23</title>
<g id="a_edge34_Node000026_Node000023"><a xlink:title=" ">
<path fill="none" stroke="#63b8ff" d="M1275.78,-117.62C1294.67,-107.94 1324.4,-92.69 1346.31,-81.46"/>
<polygon fill="#63b8ff" stroke="#63b8ff" points="1347.7,-84.68 1355,-77 1344.51,-78.45 1347.7,-84.68"/>
</a>
</g>
</g>
<!-- Node27 -->
<g id="Node000027" class="node">
<title>Node27</title>
<g id="a_Node000027"><a xlink:href="constexpr__string_8hpp.html" target="_top" xlink:title=" ">
<polygon fill="white" stroke="#666666" points="1294.38,-76 1178.62,-76 1178.62,-56 1294.38,-56 1294.38,-76"/>
<text xml:space="preserve" text-anchor="middle" x="1236.5" y="-62.5" font-family="Helvetica,sans-Serif" font-size="10.00">../constexpr_string.hpp</text>
</a>
</g>
</g>
<!-- Node26&#45;&gt;Node27 -->
<g id="edge30_Node000026_Node000027" class="edge">
<title>Node26&#45;&gt;Node27</title>
<g id="a_edge30_Node000026_Node000027"><a xlink:title=" ">
<path fill="none" stroke="#63b8ff" d="M1254.22,-117.62C1251.34,-109.39 1247.04,-97.13 1243.41,-86.74"/>
<polygon fill="#63b8ff" stroke="#63b8ff" points="1246.8,-85.82 1240.19,-77.54 1240.19,-88.14 1246.8,-85.82"/>
</a>
</g>
</g>
<!-- Node27&#45;&gt;Node11 -->
<g id="edge32_Node000027_Node000011" class="edge">
<title>Node27&#45;&gt;Node11</title>
<g id="a_edge32_Node000027_Node000011"><a xlink:title=" ">
<path fill="none" stroke="#63b8ff" d="M1236.5,-55.59C1236.5,-49.01 1236.5,-39.96 1236.5,-31.73"/>
<polygon fill="#63b8ff" stroke="#63b8ff" points="1240,-31.81 1236.5,-21.81 1233,-31.81 1240,-31.81"/>
</a>
</g>
</g>
<!-- Node27&#45;&gt;Node25 -->
<g id="edge31_Node000027_Node000025" class="edge">
<title>Node27&#45;&gt;Node25</title>
<g id="a_edge31_Node000027_Node000025"><a xlink:title=" ">
<path fill="none" stroke="#63b8ff" d="M1266.11,-55.59C1295.34,-46.31 1340.05,-32.11 1371.13,-22.23"/>
<polygon fill="#63b8ff" stroke="#63b8ff" points="1372,-25.63 1380.47,-19.27 1369.88,-18.96 1372,-25.63"/>
</a>
</g>
</g>
<!-- Node35&#45;&gt;Node2 -->
<g id="edge48_Node000035_Node000002" class="edge">
<title>Node35&#45;&gt;Node2</title>
<g id="a_edge48_Node000035_Node000002"><a xlink:title=" ">
<path fill="none" stroke="#63b8ff" d="M1264.95,-415.75C1260.11,-407.57 1254.61,-398.27 1249.89,-390.28"/>
<polygon fill="#63b8ff" stroke="#63b8ff" points="1252.94,-388.55 1244.84,-381.72 1246.91,-392.11 1252.94,-388.55"/>
</a>
</g>
</g>
<!-- Node36 -->
<g id="Node000036" class="node">
<title>Node36</title>
<g id="a_Node000036"><a xlink:href="domain__event_8hpp.html" target="_top" xlink:title=" ">
<polygon fill="white" stroke="#666666" points="1891.25,-380 1795.75,-380 1795.75,-360 1891.25,-360 1891.25,-380"/>
<text xml:space="preserve" text-anchor="middle" x="1843.5" y="-366.5" font-family="Helvetica,sans-Serif" font-size="10.00">domain_event.hpp</text>
</a>
</g>
</g>
<!-- Node35&#45;&gt;Node36 -->
<g id="edge49_Node000035_Node000036" class="edge">
<title>Node35&#45;&gt;Node36</title>
<g id="a_edge49_Node000035_Node000036"><a xlink:title=" ">
<path fill="none" stroke="#63b8ff" d="M1327.46,-418.25C1330.5,-417.41 1333.53,-416.65 1336.5,-416 1495.61,-381.21 1688.42,-373.19 1783.93,-371.43"/>
<polygon fill="#63b8ff" stroke="#63b8ff" points="1783.91,-374.93 1793.85,-371.26 1783.79,-367.93 1783.91,-374.93"/>
</a>
</g>
</g>
<!-- Node37 -->
<g id="Node000037" class="node">
<title>Node37</title>
<g id="a_Node000037"><a xlink:href="singleton_8hpp.html" target="_top" xlink:title=" ">
<polygon fill="white" stroke="#666666" points="1893.5,-324 1793.5,-324 1793.5,-304 1893.5,-304 1893.5,-324"/>
<text xml:space="preserve" text-anchor="middle" x="1843.5" y="-310.5" font-family="Helvetica,sans-Serif" font-size="10.00">utility/singleton.hpp</text>
</a>
</g>
</g>
<!-- Node36&#45;&gt;Node37 -->
<g id="edge50_Node000036_Node000037" class="edge">
<title>Node36&#45;&gt;Node37</title>
<g id="a_edge50_Node000036_Node000037"><a xlink:title=" ">
<path fill="none" stroke="#63b8ff" d="M1843.5,-359.59C1843.5,-353.01 1843.5,-343.96 1843.5,-335.73"/>
<polygon fill="#63b8ff" stroke="#63b8ff" points="1847,-335.81 1843.5,-325.81 1840,-335.81 1847,-335.81"/>
</a>
</g>
</g>
<!-- Node40 -->
<g id="Node000040" class="node">
<title>Node40</title>
<g id="a_Node000040"><a xlink:title=" ">
<polygon fill="#e0e0e0" stroke="#999999" points="2009.38,-324 1911.62,-324 1911.62,-304 2009.38,-304 2009.38,-324"/>
<text xml:space="preserve" text-anchor="middle" x="1960.5" y="-310.5" font-family="Helvetica,sans-Serif" font-size="10.00">boost/signals2.hpp</text>
</a>
</g>
</g>
<!-- Node36&#45;&gt;Node40 -->
<g id="edge54_Node000036_Node000040" class="edge">
<title>Node36&#45;&gt;Node40</title>
<g id="a_edge54_Node000036_Node000040"><a xlink:title=" ">
<path fill="none" stroke="#63b8ff" d="M1863.88,-359.59C1882.06,-351.21 1908.93,-338.8 1929.72,-329.21"/>
<polygon fill="#63b8ff" stroke="#63b8ff" points="1930.97,-332.48 1938.59,-325.11 1928.04,-326.13 1930.97,-332.48"/>
</a>
</g>
</g>
<!-- Node37&#45;&gt;Node24 -->
<g id="edge51_Node000037_Node000024" class="edge">
<title>Node37&#45;&gt;Node24</title>
<g id="a_edge51_Node000037_Node000024"><a xlink:title=" ">
<path fill="none" stroke="#63b8ff" d="M1837.31,-303.66C1813.25,-267.35 1725.72,-135.24 1692.97,-85.82"/>
<polygon fill="#63b8ff" stroke="#63b8ff" points="1695.97,-84.02 1687.53,-77.61 1690.14,-87.88 1695.97,-84.02"/>
</a>
</g>
</g>
<!-- Node38 -->
<g id="Node000038" class="node">
<title>Node38</title>
<g id="a_Node000038"><a xlink:title=" ">
<polygon fill="#e0e0e0" stroke="#999999" points="1896.12,-262 1844.88,-262 1844.88,-242 1896.12,-242 1896.12,-262"/>
<text xml:space="preserve" text-anchor="middle" x="1870.5" y="-248.5" font-family="Helvetica,sans-Serif" font-size="10.00">memory</text>
</a>
</g>
</g>
<!-- Node37&#45;&gt;Node38 -->
<g id="edge52_Node000037_Node000038" class="edge">
<title>Node37&#45;&gt;Node38</title>
<g id="a_edge52_Node000037_Node000038"><a xlink:title=" ">
<path fill="none" stroke="#63b8ff" d="M1847.72,-303.62C1851.47,-295.3 1857.06,-282.86 1861.77,-272.4"/>
<polygon fill="#63b8ff" stroke="#63b8ff" points="1864.87,-274.05 1865.78,-263.49 1858.48,-271.18 1864.87,-274.05"/>
</a>
</g>
</g>
<!-- Node39 -->
<g id="Node000039" class="node">
<title>Node39</title>
<g id="a_Node000039"><a xlink:title=" ">
<polygon fill="#e0e0e0" stroke="#999999" points="1957,-262 1914,-262 1914,-242 1957,-242 1957,-262"/>
<text xml:space="preserve" text-anchor="middle" x="1935.5" y="-248.5" font-family="Helvetica,sans-Serif" font-size="10.00">mutex</text>
</a>
</g>
</g>
<!-- Node37&#45;&gt;Node39 -->
<g id="edge53_Node000037_Node000039" class="edge">
<title>Node37&#45;&gt;Node39</title>
<g id="a_edge53_Node000037_Node000039"><a xlink:title=" ">
<path fill="none" stroke="#63b8ff" d="M1857.88,-303.62C1872.32,-294.2 1894.84,-279.52 1911.91,-268.39"/>
<polygon fill="#63b8ff" stroke="#63b8ff" points="1913.49,-271.53 1919.96,-263.14 1909.67,-265.67 1913.49,-271.53"/>
</a>
</g>
</g>
<!-- Node41&#45;&gt;Node3 -->
<g id="edge57_Node000041_Node000003" class="edge">
<title>Node41&#45;&gt;Node3</title>
<g id="a_edge57_Node000041_Node000003"><a xlink:title=" ">
<path fill="none" stroke="#63b8ff" d="M1024.91,-359.53C1070.08,-350.12 1139.29,-335.68 1186.6,-325.82"/>
<polygon fill="#63b8ff" stroke="#63b8ff" points="1187.28,-329.25 1196.35,-323.79 1185.85,-322.4 1187.28,-329.25"/>
</a>
</g>
</g>
<!-- Node41&#45;&gt;Node4 -->
<g id="edge59_Node000041_Node000004" class="edge">
<title>Node41&#45;&gt;Node4</title>
<g id="a_edge59_Node000041_Node000004"><a xlink:title=" ">
<path fill="none" stroke="#63b8ff" d="M979.5,-359.51C979.5,-340.81 979.5,-298.82 979.5,-273.51"/>
<polygon fill="#63b8ff" stroke="#63b8ff" points="983,-273.81 979.5,-263.81 976,-273.81 983,-273.81"/>
</a>
</g>
</g>
<!-- Node41&#45;&gt;Node5 -->
<g id="edge58_Node000041_Node000005" class="edge">
<title>Node41&#45;&gt;Node5</title>
<g id="a_edge58_Node000041_Node000005"><a xlink:title=" ">
<path fill="none" stroke="#63b8ff" d="M964.58,-359.68C918.32,-330.79 777,-242.52 719.36,-206.53"/>
<polygon fill="#63b8ff" stroke="#63b8ff" points="721.24,-203.57 710.9,-201.24 717.53,-209.51 721.24,-203.57"/>
</a>
</g>
</g>
<!-- Node41&#45;&gt;Node20 -->
<g id="edge56_Node000041_Node000020" class="edge">
<title>Node41&#45;&gt;Node20</title>
<g id="a_edge56_Node000041_Node000020"><a xlink:title=" ">
<path fill="none" stroke="#63b8ff" d="M972.41,-359.63C959.98,-342.53 934.68,-304.65 925.5,-268 922.04,-254.2 919.99,-249.11 925.5,-236 930.19,-224.84 939.16,-215.07 947.93,-207.5"/>
<polygon fill="#63b8ff" stroke="#63b8ff" points="949.97,-210.35 955.64,-201.4 945.63,-204.87 949.97,-210.35"/>
</a>
</g>
</g>
</g>
</svg>

<g id="navigator" transform="translate(0 0)" fill="#404254">
  <rect fill="#f2f5e9" fill-opacity="0.5" stroke="#606060" stroke-width=".5" x="0" y="0" width="60" height="60"/>
  <use id="zoomplus" xlink:href="#zoomPlus" x="17" y="9" onmousedown="handleZoom(evt,'in')"/>
  <use id="zoomminus" xlink:href="#zoomMin" x="42" y="9" onmousedown="handleZoom(evt,'out')"/>
  <use id="reset" xlink:href="#resetDef" x="30" y="36" onmousedown="handleReset()"/>
   <use id="arrowup" xlink:href="#arrowUp" x="0" y="0" onmousedown="handlePan(0,-1)"/>
  <use id="arrowright" xlink:href="#arrowRight" x="0" y="0" onmousedown="handlePan(1,0)"/>
  <use id="arrowdown" xlink:href="#arrowDown" x="0" y="0" onmousedown="handlePan(0,1)"/>
  <use id="arrowleft" xlink:href="#arrowLeft" x="0" y="0" onmousedown="handlePan(-1,0)"/>
</g>
<svg viewBox="0 0 15 15" width="100%" height="30px" preserveAspectRatio="xMaxYMin meet">
 <g id="arrow_out" transform="scale(0.3 0.3)">
  <a xlink:href="option_8hpp__incl_org.svg" target="_base">
   <rect id="button" ry="5" rx="5" y="6" x="6" height="38" width="38"
        fill="#f2f5e9" fill-opacity="0.5" stroke="#606060" stroke-width="1.0"/>
   <path id="arrow"
     d="M 11.500037,31.436501 C 11.940474,20.09759 22.043105,11.32322 32.158766,21.979434 L 37.068811,17.246167 C 37.068811,17.246167 37.088388,32 37.088388,32 L 22.160133,31.978069 C 22.160133,31.978069 26.997745,27.140456 26.997745,27.140456 C 18.528582,18.264221 13.291696,25.230495 11.500037,31.436501 z"
     style="fill:#404040;"/>
  </a>
 </g>
</svg>

<style type='text/css'>
<![CDATA[
[data-mouse-over-selected='false'] { opacity: 0.7; }
[data-mouse-over-selected='true']  { opacity: 1.0; }
]]>
</style>
<script type="application/ecmascript"><![CDATA[
document.addEventListener('DOMContentLoaded', (event) => {
  highlightEdges();
  highlightAdjacentNodes();
});
]]></script>
</svg>
