<?xml version="1.0" encoding="UTF-8" standalone="no"?>
<!DOCTYPE svg PUBLIC "-//W3C//DTD SVG 1.1//EN"
 "http://www.w3.org/Graphics/SVG/1.1/DTD/svg11.dtd">
<!-- Generated by graphviz version 14.1.2 (20260124.0452)
 -->
<!-- Title: depicture_menu/src/core/domain/model/command/parameter_define.hpp Pages: 1 -->
<!--zoomable 356 -->

<svg id="main" version="1.1" xmlns="http://www.w3.org/2000/svg" xmlns:xlink="http://www.w3.org/1999/xlink" xml:space="preserve" onload="init(evt)">

<style type="text/css"><![CDATA[
.node, .edge {opacity: 0.7;}
.node.selected, .edge.selected {opacity: 1;}
.edge:hover path { stroke: red; }
.edge:hover polygon { stroke: red; fill: red; }
]]></style>

<defs>
  <circle id="rim" cx="0" cy="0" r="7"/>
  <circle id="rim2" cx="0" cy="0" r="3.5"/>
  <g id="zoomPlus">
    <use xlink:href="#rim" fill="#404040"><set attributeName="fill" to="#808080" begin="zoomplus.mouseover" end="zoomplus.mouseout"/></use>
    <path d="M-4,0h8M0,-4v8" fill="none" stroke="white" stroke-width="1.5" pointer-events="none"/>
  </g>
  <g id="zoomMin">
    <use xlink:href="#rim" fill="#404040"><set attributeName="fill" to="#808080" begin="zoomminus.mouseover" end="zoomminus.mouseout"/></use>
    <path d="M-4,0h8" fill="none" stroke="white" stroke-width="1.5" pointer-events="none"/>
  </g>
  <g id="arrowUp" transform="translate(30 24)">
    <use xlink:href="#rim"/>
    <path pointer-events="none" fill="none" stroke="white" stroke-width="1.5" d="M0,-3.0v7 M-2.5,-0.5L0,-3.0L2.5,-0.5"/>
  </g>
  <g id="arrowRight" transform="rotate(90) translate(36 -43)">
    <use xlink:href="#rim"/>
    <path pointer-events="none" fill="none" stroke="white" stroke-width="1.5" d="M0,-3.0v7 M-2.5,-0.5L0,-3.0L2.5,-0.5"/>
  </g>
  <g id="arrowDown" transform="rotate(180) translate(-30 -48)">
    <use xlink:href="#rim"/>
    <path pointer-events="none" fill="none" stroke="white" stroke-width="1.5" d="M0,-3.0v7 M-2.5,-0.5L0,-3.0L2.5,-0.5"/>
  </g>
  <g id="arrowLeft" transform="rotate(270) translate(-36 17)">
    <use xlink:href="#rim"/>
    <path pointer-events="none" fill="none" stroke="white" stroke-width="1.5" d="M0,-3.0v7 M-2.5,-0.5L0,-3.0L2.5,-0.5"/>
  </g>
  <g id="resetDef">
    <use xlink:href="#rim2" fill="#404040"><set attributeName="fill" to="#808080" begin="reset.mouseover" end="reset.mouseout"/></use>
  </g>
</defs>
<script type="application/ecmascript">
var viewWidth = 1715;
var viewHeight = 356;
var sectionId = 'dynsection-0';
</script>
<script type="application/ecmascript" xlink:href="svg.min.js"/>
<svg id="graph" class="graph">
<g id="viewport">
<title>depicture_menu/src/core/domain/model/command/parameter_define.hpp</title>
<!-- Node1 -->
<g id="Node000001" class="node">
<title>Node1</title>
<g id="a_Node000001"><a xlink:title=" ">
<polygon fill="#999999" stroke="#666666" points="1159.62,-348 1012.38,-348 1012.38,-304 1159.62,-304 1159.62,-348"/>
<text xml:space="preserve" text-anchor="start" x="1020.38" y="-334.5" font-family="Helvetica,sans-Serif" font-size="10.00">depicture_menu/src</text>
<text xml:space="preserve" text-anchor="start" x="1020.38" y="-322.5" font-family="Helvetica,sans-Serif" font-size="10.00">/core/domain/model/command</text>
<text xml:space="preserve" text-anchor="middle" x="1086" y="-310.5" font-family="Helvetica,sans-Serif" font-size="10.00">/parameter_define.hpp</text>
</a>
</g>
</g>
<!-- Node2 -->
<g id="Node000002" class="node">
<title>Node2</title>
<g id="a_Node000002"><a xlink:href="model_2value__object_8hpp.html" target="_top" xlink:title=" ">
<polygon fill="white" stroke="#666666" points="1083.38,-268 958.62,-268 958.62,-236 1083.38,-236 1083.38,-268"/>
<text xml:space="preserve" text-anchor="start" x="966.62" y="-254.5" font-family="Helvetica,sans-Serif" font-size="10.00">core/domain/model/value</text>
<text xml:space="preserve" text-anchor="middle" x="1021" y="-242.5" font-family="Helvetica,sans-Serif" font-size="10.00">_object.hpp</text>
</a>
</g>
</g>
<!-- Node1&#45;&gt;Node2 -->
<g id="edge1_Node000001_Node000002" class="edge">
<title>Node1&#45;&gt;Node2</title>
<g id="a_edge1_Node000001_Node000002"><a xlink:title=" ">
<path fill="none" stroke="#63b8ff" d="M1066.85,-303.79C1059.1,-295.2 1050.12,-285.26 1042.17,-276.45"/>
<polygon fill="#63b8ff" stroke="#63b8ff" points="1044.97,-274.33 1035.67,-269.25 1039.77,-279.02 1044.97,-274.33"/>
</a>
</g>
</g>
<!-- Node28 -->
<g id="Node000028" class="node">
<title>Node28</title>
<g id="a_Node000028"><a xlink:href="parameter__kind_8hpp.html" target="_top" xlink:title=" ">
<polygon fill="white" stroke="#666666" points="1448.75,-262 1347.25,-262 1347.25,-242 1448.75,-242 1448.75,-262"/>
<text xml:space="preserve" text-anchor="middle" x="1398" y="-248.5" font-family="Helvetica,sans-Serif" font-size="10.00">parameter_kind.hpp</text>
</a>
</g>
</g>
<!-- Node1&#45;&gt;Node28 -->
<g id="edge38_Node000001_Node000028" class="edge">
<title>Node1&#45;&gt;Node28</title>
<g id="a_edge38_Node000001_Node000028"><a xlink:title=" ">
<path fill="none" stroke="#63b8ff" d="M1159.94,-307.94C1217.23,-294.72 1295.18,-276.73 1346.02,-264.99"/>
<polygon fill="#63b8ff" stroke="#63b8ff" points="1346.64,-268.44 1355.6,-262.78 1345.07,-261.62 1346.64,-268.44"/>
</a>
</g>
</g>
<!-- Node3 -->
<g id="Node000003" class="node">
<title>Node3</title>
<g id="a_Node000003"><a xlink:href="model_2presistence_8hpp.html" target="_top" xlink:title=" ">
<polygon fill="white" stroke="#666666" points="957.5,-200 872.5,-200 872.5,-180 957.5,-180 957.5,-200"/>
<text xml:space="preserve" text-anchor="middle" x="915" y="-186.5" font-family="Helvetica,sans-Serif" font-size="10.00">presistence.hpp</text>
</a>
</g>
</g>
<!-- Node2&#45;&gt;Node3 -->
<g id="edge2_Node000002_Node000003" class="edge">
<title>Node2&#45;&gt;Node3</title>
<g id="a_edge2_Node000002_Node000003"><a xlink:title=" ">
<path fill="none" stroke="#63b8ff" d="M993.7,-235.55C977.6,-226.43 957.32,-214.96 941.38,-205.93"/>
<polygon fill="#63b8ff" stroke="#63b8ff" points="943.36,-203.03 932.94,-201.15 939.92,-209.13 943.36,-203.03"/>
</a>
</g>
</g>
<!-- Node5 -->
<g id="Node000005" class="node">
<title>Node5</title>
<g id="a_Node000005"><a xlink:title=" ">
<polygon fill="#e0e0e0" stroke="#999999" points="512.38,-76 417.62,-76 417.62,-56 512.38,-56 512.38,-76"/>
<text xml:space="preserve" text-anchor="middle" x="465" y="-62.5" font-family="Helvetica,sans-Serif" font-size="10.00">boost/pfr/core.hpp</text>
</a>
</g>
</g>
<!-- Node2&#45;&gt;Node5 -->
<g id="edge33_Node000002_Node000005" class="edge">
<title>Node2&#45;&gt;Node5</title>
<g id="a_edge33_Node000002_Node000005"><a xlink:title=" ">
<path fill="none" stroke="#63b8ff" d="M958.15,-249.78C816.58,-245.57 479.62,-226.87 410,-144 400.85,-133.11 403.91,-124.85 410,-112 415.74,-99.88 426.53,-89.94 437.04,-82.51"/>
<polygon fill="#63b8ff" stroke="#63b8ff" points="438.7,-85.6 445.19,-77.23 434.89,-79.73 438.7,-85.6"/>
</a>
</g>
</g>
<!-- Node6 -->
<g id="Node000006" class="node">
<title>Node6</title>
<g id="a_Node000006"><a xlink:title=" ">
<polygon fill="#e0e0e0" stroke="#999999" points="1525.62,-76 1486.38,-76 1486.38,-56 1525.62,-56 1525.62,-76"/>
<text xml:space="preserve" text-anchor="middle" x="1506" y="-62.5" font-family="Helvetica,sans-Serif" font-size="10.00">utility</text>
</a>
</g>
</g>
<!-- Node2&#45;&gt;Node6 -->
<g id="edge37_Node000002_Node000006" class="edge">
<title>Node2&#45;&gt;Node6</title>
<g id="a_edge37_Node000002_Node000006"><a xlink:title=" ">
<path fill="none" stroke="#63b8ff" d="M1083.65,-247.29C1158.88,-241.73 1288.39,-228.67 1396,-200 1459.96,-182.96 1497.03,-198.9 1534,-144 1546.35,-125.65 1533.37,-101.19 1521.27,-84.81"/>
<polygon fill="#63b8ff" stroke="#63b8ff" points="1524.35,-83.05 1515.39,-77.39 1518.86,-87.4 1524.35,-83.05"/>
</a>
</g>
</g>
<!-- Node18 -->
<g id="Node000018" class="node">
<title>Node18</title>
<g id="a_Node000018"><a xlink:href="concepts_8hpp.html" target="_top" xlink:title=" ">
<polygon fill="white" stroke="#666666" points="1387.25,-200 1312.75,-200 1312.75,-180 1387.25,-180 1387.25,-200"/>
<text xml:space="preserve" text-anchor="middle" x="1350" y="-186.5" font-family="Helvetica,sans-Serif" font-size="10.00">concepts.hpp</text>
</a>
</g>
</g>
<!-- Node2&#45;&gt;Node18 -->
<g id="edge18_Node000002_Node000018" class="edge">
<title>Node2&#45;&gt;Node18</title>
<g id="a_edge18_Node000002_Node000018"><a xlink:title=" ">
<path fill="none" stroke="#63b8ff" d="M1083.66,-239.57C1147.1,-228 1243.88,-210.35 1301.64,-199.82"/>
<polygon fill="#63b8ff" stroke="#63b8ff" points="1301.95,-203.32 1311.16,-198.08 1300.7,-196.43 1301.95,-203.32"/>
</a>
</g>
</g>
<!-- Node19 -->
<g id="Node000019" class="node">
<title>Node19</title>
<g id="a_Node000019"><a xlink:href="reflection_8hpp.html" target="_top" xlink:title=" ">
<polygon fill="white" stroke="#666666" points="354.38,-200 253.62,-200 253.62,-180 354.38,-180 354.38,-200"/>
<text xml:space="preserve" text-anchor="middle" x="304" y="-186.5" font-family="Helvetica,sans-Serif" font-size="10.00">utility/reflection.hpp</text>
</a>
</g>
</g>
<!-- Node2&#45;&gt;Node19 -->
<g id="edge20_Node000002_Node000019" class="edge">
<title>Node2&#45;&gt;Node19</title>
<g id="a_edge20_Node000002_Node000019"><a xlink:title=" ">
<path fill="none" stroke="#63b8ff" d="M958.3,-246.95C843.05,-239.29 589.85,-221.54 377,-200 373.38,-199.63 369.66,-199.24 365.91,-198.82"/>
<polygon fill="#63b8ff" stroke="#63b8ff" points="366.46,-195.36 356.13,-197.7 365.67,-202.32 366.46,-195.36"/>
</a>
</g>
</g>
<!-- Node21 -->
<g id="Node000021" class="node">
<title>Node21</title>
<g id="a_Node000021"><a xlink:title=" ">
<polygon fill="#e0e0e0" stroke="#999999" points="124,-76 0,-76 0,-56 124,-56 124,-76"/>
<text xml:space="preserve" text-anchor="middle" x="62" y="-62.5" font-family="Helvetica,sans-Serif" font-size="10.00">boost/pfr/core_name.hpp</text>
</a>
</g>
</g>
<!-- Node2&#45;&gt;Node21 -->
<g id="edge34_Node000002_Node000021" class="edge">
<title>Node2&#45;&gt;Node21</title>
<g id="a_edge34_Node000002_Node000021"><a xlink:title=" ">
<path fill="none" stroke="#63b8ff" d="M958.15,-249.25C798.54,-244.41 380.6,-229.27 245,-200 175.85,-185.07 147.41,-192.6 96,-144 79.93,-128.81 70.98,-104.69 66.35,-87.49"/>
<polygon fill="#63b8ff" stroke="#63b8ff" points="69.78,-86.8 64.05,-77.89 62.97,-88.43 69.78,-86.8"/>
</a>
</g>
</g>
<!-- Node26 -->
<g id="Node000026" class="node">
<title>Node26</title>
<g id="a_Node000026"><a xlink:title=" ">
<polygon fill="#e0e0e0" stroke="#999999" points="1066.88,-200 975.12,-200 975.12,-180 1066.88,-180 1066.88,-200"/>
<text xml:space="preserve" text-anchor="middle" x="1021" y="-186.5" font-family="Helvetica,sans-Serif" font-size="10.00">boost/pfr/ops.hpp</text>
</a>
</g>
</g>
<!-- Node2&#45;&gt;Node26 -->
<g id="edge35_Node000002_Node000026" class="edge">
<title>Node2&#45;&gt;Node26</title>
<g id="a_edge35_Node000002_Node000026"><a xlink:title=" ">
<path fill="none" stroke="#63b8ff" d="M1021,-235.55C1021,-228.34 1021,-219.66 1021,-211.88"/>
<polygon fill="#63b8ff" stroke="#63b8ff" points="1024.5,-211.92 1021,-201.92 1017.5,-211.92 1024.5,-211.92"/>
</a>
</g>
</g>
<!-- Node27 -->
<g id="Node000027" class="node">
<title>Node27</title>
<g id="a_Node000027"><a xlink:title=" ">
<polygon fill="#e0e0e0" stroke="#999999" points="1185.38,-200 1084.62,-200 1084.62,-180 1185.38,-180 1185.38,-200"/>
<text xml:space="preserve" text-anchor="middle" x="1135" y="-186.5" font-family="Helvetica,sans-Serif" font-size="10.00">boost/uuid/uuid.hpp</text>
</a>
</g>
</g>
<!-- Node2&#45;&gt;Node27 -->
<g id="edge36_Node000002_Node000027" class="edge">
<title>Node2&#45;&gt;Node27</title>
<g id="a_edge36_Node000002_Node000027"><a xlink:title=" ">
<path fill="none" stroke="#63b8ff" d="M1050.36,-235.55C1067.84,-226.35 1089.9,-214.74 1107.12,-205.68"/>
<polygon fill="#63b8ff" stroke="#63b8ff" points="1108.57,-208.87 1115.79,-201.11 1105.31,-202.67 1108.57,-208.87"/>
</a>
</g>
</g>
<!-- Node4 -->
<g id="Node000004" class="node">
<title>Node4</title>
<g id="a_Node000004"><a xlink:href="model__base__concepts_8hpp.html" target="_top" xlink:title=" ">
<polygon fill="white" stroke="#666666" points="1525.12,-138 1392.88,-138 1392.88,-118 1525.12,-118 1525.12,-138"/>
<text xml:space="preserve" text-anchor="middle" x="1459" y="-124.5" font-family="Helvetica,sans-Serif" font-size="10.00">model_base_concepts.hpp</text>
</a>
</g>
</g>
<!-- Node3&#45;&gt;Node4 -->
<g id="edge3_Node000003_Node000004" class="edge">
<title>Node3&#45;&gt;Node4</title>
<g id="a_edge3_Node000003_Node000004"><a xlink:title=" ">
<path fill="none" stroke="#63b8ff" d="M957.81,-181.16C960.58,-180.74 963.33,-180.35 966,-180 1150.89,-155.77 1199.4,-170.33 1384,-144 1390.73,-143.04 1397.78,-141.86 1404.73,-140.6"/>
<polygon fill="#63b8ff" stroke="#63b8ff" points="1405.25,-144.06 1414.43,-138.75 1403.95,-137.18 1405.25,-144.06"/>
</a>
</g>
</g>
<!-- Node3&#45;&gt;Node5 -->
<g id="edge10_Node000003_Node000005" class="edge">
<title>Node3&#45;&gt;Node5</title>
<g id="a_edge10_Node000003_Node000005"><a xlink:title=" ">
<path fill="none" stroke="#63b8ff" d="M872.03,-189.35C779.05,-189.31 562.8,-184.7 504,-144 484.98,-130.83 474.72,-105.55 469.57,-87.54"/>
<polygon fill="#63b8ff" stroke="#63b8ff" points="472.99,-86.79 467.14,-77.95 466.2,-88.5 472.99,-86.79"/>
</a>
</g>
</g>
<!-- Node7 -->
<g id="Node000007" class="node">
<title>Node7</title>
<g id="a_Node000007"><a xlink:href="str__conv_8hpp.html" target="_top" xlink:title=" ">
<polygon fill="white" stroke="#666666" points="1374.88,-138 1277.12,-138 1277.12,-118 1374.88,-118 1374.88,-138"/>
<text xml:space="preserve" text-anchor="middle" x="1326" y="-124.5" font-family="Helvetica,sans-Serif" font-size="10.00">utility/str_conv.hpp</text>
</a>
</g>
</g>
<!-- Node3&#45;&gt;Node7 -->
<g id="edge6_Node000003_Node000007" class="edge">
<title>Node3&#45;&gt;Node7</title>
<g id="a_edge6_Node000003_Node000007"><a xlink:title=" ">
<path fill="none" stroke="#63b8ff" d="M957.82,-181.26C960.59,-180.82 963.33,-180.39 966,-180 1099.72,-160.25 1135.16,-168.98 1268,-144 1272.36,-143.18 1276.88,-142.22 1281.38,-141.18"/>
<polygon fill="#63b8ff" stroke="#63b8ff" points="1282.07,-144.61 1290.96,-138.85 1280.42,-137.81 1282.07,-144.61"/>
</a>
</g>
</g>
<!-- Node10 -->
<g id="Node000010" class="node">
<title>Node10</title>
<g id="a_Node000010"><a xlink:title=" ">
<polygon fill="#e0e0e0" stroke="#999999" points="618.62,-144 513.38,-144 513.38,-112 618.62,-112 618.62,-144"/>
<text xml:space="preserve" text-anchor="start" x="521.38" y="-130.5" font-family="Helvetica,sans-Serif" font-size="10.00">boost/archive/basic</text>
<text xml:space="preserve" text-anchor="middle" x="566" y="-118.5" font-family="Helvetica,sans-Serif" font-size="10.00">_binary_iarchive.hpp</text>
</a>
</g>
</g>
<!-- Node3&#45;&gt;Node10 -->
<g id="edge9_Node000003_Node000010" class="edge">
<title>Node3&#45;&gt;Node10</title>
<g id="a_edge9_Node000003_Node000010"><a xlink:title=" ">
<path fill="none" stroke="#63b8ff" d="M872.02,-183.38C817.92,-176.06 721.94,-162.26 630.2,-144.34"/>
<polygon fill="#63b8ff" stroke="#63b8ff" points="631.01,-140.93 620.52,-142.43 629.65,-147.8 631.01,-140.93"/>
</a>
</g>
</g>
<!-- Node11 -->
<g id="Node000011" class="node">
<title>Node11</title>
<g id="a_Node000011"><a xlink:title=" ">
<polygon fill="#e0e0e0" stroke="#999999" points="731.38,-144 636.62,-144 636.62,-112 731.38,-112 731.38,-144"/>
<text xml:space="preserve" text-anchor="start" x="644.62" y="-130.5" font-family="Helvetica,sans-Serif" font-size="10.00">boost/serialization</text>
<text xml:space="preserve" text-anchor="middle" x="684" y="-118.5" font-family="Helvetica,sans-Serif" font-size="10.00">/access.hpp</text>
</a>
</g>
</g>
<!-- Node3&#45;&gt;Node11 -->
<g id="edge11_Node000003_Node000011" class="edge">
<title>Node3&#45;&gt;Node11</title>
<g id="a_edge11_Node000003_Node000011"><a xlink:title=" ">
<path fill="none" stroke="#63b8ff" d="M878.33,-179.56C845.38,-171.07 795.37,-158.17 742.54,-144.39"/>
<polygon fill="#63b8ff" stroke="#63b8ff" points="743.61,-141.06 733.05,-141.92 741.84,-147.83 743.61,-141.06"/>
</a>
</g>
</g>
<!-- Node12 -->
<g id="Node000012" class="node">
<title>Node12</title>
<g id="a_Node000012"><a xlink:title=" ">
<polygon fill="#e0e0e0" stroke="#999999" points="844.38,-144 749.62,-144 749.62,-112 844.38,-112 844.38,-144"/>
<text xml:space="preserve" text-anchor="start" x="757.62" y="-130.5" font-family="Helvetica,sans-Serif" font-size="10.00">boost/serialization</text>
<text xml:space="preserve" text-anchor="middle" x="797" y="-118.5" font-family="Helvetica,sans-Serif" font-size="10.00">/optional.hpp</text>
</a>
</g>
</g>
<!-- Node3&#45;&gt;Node12 -->
<g id="edge12_Node000003_Node000012" class="edge">
<title>Node3&#45;&gt;Node12</title>
<g id="a_edge12_Node000003_Node000012"><a xlink:title=" ">
<path fill="none" stroke="#63b8ff" d="M896.56,-179.62C880.78,-171.6 857.48,-159.75 837.39,-149.54"/>
<polygon fill="#63b8ff" stroke="#63b8ff" points="839.08,-146.47 828.58,-145.06 835.91,-152.71 839.08,-146.47"/>
</a>
</g>
</g>
<!-- Node13 -->
<g id="Node000013" class="node">
<title>Node13</title>
<g id="a_Node000013"><a xlink:title=" ">
<polygon fill="#e0e0e0" stroke="#999999" points="967.25,-144 862.75,-144 862.75,-112 967.25,-112 967.25,-144"/>
<text xml:space="preserve" text-anchor="start" x="870.75" y="-130.5" font-family="Helvetica,sans-Serif" font-size="10.00">boost/serialization</text>
<text xml:space="preserve" text-anchor="middle" x="915" y="-118.5" font-family="Helvetica,sans-Serif" font-size="10.00">/unordered_map.hpp</text>
</a>
</g>
</g>
<!-- Node3&#45;&gt;Node13 -->
<g id="edge13_Node000003_Node000013" class="edge">
<title>Node3&#45;&gt;Node13</title>
<g id="a_edge13_Node000003_Node000013"><a xlink:title=" ">
<path fill="none" stroke="#63b8ff" d="M915,-179.62C915,-173.1 915,-164.05 915,-155.4"/>
<polygon fill="#63b8ff" stroke="#63b8ff" points="918.5,-155.65 915,-145.65 911.5,-155.65 918.5,-155.65"/>
</a>
</g>
</g>
<!-- Node14 -->
<g id="Node000014" class="node">
<title>Node14</title>
<g id="a_Node000014"><a xlink:title=" ">
<polygon fill="#e0e0e0" stroke="#999999" points="1084.62,-144 985.38,-144 985.38,-112 1084.62,-112 1084.62,-144"/>
<text xml:space="preserve" text-anchor="start" x="993.38" y="-130.5" font-family="Helvetica,sans-Serif" font-size="10.00">boost/serialization</text>
<text xml:space="preserve" text-anchor="middle" x="1035" y="-118.5" font-family="Helvetica,sans-Serif" font-size="10.00">/unordered_set.hpp</text>
</a>
</g>
</g>
<!-- Node3&#45;&gt;Node14 -->
<g id="edge14_Node000003_Node000014" class="edge">
<title>Node3&#45;&gt;Node14</title>
<g id="a_edge14_Node000003_Node000014"><a xlink:title=" ">
<path fill="none" stroke="#63b8ff" d="M933.75,-179.62C949.88,-171.56 973.71,-159.64 994.21,-149.4"/>
<polygon fill="#63b8ff" stroke="#63b8ff" points="995.52,-152.65 1002.9,-145.05 992.39,-146.39 995.52,-152.65"/>
</a>
</g>
</g>
<!-- Node15 -->
<g id="Node000015" class="node">
<title>Node15</title>
<g id="a_Node000015"><a xlink:title=" ">
<polygon fill="#e0e0e0" stroke="#999999" points="1197.38,-144 1102.62,-144 1102.62,-112 1197.38,-112 1197.38,-144"/>
<text xml:space="preserve" text-anchor="start" x="1110.62" y="-130.5" font-family="Helvetica,sans-Serif" font-size="10.00">boost/serialization</text>
<text xml:space="preserve" text-anchor="middle" x="1150" y="-118.5" font-family="Helvetica,sans-Serif" font-size="10.00">/vector.hpp</text>
</a>
</g>
</g>
<!-- Node3&#45;&gt;Node15 -->
<g id="edge15_Node000003_Node000015" class="edge">
<title>Node3&#45;&gt;Node15</title>
<g id="a_edge15_Node000003_Node000015"><a xlink:title=" ">
<path fill="none" stroke="#63b8ff" d="M953.45,-179.51C987.39,-171.1 1038.49,-158.34 1091.4,-144.66"/>
<polygon fill="#63b8ff" stroke="#63b8ff" points="1092.09,-148.09 1100.89,-142.2 1090.33,-141.32 1092.09,-148.09"/>
</a>
</g>
</g>
<!-- Node16 -->
<g id="Node000016" class="node">
<title>Node16</title>
<g id="a_Node000016"><a xlink:title=" ">
<polygon fill="#e0e0e0" stroke="#999999" points="1258.88,-138 1215.12,-138 1215.12,-118 1258.88,-118 1258.88,-138"/>
<text xml:space="preserve" text-anchor="middle" x="1237" y="-124.5" font-family="Helvetica,sans-Serif" font-size="10.00">format</text>
</a>
</g>
</g>
<!-- Node3&#45;&gt;Node16 -->
<g id="edge16_Node000003_Node000016" class="edge">
<title>Node3&#45;&gt;Node16</title>
<g id="a_edge16_Node000003_Node000016"><a xlink:title=" ">
<path fill="none" stroke="#63b8ff" d="M957.84,-181.36C960.6,-180.89 963.34,-180.43 966,-180 1072.45,-162.63 1102.95,-175.85 1206,-144 1207.17,-143.64 1208.35,-143.24 1209.54,-142.81"/>
<polygon fill="#63b8ff" stroke="#63b8ff" points="1210.77,-146.09 1218.6,-138.95 1208.03,-139.65 1210.77,-146.09"/>
</a>
</g>
</g>
<!-- Node17 -->
<g id="Node000017" class="node">
<title>Node17</title>
<g id="a_Node000017"><a xlink:title=" ">
<polygon fill="#e0e0e0" stroke="#999999" points="456.5,-138 419.5,-138 419.5,-118 456.5,-118 456.5,-138"/>
<text xml:space="preserve" text-anchor="middle" x="438" y="-124.5" font-family="Helvetica,sans-Serif" font-size="10.00">tuple</text>
</a>
</g>
</g>
<!-- Node3&#45;&gt;Node17 -->
<g id="edge17_Node000003_Node000017" class="edge">
<title>Node3&#45;&gt;Node17</title>
<g id="a_edge17_Node000003_Node000017"><a xlink:title=" ">
<path fill="none" stroke="#63b8ff" d="M872.24,-189.24C792.09,-188.69 614.42,-182.74 471,-144 469.41,-143.57 467.79,-143.07 466.18,-142.52"/>
<polygon fill="#63b8ff" stroke="#63b8ff" points="467.75,-139.38 457.17,-138.91 465.15,-145.88 467.75,-139.38"/>
</a>
</g>
</g>
<!-- Node4&#45;&gt;Node5 -->
<g id="edge4_Node000004_Node000005" class="edge">
<title>Node4&#45;&gt;Node5</title>
<g id="a_edge4_Node000004_Node000005"><a xlink:title=" ">
<path fill="none" stroke="#63b8ff" d="M1417.52,-117.56C1406.67,-115.41 1394.94,-113.35 1384,-112 1061.02,-72.02 670.07,-67.17 523.89,-66.86"/>
<polygon fill="#63b8ff" stroke="#63b8ff" points="524.08,-63.36 514.08,-66.85 524.07,-70.36 524.08,-63.36"/>
</a>
</g>
</g>
<!-- Node4&#45;&gt;Node6 -->
<g id="edge5_Node000004_Node000006" class="edge">
<title>Node4&#45;&gt;Node6</title>
<g id="a_edge5_Node000004_Node000006"><a xlink:title=" ">
<path fill="none" stroke="#63b8ff" d="M1466.34,-117.62C1473.14,-108.94 1483.44,-95.8 1491.84,-85.08"/>
<polygon fill="#63b8ff" stroke="#63b8ff" points="1494.52,-87.33 1497.93,-77.3 1489.01,-83.02 1494.52,-87.33"/>
</a>
</g>
</g>
<!-- Node8 -->
<g id="Node000008" class="node">
<title>Node8</title>
<g id="a_Node000008"><a xlink:title=" ">
<polygon fill="#e0e0e0" stroke="#999999" points="1346,-76 1306,-76 1306,-56 1346,-56 1346,-76"/>
<text xml:space="preserve" text-anchor="middle" x="1326" y="-62.5" font-family="Helvetica,sans-Serif" font-size="10.00">string</text>
</a>
</g>
</g>
<!-- Node7&#45;&gt;Node8 -->
<g id="edge7_Node000007_Node000008" class="edge">
<title>Node7&#45;&gt;Node8</title>
<g id="a_edge7_Node000007_Node000008"><a xlink:title=" ">
<path fill="none" stroke="#63b8ff" d="M1326,-117.62C1326,-109.56 1326,-97.65 1326,-87.41"/>
<polygon fill="#63b8ff" stroke="#63b8ff" points="1329.5,-87.63 1326,-77.63 1322.5,-87.63 1329.5,-87.63"/>
</a>
</g>
</g>
<!-- Node9 -->
<g id="Node000009" class="node">
<title>Node9</title>
<g id="a_Node000009"><a xlink:title=" ">
<polygon fill="#e0e0e0" stroke="#999999" points="374.75,-20 309.25,-20 309.25,0 374.75,0 374.75,-20"/>
<text xml:space="preserve" text-anchor="middle" x="342" y="-6.5" font-family="Helvetica,sans-Serif" font-size="10.00">string_view</text>
</a>
</g>
</g>
<!-- Node7&#45;&gt;Node9 -->
<g id="edge8_Node000007_Node000009" class="edge">
<title>Node7&#45;&gt;Node9</title>
<g id="a_edge8_Node000007_Node000009"><a xlink:title=" ">
<path fill="none" stroke="#63b8ff" d="M1292.75,-117.52C1284.7,-115.47 1276.08,-113.48 1268,-112 932.14,-50.59 520.43,-21.77 386.42,-13.56"/>
<polygon fill="#63b8ff" stroke="#63b8ff" points="386.76,-10.07 376.57,-12.96 386.34,-17.06 386.76,-10.07"/>
</a>
</g>
</g>
<!-- Node18&#45;&gt;Node4 -->
<g id="edge19_Node000018_Node000004" class="edge">
<title>Node18&#45;&gt;Node4</title>
<g id="a_edge19_Node000018_Node000004"><a xlink:title=" ">
<path fill="none" stroke="#63b8ff" d="M1367.03,-179.62C1384.47,-170.03 1411.83,-154.97 1432.18,-143.77"/>
<polygon fill="#63b8ff" stroke="#63b8ff" points="1433.69,-146.93 1440.76,-139.04 1430.31,-140.8 1433.69,-146.93"/>
</a>
</g>
</g>
<!-- Node20 -->
<g id="Node000020" class="node">
<title>Node20</title>
<g id="a_Node000020"><a xlink:href="pfr__assign_8hpp.html" target="_top" xlink:title=" ">
<polygon fill="white" stroke="#666666" points="227.25,-138 104.75,-138 104.75,-118 227.25,-118 227.25,-138"/>
<text xml:space="preserve" text-anchor="middle" x="166" y="-124.5" font-family="Helvetica,sans-Serif" font-size="10.00">reflection/pfr_assign.hpp</text>
</a>
</g>
</g>
<!-- Node19&#45;&gt;Node20 -->
<g id="edge21_Node000019_Node000020" class="edge">
<title>Node19&#45;&gt;Node20</title>
<g id="a_edge21_Node000019_Node000020"><a xlink:title=" ">
<path fill="none" stroke="#63b8ff" d="M282.44,-179.62C259.75,-169.76 223.81,-154.13 197.85,-142.85"/>
<polygon fill="#63b8ff" stroke="#63b8ff" points="199.37,-139.69 188.8,-138.91 196.57,-146.11 199.37,-139.69"/>
</a>
</g>
</g>
<!-- Node24 -->
<g id="Node000024" class="node">
<title>Node24</title>
<g id="a_Node000024"><a xlink:href="reflection_2reflection_8hpp.html" target="_top" xlink:title=" ">
<polygon fill="white" stroke="#666666" points="362.62,-138 245.38,-138 245.38,-118 362.62,-118 362.62,-138"/>
<text xml:space="preserve" text-anchor="middle" x="304" y="-124.5" font-family="Helvetica,sans-Serif" font-size="10.00">reflection/reflection.hpp</text>
</a>
</g>
</g>
<!-- Node19&#45;&gt;Node24 -->
<g id="edge27_Node000019_Node000024" class="edge">
<title>Node19&#45;&gt;Node24</title>
<g id="a_edge27_Node000019_Node000024"><a xlink:title=" ">
<path fill="none" stroke="#63b8ff" d="M304,-179.62C304,-171.56 304,-159.65 304,-149.41"/>
<polygon fill="#63b8ff" stroke="#63b8ff" points="307.5,-149.63 304,-139.63 300.5,-149.63 307.5,-149.63"/>
</a>
</g>
</g>
<!-- Node20&#45;&gt;Node5 -->
<g id="edge22_Node000020_Node000005" class="edge">
<title>Node20&#45;&gt;Node5</title>
<g id="a_edge22_Node000020_Node000005"><a xlink:title=" ">
<path fill="none" stroke="#63b8ff" d="M209.66,-117.52C218.38,-115.66 227.48,-113.75 236,-112 293.75,-100.14 359.83,-87.22 406.12,-78.28"/>
<polygon fill="#63b8ff" stroke="#63b8ff" points="406.5,-81.77 415.66,-76.44 405.18,-74.9 406.5,-81.77"/>
</a>
</g>
</g>
<!-- Node20&#45;&gt;Node9 -->
<g id="edge26_Node000020_Node000009" class="edge">
<title>Node20&#45;&gt;Node9</title>
<g id="a_edge26_Node000020_Node000009"><a xlink:title=" ">
<path fill="none" stroke="#63b8ff" d="M180.4,-117.51C210.72,-97.53 281.37,-50.96 318.4,-26.56"/>
<polygon fill="#63b8ff" stroke="#63b8ff" points="320.2,-29.56 326.63,-21.13 316.35,-23.71 320.2,-29.56"/>
</a>
</g>
</g>
<!-- Node20&#45;&gt;Node21 -->
<g id="edge23_Node000020_Node000021" class="edge">
<title>Node20&#45;&gt;Node21</title>
<g id="a_edge23_Node000020_Node000021"><a xlink:title=" ">
<path fill="none" stroke="#63b8ff" d="M149.75,-117.62C133.19,-108.07 107.25,-93.11 87.86,-81.92"/>
<polygon fill="#63b8ff" stroke="#63b8ff" points="89.86,-79.03 79.45,-77.07 86.36,-85.09 89.86,-79.03"/>
</a>
</g>
</g>
<!-- Node22 -->
<g id="Node000022" class="node">
<title>Node22</title>
<g id="a_Node000022"><a xlink:title=" ">
<polygon fill="#e0e0e0" stroke="#999999" points="190.12,-76 141.88,-76 141.88,-56 190.12,-56 190.12,-76"/>
<text xml:space="preserve" text-anchor="middle" x="166" y="-62.5" font-family="Helvetica,sans-Serif" font-size="10.00">cassert</text>
</a>
</g>
</g>
<!-- Node20&#45;&gt;Node22 -->
<g id="edge24_Node000020_Node000022" class="edge">
<title>Node20&#45;&gt;Node22</title>
<g id="a_edge24_Node000020_Node000022"><a xlink:title=" ">
<path fill="none" stroke="#63b8ff" d="M166,-117.62C166,-109.56 166,-97.65 166,-87.41"/>
<polygon fill="#63b8ff" stroke="#63b8ff" points="169.5,-87.63 166,-77.63 162.5,-87.63 169.5,-87.63"/>
</a>
</g>
</g>
<!-- Node23 -->
<g id="Node000023" class="node">
<title>Node23</title>
<g id="a_Node000023"><a xlink:title=" ">
<polygon fill="#e0e0e0" stroke="#999999" points="267.12,-20 218.88,-20 218.88,0 267.12,0 267.12,-20"/>
<text xml:space="preserve" text-anchor="middle" x="243" y="-6.5" font-family="Helvetica,sans-Serif" font-size="10.00">cstddef</text>
</a>
</g>
</g>
<!-- Node20&#45;&gt;Node23 -->
<g id="edge25_Node000020_Node000023" class="edge">
<title>Node20&#45;&gt;Node23</title>
<g id="a_edge25_Node000020_Node000023"><a xlink:title=" ">
<path fill="none" stroke="#63b8ff" d="M172.3,-117.51C185,-98.38 213.86,-54.89 230.52,-29.8"/>
<polygon fill="#63b8ff" stroke="#63b8ff" points="233.38,-31.83 235.99,-21.56 227.54,-27.96 233.38,-31.83"/>
</a>
</g>
</g>
<!-- Node24&#45;&gt;Node5 -->
<g id="edge31_Node000024_Node000005" class="edge">
<title>Node24&#45;&gt;Node5</title>
<g id="a_edge31_Node000024_Node000005"><a xlink:title=" ">
<path fill="none" stroke="#63b8ff" d="M329.16,-117.62C356.02,-107.62 398.81,-91.67 429.18,-80.35"/>
<polygon fill="#63b8ff" stroke="#63b8ff" points="430.19,-83.71 438.34,-76.94 427.74,-77.15 430.19,-83.71"/>
</a>
</g>
</g>
<!-- Node24&#45;&gt;Node21 -->
<g id="edge32_Node000024_Node000021" class="edge">
<title>Node24&#45;&gt;Node21</title>
<g id="a_edge32_Node000024_Node000021"><a xlink:title=" ">
<path fill="none" stroke="#63b8ff" d="M265.92,-117.56C224.2,-107.22 157.14,-90.59 111.4,-79.25"/>
<polygon fill="#63b8ff" stroke="#63b8ff" points="112.27,-75.86 101.72,-76.85 110.59,-82.65 112.27,-75.86"/>
</a>
</g>
</g>
<!-- Node25 -->
<g id="Node000025" class="node">
<title>Node25</title>
<g id="a_Node000025"><a xlink:href="constexpr__string_8hpp.html" target="_top" xlink:title=" ">
<polygon fill="white" stroke="#666666" points="399.88,-76 284.12,-76 284.12,-56 399.88,-56 399.88,-76"/>
<text xml:space="preserve" text-anchor="middle" x="342" y="-62.5" font-family="Helvetica,sans-Serif" font-size="10.00">../constexpr_string.hpp</text>
</a>
</g>
</g>
<!-- Node24&#45;&gt;Node25 -->
<g id="edge28_Node000024_Node000025" class="edge">
<title>Node24&#45;&gt;Node25</title>
<g id="a_edge28_Node000024_Node000025"><a xlink:title=" ">
<path fill="none" stroke="#63b8ff" d="M309.94,-117.62C315.32,-109.12 323.42,-96.33 330.13,-85.74"/>
<polygon fill="#63b8ff" stroke="#63b8ff" points="333.03,-87.71 335.42,-77.39 327.11,-83.97 333.03,-87.71"/>
</a>
</g>
</g>
<!-- Node25&#45;&gt;Node9 -->
<g id="edge30_Node000025_Node000009" class="edge">
<title>Node25&#45;&gt;Node9</title>
<g id="a_edge30_Node000025_Node000009"><a xlink:title=" ">
<path fill="none" stroke="#63b8ff" d="M342,-55.59C342,-49.01 342,-39.96 342,-31.73"/>
<polygon fill="#63b8ff" stroke="#63b8ff" points="345.5,-31.81 342,-21.81 338.5,-31.81 345.5,-31.81"/>
</a>
</g>
</g>
<!-- Node25&#45;&gt;Node23 -->
<g id="edge29_Node000025_Node000023" class="edge">
<title>Node25&#45;&gt;Node23</title>
<g id="a_edge29_Node000025_Node000023"><a xlink:title=" ">
<path fill="none" stroke="#63b8ff" d="M324.76,-55.59C309.66,-47.36 287.47,-35.26 270.02,-25.74"/>
<polygon fill="#63b8ff" stroke="#63b8ff" points="272.16,-22.92 261.71,-21.2 268.81,-29.07 272.16,-22.92"/>
</a>
</g>
</g>
<!-- Node29 -->
<g id="Node000029" class="node">
<title>Node29</title>
<g id="a_Node000029"><a xlink:title=" ">
<polygon fill="#e0e0e0" stroke="#999999" points="1706.75,-200 1581.25,-200 1581.25,-180 1706.75,-180 1706.75,-200"/>
<text xml:space="preserve" text-anchor="middle" x="1644" y="-186.5" font-family="Helvetica,sans-Serif" font-size="10.00">boost/describe/enum.hpp</text>
</a>
</g>
</g>
<!-- Node28&#45;&gt;Node29 -->
<g id="edge39_Node000028_Node000029" class="edge">
<title>Node28&#45;&gt;Node29</title>
<g id="a_edge39_Node000028_Node000029"><a xlink:title=" ">
<path fill="none" stroke="#63b8ff" d="M1436.71,-241.56C1479.21,-231.19 1547.58,-214.52 1594.08,-203.18"/>
<polygon fill="#63b8ff" stroke="#63b8ff" points="1594.76,-206.61 1603.64,-200.84 1593.1,-199.81 1594.76,-206.61"/>
</a>
</g>
</g>
</g>
</svg>

<g id="navigator" transform="translate(0 0)" fill="#404254">
  <rect fill="#f2f5e9" fill-opacity="0.5" stroke="#606060" stroke-width=".5" x="0" y="0" width="60" height="60"/>
  <use id="zoomplus" xlink:href="#zoomPlus" x="17" y="9" onmousedown="handleZoom(evt,'in')"/>
  <use id="zoomminus" xlink:href="#zoomMin" x="42" y="9" onmousedown="handleZoom(evt,'out')"/>
  <use id="reset" xlink:href="#resetDef" x="30" y="36" onmousedown="handleReset()"/>
   <use id="arrowup" xlink:href="#arrowUp" x="0" y="0" onmousedown="handlePan(0,-1)"/>
  <use id="arrowright" xlink:href="#arrowRight" x="0" y="0" onmousedown="handlePan(1,0)"/>
  <use id="arrowdown" xlink:href="#arrowDown" x="0" y="0" onmousedown="handlePan(0,1)"/>
  <use id="arrowleft" xlink:href="#arrowLeft" x="0" y="0" onmousedown="handlePan(-1,0)"/>
</g>
<svg viewBox="0 0 15 15" width="100%" height="30px" preserveAspectRatio="xMaxYMin meet">
 <g id="arrow_out" transform="scale(0.3 0.3)">
  <a xlink:href="parameter__define_8hpp__incl_org.svg" target="_base">
   <rect id="button" ry="5" rx="5" y="6" x="6" height="38" width="38"
        fill="#f2f5e9" fill-opacity="0.5" stroke="#606060" stroke-width="1.0"/>
   <path id="arrow"
     d="M 11.500037,31.436501 C 11.940474,20.09759 22.043105,11.32322 32.158766,21.979434 L 37.068811,17.246167 C 37.068811,17.246167 37.088388,32 37.088388,32 L 22.160133,31.978069 C 22.160133,31.978069 26.997745,27.140456 26.997745,27.140456 C 18.528582,18.264221 13.291696,25.230495 11.500037,31.436501 z"
     style="fill:#404040;"/>
  </a>
 </g>
</svg>

<style type='text/css'>
<![CDATA[
[data-mouse-over-selected='false'] { opacity: 0.7; }
[data-mouse-over-selected='true']  { opacity: 1.0; }
]]>
</style>
<script type="application/ecmascript"><![CDATA[
document.addEventListener('DOMContentLoaded', (event) => {
  highlightEdges();
  highlightAdjacentNodes();
});
]]></script>
</svg>
