<?xml version="1.0" encoding="UTF-8" standalone="no"?>
<!DOCTYPE svg PUBLIC "-//W3C//DTD SVG 1.1//EN"
 "http://www.w3.org/Graphics/SVG/1.1/DTD/svg11.dtd">
<!-- Generated by graphviz version 14.1.2 (20260124.0452)
 -->
<!-- Title: depicture_menu/src/core/domain/model/command/parameter.hpp Pages: 1 -->
<!--zoomable 468 -->

<svg id="main" version="1.1" xmlns="http://www.w3.org/2000/svg" xmlns:xlink="http://www.w3.org/1999/xlink" xml:space="preserve" onload="init(evt)">

<style type="text/css"><![CDATA[
.node, .edge {opacity: 0.7;}
.node.selected, .edge.selected {opacity: 1;}
.edge:hover path { stroke: red; }
.edge:hover polygon { stroke: red; fill: red; }
]]></style>

<defs>
  <circle id="rim" cx="0" cy="0" r="7"/>
  <circle id="rim2" cx="0" cy="0" r="3.5"/>
  <g id="zoomPlus">
    <use xlink:href="#rim" fill="#404040"><set attributeName="fill" to="#808080" begin="zoomplus.mouseover" end="zoomplus.mouseout"/></use>
    <path d="M-4,0h8M0,-4v8" fill="none" stroke="white" stroke-width="1.5" pointer-events="none"/>
  </g>
  <g id="zoomMin">
    <use xlink:href="#rim" fill="#404040"><set attributeName="fill" to="#808080" begin="zoomminus.mouseover" end="zoomminus.mouseout"/></use>
    <path d="M-4,0h8" fill="none" stroke="white" stroke-width="1.5" pointer-events="none"/>
  </g>
  <g id="arrowUp" transform="translate(30 24)">
    <use xlink:href="#rim"/>
    <path pointer-events="none" fill="none" stroke="white" stroke-width="1.5" d="M0,-3.0v7 M-2.5,-0.5L0,-3.0L2.5,-0.5"/>
  </g>
  <g id="arrowRight" transform="rotate(90) translate(36 -43)">
    <use xlink:href="#rim"/>
    <path pointer-events="none" fill="none" stroke="white" stroke-width="1.5" d="M0,-3.0v7 M-2.5,-0.5L0,-3.0L2.5,-0.5"/>
  </g>
  <g id="arrowDown" transform="rotate(180) translate(-30 -48)">
    <use xlink:href="#rim"/>
    <path pointer-events="none" fill="none" stroke="white" stroke-width="1.5" d="M0,-3.0v7 M-2.5,-0.5L0,-3.0L2.5,-0.5"/>
  </g>
  <g id="arrowLeft" transform="rotate(270) translate(-36 17)">
    <use xlink:href="#rim"/>
    <path pointer-events="none" fill="none" stroke="white" stroke-width="1.5" d="M0,-3.0v7 M-2.5,-0.5L0,-3.0L2.5,-0.5"/>
  </g>
  <g id="resetDef">
    <use xlink:href="#rim2" fill="#404040"><set attributeName="fill" to="#808080" begin="reset.mouseover" end="reset.mouseout"/></use>
  </g>
</defs>
<script type="application/ecmascript">
var viewWidth = 2311;
var viewHeight = 468;
var sectionId = 'dynsection-0';
</script>
<script type="application/ecmascript" xlink:href="svg.min.js"/>
<svg id="graph" class="graph">
<g id="viewport">
<title>depicture_menu/src/core/domain/model/command/parameter.hpp</title>
<!-- Node1 -->
<g id="Node000001" class="node">
<title>Node1</title>
<g id="a_Node000001"><a xlink:title=" ">
<polygon fill="#999999" stroke="#666666" points="1175.58,-460 1028.33,-460 1028.33,-416 1175.58,-416 1175.58,-460"/>
<text xml:space="preserve" text-anchor="start" x="1036.33" y="-446.5" font-family="Helvetica,sans-Serif" font-size="10.00">depicture_menu/src</text>
<text xml:space="preserve" text-anchor="start" x="1036.33" y="-434.5" font-family="Helvetica,sans-Serif" font-size="10.00">/core/domain/model/command</text>
<text xml:space="preserve" text-anchor="middle" x="1101.96" y="-422.5" font-family="Helvetica,sans-Serif" font-size="10.00">/parameter.hpp</text>
</a>
</g>
</g>
<!-- Node2 -->
<g id="Node000002" class="node">
<title>Node2</title>
<g id="a_Node000002"><a xlink:href="command__ids_8hpp.html" target="_top" xlink:title=" ">
<polygon fill="white" stroke="#666666" points="702.71,-380 607.21,-380 607.21,-360 702.71,-360 702.71,-380"/>
<text xml:space="preserve" text-anchor="middle" x="654.96" y="-366.5" font-family="Helvetica,sans-Serif" font-size="10.00">command_ids.hpp</text>
</a>
</g>
</g>
<!-- Node1&#45;&gt;Node2 -->
<g id="edge1_Node000001_Node000002" class="edge">
<title>Node1&#45;&gt;Node2</title>
<g id="a_edge1_Node000001_Node000002"><a xlink:title=" ">
<path fill="none" stroke="#63b8ff" d="M1027.9,-426.06C939.86,-413.07 794.74,-391.64 713.94,-379.71"/>
<polygon fill="#63b8ff" stroke="#63b8ff" points="714.87,-376.31 704.47,-378.31 713.85,-383.23 714.87,-376.31"/>
</a>
</g>
</g>
<!-- Node10 -->
<g id="Node000010" class="node">
<title>Node10</title>
<g id="a_Node000010"><a xlink:title=" ">
<polygon fill="#e0e0e0" stroke="#999999" points="831.96,-76 791.96,-76 791.96,-56 831.96,-56 831.96,-76"/>
<text xml:space="preserve" text-anchor="middle" x="811.96" y="-62.5" font-family="Helvetica,sans-Serif" font-size="10.00">string</text>
</a>
</g>
</g>
<!-- Node1&#45;&gt;Node10 -->
<g id="edge58_Node000001_Node000010" class="edge">
<title>Node1&#45;&gt;Node10</title>
<g id="a_edge58_Node000001_Node000010"><a xlink:title=" ">
<path fill="none" stroke="#63b8ff" d="M1027.95,-427.59C963.52,-418.11 876.29,-401.78 848.96,-380 837.59,-370.94 739.18,-158.18 735.96,-144 732.81,-130.13 728.92,-124.36 735.96,-112 745.68,-94.95 764.67,-83.7 781.24,-76.72"/>
<polygon fill="#63b8ff" stroke="#63b8ff" points="782.16,-80.11 790.24,-73.26 779.65,-73.58 782.16,-80.11"/>
</a>
</g>
</g>
<!-- Node29 -->
<g id="Node000029" class="node">
<title>Node29</title>
<g id="a_Node000029"><a xlink:title=" ">
<polygon fill="#e0e0e0" stroke="#999999" points="238.33,-200 137.58,-200 137.58,-180 238.33,-180 238.33,-200"/>
<text xml:space="preserve" text-anchor="middle" x="187.96" y="-186.5" font-family="Helvetica,sans-Serif" font-size="10.00">boost/uuid/uuid.hpp</text>
</a>
</g>
</g>
<!-- Node1&#45;&gt;Node29 -->
<g id="edge56_Node000001_Node000029" class="edge">
<title>Node1&#45;&gt;Node29</title>
<g id="a_edge56_Node000001_Node000029"><a xlink:title=" ">
<path fill="none" stroke="#63b8ff" d="M1028.09,-437.63C803.93,-437.81 138.82,-424.88 8.96,-268 -27.29,-224.21 61.16,-204.73 126.23,-196.52"/>
<polygon fill="#63b8ff" stroke="#63b8ff" points="126.25,-200.04 135.76,-195.38 125.42,-193.09 126.25,-200.04"/>
</a>
</g>
</g>
<!-- Node35 -->
<g id="Node000035" class="node">
<title>Node35</title>
<g id="a_Node000035"><a xlink:href="parameter__define_8hpp.html" target="_top" xlink:title=" ">
<polygon fill="white" stroke="#666666" points="967.83,-380 858.08,-380 858.08,-360 967.83,-360 967.83,-380"/>
<text xml:space="preserve" text-anchor="middle" x="912.96" y="-366.5" font-family="Helvetica,sans-Serif" font-size="10.00">parameter_define.hpp</text>
</a>
</g>
</g>
<!-- Node1&#45;&gt;Node35 -->
<g id="edge47_Node000001_Node000035" class="edge">
<title>Node1&#45;&gt;Node35</title>
<g id="a_edge47_Node000001_Node000035"><a xlink:title=" ">
<path fill="none" stroke="#63b8ff" d="M1040.6,-415.57C1010.93,-405.21 976.27,-393.11 950.56,-384.13"/>
<polygon fill="#63b8ff" stroke="#63b8ff" points="951.8,-380.86 941.21,-380.86 949.49,-387.47 951.8,-380.86"/>
</a>
</g>
</g>
<!-- Node36 -->
<g id="Node000036" class="node">
<title>Node36</title>
<g id="a_Node000036"><a xlink:href="parameter__kind_8hpp.html" target="_top" xlink:title=" ">
<polygon fill="white" stroke="#666666" points="1046.71,-324 945.21,-324 945.21,-304 1046.71,-304 1046.71,-324"/>
<text xml:space="preserve" text-anchor="middle" x="995.96" y="-310.5" font-family="Helvetica,sans-Serif" font-size="10.00">parameter_kind.hpp</text>
</a>
</g>
</g>
<!-- Node1&#45;&gt;Node36 -->
<g id="edge51_Node000001_Node000036" class="edge">
<title>Node1&#45;&gt;Node36</title>
<g id="a_edge51_Node000001_Node000036"><a xlink:title=" ">
<path fill="none" stroke="#63b8ff" d="M1056.84,-415.73C1041.65,-406.62 1025.82,-394.65 1014.96,-380 1005.31,-366.98 1000.55,-349.14 998.2,-335.45"/>
<polygon fill="#63b8ff" stroke="#63b8ff" points="1001.7,-335.21 996.87,-325.79 994.77,-336.17 1001.7,-335.21"/>
</a>
</g>
</g>
<!-- Node38 -->
<g id="Node000038" class="node">
<title>Node38</title>
<g id="a_Node000038"><a xlink:title=" ">
<polygon fill="#e0e0e0" stroke="#999999" points="1179.71,-380 1024.21,-380 1024.21,-360 1179.71,-360 1179.71,-380"/>
<text xml:space="preserve" text-anchor="middle" x="1101.96" y="-366.5" font-family="Helvetica,sans-Serif" font-size="10.00">boost/describe/enumerators.hpp</text>
</a>
</g>
</g>
<!-- Node1&#45;&gt;Node38 -->
<g id="edge52_Node000001_Node000038" class="edge">
<title>Node1&#45;&gt;Node38</title>
<g id="a_edge52_Node000001_Node000038"><a xlink:title=" ">
<path fill="none" stroke="#63b8ff" d="M1101.96,-415.75C1101.96,-408.13 1101.96,-399.53 1101.96,-391.93"/>
<polygon fill="#63b8ff" stroke="#63b8ff" points="1105.46,-391.93 1101.96,-381.93 1098.46,-391.93 1105.46,-391.93"/>
</a>
</g>
</g>
<!-- Node39 -->
<g id="Node000039" class="node">
<title>Node39</title>
<g id="a_Node000039"><a xlink:title=" ">
<polygon fill="#e0e0e0" stroke="#999999" points="1325.83,-380 1198.08,-380 1198.08,-360 1325.83,-360 1325.83,-380"/>
<text xml:space="preserve" text-anchor="middle" x="1261.96" y="-366.5" font-family="Helvetica,sans-Serif" font-size="10.00">boost/mp11/algorithm.hpp</text>
</a>
</g>
</g>
<!-- Node1&#45;&gt;Node39 -->
<g id="edge53_Node000001_Node000039" class="edge">
<title>Node1&#45;&gt;Node39</title>
<g id="a_edge53_Node000001_Node000039"><a xlink:title=" ">
<path fill="none" stroke="#63b8ff" d="M1153.91,-415.57C1178.46,-405.44 1207.05,-393.65 1228.65,-384.74"/>
<polygon fill="#63b8ff" stroke="#63b8ff" points="1229.95,-387.99 1237.86,-380.94 1227.28,-381.52 1229.95,-387.99"/>
</a>
</g>
</g>
<!-- Node40 -->
<g id="Node000040" class="node">
<title>Node40</title>
<g id="a_Node000040"><a xlink:title=" ">
<polygon fill="#e0e0e0" stroke="#999999" points="1454.21,-380 1343.71,-380 1343.71,-360 1454.21,-360 1454.21,-380"/>
<text xml:space="preserve" text-anchor="middle" x="1398.96" y="-366.5" font-family="Helvetica,sans-Serif" font-size="10.00">boost/mp11/utility.hpp</text>
</a>
</g>
</g>
<!-- Node1&#45;&gt;Node40 -->
<g id="edge54_Node000001_Node000040" class="edge">
<title>Node1&#45;&gt;Node40</title>
<g id="a_edge54_Node000001_Node000040"><a xlink:title=" ">
<path fill="none" stroke="#63b8ff" d="M1175.76,-420.6C1228.4,-408.9 1297.98,-393.44 1345.37,-382.91"/>
<polygon fill="#63b8ff" stroke="#63b8ff" points="1345.84,-386.39 1354.84,-380.8 1344.32,-379.56 1345.84,-386.39"/>
</a>
</g>
</g>
<!-- Node41 -->
<g id="Node000041" class="node">
<title>Node41</title>
<g id="a_Node000041"><a xlink:title=" ">
<polygon fill="#e0e0e0" stroke="#999999" points="1555.33,-380 1472.58,-380 1472.58,-360 1555.33,-360 1555.33,-380"/>
<text xml:space="preserve" text-anchor="middle" x="1513.96" y="-366.5" font-family="Helvetica,sans-Serif" font-size="10.00">boost/hana.hpp</text>
</a>
</g>
</g>
<!-- Node1&#45;&gt;Node41 -->
<g id="edge55_Node000001_Node000041" class="edge">
<title>Node1&#45;&gt;Node41</title>
<g id="a_edge55_Node000001_Node000041"><a xlink:title=" ">
<path fill="none" stroke="#63b8ff" d="M1176,-425.71C1246.52,-414.86 1355.97,-397.8 1461.08,-380.29"/>
<polygon fill="#63b8ff" stroke="#63b8ff" points="1461.44,-383.78 1470.73,-378.68 1460.29,-376.87 1461.44,-383.78"/>
</a>
</g>
</g>
<!-- Node42 -->
<g id="Node000042" class="node">
<title>Node42</title>
<g id="a_Node000042"><a xlink:title=" ">
<polygon fill="#e0e0e0" stroke="#999999" points="1626.71,-380 1573.21,-380 1573.21,-360 1626.71,-360 1626.71,-380"/>
<text xml:space="preserve" text-anchor="middle" x="1599.96" y="-366.5" font-family="Helvetica,sans-Serif" font-size="10.00">iostream</text>
</a>
</g>
</g>
<!-- Node1&#45;&gt;Node42 -->
<g id="edge57_Node000001_Node000042" class="edge">
<title>Node1&#45;&gt;Node42</title>
<g id="a_edge57_Node000001_Node000042"><a xlink:title=" ">
<path fill="none" stroke="#63b8ff" d="M1176,-430.68C1265.27,-422.43 1419.99,-406.12 1561.85,-380.19"/>
<polygon fill="#63b8ff" stroke="#63b8ff" points="1562.23,-383.68 1571.42,-378.41 1560.95,-376.79 1562.23,-383.68"/>
</a>
</g>
</g>
<!-- Node43 -->
<g id="Node000043" class="node">
<title>Node43</title>
<g id="a_Node000043"><a xlink:title=" ">
<polygon fill="#e0e0e0" stroke="#999999" points="1689.58,-380 1644.33,-380 1644.33,-360 1689.58,-360 1689.58,-380"/>
<text xml:space="preserve" text-anchor="middle" x="1666.96" y="-366.5" font-family="Helvetica,sans-Serif" font-size="10.00">variant</text>
</a>
</g>
</g>
<!-- Node1&#45;&gt;Node43 -->
<g id="edge59_Node000001_Node000043" class="edge">
<title>Node1&#45;&gt;Node43</title>
<g id="a_edge59_Node000001_Node000043"><a xlink:title=" ">
<path fill="none" stroke="#63b8ff" d="M1176,-433.23C1277.38,-427.15 1465.11,-412.63 1632.78,-380.34"/>
<polygon fill="#63b8ff" stroke="#63b8ff" points="1633.42,-383.78 1642.56,-378.43 1632.08,-376.91 1633.42,-383.78"/>
</a>
</g>
</g>
<!-- Node3 -->
<g id="Node000003" class="node">
<title>Node3</title>
<g id="a_Node000003"><a xlink:href="model_2entity__id_8hpp.html" target="_top" xlink:title=" ">
<polygon fill="white" stroke="#666666" points="596.21,-324 515.71,-324 515.71,-304 596.21,-304 596.21,-324"/>
<text xml:space="preserve" text-anchor="middle" x="555.96" y="-310.5" font-family="Helvetica,sans-Serif" font-size="10.00">../entity_id.hpp</text>
</a>
</g>
</g>
<!-- Node2&#45;&gt;Node3 -->
<g id="edge2_Node000002_Node000003" class="edge">
<title>Node2&#45;&gt;Node3</title>
<g id="a_edge2_Node000002_Node000003"><a xlink:title=" ">
<path fill="none" stroke="#63b8ff" d="M637.72,-359.59C622.62,-351.36 600.43,-339.26 582.98,-329.74"/>
<polygon fill="#63b8ff" stroke="#63b8ff" points="585.12,-326.92 574.67,-325.2 581.77,-333.07 585.12,-326.92"/>
</a>
</g>
</g>
<!-- Node4 -->
<g id="Node000004" class="node">
<title>Node4</title>
<g id="a_Node000004"><a xlink:href="model_2value__object_8hpp.html" target="_top" xlink:title=" ">
<polygon fill="white" stroke="#666666" points="1386.71,-262 1297.21,-262 1297.21,-242 1386.71,-242 1386.71,-262"/>
<text xml:space="preserve" text-anchor="middle" x="1341.96" y="-248.5" font-family="Helvetica,sans-Serif" font-size="10.00">value_object.hpp</text>
</a>
</g>
</g>
<!-- Node3&#45;&gt;Node4 -->
<g id="edge3_Node000003_Node000004" class="edge">
<title>Node3&#45;&gt;Node4</title>
<g id="a_edge3_Node000003_Node000004"><a xlink:title=" ">
<path fill="none" stroke="#63b8ff" d="M596.56,-309.9C726.93,-299.95 1135.11,-268.79 1285.55,-257.31"/>
<polygon fill="#63b8ff" stroke="#63b8ff" points="1285.56,-260.82 1295.27,-256.56 1285.03,-253.84 1285.56,-260.82"/>
</a>
</g>
</g>
<!-- Node13 -->
<g id="Node000013" class="node">
<title>Node13</title>
<g id="a_Node000013"><a xlink:title=" ">
<polygon fill="#e0e0e0" stroke="#999999" points="839.33,-144 744.58,-144 744.58,-112 839.33,-112 839.33,-144"/>
<text xml:space="preserve" text-anchor="start" x="752.58" y="-130.5" font-family="Helvetica,sans-Serif" font-size="10.00">boost/serialization</text>
<text xml:space="preserve" text-anchor="middle" x="791.96" y="-118.5" font-family="Helvetica,sans-Serif" font-size="10.00">/access.hpp</text>
</a>
</g>
</g>
<!-- Node3&#45;&gt;Node13 -->
<g id="edge41_Node000003_Node000013" class="edge">
<title>Node3&#45;&gt;Node13</title>
<g id="a_edge41_Node000003_Node000013"><a xlink:title=" ">
<path fill="none" stroke="#63b8ff" d="M596.67,-310.07C652.73,-305.14 749.46,-293.17 772.96,-268 801.13,-237.82 800.33,-186.67 796.57,-155.55"/>
<polygon fill="#63b8ff" stroke="#63b8ff" points="800.06,-155.22 795.19,-145.81 793.13,-156.2 800.06,-155.22"/>
</a>
</g>
</g>
<!-- Node3&#45;&gt;Node29 -->
<g id="edge43_Node000003_Node000029" class="edge">
<title>Node3&#45;&gt;Node29</title>
<g id="a_edge43_Node000003_Node000029"><a xlink:title=" ">
<path fill="none" stroke="#63b8ff" d="M515.42,-313.31C433.4,-313.09 251.74,-307.96 206.96,-268 191.25,-253.98 187.53,-229.25 187.08,-211.59"/>
<polygon fill="#63b8ff" stroke="#63b8ff" points="190.58,-211.79 187.19,-201.76 183.58,-211.72 190.58,-211.79"/>
</a>
</g>
</g>
<!-- Node30 -->
<g id="Node000030" class="node">
<title>Node30</title>
<g id="a_Node000030"><a xlink:title=" ">
<polygon fill="#e0e0e0" stroke="#999999" points="343.83,-262 216.08,-262 216.08,-242 343.83,-242 343.83,-262"/>
<text xml:space="preserve" text-anchor="middle" x="279.96" y="-248.5" font-family="Helvetica,sans-Serif" font-size="10.00">boost/functional/hash.hpp</text>
</a>
</g>
</g>
<!-- Node3&#45;&gt;Node30 -->
<g id="edge40_Node000003_Node000030" class="edge">
<title>Node3&#45;&gt;Node30</title>
<g id="a_edge40_Node000003_Node000030"><a xlink:title=" ">
<path fill="none" stroke="#63b8ff" d="M515.23,-304.15C467.36,-293.74 387.7,-276.42 334.51,-264.86"/>
<polygon fill="#63b8ff" stroke="#63b8ff" points="335.58,-261.51 325.07,-262.81 334.1,-268.35 335.58,-261.51"/>
</a>
</g>
</g>
<!-- Node31 -->
<g id="Node000031" class="node">
<title>Node31</title>
<g id="a_Node000031"><a xlink:title=" ">
<polygon fill="#e0e0e0" stroke="#999999" points="461.58,-268 362.33,-268 362.33,-236 461.58,-236 461.58,-268"/>
<text xml:space="preserve" text-anchor="start" x="370.33" y="-254.5" font-family="Helvetica,sans-Serif" font-size="10.00">boost/serialization</text>
<text xml:space="preserve" text-anchor="middle" x="411.96" y="-242.5" font-family="Helvetica,sans-Serif" font-size="10.00">/array_wrapper.hpp</text>
</a>
</g>
</g>
<!-- Node3&#45;&gt;Node31 -->
<g id="edge42_Node000003_Node000031" class="edge">
<title>Node3&#45;&gt;Node31</title>
<g id="a_edge42_Node000003_Node000031"><a xlink:title=" ">
<path fill="none" stroke="#63b8ff" d="M533.46,-303.62C513.73,-295.41 484.4,-283.18 459.5,-272.81"/>
<polygon fill="#63b8ff" stroke="#63b8ff" points="461.11,-269.69 450.53,-269.07 458.42,-276.15 461.11,-269.69"/>
</a>
</g>
</g>
<!-- Node32 -->
<g id="Node000032" class="node">
<title>Node32</title>
<g id="a_Node000032"><a xlink:title=" ">
<polygon fill="#e0e0e0" stroke="#999999" points="631.83,-262 480.08,-262 480.08,-242 631.83,-242 631.83,-262"/>
<text xml:space="preserve" text-anchor="middle" x="555.96" y="-248.5" font-family="Helvetica,sans-Serif" font-size="10.00">boost/uuid/uuid_generators.hpp</text>
</a>
</g>
</g>
<!-- Node3&#45;&gt;Node32 -->
<g id="edge44_Node000003_Node000032" class="edge">
<title>Node3&#45;&gt;Node32</title>
<g id="a_edge44_Node000003_Node000032"><a xlink:title=" ">
<path fill="none" stroke="#63b8ff" d="M555.96,-303.62C555.96,-295.56 555.96,-283.65 555.96,-273.41"/>
<polygon fill="#63b8ff" stroke="#63b8ff" points="559.46,-273.63 555.96,-263.63 552.46,-273.63 559.46,-273.63"/>
</a>
</g>
</g>
<!-- Node33 -->
<g id="Node000033" class="node">
<title>Node33</title>
<g id="a_Node000033"><a xlink:title=" ">
<polygon fill="#e0e0e0" stroke="#999999" points="763.71,-262 650.21,-262 650.21,-242 763.71,-242 763.71,-262"/>
<text xml:space="preserve" text-anchor="middle" x="706.96" y="-248.5" font-family="Helvetica,sans-Serif" font-size="10.00">boost/uuid/uuid_io.hpp</text>
</a>
</g>
</g>
<!-- Node3&#45;&gt;Node33 -->
<g id="edge45_Node000003_Node000033" class="edge">
<title>Node3&#45;&gt;Node33</title>
<g id="a_edge45_Node000003_Node000033"><a xlink:title=" ">
<path fill="none" stroke="#63b8ff" d="M579.55,-303.62C604.6,-293.67 644.41,-277.85 672.86,-266.55"/>
<polygon fill="#63b8ff" stroke="#63b8ff" points="674.12,-269.81 682.13,-262.87 671.54,-263.31 674.12,-269.81"/>
</a>
</g>
</g>
<!-- Node34 -->
<g id="Node000034" class="node">
<title>Node34</title>
<g id="a_Node000034"><a xlink:title=" ">
<polygon fill="#e0e0e0" stroke="#999999" points="159.96,-262 17.96,-262 17.96,-242 159.96,-242 159.96,-262"/>
<text xml:space="preserve" text-anchor="middle" x="88.96" y="-248.5" font-family="Helvetica,sans-Serif" font-size="10.00">boost/uuid/uuid_serialize.hpp</text>
</a>
</g>
</g>
<!-- Node3&#45;&gt;Node34 -->
<g id="edge46_Node000003_Node000034" class="edge">
<title>Node3&#45;&gt;Node34</title>
<g id="a_edge46_Node000003_Node000034"><a xlink:title=" ">
<path fill="none" stroke="#63b8ff" d="M515.43,-309C445.57,-301.93 298,-286.24 173.96,-268 166.49,-266.9 158.67,-265.65 150.92,-264.36"/>
<polygon fill="#63b8ff" stroke="#63b8ff" points="151.61,-260.93 141.16,-262.7 150.43,-267.83 151.61,-260.93"/>
</a>
</g>
</g>
<!-- Node5 -->
<g id="Node000005" class="node">
<title>Node5</title>
<g id="a_Node000005"><a xlink:href="model_2presistence_8hpp.html" target="_top" xlink:title=" ">
<polygon fill="white" stroke="#666666" points="1384.46,-200 1299.46,-200 1299.46,-180 1384.46,-180 1384.46,-200"/>
<text xml:space="preserve" text-anchor="middle" x="1341.96" y="-186.5" font-family="Helvetica,sans-Serif" font-size="10.00">presistence.hpp</text>
</a>
</g>
</g>
<!-- Node4&#45;&gt;Node5 -->
<g id="edge4_Node000004_Node000005" class="edge">
<title>Node4&#45;&gt;Node5</title>
<g id="a_edge4_Node000004_Node000005"><a xlink:title=" ">
<path fill="none" stroke="#63b8ff" d="M1341.96,-241.62C1341.96,-233.56 1341.96,-221.65 1341.96,-211.41"/>
<polygon fill="#63b8ff" stroke="#63b8ff" points="1345.46,-211.63 1341.96,-201.63 1338.46,-211.63 1345.46,-211.63"/>
</a>
</g>
</g>
<!-- Node7 -->
<g id="Node000007" class="node">
<title>Node7</title>
<g id="a_Node000007"><a xlink:title=" ">
<polygon fill="#e0e0e0" stroke="#999999" points="1909.33,-76 1814.58,-76 1814.58,-56 1909.33,-56 1909.33,-76"/>
<text xml:space="preserve" text-anchor="middle" x="1861.96" y="-62.5" font-family="Helvetica,sans-Serif" font-size="10.00">boost/pfr/core.hpp</text>
</a>
</g>
</g>
<!-- Node4&#45;&gt;Node7 -->
<g id="edge35_Node000004_Node000007" class="edge">
<title>Node4&#45;&gt;Node7</title>
<g id="a_edge35_Node000004_Node000007"><a xlink:title=" ">
<path fill="none" stroke="#63b8ff" d="M1372.59,-241.52C1380.17,-239.44 1388.31,-237.44 1395.96,-236 1552.25,-206.61 1597.42,-237.53 1751.96,-200 1817.89,-183.99 1855.79,-200.08 1893.96,-144 1906.62,-125.39 1892.1,-100.98 1878.74,-84.68"/>
<polygon fill="#63b8ff" stroke="#63b8ff" points="1881.46,-82.47 1872.23,-77.27 1876.2,-87.09 1881.46,-82.47"/>
</a>
</g>
</g>
<!-- Node8 -->
<g id="Node000008" class="node">
<title>Node8</title>
<g id="a_Node000008"><a xlink:title=" ">
<polygon fill="#e0e0e0" stroke="#999999" points="1602.58,-76 1563.33,-76 1563.33,-56 1602.58,-56 1602.58,-76"/>
<text xml:space="preserve" text-anchor="middle" x="1582.96" y="-62.5" font-family="Helvetica,sans-Serif" font-size="10.00">utility</text>
</a>
</g>
</g>
<!-- Node4&#45;&gt;Node8 -->
<g id="edge39_Node000004_Node000008" class="edge">
<title>Node4&#45;&gt;Node8</title>
<g id="a_edge39_Node000004_Node000008"><a xlink:title=" ">
<path fill="none" stroke="#63b8ff" d="M1297.1,-248.13C1185.93,-239.51 912.94,-208.18 1001.96,-112 1020.79,-91.65 1433.5,-73.15 1551.63,-68.26"/>
<polygon fill="#63b8ff" stroke="#63b8ff" points="1551.67,-71.76 1561.52,-67.85 1551.38,-64.77 1551.67,-71.76"/>
</a>
</g>
</g>
<!-- Node20 -->
<g id="Node000020" class="node">
<title>Node20</title>
<g id="a_Node000020"><a xlink:href="concepts_8hpp.html" target="_top" xlink:title=" ">
<polygon fill="white" stroke="#666666" points="1743.21,-200 1668.71,-200 1668.71,-180 1743.21,-180 1743.21,-200"/>
<text xml:space="preserve" text-anchor="middle" x="1705.96" y="-186.5" font-family="Helvetica,sans-Serif" font-size="10.00">concepts.hpp</text>
</a>
</g>
</g>
<!-- Node4&#45;&gt;Node20 -->
<g id="edge20_Node000004_Node000020" class="edge">
<title>Node4&#45;&gt;Node20</title>
<g id="a_edge20_Node000004_Node000020"><a xlink:title=" ">
<path fill="none" stroke="#63b8ff" d="M1373.49,-241.52C1380.82,-239.52 1388.63,-237.54 1395.96,-236 1487.45,-216.73 1595.87,-203.05 1657.21,-196.14"/>
<polygon fill="#63b8ff" stroke="#63b8ff" points="1657.41,-199.64 1666.97,-195.06 1656.64,-192.68 1657.41,-199.64"/>
</a>
</g>
</g>
<!-- Node21 -->
<g id="Node000021" class="node">
<title>Node21</title>
<g id="a_Node000021"><a xlink:href="reflection_8hpp.html" target="_top" xlink:title=" ">
<polygon fill="white" stroke="#666666" points="2050.33,-200 1949.58,-200 1949.58,-180 2050.33,-180 2050.33,-200"/>
<text xml:space="preserve" text-anchor="middle" x="1999.96" y="-186.5" font-family="Helvetica,sans-Serif" font-size="10.00">utility/reflection.hpp</text>
</a>
</g>
</g>
<!-- Node4&#45;&gt;Node21 -->
<g id="edge22_Node000004_Node000021" class="edge">
<title>Node4&#45;&gt;Node21</title>
<g id="a_edge22_Node000004_Node000021"><a xlink:title=" ">
<path fill="none" stroke="#63b8ff" d="M1371.71,-241.57C1379.52,-239.42 1388,-237.36 1395.96,-236 1629.12,-196.14 1691.49,-222.48 1926.96,-200 1930.58,-199.65 1934.3,-199.27 1938.06,-198.87"/>
<polygon fill="#63b8ff" stroke="#63b8ff" points="1938.29,-202.37 1947.84,-197.77 1937.51,-195.41 1938.29,-202.37"/>
</a>
</g>
</g>
<!-- Node23 -->
<g id="Node000023" class="node">
<title>Node23</title>
<g id="a_Node000023"><a xlink:title=" ">
<polygon fill="#e0e0e0" stroke="#999999" points="2288.96,-76 2164.96,-76 2164.96,-56 2288.96,-56 2288.96,-76"/>
<text xml:space="preserve" text-anchor="middle" x="2226.96" y="-62.5" font-family="Helvetica,sans-Serif" font-size="10.00">boost/pfr/core_name.hpp</text>
</a>
</g>
</g>
<!-- Node4&#45;&gt;Node23 -->
<g id="edge36_Node000004_Node000023" class="edge">
<title>Node4&#45;&gt;Node23</title>
<g id="a_edge36_Node000004_Node000023"><a xlink:title=" ">
<path fill="none" stroke="#63b8ff" d="M1371.41,-241.58C1379.31,-239.39 1387.89,-237.32 1395.96,-236 1687.17,-188.23 1770.15,-260.61 2058.96,-200 2128.2,-185.47 2160.96,-196.88 2207.96,-144 2221.66,-128.58 2225.83,-104.84 2226.94,-87.8"/>
<polygon fill="#63b8ff" stroke="#63b8ff" points="2230.44,-87.93 2227.24,-77.83 2223.44,-87.72 2230.44,-87.93"/>
</a>
</g>
</g>
<!-- Node28 -->
<g id="Node000028" class="node">
<title>Node28</title>
<g id="a_Node000028"><a xlink:title=" ">
<polygon fill="#e0e0e0" stroke="#999999" points="1493.83,-200 1402.08,-200 1402.08,-180 1493.83,-180 1493.83,-200"/>
<text xml:space="preserve" text-anchor="middle" x="1447.96" y="-186.5" font-family="Helvetica,sans-Serif" font-size="10.00">boost/pfr/ops.hpp</text>
</a>
</g>
</g>
<!-- Node4&#45;&gt;Node28 -->
<g id="edge37_Node000004_Node000028" class="edge">
<title>Node4&#45;&gt;Node28</title>
<g id="a_edge37_Node000004_Node000028"><a xlink:title=" ">
<path fill="none" stroke="#63b8ff" d="M1358.52,-241.62C1375.4,-232.07 1401.84,-217.11 1421.6,-205.92"/>
<polygon fill="#63b8ff" stroke="#63b8ff" points="1423.22,-209.03 1430.2,-201.05 1419.77,-202.93 1423.22,-209.03"/>
</a>
</g>
</g>
<!-- Node4&#45;&gt;Node29 -->
<g id="edge38_Node000004_Node000029" class="edge">
<title>Node4&#45;&gt;Node29</title>
<g id="a_edge38_Node000004_Node000029"><a xlink:title=" ">
<path fill="none" stroke="#63b8ff" d="M1296.72,-248.65C1117.38,-239.32 456.16,-204.94 249.86,-194.22"/>
<polygon fill="#63b8ff" stroke="#63b8ff" points="250.33,-190.74 240.16,-193.71 249.97,-197.73 250.33,-190.74"/>
</a>
</g>
</g>
<!-- Node6 -->
<g id="Node000006" class="node">
<title>Node6</title>
<g id="a_Node000006"><a xlink:href="model__base__concepts_8hpp.html" target="_top" xlink:title=" ">
<polygon fill="white" stroke="#666666" points="1885.08,-138 1752.83,-138 1752.83,-118 1885.08,-118 1885.08,-138"/>
<text xml:space="preserve" text-anchor="middle" x="1818.96" y="-124.5" font-family="Helvetica,sans-Serif" font-size="10.00">model_base_concepts.hpp</text>
</a>
</g>
</g>
<!-- Node5&#45;&gt;Node6 -->
<g id="edge5_Node000005_Node000006" class="edge">
<title>Node5&#45;&gt;Node6</title>
<g id="a_edge5_Node000005_Node000006"><a xlink:title=" ">
<path fill="none" stroke="#63b8ff" d="M1384.78,-181.22C1387.54,-180.78 1390.29,-180.37 1392.96,-180 1546.07,-158.55 1585.96,-166.26 1738.96,-144 1746.11,-142.96 1753.6,-141.74 1761,-140.44"/>
<polygon fill="#63b8ff" stroke="#63b8ff" points="1761.4,-143.93 1770.62,-138.71 1760.16,-137.04 1761.4,-143.93"/>
</a>
</g>
</g>
<!-- Node5&#45;&gt;Node7 -->
<g id="edge12_Node000005_Node000007" class="edge">
<title>Node5&#45;&gt;Node7</title>
<g id="a_edge12_Node000005_Node000007"><a xlink:title=" ">
<path fill="none" stroke="#63b8ff" d="M1384.78,-181.25C1387.55,-180.81 1390.29,-180.39 1392.96,-180 1531.53,-159.82 1577.38,-199.46 1705.96,-144 1726.23,-135.26 1724.93,-123.2 1743.96,-112 1767.02,-98.43 1794.9,-87.57 1817.78,-79.92"/>
<polygon fill="#63b8ff" stroke="#63b8ff" points="1818.69,-83.3 1827.12,-76.89 1816.53,-76.65 1818.69,-83.3"/>
</a>
</g>
</g>
<!-- Node9 -->
<g id="Node000009" class="node">
<title>Node9</title>
<g id="a_Node000009"><a xlink:href="str__conv_8hpp.html" target="_top" xlink:title=" ">
<polygon fill="white" stroke="#666666" points="954.83,-138 857.08,-138 857.08,-118 954.83,-118 954.83,-138"/>
<text xml:space="preserve" text-anchor="middle" x="905.96" y="-124.5" font-family="Helvetica,sans-Serif" font-size="10.00">utility/str_conv.hpp</text>
</a>
</g>
</g>
<!-- Node5&#45;&gt;Node9 -->
<g id="edge8_Node000005_Node000009" class="edge">
<title>Node5&#45;&gt;Node9</title>
<g id="a_edge8_Node000005_Node000009"><a xlink:title=" ">
<path fill="none" stroke="#63b8ff" d="M1298.98,-183.64C1234.42,-175.51 1108.63,-159.39 1001.96,-144 990.45,-142.34 978.17,-140.48 966.38,-138.66"/>
<polygon fill="#63b8ff" stroke="#63b8ff" points="967.17,-135.24 956.75,-137.16 966.1,-142.16 967.17,-135.24"/>
</a>
</g>
</g>
<!-- Node12 -->
<g id="Node000012" class="node">
<title>Node12</title>
<g id="a_Node000012"><a xlink:title=" ">
<polygon fill="#e0e0e0" stroke="#999999" points="1584.58,-144 1479.33,-144 1479.33,-112 1584.58,-112 1584.58,-144"/>
<text xml:space="preserve" text-anchor="start" x="1487.33" y="-130.5" font-family="Helvetica,sans-Serif" font-size="10.00">boost/archive/basic</text>
<text xml:space="preserve" text-anchor="middle" x="1531.96" y="-118.5" font-family="Helvetica,sans-Serif" font-size="10.00">_binary_iarchive.hpp</text>
</a>
</g>
</g>
<!-- Node5&#45;&gt;Node12 -->
<g id="edge11_Node000005_Node000012" class="edge">
<title>Node5&#45;&gt;Node12</title>
<g id="a_edge11_Node000005_Node000012"><a xlink:title=" ">
<path fill="none" stroke="#63b8ff" d="M1371.65,-179.62C1398.49,-171.15 1438.81,-158.42 1472.3,-147.84"/>
<polygon fill="#63b8ff" stroke="#63b8ff" points="1472.98,-151.3 1481.46,-144.95 1470.87,-144.62 1472.98,-151.3"/>
</a>
</g>
</g>
<!-- Node5&#45;&gt;Node13 -->
<g id="edge13_Node000005_Node000013" class="edge">
<title>Node5&#45;&gt;Node13</title>
<g id="a_edge13_Node000005_Node000013"><a xlink:title=" ">
<path fill="none" stroke="#63b8ff" d="M1299.01,-187.56C1214.71,-184.19 1021.61,-173.87 851,-144.36"/>
<polygon fill="#63b8ff" stroke="#63b8ff" points="851.75,-140.94 841.29,-142.65 850.53,-147.83 851.75,-140.94"/>
</a>
</g>
</g>
<!-- Node14 -->
<g id="Node000014" class="node">
<title>Node14</title>
<g id="a_Node000014"><a xlink:title=" ">
<polygon fill="#e0e0e0" stroke="#999999" points="1697.33,-144 1602.58,-144 1602.58,-112 1697.33,-112 1697.33,-144"/>
<text xml:space="preserve" text-anchor="start" x="1610.58" y="-130.5" font-family="Helvetica,sans-Serif" font-size="10.00">boost/serialization</text>
<text xml:space="preserve" text-anchor="middle" x="1649.96" y="-118.5" font-family="Helvetica,sans-Serif" font-size="10.00">/optional.hpp</text>
</a>
</g>
</g>
<!-- Node5&#45;&gt;Node14 -->
<g id="edge14_Node000005_Node000014" class="edge">
<title>Node5&#45;&gt;Node14</title>
<g id="a_edge14_Node000005_Node000014"><a xlink:title=" ">
<path fill="none" stroke="#63b8ff" d="M1384.78,-181.4C1446.25,-170.49 1555.49,-151.07 1591.55,-144.2"/>
<polygon fill="#63b8ff" stroke="#63b8ff" points="1591.76,-147.73 1600.88,-142.34 1590.39,-140.86 1591.76,-147.73"/>
</a>
</g>
</g>
<!-- Node15 -->
<g id="Node000015" class="node">
<title>Node15</title>
<g id="a_Node000015"><a xlink:title=" ">
<polygon fill="#e0e0e0" stroke="#999999" points="1115.21,-144 1010.71,-144 1010.71,-112 1115.21,-112 1115.21,-144"/>
<text xml:space="preserve" text-anchor="start" x="1018.71" y="-130.5" font-family="Helvetica,sans-Serif" font-size="10.00">boost/serialization</text>
<text xml:space="preserve" text-anchor="middle" x="1062.96" y="-118.5" font-family="Helvetica,sans-Serif" font-size="10.00">/unordered_map.hpp</text>
</a>
</g>
</g>
<!-- Node5&#45;&gt;Node15 -->
<g id="edge15_Node000005_Node000015" class="edge">
<title>Node5&#45;&gt;Node15</title>
<g id="a_edge15_Node000005_Node000015"><a xlink:title=" ">
<path fill="none" stroke="#63b8ff" d="M1299.25,-180.68C1257.55,-172.44 1192.02,-159.21 1126.45,-144.52"/>
<polygon fill="#63b8ff" stroke="#63b8ff" points="1127.5,-141.17 1116.98,-142.39 1125.97,-148 1127.5,-141.17"/>
</a>
</g>
</g>
<!-- Node16 -->
<g id="Node000016" class="node">
<title>Node16</title>
<g id="a_Node000016"><a xlink:title=" ">
<polygon fill="#e0e0e0" stroke="#999999" points="1232.58,-144 1133.33,-144 1133.33,-112 1232.58,-112 1232.58,-144"/>
<text xml:space="preserve" text-anchor="start" x="1141.33" y="-130.5" font-family="Helvetica,sans-Serif" font-size="10.00">boost/serialization</text>
<text xml:space="preserve" text-anchor="middle" x="1182.96" y="-118.5" font-family="Helvetica,sans-Serif" font-size="10.00">/unordered_set.hpp</text>
</a>
</g>
</g>
<!-- Node5&#45;&gt;Node16 -->
<g id="edge16_Node000005_Node000016" class="edge">
<title>Node5&#45;&gt;Node16</title>
<g id="a_edge16_Node000005_Node000016"><a xlink:title=" ">
<path fill="none" stroke="#63b8ff" d="M1317.12,-179.62C1295.14,-171.33 1262.37,-158.96 1234.71,-148.53"/>
<polygon fill="#63b8ff" stroke="#63b8ff" points="1236.02,-145.28 1225.43,-145.02 1233.55,-151.83 1236.02,-145.28"/>
</a>
</g>
</g>
<!-- Node17 -->
<g id="Node000017" class="node">
<title>Node17</title>
<g id="a_Node000017"><a xlink:title=" ">
<polygon fill="#e0e0e0" stroke="#999999" points="1345.33,-144 1250.58,-144 1250.58,-112 1345.33,-112 1345.33,-144"/>
<text xml:space="preserve" text-anchor="start" x="1258.58" y="-130.5" font-family="Helvetica,sans-Serif" font-size="10.00">boost/serialization</text>
<text xml:space="preserve" text-anchor="middle" x="1297.96" y="-118.5" font-family="Helvetica,sans-Serif" font-size="10.00">/vector.hpp</text>
</a>
</g>
</g>
<!-- Node5&#45;&gt;Node17 -->
<g id="edge17_Node000005_Node000017" class="edge">
<title>Node5&#45;&gt;Node17</title>
<g id="a_edge17_Node000005_Node000017"><a xlink:title=" ">
<path fill="none" stroke="#63b8ff" d="M1335.08,-179.62C1329.92,-172.58 1322.6,-162.59 1315.82,-153.35"/>
<polygon fill="#63b8ff" stroke="#63b8ff" points="1318.69,-151.36 1309.96,-145.36 1313.05,-155.49 1318.69,-151.36"/>
</a>
</g>
</g>
<!-- Node18 -->
<g id="Node000018" class="node">
<title>Node18</title>
<g id="a_Node000018"><a xlink:title=" ">
<polygon fill="#e0e0e0" stroke="#999999" points="1406.83,-138 1363.08,-138 1363.08,-118 1406.83,-118 1406.83,-138"/>
<text xml:space="preserve" text-anchor="middle" x="1384.96" y="-124.5" font-family="Helvetica,sans-Serif" font-size="10.00">format</text>
</a>
</g>
</g>
<!-- Node5&#45;&gt;Node18 -->
<g id="edge18_Node000005_Node000018" class="edge">
<title>Node5&#45;&gt;Node18</title>
<g id="a_edge18_Node000005_Node000018"><a xlink:title=" ">
<path fill="none" stroke="#63b8ff" d="M1348.68,-179.62C1354.84,-171.03 1364.13,-158.07 1371.77,-147.41"/>
<polygon fill="#63b8ff" stroke="#63b8ff" points="1374.57,-149.51 1377.55,-139.34 1368.88,-145.43 1374.57,-149.51"/>
</a>
</g>
</g>
<!-- Node19 -->
<g id="Node000019" class="node">
<title>Node19</title>
<g id="a_Node000019"><a xlink:title=" ">
<polygon fill="#e0e0e0" stroke="#999999" points="1461.46,-138 1424.46,-138 1424.46,-118 1461.46,-118 1461.46,-138"/>
<text xml:space="preserve" text-anchor="middle" x="1442.96" y="-124.5" font-family="Helvetica,sans-Serif" font-size="10.00">tuple</text>
</a>
</g>
</g>
<!-- Node5&#45;&gt;Node19 -->
<g id="edge19_Node000005_Node000019" class="edge">
<title>Node5&#45;&gt;Node19</title>
<g id="a_edge19_Node000005_Node000019"><a xlink:title=" ">
<path fill="none" stroke="#63b8ff" d="M1357.74,-179.62C1373.75,-170.11 1398.78,-155.24 1417.58,-144.08"/>
<polygon fill="#63b8ff" stroke="#63b8ff" points="1419.18,-147.2 1425.99,-139.08 1415.6,-141.18 1419.18,-147.2"/>
</a>
</g>
</g>
<!-- Node6&#45;&gt;Node7 -->
<g id="edge6_Node000006_Node000007" class="edge">
<title>Node6&#45;&gt;Node7</title>
<g id="a_edge6_Node000006_Node000007"><a xlink:title=" ">
<path fill="none" stroke="#63b8ff" d="M1825.68,-117.62C1831.84,-109.03 1841.13,-96.07 1848.77,-85.41"/>
<polygon fill="#63b8ff" stroke="#63b8ff" points="1851.57,-87.51 1854.55,-77.34 1845.88,-83.43 1851.57,-87.51"/>
</a>
</g>
</g>
<!-- Node6&#45;&gt;Node8 -->
<g id="edge7_Node000006_Node000008" class="edge">
<title>Node6&#45;&gt;Node8</title>
<g id="a_edge7_Node000006_Node000008"><a xlink:title=" ">
<path fill="none" stroke="#63b8ff" d="M1781.83,-117.56C1735.45,-105.77 1656.97,-85.82 1613.77,-74.83"/>
<polygon fill="#63b8ff" stroke="#63b8ff" points="1614.85,-71.5 1604.3,-72.42 1613.13,-78.28 1614.85,-71.5"/>
</a>
</g>
</g>
<!-- Node9&#45;&gt;Node10 -->
<g id="edge9_Node000009_Node000010" class="edge">
<title>Node9&#45;&gt;Node10</title>
<g id="a_edge9_Node000009_Node000010"><a xlink:title=" ">
<path fill="none" stroke="#63b8ff" d="M891.27,-117.62C876.51,-108.2 853.5,-93.52 836.06,-82.39"/>
<polygon fill="#63b8ff" stroke="#63b8ff" points="838.13,-79.55 827.82,-77.12 834.37,-85.45 838.13,-79.55"/>
</a>
</g>
</g>
<!-- Node11 -->
<g id="Node000011" class="node">
<title>Node11</title>
<g id="a_Node000011"><a xlink:title=" ">
<polygon fill="#e0e0e0" stroke="#999999" points="2017.71,-20 1952.21,-20 1952.21,0 2017.71,0 2017.71,-20"/>
<text xml:space="preserve" text-anchor="middle" x="1984.96" y="-6.5" font-family="Helvetica,sans-Serif" font-size="10.00">string_view</text>
</a>
</g>
</g>
<!-- Node9&#45;&gt;Node11 -->
<g id="edge10_Node000009_Node000011" class="edge">
<title>Node9&#45;&gt;Node11</title>
<g id="a_edge10_Node000009_Node000011"><a xlink:title=" ">
<path fill="none" stroke="#63b8ff" d="M942.1,-117.51C950.85,-115.46 960.2,-113.47 968.96,-112 1341.75,-49.38 1798.49,-21 1940.62,-13.27"/>
<polygon fill="#63b8ff" stroke="#63b8ff" points="1940.54,-16.78 1950.34,-12.75 1940.17,-9.79 1940.54,-16.78"/>
</a>
</g>
</g>
<!-- Node20&#45;&gt;Node6 -->
<g id="edge21_Node000020_Node000006" class="edge">
<title>Node20&#45;&gt;Node6</title>
<g id="a_edge21_Node000020_Node000006"><a xlink:title=" ">
<path fill="none" stroke="#63b8ff" d="M1723.62,-179.62C1741.78,-169.98 1770.31,-154.83 1791.44,-143.61"/>
<polygon fill="#63b8ff" stroke="#63b8ff" points="1792.9,-146.8 1800.09,-139.02 1789.62,-140.62 1792.9,-146.8"/>
</a>
</g>
</g>
<!-- Node22 -->
<g id="Node000022" class="node">
<title>Node22</title>
<g id="a_Node000022"><a xlink:href="pfr__assign_8hpp.html" target="_top" xlink:title=" ">
<polygon fill="white" stroke="#666666" points="2199.21,-138 2076.71,-138 2076.71,-118 2199.21,-118 2199.21,-138"/>
<text xml:space="preserve" text-anchor="middle" x="2137.96" y="-124.5" font-family="Helvetica,sans-Serif" font-size="10.00">reflection/pfr_assign.hpp</text>
</a>
</g>
</g>
<!-- Node21&#45;&gt;Node22 -->
<g id="edge23_Node000021_Node000022" class="edge">
<title>Node21&#45;&gt;Node22</title>
<g id="a_edge23_Node000021_Node000022"><a xlink:title=" ">
<path fill="none" stroke="#63b8ff" d="M2021.52,-179.62C2044.21,-169.76 2080.15,-154.13 2106.1,-142.85"/>
<polygon fill="#63b8ff" stroke="#63b8ff" points="2107.39,-146.11 2115.16,-138.91 2104.59,-139.69 2107.39,-146.11"/>
</a>
</g>
</g>
<!-- Node26 -->
<g id="Node000026" class="node">
<title>Node26</title>
<g id="a_Node000026"><a xlink:href="reflection_2reflection_8hpp.html" target="_top" xlink:title=" ">
<polygon fill="white" stroke="#666666" points="2058.58,-138 1941.33,-138 1941.33,-118 2058.58,-118 2058.58,-138"/>
<text xml:space="preserve" text-anchor="middle" x="1999.96" y="-124.5" font-family="Helvetica,sans-Serif" font-size="10.00">reflection/reflection.hpp</text>
</a>
</g>
</g>
<!-- Node21&#45;&gt;Node26 -->
<g id="edge29_Node000021_Node000026" class="edge">
<title>Node21&#45;&gt;Node26</title>
<g id="a_edge29_Node000021_Node000026"><a xlink:title=" ">
<path fill="none" stroke="#63b8ff" d="M1999.96,-179.62C1999.96,-171.56 1999.96,-159.65 1999.96,-149.41"/>
<polygon fill="#63b8ff" stroke="#63b8ff" points="2003.46,-149.63 1999.96,-139.63 1996.46,-149.63 2003.46,-149.63"/>
</a>
</g>
</g>
<!-- Node22&#45;&gt;Node7 -->
<g id="edge24_Node000022_Node000007" class="edge">
<title>Node22&#45;&gt;Node7</title>
<g id="a_edge24_Node000022_Node000007"><a xlink:title=" ">
<path fill="none" stroke="#63b8ff" d="M2094.53,-117.56C2046.44,-107.11 1968.84,-90.24 1916.65,-78.89"/>
<polygon fill="#63b8ff" stroke="#63b8ff" points="1917.58,-75.51 1907.07,-76.81 1916.1,-82.35 1917.58,-75.51"/>
</a>
</g>
</g>
<!-- Node22&#45;&gt;Node11 -->
<g id="edge28_Node000022_Node000011" class="edge">
<title>Node22&#45;&gt;Node11</title>
<g id="a_edge28_Node000022_Node000011"><a xlink:title=" ">
<path fill="none" stroke="#63b8ff" d="M2127.37,-117.68C2111.41,-103.77 2080.05,-76.95 2051.96,-56 2038.22,-45.75 2022.32,-35.03 2009.45,-26.62"/>
<polygon fill="#63b8ff" stroke="#63b8ff" points="2011.45,-23.74 2001.16,-21.25 2007.65,-29.62 2011.45,-23.74"/>
</a>
</g>
</g>
<!-- Node22&#45;&gt;Node23 -->
<g id="edge25_Node000022_Node000023" class="edge">
<title>Node22&#45;&gt;Node23</title>
<g id="a_edge25_Node000022_Node000023"><a xlink:title=" ">
<path fill="none" stroke="#63b8ff" d="M2151.87,-117.62C2165.71,-108.29 2187.22,-93.79 2203.67,-82.7"/>
<polygon fill="#63b8ff" stroke="#63b8ff" points="2205.56,-85.65 2211.9,-77.16 2201.65,-79.84 2205.56,-85.65"/>
</a>
</g>
</g>
<!-- Node24 -->
<g id="Node000024" class="node">
<title>Node24</title>
<g id="a_Node000024"><a xlink:title=" ">
<polygon fill="#e0e0e0" stroke="#999999" points="2147.08,-76 2098.83,-76 2098.83,-56 2147.08,-56 2147.08,-76"/>
<text xml:space="preserve" text-anchor="middle" x="2122.96" y="-62.5" font-family="Helvetica,sans-Serif" font-size="10.00">cassert</text>
</a>
</g>
</g>
<!-- Node22&#45;&gt;Node24 -->
<g id="edge26_Node000022_Node000024" class="edge">
<title>Node22&#45;&gt;Node24</title>
<g id="a_edge26_Node000022_Node000024"><a xlink:title=" ">
<path fill="none" stroke="#63b8ff" d="M2135.62,-117.62C2133.58,-109.48 2130.56,-97.39 2127.98,-87.07"/>
<polygon fill="#63b8ff" stroke="#63b8ff" points="2131.43,-86.43 2125.6,-77.58 2124.63,-88.13 2131.43,-86.43"/>
</a>
</g>
</g>
<!-- Node25 -->
<g id="Node000025" class="node">
<title>Node25</title>
<g id="a_Node000025"><a xlink:title=" ">
<polygon fill="#e0e0e0" stroke="#999999" points="2212.08,-20 2163.83,-20 2163.83,0 2212.08,0 2212.08,-20"/>
<text xml:space="preserve" text-anchor="middle" x="2187.96" y="-6.5" font-family="Helvetica,sans-Serif" font-size="10.00">cstddef</text>
</a>
</g>
</g>
<!-- Node22&#45;&gt;Node25 -->
<g id="edge27_Node000022_Node000025" class="edge">
<title>Node22&#45;&gt;Node25</title>
<g id="a_edge27_Node000022_Node000025"><a xlink:title=" ">
<path fill="none" stroke="#63b8ff" d="M2199.43,-124.39C2234.37,-119.37 2275.51,-106.72 2297.96,-76 2320.4,-45.29 2263.43,-26.56 2223.36,-17.53"/>
<polygon fill="#63b8ff" stroke="#63b8ff" points="2224.32,-14.16 2213.81,-15.51 2222.86,-21.01 2224.32,-14.16"/>
</a>
</g>
</g>
<!-- Node26&#45;&gt;Node7 -->
<g id="edge33_Node000026_Node000007" class="edge">
<title>Node26&#45;&gt;Node7</title>
<g id="a_edge33_Node000026_Node000007"><a xlink:title=" ">
<path fill="none" stroke="#63b8ff" d="M1978.4,-117.62C1955.71,-107.76 1919.77,-92.13 1893.81,-80.85"/>
<polygon fill="#63b8ff" stroke="#63b8ff" points="1895.33,-77.69 1884.76,-76.91 1892.53,-84.11 1895.33,-77.69"/>
</a>
</g>
</g>
<!-- Node26&#45;&gt;Node23 -->
<g id="edge34_Node000026_Node000023" class="edge">
<title>Node26&#45;&gt;Node23</title>
<g id="a_edge34_Node000026_Node000023"><a xlink:title=" ">
<path fill="none" stroke="#63b8ff" d="M2035.68,-117.56C2074.65,-107.26 2137.19,-90.73 2180.08,-79.39"/>
<polygon fill="#63b8ff" stroke="#63b8ff" points="2180.84,-82.81 2189.61,-76.87 2179.05,-76.04 2180.84,-82.81"/>
</a>
</g>
</g>
<!-- Node27 -->
<g id="Node000027" class="node">
<title>Node27</title>
<g id="a_Node000027"><a xlink:href="constexpr__string_8hpp.html" target="_top" xlink:title=" ">
<polygon fill="white" stroke="#666666" points="2042.83,-76 1927.08,-76 1927.08,-56 2042.83,-56 2042.83,-76"/>
<text xml:space="preserve" text-anchor="middle" x="1984.96" y="-62.5" font-family="Helvetica,sans-Serif" font-size="10.00">../constexpr_string.hpp</text>
</a>
</g>
</g>
<!-- Node26&#45;&gt;Node27 -->
<g id="edge30_Node000026_Node000027" class="edge">
<title>Node26&#45;&gt;Node27</title>
<g id="a_edge30_Node000026_Node000027"><a xlink:title=" ">
<path fill="none" stroke="#63b8ff" d="M1997.62,-117.62C1995.58,-109.48 1992.56,-97.39 1989.98,-87.07"/>
<polygon fill="#63b8ff" stroke="#63b8ff" points="1993.43,-86.43 1987.6,-77.58 1986.63,-88.13 1993.43,-86.43"/>
</a>
</g>
</g>
<!-- Node27&#45;&gt;Node11 -->
<g id="edge32_Node000027_Node000011" class="edge">
<title>Node27&#45;&gt;Node11</title>
<g id="a_edge32_Node000027_Node000011"><a xlink:title=" ">
<path fill="none" stroke="#63b8ff" d="M1984.96,-55.59C1984.96,-49.01 1984.96,-39.96 1984.96,-31.73"/>
<polygon fill="#63b8ff" stroke="#63b8ff" points="1988.46,-31.81 1984.96,-21.81 1981.46,-31.81 1988.46,-31.81"/>
</a>
</g>
</g>
<!-- Node27&#45;&gt;Node25 -->
<g id="edge31_Node000027_Node000025" class="edge">
<title>Node27&#45;&gt;Node25</title>
<g id="a_edge31_Node000027_Node000025"><a xlink:title=" ">
<path fill="none" stroke="#63b8ff" d="M2020.32,-55.59C2057.48,-45.71 2115.6,-30.25 2152.72,-20.37"/>
<polygon fill="#63b8ff" stroke="#63b8ff" points="2153.29,-23.84 2162.05,-17.89 2151.49,-17.08 2153.29,-23.84"/>
</a>
</g>
</g>
<!-- Node35&#45;&gt;Node4 -->
<g id="edge48_Node000035_Node000004" class="edge">
<title>Node35&#45;&gt;Node4</title>
<g id="a_edge48_Node000035_Node000004"><a xlink:title=" ">
<path fill="none" stroke="#63b8ff" d="M913.32,-359.75C914.43,-345.35 918.8,-317.81 935.96,-304 988.59,-261.63 1187.16,-254.07 1285.74,-252.98"/>
<polygon fill="#63b8ff" stroke="#63b8ff" points="1285.48,-256.48 1295.45,-252.89 1285.42,-249.48 1285.48,-256.48"/>
</a>
</g>
</g>
<!-- Node35&#45;&gt;Node36 -->
<g id="edge49_Node000035_Node000036" class="edge">
<title>Node35&#45;&gt;Node36</title>
<g id="a_edge49_Node000035_Node000036"><a xlink:title=" ">
<path fill="none" stroke="#63b8ff" d="M927.42,-359.59C939.72,-351.59 957.64,-339.93 972.07,-330.54"/>
<polygon fill="#63b8ff" stroke="#63b8ff" points="973.65,-333.69 980.12,-325.3 969.83,-327.82 973.65,-333.69"/>
</a>
</g>
</g>
<!-- Node37 -->
<g id="Node000037" class="node">
<title>Node37</title>
<g id="a_Node000037"><a xlink:title=" ">
<polygon fill="#e0e0e0" stroke="#999999" points="1530.71,-262 1405.21,-262 1405.21,-242 1530.71,-242 1530.71,-262"/>
<text xml:space="preserve" text-anchor="middle" x="1467.96" y="-248.5" font-family="Helvetica,sans-Serif" font-size="10.00">boost/describe/enum.hpp</text>
</a>
</g>
</g>
<!-- Node36&#45;&gt;Node37 -->
<g id="edge50_Node000036_Node000037" class="edge">
<title>Node36&#45;&gt;Node37</title>
<g id="a_edge50_Node000036_Node000037"><a xlink:title=" ">
<path fill="none" stroke="#63b8ff" d="M1047,-308.8C1123.23,-302.17 1271.23,-287.96 1395.96,-268 1402.03,-267.03 1408.36,-265.89 1414.64,-264.69"/>
<polygon fill="#63b8ff" stroke="#63b8ff" points="1415.21,-268.14 1424.34,-262.76 1413.85,-261.28 1415.21,-268.14"/>
</a>
</g>
</g>
</g>
</svg>

<g id="navigator" transform="translate(0 0)" fill="#404254">
  <rect fill="#f2f5e9" fill-opacity="0.5" stroke="#606060" stroke-width=".5" x="0" y="0" width="60" height="60"/>
  <use id="zoomplus" xlink:href="#zoomPlus" x="17" y="9" onmousedown="handleZoom(evt,'in')"/>
  <use id="zoomminus" xlink:href="#zoomMin" x="42" y="9" onmousedown="handleZoom(evt,'out')"/>
  <use id="reset" xlink:href="#resetDef" x="30" y="36" onmousedown="handleReset()"/>
   <use id="arrowup" xlink:href="#arrowUp" x="0" y="0" onmousedown="handlePan(0,-1)"/>
  <use id="arrowright" xlink:href="#arrowRight" x="0" y="0" onmousedown="handlePan(1,0)"/>
  <use id="arrowdown" xlink:href="#arrowDown" x="0" y="0" onmousedown="handlePan(0,1)"/>
  <use id="arrowleft" xlink:href="#arrowLeft" x="0" y="0" onmousedown="handlePan(-1,0)"/>
</g>
<svg viewBox="0 0 15 15" width="100%" height="30px" preserveAspectRatio="xMaxYMin meet">
 <g id="arrow_out" transform="scale(0.3 0.3)">
  <a xlink:href="parameter_8hpp__incl_org.svg" target="_base">
   <rect id="button" ry="5" rx="5" y="6" x="6" height="38" width="38"
        fill="#f2f5e9" fill-opacity="0.5" stroke="#606060" stroke-width="1.0"/>
   <path id="arrow"
     d="M 11.500037,31.436501 C 11.940474,20.09759 22.043105,11.32322 32.158766,21.979434 L 37.068811,17.246167 C 37.068811,17.246167 37.088388,32 37.088388,32 L 22.160133,31.978069 C 22.160133,31.978069 26.997745,27.140456 26.997745,27.140456 C 18.528582,18.264221 13.291696,25.230495 11.500037,31.436501 z"
     style="fill:#404040;"/>
  </a>
 </g>
</svg>

<style type='text/css'>
<![CDATA[
[data-mouse-over-selected='false'] { opacity: 0.7; }
[data-mouse-over-selected='true']  { opacity: 1.0; }
]]>
</style>
<script type="application/ecmascript"><![CDATA[
document.addEventListener('DOMContentLoaded', (event) => {
  highlightEdges();
  highlightAdjacentNodes();
});
]]></script>
</svg>
