<?xml version="1.0" encoding="UTF-8" standalone="no"?>
<!DOCTYPE svg PUBLIC "-//W3C//DTD SVG 1.1//EN"
 "http://www.w3.org/Graphics/SVG/1.1/DTD/svg11.dtd">
<!-- Generated by graphviz version 14.1.2 (20260124.0452)
 -->
<!-- Title: depicture_menu/src/utility/reflection/pfr_assign.hpp Pages: 1 -->
<svg width="1771pt" height="452pt"
 viewBox="0.00 0.00 1771.00 452.00" xmlns="http://www.w3.org/2000/svg" xmlns:xlink="http://www.w3.org/1999/xlink">
<g id="graph0" class="graph" transform="scale(1 1) rotate(0) translate(4 448)">
<title>depicture_menu/src/utility/reflection/pfr_assign.hpp</title>
<!-- Node1 -->
<g id="Node000001" class="node">
<title>Node1</title>
<g id="a_Node000001"><a xlink:title=" ">
<polygon fill="#999999" stroke="#666666" points="1671.88,-444 1570.38,-444 1570.38,-400 1671.88,-400 1671.88,-444"/>
<text xml:space="preserve" text-anchor="start" x="1578.38" y="-430.5" font-family="Helvetica,sans-Serif" font-size="10.00">depicture_menu/src</text>
<text xml:space="preserve" text-anchor="start" x="1578.38" y="-418.5" font-family="Helvetica,sans-Serif" font-size="10.00">/utility/reflection</text>
<text xml:space="preserve" text-anchor="middle" x="1621.12" y="-406.5" font-family="Helvetica,sans-Serif" font-size="10.00">/pfr_assign.hpp</text>
</a>
</g>
</g>
<!-- Node2 -->
<g id="Node000002" class="node">
<title>Node2</title>
<g id="a_Node000002"><a xlink:href="reflection_8hpp.html" target="_top" xlink:title=" ">
<polygon fill="white" stroke="#666666" points="1633,-364 1529.25,-364 1529.25,-332 1633,-332 1633,-364"/>
<text xml:space="preserve" text-anchor="start" x="1537.25" y="-350.5" font-family="Helvetica,sans-Serif" font-size="10.00">depicture_menu/src</text>
<text xml:space="preserve" text-anchor="middle" x="1581.12" y="-338.5" font-family="Helvetica,sans-Serif" font-size="10.00">/utility/reflection.hpp</text>
</a>
</g>
</g>
<!-- Node1&#45;&gt;Node2 -->
<g id="edge1_Node000001_Node000002" class="edge">
<title>Node1&#45;&gt;Node2</title>
<g id="a_edge1_Node000001_Node000002"><a xlink:title=" ">
<path fill="none" stroke="#63b8ff" d="M1603.89,-389.98C1598.91,-381.02 1593.71,-371.65 1589.53,-364.13"/>
<polygon fill="#63b8ff" stroke="#63b8ff" points="1600.69,-391.42 1608.6,-398.46 1606.81,-388.02 1600.69,-391.42"/>
</a>
</g>
</g>
<!-- Node22 -->
<g id="Node000022" class="node">
<title>Node22</title>
<g id="a_Node000022"><a xlink:href="_test_reflection_8cpp.html" target="_top" xlink:title=" ">
<polygon fill="white" stroke="#666666" points="1763.38,-296 1658.88,-296 1658.88,-252 1763.38,-252 1763.38,-296"/>
<text xml:space="preserve" text-anchor="start" x="1666.88" y="-282.5" font-family="Helvetica,sans-Serif" font-size="10.00">depicture_menu/test</text>
<text xml:space="preserve" text-anchor="start" x="1666.88" y="-270.5" font-family="Helvetica,sans-Serif" font-size="10.00">/utility/reflection</text>
<text xml:space="preserve" text-anchor="middle" x="1711.12" y="-258.5" font-family="Helvetica,sans-Serif" font-size="10.00">/TestReflection.cpp</text>
</a>
</g>
</g>
<!-- Node1&#45;&gt;Node22 -->
<g id="edge30_Node000001_Node000022" class="edge">
<title>Node1&#45;&gt;Node22</title>
<g id="a_edge30_Node000001_Node000022"><a xlink:title=" ">
<path fill="none" stroke="#63b8ff" d="M1640.23,-390.01C1657.62,-361.8 1682.82,-320.92 1698.02,-296.26"/>
<polygon fill="#63b8ff" stroke="#63b8ff" points="1637.27,-388.13 1635.01,-398.48 1643.23,-391.81 1637.27,-388.13"/>
</a>
</g>
</g>
<!-- Node3 -->
<g id="Node000003" class="node">
<title>Node3</title>
<g id="a_Node000003"><a xlink:href="to__vxxx__converter_8cpp.html" target="_top" xlink:title=" ">
<polygon fill="white" stroke="#666666" points="1433.12,-296 1261.12,-296 1261.12,-252 1433.12,-252 1433.12,-296"/>
<text xml:space="preserve" text-anchor="start" x="1269.12" y="-282.5" font-family="Helvetica,sans-Serif" font-size="10.00">depicture_menu/src</text>
<text xml:space="preserve" text-anchor="start" x="1269.12" y="-270.5" font-family="Helvetica,sans-Serif" font-size="10.00">/core/application/backup</text>
<text xml:space="preserve" text-anchor="middle" x="1347.12" y="-258.5" font-family="Helvetica,sans-Serif" font-size="10.00">_json/format/to_vxxx_converter.cpp</text>
</a>
</g>
</g>
<!-- Node2&#45;&gt;Node3 -->
<g id="edge2_Node000002_Node000003" class="edge">
<title>Node2&#45;&gt;Node3</title>
<g id="a_edge2_Node000002_Node000003"><a xlink:title=" ">
<path fill="none" stroke="#63b8ff" d="M1520.05,-328.21C1488.39,-318.47 1449.59,-306.53 1416.77,-296.43"/>
<polygon fill="#63b8ff" stroke="#63b8ff" points="1518.89,-331.51 1529.48,-331.11 1520.95,-324.82 1518.89,-331.51"/>
</a>
</g>
</g>
<!-- Node4 -->
<g id="Node000004" class="node">
<title>Node4</title>
<g id="a_Node000004"><a xlink:href="conv__mapping_8hpp.html" target="_top" xlink:title=" ">
<polygon fill="white" stroke="#666666" points="1581.12,-296 1451.12,-296 1451.12,-252 1581.12,-252 1581.12,-296"/>
<text xml:space="preserve" text-anchor="start" x="1459.12" y="-282.5" font-family="Helvetica,sans-Serif" font-size="10.00">depicture_menu/src</text>
<text xml:space="preserve" text-anchor="start" x="1459.12" y="-270.5" font-family="Helvetica,sans-Serif" font-size="10.00">/core/utility/conv_mapping</text>
<text xml:space="preserve" text-anchor="middle" x="1516.12" y="-258.5" font-family="Helvetica,sans-Serif" font-size="10.00">/conv_mapping.hpp</text>
</a>
</g>
</g>
<!-- Node2&#45;&gt;Node4 -->
<g id="edge3_Node000002_Node000004" class="edge">
<title>Node2&#45;&gt;Node4</title>
<g id="a_edge3_Node000002_Node000004"><a xlink:title=" ">
<path fill="none" stroke="#63b8ff" d="M1559.85,-323.44C1551.94,-314.68 1543.02,-304.8 1535.31,-296.26"/>
<polygon fill="#63b8ff" stroke="#63b8ff" points="1557.03,-325.53 1566.33,-330.61 1562.22,-320.84 1557.03,-325.53"/>
</a>
</g>
</g>
<!-- Node14 -->
<g id="Node000014" class="node">
<title>Node14</title>
<g id="a_Node000014"><a xlink:href="_test_export_backup_8cpp.html" target="_top" xlink:title=" ">
<polygon fill="white" stroke="#666666" points="1614.12,-50 1496.12,-50 1496.12,-6 1614.12,-6 1614.12,-50"/>
<text xml:space="preserve" text-anchor="start" x="1504.12" y="-36.5" font-family="Helvetica,sans-Serif" font-size="10.00">depicture_menu/test</text>
<text xml:space="preserve" text-anchor="start" x="1504.12" y="-24.5" font-family="Helvetica,sans-Serif" font-size="10.00">/core/usecase/backup</text>
<text xml:space="preserve" text-anchor="middle" x="1555.12" y="-12.5" font-family="Helvetica,sans-Serif" font-size="10.00">/TestExportBackup.cpp</text>
</a>
</g>
</g>
<!-- Node2&#45;&gt;Node14 -->
<g id="edge24_Node000002_Node000014" class="edge">
<title>Node2&#45;&gt;Node14</title>
<g id="a_edge24_Node000002_Node000014"><a xlink:title=" ">
<path fill="none" stroke="#63b8ff" d="M1587.95,-320.68C1598.94,-273.71 1617.11,-172.8 1594.12,-92 1589.83,-76.91 1580.77,-61.89 1572.47,-50.31"/>
<polygon fill="#63b8ff" stroke="#63b8ff" points="1584.6,-319.65 1585.64,-330.2 1591.4,-321.31 1584.6,-319.65"/>
</a>
</g>
</g>
<!-- Node21 -->
<g id="Node000021" class="node">
<title>Node21</title>
<g id="a_Node000021"><a xlink:href="dto__entity__mapping__tools_8hpp.html" target="_top" xlink:title=" ">
<polygon fill="white" stroke="#666666" points="400.5,-216 251.75,-216 251.75,-172 400.5,-172 400.5,-216"/>
<text xml:space="preserve" text-anchor="start" x="259.75" y="-202.5" font-family="Helvetica,sans-Serif" font-size="10.00">depicture_menu/test</text>
<text xml:space="preserve" text-anchor="start" x="259.75" y="-190.5" font-family="Helvetica,sans-Serif" font-size="10.00">/core/usecase/backup</text>
<text xml:space="preserve" text-anchor="middle" x="326.12" y="-178.5" font-family="Helvetica,sans-Serif" font-size="10.00">/dto_entity_mapping_tools.hpp</text>
</a>
</g>
</g>
<!-- Node2&#45;&gt;Node21 -->
<g id="edge25_Node000002_Node000021" class="edge">
<title>Node2&#45;&gt;Node21</title>
<g id="a_edge25_Node000002_Node000021"><a xlink:title=" ">
<path fill="none" stroke="#63b8ff" d="M1517.61,-339.31C1306.27,-313.71 627.3,-231.48 400.61,-204.02"/>
<polygon fill="#63b8ff" stroke="#63b8ff" points="1516.95,-342.75 1527.29,-340.48 1517.79,-335.8 1516.95,-342.75"/>
</a>
</g>
</g>
<!-- Node2&#45;&gt;Node22 -->
<g id="edge29_Node000002_Node000022" class="edge">
<title>Node2&#45;&gt;Node22</title>
<g id="a_edge29_Node000002_Node000022"><a xlink:title=" ">
<path fill="none" stroke="#63b8ff" d="M1619.04,-326C1635.83,-316.7 1655.55,-305.78 1672.43,-296.43"/>
<polygon fill="#63b8ff" stroke="#63b8ff" points="1617.39,-322.91 1610.34,-330.82 1620.78,-329.04 1617.39,-322.91"/>
</a>
</g>
</g>
<!-- Node5 -->
<g id="Node000005" class="node">
<title>Node5</title>
<g id="a_Node000005"><a xlink:href="dto__converter_8hpp.html" target="_top" xlink:title=" ">
<polygon fill="white" stroke="#666666" points="1015.25,-216 883,-216 883,-172 1015.25,-172 1015.25,-216"/>
<text xml:space="preserve" text-anchor="start" x="891" y="-202.5" font-family="Helvetica,sans-Serif" font-size="10.00">depicture_menu/src</text>
<text xml:space="preserve" text-anchor="start" x="891" y="-190.5" font-family="Helvetica,sans-Serif" font-size="10.00">/core/usecase/backup</text>
<text xml:space="preserve" text-anchor="middle" x="949.12" y="-178.5" font-family="Helvetica,sans-Serif" font-size="10.00">/convert/dto_converter.hpp</text>
</a>
</g>
</g>
<!-- Node4&#45;&gt;Node5 -->
<g id="edge4_Node000004_Node000005" class="edge">
<title>Node4&#45;&gt;Node5</title>
<g id="a_edge4_Node000004_Node000005"><a xlink:title=" ">
<path fill="none" stroke="#63b8ff" d="M1439.62,-251.66C1282.64,-221.29 1108.36,-205.96 1015.44,-199.25"/>
<polygon fill="#63b8ff" stroke="#63b8ff" points="1438.92,-255.09 1449.41,-253.58 1440.27,-248.22 1438.92,-255.09"/>
</a>
</g>
</g>
<!-- Node4&#45;&gt;Node14 -->
<g id="edge22_Node000004_Node000014" class="edge">
<title>Node4&#45;&gt;Node14</title>
<g id="a_edge22_Node000004_Node000014"><a xlink:title=" ">
<path fill="none" stroke="#63b8ff" d="M1554.41,-244.07C1562.41,-235.95 1569.74,-226.45 1574.12,-216 1597.66,-159.87 1576.82,-86.28 1563.77,-50.45"/>
<polygon fill="#63b8ff" stroke="#63b8ff" points="1552.26,-241.28 1547.36,-250.67 1557.05,-246.38 1552.26,-241.28"/>
</a>
</g>
</g>
<!-- Node19 -->
<g id="Node000019" class="node">
<title>Node19</title>
<g id="a_Node000019"><a xlink:href="show__config__view_8cpp.html" target="_top" xlink:title=" ">
<polygon fill="white" stroke="#666666" points="1417.5,-216 1274.75,-216 1274.75,-172 1417.5,-172 1417.5,-216"/>
<text xml:space="preserve" text-anchor="start" x="1282.75" y="-202.5" font-family="Helvetica,sans-Serif" font-size="10.00">depicture_menu/src</text>
<text xml:space="preserve" text-anchor="start" x="1282.75" y="-190.5" font-family="Helvetica,sans-Serif" font-size="10.00">/core/usecase/config</text>
<text xml:space="preserve" text-anchor="middle" x="1346.12" y="-178.5" font-family="Helvetica,sans-Serif" font-size="10.00">_view/show_config_view.cpp</text>
</a>
</g>
</g>
<!-- Node4&#45;&gt;Node19 -->
<g id="edge21_Node000004_Node000019" class="edge">
<title>Node4&#45;&gt;Node19</title>
<g id="a_edge21_Node000004_Node000019"><a xlink:title=" ">
<path fill="none" stroke="#63b8ff" d="M1459.32,-246.93C1437.72,-237.02 1413.38,-225.86 1392.82,-216.42"/>
<polygon fill="#63b8ff" stroke="#63b8ff" points="1457.75,-250.07 1468.3,-251.05 1460.67,-243.7 1457.75,-250.07"/>
</a>
</g>
</g>
<!-- Node20 -->
<g id="Node000020" class="node">
<title>Node20</title>
<g id="a_Node000020"><a xlink:href="_test_conv_mapping_8cpp.html" target="_top" xlink:title=" ">
<polygon fill="white" stroke="#666666" points="1565.12,-216 1435.12,-216 1435.12,-172 1565.12,-172 1565.12,-216"/>
<text xml:space="preserve" text-anchor="start" x="1443.12" y="-202.5" font-family="Helvetica,sans-Serif" font-size="10.00">depicture_menu/test</text>
<text xml:space="preserve" text-anchor="start" x="1443.12" y="-190.5" font-family="Helvetica,sans-Serif" font-size="10.00">/core/utility/conv_mapping</text>
<text xml:space="preserve" text-anchor="middle" x="1500.12" y="-178.5" font-family="Helvetica,sans-Serif" font-size="10.00">/TestConvMapping.cpp</text>
</a>
</g>
</g>
<!-- Node4&#45;&gt;Node20 -->
<g id="edge23_Node000004_Node000020" class="edge">
<title>Node4&#45;&gt;Node20</title>
<g id="a_edge23_Node000004_Node000020"><a xlink:title=" ">
<path fill="none" stroke="#63b8ff" d="M1509.47,-240.53C1507.79,-232.35 1506.03,-223.77 1504.49,-216.29"/>
<polygon fill="#63b8ff" stroke="#63b8ff" points="1506.01,-241.11 1511.45,-250.2 1512.87,-239.7 1506.01,-241.11"/>
</a>
</g>
</g>
<!-- Node6 -->
<g id="Node000006" class="node">
<title>Node6</title>
<g id="a_Node000006"><a xlink:href="action_8cpp.html" target="_top" xlink:title=" ">
<polygon fill="white" stroke="#666666" points="873.12,-136 761.12,-136 761.12,-92 873.12,-92 873.12,-136"/>
<text xml:space="preserve" text-anchor="start" x="769.12" y="-122.5" font-family="Helvetica,sans-Serif" font-size="10.00">depicture_menu/src</text>
<text xml:space="preserve" text-anchor="start" x="769.12" y="-110.5" font-family="Helvetica,sans-Serif" font-size="10.00">/core/usecase/backup</text>
<text xml:space="preserve" text-anchor="middle" x="817.12" y="-98.5" font-family="Helvetica,sans-Serif" font-size="10.00">/convert/action.cpp</text>
</a>
</g>
</g>
<!-- Node5&#45;&gt;Node6 -->
<g id="edge5_Node000005_Node000006" class="edge">
<title>Node5&#45;&gt;Node6</title>
<g id="a_edge5_Node000005_Node000006"><a xlink:title=" ">
<path fill="none" stroke="#63b8ff" d="M903.6,-166.1C887.1,-156.35 868.72,-145.49 853.15,-136.29"/>
<polygon fill="#63b8ff" stroke="#63b8ff" points="901.36,-168.84 911.75,-170.92 904.92,-162.82 901.36,-168.84"/>
</a>
</g>
</g>
<!-- Node7 -->
<g id="Node000007" class="node">
<title>Node7</title>
<g id="a_Node000007"><a xlink:href="command_8cpp.html" target="_top" xlink:title=" ">
<polygon fill="white" stroke="#666666" points="1007,-136 891.25,-136 891.25,-92 1007,-92 1007,-136"/>
<text xml:space="preserve" text-anchor="start" x="899.25" y="-122.5" font-family="Helvetica,sans-Serif" font-size="10.00">depicture_menu/src</text>
<text xml:space="preserve" text-anchor="start" x="899.25" y="-110.5" font-family="Helvetica,sans-Serif" font-size="10.00">/core/usecase/backup</text>
<text xml:space="preserve" text-anchor="middle" x="949.12" y="-98.5" font-family="Helvetica,sans-Serif" font-size="10.00">/convert/command.cpp</text>
</a>
</g>
</g>
<!-- Node5&#45;&gt;Node7 -->
<g id="edge6_Node000005_Node000007" class="edge">
<title>Node5&#45;&gt;Node7</title>
<g id="a_edge6_Node000005_Node000007"><a xlink:title=" ">
<path fill="none" stroke="#63b8ff" d="M949.12,-160.25C949.12,-152.15 949.12,-143.68 949.12,-136.29"/>
<polygon fill="#63b8ff" stroke="#63b8ff" points="945.63,-160.17 949.13,-170.17 952.63,-160.17 945.63,-160.17"/>
</a>
</g>
</g>
<!-- Node8 -->
<g id="Node000008" class="node">
<title>Node8</title>
<g id="a_Node000008"><a xlink:href="config_8cpp.html" target="_top" xlink:title=" ">
<polygon fill="white" stroke="#666666" points="1267.12,-136 1155.12,-136 1155.12,-92 1267.12,-92 1267.12,-136"/>
<text xml:space="preserve" text-anchor="start" x="1163.12" y="-122.5" font-family="Helvetica,sans-Serif" font-size="10.00">depicture_menu/src</text>
<text xml:space="preserve" text-anchor="start" x="1163.12" y="-110.5" font-family="Helvetica,sans-Serif" font-size="10.00">/core/usecase/backup</text>
<text xml:space="preserve" text-anchor="middle" x="1211.12" y="-98.5" font-family="Helvetica,sans-Serif" font-size="10.00">/convert/config.cpp</text>
</a>
</g>
</g>
<!-- Node5&#45;&gt;Node8 -->
<g id="edge7_Node000005_Node000008" class="edge">
<title>Node5&#45;&gt;Node8</title>
<g id="a_edge7_Node000005_Node000008"><a xlink:title=" ">
<path fill="none" stroke="#63b8ff" d="M1026.43,-171.23C1062.83,-160.83 1106.79,-148.04 1146.12,-136 1148.96,-135.13 1151.86,-134.23 1154.79,-133.32"/>
<polygon fill="#63b8ff" stroke="#63b8ff" points="1025.5,-167.85 1016.85,-173.96 1027.42,-174.58 1025.5,-167.85"/>
</a>
</g>
</g>
<!-- Node9 -->
<g id="Node000009" class="node">
<title>Node9</title>
<g id="a_Node000009"><a xlink:href="menu_8cpp.html" target="_top" xlink:title=" ">
<polygon fill="white" stroke="#666666" points="1397.12,-136 1285.12,-136 1285.12,-92 1397.12,-92 1397.12,-136"/>
<text xml:space="preserve" text-anchor="start" x="1293.12" y="-122.5" font-family="Helvetica,sans-Serif" font-size="10.00">depicture_menu/src</text>
<text xml:space="preserve" text-anchor="start" x="1293.12" y="-110.5" font-family="Helvetica,sans-Serif" font-size="10.00">/core/usecase/backup</text>
<text xml:space="preserve" text-anchor="middle" x="1341.12" y="-98.5" font-family="Helvetica,sans-Serif" font-size="10.00">/convert/menu.cpp</text>
</a>
</g>
</g>
<!-- Node5&#45;&gt;Node9 -->
<g id="edge8_Node000005_Node000009" class="edge">
<title>Node5&#45;&gt;Node9</title>
<g id="a_edge8_Node000005_Node000009"><a xlink:title=" ">
<path fill="none" stroke="#63b8ff" d="M1026.7,-182.6C1093.36,-172.93 1191.78,-156.87 1276.12,-136 1279,-135.29 1281.94,-134.51 1284.89,-133.7"/>
<polygon fill="#63b8ff" stroke="#63b8ff" points="1026.35,-179.12 1016.95,-184 1027.35,-186.05 1026.35,-179.12"/>
</a>
</g>
</g>
<!-- Node10 -->
<g id="Node000010" class="node">
<title>Node10</title>
<g id="a_Node000010"><a xlink:href="option_8cpp.html" target="_top" xlink:title=" ">
<polygon fill="white" stroke="#666666" points="1527.12,-136 1415.12,-136 1415.12,-92 1527.12,-92 1527.12,-136"/>
<text xml:space="preserve" text-anchor="start" x="1423.12" y="-122.5" font-family="Helvetica,sans-Serif" font-size="10.00">depicture_menu/src</text>
<text xml:space="preserve" text-anchor="start" x="1423.12" y="-110.5" font-family="Helvetica,sans-Serif" font-size="10.00">/core/usecase/backup</text>
<text xml:space="preserve" text-anchor="middle" x="1471.12" y="-98.5" font-family="Helvetica,sans-Serif" font-size="10.00">/convert/option.cpp</text>
</a>
</g>
</g>
<!-- Node5&#45;&gt;Node10 -->
<g id="edge9_Node000005_Node000010" class="edge">
<title>Node5&#45;&gt;Node10</title>
<g id="a_edge9_Node000005_Node000010"><a xlink:title=" ">
<path fill="none" stroke="#63b8ff" d="M1027.02,-187.78C1118.6,-180.6 1274.75,-165.14 1406.12,-136 1409.02,-135.36 1411.97,-134.64 1414.93,-133.87"/>
<polygon fill="#63b8ff" stroke="#63b8ff" points="1026.85,-184.28 1017.14,-188.53 1027.38,-191.26 1026.85,-184.28"/>
</a>
</g>
</g>
<!-- Node11 -->
<g id="Node000011" class="node">
<title>Node11</title>
<g id="a_Node000011"><a xlink:href="trigger_8cpp.html" target="_top" xlink:title=" ">
<polygon fill="white" stroke="#666666" points="743.12,-136 631.12,-136 631.12,-92 743.12,-92 743.12,-136"/>
<text xml:space="preserve" text-anchor="start" x="639.12" y="-122.5" font-family="Helvetica,sans-Serif" font-size="10.00">depicture_menu/src</text>
<text xml:space="preserve" text-anchor="start" x="639.12" y="-110.5" font-family="Helvetica,sans-Serif" font-size="10.00">/core/usecase/backup</text>
<text xml:space="preserve" text-anchor="middle" x="687.12" y="-98.5" font-family="Helvetica,sans-Serif" font-size="10.00">/convert/trigger.cpp</text>
</a>
</g>
</g>
<!-- Node5&#45;&gt;Node11 -->
<g id="edge10_Node000005_Node000011" class="edge">
<title>Node5&#45;&gt;Node11</title>
<g id="a_edge10_Node000005_Node000011"><a xlink:title=" ">
<path fill="none" stroke="#63b8ff" d="M871.82,-171.23C835.42,-160.83 791.46,-148.04 752.12,-136 749.29,-135.13 746.39,-134.23 743.46,-133.32"/>
<polygon fill="#63b8ff" stroke="#63b8ff" points="870.83,-174.58 881.4,-173.96 872.75,-167.85 870.83,-174.58"/>
</a>
</g>
</g>
<!-- Node12 -->
<g id="Node000012" class="node">
<title>Node12</title>
<g id="a_Node000012"><a xlink:href="export__backup_8hpp.html" target="_top" xlink:title=" ">
<polygon fill="white" stroke="#666666" points="1137.12,-136 1025.12,-136 1025.12,-92 1137.12,-92 1137.12,-136"/>
<text xml:space="preserve" text-anchor="start" x="1033.12" y="-122.5" font-family="Helvetica,sans-Serif" font-size="10.00">depicture_menu/src</text>
<text xml:space="preserve" text-anchor="start" x="1033.12" y="-110.5" font-family="Helvetica,sans-Serif" font-size="10.00">/core/usecase/backup</text>
<text xml:space="preserve" text-anchor="middle" x="1081.12" y="-98.5" font-family="Helvetica,sans-Serif" font-size="10.00">/export_backup.hpp</text>
</a>
</g>
</g>
<!-- Node5&#45;&gt;Node12 -->
<g id="edge11_Node000005_Node000012" class="edge">
<title>Node5&#45;&gt;Node12</title>
<g id="a_edge11_Node000005_Node000012"><a xlink:title=" ">
<path fill="none" stroke="#63b8ff" d="M994.65,-166.1C1011.15,-156.35 1029.53,-145.49 1045.1,-136.29"/>
<polygon fill="#63b8ff" stroke="#63b8ff" points="993.33,-162.82 986.5,-170.92 996.89,-168.84 993.33,-162.82"/>
</a>
</g>
</g>
<!-- Node5&#45;&gt;Node14 -->
<g id="edge17_Node000005_Node000014" class="edge">
<title>Node5&#45;&gt;Node14</title>
<g id="a_edge17_Node000005_Node000014"><a xlink:title=" ">
<path fill="none" stroke="#63b8ff" d="M1026.91,-187.93C1182.25,-177.48 1517.67,-153.05 1536.12,-136 1559.54,-114.36 1560.32,-74.66 1558.15,-50.18"/>
<polygon fill="#63b8ff" stroke="#63b8ff" points="1026.85,-184.43 1017.1,-188.59 1027.31,-191.41 1026.85,-184.43"/>
</a>
</g>
</g>
<!-- Node15 -->
<g id="Node000015" class="node">
<title>Node15</title>
<g id="a_Node000015"><a xlink:href="import__backup_8hpp.html" target="_top" xlink:title=" ">
<polygon fill="white" stroke="#666666" points="613.12,-136 501.12,-136 501.12,-92 613.12,-92 613.12,-136"/>
<text xml:space="preserve" text-anchor="start" x="509.12" y="-122.5" font-family="Helvetica,sans-Serif" font-size="10.00">depicture_menu/src</text>
<text xml:space="preserve" text-anchor="start" x="509.12" y="-110.5" font-family="Helvetica,sans-Serif" font-size="10.00">/core/usecase/backup</text>
<text xml:space="preserve" text-anchor="middle" x="557.12" y="-98.5" font-family="Helvetica,sans-Serif" font-size="10.00">/import_backup.hpp</text>
</a>
</g>
</g>
<!-- Node5&#45;&gt;Node15 -->
<g id="edge14_Node000005_Node000015" class="edge">
<title>Node5&#45;&gt;Node15</title>
<g id="a_edge14_Node000005_Node000015"><a xlink:title=" ">
<path fill="none" stroke="#63b8ff" d="M871.55,-182.6C804.89,-172.93 706.47,-156.87 622.12,-136 619.25,-135.29 616.31,-134.51 613.36,-133.7"/>
<polygon fill="#63b8ff" stroke="#63b8ff" points="870.9,-186.05 881.3,-184 871.9,-179.12 870.9,-186.05"/>
</a>
</g>
</g>
<!-- Node16 -->
<g id="Node000016" class="node">
<title>Node16</title>
<g id="a_Node000016"><a xlink:href="_test_export_backup__action_8cpp.html" target="_top" xlink:title=" ">
<polygon fill="white" stroke="#666666" points="317.88,-136 168.38,-136 168.38,-92 317.88,-92 317.88,-136"/>
<text xml:space="preserve" text-anchor="start" x="176.38" y="-122.5" font-family="Helvetica,sans-Serif" font-size="10.00">depicture_menu/test</text>
<text xml:space="preserve" text-anchor="start" x="176.38" y="-110.5" font-family="Helvetica,sans-Serif" font-size="10.00">/core/usecase/backup</text>
<text xml:space="preserve" text-anchor="middle" x="243.12" y="-98.5" font-family="Helvetica,sans-Serif" font-size="10.00">/TestExportBackup_action.cpp</text>
</a>
</g>
</g>
<!-- Node5&#45;&gt;Node16 -->
<g id="edge18_Node000005_Node000016" class="edge">
<title>Node5&#45;&gt;Node16</title>
<g id="a_edge18_Node000005_Node000016"><a xlink:title=" ">
<path fill="none" stroke="#63b8ff" d="M871.31,-189.8C752.88,-184.04 520.64,-169.3 326.12,-136 323.49,-135.55 320.81,-135.06 318.11,-134.53"/>
<polygon fill="#63b8ff" stroke="#63b8ff" points="871.08,-193.29 881.24,-190.27 871.42,-186.3 871.08,-193.29"/>
</a>
</g>
</g>
<!-- Node17 -->
<g id="Node000017" class="node">
<title>Node17</title>
<g id="a_Node000017"><a xlink:href="_test_export_backup__menu_8cpp.html" target="_top" xlink:title=" ">
<polygon fill="white" stroke="#666666" points="482.75,-136 335.5,-136 335.5,-92 482.75,-92 482.75,-136"/>
<text xml:space="preserve" text-anchor="start" x="343.5" y="-122.5" font-family="Helvetica,sans-Serif" font-size="10.00">depicture_menu/test</text>
<text xml:space="preserve" text-anchor="start" x="343.5" y="-110.5" font-family="Helvetica,sans-Serif" font-size="10.00">/core/usecase/backup</text>
<text xml:space="preserve" text-anchor="middle" x="409.12" y="-98.5" font-family="Helvetica,sans-Serif" font-size="10.00">/TestExportBackup_menu.cpp</text>
</a>
</g>
</g>
<!-- Node5&#45;&gt;Node17 -->
<g id="edge19_Node000005_Node000017" class="edge">
<title>Node5&#45;&gt;Node17</title>
<g id="a_edge19_Node000005_Node000017"><a xlink:title=" ">
<path fill="none" stroke="#63b8ff" d="M871.14,-186.24C779.81,-177.63 624.18,-160.84 492.12,-136 489.2,-135.45 486.23,-134.86 483.24,-134.23"/>
<polygon fill="#63b8ff" stroke="#63b8ff" points="870.72,-189.71 881,-187.16 871.37,-182.74 870.72,-189.71"/>
</a>
</g>
</g>
<!-- Node18 -->
<g id="Node000018" class="node">
<title>Node18</title>
<g id="a_Node000018"><a xlink:href="_test_export_backup__trigger_8cpp.html" target="_top" xlink:title=" ">
<polygon fill="white" stroke="#666666" points="150.25,-136 0,-136 0,-92 150.25,-92 150.25,-136"/>
<text xml:space="preserve" text-anchor="start" x="8" y="-122.5" font-family="Helvetica,sans-Serif" font-size="10.00">depicture_menu/test</text>
<text xml:space="preserve" text-anchor="start" x="8" y="-110.5" font-family="Helvetica,sans-Serif" font-size="10.00">/core/usecase/backup</text>
<text xml:space="preserve" text-anchor="middle" x="75.12" y="-98.5" font-family="Helvetica,sans-Serif" font-size="10.00">/TestExportBackup_trigger.cpp</text>
</a>
</g>
</g>
<!-- Node5&#45;&gt;Node18 -->
<g id="edge20_Node000005_Node000018" class="edge">
<title>Node5&#45;&gt;Node18</title>
<g id="a_edge20_Node000005_Node000018"><a xlink:title=" ">
<path fill="none" stroke="#63b8ff" d="M871.44,-191.84C729.24,-188.73 417.92,-177.37 159.12,-136 156.3,-135.55 153.44,-135.05 150.55,-134.51"/>
<polygon fill="#63b8ff" stroke="#63b8ff" points="871.03,-195.33 881.1,-192.04 871.18,-188.33 871.03,-195.33"/>
</a>
</g>
</g>
<!-- Node13 -->
<g id="Node000013" class="node">
<title>Node13</title>
<g id="a_Node000013"><a xlink:href="config__view__arg__builder_8cpp.html" target="_top" xlink:title="ConfigArg ファクトリー">
<polygon fill="white" stroke="#666666" points="877.38,-56 760.88,-56 760.88,0 877.38,0 877.38,-56"/>
<text xml:space="preserve" text-anchor="start" x="768.88" y="-42.5" font-family="Helvetica,sans-Serif" font-size="10.00">depicture_menu/src</text>
<text xml:space="preserve" text-anchor="start" x="768.88" y="-30.5" font-family="Helvetica,sans-Serif" font-size="10.00">/core/application/cs</text>
<text xml:space="preserve" text-anchor="start" x="768.88" y="-18.5" font-family="Helvetica,sans-Serif" font-size="10.00">_binding_factory/config</text>
<text xml:space="preserve" text-anchor="middle" x="819.12" y="-6.5" font-family="Helvetica,sans-Serif" font-size="10.00">_view_arg_builder.cpp</text>
</a>
</g>
</g>
<!-- Node12&#45;&gt;Node13 -->
<g id="edge12_Node000012_Node000013" class="edge">
<title>Node12&#45;&gt;Node13</title>
<g id="a_edge12_Node000012_Node000013"><a xlink:title=" ">
<path fill="none" stroke="#63b8ff" d="M1013.81,-91.26C962.69,-74.84 914.34,-59.38 877.76,-47.7"/>
<polygon fill="#63b8ff" stroke="#63b8ff" points="1012.73,-94.59 1023.32,-94.31 1014.87,-87.92 1012.73,-94.59"/>
</a>
</g>
</g>
<!-- Node12&#45;&gt;Node14 -->
<g id="edge13_Node000012_Node000014" class="edge">
<title>Node12&#45;&gt;Node14</title>
<g id="a_edge13_Node000012_Node000014"><a xlink:title=" ">
<path fill="none" stroke="#63b8ff" d="M1148.54,-91.6C1277.07,-61.87 1417.77,-43.85 1495.63,-35.15"/>
<polygon fill="#63b8ff" stroke="#63b8ff" points="1147.75,-88.19 1138.81,-93.89 1149.35,-95.01 1147.75,-88.19"/>
</a>
</g>
</g>
<!-- Node15&#45;&gt;Node13 -->
<g id="edge15_Node000015_Node000013" class="edge">
<title>Node15&#45;&gt;Node13</title>
<g id="a_edge15_Node000015_Node000013"><a xlink:title=" ">
<path fill="none" stroke="#63b8ff" d="M624.44,-91.26C675.56,-74.84 723.91,-59.38 760.49,-47.7"/>
<polygon fill="#63b8ff" stroke="#63b8ff" points="623.38,-87.92 614.93,-94.31 625.52,-94.59 623.38,-87.92"/>
</a>
</g>
</g>
<!-- Node15&#45;&gt;Node14 -->
<g id="edge16_Node000015_Node000014" class="edge">
<title>Node15&#45;&gt;Node14</title>
<g id="a_edge16_Node000015_Node000014"><a xlink:title=" ">
<path fill="none" stroke="#63b8ff" d="M624.35,-91.88C811.67,-58.71 1321.13,-37.6 1495.63,-31.11"/>
<polygon fill="#63b8ff" stroke="#63b8ff" points="623.96,-88.39 614.76,-93.65 625.23,-95.28 623.96,-88.39"/>
</a>
</g>
</g>
<!-- Node21&#45;&gt;Node16 -->
<g id="edge26_Node000021_Node000016" class="edge">
<title>Node21&#45;&gt;Node16</title>
<g id="a_edge26_Node000021_Node000016"><a xlink:title=" ">
<path fill="none" stroke="#63b8ff" d="M295.15,-163.89C285.41,-154.74 274.83,-144.8 265.78,-136.29"/>
<polygon fill="#63b8ff" stroke="#63b8ff" points="292.66,-166.35 302.34,-170.65 297.45,-161.25 292.66,-166.35"/>
</a>
</g>
</g>
<!-- Node21&#45;&gt;Node17 -->
<g id="edge27_Node000021_Node000017" class="edge">
<title>Node21&#45;&gt;Node17</title>
<g id="a_edge27_Node000021_Node000017"><a xlink:title=" ">
<path fill="none" stroke="#63b8ff" d="M357.1,-163.89C366.84,-154.74 377.42,-144.8 386.47,-136.29"/>
<polygon fill="#63b8ff" stroke="#63b8ff" points="354.8,-161.25 349.91,-170.65 359.59,-166.35 354.8,-161.25"/>
</a>
</g>
</g>
<!-- Node21&#45;&gt;Node18 -->
<g id="edge28_Node000021_Node000018" class="edge">
<title>Node21&#45;&gt;Node18</title>
<g id="a_edge28_Node000021_Node000018"><a xlink:title=" ">
<path fill="none" stroke="#63b8ff" d="M246.24,-168.18C213.32,-157.95 175.55,-146.21 143.89,-136.37"/>
<polygon fill="#63b8ff" stroke="#63b8ff" points="245.17,-171.51 255.76,-171.13 247.25,-164.82 245.17,-171.51"/>
</a>
</g>
</g>
</g>
</svg>
