<?xml version="1.0" encoding="UTF-8" standalone="no"?>
<!DOCTYPE svg PUBLIC "-//W3C//DTD SVG 1.1//EN"
 "http://www.w3.org/Graphics/SVG/1.1/DTD/svg11.dtd">
<!-- Generated by graphviz version 14.1.2 (20260124.0452)
 -->
<!-- Title: depicture_menu/src/core/cs_binding/observer/prop_map.hpp Pages: 1 -->
<svg width="622pt" height="144pt"
 viewBox="0.00 0.00 622.00 144.00" xmlns="http://www.w3.org/2000/svg" xmlns:xlink="http://www.w3.org/1999/xlink">
<g id="graph0" class="graph" transform="scale(1 1) rotate(0) translate(4 140)">
<title>depicture_menu/src/core/cs_binding/observer/prop_map.hpp</title>
<!-- Node1 -->
<g id="Node000001" class="node">
<title>Node1</title>
<g id="a_Node000001"><a xlink:title=" ">
<polygon fill="#999999" stroke="#666666" points="348.12,-136 220.38,-136 220.38,-92 348.12,-92 348.12,-136"/>
<text xml:space="preserve" text-anchor="start" x="228.38" y="-122.5" font-family="Helvetica,sans-Serif" font-size="10.00">depicture_menu/src</text>
<text xml:space="preserve" text-anchor="start" x="228.38" y="-110.5" font-family="Helvetica,sans-Serif" font-size="10.00">/core/cs_binding/observer</text>
<text xml:space="preserve" text-anchor="middle" x="284.25" y="-98.5" font-family="Helvetica,sans-Serif" font-size="10.00">/prop_map.hpp</text>
</a>
</g>
</g>
<!-- Node2 -->
<g id="Node000002" class="node">
<title>Node2</title>
<g id="a_Node000002"><a xlink:href="config__view__arg__builder_8cpp.html" target="_top" xlink:title="ConfigArg ファクトリー">
<polygon fill="white" stroke="#666666" points="116.5,-56 0,-56 0,0 116.5,0 116.5,-56"/>
<text xml:space="preserve" text-anchor="start" x="8" y="-42.5" font-family="Helvetica,sans-Serif" font-size="10.00">depicture_menu/src</text>
<text xml:space="preserve" text-anchor="start" x="8" y="-30.5" font-family="Helvetica,sans-Serif" font-size="10.00">/core/application/cs</text>
<text xml:space="preserve" text-anchor="start" x="8" y="-18.5" font-family="Helvetica,sans-Serif" font-size="10.00">_binding_factory/config</text>
<text xml:space="preserve" text-anchor="middle" x="58.25" y="-6.5" font-family="Helvetica,sans-Serif" font-size="10.00">_view_arg_builder.cpp</text>
</a>
</g>
</g>
<!-- Node1&#45;&gt;Node2 -->
<g id="edge1_Node000001_Node000002" class="edge">
<title>Node1&#45;&gt;Node2</title>
<g id="a_edge1_Node000001_Node000002"><a xlink:title=" ">
<path fill="none" stroke="#63b8ff" d="M212.23,-87.85C184.91,-78.13 153.56,-66.77 125.25,-56 122.44,-54.93 119.56,-53.82 116.66,-52.69"/>
<polygon fill="#63b8ff" stroke="#63b8ff" points="210.87,-91.08 221.46,-91.12 213.21,-84.48 210.87,-91.08"/>
</a>
</g>
</g>
<!-- Node3 -->
<g id="Node000003" class="node">
<title>Node3</title>
<g id="a_Node000003"><a xlink:href="_test_config_arg_8cpp.html" target="_top" xlink:title=" ">
<polygon fill="white" stroke="#666666" points="272,-50 134.5,-50 134.5,-6 272,-6 272,-50"/>
<text xml:space="preserve" text-anchor="start" x="142.5" y="-36.5" font-family="Helvetica,sans-Serif" font-size="10.00">depicture_menu/test</text>
<text xml:space="preserve" text-anchor="start" x="142.5" y="-24.5" font-family="Helvetica,sans-Serif" font-size="10.00">/core/cs_binding/TestConfig</text>
<text xml:space="preserve" text-anchor="middle" x="203.25" y="-12.5" font-family="Helvetica,sans-Serif" font-size="10.00">Arg.cpp</text>
</a>
</g>
</g>
<!-- Node1&#45;&gt;Node3 -->
<g id="edge2_Node000001_Node000003" class="edge">
<title>Node1&#45;&gt;Node3</title>
<g id="a_edge2_Node000001_Node000003"><a xlink:title=" ">
<path fill="none" stroke="#63b8ff" d="M256.04,-83.74C245.49,-72.8 233.71,-60.59 223.96,-50.48"/>
<polygon fill="#63b8ff" stroke="#63b8ff" points="253.3,-85.94 262.76,-90.71 258.34,-81.09 253.3,-85.94"/>
</a>
</g>
</g>
<!-- Node4 -->
<g id="Node000004" class="node">
<title>Node4</title>
<g id="a_Node000004"><a xlink:href="test-observers__connection_8cpp.html" target="_top" xlink:title=" ">
<polygon fill="white" stroke="#666666" points="442.5,-50 290,-50 290,-6 442.5,-6 442.5,-50"/>
<text xml:space="preserve" text-anchor="start" x="298" y="-36.5" font-family="Helvetica,sans-Serif" font-size="10.00">depicture_menu/test</text>
<text xml:space="preserve" text-anchor="start" x="298" y="-24.5" font-family="Helvetica,sans-Serif" font-size="10.00">/core/cs_binding/observer</text>
<text xml:space="preserve" text-anchor="middle" x="366.25" y="-12.5" font-family="Helvetica,sans-Serif" font-size="10.00">/test&#45;observers_connection.cpp</text>
</a>
</g>
</g>
<!-- Node1&#45;&gt;Node4 -->
<g id="edge3_Node000001_Node000004" class="edge">
<title>Node1&#45;&gt;Node4</title>
<g id="a_edge3_Node000001_Node000004"><a xlink:title=" ">
<path fill="none" stroke="#63b8ff" d="M312.81,-83.74C323.49,-72.8 335.41,-60.59 345.28,-50.48"/>
<polygon fill="#63b8ff" stroke="#63b8ff" points="310.48,-81.12 306,-90.72 315.49,-86.01 310.48,-81.12"/>
</a>
</g>
</g>
<!-- Node5 -->
<g id="Node000005" class="node">
<title>Node5</title>
<g id="a_Node000005"><a xlink:href="test__c__u__notify__traits_8cpp.html" target="_top" xlink:title=" ">
<polygon fill="white" stroke="#666666" points="613.88,-50 460.62,-50 460.62,-6 613.88,-6 613.88,-50"/>
<text xml:space="preserve" text-anchor="start" x="468.62" y="-36.5" font-family="Helvetica,sans-Serif" font-size="10.00">depicture_menu/test</text>
<text xml:space="preserve" text-anchor="start" x="468.62" y="-24.5" font-family="Helvetica,sans-Serif" font-size="10.00">/cs_binding_test/unmanaged</text>
<text xml:space="preserve" text-anchor="middle" x="537.25" y="-12.5" font-family="Helvetica,sans-Serif" font-size="10.00">_test/test_c_u_notify_traits.cpp</text>
</a>
</g>
</g>
<!-- Node1&#45;&gt;Node5 -->
<g id="edge4_Node000001_Node000005" class="edge">
<title>Node1&#45;&gt;Node5</title>
<g id="a_edge4_Node000001_Node000005"><a xlink:title=" ">
<path fill="none" stroke="#63b8ff" d="M358.91,-88.21C395.04,-76.21 438.01,-61.95 472.71,-50.43"/>
<polygon fill="#63b8ff" stroke="#63b8ff" points="358.24,-84.74 349.86,-91.22 360.45,-91.39 358.24,-84.74"/>
</a>
</g>
</g>
</g>
</svg>
