<?xml version="1.0" encoding="UTF-8" standalone="no"?>
<!DOCTYPE svg PUBLIC "-//W3C//DTD SVG 1.1//EN"
 "http://www.w3.org/Graphics/SVG/1.1/DTD/svg11.dtd">
<!-- Generated by graphviz version 14.1.2 (20260124.0452)
 -->
<!-- Title: depicture_menu/src/core/domain/model/menu/radialmenu_centralitem.hpp Pages: 1 -->
<!--zoomable 412 -->

<svg id="main" version="1.1" xmlns="http://www.w3.org/2000/svg" xmlns:xlink="http://www.w3.org/1999/xlink" xml:space="preserve" onload="init(evt)">

<style type="text/css"><![CDATA[
.node, .edge {opacity: 0.7;}
.node.selected, .edge.selected {opacity: 1;}
.edge:hover path { stroke: red; }
.edge:hover polygon { stroke: red; fill: red; }
]]></style>

<defs>
  <circle id="rim" cx="0" cy="0" r="7"/>
  <circle id="rim2" cx="0" cy="0" r="3.5"/>
  <g id="zoomPlus">
    <use xlink:href="#rim" fill="#404040"><set attributeName="fill" to="#808080" begin="zoomplus.mouseover" end="zoomplus.mouseout"/></use>
    <path d="M-4,0h8M0,-4v8" fill="none" stroke="white" stroke-width="1.5" pointer-events="none"/>
  </g>
  <g id="zoomMin">
    <use xlink:href="#rim" fill="#404040"><set attributeName="fill" to="#808080" begin="zoomminus.mouseover" end="zoomminus.mouseout"/></use>
    <path d="M-4,0h8" fill="none" stroke="white" stroke-width="1.5" pointer-events="none"/>
  </g>
  <g id="arrowUp" transform="translate(30 24)">
    <use xlink:href="#rim"/>
    <path pointer-events="none" fill="none" stroke="white" stroke-width="1.5" d="M0,-3.0v7 M-2.5,-0.5L0,-3.0L2.5,-0.5"/>
  </g>
  <g id="arrowRight" transform="rotate(90) translate(36 -43)">
    <use xlink:href="#rim"/>
    <path pointer-events="none" fill="none" stroke="white" stroke-width="1.5" d="M0,-3.0v7 M-2.5,-0.5L0,-3.0L2.5,-0.5"/>
  </g>
  <g id="arrowDown" transform="rotate(180) translate(-30 -48)">
    <use xlink:href="#rim"/>
    <path pointer-events="none" fill="none" stroke="white" stroke-width="1.5" d="M0,-3.0v7 M-2.5,-0.5L0,-3.0L2.5,-0.5"/>
  </g>
  <g id="arrowLeft" transform="rotate(270) translate(-36 17)">
    <use xlink:href="#rim"/>
    <path pointer-events="none" fill="none" stroke="white" stroke-width="1.5" d="M0,-3.0v7 M-2.5,-0.5L0,-3.0L2.5,-0.5"/>
  </g>
  <g id="resetDef">
    <use xlink:href="#rim2" fill="#404040"><set attributeName="fill" to="#808080" begin="reset.mouseover" end="reset.mouseout"/></use>
  </g>
</defs>
<script type="application/ecmascript">
var viewWidth = 1919;
var viewHeight = 412;
var sectionId = 'dynsection-0';
</script>
<script type="application/ecmascript" xlink:href="svg.min.js"/>
<svg id="graph" class="graph">
<g id="viewport">
<title>depicture_menu/src/core/domain/model/menu/radialmenu_centralitem.hpp</title>
<!-- Node1 -->
<g id="Node000001" class="node">
<title>Node1</title>
<g id="a_Node000001"><a xlink:title=" ">
<polygon fill="#999999" stroke="#666666" points="1242.12,-404 1103.88,-404 1103.88,-360 1242.12,-360 1242.12,-404"/>
<text xml:space="preserve" text-anchor="start" x="1111.88" y="-390.5" font-family="Helvetica,sans-Serif" font-size="10.00">depicture_menu/src</text>
<text xml:space="preserve" text-anchor="start" x="1111.88" y="-378.5" font-family="Helvetica,sans-Serif" font-size="10.00">/core/domain/model/menu</text>
<text xml:space="preserve" text-anchor="middle" x="1173" y="-366.5" font-family="Helvetica,sans-Serif" font-size="10.00">/radialmenu_centralitem.hpp</text>
</a>
</g>
</g>
<!-- Node2 -->
<g id="Node000002" class="node">
<title>Node2</title>
<g id="a_Node000002"><a xlink:href="model_2entity_8hpp.html" target="_top" xlink:title=" ">
<polygon fill="white" stroke="#666666" points="1116.75,-324 973.25,-324 973.25,-304 1116.75,-304 1116.75,-324"/>
<text xml:space="preserve" text-anchor="middle" x="1045" y="-310.5" font-family="Helvetica,sans-Serif" font-size="10.00">core/domain/model/entity.hpp</text>
</a>
</g>
</g>
<!-- Node1&#45;&gt;Node2 -->
<g id="edge1_Node000001_Node000002" class="edge">
<title>Node1&#45;&gt;Node2</title>
<g id="a_edge1_Node000001_Node000002"><a xlink:title=" ">
<path fill="none" stroke="#63b8ff" d="M1131.44,-359.57C1112.34,-349.72 1090.18,-338.3 1073.08,-329.48"/>
<polygon fill="#63b8ff" stroke="#63b8ff" points="1075,-326.53 1064.51,-325.06 1071.79,-332.75 1075,-326.53"/>
</a>
</g>
</g>
<!-- Node22 -->
<g id="Node000022" class="node">
<title>Node22</title>
<g id="a_Node000022"><a xlink:title=" ">
<polygon fill="#e0e0e0" stroke="#999999" points="1343.38,-144 1242.62,-144 1242.62,-124 1343.38,-124 1343.38,-144"/>
<text xml:space="preserve" text-anchor="middle" x="1293" y="-130.5" font-family="Helvetica,sans-Serif" font-size="10.00">boost/uuid/uuid.hpp</text>
</a>
</g>
</g>
<!-- Node1&#45;&gt;Node22 -->
<g id="edge44_Node000001_Node000022" class="edge">
<title>Node1&#45;&gt;Node22</title>
<g id="a_edge44_Node000001_Node000022"><a xlink:title=" ">
<path fill="none" stroke="#63b8ff" d="M1242.52,-375.65C1408.75,-361.28 1821.56,-315.67 1904,-212 1912.85,-200.87 1913.68,-190.42 1904,-180 1867.16,-140.34 1502.55,-135.3 1354.75,-134.9"/>
<polygon fill="#63b8ff" stroke="#63b8ff" points="1355.17,-131.4 1345.16,-134.88 1355.15,-138.4 1355.17,-131.4"/>
</a>
</g>
</g>
<!-- Node28 -->
<g id="Node000028" class="node">
<title>Node28</title>
<g id="a_Node000028"><a xlink:href="action__ids_8hpp.html" target="_top" xlink:title=" ">
<polygon fill="white" stroke="#666666" points="1346.62,-324 1229.38,-324 1229.38,-304 1346.62,-304 1346.62,-324"/>
<text xml:space="preserve" text-anchor="middle" x="1288" y="-310.5" font-family="Helvetica,sans-Serif" font-size="10.00">../action/action_ids.hpp</text>
</a>
</g>
</g>
<!-- Node1&#45;&gt;Node28 -->
<g id="edge36_Node000001_Node000028" class="edge">
<title>Node1&#45;&gt;Node28</title>
<g id="a_edge36_Node000001_Node000028"><a xlink:title=" ">
<path fill="none" stroke="#63b8ff" d="M1210.34,-359.57C1227.18,-349.91 1246.66,-338.73 1261.89,-329.98"/>
<polygon fill="#63b8ff" stroke="#63b8ff" points="1263.44,-333.13 1270.37,-325.12 1259.95,-327.06 1263.44,-333.13"/>
</a>
</g>
</g>
<!-- Node29 -->
<g id="Node000029" class="node">
<title>Node29</title>
<g id="a_Node000029"><a xlink:href="menu__ids_8hpp.html" target="_top" xlink:title=" ">
<polygon fill="white" stroke="#666666" points="1211.38,-324 1134.62,-324 1134.62,-304 1211.38,-304 1211.38,-324"/>
<text xml:space="preserve" text-anchor="middle" x="1173" y="-310.5" font-family="Helvetica,sans-Serif" font-size="10.00">menu_ids.hpp</text>
</a>
</g>
</g>
<!-- Node1&#45;&gt;Node29 -->
<g id="edge38_Node000001_Node000029" class="edge">
<title>Node1&#45;&gt;Node29</title>
<g id="a_edge38_Node000001_Node000029"><a xlink:title=" ">
<path fill="none" stroke="#63b8ff" d="M1173,-359.75C1173,-352.13 1173,-343.53 1173,-335.93"/>
<polygon fill="#63b8ff" stroke="#63b8ff" points="1176.5,-335.93 1173,-325.93 1169.5,-335.93 1176.5,-335.93"/>
</a>
</g>
</g>
<!-- Node30 -->
<g id="Node000030" class="node">
<title>Node30</title>
<g id="a_Node000030"><a xlink:href="radialmenu__label_8hpp.html" target="_top" xlink:title=" ">
<polygon fill="white" stroke="#666666" points="550.75,-268 443.25,-268 443.25,-248 550.75,-248 550.75,-268"/>
<text xml:space="preserve" text-anchor="middle" x="497" y="-254.5" font-family="Helvetica,sans-Serif" font-size="10.00">radialmenu_label.hpp</text>
</a>
</g>
</g>
<!-- Node1&#45;&gt;Node30 -->
<g id="edge40_Node000001_Node000030" class="edge">
<title>Node1&#45;&gt;Node30</title>
<g id="a_edge40_Node000001_Node000030"><a xlink:title=" ">
<path fill="none" stroke="#63b8ff" d="M1103.52,-368.46C971.72,-344.67 687.25,-293.34 560.35,-270.43"/>
<polygon fill="#63b8ff" stroke="#63b8ff" points="561.25,-267.04 550.79,-268.71 560.01,-273.93 561.25,-267.04"/>
</a>
</g>
</g>
<!-- Node3 -->
<g id="Node000003" class="node">
<title>Node3</title>
<g id="a_Node000003"><a xlink:href="concepts_8hpp.html" target="_top" xlink:title=" ">
<polygon fill="white" stroke="#666666" points="1001.25,-144 926.75,-144 926.75,-124 1001.25,-124 1001.25,-144"/>
<text xml:space="preserve" text-anchor="middle" x="964" y="-130.5" font-family="Helvetica,sans-Serif" font-size="10.00">concepts.hpp</text>
</a>
</g>
</g>
<!-- Node2&#45;&gt;Node3 -->
<g id="edge2_Node000002_Node000003" class="edge">
<title>Node2&#45;&gt;Node3</title>
<g id="a_edge2_Node000002_Node000003"><a xlink:title=" ">
<path fill="none" stroke="#63b8ff" d="M1039.44,-303.77C1029.06,-286.29 1006.36,-246.95 991,-212 982.64,-192.98 975,-170.49 970,-154.74"/>
<polygon fill="#63b8ff" stroke="#63b8ff" points="973.48,-154.14 967.17,-145.63 966.79,-156.22 973.48,-154.14"/>
</a>
</g>
</g>
<!-- Node7 -->
<g id="Node000007" class="node">
<title>Node7</title>
<g id="a_Node000007"><a xlink:href="model_2entity__id_8hpp.html" target="_top" xlink:title=" ">
<polygon fill="white" stroke="#666666" points="1323.75,-268 1252.25,-268 1252.25,-248 1323.75,-248 1323.75,-268"/>
<text xml:space="preserve" text-anchor="middle" x="1288" y="-254.5" font-family="Helvetica,sans-Serif" font-size="10.00">entity_id.hpp</text>
</a>
</g>
</g>
<!-- Node2&#45;&gt;Node7 -->
<g id="edge6_Node000002_Node000007" class="edge">
<title>Node2&#45;&gt;Node7</title>
<g id="a_edge6_Node000002_Node000007"><a xlink:title=" ">
<path fill="none" stroke="#63b8ff" d="M1087.61,-303.53C1130.43,-294.02 1196.29,-279.38 1240.71,-269.51"/>
<polygon fill="#63b8ff" stroke="#63b8ff" points="1241.31,-272.96 1250.31,-267.38 1239.79,-266.13 1241.31,-272.96"/>
</a>
</g>
</g>
<!-- Node8 -->
<g id="Node000008" class="node">
<title>Node8</title>
<g id="a_Node000008"><a xlink:href="model_2value__object_8hpp.html" target="_top" xlink:title=" ">
<polygon fill="white" stroke="#666666" points="1089.75,-206 1000.25,-206 1000.25,-186 1089.75,-186 1089.75,-206"/>
<text xml:space="preserve" text-anchor="middle" x="1045" y="-192.5" font-family="Helvetica,sans-Serif" font-size="10.00">value_object.hpp</text>
</a>
</g>
</g>
<!-- Node2&#45;&gt;Node8 -->
<g id="edge35_Node000002_Node000008" class="edge">
<title>Node2&#45;&gt;Node8</title>
<g id="a_edge35_Node000002_Node000008"><a xlink:title=" ">
<path fill="none" stroke="#63b8ff" d="M1045,-303.51C1045,-284.81 1045,-242.82 1045,-217.51"/>
<polygon fill="#63b8ff" stroke="#63b8ff" points="1048.5,-217.81 1045,-207.81 1041.5,-217.81 1048.5,-217.81"/>
</a>
</g>
</g>
<!-- Node9 -->
<g id="Node000009" class="node">
<title>Node9</title>
<g id="a_Node000009"><a xlink:href="model_2presistence_8hpp.html" target="_top" xlink:title=" ">
<polygon fill="white" stroke="#666666" points="748.5,-144 663.5,-144 663.5,-124 748.5,-124 748.5,-144"/>
<text xml:space="preserve" text-anchor="middle" x="706" y="-130.5" font-family="Helvetica,sans-Serif" font-size="10.00">presistence.hpp</text>
</a>
</g>
</g>
<!-- Node2&#45;&gt;Node9 -->
<g id="edge34_Node000002_Node000009" class="edge">
<title>Node2&#45;&gt;Node9</title>
<g id="a_edge34_Node000002_Node000009"><a xlink:title=" ">
<path fill="none" stroke="#63b8ff" d="M1027.25,-303.68C971.77,-274.55 801.33,-185.06 733.89,-149.64"/>
<polygon fill="#63b8ff" stroke="#63b8ff" points="735.8,-146.7 725.32,-145.15 732.55,-152.89 735.8,-146.7"/>
</a>
</g>
</g>
<!-- Node4 -->
<g id="Node000004" class="node">
<title>Node4</title>
<g id="a_Node000004"><a xlink:href="model__base__concepts_8hpp.html" target="_top" xlink:title=" ">
<polygon fill="white" stroke="#666666" points="1036.12,-82 903.88,-82 903.88,-62 1036.12,-62 1036.12,-82"/>
<text xml:space="preserve" text-anchor="middle" x="970" y="-68.5" font-family="Helvetica,sans-Serif" font-size="10.00">model_base_concepts.hpp</text>
</a>
</g>
</g>
<!-- Node3&#45;&gt;Node4 -->
<g id="edge3_Node000003_Node000004" class="edge">
<title>Node3&#45;&gt;Node4</title>
<g id="a_edge3_Node000003_Node000004"><a xlink:title=" ">
<path fill="none" stroke="#63b8ff" d="M964.94,-123.62C965.74,-115.56 966.93,-103.65 967.96,-93.41"/>
<polygon fill="#63b8ff" stroke="#63b8ff" points="971.43,-93.92 968.94,-83.62 964.46,-93.22 971.43,-93.92"/>
</a>
</g>
</g>
<!-- Node5 -->
<g id="Node000005" class="node">
<title>Node5</title>
<g id="a_Node000005"><a xlink:title=" ">
<polygon fill="#e0e0e0" stroke="#999999" points="1017.38,-20 922.62,-20 922.62,0 1017.38,0 1017.38,-20"/>
<text xml:space="preserve" text-anchor="middle" x="970" y="-6.5" font-family="Helvetica,sans-Serif" font-size="10.00">boost/pfr/core.hpp</text>
</a>
</g>
</g>
<!-- Node4&#45;&gt;Node5 -->
<g id="edge4_Node000004_Node000005" class="edge">
<title>Node4&#45;&gt;Node5</title>
<g id="a_edge4_Node000004_Node000005"><a xlink:title=" ">
<path fill="none" stroke="#63b8ff" d="M970,-61.62C970,-53.56 970,-41.65 970,-31.41"/>
<polygon fill="#63b8ff" stroke="#63b8ff" points="973.5,-31.63 970,-21.63 966.5,-31.63 973.5,-31.63"/>
</a>
</g>
</g>
<!-- Node6 -->
<g id="Node000006" class="node">
<title>Node6</title>
<g id="a_Node000006"><a xlink:title=" ">
<polygon fill="#e0e0e0" stroke="#999999" points="1154.62,-20 1115.38,-20 1115.38,0 1154.62,0 1154.62,-20"/>
<text xml:space="preserve" text-anchor="middle" x="1135" y="-6.5" font-family="Helvetica,sans-Serif" font-size="10.00">utility</text>
</a>
</g>
</g>
<!-- Node4&#45;&gt;Node6 -->
<g id="edge5_Node000004_Node000006" class="edge">
<title>Node4&#45;&gt;Node6</title>
<g id="a_edge5_Node000004_Node000006"><a xlink:title=" ">
<path fill="none" stroke="#63b8ff" d="M995.78,-61.62C1025.16,-50.94 1073.15,-33.49 1104.41,-22.13"/>
<polygon fill="#63b8ff" stroke="#63b8ff" points="1105.47,-25.46 1113.67,-18.75 1103.08,-18.88 1105.47,-25.46"/>
</a>
</g>
</g>
<!-- Node7&#45;&gt;Node8 -->
<g id="edge7_Node000007_Node000008" class="edge">
<title>Node7&#45;&gt;Node8</title>
<g id="a_edge7_Node000007_Node000008"><a xlink:title=" ">
<path fill="none" stroke="#63b8ff" d="M1251.88,-248.08C1210.11,-237.77 1141.11,-220.73 1094.4,-209.2"/>
<polygon fill="#63b8ff" stroke="#63b8ff" points="1095.34,-205.82 1084.79,-206.83 1093.66,-212.62 1095.34,-205.82"/>
</a>
</g>
</g>
<!-- Node14 -->
<g id="Node000014" class="node">
<title>Node14</title>
<g id="a_Node000014"><a xlink:title=" ">
<polygon fill="#e0e0e0" stroke="#999999" points="1149.38,-88 1054.62,-88 1054.62,-56 1149.38,-56 1149.38,-88"/>
<text xml:space="preserve" text-anchor="start" x="1062.62" y="-74.5" font-family="Helvetica,sans-Serif" font-size="10.00">boost/serialization</text>
<text xml:space="preserve" text-anchor="middle" x="1102" y="-62.5" font-family="Helvetica,sans-Serif" font-size="10.00">/access.hpp</text>
</a>
</g>
</g>
<!-- Node7&#45;&gt;Node14 -->
<g id="edge28_Node000007_Node000014" class="edge">
<title>Node7&#45;&gt;Node14</title>
<g id="a_edge28_Node000007_Node000014"><a xlink:title=" ">
<path fill="none" stroke="#63b8ff" d="M1251.97,-257.33C1217,-255.47 1165.59,-246.52 1140,-212 1116.23,-179.93 1174.13,-160.52 1158,-124 1153.18,-113.08 1144.74,-103.5 1135.85,-95.67"/>
<polygon fill="#63b8ff" stroke="#63b8ff" points="1138.08,-92.98 1128.11,-89.4 1133.67,-98.41 1138.08,-92.98"/>
</a>
</g>
</g>
<!-- Node7&#45;&gt;Node22 -->
<g id="edge30_Node000007_Node000022" class="edge">
<title>Node7&#45;&gt;Node22</title>
<g id="a_edge30_Node000007_Node000022"><a xlink:title=" ">
<path fill="none" stroke="#63b8ff" d="M1288.38,-247.83C1289.17,-228.4 1291.05,-182.67 1292.15,-155.77"/>
<polygon fill="#63b8ff" stroke="#63b8ff" points="1295.65,-155.92 1292.56,-145.79 1288.65,-155.64 1295.65,-155.92"/>
</a>
</g>
</g>
<!-- Node23 -->
<g id="Node000023" class="node">
<title>Node23</title>
<g id="a_Node000023"><a xlink:title=" ">
<polygon fill="#e0e0e0" stroke="#999999" points="1606.88,-206 1479.12,-206 1479.12,-186 1606.88,-186 1606.88,-206"/>
<text xml:space="preserve" text-anchor="middle" x="1543" y="-192.5" font-family="Helvetica,sans-Serif" font-size="10.00">boost/functional/hash.hpp</text>
</a>
</g>
</g>
<!-- Node7&#45;&gt;Node23 -->
<g id="edge27_Node000007_Node000023" class="edge">
<title>Node7&#45;&gt;Node23</title>
<g id="a_edge27_Node000007_Node000023"><a xlink:title=" ">
<path fill="none" stroke="#63b8ff" d="M1323.99,-248.53C1367.81,-238.22 1442.09,-220.74 1491.84,-209.04"/>
<polygon fill="#63b8ff" stroke="#63b8ff" points="1492.58,-212.46 1501.52,-206.76 1490.98,-205.64 1492.58,-212.46"/>
</a>
</g>
</g>
<!-- Node24 -->
<g id="Node000024" class="node">
<title>Node24</title>
<g id="a_Node000024"><a xlink:title=" ">
<polygon fill="#e0e0e0" stroke="#999999" points="1724.62,-212 1625.38,-212 1625.38,-180 1724.62,-180 1724.62,-212"/>
<text xml:space="preserve" text-anchor="start" x="1633.38" y="-198.5" font-family="Helvetica,sans-Serif" font-size="10.00">boost/serialization</text>
<text xml:space="preserve" text-anchor="middle" x="1675" y="-186.5" font-family="Helvetica,sans-Serif" font-size="10.00">/array_wrapper.hpp</text>
</a>
</g>
</g>
<!-- Node7&#45;&gt;Node24 -->
<g id="edge29_Node000007_Node000024" class="edge">
<title>Node7&#45;&gt;Node24</title>
<g id="a_edge29_Node000007_Node000024"><a xlink:title=" ">
<path fill="none" stroke="#63b8ff" d="M1324.13,-253.39C1382.84,-247.23 1502.73,-233.45 1614.1,-212.23"/>
<polygon fill="#63b8ff" stroke="#63b8ff" points="1614.56,-215.7 1623.71,-210.37 1613.23,-208.83 1614.56,-215.7"/>
</a>
</g>
</g>
<!-- Node25 -->
<g id="Node000025" class="node">
<title>Node25</title>
<g id="a_Node000025"><a xlink:title=" ">
<polygon fill="#e0e0e0" stroke="#999999" points="1894.88,-206 1743.12,-206 1743.12,-186 1894.88,-186 1894.88,-206"/>
<text xml:space="preserve" text-anchor="middle" x="1819" y="-192.5" font-family="Helvetica,sans-Serif" font-size="10.00">boost/uuid/uuid_generators.hpp</text>
</a>
</g>
</g>
<!-- Node7&#45;&gt;Node25 -->
<g id="edge31_Node000007_Node000025" class="edge">
<title>Node7&#45;&gt;Node25</title>
<g id="a_edge31_Node000007_Node000025"><a xlink:title=" ">
<path fill="none" stroke="#63b8ff" d="M1324.24,-254.26C1400.35,-248.3 1582.33,-233 1734,-212 1741.77,-210.92 1749.91,-209.66 1757.96,-208.33"/>
<polygon fill="#63b8ff" stroke="#63b8ff" points="1758.44,-211.8 1767.72,-206.68 1757.27,-204.9 1758.44,-211.8"/>
</a>
</g>
</g>
<!-- Node26 -->
<g id="Node000026" class="node">
<title>Node26</title>
<g id="a_Node000026"><a xlink:title=" ">
<polygon fill="#e0e0e0" stroke="#999999" points="1262.75,-206 1149.25,-206 1149.25,-186 1262.75,-186 1262.75,-206"/>
<text xml:space="preserve" text-anchor="middle" x="1206" y="-192.5" font-family="Helvetica,sans-Serif" font-size="10.00">boost/uuid/uuid_io.hpp</text>
</a>
</g>
</g>
<!-- Node7&#45;&gt;Node26 -->
<g id="edge32_Node000007_Node000026" class="edge">
<title>Node7&#45;&gt;Node26</title>
<g id="a_edge32_Node000007_Node000026"><a xlink:title=" ">
<path fill="none" stroke="#63b8ff" d="M1275.19,-247.62C1262.55,-238.38 1242.99,-224.07 1227.89,-213.01"/>
<polygon fill="#63b8ff" stroke="#63b8ff" points="1230.08,-210.28 1219.94,-207.2 1225.95,-215.93 1230.08,-210.28"/>
</a>
</g>
</g>
<!-- Node27 -->
<g id="Node000027" class="node">
<title>Node27</title>
<g id="a_Node000027"><a xlink:title=" ">
<polygon fill="#e0e0e0" stroke="#999999" points="1461,-206 1319,-206 1319,-186 1461,-186 1461,-206"/>
<text xml:space="preserve" text-anchor="middle" x="1390" y="-192.5" font-family="Helvetica,sans-Serif" font-size="10.00">boost/uuid/uuid_serialize.hpp</text>
</a>
</g>
</g>
<!-- Node7&#45;&gt;Node27 -->
<g id="edge33_Node000007_Node000027" class="edge">
<title>Node7&#45;&gt;Node27</title>
<g id="a_edge33_Node000007_Node000027"><a xlink:title=" ">
<path fill="none" stroke="#63b8ff" d="M1303.94,-247.62C1320.11,-238.11 1345.39,-223.24 1364.37,-212.08"/>
<polygon fill="#63b8ff" stroke="#63b8ff" points="1366.03,-215.16 1372.87,-207.08 1362.48,-209.13 1366.03,-215.16"/>
</a>
</g>
</g>
<!-- Node8&#45;&gt;Node3 -->
<g id="edge22_Node000008_Node000003" class="edge">
<title>Node8&#45;&gt;Node3</title>
<g id="a_edge22_Node000008_Node000003"><a xlink:title=" ">
<path fill="none" stroke="#63b8ff" d="M1032.34,-185.62C1019.86,-176.38 1000.54,-162.07 985.62,-151.01"/>
<polygon fill="#63b8ff" stroke="#63b8ff" points="987.9,-148.35 977.78,-145.21 983.74,-153.97 987.9,-148.35"/>
</a>
</g>
</g>
<!-- Node8&#45;&gt;Node5 -->
<g id="edge23_Node000008_Node000005" class="edge">
<title>Node8&#45;&gt;Node5</title>
<g id="a_edge23_Node000008_Node000005"><a xlink:title=" ">
<path fill="none" stroke="#63b8ff" d="M1042.33,-185.6C1038.74,-170.86 1034.29,-142.09 1048,-124 1079.06,-83 1127.81,-129.65 1158,-88 1166.35,-76.49 1166.81,-67.17 1158,-56 1142.04,-35.77 1077.6,-23.62 1028.57,-17.13"/>
<polygon fill="#63b8ff" stroke="#63b8ff" points="1029.29,-13.7 1018.93,-15.91 1028.41,-20.64 1029.29,-13.7"/>
</a>
</g>
</g>
<!-- Node8&#45;&gt;Node6 -->
<g id="edge26_Node000008_Node000006" class="edge">
<title>Node8&#45;&gt;Node6</title>
<g id="a_edge26_Node000008_Node000006"><a xlink:title=" ">
<path fill="none" stroke="#63b8ff" d="M1086.2,-185.55C1110.24,-178.04 1139.39,-165.18 1158,-144 1184.29,-114.07 1189.16,-93.23 1175,-56 1170.91,-45.24 1162.93,-35.4 1155.17,-27.69"/>
<polygon fill="#63b8ff" stroke="#63b8ff" points="1157.88,-25.43 1148.14,-21.24 1153.14,-30.58 1157.88,-25.43"/>
</a>
</g>
</g>
<!-- Node8&#45;&gt;Node9 -->
<g id="edge8_Node000008_Node000009" class="edge">
<title>Node8&#45;&gt;Node9</title>
<g id="a_edge8_Node000008_Node000009"><a xlink:title=" ">
<path fill="none" stroke="#63b8ff" d="M999.98,-187.03C937.92,-176.05 826.25,-156.28 759.84,-144.53"/>
<polygon fill="#63b8ff" stroke="#63b8ff" points="760.74,-141.13 750.28,-142.84 759.52,-148.03 760.74,-141.13"/>
</a>
</g>
</g>
<!-- Node21 -->
<g id="Node000021" class="node">
<title>Node21</title>
<g id="a_Node000021"><a xlink:title=" ">
<polygon fill="#e0e0e0" stroke="#999999" points="1148.88,-144 1057.12,-144 1057.12,-124 1148.88,-124 1148.88,-144"/>
<text xml:space="preserve" text-anchor="middle" x="1103" y="-130.5" font-family="Helvetica,sans-Serif" font-size="10.00">boost/pfr/ops.hpp</text>
</a>
</g>
</g>
<!-- Node8&#45;&gt;Node21 -->
<g id="edge24_Node000008_Node000021" class="edge">
<title>Node8&#45;&gt;Node21</title>
<g id="a_edge24_Node000008_Node000021"><a xlink:title=" ">
<path fill="none" stroke="#63b8ff" d="M1054.06,-185.62C1062.71,-176.68 1075.94,-162.99 1086.47,-152.1"/>
<polygon fill="#63b8ff" stroke="#63b8ff" points="1088.71,-154.82 1093.14,-145.2 1083.67,-149.96 1088.71,-154.82"/>
</a>
</g>
</g>
<!-- Node8&#45;&gt;Node22 -->
<g id="edge25_Node000008_Node000022" class="edge">
<title>Node8&#45;&gt;Node22</title>
<g id="a_edge25_Node000008_Node000022"><a xlink:title=" ">
<path fill="none" stroke="#63b8ff" d="M1084.02,-185.56C1126.87,-175.19 1195.79,-158.52 1242.68,-147.18"/>
<polygon fill="#63b8ff" stroke="#63b8ff" points="1243.43,-150.59 1252.32,-144.84 1241.78,-143.79 1243.43,-150.59"/>
</a>
</g>
</g>
<!-- Node9&#45;&gt;Node4 -->
<g id="edge9_Node000009_Node000004" class="edge">
<title>Node9&#45;&gt;Node4</title>
<g id="a_edge9_Node000009_Node000004"><a xlink:title=" ">
<path fill="none" stroke="#63b8ff" d="M747.54,-123.56C793.34,-113.15 867.14,-96.38 917.06,-85.03"/>
<polygon fill="#63b8ff" stroke="#63b8ff" points="917.81,-88.45 926.79,-82.82 916.26,-81.62 917.81,-88.45"/>
</a>
</g>
</g>
<!-- Node9&#45;&gt;Node5 -->
<g id="edge14_Node000009_Node000005" class="edge">
<title>Node9&#45;&gt;Node5</title>
<g id="a_edge14_Node000009_Node000005"><a xlink:title=" ">
<path fill="none" stroke="#63b8ff" d="M748.83,-125.15C780.09,-118.27 822.81,-106.44 857,-88 876.43,-77.52 877.03,-68.83 895,-56 910.21,-45.14 928.14,-34.31 942.65,-26"/>
<polygon fill="#63b8ff" stroke="#63b8ff" points="944.22,-29.14 951.21,-21.18 940.78,-23.04 944.22,-29.14"/>
</a>
</g>
</g>
<!-- Node10 -->
<g id="Node000010" class="node">
<title>Node10</title>
<g id="a_Node000010"><a xlink:href="str__conv_8hpp.html" target="_top" xlink:title=" ">
<polygon fill="white" stroke="#666666" points="142.88,-82 45.12,-82 45.12,-62 142.88,-62 142.88,-82"/>
<text xml:space="preserve" text-anchor="middle" x="94" y="-68.5" font-family="Helvetica,sans-Serif" font-size="10.00">utility/str_conv.hpp</text>
</a>
</g>
</g>
<!-- Node9&#45;&gt;Node10 -->
<g id="edge10_Node000009_Node000010" class="edge">
<title>Node9&#45;&gt;Node10</title>
<g id="a_edge10_Node000009_Node000010"><a xlink:title=" ">
<path fill="none" stroke="#63b8ff" d="M663.3,-132.03C569.93,-129.36 340.88,-119.85 152,-88 147.33,-87.21 142.48,-86.23 137.67,-85.15"/>
<polygon fill="#63b8ff" stroke="#63b8ff" points="138.62,-81.78 128.08,-82.84 136.98,-88.58 138.62,-81.78"/>
</a>
</g>
</g>
<!-- Node13 -->
<g id="Node000013" class="node">
<title>Node13</title>
<g id="a_Node000013"><a xlink:title=" ">
<polygon fill="#e0e0e0" stroke="#999999" points="847.62,-88 742.38,-88 742.38,-56 847.62,-56 847.62,-88"/>
<text xml:space="preserve" text-anchor="start" x="750.38" y="-74.5" font-family="Helvetica,sans-Serif" font-size="10.00">boost/archive/basic</text>
<text xml:space="preserve" text-anchor="middle" x="795" y="-62.5" font-family="Helvetica,sans-Serif" font-size="10.00">_binary_iarchive.hpp</text>
</a>
</g>
</g>
<!-- Node9&#45;&gt;Node13 -->
<g id="edge13_Node000009_Node000013" class="edge">
<title>Node9&#45;&gt;Node13</title>
<g id="a_edge13_Node000009_Node000013"><a xlink:title=" ">
<path fill="none" stroke="#63b8ff" d="M719.91,-123.62C731.38,-115.89 748.1,-104.62 762.86,-94.67"/>
<polygon fill="#63b8ff" stroke="#63b8ff" points="764.61,-97.71 770.94,-89.22 760.69,-91.91 764.61,-97.71"/>
</a>
</g>
</g>
<!-- Node9&#45;&gt;Node14 -->
<g id="edge15_Node000009_Node000014" class="edge">
<title>Node9&#45;&gt;Node14</title>
<g id="a_edge15_Node000009_Node000014"><a xlink:title=" ">
<path fill="none" stroke="#63b8ff" d="M748.83,-129.05C811.33,-122.92 931.37,-109.7 1043.08,-88.22"/>
<polygon fill="#63b8ff" stroke="#63b8ff" points="1043.58,-91.68 1052.72,-86.33 1042.24,-84.81 1043.58,-91.68"/>
</a>
</g>
</g>
<!-- Node15 -->
<g id="Node000015" class="node">
<title>Node15</title>
<g id="a_Node000015"><a xlink:title=" ">
<polygon fill="#e0e0e0" stroke="#999999" points="255.38,-88 160.62,-88 160.62,-56 255.38,-56 255.38,-88"/>
<text xml:space="preserve" text-anchor="start" x="168.62" y="-74.5" font-family="Helvetica,sans-Serif" font-size="10.00">boost/serialization</text>
<text xml:space="preserve" text-anchor="middle" x="208" y="-62.5" font-family="Helvetica,sans-Serif" font-size="10.00">/optional.hpp</text>
</a>
</g>
</g>
<!-- Node9&#45;&gt;Node15 -->
<g id="edge16_Node000009_Node000015" class="edge">
<title>Node9&#45;&gt;Node15</title>
<g id="a_edge16_Node000009_Node000015"><a xlink:title=" ">
<path fill="none" stroke="#63b8ff" d="M663.12,-130.85C585.86,-126.49 418.09,-114.83 267.08,-88.18"/>
<polygon fill="#63b8ff" stroke="#63b8ff" points="267.72,-84.74 257.26,-86.42 266.49,-91.63 267.72,-84.74"/>
</a>
</g>
</g>
<!-- Node16 -->
<g id="Node000016" class="node">
<title>Node16</title>
<g id="a_Node000016"><a xlink:title=" ">
<polygon fill="#e0e0e0" stroke="#999999" points="378.25,-88 273.75,-88 273.75,-56 378.25,-56 378.25,-88"/>
<text xml:space="preserve" text-anchor="start" x="281.75" y="-74.5" font-family="Helvetica,sans-Serif" font-size="10.00">boost/serialization</text>
<text xml:space="preserve" text-anchor="middle" x="326" y="-62.5" font-family="Helvetica,sans-Serif" font-size="10.00">/unordered_map.hpp</text>
</a>
</g>
</g>
<!-- Node9&#45;&gt;Node16 -->
<g id="edge17_Node000009_Node000016" class="edge">
<title>Node9&#45;&gt;Node16</title>
<g id="a_edge17_Node000009_Node000016"><a xlink:title=" ">
<path fill="none" stroke="#63b8ff" d="M663.2,-128.35C603.93,-121.62 493.29,-107.95 389.78,-88.42"/>
<polygon fill="#63b8ff" stroke="#63b8ff" points="390.46,-84.99 379.98,-86.55 389.15,-91.87 390.46,-84.99"/>
</a>
</g>
</g>
<!-- Node17 -->
<g id="Node000017" class="node">
<title>Node17</title>
<g id="a_Node000017"><a xlink:title=" ">
<polygon fill="#e0e0e0" stroke="#999999" points="495.62,-88 396.38,-88 396.38,-56 495.62,-56 495.62,-88"/>
<text xml:space="preserve" text-anchor="start" x="404.38" y="-74.5" font-family="Helvetica,sans-Serif" font-size="10.00">boost/serialization</text>
<text xml:space="preserve" text-anchor="middle" x="446" y="-62.5" font-family="Helvetica,sans-Serif" font-size="10.00">/unordered_set.hpp</text>
</a>
</g>
</g>
<!-- Node9&#45;&gt;Node17 -->
<g id="edge18_Node000009_Node000017" class="edge">
<title>Node9&#45;&gt;Node17</title>
<g id="a_edge18_Node000009_Node000017"><a xlink:title=" ">
<path fill="none" stroke="#63b8ff" d="M663.18,-123.79C624.82,-115.45 566.74,-102.62 507.03,-88.45"/>
<polygon fill="#63b8ff" stroke="#63b8ff" points="507.88,-85.05 497.34,-86.14 506.26,-91.86 507.88,-85.05"/>
</a>
</g>
</g>
<!-- Node18 -->
<g id="Node000018" class="node">
<title>Node18</title>
<g id="a_Node000018"><a xlink:title=" ">
<polygon fill="#e0e0e0" stroke="#999999" points="608.38,-88 513.62,-88 513.62,-56 608.38,-56 608.38,-88"/>
<text xml:space="preserve" text-anchor="start" x="521.62" y="-74.5" font-family="Helvetica,sans-Serif" font-size="10.00">boost/serialization</text>
<text xml:space="preserve" text-anchor="middle" x="561" y="-62.5" font-family="Helvetica,sans-Serif" font-size="10.00">/vector.hpp</text>
</a>
</g>
</g>
<!-- Node9&#45;&gt;Node18 -->
<g id="edge19_Node000009_Node000018" class="edge">
<title>Node9&#45;&gt;Node18</title>
<g id="a_edge19_Node000009_Node000018"><a xlink:title=" ">
<path fill="none" stroke="#63b8ff" d="M683.34,-123.62C663.48,-115.41 633.94,-103.18 608.87,-92.81"/>
<polygon fill="#63b8ff" stroke="#63b8ff" points="610.41,-89.66 599.83,-89.07 607.74,-96.13 610.41,-89.66"/>
</a>
</g>
</g>
<!-- Node19 -->
<g id="Node000019" class="node">
<title>Node19</title>
<g id="a_Node000019"><a xlink:title=" ">
<polygon fill="#e0e0e0" stroke="#999999" points="669.88,-82 626.12,-82 626.12,-62 669.88,-62 669.88,-82"/>
<text xml:space="preserve" text-anchor="middle" x="648" y="-68.5" font-family="Helvetica,sans-Serif" font-size="10.00">format</text>
</a>
</g>
</g>
<!-- Node9&#45;&gt;Node19 -->
<g id="edge20_Node000009_Node000019" class="edge">
<title>Node9&#45;&gt;Node19</title>
<g id="a_edge20_Node000009_Node000019"><a xlink:title=" ">
<path fill="none" stroke="#63b8ff" d="M696.94,-123.62C688.29,-114.68 675.06,-100.99 664.53,-90.1"/>
<polygon fill="#63b8ff" stroke="#63b8ff" points="667.33,-87.96 657.86,-83.2 662.29,-92.82 667.33,-87.96"/>
</a>
</g>
</g>
<!-- Node20 -->
<g id="Node000020" class="node">
<title>Node20</title>
<g id="a_Node000020"><a xlink:title=" ">
<polygon fill="#e0e0e0" stroke="#999999" points="724.5,-82 687.5,-82 687.5,-62 724.5,-62 724.5,-82"/>
<text xml:space="preserve" text-anchor="middle" x="706" y="-68.5" font-family="Helvetica,sans-Serif" font-size="10.00">tuple</text>
</a>
</g>
</g>
<!-- Node9&#45;&gt;Node20 -->
<g id="edge21_Node000009_Node000020" class="edge">
<title>Node9&#45;&gt;Node20</title>
<g id="a_edge21_Node000009_Node000020"><a xlink:title=" ">
<path fill="none" stroke="#63b8ff" d="M706,-123.62C706,-115.56 706,-103.65 706,-93.41"/>
<polygon fill="#63b8ff" stroke="#63b8ff" points="709.5,-93.63 706,-83.63 702.5,-93.63 709.5,-93.63"/>
</a>
</g>
</g>
<!-- Node11 -->
<g id="Node000011" class="node">
<title>Node11</title>
<g id="a_Node000011"><a xlink:title=" ">
<polygon fill="#e0e0e0" stroke="#999999" points="40,-20 0,-20 0,0 40,0 40,-20"/>
<text xml:space="preserve" text-anchor="middle" x="20" y="-6.5" font-family="Helvetica,sans-Serif" font-size="10.00">string</text>
</a>
</g>
</g>
<!-- Node10&#45;&gt;Node11 -->
<g id="edge11_Node000010_Node000011" class="edge">
<title>Node10&#45;&gt;Node11</title>
<g id="a_edge11_Node000010_Node000011"><a xlink:title=" ">
<path fill="none" stroke="#63b8ff" d="M82.44,-61.62C71.08,-52.41 53.51,-38.17 39.9,-27.14"/>
<polygon fill="#63b8ff" stroke="#63b8ff" points="42.39,-24.65 32.41,-21.07 37.98,-30.08 42.39,-24.65"/>
</a>
</g>
</g>
<!-- Node12 -->
<g id="Node000012" class="node">
<title>Node12</title>
<g id="a_Node000012"><a xlink:title=" ">
<polygon fill="#e0e0e0" stroke="#999999" points="126.75,-20 61.25,-20 61.25,0 126.75,0 126.75,-20"/>
<text xml:space="preserve" text-anchor="middle" x="94" y="-6.5" font-family="Helvetica,sans-Serif" font-size="10.00">string_view</text>
</a>
</g>
</g>
<!-- Node10&#45;&gt;Node12 -->
<g id="edge12_Node000010_Node000012" class="edge">
<title>Node10&#45;&gt;Node12</title>
<g id="a_edge12_Node000010_Node000012"><a xlink:title=" ">
<path fill="none" stroke="#63b8ff" d="M94,-61.62C94,-53.56 94,-41.65 94,-31.41"/>
<polygon fill="#63b8ff" stroke="#63b8ff" points="97.5,-31.63 94,-21.63 90.5,-31.63 97.5,-31.63"/>
</a>
</g>
</g>
<!-- Node28&#45;&gt;Node7 -->
<g id="edge37_Node000028_Node000007" class="edge">
<title>Node28&#45;&gt;Node7</title>
<g id="a_edge37_Node000028_Node000007"><a xlink:title=" ">
<path fill="none" stroke="#63b8ff" d="M1288,-303.59C1288,-297.01 1288,-287.96 1288,-279.73"/>
<polygon fill="#63b8ff" stroke="#63b8ff" points="1291.5,-279.81 1288,-269.81 1284.5,-279.81 1291.5,-279.81"/>
</a>
</g>
</g>
<!-- Node29&#45;&gt;Node7 -->
<g id="edge39_Node000029_Node000007" class="edge">
<title>Node29&#45;&gt;Node7</title>
<g id="a_edge39_Node000029_Node000007"><a xlink:title=" ">
<path fill="none" stroke="#63b8ff" d="M1193.03,-303.59C1210.81,-295.24 1237.07,-282.92 1257.46,-273.34"/>
<polygon fill="#63b8ff" stroke="#63b8ff" points="1258.88,-276.54 1266.44,-269.12 1255.9,-270.21 1258.88,-276.54"/>
</a>
</g>
</g>
<!-- Node30&#45;&gt;Node8 -->
<g id="edge41_Node000030_Node000008" class="edge">
<title>Node30&#45;&gt;Node8</title>
<g id="a_edge41_Node000030_Node000008"><a xlink:title=" ">
<path fill="none" stroke="#63b8ff" d="M551.04,-251.08C655.15,-239.68 882.56,-214.79 988.54,-203.18"/>
<polygon fill="#63b8ff" stroke="#63b8ff" points="988.87,-206.67 998.43,-202.1 988.11,-199.71 988.87,-206.67"/>
</a>
</g>
</g>
<!-- Node30&#45;&gt;Node10 -->
<g id="edge42_Node000030_Node000010" class="edge">
<title>Node30&#45;&gt;Node10</title>
<g id="a_edge42_Node000030_Node000010"><a xlink:title=" ">
<path fill="none" stroke="#63b8ff" d="M476.46,-247.62C410.44,-217.48 203.36,-122.93 124.71,-87.02"/>
<polygon fill="#63b8ff" stroke="#63b8ff" points="126.42,-83.96 115.87,-82.99 123.52,-90.32 126.42,-83.96"/>
</a>
</g>
</g>
<!-- Node30&#45;&gt;Node11 -->
<g id="edge43_Node000030_Node000011" class="edge">
<title>Node30&#45;&gt;Node11</title>
<g id="a_edge43_Node000030_Node000011"><a xlink:title=" ">
<path fill="none" stroke="#63b8ff" d="M442.87,-254.22C344.98,-246.06 139.11,-214 36,-88 23.11,-72.25 19.81,-48.75 19.3,-31.85"/>
<polygon fill="#63b8ff" stroke="#63b8ff" points="22.8,-31.99 19.33,-21.97 15.8,-31.96 22.8,-31.99"/>
</a>
</g>
</g>
</g>
</svg>

<g id="navigator" transform="translate(0 0)" fill="#404254">
  <rect fill="#f2f5e9" fill-opacity="0.5" stroke="#606060" stroke-width=".5" x="0" y="0" width="60" height="60"/>
  <use id="zoomplus" xlink:href="#zoomPlus" x="17" y="9" onmousedown="handleZoom(evt,'in')"/>
  <use id="zoomminus" xlink:href="#zoomMin" x="42" y="9" onmousedown="handleZoom(evt,'out')"/>
  <use id="reset" xlink:href="#resetDef" x="30" y="36" onmousedown="handleReset()"/>
   <use id="arrowup" xlink:href="#arrowUp" x="0" y="0" onmousedown="handlePan(0,-1)"/>
  <use id="arrowright" xlink:href="#arrowRight" x="0" y="0" onmousedown="handlePan(1,0)"/>
  <use id="arrowdown" xlink:href="#arrowDown" x="0" y="0" onmousedown="handlePan(0,1)"/>
  <use id="arrowleft" xlink:href="#arrowLeft" x="0" y="0" onmousedown="handlePan(-1,0)"/>
</g>
<svg viewBox="0 0 15 15" width="100%" height="30px" preserveAspectRatio="xMaxYMin meet">
 <g id="arrow_out" transform="scale(0.3 0.3)">
  <a xlink:href="radialmenu__centralitem_8hpp__incl_org.svg" target="_base">
   <rect id="button" ry="5" rx="5" y="6" x="6" height="38" width="38"
        fill="#f2f5e9" fill-opacity="0.5" stroke="#606060" stroke-width="1.0"/>
   <path id="arrow"
     d="M 11.500037,31.436501 C 11.940474,20.09759 22.043105,11.32322 32.158766,21.979434 L 37.068811,17.246167 C 37.068811,17.246167 37.088388,32 37.088388,32 L 22.160133,31.978069 C 22.160133,31.978069 26.997745,27.140456 26.997745,27.140456 C 18.528582,18.264221 13.291696,25.230495 11.500037,31.436501 z"
     style="fill:#404040;"/>
  </a>
 </g>
</svg>

<style type='text/css'>
<![CDATA[
[data-mouse-over-selected='false'] { opacity: 0.7; }
[data-mouse-over-selected='true']  { opacity: 1.0; }
]]>
</style>
<script type="application/ecmascript"><![CDATA[
document.addEventListener('DOMContentLoaded', (event) => {
  highlightEdges();
  highlightAdjacentNodes();
});
]]></script>
</svg>
