<?xml version="1.0" encoding="UTF-8" standalone="no"?>
<!DOCTYPE svg PUBLIC "-//W3C//DTD SVG 1.1//EN"
 "http://www.w3.org/Graphics/SVG/1.1/DTD/svg11.dtd">
<!-- Generated by graphviz version 14.1.2 (20260124.0452)
 -->
<!-- Title: depicture_menu/src/core/domain/model/menu/radialmenu_item.hpp Pages: 1 -->
<svg width="2281pt" height="492pt"
 viewBox="0.00 0.00 2281.00 492.00" xmlns="http://www.w3.org/2000/svg" xmlns:xlink="http://www.w3.org/1999/xlink">
<g id="graph0" class="graph" transform="scale(1 1) rotate(0) translate(4 488)">
<title>depicture_menu/src/core/domain/model/menu/radialmenu_item.hpp</title>
<!-- Node1 -->
<g id="Node000001" class="node">
<title>Node1</title>
<g id="a_Node000001"><a xlink:title="メニューアイテム DomainEntity">
<polygon fill="#999999" stroke="#666666" points="1348.25,-484 1219.75,-484 1219.75,-440 1348.25,-440 1348.25,-484"/>
<text xml:space="preserve" text-anchor="start" x="1227.75" y="-470.5" font-family="Helvetica,sans-Serif" font-size="10.00">depicture_menu/src</text>
<text xml:space="preserve" text-anchor="start" x="1227.75" y="-458.5" font-family="Helvetica,sans-Serif" font-size="10.00">/core/domain/model/menu</text>
<text xml:space="preserve" text-anchor="middle" x="1284" y="-446.5" font-family="Helvetica,sans-Serif" font-size="10.00">/radialmenu_item.hpp</text>
</a>
</g>
</g>
<!-- Node2 -->
<g id="Node000002" class="node">
<title>Node2</title>
<g id="a_Node000002"><a xlink:href="action__ids_8hpp.html" target="_top" xlink:title=" ">
<polygon fill="white" stroke="#666666" points="1342.62,-398 1225.38,-398 1225.38,-378 1342.62,-378 1342.62,-398"/>
<text xml:space="preserve" text-anchor="middle" x="1284" y="-384.5" font-family="Helvetica,sans-Serif" font-size="10.00">../action/action_ids.hpp</text>
</a>
</g>
</g>
<!-- Node1&#45;&gt;Node2 -->
<g id="edge1_Node000001_Node000002" class="edge">
<title>Node1&#45;&gt;Node2</title>
<g id="a_edge1_Node000001_Node000002"><a xlink:title=" ">
<path fill="none" stroke="#63b8ff" d="M1284,-439.79C1284,-430.32 1284,-419.2 1284,-409.78"/>
<polygon fill="#63b8ff" stroke="#63b8ff" points="1287.5,-409.82 1284,-399.82 1280.5,-409.82 1287.5,-409.82"/>
</a>
</g>
</g>
<!-- Node10 -->
<g id="Node000010" class="node">
<title>Node10</title>
<g id="a_Node000010"><a xlink:title=" ">
<polygon fill="#e0e0e0" stroke="#999999" points="58,-76 18,-76 18,-56 58,-56 58,-76"/>
<text xml:space="preserve" text-anchor="middle" x="38" y="-62.5" font-family="Helvetica,sans-Serif" font-size="10.00">string</text>
</a>
</g>
</g>
<!-- Node1&#45;&gt;Node10 -->
<g id="edge66_Node000001_Node000010" class="edge">
<title>Node1&#45;&gt;Node10</title>
<g id="a_edge66_Node000001_Node000010"><a xlink:title=" ">
<path fill="none" stroke="#63b8ff" d="M1219.45,-460.82C959.07,-459.24 0,-445.03 0,-321 0,-321 0,-321 0,-189 0,-151.44 16.62,-110.2 27.88,-86.58"/>
<polygon fill="#63b8ff" stroke="#63b8ff" points="30.9,-88.36 32.2,-77.85 24.63,-85.25 30.9,-88.36"/>
</a>
</g>
</g>
<!-- Node35 -->
<g id="Node000035" class="node">
<title>Node35</title>
<g id="a_Node000035"><a xlink:href="icon__ids_8hpp.html" target="_top" xlink:title="アイコンドメインID群定義">
<polygon fill="white" stroke="#666666" points="1461.38,-398 1360.62,-398 1360.62,-378 1461.38,-378 1461.38,-398"/>
<text xml:space="preserve" text-anchor="middle" x="1411" y="-384.5" font-family="Helvetica,sans-Serif" font-size="10.00">../icon/icon_ids.hpp</text>
</a>
</g>
</g>
<!-- Node1&#45;&gt;Node35 -->
<g id="edge47_Node000001_Node000035" class="edge">
<title>Node1&#45;&gt;Node35</title>
<g id="a_edge47_Node000001_Node000035"><a xlink:title=" ">
<path fill="none" stroke="#63b8ff" d="M1321.76,-439.59C1341.93,-428.16 1366.27,-414.36 1384.43,-404.06"/>
<polygon fill="#63b8ff" stroke="#63b8ff" points="1386.05,-407.17 1393.02,-399.19 1382.59,-401.08 1386.05,-407.17"/>
</a>
</g>
</g>
<!-- Node36 -->
<g id="Node000036" class="node">
<title>Node36</title>
<g id="a_Node000036"><a xlink:href="menu__ids_8hpp.html" target="_top" xlink:title=" ">
<polygon fill="white" stroke="#666666" points="1556.38,-398 1479.62,-398 1479.62,-378 1556.38,-378 1556.38,-398"/>
<text xml:space="preserve" text-anchor="middle" x="1518" y="-384.5" font-family="Helvetica,sans-Serif" font-size="10.00">menu_ids.hpp</text>
</a>
</g>
</g>
<!-- Node1&#45;&gt;Node36 -->
<g id="edge49_Node000001_Node000036" class="edge">
<title>Node1&#45;&gt;Node36</title>
<g id="a_edge49_Node000001_Node000036"><a xlink:title=" ">
<path fill="none" stroke="#63b8ff" d="M1348.59,-441.3C1384.38,-430.36 1429.67,-416.48 1470,-404 1472.25,-403.3 1474.55,-402.59 1476.88,-401.87"/>
<polygon fill="#63b8ff" stroke="#63b8ff" points="1477.84,-405.23 1486.35,-398.92 1475.76,-398.55 1477.84,-405.23"/>
</a>
</g>
</g>
<!-- Node37 -->
<g id="Node000037" class="node">
<title>Node37</title>
<g id="a_Node000037"><a xlink:href="radialmenu__label_8hpp.html" target="_top" xlink:title=" ">
<polygon fill="white" stroke="#666666" points="387.75,-330 280.25,-330 280.25,-310 387.75,-310 387.75,-330"/>
<text xml:space="preserve" text-anchor="middle" x="334" y="-316.5" font-family="Helvetica,sans-Serif" font-size="10.00">radialmenu_label.hpp</text>
</a>
</g>
</g>
<!-- Node1&#45;&gt;Node37 -->
<g id="edge51_Node000001_Node000037" class="edge">
<title>Node1&#45;&gt;Node37</title>
<g id="a_edge51_Node000001_Node000037"><a xlink:title=" ">
<path fill="none" stroke="#63b8ff" d="M1219.45,-451.49C1046.37,-425.98 573.33,-356.27 399.34,-330.63"/>
<polygon fill="#63b8ff" stroke="#63b8ff" points="399.98,-327.19 389.57,-329.19 398.96,-334.11 399.98,-327.19"/>
</a>
</g>
</g>
<!-- Node38 -->
<g id="Node000038" class="node">
<title>Node38</title>
<g id="a_Node000038"><a xlink:href="colors_8hpp.html" target="_top" xlink:title=" ">
<polygon fill="white" stroke="#666666" points="1060.5,-336 921.5,-336 921.5,-304 1060.5,-304 1060.5,-336"/>
<text xml:space="preserve" text-anchor="start" x="929.5" y="-322.5" font-family="Helvetica,sans-Serif" font-size="10.00">core/domain/model/common</text>
<text xml:space="preserve" text-anchor="middle" x="991" y="-310.5" font-family="Helvetica,sans-Serif" font-size="10.00">/colors.hpp</text>
</a>
</g>
</g>
<!-- Node1&#45;&gt;Node38 -->
<g id="edge55_Node000001_Node000038" class="edge">
<title>Node1&#45;&gt;Node38</title>
<g id="a_edge55_Node000001_Node000038"><a xlink:title=" ">
<path fill="none" stroke="#63b8ff" d="M1219.47,-456.38C1170.9,-450.33 1104.47,-436.34 1055,-404 1033,-389.62 1015.45,-365.04 1004.33,-346.35"/>
<polygon fill="#63b8ff" stroke="#63b8ff" points="1007.42,-344.7 999.44,-337.73 1001.33,-348.15 1007.42,-344.7"/>
</a>
</g>
</g>
<!-- Node39 -->
<g id="Node000039" class="node">
<title>Node39</title>
<g id="a_Node000039"><a xlink:href="common__command__kind_8hpp.html" target="_top" xlink:title=" ">
<polygon fill="white" stroke="#666666" points="1721.25,-404 1574.75,-404 1574.75,-372 1721.25,-372 1721.25,-404"/>
<text xml:space="preserve" text-anchor="start" x="1582.75" y="-390.5" font-family="Helvetica,sans-Serif" font-size="10.00">core/domain/model/command</text>
<text xml:space="preserve" text-anchor="middle" x="1648" y="-378.5" font-family="Helvetica,sans-Serif" font-size="10.00">/common_command_kind.hpp</text>
</a>
</g>
</g>
<!-- Node1&#45;&gt;Node39 -->
<g id="edge58_Node000001_Node000039" class="edge">
<title>Node1&#45;&gt;Node39</title>
<g id="a_edge58_Node000001_Node000039"><a xlink:title=" ">
<path fill="none" stroke="#63b8ff" d="M1348.66,-448.21C1408.52,-436.37 1497.92,-418.69 1563.44,-405.73"/>
<polygon fill="#63b8ff" stroke="#63b8ff" points="1563.94,-409.19 1573.07,-403.82 1562.58,-402.33 1563.94,-409.19"/>
</a>
</g>
</g>
<!-- Node41 -->
<g id="Node000041" class="node">
<title>Node41</title>
<g id="a_Node000041"><a xlink:href="model_2entity_8hpp.html" target="_top" xlink:title=" ">
<polygon fill="white" stroke="#666666" points="1207.75,-398 1064.25,-398 1064.25,-378 1207.75,-378 1207.75,-398"/>
<text xml:space="preserve" text-anchor="middle" x="1136" y="-384.5" font-family="Helvetica,sans-Serif" font-size="10.00">core/domain/model/entity.hpp</text>
</a>
</g>
</g>
<!-- Node1&#45;&gt;Node41 -->
<g id="edge60_Node000001_Node000041" class="edge">
<title>Node1&#45;&gt;Node41</title>
<g id="a_edge60_Node000001_Node000041"><a xlink:title=" ">
<path fill="none" stroke="#63b8ff" d="M1240,-439.59C1215.94,-427.89 1186.8,-413.71 1165.49,-403.35"/>
<polygon fill="#63b8ff" stroke="#63b8ff" points="1167.31,-400.34 1156.78,-399.11 1164.24,-406.63 1167.31,-400.34"/>
</a>
</g>
</g>
<!-- Node42 -->
<g id="Node000042" class="node">
<title>Node42</title>
<g id="a_Node000042"><a xlink:title=" ">
<polygon fill="#e0e0e0" stroke="#999999" points="1894.75,-398 1739.25,-398 1739.25,-378 1894.75,-378 1894.75,-398"/>
<text xml:space="preserve" text-anchor="middle" x="1817" y="-384.5" font-family="Helvetica,sans-Serif" font-size="10.00">boost/describe/enumerators.hpp</text>
</a>
</g>
</g>
<!-- Node1&#45;&gt;Node42 -->
<g id="edge65_Node000001_Node000042" class="edge">
<title>Node1&#45;&gt;Node42</title>
<g id="a_edge65_Node000001_Node000042"><a xlink:title=" ">
<path fill="none" stroke="#63b8ff" d="M1348.75,-453.62C1435.64,-443.52 1594.71,-424.3 1730,-404 1737.43,-402.88 1745.21,-401.65 1752.93,-400.37"/>
<polygon fill="#63b8ff" stroke="#63b8ff" points="1753.37,-403.85 1762.66,-398.74 1752.22,-396.94 1753.37,-403.85"/>
</a>
</g>
</g>
<!-- Node3 -->
<g id="Node000003" class="node">
<title>Node3</title>
<g id="a_Node000003"><a xlink:href="model_2entity__id_8hpp.html" target="_top" xlink:title=" ">
<polygon fill="white" stroke="#666666" points="1580.75,-336 1455.25,-336 1455.25,-304 1580.75,-304 1580.75,-336"/>
<text xml:space="preserve" text-anchor="start" x="1463.25" y="-322.5" font-family="Helvetica,sans-Serif" font-size="10.00">core/domain/model/entity</text>
<text xml:space="preserve" text-anchor="middle" x="1518" y="-310.5" font-family="Helvetica,sans-Serif" font-size="10.00">_id.hpp</text>
</a>
</g>
</g>
<!-- Node2&#45;&gt;Node3 -->
<g id="edge2_Node000002_Node000003" class="edge">
<title>Node2&#45;&gt;Node3</title>
<g id="a_edge2_Node000002_Node000003"><a xlink:title=" ">
<path fill="none" stroke="#63b8ff" d="M1317.53,-377.54C1352.59,-367.65 1408.53,-351.88 1452.42,-339.5"/>
<polygon fill="#63b8ff" stroke="#63b8ff" points="1453.17,-342.92 1461.84,-336.84 1451.27,-336.18 1453.17,-342.92"/>
</a>
</g>
</g>
<!-- Node4 -->
<g id="Node000004" class="node">
<title>Node4</title>
<g id="a_Node000004"><a xlink:href="model_2value__object_8hpp.html" target="_top" xlink:title=" ">
<polygon fill="white" stroke="#666666" points="1244.75,-262 1155.25,-262 1155.25,-242 1244.75,-242 1244.75,-262"/>
<text xml:space="preserve" text-anchor="middle" x="1200" y="-248.5" font-family="Helvetica,sans-Serif" font-size="10.00">value_object.hpp</text>
</a>
</g>
</g>
<!-- Node3&#45;&gt;Node4 -->
<g id="edge3_Node000003_Node000004" class="edge">
<title>Node3&#45;&gt;Node4</title>
<g id="a_edge3_Node000003_Node000004"><a xlink:title=" ">
<path fill="none" stroke="#63b8ff" d="M1454.79,-305.88C1396.84,-293.85 1311.82,-276.21 1256.19,-264.66"/>
<polygon fill="#63b8ff" stroke="#63b8ff" points="1257.11,-261.28 1246.61,-262.67 1255.69,-268.13 1257.11,-261.28"/>
</a>
</g>
</g>
<!-- Node13 -->
<g id="Node000013" class="node">
<title>Node13</title>
<g id="a_Node000013"><a xlink:title=" ">
<polygon fill="#e0e0e0" stroke="#999999" points="1208.38,-144 1113.62,-144 1113.62,-112 1208.38,-112 1208.38,-144"/>
<text xml:space="preserve" text-anchor="start" x="1121.62" y="-130.5" font-family="Helvetica,sans-Serif" font-size="10.00">boost/serialization</text>
<text xml:space="preserve" text-anchor="middle" x="1161" y="-118.5" font-family="Helvetica,sans-Serif" font-size="10.00">/access.hpp</text>
</a>
</g>
</g>
<!-- Node3&#45;&gt;Node13 -->
<g id="edge41_Node000003_Node000013" class="edge">
<title>Node3&#45;&gt;Node13</title>
<g id="a_edge41_Node000003_Node000013"><a xlink:title=" ">
<path fill="none" stroke="#63b8ff" d="M1525.42,-303.51C1538.29,-276.31 1563.79,-220.87 1568,-200 1569.76,-191.29 1573.88,-186.66 1568,-180 1565.14,-176.76 1331.99,-149.04 1219.91,-135.88"/>
<polygon fill="#63b8ff" stroke="#63b8ff" points="1220.32,-132.4 1209.98,-134.72 1219.51,-139.36 1220.32,-132.4"/>
</a>
</g>
</g>
<!-- Node29 -->
<g id="Node000029" class="node">
<title>Node29</title>
<g id="a_Node000029"><a xlink:title=" ">
<polygon fill="#e0e0e0" stroke="#999999" points="1559.38,-200 1458.62,-200 1458.62,-180 1559.38,-180 1559.38,-200"/>
<text xml:space="preserve" text-anchor="middle" x="1509" y="-186.5" font-family="Helvetica,sans-Serif" font-size="10.00">boost/uuid/uuid.hpp</text>
</a>
</g>
</g>
<!-- Node3&#45;&gt;Node29 -->
<g id="edge43_Node000003_Node000029" class="edge">
<title>Node3&#45;&gt;Node29</title>
<g id="a_edge43_Node000003_Node000029"><a xlink:title=" ">
<path fill="none" stroke="#63b8ff" d="M1516.91,-303.56C1515.3,-280.58 1512.26,-237.34 1510.45,-211.66"/>
<polygon fill="#63b8ff" stroke="#63b8ff" points="1513.95,-211.57 1509.76,-201.84 1506.97,-212.06 1513.95,-211.57"/>
</a>
</g>
</g>
<!-- Node30 -->
<g id="Node000030" class="node">
<title>Node30</title>
<g id="a_Node000030"><a xlink:title=" ">
<polygon fill="#e0e0e0" stroke="#999999" points="1692.88,-262 1565.12,-262 1565.12,-242 1692.88,-242 1692.88,-262"/>
<text xml:space="preserve" text-anchor="middle" x="1629" y="-248.5" font-family="Helvetica,sans-Serif" font-size="10.00">boost/functional/hash.hpp</text>
</a>
</g>
</g>
<!-- Node3&#45;&gt;Node30 -->
<g id="edge40_Node000003_Node000030" class="edge">
<title>Node3&#45;&gt;Node30</title>
<g id="a_edge40_Node000003_Node000030"><a xlink:title=" ">
<path fill="none" stroke="#63b8ff" d="M1544.02,-303.53C1561.92,-292.89 1585.56,-278.83 1603.37,-268.24"/>
<polygon fill="#63b8ff" stroke="#63b8ff" points="1604.98,-271.35 1611.79,-263.23 1601.4,-265.34 1604.98,-271.35"/>
</a>
</g>
</g>
<!-- Node31 -->
<g id="Node000031" class="node">
<title>Node31</title>
<g id="a_Node000031"><a xlink:title=" ">
<polygon fill="#e0e0e0" stroke="#999999" points="1810.62,-268 1711.38,-268 1711.38,-236 1810.62,-236 1810.62,-268"/>
<text xml:space="preserve" text-anchor="start" x="1719.38" y="-254.5" font-family="Helvetica,sans-Serif" font-size="10.00">boost/serialization</text>
<text xml:space="preserve" text-anchor="middle" x="1761" y="-242.5" font-family="Helvetica,sans-Serif" font-size="10.00">/array_wrapper.hpp</text>
</a>
</g>
</g>
<!-- Node3&#45;&gt;Node31 -->
<g id="edge42_Node000003_Node000031" class="edge">
<title>Node3&#45;&gt;Node31</title>
<g id="a_edge42_Node000003_Node000031"><a xlink:title=" ">
<path fill="none" stroke="#63b8ff" d="M1574.97,-303.53C1612.51,-293.33 1661.62,-279.99 1699.96,-269.58"/>
<polygon fill="#63b8ff" stroke="#63b8ff" points="1700.78,-272.98 1709.51,-266.98 1698.95,-266.23 1700.78,-272.98"/>
</a>
</g>
</g>
<!-- Node32 -->
<g id="Node000032" class="node">
<title>Node32</title>
<g id="a_Node000032"><a xlink:title=" ">
<polygon fill="#e0e0e0" stroke="#999999" points="1980.88,-262 1829.12,-262 1829.12,-242 1980.88,-242 1980.88,-262"/>
<text xml:space="preserve" text-anchor="middle" x="1905" y="-248.5" font-family="Helvetica,sans-Serif" font-size="10.00">boost/uuid/uuid_generators.hpp</text>
</a>
</g>
</g>
<!-- Node3&#45;&gt;Node32 -->
<g id="edge44_Node000003_Node000032" class="edge">
<title>Node3&#45;&gt;Node32</title>
<g id="a_edge44_Node000003_Node000032"><a xlink:title=" ">
<path fill="none" stroke="#63b8ff" d="M1581.18,-305.65C1584.16,-305.08 1587.11,-304.53 1590,-304 1691.79,-285.44 1717.94,-284.99 1820,-268 1826.89,-266.85 1834.08,-265.63 1841.25,-264.39"/>
<polygon fill="#63b8ff" stroke="#63b8ff" points="1841.69,-267.86 1850.94,-262.7 1840.49,-260.97 1841.69,-267.86"/>
</a>
</g>
</g>
<!-- Node33 -->
<g id="Node000033" class="node">
<title>Node33</title>
<g id="a_Node000033"><a xlink:title=" ">
<polygon fill="#e0e0e0" stroke="#999999" points="2112.75,-262 1999.25,-262 1999.25,-242 2112.75,-242 2112.75,-262"/>
<text xml:space="preserve" text-anchor="middle" x="2056" y="-248.5" font-family="Helvetica,sans-Serif" font-size="10.00">boost/uuid/uuid_io.hpp</text>
</a>
</g>
</g>
<!-- Node3&#45;&gt;Node33 -->
<g id="edge45_Node000003_Node000033" class="edge">
<title>Node3&#45;&gt;Node33</title>
<g id="a_edge45_Node000003_Node000033"><a xlink:title=" ">
<path fill="none" stroke="#63b8ff" d="M1581.14,-305.41C1584.13,-304.91 1587.1,-304.43 1590,-304 1766.56,-277.75 1813.69,-295.84 1990,-268 1995.66,-267.11 2001.55,-266.01 2007.39,-264.82"/>
<polygon fill="#63b8ff" stroke="#63b8ff" points="2007.95,-268.28 2016.99,-262.76 2006.48,-261.43 2007.95,-268.28"/>
</a>
</g>
</g>
<!-- Node34 -->
<g id="Node000034" class="node">
<title>Node34</title>
<g id="a_Node000034"><a xlink:title=" ">
<polygon fill="#e0e0e0" stroke="#999999" points="2273,-262 2131,-262 2131,-242 2273,-242 2273,-262"/>
<text xml:space="preserve" text-anchor="middle" x="2202" y="-248.5" font-family="Helvetica,sans-Serif" font-size="10.00">boost/uuid/uuid_serialize.hpp</text>
</a>
</g>
</g>
<!-- Node3&#45;&gt;Node34 -->
<g id="edge46_Node000003_Node000034" class="edge">
<title>Node3&#45;&gt;Node34</title>
<g id="a_edge46_Node000003_Node000034"><a xlink:title=" ">
<path fill="none" stroke="#63b8ff" d="M1581.13,-305.33C1584.12,-304.85 1587.09,-304.4 1590,-304 1824.78,-271.76 1886.91,-297.89 2122,-268 2129.53,-267.04 2137.43,-265.83 2145.21,-264.5"/>
<polygon fill="#63b8ff" stroke="#63b8ff" points="2145.73,-267.96 2154.97,-262.76 2144.51,-261.07 2145.73,-267.96"/>
</a>
</g>
</g>
<!-- Node5 -->
<g id="Node000005" class="node">
<title>Node5</title>
<g id="a_Node000005"><a xlink:href="model_2presistence_8hpp.html" target="_top" xlink:title=" ">
<polygon fill="white" stroke="#666666" points="787.5,-200 702.5,-200 702.5,-180 787.5,-180 787.5,-200"/>
<text xml:space="preserve" text-anchor="middle" x="745" y="-186.5" font-family="Helvetica,sans-Serif" font-size="10.00">presistence.hpp</text>
</a>
</g>
</g>
<!-- Node4&#45;&gt;Node5 -->
<g id="edge4_Node000004_Node000005" class="edge">
<title>Node4&#45;&gt;Node5</title>
<g id="a_edge4_Node000004_Node000005"><a xlink:title=" ">
<path fill="none" stroke="#63b8ff" d="M1155.13,-243.79C1138.74,-241.23 1120.04,-238.39 1103,-236 995.31,-220.91 869.06,-205.59 798.94,-197.3"/>
<polygon fill="#63b8ff" stroke="#63b8ff" points="799.6,-193.85 789.26,-196.15 798.78,-200.8 799.6,-193.85"/>
</a>
</g>
</g>
<!-- Node7 -->
<g id="Node000007" class="node">
<title>Node7</title>
<g id="a_Node000007"><a xlink:title=" ">
<polygon fill="#e0e0e0" stroke="#999999" points="1233.38,-76 1138.62,-76 1138.62,-56 1233.38,-56 1233.38,-76"/>
<text xml:space="preserve" text-anchor="middle" x="1186" y="-62.5" font-family="Helvetica,sans-Serif" font-size="10.00">boost/pfr/core.hpp</text>
</a>
</g>
</g>
<!-- Node4&#45;&gt;Node7 -->
<g id="edge35_Node000004_Node000007" class="edge">
<title>Node4&#45;&gt;Node7</title>
<g id="a_edge35_Node000004_Node000007"><a xlink:title=" ">
<path fill="none" stroke="#63b8ff" d="M1215.94,-241.57C1229.18,-232.72 1247.08,-218.14 1255,-200 1262.78,-182.17 1269.22,-145.9 1250,-112 1242.78,-99.26 1230.29,-89.27 1218.25,-81.97"/>
<polygon fill="#63b8ff" stroke="#63b8ff" points="1220.13,-79.01 1209.69,-77.21 1216.73,-85.13 1220.13,-79.01"/>
</a>
</g>
</g>
<!-- Node8 -->
<g id="Node000008" class="node">
<title>Node8</title>
<g id="a_Node000008"><a xlink:title=" ">
<polygon fill="#e0e0e0" stroke="#999999" points="1011.62,-76 972.38,-76 972.38,-56 1011.62,-56 1011.62,-76"/>
<text xml:space="preserve" text-anchor="middle" x="992" y="-62.5" font-family="Helvetica,sans-Serif" font-size="10.00">utility</text>
</a>
</g>
</g>
<!-- Node4&#45;&gt;Node8 -->
<g id="edge39_Node000004_Node000008" class="edge">
<title>Node4&#45;&gt;Node8</title>
<g id="a_edge39_Node000004_Node000008"><a xlink:title=" ">
<path fill="none" stroke="#63b8ff" d="M1183.37,-241.6C1162.34,-228.43 1130.49,-203.48 1145,-180 1163.81,-149.57 1198.19,-174.43 1217,-144 1224.48,-131.9 1226.02,-123 1217,-112 1192.82,-82.51 1078.97,-71.96 1023.09,-68.52"/>
<polygon fill="#63b8ff" stroke="#63b8ff" points="1023.48,-65.03 1013.29,-67.95 1023.08,-72.02 1023.48,-65.03"/>
</a>
</g>
</g>
<!-- Node20 -->
<g id="Node000020" class="node">
<title>Node20</title>
<g id="a_Node000020"><a xlink:href="concepts_8hpp.html" target="_top" xlink:title=" ">
<polygon fill="white" stroke="#666666" points="1098.25,-200 1023.75,-200 1023.75,-180 1098.25,-180 1098.25,-200"/>
<text xml:space="preserve" text-anchor="middle" x="1061" y="-186.5" font-family="Helvetica,sans-Serif" font-size="10.00">concepts.hpp</text>
</a>
</g>
</g>
<!-- Node4&#45;&gt;Node20 -->
<g id="edge20_Node000004_Node000020" class="edge">
<title>Node4&#45;&gt;Node20</title>
<g id="a_edge20_Node000004_Node000020"><a xlink:title=" ">
<path fill="none" stroke="#63b8ff" d="M1178.28,-241.62C1155.43,-231.76 1119.23,-216.13 1093.09,-204.85"/>
<polygon fill="#63b8ff" stroke="#63b8ff" points="1094.52,-201.66 1083.96,-200.91 1091.75,-208.09 1094.52,-201.66"/>
</a>
</g>
</g>
<!-- Node21 -->
<g id="Node000021" class="node">
<title>Node21</title>
<g id="a_Node000021"><a xlink:href="reflection_8hpp.html" target="_top" xlink:title=" ">
<polygon fill="white" stroke="#666666" points="1440.38,-200 1339.62,-200 1339.62,-180 1440.38,-180 1440.38,-200"/>
<text xml:space="preserve" text-anchor="middle" x="1390" y="-186.5" font-family="Helvetica,sans-Serif" font-size="10.00">utility/reflection.hpp</text>
</a>
</g>
</g>
<!-- Node4&#45;&gt;Node21 -->
<g id="edge22_Node000004_Node000021" class="edge">
<title>Node4&#45;&gt;Node21</title>
<g id="a_edge22_Node000004_Node000021"><a xlink:title=" ">
<path fill="none" stroke="#63b8ff" d="M1229.69,-241.62C1261.94,-231.44 1313.66,-215.11 1349.6,-203.76"/>
<polygon fill="#63b8ff" stroke="#63b8ff" points="1350.28,-207.21 1358.76,-200.86 1348.17,-200.54 1350.28,-207.21"/>
</a>
</g>
</g>
<!-- Node23 -->
<g id="Node000023" class="node">
<title>Node23</title>
<g id="a_Node000023"><a xlink:title=" ">
<polygon fill="#e0e0e0" stroke="#999999" points="1509,-76 1385,-76 1385,-56 1509,-56 1509,-76"/>
<text xml:space="preserve" text-anchor="middle" x="1447" y="-62.5" font-family="Helvetica,sans-Serif" font-size="10.00">boost/pfr/core_name.hpp</text>
</a>
</g>
</g>
<!-- Node4&#45;&gt;Node23 -->
<g id="edge36_Node000004_Node000023" class="edge">
<title>Node4&#45;&gt;Node23</title>
<g id="a_edge36_Node000004_Node000023"><a xlink:title=" ">
<path fill="none" stroke="#63b8ff" d="M1215.36,-241.73C1239.46,-227.4 1287.86,-199.49 1331,-180 1373.29,-160.89 1398.26,-178.76 1429,-144 1442.63,-128.59 1446.47,-104.85 1447.31,-87.8"/>
<polygon fill="#63b8ff" stroke="#63b8ff" points="1450.81,-87.89 1447.46,-77.83 1443.81,-87.78 1450.81,-87.89"/>
</a>
</g>
</g>
<!-- Node28 -->
<g id="Node000028" class="node">
<title>Node28</title>
<g id="a_Node000028"><a xlink:title=" ">
<polygon fill="#e0e0e0" stroke="#999999" points="1245.88,-200 1154.12,-200 1154.12,-180 1245.88,-180 1245.88,-200"/>
<text xml:space="preserve" text-anchor="middle" x="1200" y="-186.5" font-family="Helvetica,sans-Serif" font-size="10.00">boost/pfr/ops.hpp</text>
</a>
</g>
</g>
<!-- Node4&#45;&gt;Node28 -->
<g id="edge37_Node000004_Node000028" class="edge">
<title>Node4&#45;&gt;Node28</title>
<g id="a_edge37_Node000004_Node000028"><a xlink:title=" ">
<path fill="none" stroke="#63b8ff" d="M1200,-241.62C1200,-233.56 1200,-221.65 1200,-211.41"/>
<polygon fill="#63b8ff" stroke="#63b8ff" points="1203.5,-211.63 1200,-201.63 1196.5,-211.63 1203.5,-211.63"/>
</a>
</g>
</g>
<!-- Node4&#45;&gt;Node29 -->
<g id="edge38_Node000004_Node000029" class="edge">
<title>Node4&#45;&gt;Node29</title>
<g id="a_edge38_Node000004_Node000029"><a xlink:title=" ">
<path fill="none" stroke="#63b8ff" d="M1244.93,-242.28C1298.79,-231.82 1389.25,-214.25 1449.03,-202.64"/>
<polygon fill="#63b8ff" stroke="#63b8ff" points="1449.55,-206.11 1458.7,-200.77 1448.22,-199.24 1449.55,-206.11"/>
</a>
</g>
</g>
<!-- Node6 -->
<g id="Node000006" class="node">
<title>Node6</title>
<g id="a_Node000006"><a xlink:href="model__base__concepts_8hpp.html" target="_top" xlink:title=" ">
<polygon fill="white" stroke="#666666" points="1058.12,-138 925.88,-138 925.88,-118 1058.12,-118 1058.12,-138"/>
<text xml:space="preserve" text-anchor="middle" x="992" y="-124.5" font-family="Helvetica,sans-Serif" font-size="10.00">model_base_concepts.hpp</text>
</a>
</g>
</g>
<!-- Node5&#45;&gt;Node6 -->
<g id="edge5_Node000005_Node000006" class="edge">
<title>Node5&#45;&gt;Node6</title>
<g id="a_edge5_Node000005_Node000006"><a xlink:title=" ">
<path fill="none" stroke="#63b8ff" d="M783.87,-179.56C826.54,-169.19 895.19,-152.52 941.88,-141.18"/>
<polygon fill="#63b8ff" stroke="#63b8ff" points="942.59,-144.6 951.48,-138.84 940.94,-137.8 942.59,-144.6"/>
</a>
</g>
</g>
<!-- Node5&#45;&gt;Node7 -->
<g id="edge12_Node000005_Node000007" class="edge">
<title>Node5&#45;&gt;Node7</title>
<g id="a_edge12_Node000005_Node000007"><a xlink:title=" ">
<path fill="none" stroke="#63b8ff" d="M787.81,-185.97C863.57,-180.12 1017.89,-165.89 1067,-144 1087.17,-135.01 1086.82,-124.53 1105,-112 1121.36,-100.72 1140.78,-89.86 1156.51,-81.62"/>
<polygon fill="#63b8ff" stroke="#63b8ff" points="1158.08,-84.75 1165.38,-77.07 1154.89,-78.53 1158.08,-84.75"/>
</a>
</g>
</g>
<!-- Node9 -->
<g id="Node000009" class="node">
<title>Node9</title>
<g id="a_Node000009"><a xlink:href="str__conv_8hpp.html" target="_top" xlink:title=" ">
<polygon fill="white" stroke="#666666" points="163.88,-138 66.12,-138 66.12,-118 163.88,-118 163.88,-138"/>
<text xml:space="preserve" text-anchor="middle" x="115" y="-124.5" font-family="Helvetica,sans-Serif" font-size="10.00">utility/str_conv.hpp</text>
</a>
</g>
</g>
<!-- Node5&#45;&gt;Node9 -->
<g id="edge8_Node000005_Node000009" class="edge">
<title>Node5&#45;&gt;Node9</title>
<g id="a_edge8_Node000005_Node000009"><a xlink:title=" ">
<path fill="none" stroke="#63b8ff" d="M702.33,-186.44C611.66,-180.76 393.21,-165.88 211,-144 199.45,-142.61 187.16,-140.88 175.36,-139.1"/>
<polygon fill="#63b8ff" stroke="#63b8ff" points="176.15,-135.68 165.73,-137.61 175.08,-142.6 176.15,-135.68"/>
</a>
</g>
</g>
<!-- Node12 -->
<g id="Node000012" class="node">
<title>Node12</title>
<g id="a_Node000012"><a xlink:title=" ">
<polygon fill="#e0e0e0" stroke="#999999" points="441.62,-144 336.38,-144 336.38,-112 441.62,-112 441.62,-144"/>
<text xml:space="preserve" text-anchor="start" x="344.38" y="-130.5" font-family="Helvetica,sans-Serif" font-size="10.00">boost/archive/basic</text>
<text xml:space="preserve" text-anchor="middle" x="389" y="-118.5" font-family="Helvetica,sans-Serif" font-size="10.00">_binary_iarchive.hpp</text>
</a>
</g>
</g>
<!-- Node5&#45;&gt;Node12 -->
<g id="edge11_Node000005_Node000012" class="edge">
<title>Node5&#45;&gt;Node12</title>
<g id="a_edge11_Node000005_Node000012"><a xlink:title=" ">
<path fill="none" stroke="#63b8ff" d="M702.44,-183.65C647.27,-176.46 547.85,-162.63 453.25,-144.34"/>
<polygon fill="#63b8ff" stroke="#63b8ff" points="454.01,-140.92 443.52,-142.44 452.66,-147.79 454.01,-140.92"/>
</a>
</g>
</g>
<!-- Node5&#45;&gt;Node13 -->
<g id="edge13_Node000005_Node000013" class="edge">
<title>Node5&#45;&gt;Node13</title>
<g id="a_edge13_Node000005_Node000013"><a xlink:title=" ">
<path fill="none" stroke="#63b8ff" d="M787.87,-185.17C854.85,-178.83 988.22,-164.76 1100,-144 1100.67,-143.88 1101.34,-143.75 1102.02,-143.62"/>
<polygon fill="#63b8ff" stroke="#63b8ff" points="1102.6,-147.07 1111.68,-141.62 1101.18,-140.22 1102.6,-147.07"/>
</a>
</g>
</g>
<!-- Node14 -->
<g id="Node000014" class="node">
<title>Node14</title>
<g id="a_Node000014"><a xlink:title=" ">
<polygon fill="#e0e0e0" stroke="#999999" points="554.38,-144 459.62,-144 459.62,-112 554.38,-112 554.38,-144"/>
<text xml:space="preserve" text-anchor="start" x="467.62" y="-130.5" font-family="Helvetica,sans-Serif" font-size="10.00">boost/serialization</text>
<text xml:space="preserve" text-anchor="middle" x="507" y="-118.5" font-family="Helvetica,sans-Serif" font-size="10.00">/optional.hpp</text>
</a>
</g>
</g>
<!-- Node5&#45;&gt;Node14 -->
<g id="edge14_Node000005_Node000014" class="edge">
<title>Node5&#45;&gt;Node14</title>
<g id="a_edge14_Node000005_Node000014"><a xlink:title=" ">
<path fill="none" stroke="#63b8ff" d="M706.48,-179.58C672.1,-171.14 620.1,-158.29 565.52,-144.37"/>
<polygon fill="#63b8ff" stroke="#63b8ff" points="566.59,-141.03 556.04,-141.95 564.86,-147.81 566.59,-141.03"/>
</a>
</g>
</g>
<!-- Node15 -->
<g id="Node000015" class="node">
<title>Node15</title>
<g id="a_Node000015"><a xlink:title=" ">
<polygon fill="#e0e0e0" stroke="#999999" points="677.25,-144 572.75,-144 572.75,-112 677.25,-112 677.25,-144"/>
<text xml:space="preserve" text-anchor="start" x="580.75" y="-130.5" font-family="Helvetica,sans-Serif" font-size="10.00">boost/serialization</text>
<text xml:space="preserve" text-anchor="middle" x="625" y="-118.5" font-family="Helvetica,sans-Serif" font-size="10.00">/unordered_map.hpp</text>
</a>
</g>
</g>
<!-- Node5&#45;&gt;Node15 -->
<g id="edge15_Node000005_Node000015" class="edge">
<title>Node5&#45;&gt;Node15</title>
<g id="a_edge15_Node000005_Node000015"><a xlink:title=" ">
<path fill="none" stroke="#63b8ff" d="M726.25,-179.62C710.12,-171.56 686.29,-159.64 665.79,-149.4"/>
<polygon fill="#63b8ff" stroke="#63b8ff" points="667.61,-146.39 657.1,-145.05 664.48,-152.65 667.61,-146.39"/>
</a>
</g>
</g>
<!-- Node16 -->
<g id="Node000016" class="node">
<title>Node16</title>
<g id="a_Node000016"><a xlink:title=" ">
<polygon fill="#e0e0e0" stroke="#999999" points="794.62,-144 695.38,-144 695.38,-112 794.62,-112 794.62,-144"/>
<text xml:space="preserve" text-anchor="start" x="703.38" y="-130.5" font-family="Helvetica,sans-Serif" font-size="10.00">boost/serialization</text>
<text xml:space="preserve" text-anchor="middle" x="745" y="-118.5" font-family="Helvetica,sans-Serif" font-size="10.00">/unordered_set.hpp</text>
</a>
</g>
</g>
<!-- Node5&#45;&gt;Node16 -->
<g id="edge16_Node000005_Node000016" class="edge">
<title>Node5&#45;&gt;Node16</title>
<g id="a_edge16_Node000005_Node000016"><a xlink:title=" ">
<path fill="none" stroke="#63b8ff" d="M745,-179.62C745,-173.1 745,-164.05 745,-155.4"/>
<polygon fill="#63b8ff" stroke="#63b8ff" points="748.5,-155.65 745,-145.65 741.5,-155.65 748.5,-155.65"/>
</a>
</g>
</g>
<!-- Node17 -->
<g id="Node000017" class="node">
<title>Node17</title>
<g id="a_Node000017"><a xlink:title=" ">
<polygon fill="#e0e0e0" stroke="#999999" points="907.38,-144 812.62,-144 812.62,-112 907.38,-112 907.38,-144"/>
<text xml:space="preserve" text-anchor="start" x="820.62" y="-130.5" font-family="Helvetica,sans-Serif" font-size="10.00">boost/serialization</text>
<text xml:space="preserve" text-anchor="middle" x="860" y="-118.5" font-family="Helvetica,sans-Serif" font-size="10.00">/vector.hpp</text>
</a>
</g>
</g>
<!-- Node5&#45;&gt;Node17 -->
<g id="edge17_Node000005_Node000017" class="edge">
<title>Node5&#45;&gt;Node17</title>
<g id="a_edge17_Node000005_Node000017"><a xlink:title=" ">
<path fill="none" stroke="#63b8ff" d="M762.97,-179.62C778.28,-171.63 800.85,-159.86 820.37,-149.68"/>
<polygon fill="#63b8ff" stroke="#63b8ff" points="821.95,-152.8 829.19,-145.07 818.71,-146.6 821.95,-152.8"/>
</a>
</g>
</g>
<!-- Node18 -->
<g id="Node000018" class="node">
<title>Node18</title>
<g id="a_Node000018"><a xlink:title=" ">
<polygon fill="#e0e0e0" stroke="#999999" points="263.88,-138 220.12,-138 220.12,-118 263.88,-118 263.88,-138"/>
<text xml:space="preserve" text-anchor="middle" x="242" y="-124.5" font-family="Helvetica,sans-Serif" font-size="10.00">format</text>
</a>
</g>
</g>
<!-- Node5&#45;&gt;Node18 -->
<g id="edge18_Node000005_Node000018" class="edge">
<title>Node5&#45;&gt;Node18</title>
<g id="a_edge18_Node000005_Node000018"><a xlink:title=" ">
<path fill="none" stroke="#63b8ff" d="M702.18,-186.94C601.52,-181.78 352.28,-167.02 272,-144 270.82,-143.66 269.64,-143.28 268.46,-142.86"/>
<polygon fill="#63b8ff" stroke="#63b8ff" points="270.02,-139.73 259.45,-138.99 267.25,-146.16 270.02,-139.73"/>
</a>
</g>
</g>
<!-- Node19 -->
<g id="Node000019" class="node">
<title>Node19</title>
<g id="a_Node000019"><a xlink:title=" ">
<polygon fill="#e0e0e0" stroke="#999999" points="318.5,-138 281.5,-138 281.5,-118 318.5,-118 318.5,-138"/>
<text xml:space="preserve" text-anchor="middle" x="300" y="-124.5" font-family="Helvetica,sans-Serif" font-size="10.00">tuple</text>
</a>
</g>
</g>
<!-- Node5&#45;&gt;Node19 -->
<g id="edge19_Node000005_Node000019" class="edge">
<title>Node5&#45;&gt;Node19</title>
<g id="a_edge19_Node000005_Node000019"><a xlink:title=" ">
<path fill="none" stroke="#63b8ff" d="M702.03,-189.93C624.97,-190.4 459.01,-185.88 327,-144 326.19,-143.74 325.39,-143.46 324.58,-143.16"/>
<polygon fill="#63b8ff" stroke="#63b8ff" points="326.28,-140.09 315.74,-139.01 323.31,-146.43 326.28,-140.09"/>
</a>
</g>
</g>
<!-- Node6&#45;&gt;Node7 -->
<g id="edge6_Node000006_Node000007" class="edge">
<title>Node6&#45;&gt;Node7</title>
<g id="a_edge6_Node000006_Node000007"><a xlink:title=" ">
<path fill="none" stroke="#63b8ff" d="M1022.31,-117.62C1055.25,-107.44 1108.06,-91.11 1144.75,-79.76"/>
<polygon fill="#63b8ff" stroke="#63b8ff" points="1145.62,-83.15 1154.13,-76.86 1143.55,-76.47 1145.62,-83.15"/>
</a>
</g>
</g>
<!-- Node6&#45;&gt;Node8 -->
<g id="edge7_Node000006_Node000008" class="edge">
<title>Node6&#45;&gt;Node8</title>
<g id="a_edge7_Node000006_Node000008"><a xlink:title=" ">
<path fill="none" stroke="#63b8ff" d="M992,-117.62C992,-109.56 992,-97.65 992,-87.41"/>
<polygon fill="#63b8ff" stroke="#63b8ff" points="995.5,-87.63 992,-77.63 988.5,-87.63 995.5,-87.63"/>
</a>
</g>
</g>
<!-- Node9&#45;&gt;Node10 -->
<g id="edge9_Node000009_Node000010" class="edge">
<title>Node9&#45;&gt;Node10</title>
<g id="a_edge9_Node000009_Node000010"><a xlink:title=" ">
<path fill="none" stroke="#63b8ff" d="M102.97,-117.62C91.22,-108.47 73.08,-94.34 58.96,-83.33"/>
<polygon fill="#63b8ff" stroke="#63b8ff" points="61.18,-80.63 51.14,-77.24 56.88,-86.15 61.18,-80.63"/>
</a>
</g>
</g>
<!-- Node11 -->
<g id="Node000011" class="node">
<title>Node11</title>
<g id="a_Node000011"><a xlink:title=" ">
<polygon fill="#e0e0e0" stroke="#999999" points="1341.75,-20 1276.25,-20 1276.25,0 1341.75,0 1341.75,-20"/>
<text xml:space="preserve" text-anchor="middle" x="1309" y="-6.5" font-family="Helvetica,sans-Serif" font-size="10.00">string_view</text>
</a>
</g>
</g>
<!-- Node9&#45;&gt;Node11 -->
<g id="edge10_Node000009_Node000011" class="edge">
<title>Node9&#45;&gt;Node11</title>
<g id="a_edge10_Node000009_Node000011"><a xlink:title=" ">
<path fill="none" stroke="#63b8ff" d="M150.8,-117.53C159.64,-115.45 169.12,-113.45 178,-112 597.56,-43.69 1112.75,-18.8 1264.8,-12.65"/>
<polygon fill="#63b8ff" stroke="#63b8ff" points="1264.57,-16.16 1274.42,-12.26 1264.29,-9.16 1264.57,-16.16"/>
</a>
</g>
</g>
<!-- Node20&#45;&gt;Node6 -->
<g id="edge21_Node000020_Node000006" class="edge">
<title>Node20&#45;&gt;Node6</title>
<g id="a_edge21_Node000020_Node000006"><a xlink:title=" ">
<path fill="none" stroke="#63b8ff" d="M1050.22,-179.62C1039.73,-170.5 1023.56,-156.45 1010.93,-145.46"/>
<polygon fill="#63b8ff" stroke="#63b8ff" points="1013.46,-143.03 1003.62,-139.11 1008.87,-148.31 1013.46,-143.03"/>
</a>
</g>
</g>
<!-- Node22 -->
<g id="Node000022" class="node">
<title>Node22</title>
<g id="a_Node000022"><a xlink:href="pfr__assign_8hpp.html" target="_top" xlink:title=" ">
<polygon fill="white" stroke="#666666" points="1598.25,-138 1475.75,-138 1475.75,-118 1598.25,-118 1598.25,-138"/>
<text xml:space="preserve" text-anchor="middle" x="1537" y="-124.5" font-family="Helvetica,sans-Serif" font-size="10.00">reflection/pfr_assign.hpp</text>
</a>
</g>
</g>
<!-- Node21&#45;&gt;Node22 -->
<g id="edge23_Node000021_Node000022" class="edge">
<title>Node21&#45;&gt;Node22</title>
<g id="a_edge23_Node000021_Node000022"><a xlink:title=" ">
<path fill="none" stroke="#63b8ff" d="M1412.97,-179.62C1437.35,-169.67 1476.11,-153.85 1503.81,-142.55"/>
<polygon fill="#63b8ff" stroke="#63b8ff" points="1504.86,-145.9 1512.79,-138.88 1502.21,-139.42 1504.86,-145.9"/>
</a>
</g>
</g>
<!-- Node26 -->
<g id="Node000026" class="node">
<title>Node26</title>
<g id="a_Node000026"><a xlink:href="reflection_2reflection_8hpp.html" target="_top" xlink:title=" ">
<polygon fill="white" stroke="#666666" points="1419.62,-138 1302.38,-138 1302.38,-118 1419.62,-118 1419.62,-138"/>
<text xml:space="preserve" text-anchor="middle" x="1361" y="-124.5" font-family="Helvetica,sans-Serif" font-size="10.00">reflection/reflection.hpp</text>
</a>
</g>
</g>
<!-- Node21&#45;&gt;Node26 -->
<g id="edge29_Node000021_Node000026" class="edge">
<title>Node21&#45;&gt;Node26</title>
<g id="a_edge29_Node000021_Node000026"><a xlink:title=" ">
<path fill="none" stroke="#63b8ff" d="M1385.47,-179.62C1381.44,-171.3 1375.43,-158.86 1370.38,-148.4"/>
<polygon fill="#63b8ff" stroke="#63b8ff" points="1373.57,-146.96 1366.06,-139.48 1367.26,-150 1373.57,-146.96"/>
</a>
</g>
</g>
<!-- Node22&#45;&gt;Node7 -->
<g id="edge24_Node000022_Node000007" class="edge">
<title>Node22&#45;&gt;Node7</title>
<g id="a_edge24_Node000022_Node000007"><a xlink:title=" ">
<path fill="none" stroke="#63b8ff" d="M1481.77,-117.56C1417.26,-106.53 1310.96,-88.36 1244.91,-77.07"/>
<polygon fill="#63b8ff" stroke="#63b8ff" points="1245.8,-73.67 1235.36,-75.44 1244.62,-80.57 1245.8,-73.67"/>
</a>
</g>
</g>
<!-- Node22&#45;&gt;Node11 -->
<g id="edge28_Node000022_Node000011" class="edge">
<title>Node22&#45;&gt;Node11</title>
<g id="a_edge28_Node000022_Node000011"><a xlink:title=" ">
<path fill="none" stroke="#63b8ff" d="M1537.37,-117.65C1537.43,-102.43 1535.19,-72.36 1518,-56 1494.77,-33.89 1407.66,-21.12 1353.5,-15.16"/>
<polygon fill="#63b8ff" stroke="#63b8ff" points="1353.97,-11.69 1343.65,-14.12 1353.23,-18.65 1353.97,-11.69"/>
</a>
</g>
</g>
<!-- Node22&#45;&gt;Node23 -->
<g id="edge25_Node000022_Node000023" class="edge">
<title>Node22&#45;&gt;Node23</title>
<g id="a_edge25_Node000022_Node000023"><a xlink:title=" ">
<path fill="none" stroke="#63b8ff" d="M1522.94,-117.62C1508.8,-108.2 1486.78,-93.52 1470.08,-82.39"/>
<polygon fill="#63b8ff" stroke="#63b8ff" points="1472.49,-79.78 1462.22,-77.15 1468.6,-85.61 1472.49,-79.78"/>
</a>
</g>
</g>
<!-- Node24 -->
<g id="Node000024" class="node">
<title>Node24</title>
<g id="a_Node000024"><a xlink:title=" ">
<polygon fill="#e0e0e0" stroke="#999999" points="1613.12,-76 1564.88,-76 1564.88,-56 1613.12,-56 1613.12,-76"/>
<text xml:space="preserve" text-anchor="middle" x="1589" y="-62.5" font-family="Helvetica,sans-Serif" font-size="10.00">cassert</text>
</a>
</g>
</g>
<!-- Node22&#45;&gt;Node24 -->
<g id="edge26_Node000022_Node000024" class="edge">
<title>Node22&#45;&gt;Node24</title>
<g id="a_edge26_Node000022_Node000024"><a xlink:title=" ">
<path fill="none" stroke="#63b8ff" d="M1545.12,-117.62C1552.72,-108.86 1564.27,-95.53 1573.62,-84.75"/>
<polygon fill="#63b8ff" stroke="#63b8ff" points="1576.21,-87.11 1580.11,-77.26 1570.92,-82.52 1576.21,-87.11"/>
</a>
</g>
</g>
<!-- Node25 -->
<g id="Node000025" class="node">
<title>Node25</title>
<g id="a_Node000025"><a xlink:title=" ">
<polygon fill="#e0e0e0" stroke="#999999" points="1536.12,-20 1487.88,-20 1487.88,0 1536.12,0 1536.12,-20"/>
<text xml:space="preserve" text-anchor="middle" x="1512" y="-6.5" font-family="Helvetica,sans-Serif" font-size="10.00">cstddef</text>
</a>
</g>
</g>
<!-- Node22&#45;&gt;Node25 -->
<g id="edge27_Node000022_Node000025" class="edge">
<title>Node22&#45;&gt;Node25</title>
<g id="a_edge27_Node000022_Node000025"><a xlink:title=" ">
<path fill="none" stroke="#63b8ff" d="M1565.5,-117.53C1596.76,-105.54 1640.22,-83.14 1622,-56 1605.54,-31.49 1573.12,-20.32 1547.72,-15.23"/>
<polygon fill="#63b8ff" stroke="#63b8ff" points="1548.57,-11.83 1538.11,-13.56 1547.36,-18.73 1548.57,-11.83"/>
</a>
</g>
</g>
<!-- Node26&#45;&gt;Node7 -->
<g id="edge33_Node000026_Node000007" class="edge">
<title>Node26&#45;&gt;Node7</title>
<g id="a_edge33_Node000026_Node000007"><a xlink:title=" ">
<path fill="none" stroke="#63b8ff" d="M1333.66,-117.62C1304.21,-107.53 1257.13,-91.39 1224.07,-80.05"/>
<polygon fill="#63b8ff" stroke="#63b8ff" points="1225.47,-76.83 1214.87,-76.9 1223.2,-83.45 1225.47,-76.83"/>
</a>
</g>
</g>
<!-- Node26&#45;&gt;Node23 -->
<g id="edge34_Node000026_Node000023" class="edge">
<title>Node26&#45;&gt;Node23</title>
<g id="a_edge34_Node000026_Node000023"><a xlink:title=" ">
<path fill="none" stroke="#63b8ff" d="M1374.44,-117.62C1387.82,-108.29 1408.6,-93.79 1424.5,-82.7"/>
<polygon fill="#63b8ff" stroke="#63b8ff" points="1426.22,-85.77 1432.42,-77.18 1422.21,-80.03 1426.22,-85.77"/>
</a>
</g>
</g>
<!-- Node27 -->
<g id="Node000027" class="node">
<title>Node27</title>
<g id="a_Node000027"><a xlink:href="constexpr__string_8hpp.html" target="_top" xlink:title=" ">
<polygon fill="white" stroke="#666666" points="1366.88,-76 1251.12,-76 1251.12,-56 1366.88,-56 1366.88,-76"/>
<text xml:space="preserve" text-anchor="middle" x="1309" y="-62.5" font-family="Helvetica,sans-Serif" font-size="10.00">../constexpr_string.hpp</text>
</a>
</g>
</g>
<!-- Node26&#45;&gt;Node27 -->
<g id="edge30_Node000026_Node000027" class="edge">
<title>Node26&#45;&gt;Node27</title>
<g id="a_edge30_Node000026_Node000027"><a xlink:title=" ">
<path fill="none" stroke="#63b8ff" d="M1352.88,-117.62C1345.28,-108.86 1333.73,-95.53 1324.38,-84.75"/>
<polygon fill="#63b8ff" stroke="#63b8ff" points="1327.08,-82.52 1317.89,-77.26 1321.79,-87.11 1327.08,-82.52"/>
</a>
</g>
</g>
<!-- Node27&#45;&gt;Node11 -->
<g id="edge32_Node000027_Node000011" class="edge">
<title>Node27&#45;&gt;Node11</title>
<g id="a_edge32_Node000027_Node000011"><a xlink:title=" ">
<path fill="none" stroke="#63b8ff" d="M1309,-55.59C1309,-49.01 1309,-39.96 1309,-31.73"/>
<polygon fill="#63b8ff" stroke="#63b8ff" points="1312.5,-31.81 1309,-21.81 1305.5,-31.81 1312.5,-31.81"/>
</a>
</g>
</g>
<!-- Node27&#45;&gt;Node25 -->
<g id="edge31_Node000027_Node000025" class="edge">
<title>Node27&#45;&gt;Node25</title>
<g id="a_edge31_Node000027_Node000025"><a xlink:title=" ">
<path fill="none" stroke="#63b8ff" d="M1344.36,-55.59C1381.52,-45.71 1439.64,-30.25 1476.76,-20.37"/>
<polygon fill="#63b8ff" stroke="#63b8ff" points="1477.33,-23.84 1486.09,-17.89 1475.53,-17.08 1477.33,-23.84"/>
</a>
</g>
</g>
<!-- Node35&#45;&gt;Node3 -->
<g id="edge48_Node000035_Node000003" class="edge">
<title>Node35&#45;&gt;Node3</title>
<g id="a_edge48_Node000035_Node000003"><a xlink:title=" ">
<path fill="none" stroke="#63b8ff" d="M1426.33,-377.54C1441.19,-368.38 1464.25,-354.15 1483.52,-342.27"/>
<polygon fill="#63b8ff" stroke="#63b8ff" points="1485.23,-345.32 1491.91,-337.1 1481.56,-339.37 1485.23,-345.32"/>
</a>
</g>
</g>
<!-- Node36&#45;&gt;Node3 -->
<g id="edge50_Node000036_Node000003" class="edge">
<title>Node36&#45;&gt;Node3</title>
<g id="a_edge50_Node000036_Node000003"><a xlink:title=" ">
<path fill="none" stroke="#63b8ff" d="M1518,-377.54C1518,-369.72 1518,-358.22 1518,-347.63"/>
<polygon fill="#63b8ff" stroke="#63b8ff" points="1521.5,-347.81 1518,-337.81 1514.5,-347.81 1521.5,-347.81"/>
</a>
</g>
</g>
<!-- Node37&#45;&gt;Node4 -->
<g id="edge52_Node000037_Node000004" class="edge">
<title>Node37&#45;&gt;Node4</title>
<g id="a_edge52_Node000037_Node000004"><a xlink:title=" ">
<path fill="none" stroke="#63b8ff" d="M388.17,-314.87C542.97,-303.07 986.19,-269.3 1143.65,-257.29"/>
<polygon fill="#63b8ff" stroke="#63b8ff" points="1143.71,-260.8 1153.42,-256.55 1143.18,-253.82 1143.71,-260.8"/>
</a>
</g>
</g>
<!-- Node37&#45;&gt;Node9 -->
<g id="edge53_Node000037_Node000009" class="edge">
<title>Node37&#45;&gt;Node9</title>
<g id="a_edge53_Node000037_Node000009"><a xlink:title=" ">
<path fill="none" stroke="#63b8ff" d="M280.11,-312.51C247.23,-306.07 206.22,-293.29 178,-268 142.26,-235.98 125.56,-179.69 118.84,-149.5"/>
<polygon fill="#63b8ff" stroke="#63b8ff" points="122.29,-148.88 116.85,-139.79 115.43,-150.29 122.29,-148.88"/>
</a>
</g>
</g>
<!-- Node37&#45;&gt;Node10 -->
<g id="edge54_Node000037_Node000010" class="edge">
<title>Node37&#45;&gt;Node10</title>
<g id="a_edge54_Node000037_Node000010"><a xlink:title=" ">
<path fill="none" stroke="#63b8ff" d="M279.92,-313.76C240.49,-307.78 187.31,-295.05 148,-268 91.68,-229.25 85.96,-205.92 57,-144 48.53,-125.89 43.56,-103.56 40.84,-87.61"/>
<polygon fill="#63b8ff" stroke="#63b8ff" points="44.32,-87.25 39.35,-77.9 37.4,-88.31 44.32,-87.25"/>
</a>
</g>
</g>
<!-- Node38&#45;&gt;Node4 -->
<g id="edge56_Node000038_Node000004" class="edge">
<title>Node38&#45;&gt;Node4</title>
<g id="a_edge56_Node000038_Node000004"><a xlink:title=" ">
<path fill="none" stroke="#63b8ff" d="M1040,-303.53C1076.21,-292.09 1124.93,-276.71 1159.07,-265.93"/>
<polygon fill="#63b8ff" stroke="#63b8ff" points="1160.12,-269.26 1168.6,-262.92 1158.01,-262.59 1160.12,-269.26"/>
</a>
</g>
</g>
<!-- Node38&#45;&gt;Node8 -->
<g id="edge57_Node000038_Node000008" class="edge">
<title>Node38&#45;&gt;Node8</title>
<g id="a_edge57_Node000038_Node000008"><a xlink:title=" ">
<path fill="none" stroke="#63b8ff" d="M921.13,-312.37C711.58,-291.16 108.99,-220.05 211,-112 237.16,-84.29 817.85,-70.58 960.54,-67.62"/>
<polygon fill="#63b8ff" stroke="#63b8ff" points="960.44,-71.12 970.37,-67.42 960.3,-64.12 960.44,-71.12"/>
</a>
</g>
</g>
<!-- Node40 -->
<g id="Node000040" class="node">
<title>Node40</title>
<g id="a_Node000040"><a xlink:title=" ">
<polygon fill="#e0e0e0" stroke="#999999" points="1724.75,-330 1599.25,-330 1599.25,-310 1724.75,-310 1724.75,-330"/>
<text xml:space="preserve" text-anchor="middle" x="1662" y="-316.5" font-family="Helvetica,sans-Serif" font-size="10.00">boost/describe/enum.hpp</text>
</a>
</g>
</g>
<!-- Node39&#45;&gt;Node40 -->
<g id="edge59_Node000039_Node000040" class="edge">
<title>Node39&#45;&gt;Node40</title>
<g id="a_edge59_Node000039_Node000040"><a xlink:title=" ">
<path fill="none" stroke="#63b8ff" d="M1651.25,-371.69C1653.16,-362.7 1655.59,-351.21 1657.66,-341.44"/>
<polygon fill="#63b8ff" stroke="#63b8ff" points="1661.06,-342.31 1659.71,-331.8 1654.21,-340.85 1661.06,-342.31"/>
</a>
</g>
</g>
<!-- Node41&#45;&gt;Node3 -->
<g id="edge62_Node000041_Node000003" class="edge">
<title>Node41&#45;&gt;Node3</title>
<g id="a_edge62_Node000041_Node000003"><a xlink:title=" ">
<path fill="none" stroke="#63b8ff" d="M1185.48,-377.58C1195.57,-375.7 1206.12,-373.76 1216,-372 1293.62,-358.17 1382.63,-343.25 1443.81,-333.15"/>
<polygon fill="#63b8ff" stroke="#63b8ff" points="1444.11,-336.64 1453.4,-331.56 1442.97,-329.74 1444.11,-336.64"/>
</a>
</g>
</g>
<!-- Node41&#45;&gt;Node4 -->
<g id="edge64_Node000041_Node000004" class="edge">
<title>Node41&#45;&gt;Node4</title>
<g id="a_edge64_Node000041_Node000004"><a xlink:title=" ">
<path fill="none" stroke="#63b8ff" d="M1140.4,-377.79C1150.72,-356.18 1176.68,-301.83 1190.69,-272.5"/>
<polygon fill="#63b8ff" stroke="#63b8ff" points="1193.77,-274.17 1194.92,-263.64 1187.45,-271.16 1193.77,-274.17"/>
</a>
</g>
</g>
<!-- Node41&#45;&gt;Node5 -->
<g id="edge63_Node000041_Node000005" class="edge">
<title>Node41&#45;&gt;Node5</title>
<g id="a_edge63_Node000041_Node000005"><a xlink:title=" ">
<path fill="none" stroke="#63b8ff" d="M1130.94,-377.6C1121.31,-360.53 1098.68,-324.34 1070,-304 985.76,-244.26 867.09,-213.68 798.9,-200.11"/>
<polygon fill="#63b8ff" stroke="#63b8ff" points="799.96,-196.75 789.48,-198.29 798.63,-203.62 799.96,-196.75"/>
</a>
</g>
</g>
<!-- Node41&#45;&gt;Node20 -->
<g id="edge61_Node000041_Node000020" class="edge">
<title>Node41&#45;&gt;Node20</title>
<g id="a_edge61_Node000041_Node000020"><a xlink:title=" ">
<path fill="none" stroke="#63b8ff" d="M1135.65,-377.57C1134.4,-352.9 1128.68,-284.95 1103,-236 1097.53,-225.57 1088.99,-215.79 1081.04,-208.02"/>
<polygon fill="#63b8ff" stroke="#63b8ff" points="1083.65,-205.67 1073.92,-201.48 1078.91,-210.83 1083.65,-205.67"/>
</a>
</g>
</g>
</g>
</svg>
