<?xml version="1.0" encoding="UTF-8" standalone="no"?>
<!DOCTYPE svg PUBLIC "-//W3C//DTD SVG 1.1//EN"
 "http://www.w3.org/Graphics/SVG/1.1/DTD/svg11.dtd">
<!-- Generated by graphviz version 14.1.2 (20260124.0452)
 -->
<!-- Title: depicture_menu/src/utility/reflection.hpp Pages: 1 -->
<svg width="520pt" height="208pt"
 viewBox="0.00 0.00 520.00 208.00" xmlns="http://www.w3.org/2000/svg" xmlns:xlink="http://www.w3.org/1999/xlink">
<g id="graph0" class="graph" transform="scale(1 1) rotate(0) translate(4 204)">
<title>depicture_menu/src/utility/reflection.hpp</title>
<!-- Node1 -->
<g id="Node000001" class="node">
<title>Node1</title>
<g id="a_Node000001"><a xlink:title=" ">
<polygon fill="#999999" stroke="#666666" points="340.75,-200 237,-200 237,-168 340.75,-168 340.75,-200"/>
<text xml:space="preserve" text-anchor="start" x="245" y="-186.5" font-family="Helvetica,sans-Serif" font-size="10.00">depicture_menu/src</text>
<text xml:space="preserve" text-anchor="middle" x="288.88" y="-174.5" font-family="Helvetica,sans-Serif" font-size="10.00">/utility/reflection.hpp</text>
</a>
</g>
</g>
<!-- Node2 -->
<g id="Node000002" class="node">
<title>Node2</title>
<g id="a_Node000002"><a xlink:href="pfr__assign_8hpp.html" target="_top" xlink:title=" ">
<polygon fill="white" stroke="#666666" points="439.12,-132 316.62,-132 316.62,-112 439.12,-112 439.12,-132"/>
<text xml:space="preserve" text-anchor="middle" x="377.88" y="-118.5" font-family="Helvetica,sans-Serif" font-size="10.00">reflection/pfr_assign.hpp</text>
</a>
</g>
</g>
<!-- Node1&#45;&gt;Node2 -->
<g id="edge1_Node000001_Node000002" class="edge">
<title>Node1&#45;&gt;Node2</title>
<g id="a_edge1_Node000001_Node000002"><a xlink:title=" ">
<path fill="none" stroke="#63b8ff" d="M311.79,-167.55C324.93,-158.69 341.37,-147.61 354.57,-138.71"/>
<polygon fill="#63b8ff" stroke="#63b8ff" points="356.33,-141.75 362.66,-133.25 352.42,-135.94 356.33,-141.75"/>
</a>
</g>
</g>
<!-- Node8 -->
<g id="Node000008" class="node">
<title>Node8</title>
<g id="a_Node000008"><a xlink:href="reflection_2reflection_8hpp.html" target="_top" xlink:title=" ">
<polygon fill="white" stroke="#666666" points="278.5,-132 161.25,-132 161.25,-112 278.5,-112 278.5,-132"/>
<text xml:space="preserve" text-anchor="middle" x="219.88" y="-118.5" font-family="Helvetica,sans-Serif" font-size="10.00">reflection/reflection.hpp</text>
</a>
</g>
</g>
<!-- Node1&#45;&gt;Node8 -->
<g id="edge7_Node000001_Node000008" class="edge">
<title>Node1&#45;&gt;Node8</title>
<g id="a_edge7_Node000001_Node000008"><a xlink:title=" ">
<path fill="none" stroke="#63b8ff" d="M271.11,-167.55C261.32,-159.04 249.17,-148.48 239.16,-139.77"/>
<polygon fill="#63b8ff" stroke="#63b8ff" points="241.68,-137.32 231.84,-133.4 237.09,-142.6 241.68,-137.32"/>
</a>
</g>
</g>
<!-- Node3 -->
<g id="Node000003" class="node">
<title>Node3</title>
<g id="a_Node000003"><a xlink:title=" ">
<polygon fill="#e0e0e0" stroke="#999999" points="228.25,-76 133.5,-76 133.5,-56 228.25,-56 228.25,-76"/>
<text xml:space="preserve" text-anchor="middle" x="180.88" y="-62.5" font-family="Helvetica,sans-Serif" font-size="10.00">boost/pfr/core.hpp</text>
</a>
</g>
</g>
<!-- Node2&#45;&gt;Node3 -->
<g id="edge2_Node000002_Node000003" class="edge">
<title>Node2&#45;&gt;Node3</title>
<g id="a_edge2_Node000002_Node000003"><a xlink:title=" ">
<path fill="none" stroke="#63b8ff" d="M343.56,-111.59C311.13,-102.71 262.26,-89.31 226.55,-79.52"/>
<polygon fill="#63b8ff" stroke="#63b8ff" points="227.49,-76.15 216.92,-76.88 225.64,-82.9 227.49,-76.15"/>
</a>
</g>
</g>
<!-- Node4 -->
<g id="Node000004" class="node">
<title>Node4</title>
<g id="a_Node000004"><a xlink:title=" ">
<polygon fill="#e0e0e0" stroke="#999999" points="369.88,-76 245.88,-76 245.88,-56 369.88,-56 369.88,-76"/>
<text xml:space="preserve" text-anchor="middle" x="307.88" y="-62.5" font-family="Helvetica,sans-Serif" font-size="10.00">boost/pfr/core_name.hpp</text>
</a>
</g>
</g>
<!-- Node2&#45;&gt;Node4 -->
<g id="edge3_Node000002_Node000004" class="edge">
<title>Node2&#45;&gt;Node4</title>
<g id="a_edge3_Node000002_Node000004"><a xlink:title=" ">
<path fill="none" stroke="#63b8ff" d="M365.68,-111.59C355.54,-103.77 340.88,-92.46 328.86,-83.19"/>
<polygon fill="#63b8ff" stroke="#63b8ff" points="331.18,-80.56 321.13,-77.22 326.91,-86.1 331.18,-80.56"/>
</a>
</g>
</g>
<!-- Node5 -->
<g id="Node000005" class="node">
<title>Node5</title>
<g id="a_Node000005"><a xlink:title=" ">
<polygon fill="#e0e0e0" stroke="#999999" points="512,-76 463.75,-76 463.75,-56 512,-56 512,-76"/>
<text xml:space="preserve" text-anchor="middle" x="487.88" y="-62.5" font-family="Helvetica,sans-Serif" font-size="10.00">cassert</text>
</a>
</g>
</g>
<!-- Node2&#45;&gt;Node5 -->
<g id="edge4_Node000002_Node000005" class="edge">
<title>Node2&#45;&gt;Node5</title>
<g id="a_edge4_Node000002_Node000005"><a xlink:title=" ">
<path fill="none" stroke="#63b8ff" d="M397.04,-111.59C413.97,-103.28 438.92,-91.03 458.4,-81.47"/>
<polygon fill="#63b8ff" stroke="#63b8ff" points="459.77,-84.7 467.21,-77.15 456.69,-78.41 459.77,-84.7"/>
</a>
</g>
</g>
<!-- Node6 -->
<g id="Node000006" class="node">
<title>Node6</title>
<g id="a_Node000006"><a xlink:title=" ">
<polygon fill="#e0e0e0" stroke="#999999" points="233,-20 184.75,-20 184.75,0 233,0 233,-20"/>
<text xml:space="preserve" text-anchor="middle" x="208.88" y="-6.5" font-family="Helvetica,sans-Serif" font-size="10.00">cstddef</text>
</a>
</g>
</g>
<!-- Node2&#45;&gt;Node6 -->
<g id="edge5_Node000002_Node000006" class="edge">
<title>Node2&#45;&gt;Node6</title>
<g id="a_edge5_Node000002_Node000006"><a xlink:title=" ">
<path fill="none" stroke="#63b8ff" d="M381.22,-111.93C385.61,-98.26 391.4,-72.28 378.88,-56 362.63,-34.9 289.61,-21.66 244.72,-15.37"/>
<polygon fill="#63b8ff" stroke="#63b8ff" points="245.3,-11.92 234.92,-14.05 244.36,-18.85 245.3,-11.92"/>
</a>
</g>
</g>
<!-- Node7 -->
<g id="Node000007" class="node">
<title>Node7</title>
<g id="a_Node000007"><a xlink:title=" ">
<polygon fill="#e0e0e0" stroke="#999999" points="392.62,-20 327.12,-20 327.12,0 392.62,0 392.62,-20"/>
<text xml:space="preserve" text-anchor="middle" x="359.88" y="-6.5" font-family="Helvetica,sans-Serif" font-size="10.00">string_view</text>
</a>
</g>
</g>
<!-- Node2&#45;&gt;Node7 -->
<g id="edge6_Node000002_Node000007" class="edge">
<title>Node2&#45;&gt;Node7</title>
<g id="a_edge6_Node000002_Node000007"><a xlink:title=" ">
<path fill="none" stroke="#63b8ff" d="M388.49,-111.9C401.63,-99.46 421.19,-76.39 411.88,-56 406.5,-44.23 396.35,-34.36 386.44,-26.9"/>
<polygon fill="#63b8ff" stroke="#63b8ff" points="388.64,-24.16 378.42,-21.35 384.66,-29.91 388.64,-24.16"/>
</a>
</g>
</g>
<!-- Node8&#45;&gt;Node3 -->
<g id="edge11_Node000008_Node000003" class="edge">
<title>Node8&#45;&gt;Node3</title>
<g id="a_edge11_Node000008_Node000003"><a xlink:title=" ">
<path fill="none" stroke="#63b8ff" d="M213.08,-111.59C207.88,-104.39 200.54,-94.23 194.19,-85.43"/>
<polygon fill="#63b8ff" stroke="#63b8ff" points="197.17,-83.58 188.48,-77.53 191.49,-87.68 197.17,-83.58"/>
</a>
</g>
</g>
<!-- Node8&#45;&gt;Node4 -->
<g id="edge12_Node000008_Node000004" class="edge">
<title>Node8&#45;&gt;Node4</title>
<g id="a_edge12_Node000008_Node000004"><a xlink:title=" ">
<path fill="none" stroke="#63b8ff" d="M235.2,-111.59C248.37,-103.51 267.61,-91.71 282.98,-82.27"/>
<polygon fill="#63b8ff" stroke="#63b8ff" points="284.44,-85.48 291.14,-77.27 280.78,-79.52 284.44,-85.48"/>
</a>
</g>
</g>
<!-- Node9 -->
<g id="Node000009" class="node">
<title>Node9</title>
<g id="a_Node000009"><a xlink:href="constexpr__string_8hpp.html" target="_top" xlink:title=" ">
<polygon fill="white" stroke="#666666" points="115.75,-76 0,-76 0,-56 115.75,-56 115.75,-76"/>
<text xml:space="preserve" text-anchor="middle" x="57.88" y="-62.5" font-family="Helvetica,sans-Serif" font-size="10.00">../constexpr_string.hpp</text>
</a>
</g>
</g>
<!-- Node8&#45;&gt;Node9 -->
<g id="edge8_Node000008_Node000009" class="edge">
<title>Node8&#45;&gt;Node9</title>
<g id="a_edge8_Node000008_Node000009"><a xlink:title=" ">
<path fill="none" stroke="#63b8ff" d="M191.66,-111.59C165.45,-102.86 126.19,-89.77 96.97,-80.03"/>
<polygon fill="#63b8ff" stroke="#63b8ff" points="98.34,-76.8 87.75,-76.96 96.13,-83.44 98.34,-76.8"/>
</a>
</g>
</g>
<!-- Node9&#45;&gt;Node6 -->
<g id="edge9_Node000009_Node000006" class="edge">
<title>Node9&#45;&gt;Node6</title>
<g id="a_edge9_Node000009_Node000006"><a xlink:title=" ">
<path fill="none" stroke="#63b8ff" d="M84.18,-55.59C108.98,-46.72 146.33,-33.37 173.69,-23.58"/>
<polygon fill="#63b8ff" stroke="#63b8ff" points="174.71,-26.93 182.95,-20.27 172.35,-20.34 174.71,-26.93"/>
</a>
</g>
</g>
<!-- Node9&#45;&gt;Node7 -->
<g id="edge10_Node000009_Node000007" class="edge">
<title>Node9&#45;&gt;Node7</title>
<g id="a_edge10_Node000009_Node000007"><a xlink:title=" ">
<path fill="none" stroke="#63b8ff" d="M110.82,-55.53C168.94,-45.14 261.2,-28.64 315.62,-18.91"/>
<polygon fill="#63b8ff" stroke="#63b8ff" points="315.91,-22.42 325.14,-17.21 314.68,-15.53 315.91,-22.42"/>
</a>
</g>
</g>
</g>
</svg>
