<?xml version="1.0" encoding="UTF-8" standalone="no"?>
<!DOCTYPE svg PUBLIC "-//W3C//DTD SVG 1.1//EN"
 "http://www.w3.org/Graphics/SVG/1.1/DTD/svg11.dtd">
<!-- Generated by graphviz version 14.1.2 (20260124.0452)
 -->
<!-- Title: depicture_menu/src/core/usecase/config_view/dto/shellexecute_command_update.hpp Pages: 1 -->
<svg width="1191pt" height="436pt"
 viewBox="0.00 0.00 1191.00 436.00" xmlns="http://www.w3.org/2000/svg" xmlns:xlink="http://www.w3.org/1999/xlink">
<g id="graph0" class="graph" transform="scale(1 1) rotate(0) translate(4 432)">
<title>depicture_menu/src/core/usecase/config_view/dto/shellexecute_command_update.hpp</title>
<!-- Node1 -->
<g id="Node000001" class="node">
<title>Node1</title>
<g id="a_Node000001"><a xlink:title="シェル実行コマンド更新 input DTO">
<polygon fill="#999999" stroke="#666666" points="278.49,-428 161.24,-428 161.24,-372 278.49,-372 278.49,-428"/>
<text xml:space="preserve" text-anchor="start" x="169.24" y="-414.5" font-family="Helvetica,sans-Serif" font-size="10.00">depicture_menu/src</text>
<text xml:space="preserve" text-anchor="start" x="169.24" y="-402.5" font-family="Helvetica,sans-Serif" font-size="10.00">/core/usecase/config</text>
<text xml:space="preserve" text-anchor="start" x="169.24" y="-390.5" font-family="Helvetica,sans-Serif" font-size="10.00">_view/dto/shellexecute</text>
<text xml:space="preserve" text-anchor="middle" x="219.87" y="-378.5" font-family="Helvetica,sans-Serif" font-size="10.00">_command_update.hpp</text>
</a>
</g>
</g>
<!-- Node2 -->
<g id="Node000002" class="node">
<title>Node2</title>
<g id="a_Node000002"><a xlink:href="command__ids_8hpp.html" target="_top" xlink:title=" ">
<polygon fill="white" stroke="#666666" points="291.99,-336 147.74,-336 147.74,-304 291.99,-304 291.99,-336"/>
<text xml:space="preserve" text-anchor="start" x="155.74" y="-322.5" font-family="Helvetica,sans-Serif" font-size="10.00">core/domain/model/command</text>
<text xml:space="preserve" text-anchor="middle" x="219.87" y="-310.5" font-family="Helvetica,sans-Serif" font-size="10.00">/command_ids.hpp</text>
</a>
</g>
</g>
<!-- Node1&#45;&gt;Node2 -->
<g id="edge1_Node000001_Node000002" class="edge">
<title>Node1&#45;&gt;Node2</title>
<g id="a_edge1_Node000001_Node000002"><a xlink:title=" ">
<path fill="none" stroke="#63b8ff" d="M219.87,-371.72C219.87,-363.88 219.87,-355.34 219.87,-347.54"/>
<polygon fill="#63b8ff" stroke="#63b8ff" points="223.37,-347.62 219.87,-337.62 216.37,-347.62 223.37,-347.62"/>
</a>
</g>
</g>
<!-- Node10 -->
<g id="Node000010" class="node">
<title>Node10</title>
<g id="a_Node000010"><a xlink:title=" ">
<polygon fill="#e0e0e0" stroke="#999999" points="433.87,-20 393.87,-20 393.87,0 433.87,0 433.87,-20"/>
<text xml:space="preserve" text-anchor="middle" x="413.87" y="-6.5" font-family="Helvetica,sans-Serif" font-size="10.00">string</text>
</a>
</g>
</g>
<!-- Node1&#45;&gt;Node10 -->
<g id="edge34_Node000001_Node000010" class="edge">
<title>Node1&#45;&gt;Node10</title>
<g id="a_edge34_Node000001_Node000010"><a xlink:title=" ">
<path fill="none" stroke="#63b8ff" d="M160.87,-387.68C96.31,-371.46 1.87,-334.79 1.87,-259 1.87,-259 1.87,-259 1.87,-133 1.87,-97.75 -5.6,-79.28 20.87,-56 47.83,-32.28 293.08,-17.28 381.92,-12.59"/>
<polygon fill="#63b8ff" stroke="#63b8ff" points="382.06,-16.08 391.87,-12.07 381.7,-9.09 382.06,-16.08"/>
</a>
</g>
</g>
<!-- Node28 -->
<g id="Node000028" class="node">
<title>Node28</title>
<g id="a_Node000028"><a xlink:title=" ">
<polygon fill="#e0e0e0" stroke="#999999" points="371.37,-330 310.37,-330 310.37,-310 371.37,-310 371.37,-330"/>
<text xml:space="preserve" text-anchor="middle" x="340.87" y="-316.5" font-family="Helvetica,sans-Serif" font-size="10.00">filesystem</text>
</a>
</g>
</g>
<!-- Node1&#45;&gt;Node28 -->
<g id="edge33_Node000001_Node000028" class="edge">
<title>Node1&#45;&gt;Node28</title>
<g id="a_edge33_Node000001_Node000028"><a xlink:title=" ">
<path fill="none" stroke="#63b8ff" d="M262.53,-371.5C280.72,-359.77 301.28,-346.52 316.77,-336.53"/>
<polygon fill="#63b8ff" stroke="#63b8ff" points="318.36,-339.67 324.87,-331.31 314.57,-333.79 318.36,-339.67"/>
</a>
</g>
</g>
<!-- Node3 -->
<g id="Node000003" class="node">
<title>Node3</title>
<g id="a_Node000003"><a xlink:href="model_2entity__id_8hpp.html" target="_top" xlink:title=" ">
<polygon fill="white" stroke="#666666" points="388.12,-268 307.62,-268 307.62,-248 388.12,-248 388.12,-268"/>
<text xml:space="preserve" text-anchor="middle" x="347.87" y="-254.5" font-family="Helvetica,sans-Serif" font-size="10.00">../entity_id.hpp</text>
</a>
</g>
</g>
<!-- Node2&#45;&gt;Node3 -->
<g id="edge2_Node000002_Node000003" class="edge">
<title>Node2&#45;&gt;Node3</title>
<g id="a_edge2_Node000002_Node000003"><a xlink:title=" ">
<path fill="none" stroke="#63b8ff" d="M252.83,-303.55C272.74,-294.22 297.93,-282.41 317.38,-273.29"/>
<polygon fill="#63b8ff" stroke="#63b8ff" points="318.86,-276.46 326.43,-269.05 315.89,-270.13 318.86,-276.46"/>
</a>
</g>
</g>
<!-- Node4 -->
<g id="Node000004" class="node">
<title>Node4</title>
<g id="a_Node000004"><a xlink:href="model_2value__object_8hpp.html" target="_top" xlink:title=" ">
<polygon fill="white" stroke="#666666" points="978.62,-206 889.12,-206 889.12,-186 978.62,-186 978.62,-206"/>
<text xml:space="preserve" text-anchor="middle" x="933.87" y="-192.5" font-family="Helvetica,sans-Serif" font-size="10.00">value_object.hpp</text>
</a>
</g>
</g>
<!-- Node3&#45;&gt;Node4 -->
<g id="edge3_Node000003_Node000004" class="edge">
<title>Node3&#45;&gt;Node4</title>
<g id="a_edge3_Node000003_Node000004"><a xlink:title=" ">
<path fill="none" stroke="#63b8ff" d="M388.3,-255.45C476.2,-251.64 691.08,-240.05 868.87,-212 874.44,-211.12 880.25,-210.03 886.01,-208.85"/>
<polygon fill="#63b8ff" stroke="#63b8ff" points="886.41,-212.34 895.44,-206.8 884.93,-205.5 886.41,-212.34"/>
</a>
</g>
</g>
<!-- Node13 -->
<g id="Node000013" class="node">
<title>Node13</title>
<g id="a_Node000013"><a xlink:title=" ">
<polygon fill="#e0e0e0" stroke="#999999" points="124.24,-88 29.49,-88 29.49,-56 124.24,-56 124.24,-88"/>
<text xml:space="preserve" text-anchor="start" x="37.49" y="-74.5" font-family="Helvetica,sans-Serif" font-size="10.00">boost/serialization</text>
<text xml:space="preserve" text-anchor="middle" x="76.87" y="-62.5" font-family="Helvetica,sans-Serif" font-size="10.00">/access.hpp</text>
</a>
</g>
</g>
<!-- Node3&#45;&gt;Node13 -->
<g id="edge27_Node000003_Node000013" class="edge">
<title>Node3&#45;&gt;Node13</title>
<g id="a_edge27_Node000003_Node000013"><a xlink:title=" ">
<path fill="none" stroke="#63b8ff" d="M307.25,-253.27C251.76,-247.41 156.13,-234.35 129.87,-212 96.21,-183.36 83.86,-130.89 79.38,-99.25"/>
<polygon fill="#63b8ff" stroke="#63b8ff" points="82.91,-99.24 78.2,-89.74 75.96,-100.1 82.91,-99.24"/>
</a>
</g>
</g>
<!-- Node22 -->
<g id="Node000022" class="node">
<title>Node22</title>
<g id="a_Node000022"><a xlink:title=" ">
<polygon fill="#e0e0e0" stroke="#999999" points="448.24,-144 347.49,-144 347.49,-124 448.24,-124 448.24,-144"/>
<text xml:space="preserve" text-anchor="middle" x="397.87" y="-130.5" font-family="Helvetica,sans-Serif" font-size="10.00">boost/uuid/uuid.hpp</text>
</a>
</g>
</g>
<!-- Node3&#45;&gt;Node22 -->
<g id="edge29_Node000003_Node000022" class="edge">
<title>Node3&#45;&gt;Node22</title>
<g id="a_edge29_Node000003_Node000022"><a xlink:title=" ">
<path fill="none" stroke="#63b8ff" d="M307.32,-255.47C235.08,-251.31 95.89,-235.99 142.87,-180 167.01,-151.23 268.26,-140.84 335.68,-137.1"/>
<polygon fill="#63b8ff" stroke="#63b8ff" points="335.71,-140.61 345.51,-136.6 335.35,-133.62 335.71,-140.61"/>
</a>
</g>
</g>
<!-- Node23 -->
<g id="Node000023" class="node">
<title>Node23</title>
<g id="a_Node000023"><a xlink:title=" ">
<polygon fill="#e0e0e0" stroke="#999999" points="279.74,-206 151.99,-206 151.99,-186 279.74,-186 279.74,-206"/>
<text xml:space="preserve" text-anchor="middle" x="215.87" y="-192.5" font-family="Helvetica,sans-Serif" font-size="10.00">boost/functional/hash.hpp</text>
</a>
</g>
</g>
<!-- Node3&#45;&gt;Node23 -->
<g id="edge26_Node000003_Node000023" class="edge">
<title>Node3&#45;&gt;Node23</title>
<g id="a_edge26_Node000003_Node000023"><a xlink:title=" ">
<path fill="none" stroke="#63b8ff" d="M327.24,-247.62C305.64,-237.81 271.47,-222.27 246.67,-211"/>
<polygon fill="#63b8ff" stroke="#63b8ff" points="248.28,-207.89 237.72,-206.94 245.38,-214.26 248.28,-207.89"/>
</a>
</g>
</g>
<!-- Node24 -->
<g id="Node000024" class="node">
<title>Node24</title>
<g id="a_Node000024"><a xlink:title=" ">
<polygon fill="#e0e0e0" stroke="#999999" points="397.49,-212 298.24,-212 298.24,-180 397.49,-180 397.49,-212"/>
<text xml:space="preserve" text-anchor="start" x="306.24" y="-198.5" font-family="Helvetica,sans-Serif" font-size="10.00">boost/serialization</text>
<text xml:space="preserve" text-anchor="middle" x="347.87" y="-186.5" font-family="Helvetica,sans-Serif" font-size="10.00">/array_wrapper.hpp</text>
</a>
</g>
</g>
<!-- Node3&#45;&gt;Node24 -->
<g id="edge28_Node000003_Node000024" class="edge">
<title>Node3&#45;&gt;Node24</title>
<g id="a_edge28_Node000003_Node000024"><a xlink:title=" ">
<path fill="none" stroke="#63b8ff" d="M347.87,-247.62C347.87,-241.1 347.87,-232.05 347.87,-223.4"/>
<polygon fill="#63b8ff" stroke="#63b8ff" points="351.37,-223.65 347.87,-213.65 344.37,-223.65 351.37,-223.65"/>
</a>
</g>
</g>
<!-- Node25 -->
<g id="Node000025" class="node">
<title>Node25</title>
<g id="a_Node000025"><a xlink:title=" ">
<polygon fill="#e0e0e0" stroke="#999999" points="567.74,-206 415.99,-206 415.99,-186 567.74,-186 567.74,-206"/>
<text xml:space="preserve" text-anchor="middle" x="491.87" y="-192.5" font-family="Helvetica,sans-Serif" font-size="10.00">boost/uuid/uuid_generators.hpp</text>
</a>
</g>
</g>
<!-- Node3&#45;&gt;Node25 -->
<g id="edge30_Node000003_Node000025" class="edge">
<title>Node3&#45;&gt;Node25</title>
<g id="a_edge30_Node000003_Node000025"><a xlink:title=" ">
<path fill="none" stroke="#63b8ff" d="M370.37,-247.62C394.14,-237.72 431.88,-221.99 458.99,-210.7"/>
<polygon fill="#63b8ff" stroke="#63b8ff" points="460.24,-213.97 468.13,-206.89 457.55,-207.51 460.24,-213.97"/>
</a>
</g>
</g>
<!-- Node26 -->
<g id="Node000026" class="node">
<title>Node26</title>
<g id="a_Node000026"><a xlink:title=" ">
<polygon fill="#e0e0e0" stroke="#999999" points="699.62,-206 586.12,-206 586.12,-186 699.62,-186 699.62,-206"/>
<text xml:space="preserve" text-anchor="middle" x="642.87" y="-192.5" font-family="Helvetica,sans-Serif" font-size="10.00">boost/uuid/uuid_io.hpp</text>
</a>
</g>
</g>
<!-- Node3&#45;&gt;Node26 -->
<g id="edge31_Node000003_Node000026" class="edge">
<title>Node3&#45;&gt;Node26</title>
<g id="a_edge31_Node000003_Node000026"><a xlink:title=" ">
<path fill="none" stroke="#63b8ff" d="M388.48,-249.39C434.31,-240.72 511.07,-225.94 576.87,-212 581.46,-211.03 586.22,-209.99 591,-208.94"/>
<polygon fill="#63b8ff" stroke="#63b8ff" points="591.59,-212.39 600.59,-206.8 590.07,-205.56 591.59,-212.39"/>
</a>
</g>
</g>
<!-- Node27 -->
<g id="Node000027" class="node">
<title>Node27</title>
<g id="a_Node000027"><a xlink:title=" ">
<polygon fill="#e0e0e0" stroke="#999999" points="859.87,-206 717.87,-206 717.87,-186 859.87,-186 859.87,-206"/>
<text xml:space="preserve" text-anchor="middle" x="788.87" y="-192.5" font-family="Helvetica,sans-Serif" font-size="10.00">boost/uuid/uuid_serialize.hpp</text>
</a>
</g>
</g>
<!-- Node3&#45;&gt;Node27 -->
<g id="edge32_Node000003_Node000027" class="edge">
<title>Node3&#45;&gt;Node27</title>
<g id="a_edge32_Node000003_Node000027"><a xlink:title=" ">
<path fill="none" stroke="#63b8ff" d="M388.58,-252.75C455.56,-245.57 593.11,-230.05 708.87,-212 715.74,-210.93 722.93,-209.71 730.05,-208.45"/>
<polygon fill="#63b8ff" stroke="#63b8ff" points="730.44,-211.94 739.66,-206.71 729.19,-205.05 730.44,-211.94"/>
</a>
</g>
</g>
<!-- Node5 -->
<g id="Node000005" class="node">
<title>Node5</title>
<g id="a_Node000005"><a xlink:href="model_2presistence_8hpp.html" target="_top" xlink:title=" ">
<polygon fill="white" stroke="#666666" points="751.37,-144 666.37,-144 666.37,-124 751.37,-124 751.37,-144"/>
<text xml:space="preserve" text-anchor="middle" x="708.87" y="-130.5" font-family="Helvetica,sans-Serif" font-size="10.00">presistence.hpp</text>
</a>
</g>
</g>
<!-- Node4&#45;&gt;Node5 -->
<g id="edge4_Node000004_Node000005" class="edge">
<title>Node4&#45;&gt;Node5</title>
<g id="a_edge4_Node000004_Node000005"><a xlink:title=" ">
<path fill="none" stroke="#63b8ff" d="M898.71,-185.62C860.02,-175.31 797.68,-158.68 755.07,-147.32"/>
<polygon fill="#63b8ff" stroke="#63b8ff" points="756.17,-143.99 745.61,-144.8 754.37,-150.76 756.17,-143.99"/>
</a>
</g>
</g>
<!-- Node7 -->
<g id="Node000007" class="node">
<title>Node7</title>
<g id="a_Node000007"><a xlink:title=" ">
<polygon fill="#e0e0e0" stroke="#999999" points="1058.24,-20 963.49,-20 963.49,0 1058.24,0 1058.24,-20"/>
<text xml:space="preserve" text-anchor="middle" x="1010.87" y="-6.5" font-family="Helvetica,sans-Serif" font-size="10.00">boost/pfr/core.hpp</text>
</a>
</g>
</g>
<!-- Node4&#45;&gt;Node7 -->
<g id="edge22_Node000004_Node000007" class="edge">
<title>Node4&#45;&gt;Node7</title>
<g id="a_edge22_Node000004_Node000007"><a xlink:title=" ">
<path fill="none" stroke="#63b8ff" d="M948.58,-185.57C961.39,-176.53 979.37,-161.66 988.87,-144 1008.3,-107.88 1011.43,-58.89 1011.48,-31.57"/>
<polygon fill="#63b8ff" stroke="#63b8ff" points="1014.98,-31.82 1011.34,-21.87 1007.99,-31.92 1014.98,-31.82"/>
</a>
</g>
</g>
<!-- Node8 -->
<g id="Node000008" class="node">
<title>Node8</title>
<g id="a_Node000008"><a xlink:title=" ">
<polygon fill="#e0e0e0" stroke="#999999" points="1171.49,-20 1132.24,-20 1132.24,0 1171.49,0 1171.49,-20"/>
<text xml:space="preserve" text-anchor="middle" x="1151.87" y="-6.5" font-family="Helvetica,sans-Serif" font-size="10.00">utility</text>
</a>
</g>
</g>
<!-- Node4&#45;&gt;Node8 -->
<g id="edge25_Node000004_Node000008" class="edge">
<title>Node4&#45;&gt;Node8</title>
<g id="a_edge25_Node000004_Node000008"><a xlink:title=" ">
<path fill="none" stroke="#63b8ff" d="M978.82,-192.2C1022.38,-187.63 1088.72,-175.61 1136.87,-144 1163.1,-126.78 1169.77,-117.71 1179.87,-88 1184.44,-74.53 1183.77,-69.68 1179.87,-56 1177.16,-46.53 1171.82,-37.11 1166.52,-29.35"/>
<polygon fill="#63b8ff" stroke="#63b8ff" points="1169.46,-27.44 1160.7,-21.47 1163.83,-31.59 1169.46,-27.44"/>
</a>
</g>
</g>
<!-- Node20 -->
<g id="Node000020" class="node">
<title>Node20</title>
<g id="a_Node000020"><a xlink:href="concepts_8hpp.html" target="_top" xlink:title=" ">
<polygon fill="white" stroke="#666666" points="1128.12,-144 1053.62,-144 1053.62,-124 1128.12,-124 1128.12,-144"/>
<text xml:space="preserve" text-anchor="middle" x="1090.87" y="-130.5" font-family="Helvetica,sans-Serif" font-size="10.00">concepts.hpp</text>
</a>
</g>
</g>
<!-- Node4&#45;&gt;Node20 -->
<g id="edge20_Node000004_Node000020" class="edge">
<title>Node4&#45;&gt;Node20</title>
<g id="a_edge20_Node000004_Node000020"><a xlink:title=" ">
<path fill="none" stroke="#63b8ff" d="M958.4,-185.62C984.48,-175.66 1025.95,-159.81 1055.55,-148.5"/>
<polygon fill="#63b8ff" stroke="#63b8ff" points="1056.74,-151.79 1064.84,-144.95 1054.24,-145.25 1056.74,-151.79"/>
</a>
</g>
</g>
<!-- Node21 -->
<g id="Node000021" class="node">
<title>Node21</title>
<g id="a_Node000021"><a xlink:title=" ">
<polygon fill="#e0e0e0" stroke="#999999" points="979.74,-144 887.99,-144 887.99,-124 979.74,-124 979.74,-144"/>
<text xml:space="preserve" text-anchor="middle" x="933.87" y="-130.5" font-family="Helvetica,sans-Serif" font-size="10.00">boost/pfr/ops.hpp</text>
</a>
</g>
</g>
<!-- Node4&#45;&gt;Node21 -->
<g id="edge23_Node000004_Node000021" class="edge">
<title>Node4&#45;&gt;Node21</title>
<g id="a_edge23_Node000004_Node000021"><a xlink:title=" ">
<path fill="none" stroke="#63b8ff" d="M933.87,-185.62C933.87,-177.56 933.87,-165.65 933.87,-155.41"/>
<polygon fill="#63b8ff" stroke="#63b8ff" points="937.37,-155.63 933.87,-145.63 930.37,-155.63 937.37,-155.63"/>
</a>
</g>
</g>
<!-- Node4&#45;&gt;Node22 -->
<g id="edge24_Node000004_Node000022" class="edge">
<title>Node4&#45;&gt;Node22</title>
<g id="a_edge24_Node000004_Node000022"><a xlink:title=" ">
<path fill="none" stroke="#63b8ff" d="M896.57,-185.51C887.54,-183.46 877.9,-181.47 868.87,-180 723.42,-156.37 550.54,-143.76 460.09,-138.33"/>
<polygon fill="#63b8ff" stroke="#63b8ff" points="460.38,-134.84 450.19,-137.75 459.97,-141.83 460.38,-134.84"/>
</a>
</g>
</g>
<!-- Node6 -->
<g id="Node000006" class="node">
<title>Node6</title>
<g id="a_Node000006"><a xlink:href="model__base__concepts_8hpp.html" target="_top" xlink:title=" ">
<polygon fill="white" stroke="#666666" points="1170.99,-82 1038.74,-82 1038.74,-62 1170.99,-62 1170.99,-82"/>
<text xml:space="preserve" text-anchor="middle" x="1104.87" y="-68.5" font-family="Helvetica,sans-Serif" font-size="10.00">model_base_concepts.hpp</text>
</a>
</g>
</g>
<!-- Node5&#45;&gt;Node6 -->
<g id="edge5_Node000005_Node000006" class="edge">
<title>Node5&#45;&gt;Node6</title>
<g id="a_edge5_Node000005_Node000006"><a xlink:title=" ">
<path fill="none" stroke="#63b8ff" d="M751.62,-126.52C818.48,-116.39 948.61,-96.68 1030.89,-84.21"/>
<polygon fill="#63b8ff" stroke="#63b8ff" points="1031.32,-87.68 1040.68,-82.73 1030.27,-80.76 1031.32,-87.68"/>
</a>
</g>
</g>
<!-- Node5&#45;&gt;Node7 -->
<g id="edge12_Node000005_Node000007" class="edge">
<title>Node5&#45;&gt;Node7</title>
<g id="a_edge12_Node000005_Node000007"><a xlink:title=" ">
<path fill="none" stroke="#63b8ff" d="M751.84,-128.93C812.83,-122.51 920.79,-108.62 953.87,-88 975.97,-74.22 992.36,-48.48 1001.76,-30.58"/>
<polygon fill="#63b8ff" stroke="#63b8ff" points="1004.83,-32.25 1006.13,-21.74 998.56,-29.15 1004.83,-32.25"/>
</a>
</g>
</g>
<!-- Node9 -->
<g id="Node000009" class="node">
<title>Node9</title>
<g id="a_Node000009"><a xlink:href="str__conv_8hpp.html" target="_top" xlink:title=" ">
<polygon fill="white" stroke="#666666" points="944.74,-82 846.99,-82 846.99,-62 944.74,-62 944.74,-82"/>
<text xml:space="preserve" text-anchor="middle" x="895.87" y="-68.5" font-family="Helvetica,sans-Serif" font-size="10.00">utility/str_conv.hpp</text>
</a>
</g>
</g>
<!-- Node5&#45;&gt;Node9 -->
<g id="edge8_Node000005_Node000009" class="edge">
<title>Node5&#45;&gt;Node9</title>
<g id="a_edge8_Node000005_Node000009"><a xlink:title=" ">
<path fill="none" stroke="#63b8ff" d="M738.09,-123.62C769.69,-113.48 820.3,-97.25 855.65,-85.9"/>
<polygon fill="#63b8ff" stroke="#63b8ff" points="856.65,-89.26 865.1,-82.87 854.51,-82.59 856.65,-89.26"/>
</a>
</g>
</g>
<!-- Node12 -->
<g id="Node000012" class="node">
<title>Node12</title>
<g id="a_Node000012"><a xlink:title=" ">
<polygon fill="#e0e0e0" stroke="#999999" points="247.49,-88 142.24,-88 142.24,-56 247.49,-56 247.49,-88"/>
<text xml:space="preserve" text-anchor="start" x="150.24" y="-74.5" font-family="Helvetica,sans-Serif" font-size="10.00">boost/archive/basic</text>
<text xml:space="preserve" text-anchor="middle" x="194.87" y="-62.5" font-family="Helvetica,sans-Serif" font-size="10.00">_binary_iarchive.hpp</text>
</a>
</g>
</g>
<!-- Node5&#45;&gt;Node12 -->
<g id="edge11_Node000005_Node000012" class="edge">
<title>Node5&#45;&gt;Node12</title>
<g id="a_edge11_Node000005_Node000012"><a xlink:title=" ">
<path fill="none" stroke="#63b8ff" d="M665.92,-130.71C587.17,-126.07 414.3,-113.92 259.01,-88.21"/>
<polygon fill="#63b8ff" stroke="#63b8ff" points="259.8,-84.79 249.36,-86.58 258.64,-91.69 259.8,-84.79"/>
</a>
</g>
</g>
<!-- Node5&#45;&gt;Node13 -->
<g id="edge13_Node000005_Node000013" class="edge">
<title>Node5&#45;&gt;Node13</title>
<g id="a_edge13_Node000005_Node000013"><a xlink:title=" ">
<path fill="none" stroke="#63b8ff" d="M665.9,-132.33C571.47,-130.3 338.71,-122.13 135.86,-88.32"/>
<polygon fill="#63b8ff" stroke="#63b8ff" points="136.64,-84.9 126.19,-86.68 135.47,-91.81 136.64,-84.9"/>
</a>
</g>
</g>
<!-- Node14 -->
<g id="Node000014" class="node">
<title>Node14</title>
<g id="a_Node000014"><a xlink:title=" ">
<polygon fill="#e0e0e0" stroke="#999999" points="360.24,-88 265.49,-88 265.49,-56 360.24,-56 360.24,-88"/>
<text xml:space="preserve" text-anchor="start" x="273.49" y="-74.5" font-family="Helvetica,sans-Serif" font-size="10.00">boost/serialization</text>
<text xml:space="preserve" text-anchor="middle" x="312.87" y="-62.5" font-family="Helvetica,sans-Serif" font-size="10.00">/optional.hpp</text>
</a>
</g>
</g>
<!-- Node5&#45;&gt;Node14 -->
<g id="edge14_Node000005_Node000014" class="edge">
<title>Node5&#45;&gt;Node14</title>
<g id="a_edge14_Node000005_Node000014"><a xlink:title=" ">
<path fill="none" stroke="#63b8ff" d="M666.04,-129.05C603.54,-122.92 483.5,-109.7 371.79,-88.22"/>
<polygon fill="#63b8ff" stroke="#63b8ff" points="372.63,-84.81 362.15,-86.33 371.29,-91.68 372.63,-84.81"/>
</a>
</g>
</g>
<!-- Node15 -->
<g id="Node000015" class="node">
<title>Node15</title>
<g id="a_Node000015"><a xlink:title=" ">
<polygon fill="#e0e0e0" stroke="#999999" points="483.12,-88 378.62,-88 378.62,-56 483.12,-56 483.12,-88"/>
<text xml:space="preserve" text-anchor="start" x="386.62" y="-74.5" font-family="Helvetica,sans-Serif" font-size="10.00">boost/serialization</text>
<text xml:space="preserve" text-anchor="middle" x="430.87" y="-62.5" font-family="Helvetica,sans-Serif" font-size="10.00">/unordered_map.hpp</text>
</a>
</g>
</g>
<!-- Node5&#45;&gt;Node15 -->
<g id="edge15_Node000005_Node000015" class="edge">
<title>Node5&#45;&gt;Node15</title>
<g id="a_edge15_Node000005_Node000015"><a xlink:title=" ">
<path fill="none" stroke="#63b8ff" d="M665.95,-124.58C624.41,-116.33 559.4,-103.13 494.28,-88.51"/>
<polygon fill="#63b8ff" stroke="#63b8ff" points="495.41,-85.17 484.89,-86.38 493.87,-92 495.41,-85.17"/>
</a>
</g>
</g>
<!-- Node16 -->
<g id="Node000016" class="node">
<title>Node16</title>
<g id="a_Node000016"><a xlink:title=" ">
<polygon fill="#e0e0e0" stroke="#999999" points="600.49,-88 501.24,-88 501.24,-56 600.49,-56 600.49,-88"/>
<text xml:space="preserve" text-anchor="start" x="509.24" y="-74.5" font-family="Helvetica,sans-Serif" font-size="10.00">boost/serialization</text>
<text xml:space="preserve" text-anchor="middle" x="550.87" y="-62.5" font-family="Helvetica,sans-Serif" font-size="10.00">/unordered_set.hpp</text>
</a>
</g>
</g>
<!-- Node5&#45;&gt;Node16 -->
<g id="edge16_Node000005_Node000016" class="edge">
<title>Node5&#45;&gt;Node16</title>
<g id="a_edge16_Node000005_Node000016"><a xlink:title=" ">
<path fill="none" stroke="#63b8ff" d="M684.18,-123.62C662.34,-115.33 629.77,-102.96 602.3,-92.53"/>
<polygon fill="#63b8ff" stroke="#63b8ff" points="603.66,-89.31 593.07,-89.03 601.18,-95.85 603.66,-89.31"/>
</a>
</g>
</g>
<!-- Node17 -->
<g id="Node000017" class="node">
<title>Node17</title>
<g id="a_Node000017"><a xlink:title=" ">
<polygon fill="#e0e0e0" stroke="#999999" points="713.24,-88 618.49,-88 618.49,-56 713.24,-56 713.24,-88"/>
<text xml:space="preserve" text-anchor="start" x="626.49" y="-74.5" font-family="Helvetica,sans-Serif" font-size="10.00">boost/serialization</text>
<text xml:space="preserve" text-anchor="middle" x="665.87" y="-62.5" font-family="Helvetica,sans-Serif" font-size="10.00">/vector.hpp</text>
</a>
</g>
</g>
<!-- Node5&#45;&gt;Node17 -->
<g id="edge17_Node000005_Node000017" class="edge">
<title>Node5&#45;&gt;Node17</title>
<g id="a_edge17_Node000005_Node000017"><a xlink:title=" ">
<path fill="none" stroke="#63b8ff" d="M702.15,-123.62C697.1,-116.58 689.94,-106.59 683.32,-97.35"/>
<polygon fill="#63b8ff" stroke="#63b8ff" points="686.27,-95.46 677.6,-89.37 680.58,-99.54 686.27,-95.46"/>
</a>
</g>
</g>
<!-- Node18 -->
<g id="Node000018" class="node">
<title>Node18</title>
<g id="a_Node000018"><a xlink:title=" ">
<polygon fill="#e0e0e0" stroke="#999999" points="774.74,-82 730.99,-82 730.99,-62 774.74,-62 774.74,-82"/>
<text xml:space="preserve" text-anchor="middle" x="752.87" y="-68.5" font-family="Helvetica,sans-Serif" font-size="10.00">format</text>
</a>
</g>
</g>
<!-- Node5&#45;&gt;Node18 -->
<g id="edge18_Node000005_Node000018" class="edge">
<title>Node5&#45;&gt;Node18</title>
<g id="a_edge18_Node000005_Node000018"><a xlink:title=" ">
<path fill="none" stroke="#63b8ff" d="M715.74,-123.62C722.11,-114.94 731.75,-101.8 739.61,-91.08"/>
<polygon fill="#63b8ff" stroke="#63b8ff" points="742.2,-93.47 745.29,-83.33 736.55,-89.33 742.2,-93.47"/>
</a>
</g>
</g>
<!-- Node19 -->
<g id="Node000019" class="node">
<title>Node19</title>
<g id="a_Node000019"><a xlink:title=" ">
<polygon fill="#e0e0e0" stroke="#999999" points="829.37,-82 792.37,-82 792.37,-62 829.37,-62 829.37,-82"/>
<text xml:space="preserve" text-anchor="middle" x="810.87" y="-68.5" font-family="Helvetica,sans-Serif" font-size="10.00">tuple</text>
</a>
</g>
</g>
<!-- Node5&#45;&gt;Node19 -->
<g id="edge19_Node000005_Node000019" class="edge">
<title>Node5&#45;&gt;Node19</title>
<g id="a_edge19_Node000005_Node000019"><a xlink:title=" ">
<path fill="none" stroke="#63b8ff" d="M724.8,-123.62C740.97,-114.11 766.25,-99.24 785.24,-88.08"/>
<polygon fill="#63b8ff" stroke="#63b8ff" points="786.89,-91.16 793.74,-83.08 783.34,-85.13 786.89,-91.16"/>
</a>
</g>
</g>
<!-- Node6&#45;&gt;Node7 -->
<g id="edge6_Node000006_Node000007" class="edge">
<title>Node6&#45;&gt;Node7</title>
<g id="a_edge6_Node000006_Node000007"><a xlink:title=" ">
<path fill="none" stroke="#63b8ff" d="M1090.18,-61.62C1075.42,-52.2 1052.41,-37.52 1034.97,-26.39"/>
<polygon fill="#63b8ff" stroke="#63b8ff" points="1037.04,-23.55 1026.73,-21.12 1033.27,-29.45 1037.04,-23.55"/>
</a>
</g>
</g>
<!-- Node6&#45;&gt;Node8 -->
<g id="edge7_Node000006_Node000008" class="edge">
<title>Node6&#45;&gt;Node8</title>
<g id="a_edge7_Node000006_Node000008"><a xlink:title=" ">
<path fill="none" stroke="#63b8ff" d="M1112.21,-61.62C1119.01,-52.94 1129.31,-39.8 1137.71,-29.08"/>
<polygon fill="#63b8ff" stroke="#63b8ff" points="1140.38,-31.33 1143.8,-21.3 1134.87,-27.02 1140.38,-31.33"/>
</a>
</g>
</g>
<!-- Node9&#45;&gt;Node10 -->
<g id="edge9_Node000009_Node000010" class="edge">
<title>Node9&#45;&gt;Node10</title>
<g id="a_edge9_Node000009_Node000010"><a xlink:title=" ">
<path fill="none" stroke="#63b8ff" d="M863.5,-61.57C855.5,-59.5 846.92,-57.48 838.87,-56 692.96,-29.24 515.73,-16.83 445.1,-12.68"/>
<polygon fill="#63b8ff" stroke="#63b8ff" points="445.63,-9.2 435.45,-12.13 445.23,-16.19 445.63,-9.2"/>
</a>
</g>
</g>
<!-- Node11 -->
<g id="Node000011" class="node">
<title>Node11</title>
<g id="a_Node000011"><a xlink:title=" ">
<polygon fill="#e0e0e0" stroke="#999999" points="928.62,-20 863.12,-20 863.12,0 928.62,0 928.62,-20"/>
<text xml:space="preserve" text-anchor="middle" x="895.87" y="-6.5" font-family="Helvetica,sans-Serif" font-size="10.00">string_view</text>
</a>
</g>
</g>
<!-- Node9&#45;&gt;Node11 -->
<g id="edge10_Node000009_Node000011" class="edge">
<title>Node9&#45;&gt;Node11</title>
<g id="a_edge10_Node000009_Node000011"><a xlink:title=" ">
<path fill="none" stroke="#63b8ff" d="M895.87,-61.62C895.87,-53.56 895.87,-41.65 895.87,-31.41"/>
<polygon fill="#63b8ff" stroke="#63b8ff" points="899.37,-31.63 895.87,-21.63 892.37,-31.63 899.37,-31.63"/>
</a>
</g>
</g>
<!-- Node20&#45;&gt;Node6 -->
<g id="edge21_Node000020_Node000006" class="edge">
<title>Node20&#45;&gt;Node6</title>
<g id="a_edge21_Node000020_Node000006"><a xlink:title=" ">
<path fill="none" stroke="#63b8ff" d="M1093.05,-123.62C1094.96,-115.48 1097.78,-103.39 1100.18,-93.07"/>
<polygon fill="#63b8ff" stroke="#63b8ff" points="1103.53,-94.12 1102.4,-83.59 1096.72,-92.53 1103.53,-94.12"/>
</a>
</g>
</g>
</g>
</svg>
