<?xml version="1.0" encoding="UTF-8" standalone="no"?>
<!DOCTYPE svg PUBLIC "-//W3C//DTD SVG 1.1//EN"
 "http://www.w3.org/Graphics/SVG/1.1/DTD/svg11.dtd">
<!-- Generated by graphviz version 14.1.2 (20260124.0452)
 -->
<!-- Title: depicture_menu/src/core/domain/model/command/buildin/shellexecute_command_parameter.hpp Pages: 1 -->
<svg width="1516pt" height="548pt"
 viewBox="0.00 0.00 1516.00 548.00" xmlns="http://www.w3.org/2000/svg" xmlns:xlink="http://www.w3.org/1999/xlink">
<g id="graph0" class="graph" transform="scale(1 1) rotate(0) translate(4 544)">
<title>depicture_menu/src/core/domain/model/command/buildin/shellexecute_command_parameter.hpp</title>
<!-- Node1 -->
<g id="Node000001" class="node">
<title>Node1</title>
<g id="a_Node000001"><a xlink:title=" ">
<polygon fill="#999999" stroke="#666666" points="1331,-540 1178.5,-540 1178.5,-484 1331,-484 1331,-540"/>
<text xml:space="preserve" text-anchor="start" x="1186.5" y="-526.5" font-family="Helvetica,sans-Serif" font-size="10.00">depicture_menu/src</text>
<text xml:space="preserve" text-anchor="start" x="1186.5" y="-514.5" font-family="Helvetica,sans-Serif" font-size="10.00">/core/domain/model/command</text>
<text xml:space="preserve" text-anchor="start" x="1186.5" y="-502.5" font-family="Helvetica,sans-Serif" font-size="10.00">/buildin/shellexecute_command</text>
<text xml:space="preserve" text-anchor="middle" x="1254.75" y="-490.5" font-family="Helvetica,sans-Serif" font-size="10.00">_parameter.hpp</text>
</a>
</g>
</g>
<!-- Node2 -->
<g id="Node000002" class="node">
<title>Node2</title>
<g id="a_Node000002"><a xlink:href="common__command__kind_8hpp.html" target="_top" xlink:title=" ">
<polygon fill="white" stroke="#666666" points="476,-392 329.5,-392 329.5,-360 476,-360 476,-392"/>
<text xml:space="preserve" text-anchor="start" x="337.5" y="-378.5" font-family="Helvetica,sans-Serif" font-size="10.00">core/domain/model/command</text>
<text xml:space="preserve" text-anchor="middle" x="402.75" y="-366.5" font-family="Helvetica,sans-Serif" font-size="10.00">/common_command_kind.hpp</text>
</a>
</g>
</g>
<!-- Node1&#45;&gt;Node2 -->
<g id="edge1_Node000001_Node000002" class="edge">
<title>Node1&#45;&gt;Node2</title>
<g id="a_edge1_Node000001_Node000002"><a xlink:title=" ">
<path fill="none" stroke="#63b8ff" d="M1178.02,-510.67C1052.34,-508.61 795.48,-497.98 584.75,-448 535.04,-436.21 480.82,-413.71 444.6,-397.19"/>
<polygon fill="#63b8ff" stroke="#63b8ff" points="446.35,-394.14 435.8,-393.12 443.41,-400.5 446.35,-394.14"/>
</a>
</g>
</g>
<!-- Node4 -->
<g id="Node000004" class="node">
<title>Node4</title>
<g id="a_Node000004"><a xlink:href="parameter_8hpp.html" target="_top" xlink:title=" ">
<polygon fill="white" stroke="#666666" points="799.88,-392 655.62,-392 655.62,-360 799.88,-360 799.88,-392"/>
<text xml:space="preserve" text-anchor="start" x="663.62" y="-378.5" font-family="Helvetica,sans-Serif" font-size="10.00">core/domain/model/command</text>
<text xml:space="preserve" text-anchor="middle" x="727.75" y="-366.5" font-family="Helvetica,sans-Serif" font-size="10.00">/parameter.hpp</text>
</a>
</g>
</g>
<!-- Node1&#45;&gt;Node4 -->
<g id="edge3_Node000001_Node000004" class="edge">
<title>Node1&#45;&gt;Node4</title>
<g id="a_edge3_Node000001_Node000004"><a xlink:title=" ">
<path fill="none" stroke="#63b8ff" d="M1178.12,-491.52C1076.55,-465.69 898.67,-420.46 799.57,-395.26"/>
<polygon fill="#63b8ff" stroke="#63b8ff" points="800.5,-391.89 789.94,-392.81 798.77,-398.67 800.5,-391.89"/>
</a>
</g>
</g>
<!-- Node13 -->
<g id="Node000013" class="node">
<title>Node13</title>
<g id="a_Node000013"><a xlink:title=" ">
<polygon fill="#e0e0e0" stroke="#999999" points="1337.75,-20 1297.75,-20 1297.75,0 1337.75,0 1337.75,-20"/>
<text xml:space="preserve" text-anchor="middle" x="1317.75" y="-6.5" font-family="Helvetica,sans-Serif" font-size="10.00">string</text>
</a>
</g>
</g>
<!-- Node1&#45;&gt;Node13 -->
<g id="edge58_Node000001_Node000013" class="edge">
<title>Node1&#45;&gt;Node13</title>
<g id="a_edge58_Node000001_Node000013"><a xlink:title=" ">
<path fill="none" stroke="#63b8ff" d="M1292.36,-483.58C1321.07,-459.19 1355.75,-420.7 1355.75,-377 1355.75,-377 1355.75,-377 1355.75,-133 1355.75,-95.44 1339.13,-54.2 1327.87,-30.58"/>
<polygon fill="#63b8ff" stroke="#63b8ff" points="1331.12,-29.25 1323.55,-21.85 1324.85,-32.36 1331.12,-29.25"/>
</a>
</g>
</g>
<!-- Node39 -->
<g id="Node000039" class="node">
<title>Node39</title>
<g id="a_Node000039"><a xlink:href="value__object_8hpp.html" target="_top" xlink:title=" ">
<polygon fill="white" stroke="#666666" points="1327.62,-268 1181.88,-268 1181.88,-248 1327.62,-248 1327.62,-268"/>
<text xml:space="preserve" text-anchor="middle" x="1254.75" y="-254.5" font-family="Helvetica,sans-Serif" font-size="10.00">core/domain/value_object.hpp</text>
</a>
</g>
</g>
<!-- Node1&#45;&gt;Node39 -->
<g id="edge49_Node000001_Node000039" class="edge">
<title>Node1&#45;&gt;Node39</title>
<g id="a_edge49_Node000001_Node000039"><a xlink:title=" ">
<path fill="none" stroke="#63b8ff" d="M1254.75,-483.55C1254.75,-432.7 1254.75,-324.9 1254.75,-279.67"/>
<polygon fill="#63b8ff" stroke="#63b8ff" points="1258.25,-279.73 1254.75,-269.73 1251.25,-279.73 1258.25,-279.73"/>
</a>
</g>
</g>
<!-- Node40 -->
<g id="Node000040" class="node">
<title>Node40</title>
<g id="a_Node000040"><a xlink:href="buildin__command__parameter_8hpp.html" target="_top" xlink:title=" ">
<polygon fill="white" stroke="#666666" points="753.38,-448 594.12,-448 594.12,-428 753.38,-428 753.38,-448"/>
<text xml:space="preserve" text-anchor="middle" x="673.75" y="-434.5" font-family="Helvetica,sans-Serif" font-size="10.00">buildin_command_parameter.hpp</text>
</a>
</g>
</g>
<!-- Node1&#45;&gt;Node40 -->
<g id="edge51_Node000001_Node000040" class="edge">
<title>Node1&#45;&gt;Node40</title>
<g id="a_edge51_Node000001_Node000040"><a xlink:title=" ">
<path fill="none" stroke="#63b8ff" d="M1178.2,-501.51C1070.5,-488.17 874.78,-463.91 761.39,-449.86"/>
<polygon fill="#63b8ff" stroke="#63b8ff" points="761.87,-446.39 751.51,-448.64 761.01,-453.34 761.87,-446.39"/>
</a>
</g>
</g>
<!-- Node42 -->
<g id="Node000042" class="node">
<title>Node42</title>
<g id="a_Node000042"><a xlink:title=" ">
<polygon fill="#e0e0e0" stroke="#999999" points="1445.25,-448 1384.25,-448 1384.25,-428 1445.25,-428 1445.25,-448"/>
<text xml:space="preserve" text-anchor="middle" x="1414.75" y="-434.5" font-family="Helvetica,sans-Serif" font-size="10.00">filesystem</text>
</a>
</g>
</g>
<!-- Node1&#45;&gt;Node42 -->
<g id="edge56_Node000001_Node000042" class="edge">
<title>Node1&#45;&gt;Node42</title>
<g id="a_edge56_Node000001_Node000042"><a xlink:title=" ">
<path fill="none" stroke="#63b8ff" d="M1315.7,-483.57C1338.84,-473.16 1364.24,-461.73 1383.52,-453.05"/>
<polygon fill="#63b8ff" stroke="#63b8ff" points="1384.76,-456.33 1392.45,-449.04 1381.89,-449.95 1384.76,-456.33"/>
</a>
</g>
</g>
<!-- Node43 -->
<g id="Node000043" class="node">
<title>Node43</title>
<g id="a_Node000043"><a xlink:title=" ">
<polygon fill="#e0e0e0" stroke="#999999" points="1508.38,-448 1463.12,-448 1463.12,-428 1508.38,-428 1508.38,-448"/>
<text xml:space="preserve" text-anchor="middle" x="1485.75" y="-434.5" font-family="Helvetica,sans-Serif" font-size="10.00">ranges</text>
</a>
</g>
</g>
<!-- Node1&#45;&gt;Node43 -->
<g id="edge57_Node000001_Node000043" class="edge">
<title>Node1&#45;&gt;Node43</title>
<g id="a_edge57_Node000001_Node000043"><a xlink:title=" ">
<path fill="none" stroke="#63b8ff" d="M1331.35,-487.13C1372.17,-474.4 1420.33,-459.39 1451.88,-449.56"/>
<polygon fill="#63b8ff" stroke="#63b8ff" points="1452.75,-452.95 1461.26,-446.63 1450.67,-446.27 1452.75,-452.95"/>
</a>
</g>
</g>
<!-- Node3 -->
<g id="Node000003" class="node">
<title>Node3</title>
<g id="a_Node000003"><a xlink:title=" ">
<polygon fill="#e0e0e0" stroke="#999999" points="125.5,-206 0,-206 0,-186 125.5,-186 125.5,-206"/>
<text xml:space="preserve" text-anchor="middle" x="62.75" y="-192.5" font-family="Helvetica,sans-Serif" font-size="10.00">boost/describe/enum.hpp</text>
</a>
</g>
</g>
<!-- Node2&#45;&gt;Node3 -->
<g id="edge2_Node000002_Node000003" class="edge">
<title>Node2&#45;&gt;Node3</title>
<g id="a_edge2_Node000002_Node000003"><a xlink:title=" ">
<path fill="none" stroke="#63b8ff" d="M329.14,-375.24C236.25,-373.79 84.27,-365.01 48.75,-324 22.82,-294.07 39.86,-244.13 52.55,-216.64"/>
<polygon fill="#63b8ff" stroke="#63b8ff" points="55.67,-218.24 56.92,-207.72 49.38,-215.16 55.67,-218.24"/>
</a>
</g>
</g>
<!-- Node5 -->
<g id="Node000005" class="node">
<title>Node5</title>
<g id="a_Node000005"><a xlink:href="command__ids_8hpp.html" target="_top" xlink:title=" ">
<polygon fill="white" stroke="#666666" points="1073.5,-324 978,-324 978,-304 1073.5,-304 1073.5,-324"/>
<text xml:space="preserve" text-anchor="middle" x="1025.75" y="-310.5" font-family="Helvetica,sans-Serif" font-size="10.00">command_ids.hpp</text>
</a>
</g>
</g>
<!-- Node4&#45;&gt;Node5 -->
<g id="edge4_Node000004_Node000005" class="edge">
<title>Node4&#45;&gt;Node5</title>
<g id="a_edge4_Node000004_Node000005"><a xlink:title=" ">
<path fill="none" stroke="#63b8ff" d="M800.27,-360.4C851.79,-350.03 920.04,-336.28 967.91,-326.65"/>
<polygon fill="#63b8ff" stroke="#63b8ff" points="968.41,-330.12 977.52,-324.71 967.03,-323.25 968.41,-330.12"/>
</a>
</g>
</g>
<!-- Node4&#45;&gt;Node13 -->
<g id="edge47_Node000004_Node000013" class="edge">
<title>Node4&#45;&gt;Node13</title>
<g id="a_edge47_Node000004_Node000013"><a xlink:title=" ">
<path fill="none" stroke="#63b8ff" d="M800.1,-370.36C889.33,-363.65 1035.06,-349.2 1082.75,-324 1114.18,-307.39 1281.97,-119.34 1298.75,-88 1308.29,-70.18 1313.13,-47.49 1315.53,-31.36"/>
<polygon fill="#63b8ff" stroke="#63b8ff" points="1318.99,-31.92 1316.78,-21.56 1312.05,-31.04 1318.99,-31.92"/>
</a>
</g>
</g>
<!-- Node25 -->
<g id="Node000025" class="node">
<title>Node25</title>
<g id="a_Node000025"><a xlink:title=" ">
<polygon fill="#e0e0e0" stroke="#999999" points="164.12,-144 63.38,-144 63.38,-124 164.12,-124 164.12,-144"/>
<text xml:space="preserve" text-anchor="middle" x="113.75" y="-130.5" font-family="Helvetica,sans-Serif" font-size="10.00">boost/uuid/uuid.hpp</text>
</a>
</g>
</g>
<!-- Node4&#45;&gt;Node25 -->
<g id="edge45_Node000004_Node000025" class="edge">
<title>Node4&#45;&gt;Node25</title>
<g id="a_edge45_Node000004_Node000025"><a xlink:title=" ">
<path fill="none" stroke="#63b8ff" d="M655.38,-361.29C652.47,-360.83 649.58,-360.4 646.75,-360 566.93,-348.65 357.78,-360.22 285.75,-324 245.48,-303.75 160.79,-196.6 127.56,-153.24"/>
<polygon fill="#63b8ff" stroke="#63b8ff" points="130.53,-151.37 121.69,-145.54 124.97,-155.61 130.53,-151.37"/>
</a>
</g>
</g>
<!-- Node31 -->
<g id="Node000031" class="node">
<title>Node31</title>
<g id="a_Node000031"><a xlink:href="parameter__define_8hpp.html" target="_top" xlink:title=" ">
<polygon fill="white" stroke="#666666" points="238.62,-324 128.88,-324 128.88,-304 238.62,-304 238.62,-324"/>
<text xml:space="preserve" text-anchor="middle" x="183.75" y="-310.5" font-family="Helvetica,sans-Serif" font-size="10.00">parameter_define.hpp</text>
</a>
</g>
</g>
<!-- Node4&#45;&gt;Node31 -->
<g id="edge36_Node000004_Node000031" class="edge">
<title>Node4&#45;&gt;Node31</title>
<g id="a_edge36_Node000004_Node000031"><a xlink:title=" ">
<path fill="none" stroke="#63b8ff" d="M655.38,-361.26C652.47,-360.81 649.58,-360.39 646.75,-360 472.56,-335.97 427.52,-343.38 252.75,-324 251.92,-323.91 251.08,-323.81 250.24,-323.72"/>
<polygon fill="#63b8ff" stroke="#63b8ff" points="250.93,-320.28 240.59,-322.59 250.12,-327.23 250.93,-320.28"/>
</a>
</g>
</g>
<!-- Node32 -->
<g id="Node000032" class="node">
<title>Node32</title>
<g id="a_Node000032"><a xlink:href="parameter__kind_8hpp.html" target="_top" xlink:title=" ">
<polygon fill="white" stroke="#666666" points="192.5,-268 91,-268 91,-248 192.5,-248 192.5,-268"/>
<text xml:space="preserve" text-anchor="middle" x="141.75" y="-254.5" font-family="Helvetica,sans-Serif" font-size="10.00">parameter_kind.hpp</text>
</a>
</g>
</g>
<!-- Node4&#45;&gt;Node32 -->
<g id="edge40_Node000004_Node000032" class="edge">
<title>Node4&#45;&gt;Node32</title>
<g id="a_edge40_Node000004_Node000032"><a xlink:title=" ">
<path fill="none" stroke="#63b8ff" d="M655.39,-361.17C652.48,-360.75 649.59,-360.36 646.75,-360 588.52,-352.64 159.81,-366.89 119.75,-324 107.72,-311.13 116.93,-291.44 126.86,-277.1"/>
<polygon fill="#63b8ff" stroke="#63b8ff" points="129.45,-279.48 132.68,-269.39 123.86,-275.26 129.45,-279.48"/>
</a>
</g>
</g>
<!-- Node33 -->
<g id="Node000033" class="node">
<title>Node33</title>
<g id="a_Node000033"><a xlink:title=" ">
<polygon fill="#e0e0e0" stroke="#999999" points="450.5,-324 295,-324 295,-304 450.5,-304 450.5,-324"/>
<text xml:space="preserve" text-anchor="middle" x="372.75" y="-310.5" font-family="Helvetica,sans-Serif" font-size="10.00">boost/describe/enumerators.hpp</text>
</a>
</g>
</g>
<!-- Node4&#45;&gt;Node33 -->
<g id="edge41_Node000004_Node000033" class="edge">
<title>Node4&#45;&gt;Node33</title>
<g id="a_edge41_Node000004_Node000033"><a xlink:title=" ">
<path fill="none" stroke="#63b8ff" d="M655.34,-361.52C652.44,-361 649.57,-360.49 646.75,-360 577.89,-347.97 499.12,-335.13 443.77,-326.26"/>
<polygon fill="#63b8ff" stroke="#63b8ff" points="444.6,-322.85 434.17,-324.72 443.49,-329.76 444.6,-322.85"/>
</a>
</g>
</g>
<!-- Node34 -->
<g id="Node000034" class="node">
<title>Node34</title>
<g id="a_Node000034"><a xlink:title=" ">
<polygon fill="#e0e0e0" stroke="#999999" points="596.62,-324 468.88,-324 468.88,-304 596.62,-304 596.62,-324"/>
<text xml:space="preserve" text-anchor="middle" x="532.75" y="-310.5" font-family="Helvetica,sans-Serif" font-size="10.00">boost/mp11/algorithm.hpp</text>
</a>
</g>
</g>
<!-- Node4&#45;&gt;Node34 -->
<g id="edge42_Node000004_Node000034" class="edge">
<title>Node4&#45;&gt;Node34</title>
<g id="a_edge42_Node000004_Node000034"><a xlink:title=" ">
<path fill="none" stroke="#63b8ff" d="M677.53,-359.55C645.61,-349.73 604.77,-337.16 574.61,-327.88"/>
<polygon fill="#63b8ff" stroke="#63b8ff" points="575.65,-324.54 565.06,-324.94 573.59,-331.23 575.65,-324.54"/>
</a>
</g>
</g>
<!-- Node35 -->
<g id="Node000035" class="node">
<title>Node35</title>
<g id="a_Node000035"><a xlink:title=" ">
<polygon fill="#e0e0e0" stroke="#999999" points="725,-324 614.5,-324 614.5,-304 725,-304 725,-324"/>
<text xml:space="preserve" text-anchor="middle" x="669.75" y="-310.5" font-family="Helvetica,sans-Serif" font-size="10.00">boost/mp11/utility.hpp</text>
</a>
</g>
</g>
<!-- Node4&#45;&gt;Node35 -->
<g id="edge43_Node000004_Node000035" class="edge">
<title>Node4&#45;&gt;Node35</title>
<g id="a_edge43_Node000004_Node000035"><a xlink:title=" ">
<path fill="none" stroke="#63b8ff" d="M712.81,-359.55C704.84,-351.3 695,-341.12 686.74,-332.57"/>
<polygon fill="#63b8ff" stroke="#63b8ff" points="689.36,-330.25 679.9,-325.5 684.33,-335.12 689.36,-330.25"/>
</a>
</g>
</g>
<!-- Node36 -->
<g id="Node000036" class="node">
<title>Node36</title>
<g id="a_Node000036"><a xlink:title=" ">
<polygon fill="#e0e0e0" stroke="#999999" points="826.12,-324 743.38,-324 743.38,-304 826.12,-304 826.12,-324"/>
<text xml:space="preserve" text-anchor="middle" x="784.75" y="-310.5" font-family="Helvetica,sans-Serif" font-size="10.00">boost/hana.hpp</text>
</a>
</g>
</g>
<!-- Node4&#45;&gt;Node36 -->
<g id="edge44_Node000004_Node000036" class="edge">
<title>Node4&#45;&gt;Node36</title>
<g id="a_edge44_Node000004_Node000036"><a xlink:title=" ">
<path fill="none" stroke="#63b8ff" d="M742.43,-359.55C750.26,-351.3 759.94,-341.12 768.06,-332.57"/>
<polygon fill="#63b8ff" stroke="#63b8ff" points="770.42,-335.17 774.77,-325.51 765.34,-330.34 770.42,-335.17"/>
</a>
</g>
</g>
<!-- Node37 -->
<g id="Node000037" class="node">
<title>Node37</title>
<g id="a_Node000037"><a xlink:title=" ">
<polygon fill="#e0e0e0" stroke="#999999" points="897.5,-324 844,-324 844,-304 897.5,-304 897.5,-324"/>
<text xml:space="preserve" text-anchor="middle" x="870.75" y="-310.5" font-family="Helvetica,sans-Serif" font-size="10.00">iostream</text>
</a>
</g>
</g>
<!-- Node4&#45;&gt;Node37 -->
<g id="edge46_Node000004_Node000037" class="edge">
<title>Node4&#45;&gt;Node37</title>
<g id="a_edge46_Node000004_Node000037"><a xlink:title=" ">
<path fill="none" stroke="#63b8ff" d="M764.58,-359.55C787.23,-350.04 816.01,-337.97 837.89,-328.79"/>
<polygon fill="#63b8ff" stroke="#63b8ff" points="839.06,-332.09 846.93,-324.99 836.36,-325.64 839.06,-332.09"/>
</a>
</g>
</g>
<!-- Node38 -->
<g id="Node000038" class="node">
<title>Node38</title>
<g id="a_Node000038"><a xlink:title=" ">
<polygon fill="#e0e0e0" stroke="#999999" points="960.38,-324 915.12,-324 915.12,-304 960.38,-304 960.38,-324"/>
<text xml:space="preserve" text-anchor="middle" x="937.75" y="-310.5" font-family="Helvetica,sans-Serif" font-size="10.00">variant</text>
</a>
</g>
</g>
<!-- Node4&#45;&gt;Node38 -->
<g id="edge48_Node000004_Node000038" class="edge">
<title>Node4&#45;&gt;Node38</title>
<g id="a_edge48_Node000004_Node000038"><a xlink:title=" ">
<path fill="none" stroke="#63b8ff" d="M782.21,-359.56C815.06,-350.23 858.03,-337.99 903.7,-324.87"/>
<polygon fill="#63b8ff" stroke="#63b8ff" points="904.63,-328.24 913.28,-322.12 902.7,-321.52 904.63,-328.24"/>
</a>
</g>
</g>
<!-- Node6 -->
<g id="Node000006" class="node">
<title>Node6</title>
<g id="a_Node000006"><a xlink:href="model_2entity__id_8hpp.html" target="_top" xlink:title=" ">
<polygon fill="white" stroke="#666666" points="782,-268 701.5,-268 701.5,-248 782,-248 782,-268"/>
<text xml:space="preserve" text-anchor="middle" x="741.75" y="-254.5" font-family="Helvetica,sans-Serif" font-size="10.00">../entity_id.hpp</text>
</a>
</g>
</g>
<!-- Node5&#45;&gt;Node6 -->
<g id="edge5_Node000005_Node000006" class="edge">
<title>Node5&#45;&gt;Node6</title>
<g id="a_edge5_Node000005_Node000006"><a xlink:title=" ">
<path fill="none" stroke="#63b8ff" d="M977.57,-303.84C926.41,-294.11 845.84,-278.79 793.4,-268.82"/>
<polygon fill="#63b8ff" stroke="#63b8ff" points="794.29,-265.43 783.82,-267 792.99,-272.3 794.29,-265.43"/>
</a>
</g>
</g>
<!-- Node7 -->
<g id="Node000007" class="node">
<title>Node7</title>
<g id="a_Node000007"><a xlink:href="model_2value__object_8hpp.html" target="_top" xlink:title=" ">
<polygon fill="white" stroke="#666666" points="1066.5,-206 977,-206 977,-186 1066.5,-186 1066.5,-206"/>
<text xml:space="preserve" text-anchor="middle" x="1021.75" y="-192.5" font-family="Helvetica,sans-Serif" font-size="10.00">value_object.hpp</text>
</a>
</g>
</g>
<!-- Node6&#45;&gt;Node7 -->
<g id="edge6_Node000006_Node000007" class="edge">
<title>Node6&#45;&gt;Node7</title>
<g id="a_edge6_Node000006_Node000007"><a xlink:title=" ">
<path fill="none" stroke="#63b8ff" d="M782.36,-249.85C827.76,-241.65 903.34,-227.34 967.75,-212 971.25,-211.17 974.87,-210.26 978.5,-209.32"/>
<polygon fill="#63b8ff" stroke="#63b8ff" points="979.08,-212.79 987.84,-206.83 977.27,-206.02 979.08,-212.79"/>
</a>
</g>
</g>
<!-- Node16 -->
<g id="Node000016" class="node">
<title>Node16</title>
<g id="a_Node000016"><a xlink:title=" ">
<polygon fill="#e0e0e0" stroke="#999999" points="1290.12,-88 1195.38,-88 1195.38,-56 1290.12,-56 1290.12,-88"/>
<text xml:space="preserve" text-anchor="start" x="1203.38" y="-74.5" font-family="Helvetica,sans-Serif" font-size="10.00">boost/serialization</text>
<text xml:space="preserve" text-anchor="middle" x="1242.75" y="-62.5" font-family="Helvetica,sans-Serif" font-size="10.00">/access.hpp</text>
</a>
</g>
</g>
<!-- Node6&#45;&gt;Node16 -->
<g id="edge30_Node000006_Node000016" class="edge">
<title>Node6&#45;&gt;Node16</title>
<g id="a_edge30_Node000006_Node000016"><a xlink:title=" ">
<path fill="none" stroke="#63b8ff" d="M782.49,-254.34C859.62,-248.83 1023.92,-234.77 1075.75,-212 1136.99,-185.09 1193.52,-128.77 1222.48,-96.69"/>
<polygon fill="#63b8ff" stroke="#63b8ff" points="1224.87,-99.26 1228.89,-89.46 1219.64,-94.62 1224.87,-99.26"/>
</a>
</g>
</g>
<!-- Node6&#45;&gt;Node25 -->
<g id="edge32_Node000006_Node000025" class="edge">
<title>Node6&#45;&gt;Node25</title>
<g id="a_edge32_Node000006_Node000025"><a xlink:title=" ">
<path fill="none" stroke="#63b8ff" d="M701.2,-256.18C597.61,-253.62 325.51,-243.99 241.75,-212 219.49,-203.5 218.89,-192.72 198.75,-180 181.03,-168.81 160.26,-157.77 143.68,-149.43"/>
<polygon fill="#63b8ff" stroke="#63b8ff" points="145.34,-146.35 134.82,-145.04 142.23,-152.62 145.34,-146.35"/>
</a>
</g>
</g>
<!-- Node26 -->
<g id="Node000026" class="node">
<title>Node26</title>
<g id="a_Node000026"><a xlink:title=" ">
<polygon fill="#e0e0e0" stroke="#999999" points="378.62,-206 250.88,-206 250.88,-186 378.62,-186 378.62,-206"/>
<text xml:space="preserve" text-anchor="middle" x="314.75" y="-192.5" font-family="Helvetica,sans-Serif" font-size="10.00">boost/functional/hash.hpp</text>
</a>
</g>
</g>
<!-- Node6&#45;&gt;Node26 -->
<g id="edge29_Node000006_Node000026" class="edge">
<title>Node6&#45;&gt;Node26</title>
<g id="a_edge29_Node000006_Node000026"><a xlink:title=" ">
<path fill="none" stroke="#63b8ff" d="M701.26,-252.87C635.34,-245.91 500.81,-230.77 387.75,-212 381.69,-210.99 375.36,-209.84 369.08,-208.64"/>
<polygon fill="#63b8ff" stroke="#63b8ff" points="369.85,-205.22 359.37,-206.72 368.5,-212.09 369.85,-205.22"/>
</a>
</g>
</g>
<!-- Node27 -->
<g id="Node000027" class="node">
<title>Node27</title>
<g id="a_Node000027"><a xlink:title=" ">
<polygon fill="#e0e0e0" stroke="#999999" points="496.38,-212 397.12,-212 397.12,-180 496.38,-180 496.38,-212"/>
<text xml:space="preserve" text-anchor="start" x="405.12" y="-198.5" font-family="Helvetica,sans-Serif" font-size="10.00">boost/serialization</text>
<text xml:space="preserve" text-anchor="middle" x="446.75" y="-186.5" font-family="Helvetica,sans-Serif" font-size="10.00">/array_wrapper.hpp</text>
</a>
</g>
</g>
<!-- Node6&#45;&gt;Node27 -->
<g id="edge31_Node000006_Node000027" class="edge">
<title>Node6&#45;&gt;Node27</title>
<g id="a_edge31_Node000006_Node000027"><a xlink:title=" ">
<path fill="none" stroke="#63b8ff" d="M701.09,-250.02C656.15,-242.13 581.38,-228.51 507.48,-212.31"/>
<polygon fill="#63b8ff" stroke="#63b8ff" points="508.59,-208.97 498.07,-210.22 507.08,-215.8 508.59,-208.97"/>
</a>
</g>
</g>
<!-- Node28 -->
<g id="Node000028" class="node">
<title>Node28</title>
<g id="a_Node000028"><a xlink:title=" ">
<polygon fill="#e0e0e0" stroke="#999999" points="666.62,-206 514.88,-206 514.88,-186 666.62,-186 666.62,-206"/>
<text xml:space="preserve" text-anchor="middle" x="590.75" y="-192.5" font-family="Helvetica,sans-Serif" font-size="10.00">boost/uuid/uuid_generators.hpp</text>
</a>
</g>
</g>
<!-- Node6&#45;&gt;Node28 -->
<g id="edge33_Node000006_Node000028" class="edge">
<title>Node6&#45;&gt;Node28</title>
<g id="a_edge33_Node000006_Node000028"><a xlink:title=" ">
<path fill="none" stroke="#63b8ff" d="M718.16,-247.62C693.11,-237.67 653.3,-221.85 624.85,-210.55"/>
<polygon fill="#63b8ff" stroke="#63b8ff" points="626.17,-207.31 615.58,-206.87 623.59,-213.81 626.17,-207.31"/>
</a>
</g>
</g>
<!-- Node29 -->
<g id="Node000029" class="node">
<title>Node29</title>
<g id="a_Node000029"><a xlink:title=" ">
<polygon fill="#e0e0e0" stroke="#999999" points="798.5,-206 685,-206 685,-186 798.5,-186 798.5,-206"/>
<text xml:space="preserve" text-anchor="middle" x="741.75" y="-192.5" font-family="Helvetica,sans-Serif" font-size="10.00">boost/uuid/uuid_io.hpp</text>
</a>
</g>
</g>
<!-- Node6&#45;&gt;Node29 -->
<g id="edge34_Node000006_Node000029" class="edge">
<title>Node6&#45;&gt;Node29</title>
<g id="a_edge34_Node000006_Node000029"><a xlink:title=" ">
<path fill="none" stroke="#63b8ff" d="M741.75,-247.62C741.75,-239.56 741.75,-227.65 741.75,-217.41"/>
<polygon fill="#63b8ff" stroke="#63b8ff" points="745.25,-217.63 741.75,-207.63 738.25,-217.63 745.25,-217.63"/>
</a>
</g>
</g>
<!-- Node30 -->
<g id="Node000030" class="node">
<title>Node30</title>
<g id="a_Node000030"><a xlink:title=" ">
<polygon fill="#e0e0e0" stroke="#999999" points="958.75,-206 816.75,-206 816.75,-186 958.75,-186 958.75,-206"/>
<text xml:space="preserve" text-anchor="middle" x="887.75" y="-192.5" font-family="Helvetica,sans-Serif" font-size="10.00">boost/uuid/uuid_serialize.hpp</text>
</a>
</g>
</g>
<!-- Node6&#45;&gt;Node30 -->
<g id="edge35_Node000006_Node000030" class="edge">
<title>Node6&#45;&gt;Node30</title>
<g id="a_edge35_Node000006_Node000030"><a xlink:title=" ">
<path fill="none" stroke="#63b8ff" d="M764.56,-247.62C788.78,-237.67 827.27,-221.85 854.78,-210.55"/>
<polygon fill="#63b8ff" stroke="#63b8ff" points="855.78,-213.92 863.7,-206.88 853.12,-207.45 855.78,-213.92"/>
</a>
</g>
</g>
<!-- Node8 -->
<g id="Node000008" class="node">
<title>Node8</title>
<g id="a_Node000008"><a xlink:href="model_2presistence_8hpp.html" target="_top" xlink:title=" ">
<polygon fill="white" stroke="#666666" points="889.25,-144 804.25,-144 804.25,-124 889.25,-124 889.25,-144"/>
<text xml:space="preserve" text-anchor="middle" x="846.75" y="-130.5" font-family="Helvetica,sans-Serif" font-size="10.00">presistence.hpp</text>
</a>
</g>
</g>
<!-- Node7&#45;&gt;Node8 -->
<g id="edge7_Node000007_Node000008" class="edge">
<title>Node7&#45;&gt;Node8</title>
<g id="a_edge7_Node000007_Node000008"><a xlink:title=" ">
<path fill="none" stroke="#63b8ff" d="M994.41,-185.62C964.96,-175.53 917.88,-159.39 884.82,-148.05"/>
<polygon fill="#63b8ff" stroke="#63b8ff" points="886.22,-144.83 875.62,-144.9 883.95,-151.45 886.22,-144.83"/>
</a>
</g>
</g>
<!-- Node10 -->
<g id="Node000010" class="node">
<title>Node10</title>
<g id="a_Node000010"><a xlink:title=" ">
<polygon fill="#e0e0e0" stroke="#999999" points="1061.12,-20 966.38,-20 966.38,0 1061.12,0 1061.12,-20"/>
<text xml:space="preserve" text-anchor="middle" x="1013.75" y="-6.5" font-family="Helvetica,sans-Serif" font-size="10.00">boost/pfr/core.hpp</text>
</a>
</g>
</g>
<!-- Node7&#45;&gt;Node10 -->
<g id="edge25_Node000007_Node000010" class="edge">
<title>Node7&#45;&gt;Node10</title>
<g id="a_edge25_Node000007_Node000010"><a xlink:title=" ">
<path fill="none" stroke="#63b8ff" d="M1024.38,-185.7C1027.1,-175.55 1031.18,-158.77 1032.75,-144 1037.02,-103.94 1026.88,-57.39 1019.83,-31.34"/>
<polygon fill="#63b8ff" stroke="#63b8ff" points="1023.21,-30.44 1017.11,-21.78 1016.48,-32.36 1023.21,-30.44"/>
</a>
</g>
</g>
<!-- Node11 -->
<g id="Node000011" class="node">
<title>Node11</title>
<g id="a_Node000011"><a xlink:title=" ">
<polygon fill="#e0e0e0" stroke="#999999" points="186.38,-20 147.12,-20 147.12,0 186.38,0 186.38,-20"/>
<text xml:space="preserve" text-anchor="middle" x="166.75" y="-6.5" font-family="Helvetica,sans-Serif" font-size="10.00">utility</text>
</a>
</g>
</g>
<!-- Node7&#45;&gt;Node11 -->
<g id="edge28_Node000007_Node000011" class="edge">
<title>Node7&#45;&gt;Node11</title>
<g id="a_edge28_Node000007_Node000011"><a xlink:title=" ">
<path fill="none" stroke="#63b8ff" d="M991.71,-185.56C983.97,-183.43 975.61,-181.39 967.75,-180 785.25,-147.63 259.91,-228.27 138.75,-88 124.22,-71.17 137.87,-46.19 150.71,-29.28"/>
<polygon fill="#63b8ff" stroke="#63b8ff" points="153.4,-31.52 157,-21.55 147.97,-27.1 153.4,-31.52"/>
</a>
</g>
</g>
<!-- Node23 -->
<g id="Node000023" class="node">
<title>Node23</title>
<g id="a_Node000023"><a xlink:href="concepts_8hpp.html" target="_top" xlink:title=" ">
<polygon fill="white" stroke="#666666" points="603,-144 528.5,-144 528.5,-124 603,-124 603,-144"/>
<text xml:space="preserve" text-anchor="middle" x="565.75" y="-130.5" font-family="Helvetica,sans-Serif" font-size="10.00">concepts.hpp</text>
</a>
</g>
</g>
<!-- Node7&#45;&gt;Node23 -->
<g id="edge23_Node000007_Node000023" class="edge">
<title>Node7&#45;&gt;Node23</title>
<g id="a_edge23_Node000007_Node000023"><a xlink:title=" ">
<path fill="none" stroke="#63b8ff" d="M991.11,-185.58C983.53,-183.5 975.39,-181.48 967.75,-180 841.67,-155.59 690.6,-143.09 614.56,-137.94"/>
<polygon fill="#63b8ff" stroke="#63b8ff" points="615.18,-134.48 604.97,-137.31 614.72,-141.46 615.18,-134.48"/>
</a>
</g>
</g>
<!-- Node24 -->
<g id="Node000024" class="node">
<title>Node24</title>
<g id="a_Node000024"><a xlink:title=" ">
<polygon fill="#e0e0e0" stroke="#999999" points="1023.62,-144 931.88,-144 931.88,-124 1023.62,-124 1023.62,-144"/>
<text xml:space="preserve" text-anchor="middle" x="977.75" y="-130.5" font-family="Helvetica,sans-Serif" font-size="10.00">boost/pfr/ops.hpp</text>
</a>
</g>
</g>
<!-- Node7&#45;&gt;Node24 -->
<g id="edge26_Node000007_Node000024" class="edge">
<title>Node7&#45;&gt;Node24</title>
<g id="a_edge26_Node000007_Node000024"><a xlink:title=" ">
<path fill="none" stroke="#63b8ff" d="M1014.88,-185.62C1008.51,-176.94 998.87,-163.8 991.01,-153.08"/>
<polygon fill="#63b8ff" stroke="#63b8ff" points="994.06,-151.33 985.33,-145.33 988.42,-155.47 994.06,-151.33"/>
</a>
</g>
</g>
<!-- Node7&#45;&gt;Node25 -->
<g id="edge27_Node000007_Node000025" class="edge">
<title>Node7&#45;&gt;Node25</title>
<g id="a_edge27_Node000007_Node000025"><a xlink:title=" ">
<path fill="none" stroke="#63b8ff" d="M992.31,-185.53C984.41,-183.35 975.82,-181.29 967.75,-180 620.67,-124.61 527.72,-176.51 177.75,-144 177.07,-143.94 176.38,-143.87 175.7,-143.8"/>
<polygon fill="#63b8ff" stroke="#63b8ff" points="176.18,-140.34 165.86,-142.73 175.42,-147.29 176.18,-140.34"/>
</a>
</g>
</g>
<!-- Node9 -->
<g id="Node000009" class="node">
<title>Node9</title>
<g id="a_Node000009"><a xlink:href="model__base__concepts_8hpp.html" target="_top" xlink:title=" ">
<polygon fill="white" stroke="#666666" points="279.88,-82 147.62,-82 147.62,-62 279.88,-62 279.88,-82"/>
<text xml:space="preserve" text-anchor="middle" x="213.75" y="-68.5" font-family="Helvetica,sans-Serif" font-size="10.00">model_base_concepts.hpp</text>
</a>
</g>
</g>
<!-- Node8&#45;&gt;Node9 -->
<g id="edge8_Node000008_Node000009" class="edge">
<title>Node8&#45;&gt;Node9</title>
<g id="a_edge8_Node000008_Node000009"><a xlink:title=" ">
<path fill="none" stroke="#63b8ff" d="M803.86,-131.25C710.07,-127.06 479.81,-114.72 288.75,-88 281.93,-87.05 274.79,-85.86 267.75,-84.58"/>
<polygon fill="#63b8ff" stroke="#63b8ff" points="268.4,-81.14 257.92,-82.72 267.1,-88.02 268.4,-81.14"/>
</a>
</g>
</g>
<!-- Node8&#45;&gt;Node10 -->
<g id="edge15_Node000008_Node000010" class="edge">
<title>Node8&#45;&gt;Node10</title>
<g id="a_edge15_Node000008_Node000010"><a xlink:title=" ">
<path fill="none" stroke="#63b8ff" d="M889.52,-124.88C927.87,-116.76 980.25,-103.3 994.75,-88 1009.01,-72.96 1013.07,-48.98 1013.99,-31.78"/>
<polygon fill="#63b8ff" stroke="#63b8ff" points="1017.49,-32.01 1014.18,-21.95 1010.49,-31.88 1017.49,-32.01"/>
</a>
</g>
</g>
<!-- Node12 -->
<g id="Node000012" class="node">
<title>Node12</title>
<g id="a_Node000012"><a xlink:href="str__conv_8hpp.html" target="_top" xlink:title=" ">
<polygon fill="white" stroke="#666666" points="1177.62,-82 1079.88,-82 1079.88,-62 1177.62,-62 1177.62,-82"/>
<text xml:space="preserve" text-anchor="middle" x="1128.75" y="-68.5" font-family="Helvetica,sans-Serif" font-size="10.00">utility/str_conv.hpp</text>
</a>
</g>
</g>
<!-- Node8&#45;&gt;Node12 -->
<g id="edge11_Node000008_Node000012" class="edge">
<title>Node8&#45;&gt;Node12</title>
<g id="a_edge11_Node000008_Node000012"><a xlink:title=" ">
<path fill="none" stroke="#63b8ff" d="M889.58,-123.89C938.63,-113.45 1019.15,-96.32 1073.04,-84.85"/>
<polygon fill="#63b8ff" stroke="#63b8ff" points="1073.58,-88.32 1082.64,-82.81 1072.13,-81.47 1073.58,-88.32"/>
</a>
</g>
</g>
<!-- Node15 -->
<g id="Node000015" class="node">
<title>Node15</title>
<g id="a_Node000015"><a xlink:title=" ">
<polygon fill="#e0e0e0" stroke="#999999" points="403.38,-88 298.12,-88 298.12,-56 403.38,-56 403.38,-88"/>
<text xml:space="preserve" text-anchor="start" x="306.12" y="-74.5" font-family="Helvetica,sans-Serif" font-size="10.00">boost/archive/basic</text>
<text xml:space="preserve" text-anchor="middle" x="350.75" y="-62.5" font-family="Helvetica,sans-Serif" font-size="10.00">_binary_iarchive.hpp</text>
</a>
</g>
</g>
<!-- Node8&#45;&gt;Node15 -->
<g id="edge14_Node000008_Node000015" class="edge">
<title>Node8&#45;&gt;Node15</title>
<g id="a_edge14_Node000008_Node000015"><a xlink:title=" ">
<path fill="none" stroke="#63b8ff" d="M803.98,-130.47C727.76,-125.56 563.26,-113.09 414.86,-88.21"/>
<polygon fill="#63b8ff" stroke="#63b8ff" points="415.69,-84.8 405.24,-86.57 414.52,-91.7 415.69,-84.8"/>
</a>
</g>
</g>
<!-- Node8&#45;&gt;Node16 -->
<g id="edge16_Node000008_Node000016" class="edge">
<title>Node8&#45;&gt;Node16</title>
<g id="a_edge16_Node000008_Node000016"><a xlink:title=" ">
<path fill="none" stroke="#63b8ff" d="M889.63,-127.64C967.87,-117.82 1130.08,-97.26 1183.71,-88.28"/>
<polygon fill="#63b8ff" stroke="#63b8ff" points="1184.18,-91.75 1193.4,-86.53 1182.93,-84.86 1184.18,-91.75"/>
</a>
</g>
</g>
<!-- Node17 -->
<g id="Node000017" class="node">
<title>Node17</title>
<g id="a_Node000017"><a xlink:title=" ">
<polygon fill="#e0e0e0" stroke="#999999" points="516.12,-88 421.38,-88 421.38,-56 516.12,-56 516.12,-88"/>
<text xml:space="preserve" text-anchor="start" x="429.38" y="-74.5" font-family="Helvetica,sans-Serif" font-size="10.00">boost/serialization</text>
<text xml:space="preserve" text-anchor="middle" x="468.75" y="-62.5" font-family="Helvetica,sans-Serif" font-size="10.00">/optional.hpp</text>
</a>
</g>
</g>
<!-- Node8&#45;&gt;Node17 -->
<g id="edge17_Node000008_Node000017" class="edge">
<title>Node8&#45;&gt;Node17</title>
<g id="a_edge17_Node000008_Node000017"><a xlink:title=" ">
<path fill="none" stroke="#63b8ff" d="M803.9,-128.62C744.21,-122.17 632.48,-108.8 527.65,-88.23"/>
<polygon fill="#63b8ff" stroke="#63b8ff" points="528.52,-84.83 518.03,-86.31 527.16,-91.7 528.52,-84.83"/>
</a>
</g>
</g>
<!-- Node18 -->
<g id="Node000018" class="node">
<title>Node18</title>
<g id="a_Node000018"><a xlink:title=" ">
<polygon fill="#e0e0e0" stroke="#999999" points="639,-88 534.5,-88 534.5,-56 639,-56 639,-88"/>
<text xml:space="preserve" text-anchor="start" x="542.5" y="-74.5" font-family="Helvetica,sans-Serif" font-size="10.00">boost/serialization</text>
<text xml:space="preserve" text-anchor="middle" x="586.75" y="-62.5" font-family="Helvetica,sans-Serif" font-size="10.00">/unordered_map.hpp</text>
</a>
</g>
</g>
<!-- Node8&#45;&gt;Node18 -->
<g id="edge18_Node000008_Node000018" class="edge">
<title>Node8&#45;&gt;Node18</title>
<g id="a_edge18_Node000008_Node000018"><a xlink:title=" ">
<path fill="none" stroke="#63b8ff" d="M804,-123.57C766.02,-115.15 708.74,-102.31 650.24,-88.57"/>
<polygon fill="#63b8ff" stroke="#63b8ff" points="651.32,-85.22 640.78,-86.34 649.71,-92.04 651.32,-85.22"/>
</a>
</g>
</g>
<!-- Node19 -->
<g id="Node000019" class="node">
<title>Node19</title>
<g id="a_Node000019"><a xlink:title=" ">
<polygon fill="#e0e0e0" stroke="#999999" points="756.38,-88 657.12,-88 657.12,-56 756.38,-56 756.38,-88"/>
<text xml:space="preserve" text-anchor="start" x="665.12" y="-74.5" font-family="Helvetica,sans-Serif" font-size="10.00">boost/serialization</text>
<text xml:space="preserve" text-anchor="middle" x="706.75" y="-62.5" font-family="Helvetica,sans-Serif" font-size="10.00">/unordered_set.hpp</text>
</a>
</g>
</g>
<!-- Node8&#45;&gt;Node19 -->
<g id="edge19_Node000008_Node000019" class="edge">
<title>Node8&#45;&gt;Node19</title>
<g id="a_edge19_Node000008_Node000019"><a xlink:title=" ">
<path fill="none" stroke="#63b8ff" d="M824.88,-123.62C805.78,-115.44 777.43,-103.29 753.29,-92.95"/>
<polygon fill="#63b8ff" stroke="#63b8ff" points="754.86,-89.81 744.29,-89.09 752.1,-96.24 754.86,-89.81"/>
</a>
</g>
</g>
<!-- Node20 -->
<g id="Node000020" class="node">
<title>Node20</title>
<g id="a_Node000020"><a xlink:title=" ">
<polygon fill="#e0e0e0" stroke="#999999" points="869.12,-88 774.38,-88 774.38,-56 869.12,-56 869.12,-88"/>
<text xml:space="preserve" text-anchor="start" x="782.38" y="-74.5" font-family="Helvetica,sans-Serif" font-size="10.00">boost/serialization</text>
<text xml:space="preserve" text-anchor="middle" x="821.75" y="-62.5" font-family="Helvetica,sans-Serif" font-size="10.00">/vector.hpp</text>
</a>
</g>
</g>
<!-- Node8&#45;&gt;Node20 -->
<g id="edge20_Node000008_Node000020" class="edge">
<title>Node8&#45;&gt;Node20</title>
<g id="a_edge20_Node000008_Node000020"><a xlink:title=" ">
<path fill="none" stroke="#63b8ff" d="M842.84,-123.62C840.03,-116.88 836.1,-107.43 832.38,-98.52"/>
<polygon fill="#63b8ff" stroke="#63b8ff" points="835.72,-97.42 828.64,-89.54 829.26,-100.11 835.72,-97.42"/>
</a>
</g>
</g>
<!-- Node21 -->
<g id="Node000021" class="node">
<title>Node21</title>
<g id="a_Node000021"><a xlink:title=" ">
<polygon fill="#e0e0e0" stroke="#999999" points="930.62,-82 886.88,-82 886.88,-62 930.62,-62 930.62,-82"/>
<text xml:space="preserve" text-anchor="middle" x="908.75" y="-68.5" font-family="Helvetica,sans-Serif" font-size="10.00">format</text>
</a>
</g>
</g>
<!-- Node8&#45;&gt;Node21 -->
<g id="edge21_Node000008_Node000021" class="edge">
<title>Node8&#45;&gt;Node21</title>
<g id="a_edge21_Node000008_Node000021"><a xlink:title=" ">
<path fill="none" stroke="#63b8ff" d="M856.44,-123.62C865.68,-114.68 879.83,-100.99 891.08,-90.1"/>
<polygon fill="#63b8ff" stroke="#63b8ff" points="893.49,-92.63 898.25,-83.17 888.63,-87.6 893.49,-92.63"/>
</a>
</g>
</g>
<!-- Node22 -->
<g id="Node000022" class="node">
<title>Node22</title>
<g id="a_Node000022"><a xlink:title=" ">
<polygon fill="#e0e0e0" stroke="#999999" points="985.25,-82 948.25,-82 948.25,-62 985.25,-62 985.25,-82"/>
<text xml:space="preserve" text-anchor="middle" x="966.75" y="-68.5" font-family="Helvetica,sans-Serif" font-size="10.00">tuple</text>
</a>
</g>
</g>
<!-- Node8&#45;&gt;Node22 -->
<g id="edge22_Node000008_Node000022" class="edge">
<title>Node8&#45;&gt;Node22</title>
<g id="a_edge22_Node000008_Node000022"><a xlink:title=" ">
<path fill="none" stroke="#63b8ff" d="M866.87,-123.67C885.81,-114.78 914.92,-100.89 939.75,-88 939.96,-87.89 940.18,-87.78 940.39,-87.66"/>
<polygon fill="#63b8ff" stroke="#63b8ff" points="941.79,-90.89 948.93,-83.07 938.47,-84.73 941.79,-90.89"/>
</a>
</g>
</g>
<!-- Node9&#45;&gt;Node10 -->
<g id="edge9_Node000009_Node000010" class="edge">
<title>Node9&#45;&gt;Node10</title>
<g id="a_edge9_Node000009_Node000010"><a xlink:title=" ">
<path fill="none" stroke="#63b8ff" d="M256.02,-61.5C266.66,-59.4 278.08,-57.39 288.75,-56 534.67,-23.93 830.6,-14.57 954.58,-11.96"/>
<polygon fill="#63b8ff" stroke="#63b8ff" points="954.59,-15.46 964.52,-11.76 954.45,-8.46 954.59,-15.46"/>
</a>
</g>
</g>
<!-- Node9&#45;&gt;Node11 -->
<g id="edge10_Node000009_Node000011" class="edge">
<title>Node9&#45;&gt;Node11</title>
<g id="a_edge10_Node000009_Node000011"><a xlink:title=" ">
<path fill="none" stroke="#63b8ff" d="M206.41,-61.62C199.61,-52.94 189.31,-39.8 180.91,-29.08"/>
<polygon fill="#63b8ff" stroke="#63b8ff" points="183.74,-27.02 174.82,-21.3 178.23,-31.33 183.74,-27.02"/>
</a>
</g>
</g>
<!-- Node12&#45;&gt;Node13 -->
<g id="edge12_Node000012_Node000013" class="edge">
<title>Node12&#45;&gt;Node13</title>
<g id="a_edge12_Node000012_Node000013"><a xlink:title=" ">
<path fill="none" stroke="#63b8ff" d="M1158.28,-61.62C1193.22,-50.53 1251.14,-32.15 1286.72,-20.85"/>
<polygon fill="#63b8ff" stroke="#63b8ff" points="1287.52,-24.27 1295.99,-17.91 1285.4,-17.6 1287.52,-24.27"/>
</a>
</g>
</g>
<!-- Node14 -->
<g id="Node000014" class="node">
<title>Node14</title>
<g id="a_Node000014"><a xlink:title=" ">
<polygon fill="#e0e0e0" stroke="#999999" points="1161.5,-20 1096,-20 1096,0 1161.5,0 1161.5,-20"/>
<text xml:space="preserve" text-anchor="middle" x="1128.75" y="-6.5" font-family="Helvetica,sans-Serif" font-size="10.00">string_view</text>
</a>
</g>
</g>
<!-- Node12&#45;&gt;Node14 -->
<g id="edge13_Node000012_Node000014" class="edge">
<title>Node12&#45;&gt;Node14</title>
<g id="a_edge13_Node000012_Node000014"><a xlink:title=" ">
<path fill="none" stroke="#63b8ff" d="M1128.75,-61.62C1128.75,-53.56 1128.75,-41.65 1128.75,-31.41"/>
<polygon fill="#63b8ff" stroke="#63b8ff" points="1132.25,-31.63 1128.75,-21.63 1125.25,-31.63 1132.25,-31.63"/>
</a>
</g>
</g>
<!-- Node23&#45;&gt;Node9 -->
<g id="edge24_Node000023_Node000009" class="edge">
<title>Node23&#45;&gt;Node9</title>
<g id="a_edge24_Node000023_Node000009"><a xlink:title=" ">
<path fill="none" stroke="#63b8ff" d="M528.04,-127.32C474.67,-119.18 374.08,-103.46 288.75,-88 282.87,-86.93 276.74,-85.78 270.63,-84.6"/>
<polygon fill="#63b8ff" stroke="#63b8ff" points="271.68,-81.24 261.19,-82.76 270.34,-88.11 271.68,-81.24"/>
</a>
</g>
</g>
<!-- Node31&#45;&gt;Node7 -->
<g id="edge37_Node000031_Node000007" class="edge">
<title>Node31&#45;&gt;Node7</title>
<g id="a_edge37_Node000031_Node000007"><a xlink:title=" ">
<path fill="none" stroke="#63b8ff" d="M239.05,-307.95C254.19,-306.61 270.6,-305.21 285.75,-304 510.05,-286.11 569.56,-309.32 790.75,-268 862.04,-254.68 942.37,-226.98 987.03,-210.39"/>
<polygon fill="#63b8ff" stroke="#63b8ff" points="988.04,-213.75 996.18,-206.96 985.58,-207.2 988.04,-213.75"/>
</a>
</g>
</g>
<!-- Node31&#45;&gt;Node32 -->
<g id="edge38_Node000031_Node000032" class="edge">
<title>Node31&#45;&gt;Node32</title>
<g id="a_edge38_Node000031_Node000032"><a xlink:title=" ">
<path fill="none" stroke="#63b8ff" d="M176.43,-303.59C170.77,-296.32 162.76,-286.02 155.86,-277.15"/>
<polygon fill="#63b8ff" stroke="#63b8ff" points="158.81,-275.24 149.91,-269.49 153.29,-279.54 158.81,-275.24"/>
</a>
</g>
</g>
<!-- Node32&#45;&gt;Node3 -->
<g id="edge39_Node000032_Node000003" class="edge">
<title>Node32&#45;&gt;Node3</title>
<g id="a_edge39_Node000032_Node000003"><a xlink:title=" ">
<path fill="none" stroke="#63b8ff" d="M129.41,-247.62C117.23,-238.38 98.39,-224.07 83.84,-213.01"/>
<polygon fill="#63b8ff" stroke="#63b8ff" points="86.29,-210.49 76.21,-207.22 82.06,-216.06 86.29,-210.49"/>
</a>
</g>
</g>
<!-- Node39&#45;&gt;Node7 -->
<g id="edge50_Node000039_Node000007" class="edge">
<title>Node39&#45;&gt;Node7</title>
<g id="a_edge50_Node000039_Node000007"><a xlink:title=" ">
<path fill="none" stroke="#63b8ff" d="M1218.09,-247.56C1178,-237.24 1113.62,-220.66 1069.59,-209.32"/>
<polygon fill="#63b8ff" stroke="#63b8ff" points="1070.61,-205.97 1060.05,-206.86 1068.86,-212.75 1070.61,-205.97"/>
</a>
</g>
</g>
<!-- Node40&#45;&gt;Node2 -->
<g id="edge54_Node000040_Node000002" class="edge">
<title>Node40&#45;&gt;Node2</title>
<g id="a_edge54_Node000040_Node000002"><a xlink:title=" ">
<path fill="none" stroke="#63b8ff" d="M631.11,-427.56C591.7,-418.83 532.09,-405.64 483.66,-394.91"/>
<polygon fill="#63b8ff" stroke="#63b8ff" points="484.56,-391.53 474.04,-392.78 483.04,-398.36 484.56,-391.53"/>
</a>
</g>
</g>
<!-- Node40&#45;&gt;Node4 -->
<g id="edge55_Node000040_Node000004" class="edge">
<title>Node40&#45;&gt;Node4</title>
<g id="a_edge55_Node000040_Node000004"><a xlink:title=" ">
<path fill="none" stroke="#63b8ff" d="M682.19,-427.62C688.73,-420.36 698.09,-409.96 706.62,-400.48"/>
<polygon fill="#63b8ff" stroke="#63b8ff" points="709.02,-403.04 713.11,-393.27 703.82,-398.36 709.02,-403.04"/>
</a>
</g>
</g>
<!-- Node41 -->
<g id="Node000041" class="node">
<title>Node41</title>
<g id="a_Node000041"><a xlink:href="command__kind_8hpp.html" target="_top" xlink:title=" ">
<polygon fill="white" stroke="#666666" points="637.88,-392 493.62,-392 493.62,-360 637.88,-360 637.88,-392"/>
<text xml:space="preserve" text-anchor="start" x="501.62" y="-378.5" font-family="Helvetica,sans-Serif" font-size="10.00">core/domain/model/command</text>
<text xml:space="preserve" text-anchor="middle" x="565.75" y="-366.5" font-family="Helvetica,sans-Serif" font-size="10.00">/command_kind.hpp</text>
</a>
</g>
</g>
<!-- Node40&#45;&gt;Node41 -->
<g id="edge52_Node000040_Node000041" class="edge">
<title>Node40&#45;&gt;Node41</title>
<g id="a_edge52_Node000040_Node000041"><a xlink:title=" ">
<path fill="none" stroke="#63b8ff" d="M656.88,-427.62C642.63,-419.71 621.69,-408.08 603.48,-397.96"/>
<polygon fill="#63b8ff" stroke="#63b8ff" points="605.19,-394.91 594.75,-393.11 601.79,-401.02 605.19,-394.91"/>
</a>
</g>
</g>
<!-- Node41&#45;&gt;Node3 -->
<g id="edge53_Node000041_Node000003" class="edge">
<title>Node41&#45;&gt;Node3</title>
<g id="a_edge53_Node000041_Node000003"><a xlink:title=" ">
<path fill="none" stroke="#63b8ff" d="M493.38,-361.27C490.47,-360.82 487.58,-360.4 484.75,-360 401.85,-348.37 178.78,-371.37 109.75,-324 74.8,-300.01 65.76,-246.81 63.48,-217.45"/>
<polygon fill="#63b8ff" stroke="#63b8ff" points="66.99,-217.45 62.93,-207.66 60,-217.84 66.99,-217.45"/>
</a>
</g>
</g>
</g>
</svg>
