<?xml version="1.0" encoding="UTF-8" standalone="no"?>
<!DOCTYPE svg PUBLIC "-//W3C//DTD SVG 1.1//EN"
 "http://www.w3.org/Graphics/SVG/1.1/DTD/svg11.dtd">
<!-- Generated by graphviz version 14.1.2 (20260124.0452)
 -->
<!-- Title: depicture_menu/src/core/domain/model/command/buildin/shellexecute_command_parameter.hpp Pages: 1 -->
<svg width="1260pt" height="236pt"
 viewBox="0.00 0.00 1260.00 236.00" xmlns="http://www.w3.org/2000/svg" xmlns:xlink="http://www.w3.org/1999/xlink">
<g id="graph0" class="graph" transform="scale(1 1) rotate(0) translate(4 232)">
<title>depicture_menu/src/core/domain/model/command/buildin/shellexecute_command_parameter.hpp</title>
<!-- Node1 -->
<g id="Node000001" class="node">
<title>Node1</title>
<g id="a_Node000001"><a xlink:title=" ">
<polygon fill="#999999" stroke="#666666" points="815,-228 662.5,-228 662.5,-172 815,-172 815,-228"/>
<text xml:space="preserve" text-anchor="start" x="670.5" y="-214.5" font-family="Helvetica,sans-Serif" font-size="10.00">depicture_menu/src</text>
<text xml:space="preserve" text-anchor="start" x="670.5" y="-202.5" font-family="Helvetica,sans-Serif" font-size="10.00">/core/domain/model/command</text>
<text xml:space="preserve" text-anchor="start" x="670.5" y="-190.5" font-family="Helvetica,sans-Serif" font-size="10.00">/buildin/shellexecute_command</text>
<text xml:space="preserve" text-anchor="middle" x="738.75" y="-178.5" font-family="Helvetica,sans-Serif" font-size="10.00">_parameter.hpp</text>
</a>
</g>
</g>
<!-- Node2 -->
<g id="Node000002" class="node">
<title>Node2</title>
<g id="a_Node000002"><a xlink:href="common__action__builder_8hpp.html" target="_top" xlink:title=" ">
<polygon fill="white" stroke="#666666" points="274,-130 133.5,-130 133.5,-86 274,-86 274,-130"/>
<text xml:space="preserve" text-anchor="start" x="141.5" y="-116.5" font-family="Helvetica,sans-Serif" font-size="10.00">depicture_menu/src</text>
<text xml:space="preserve" text-anchor="start" x="141.5" y="-104.5" font-family="Helvetica,sans-Serif" font-size="10.00">/core/domain/service</text>
<text xml:space="preserve" text-anchor="middle" x="203.75" y="-92.5" font-family="Helvetica,sans-Serif" font-size="10.00">/common_action_builder.hpp</text>
</a>
</g>
</g>
<!-- Node1&#45;&gt;Node2 -->
<g id="edge1_Node000001_Node000002" class="edge">
<title>Node1&#45;&gt;Node2</title>
<g id="a_edge1_Node000001_Node000002"><a xlink:title=" ">
<path fill="none" stroke="#63b8ff" d="M650.81,-191.9C558.29,-183.26 408.89,-165.98 282.75,-136 276.12,-134.43 269.27,-132.52 262.49,-130.45"/>
<polygon fill="#63b8ff" stroke="#63b8ff" points="650.29,-195.37 660.57,-192.8 650.93,-188.4 650.29,-195.37"/>
</a>
</g>
</g>
<!-- Node6 -->
<g id="Node000006" class="node">
<title>Node6</title>
<g id="a_Node000006"><a xlink:href="change__common__command_8cpp.html" target="_top" xlink:title=" ">
<polygon fill="white" stroke="#666666" points="477.5,-130 292,-130 292,-86 477.5,-86 477.5,-130"/>
<text xml:space="preserve" text-anchor="start" x="300" y="-116.5" font-family="Helvetica,sans-Serif" font-size="10.00">depicture_menu/src</text>
<text xml:space="preserve" text-anchor="start" x="300" y="-104.5" font-family="Helvetica,sans-Serif" font-size="10.00">/core/usecase/config</text>
<text xml:space="preserve" text-anchor="middle" x="384.75" y="-92.5" font-family="Helvetica,sans-Serif" font-size="10.00">_view/change_common_command.cpp</text>
</a>
</g>
</g>
<!-- Node1&#45;&gt;Node6 -->
<g id="edge5_Node000001_Node000006" class="edge">
<title>Node1&#45;&gt;Node6</title>
<g id="a_edge5_Node000001_Node000006"><a xlink:title=" ">
<path fill="none" stroke="#63b8ff" d="M650.95,-177.37C602.49,-165.34 541.25,-150.02 486.75,-136 479.83,-134.22 472.65,-132.35 465.46,-130.47"/>
<polygon fill="#63b8ff" stroke="#63b8ff" points="650.02,-180.74 660.57,-179.75 651.7,-173.95 650.02,-180.74"/>
</a>
</g>
</g>
<!-- Node7 -->
<g id="Node000007" class="node">
<title>Node7</title>
<g id="a_Node000007"><a xlink:href="change__menu__item_8cpp.html" target="_top" xlink:title="change_menu_item 実装">
<polygon fill="white" stroke="#666666" points="643.75,-130 495.75,-130 495.75,-86 643.75,-86 643.75,-130"/>
<text xml:space="preserve" text-anchor="start" x="503.75" y="-116.5" font-family="Helvetica,sans-Serif" font-size="10.00">depicture_menu/src</text>
<text xml:space="preserve" text-anchor="start" x="503.75" y="-104.5" font-family="Helvetica,sans-Serif" font-size="10.00">/core/usecase/config</text>
<text xml:space="preserve" text-anchor="middle" x="569.75" y="-92.5" font-family="Helvetica,sans-Serif" font-size="10.00">_view/change_menu_item.cpp</text>
</a>
</g>
</g>
<!-- Node1&#45;&gt;Node7 -->
<g id="edge6_Node000001_Node000007" class="edge">
<title>Node1&#45;&gt;Node7</title>
<g id="a_edge6_Node000001_Node000007"><a xlink:title=" ">
<path fill="none" stroke="#63b8ff" d="M677.05,-166.14C654.72,-154.25 630.09,-141.14 610.07,-130.47"/>
<polygon fill="#63b8ff" stroke="#63b8ff" points="675.32,-169.19 685.79,-170.8 678.61,-163.01 675.32,-169.19"/>
</a>
</g>
</g>
<!-- Node8 -->
<g id="Node000008" class="node">
<title>Node8</title>
<g id="a_Node000008"><a xlink:href="update__menu__config_8cpp.html" target="_top" xlink:title=" ">
<polygon fill="white" stroke="#666666" points="815.38,-130 662.12,-130 662.12,-86 815.38,-86 815.38,-130"/>
<text xml:space="preserve" text-anchor="start" x="670.12" y="-116.5" font-family="Helvetica,sans-Serif" font-size="10.00">depicture_menu/src</text>
<text xml:space="preserve" text-anchor="start" x="670.12" y="-104.5" font-family="Helvetica,sans-Serif" font-size="10.00">/core/usecase/config</text>
<text xml:space="preserve" text-anchor="middle" x="738.75" y="-92.5" font-family="Helvetica,sans-Serif" font-size="10.00">_view/update_menu_config.cpp</text>
</a>
</g>
</g>
<!-- Node1&#45;&gt;Node8 -->
<g id="edge7_Node000001_Node000008" class="edge">
<title>Node1&#45;&gt;Node8</title>
<g id="a_edge7_Node000001_Node000008"><a xlink:title=" ">
<path fill="none" stroke="#63b8ff" d="M738.75,-160.23C738.75,-149.98 738.75,-139.28 738.75,-130.33"/>
<polygon fill="#63b8ff" stroke="#63b8ff" points="735.25,-159.99 738.75,-169.99 742.25,-159.99 735.25,-159.99"/>
</a>
</g>
</g>
<!-- Node9 -->
<g id="Node000009" class="node">
<title>Node9</title>
<g id="a_Node000009"><a xlink:href="test__action_8cpp.html" target="_top" xlink:title=" ">
<polygon fill="white" stroke="#666666" points="964.12,-130 833.38,-130 833.38,-86 964.12,-86 964.12,-130"/>
<text xml:space="preserve" text-anchor="start" x="841.38" y="-116.5" font-family="Helvetica,sans-Serif" font-size="10.00">depicture_menu/test</text>
<text xml:space="preserve" text-anchor="start" x="841.38" y="-104.5" font-family="Helvetica,sans-Serif" font-size="10.00">/core/domain/model/action</text>
<text xml:space="preserve" text-anchor="middle" x="898.75" y="-92.5" font-family="Helvetica,sans-Serif" font-size="10.00">/test_action.cpp</text>
</a>
</g>
</g>
<!-- Node1&#45;&gt;Node9 -->
<g id="edge8_Node000001_Node000009" class="edge">
<title>Node1&#45;&gt;Node9</title>
<g id="a_edge8_Node000001_Node000009"><a xlink:title=" ">
<path fill="none" stroke="#63b8ff" d="M797.45,-165.98C818.51,-154.13 841.7,-141.09 860.58,-130.47"/>
<polygon fill="#63b8ff" stroke="#63b8ff" points="795.94,-162.81 788.94,-170.77 799.38,-168.91 795.94,-162.81"/>
</a>
</g>
</g>
<!-- Node10 -->
<g id="Node000010" class="node">
<title>Node10</title>
<g id="a_Node000010"><a xlink:href="test__create__action__domain__service_8cpp.html" target="_top" xlink:title=" ">
<polygon fill="white" stroke="#666666" points="1117.75,-136 981.75,-136 981.75,-80 1117.75,-80 1117.75,-136"/>
<text xml:space="preserve" text-anchor="start" x="989.75" y="-122.5" font-family="Helvetica,sans-Serif" font-size="10.00">depicture_menu/test</text>
<text xml:space="preserve" text-anchor="start" x="989.75" y="-110.5" font-family="Helvetica,sans-Serif" font-size="10.00">/core/domain/service</text>
<text xml:space="preserve" text-anchor="start" x="989.75" y="-98.5" font-family="Helvetica,sans-Serif" font-size="10.00">/test_create_action_domain</text>
<text xml:space="preserve" text-anchor="middle" x="1049.75" y="-86.5" font-family="Helvetica,sans-Serif" font-size="10.00">_service.cpp</text>
</a>
</g>
</g>
<!-- Node1&#45;&gt;Node10 -->
<g id="edge9_Node000001_Node000010" class="edge">
<title>Node1&#45;&gt;Node10</title>
<g id="a_edge9_Node000001_Node000010"><a xlink:title=" ">
<path fill="none" stroke="#63b8ff" d="M826.3,-177.08C870.44,-165.61 924.68,-150.88 972.75,-136 975.59,-135.12 978.49,-134.2 981.4,-133.26"/>
<polygon fill="#63b8ff" stroke="#63b8ff" points="825.57,-173.65 816.77,-179.54 827.33,-180.43 825.57,-173.65"/>
</a>
</g>
</g>
<!-- Node11 -->
<g id="Node000011" class="node">
<title>Node11</title>
<g id="a_Node000011"><a xlink:href="test__create__command__domain__service_8cpp.html" target="_top" xlink:title=" ">
<polygon fill="white" stroke="#666666" points="1251.62,-136 1135.88,-136 1135.88,-80 1251.62,-80 1251.62,-136"/>
<text xml:space="preserve" text-anchor="start" x="1143.88" y="-122.5" font-family="Helvetica,sans-Serif" font-size="10.00">depicture_menu/test</text>
<text xml:space="preserve" text-anchor="start" x="1143.88" y="-110.5" font-family="Helvetica,sans-Serif" font-size="10.00">/core/domain/service</text>
<text xml:space="preserve" text-anchor="start" x="1143.88" y="-98.5" font-family="Helvetica,sans-Serif" font-size="10.00">/test_create_command</text>
<text xml:space="preserve" text-anchor="middle" x="1193.75" y="-86.5" font-family="Helvetica,sans-Serif" font-size="10.00">_domain_service.cpp</text>
</a>
</g>
</g>
<!-- Node1&#45;&gt;Node11 -->
<g id="edge10_Node000001_Node000011" class="edge">
<title>Node1&#45;&gt;Node11</title>
<g id="a_edge10_Node000001_Node000011"><a xlink:title=" ">
<path fill="none" stroke="#63b8ff" d="M826.72,-190.36C906.15,-181.23 1025.72,-164.18 1126.75,-136 1129.65,-135.19 1132.59,-134.3 1135.55,-133.34"/>
<polygon fill="#63b8ff" stroke="#63b8ff" points="826.35,-186.88 816.8,-191.48 827.13,-193.83 826.35,-186.88"/>
</a>
</g>
</g>
<!-- Node3 -->
<g id="Node000003" class="node">
<title>Node3</title>
<g id="a_Node000003"><a xlink:href="add__new__menu_8cpp.html" target="_top" xlink:title=" ">
<polygon fill="white" stroke="#666666" points="131.5,-44 0,-44 0,0 131.5,0 131.5,-44"/>
<text xml:space="preserve" text-anchor="start" x="8" y="-30.5" font-family="Helvetica,sans-Serif" font-size="10.00">depicture_menu/src</text>
<text xml:space="preserve" text-anchor="start" x="8" y="-18.5" font-family="Helvetica,sans-Serif" font-size="10.00">/core/usecase/config</text>
<text xml:space="preserve" text-anchor="middle" x="65.75" y="-6.5" font-family="Helvetica,sans-Serif" font-size="10.00">_view/add_new_menu.cpp</text>
</a>
</g>
</g>
<!-- Node2&#45;&gt;Node3 -->
<g id="edge2_Node000002_Node000003" class="edge">
<title>Node2&#45;&gt;Node3</title>
<g id="a_edge2_Node000002_Node000003"><a xlink:title=" ">
<path fill="none" stroke="#63b8ff" d="M158.74,-79.6C139.95,-68.17 118.46,-55.08 100.87,-44.37"/>
<polygon fill="#63b8ff" stroke="#63b8ff" points="156.92,-82.59 167.28,-84.8 160.55,-76.61 156.92,-82.59"/>
</a>
</g>
</g>
<!-- Node4 -->
<g id="Node000004" class="node">
<title>Node4</title>
<g id="a_Node000004"><a xlink:href="deploy__default__setting_8cpp.html" target="_top" xlink:title=" ">
<polygon fill="white" stroke="#666666" points="258.25,-44 149.25,-44 149.25,0 258.25,0 258.25,-44"/>
<text xml:space="preserve" text-anchor="start" x="157.25" y="-30.5" font-family="Helvetica,sans-Serif" font-size="10.00">depicture_menu/src</text>
<text xml:space="preserve" text-anchor="start" x="157.25" y="-18.5" font-family="Helvetica,sans-Serif" font-size="10.00">/core/usecase/deploy</text>
<text xml:space="preserve" text-anchor="middle" x="203.75" y="-6.5" font-family="Helvetica,sans-Serif" font-size="10.00">_default_setting.cpp</text>
</a>
</g>
</g>
<!-- Node2&#45;&gt;Node4 -->
<g id="edge3_Node000002_Node000004" class="edge">
<title>Node2&#45;&gt;Node4</title>
<g id="a_edge3_Node000002_Node000004"><a xlink:title=" ">
<path fill="none" stroke="#63b8ff" d="M203.75,-74.49C203.75,-64.43 203.75,-53.6 203.75,-44.48"/>
<polygon fill="#63b8ff" stroke="#63b8ff" points="200.25,-74.29 203.75,-84.29 207.25,-74.29 200.25,-74.29"/>
</a>
</g>
</g>
<!-- Node5 -->
<g id="Node000005" class="node">
<title>Node5</title>
<g id="a_Node000005"><a xlink:href="test__common__action__builder_8cpp.html" target="_top" xlink:title=" ">
<polygon fill="white" stroke="#666666" points="438.88,-44 276.62,-44 276.62,0 438.88,0 438.88,-44"/>
<text xml:space="preserve" text-anchor="start" x="284.62" y="-30.5" font-family="Helvetica,sans-Serif" font-size="10.00">depicture_menu/test</text>
<text xml:space="preserve" text-anchor="start" x="284.62" y="-18.5" font-family="Helvetica,sans-Serif" font-size="10.00">/core/domain/service</text>
<text xml:space="preserve" text-anchor="middle" x="357.75" y="-6.5" font-family="Helvetica,sans-Serif" font-size="10.00">/test_common_action_builder.cpp</text>
</a>
</g>
</g>
<!-- Node2&#45;&gt;Node5 -->
<g id="edge4_Node000002_Node000005" class="edge">
<title>Node2&#45;&gt;Node5</title>
<g id="a_edge4_Node000002_Node000005"><a xlink:title=" ">
<path fill="none" stroke="#63b8ff" d="M253.11,-80.08C274.28,-68.53 298.66,-55.23 318.56,-44.37"/>
<polygon fill="#63b8ff" stroke="#63b8ff" points="251.44,-77 244.34,-84.86 254.79,-83.15 251.44,-77"/>
</a>
</g>
</g>
</g>
</svg>
