<?xml version="1.0" encoding="UTF-8" standalone="no"?>
<!DOCTYPE svg PUBLIC "-//W3C//DTD SVG 1.1//EN"
 "http://www.w3.org/Graphics/SVG/1.1/DTD/svg11.dtd">
<!-- Generated by graphviz version 14.1.2 (20260124.0452)
 -->
<!-- Title: depicture_menu::domain::menu::radialmenu::items Pages: 1 -->
<svg width="939pt" height="345pt"
 viewBox="0.00 0.00 939.00 345.00" xmlns="http://www.w3.org/2000/svg" xmlns:xlink="http://www.w3.org/1999/xlink">
<g id="graph0" class="graph" transform="scale(1 1) rotate(0) translate(4 341)">
<title>depicture_menu::domain::menu::radialmenu::items</title>
<!-- Node1 -->
<g id="Node000001" class="node">
<title>Node1</title>
<g id="a_Node000001"><a xlink:title=" ">
<polygon fill="#999999" stroke="#666666" points="931.25,-205 802,-205 802,-173 931.25,-173 931.25,-205"/>
<text xml:space="preserve" text-anchor="start" x="810" y="-191.5" font-family="Helvetica,sans-Serif" font-size="10.00">depicture_menu::domain</text>
<text xml:space="preserve" text-anchor="middle" x="866.62" y="-179.5" font-family="Helvetica,sans-Serif" font-size="10.00">::menu::radialmenu::items</text>
</a>
</g>
</g>
<!-- Node2 -->
<g id="Node000002" class="node">
<title>Node2</title>
<g id="a_Node000002"><a xlink:href="namespacedepicture__menu_1_1cs__binding.html#a55b411e54012e5984de6982843008cc9" target="_top" xlink:title=" ">
<polygon fill="white" stroke="#666666" points="758.12,-337 626.62,-337 626.62,-305 758.12,-305 758.12,-337"/>
<text xml:space="preserve" text-anchor="start" x="634.62" y="-323.5" font-family="Helvetica,sans-Serif" font-size="10.00">depicture_menu::cs</text>
<text xml:space="preserve" text-anchor="middle" x="692.38" y="-311.5" font-family="Helvetica,sans-Serif" font-size="10.00">_binding::apply_config_arg</text>
</a>
</g>
</g>
<!-- Node1&#45;&gt;Node2 -->
<g id="edge1_Node000001_Node000002" class="edge">
<title>Node1&#45;&gt;Node2</title>
<g id="a_edge1_Node000001_Node000002"><a xlink:title=" ">
<path fill="none" stroke="#63b8ff" d="M847.55,-214.74C829.44,-238.81 799.48,-274.24 766,-296 761.08,-299.2 755.71,-302.03 750.18,-304.54"/>
<polygon fill="#63b8ff" stroke="#63b8ff" points="850.35,-216.85 853.45,-206.72 844.71,-212.7 850.35,-216.85"/>
</a>
</g>
</g>
<!-- Node3 -->
<g id="Node000003" class="node">
<title>Node3</title>
<g id="a_Node000003"><a xlink:href="namespacedepicture__menu_1_1cs__binding.html#a17af5c2678e88aa88a411f7d98a360a5" target="_top" xlink:title=" ">
<polygon fill="white" stroke="#666666" points="759.25,-287 625.5,-287 625.5,-255 759.25,-255 759.25,-287"/>
<text xml:space="preserve" text-anchor="start" x="633.5" y="-273.5" font-family="Helvetica,sans-Serif" font-size="10.00">depicture_menu::cs</text>
<text xml:space="preserve" text-anchor="middle" x="692.38" y="-261.5" font-family="Helvetica,sans-Serif" font-size="10.00">_binding::apply_radialmenu</text>
</a>
</g>
</g>
<!-- Node1&#45;&gt;Node3 -->
<g id="edge2_Node000001_Node000003" class="edge">
<title>Node1&#45;&gt;Node3</title>
<g id="a_edge2_Node000001_Node000003"><a xlink:title=" ">
<path fill="none" stroke="#63b8ff" d="M830.54,-211.23C811.83,-222.53 788.15,-235.96 766,-246 759.32,-249.03 752.16,-251.91 745.03,-254.57"/>
<polygon fill="#63b8ff" stroke="#63b8ff" points="832.12,-214.37 838.82,-206.17 828.46,-208.4 832.12,-214.37"/>
</a>
</g>
</g>
<!-- Node4 -->
<g id="Node000004" class="node">
<title>Node4</title>
<g id="a_Node000004"><a xlink:href="test-config__view_8cpp.html#a9593fb0b3c614953ed8545b960aed921" target="_top" xlink:title=" ">
<polygon fill="white" stroke="#666666" points="766,-237 618.75,-237 618.75,-217 766,-217 766,-237"/>
<text xml:space="preserve" text-anchor="middle" x="692.38" y="-223.5" font-family="Helvetica,sans-Serif" font-size="10.00">BOOST_AUTO_TEST_CASE</text>
</a>
</g>
</g>
<!-- Node1&#45;&gt;Node4 -->
<g id="edge3_Node000001_Node000004" class="edge">
<title>Node1&#45;&gt;Node4</title>
<g id="a_edge3_Node000001_Node000004"><a xlink:title=" ">
<path fill="none" stroke="#63b8ff" d="M790.93,-205.48C773.95,-209.22 756.36,-213.1 740.88,-216.52"/>
<polygon fill="#63b8ff" stroke="#63b8ff" points="791.49,-208.94 800.5,-203.37 789.98,-202.1 791.49,-208.94"/>
</a>
</g>
</g>
<!-- Node5 -->
<g id="Node000005" class="node">
<title>Node5</title>
<g id="a_Node000005"><a xlink:href="test__config__view_8cpp.html#a1702d8786d91383fdec011242489ce16" target="_top" xlink:title="menu : TestCase">
<polygon fill="white" stroke="#666666" points="766,-199 618.75,-199 618.75,-179 766,-179 766,-199"/>
<text xml:space="preserve" text-anchor="middle" x="692.38" y="-185.5" font-family="Helvetica,sans-Serif" font-size="10.00">BOOST_AUTO_TEST_CASE</text>
</a>
</g>
</g>
<!-- Node1&#45;&gt;Node5 -->
<g id="edge4_Node000001_Node000005" class="edge">
<title>Node1&#45;&gt;Node5</title>
<g id="a_edge4_Node000001_Node000005"><a xlink:title=" ">
<path fill="none" stroke="#63b8ff" d="M790.68,-189C782.61,-189 774.41,-189 766.36,-189"/>
<polygon fill="#63b8ff" stroke="#63b8ff" points="790.46,-192.5 800.46,-189 790.46,-185.5 790.46,-192.5"/>
</a>
</g>
</g>
<!-- Node6 -->
<g id="Node000006" class="node">
<title>Node6</title>
<g id="a_Node000006"><a xlink:href="namespacedepicture__menu_1_1usecase.html#a2c254e4837bdea923a00c9bb9387ea05" target="_top" xlink:title=" ">
<polygon fill="white" stroke="#666666" points="756.25,-161 628.5,-161 628.5,-129 756.25,-129 756.25,-161"/>
<text xml:space="preserve" text-anchor="start" x="636.5" y="-147.5" font-family="Helvetica,sans-Serif" font-size="10.00">depicture_menu::usecase</text>
<text xml:space="preserve" text-anchor="middle" x="692.38" y="-135.5" font-family="Helvetica,sans-Serif" font-size="10.00">::convert_to_dto</text>
</a>
</g>
</g>
<!-- Node1&#45;&gt;Node6 -->
<g id="edge5_Node000001_Node000006" class="edge">
<title>Node1&#45;&gt;Node6</title>
<g id="a_edge5_Node000001_Node000006"><a xlink:title=" ">
<path fill="none" stroke="#63b8ff" d="M791.04,-169.95C779.52,-167 767.72,-163.99 756.48,-161.12"/>
<polygon fill="#63b8ff" stroke="#63b8ff" points="789.95,-173.28 800.51,-172.37 791.69,-166.5 789.95,-173.28"/>
</a>
</g>
</g>
<!-- Node7 -->
<g id="Node000007" class="node">
<title>Node7</title>
<g id="a_Node000007"><a xlink:href="_test_menu_view_presenter_8cpp.html#aff7764ee763486f1f05b115cf9cc4090" target="_top" xlink:title=" ">
<polygon fill="white" stroke="#666666" points="719.12,-111 665.62,-111 665.62,-91 719.12,-91 719.12,-111"/>
<text xml:space="preserve" text-anchor="middle" x="692.38" y="-97.5" font-family="Helvetica,sans-Serif" font-size="10.00">get_item</text>
</a>
</g>
</g>
<!-- Node1&#45;&gt;Node7 -->
<g id="edge6_Node000001_Node000007" class="edge">
<title>Node1&#45;&gt;Node7</title>
<g id="a_edge6_Node000001_Node000007"><a xlink:title=" ">
<path fill="none" stroke="#63b8ff" d="M837.52,-165.53C818.41,-150.62 791.96,-131.93 766,-120 751.2,-113.2 733.54,-108.51 719.34,-105.49"/>
<polygon fill="#63b8ff" stroke="#63b8ff" points="835.1,-168.08 845.1,-171.57 839.46,-162.6 835.1,-168.08"/>
</a>
</g>
</g>
<!-- Node8 -->
<g id="Node000008" class="node">
<title>Node8</title>
<g id="a_Node000008"><a xlink:href="namespacedetail.html#aeeadbaa968cbf337fbc005755d6df61d" target="_top" xlink:title=" ">
<polygon fill="white" stroke="#666666" points="740.12,-73 644.62,-73 644.62,-53 740.12,-53 740.12,-73"/>
<text xml:space="preserve" text-anchor="middle" x="692.38" y="-59.5" font-family="Helvetica,sans-Serif" font-size="10.00">detail::sync_menu</text>
</a>
</g>
</g>
<!-- Node1&#45;&gt;Node8 -->
<g id="edge7_Node000001_Node000008" class="edge">
<title>Node1&#45;&gt;Node8</title>
<g id="a_edge7_Node000001_Node000008"><a xlink:title=" ">
<path fill="none" stroke="#63b8ff" d="M848.45,-163.43C830.65,-138.92 800.63,-102.68 766,-82 758.17,-77.32 749.19,-73.78 740.28,-71.11"/>
<polygon fill="#63b8ff" stroke="#63b8ff" points="845.36,-165.13 853.99,-171.27 851.07,-161.08 845.36,-165.13"/>
</a>
</g>
</g>
<!-- Node9 -->
<g id="Node000009" class="node">
<title>Node9</title>
<g id="a_Node000009"><a xlink:href="classdepicture__menu_1_1presentations_1_1menu__view__presenter.html#a7cee659c00af1f57cbe9f2214fab8ecf" target="_top" xlink:title=" ">
<polygon fill="white" stroke="#666666" points="582.75,-79 398.75,-79 398.75,-47 582.75,-47 582.75,-79"/>
<text xml:space="preserve" text-anchor="start" x="406.75" y="-65.5" font-family="Helvetica,sans-Serif" font-size="10.00">depicture_menu::presentations</text>
<text xml:space="preserve" text-anchor="middle" x="490.75" y="-53.5" font-family="Helvetica,sans-Serif" font-size="10.00">::menu_view_presenter::change_menu</text>
</a>
</g>
</g>
<!-- Node8&#45;&gt;Node9 -->
<g id="edge8_Node000008_Node000009" class="edge">
<title>Node8&#45;&gt;Node9</title>
<g id="a_edge8_Node000008_Node000009"><a xlink:title=" ">
<path fill="none" stroke="#63b8ff" d="M633.23,-63C617.55,-63 600.2,-63 583.18,-63"/>
<polygon fill="#63b8ff" stroke="#63b8ff" points="632.81,-66.5 642.81,-63 632.81,-59.5 632.81,-66.5"/>
</a>
</g>
</g>
<!-- Node10 -->
<g id="Node000010" class="node">
<title>Node10</title>
<g id="a_Node000010"><a xlink:href="_test_menu_view_presenter_8cpp.html#a151ccc4fe04555bd94ebef4472e1c21b" target="_top" xlink:title=" ">
<polygon fill="white" stroke="#666666" points="346.62,-104 199.38,-104 199.38,-72 346.62,-72 346.62,-104"/>
<text xml:space="preserve" text-anchor="start" x="207.38" y="-90.5" font-family="Helvetica,sans-Serif" font-size="10.00">BOOST_AUTO_TEST_CASE</text>
<text xml:space="preserve" text-anchor="middle" x="273" y="-78.5" font-family="Helvetica,sans-Serif" font-size="10.00">_TEMPLATE</text>
</a>
</g>
</g>
<!-- Node9&#45;&gt;Node10 -->
<g id="edge9_Node000009_Node000010" class="edge">
<title>Node9&#45;&gt;Node10</title>
<g id="a_edge9_Node000009_Node000010"><a xlink:title=" ">
<path fill="none" stroke="#63b8ff" d="M386.96,-74.91C373.47,-76.47 359.86,-78.05 347,-79.54"/>
<polygon fill="#63b8ff" stroke="#63b8ff" points="387.22,-78.4 396.75,-73.78 386.41,-71.45 387.22,-78.4"/>
</a>
</g>
</g>
<!-- Node11 -->
<g id="Node000011" class="node">
<title>Node11</title>
<g id="a_Node000011"><a xlink:href="classdepicture__menu_1_1presentations_1_1menu__view__presenter.html#afe97162d40d1595753ccb38f9ac96ad6" target="_top" xlink:title=" ">
<polygon fill="white" stroke="#666666" points="362.75,-54 183.25,-54 183.25,-22 362.75,-22 362.75,-54"/>
<text xml:space="preserve" text-anchor="start" x="191.25" y="-40.5" font-family="Helvetica,sans-Serif" font-size="10.00">depicture_menu::presentations</text>
<text xml:space="preserve" text-anchor="middle" x="273" y="-28.5" font-family="Helvetica,sans-Serif" font-size="10.00">::menu_view_presenter::create_menu</text>
</a>
</g>
</g>
<!-- Node9&#45;&gt;Node11 -->
<g id="edge10_Node000009_Node000011" class="edge">
<title>Node9&#45;&gt;Node11</title>
<g id="a_edge10_Node000009_Node000011"><a xlink:title=" ">
<path fill="none" stroke="#63b8ff" d="M387.04,-51.1C379.09,-50.18 371.09,-49.25 363.23,-48.34"/>
<polygon fill="#63b8ff" stroke="#63b8ff" points="386.41,-54.55 396.75,-52.22 387.22,-47.6 386.41,-54.55"/>
</a>
</g>
</g>
<!-- Node12 -->
<g id="Node000012" class="node">
<title>Node12</title>
<g id="a_Node000012"><a xlink:href="_test_menu_view_presenter_8cpp.html#ae923463343707b4e44092d1eac37d2d9" target="_top" xlink:title=" ">
<polygon fill="white" stroke="#666666" points="147.25,-70 0,-70 0,-50 147.25,-50 147.25,-70"/>
<text xml:space="preserve" text-anchor="middle" x="73.62" y="-56.5" font-family="Helvetica,sans-Serif" font-size="10.00">BOOST_AUTO_TEST_CASE</text>
</a>
</g>
</g>
<!-- Node11&#45;&gt;Node12 -->
<g id="edge11_Node000011_Node000012" class="edge">
<title>Node11&#45;&gt;Node12</title>
<g id="a_edge11_Node000011_Node000012"><a xlink:title=" ">
<path fill="none" stroke="#63b8ff" d="M171.52,-49.2C163.5,-50.09 155.5,-50.99 147.72,-51.85"/>
<polygon fill="#63b8ff" stroke="#63b8ff" points="171.79,-52.69 181.34,-48.11 171.01,-45.74 171.79,-52.69"/>
</a>
</g>
</g>
<!-- Node13 -->
<g id="Node000013" class="node">
<title>Node13</title>
<g id="a_Node000013"><a xlink:href="_test_menu_view_presenter_8cpp.html#a9eead603abf63a8882a408141b378426" target="_top" xlink:title=" ">
<polygon fill="white" stroke="#666666" points="147.25,-32 0,-32 0,0 147.25,0 147.25,-32"/>
<text xml:space="preserve" text-anchor="start" x="8" y="-18.5" font-family="Helvetica,sans-Serif" font-size="10.00">BOOST_AUTO_TEST_CASE</text>
<text xml:space="preserve" text-anchor="middle" x="73.62" y="-6.5" font-family="Helvetica,sans-Serif" font-size="10.00">_TEMPLATE</text>
</a>
</g>
</g>
<!-- Node11&#45;&gt;Node13 -->
<g id="edge12_Node000011_Node000013" class="edge">
<title>Node11&#45;&gt;Node13</title>
<g id="a_edge12_Node000011_Node000013"><a xlink:title=" ">
<path fill="none" stroke="#63b8ff" d="M171.52,-26.8C163.5,-25.91 155.5,-25.01 147.72,-24.15"/>
<polygon fill="#63b8ff" stroke="#63b8ff" points="171.01,-30.26 181.34,-27.89 171.79,-23.31 171.01,-30.26"/>
</a>
</g>
</g>
</g>
</svg>
