<?xml version="1.0" encoding="UTF-8" standalone="no"?>
<!DOCTYPE svg PUBLIC "-//W3C//DTD SVG 1.1//EN"
 "http://www.w3.org/Graphics/SVG/1.1/DTD/svg11.dtd">
<!-- Generated by graphviz version 14.1.2 (20260124.0452)
 -->
<!-- Title: depicture_menu::domain::menu::radialmenu::add_item Pages: 1 -->
<!--zoomable 274 -->

<svg id="main" version="1.1" xmlns="http://www.w3.org/2000/svg" xmlns:xlink="http://www.w3.org/1999/xlink" xml:space="preserve" onload="init(evt)">

<style type="text/css"><![CDATA[
.node, .edge {opacity: 0.7;}
.node.selected, .edge.selected {opacity: 1;}
.edge:hover path { stroke: red; }
.edge:hover polygon { stroke: red; fill: red; }
]]></style>

<defs>
  <circle id="rim" cx="0" cy="0" r="7"/>
  <circle id="rim2" cx="0" cy="0" r="3.5"/>
  <g id="zoomPlus">
    <use xlink:href="#rim" fill="#404040"><set attributeName="fill" to="#808080" begin="zoomplus.mouseover" end="zoomplus.mouseout"/></use>
    <path d="M-4,0h8M0,-4v8" fill="none" stroke="white" stroke-width="1.5" pointer-events="none"/>
  </g>
  <g id="zoomMin">
    <use xlink:href="#rim" fill="#404040"><set attributeName="fill" to="#808080" begin="zoomminus.mouseover" end="zoomminus.mouseout"/></use>
    <path d="M-4,0h8" fill="none" stroke="white" stroke-width="1.5" pointer-events="none"/>
  </g>
  <g id="arrowUp" transform="translate(30 24)">
    <use xlink:href="#rim"/>
    <path pointer-events="none" fill="none" stroke="white" stroke-width="1.5" d="M0,-3.0v7 M-2.5,-0.5L0,-3.0L2.5,-0.5"/>
  </g>
  <g id="arrowRight" transform="rotate(90) translate(36 -43)">
    <use xlink:href="#rim"/>
    <path pointer-events="none" fill="none" stroke="white" stroke-width="1.5" d="M0,-3.0v7 M-2.5,-0.5L0,-3.0L2.5,-0.5"/>
  </g>
  <g id="arrowDown" transform="rotate(180) translate(-30 -48)">
    <use xlink:href="#rim"/>
    <path pointer-events="none" fill="none" stroke="white" stroke-width="1.5" d="M0,-3.0v7 M-2.5,-0.5L0,-3.0L2.5,-0.5"/>
  </g>
  <g id="arrowLeft" transform="rotate(270) translate(-36 17)">
    <use xlink:href="#rim"/>
    <path pointer-events="none" fill="none" stroke="white" stroke-width="1.5" d="M0,-3.0v7 M-2.5,-0.5L0,-3.0L2.5,-0.5"/>
  </g>
  <g id="resetDef">
    <use xlink:href="#rim2" fill="#404040"><set attributeName="fill" to="#808080" begin="reset.mouseover" end="reset.mouseout"/></use>
  </g>
</defs>
<script type="application/ecmascript">
var viewWidth = 888;
var viewHeight = 274;
var sectionId = 'dynsection-3';
</script>
<script type="application/ecmascript" xlink:href="svg.min.js"/>
<svg id="graph" class="graph">
<g id="viewport">
<title>depicture_menu::domain::menu::radialmenu::add_item</title>
<!-- Node1 -->
<g id="Node000001" class="node">
<title>Node1</title>
<g id="a_Node000001"><a xlink:title=" ">
<polygon fill="#999999" stroke="#666666" points="880.25,-177 735.25,-177 735.25,-145 880.25,-145 880.25,-177"/>
<text xml:space="preserve" text-anchor="start" x="743.25" y="-163.5" font-family="Helvetica,sans-Serif" font-size="10.00">depicture_menu::domain</text>
<text xml:space="preserve" text-anchor="middle" x="807.75" y="-151.5" font-family="Helvetica,sans-Serif" font-size="10.00">::menu::radialmenu::add_item</text>
</a>
</g>
</g>
<!-- Node2 -->
<g id="Node000002" class="node">
<title>Node2</title>
<g id="a_Node000002"><a xlink:href="_test_radial_menu_8cpp.html#a77543dad153f0f82871ff9f93cf9fb46" target="_top" xlink:title="get_item_id : TestCase">
<polygon fill="white" stroke="#666666" points="691,-266 543.75,-266 543.75,-246 691,-246 691,-266"/>
<text xml:space="preserve" text-anchor="middle" x="617.38" y="-252.5" font-family="Helvetica,sans-Serif" font-size="10.00">BOOST_AUTO_TEST_CASE</text>
</a>
</g>
</g>
<!-- Node1&#45;&gt;Node2 -->
<g id="edge1_Node000001_Node000002" class="edge">
<title>Node1&#45;&gt;Node2</title>
<g id="a_edge1_Node000001_Node000002"><a xlink:title=" ">
<path fill="none" stroke="#63b8ff" d="M779.48,-184.79C758.77,-201.68 728.89,-223.65 699.25,-237 691.75,-240.38 683.59,-243.19 675.42,-245.53"/>
<polygon fill="#63b8ff" stroke="#63b8ff" points="781.71,-187.49 787.16,-178.4 777.23,-182.11 781.71,-187.49"/>
</a>
</g>
</g>
<!-- Node3 -->
<g id="Node000003" class="node">
<title>Node3</title>
<g id="a_Node000003"><a xlink:href="_test_radial_menu_8cpp.html#acd31416e79e36d3d50ba1ea03b7bdd55" target="_top" xlink:title="get_item_action_id : TestCase">
<polygon fill="white" stroke="#666666" points="691,-228 543.75,-228 543.75,-208 691,-208 691,-228"/>
<text xml:space="preserve" text-anchor="middle" x="617.38" y="-214.5" font-family="Helvetica,sans-Serif" font-size="10.00">BOOST_AUTO_TEST_CASE</text>
</a>
</g>
</g>
<!-- Node1&#45;&gt;Node3 -->
<g id="edge2_Node000001_Node000003" class="edge">
<title>Node1&#45;&gt;Node3</title>
<g id="a_edge2_Node000001_Node000003"><a xlink:title=" ">
<path fill="none" stroke="#63b8ff" d="M753.31,-181.18C736.17,-187.31 717.03,-193.79 699.25,-199 688.87,-202.04 677.63,-204.94 666.93,-207.5"/>
<polygon fill="#63b8ff" stroke="#63b8ff" points="754.05,-184.64 762.26,-177.95 751.67,-178.05 754.05,-184.64"/>
</a>
</g>
</g>
<!-- Node4 -->
<g id="Node000004" class="node">
<title>Node4</title>
<g id="a_Node000004"><a xlink:href="_test_config_view_presenter_8cpp.html#a26671984c98496781b11fd7859f0c808" target="_top" xlink:title=" ">
<polygon fill="white" stroke="#666666" points="691,-190 543.75,-190 543.75,-170 691,-170 691,-190"/>
<text xml:space="preserve" text-anchor="middle" x="617.38" y="-176.5" font-family="Helvetica,sans-Serif" font-size="10.00">BOOST_AUTO_TEST_CASE</text>
</a>
</g>
</g>
<!-- Node1&#45;&gt;Node4 -->
<g id="edge3_Node000001_Node000004" class="edge">
<title>Node1&#45;&gt;Node4</title>
<g id="a_edge3_Node000001_Node000004"><a xlink:title=" ">
<path fill="none" stroke="#63b8ff" d="M723.86,-169.36C713.08,-170.45 702.1,-171.56 691.49,-172.63"/>
<polygon fill="#63b8ff" stroke="#63b8ff" points="723.89,-172.88 733.49,-168.39 723.19,-165.91 723.89,-172.88"/>
</a>
</g>
</g>
<!-- Node5 -->
<g id="Node000005" class="node">
<title>Node5</title>
<g id="a_Node000005"><a xlink:href="_test_config_view_presenter_8cpp.html#afd6569b78df88fbcda86a12acb7bd142" target="_top" xlink:title=" ">
<polygon fill="white" stroke="#666666" points="691,-152 543.75,-152 543.75,-132 691,-132 691,-152"/>
<text xml:space="preserve" text-anchor="middle" x="617.38" y="-138.5" font-family="Helvetica,sans-Serif" font-size="10.00">BOOST_AUTO_TEST_CASE</text>
</a>
</g>
</g>
<!-- Node1&#45;&gt;Node5 -->
<g id="edge4_Node000001_Node000005" class="edge">
<title>Node1&#45;&gt;Node5</title>
<g id="a_edge4_Node000001_Node000005"><a xlink:title=" ">
<path fill="none" stroke="#63b8ff" d="M723.86,-152.64C713.08,-151.55 702.1,-150.44 691.49,-149.37"/>
<polygon fill="#63b8ff" stroke="#63b8ff" points="723.19,-156.09 733.49,-153.61 723.89,-149.12 723.19,-156.09"/>
</a>
</g>
</g>
<!-- Node6 -->
<g id="Node000006" class="node">
<title>Node6</title>
<g id="a_Node000006"><a xlink:href="test__config__view_8cpp.html#a1702d8786d91383fdec011242489ce16" target="_top" xlink:title="menu : TestCase">
<polygon fill="white" stroke="#666666" points="691,-114 543.75,-114 543.75,-94 691,-94 691,-114"/>
<text xml:space="preserve" text-anchor="middle" x="617.38" y="-100.5" font-family="Helvetica,sans-Serif" font-size="10.00">BOOST_AUTO_TEST_CASE</text>
</a>
</g>
</g>
<!-- Node1&#45;&gt;Node6 -->
<g id="edge5_Node000001_Node000006" class="edge">
<title>Node1&#45;&gt;Node6</title>
<g id="a_edge5_Node000001_Node000006"><a xlink:title=" ">
<path fill="none" stroke="#63b8ff" d="M753.31,-140.82C736.17,-134.69 717.03,-128.21 699.25,-123 688.87,-119.96 677.63,-117.06 666.93,-114.5"/>
<polygon fill="#63b8ff" stroke="#63b8ff" points="751.67,-143.95 762.26,-144.05 754.05,-137.36 751.67,-143.95"/>
</a>
</g>
</g>
<!-- Node7 -->
<g id="Node000007" class="node">
<title>Node7</title>
<g id="a_Node000007"><a xlink:href="structdepicture__menu_1_1domain_1_1menu_1_1radialmenu.html#ad9f4f8e242b494a7d885271949e4bca3" target="_top" xlink:title=" ">
<polygon fill="white" stroke="#666666" points="699.25,-76 535.5,-76 535.5,-44 699.25,-44 699.25,-76"/>
<text xml:space="preserve" text-anchor="start" x="543.5" y="-62.5" font-family="Helvetica,sans-Serif" font-size="10.00">depicture_menu::domain</text>
<text xml:space="preserve" text-anchor="middle" x="617.38" y="-50.5" font-family="Helvetica,sans-Serif" font-size="10.00">::menu::radialmenu::default_menu</text>
</a>
</g>
</g>
<!-- Node1&#45;&gt;Node7 -->
<g id="edge6_Node000001_Node000007" class="edge">
<title>Node1&#45;&gt;Node7</title>
<g id="a_edge6_Node000001_Node000007"><a xlink:title=" ">
<path fill="none" stroke="#63b8ff" d="M778.82,-137.51C757.98,-120.95 728.23,-99.27 699.25,-85 692.79,-81.82 685.84,-78.94 678.82,-76.36"/>
<polygon fill="#63b8ff" stroke="#63b8ff" points="776.57,-140.2 786.55,-143.76 780.97,-134.75 776.57,-140.2"/>
</a>
</g>
</g>
<!-- Node8 -->
<g id="Node000008" class="node">
<title>Node8</title>
<g id="a_Node000008"><a xlink:href="deploy__default__setting_8cpp.html#a638e25877528b95de44e4fcd07a8c45a" target="_top" xlink:title=" ">
<polygon fill="white" stroke="#666666" points="473.62,-120 378.12,-120 378.12,-100 473.62,-100 473.62,-120"/>
<text xml:space="preserve" text-anchor="middle" x="425.88" y="-106.5" font-family="Helvetica,sans-Serif" font-size="10.00">add_default_menu</text>
</a>
</g>
</g>
<!-- Node7&#45;&gt;Node8 -->
<g id="edge7_Node000007_Node000008" class="edge">
<title>Node7&#45;&gt;Node8</title>
<g id="a_edge7_Node000007_Node000008"><a xlink:title=" ">
<path fill="none" stroke="#63b8ff" d="M543.52,-79.37C528.94,-83.23 513.74,-87.25 499.5,-91 488.91,-93.79 477.46,-96.79 466.84,-99.57"/>
<polygon fill="#63b8ff" stroke="#63b8ff" points="544.28,-82.78 553.05,-76.84 542.49,-76.02 544.28,-82.78"/>
</a>
</g>
</g>
<!-- Node11 -->
<g id="Node000011" class="node">
<title>Node11</title>
<g id="a_Node000011"><a xlink:href="namespacedepicture__menu_1_1usecase_1_1detail__usecase__add__new__menu.html#adcccdacee0183f07572ac2dd2543bc88" target="_top" xlink:title=" ">
<polygon fill="white" stroke="#666666" points="497.25,-82 354.5,-82 354.5,-38 497.25,-38 497.25,-82"/>
<text xml:space="preserve" text-anchor="start" x="362.5" y="-68.5" font-family="Helvetica,sans-Serif" font-size="10.00">depicture_menu::usecase</text>
<text xml:space="preserve" text-anchor="start" x="362.5" y="-56.5" font-family="Helvetica,sans-Serif" font-size="10.00">::detail_usecase_add_new</text>
<text xml:space="preserve" text-anchor="middle" x="425.88" y="-44.5" font-family="Helvetica,sans-Serif" font-size="10.00">_menu::add_new_menu_impl</text>
</a>
</g>
</g>
<!-- Node7&#45;&gt;Node11 -->
<g id="edge10_Node000007_Node000011" class="edge">
<title>Node7&#45;&gt;Node11</title>
<g id="a_edge10_Node000007_Node000011"><a xlink:title=" ">
<path fill="none" stroke="#63b8ff" d="M523.74,-60C515,-60 506.23,-60 497.74,-60"/>
<polygon fill="#63b8ff" stroke="#63b8ff" points="523.67,-63.5 533.67,-60 523.67,-56.5 523.67,-63.5"/>
</a>
</g>
</g>
<!-- Node13 -->
<g id="Node000013" class="node">
<title>Node13</title>
<g id="a_Node000013"><a xlink:href="_test_menu_view_presenter_8cpp.html#ae923463343707b4e44092d1eac37d2d9" target="_top" xlink:title=" ">
<polygon fill="white" stroke="#666666" points="499.5,-20 352.25,-20 352.25,0 499.5,0 499.5,-20"/>
<text xml:space="preserve" text-anchor="middle" x="425.88" y="-6.5" font-family="Helvetica,sans-Serif" font-size="10.00">BOOST_AUTO_TEST_CASE</text>
</a>
</g>
</g>
<!-- Node7&#45;&gt;Node13 -->
<g id="edge12_Node000007_Node000013" class="edge">
<title>Node7&#45;&gt;Node13</title>
<g id="a_edge12_Node000007_Node000013"><a xlink:title=" ">
<path fill="none" stroke="#63b8ff" d="M543.52,-40.63C528.94,-36.77 513.74,-32.75 499.5,-29 488.91,-26.21 477.46,-23.21 466.84,-20.43"/>
<polygon fill="#63b8ff" stroke="#63b8ff" points="542.49,-43.98 553.05,-43.16 544.28,-37.22 542.49,-43.98"/>
</a>
</g>
</g>
<!-- Node9 -->
<g id="Node000009" class="node">
<title>Node9</title>
<g id="a_Node000009"><a xlink:href="deploy__default__setting_8cpp.html#a3311dba8e4af11d1e7973601fd991d43" target="_top" xlink:title=" ">
<polygon fill="white" stroke="#666666" points="300.5,-120 194.5,-120 194.5,-100 300.5,-100 300.5,-120"/>
<text xml:space="preserve" text-anchor="middle" x="247.5" y="-106.5" font-family="Helvetica,sans-Serif" font-size="10.00">add_default_settings</text>
</a>
</g>
</g>
<!-- Node8&#45;&gt;Node9 -->
<g id="edge8_Node000008_Node000009" class="edge">
<title>Node8&#45;&gt;Node9</title>
<g id="a_edge8_Node000008_Node000009"><a xlink:title=" ">
<path fill="none" stroke="#63b8ff" d="M366.58,-110C345.35,-110 321.49,-110 300.81,-110"/>
<polygon fill="#63b8ff" stroke="#63b8ff" points="366.56,-113.5 376.56,-110 366.56,-106.5 366.56,-113.5"/>
</a>
</g>
</g>
<!-- Node10 -->
<g id="Node000010" class="node">
<title>Node10</title>
<g id="a_Node000010"><a xlink:href="structdepicture__menu_1_1usecase_1_1detail__usecases_1_1deploy__default__setting__impl.html#a2c116aa98cc322e474ee99a84a130a94" target="_top" xlink:title=" ">
<polygon fill="white" stroke="#666666" points="142.75,-132 0,-132 0,-88 142.75,-88 142.75,-132"/>
<text xml:space="preserve" text-anchor="start" x="8" y="-118.5" font-family="Helvetica,sans-Serif" font-size="10.00">depicture_menu::usecase</text>
<text xml:space="preserve" text-anchor="start" x="8" y="-106.5" font-family="Helvetica,sans-Serif" font-size="10.00">::detail_usecases::deploy</text>
<text xml:space="preserve" text-anchor="middle" x="71.38" y="-94.5" font-family="Helvetica,sans-Serif" font-size="10.00">_default_setting_impl::deploy</text>
</a>
</g>
</g>
<!-- Node9&#45;&gt;Node10 -->
<g id="edge9_Node000009_Node000010" class="edge">
<title>Node9&#45;&gt;Node10</title>
<g id="a_edge9_Node000009_Node000010"><a xlink:title=" ">
<path fill="none" stroke="#63b8ff" d="M183.03,-110C170,-110 156.21,-110 142.94,-110"/>
<polygon fill="#63b8ff" stroke="#63b8ff" points="182.74,-113.5 192.74,-110 182.74,-106.5 182.74,-113.5"/>
</a>
</g>
</g>
<!-- Node12 -->
<g id="Node000012" class="node">
<title>Node12</title>
<g id="a_Node000012"><a xlink:href="classdepicture__menu_1_1usecase_1_1add__new__menu.html#a91e1f19446cb9de1abfbf1a7ecc6a95a" target="_top" xlink:title=" ">
<polygon fill="white" stroke="#666666" points="316.25,-76 178.75,-76 178.75,-44 316.25,-44 316.25,-76"/>
<text xml:space="preserve" text-anchor="start" x="186.75" y="-62.5" font-family="Helvetica,sans-Serif" font-size="10.00">depicture_menu::usecase</text>
<text xml:space="preserve" text-anchor="middle" x="247.5" y="-50.5" font-family="Helvetica,sans-Serif" font-size="10.00">::add_new_menu::operator()</text>
</a>
</g>
</g>
<!-- Node11&#45;&gt;Node12 -->
<g id="edge11_Node000011_Node000012" class="edge">
<title>Node11&#45;&gt;Node12</title>
<g id="a_edge11_Node000011_Node000012"><a xlink:title=" ">
<path fill="none" stroke="#63b8ff" d="M342.75,-60C334.02,-60 325.2,-60 316.66,-60"/>
<polygon fill="#63b8ff" stroke="#63b8ff" points="342.64,-63.5 352.64,-60 342.64,-56.5 342.64,-63.5"/>
</a>
</g>
</g>
</g>
</svg>

<g id="navigator" transform="translate(0 0)" fill="#404254">
  <rect fill="#f2f5e9" fill-opacity="0.5" stroke="#606060" stroke-width=".5" x="0" y="0" width="60" height="60"/>
  <use id="zoomplus" xlink:href="#zoomPlus" x="17" y="9" onmousedown="handleZoom(evt,'in')"/>
  <use id="zoomminus" xlink:href="#zoomMin" x="42" y="9" onmousedown="handleZoom(evt,'out')"/>
  <use id="reset" xlink:href="#resetDef" x="30" y="36" onmousedown="handleReset()"/>
   <use id="arrowup" xlink:href="#arrowUp" x="0" y="0" onmousedown="handlePan(0,-1)"/>
  <use id="arrowright" xlink:href="#arrowRight" x="0" y="0" onmousedown="handlePan(1,0)"/>
  <use id="arrowdown" xlink:href="#arrowDown" x="0" y="0" onmousedown="handlePan(0,1)"/>
  <use id="arrowleft" xlink:href="#arrowLeft" x="0" y="0" onmousedown="handlePan(-1,0)"/>
</g>
<svg viewBox="0 0 15 15" width="100%" height="30px" preserveAspectRatio="xMaxYMin meet">
 <g id="arrow_out" transform="scale(0.3 0.3)">
  <a xlink:href="structdepicture__menu_1_1domain_1_1menu_1_1radialmenu_a5cbc3b4741348fe3d94998897e420766_icgraph_org.svg" target="_base">
   <rect id="button" ry="5" rx="5" y="6" x="6" height="38" width="38"
        fill="#f2f5e9" fill-opacity="0.5" stroke="#606060" stroke-width="1.0"/>
   <path id="arrow"
     d="M 11.500037,31.436501 C 11.940474,20.09759 22.043105,11.32322 32.158766,21.979434 L 37.068811,17.246167 C 37.068811,17.246167 37.088388,32 37.088388,32 L 22.160133,31.978069 C 22.160133,31.978069 26.997745,27.140456 26.997745,27.140456 C 18.528582,18.264221 13.291696,25.230495 11.500037,31.436501 z"
     style="fill:#404040;"/>
  </a>
 </g>
</svg>

<style type='text/css'>
<![CDATA[
[data-mouse-over-selected='false'] { opacity: 0.7; }
[data-mouse-over-selected='true']  { opacity: 1.0; }
]]>
</style>
<script type="application/ecmascript"><![CDATA[
document.addEventListener('DOMContentLoaded', (event) => {
  highlightEdges();
  highlightAdjacentNodes();
});
]]></script>
</svg>
