<?xml version="1.0" encoding="UTF-8" standalone="no"?>
<!DOCTYPE svg PUBLIC "-//W3C//DTD SVG 1.1//EN"
 "http://www.w3.org/Graphics/SVG/1.1/DTD/svg11.dtd">
<!-- Generated by graphviz version 14.1.2 (20260124.0452)
 -->
<!-- Title: tt::base_pair_factory::base_pair_factory Pages: 1 -->
<svg width="614pt" height="120pt"
 viewBox="0.00 0.00 614.00 120.00" xmlns="http://www.w3.org/2000/svg" xmlns:xlink="http://www.w3.org/1999/xlink">
<g id="graph0" class="graph" transform="scale(1 1) rotate(0) translate(4 116)">
<title>tt::base_pair_factory::base_pair_factory</title>
<!-- Node1 -->
<g id="Node000001" class="node">
<title>Node1</title>
<g id="a_Node000001"><a xlink:title=" ">
<polygon fill="#999999" stroke="#666666" points="105.25,-54 0,-54 0,-22 105.25,-22 105.25,-54"/>
<text xml:space="preserve" text-anchor="start" x="8" y="-40.5" font-family="Helvetica,sans-Serif" font-size="10.00">tt::base_pair_factory</text>
<text xml:space="preserve" text-anchor="middle" x="52.62" y="-28.5" font-family="Helvetica,sans-Serif" font-size="10.00">::base_pair_factory</text>
</a>
</g>
</g>
<!-- Node2 -->
<g id="Node000002" class="node">
<title>Node2</title>
<g id="a_Node000002"><a xlink:href="namespacedepicture__menu_1_1reflection.html#aaf69402efde67d3327b0a5878e0bb46c" target="_top" xlink:title=" ">
<polygon fill="white" stroke="#666666" points="272,-54 141.25,-54 141.25,-22 272,-22 272,-54"/>
<text xml:space="preserve" text-anchor="start" x="149.25" y="-40.5" font-family="Helvetica,sans-Serif" font-size="10.00">depicture_menu::reflection</text>
<text xml:space="preserve" text-anchor="middle" x="206.62" y="-28.5" font-family="Helvetica,sans-Serif" font-size="10.00">::access_field</text>
</a>
</g>
</g>
<!-- Node1&#45;&gt;Node2 -->
<g id="edge1_Node000001_Node000002" class="edge">
<title>Node1&#45;&gt;Node2</title>
<g id="a_edge1_Node000001_Node000002"><a xlink:title=" ">
<path fill="none" stroke="#63b8ff" d="M105.51,-38C113.23,-38 121.31,-38 129.4,-38"/>
<polygon fill="#63b8ff" stroke="#63b8ff" points="129.29,-41.5 139.29,-38 129.29,-34.5 129.29,-41.5"/>
</a>
</g>
</g>
<!-- Node3 -->
<g id="Node000003" class="node">
<title>Node3</title>
<g id="a_Node000003"><a xlink:href="namespacedepicture__menu_1_1reflection.html#adb9faa46ece21b7d378d916f04923bbc" target="_top" xlink:title=" ">
<polygon fill="white" stroke="#666666" points="438.75,-76 308,-76 308,-44 438.75,-44 438.75,-76"/>
<text xml:space="preserve" text-anchor="start" x="316" y="-62.5" font-family="Helvetica,sans-Serif" font-size="10.00">depicture_menu::reflection</text>
<text xml:space="preserve" text-anchor="middle" x="373.38" y="-50.5" font-family="Helvetica,sans-Serif" font-size="10.00">::get_field_index</text>
</a>
</g>
</g>
<!-- Node2&#45;&gt;Node3 -->
<g id="edge2_Node000002_Node000003" class="edge">
<title>Node2&#45;&gt;Node3</title>
<g id="a_edge2_Node000002_Node000003"><a xlink:title=" ">
<path fill="none" stroke="#63b8ff" d="M272.27,-46.63C280.17,-47.69 288.3,-48.77 296.35,-49.85"/>
<polygon fill="#63b8ff" stroke="#63b8ff" points="295.77,-53.3 306.15,-51.16 296.7,-46.36 295.77,-53.3"/>
</a>
</g>
</g>
<!-- Node5 -->
<g id="Node000005" class="node">
<title>Node5</title>
<g id="a_Node000005"><a xlink:href="namespacedepicture__menu_1_1reflection.html#a0b2b3bbe6bc85746a0f887135f697715" target="_top" xlink:title=" ">
<polygon fill="white" stroke="#666666" points="605.5,-32 474.75,-32 474.75,0 605.5,0 605.5,-32"/>
<text xml:space="preserve" text-anchor="start" x="482.75" y="-18.5" font-family="Helvetica,sans-Serif" font-size="10.00">depicture_menu::reflection</text>
<text xml:space="preserve" text-anchor="middle" x="540.12" y="-6.5" font-family="Helvetica,sans-Serif" font-size="10.00">::has_field</text>
</a>
</g>
</g>
<!-- Node2&#45;&gt;Node5 -->
<g id="edge6_Node000002_Node000005" class="edge">
<title>Node2&#45;&gt;Node5</title>
<g id="a_edge6_Node000002_Node000005"><a xlink:title=" ">
<path fill="none" stroke="#63b8ff" d="M272.33,-33.71C327,-30.08 405.39,-24.88 463.06,-21.05"/>
<polygon fill="#63b8ff" stroke="#63b8ff" points="463.05,-24.56 472.79,-20.4 462.58,-17.57 463.05,-24.56"/>
</a>
</g>
</g>
<!-- Node4 -->
<g id="Node000004" class="node">
<title>Node4</title>
<g id="a_Node000004"><a xlink:href="namespacedepicture__menu_1_1reflection_1_1detail__reflection.html#acf183d0f4dd4183a2334fe27a68f9b1e" target="_top" xlink:title=" ">
<polygon fill="white" stroke="#666666" points="605.5,-94 474.75,-94 474.75,-50 605.5,-50 605.5,-94"/>
<text xml:space="preserve" text-anchor="start" x="482.75" y="-80.5" font-family="Helvetica,sans-Serif" font-size="10.00">depicture_menu::reflection</text>
<text xml:space="preserve" text-anchor="start" x="482.75" y="-68.5" font-family="Helvetica,sans-Serif" font-size="10.00">::detail_reflection::get</text>
<text xml:space="preserve" text-anchor="middle" x="540.12" y="-56.5" font-family="Helvetica,sans-Serif" font-size="10.00">_field_index</text>
</a>
</g>
</g>
<!-- Node3&#45;&gt;Node4 -->
<g id="edge3_Node000003_Node000004" class="edge">
<title>Node3&#45;&gt;Node4</title>
<g id="a_edge3_Node000003_Node000004"><a xlink:title=" ">
<path fill="none" stroke="#63b8ff" d="M439.02,-64.71C446.92,-65.28 455.05,-65.88 463.1,-66.46"/>
<polygon fill="#63b8ff" stroke="#63b8ff" points="462.66,-69.94 472.89,-67.18 463.17,-62.96 462.66,-69.94"/>
</a>
</g>
</g>
<!-- Node3&#45;&gt;Node5 -->
<g id="edge5_Node000003_Node000005" class="edge">
<title>Node3&#45;&gt;Node5</title>
<g id="a_edge5_Node000003_Node000005"><a xlink:title=" ">
<path fill="none" stroke="#63b8ff" d="M435.72,-43.62C445.73,-40.94 456.19,-38.15 466.44,-35.41"/>
<polygon fill="#63b8ff" stroke="#63b8ff" points="467.23,-38.82 475.99,-32.86 465.43,-32.06 467.23,-38.82"/>
</a>
</g>
</g>
<!-- Node4&#45;&gt;Node4 -->
<g id="edge4_Node000004_Node000004" class="edge">
<title>Node4&#45;&gt;Node4</title>
<g id="a_edge4_Node000004_Node000004"><a xlink:title=" ">
<path fill="none" stroke="#63b8ff" d="M509.23,-94.21C506.7,-103.8 517,-112 540.12,-112 553.49,-112 562.57,-109.26 567.37,-105.09"/>
<polygon fill="#63b8ff" stroke="#63b8ff" points="570.68,-106.24 570.54,-95.65 564.04,-104.02 570.68,-106.24"/>
</a>
</g>
</g>
</g>
</svg>
