<?xml version="1.0" encoding="UTF-8" standalone="no"?>
<!DOCTYPE svg PUBLIC "-//W3C//DTD SVG 1.1//EN"
 "http://www.w3.org/Graphics/SVG/1.1/DTD/svg11.dtd">
<!-- Generated by graphviz version 14.1.2 (20260124.0452)
 -->
<!-- Title: depicture_menu::domain::menu::radialmenu_item::get_action_id Pages: 1 -->
<svg width="684pt" height="251pt"
 viewBox="0.00 0.00 684.00 251.00" xmlns="http://www.w3.org/2000/svg" xmlns:xlink="http://www.w3.org/1999/xlink">
<g id="graph0" class="graph" transform="scale(1 1) rotate(0) translate(4 247)">
<title>depicture_menu::domain::menu::radialmenu_item::get_action_id</title>
<!-- Node1 -->
<g id="Node000001" class="node">
<title>Node1</title>
<g id="a_Node000001"><a xlink:title=" ">
<polygon fill="#999999" stroke="#666666" points="676,-168 552.75,-168 552.75,-124 676,-124 676,-168"/>
<text xml:space="preserve" text-anchor="start" x="560.75" y="-154.5" font-family="Helvetica,sans-Serif" font-size="10.00">depicture_menu::domain</text>
<text xml:space="preserve" text-anchor="start" x="560.75" y="-142.5" font-family="Helvetica,sans-Serif" font-size="10.00">::menu::radialmenu_item</text>
<text xml:space="preserve" text-anchor="middle" x="614.38" y="-130.5" font-family="Helvetica,sans-Serif" font-size="10.00">::get_action_id</text>
</a>
</g>
</g>
<!-- Node2 -->
<g id="Node000002" class="node">
<title>Node2</title>
<g id="a_Node000002"><a xlink:href="namespacedepicture__menu_1_1cs__binding.html#ae572bad0d69db1d1c8b9e1934514c6d9" target="_top" xlink:title=" ">
<polygon fill="white" stroke="#666666" points="314.75,-243 180.25,-243 180.25,-211 314.75,-211 314.75,-243"/>
<text xml:space="preserve" text-anchor="start" x="188.25" y="-229.5" font-family="Helvetica,sans-Serif" font-size="10.00">depicture_menu::cs</text>
<text xml:space="preserve" text-anchor="middle" x="247.5" y="-217.5" font-family="Helvetica,sans-Serif" font-size="10.00">_binding::apply_menu_item</text>
</a>
</g>
</g>
<!-- Node1&#45;&gt;Node2 -->
<g id="edge1_Node000001_Node000002" class="edge">
<title>Node1&#45;&gt;Node2</title>
<g id="a_edge1_Node000001_Node000002"><a xlink:title=" ">
<path fill="none" stroke="#63b8ff" d="M577.41,-175.21C560.12,-187.59 538.46,-200.79 516.75,-208 450.62,-229.96 370.42,-232.77 315.03,-231.3"/>
<polygon fill="#63b8ff" stroke="#63b8ff" points="579.36,-178.12 585.33,-169.37 575.2,-172.49 579.36,-178.12"/>
</a>
</g>
</g>
<!-- Node4 -->
<g id="Node000004" class="node">
<title>Node4</title>
<g id="a_Node000004"><a xlink:href="structdepicture__menu_1_1domain_1_1menu_1_1radialmenu__item.html#aadf2f8ebe06021b018c6c67e3dfa3682" target="_top" xlink:title=" ">
<polygon fill="white" stroke="#666666" points="500.62,-199 377.38,-199 377.38,-155 500.62,-155 500.62,-199"/>
<text xml:space="preserve" text-anchor="start" x="385.38" y="-185.5" font-family="Helvetica,sans-Serif" font-size="10.00">depicture_menu::domain</text>
<text xml:space="preserve" text-anchor="start" x="385.38" y="-173.5" font-family="Helvetica,sans-Serif" font-size="10.00">::menu::radialmenu_item</text>
<text xml:space="preserve" text-anchor="middle" x="439" y="-161.5" font-family="Helvetica,sans-Serif" font-size="10.00">::current_action_kind</text>
</a>
</g>
</g>
<!-- Node1&#45;&gt;Node4 -->
<g id="edge3_Node000001_Node000004" class="edge">
<title>Node1&#45;&gt;Node4</title>
<g id="a_edge3_Node000001_Node000004"><a xlink:title=" ">
<path fill="none" stroke="#63b8ff" d="M541.54,-158.84C528.03,-161.26 514.03,-163.76 500.9,-166.11"/>
<polygon fill="#63b8ff" stroke="#63b8ff" points="542.02,-162.31 551.25,-157.11 540.79,-155.42 542.02,-162.31"/>
</a>
</g>
</g>
<!-- Node6 -->
<g id="Node000006" class="node">
<title>Node6</title>
<g id="a_Node000006"><a xlink:href="structdepicture__menu_1_1domain_1_1menu_1_1radialmenu__item.html#a5f68ba3ad911890c83dcbdfd719ef1a8" target="_top" xlink:title=" ">
<polygon fill="white" stroke="#666666" points="500.62,-137 377.38,-137 377.38,-93 500.62,-93 500.62,-137"/>
<text xml:space="preserve" text-anchor="start" x="385.38" y="-123.5" font-family="Helvetica,sans-Serif" font-size="10.00">depicture_menu::domain</text>
<text xml:space="preserve" text-anchor="start" x="385.38" y="-111.5" font-family="Helvetica,sans-Serif" font-size="10.00">::menu::radialmenu_item</text>
<text xml:space="preserve" text-anchor="middle" x="439" y="-99.5" font-family="Helvetica,sans-Serif" font-size="10.00">::get_action_ids_range</text>
</a>
</g>
</g>
<!-- Node1&#45;&gt;Node6 -->
<g id="edge6_Node000001_Node000006" class="edge">
<title>Node1&#45;&gt;Node6</title>
<g id="a_edge6_Node000001_Node000006"><a xlink:title=" ">
<path fill="none" stroke="#63b8ff" d="M541.54,-133.16C528.03,-130.74 514.03,-128.24 500.9,-125.89"/>
<polygon fill="#63b8ff" stroke="#63b8ff" points="540.79,-136.58 551.25,-134.89 542.02,-129.69 540.79,-136.58"/>
</a>
</g>
</g>
<!-- Node7 -->
<g id="Node000007" class="node">
<title>Node7</title>
<g id="a_Node000007"><a xlink:href="structdepicture__menu_1_1usecase_1_1menu__item__sync.html#a73116168f11c4971bf386b8355e49889" target="_top" xlink:title=" ">
<polygon fill="white" stroke="#666666" points="516.75,-57 361.25,-57 361.25,-25 516.75,-25 516.75,-57"/>
<text xml:space="preserve" text-anchor="start" x="369.25" y="-43.5" font-family="Helvetica,sans-Serif" font-size="10.00">depicture_menu::usecase</text>
<text xml:space="preserve" text-anchor="middle" x="439" y="-31.5" font-family="Helvetica,sans-Serif" font-size="10.00">::menu_item_sync::make_query</text>
</a>
</g>
</g>
<!-- Node1&#45;&gt;Node7 -->
<g id="edge7_Node000001_Node000007" class="edge">
<title>Node1&#45;&gt;Node7</title>
<g id="a_edge7_Node000001_Node000007"><a xlink:title=" ">
<path fill="none" stroke="#63b8ff" d="M570.27,-117.56C553.67,-106.82 534.46,-94.63 516.75,-84 501.56,-74.88 484.38,-65.2 470.13,-57.33"/>
<polygon fill="#63b8ff" stroke="#63b8ff" points="568.14,-120.35 578.43,-122.87 571.96,-114.48 568.14,-120.35"/>
</a>
</g>
</g>
<!-- Node3 -->
<g id="Node000003" class="node">
<title>Node3</title>
<g id="a_Node000003"><a xlink:href="namespacedepicture__menu_1_1cs__binding.html#a17af5c2678e88aa88a411f7d98a360a5" target="_top" xlink:title=" ">
<polygon fill="white" stroke="#666666" points="133.75,-243 0,-243 0,-211 133.75,-211 133.75,-243"/>
<text xml:space="preserve" text-anchor="start" x="8" y="-229.5" font-family="Helvetica,sans-Serif" font-size="10.00">depicture_menu::cs</text>
<text xml:space="preserve" text-anchor="middle" x="66.88" y="-217.5" font-family="Helvetica,sans-Serif" font-size="10.00">_binding::apply_radialmenu</text>
</a>
</g>
</g>
<!-- Node2&#45;&gt;Node3 -->
<g id="edge2_Node000002_Node000003" class="edge">
<title>Node2&#45;&gt;Node3</title>
<g id="a_edge2_Node000002_Node000003"><a xlink:title=" ">
<path fill="none" stroke="#63b8ff" d="M168.61,-227C157.12,-227 145.37,-227 134.15,-227"/>
<polygon fill="#63b8ff" stroke="#63b8ff" points="168.47,-230.5 178.47,-227 168.47,-223.5 168.47,-230.5"/>
</a>
</g>
</g>
<!-- Node4&#45;&gt;Node2 -->
<g id="edge4_Node000004_Node000002" class="edge">
<title>Node4&#45;&gt;Node2</title>
<g id="a_edge4_Node000004_Node000002"><a xlink:title=" ">
<path fill="none" stroke="#63b8ff" d="M365.92,-196.02C347.84,-200.79 328.59,-205.87 311.02,-210.51"/>
<polygon fill="#63b8ff" stroke="#63b8ff" points="366.76,-199.42 375.53,-193.48 364.97,-192.65 366.76,-199.42"/>
</a>
</g>
</g>
<!-- Node5 -->
<g id="Node000005" class="node">
<title>Node5</title>
<g id="a_Node000005"><a xlink:href="namespacedepicture__menu_1_1usecase.html#a2c254e4837bdea923a00c9bb9387ea05" target="_top" xlink:title=" ">
<polygon fill="white" stroke="#666666" points="311.38,-193 183.62,-193 183.62,-161 311.38,-161 311.38,-193"/>
<text xml:space="preserve" text-anchor="start" x="191.62" y="-179.5" font-family="Helvetica,sans-Serif" font-size="10.00">depicture_menu::usecase</text>
<text xml:space="preserve" text-anchor="middle" x="247.5" y="-167.5" font-family="Helvetica,sans-Serif" font-size="10.00">::convert_to_dto</text>
</a>
</g>
</g>
<!-- Node4&#45;&gt;Node5 -->
<g id="edge5_Node000004_Node000005" class="edge">
<title>Node4&#45;&gt;Node5</title>
<g id="a_edge5_Node000004_Node000005"><a xlink:title=" ">
<path fill="none" stroke="#63b8ff" d="M365.53,-177C347.78,-177 328.94,-177 311.67,-177"/>
<polygon fill="#63b8ff" stroke="#63b8ff" points="365.48,-180.5 375.48,-177 365.48,-173.5 365.48,-180.5"/>
</a>
</g>
</g>
<!-- Node7&#45;&gt;Node7 -->
<g id="edge9_Node000007_Node000007" class="edge">
<title>Node7&#45;&gt;Node7</title>
<g id="a_edge9_Node000007_Node000007"><a xlink:title=" ">
<path fill="none" stroke="#63b8ff" d="M468.23,-68.71C463.35,-72.48 453.61,-75 439,-75 412.28,-75 401.85,-66.58 407.69,-57.44"/>
<polygon fill="#63b8ff" stroke="#63b8ff" points="471.66,-69.4 470.03,-58.93 464.77,-68.13 471.66,-69.4"/>
</a>
</g>
</g>
<!-- Node8 -->
<g id="Node000008" class="node">
<title>Node8</title>
<g id="a_Node000008"><a xlink:href="structdepicture__menu_1_1usecase_1_1menu__item__sync.html#a20a37011fcd78b49181246ad5a07097f" target="_top" xlink:title=" ">
<polygon fill="white" stroke="#666666" points="325.25,-82 169.75,-82 169.75,-50 325.25,-50 325.25,-82"/>
<text xml:space="preserve" text-anchor="start" x="177.75" y="-68.5" font-family="Helvetica,sans-Serif" font-size="10.00">depicture_menu::usecase</text>
<text xml:space="preserve" text-anchor="middle" x="247.5" y="-56.5" font-family="Helvetica,sans-Serif" font-size="10.00">::menu_item_sync::make_query</text>
</a>
</g>
</g>
<!-- Node7&#45;&gt;Node8 -->
<g id="edge8_Node000007_Node000008" class="edge">
<title>Node7&#45;&gt;Node8</title>
<g id="a_edge8_Node000007_Node000008"><a xlink:title=" ">
<path fill="none" stroke="#63b8ff" d="M349.61,-52.66C341.56,-53.72 333.45,-54.79 325.51,-55.84"/>
<polygon fill="#63b8ff" stroke="#63b8ff" points="349.97,-56.14 359.42,-51.37 349.05,-49.2 349.97,-56.14"/>
</a>
</g>
</g>
<!-- Node9 -->
<g id="Node000009" class="node">
<title>Node9</title>
<g id="a_Node000009"><a xlink:href="structdepicture__menu_1_1usecase_1_1menu__item__sync.html#a9fd674e4ea4f37a1275b7fcf15ad2ae5" target="_top" xlink:title=" ">
<polygon fill="white" stroke="#666666" points="319.25,-32 175.75,-32 175.75,0 319.25,0 319.25,-32"/>
<text xml:space="preserve" text-anchor="start" x="183.75" y="-18.5" font-family="Helvetica,sans-Serif" font-size="10.00">depicture_menu::usecase</text>
<text xml:space="preserve" text-anchor="middle" x="247.5" y="-6.5" font-family="Helvetica,sans-Serif" font-size="10.00">::menu_item_sync::operator()</text>
</a>
</g>
</g>
<!-- Node7&#45;&gt;Node9 -->
<g id="edge10_Node000007_Node000009" class="edge">
<title>Node7&#45;&gt;Node9</title>
<g id="a_edge10_Node000007_Node000009"><a xlink:title=" ">
<path fill="none" stroke="#63b8ff" d="M349.65,-29.34C339.62,-28.02 329.48,-26.68 319.7,-25.39"/>
<polygon fill="#63b8ff" stroke="#63b8ff" points="349.05,-32.8 359.42,-30.63 349.97,-25.86 349.05,-32.8"/>
</a>
</g>
</g>
</g>
</svg>
