<?xml version="1.0" encoding="UTF-8" standalone="no"?>
<!DOCTYPE svg PUBLIC "-//W3C//DTD SVG 1.1//EN"
 "http://www.w3.org/Graphics/SVG/1.1/DTD/svg11.dtd">
<!-- Generated by graphviz version 14.1.2 (20260124.0452)
 -->
<!-- Title: depicture_menu::domain::menu::radialmenu_item::set_action_id Pages: 1 -->
<svg width="658pt" height="102pt"
 viewBox="0.00 0.00 658.00 102.00" xmlns="http://www.w3.org/2000/svg" xmlns:xlink="http://www.w3.org/1999/xlink">
<g id="graph0" class="graph" transform="scale(1 1) rotate(0) translate(4 98)">
<title>depicture_menu::domain::menu::radialmenu_item::set_action_id</title>
<!-- Node1 -->
<g id="Node000001" class="node">
<title>Node1</title>
<g id="a_Node000001"><a xlink:title=" ">
<polygon fill="#999999" stroke="#666666" points="649.75,-72 526.5,-72 526.5,-28 649.75,-28 649.75,-72"/>
<text xml:space="preserve" text-anchor="start" x="534.5" y="-58.5" font-family="Helvetica,sans-Serif" font-size="10.00">depicture_menu::domain</text>
<text xml:space="preserve" text-anchor="start" x="534.5" y="-46.5" font-family="Helvetica,sans-Serif" font-size="10.00">::menu::radialmenu_item</text>
<text xml:space="preserve" text-anchor="middle" x="588.12" y="-34.5" font-family="Helvetica,sans-Serif" font-size="10.00">::set_action_id</text>
</a>
</g>
</g>
<!-- Node2 -->
<g id="Node000002" class="node">
<title>Node2</title>
<g id="a_Node000002"><a xlink:href="structdepicture__menu_1_1domain_1_1menu_1_1radialmenu__item.html#aadf2f8ebe06021b018c6c67e3dfa3682" target="_top" xlink:title=" ">
<polygon fill="white" stroke="#666666" points="490.5,-72 367.25,-72 367.25,-28 490.5,-28 490.5,-72"/>
<text xml:space="preserve" text-anchor="start" x="375.25" y="-58.5" font-family="Helvetica,sans-Serif" font-size="10.00">depicture_menu::domain</text>
<text xml:space="preserve" text-anchor="start" x="375.25" y="-46.5" font-family="Helvetica,sans-Serif" font-size="10.00">::menu::radialmenu_item</text>
<text xml:space="preserve" text-anchor="middle" x="428.88" y="-34.5" font-family="Helvetica,sans-Serif" font-size="10.00">::current_action_kind</text>
</a>
</g>
</g>
<!-- Node1&#45;&gt;Node2 -->
<g id="edge1_Node000001_Node000002" class="edge">
<title>Node1&#45;&gt;Node2</title>
<g id="a_edge1_Node000001_Node000002"><a xlink:title=" ">
<path fill="none" stroke="#63b8ff" d="M514.98,-50C506.89,-50 498.7,-50 490.77,-50"/>
<polygon fill="#63b8ff" stroke="#63b8ff" points="514.81,-53.5 524.81,-50 514.81,-46.5 514.81,-53.5"/>
</a>
</g>
</g>
<!-- Node3 -->
<g id="Node000003" class="node">
<title>Node3</title>
<g id="a_Node000003"><a xlink:href="namespacedepicture__menu_1_1cs__binding.html#ae572bad0d69db1d1c8b9e1934514c6d9" target="_top" xlink:title=" ">
<polygon fill="white" stroke="#666666" points="317.75,-92 183.25,-92 183.25,-60 317.75,-60 317.75,-92"/>
<text xml:space="preserve" text-anchor="start" x="191.25" y="-78.5" font-family="Helvetica,sans-Serif" font-size="10.00">depicture_menu::cs</text>
<text xml:space="preserve" text-anchor="middle" x="250.5" y="-66.5" font-family="Helvetica,sans-Serif" font-size="10.00">_binding::apply_menu_item</text>
</a>
</g>
</g>
<!-- Node2&#45;&gt;Node3 -->
<g id="edge2_Node000002_Node000003" class="edge">
<title>Node2&#45;&gt;Node3</title>
<g id="a_edge2_Node000002_Node000003"><a xlink:title=" ">
<path fill="none" stroke="#63b8ff" d="M355.85,-60.62C343.35,-62.46 330.39,-64.37 318.04,-66.19"/>
<polygon fill="#63b8ff" stroke="#63b8ff" points="356.3,-64.09 365.68,-59.17 355.28,-57.16 356.3,-64.09"/>
</a>
</g>
</g>
<!-- Node5 -->
<g id="Node000005" class="node">
<title>Node5</title>
<g id="a_Node000005"><a xlink:href="namespacedepicture__menu_1_1usecase_1_1detail__usecase.html#a9820c50bfcd072e7ea64e14cc94ad567" target="_top" xlink:title=" ">
<polygon fill="white" stroke="#666666" points="331.25,-41 169.75,-41 169.75,-9 331.25,-9 331.25,-41"/>
<text xml:space="preserve" text-anchor="start" x="177.75" y="-27.5" font-family="Helvetica,sans-Serif" font-size="10.00">depicture_menu::usecase</text>
<text xml:space="preserve" text-anchor="middle" x="250.5" y="-15.5" font-family="Helvetica,sans-Serif" font-size="10.00">::detail_usecase::do_show_menu</text>
</a>
</g>
</g>
<!-- Node2&#45;&gt;Node5 -->
<g id="edge4_Node000002_Node000005" class="edge">
<title>Node2&#45;&gt;Node5</title>
<g id="a_edge4_Node000002_Node000005"><a xlink:title=" ">
<path fill="none" stroke="#63b8ff" d="M355.98,-39.81C347.96,-38.67 339.74,-37.51 331.62,-36.36"/>
<polygon fill="#63b8ff" stroke="#63b8ff" points="355.29,-43.25 365.68,-41.18 356.27,-36.32 355.29,-43.25"/>
</a>
</g>
</g>
<!-- Node4 -->
<g id="Node000004" class="node">
<title>Node4</title>
<g id="a_Node000004"><a xlink:href="namespacedepicture__menu_1_1cs__binding.html#a17af5c2678e88aa88a411f7d98a360a5" target="_top" xlink:title=" ">
<polygon fill="white" stroke="#666666" points="133.75,-94 0,-94 0,-62 133.75,-62 133.75,-94"/>
<text xml:space="preserve" text-anchor="start" x="8" y="-80.5" font-family="Helvetica,sans-Serif" font-size="10.00">depicture_menu::cs</text>
<text xml:space="preserve" text-anchor="middle" x="66.88" y="-68.5" font-family="Helvetica,sans-Serif" font-size="10.00">_binding::apply_radialmenu</text>
</a>
</g>
</g>
<!-- Node3&#45;&gt;Node4 -->
<g id="edge3_Node000003_Node000004" class="edge">
<title>Node3&#45;&gt;Node4</title>
<g id="a_edge3_Node000003_Node000004"><a xlink:title=" ">
<path fill="none" stroke="#63b8ff" d="M171.58,-76.86C159.11,-77 146.32,-77.14 134.16,-77.27"/>
<polygon fill="#63b8ff" stroke="#63b8ff" points="171.43,-80.36 181.39,-76.75 171.35,-73.36 171.43,-80.36"/>
</a>
</g>
</g>
<!-- Node6 -->
<g id="Node000006" class="node">
<title>Node6</title>
<g id="a_Node000006"><a xlink:href="classdepicture__menu_1_1usecase_1_1show__menu__view.html#a39a24262aa5bbf60e9429380652bd850" target="_top" xlink:title=" ">
<polygon fill="white" stroke="#666666" points="131.5,-44 2.25,-44 2.25,0 131.5,0 131.5,-44"/>
<text xml:space="preserve" text-anchor="start" x="10.25" y="-30.5" font-family="Helvetica,sans-Serif" font-size="10.00">depicture_menu::usecase</text>
<text xml:space="preserve" text-anchor="start" x="10.25" y="-18.5" font-family="Helvetica,sans-Serif" font-size="10.00">::show_menu_view::show</text>
<text xml:space="preserve" text-anchor="middle" x="66.88" y="-6.5" font-family="Helvetica,sans-Serif" font-size="10.00">_default_menu</text>
</a>
</g>
</g>
<!-- Node5&#45;&gt;Node6 -->
<g id="edge5_Node000005_Node000006" class="edge">
<title>Node5&#45;&gt;Node6</title>
<g id="a_edge5_Node000005_Node000006"><a xlink:title=" ">
<path fill="none" stroke="#63b8ff" d="M158.09,-23.49C149.22,-23.34 140.35,-23.2 131.83,-23.06"/>
<polygon fill="#63b8ff" stroke="#63b8ff" points="157.74,-26.98 167.79,-23.65 157.85,-19.99 157.74,-26.98"/>
</a>
</g>
</g>
</g>
</svg>
