<?xml version="1.0" encoding="UTF-8" standalone="no"?>
<!DOCTYPE svg PUBLIC "-//W3C//DTD SVG 1.1//EN"
 "http://www.w3.org/Graphics/SVG/1.1/DTD/svg11.dtd">
<!-- Generated by graphviz version 14.1.2 (20260124.0452)
 -->
<!-- Title: depicture_menu::domain::commands::detail_commands::invoker_data Pages: 1 -->
<!--zoomable 102 -->

<svg id="main" version="1.1" xmlns="http://www.w3.org/2000/svg" xmlns:xlink="http://www.w3.org/1999/xlink" xml:space="preserve" onload="init(evt)">

<style type="text/css"><![CDATA[
.node, .edge {opacity: 0.7;}
.node.selected, .edge.selected {opacity: 1;}
.edge:hover path { stroke: red; }
.edge:hover polygon { stroke: red; fill: red; }
]]></style>

<defs>
  <circle id="rim" cx="0" cy="0" r="7"/>
  <circle id="rim2" cx="0" cy="0" r="3.5"/>
  <g id="zoomPlus">
    <use xlink:href="#rim" fill="#404040"><set attributeName="fill" to="#808080" begin="zoomplus.mouseover" end="zoomplus.mouseout"/></use>
    <path d="M-4,0h8M0,-4v8" fill="none" stroke="white" stroke-width="1.5" pointer-events="none"/>
  </g>
  <g id="zoomMin">
    <use xlink:href="#rim" fill="#404040"><set attributeName="fill" to="#808080" begin="zoomminus.mouseover" end="zoomminus.mouseout"/></use>
    <path d="M-4,0h8" fill="none" stroke="white" stroke-width="1.5" pointer-events="none"/>
  </g>
  <g id="arrowUp" transform="translate(30 24)">
    <use xlink:href="#rim"/>
    <path pointer-events="none" fill="none" stroke="white" stroke-width="1.5" d="M0,-3.0v7 M-2.5,-0.5L0,-3.0L2.5,-0.5"/>
  </g>
  <g id="arrowRight" transform="rotate(90) translate(36 -43)">
    <use xlink:href="#rim"/>
    <path pointer-events="none" fill="none" stroke="white" stroke-width="1.5" d="M0,-3.0v7 M-2.5,-0.5L0,-3.0L2.5,-0.5"/>
  </g>
  <g id="arrowDown" transform="rotate(180) translate(-30 -48)">
    <use xlink:href="#rim"/>
    <path pointer-events="none" fill="none" stroke="white" stroke-width="1.5" d="M0,-3.0v7 M-2.5,-0.5L0,-3.0L2.5,-0.5"/>
  </g>
  <g id="arrowLeft" transform="rotate(270) translate(-36 17)">
    <use xlink:href="#rim"/>
    <path pointer-events="none" fill="none" stroke="white" stroke-width="1.5" d="M0,-3.0v7 M-2.5,-0.5L0,-3.0L2.5,-0.5"/>
  </g>
  <g id="resetDef">
    <use xlink:href="#rim2" fill="#404040"><set attributeName="fill" to="#808080" begin="reset.mouseover" end="reset.mouseout"/></use>
  </g>
</defs>
<script type="application/ecmascript">
var viewWidth = 703;
var viewHeight = 102;
var sectionId = 'dynsection-0';
</script>
<script type="application/ecmascript" xlink:href="svg.min.js"/>
<svg id="graph" class="graph">
<g id="viewport">
<title>depicture_menu::domain::commands::detail_commands::invoker_data</title>
<!-- Node1 -->
<g id="Node000001" class="node">
<title>Node1</title>
<g id="a_Node000001"><a xlink:title=" ">
<polygon fill="#999999" stroke="#666666" points="694.55,-72 542.05,-72 542.05,-28 694.55,-28 694.55,-72"/>
<text xml:space="preserve" text-anchor="start" x="550.05" y="-58.5" font-family="Helvetica,sans-Serif" font-size="10.00">depicture_menu::domain</text>
<text xml:space="preserve" text-anchor="start" x="550.05" y="-46.5" font-family="Helvetica,sans-Serif" font-size="10.00">::commands::detail_commands</text>
<text xml:space="preserve" text-anchor="middle" x="618.3" y="-34.5" font-family="Helvetica,sans-Serif" font-size="10.00">::invoker_data</text>
</a>
</g>
</g>
<!-- Node2 -->
<g id="Node000002" class="node">
<title>Node2</title>
<g id="a_Node000002"><a xlink:href="structdepicture__menu_1_1domain_1_1commands_1_1index.html" target="_top" xlink:title=" ">
<polygon fill="white" stroke="#666666" points="416.8,-94 294.3,-94 294.3,-62 416.8,-62 416.8,-94"/>
<text xml:space="preserve" text-anchor="start" x="302.3" y="-80.5" font-family="Helvetica,sans-Serif" font-size="10.00">depicture_menu::domain</text>
<text xml:space="preserve" text-anchor="middle" x="355.55" y="-68.5" font-family="Helvetica,sans-Serif" font-size="10.00">::commands::index</text>
</a>
</g>
</g>
<!-- Node2&#45;&gt;Node1 -->
<g id="edge1_Node000001_Node000002" class="edge">
<title>Node2&#45;&gt;Node1</title>
<g id="a_edge1_Node000001_Node000002"><a xlink:title=" ">
<path fill="none" stroke="#9a32cd" stroke-dasharray="5,2" d="M428.2,-70.31C463.47,-66.52 505.97,-61.95 541.75,-58.11"/>
<polygon fill="#9a32cd" stroke="#9a32cd" points="428.1,-66.8 418.53,-71.34 428.85,-73.76 428.1,-66.8"/>
</a>
</g>
<text xml:space="preserve" text-anchor="start" x="474.92" y="-72.83" font-family="Helvetica,sans-Serif" font-size="10.00" fill="grey">index_</text>
</g>
<!-- Node3 -->
<g id="Node000003" class="node">
<title>Node3</title>
<g id="a_Node000003"><a xlink:href="classdepicture__menu_1_1domain_1_1commands_1_1common__command__define.html" target="_top" xlink:title=" ">
<polygon fill="white" stroke="#666666" points="436.3,-44 274.8,-44 274.8,0 436.3,0 436.3,-44"/>
<text xml:space="preserve" text-anchor="start" x="282.8" y="-30.5" font-family="Helvetica,sans-Serif" font-size="10.00">depicture_menu::domain</text>
<text xml:space="preserve" text-anchor="start" x="282.8" y="-18.5" font-family="Helvetica,sans-Serif" font-size="10.00">::commands::common_command</text>
<text xml:space="preserve" text-anchor="middle" x="355.55" y="-6.5" font-family="Helvetica,sans-Serif" font-size="10.00">_define</text>
</a>
</g>
</g>
<!-- Node3&#45;&gt;Node1 -->
<g id="edge2_Node000001_Node000003" class="edge">
<title>Node3&#45;&gt;Node1</title>
<g id="a_edge2_Node000001_Node000003"><a xlink:title=" ">
<path fill="none" stroke="#9a32cd" stroke-dasharray="5,2" d="M447.87,-31C472.6,-33.51 499.36,-36.29 524.05,-39 529.8,-39.63 535.75,-40.3 541.74,-40.98"/>
<polygon fill="#9a32cd" stroke="#9a32cd" points="448.47,-27.54 438.17,-30.02 447.77,-34.5 448.47,-27.54"/>
</a>
</g>
<text xml:space="preserve" text-anchor="start" x="457.3" y="-44.5" font-family="Helvetica,sans-Serif" font-size="10.00" fill="grey">param_define_</text>
</g>
<!-- Node4 -->
<g id="Node000004" class="node">
<title>Node4</title>
<g id="a_Node000004"><a xlink:href="structdepicture__menu_1_1domain_1_1models_1_1base_1_1value__object__base.html" target="_top" xlink:title=" ">
<polygon fill="white" stroke="#666666" points="237.8,-44 65.8,-44 65.8,0 237.8,0 237.8,-44"/>
<text xml:space="preserve" text-anchor="start" x="73.8" y="-30.5" font-family="Helvetica,sans-Serif" font-size="10.00">models::value_object</text>
<text xml:space="preserve" text-anchor="start" x="73.8" y="-18.5" font-family="Helvetica,sans-Serif" font-size="10.00">_base&lt; detail_commands</text>
<text xml:space="preserve" text-anchor="middle" x="151.8" y="-6.5" font-family="Helvetica,sans-Serif" font-size="10.00">::common_command_define_data &gt;</text>
</a>
</g>
</g>
<!-- Node4&#45;&gt;Node3 -->
<g id="edge3_Node000003_Node000004" class="edge">
<title>Node4&#45;&gt;Node3</title>
<g id="a_edge3_Node000003_Node000004"><a xlink:title=" ">
<path fill="none" stroke="#63b8ff" d="M249.43,-22C257.79,-22 266.19,-22 274.41,-22"/>
<polygon fill="#63b8ff" stroke="#63b8ff" points="249.58,-18.5 239.58,-22 249.58,-25.5 249.58,-18.5"/>
</a>
</g>
</g>
<!-- Node5 -->
<g id="Node000005" class="node">
<title>Node5</title>
<g id="a_Node000005"><a xlink:title=" ">
<polygon fill="white" stroke="#666666" points="28.8,-32 0,-32 0,-12 28.8,-12 28.8,-32"/>
<text xml:space="preserve" text-anchor="middle" x="14.4" y="-18.5" font-family="Helvetica,sans-Serif" font-size="10.00">V</text>
</a>
</g>
</g>
<!-- Node5&#45;&gt;Node4 -->
<g id="edge4_Node000004_Node000005" class="edge">
<title>Node5&#45;&gt;Node4</title>
<g id="a_edge4_Node000004_Node000005"><a xlink:title=" ">
<path fill="none" stroke="#63b8ff" d="M40.4,-22C47.82,-22 56.4,-22 65.42,-22"/>
<polygon fill="#63b8ff" stroke="#63b8ff" points="40.64,-18.5 30.64,-22 40.64,-25.5 40.64,-18.5"/>
</a>
</g>
</g>
</g>
</svg>

<g id="navigator" transform="translate(0 0)" fill="#404254">
  <rect fill="#f2f5e9" fill-opacity="0.5" stroke="#606060" stroke-width=".5" x="0" y="0" width="60" height="60"/>
  <use id="zoomplus" xlink:href="#zoomPlus" x="17" y="9" onmousedown="handleZoom(evt,'in')"/>
  <use id="zoomminus" xlink:href="#zoomMin" x="42" y="9" onmousedown="handleZoom(evt,'out')"/>
  <use id="reset" xlink:href="#resetDef" x="30" y="36" onmousedown="handleReset()"/>
   <use id="arrowup" xlink:href="#arrowUp" x="0" y="0" onmousedown="handlePan(0,-1)"/>
  <use id="arrowright" xlink:href="#arrowRight" x="0" y="0" onmousedown="handlePan(1,0)"/>
  <use id="arrowdown" xlink:href="#arrowDown" x="0" y="0" onmousedown="handlePan(0,1)"/>
  <use id="arrowleft" xlink:href="#arrowLeft" x="0" y="0" onmousedown="handlePan(-1,0)"/>
</g>
<svg viewBox="0 0 15 15" width="100%" height="30px" preserveAspectRatio="xMaxYMin meet">
 <g id="arrow_out" transform="scale(0.3 0.3)">
  <a xlink:href="structdepicture__menu_1_1domain_1_1commands_1_1detail__commands_1_1invoker__data__coll__graph_org.svg" target="_base">
   <rect id="button" ry="5" rx="5" y="6" x="6" height="38" width="38"
        fill="#f2f5e9" fill-opacity="0.5" stroke="#606060" stroke-width="1.0"/>
   <path id="arrow"
     d="M 11.500037,31.436501 C 11.940474,20.09759 22.043105,11.32322 32.158766,21.979434 L 37.068811,17.246167 C 37.068811,17.246167 37.088388,32 37.088388,32 L 22.160133,31.978069 C 22.160133,31.978069 26.997745,27.140456 26.997745,27.140456 C 18.528582,18.264221 13.291696,25.230495 11.500037,31.436501 z"
     style="fill:#404040;"/>
  </a>
 </g>
</svg>

<style type='text/css'>
<![CDATA[
[data-mouse-over-selected='false'] { opacity: 0.7; }
[data-mouse-over-selected='true']  { opacity: 1.0; }
]]>
</style>
<script type="application/ecmascript"><![CDATA[
document.addEventListener('DOMContentLoaded', (event) => {
  highlightEdges();
  highlightAdjacentNodes();
});
]]></script>
</svg>
