<?xml version="1.0" encoding="UTF-8" standalone="no"?>
<!DOCTYPE svg PUBLIC "-//W3C//DTD SVG 1.1//EN"
 "http://www.w3.org/Graphics/SVG/1.1/DTD/svg11.dtd">
<!-- Generated by graphviz version 14.1.2 (20260124.0452)
 -->
<!-- Title: depicture_menu::domain::menu::radialmenu_item::set_action_id Pages: 1 -->
<!--zoomable 102 -->

<svg id="main" version="1.1" xmlns="http://www.w3.org/2000/svg" xmlns:xlink="http://www.w3.org/1999/xlink" xml:space="preserve" onload="init(evt)">

<style type="text/css"><![CDATA[
.node, .edge {opacity: 0.7;}
.node.selected, .edge.selected {opacity: 1;}
.edge:hover path { stroke: red; }
.edge:hover polygon { stroke: red; fill: red; }
]]></style>

<defs>
  <circle id="rim" cx="0" cy="0" r="7"/>
  <circle id="rim2" cx="0" cy="0" r="3.5"/>
  <g id="zoomPlus">
    <use xlink:href="#rim" fill="#404040"><set attributeName="fill" to="#808080" begin="zoomplus.mouseover" end="zoomplus.mouseout"/></use>
    <path d="M-4,0h8M0,-4v8" fill="none" stroke="white" stroke-width="1.5" pointer-events="none"/>
  </g>
  <g id="zoomMin">
    <use xlink:href="#rim" fill="#404040"><set attributeName="fill" to="#808080" begin="zoomminus.mouseover" end="zoomminus.mouseout"/></use>
    <path d="M-4,0h8" fill="none" stroke="white" stroke-width="1.5" pointer-events="none"/>
  </g>
  <g id="arrowUp" transform="translate(30 24)">
    <use xlink:href="#rim"/>
    <path pointer-events="none" fill="none" stroke="white" stroke-width="1.5" d="M0,-3.0v7 M-2.5,-0.5L0,-3.0L2.5,-0.5"/>
  </g>
  <g id="arrowRight" transform="rotate(90) translate(36 -43)">
    <use xlink:href="#rim"/>
    <path pointer-events="none" fill="none" stroke="white" stroke-width="1.5" d="M0,-3.0v7 M-2.5,-0.5L0,-3.0L2.5,-0.5"/>
  </g>
  <g id="arrowDown" transform="rotate(180) translate(-30 -48)">
    <use xlink:href="#rim"/>
    <path pointer-events="none" fill="none" stroke="white" stroke-width="1.5" d="M0,-3.0v7 M-2.5,-0.5L0,-3.0L2.5,-0.5"/>
  </g>
  <g id="arrowLeft" transform="rotate(270) translate(-36 17)">
    <use xlink:href="#rim"/>
    <path pointer-events="none" fill="none" stroke="white" stroke-width="1.5" d="M0,-3.0v7 M-2.5,-0.5L0,-3.0L2.5,-0.5"/>
  </g>
  <g id="resetDef">
    <use xlink:href="#rim2" fill="#404040"><set attributeName="fill" to="#808080" begin="reset.mouseover" end="reset.mouseout"/></use>
  </g>
</defs>
<script type="application/ecmascript">
var viewWidth = 658;
var viewHeight = 102;
var sectionId = 'dynsection-23';
</script>
<script type="application/ecmascript" xlink:href="svg.min.js"/>
<svg id="graph" class="graph">
<g id="viewport">
<title>depicture_menu::domain::menu::radialmenu_item::set_action_id</title>
<!-- Node1 -->
<g id="Node000001" class="node">
<title>Node1</title>
<g id="a_Node000001"><a xlink:title=" ">
<polygon fill="#999999" stroke="#666666" points="649.75,-72 526.5,-72 526.5,-28 649.75,-28 649.75,-72"/>
<text xml:space="preserve" text-anchor="start" x="534.5" y="-58.5" font-family="Helvetica,sans-Serif" font-size="10.00">depicture_menu::domain</text>
<text xml:space="preserve" text-anchor="start" x="534.5" y="-46.5" font-family="Helvetica,sans-Serif" font-size="10.00">::menu::radialmenu_item</text>
<text xml:space="preserve" text-anchor="middle" x="588.12" y="-34.5" font-family="Helvetica,sans-Serif" font-size="10.00">::set_action_id</text>
</a>
</g>
</g>
<!-- Node2 -->
<g id="Node000002" class="node">
<title>Node2</title>
<g id="a_Node000002"><a xlink:href="structdepicture__menu_1_1domain_1_1menu_1_1radialmenu__item.html#aadf2f8ebe06021b018c6c67e3dfa3682" target="_top" xlink:title=" ">
<polygon fill="white" stroke="#666666" points="490.5,-72 367.25,-72 367.25,-28 490.5,-28 490.5,-72"/>
<text xml:space="preserve" text-anchor="start" x="375.25" y="-58.5" font-family="Helvetica,sans-Serif" font-size="10.00">depicture_menu::domain</text>
<text xml:space="preserve" text-anchor="start" x="375.25" y="-46.5" font-family="Helvetica,sans-Serif" font-size="10.00">::menu::radialmenu_item</text>
<text xml:space="preserve" text-anchor="middle" x="428.88" y="-34.5" font-family="Helvetica,sans-Serif" font-size="10.00">::current_action_kind</text>
</a>
</g>
</g>
<!-- Node1&#45;&gt;Node2 -->
<g id="edge1_Node000001_Node000002" class="edge">
<title>Node1&#45;&gt;Node2</title>
<g id="a_edge1_Node000001_Node000002"><a xlink:title=" ">
<path fill="none" stroke="#63b8ff" d="M514.98,-50C506.89,-50 498.7,-50 490.77,-50"/>
<polygon fill="#63b8ff" stroke="#63b8ff" points="514.81,-53.5 524.81,-50 514.81,-46.5 514.81,-53.5"/>
</a>
</g>
</g>
<!-- Node3 -->
<g id="Node000003" class="node">
<title>Node3</title>
<g id="a_Node000003"><a xlink:href="namespacedepicture__menu_1_1cs__binding.html#ae572bad0d69db1d1c8b9e1934514c6d9" target="_top" xlink:title=" ">
<polygon fill="white" stroke="#666666" points="317.75,-92 183.25,-92 183.25,-60 317.75,-60 317.75,-92"/>
<text xml:space="preserve" text-anchor="start" x="191.25" y="-78.5" font-family="Helvetica,sans-Serif" font-size="10.00">depicture_menu::cs</text>
<text xml:space="preserve" text-anchor="middle" x="250.5" y="-66.5" font-family="Helvetica,sans-Serif" font-size="10.00">_binding::apply_menu_item</text>
</a>
</g>
</g>
<!-- Node2&#45;&gt;Node3 -->
<g id="edge2_Node000002_Node000003" class="edge">
<title>Node2&#45;&gt;Node3</title>
<g id="a_edge2_Node000002_Node000003"><a xlink:title=" ">
<path fill="none" stroke="#63b8ff" d="M355.85,-60.62C343.35,-62.46 330.39,-64.37 318.04,-66.19"/>
<polygon fill="#63b8ff" stroke="#63b8ff" points="356.3,-64.09 365.68,-59.17 355.28,-57.16 356.3,-64.09"/>
</a>
</g>
</g>
<!-- Node5 -->
<g id="Node000005" class="node">
<title>Node5</title>
<g id="a_Node000005"><a xlink:href="namespacedepicture__menu_1_1usecase_1_1detail__usecase.html#a9820c50bfcd072e7ea64e14cc94ad567" target="_top" xlink:title=" ">
<polygon fill="white" stroke="#666666" points="331.25,-41 169.75,-41 169.75,-9 331.25,-9 331.25,-41"/>
<text xml:space="preserve" text-anchor="start" x="177.75" y="-27.5" font-family="Helvetica,sans-Serif" font-size="10.00">depicture_menu::usecase</text>
<text xml:space="preserve" text-anchor="middle" x="250.5" y="-15.5" font-family="Helvetica,sans-Serif" font-size="10.00">::detail_usecase::do_show_menu</text>
</a>
</g>
</g>
<!-- Node2&#45;&gt;Node5 -->
<g id="edge4_Node000002_Node000005" class="edge">
<title>Node2&#45;&gt;Node5</title>
<g id="a_edge4_Node000002_Node000005"><a xlink:title=" ">
<path fill="none" stroke="#63b8ff" d="M355.98,-39.81C347.96,-38.67 339.74,-37.51 331.62,-36.36"/>
<polygon fill="#63b8ff" stroke="#63b8ff" points="355.29,-43.25 365.68,-41.18 356.27,-36.32 355.29,-43.25"/>
</a>
</g>
</g>
<!-- Node4 -->
<g id="Node000004" class="node">
<title>Node4</title>
<g id="a_Node000004"><a xlink:href="namespacedepicture__menu_1_1cs__binding.html#a17af5c2678e88aa88a411f7d98a360a5" target="_top" xlink:title=" ">
<polygon fill="white" stroke="#666666" points="133.75,-94 0,-94 0,-62 133.75,-62 133.75,-94"/>
<text xml:space="preserve" text-anchor="start" x="8" y="-80.5" font-family="Helvetica,sans-Serif" font-size="10.00">depicture_menu::cs</text>
<text xml:space="preserve" text-anchor="middle" x="66.88" y="-68.5" font-family="Helvetica,sans-Serif" font-size="10.00">_binding::apply_radialmenu</text>
</a>
</g>
</g>
<!-- Node3&#45;&gt;Node4 -->
<g id="edge3_Node000003_Node000004" class="edge">
<title>Node3&#45;&gt;Node4</title>
<g id="a_edge3_Node000003_Node000004"><a xlink:title=" ">
<path fill="none" stroke="#63b8ff" d="M171.58,-76.86C159.11,-77 146.32,-77.14 134.16,-77.27"/>
<polygon fill="#63b8ff" stroke="#63b8ff" points="171.43,-80.36 181.39,-76.75 171.35,-73.36 171.43,-80.36"/>
</a>
</g>
</g>
<!-- Node6 -->
<g id="Node000006" class="node">
<title>Node6</title>
<g id="a_Node000006"><a xlink:href="classdepicture__menu_1_1usecase_1_1show__menu__view.html#a39a24262aa5bbf60e9429380652bd850" target="_top" xlink:title=" ">
<polygon fill="white" stroke="#666666" points="131.5,-44 2.25,-44 2.25,0 131.5,0 131.5,-44"/>
<text xml:space="preserve" text-anchor="start" x="10.25" y="-30.5" font-family="Helvetica,sans-Serif" font-size="10.00">depicture_menu::usecase</text>
<text xml:space="preserve" text-anchor="start" x="10.25" y="-18.5" font-family="Helvetica,sans-Serif" font-size="10.00">::show_menu_view::show</text>
<text xml:space="preserve" text-anchor="middle" x="66.88" y="-6.5" font-family="Helvetica,sans-Serif" font-size="10.00">_default_menu</text>
</a>
</g>
</g>
<!-- Node5&#45;&gt;Node6 -->
<g id="edge5_Node000005_Node000006" class="edge">
<title>Node5&#45;&gt;Node6</title>
<g id="a_edge5_Node000005_Node000006"><a xlink:title=" ">
<path fill="none" stroke="#63b8ff" d="M158.09,-23.49C149.22,-23.34 140.35,-23.2 131.83,-23.06"/>
<polygon fill="#63b8ff" stroke="#63b8ff" points="157.74,-26.98 167.79,-23.65 157.85,-19.99 157.74,-26.98"/>
</a>
</g>
</g>
</g>
</svg>

<g id="navigator" transform="translate(0 0)" fill="#404254">
  <rect fill="#f2f5e9" fill-opacity="0.5" stroke="#606060" stroke-width=".5" x="0" y="0" width="60" height="60"/>
  <use id="zoomplus" xlink:href="#zoomPlus" x="17" y="9" onmousedown="handleZoom(evt,'in')"/>
  <use id="zoomminus" xlink:href="#zoomMin" x="42" y="9" onmousedown="handleZoom(evt,'out')"/>
  <use id="reset" xlink:href="#resetDef" x="30" y="36" onmousedown="handleReset()"/>
   <use id="arrowup" xlink:href="#arrowUp" x="0" y="0" onmousedown="handlePan(0,-1)"/>
  <use id="arrowright" xlink:href="#arrowRight" x="0" y="0" onmousedown="handlePan(1,0)"/>
  <use id="arrowdown" xlink:href="#arrowDown" x="0" y="0" onmousedown="handlePan(0,1)"/>
  <use id="arrowleft" xlink:href="#arrowLeft" x="0" y="0" onmousedown="handlePan(-1,0)"/>
</g>
<svg viewBox="0 0 15 15" width="100%" height="30px" preserveAspectRatio="xMaxYMin meet">
 <g id="arrow_out" transform="scale(0.3 0.3)">
  <a xlink:href="structdepicture__menu_1_1domain_1_1menu_1_1radialmenu__item_a8c4c4fb516ddc27ca04ae1f8babe76f3_icgraph_org.svg" target="_base">
   <rect id="button" ry="5" rx="5" y="6" x="6" height="38" width="38"
        fill="#f2f5e9" fill-opacity="0.5" stroke="#606060" stroke-width="1.0"/>
   <path id="arrow"
     d="M 11.500037,31.436501 C 11.940474,20.09759 22.043105,11.32322 32.158766,21.979434 L 37.068811,17.246167 C 37.068811,17.246167 37.088388,32 37.088388,32 L 22.160133,31.978069 C 22.160133,31.978069 26.997745,27.140456 26.997745,27.140456 C 18.528582,18.264221 13.291696,25.230495 11.500037,31.436501 z"
     style="fill:#404040;"/>
  </a>
 </g>
</svg>

<style type='text/css'>
<![CDATA[
[data-mouse-over-selected='false'] { opacity: 0.7; }
[data-mouse-over-selected='true']  { opacity: 1.0; }
]]>
</style>
<script type="application/ecmascript"><![CDATA[
document.addEventListener('DOMContentLoaded', (event) => {
  highlightEdges();
  highlightAdjacentNodes();
});
]]></script>
</svg>
