<?xml version="1.0" encoding="UTF-8" standalone="no"?>
<!DOCTYPE svg PUBLIC "-//W3C//DTD SVG 1.1//EN"
 "http://www.w3.org/Graphics/SVG/1.1/DTD/svg11.dtd">
<!-- Generated by graphviz version 14.1.2 (20260124.0452)
 -->
<!-- Title: tt::field_checker::operator() Pages: 1 -->
<svg width="600pt" height="198pt"
 viewBox="0.00 0.00 600.00 198.00" xmlns="http://www.w3.org/2000/svg" xmlns:xlink="http://www.w3.org/1999/xlink">
<g id="graph0" class="graph" transform="scale(1 1) rotate(0) translate(4 194)">
<title>tt::field_checker::operator()</title>
<!-- Node1 -->
<g id="Node000001" class="node">
<title>Node1</title>
<g id="a_Node000001"><a xlink:title=" ">
<polygon fill="#999999" stroke="#666666" points="91.75,-88 0,-88 0,-56 91.75,-56 91.75,-88"/>
<text xml:space="preserve" text-anchor="start" x="8" y="-74.5" font-family="Helvetica,sans-Serif" font-size="10.00">tt::field_checker::</text>
<text xml:space="preserve" text-anchor="middle" x="45.88" y="-62.5" font-family="Helvetica,sans-Serif" font-size="10.00">operator()</text>
</a>
</g>
</g>
<!-- Node2 -->
<g id="Node000002" class="node">
<title>Node2</title>
<g id="a_Node000002"><a xlink:href="namespacedepicture__menu_1_1reflection.html#aaf69402efde67d3327b0a5878e0bb46c" target="_top" xlink:title=" ">
<polygon fill="white" stroke="#666666" points="258.5,-132 127.75,-132 127.75,-100 258.5,-100 258.5,-132"/>
<text xml:space="preserve" text-anchor="start" x="135.75" y="-118.5" font-family="Helvetica,sans-Serif" font-size="10.00">depicture_menu::reflection</text>
<text xml:space="preserve" text-anchor="middle" x="193.12" y="-106.5" font-family="Helvetica,sans-Serif" font-size="10.00">::access_field</text>
</a>
</g>
</g>
<!-- Node1&#45;&gt;Node2 -->
<g id="edge1_Node000001_Node000002" class="edge">
<title>Node1&#45;&gt;Node2</title>
<g id="a_edge1_Node000001_Node000002"><a xlink:title=" ">
<path fill="none" stroke="#63b8ff" d="M92.04,-85.68C103.13,-89.04 115.23,-92.71 127.05,-96.29"/>
<polygon fill="#63b8ff" stroke="#63b8ff" points="125.77,-99.56 136.36,-99.11 127.8,-92.86 125.77,-99.56"/>
</a>
</g>
</g>
<!-- Node6 -->
<g id="Node000006" class="node">
<title>Node6</title>
<g id="a_Node000006"><a xlink:href="_test_config_view_presenter_8cpp.html#a7845eb0c68b997d6d329618f36f7e794" target="_top" xlink:title=" ">
<polygon fill="white" stroke="#666666" points="233.75,-82 152.5,-82 152.5,-62 233.75,-62 233.75,-82"/>
<text xml:space="preserve" text-anchor="middle" x="193.12" y="-68.5" font-family="Helvetica,sans-Serif" font-size="10.00">BOOST_TEST</text>
</a>
</g>
</g>
<!-- Node1&#45;&gt;Node6 -->
<g id="edge7_Node000001_Node000006" class="edge">
<title>Node1&#45;&gt;Node6</title>
<g id="a_edge7_Node000001_Node000006"><a xlink:title=" ">
<path fill="none" stroke="#63b8ff" d="M92.04,-72C107.58,-72 125.1,-72 141.08,-72"/>
<polygon fill="#63b8ff" stroke="#63b8ff" points="140.89,-75.5 150.89,-72 140.89,-68.5 140.89,-75.5"/>
</a>
</g>
</g>
<!-- Node7 -->
<g id="Node000007" class="node">
<title>Node7</title>
<g id="a_Node000007"><a xlink:href="namespacedepicture__menu_1_1domain_1_1models_1_1base.html#ac495da66ce62de337cb0e9bb8ee11119" target="_top" xlink:title=" ">
<polygon fill="white" stroke="#666666" points="255.12,-44 131.12,-44 131.12,0 255.12,0 255.12,-44"/>
<text xml:space="preserve" text-anchor="start" x="139.12" y="-30.5" font-family="Helvetica,sans-Serif" font-size="10.00">depicture_menu::domain</text>
<text xml:space="preserve" text-anchor="start" x="139.12" y="-18.5" font-family="Helvetica,sans-Serif" font-size="10.00">::models::base::to_const</text>
<text xml:space="preserve" text-anchor="middle" x="193.12" y="-6.5" font-family="Helvetica,sans-Serif" font-size="10.00">_ref_tuple</text>
</a>
</g>
</g>
<!-- Node1&#45;&gt;Node7 -->
<g id="edge8_Node000001_Node000007" class="edge">
<title>Node1&#45;&gt;Node7</title>
<g id="a_edge8_Node000001_Node000007"><a xlink:title=" ">
<path fill="none" stroke="#63b8ff" d="M92.04,-56.45C100.93,-53.39 110.47,-50.11 120,-46.83"/>
<polygon fill="#63b8ff" stroke="#63b8ff" points="120.97,-50.2 129.28,-43.63 118.69,-43.58 120.97,-50.2"/>
</a>
</g>
</g>
<!-- Node3 -->
<g id="Node000003" class="node">
<title>Node3</title>
<g id="a_Node000003"><a xlink:href="namespacedepicture__menu_1_1reflection.html#adb9faa46ece21b7d378d916f04923bbc" target="_top" xlink:title=" ">
<polygon fill="white" stroke="#666666" points="425.25,-154 294.5,-154 294.5,-122 425.25,-122 425.25,-154"/>
<text xml:space="preserve" text-anchor="start" x="302.5" y="-140.5" font-family="Helvetica,sans-Serif" font-size="10.00">depicture_menu::reflection</text>
<text xml:space="preserve" text-anchor="middle" x="359.88" y="-128.5" font-family="Helvetica,sans-Serif" font-size="10.00">::get_field_index</text>
</a>
</g>
</g>
<!-- Node2&#45;&gt;Node3 -->
<g id="edge2_Node000002_Node000003" class="edge">
<title>Node2&#45;&gt;Node3</title>
<g id="a_edge2_Node000002_Node000003"><a xlink:title=" ">
<path fill="none" stroke="#63b8ff" d="M258.77,-124.63C266.67,-125.69 274.8,-126.77 282.85,-127.85"/>
<polygon fill="#63b8ff" stroke="#63b8ff" points="282.27,-131.3 292.65,-129.16 283.2,-124.36 282.27,-131.3"/>
</a>
</g>
</g>
<!-- Node5 -->
<g id="Node000005" class="node">
<title>Node5</title>
<g id="a_Node000005"><a xlink:href="namespacedepicture__menu_1_1reflection.html#a0b2b3bbe6bc85746a0f887135f697715" target="_top" xlink:title=" ">
<polygon fill="white" stroke="#666666" points="592,-110 461.25,-110 461.25,-78 592,-78 592,-110"/>
<text xml:space="preserve" text-anchor="start" x="469.25" y="-96.5" font-family="Helvetica,sans-Serif" font-size="10.00">depicture_menu::reflection</text>
<text xml:space="preserve" text-anchor="middle" x="526.62" y="-84.5" font-family="Helvetica,sans-Serif" font-size="10.00">::has_field</text>
</a>
</g>
</g>
<!-- Node2&#45;&gt;Node5 -->
<g id="edge6_Node000002_Node000005" class="edge">
<title>Node2&#45;&gt;Node5</title>
<g id="a_edge6_Node000002_Node000005"><a xlink:title=" ">
<path fill="none" stroke="#63b8ff" d="M258.83,-111.71C313.5,-108.08 391.89,-102.88 449.56,-99.05"/>
<polygon fill="#63b8ff" stroke="#63b8ff" points="449.55,-102.56 459.29,-98.4 449.08,-95.57 449.55,-102.56"/>
</a>
</g>
</g>
<!-- Node4 -->
<g id="Node000004" class="node">
<title>Node4</title>
<g id="a_Node000004"><a xlink:href="namespacedepicture__menu_1_1reflection_1_1detail__reflection.html#acf183d0f4dd4183a2334fe27a68f9b1e" target="_top" xlink:title=" ">
<polygon fill="white" stroke="#666666" points="592,-172 461.25,-172 461.25,-128 592,-128 592,-172"/>
<text xml:space="preserve" text-anchor="start" x="469.25" y="-158.5" font-family="Helvetica,sans-Serif" font-size="10.00">depicture_menu::reflection</text>
<text xml:space="preserve" text-anchor="start" x="469.25" y="-146.5" font-family="Helvetica,sans-Serif" font-size="10.00">::detail_reflection::get</text>
<text xml:space="preserve" text-anchor="middle" x="526.62" y="-134.5" font-family="Helvetica,sans-Serif" font-size="10.00">_field_index</text>
</a>
</g>
</g>
<!-- Node3&#45;&gt;Node4 -->
<g id="edge3_Node000003_Node000004" class="edge">
<title>Node3&#45;&gt;Node4</title>
<g id="a_edge3_Node000003_Node000004"><a xlink:title=" ">
<path fill="none" stroke="#63b8ff" d="M425.52,-142.71C433.42,-143.28 441.55,-143.88 449.6,-144.46"/>
<polygon fill="#63b8ff" stroke="#63b8ff" points="449.16,-147.94 459.39,-145.18 449.67,-140.96 449.16,-147.94"/>
</a>
</g>
</g>
<!-- Node3&#45;&gt;Node5 -->
<g id="edge5_Node000003_Node000005" class="edge">
<title>Node3&#45;&gt;Node5</title>
<g id="a_edge5_Node000003_Node000005"><a xlink:title=" ">
<path fill="none" stroke="#63b8ff" d="M422.22,-121.62C432.23,-118.94 442.69,-116.15 452.94,-113.41"/>
<polygon fill="#63b8ff" stroke="#63b8ff" points="453.73,-116.82 462.49,-110.86 451.93,-110.06 453.73,-116.82"/>
</a>
</g>
</g>
<!-- Node4&#45;&gt;Node4 -->
<g id="edge4_Node000004_Node000004" class="edge">
<title>Node4&#45;&gt;Node4</title>
<g id="a_edge4_Node000004_Node000004"><a xlink:title=" ">
<path fill="none" stroke="#63b8ff" d="M495.73,-172.21C493.2,-181.8 503.5,-190 526.62,-190 539.99,-190 549.07,-187.26 553.87,-183.09"/>
<polygon fill="#63b8ff" stroke="#63b8ff" points="557.18,-184.24 557.04,-173.65 550.54,-182.02 557.18,-184.24"/>
</a>
</g>
</g>
</g>
</svg>
