<?xml version="1.0" encoding="UTF-8" standalone="no"?>
<!DOCTYPE svg PUBLIC "-//W3C//DTD SVG 1.1//EN"
 "http://www.w3.org/Graphics/SVG/1.1/DTD/svg11.dtd">
<!-- Generated by graphviz version 14.1.2 (20260124.0452)
 -->
<!-- Title: create_command_domain_fixture Pages: 1 -->
<svg width="1043pt" height="107pt"
 viewBox="0.00 0.00 1043.00 107.00" xmlns="http://www.w3.org/2000/svg" xmlns:xlink="http://www.w3.org/1999/xlink">
<g id="graph0" class="graph" transform="scale(1 1) rotate(0) translate(4 103.22)">
<title>create_command_domain_fixture</title>
<!-- Node1 -->
<g id="Node000001" class="node">
<title>Node1</title>
<g id="a_Node000001"><a xlink:title=" ">
<polygon fill="#999999" stroke="#666666" points="1035.25,-65 907.5,-65 907.5,-33 1035.25,-33 1035.25,-65"/>
<text xml:space="preserve" text-anchor="start" x="915.5" y="-51.5" font-family="Helvetica,sans-Serif" font-size="10.00">create_command_domain</text>
<text xml:space="preserve" text-anchor="middle" x="971.38" y="-39.5" font-family="Helvetica,sans-Serif" font-size="10.00">_fixture</text>
</a>
</g>
</g>
<!-- Node2 -->
<g id="Node000002" class="node">
<title>Node2</title>
<g id="a_Node000002"><a xlink:href="structdepicture__menu_1_1test_1_1test__tools_1_1test__repository.html" target="_top" xlink:title=" ">
<polygon fill="white" stroke="#666666" points="804.75,-77 667.25,-77 667.25,-21 804.75,-21 804.75,-77"/>
<text xml:space="preserve" text-anchor="start" x="675.25" y="-63.5" font-family="Helvetica,sans-Serif" font-size="10.00">depicture_menu::test</text>
<text xml:space="preserve" text-anchor="start" x="675.25" y="-51.5" font-family="Helvetica,sans-Serif" font-size="10.00">::test_tools::test_repository</text>
<text xml:space="preserve" text-anchor="start" x="675.25" y="-39.5" font-family="Helvetica,sans-Serif" font-size="10.00">&lt; depicture_menu::domain::</text>
<text xml:space="preserve" text-anchor="middle" x="736" y="-27.5" font-family="Helvetica,sans-Serif" font-size="10.00">commands::invoker &gt;</text>
</a>
</g>
</g>
<!-- Node2&#45;&gt;Node1 -->
<g id="edge1_Node000001_Node000002" class="edge">
<title>Node2&#45;&gt;Node1</title>
<g id="a_edge1_Node000001_Node000002"><a xlink:title=" ">
<path fill="none" stroke="#9a32cd" stroke-dasharray="5,2" d="M816.32,-49C846.02,-49 879.33,-49 907.35,-49"/>
<polygon fill="#9a32cd" stroke="#9a32cd" points="816.64,-45.5 806.64,-49 816.64,-52.5 816.64,-45.5"/>
</a>
</g>
<text xml:space="preserve" text-anchor="start" x="825.75" y="-54.5" font-family="Helvetica,sans-Serif" font-size="10.00" fill="grey">invoker_repos</text>
</g>
<!-- Node3 -->
<g id="Node000003" class="node">
<title>Node3</title>
<g id="a_Node000003"><a xlink:href="classdepicture__menu_1_1domain_1_1crud__repository__interface.html" target="_top" xlink:title=" ">
<polygon fill="white" stroke="#666666" points="314.25,-32 159.5,-32 159.5,0 314.25,0 314.25,-32"/>
<text xml:space="preserve" text-anchor="start" x="167.5" y="-18.5" font-family="Helvetica,sans-Serif" font-size="10.00">depicture_menu::domain</text>
<text xml:space="preserve" text-anchor="middle" x="236.88" y="-6.5" font-family="Helvetica,sans-Serif" font-size="10.00">::crud_repository_interface&lt; T &gt;</text>
</a>
</g>
</g>
<!-- Node3&#45;&gt;Node2 -->
<g id="edge2_Node000002_Node000003" class="edge">
<title>Node3&#45;&gt;Node2</title>
<g id="a_edge2_Node000002_Node000003"><a xlink:title=" ">
<path fill="none" stroke="#63b8ff" d="M326.13,-19.31C379.35,-21.53 448.48,-24.82 509.75,-29 562.63,-32.61 622.38,-37.97 667.04,-42.24"/>
<polygon fill="#63b8ff" stroke="#63b8ff" points="326.33,-15.81 316.19,-18.9 326.04,-22.81 326.33,-15.81"/>
</a>
</g>
</g>
<!-- Node6 -->
<g id="Node000006" class="node">
<title>Node6</title>
<g id="a_Node000006"><a xlink:href="structdepicture__menu_1_1test_1_1test__tools_1_1test__repository.html" target="_top" xlink:title=" ">
<polygon fill="white" stroke="#666666" points="509.75,-70 351.25,-70 351.25,-38 509.75,-38 509.75,-70"/>
<text xml:space="preserve" text-anchor="start" x="359.25" y="-56.5" font-family="Helvetica,sans-Serif" font-size="10.00">depicture_menu::test</text>
<text xml:space="preserve" text-anchor="middle" x="430.5" y="-44.5" font-family="Helvetica,sans-Serif" font-size="10.00">::test_tools::test_repository&lt; T &gt;</text>
</a>
</g>
</g>
<!-- Node3&#45;&gt;Node6 -->
<g id="edge6_Node000006_Node000003" class="edge">
<title>Node3&#45;&gt;Node6</title>
<g id="a_edge6_Node000006_Node000003"><a xlink:title=" ">
<path fill="none" stroke="#63b8ff" d="M325.94,-33.46C334.22,-35.11 342.58,-36.76 350.77,-38.39"/>
<polygon fill="#63b8ff" stroke="#63b8ff" points="326.69,-30.04 316.2,-31.53 325.32,-36.91 326.69,-30.04"/>
</a>
</g>
</g>
<!-- Node4 -->
<g id="Node000004" class="node">
<title>Node4</title>
<g id="a_Node000004"><a xlink:href="classdepicture__menu_1_1domain_1_1query__interface.html" target="_top" xlink:title=" ">
<polygon fill="white" stroke="#666666" points="122.5,-32 0,-32 0,0 122.5,0 122.5,-32"/>
<text xml:space="preserve" text-anchor="start" x="8" y="-18.5" font-family="Helvetica,sans-Serif" font-size="10.00">depicture_menu::domain</text>
<text xml:space="preserve" text-anchor="middle" x="61.25" y="-6.5" font-family="Helvetica,sans-Serif" font-size="10.00">::query_interface&lt; T &gt;</text>
</a>
</g>
</g>
<!-- Node4&#45;&gt;Node3 -->
<g id="edge3_Node000003_Node000004" class="edge">
<title>Node4&#45;&gt;Node3</title>
<g id="a_edge3_Node000003_Node000004"><a xlink:title=" ">
<path fill="none" stroke="#63b8ff" d="M134.34,-16C142.48,-16 150.8,-16 159.01,-16"/>
<polygon fill="#63b8ff" stroke="#63b8ff" points="134.49,-12.5 124.49,-16 134.49,-19.5 134.49,-12.5"/>
</a>
</g>
</g>
<!-- Node5 -->
<g id="Node000005" class="node">
<title>Node5</title>
<g id="a_Node000005"><a xlink:href="classdepicture__menu_1_1repositories_1_1serialization__interface.html" target="_top" xlink:title=" ">
<polygon fill="white" stroke="#666666" points="307.5,-98 166.25,-98 166.25,-66 307.5,-66 307.5,-98"/>
<text xml:space="preserve" text-anchor="start" x="174.25" y="-84.5" font-family="Helvetica,sans-Serif" font-size="10.00">depicture_menu::repositories</text>
<text xml:space="preserve" text-anchor="middle" x="236.88" y="-72.5" font-family="Helvetica,sans-Serif" font-size="10.00">::serialization_interface&lt; T &gt;</text>
</a>
</g>
</g>
<!-- Node5&#45;&gt;Node2 -->
<g id="edge4_Node000002_Node000005" class="edge">
<title>Node5&#45;&gt;Node2</title>
<g id="a_edge4_Node000002_Node000005"><a xlink:title=" ">
<path fill="none" stroke="#63b8ff" d="M319.02,-91.75C402.64,-99.63 536.35,-106.15 649.25,-84 657.3,-82.42 665.54,-80.08 673.58,-77.35"/>
<polygon fill="#63b8ff" stroke="#63b8ff" points="319.61,-88.3 309.32,-90.81 318.93,-95.26 319.61,-88.3"/>
</a>
</g>
</g>
<!-- Node5&#45;&gt;Node6 -->
<g id="edge7_Node000006_Node000005" class="edge">
<title>Node5&#45;&gt;Node6</title>
<g id="a_edge7_Node000006_Node000005"><a xlink:title=" ">
<path fill="none" stroke="#63b8ff" d="M319.17,-70.12C329.7,-68.58 340.47,-67.01 350.95,-65.48"/>
<polygon fill="#63b8ff" stroke="#63b8ff" points="318.76,-66.64 309.37,-71.55 319.77,-73.57 318.76,-66.64"/>
</a>
</g>
</g>
<!-- Node6&#45;&gt;Node2 -->
<g id="edge5_Node000002_Node000006" class="edge">
<title>Node6&#45;&gt;Node2</title>
<g id="a_edge5_Node000002_Node000006"><a xlink:title=" ">
<path fill="none" stroke="orange" stroke-dasharray="5,2" d="M521.46,-50.16C523.58,-50.1 525.68,-50.05 527.75,-50 574.15,-48.92 626.42,-48.68 666.85,-48.7"/>
<polygon fill="orange" stroke="orange" points="521.43,-46.66 511.53,-50.45 521.63,-53.65 521.43,-46.66"/>
</a>
</g>
<text xml:space="preserve" text-anchor="start" x="530.75" y="-71.5" font-family="Helvetica,sans-Serif" font-size="10.00" fill="grey">&lt; depicture_menu::domain</text>
<text xml:space="preserve" text-anchor="start" x="530.75" y="-55.5" font-family="Helvetica,sans-Serif" font-size="10.00" fill="grey">  ::commands::invoker &gt;</text>
</g>
</g>
</svg>
