<?xml version="1.0" encoding="UTF-8" standalone="no"?>
<!DOCTYPE svg PUBLIC "-//W3C//DTD SVG 1.1//EN"
 "http://www.w3.org/Graphics/SVG/1.1/DTD/svg11.dtd">
<!-- Generated by graphviz version 14.1.2 (20260124.0452)
 -->
<!-- Title: depicture_menu::domain::commands::invoke_arg Pages: 1 -->
<!--zoomable 138 -->

<svg id="main" version="1.1" xmlns="http://www.w3.org/2000/svg" xmlns:xlink="http://www.w3.org/1999/xlink" xml:space="preserve" onload="init(evt)">

<style type="text/css"><![CDATA[
.node, .edge {opacity: 0.7;}
.node.selected, .edge.selected {opacity: 1;}
.edge:hover path { stroke: red; }
.edge:hover polygon { stroke: red; fill: red; }
]]></style>

<defs>
  <circle id="rim" cx="0" cy="0" r="7"/>
  <circle id="rim2" cx="0" cy="0" r="3.5"/>
  <g id="zoomPlus">
    <use xlink:href="#rim" fill="#404040"><set attributeName="fill" to="#808080" begin="zoomplus.mouseover" end="zoomplus.mouseout"/></use>
    <path d="M-4,0h8M0,-4v8" fill="none" stroke="white" stroke-width="1.5" pointer-events="none"/>
  </g>
  <g id="zoomMin">
    <use xlink:href="#rim" fill="#404040"><set attributeName="fill" to="#808080" begin="zoomminus.mouseover" end="zoomminus.mouseout"/></use>
    <path d="M-4,0h8" fill="none" stroke="white" stroke-width="1.5" pointer-events="none"/>
  </g>
  <g id="arrowUp" transform="translate(30 24)">
    <use xlink:href="#rim"/>
    <path pointer-events="none" fill="none" stroke="white" stroke-width="1.5" d="M0,-3.0v7 M-2.5,-0.5L0,-3.0L2.5,-0.5"/>
  </g>
  <g id="arrowRight" transform="rotate(90) translate(36 -43)">
    <use xlink:href="#rim"/>
    <path pointer-events="none" fill="none" stroke="white" stroke-width="1.5" d="M0,-3.0v7 M-2.5,-0.5L0,-3.0L2.5,-0.5"/>
  </g>
  <g id="arrowDown" transform="rotate(180) translate(-30 -48)">
    <use xlink:href="#rim"/>
    <path pointer-events="none" fill="none" stroke="white" stroke-width="1.5" d="M0,-3.0v7 M-2.5,-0.5L0,-3.0L2.5,-0.5"/>
  </g>
  <g id="arrowLeft" transform="rotate(270) translate(-36 17)">
    <use xlink:href="#rim"/>
    <path pointer-events="none" fill="none" stroke="white" stroke-width="1.5" d="M0,-3.0v7 M-2.5,-0.5L0,-3.0L2.5,-0.5"/>
  </g>
  <g id="resetDef">
    <use xlink:href="#rim2" fill="#404040"><set attributeName="fill" to="#808080" begin="reset.mouseover" end="reset.mouseout"/></use>
  </g>
</defs>
<script type="application/ecmascript">
var viewWidth = 865;
var viewHeight = 138;
var sectionId = 'dynsection-0';
</script>
<script type="application/ecmascript" xlink:href="svg.min.js"/>
<svg id="graph" class="graph">
<g id="viewport">
<title>depicture_menu::domain::commands::invoke_arg</title>
<!-- Node1 -->
<g id="Node000001" class="node">
<title>Node1</title>
<g id="a_Node000001"><a xlink:title=" ">
<polygon fill="#999999" stroke="#666666" points="856.75,-81 733.5,-81 733.5,-49 856.75,-49 856.75,-81"/>
<text xml:space="preserve" text-anchor="start" x="741.5" y="-67.5" font-family="Helvetica,sans-Serif" font-size="10.00">depicture_menu::domain</text>
<text xml:space="preserve" text-anchor="middle" x="795.12" y="-55.5" font-family="Helvetica,sans-Serif" font-size="10.00">::commands::invoke_arg</text>
</a>
</g>
</g>
<!-- Node2 -->
<g id="Node000002" class="node">
<title>Node2</title>
<g id="a_Node000002"><a xlink:href="structdepicture__menu_1_1domain_1_1models_1_1entity__id__base.html" target="_top" xlink:title=" ">
<polygon fill="white" stroke="#666666" points="406.25,-130 256,-130 256,-74 406.25,-74 406.25,-130"/>
<text xml:space="preserve" text-anchor="start" x="264" y="-116.5" font-family="Helvetica,sans-Serif" font-size="10.00">depicture_menu::domain</text>
<text xml:space="preserve" text-anchor="start" x="264" y="-104.5" font-family="Helvetica,sans-Serif" font-size="10.00">::models::entity_id_base</text>
<text xml:space="preserve" text-anchor="start" x="264" y="-92.5" font-family="Helvetica,sans-Serif" font-size="10.00">&lt; detail_commands::command</text>
<text xml:space="preserve" text-anchor="middle" x="331.12" y="-80.5" font-family="Helvetica,sans-Serif" font-size="10.00">_id_tag &gt;</text>
</a>
</g>
</g>
<!-- Node2&#45;&gt;Node1 -->
<g id="edge1_Node000001_Node000002" class="edge">
<title>Node2&#45;&gt;Node1</title>
<g id="a_edge1_Node000001_Node000002"><a xlink:title=" ">
<path fill="none" stroke="#9a32cd" stroke-dasharray="5,2" d="M417.97,-104.89C420.08,-104.93 422.18,-104.97 424.25,-105 553.92,-107.11 587.88,-110.07 715.5,-87 723.59,-85.54 732.05,-83.61 740.3,-81.5"/>
<polygon fill="#9a32cd" stroke="#9a32cd" points="418.12,-101.39 408.05,-104.66 417.97,-108.39 418.12,-101.39"/>
</a>
</g>
<text xml:space="preserve" text-anchor="start" x="564.25" y="-111.91" font-family="Helvetica,sans-Serif" font-size="10.00" fill="grey">command_id_</text>
</g>
<!-- Node4 -->
<g id="Node000004" class="node">
<title>Node4</title>
<g id="a_Node000004"><a xlink:href="structdepicture__menu_1_1domain_1_1commands_1_1parameter__pack.html" target="_top" xlink:title=" ">
<polygon fill="white" stroke="#666666" points="667.5,-81 521.75,-81 521.75,-49 667.5,-49 667.5,-81"/>
<text xml:space="preserve" text-anchor="start" x="529.75" y="-67.5" font-family="Helvetica,sans-Serif" font-size="10.00">depicture_menu::domain</text>
<text xml:space="preserve" text-anchor="middle" x="594.62" y="-55.5" font-family="Helvetica,sans-Serif" font-size="10.00">::commands::parameter_pack</text>
</a>
</g>
</g>
<!-- Node2&#45;&gt;Node4 -->
<g id="edge4_Node000004_Node000002" class="edge">
<title>Node2&#45;&gt;Node4</title>
<g id="a_edge4_Node000004_Node000002"><a xlink:title=" ">
<path fill="none" stroke="#9a32cd" stroke-dasharray="5,2" d="M417.68,-87.97C419.89,-87.64 422.09,-87.32 424.25,-87 456.08,-82.34 491.36,-77.68 521.44,-73.86"/>
<polygon fill="#9a32cd" stroke="#9a32cd" points="417.36,-84.48 408,-89.45 418.42,-91.4 417.36,-84.48"/>
</a>
</g>
<text xml:space="preserve" text-anchor="start" x="433.62" y="-92.5" font-family="Helvetica,sans-Serif" font-size="10.00" fill="grey">command_id_</text>
</g>
<!-- Node3 -->
<g id="Node000003" class="node">
<title>Node3</title>
<g id="a_Node000003"><a xlink:href="structdepicture__menu_1_1domain_1_1models_1_1entity__id__base.html" target="_top" xlink:title=" ">
<polygon fill="white" stroke="#666666" points="122.5,-86 0,-86 0,-42 122.5,-42 122.5,-86"/>
<text xml:space="preserve" text-anchor="start" x="8" y="-72.5" font-family="Helvetica,sans-Serif" font-size="10.00">depicture_menu::domain</text>
<text xml:space="preserve" text-anchor="start" x="8" y="-60.5" font-family="Helvetica,sans-Serif" font-size="10.00">::models::entity_id_base</text>
<text xml:space="preserve" text-anchor="middle" x="61.25" y="-48.5" font-family="Helvetica,sans-Serif" font-size="10.00">&lt; Tag &gt;</text>
</a>
</g>
</g>
<!-- Node3&#45;&gt;Node2 -->
<g id="edge2_Node000002_Node000003" class="edge">
<title>Node3&#45;&gt;Node2</title>
<g id="a_edge2_Node000002_Node000003"><a xlink:title=" ">
<path fill="none" stroke="orange" stroke-dasharray="5,2" d="M134.07,-74.19C171.64,-79.52 217.58,-86.04 255.55,-91.42"/>
<polygon fill="orange" stroke="orange" points="134.59,-70.73 124.2,-72.79 133.61,-77.66 134.59,-70.73"/>
</a>
</g>
<text xml:space="preserve" text-anchor="start" x="143.5" y="-110.12" font-family="Helvetica,sans-Serif" font-size="10.00" fill="grey">&lt; detail_commands::</text>
<text xml:space="preserve" text-anchor="start" x="143.5" y="-94.12" font-family="Helvetica,sans-Serif" font-size="10.00" fill="grey">  command_id_tag &gt;</text>
</g>
<!-- Node5 -->
<g id="Node000005" class="node">
<title>Node5</title>
<g id="a_Node000005"><a xlink:href="structdepicture__menu_1_1domain_1_1models_1_1entity__id__base.html" target="_top" xlink:title=" ">
<polygon fill="white" stroke="#666666" points="400.62,-56 261.62,-56 261.62,0 400.62,0 400.62,-56"/>
<text xml:space="preserve" text-anchor="start" x="269.62" y="-42.5" font-family="Helvetica,sans-Serif" font-size="10.00">depicture_menu::domain</text>
<text xml:space="preserve" text-anchor="start" x="269.62" y="-30.5" font-family="Helvetica,sans-Serif" font-size="10.00">::models::entity_id_base</text>
<text xml:space="preserve" text-anchor="start" x="269.62" y="-18.5" font-family="Helvetica,sans-Serif" font-size="10.00">&lt; detail_commands::invoker</text>
<text xml:space="preserve" text-anchor="middle" x="331.12" y="-6.5" font-family="Helvetica,sans-Serif" font-size="10.00">_id_tag &gt;</text>
</a>
</g>
</g>
<!-- Node3&#45;&gt;Node5 -->
<g id="edge6_Node000005_Node000003" class="edge">
<title>Node3&#45;&gt;Node5</title>
<g id="a_edge6_Node000005_Node000003"><a xlink:title=" ">
<path fill="none" stroke="orange" stroke-dasharray="5,2" d="M133.57,-42.35C135.9,-41.86 138.21,-41.41 140.5,-41 180.13,-33.91 225.05,-30.62 261.22,-29.12"/>
<polygon fill="orange" stroke="orange" points="133.05,-38.88 124.08,-44.51 134.6,-45.7 133.05,-38.88"/>
</a>
</g>
<text xml:space="preserve" text-anchor="start" x="143.5" y="-62.5" font-family="Helvetica,sans-Serif" font-size="10.00" fill="grey">&lt; detail_commands::</text>
<text xml:space="preserve" text-anchor="start" x="143.5" y="-46.5" font-family="Helvetica,sans-Serif" font-size="10.00" fill="grey">  invoker_id_tag &gt;</text>
</g>
<!-- Node4&#45;&gt;Node1 -->
<g id="edge3_Node000001_Node000004" class="edge">
<title>Node4&#45;&gt;Node1</title>
<g id="a_edge3_Node000001_Node000004"><a xlink:title=" ">
<path fill="none" stroke="#9a32cd" stroke-dasharray="5,2" d="M679.28,-65C697.32,-65 716.08,-65 733.07,-65"/>
<polygon fill="#9a32cd" stroke="#9a32cd" points="679.36,-61.5 669.36,-65 679.36,-68.5 679.36,-61.5"/>
</a>
</g>
<text xml:space="preserve" text-anchor="start" x="688.5" y="-70.5" font-family="Helvetica,sans-Serif" font-size="10.00" fill="grey">args_</text>
</g>
<!-- Node5&#45;&gt;Node1 -->
<g id="edge7_Node000001_Node000005" class="edge">
<title>Node5&#45;&gt;Node1</title>
<g id="a_edge7_Node000001_Node000005"><a xlink:title=" ">
<path fill="none" stroke="#9a32cd" stroke-dasharray="5,2" d="M412.16,-18.49C480.48,-12.3 581.1,-7.73 667.5,-22 698.31,-27.09 731.7,-38.7 756.45,-48.57"/>
<polygon fill="#9a32cd" stroke="#9a32cd" points="412.19,-14.97 402.57,-19.4 412.85,-21.94 412.19,-14.97"/>
</a>
</g>
<text xml:space="preserve" text-anchor="start" x="559.38" y="-27.5" font-family="Helvetica,sans-Serif" font-size="10.00" fill="grey">com_invoke_id_</text>
</g>
<!-- Node5&#45;&gt;Node4 -->
<g id="edge5_Node000004_Node000005" class="edge">
<title>Node5&#45;&gt;Node4</title>
<g id="a_edge5_Node000004_Node000005"><a xlink:title=" ">
<path fill="none" stroke="#9a32cd" stroke-dasharray="5,2" d="M411.92,-39.29C446.76,-44.22 487.32,-49.96 521.27,-54.76"/>
<polygon fill="#9a32cd" stroke="#9a32cd" points="412.72,-35.87 402.33,-37.93 411.74,-42.8 412.72,-35.87"/>
</a>
</g>
<text xml:space="preserve" text-anchor="start" x="427.25" y="-57.48" font-family="Helvetica,sans-Serif" font-size="10.00" fill="grey">com_invoker_id_</text>
</g>
</g>
</svg>

<g id="navigator" transform="translate(0 0)" fill="#404254">
  <rect fill="#f2f5e9" fill-opacity="0.5" stroke="#606060" stroke-width=".5" x="0" y="0" width="60" height="60"/>
  <use id="zoomplus" xlink:href="#zoomPlus" x="17" y="9" onmousedown="handleZoom(evt,'in')"/>
  <use id="zoomminus" xlink:href="#zoomMin" x="42" y="9" onmousedown="handleZoom(evt,'out')"/>
  <use id="reset" xlink:href="#resetDef" x="30" y="36" onmousedown="handleReset()"/>
   <use id="arrowup" xlink:href="#arrowUp" x="0" y="0" onmousedown="handlePan(0,-1)"/>
  <use id="arrowright" xlink:href="#arrowRight" x="0" y="0" onmousedown="handlePan(1,0)"/>
  <use id="arrowdown" xlink:href="#arrowDown" x="0" y="0" onmousedown="handlePan(0,1)"/>
  <use id="arrowleft" xlink:href="#arrowLeft" x="0" y="0" onmousedown="handlePan(-1,0)"/>
</g>
<svg viewBox="0 0 15 15" width="100%" height="30px" preserveAspectRatio="xMaxYMin meet">
 <g id="arrow_out" transform="scale(0.3 0.3)">
  <a xlink:href="structdepicture__menu_1_1domain_1_1commands_1_1invoke__arg__coll__graph_org.svg" target="_base">
   <rect id="button" ry="5" rx="5" y="6" x="6" height="38" width="38"
        fill="#f2f5e9" fill-opacity="0.5" stroke="#606060" stroke-width="1.0"/>
   <path id="arrow"
     d="M 11.500037,31.436501 C 11.940474,20.09759 22.043105,11.32322 32.158766,21.979434 L 37.068811,17.246167 C 37.068811,17.246167 37.088388,32 37.088388,32 L 22.160133,31.978069 C 22.160133,31.978069 26.997745,27.140456 26.997745,27.140456 C 18.528582,18.264221 13.291696,25.230495 11.500037,31.436501 z"
     style="fill:#404040;"/>
  </a>
 </g>
</svg>

<style type='text/css'>
<![CDATA[
[data-mouse-over-selected='false'] { opacity: 0.7; }
[data-mouse-over-selected='true']  { opacity: 1.0; }
]]>
</style>
<script type="application/ecmascript"><![CDATA[
document.addEventListener('DOMContentLoaded', (event) => {
  highlightEdges();
  highlightAdjacentNodes();
});
]]></script>
</svg>
