<?xml version="1.0" encoding="UTF-8" standalone="no"?>
<!DOCTYPE svg PUBLIC "-//W3C//DTD SVG 1.1//EN"
 "http://www.w3.org/Graphics/SVG/1.1/DTD/svg11.dtd">
<!-- Generated by graphviz version 14.1.2 (20260124.0452)
 -->
<!-- Title: depicture_menu::detail_d_menu::core_interface_impl::core_interface_impl Pages: 1 -->
<svg width="304pt" height="238pt"
 viewBox="0.00 0.00 304.00 238.00" xmlns="http://www.w3.org/2000/svg" xmlns:xlink="http://www.w3.org/1999/xlink">
<g id="graph0" class="graph" transform="scale(1 1) rotate(0) translate(4 234)">
<title>depicture_menu::detail_d_menu::core_interface_impl::core_interface_impl</title>
<!-- Node1 -->
<g id="Node000001" class="node">
<title>Node1</title>
<g id="a_Node000001"><a xlink:title=" ">
<polygon fill="#999999" stroke="#666666" points="296,-137 166,-137 166,-93 296,-93 296,-137"/>
<text xml:space="preserve" text-anchor="start" x="174" y="-123.5" font-family="Helvetica,sans-Serif" font-size="10.00">depicture_menu::detail</text>
<text xml:space="preserve" text-anchor="start" x="174" y="-111.5" font-family="Helvetica,sans-Serif" font-size="10.00">_d_menu::core_interface</text>
<text xml:space="preserve" text-anchor="middle" x="231" y="-99.5" font-family="Helvetica,sans-Serif" font-size="10.00">_impl::core_interface_impl</text>
</a>
</g>
</g>
<!-- Node2 -->
<g id="Node000002" class="node">
<title>Node2</title>
<g id="a_Node000002"><a xlink:href="structdepicture__menu_1_1detail__d__menu_1_1core__interface__impl.html#a417c8ef90aad6feae04c6eb8a8aaef3b" target="_top" xlink:title=" ">
<polygon fill="white" stroke="#666666" points="130,-230 0,-230 0,-186 130,-186 130,-230"/>
<text xml:space="preserve" text-anchor="start" x="8" y="-216.5" font-family="Helvetica,sans-Serif" font-size="10.00">depicture_menu::detail</text>
<text xml:space="preserve" text-anchor="start" x="8" y="-204.5" font-family="Helvetica,sans-Serif" font-size="10.00">_d_menu::core_interface</text>
<text xml:space="preserve" text-anchor="middle" x="65" y="-192.5" font-family="Helvetica,sans-Serif" font-size="10.00">_impl::core_interface_impl</text>
</a>
</g>
</g>
<!-- Node1&#45;&gt;Node2 -->
<g id="edge1_Node000001_Node000002" class="edge">
<title>Node1&#45;&gt;Node2</title>
<g id="a_edge1_Node000001_Node000002"><a xlink:title=" ">
<path fill="none" stroke="#63b8ff" d="M186.51,-143.33C169.17,-154.26 148.88,-166.61 130,-177 124.81,-179.86 119.31,-182.73 113.81,-185.52"/>
<polygon fill="#63b8ff" stroke="#63b8ff" points="187.97,-146.55 194.54,-138.23 184.22,-140.64 187.97,-146.55"/>
</a>
</g>
</g>
<!-- Node3 -->
<g id="Node000003" class="node">
<title>Node3</title>
<g id="a_Node000003"><a xlink:href="structdepicture__menu_1_1detail__d__menu_1_1core__interface__impl.html#ab1c190e1b75bdcff1d0e5ed9e251033f" target="_top" xlink:title=" ">
<polygon fill="white" stroke="#666666" points="130,-168 0,-168 0,-124 130,-124 130,-168"/>
<text xml:space="preserve" text-anchor="start" x="8" y="-154.5" font-family="Helvetica,sans-Serif" font-size="10.00">depicture_menu::detail</text>
<text xml:space="preserve" text-anchor="start" x="8" y="-142.5" font-family="Helvetica,sans-Serif" font-size="10.00">_d_menu::core_interface</text>
<text xml:space="preserve" text-anchor="middle" x="65" y="-130.5" font-family="Helvetica,sans-Serif" font-size="10.00">_impl::core_interface_impl</text>
</a>
</g>
</g>
<!-- Node1&#45;&gt;Node3 -->
<g id="edge2_Node000001_Node000003" class="edge">
<title>Node1&#45;&gt;Node3</title>
<g id="a_edge2_Node000001_Node000003"><a xlink:title=" ">
<path fill="none" stroke="#63b8ff" d="M154.41,-129.29C146.4,-130.8 138.3,-132.33 130.43,-133.82"/>
<polygon fill="#63b8ff" stroke="#63b8ff" points="154.99,-132.74 164.17,-127.44 153.69,-125.86 154.99,-132.74"/>
</a>
</g>
</g>
<!-- Node4 -->
<g id="Node000004" class="node">
<title>Node4</title>
<g id="a_Node000004"><a xlink:href="structdepicture__menu_1_1detail__d__menu_1_1core__interface__impl.html#a62e83a6fee3767877b911b5f77cb9998" target="_top" xlink:title=" ">
<polygon fill="white" stroke="#666666" points="126.62,-106 3.38,-106 3.38,-62 126.62,-62 126.62,-106"/>
<text xml:space="preserve" text-anchor="start" x="11.38" y="-92.5" font-family="Helvetica,sans-Serif" font-size="10.00">depicture_menu::detail</text>
<text xml:space="preserve" text-anchor="start" x="11.38" y="-80.5" font-family="Helvetica,sans-Serif" font-size="10.00">_d_menu::core_interface</text>
<text xml:space="preserve" text-anchor="middle" x="65" y="-68.5" font-family="Helvetica,sans-Serif" font-size="10.00">_impl::operator=</text>
</a>
</g>
</g>
<!-- Node1&#45;&gt;Node4 -->
<g id="edge3_Node000001_Node000004" class="edge">
<title>Node1&#45;&gt;Node4</title>
<g id="a_edge3_Node000001_Node000004"><a xlink:title=" ">
<path fill="none" stroke="#63b8ff" d="M154.49,-100.73C145.26,-98.98 135.92,-97.22 126.95,-95.52"/>
<polygon fill="#63b8ff" stroke="#63b8ff" points="153.69,-104.14 164.17,-102.56 154.99,-97.26 153.69,-104.14"/>
</a>
</g>
</g>
<!-- Node5 -->
<g id="Node000005" class="node">
<title>Node5</title>
<g id="a_Node000005"><a xlink:href="structdepicture__menu_1_1detail__d__menu_1_1core__interface__impl.html#a30d7b319adfc36a503a88b816304b44f" target="_top" xlink:title=" ">
<polygon fill="white" stroke="#666666" points="126.62,-44 3.38,-44 3.38,0 126.62,0 126.62,-44"/>
<text xml:space="preserve" text-anchor="start" x="11.38" y="-30.5" font-family="Helvetica,sans-Serif" font-size="10.00">depicture_menu::detail</text>
<text xml:space="preserve" text-anchor="start" x="11.38" y="-18.5" font-family="Helvetica,sans-Serif" font-size="10.00">_d_menu::core_interface</text>
<text xml:space="preserve" text-anchor="middle" x="65" y="-6.5" font-family="Helvetica,sans-Serif" font-size="10.00">_impl::operator=</text>
</a>
</g>
</g>
<!-- Node1&#45;&gt;Node5 -->
<g id="edge4_Node000001_Node000005" class="edge">
<title>Node1&#45;&gt;Node5</title>
<g id="a_edge4_Node000001_Node000005"><a xlink:title=" ">
<path fill="none" stroke="#63b8ff" d="M186.51,-86.67C169.17,-75.74 148.88,-63.39 130,-53 124.81,-50.14 119.31,-47.27 113.81,-44.48"/>
<polygon fill="#63b8ff" stroke="#63b8ff" points="184.22,-89.36 194.54,-91.77 187.97,-83.45 184.22,-89.36"/>
</a>
</g>
</g>
</g>
</svg>
