<?xml version="1.0" encoding="UTF-8" standalone="no"?>
<!DOCTYPE svg PUBLIC "-//W3C//DTD SVG 1.1//EN"
 "http://www.w3.org/Graphics/SVG/1.1/DTD/svg11.dtd">
<!-- Generated by graphviz version 14.1.2 (20260124.0452)
 -->
<!-- Title: depicture_menu::domain::models::base::entity_base&lt; Value, IdTag &gt; Pages: 1 -->
<svg width="1570pt" height="1058pt"
 viewBox="0.00 0.00 1570.00 1058.00" xmlns="http://www.w3.org/2000/svg" xmlns:xlink="http://www.w3.org/1999/xlink">
<g id="graph0" class="graph" transform="scale(1 1) rotate(0) translate(4 1054)">
<title>depicture_menu::domain::models::base::entity_base&lt; Value, IdTag &gt;</title>
<!-- Node1 -->
<g id="Node000001" class="node">
<title>Node1</title>
<g id="a_Node000001"><a xlink:title=" ">
<polygon fill="#999999" stroke="#666666" points="199.5,-452 77,-452 77,-408 199.5,-408 199.5,-452"/>
<text xml:space="preserve" text-anchor="start" x="85" y="-438.5" font-family="Helvetica,sans-Serif" font-size="10.00">depicture_menu::domain</text>
<text xml:space="preserve" text-anchor="start" x="85" y="-426.5" font-family="Helvetica,sans-Serif" font-size="10.00">::models::base::entity</text>
<text xml:space="preserve" text-anchor="middle" x="138.25" y="-414.5" font-family="Helvetica,sans-Serif" font-size="10.00">_base&lt; Value, IdTag &gt;</text>
</a>
</g>
</g>
<!-- Node1&#45;&gt;Node1 -->
<g id="edge2_Node000001_Node000001" class="edge">
<title>Node1&#45;&gt;Node1</title>
<g id="a_edge2_Node000001_Node000001"><a xlink:title=" ">
<path fill="none" stroke="orange" stroke-dasharray="5,2" d="M131.83,-463.43C133,-467.4 135.14,-470 138.25,-470 143.78,-470 146.24,-461.8 145.64,-452.21"/>
<polygon fill="orange" stroke="orange" points="135.34,-463.38 130.99,-453.72 128.37,-463.98 135.34,-463.38"/>
</a>
</g>
<text xml:space="preserve" text-anchor="start" x="102.25" y="-475.5" font-family="Helvetica,sans-Serif" font-size="10.00" fill="grey">&lt; Value, IdTag &gt;</text>
</g>
<!-- Node1&#45;&gt;Node1 -->
<g id="edge3_Node000001_Node000001" class="edge">
<title>Node1&#45;&gt;Node1</title>
<g id="a_edge3_Node000001_Node000001"><a xlink:title=" ">
<path fill="none" stroke="orange" stroke-dasharray="5,2" d="M123.39,-463.35C122.54,-476.75 127.5,-488 138.25,-488 151.88,-488 156.19,-469.93 151.19,-452.32"/>
<polygon fill="orange" stroke="orange" points="126.78,-464.26 125.05,-453.81 119.89,-463.06 126.78,-464.26"/>
</a>
</g>
<text xml:space="preserve" text-anchor="start" x="102.25" y="-493.5" font-family="Helvetica,sans-Serif" font-size="10.00" fill="grey">&lt; Value, IdTag &gt;</text>
</g>
<!-- Node3 -->
<g id="Node000003" class="node">
<title>Node3</title>
<g id="a_Node000003"><a xlink:href="structdepicture__menu_1_1domain_1_1models_1_1base_1_1entity__base.html" target="_top" xlink:title=" ">
<polygon fill="white" stroke="#666666" points="404.5,-452 282,-452 282,-408 404.5,-408 404.5,-452"/>
<text xml:space="preserve" text-anchor="start" x="290" y="-438.5" font-family="Helvetica,sans-Serif" font-size="10.00">depicture_menu::domain</text>
<text xml:space="preserve" text-anchor="start" x="290" y="-426.5" font-family="Helvetica,sans-Serif" font-size="10.00">::models::base::entity</text>
<text xml:space="preserve" text-anchor="middle" x="343.25" y="-414.5" font-family="Helvetica,sans-Serif" font-size="10.00">_base&lt; V, ID &gt;</text>
</a>
</g>
</g>
<!-- Node1&#45;&gt;Node3 -->
<g id="edge4_Node000001_Node000003" class="edge">
<title>Node1&#45;&gt;Node3</title>
<g id="a_edge4_Node000001_Node000003"><a xlink:title=" ">
<path fill="none" stroke="orange" stroke-dasharray="5,2" d="M211.32,-430C234.3,-430 259.49,-430 281.58,-430"/>
<polygon fill="orange" stroke="orange" points="211.4,-426.5 201.4,-430 211.4,-433.5 211.4,-426.5"/>
</a>
</g>
<text xml:space="preserve" text-anchor="start" x="220.5" y="-435.5" font-family="Helvetica,sans-Serif" font-size="10.00" fill="grey">&lt; V, ID &gt;</text>
</g>
<!-- Node2 -->
<g id="Node000002" class="node">
<title>Node2</title>
<g id="a_Node000002"><a xlink:title=" ">
<polygon fill="white" stroke="#666666" points="40,-440 0,-440 0,-420 40,-420 40,-440"/>
<text xml:space="preserve" text-anchor="middle" x="20" y="-426.5" font-family="Helvetica,sans-Serif" font-size="10.00">Value</text>
</a>
</g>
</g>
<!-- Node2&#45;&gt;Node1 -->
<g id="edge1_Node000001_Node000002" class="edge">
<title>Node2&#45;&gt;Node1</title>
<g id="a_edge1_Node000001_Node000002"><a xlink:title=" ">
<path fill="none" stroke="darkgreen" d="M51.75,-430C59.45,-430 67.97,-430 76.56,-430"/>
<polygon fill="darkgreen" stroke="darkgreen" points="51.97,-426.5 41.97,-430 51.97,-433.5 51.97,-426.5"/>
</a>
</g>
</g>
<!-- Node4 -->
<g id="Node000004" class="node">
<title>Node4</title>
<g id="a_Node000004"><a xlink:href="structdepicture__menu_1_1domain_1_1models_1_1aggregate__base.html" target="_top" xlink:title=" ">
<polygon fill="white" stroke="#666666" points="1104,-1050 945.5,-1050 945.5,-1006 1104,-1006 1104,-1050"/>
<text xml:space="preserve" text-anchor="start" x="953.5" y="-1036.5" font-family="Helvetica,sans-Serif" font-size="10.00">depicture_menu::domain</text>
<text xml:space="preserve" text-anchor="start" x="953.5" y="-1024.5" font-family="Helvetica,sans-Serif" font-size="10.00">::models::aggregate_base</text>
<text xml:space="preserve" text-anchor="middle" x="1024.75" y="-1012.5" font-family="Helvetica,sans-Serif" font-size="10.00">&lt; Value, Id, Event, EventStore &gt;</text>
</a>
</g>
</g>
<!-- Node3&#45;&gt;Node4 -->
<g id="edge5_Node000003_Node000004" class="edge">
<title>Node3&#45;&gt;Node4</title>
<g id="a_edge5_Node000003_Node000004"><a xlink:title=" ">
<path fill="none" stroke="#63b8ff" d="M345.79,-463.5C349.96,-523.38 365.41,-650.76 422.5,-739 447.75,-778.02 727.61,-1007.83 791.75,-1030 840.76,-1046.94 899.16,-1046.34 945.1,-1041.55"/>
<polygon fill="#63b8ff" stroke="#63b8ff" points="349.29,-463.39 345.17,-453.63 342.3,-463.83 349.29,-463.39"/>
</a>
</g>
</g>
<!-- Node5 -->
<g id="Node000005" class="node">
<title>Node5</title>
<g id="a_Node000005"><a xlink:href="structdepicture__menu_1_1domain_1_1models_1_1aggregate__base.html" target="_top" xlink:title=" ">
<polygon fill="white" stroke="#666666" points="1089,-764 960.5,-764 960.5,-720 1089,-720 1089,-764"/>
<text xml:space="preserve" text-anchor="start" x="968.5" y="-750.5" font-family="Helvetica,sans-Serif" font-size="10.00">depicture_menu::domain</text>
<text xml:space="preserve" text-anchor="start" x="968.5" y="-738.5" font-family="Helvetica,sans-Serif" font-size="10.00">::models::aggregate_base</text>
<text xml:space="preserve" text-anchor="middle" x="1024.75" y="-726.5" font-family="Helvetica,sans-Serif" font-size="10.00">&lt; value_t, ID &gt;</text>
</a>
</g>
</g>
<!-- Node3&#45;&gt;Node5 -->
<g id="edge6_Node000003_Node000005" class="edge">
<title>Node3&#45;&gt;Node5</title>
<g id="a_edge6_Node000003_Node000005"><a xlink:title=" ">
<path fill="none" stroke="#63b8ff" d="M355.44,-462.81C367.66,-494.48 389.93,-542.04 422.5,-573 472.14,-620.18 495.42,-621.12 561.25,-640 639.95,-662.57 858.87,-635.35 927.5,-680 940.85,-688.69 933.43,-700.6 945.5,-711 949.93,-714.81 954.88,-718.19 960.09,-721.18"/>
<polygon fill="#63b8ff" stroke="#63b8ff" points="358.84,-461.9 352.07,-453.75 352.28,-464.34 358.84,-461.9"/>
</a>
</g>
</g>
<!-- Node6 -->
<g id="Node000006" class="node">
<title>Node6</title>
<g id="a_Node000006"><a xlink:href="structdepicture__menu_1_1domain_1_1models_1_1aggregate__base.html" target="_top" xlink:title=" ">
<polygon fill="white" stroke="#666666" points="1097.62,-702 951.88,-702 951.88,-634 1097.62,-634 1097.62,-702"/>
<text xml:space="preserve" text-anchor="start" x="959.88" y="-688.5" font-family="Helvetica,sans-Serif" font-size="10.00">depicture_menu::domain</text>
<text xml:space="preserve" text-anchor="start" x="959.88" y="-676.5" font-family="Helvetica,sans-Serif" font-size="10.00">::models::aggregate_base</text>
<text xml:space="preserve" text-anchor="start" x="959.88" y="-664.5" font-family="Helvetica,sans-Serif" font-size="10.00">&lt; detail_test_tools::value</text>
<text xml:space="preserve" text-anchor="start" x="959.88" y="-652.5" font-family="Helvetica,sans-Serif" font-size="10.00">_holder&lt; T &gt;, domain::models</text>
<text xml:space="preserve" text-anchor="middle" x="1024.75" y="-640.5" font-family="Helvetica,sans-Serif" font-size="10.00">::entity_id &gt;</text>
</a>
</g>
</g>
<!-- Node3&#45;&gt;Node6 -->
<g id="edge7_Node000003_Node000006" class="edge">
<title>Node3&#45;&gt;Node6</title>
<g id="a_edge7_Node000003_Node000006"><a xlink:title=" ">
<path fill="none" stroke="#63b8ff" d="M369.54,-461C406.48,-503.6 479.71,-578.43 561.25,-609 714.72,-666.52 765.23,-629 927.5,-652 935.3,-653.11 943.44,-654.34 951.54,-655.61"/>
<polygon fill="#63b8ff" stroke="#63b8ff" points="372.36,-458.91 363.2,-453.58 367.04,-463.46 372.36,-458.91"/>
</a>
</g>
</g>
<!-- Node12 -->
<g id="Node000012" class="node">
<title>Node12</title>
<g id="a_Node000012"><a xlink:href="classdepicture__menu_1_1domain_1_1actions_1_1v2_1_1action.html" target="_top" xlink:title=" ">
<polygon fill="white" stroke="#666666" points="728.75,-600 606.25,-600 606.25,-544 728.75,-544 728.75,-600"/>
<text xml:space="preserve" text-anchor="start" x="614.25" y="-586.5" font-family="Helvetica,sans-Serif" font-size="10.00">depicture_menu::domain</text>
<text xml:space="preserve" text-anchor="start" x="614.25" y="-574.5" font-family="Helvetica,sans-Serif" font-size="10.00">::actions::v2::action</text>
<text xml:space="preserve" text-anchor="start" x="614.25" y="-562.5" font-family="Helvetica,sans-Serif" font-size="10.00">&lt; detail_actions::action</text>
<text xml:space="preserve" text-anchor="middle" x="667.5" y="-550.5" font-family="Helvetica,sans-Serif" font-size="10.00">_data, action_id &gt;</text>
</a>
</g>
</g>
<!-- Node3&#45;&gt;Node12 -->
<g id="edge13_Node000003_Node000012" class="edge">
<title>Node3&#45;&gt;Node12</title>
<g id="a_edge13_Node000003_Node000012"><a xlink:title=" ">
<path fill="none" stroke="#63b8ff" d="M393.17,-457.69C402.82,-462.92 412.92,-468.24 422.5,-473 482.98,-503.07 498.5,-510 561.25,-535 575.55,-540.7 591.13,-546.43 605.8,-551.62"/>
<polygon fill="#63b8ff" stroke="#63b8ff" points="395.1,-454.75 384.65,-453.02 391.74,-460.89 395.1,-454.75"/>
</a>
</g>
</g>
<!-- Node13 -->
<g id="Node000013" class="node">
<title>Node13</title>
<g id="a_Node000013"><a xlink:href="classdepicture__menu_1_1domain_1_1actions_1_1v2_1_1publisher.html" target="_top" xlink:title="アクション DomainEntity">
<polygon fill="white" stroke="#666666" points="732.5,-526 602.5,-526 602.5,-470 732.5,-470 732.5,-526"/>
<text xml:space="preserve" text-anchor="start" x="610.5" y="-512.5" font-family="Helvetica,sans-Serif" font-size="10.00">depicture_menu::domain</text>
<text xml:space="preserve" text-anchor="start" x="610.5" y="-500.5" font-family="Helvetica,sans-Serif" font-size="10.00">::actions::v2::publisher</text>
<text xml:space="preserve" text-anchor="start" x="610.5" y="-488.5" font-family="Helvetica,sans-Serif" font-size="10.00">&lt; detail_actions::publisher</text>
<text xml:space="preserve" text-anchor="middle" x="667.5" y="-476.5" font-family="Helvetica,sans-Serif" font-size="10.00">_data, maker_id &gt;</text>
</a>
</g>
</g>
<!-- Node3&#45;&gt;Node13 -->
<g id="edge14_Node000003_Node000013" class="edge">
<title>Node3&#45;&gt;Node13</title>
<g id="a_edge14_Node000003_Node000013"><a xlink:title=" ">
<path fill="none" stroke="#63b8ff" d="M416.06,-445.15C471.76,-456.91 548.27,-473.05 602.02,-484.39"/>
<polygon fill="#63b8ff" stroke="#63b8ff" points="416.85,-441.74 406.34,-443.1 415.41,-448.59 416.85,-441.74"/>
</a>
</g>
</g>
<!-- Node14 -->
<g id="Node000014" class="node">
<title>Node14</title>
<g id="a_Node000014"><a xlink:href="classdepicture__menu_1_1domain_1_1app_1_1config.html" target="_top" xlink:title=" ">
<polygon fill="white" stroke="#666666" points="741.12,-452 593.88,-452 593.88,-408 741.12,-408 741.12,-452"/>
<text xml:space="preserve" text-anchor="start" x="601.88" y="-438.5" font-family="Helvetica,sans-Serif" font-size="10.00">depicture_menu::domain</text>
<text xml:space="preserve" text-anchor="start" x="601.88" y="-426.5" font-family="Helvetica,sans-Serif" font-size="10.00">::app::config&lt; detail</text>
<text xml:space="preserve" text-anchor="middle" x="667.5" y="-414.5" font-family="Helvetica,sans-Serif" font-size="10.00">_app::config_data, config_id &gt;</text>
</a>
</g>
</g>
<!-- Node3&#45;&gt;Node14 -->
<g id="edge15_Node000003_Node000014" class="edge">
<title>Node3&#45;&gt;Node14</title>
<g id="a_edge15_Node000003_Node000014"><a xlink:title=" ">
<path fill="none" stroke="#63b8ff" d="M416.17,-430C468.96,-430 540.4,-430 593.46,-430"/>
<polygon fill="#63b8ff" stroke="#63b8ff" points="416.38,-426.5 406.38,-430 416.38,-433.5 416.38,-426.5"/>
</a>
</g>
</g>
<!-- Node15 -->
<g id="Node000015" class="node">
<title>Node15</title>
<g id="a_Node000015"><a xlink:href="classdepicture__menu_1_1domain_1_1app_1_1option.html" target="_top" xlink:title="オプションエンティティ">
<polygon fill="white" stroke="#666666" points="741.12,-390 593.88,-390 593.88,-346 741.12,-346 741.12,-390"/>
<text xml:space="preserve" text-anchor="start" x="601.88" y="-376.5" font-family="Helvetica,sans-Serif" font-size="10.00">depicture_menu::domain</text>
<text xml:space="preserve" text-anchor="start" x="601.88" y="-364.5" font-family="Helvetica,sans-Serif" font-size="10.00">::app::option&lt; detail</text>
<text xml:space="preserve" text-anchor="middle" x="667.5" y="-352.5" font-family="Helvetica,sans-Serif" font-size="10.00">_app::option_data, option_id &gt;</text>
</a>
</g>
</g>
<!-- Node3&#45;&gt;Node15 -->
<g id="edge16_Node000003_Node000015" class="edge">
<title>Node3&#45;&gt;Node15</title>
<g id="a_edge16_Node000003_Node000015"><a xlink:title=" ">
<path fill="none" stroke="#63b8ff" d="M416.17,-416.16C468.96,-406.01 540.4,-392.26 593.46,-382.05"/>
<polygon fill="#63b8ff" stroke="#63b8ff" points="415.51,-412.73 406.35,-418.05 416.83,-419.6 415.51,-412.73"/>
</a>
</g>
</g>
<!-- Node16 -->
<g id="Node000016" class="node">
<title>Node16</title>
<g id="a_Node000016"><a xlink:href="classdepicture__menu_1_1domain_1_1commands_1_1command.html" target="_top" xlink:title=" ">
<polygon fill="white" stroke="#666666" points="773.75,-328 561.25,-328 561.25,-284 773.75,-284 773.75,-328"/>
<text xml:space="preserve" text-anchor="start" x="569.25" y="-314.5" font-family="Helvetica,sans-Serif" font-size="10.00">depicture_menu::domain</text>
<text xml:space="preserve" text-anchor="start" x="569.25" y="-302.5" font-family="Helvetica,sans-Serif" font-size="10.00">::commands::command&lt; detail</text>
<text xml:space="preserve" text-anchor="middle" x="667.5" y="-290.5" font-family="Helvetica,sans-Serif" font-size="10.00">_commands::command_data, command_id &gt;</text>
</a>
</g>
</g>
<!-- Node3&#45;&gt;Node16 -->
<g id="edge17_Node000003_Node000016" class="edge">
<title>Node3&#45;&gt;Node16</title>
<g id="a_edge17_Node000003_Node000016"><a xlink:title=" ">
<path fill="none" stroke="#63b8ff" d="M394.87,-402.31C403.97,-397.67 413.45,-393.05 422.5,-389 482.62,-362.11 498.79,-357.87 561.25,-337 569.83,-334.13 578.85,-331.26 587.85,-328.49"/>
<polygon fill="#63b8ff" stroke="#63b8ff" points="393.41,-399.13 386.14,-406.84 396.63,-405.34 393.41,-399.13"/>
</a>
</g>
</g>
<!-- Node17 -->
<g id="Node000017" class="node">
<title>Node17</title>
<g id="a_Node000017"><a xlink:href="classdepicture__menu_1_1domain_1_1commands_1_1invoker.html" target="_top" xlink:title=" ">
<polygon fill="white" stroke="#666666" points="762.5,-266 572.5,-266 572.5,-222 762.5,-222 762.5,-266"/>
<text xml:space="preserve" text-anchor="start" x="580.5" y="-252.5" font-family="Helvetica,sans-Serif" font-size="10.00">depicture_menu::domain</text>
<text xml:space="preserve" text-anchor="start" x="580.5" y="-240.5" font-family="Helvetica,sans-Serif" font-size="10.00">::commands::invoker&lt; detail</text>
<text xml:space="preserve" text-anchor="middle" x="667.5" y="-228.5" font-family="Helvetica,sans-Serif" font-size="10.00">_commands::invoker_data, invoker_id &gt;</text>
</a>
</g>
</g>
<!-- Node3&#45;&gt;Node17 -->
<g id="edge18_Node000003_Node000017" class="edge">
<title>Node3&#45;&gt;Node17</title>
<g id="a_edge18_Node000003_Node000017"><a xlink:title=" ">
<path fill="none" stroke="#63b8ff" d="M366.27,-398.59C380.64,-379.79 400.73,-356.43 422.5,-340 468.19,-305.51 527.87,-281.74 576.76,-266.48"/>
<polygon fill="#63b8ff" stroke="#63b8ff" points="363.58,-396.35 360.4,-406.46 369.19,-400.53 363.58,-396.35"/>
</a>
</g>
</g>
<!-- Node18 -->
<g id="Node000018" class="node">
<title>Node18</title>
<g id="a_Node000018"><a xlink:href="structdepicture__menu_1_1domain_1_1menu_1_1radialmenu.html" target="_top" xlink:title="メニュー Domain entity">
<polygon fill="white" stroke="#666666" points="754.62,-204 580.38,-204 580.38,-160 754.62,-160 754.62,-204"/>
<text xml:space="preserve" text-anchor="start" x="588.38" y="-190.5" font-family="Helvetica,sans-Serif" font-size="10.00">depicture_menu::domain</text>
<text xml:space="preserve" text-anchor="start" x="588.38" y="-178.5" font-family="Helvetica,sans-Serif" font-size="10.00">::menu::radialmenu&lt; detail</text>
<text xml:space="preserve" text-anchor="middle" x="667.5" y="-166.5" font-family="Helvetica,sans-Serif" font-size="10.00">_menu::radialmenu_data, menu_id &gt;</text>
</a>
</g>
</g>
<!-- Node3&#45;&gt;Node18 -->
<g id="edge19_Node000003_Node000018" class="edge">
<title>Node3&#45;&gt;Node18</title>
<g id="a_edge19_Node000003_Node000018"><a xlink:title=" ">
<path fill="none" stroke="#63b8ff" d="M353.54,-396.71C364.75,-362.01 386.69,-308.04 422.5,-274 465.65,-232.98 528.85,-209.83 580.12,-197.01"/>
<polygon fill="#63b8ff" stroke="#63b8ff" points="350.21,-395.65 350.59,-406.23 356.89,-397.72 350.21,-395.65"/>
</a>
</g>
</g>
<!-- Node19 -->
<g id="Node000019" class="node">
<title>Node19</title>
<g id="a_Node000019"><a xlink:href="classdepicture__menu_1_1domain_1_1menu_1_1radialmenu__centralitem.html" target="_top" xlink:title=" ">
<polygon fill="white" stroke="#666666" points="759.5,-142 575.5,-142 575.5,-86 759.5,-86 759.5,-142"/>
<text xml:space="preserve" text-anchor="start" x="583.5" y="-128.5" font-family="Helvetica,sans-Serif" font-size="10.00">depicture_menu::domain</text>
<text xml:space="preserve" text-anchor="start" x="583.5" y="-116.5" font-family="Helvetica,sans-Serif" font-size="10.00">::menu::radialmenu_centralitem</text>
<text xml:space="preserve" text-anchor="start" x="583.5" y="-104.5" font-family="Helvetica,sans-Serif" font-size="10.00">&lt; detail_menu::radialmenu_centralitem</text>
<text xml:space="preserve" text-anchor="middle" x="667.5" y="-92.5" font-family="Helvetica,sans-Serif" font-size="10.00">_data, menu_central_item_id &gt;</text>
</a>
</g>
</g>
<!-- Node3&#45;&gt;Node19 -->
<g id="edge20_Node000003_Node000019" class="edge">
<title>Node3&#45;&gt;Node19</title>
<g id="a_edge20_Node000003_Node000019"><a xlink:title=" ">
<path fill="none" stroke="#63b8ff" d="M347.21,-396.26C353.18,-347.82 370.9,-258.52 422.5,-205 462.82,-163.18 524.14,-140.41 575.22,-128.11"/>
<polygon fill="#63b8ff" stroke="#63b8ff" points="343.73,-395.82 346.1,-406.15 350.69,-396.6 343.73,-395.82"/>
</a>
</g>
</g>
<!-- Node20 -->
<g id="Node000020" class="node">
<title>Node20</title>
<g id="a_Node000020"><a xlink:href="structdepicture__menu_1_1domain_1_1models_1_1aggregate__base.html" target="_top" xlink:title=" ">
<polygon fill="white" stroke="#666666" points="746.75,-840 588.25,-840 588.25,-796 746.75,-796 746.75,-840"/>
<text xml:space="preserve" text-anchor="start" x="596.25" y="-826.5" font-family="Helvetica,sans-Serif" font-size="10.00">depicture_menu::domain</text>
<text xml:space="preserve" text-anchor="start" x="596.25" y="-814.5" font-family="Helvetica,sans-Serif" font-size="10.00">::models::aggregate_base</text>
<text xml:space="preserve" text-anchor="middle" x="667.5" y="-802.5" font-family="Helvetica,sans-Serif" font-size="10.00">&lt; Value, Id, Event, EventStore &gt;</text>
</a>
</g>
</g>
<!-- Node3&#45;&gt;Node20 -->
<g id="edge21_Node000003_Node000020" class="edge">
<title>Node3&#45;&gt;Node20</title>
<g id="a_edge21_Node000003_Node000020"><a xlink:title=" ">
<path fill="none" stroke="#63b8ff" d="M346.93,-463.41C352.64,-515.08 370.12,-615.19 422.5,-680 468.23,-736.59 543.76,-774.15 598.69,-795.6"/>
<polygon fill="#63b8ff" stroke="#63b8ff" points="350.44,-463.36 345.95,-453.76 343.48,-464.06 350.44,-463.36"/>
</a>
</g>
</g>
<!-- Node21 -->
<g id="Node000021" class="node">
<title>Node21</title>
<g id="a_Node000021"><a xlink:href="structdepicture__menu_1_1domain_1_1models_1_1base_1_1entity__base.html" target="_top" xlink:title=" ">
<polygon fill="white" stroke="#666666" points="743.38,-68 591.62,-68 591.62,0 743.38,0 743.38,-68"/>
<text xml:space="preserve" text-anchor="start" x="599.62" y="-54.5" font-family="Helvetica,sans-Serif" font-size="10.00">depicture_menu::domain</text>
<text xml:space="preserve" text-anchor="start" x="599.62" y="-42.5" font-family="Helvetica,sans-Serif" font-size="10.00">::models::base::entity</text>
<text xml:space="preserve" text-anchor="start" x="599.62" y="-30.5" font-family="Helvetica,sans-Serif" font-size="10.00">_base&lt; V, ID &gt;&lt; detail</text>
<text xml:space="preserve" text-anchor="start" x="599.62" y="-18.5" font-family="Helvetica,sans-Serif" font-size="10.00">_menu::radialmenu_centralitem</text>
<text xml:space="preserve" text-anchor="middle" x="667.5" y="-6.5" font-family="Helvetica,sans-Serif" font-size="10.00">_data, menu_central_item_id &gt;</text>
</a>
</g>
</g>
<!-- Node3&#45;&gt;Node21 -->
<g id="edge29_Node000003_Node000021" class="edge">
<title>Node3&#45;&gt;Node21</title>
<g id="a_edge29_Node000003_Node000021"><a xlink:title=" ">
<path fill="none" stroke="orange" stroke-dasharray="5,2" d="M347.2,-396.71C354.82,-318.57 377.75,-126.71 422.5,-83 466.62,-39.91 537.41,-29.64 591.4,-28.98"/>
<polygon fill="orange" stroke="orange" points="343.75,-396.02 346.29,-406.3 350.72,-396.68 343.75,-396.02"/>
</a>
</g>
<text xml:space="preserve" text-anchor="start" x="425.5" y="-120.5" font-family="Helvetica,sans-Serif" font-size="10.00" fill="grey">&lt; detail_menu::radialmenu</text>
<text xml:space="preserve" text-anchor="start" x="425.5" y="-104.5" font-family="Helvetica,sans-Serif" font-size="10.00" fill="grey">  _centralitem_data, menu</text>
<text xml:space="preserve" text-anchor="start" x="425.5" y="-88.5" font-family="Helvetica,sans-Serif" font-size="10.00" fill="grey">  _central_item_id &gt;</text>
</g>
<!-- Node7 -->
<g id="Node000007" class="node">
<title>Node7</title>
<g id="a_Node000007"><a xlink:href="structdepicture__menu_1_1test_1_1test__tools_1_1mock__aggregate.html" target="_top" xlink:title=" ">
<polygon fill="white" stroke="#666666" points="1283.75,-802 1141,-802 1141,-758 1283.75,-758 1283.75,-802"/>
<text xml:space="preserve" text-anchor="start" x="1149" y="-788.5" font-family="Helvetica,sans-Serif" font-size="10.00">depicture_menu::test</text>
<text xml:space="preserve" text-anchor="start" x="1149" y="-776.5" font-family="Helvetica,sans-Serif" font-size="10.00">::test_tools::mock_aggregate</text>
<text xml:space="preserve" text-anchor="middle" x="1212.38" y="-764.5" font-family="Helvetica,sans-Serif" font-size="10.00">&lt; T, ID &gt;</text>
</a>
</g>
</g>
<!-- Node6&#45;&gt;Node7 -->
<g id="edge8_Node000006_Node000007" class="edge">
<title>Node6&#45;&gt;Node7</title>
<g id="a_edge8_Node000006_Node000007"><a xlink:title=" ">
<path fill="none" stroke="#63b8ff" d="M1098.99,-708.04C1100.68,-709.03 1102.35,-710.02 1104,-711 1129.14,-725.96 1156.9,-743.84 1177.89,-757.65"/>
<polygon fill="#63b8ff" stroke="#63b8ff" points="1100.89,-705.1 1090.48,-703.12 1097.38,-711.16 1100.89,-705.1"/>
</a>
</g>
</g>
<!-- Node8 -->
<g id="Node000008" class="node">
<title>Node8</title>
<g id="a_Node000008"><a xlink:href="structdepicture__menu_1_1test_1_1test__tools_1_1mock__aggregate.html" target="_top" xlink:title=" ">
<polygon fill="white" stroke="#666666" points="1562.25,-764 1419.5,-764 1419.5,-720 1562.25,-720 1562.25,-764"/>
<text xml:space="preserve" text-anchor="start" x="1427.5" y="-750.5" font-family="Helvetica,sans-Serif" font-size="10.00">depicture_menu::test</text>
<text xml:space="preserve" text-anchor="start" x="1427.5" y="-738.5" font-family="Helvetica,sans-Serif" font-size="10.00">::test_tools::mock_aggregate</text>
<text xml:space="preserve" text-anchor="middle" x="1490.88" y="-726.5" font-family="Helvetica,sans-Serif" font-size="10.00">&lt; int &gt;</text>
</a>
</g>
</g>
<!-- Node7&#45;&gt;Node8 -->
<g id="edge9_Node000007_Node000008" class="edge">
<title>Node7&#45;&gt;Node8</title>
<g id="a_edge9_Node000007_Node000008"><a xlink:title=" ">
<path fill="none" stroke="orange" stroke-dasharray="5,2" d="M1295.1,-766.96C1297.34,-766.64 1299.56,-766.31 1301.75,-766 1340.54,-760.45 1383.91,-754.88 1419.23,-750.5"/>
<polygon fill="orange" stroke="orange" points="1294.65,-763.49 1285.27,-768.43 1295.68,-770.42 1294.65,-763.49"/>
</a>
</g>
<text xml:space="preserve" text-anchor="start" x="1337.38" y="-771.5" font-family="Helvetica,sans-Serif" font-size="10.00" fill="grey">&lt; int &gt;</text>
</g>
<!-- Node9 -->
<g id="Node000009" class="node">
<title>Node9</title>
<g id="a_Node000009"><a xlink:href="structdepicture__menu_1_1test_1_1test__tools_1_1mock__aggregate.html" target="_top" xlink:title=" ">
<polygon fill="white" stroke="#666666" points="1562.25,-898 1419.5,-898 1419.5,-854 1562.25,-854 1562.25,-898"/>
<text xml:space="preserve" text-anchor="start" x="1427.5" y="-884.5" font-family="Helvetica,sans-Serif" font-size="10.00">depicture_menu::test</text>
<text xml:space="preserve" text-anchor="start" x="1427.5" y="-872.5" font-family="Helvetica,sans-Serif" font-size="10.00">::test_tools::mock_aggregate</text>
<text xml:space="preserve" text-anchor="middle" x="1490.88" y="-860.5" font-family="Helvetica,sans-Serif" font-size="10.00">&lt; int, int_id &gt;</text>
</a>
</g>
</g>
<!-- Node7&#45;&gt;Node9 -->
<g id="edge10_Node000007_Node000009" class="edge">
<title>Node7&#45;&gt;Node9</title>
<g id="a_edge10_Node000007_Node000009"><a xlink:title=" ">
<path fill="none" stroke="orange" stroke-dasharray="5,2" d="M1269.95,-806.97C1280.42,-811.57 1291.34,-816.11 1301.75,-820 1340.06,-834.3 1383.79,-847.5 1419.44,-857.48"/>
<polygon fill="orange" stroke="orange" points="1271.6,-803.88 1261.04,-802.99 1268.74,-810.27 1271.6,-803.88"/>
</a>
</g>
<text xml:space="preserve" text-anchor="start" x="1322.75" y="-856.98" font-family="Helvetica,sans-Serif" font-size="10.00" fill="grey">&lt; int, int_id &gt;</text>
</g>
<!-- Node10 -->
<g id="Node000010" class="node">
<title>Node10</title>
<g id="a_Node000010"><a xlink:href="structdepicture__menu_1_1test_1_1test__tools_1_1mock__aggregate.html" target="_top" xlink:title=" ">
<polygon fill="white" stroke="#666666" points="1562.25,-972 1419.5,-972 1419.5,-928 1562.25,-928 1562.25,-972"/>
<text xml:space="preserve" text-anchor="start" x="1427.5" y="-958.5" font-family="Helvetica,sans-Serif" font-size="10.00">depicture_menu::test</text>
<text xml:space="preserve" text-anchor="start" x="1427.5" y="-946.5" font-family="Helvetica,sans-Serif" font-size="10.00">::test_tools::mock_aggregate</text>
<text xml:space="preserve" text-anchor="middle" x="1490.88" y="-934.5" font-family="Helvetica,sans-Serif" font-size="10.00">&lt; std::string, str_id &gt;</text>
</a>
</g>
</g>
<!-- Node7&#45;&gt;Node10 -->
<g id="edge11_Node000007_Node000010" class="edge">
<title>Node7&#45;&gt;Node10</title>
<g id="a_edge11_Node000007_Node000010"><a xlink:title=" ">
<path fill="none" stroke="orange" stroke-dasharray="5,2" d="M1236.89,-810.81C1253.31,-830.67 1276.72,-855.89 1301.75,-873 1337.58,-897.5 1382.41,-916.23 1419.32,-929.08"/>
<polygon fill="orange" stroke="orange" points="1239.81,-808.86 1230.8,-803.29 1234.37,-813.27 1239.81,-808.86"/>
</a>
</g>
<text xml:space="preserve" text-anchor="start" x="1305.88" y="-927.63" font-family="Helvetica,sans-Serif" font-size="10.00" fill="grey">&lt; std::string, str_id &gt;</text>
</g>
<!-- Node11 -->
<g id="Node000011" class="node">
<title>Node11</title>
<g id="a_Node000011"><a xlink:href="structdepicture__menu_1_1test_1_1test__tools_1_1mock__aggregate.html" target="_top" xlink:title=" ">
<polygon fill="white" stroke="#666666" points="1562.25,-834 1419.5,-834 1419.5,-790 1562.25,-790 1562.25,-834"/>
<text xml:space="preserve" text-anchor="start" x="1427.5" y="-820.5" font-family="Helvetica,sans-Serif" font-size="10.00">depicture_menu::test</text>
<text xml:space="preserve" text-anchor="start" x="1427.5" y="-808.5" font-family="Helvetica,sans-Serif" font-size="10.00">::test_tools::mock_aggregate</text>
<text xml:space="preserve" text-anchor="middle" x="1490.88" y="-796.5" font-family="Helvetica,sans-Serif" font-size="10.00">&lt; double, double_id &gt;</text>
</a>
</g>
</g>
<!-- Node7&#45;&gt;Node11 -->
<g id="edge12_Node000007_Node000011" class="edge">
<title>Node7&#45;&gt;Node11</title>
<g id="a_edge12_Node000007_Node000011"><a xlink:title=" ">
<path fill="none" stroke="orange" stroke-dasharray="5,2" d="M1295.5,-786.75C1328.49,-789.75 1366.85,-793.6 1401.5,-798 1407.2,-798.72 1413.1,-799.53 1419.02,-800.38"/>
<polygon fill="orange" stroke="orange" points="1295.84,-783.27 1285.57,-785.86 1295.22,-790.24 1295.84,-783.27"/>
</a>
</g>
<text xml:space="preserve" text-anchor="start" x="1304.75" y="-803.5" font-family="Helvetica,sans-Serif" font-size="10.00" fill="grey">&lt; double, double_id &gt;</text>
</g>
<!-- Node20&#45;&gt;Node4 -->
<g id="edge26_Node000020_Node000004" class="edge">
<title>Node20&#45;&gt;Node4</title>
<g id="a_edge26_Node000020_Node000004"><a xlink:title=" ">
<path fill="none" stroke="orange" stroke-dasharray="5,2" d="M684.74,-850.29C704.72,-886.42 742.17,-943.72 791.75,-973 844.44,-1004.12 868.13,-981.19 927.5,-996 938.35,-998.71 949.74,-1002.04 960.73,-1005.52"/>
<polygon fill="orange" stroke="orange" points="687.88,-848.73 680.05,-841.59 681.71,-852.05 687.88,-848.73"/>
</a>
</g>
<text xml:space="preserve" text-anchor="start" x="818.75" y="-1017.5" font-family="Helvetica,sans-Serif" font-size="10.00" fill="grey">&lt; Value, Id, Event,</text>
<text xml:space="preserve" text-anchor="start" x="818.75" y="-1001.5" font-family="Helvetica,sans-Serif" font-size="10.00" fill="grey">   EventStore &gt;</text>
</g>
<!-- Node20&#45;&gt;Node5 -->
<g id="edge27_Node000020_Node000005" class="edge">
<title>Node20&#45;&gt;Node5</title>
<g id="a_edge27_Node000020_Node000005"><a xlink:title=" ">
<path fill="none" stroke="orange" stroke-dasharray="5,2" d="M732.54,-791.63C751.36,-784.7 772.15,-777.83 791.75,-773 847.78,-759.2 913.03,-751.17 960.04,-746.76"/>
<polygon fill="orange" stroke="orange" points="731.56,-788.26 723.43,-795.05 734.02,-794.81 731.56,-788.26"/>
</a>
</g>
<text xml:space="preserve" text-anchor="start" x="826.62" y="-778.5" font-family="Helvetica,sans-Serif" font-size="10.00" fill="grey">&lt; value_t, ID &gt;</text>
</g>
<!-- Node20&#45;&gt;Node6 -->
<g id="edge28_Node000020_Node000006" class="edge">
<title>Node20&#45;&gt;Node6</title>
<g id="a_edge28_Node000020_Node000006"><a xlink:title=" ">
<path fill="none" stroke="orange" stroke-dasharray="5,2" d="M690.81,-786.53C712.93,-758.01 749.55,-717.4 791.75,-697 841.54,-672.93 904.05,-666.27 951.64,-665.3"/>
<polygon fill="orange" stroke="orange" points="688.03,-784.4 684.79,-794.49 693.61,-788.63 688.03,-784.4"/>
</a>
</g>
<text xml:space="preserve" text-anchor="start" x="794.75" y="-734.5" font-family="Helvetica,sans-Serif" font-size="10.00" fill="grey">&lt; detail_test_tools</text>
<text xml:space="preserve" text-anchor="start" x="794.75" y="-718.5" font-family="Helvetica,sans-Serif" font-size="10.00" fill="grey">  ::value_holder&lt; T &gt;,</text>
<text xml:space="preserve" text-anchor="start" x="794.75" y="-702.5" font-family="Helvetica,sans-Serif" font-size="10.00" fill="grey">   domain::models::entity_id &gt;</text>
</g>
<!-- Node20&#45;&gt;Node8 -->
<g id="edge22_Node000020_Node000008" class="edge">
<title>Node20&#45;&gt;Node8</title>
<g id="a_edge22_Node000020_Node000008"><a xlink:title=" ">
<path fill="none" stroke="#63b8ff" d="M758.19,-813.69C866.63,-807.61 1042.3,-794.77 1104,-773 1122.48,-766.48 1122.26,-754.75 1141,-749 1233.95,-720.48 1347.48,-724.97 1419.25,-732.29"/>
<polygon fill="#63b8ff" stroke="#63b8ff" points="758.24,-810.18 748.44,-814.22 758.62,-817.17 758.24,-810.18"/>
</a>
</g>
</g>
<!-- Node20&#45;&gt;Node9 -->
<g id="edge23_Node000020_Node000009" class="edge">
<title>Node20&#45;&gt;Node9</title>
<g id="a_edge23_Node000020_Node000009"><a xlink:title=" ">
<path fill="none" stroke="#63b8ff" d="M758.09,-837.64C880.26,-863.31 1106.27,-906.9 1301.75,-923 1345.93,-926.64 1358.48,-933.73 1401.5,-923 1421.06,-918.12 1441.04,-908.02 1457.04,-898.42"/>
<polygon fill="#63b8ff" stroke="#63b8ff" points="758.95,-834.24 748.44,-835.6 757.5,-841.09 758.95,-834.24"/>
</a>
</g>
</g>
<!-- Node20&#45;&gt;Node10 -->
<g id="edge24_Node000020_Node000010" class="edge">
<title>Node20&#45;&gt;Node10</title>
<g id="a_edge24_Node000020_Node000010"><a xlink:title=" ">
<path fill="none" stroke="#63b8ff" d="M728.54,-845.03C756.42,-857.44 784.92,-869.89 791.75,-872 1010.23,-939.51 1073.59,-924.71 1301.75,-940 1340.58,-942.6 1383.96,-944.95 1419.27,-946.71"/>
<polygon fill="#63b8ff" stroke="#63b8ff" points="730.29,-841.97 719.73,-841.09 727.43,-848.36 730.29,-841.97"/>
</a>
</g>
</g>
<!-- Node20&#45;&gt;Node11 -->
<g id="edge25_Node000020_Node000011" class="edge">
<title>Node20&#45;&gt;Node11</title>
<g id="a_edge25_Node000020_Node000011"><a xlink:title=" ">
<path fill="none" stroke="#63b8ff" d="M758.5,-818.98C896.77,-820.22 1169.79,-821.56 1401.5,-816 1407.33,-815.86 1413.38,-815.67 1419.46,-815.46"/>
<polygon fill="#63b8ff" stroke="#63b8ff" points="758.7,-815.49 748.67,-818.89 758.64,-822.49 758.7,-815.49"/>
</a>
</g>
</g>
</g>
</svg>
