<?xml version="1.0" encoding="UTF-8" standalone="no"?>
<!DOCTYPE svg PUBLIC "-//W3C//DTD SVG 1.1//EN"
 "http://www.w3.org/Graphics/SVG/1.1/DTD/svg11.dtd">
<!-- Generated by graphviz version 14.1.2 (20260124.0452)
 -->
<!-- Title: depicture_menu::repositories::detail_repositories::get_impl&lt; std::index_sequence&lt; Indices... &gt;, Ts... &gt; Pages: 1 -->
<!--zoomable 114 -->

<svg id="main" version="1.1" xmlns="http://www.w3.org/2000/svg" xmlns:xlink="http://www.w3.org/1999/xlink" xml:space="preserve" onload="init(evt)">

<style type="text/css"><![CDATA[
.node, .edge {opacity: 0.7;}
.node.selected, .edge.selected {opacity: 1;}
.edge:hover path { stroke: red; }
.edge:hover polygon { stroke: red; fill: red; }
]]></style>

<defs>
  <circle id="rim" cx="0" cy="0" r="7"/>
  <circle id="rim2" cx="0" cy="0" r="3.5"/>
  <g id="zoomPlus">
    <use xlink:href="#rim" fill="#404040"><set attributeName="fill" to="#808080" begin="zoomplus.mouseover" end="zoomplus.mouseout"/></use>
    <path d="M-4,0h8M0,-4v8" fill="none" stroke="white" stroke-width="1.5" pointer-events="none"/>
  </g>
  <g id="zoomMin">
    <use xlink:href="#rim" fill="#404040"><set attributeName="fill" to="#808080" begin="zoomminus.mouseover" end="zoomminus.mouseout"/></use>
    <path d="M-4,0h8" fill="none" stroke="white" stroke-width="1.5" pointer-events="none"/>
  </g>
  <g id="arrowUp" transform="translate(30 24)">
    <use xlink:href="#rim"/>
    <path pointer-events="none" fill="none" stroke="white" stroke-width="1.5" d="M0,-3.0v7 M-2.5,-0.5L0,-3.0L2.5,-0.5"/>
  </g>
  <g id="arrowRight" transform="rotate(90) translate(36 -43)">
    <use xlink:href="#rim"/>
    <path pointer-events="none" fill="none" stroke="white" stroke-width="1.5" d="M0,-3.0v7 M-2.5,-0.5L0,-3.0L2.5,-0.5"/>
  </g>
  <g id="arrowDown" transform="rotate(180) translate(-30 -48)">
    <use xlink:href="#rim"/>
    <path pointer-events="none" fill="none" stroke="white" stroke-width="1.5" d="M0,-3.0v7 M-2.5,-0.5L0,-3.0L2.5,-0.5"/>
  </g>
  <g id="arrowLeft" transform="rotate(270) translate(-36 17)">
    <use xlink:href="#rim"/>
    <path pointer-events="none" fill="none" stroke="white" stroke-width="1.5" d="M0,-3.0v7 M-2.5,-0.5L0,-3.0L2.5,-0.5"/>
  </g>
  <g id="resetDef">
    <use xlink:href="#rim2" fill="#404040"><set attributeName="fill" to="#808080" begin="reset.mouseover" end="reset.mouseout"/></use>
  </g>
</defs>
<script type="application/ecmascript">
var viewWidth = 680;
var viewHeight = 114;
var sectionId = 'dynsection-1';
</script>
<script type="application/ecmascript" xlink:href="svg.min.js"/>
<svg id="graph" class="graph">
<g id="viewport">
<title>depicture_menu::repositories::detail_repositories::get_impl&lt; std::index_sequence&lt; Indices... &gt;, Ts... &gt;</title>
<!-- Node1 -->
<g id="Node000001" class="node">
<title>Node1</title>
<g id="a_Node000001"><a xlink:title=" ">
<polygon fill="#999999" stroke="#666666" points="672,-74 530.75,-74 530.75,-18 672,-18 672,-74"/>
<text xml:space="preserve" text-anchor="start" x="538.75" y="-60.5" font-family="Helvetica,sans-Serif" font-size="10.00">depicture_menu::repositories</text>
<text xml:space="preserve" text-anchor="start" x="538.75" y="-48.5" font-family="Helvetica,sans-Serif" font-size="10.00">::detail_repositories::get</text>
<text xml:space="preserve" text-anchor="start" x="538.75" y="-36.5" font-family="Helvetica,sans-Serif" font-size="10.00">_impl&lt; std::index_sequence</text>
<text xml:space="preserve" text-anchor="middle" x="601.38" y="-24.5" font-family="Helvetica,sans-Serif" font-size="10.00">&lt; Indices... &gt;, Ts... &gt;</text>
</a>
</g>
</g>
<!-- Node2 -->
<g id="Node000002" class="node">
<title>Node2</title>
<g id="a_Node000002"><a xlink:href="structdepicture__menu_1_1repositories_1_1detail__repositories_1_1index__tag.html" target="_top" xlink:title=" ">
<polygon fill="white" stroke="#666666" points="389.75,-106 248.5,-106 248.5,-62 389.75,-62 389.75,-106"/>
<text xml:space="preserve" text-anchor="start" x="256.5" y="-92.5" font-family="Helvetica,sans-Serif" font-size="10.00">depicture_menu::repositories</text>
<text xml:space="preserve" text-anchor="start" x="256.5" y="-80.5" font-family="Helvetica,sans-Serif" font-size="10.00">::detail_repositories::index</text>
<text xml:space="preserve" text-anchor="middle" x="319.12" y="-68.5" font-family="Helvetica,sans-Serif" font-size="10.00">_tag&lt; Ts, Indices &gt;</text>
</a>
</g>
</g>
<!-- Node2&#45;&gt;Node1 -->
<g id="edge1_Node000001_Node000002" class="edge">
<title>Node2&#45;&gt;Node1</title>
<g id="a_edge1_Node000001_Node000002"><a xlink:title=" ">
<path fill="none" stroke="#63b8ff" d="M401.29,-76.66C435.74,-73.16 476.29,-68.51 512.75,-63 518.57,-62.12 524.6,-61.13 530.64,-60.07"/>
<polygon fill="#63b8ff" stroke="#63b8ff" points="400.96,-73.18 391.36,-77.66 401.65,-80.14 400.96,-73.18"/>
</a>
</g>
</g>
<!-- Node3 -->
<g id="Node000003" class="node">
<title>Node3</title>
<g id="a_Node000003"><a xlink:href="structdepicture__menu_1_1repositories_1_1detail__repositories_1_1index__tag.html" target="_top" xlink:title=" ">
<polygon fill="white" stroke="#666666" points="141.25,-106 0,-106 0,-62 141.25,-62 141.25,-106"/>
<text xml:space="preserve" text-anchor="start" x="8" y="-92.5" font-family="Helvetica,sans-Serif" font-size="10.00">depicture_menu::repositories</text>
<text xml:space="preserve" text-anchor="start" x="8" y="-80.5" font-family="Helvetica,sans-Serif" font-size="10.00">::detail_repositories::index</text>
<text xml:space="preserve" text-anchor="middle" x="70.62" y="-68.5" font-family="Helvetica,sans-Serif" font-size="10.00">_tag&lt; T, Index &gt;</text>
</a>
</g>
</g>
<!-- Node3&#45;&gt;Node2 -->
<g id="edge2_Node000002_Node000003" class="edge">
<title>Node3&#45;&gt;Node2</title>
<g id="a_edge2_Node000002_Node000003"><a xlink:title=" ">
<path fill="none" stroke="orange" stroke-dasharray="5,2" d="M152.79,-84C183.71,-84 218.64,-84 248.4,-84"/>
<polygon fill="orange" stroke="orange" points="153.12,-80.5 143.12,-84 153.12,-87.5 153.12,-80.5"/>
</a>
</g>
<text xml:space="preserve" text-anchor="start" x="162.25" y="-89.5" font-family="Helvetica,sans-Serif" font-size="10.00" fill="grey">&lt; Ts, Indices &gt;</text>
</g>
<!-- Node4 -->
<g id="Node000004" class="node">
<title>Node4</title>
<g id="a_Node000004"><a xlink:href="structdepicture__menu_1_1repositories_1_1detail__repositories_1_1get__impl.html" target="_top" xlink:title=" ">
<polygon fill="white" stroke="#666666" points="389.75,-44 248.5,-44 248.5,0 389.75,0 389.75,-44"/>
<text xml:space="preserve" text-anchor="start" x="256.5" y="-30.5" font-family="Helvetica,sans-Serif" font-size="10.00">depicture_menu::repositories</text>
<text xml:space="preserve" text-anchor="start" x="256.5" y="-18.5" font-family="Helvetica,sans-Serif" font-size="10.00">::detail_repositories::get</text>
<text xml:space="preserve" text-anchor="middle" x="319.12" y="-6.5" font-family="Helvetica,sans-Serif" font-size="10.00">_impl&lt; Ts &gt;</text>
</a>
</g>
</g>
<!-- Node4&#45;&gt;Node1 -->
<g id="edge3_Node000001_Node000004" class="edge">
<title>Node4&#45;&gt;Node1</title>
<g id="a_edge3_Node000001_Node000004"><a xlink:title=" ">
<path fill="none" stroke="orange" stroke-dasharray="5,2" d="M401.3,-22.16C435.76,-22.95 476.31,-24.83 512.75,-29 518.6,-29.67 524.64,-30.52 530.7,-31.47"/>
<polygon fill="orange" stroke="orange" points="401.45,-18.66 391.38,-21.96 401.31,-25.66 401.45,-18.66"/>
</a>
</g>
<text xml:space="preserve" text-anchor="start" x="410.75" y="-50.5" font-family="Helvetica,sans-Serif" font-size="10.00" fill="grey">&lt; std::index_sequence</text>
<text xml:space="preserve" text-anchor="start" x="410.75" y="-34.5" font-family="Helvetica,sans-Serif" font-size="10.00" fill="grey">  &lt; Indices... &gt;, Ts... &gt;</text>
</g>
</g>
</svg>

<g id="navigator" transform="translate(0 0)" fill="#404254">
  <rect fill="#f2f5e9" fill-opacity="0.5" stroke="#606060" stroke-width=".5" x="0" y="0" width="60" height="60"/>
  <use id="zoomplus" xlink:href="#zoomPlus" x="17" y="9" onmousedown="handleZoom(evt,'in')"/>
  <use id="zoomminus" xlink:href="#zoomMin" x="42" y="9" onmousedown="handleZoom(evt,'out')"/>
  <use id="reset" xlink:href="#resetDef" x="30" y="36" onmousedown="handleReset()"/>
   <use id="arrowup" xlink:href="#arrowUp" x="0" y="0" onmousedown="handlePan(0,-1)"/>
  <use id="arrowright" xlink:href="#arrowRight" x="0" y="0" onmousedown="handlePan(1,0)"/>
  <use id="arrowdown" xlink:href="#arrowDown" x="0" y="0" onmousedown="handlePan(0,1)"/>
  <use id="arrowleft" xlink:href="#arrowLeft" x="0" y="0" onmousedown="handlePan(-1,0)"/>
</g>
<svg viewBox="0 0 15 15" width="100%" height="30px" preserveAspectRatio="xMaxYMin meet">
 <g id="arrow_out" transform="scale(0.3 0.3)">
  <a xlink:href="structdepicture__menu_1_1repositories_1_1detail__repositories_1_1get__impl_3_01std_1_1index__seqea0bdb5c095f7bbc778df250bc98f3f5_org.svg" target="_base">
   <rect id="button" ry="5" rx="5" y="6" x="6" height="38" width="38"
        fill="#f2f5e9" fill-opacity="0.5" stroke="#606060" stroke-width="1.0"/>
   <path id="arrow"
     d="M 11.500037,31.436501 C 11.940474,20.09759 22.043105,11.32322 32.158766,21.979434 L 37.068811,17.246167 C 37.068811,17.246167 37.088388,32 37.088388,32 L 22.160133,31.978069 C 22.160133,31.978069 26.997745,27.140456 26.997745,27.140456 C 18.528582,18.264221 13.291696,25.230495 11.500037,31.436501 z"
     style="fill:#404040;"/>
  </a>
 </g>
</svg>

<style type='text/css'>
<![CDATA[
[data-mouse-over-selected='false'] { opacity: 0.7; }
[data-mouse-over-selected='true']  { opacity: 1.0; }
]]>
</style>
<script type="application/ecmascript"><![CDATA[
document.addEventListener('DOMContentLoaded', (event) => {
  highlightEdges();
  highlightAdjacentNodes();
});
]]></script>
</svg>
