<?xml version="1.0" encoding="UTF-8" standalone="no"?>
<!DOCTYPE svg PUBLIC "-//W3C//DTD SVG 1.1//EN"
 "http://www.w3.org/Graphics/SVG/1.1/DTD/svg11.dtd">
<!-- Generated by graphviz version 14.1.2 (20260124.0452)
 -->
<!-- Title: depicture_menu::hotkey_manager::hotkey_event_subscription::hotkey_event_subscription Pages: 1 -->
<svg width="321pt" height="188pt"
 viewBox="0.00 0.00 321.00 188.00" xmlns="http://www.w3.org/2000/svg" xmlns:xlink="http://www.w3.org/1999/xlink">
<g id="graph0" class="graph" transform="scale(1 1) rotate(0) translate(4 184)">
<title>depicture_menu::hotkey_manager::hotkey_event_subscription::hotkey_event_subscription</title>
<!-- Node1 -->
<g id="Node000001" class="node">
<title>Node1</title>
<g id="a_Node000001"><a xlink:title=" ">
<polygon fill="#999999" stroke="#666666" points="312.5,-112 174.25,-112 174.25,-56 312.5,-56 312.5,-112"/>
<text xml:space="preserve" text-anchor="start" x="182.25" y="-98.5" font-family="Helvetica,sans-Serif" font-size="10.00">depicture_menu::hotkey</text>
<text xml:space="preserve" text-anchor="start" x="182.25" y="-86.5" font-family="Helvetica,sans-Serif" font-size="10.00">_manager::hotkey_event</text>
<text xml:space="preserve" text-anchor="start" x="182.25" y="-74.5" font-family="Helvetica,sans-Serif" font-size="10.00">_subscription::hotkey_event</text>
<text xml:space="preserve" text-anchor="middle" x="243.38" y="-62.5" font-family="Helvetica,sans-Serif" font-size="10.00">_subscription</text>
</a>
</g>
</g>
<!-- Node1&#45;&gt;Node1 -->
<g id="edge1_Node000001_Node000001" class="edge">
<title>Node1&#45;&gt;Node1</title>
<g id="a_edge1_Node000001_Node000001"><a xlink:title=" ">
<path fill="none" stroke="#63b8ff" d="M271.3,-122.55C266.16,-127.06 256.86,-130 243.38,-130 221.25,-130 210.37,-122.09 210.71,-112.3"/>
<polygon fill="#63b8ff" stroke="#63b8ff" points="274.39,-124.22 275.4,-113.67 268.03,-121.28 274.39,-124.22"/>
</a>
</g>
</g>
<!-- Node2 -->
<g id="Node000002" class="node">
<title>Node2</title>
<g id="a_Node000002"><a xlink:href="structdepicture__menu_1_1hotkey__manager_1_1hotkey__event__subscription.html#a619200a0005fe1ab173665e1c2dc1113" target="_top" xlink:title=" ">
<polygon fill="white" stroke="#666666" points="138.25,-180 0,-180 0,-124 138.25,-124 138.25,-180"/>
<text xml:space="preserve" text-anchor="start" x="8" y="-166.5" font-family="Helvetica,sans-Serif" font-size="10.00">depicture_menu::hotkey</text>
<text xml:space="preserve" text-anchor="start" x="8" y="-154.5" font-family="Helvetica,sans-Serif" font-size="10.00">_manager::hotkey_event</text>
<text xml:space="preserve" text-anchor="start" x="8" y="-142.5" font-family="Helvetica,sans-Serif" font-size="10.00">_subscription::hotkey_event</text>
<text xml:space="preserve" text-anchor="middle" x="69.12" y="-130.5" font-family="Helvetica,sans-Serif" font-size="10.00">_subscription</text>
</a>
</g>
</g>
<!-- Node1&#45;&gt;Node2 -->
<g id="edge2_Node000001_Node000002" class="edge">
<title>Node1&#45;&gt;Node2</title>
<g id="a_edge2_Node000001_Node000002"><a xlink:title=" ">
<path fill="none" stroke="#63b8ff" d="M163.16,-115.27C155,-118.49 146.77,-121.74 138.74,-124.91"/>
<polygon fill="#63b8ff" stroke="#63b8ff" points="164.38,-118.55 172.39,-111.63 161.81,-112.04 164.38,-118.55"/>
</a>
</g>
</g>
<!-- Node3 -->
<g id="Node000003" class="node">
<title>Node3</title>
<g id="a_Node000003"><a xlink:href="structdepicture__menu_1_1hotkey__manager_1_1hotkey__event__subscription.html#a8c20ef8c09a3f0ab8f8e94d5b4702e25" target="_top" xlink:title=" ">
<polygon fill="white" stroke="#666666" points="130.75,-106 7.5,-106 7.5,-62 130.75,-62 130.75,-106"/>
<text xml:space="preserve" text-anchor="start" x="15.5" y="-92.5" font-family="Helvetica,sans-Serif" font-size="10.00">depicture_menu::hotkey</text>
<text xml:space="preserve" text-anchor="start" x="15.5" y="-80.5" font-family="Helvetica,sans-Serif" font-size="10.00">_manager::hotkey_event</text>
<text xml:space="preserve" text-anchor="middle" x="69.12" y="-68.5" font-family="Helvetica,sans-Serif" font-size="10.00">_subscription::operator=</text>
</a>
</g>
</g>
<!-- Node1&#45;&gt;Node3 -->
<g id="edge3_Node000001_Node000003" class="edge">
<title>Node1&#45;&gt;Node3</title>
<g id="a_edge3_Node000001_Node000003"><a xlink:title=" ">
<path fill="none" stroke="#63b8ff" d="M162.48,-84C151.97,-84 141.34,-84 131.22,-84"/>
<polygon fill="#63b8ff" stroke="#63b8ff" points="162.29,-87.5 172.29,-84 162.29,-80.5 162.29,-87.5"/>
</a>
</g>
</g>
<!-- Node4 -->
<g id="Node000004" class="node">
<title>Node4</title>
<g id="a_Node000004"><a xlink:href="structdepicture__menu_1_1hotkey__manager_1_1hotkey__event__subscription.html#a2ec698cb8a57d28191a3be5fb658ac20" target="_top" xlink:title=" ">
<polygon fill="white" stroke="#666666" points="130.75,-44 7.5,-44 7.5,0 130.75,0 130.75,-44"/>
<text xml:space="preserve" text-anchor="start" x="15.5" y="-30.5" font-family="Helvetica,sans-Serif" font-size="10.00">depicture_menu::hotkey</text>
<text xml:space="preserve" text-anchor="start" x="15.5" y="-18.5" font-family="Helvetica,sans-Serif" font-size="10.00">_manager::hotkey_event</text>
<text xml:space="preserve" text-anchor="middle" x="69.12" y="-6.5" font-family="Helvetica,sans-Serif" font-size="10.00">_subscription::operator=</text>
</a>
</g>
</g>
<!-- Node1&#45;&gt;Node4 -->
<g id="edge4_Node000001_Node000004" class="edge">
<title>Node1&#45;&gt;Node4</title>
<g id="a_edge4_Node000001_Node000004"><a xlink:title=" ">
<path fill="none" stroke="#63b8ff" d="M163.15,-55.48C152.43,-51.62 141.56,-47.71 131.22,-43.99"/>
<polygon fill="#63b8ff" stroke="#63b8ff" points="161.78,-58.71 172.38,-58.81 164.15,-52.13 161.78,-58.71"/>
</a>
</g>
</g>
</g>
</svg>
