<?xml version="1.0" encoding="UTF-8" standalone="no"?>
<!DOCTYPE svg PUBLIC "-//W3C//DTD SVG 1.1//EN"
 "http://www.w3.org/Graphics/SVG/1.1/DTD/svg11.dtd">
<!-- Generated by graphviz version 14.1.2 (20260124.0452)
 -->
<!-- Title: tt::field_accesser::get_value Pages: 1 -->
<svg width="599pt" height="120pt"
 viewBox="0.00 0.00 599.00 120.00" xmlns="http://www.w3.org/2000/svg" xmlns:xlink="http://www.w3.org/1999/xlink">
<g id="graph0" class="graph" transform="scale(1 1) rotate(0) translate(4 116)">
<title>tt::field_accesser::get_value</title>
<!-- Node1 -->
<g id="Node000001" class="node">
<title>Node1</title>
<g id="a_Node000001"><a xlink:title=" ">
<polygon fill="#999999" stroke="#666666" points="91,-54 0,-54 0,-22 91,-22 91,-54"/>
<text xml:space="preserve" text-anchor="start" x="8" y="-40.5" font-family="Helvetica,sans-Serif" font-size="10.00">tt::field_accesser</text>
<text xml:space="preserve" text-anchor="middle" x="45.5" y="-28.5" font-family="Helvetica,sans-Serif" font-size="10.00">::get_value</text>
</a>
</g>
</g>
<!-- Node2 -->
<g id="Node000002" class="node">
<title>Node2</title>
<g id="a_Node000002"><a xlink:href="namespacedepicture__menu_1_1reflection.html#aaf69402efde67d3327b0a5878e0bb46c" target="_top" xlink:title=" ">
<polygon fill="white" stroke="#666666" points="257.75,-54 127,-54 127,-22 257.75,-22 257.75,-54"/>
<text xml:space="preserve" text-anchor="start" x="135" y="-40.5" font-family="Helvetica,sans-Serif" font-size="10.00">depicture_menu::reflection</text>
<text xml:space="preserve" text-anchor="middle" x="192.38" y="-28.5" font-family="Helvetica,sans-Serif" font-size="10.00">::access_field</text>
</a>
</g>
</g>
<!-- Node1&#45;&gt;Node2 -->
<g id="edge1_Node000001_Node000002" class="edge">
<title>Node1&#45;&gt;Node2</title>
<g id="a_edge1_Node000001_Node000002"><a xlink:title=" ">
<path fill="none" stroke="#63b8ff" d="M91.15,-38C98.87,-38 107.08,-38 115.35,-38"/>
<polygon fill="#63b8ff" stroke="#63b8ff" points="115.12,-41.5 125.12,-38 115.12,-34.5 115.12,-41.5"/>
</a>
</g>
</g>
<!-- Node3 -->
<g id="Node000003" class="node">
<title>Node3</title>
<g id="a_Node000003"><a xlink:href="namespacedepicture__menu_1_1reflection.html#adb9faa46ece21b7d378d916f04923bbc" target="_top" xlink:title=" ">
<polygon fill="white" stroke="#666666" points="424.5,-76 293.75,-76 293.75,-44 424.5,-44 424.5,-76"/>
<text xml:space="preserve" text-anchor="start" x="301.75" y="-62.5" font-family="Helvetica,sans-Serif" font-size="10.00">depicture_menu::reflection</text>
<text xml:space="preserve" text-anchor="middle" x="359.12" y="-50.5" font-family="Helvetica,sans-Serif" font-size="10.00">::get_field_index</text>
</a>
</g>
</g>
<!-- Node2&#45;&gt;Node3 -->
<g id="edge2_Node000002_Node000003" class="edge">
<title>Node2&#45;&gt;Node3</title>
<g id="a_edge2_Node000002_Node000003"><a xlink:title=" ">
<path fill="none" stroke="#63b8ff" d="M258.02,-46.63C265.92,-47.69 274.05,-48.77 282.1,-49.85"/>
<polygon fill="#63b8ff" stroke="#63b8ff" points="281.52,-53.3 291.9,-51.16 282.45,-46.36 281.52,-53.3"/>
</a>
</g>
</g>
<!-- Node5 -->
<g id="Node000005" class="node">
<title>Node5</title>
<g id="a_Node000005"><a xlink:href="namespacedepicture__menu_1_1reflection.html#a0b2b3bbe6bc85746a0f887135f697715" target="_top" xlink:title=" ">
<polygon fill="white" stroke="#666666" points="591.25,-32 460.5,-32 460.5,0 591.25,0 591.25,-32"/>
<text xml:space="preserve" text-anchor="start" x="468.5" y="-18.5" font-family="Helvetica,sans-Serif" font-size="10.00">depicture_menu::reflection</text>
<text xml:space="preserve" text-anchor="middle" x="525.88" y="-6.5" font-family="Helvetica,sans-Serif" font-size="10.00">::has_field</text>
</a>
</g>
</g>
<!-- Node2&#45;&gt;Node5 -->
<g id="edge6_Node000002_Node000005" class="edge">
<title>Node2&#45;&gt;Node5</title>
<g id="a_edge6_Node000002_Node000005"><a xlink:title=" ">
<path fill="none" stroke="#63b8ff" d="M258.08,-33.71C312.75,-30.08 391.14,-24.88 448.81,-21.05"/>
<polygon fill="#63b8ff" stroke="#63b8ff" points="448.8,-24.56 458.54,-20.4 448.33,-17.57 448.8,-24.56"/>
</a>
</g>
</g>
<!-- Node4 -->
<g id="Node000004" class="node">
<title>Node4</title>
<g id="a_Node000004"><a xlink:href="namespacedepicture__menu_1_1reflection_1_1detail__reflection.html#acf183d0f4dd4183a2334fe27a68f9b1e" target="_top" xlink:title=" ">
<polygon fill="white" stroke="#666666" points="591.25,-94 460.5,-94 460.5,-50 591.25,-50 591.25,-94"/>
<text xml:space="preserve" text-anchor="start" x="468.5" y="-80.5" font-family="Helvetica,sans-Serif" font-size="10.00">depicture_menu::reflection</text>
<text xml:space="preserve" text-anchor="start" x="468.5" y="-68.5" font-family="Helvetica,sans-Serif" font-size="10.00">::detail_reflection::get</text>
<text xml:space="preserve" text-anchor="middle" x="525.88" y="-56.5" font-family="Helvetica,sans-Serif" font-size="10.00">_field_index</text>
</a>
</g>
</g>
<!-- Node3&#45;&gt;Node4 -->
<g id="edge3_Node000003_Node000004" class="edge">
<title>Node3&#45;&gt;Node4</title>
<g id="a_edge3_Node000003_Node000004"><a xlink:title=" ">
<path fill="none" stroke="#63b8ff" d="M424.77,-64.71C432.67,-65.28 440.8,-65.88 448.85,-66.46"/>
<polygon fill="#63b8ff" stroke="#63b8ff" points="448.41,-69.94 458.64,-67.18 448.92,-62.96 448.41,-69.94"/>
</a>
</g>
</g>
<!-- Node3&#45;&gt;Node5 -->
<g id="edge5_Node000003_Node000005" class="edge">
<title>Node3&#45;&gt;Node5</title>
<g id="a_edge5_Node000003_Node000005"><a xlink:title=" ">
<path fill="none" stroke="#63b8ff" d="M421.47,-43.62C431.48,-40.94 441.94,-38.15 452.19,-35.41"/>
<polygon fill="#63b8ff" stroke="#63b8ff" points="452.98,-38.82 461.74,-32.86 451.18,-32.06 452.98,-38.82"/>
</a>
</g>
</g>
<!-- Node4&#45;&gt;Node4 -->
<g id="edge4_Node000004_Node000004" class="edge">
<title>Node4&#45;&gt;Node4</title>
<g id="a_edge4_Node000004_Node000004"><a xlink:title=" ">
<path fill="none" stroke="#63b8ff" d="M494.98,-94.21C492.45,-103.8 502.75,-112 525.88,-112 539.24,-112 548.32,-109.26 553.12,-105.09"/>
<polygon fill="#63b8ff" stroke="#63b8ff" points="556.43,-106.24 556.29,-95.65 549.79,-104.02 556.43,-106.24"/>
</a>
</g>
</g>
</g>
</svg>
