<?xml version="1.0" encoding="UTF-8" standalone="no"?>
<!DOCTYPE svg PUBLIC "-//W3C//DTD SVG 1.1//EN"
 "http://www.w3.org/Graphics/SVG/1.1/DTD/svg11.dtd">
<!-- Generated by graphviz version 14.1.2 (20260124.0452)
 -->
<!-- Title: depicture_menu::presentations::view_models::operations::detail_operation_menu::menu_create_operator_impl Pages: 1 -->
<!--zoomable 194 -->

<svg id="main" version="1.1" xmlns="http://www.w3.org/2000/svg" xmlns:xlink="http://www.w3.org/1999/xlink" xml:space="preserve" onload="init(evt)">

<style type="text/css"><![CDATA[
.node, .edge {opacity: 0.7;}
.node.selected, .edge.selected {opacity: 1;}
.edge:hover path { stroke: red; }
.edge:hover polygon { stroke: red; fill: red; }
]]></style>

<defs>
  <circle id="rim" cx="0" cy="0" r="7"/>
  <circle id="rim2" cx="0" cy="0" r="3.5"/>
  <g id="zoomPlus">
    <use xlink:href="#rim" fill="#404040"><set attributeName="fill" to="#808080" begin="zoomplus.mouseover" end="zoomplus.mouseout"/></use>
    <path d="M-4,0h8M0,-4v8" fill="none" stroke="white" stroke-width="1.5" pointer-events="none"/>
  </g>
  <g id="zoomMin">
    <use xlink:href="#rim" fill="#404040"><set attributeName="fill" to="#808080" begin="zoomminus.mouseover" end="zoomminus.mouseout"/></use>
    <path d="M-4,0h8" fill="none" stroke="white" stroke-width="1.5" pointer-events="none"/>
  </g>
  <g id="arrowUp" transform="translate(30 24)">
    <use xlink:href="#rim"/>
    <path pointer-events="none" fill="none" stroke="white" stroke-width="1.5" d="M0,-3.0v7 M-2.5,-0.5L0,-3.0L2.5,-0.5"/>
  </g>
  <g id="arrowRight" transform="rotate(90) translate(36 -43)">
    <use xlink:href="#rim"/>
    <path pointer-events="none" fill="none" stroke="white" stroke-width="1.5" d="M0,-3.0v7 M-2.5,-0.5L0,-3.0L2.5,-0.5"/>
  </g>
  <g id="arrowDown" transform="rotate(180) translate(-30 -48)">
    <use xlink:href="#rim"/>
    <path pointer-events="none" fill="none" stroke="white" stroke-width="1.5" d="M0,-3.0v7 M-2.5,-0.5L0,-3.0L2.5,-0.5"/>
  </g>
  <g id="arrowLeft" transform="rotate(270) translate(-36 17)">
    <use xlink:href="#rim"/>
    <path pointer-events="none" fill="none" stroke="white" stroke-width="1.5" d="M0,-3.0v7 M-2.5,-0.5L0,-3.0L2.5,-0.5"/>
  </g>
  <g id="resetDef">
    <use xlink:href="#rim2" fill="#404040"><set attributeName="fill" to="#808080" begin="reset.mouseover" end="reset.mouseout"/></use>
  </g>
</defs>
<script type="application/ecmascript">
var viewWidth = 810;
var viewHeight = 194;
var sectionId = 'dynsection-1';
</script>
<script type="application/ecmascript" xlink:href="svg.min.js"/>
<svg id="graph" class="graph">
<g id="viewport">
<title>depicture_menu::presentations::view_models::operations::detail_operation_menu::menu_create_operator_impl</title>
<!-- Node1 -->
<g id="Node000001" class="node">
<title>Node1</title>
<g id="a_Node000001"><a xlink:title=" ">
<polygon fill="#999999" stroke="#666666" points="801.55,-130 652.05,-130 652.05,-74 801.55,-74 801.55,-130"/>
<text xml:space="preserve" text-anchor="start" x="660.05" y="-116.5" font-family="Helvetica,sans-Serif" font-size="10.00">depicture_menu::presentations</text>
<text xml:space="preserve" text-anchor="start" x="660.05" y="-104.5" font-family="Helvetica,sans-Serif" font-size="10.00">::view_models::operations</text>
<text xml:space="preserve" text-anchor="start" x="660.05" y="-92.5" font-family="Helvetica,sans-Serif" font-size="10.00">::detail_operation_menu::menu</text>
<text xml:space="preserve" text-anchor="middle" x="726.8" y="-80.5" font-family="Helvetica,sans-Serif" font-size="10.00">_create_operator_impl</text>
</a>
</g>
</g>
<!-- Node2 -->
<g id="Node000002" class="node">
<title>Node2</title>
<g id="a_Node000002"><a xlink:href="structdepicture__menu_1_1presentations_1_1view__models_1_1operations_1_1detail__operation__menu_1_1menu__operator__impl.html" target="_top" xlink:title=" ">
<polygon fill="white" stroke="#666666" points="615.05,-130 465.55,-130 465.55,-74 615.05,-74 615.05,-130"/>
<text xml:space="preserve" text-anchor="start" x="473.55" y="-116.5" font-family="Helvetica,sans-Serif" font-size="10.00">depicture_menu::presentations</text>
<text xml:space="preserve" text-anchor="start" x="473.55" y="-104.5" font-family="Helvetica,sans-Serif" font-size="10.00">::view_models::operations</text>
<text xml:space="preserve" text-anchor="start" x="473.55" y="-92.5" font-family="Helvetica,sans-Serif" font-size="10.00">::detail_operation_menu::menu</text>
<text xml:space="preserve" text-anchor="middle" x="540.3" y="-80.5" font-family="Helvetica,sans-Serif" font-size="10.00">_operator_impl</text>
</a>
</g>
</g>
<!-- Node2&#45;&gt;Node1 -->
<g id="edge1_Node000001_Node000002" class="edge">
<title>Node2&#45;&gt;Node1</title>
<g id="a_edge1_Node000001_Node000002"><a xlink:title=" ">
<path fill="none" stroke="#63b8ff" d="M626.81,-102C635.13,-102 643.52,-102 651.71,-102"/>
<polygon fill="#63b8ff" stroke="#63b8ff" points="627.06,-98.5 617.06,-102 627.06,-105.5 627.06,-98.5"/>
</a>
</g>
</g>
<!-- Node3 -->
<g id="Node000003" class="node">
<title>Node3</title>
<g id="a_Node000003"><a xlink:href="structdepicture__menu_1_1domain_1_1menu_1_1radialmenu.html" target="_top" xlink:title=" ">
<polygon fill="white" stroke="#666666" points="363.17,-180 240.67,-180 240.67,-148 363.17,-148 363.17,-180"/>
<text xml:space="preserve" text-anchor="start" x="248.67" y="-166.5" font-family="Helvetica,sans-Serif" font-size="10.00">depicture_menu::domain</text>
<text xml:space="preserve" text-anchor="middle" x="301.92" y="-154.5" font-family="Helvetica,sans-Serif" font-size="10.00">::menu::radialmenu</text>
</a>
</g>
</g>
<!-- Node3&#45;&gt;Node2 -->
<g id="edge2_Node000002_Node000003" class="edge">
<title>Node3&#45;&gt;Node2</title>
<g id="a_edge2_Node000002_Node000003"><a xlink:title=" ">
<path fill="none" stroke="#9a32cd" stroke-dasharray="5,2" d="M374.3,-145.28C403.1,-137.72 436.33,-129.01 465.39,-121.39"/>
<polygon fill="#9a32cd" stroke="#9a32cd" points="373.74,-141.81 364.95,-147.73 375.52,-148.58 373.74,-141.81"/>
</a>
</g>
<text xml:space="preserve" text-anchor="start" x="403.67" y="-145.88" font-family="Helvetica,sans-Serif" font-size="10.00" fill="grey">value_</text>
</g>
<!-- Node4 -->
<g id="Node000004" class="node">
<title>Node4</title>
<g id="a_Node000004"><a xlink:href="structdepicture__menu_1_1domain_1_1models_1_1base_1_1entity__base.html" target="_top" xlink:title=" ">
<polygon fill="white" stroke="#666666" points="196.55,-186 65.8,-186 65.8,-142 196.55,-142 196.55,-186"/>
<text xml:space="preserve" text-anchor="start" x="73.8" y="-172.5" font-family="Helvetica,sans-Serif" font-size="10.00">models::entity_base</text>
<text xml:space="preserve" text-anchor="start" x="73.8" y="-160.5" font-family="Helvetica,sans-Serif" font-size="10.00">&lt; detail_menu::radialmenu</text>
<text xml:space="preserve" text-anchor="middle" x="131.17" y="-148.5" font-family="Helvetica,sans-Serif" font-size="10.00">_data, menu_id &gt;</text>
</a>
</g>
</g>
<!-- Node4&#45;&gt;Node3 -->
<g id="edge3_Node000003_Node000004" class="edge">
<title>Node4&#45;&gt;Node3</title>
<g id="a_edge3_Node000003_Node000004"><a xlink:title=" ">
<path fill="none" stroke="#63b8ff" d="M208.4,-164C219.06,-164 229.9,-164 240.22,-164"/>
<polygon fill="#63b8ff" stroke="#63b8ff" points="208.45,-160.5 198.45,-164 208.45,-167.5 208.45,-160.5"/>
</a>
</g>
</g>
<!-- Node5 -->
<g id="Node000005" class="node">
<title>Node5</title>
<g id="a_Node000005"><a xlink:title=" ">
<polygon fill="white" stroke="#666666" points="28.8,-174 0,-174 0,-154 28.8,-154 28.8,-174"/>
<text xml:space="preserve" text-anchor="middle" x="14.4" y="-160.5" font-family="Helvetica,sans-Serif" font-size="10.00">V</text>
</a>
</g>
</g>
<!-- Node5&#45;&gt;Node4 -->
<g id="edge4_Node000004_Node000005" class="edge">
<title>Node5&#45;&gt;Node4</title>
<g id="a_edge4_Node000004_Node000005"><a xlink:title=" ">
<path fill="none" stroke="darkgreen" d="M40.47,-164C47.98,-164 56.58,-164 65.43,-164"/>
<polygon fill="darkgreen" stroke="darkgreen" points="40.53,-160.5 30.53,-164 40.53,-167.5 40.53,-160.5"/>
</a>
</g>
</g>
<!-- Node6 -->
<g id="Node000006" class="node">
<title>Node6</title>
<g id="a_Node000006"><a xlink:href="structdepicture__menu_1_1usecase_1_1query__base.html" target="_top" xlink:title=" ">
<polygon fill="white" stroke="#666666" points="365.8,-130 238.05,-130 238.05,-74 365.8,-74 365.8,-130"/>
<text xml:space="preserve" text-anchor="start" x="246.05" y="-116.5" font-family="Helvetica,sans-Serif" font-size="10.00">depicture_menu::usecase</text>
<text xml:space="preserve" text-anchor="start" x="246.05" y="-104.5" font-family="Helvetica,sans-Serif" font-size="10.00">::query_base&lt; depicture</text>
<text xml:space="preserve" text-anchor="start" x="246.05" y="-92.5" font-family="Helvetica,sans-Serif" font-size="10.00">_menu::domain::actions::</text>
<text xml:space="preserve" text-anchor="middle" x="301.92" y="-80.5" font-family="Helvetica,sans-Serif" font-size="10.00">v2::publisher &gt;</text>
</a>
</g>
</g>
<!-- Node6&#45;&gt;Node2 -->
<g id="edge5_Node000002_Node000006" class="edge">
<title>Node6&#45;&gt;Node2</title>
<g id="a_edge5_Node000002_Node000006"><a xlink:title=" ">
<path fill="none" stroke="#9a32cd" stroke-dasharray="5,2" d="M377.6,-102C405.59,-102 437.37,-102 465.3,-102"/>
<polygon fill="#9a32cd" stroke="#9a32cd" points="377.78,-98.5 367.78,-102 377.78,-105.5 377.78,-98.5"/>
</a>
</g>
<text xml:space="preserve" text-anchor="start" x="393.92" y="-107.5" font-family="Helvetica,sans-Serif" font-size="10.00" fill="grey">act_query_</text>
</g>
<!-- Node7 -->
<g id="Node000007" class="node">
<title>Node7</title>
<g id="a_Node000007"><a xlink:href="structdepicture__menu_1_1usecase_1_1query__base.html" target="_top" xlink:title=" ">
<polygon fill="white" stroke="#666666" points="370.3,-56 233.55,-56 233.55,0 370.3,0 370.3,-56"/>
<text xml:space="preserve" text-anchor="start" x="241.55" y="-42.5" font-family="Helvetica,sans-Serif" font-size="10.00">depicture_menu::usecase</text>
<text xml:space="preserve" text-anchor="start" x="241.55" y="-30.5" font-family="Helvetica,sans-Serif" font-size="10.00">::query_base&lt; depicture</text>
<text xml:space="preserve" text-anchor="start" x="241.55" y="-18.5" font-family="Helvetica,sans-Serif" font-size="10.00">_menu::domain::commands</text>
<text xml:space="preserve" text-anchor="middle" x="301.92" y="-6.5" font-family="Helvetica,sans-Serif" font-size="10.00">::command &gt;</text>
</a>
</g>
</g>
<!-- Node7&#45;&gt;Node2 -->
<g id="edge6_Node000002_Node000007" class="edge">
<title>Node7&#45;&gt;Node2</title>
<g id="a_edge6_Node000002_Node000007"><a xlink:title=" ">
<path fill="none" stroke="#9a32cd" stroke-dasharray="5,2" d="M381.63,-52.64C408.63,-61.09 438.73,-70.52 465.34,-78.85"/>
<polygon fill="#9a32cd" stroke="#9a32cd" points="382.69,-49.31 372.11,-49.66 380.6,-55.99 382.69,-49.31"/>
</a>
</g>
<text xml:space="preserve" text-anchor="start" x="391.3" y="-77.13" font-family="Helvetica,sans-Serif" font-size="10.00" fill="grey">com_query_</text>
</g>
</g>
</svg>

<g id="navigator" transform="translate(0 0)" fill="#404254">
  <rect fill="#f2f5e9" fill-opacity="0.5" stroke="#606060" stroke-width=".5" x="0" y="0" width="60" height="60"/>
  <use id="zoomplus" xlink:href="#zoomPlus" x="17" y="9" onmousedown="handleZoom(evt,'in')"/>
  <use id="zoomminus" xlink:href="#zoomMin" x="42" y="9" onmousedown="handleZoom(evt,'out')"/>
  <use id="reset" xlink:href="#resetDef" x="30" y="36" onmousedown="handleReset()"/>
   <use id="arrowup" xlink:href="#arrowUp" x="0" y="0" onmousedown="handlePan(0,-1)"/>
  <use id="arrowright" xlink:href="#arrowRight" x="0" y="0" onmousedown="handlePan(1,0)"/>
  <use id="arrowdown" xlink:href="#arrowDown" x="0" y="0" onmousedown="handlePan(0,1)"/>
  <use id="arrowleft" xlink:href="#arrowLeft" x="0" y="0" onmousedown="handlePan(-1,0)"/>
</g>
<svg viewBox="0 0 15 15" width="100%" height="30px" preserveAspectRatio="xMaxYMin meet">
 <g id="arrow_out" transform="scale(0.3 0.3)">
  <a xlink:href="structdepicture__menu_1_1presentations_1_1view__models_1_1operations_1_1detail__operation__menu_b9e9f00f2b058550815a2cbe36918711_org.svg" target="_base">
   <rect id="button" ry="5" rx="5" y="6" x="6" height="38" width="38"
        fill="#f2f5e9" fill-opacity="0.5" stroke="#606060" stroke-width="1.0"/>
   <path id="arrow"
     d="M 11.500037,31.436501 C 11.940474,20.09759 22.043105,11.32322 32.158766,21.979434 L 37.068811,17.246167 C 37.068811,17.246167 37.088388,32 37.088388,32 L 22.160133,31.978069 C 22.160133,31.978069 26.997745,27.140456 26.997745,27.140456 C 18.528582,18.264221 13.291696,25.230495 11.500037,31.436501 z"
     style="fill:#404040;"/>
  </a>
 </g>
</svg>

<style type='text/css'>
<![CDATA[
[data-mouse-over-selected='false'] { opacity: 0.7; }
[data-mouse-over-selected='true']  { opacity: 1.0; }
]]>
</style>
<script type="application/ecmascript"><![CDATA[
document.addEventListener('DOMContentLoaded', (event) => {
  highlightEdges();
  highlightAdjacentNodes();
});
]]></script>
</svg>
