<?xml version="1.0" encoding="UTF-8" standalone="no"?>
<!DOCTYPE svg PUBLIC "-//W3C//DTD SVG 1.1//EN"
 "http://www.w3.org/Graphics/SVG/1.1/DTD/svg11.dtd">
<!-- Generated by graphviz version 14.1.2 (20260124.0452)
 -->
<!-- Title: depicture_menu::usecase::menu_item_sync Pages: 1 -->
<!--zoomable 448 -->

<svg id="main" version="1.1" xmlns="http://www.w3.org/2000/svg" xmlns:xlink="http://www.w3.org/1999/xlink" xml:space="preserve" onload="init(evt)">

<style type="text/css"><![CDATA[
.node, .edge {opacity: 0.7;}
.node.selected, .edge.selected {opacity: 1;}
.edge:hover path { stroke: red; }
.edge:hover polygon { stroke: red; fill: red; }
]]></style>

<defs>
  <circle id="rim" cx="0" cy="0" r="7"/>
  <circle id="rim2" cx="0" cy="0" r="3.5"/>
  <g id="zoomPlus">
    <use xlink:href="#rim" fill="#404040"><set attributeName="fill" to="#808080" begin="zoomplus.mouseover" end="zoomplus.mouseout"/></use>
    <path d="M-4,0h8M0,-4v8" fill="none" stroke="white" stroke-width="1.5" pointer-events="none"/>
  </g>
  <g id="zoomMin">
    <use xlink:href="#rim" fill="#404040"><set attributeName="fill" to="#808080" begin="zoomminus.mouseover" end="zoomminus.mouseout"/></use>
    <path d="M-4,0h8" fill="none" stroke="white" stroke-width="1.5" pointer-events="none"/>
  </g>
  <g id="arrowUp" transform="translate(30 24)">
    <use xlink:href="#rim"/>
    <path pointer-events="none" fill="none" stroke="white" stroke-width="1.5" d="M0,-3.0v7 M-2.5,-0.5L0,-3.0L2.5,-0.5"/>
  </g>
  <g id="arrowRight" transform="rotate(90) translate(36 -43)">
    <use xlink:href="#rim"/>
    <path pointer-events="none" fill="none" stroke="white" stroke-width="1.5" d="M0,-3.0v7 M-2.5,-0.5L0,-3.0L2.5,-0.5"/>
  </g>
  <g id="arrowDown" transform="rotate(180) translate(-30 -48)">
    <use xlink:href="#rim"/>
    <path pointer-events="none" fill="none" stroke="white" stroke-width="1.5" d="M0,-3.0v7 M-2.5,-0.5L0,-3.0L2.5,-0.5"/>
  </g>
  <g id="arrowLeft" transform="rotate(270) translate(-36 17)">
    <use xlink:href="#rim"/>
    <path pointer-events="none" fill="none" stroke="white" stroke-width="1.5" d="M0,-3.0v7 M-2.5,-0.5L0,-3.0L2.5,-0.5"/>
  </g>
  <g id="resetDef">
    <use xlink:href="#rim2" fill="#404040"><set attributeName="fill" to="#808080" begin="reset.mouseover" end="reset.mouseout"/></use>
  </g>
</defs>
<script type="application/ecmascript">
var viewWidth = 552;
var viewHeight = 448;
var sectionId = 'dynsection-0';
</script>
<script type="application/ecmascript" xlink:href="svg.min.js"/>
<svg id="graph" class="graph">
<g id="viewport">
<title>depicture_menu::usecase::menu_item_sync</title>
<!-- Node1 -->
<g id="Node000001" class="node">
<title>Node1</title>
<g id="a_Node000001"><a xlink:title=" ">
<polygon fill="#999999" stroke="#666666" points="544,-218 416.25,-218 416.25,-186 544,-186 544,-218"/>
<text xml:space="preserve" text-anchor="start" x="424.25" y="-204.5" font-family="Helvetica,sans-Serif" font-size="10.00">depicture_menu::usecase</text>
<text xml:space="preserve" text-anchor="middle" x="480.12" y="-192.5" font-family="Helvetica,sans-Serif" font-size="10.00">::menu_item_sync</text>
</a>
</g>
</g>
<!-- Node2 -->
<g id="Node000002" class="node">
<title>Node2</title>
<g id="a_Node000002"><a xlink:href="structdepicture__menu_1_1domain_1_1models_1_1entity__id__base.html" target="_top" xlink:title=" ">
<polygon fill="white" stroke="#666666" points="301.5,-440 159.5,-440 159.5,-396 301.5,-396 301.5,-440"/>
<text xml:space="preserve" text-anchor="start" x="167.5" y="-426.5" font-family="Helvetica,sans-Serif" font-size="10.00">depicture_menu::domain</text>
<text xml:space="preserve" text-anchor="start" x="167.5" y="-414.5" font-family="Helvetica,sans-Serif" font-size="10.00">::models::entity_id_base</text>
<text xml:space="preserve" text-anchor="middle" x="230.5" y="-402.5" font-family="Helvetica,sans-Serif" font-size="10.00">&lt; detail_app::config_id_tag &gt;</text>
</a>
</g>
</g>
<!-- Node2&#45;&gt;Node1 -->
<g id="edge1_Node000001_Node000002" class="edge">
<title>Node2&#45;&gt;Node1</title>
<g id="a_edge1_Node000001_Node000002"><a xlink:title=" ">
<path fill="none" stroke="#9a32cd" stroke-dasharray="5,2" d="M306.34,-391.07C337.41,-377.21 372.2,-357.93 398.25,-333 434.17,-298.63 460.59,-245.05 472.35,-218.32"/>
<polygon fill="#9a32cd" stroke="#9a32cd" points="305.14,-387.77 297.36,-394.96 307.93,-394.2 305.14,-387.77"/>
</a>
</g>
<text xml:space="preserve" text-anchor="start" x="343.12" y="-389.06" font-family="Helvetica,sans-Serif" font-size="10.00" fill="grey">cfg_id_</text>
</g>
<!-- Node3 -->
<g id="Node000003" class="node">
<title>Node3</title>
<g id="a_Node000003"><a xlink:href="classdepicture__menu_1_1domain_1_1crud__repository__interface.html" target="_top" xlink:title=" ">
<polygon fill="white" stroke="#666666" points="299.25,-378 161.75,-378 161.75,-322 299.25,-322 299.25,-378"/>
<text xml:space="preserve" text-anchor="start" x="169.75" y="-364.5" font-family="Helvetica,sans-Serif" font-size="10.00">depicture_menu::domain</text>
<text xml:space="preserve" text-anchor="start" x="169.75" y="-352.5" font-family="Helvetica,sans-Serif" font-size="10.00">::crud_repository_interface</text>
<text xml:space="preserve" text-anchor="start" x="169.75" y="-340.5" font-family="Helvetica,sans-Serif" font-size="10.00">&lt; depicture_menu::domain::</text>
<text xml:space="preserve" text-anchor="middle" x="230.5" y="-328.5" font-family="Helvetica,sans-Serif" font-size="10.00">app::config &gt;</text>
</a>
</g>
</g>
<!-- Node3&#45;&gt;Node1 -->
<g id="edge2_Node000001_Node000003" class="edge">
<title>Node3&#45;&gt;Node1</title>
<g id="a_edge2_Node000001_Node000003"><a xlink:title=" ">
<path fill="none" stroke="#9a32cd" stroke-dasharray="5,2" d="M310.08,-317.25C338.69,-304.06 370.74,-287.76 398.25,-270 421.98,-254.68 446.43,-233.18 462.14,-218.49"/>
<polygon fill="#9a32cd" stroke="#9a32cd" points="308.74,-314.02 301.08,-321.34 311.64,-320.39 308.74,-314.02"/>
</a>
</g>
<text xml:space="preserve" text-anchor="start" x="340.12" y="-316.76" font-family="Helvetica,sans-Serif" font-size="10.00" fill="grey">cfg_rep_</text>
</g>
<!-- Node4 -->
<g id="Node000004" class="node">
<title>Node4</title>
<g id="a_Node000004"><a xlink:href="classdepicture__menu_1_1domain_1_1query__interface.html" target="_top" xlink:title=" ">
<polygon fill="white" stroke="#666666" points="122.5,-254 0,-254 0,-222 122.5,-222 122.5,-254"/>
<text xml:space="preserve" text-anchor="start" x="8" y="-240.5" font-family="Helvetica,sans-Serif" font-size="10.00">depicture_menu::domain</text>
<text xml:space="preserve" text-anchor="middle" x="61.25" y="-228.5" font-family="Helvetica,sans-Serif" font-size="10.00">::query_interface&lt; T &gt;</text>
</a>
</g>
</g>
<!-- Node4&#45;&gt;Node3 -->
<g id="edge3_Node000003_Node000004" class="edge">
<title>Node4&#45;&gt;Node3</title>
<g id="a_edge3_Node000003_Node000004"><a xlink:title=" ">
<path fill="none" stroke="#63b8ff" d="M89.98,-261.43C108.95,-276.94 135,-297.24 159.5,-313 164.01,-315.9 168.77,-318.78 173.6,-321.57"/>
<polygon fill="#63b8ff" stroke="#63b8ff" points="92.38,-258.88 82.44,-255.21 87.93,-264.27 92.38,-258.88"/>
</a>
</g>
</g>
<!-- Node5 -->
<g id="Node000005" class="node">
<title>Node5</title>
<g id="a_Node000005"><a xlink:href="classdepicture__menu_1_1domain_1_1crud__repository__interface.html" target="_top" xlink:title=" ">
<polygon fill="white" stroke="#666666" points="299.25,-304 161.75,-304 161.75,-248 299.25,-248 299.25,-304"/>
<text xml:space="preserve" text-anchor="start" x="169.75" y="-290.5" font-family="Helvetica,sans-Serif" font-size="10.00">depicture_menu::domain</text>
<text xml:space="preserve" text-anchor="start" x="169.75" y="-278.5" font-family="Helvetica,sans-Serif" font-size="10.00">::crud_repository_interface</text>
<text xml:space="preserve" text-anchor="start" x="169.75" y="-266.5" font-family="Helvetica,sans-Serif" font-size="10.00">&lt; depicture_menu::domain::</text>
<text xml:space="preserve" text-anchor="middle" x="230.5" y="-254.5" font-family="Helvetica,sans-Serif" font-size="10.00">actions::v2::publisher &gt;</text>
</a>
</g>
</g>
<!-- Node4&#45;&gt;Node5 -->
<g id="edge5_Node000005_Node000004" class="edge">
<title>Node4&#45;&gt;Node5</title>
<g id="a_edge5_Node000005_Node000004"><a xlink:title=" ">
<path fill="none" stroke="#63b8ff" d="M133.66,-254.23C142.81,-256.3 152.16,-258.43 161.26,-260.5"/>
<polygon fill="#63b8ff" stroke="#63b8ff" points="134.63,-250.86 124.11,-252.05 133.08,-257.68 134.63,-250.86"/>
</a>
</g>
</g>
<!-- Node6 -->
<g id="Node000006" class="node">
<title>Node6</title>
<g id="a_Node000006"><a xlink:href="classdepicture__menu_1_1domain_1_1crud__repository__interface.html" target="_top" xlink:title=" ">
<polygon fill="white" stroke="#666666" points="299.25,-230 161.75,-230 161.75,-174 299.25,-174 299.25,-230"/>
<text xml:space="preserve" text-anchor="start" x="169.75" y="-216.5" font-family="Helvetica,sans-Serif" font-size="10.00">depicture_menu::domain</text>
<text xml:space="preserve" text-anchor="start" x="169.75" y="-204.5" font-family="Helvetica,sans-Serif" font-size="10.00">::crud_repository_interface</text>
<text xml:space="preserve" text-anchor="start" x="169.75" y="-192.5" font-family="Helvetica,sans-Serif" font-size="10.00">&lt; depicture_menu::domain::</text>
<text xml:space="preserve" text-anchor="middle" x="230.5" y="-180.5" font-family="Helvetica,sans-Serif" font-size="10.00">commands::command &gt;</text>
</a>
</g>
</g>
<!-- Node4&#45;&gt;Node6 -->
<g id="edge7_Node000006_Node000004" class="edge">
<title>Node4&#45;&gt;Node6</title>
<g id="a_edge7_Node000006_Node000004"><a xlink:title=" ">
<path fill="none" stroke="#63b8ff" d="M133.66,-222.63C142.81,-220.66 152.16,-218.65 161.26,-216.69"/>
<polygon fill="#63b8ff" stroke="#63b8ff" points="133.15,-219.16 124.11,-224.68 134.62,-226 133.15,-219.16"/>
</a>
</g>
</g>
<!-- Node7 -->
<g id="Node000007" class="node">
<title>Node7</title>
<g id="a_Node000007"><a xlink:href="classdepicture__menu_1_1domain_1_1crud__repository__interface.html" target="_top" xlink:title=" ">
<polygon fill="white" stroke="#666666" points="299.25,-156 161.75,-156 161.75,-100 299.25,-100 299.25,-156"/>
<text xml:space="preserve" text-anchor="start" x="169.75" y="-142.5" font-family="Helvetica,sans-Serif" font-size="10.00">depicture_menu::domain</text>
<text xml:space="preserve" text-anchor="start" x="169.75" y="-130.5" font-family="Helvetica,sans-Serif" font-size="10.00">::crud_repository_interface</text>
<text xml:space="preserve" text-anchor="start" x="169.75" y="-118.5" font-family="Helvetica,sans-Serif" font-size="10.00">&lt; depicture_menu::domain::</text>
<text xml:space="preserve" text-anchor="middle" x="230.5" y="-106.5" font-family="Helvetica,sans-Serif" font-size="10.00">commands::invoker &gt;</text>
</a>
</g>
</g>
<!-- Node4&#45;&gt;Node7 -->
<g id="edge9_Node000007_Node000004" class="edge">
<title>Node4&#45;&gt;Node7</title>
<g id="a_edge9_Node000007_Node000004"><a xlink:title=" ">
<path fill="none" stroke="#63b8ff" d="M91.05,-214.49C109.97,-199.53 135.55,-180.18 159.5,-165 164.03,-162.13 168.8,-159.27 173.64,-156.5"/>
<polygon fill="#63b8ff" stroke="#63b8ff" points="88.89,-211.74 83.26,-220.71 93.26,-217.21 88.89,-211.74"/>
</a>
</g>
</g>
<!-- Node5&#45;&gt;Node1 -->
<g id="edge4_Node000001_Node000005" class="edge">
<title>Node5&#45;&gt;Node1</title>
<g id="a_edge4_Node000001_Node000005"><a xlink:title=" ">
<path fill="none" stroke="#9a32cd" stroke-dasharray="5,2" d="M310.28,-252.46C347.38,-241.37 390.71,-228.42 424.2,-218.41"/>
<polygon fill="#9a32cd" stroke="#9a32cd" points="309.52,-249.03 300.94,-255.25 311.53,-255.74 309.52,-249.03"/>
</a>
</g>
<text xml:space="preserve" text-anchor="start" x="340.12" y="-253.3" font-family="Helvetica,sans-Serif" font-size="10.00" fill="grey">act_rep_</text>
</g>
<!-- Node6&#45;&gt;Node1 -->
<g id="edge6_Node000001_Node000006" class="edge">
<title>Node6&#45;&gt;Node1</title>
<g id="a_edge6_Node000001_Node000006"><a xlink:title=" ">
<path fill="none" stroke="#9a32cd" stroke-dasharray="5,2" d="M310.81,-202C344.81,-202 383.97,-202 415.96,-202"/>
<polygon fill="#9a32cd" stroke="#9a32cd" points="311.01,-198.5 301.01,-202 311.01,-205.5 311.01,-198.5"/>
</a>
</g>
<text xml:space="preserve" text-anchor="start" x="337.5" y="-207.5" font-family="Helvetica,sans-Serif" font-size="10.00" fill="grey">com_rep_</text>
</g>
<!-- Node7&#45;&gt;Node1 -->
<g id="edge8_Node000001_Node000007" class="edge">
<title>Node7&#45;&gt;Node1</title>
<g id="a_edge8_Node000001_Node000007"><a xlink:title=" ">
<path fill="none" stroke="#9a32cd" stroke-dasharray="5,2" d="M310.28,-151.54C347.38,-162.63 390.71,-175.58 424.2,-185.59"/>
<polygon fill="#9a32cd" stroke="#9a32cd" points="311.53,-148.26 300.94,-148.75 309.52,-154.97 311.53,-148.26"/>
</a>
</g>
<text xml:space="preserve" text-anchor="start" x="340.5" y="-181.45" font-family="Helvetica,sans-Serif" font-size="10.00" fill="grey">inv_rep_</text>
</g>
<!-- Node8 -->
<g id="Node000008" class="node">
<title>Node8</title>
<g id="a_Node000008"><a xlink:href="structdepicture__menu_1_1domain_1_1models_1_1entity__id__base.html" target="_top" xlink:title=" ">
<polygon fill="white" stroke="#666666" points="298.5,-82 162.5,-82 162.5,-38 298.5,-38 298.5,-82"/>
<text xml:space="preserve" text-anchor="start" x="170.5" y="-68.5" font-family="Helvetica,sans-Serif" font-size="10.00">depicture_menu::domain</text>
<text xml:space="preserve" text-anchor="start" x="170.5" y="-56.5" font-family="Helvetica,sans-Serif" font-size="10.00">::models::entity_id_base</text>
<text xml:space="preserve" text-anchor="middle" x="230.5" y="-44.5" font-family="Helvetica,sans-Serif" font-size="10.00">&lt; action_publisher_id_tag &gt;</text>
</a>
</g>
</g>
<!-- Node8&#45;&gt;Node1 -->
<g id="edge10_Node000001_Node000008" class="edge">
<title>Node8&#45;&gt;Node1</title>
<g id="a_edge10_Node000001_Node000008"><a xlink:title=" ">
<path fill="none" stroke="#9a32cd" stroke-dasharray="5,2" d="M292.44,-86.98C295.51,-88.34 298.54,-89.69 301.5,-91 344.51,-110.08 358.35,-109.06 398.25,-134 422.36,-149.07 446.92,-170.82 462.55,-185.64"/>
<polygon fill="#9a32cd" stroke="#9a32cd" points="293.92,-83.81 283.36,-82.96 291.08,-90.21 293.92,-83.81"/>
</a>
</g>
<text xml:space="preserve" text-anchor="start" x="322.5" y="-139.5" font-family="Helvetica,sans-Serif" font-size="10.00" fill="grey">close_action_id_</text>
</g>
<!-- Node9 -->
<g id="Node000009" class="node">
<title>Node9</title>
<g id="a_Node000009"><a xlink:href="structupdate__result.html" target="_top" xlink:title=" ">
<polygon fill="white" stroke="#666666" points="267.75,-20 193.25,-20 193.25,0 267.75,0 267.75,-20"/>
<text xml:space="preserve" text-anchor="middle" x="230.5" y="-6.5" font-family="Helvetica,sans-Serif" font-size="10.00">update_result</text>
</a>
</g>
</g>
<!-- Node9&#45;&gt;Node1 -->
<g id="edge11_Node000001_Node000009" class="edge">
<title>Node9&#45;&gt;Node1</title>
<g id="a_edge11_Node000001_Node000009"><a xlink:title=" ">
<path fill="none" stroke="#9a32cd" stroke-dasharray="5,2" d="M278.99,-19.79C315.18,-29.28 364.39,-46.79 398.25,-77 433.93,-108.84 460.28,-159.94 472.15,-185.83"/>
<polygon fill="#9a32cd" stroke="#9a32cd" points="280.22,-16.49 269.67,-17.46 278.53,-23.28 280.22,-16.49"/>
</a>
</g>
<text xml:space="preserve" text-anchor="start" x="344.25" y="-82.5" font-family="Helvetica,sans-Serif" font-size="10.00" fill="grey">result_</text>
</g>
</g>
</svg>

<g id="navigator" transform="translate(0 0)" fill="#404254">
  <rect fill="#f2f5e9" fill-opacity="0.5" stroke="#606060" stroke-width=".5" x="0" y="0" width="60" height="60"/>
  <use id="zoomplus" xlink:href="#zoomPlus" x="17" y="9" onmousedown="handleZoom(evt,'in')"/>
  <use id="zoomminus" xlink:href="#zoomMin" x="42" y="9" onmousedown="handleZoom(evt,'out')"/>
  <use id="reset" xlink:href="#resetDef" x="30" y="36" onmousedown="handleReset()"/>
   <use id="arrowup" xlink:href="#arrowUp" x="0" y="0" onmousedown="handlePan(0,-1)"/>
  <use id="arrowright" xlink:href="#arrowRight" x="0" y="0" onmousedown="handlePan(1,0)"/>
  <use id="arrowdown" xlink:href="#arrowDown" x="0" y="0" onmousedown="handlePan(0,1)"/>
  <use id="arrowleft" xlink:href="#arrowLeft" x="0" y="0" onmousedown="handlePan(-1,0)"/>
</g>
<svg viewBox="0 0 15 15" width="100%" height="30px" preserveAspectRatio="xMaxYMin meet">
 <g id="arrow_out" transform="scale(0.3 0.3)">
  <a xlink:href="structdepicture__menu_1_1usecase_1_1menu__item__sync__coll__graph_org.svg" target="_base">
   <rect id="button" ry="5" rx="5" y="6" x="6" height="38" width="38"
        fill="#f2f5e9" fill-opacity="0.5" stroke="#606060" stroke-width="1.0"/>
   <path id="arrow"
     d="M 11.500037,31.436501 C 11.940474,20.09759 22.043105,11.32322 32.158766,21.979434 L 37.068811,17.246167 C 37.068811,17.246167 37.088388,32 37.088388,32 L 22.160133,31.978069 C 22.160133,31.978069 26.997745,27.140456 26.997745,27.140456 C 18.528582,18.264221 13.291696,25.230495 11.500037,31.436501 z"
     style="fill:#404040;"/>
  </a>
 </g>
</svg>

<style type='text/css'>
<![CDATA[
[data-mouse-over-selected='false'] { opacity: 0.7; }
[data-mouse-over-selected='true']  { opacity: 1.0; }
]]>
</style>
<script type="application/ecmascript"><![CDATA[
document.addEventListener('DOMContentLoaded', (event) => {
  highlightEdges();
  highlightAdjacentNodes();
});
]]></script>
</svg>
