<?xml version="1.0" encoding="UTF-8" standalone="no"?>
<!DOCTYPE svg PUBLIC "-//W3C//DTD SVG 1.1//EN"
 "http://www.w3.org/Graphics/SVG/1.1/DTD/svg11.dtd">
<!-- Generated by graphviz version 14.1.2 (20260124.0452)
 -->
<!-- Title: depicture_menu::domain::menu::radialmenu_item::com_kind_to_index Pages: 1 -->
<!--zoomable 414 -->

<svg id="main" version="1.1" xmlns="http://www.w3.org/2000/svg" xmlns:xlink="http://www.w3.org/1999/xlink" xml:space="preserve" onload="init(evt)">

<style type="text/css"><![CDATA[
.node, .edge {opacity: 0.7;}
.node.selected, .edge.selected {opacity: 1;}
.edge:hover path { stroke: red; }
.edge:hover polygon { stroke: red; fill: red; }
]]></style>

<defs>
  <circle id="rim" cx="0" cy="0" r="7"/>
  <circle id="rim2" cx="0" cy="0" r="3.5"/>
  <g id="zoomPlus">
    <use xlink:href="#rim" fill="#404040"><set attributeName="fill" to="#808080" begin="zoomplus.mouseover" end="zoomplus.mouseout"/></use>
    <path d="M-4,0h8M0,-4v8" fill="none" stroke="white" stroke-width="1.5" pointer-events="none"/>
  </g>
  <g id="zoomMin">
    <use xlink:href="#rim" fill="#404040"><set attributeName="fill" to="#808080" begin="zoomminus.mouseover" end="zoomminus.mouseout"/></use>
    <path d="M-4,0h8" fill="none" stroke="white" stroke-width="1.5" pointer-events="none"/>
  </g>
  <g id="arrowUp" transform="translate(30 24)">
    <use xlink:href="#rim"/>
    <path pointer-events="none" fill="none" stroke="white" stroke-width="1.5" d="M0,-3.0v7 M-2.5,-0.5L0,-3.0L2.5,-0.5"/>
  </g>
  <g id="arrowRight" transform="rotate(90) translate(36 -43)">
    <use xlink:href="#rim"/>
    <path pointer-events="none" fill="none" stroke="white" stroke-width="1.5" d="M0,-3.0v7 M-2.5,-0.5L0,-3.0L2.5,-0.5"/>
  </g>
  <g id="arrowDown" transform="rotate(180) translate(-30 -48)">
    <use xlink:href="#rim"/>
    <path pointer-events="none" fill="none" stroke="white" stroke-width="1.5" d="M0,-3.0v7 M-2.5,-0.5L0,-3.0L2.5,-0.5"/>
  </g>
  <g id="arrowLeft" transform="rotate(270) translate(-36 17)">
    <use xlink:href="#rim"/>
    <path pointer-events="none" fill="none" stroke="white" stroke-width="1.5" d="M0,-3.0v7 M-2.5,-0.5L0,-3.0L2.5,-0.5"/>
  </g>
  <g id="resetDef">
    <use xlink:href="#rim2" fill="#404040"><set attributeName="fill" to="#808080" begin="reset.mouseover" end="reset.mouseout"/></use>
  </g>
</defs>
<script type="application/ecmascript">
var viewWidth = 1468;
var viewHeight = 414;
var sectionId = 'dynsection-5';
</script>
<script type="application/ecmascript" xlink:href="svg.min.js"/>
<svg id="graph" class="graph">
<g id="viewport">
<title>depicture_menu::domain::menu::radialmenu_item::com_kind_to_index</title>
<!-- Node1 -->
<g id="Node000001" class="node">
<title>Node1</title>
<g id="a_Node000001"><a xlink:title=" ">
<polygon fill="#999999" stroke="#666666" points="1460,-231 1336.75,-231 1336.75,-187 1460,-187 1460,-231"/>
<text xml:space="preserve" text-anchor="start" x="1344.75" y="-217.5" font-family="Helvetica,sans-Serif" font-size="10.00">depicture_menu::domain</text>
<text xml:space="preserve" text-anchor="start" x="1344.75" y="-205.5" font-family="Helvetica,sans-Serif" font-size="10.00">::menu::radialmenu_item</text>
<text xml:space="preserve" text-anchor="middle" x="1398.38" y="-193.5" font-family="Helvetica,sans-Serif" font-size="10.00">::com_kind_to_index</text>
</a>
</g>
</g>
<!-- Node2 -->
<g id="Node000002" class="node">
<title>Node2</title>
<g id="a_Node000002"><a xlink:href="structdepicture__menu_1_1domain_1_1menu_1_1radialmenu__item.html#abaa0796bacff30852dbdf9eee08d38b2" target="_top" xlink:title=" ">
<polygon fill="white" stroke="#666666" points="1300.75,-293 1177.5,-293 1177.5,-249 1300.75,-249 1300.75,-293"/>
<text xml:space="preserve" text-anchor="start" x="1185.5" y="-279.5" font-family="Helvetica,sans-Serif" font-size="10.00">depicture_menu::domain</text>
<text xml:space="preserve" text-anchor="start" x="1185.5" y="-267.5" font-family="Helvetica,sans-Serif" font-size="10.00">::menu::radialmenu_item</text>
<text xml:space="preserve" text-anchor="middle" x="1239.12" y="-255.5" font-family="Helvetica,sans-Serif" font-size="10.00">::current_index</text>
</a>
</g>
</g>
<!-- Node1&#45;&gt;Node2 -->
<g id="edge1_Node000001_Node000002" class="edge">
<title>Node1&#45;&gt;Node2</title>
<g id="a_edge1_Node000001_Node000002"><a xlink:title=" ">
<path fill="none" stroke="#63b8ff" d="M1330.16,-235.5C1319.14,-239.85 1307.82,-244.31 1297.08,-248.55"/>
<polygon fill="#63b8ff" stroke="#63b8ff" points="1331.18,-238.86 1339.2,-231.94 1328.61,-232.35 1331.18,-238.86"/>
</a>
</g>
</g>
<!-- Node15 -->
<g id="Node000015" class="node">
<title>Node15</title>
<g id="a_Node000015"><a xlink:href="structdepicture__menu_1_1domain_1_1menu_1_1radialmenu__item.html#a181422df8a043da811ce10d6d72f9d13" target="_top" xlink:title=" ">
<polygon fill="white" stroke="#666666" points="1300.75,-169 1177.5,-169 1177.5,-125 1300.75,-125 1300.75,-169"/>
<text xml:space="preserve" text-anchor="start" x="1185.5" y="-155.5" font-family="Helvetica,sans-Serif" font-size="10.00">depicture_menu::domain</text>
<text xml:space="preserve" text-anchor="start" x="1185.5" y="-143.5" font-family="Helvetica,sans-Serif" font-size="10.00">::menu::radialmenu_item</text>
<text xml:space="preserve" text-anchor="middle" x="1239.12" y="-131.5" font-family="Helvetica,sans-Serif" font-size="10.00">::get_action_id</text>
</a>
</g>
</g>
<!-- Node1&#45;&gt;Node15 -->
<g id="edge14_Node000001_Node000015" class="edge">
<title>Node1&#45;&gt;Node15</title>
<g id="a_edge14_Node000001_Node000015"><a xlink:title=" ">
<path fill="none" stroke="#63b8ff" d="M1330.16,-182.5C1319.14,-178.15 1307.82,-173.69 1297.08,-169.45"/>
<polygon fill="#63b8ff" stroke="#63b8ff" points="1328.61,-185.65 1339.2,-186.06 1331.18,-179.14 1328.61,-185.65"/>
</a>
</g>
</g>
<!-- Node23 -->
<g id="Node000023" class="node">
<title>Node23</title>
<g id="a_Node000023"><a xlink:href="structdepicture__menu_1_1domain_1_1menu_1_1radialmenu__item.html#a8c4c4fb516ddc27ca04ae1f8babe76f3" target="_top" xlink:title=" ">
<polygon fill="white" stroke="#666666" points="1300.75,-231 1177.5,-231 1177.5,-187 1300.75,-187 1300.75,-231"/>
<text xml:space="preserve" text-anchor="start" x="1185.5" y="-217.5" font-family="Helvetica,sans-Serif" font-size="10.00">depicture_menu::domain</text>
<text xml:space="preserve" text-anchor="start" x="1185.5" y="-205.5" font-family="Helvetica,sans-Serif" font-size="10.00">::menu::radialmenu_item</text>
<text xml:space="preserve" text-anchor="middle" x="1239.12" y="-193.5" font-family="Helvetica,sans-Serif" font-size="10.00">::set_action_id</text>
</a>
</g>
</g>
<!-- Node1&#45;&gt;Node23 -->
<g id="edge25_Node000001_Node000023" class="edge">
<title>Node1&#45;&gt;Node23</title>
<g id="a_edge25_Node000001_Node000023"><a xlink:title=" ">
<path fill="none" stroke="#63b8ff" d="M1325.23,-209C1317.14,-209 1308.95,-209 1301.02,-209"/>
<polygon fill="#63b8ff" stroke="#63b8ff" points="1325.06,-212.5 1335.06,-209 1325.06,-205.5 1325.06,-212.5"/>
</a>
</g>
</g>
<!-- Node3 -->
<g id="Node000003" class="node">
<title>Node3</title>
<g id="a_Node000003"><a xlink:href="structdepicture__menu_1_1domain_1_1menu_1_1radialmenu__item.html#a401fbb41b8231960bb8443168ddb56a5" target="_top" xlink:title=" ">
<polygon fill="white" stroke="#666666" points="1125.38,-293 1002.12,-293 1002.12,-249 1125.38,-249 1125.38,-293"/>
<text xml:space="preserve" text-anchor="start" x="1010.12" y="-279.5" font-family="Helvetica,sans-Serif" font-size="10.00">depicture_menu::domain</text>
<text xml:space="preserve" text-anchor="start" x="1010.12" y="-267.5" font-family="Helvetica,sans-Serif" font-size="10.00">::menu::radialmenu_item</text>
<text xml:space="preserve" text-anchor="middle" x="1063.75" y="-255.5" font-family="Helvetica,sans-Serif" font-size="10.00">::current_action_id</text>
</a>
</g>
</g>
<!-- Node2&#45;&gt;Node3 -->
<g id="edge2_Node000002_Node000003" class="edge">
<title>Node2&#45;&gt;Node3</title>
<g id="a_edge2_Node000002_Node000003"><a xlink:title=" ">
<path fill="none" stroke="#63b8ff" d="M1166.29,-271C1152.78,-271 1138.78,-271 1125.65,-271"/>
<polygon fill="#63b8ff" stroke="#63b8ff" points="1165.97,-274.5 1175.97,-271 1165.97,-267.5 1165.97,-274.5"/>
</a>
</g>
</g>
<!-- Node4 -->
<g id="Node000004" class="node">
<title>Node4</title>
<g id="a_Node000004"><a xlink:href="namespacedepicture__menu_1_1cs__binding.html#a442ac9e8a6937dd485c22270137b176d" target="_top" xlink:title=" ">
<polygon fill="white" stroke="#666666" points="936.5,-337 802,-337 802,-305 936.5,-305 936.5,-337"/>
<text xml:space="preserve" text-anchor="start" x="810" y="-323.5" font-family="Helvetica,sans-Serif" font-size="10.00">depicture_menu::cs</text>
<text xml:space="preserve" text-anchor="middle" x="869.25" y="-311.5" font-family="Helvetica,sans-Serif" font-size="10.00">_binding::apply_menu_item</text>
</a>
</g>
</g>
<!-- Node3&#45;&gt;Node4 -->
<g id="edge3_Node000003_Node000004" class="edge">
<title>Node3&#45;&gt;Node4</title>
<g id="a_edge3_Node000003_Node000004"><a xlink:title=" ">
<path fill="none" stroke="#63b8ff" d="M990.96,-289.65C972.18,-294.53 952.07,-299.75 933.75,-304.51"/>
<polygon fill="#63b8ff" stroke="#63b8ff" points="991.58,-293.1 1000.38,-287.2 989.82,-286.33 991.58,-293.1"/>
</a>
</g>
</g>
<!-- Node5 -->
<g id="Node000005" class="node">
<title>Node5</title>
<g id="a_Node000005"><a xlink:href="namespacedepicture__menu_1_1usecase_1_1detail__usecase.html#a9820c50bfcd072e7ea64e14cc94ad567" target="_top" xlink:title=" ">
<polygon fill="white" stroke="#666666" points="950,-225 788.5,-225 788.5,-193 950,-193 950,-225"/>
<text xml:space="preserve" text-anchor="start" x="796.5" y="-211.5" font-family="Helvetica,sans-Serif" font-size="10.00">depicture_menu::usecase</text>
<text xml:space="preserve" text-anchor="middle" x="869.25" y="-199.5" font-family="Helvetica,sans-Serif" font-size="10.00">::detail_usecase::do_show_menu</text>
</a>
</g>
</g>
<!-- Node3&#45;&gt;Node5 -->
<g id="edge4_Node000003_Node000005" class="edge">
<title>Node3&#45;&gt;Node5</title>
<g id="a_edge4_Node000003_Node000005"><a xlink:title=" ">
<path fill="none" stroke="#63b8ff" d="M990.9,-247.26C977.32,-242.82 963.23,-238.25 950,-234 941.3,-231.21 932.05,-228.28 923.05,-225.44"/>
<polygon fill="#63b8ff" stroke="#63b8ff" points="989.62,-250.53 1000.21,-250.31 991.8,-243.87 989.62,-250.53"/>
</a>
</g>
</g>
<!-- Node7 -->
<g id="Node000007" class="node">
<title>Node7</title>
<g id="a_Node000007"><a xlink:href="structdepicture__menu_1_1usecase_1_1query_1_1default__menu__item__label__query.html#a799a091672af20d03868616d8f733feb" target="_top" xlink:title=" ">
<polygon fill="white" stroke="#666666" points="933.12,-287 805.38,-287 805.38,-243 933.12,-243 933.12,-287"/>
<text xml:space="preserve" text-anchor="start" x="813.38" y="-273.5" font-family="Helvetica,sans-Serif" font-size="10.00">depicture_menu::usecase</text>
<text xml:space="preserve" text-anchor="start" x="813.38" y="-261.5" font-family="Helvetica,sans-Serif" font-size="10.00">::query::default_menu</text>
<text xml:space="preserve" text-anchor="middle" x="869.25" y="-249.5" font-family="Helvetica,sans-Serif" font-size="10.00">_item_label_query::query</text>
</a>
</g>
</g>
<!-- Node3&#45;&gt;Node7 -->
<g id="edge6_Node000003_Node000007" class="edge">
<title>Node3&#45;&gt;Node7</title>
<g id="a_edge6_Node000003_Node000007"><a xlink:title=" ">
<path fill="none" stroke="#63b8ff" d="M990.37,-268.74C971.65,-268.16 951.63,-267.54 933.41,-266.97"/>
<polygon fill="#63b8ff" stroke="#63b8ff" points="990.22,-272.24 1000.33,-269.05 990.44,-265.24 990.22,-272.24"/>
</a>
</g>
</g>
<!-- Node8 -->
<g id="Node000008" class="node">
<title>Node8</title>
<g id="a_Node000008"><a xlink:href="namespacedetail.html#a359da91d8e882921d526b9c247535941" target="_top" xlink:title=" ">
<polygon fill="white" stroke="#666666" points="929,-375 809.5,-375 809.5,-355 929,-355 929,-375"/>
<text xml:space="preserve" text-anchor="middle" x="869.25" y="-361.5" font-family="Helvetica,sans-Serif" font-size="10.00">detail::sync_menu_item</text>
</a>
</g>
</g>
<!-- Node3&#45;&gt;Node8 -->
<g id="edge7_Node000003_Node000008" class="edge">
<title>Node3&#45;&gt;Node8</title>
<g id="a_edge7_Node000003_Node000008"><a xlink:title=" ">
<path fill="none" stroke="#63b8ff" d="M1026.22,-300.12C1005.04,-315.74 977.23,-334.15 950,-346 942.3,-349.35 933.91,-352.17 925.57,-354.51"/>
<polygon fill="#63b8ff" stroke="#63b8ff" points="1028.06,-303.11 1033.96,-294.31 1023.86,-297.52 1028.06,-303.11"/>
</a>
</g>
</g>
<!-- Node6 -->
<g id="Node000006" class="node">
<title>Node6</title>
<g id="a_Node000006"><a xlink:href="classdepicture__menu_1_1usecase_1_1show__menu__view.html#a39a24262aa5bbf60e9429380652bd850" target="_top" xlink:title=" ">
<polygon fill="white" stroke="#666666" points="750.25,-231 621,-231 621,-187 750.25,-187 750.25,-231"/>
<text xml:space="preserve" text-anchor="start" x="629" y="-217.5" font-family="Helvetica,sans-Serif" font-size="10.00">depicture_menu::usecase</text>
<text xml:space="preserve" text-anchor="start" x="629" y="-205.5" font-family="Helvetica,sans-Serif" font-size="10.00">::show_menu_view::show</text>
<text xml:space="preserve" text-anchor="middle" x="685.62" y="-193.5" font-family="Helvetica,sans-Serif" font-size="10.00">_default_menu</text>
</a>
</g>
</g>
<!-- Node5&#45;&gt;Node6 -->
<g id="edge5_Node000005_Node000006" class="edge">
<title>Node5&#45;&gt;Node6</title>
<g id="a_edge5_Node000005_Node000006"><a xlink:title=" ">
<path fill="none" stroke="#63b8ff" d="M776.84,-209C767.97,-209 759.1,-209 750.58,-209"/>
<polygon fill="#63b8ff" stroke="#63b8ff" points="776.54,-212.5 786.54,-209 776.54,-205.5 776.54,-212.5"/>
</a>
</g>
</g>
<!-- Node9 -->
<g id="Node000009" class="node">
<title>Node9</title>
<g id="a_Node000009"><a xlink:href="namespacedetail.html#aeeadbaa968cbf337fbc005755d6df61d" target="_top" xlink:title=" ">
<polygon fill="white" stroke="#666666" points="733.38,-375 637.88,-375 637.88,-355 733.38,-355 733.38,-375"/>
<text xml:space="preserve" text-anchor="middle" x="685.62" y="-361.5" font-family="Helvetica,sans-Serif" font-size="10.00">detail::sync_menu</text>
</a>
</g>
</g>
<!-- Node8&#45;&gt;Node9 -->
<g id="edge8_Node000008_Node000009" class="edge">
<title>Node8&#45;&gt;Node9</title>
<g id="a_edge8_Node000008_Node000009"><a xlink:title=" ">
<path fill="none" stroke="#63b8ff" d="M797.65,-365C776.21,-365 753.18,-365 733.69,-365"/>
<polygon fill="#63b8ff" stroke="#63b8ff" points="797.52,-368.5 807.52,-365 797.52,-361.5 797.52,-368.5"/>
</a>
</g>
</g>
<!-- Node10 -->
<g id="Node000010" class="node">
<title>Node10</title>
<g id="a_Node000010"><a xlink:href="classdepicture__menu_1_1presentations_1_1menu__view__presenter.html#a7cee659c00af1f57cbe9f2214fab8ecf" target="_top" xlink:title=" ">
<polygon fill="white" stroke="#666666" points="582.75,-381 398.75,-381 398.75,-349 582.75,-349 582.75,-381"/>
<text xml:space="preserve" text-anchor="start" x="406.75" y="-367.5" font-family="Helvetica,sans-Serif" font-size="10.00">depicture_menu::presentations</text>
<text xml:space="preserve" text-anchor="middle" x="490.75" y="-355.5" font-family="Helvetica,sans-Serif" font-size="10.00">::menu_view_presenter::change_menu</text>
</a>
</g>
</g>
<!-- Node9&#45;&gt;Node10 -->
<g id="edge9_Node000009_Node000010" class="edge">
<title>Node9&#45;&gt;Node10</title>
<g id="a_edge9_Node000009_Node000010"><a xlink:title=" ">
<path fill="none" stroke="#63b8ff" d="M626.26,-365C612.58,-365 597.67,-365 582.93,-365"/>
<polygon fill="#63b8ff" stroke="#63b8ff" points="625.93,-368.5 635.93,-365 625.93,-361.5 625.93,-368.5"/>
</a>
</g>
</g>
<!-- Node11 -->
<g id="Node000011" class="node">
<title>Node11</title>
<g id="a_Node000011"><a xlink:href="_test_menu_view_presenter_8cpp.html#a151ccc4fe04555bd94ebef4472e1c21b" target="_top" xlink:title=" ">
<polygon fill="white" stroke="#666666" points="346.62,-406 199.38,-406 199.38,-374 346.62,-374 346.62,-406"/>
<text xml:space="preserve" text-anchor="start" x="207.38" y="-392.5" font-family="Helvetica,sans-Serif" font-size="10.00">BOOST_AUTO_TEST_CASE</text>
<text xml:space="preserve" text-anchor="middle" x="273" y="-380.5" font-family="Helvetica,sans-Serif" font-size="10.00">_TEMPLATE</text>
</a>
</g>
</g>
<!-- Node10&#45;&gt;Node11 -->
<g id="edge10_Node000010_Node000011" class="edge">
<title>Node10&#45;&gt;Node11</title>
<g id="a_edge10_Node000010_Node000011"><a xlink:title=" ">
<path fill="none" stroke="#63b8ff" d="M386.96,-376.91C373.47,-378.47 359.86,-380.05 347,-381.54"/>
<polygon fill="#63b8ff" stroke="#63b8ff" points="387.22,-380.4 396.75,-375.78 386.41,-373.45 387.22,-380.4"/>
</a>
</g>
</g>
<!-- Node12 -->
<g id="Node000012" class="node">
<title>Node12</title>
<g id="a_Node000012"><a xlink:href="classdepicture__menu_1_1presentations_1_1menu__view__presenter.html#afe97162d40d1595753ccb38f9ac96ad6" target="_top" xlink:title=" ">
<polygon fill="white" stroke="#666666" points="362.75,-356 183.25,-356 183.25,-324 362.75,-324 362.75,-356"/>
<text xml:space="preserve" text-anchor="start" x="191.25" y="-342.5" font-family="Helvetica,sans-Serif" font-size="10.00">depicture_menu::presentations</text>
<text xml:space="preserve" text-anchor="middle" x="273" y="-330.5" font-family="Helvetica,sans-Serif" font-size="10.00">::menu_view_presenter::create_menu</text>
</a>
</g>
</g>
<!-- Node10&#45;&gt;Node12 -->
<g id="edge11_Node000010_Node000012" class="edge">
<title>Node10&#45;&gt;Node12</title>
<g id="a_edge11_Node000010_Node000012"><a xlink:title=" ">
<path fill="none" stroke="#63b8ff" d="M387.04,-353.1C379.09,-352.18 371.09,-351.25 363.23,-350.34"/>
<polygon fill="#63b8ff" stroke="#63b8ff" points="386.41,-356.55 396.75,-354.22 387.22,-349.6 386.41,-356.55"/>
</a>
</g>
</g>
<!-- Node13 -->
<g id="Node000013" class="node">
<title>Node13</title>
<g id="a_Node000013"><a xlink:href="_test_menu_view_presenter_8cpp.html#ae923463343707b4e44092d1eac37d2d9" target="_top" xlink:title=" ">
<polygon fill="white" stroke="#666666" points="147.25,-372 0,-372 0,-352 147.25,-352 147.25,-372"/>
<text xml:space="preserve" text-anchor="middle" x="73.62" y="-358.5" font-family="Helvetica,sans-Serif" font-size="10.00">BOOST_AUTO_TEST_CASE</text>
</a>
</g>
</g>
<!-- Node12&#45;&gt;Node13 -->
<g id="edge12_Node000012_Node000013" class="edge">
<title>Node12&#45;&gt;Node13</title>
<g id="a_edge12_Node000012_Node000013"><a xlink:title=" ">
<path fill="none" stroke="#63b8ff" d="M171.52,-351.2C163.5,-352.09 155.5,-352.99 147.72,-353.85"/>
<polygon fill="#63b8ff" stroke="#63b8ff" points="171.79,-354.69 181.34,-350.11 171.01,-347.74 171.79,-354.69"/>
</a>
</g>
</g>
<!-- Node14 -->
<g id="Node000014" class="node">
<title>Node14</title>
<g id="a_Node000014"><a xlink:href="_test_menu_view_presenter_8cpp.html#a9eead603abf63a8882a408141b378426" target="_top" xlink:title=" ">
<polygon fill="white" stroke="#666666" points="147.25,-334 0,-334 0,-302 147.25,-302 147.25,-334"/>
<text xml:space="preserve" text-anchor="start" x="8" y="-320.5" font-family="Helvetica,sans-Serif" font-size="10.00">BOOST_AUTO_TEST_CASE</text>
<text xml:space="preserve" text-anchor="middle" x="73.62" y="-308.5" font-family="Helvetica,sans-Serif" font-size="10.00">_TEMPLATE</text>
</a>
</g>
</g>
<!-- Node12&#45;&gt;Node14 -->
<g id="edge13_Node000012_Node000014" class="edge">
<title>Node12&#45;&gt;Node14</title>
<g id="a_edge13_Node000012_Node000014"><a xlink:title=" ">
<path fill="none" stroke="#63b8ff" d="M171.52,-328.8C163.5,-327.91 155.5,-327.01 147.72,-326.15"/>
<polygon fill="#63b8ff" stroke="#63b8ff" points="171.01,-332.26 181.34,-329.89 171.79,-325.31 171.01,-332.26"/>
</a>
</g>
</g>
<!-- Node16 -->
<g id="Node000016" class="node">
<title>Node16</title>
<g id="a_Node000016"><a xlink:href="namespacedepicture__menu_1_1cs__binding.html#ae572bad0d69db1d1c8b9e1934514c6d9" target="_top" xlink:title=" ">
<polygon fill="white" stroke="#666666" points="936.5,-150 802,-150 802,-118 936.5,-118 936.5,-150"/>
<text xml:space="preserve" text-anchor="start" x="810" y="-136.5" font-family="Helvetica,sans-Serif" font-size="10.00">depicture_menu::cs</text>
<text xml:space="preserve" text-anchor="middle" x="869.25" y="-124.5" font-family="Helvetica,sans-Serif" font-size="10.00">_binding::apply_menu_item</text>
</a>
</g>
</g>
<!-- Node15&#45;&gt;Node16 -->
<g id="edge15_Node000015_Node000016" class="edge">
<title>Node15&#45;&gt;Node16</title>
<g id="a_edge15_Node000015_Node000016"><a xlink:title=" ">
<path fill="none" stroke="#63b8ff" d="M1166.95,-121.45C1158.46,-119.21 1149.85,-117.31 1141.5,-116 1072.26,-105.16 992.07,-112.96 936.94,-121.41"/>
<polygon fill="#63b8ff" stroke="#63b8ff" points="1165.97,-124.81 1176.54,-124.14 1167.86,-118.07 1165.97,-124.81"/>
</a>
</g>
</g>
<!-- Node18 -->
<g id="Node000018" class="node">
<title>Node18</title>
<g id="a_Node000018"><a xlink:href="structdepicture__menu_1_1domain_1_1menu_1_1radialmenu__item.html#aadf2f8ebe06021b018c6c67e3dfa3682" target="_top" xlink:title=" ">
<polygon fill="white" stroke="#666666" points="1125.38,-231 1002.12,-231 1002.12,-187 1125.38,-187 1125.38,-231"/>
<text xml:space="preserve" text-anchor="start" x="1010.12" y="-217.5" font-family="Helvetica,sans-Serif" font-size="10.00">depicture_menu::domain</text>
<text xml:space="preserve" text-anchor="start" x="1010.12" y="-205.5" font-family="Helvetica,sans-Serif" font-size="10.00">::menu::radialmenu_item</text>
<text xml:space="preserve" text-anchor="middle" x="1063.75" y="-193.5" font-family="Helvetica,sans-Serif" font-size="10.00">::current_action_kind</text>
</a>
</g>
</g>
<!-- Node15&#45;&gt;Node18 -->
<g id="edge17_Node000015_Node000018" class="edge">
<title>Node15&#45;&gt;Node18</title>
<g id="a_edge17_Node000015_Node000018"><a xlink:title=" ">
<path fill="none" stroke="#63b8ff" d="M1166.69,-172.54C1153.06,-177.42 1138.91,-182.48 1125.65,-187.22"/>
<polygon fill="#63b8ff" stroke="#63b8ff" points="1167.82,-175.86 1176.06,-169.19 1165.47,-169.27 1167.82,-175.86"/>
</a>
</g>
</g>
<!-- Node19 -->
<g id="Node000019" class="node">
<title>Node19</title>
<g id="a_Node000019"><a xlink:href="structdepicture__menu_1_1domain_1_1menu_1_1radialmenu__item.html#a5f68ba3ad911890c83dcbdfd719ef1a8" target="_top" xlink:title=" ">
<polygon fill="white" stroke="#666666" points="1125.38,-169 1002.12,-169 1002.12,-125 1125.38,-125 1125.38,-169"/>
<text xml:space="preserve" text-anchor="start" x="1010.12" y="-155.5" font-family="Helvetica,sans-Serif" font-size="10.00">depicture_menu::domain</text>
<text xml:space="preserve" text-anchor="start" x="1010.12" y="-143.5" font-family="Helvetica,sans-Serif" font-size="10.00">::menu::radialmenu_item</text>
<text xml:space="preserve" text-anchor="middle" x="1063.75" y="-131.5" font-family="Helvetica,sans-Serif" font-size="10.00">::get_action_ids_range</text>
</a>
</g>
</g>
<!-- Node15&#45;&gt;Node19 -->
<g id="edge20_Node000015_Node000019" class="edge">
<title>Node15&#45;&gt;Node19</title>
<g id="a_edge20_Node000015_Node000019"><a xlink:title=" ">
<path fill="none" stroke="#63b8ff" d="M1166.29,-147C1152.78,-147 1138.78,-147 1125.65,-147"/>
<polygon fill="#63b8ff" stroke="#63b8ff" points="1165.97,-150.5 1175.97,-147 1165.97,-143.5 1165.97,-150.5"/>
</a>
</g>
</g>
<!-- Node20 -->
<g id="Node000020" class="node">
<title>Node20</title>
<g id="a_Node000020"><a xlink:href="structdepicture__menu_1_1usecase_1_1menu__item__sync.html#a73116168f11c4971bf386b8355e49889" target="_top" xlink:title=" ">
<polygon fill="white" stroke="#666666" points="1141.5,-51 986,-51 986,-19 1141.5,-19 1141.5,-51"/>
<text xml:space="preserve" text-anchor="start" x="994" y="-37.5" font-family="Helvetica,sans-Serif" font-size="10.00">depicture_menu::usecase</text>
<text xml:space="preserve" text-anchor="middle" x="1063.75" y="-25.5" font-family="Helvetica,sans-Serif" font-size="10.00">::menu_item_sync::make_query</text>
</a>
</g>
</g>
<!-- Node15&#45;&gt;Node20 -->
<g id="edge21_Node000015_Node000020" class="edge">
<title>Node15&#45;&gt;Node20</title>
<g id="a_edge21_Node000015_Node000020"><a xlink:title=" ">
<path fill="none" stroke="#63b8ff" d="M1195.23,-118.24C1178.52,-107.13 1159.18,-94.38 1141.5,-83 1124.98,-72.37 1106.3,-60.67 1091.5,-51.49"/>
<polygon fill="#63b8ff" stroke="#63b8ff" points="1193.21,-121.1 1203.47,-123.73 1197.09,-115.27 1193.21,-121.1"/>
</a>
</g>
</g>
<!-- Node17 -->
<g id="Node000017" class="node">
<title>Node17</title>
<g id="a_Node000017"><a xlink:href="namespacedepicture__menu_1_1cs__binding.html#a17af5c2678e88aa88a411f7d98a360a5" target="_top" xlink:title=" ">
<polygon fill="white" stroke="#666666" points="752.5,-150 618.75,-150 618.75,-118 752.5,-118 752.5,-150"/>
<text xml:space="preserve" text-anchor="start" x="626.75" y="-136.5" font-family="Helvetica,sans-Serif" font-size="10.00">depicture_menu::cs</text>
<text xml:space="preserve" text-anchor="middle" x="685.62" y="-124.5" font-family="Helvetica,sans-Serif" font-size="10.00">_binding::apply_radialmenu</text>
</a>
</g>
</g>
<!-- Node16&#45;&gt;Node17 -->
<g id="edge16_Node000016_Node000017" class="edge">
<title>Node16&#45;&gt;Node17</title>
<g id="a_edge16_Node000016_Node000017"><a xlink:title=" ">
<path fill="none" stroke="#63b8ff" d="M790.33,-134C777.86,-134 765.07,-134 752.91,-134"/>
<polygon fill="#63b8ff" stroke="#63b8ff" points="790.14,-137.5 800.14,-134 790.14,-130.5 790.14,-137.5"/>
</a>
</g>
</g>
<!-- Node18&#45;&gt;Node5 -->
<g id="edge19_Node000018_Node000005" class="edge">
<title>Node18&#45;&gt;Node5</title>
<g id="a_edge19_Node000018_Node000005"><a xlink:title=" ">
<path fill="none" stroke="#63b8ff" d="M990.55,-209C977.48,-209 963.78,-209 950.49,-209"/>
<polygon fill="#63b8ff" stroke="#63b8ff" points="990.33,-212.5 1000.33,-209 990.33,-205.5 990.33,-212.5"/>
</a>
</g>
</g>
<!-- Node18&#45;&gt;Node16 -->
<g id="edge18_Node000018_Node000016" class="edge">
<title>Node18&#45;&gt;Node16</title>
<g id="a_edge18_Node000018_Node000016"><a xlink:title=" ">
<path fill="none" stroke="#63b8ff" d="M994.56,-182.43C967.19,-171.77 936.51,-159.82 912.48,-150.45"/>
<polygon fill="#63b8ff" stroke="#63b8ff" points="993.26,-185.68 1003.84,-186.05 995.8,-179.16 993.26,-185.68"/>
</a>
</g>
</g>
<!-- Node20&#45;&gt;Node20 -->
<g id="edge23_Node000020_Node000020" class="edge">
<title>Node20&#45;&gt;Node20</title>
<g id="a_edge23_Node000020_Node000020"><a xlink:title=" ">
<path fill="none" stroke="#63b8ff" d="M1092.98,-62.71C1088.1,-66.48 1078.36,-69 1063.75,-69 1037.03,-69 1026.6,-60.58 1032.44,-51.44"/>
<polygon fill="#63b8ff" stroke="#63b8ff" points="1096.41,-63.4 1094.78,-52.93 1089.52,-62.13 1096.41,-63.4"/>
</a>
</g>
</g>
<!-- Node21 -->
<g id="Node000021" class="node">
<title>Node21</title>
<g id="a_Node000021"><a xlink:href="structdepicture__menu_1_1usecase_1_1menu__item__sync.html#a20a37011fcd78b49181246ad5a07097f" target="_top" xlink:title=" ">
<polygon fill="white" stroke="#666666" points="947,-32 791.5,-32 791.5,0 947,0 947,-32"/>
<text xml:space="preserve" text-anchor="start" x="799.5" y="-18.5" font-family="Helvetica,sans-Serif" font-size="10.00">depicture_menu::usecase</text>
<text xml:space="preserve" text-anchor="middle" x="869.25" y="-6.5" font-family="Helvetica,sans-Serif" font-size="10.00">::menu_item_sync::make_query</text>
</a>
</g>
</g>
<!-- Node20&#45;&gt;Node21 -->
<g id="edge22_Node000020_Node000021" class="edge">
<title>Node20&#45;&gt;Node21</title>
<g id="a_edge22_Node000020_Node000021"><a xlink:title=" ">
<path fill="none" stroke="#63b8ff" d="M974.29,-26.27C965.33,-25.38 956.28,-24.49 947.46,-23.62"/>
<polygon fill="#63b8ff" stroke="#63b8ff" points="973.76,-29.73 984.06,-27.23 974.45,-22.77 973.76,-29.73"/>
</a>
</g>
</g>
<!-- Node22 -->
<g id="Node000022" class="node">
<title>Node22</title>
<g id="a_Node000022"><a xlink:href="structdepicture__menu_1_1usecase_1_1menu__item__sync.html#a9fd674e4ea4f37a1275b7fcf15ad2ae5" target="_top" xlink:title=" ">
<polygon fill="white" stroke="#666666" points="941,-82 797.5,-82 797.5,-50 941,-50 941,-82"/>
<text xml:space="preserve" text-anchor="start" x="805.5" y="-68.5" font-family="Helvetica,sans-Serif" font-size="10.00">depicture_menu::usecase</text>
<text xml:space="preserve" text-anchor="middle" x="869.25" y="-56.5" font-family="Helvetica,sans-Serif" font-size="10.00">::menu_item_sync::operator()</text>
</a>
</g>
</g>
<!-- Node20&#45;&gt;Node22 -->
<g id="edge24_Node000020_Node000022" class="edge">
<title>Node20&#45;&gt;Node22</title>
<g id="a_edge24_Node000020_Node000022"><a xlink:title=" ">
<path fill="none" stroke="#63b8ff" d="M974.49,-49.21C963.34,-51.01 952.05,-52.83 941.22,-54.57"/>
<polygon fill="#63b8ff" stroke="#63b8ff" points="974.75,-52.72 984.07,-47.67 973.64,-45.81 974.75,-52.72"/>
</a>
</g>
</g>
<!-- Node23&#45;&gt;Node18 -->
<g id="edge26_Node000023_Node000018" class="edge">
<title>Node23&#45;&gt;Node18</title>
<g id="a_edge26_Node000023_Node000018"><a xlink:title=" ">
<path fill="none" stroke="#63b8ff" d="M1166.29,-209C1152.78,-209 1138.78,-209 1125.65,-209"/>
<polygon fill="#63b8ff" stroke="#63b8ff" points="1165.97,-212.5 1175.97,-209 1165.97,-205.5 1165.97,-212.5"/>
</a>
</g>
</g>
</g>
</svg>

<g id="navigator" transform="translate(0 0)" fill="#404254">
  <rect fill="#f2f5e9" fill-opacity="0.5" stroke="#606060" stroke-width=".5" x="0" y="0" width="60" height="60"/>
  <use id="zoomplus" xlink:href="#zoomPlus" x="17" y="9" onmousedown="handleZoom(evt,'in')"/>
  <use id="zoomminus" xlink:href="#zoomMin" x="42" y="9" onmousedown="handleZoom(evt,'out')"/>
  <use id="reset" xlink:href="#resetDef" x="30" y="36" onmousedown="handleReset()"/>
   <use id="arrowup" xlink:href="#arrowUp" x="0" y="0" onmousedown="handlePan(0,-1)"/>
  <use id="arrowright" xlink:href="#arrowRight" x="0" y="0" onmousedown="handlePan(1,0)"/>
  <use id="arrowdown" xlink:href="#arrowDown" x="0" y="0" onmousedown="handlePan(0,1)"/>
  <use id="arrowleft" xlink:href="#arrowLeft" x="0" y="0" onmousedown="handlePan(-1,0)"/>
</g>
<svg viewBox="0 0 15 15" width="100%" height="30px" preserveAspectRatio="xMaxYMin meet">
 <g id="arrow_out" transform="scale(0.3 0.3)">
  <a xlink:href="structdepicture__menu_1_1domain_1_1menu_1_1radialmenu__item_adee607b452fafcf8b6aa3ce5471f87a4_icgraph_org.svg" target="_base">
   <rect id="button" ry="5" rx="5" y="6" x="6" height="38" width="38"
        fill="#f2f5e9" fill-opacity="0.5" stroke="#606060" stroke-width="1.0"/>
   <path id="arrow"
     d="M 11.500037,31.436501 C 11.940474,20.09759 22.043105,11.32322 32.158766,21.979434 L 37.068811,17.246167 C 37.068811,17.246167 37.088388,32 37.088388,32 L 22.160133,31.978069 C 22.160133,31.978069 26.997745,27.140456 26.997745,27.140456 C 18.528582,18.264221 13.291696,25.230495 11.500037,31.436501 z"
     style="fill:#404040;"/>
  </a>
 </g>
</svg>

<style type='text/css'>
<![CDATA[
[data-mouse-over-selected='false'] { opacity: 0.7; }
[data-mouse-over-selected='true']  { opacity: 1.0; }
]]>
</style>
<script type="application/ecmascript"><![CDATA[
document.addEventListener('DOMContentLoaded', (event) => {
  highlightEdges();
  highlightAdjacentNodes();
});
]]></script>
</svg>
