<?xml version="1.0" encoding="UTF-8" standalone="no"?>
<!DOCTYPE svg PUBLIC "-//W3C//DTD SVG 1.1//EN"
 "http://www.w3.org/Graphics/SVG/1.1/DTD/svg11.dtd">
<!-- Generated by graphviz version 14.1.2 (20260124.0452)
 -->
<!-- Title: ipc_queue::ipc_queue Pages: 1 -->
<svg width="265pt" height="104pt"
 viewBox="0.00 0.00 265.00 104.00" xmlns="http://www.w3.org/2000/svg" xmlns:xlink="http://www.w3.org/1999/xlink">
<g id="graph0" class="graph" transform="scale(1 1) rotate(0) translate(4 100)">
<title>ipc_queue::ipc_queue</title>
<!-- Node1 -->
<g id="Node000001" class="node">
<title>Node1</title>
<g id="a_Node000001"><a xlink:title=" ">
<polygon fill="#999999" stroke="#666666" points="257,-58 146.5,-58 146.5,-38 257,-38 257,-58"/>
<text xml:space="preserve" text-anchor="middle" x="201.75" y="-44.5" font-family="Helvetica,sans-Serif" font-size="10.00">ipc_queue::ipc_queue</text>
</a>
</g>
</g>
<!-- Node1&#45;&gt;Node1 -->
<g id="edge1_Node000001_Node000001" class="edge">
<title>Node1&#45;&gt;Node1</title>
<g id="a_edge1_Node000001_Node000001"><a xlink:title=" ">
<path fill="none" stroke="#63b8ff" d="M227.64,-69.44C224.31,-73.3 215.68,-76 201.75,-76 176.28,-76 168.53,-66.98 178.47,-58.34"/>
<polygon fill="#63b8ff" stroke="#63b8ff" points="231.07,-68.74 225.37,-59.81 224.26,-70.35 231.07,-68.74"/>
</a>
</g>
</g>
<!-- Node2 -->
<g id="Node000002" class="node">
<title>Node2</title>
<g id="a_Node000002"><a xlink:href="structipc__queue.html#a58609a319aaff85d3b13575feff55cfd" target="_top" xlink:title=" ">
<polygon fill="white" stroke="#666666" points="110.5,-96 0,-96 0,-76 110.5,-76 110.5,-96"/>
<text xml:space="preserve" text-anchor="middle" x="55.25" y="-82.5" font-family="Helvetica,sans-Serif" font-size="10.00">ipc_queue::ipc_queue</text>
</a>
</g>
</g>
<!-- Node1&#45;&gt;Node2 -->
<g id="edge2_Node000001_Node000002" class="edge">
<title>Node1&#45;&gt;Node2</title>
<g id="a_edge2_Node000001_Node000002"><a xlink:title=" ">
<path fill="none" stroke="#63b8ff" d="M149.87,-61.38C132.19,-66.03 112.63,-71.17 95.99,-75.55"/>
<polygon fill="#63b8ff" stroke="#63b8ff" points="150.64,-64.8 159.42,-58.87 148.86,-58.03 150.64,-64.8"/>
</a>
</g>
</g>
<!-- Node3 -->
<g id="Node000003" class="node">
<title>Node3</title>
<g id="a_Node000003"><a xlink:href="structipc__queue.html#a6f2900bf426c7cb4f1cf5790a53f3aa7" target="_top" xlink:title=" ">
<polygon fill="white" stroke="#666666" points="109,-58 1.5,-58 1.5,-38 109,-38 109,-58"/>
<text xml:space="preserve" text-anchor="middle" x="55.25" y="-44.5" font-family="Helvetica,sans-Serif" font-size="10.00">ipc_queue::operator=</text>
</a>
</g>
</g>
<!-- Node1&#45;&gt;Node3 -->
<g id="edge3_Node000001_Node000003" class="edge">
<title>Node1&#45;&gt;Node3</title>
<g id="a_edge3_Node000001_Node000003"><a xlink:title=" ">
<path fill="none" stroke="#63b8ff" d="M134.86,-48C126.21,-48 117.44,-48 109.04,-48"/>
<polygon fill="#63b8ff" stroke="#63b8ff" points="134.61,-51.5 144.61,-48 134.61,-44.5 134.61,-51.5"/>
</a>
</g>
</g>
<!-- Node4 -->
<g id="Node000004" class="node">
<title>Node4</title>
<g id="a_Node000004"><a xlink:href="structipc__queue.html#a0416f61726b2d5a9da8febd093a1f963" target="_top" xlink:title=" ">
<polygon fill="white" stroke="#666666" points="109,-20 1.5,-20 1.5,0 109,0 109,-20"/>
<text xml:space="preserve" text-anchor="middle" x="55.25" y="-6.5" font-family="Helvetica,sans-Serif" font-size="10.00">ipc_queue::operator=</text>
</a>
</g>
</g>
<!-- Node1&#45;&gt;Node4 -->
<g id="edge4_Node000001_Node000004" class="edge">
<title>Node1&#45;&gt;Node4</title>
<g id="a_edge4_Node000001_Node000004"><a xlink:title=" ">
<path fill="none" stroke="#63b8ff" d="M149.87,-34.62C132.19,-29.97 112.63,-24.83 95.99,-20.45"/>
<polygon fill="#63b8ff" stroke="#63b8ff" points="148.86,-37.97 159.42,-37.13 150.64,-31.2 148.86,-37.97"/>
</a>
</g>
</g>
</g>
</svg>
