<?xml version="1.0" encoding="UTF-8" standalone="no"?>
<!DOCTYPE svg PUBLIC "-//W3C//DTD SVG 1.1//EN"
 "http://www.w3.org/Graphics/SVG/1.1/DTD/svg11.dtd">
<!-- Generated by graphviz version 14.1.2 (20260124.0452)
 -->
<!-- Title: depicture_menu::domain::commands::detail_commands::command_data Pages: 1 -->
<!--zoomable 154 -->

<svg id="main" version="1.1" xmlns="http://www.w3.org/2000/svg" xmlns:xlink="http://www.w3.org/1999/xlink" xml:space="preserve" onload="init(evt)">

<style type="text/css"><![CDATA[
.node, .edge {opacity: 0.7;}
.node.selected, .edge.selected {opacity: 1;}
.edge:hover path { stroke: red; }
.edge:hover polygon { stroke: red; fill: red; }
]]></style>

<defs>
  <circle id="rim" cx="0" cy="0" r="7"/>
  <circle id="rim2" cx="0" cy="0" r="3.5"/>
  <g id="zoomPlus">
    <use xlink:href="#rim" fill="#404040"><set attributeName="fill" to="#808080" begin="zoomplus.mouseover" end="zoomplus.mouseout"/></use>
    <path d="M-4,0h8M0,-4v8" fill="none" stroke="white" stroke-width="1.5" pointer-events="none"/>
  </g>
  <g id="zoomMin">
    <use xlink:href="#rim" fill="#404040"><set attributeName="fill" to="#808080" begin="zoomminus.mouseover" end="zoomminus.mouseout"/></use>
    <path d="M-4,0h8" fill="none" stroke="white" stroke-width="1.5" pointer-events="none"/>
  </g>
  <g id="arrowUp" transform="translate(30 24)">
    <use xlink:href="#rim"/>
    <path pointer-events="none" fill="none" stroke="white" stroke-width="1.5" d="M0,-3.0v7 M-2.5,-0.5L0,-3.0L2.5,-0.5"/>
  </g>
  <g id="arrowRight" transform="rotate(90) translate(36 -43)">
    <use xlink:href="#rim"/>
    <path pointer-events="none" fill="none" stroke="white" stroke-width="1.5" d="M0,-3.0v7 M-2.5,-0.5L0,-3.0L2.5,-0.5"/>
  </g>
  <g id="arrowDown" transform="rotate(180) translate(-30 -48)">
    <use xlink:href="#rim"/>
    <path pointer-events="none" fill="none" stroke="white" stroke-width="1.5" d="M0,-3.0v7 M-2.5,-0.5L0,-3.0L2.5,-0.5"/>
  </g>
  <g id="arrowLeft" transform="rotate(270) translate(-36 17)">
    <use xlink:href="#rim"/>
    <path pointer-events="none" fill="none" stroke="white" stroke-width="1.5" d="M0,-3.0v7 M-2.5,-0.5L0,-3.0L2.5,-0.5"/>
  </g>
  <g id="resetDef">
    <use xlink:href="#rim2" fill="#404040"><set attributeName="fill" to="#808080" begin="reset.mouseover" end="reset.mouseout"/></use>
  </g>
</defs>
<script type="application/ecmascript">
var viewWidth = 929;
var viewHeight = 154;
var sectionId = 'dynsection-0';
</script>
<script type="application/ecmascript" xlink:href="svg.min.js"/>
<svg id="graph" class="graph">
<g id="viewport">
<title>depicture_menu::domain::commands::detail_commands::command_data</title>
<!-- Node1 -->
<g id="Node000001" class="node">
<title>Node1</title>
<g id="a_Node000001"><a xlink:title=" ">
<polygon fill="#999999" stroke="#666666" points="920.5,-102 768,-102 768,-58 920.5,-58 920.5,-102"/>
<text xml:space="preserve" text-anchor="start" x="776" y="-88.5" font-family="Helvetica,sans-Serif" font-size="10.00">depicture_menu::domain</text>
<text xml:space="preserve" text-anchor="start" x="776" y="-76.5" font-family="Helvetica,sans-Serif" font-size="10.00">::commands::detail_commands</text>
<text xml:space="preserve" text-anchor="middle" x="844.25" y="-64.5" font-family="Helvetica,sans-Serif" font-size="10.00">::command_data</text>
</a>
</g>
</g>
<!-- Node2 -->
<g id="Node000002" class="node">
<title>Node2</title>
<g id="a_Node000002"><a xlink:href="structdepicture__menu_1_1domain_1_1commands_1_1index.html" target="_top" xlink:title=" ">
<polygon fill="white" stroke="#666666" points="655.88,-146 533.38,-146 533.38,-114 655.88,-114 655.88,-146"/>
<text xml:space="preserve" text-anchor="start" x="541.38" y="-132.5" font-family="Helvetica,sans-Serif" font-size="10.00">depicture_menu::domain</text>
<text xml:space="preserve" text-anchor="middle" x="594.62" y="-120.5" font-family="Helvetica,sans-Serif" font-size="10.00">::commands::index</text>
</a>
</g>
</g>
<!-- Node2&#45;&gt;Node1 -->
<g id="edge1_Node000001_Node000002" class="edge">
<title>Node2&#45;&gt;Node1</title>
<g id="a_edge1_Node000001_Node000002"><a xlink:title=" ">
<path fill="none" stroke="#9a32cd" stroke-dasharray="5,2" d="M667.56,-117.76C693.59,-113.12 723.17,-107.59 750,-102 755.78,-100.79 761.75,-99.5 767.75,-98.17"/>
<polygon fill="#9a32cd" stroke="#9a32cd" points="666.98,-114.31 657.74,-119.49 668.2,-121.2 666.98,-114.31"/>
</a>
</g>
<text xml:space="preserve" text-anchor="start" x="703.5" y="-119.82" font-family="Helvetica,sans-Serif" font-size="10.00" fill="grey">index_</text>
</g>
<!-- Node3 -->
<g id="Node000003" class="node">
<title>Node3</title>
<g id="a_Node000003"><a xlink:href="structdepicture__menu_1_1domain_1_1commands_1_1parameter__pack.html" target="_top" xlink:title=" ">
<polygon fill="white" stroke="#666666" points="667.5,-96 521.75,-96 521.75,-64 667.5,-64 667.5,-96"/>
<text xml:space="preserve" text-anchor="start" x="529.75" y="-82.5" font-family="Helvetica,sans-Serif" font-size="10.00">depicture_menu::domain</text>
<text xml:space="preserve" text-anchor="middle" x="594.62" y="-70.5" font-family="Helvetica,sans-Serif" font-size="10.00">::commands::parameter_pack</text>
</a>
</g>
</g>
<!-- Node3&#45;&gt;Node1 -->
<g id="edge2_Node000001_Node000003" class="edge">
<title>Node3&#45;&gt;Node1</title>
<g id="a_edge2_Node000001_Node000003"><a xlink:title=" ">
<path fill="none" stroke="#9a32cd" stroke-dasharray="5,2" d="M679.16,-80C707.87,-80 739.83,-80 767.86,-80"/>
<polygon fill="#9a32cd" stroke="#9a32cd" points="679.43,-76.5 669.43,-80 679.43,-83.5 679.43,-76.5"/>
</a>
</g>
<text xml:space="preserve" text-anchor="start" x="688.5" y="-85.5" font-family="Helvetica,sans-Serif" font-size="10.00" fill="grey">param_pack_</text>
</g>
<!-- Node4 -->
<g id="Node000004" class="node">
<title>Node4</title>
<g id="a_Node000004"><a xlink:href="structdepicture__menu_1_1domain_1_1models_1_1entity__id__base.html" target="_top" xlink:title=" ">
<polygon fill="white" stroke="#666666" points="406.25,-130 256,-130 256,-74 406.25,-74 406.25,-130"/>
<text xml:space="preserve" text-anchor="start" x="264" y="-116.5" font-family="Helvetica,sans-Serif" font-size="10.00">depicture_menu::domain</text>
<text xml:space="preserve" text-anchor="start" x="264" y="-104.5" font-family="Helvetica,sans-Serif" font-size="10.00">::models::entity_id_base</text>
<text xml:space="preserve" text-anchor="start" x="264" y="-92.5" font-family="Helvetica,sans-Serif" font-size="10.00">&lt; detail_commands::command</text>
<text xml:space="preserve" text-anchor="middle" x="331.12" y="-80.5" font-family="Helvetica,sans-Serif" font-size="10.00">_id_tag &gt;</text>
</a>
</g>
</g>
<!-- Node4&#45;&gt;Node3 -->
<g id="edge3_Node000003_Node000004" class="edge">
<title>Node4&#45;&gt;Node3</title>
<g id="a_edge3_Node000003_Node000004"><a xlink:title=" ">
<path fill="none" stroke="#9a32cd" stroke-dasharray="5,2" d="M417.91,-94.78C451.47,-91.96 489.54,-88.76 521.65,-86.06"/>
<polygon fill="#9a32cd" stroke="#9a32cd" points="417.89,-91.27 408.22,-95.6 418.48,-98.25 417.89,-91.27"/>
</a>
</g>
<text xml:space="preserve" text-anchor="start" x="433.62" y="-99.12" font-family="Helvetica,sans-Serif" font-size="10.00" fill="grey">command_id_</text>
</g>
<!-- Node5 -->
<g id="Node000005" class="node">
<title>Node5</title>
<g id="a_Node000005"><a xlink:href="structdepicture__menu_1_1domain_1_1models_1_1entity__id__base.html" target="_top" xlink:title=" ">
<polygon fill="white" stroke="#666666" points="122.5,-86 0,-86 0,-42 122.5,-42 122.5,-86"/>
<text xml:space="preserve" text-anchor="start" x="8" y="-72.5" font-family="Helvetica,sans-Serif" font-size="10.00">depicture_menu::domain</text>
<text xml:space="preserve" text-anchor="start" x="8" y="-60.5" font-family="Helvetica,sans-Serif" font-size="10.00">::models::entity_id_base</text>
<text xml:space="preserve" text-anchor="middle" x="61.25" y="-48.5" font-family="Helvetica,sans-Serif" font-size="10.00">&lt; Tag &gt;</text>
</a>
</g>
</g>
<!-- Node5&#45;&gt;Node4 -->
<g id="edge4_Node000004_Node000005" class="edge">
<title>Node5&#45;&gt;Node4</title>
<g id="a_edge4_Node000004_Node000005"><a xlink:title=" ">
<path fill="none" stroke="orange" stroke-dasharray="5,2" d="M134.07,-74.19C171.64,-79.52 217.58,-86.04 255.55,-91.42"/>
<polygon fill="orange" stroke="orange" points="134.59,-70.73 124.2,-72.79 133.61,-77.66 134.59,-70.73"/>
</a>
</g>
<text xml:space="preserve" text-anchor="start" x="143.5" y="-110.12" font-family="Helvetica,sans-Serif" font-size="10.00" fill="grey">&lt; detail_commands::</text>
<text xml:space="preserve" text-anchor="start" x="143.5" y="-94.12" font-family="Helvetica,sans-Serif" font-size="10.00" fill="grey">  command_id_tag &gt;</text>
</g>
<!-- Node6 -->
<g id="Node000006" class="node">
<title>Node6</title>
<g id="a_Node000006"><a xlink:href="structdepicture__menu_1_1domain_1_1models_1_1entity__id__base.html" target="_top" xlink:title=" ">
<polygon fill="white" stroke="#666666" points="400.62,-56 261.62,-56 261.62,0 400.62,0 400.62,-56"/>
<text xml:space="preserve" text-anchor="start" x="269.62" y="-42.5" font-family="Helvetica,sans-Serif" font-size="10.00">depicture_menu::domain</text>
<text xml:space="preserve" text-anchor="start" x="269.62" y="-30.5" font-family="Helvetica,sans-Serif" font-size="10.00">::models::entity_id_base</text>
<text xml:space="preserve" text-anchor="start" x="269.62" y="-18.5" font-family="Helvetica,sans-Serif" font-size="10.00">&lt; detail_commands::invoker</text>
<text xml:space="preserve" text-anchor="middle" x="331.12" y="-6.5" font-family="Helvetica,sans-Serif" font-size="10.00">_id_tag &gt;</text>
</a>
</g>
</g>
<!-- Node5&#45;&gt;Node6 -->
<g id="edge6_Node000006_Node000005" class="edge">
<title>Node5&#45;&gt;Node6</title>
<g id="a_edge6_Node000006_Node000005"><a xlink:title=" ">
<path fill="none" stroke="orange" stroke-dasharray="5,2" d="M133.57,-42.35C135.9,-41.86 138.21,-41.41 140.5,-41 180.13,-33.91 225.05,-30.62 261.22,-29.12"/>
<polygon fill="orange" stroke="orange" points="133.05,-38.88 124.08,-44.51 134.6,-45.7 133.05,-38.88"/>
</a>
</g>
<text xml:space="preserve" text-anchor="start" x="143.5" y="-62.5" font-family="Helvetica,sans-Serif" font-size="10.00" fill="grey">&lt; detail_commands::</text>
<text xml:space="preserve" text-anchor="start" x="143.5" y="-46.5" font-family="Helvetica,sans-Serif" font-size="10.00" fill="grey">  invoker_id_tag &gt;</text>
</g>
<!-- Node6&#45;&gt;Node1 -->
<g id="edge7_Node000001_Node000006" class="edge">
<title>Node6&#45;&gt;Node1</title>
<g id="a_edge7_Node000001_Node000006"><a xlink:title=" ">
<path fill="none" stroke="#9a32cd" stroke-dasharray="5,2" d="M412.37,-25.38C480.56,-24.29 580.87,-25.38 667.5,-37 700.81,-41.47 736.98,-49.72 767.8,-57.8"/>
<polygon fill="#9a32cd" stroke="#9a32cd" points="412.32,-21.88 402.39,-25.56 412.45,-28.88 412.32,-21.88"/>
</a>
</g>
<text xml:space="preserve" text-anchor="start" x="545.88" y="-42.5" font-family="Helvetica,sans-Serif" font-size="10.00" fill="grey">command_invoker_id_</text>
</g>
<!-- Node6&#45;&gt;Node3 -->
<g id="edge5_Node000003_Node000006" class="edge">
<title>Node6&#45;&gt;Node3</title>
<g id="a_edge5_Node000003_Node000006"><a xlink:title=" ">
<path fill="none" stroke="#9a32cd" stroke-dasharray="5,2" d="M411.92,-43.87C446.76,-50.8 487.32,-58.86 521.27,-65.61"/>
<polygon fill="#9a32cd" stroke="#9a32cd" points="412.81,-40.48 402.32,-41.96 411.44,-47.34 412.81,-40.48"/>
</a>
</g>
<text xml:space="preserve" text-anchor="start" x="427.25" y="-67.2" font-family="Helvetica,sans-Serif" font-size="10.00" fill="grey">com_invoker_id_</text>
</g>
</g>
</svg>

<g id="navigator" transform="translate(0 0)" fill="#404254">
  <rect fill="#f2f5e9" fill-opacity="0.5" stroke="#606060" stroke-width=".5" x="0" y="0" width="60" height="60"/>
  <use id="zoomplus" xlink:href="#zoomPlus" x="17" y="9" onmousedown="handleZoom(evt,'in')"/>
  <use id="zoomminus" xlink:href="#zoomMin" x="42" y="9" onmousedown="handleZoom(evt,'out')"/>
  <use id="reset" xlink:href="#resetDef" x="30" y="36" onmousedown="handleReset()"/>
   <use id="arrowup" xlink:href="#arrowUp" x="0" y="0" onmousedown="handlePan(0,-1)"/>
  <use id="arrowright" xlink:href="#arrowRight" x="0" y="0" onmousedown="handlePan(1,0)"/>
  <use id="arrowdown" xlink:href="#arrowDown" x="0" y="0" onmousedown="handlePan(0,1)"/>
  <use id="arrowleft" xlink:href="#arrowLeft" x="0" y="0" onmousedown="handlePan(-1,0)"/>
</g>
<svg viewBox="0 0 15 15" width="100%" height="30px" preserveAspectRatio="xMaxYMin meet">
 <g id="arrow_out" transform="scale(0.3 0.3)">
  <a xlink:href="structdepicture__menu_1_1domain_1_1commands_1_1detail__commands_1_1command__data__coll__graph_org.svg" target="_base">
   <rect id="button" ry="5" rx="5" y="6" x="6" height="38" width="38"
        fill="#f2f5e9" fill-opacity="0.5" stroke="#606060" stroke-width="1.0"/>
   <path id="arrow"
     d="M 11.500037,31.436501 C 11.940474,20.09759 22.043105,11.32322 32.158766,21.979434 L 37.068811,17.246167 C 37.068811,17.246167 37.088388,32 37.088388,32 L 22.160133,31.978069 C 22.160133,31.978069 26.997745,27.140456 26.997745,27.140456 C 18.528582,18.264221 13.291696,25.230495 11.500037,31.436501 z"
     style="fill:#404040;"/>
  </a>
 </g>
</svg>

<style type='text/css'>
<![CDATA[
[data-mouse-over-selected='false'] { opacity: 0.7; }
[data-mouse-over-selected='true']  { opacity: 1.0; }
]]>
</style>
<script type="application/ecmascript"><![CDATA[
document.addEventListener('DOMContentLoaded', (event) => {
  highlightEdges();
  highlightAdjacentNodes();
});
]]></script>
</svg>
