<?xml version="1.0" encoding="UTF-8" standalone="no"?>
<!DOCTYPE svg PUBLIC "-//W3C//DTD SVG 1.1//EN"
 "http://www.w3.org/Graphics/SVG/1.1/DTD/svg11.dtd">
<!-- Generated by graphviz version 14.1.2 (20260124.0452)
 -->
<!-- Title: depicture_menu::presentations::view_models::operations::detail_operation_menu::menu_operator_impl Pages: 1 -->
<!--zoomable 202 -->

<svg id="main" version="1.1" xmlns="http://www.w3.org/2000/svg" xmlns:xlink="http://www.w3.org/1999/xlink" xml:space="preserve" onload="init(evt)">

<style type="text/css"><![CDATA[
.node, .edge {opacity: 0.7;}
.node.selected, .edge.selected {opacity: 1;}
.edge:hover path { stroke: red; }
.edge:hover polygon { stroke: red; fill: red; }
]]></style>

<defs>
  <circle id="rim" cx="0" cy="0" r="7"/>
  <circle id="rim2" cx="0" cy="0" r="3.5"/>
  <g id="zoomPlus">
    <use xlink:href="#rim" fill="#404040"><set attributeName="fill" to="#808080" begin="zoomplus.mouseover" end="zoomplus.mouseout"/></use>
    <path d="M-4,0h8M0,-4v8" fill="none" stroke="white" stroke-width="1.5" pointer-events="none"/>
  </g>
  <g id="zoomMin">
    <use xlink:href="#rim" fill="#404040"><set attributeName="fill" to="#808080" begin="zoomminus.mouseover" end="zoomminus.mouseout"/></use>
    <path d="M-4,0h8" fill="none" stroke="white" stroke-width="1.5" pointer-events="none"/>
  </g>
  <g id="arrowUp" transform="translate(30 24)">
    <use xlink:href="#rim"/>
    <path pointer-events="none" fill="none" stroke="white" stroke-width="1.5" d="M0,-3.0v7 M-2.5,-0.5L0,-3.0L2.5,-0.5"/>
  </g>
  <g id="arrowRight" transform="rotate(90) translate(36 -43)">
    <use xlink:href="#rim"/>
    <path pointer-events="none" fill="none" stroke="white" stroke-width="1.5" d="M0,-3.0v7 M-2.5,-0.5L0,-3.0L2.5,-0.5"/>
  </g>
  <g id="arrowDown" transform="rotate(180) translate(-30 -48)">
    <use xlink:href="#rim"/>
    <path pointer-events="none" fill="none" stroke="white" stroke-width="1.5" d="M0,-3.0v7 M-2.5,-0.5L0,-3.0L2.5,-0.5"/>
  </g>
  <g id="arrowLeft" transform="rotate(270) translate(-36 17)">
    <use xlink:href="#rim"/>
    <path pointer-events="none" fill="none" stroke="white" stroke-width="1.5" d="M0,-3.0v7 M-2.5,-0.5L0,-3.0L2.5,-0.5"/>
  </g>
  <g id="resetDef">
    <use xlink:href="#rim2" fill="#404040"><set attributeName="fill" to="#808080" begin="reset.mouseover" end="reset.mouseout"/></use>
  </g>
</defs>
<script type="application/ecmascript">
var viewWidth = 1301;
var viewHeight = 202;
var sectionId = 'dynsection-1';
</script>
<script type="application/ecmascript" xlink:href="svg.min.js"/>
<svg id="graph" class="graph">
<g id="viewport">
<title>depicture_menu::presentations::view_models::operations::detail_operation_menu::menu_operator_impl</title>
<!-- Node1 -->
<g id="Node000001" class="node">
<title>Node1</title>
<g id="a_Node000001"><a xlink:title=" ">
<polygon fill="#999999" stroke="#666666" points="1293,-130 1143.5,-130 1143.5,-74 1293,-74 1293,-130"/>
<text xml:space="preserve" text-anchor="start" x="1151.5" y="-116.5" font-family="Helvetica,sans-Serif" font-size="10.00">depicture_menu::presentations</text>
<text xml:space="preserve" text-anchor="start" x="1151.5" y="-104.5" font-family="Helvetica,sans-Serif" font-size="10.00">::view_models::operations</text>
<text xml:space="preserve" text-anchor="start" x="1151.5" y="-92.5" font-family="Helvetica,sans-Serif" font-size="10.00">::detail_operation_menu::menu</text>
<text xml:space="preserve" text-anchor="middle" x="1218.25" y="-80.5" font-family="Helvetica,sans-Serif" font-size="10.00">_operator_impl</text>
</a>
</g>
</g>
<!-- Node2 -->
<g id="Node000002" class="node">
<title>Node2</title>
<g id="a_Node000002"><a xlink:href="structdepicture__menu_1_1domain_1_1menu_1_1radialmenu.html" target="_top" xlink:title=" ">
<polygon fill="white" stroke="#666666" points="1041.12,-180 918.62,-180 918.62,-148 1041.12,-148 1041.12,-180"/>
<text xml:space="preserve" text-anchor="start" x="926.62" y="-166.5" font-family="Helvetica,sans-Serif" font-size="10.00">depicture_menu::domain</text>
<text xml:space="preserve" text-anchor="middle" x="979.88" y="-154.5" font-family="Helvetica,sans-Serif" font-size="10.00">::menu::radialmenu</text>
</a>
</g>
</g>
<!-- Node2&#45;&gt;Node1 -->
<g id="edge1_Node000001_Node000002" class="edge">
<title>Node2&#45;&gt;Node1</title>
<g id="a_edge1_Node000001_Node000002"><a xlink:title=" ">
<path fill="none" stroke="#9a32cd" stroke-dasharray="5,2" d="M1052.25,-145.28C1081.05,-137.72 1114.28,-129.01 1143.34,-121.39"/>
<polygon fill="#9a32cd" stroke="#9a32cd" points="1051.69,-141.81 1042.9,-147.73 1053.47,-148.58 1051.69,-141.81"/>
</a>
</g>
<text xml:space="preserve" text-anchor="start" x="1081.62" y="-145.88" font-family="Helvetica,sans-Serif" font-size="10.00" fill="grey">value_</text>
</g>
<!-- Node3 -->
<g id="Node000003" class="node">
<title>Node3</title>
<g id="a_Node000003"><a xlink:href="structdepicture__menu_1_1domain_1_1models_1_1base_1_1entity__base.html" target="_top" xlink:title=" ">
<polygon fill="white" stroke="#666666" points="751.75,-186 621,-186 621,-142 751.75,-142 751.75,-186"/>
<text xml:space="preserve" text-anchor="start" x="629" y="-172.5" font-family="Helvetica,sans-Serif" font-size="10.00">models::entity_base</text>
<text xml:space="preserve" text-anchor="start" x="629" y="-160.5" font-family="Helvetica,sans-Serif" font-size="10.00">&lt; detail_menu::radialmenu</text>
<text xml:space="preserve" text-anchor="middle" x="686.38" y="-148.5" font-family="Helvetica,sans-Serif" font-size="10.00">_data, menu_id &gt;</text>
</a>
</g>
</g>
<!-- Node3&#45;&gt;Node2 -->
<g id="edge2_Node000002_Node000003" class="edge">
<title>Node3&#45;&gt;Node2</title>
<g id="a_edge2_Node000002_Node000003"><a xlink:title=" ">
<path fill="none" stroke="#63b8ff" d="M763.41,-164C811.71,-164 873.37,-164 918.34,-164"/>
<polygon fill="#63b8ff" stroke="#63b8ff" points="763.58,-160.5 753.58,-164 763.58,-167.5 763.58,-160.5"/>
</a>
</g>
</g>
<!-- Node4 -->
<g id="Node000004" class="node">
<title>Node4</title>
<g id="a_Node000004"><a xlink:title=" ">
<polygon fill="white" stroke="#666666" points="491.65,-194 462.85,-194 462.85,-174 491.65,-174 491.65,-194"/>
<text xml:space="preserve" text-anchor="middle" x="477.25" y="-180.5" font-family="Helvetica,sans-Serif" font-size="10.00">V</text>
</a>
</g>
</g>
<!-- Node4&#45;&gt;Node3 -->
<g id="edge3_Node000003_Node000004" class="edge">
<title>Node4&#45;&gt;Node3</title>
<g id="a_edge3_Node000003_Node000004"><a xlink:title=" ">
<path fill="none" stroke="darkgreen" d="M503.28,-181.58C532.18,-178.79 580.83,-174.09 620.58,-170.26"/>
<polygon fill="darkgreen" stroke="darkgreen" points="502.96,-178.1 493.35,-182.54 503.64,-185.06 502.96,-178.1"/>
</a>
</g>
</g>
<!-- Node5 -->
<g id="Node000005" class="node">
<title>Node5</title>
<g id="a_Node000005"><a xlink:href="structdepicture__menu_1_1domain_1_1models_1_1base_1_1entity__base.html" target="_top" xlink:title=" ">
<polygon fill="white" stroke="#666666" points="538.5,-156 416,-156 416,-112 538.5,-112 538.5,-156"/>
<text xml:space="preserve" text-anchor="start" x="424" y="-142.5" font-family="Helvetica,sans-Serif" font-size="10.00">depicture_menu::domain</text>
<text xml:space="preserve" text-anchor="start" x="424" y="-130.5" font-family="Helvetica,sans-Serif" font-size="10.00">::models::base::entity</text>
<text xml:space="preserve" text-anchor="middle" x="477.25" y="-118.5" font-family="Helvetica,sans-Serif" font-size="10.00">_base&lt; Value, IdTag &gt;</text>
</a>
</g>
</g>
<!-- Node5&#45;&gt;Node3 -->
<g id="edge4_Node000003_Node000005" class="edge">
<title>Node5&#45;&gt;Node3</title>
<g id="a_edge4_Node000003_Node000005"><a xlink:title=" ">
<path fill="none" stroke="orange" stroke-dasharray="5,2" d="M550.12,-142.71C567.45,-144.95 585.9,-147.45 603,-150 608.74,-150.86 614.7,-151.79 620.66,-152.75"/>
<polygon fill="orange" stroke="orange" points="550.78,-139.26 540.42,-141.47 549.89,-146.21 550.78,-139.26"/>
</a>
</g>
<text xml:space="preserve" text-anchor="start" x="559.5" y="-155.5" font-family="Helvetica,sans-Serif" font-size="10.00" fill="grey">&lt; V, ID &gt;</text>
</g>
<!-- Node6 -->
<g id="Node000006" class="node">
<title>Node6</title>
<g id="a_Node000006"><a xlink:title=" ">
<polygon fill="white" stroke="#666666" points="320,-169 280,-169 280,-149 320,-149 320,-169"/>
<text xml:space="preserve" text-anchor="middle" x="300" y="-155.5" font-family="Helvetica,sans-Serif" font-size="10.00">Value</text>
</a>
</g>
</g>
<!-- Node6&#45;&gt;Node5 -->
<g id="edge5_Node000005_Node000006" class="edge">
<title>Node6&#45;&gt;Node5</title>
<g id="a_edge5_Node000005_Node000006"><a xlink:title=" ">
<path fill="none" stroke="darkgreen" d="M331.63,-154.63C354.83,-151.32 387.45,-146.67 415.84,-142.62"/>
<polygon fill="darkgreen" stroke="darkgreen" points="331.33,-151.14 321.92,-156.02 332.32,-158.07 331.33,-151.14"/>
</a>
</g>
</g>
<!-- Node7 -->
<g id="Node000007" class="node">
<title>Node7</title>
<g id="a_Node000007"><a xlink:href="structdepicture__menu_1_1domain_1_1models_1_1entity__id__base.html" target="_top" xlink:title=" ">
<polygon fill="white" stroke="#666666" points="361.25,-131 238.75,-131 238.75,-87 361.25,-87 361.25,-131"/>
<text xml:space="preserve" text-anchor="start" x="246.75" y="-117.5" font-family="Helvetica,sans-Serif" font-size="10.00">depicture_menu::domain</text>
<text xml:space="preserve" text-anchor="start" x="246.75" y="-105.5" font-family="Helvetica,sans-Serif" font-size="10.00">::models::entity_id_base</text>
<text xml:space="preserve" text-anchor="middle" x="300" y="-93.5" font-family="Helvetica,sans-Serif" font-size="10.00">&lt; standard_tag &gt;</text>
</a>
</g>
</g>
<!-- Node7&#45;&gt;Node5 -->
<g id="edge6_Node000005_Node000007" class="edge">
<title>Node7&#45;&gt;Node5</title>
<g id="a_edge6_Node000005_Node000007"><a xlink:title=" ">
<path fill="none" stroke="#9a32cd" stroke-dasharray="5,2" d="M372.59,-119.21C386.84,-121.25 401.68,-123.36 415.53,-125.34"/>
<polygon fill="#9a32cd" stroke="#9a32cd" points="373.2,-115.76 362.81,-117.82 372.21,-122.69 373.2,-115.76"/>
</a>
</g>
<text xml:space="preserve" text-anchor="start" x="382.25" y="-127.75" font-family="Helvetica,sans-Serif" font-size="10.00" fill="grey">id_</text>
</g>
<!-- Node8 -->
<g id="Node000008" class="node">
<title>Node8</title>
<g id="a_Node000008"><a xlink:href="structdepicture__menu_1_1domain_1_1models_1_1entity__id__base.html" target="_top" xlink:title=" ">
<polygon fill="white" stroke="#666666" points="122.5,-131 0,-131 0,-87 122.5,-87 122.5,-131"/>
<text xml:space="preserve" text-anchor="start" x="8" y="-117.5" font-family="Helvetica,sans-Serif" font-size="10.00">depicture_menu::domain</text>
<text xml:space="preserve" text-anchor="start" x="8" y="-105.5" font-family="Helvetica,sans-Serif" font-size="10.00">::models::entity_id_base</text>
<text xml:space="preserve" text-anchor="middle" x="61.25" y="-93.5" font-family="Helvetica,sans-Serif" font-size="10.00">&lt; Tag &gt;</text>
</a>
</g>
</g>
<!-- Node8&#45;&gt;Node7 -->
<g id="edge7_Node000007_Node000008" class="edge">
<title>Node8&#45;&gt;Node7</title>
<g id="a_edge7_Node000007_Node000008"><a xlink:title=" ">
<path fill="none" stroke="orange" stroke-dasharray="5,2" d="M134.42,-109C167.71,-109 206.78,-109 238.5,-109"/>
<polygon fill="orange" stroke="orange" points="134.43,-105.5 124.43,-109 134.43,-112.5 134.43,-105.5"/>
</a>
</g>
<text xml:space="preserve" text-anchor="start" x="143.5" y="-114.5" font-family="Helvetica,sans-Serif" font-size="10.00" fill="grey">&lt; standard_tag &gt;</text>
</g>
<!-- Node9 -->
<g id="Node000009" class="node">
<title>Node9</title>
<g id="a_Node000009"><a xlink:href="structdepicture__menu_1_1usecase_1_1query__base.html" target="_top" xlink:title=" ">
<polygon fill="white" stroke="#666666" points="1043.75,-130 916,-130 916,-74 1043.75,-74 1043.75,-130"/>
<text xml:space="preserve" text-anchor="start" x="924" y="-116.5" font-family="Helvetica,sans-Serif" font-size="10.00">depicture_menu::usecase</text>
<text xml:space="preserve" text-anchor="start" x="924" y="-104.5" font-family="Helvetica,sans-Serif" font-size="10.00">::query_base&lt; depicture</text>
<text xml:space="preserve" text-anchor="start" x="924" y="-92.5" font-family="Helvetica,sans-Serif" font-size="10.00">_menu::domain::actions::</text>
<text xml:space="preserve" text-anchor="middle" x="979.88" y="-80.5" font-family="Helvetica,sans-Serif" font-size="10.00">v2::publisher &gt;</text>
</a>
</g>
</g>
<!-- Node9&#45;&gt;Node1 -->
<g id="edge8_Node000001_Node000009" class="edge">
<title>Node9&#45;&gt;Node1</title>
<g id="a_edge8_Node000001_Node000009"><a xlink:title=" ">
<path fill="none" stroke="#9a32cd" stroke-dasharray="5,2" d="M1055.55,-102C1083.54,-102 1115.32,-102 1143.25,-102"/>
<polygon fill="#9a32cd" stroke="#9a32cd" points="1055.73,-98.5 1045.73,-102 1055.73,-105.5 1055.73,-98.5"/>
</a>
</g>
<text xml:space="preserve" text-anchor="start" x="1071.88" y="-107.5" font-family="Helvetica,sans-Serif" font-size="10.00" fill="grey">act_query_</text>
</g>
<!-- Node10 -->
<g id="Node000010" class="node">
<title>Node10</title>
<g id="a_Node000010"><a xlink:href="structdepicture__menu_1_1usecase_1_1query__base.html" target="_top" xlink:title=" ">
<polygon fill="white" stroke="#666666" points="750.25,-80 622.5,-80 622.5,-48 750.25,-48 750.25,-80"/>
<text xml:space="preserve" text-anchor="start" x="630.5" y="-66.5" font-family="Helvetica,sans-Serif" font-size="10.00">depicture_menu::usecase</text>
<text xml:space="preserve" text-anchor="middle" x="686.38" y="-54.5" font-family="Helvetica,sans-Serif" font-size="10.00">::query_base&lt; T, ID &gt;</text>
</a>
</g>
</g>
<!-- Node10&#45;&gt;Node9 -->
<g id="edge9_Node000009_Node000010" class="edge">
<title>Node10&#45;&gt;Node9</title>
<g id="a_edge9_Node000009_Node000010"><a xlink:title=" ">
<path fill="none" stroke="orange" stroke-dasharray="5,2" d="M761.8,-73.7C809.42,-79.91 870.51,-87.87 915.75,-93.77"/>
<polygon fill="orange" stroke="orange" points="762.5,-70.26 752.13,-72.44 761.59,-77.2 762.5,-70.26"/>
</a>
</g>
<text xml:space="preserve" text-anchor="start" x="773.88" y="-112.27" font-family="Helvetica,sans-Serif" font-size="10.00" fill="grey">&lt; depicture_menu::domain</text>
<text xml:space="preserve" text-anchor="start" x="773.88" y="-96.27" font-family="Helvetica,sans-Serif" font-size="10.00" fill="grey">  ::actions::v2::publisher &gt;</text>
</g>
<!-- Node11 -->
<g id="Node000011" class="node">
<title>Node11</title>
<g id="a_Node000011"><a xlink:href="structdepicture__menu_1_1usecase_1_1query__base.html" target="_top" xlink:title=" ">
<polygon fill="white" stroke="#666666" points="1048.25,-56 911.5,-56 911.5,0 1048.25,0 1048.25,-56"/>
<text xml:space="preserve" text-anchor="start" x="919.5" y="-42.5" font-family="Helvetica,sans-Serif" font-size="10.00">depicture_menu::usecase</text>
<text xml:space="preserve" text-anchor="start" x="919.5" y="-30.5" font-family="Helvetica,sans-Serif" font-size="10.00">::query_base&lt; depicture</text>
<text xml:space="preserve" text-anchor="start" x="919.5" y="-18.5" font-family="Helvetica,sans-Serif" font-size="10.00">_menu::domain::commands</text>
<text xml:space="preserve" text-anchor="middle" x="979.88" y="-6.5" font-family="Helvetica,sans-Serif" font-size="10.00">::command &gt;</text>
</a>
</g>
</g>
<!-- Node10&#45;&gt;Node11 -->
<g id="edge11_Node000011_Node000010" class="edge">
<title>Node10&#45;&gt;Node11</title>
<g id="a_edge11_Node000011_Node000010"><a xlink:title=" ">
<path fill="none" stroke="orange" stroke-dasharray="5,2" d="M743.14,-44.28C751.95,-41.78 761.03,-39.56 769.75,-38 816.44,-29.66 869.88,-27.22 911.04,-26.84"/>
<polygon fill="orange" stroke="orange" points="742.2,-40.91 733.62,-47.13 744.2,-47.61 742.2,-40.91"/>
</a>
</g>
<text xml:space="preserve" text-anchor="start" x="772.75" y="-59.5" font-family="Helvetica,sans-Serif" font-size="10.00" fill="grey">&lt; depicture_menu::domain</text>
<text xml:space="preserve" text-anchor="start" x="772.75" y="-43.5" font-family="Helvetica,sans-Serif" font-size="10.00" fill="grey">  ::commands::command &gt;</text>
</g>
<!-- Node11&#45;&gt;Node1 -->
<g id="edge10_Node000001_Node000011" class="edge">
<title>Node11&#45;&gt;Node1</title>
<g id="a_edge10_Node000001_Node000011"><a xlink:title=" ">
<path fill="none" stroke="#9a32cd" stroke-dasharray="5,2" d="M1059.58,-52.64C1086.58,-61.09 1116.68,-70.52 1143.29,-78.85"/>
<polygon fill="#9a32cd" stroke="#9a32cd" points="1060.64,-49.31 1050.06,-49.66 1058.55,-55.99 1060.64,-49.31"/>
</a>
</g>
<text xml:space="preserve" text-anchor="start" x="1069.25" y="-77.13" font-family="Helvetica,sans-Serif" font-size="10.00" fill="grey">com_query_</text>
</g>
</g>
</svg>

<g id="navigator" transform="translate(0 0)" fill="#404254">
  <rect fill="#f2f5e9" fill-opacity="0.5" stroke="#606060" stroke-width=".5" x="0" y="0" width="60" height="60"/>
  <use id="zoomplus" xlink:href="#zoomPlus" x="17" y="9" onmousedown="handleZoom(evt,'in')"/>
  <use id="zoomminus" xlink:href="#zoomMin" x="42" y="9" onmousedown="handleZoom(evt,'out')"/>
  <use id="reset" xlink:href="#resetDef" x="30" y="36" onmousedown="handleReset()"/>
   <use id="arrowup" xlink:href="#arrowUp" x="0" y="0" onmousedown="handlePan(0,-1)"/>
  <use id="arrowright" xlink:href="#arrowRight" x="0" y="0" onmousedown="handlePan(1,0)"/>
  <use id="arrowdown" xlink:href="#arrowDown" x="0" y="0" onmousedown="handlePan(0,1)"/>
  <use id="arrowleft" xlink:href="#arrowLeft" x="0" y="0" onmousedown="handlePan(-1,0)"/>
</g>
<svg viewBox="0 0 15 15" width="100%" height="30px" preserveAspectRatio="xMaxYMin meet">
 <g id="arrow_out" transform="scale(0.3 0.3)">
  <a xlink:href="structdepicture__menu_1_1presentations_1_1view__models_1_1operations_1_1detail__operation__menu_8cc0c46beaa4613d16c1a7959754a905_org.svg" target="_base">
   <rect id="button" ry="5" rx="5" y="6" x="6" height="38" width="38"
        fill="#f2f5e9" fill-opacity="0.5" stroke="#606060" stroke-width="1.0"/>
   <path id="arrow"
     d="M 11.500037,31.436501 C 11.940474,20.09759 22.043105,11.32322 32.158766,21.979434 L 37.068811,17.246167 C 37.068811,17.246167 37.088388,32 37.088388,32 L 22.160133,31.978069 C 22.160133,31.978069 26.997745,27.140456 26.997745,27.140456 C 18.528582,18.264221 13.291696,25.230495 11.500037,31.436501 z"
     style="fill:#404040;"/>
  </a>
 </g>
</svg>

<style type='text/css'>
<![CDATA[
[data-mouse-over-selected='false'] { opacity: 0.7; }
[data-mouse-over-selected='true']  { opacity: 1.0; }
]]>
</style>
<script type="application/ecmascript"><![CDATA[
document.addEventListener('DOMContentLoaded', (event) => {
  highlightEdges();
  highlightAdjacentNodes();
});
]]></script>
</svg>
