<?xml version="1.0" encoding="UTF-8" standalone="no"?>
<!DOCTYPE svg PUBLIC "-//W3C//DTD SVG 1.1//EN"
 "http://www.w3.org/Graphics/SVG/1.1/DTD/svg11.dtd">
<!-- Generated by graphviz version 14.1.2 (20260124.0452)
 -->
<!-- Title: depicture_menu::conv_mapping::buildin::field_name_reader::operator() Pages: 1 -->
<svg width="633pt" height="120pt"
 viewBox="0.00 0.00 633.00 120.00" xmlns="http://www.w3.org/2000/svg" xmlns:xlink="http://www.w3.org/1999/xlink">
<g id="graph0" class="graph" transform="scale(1 1) rotate(0) translate(4 116)">
<title>depicture_menu::conv_mapping::buildin::field_name_reader::operator()</title>
<!-- Node1 -->
<g id="Node000001" class="node">
<title>Node1</title>
<g id="a_Node000001"><a xlink:title=" ">
<polygon fill="#999999" stroke="#666666" points="124.75,-60 0,-60 0,-16 124.75,-16 124.75,-60"/>
<text xml:space="preserve" text-anchor="start" x="8" y="-46.5" font-family="Helvetica,sans-Serif" font-size="10.00">depicture_menu::conv</text>
<text xml:space="preserve" text-anchor="start" x="8" y="-34.5" font-family="Helvetica,sans-Serif" font-size="10.00">_mapping::buildin::field</text>
<text xml:space="preserve" text-anchor="middle" x="62.38" y="-22.5" font-family="Helvetica,sans-Serif" font-size="10.00">_name_reader::operator()</text>
</a>
</g>
</g>
<!-- Node2 -->
<g id="Node000002" class="node">
<title>Node2</title>
<g id="a_Node000002"><a xlink:href="namespacedepicture__menu_1_1reflection.html#aaf69402efde67d3327b0a5878e0bb46c" target="_top" xlink:title=" ">
<polygon fill="white" stroke="#666666" points="291.5,-54 160.75,-54 160.75,-22 291.5,-22 291.5,-54"/>
<text xml:space="preserve" text-anchor="start" x="168.75" y="-40.5" font-family="Helvetica,sans-Serif" font-size="10.00">depicture_menu::reflection</text>
<text xml:space="preserve" text-anchor="middle" x="226.12" y="-28.5" font-family="Helvetica,sans-Serif" font-size="10.00">::access_field</text>
</a>
</g>
</g>
<!-- Node1&#45;&gt;Node2 -->
<g id="edge1_Node000001_Node000002" class="edge">
<title>Node1&#45;&gt;Node2</title>
<g id="a_edge1_Node000001_Node000002"><a xlink:title=" ">
<path fill="none" stroke="#63b8ff" d="M124.99,-38C132.88,-38 141.02,-38 149.11,-38"/>
<polygon fill="#63b8ff" stroke="#63b8ff" points="148.94,-41.5 158.94,-38 148.94,-34.5 148.94,-41.5"/>
</a>
</g>
</g>
<!-- Node3 -->
<g id="Node000003" class="node">
<title>Node3</title>
<g id="a_Node000003"><a xlink:href="namespacedepicture__menu_1_1reflection.html#adb9faa46ece21b7d378d916f04923bbc" target="_top" xlink:title=" ">
<polygon fill="white" stroke="#666666" points="458.25,-76 327.5,-76 327.5,-44 458.25,-44 458.25,-76"/>
<text xml:space="preserve" text-anchor="start" x="335.5" y="-62.5" font-family="Helvetica,sans-Serif" font-size="10.00">depicture_menu::reflection</text>
<text xml:space="preserve" text-anchor="middle" x="392.88" y="-50.5" font-family="Helvetica,sans-Serif" font-size="10.00">::get_field_index</text>
</a>
</g>
</g>
<!-- Node2&#45;&gt;Node3 -->
<g id="edge2_Node000002_Node000003" class="edge">
<title>Node2&#45;&gt;Node3</title>
<g id="a_edge2_Node000002_Node000003"><a xlink:title=" ">
<path fill="none" stroke="#63b8ff" d="M291.77,-46.63C299.67,-47.69 307.8,-48.77 315.85,-49.85"/>
<polygon fill="#63b8ff" stroke="#63b8ff" points="315.27,-53.3 325.65,-51.16 316.2,-46.36 315.27,-53.3"/>
</a>
</g>
</g>
<!-- Node5 -->
<g id="Node000005" class="node">
<title>Node5</title>
<g id="a_Node000005"><a xlink:href="namespacedepicture__menu_1_1reflection.html#a0b2b3bbe6bc85746a0f887135f697715" target="_top" xlink:title=" ">
<polygon fill="white" stroke="#666666" points="625,-32 494.25,-32 494.25,0 625,0 625,-32"/>
<text xml:space="preserve" text-anchor="start" x="502.25" y="-18.5" font-family="Helvetica,sans-Serif" font-size="10.00">depicture_menu::reflection</text>
<text xml:space="preserve" text-anchor="middle" x="559.62" y="-6.5" font-family="Helvetica,sans-Serif" font-size="10.00">::has_field</text>
</a>
</g>
</g>
<!-- Node2&#45;&gt;Node5 -->
<g id="edge6_Node000002_Node000005" class="edge">
<title>Node2&#45;&gt;Node5</title>
<g id="a_edge6_Node000002_Node000005"><a xlink:title=" ">
<path fill="none" stroke="#63b8ff" d="M291.83,-33.71C346.5,-30.08 424.89,-24.88 482.56,-21.05"/>
<polygon fill="#63b8ff" stroke="#63b8ff" points="482.55,-24.56 492.29,-20.4 482.08,-17.57 482.55,-24.56"/>
</a>
</g>
</g>
<!-- Node4 -->
<g id="Node000004" class="node">
<title>Node4</title>
<g id="a_Node000004"><a xlink:href="namespacedepicture__menu_1_1reflection_1_1detail__reflection.html#acf183d0f4dd4183a2334fe27a68f9b1e" target="_top" xlink:title=" ">
<polygon fill="white" stroke="#666666" points="625,-94 494.25,-94 494.25,-50 625,-50 625,-94"/>
<text xml:space="preserve" text-anchor="start" x="502.25" y="-80.5" font-family="Helvetica,sans-Serif" font-size="10.00">depicture_menu::reflection</text>
<text xml:space="preserve" text-anchor="start" x="502.25" y="-68.5" font-family="Helvetica,sans-Serif" font-size="10.00">::detail_reflection::get</text>
<text xml:space="preserve" text-anchor="middle" x="559.62" y="-56.5" font-family="Helvetica,sans-Serif" font-size="10.00">_field_index</text>
</a>
</g>
</g>
<!-- Node3&#45;&gt;Node4 -->
<g id="edge3_Node000003_Node000004" class="edge">
<title>Node3&#45;&gt;Node4</title>
<g id="a_edge3_Node000003_Node000004"><a xlink:title=" ">
<path fill="none" stroke="#63b8ff" d="M458.52,-64.71C466.42,-65.28 474.55,-65.88 482.6,-66.46"/>
<polygon fill="#63b8ff" stroke="#63b8ff" points="482.16,-69.94 492.39,-67.18 482.67,-62.96 482.16,-69.94"/>
</a>
</g>
</g>
<!-- Node3&#45;&gt;Node5 -->
<g id="edge5_Node000003_Node000005" class="edge">
<title>Node3&#45;&gt;Node5</title>
<g id="a_edge5_Node000003_Node000005"><a xlink:title=" ">
<path fill="none" stroke="#63b8ff" d="M455.22,-43.62C465.23,-40.94 475.69,-38.15 485.94,-35.41"/>
<polygon fill="#63b8ff" stroke="#63b8ff" points="486.73,-38.82 495.49,-32.86 484.93,-32.06 486.73,-38.82"/>
</a>
</g>
</g>
<!-- Node4&#45;&gt;Node4 -->
<g id="edge4_Node000004_Node000004" class="edge">
<title>Node4&#45;&gt;Node4</title>
<g id="a_edge4_Node000004_Node000004"><a xlink:title=" ">
<path fill="none" stroke="#63b8ff" d="M528.73,-94.21C526.2,-103.8 536.5,-112 559.62,-112 572.99,-112 582.07,-109.26 586.87,-105.09"/>
<polygon fill="#63b8ff" stroke="#63b8ff" points="590.18,-106.24 590.04,-95.65 583.54,-104.02 590.18,-106.24"/>
</a>
</g>
</g>
</g>
</svg>
