<?xml version="1.0" encoding="UTF-8" standalone="no"?>
<!DOCTYPE svg PUBLIC "-//W3C//DTD SVG 1.1//EN"
 "http://www.w3.org/Graphics/SVG/1.1/DTD/svg11.dtd">
<!-- Generated by graphviz version 14.1.2 (20260124.0452)
 -->
<!-- Title: depicture_menu::presentations::view_models::operations::detail_operation_menu::menu_erase_operator_impl Pages: 1 -->
<svg width="307pt" height="525pt"
 viewBox="0.00 0.00 307.00 525.00" xmlns="http://www.w3.org/2000/svg" xmlns:xlink="http://www.w3.org/1999/xlink">
<g id="graph0" class="graph" transform="scale(1 1) rotate(0) translate(4 521)">
<title>depicture_menu::presentations::view_models::operations::detail_operation_menu::menu_erase_operator_impl</title>
<!-- Node1 -->
<g id="Node000001" class="node">
<title>Node1</title>
<g id="a_Node000001"><a xlink:title=" ">
<polygon fill="#999999" stroke="#666666" points="149.5,-56 0,-56 0,0 149.5,0 149.5,-56"/>
<text xml:space="preserve" text-anchor="start" x="8" y="-42.5" font-family="Helvetica,sans-Serif" font-size="10.00">depicture_menu::presentations</text>
<text xml:space="preserve" text-anchor="start" x="8" y="-30.5" font-family="Helvetica,sans-Serif" font-size="10.00">::view_models::operations</text>
<text xml:space="preserve" text-anchor="start" x="8" y="-18.5" font-family="Helvetica,sans-Serif" font-size="10.00">::detail_operation_menu::menu</text>
<text xml:space="preserve" text-anchor="middle" x="74.75" y="-6.5" font-family="Helvetica,sans-Serif" font-size="10.00">_erase_operator_impl</text>
</a>
</g>
</g>
<!-- Node2 -->
<g id="Node000002" class="node">
<title>Node2</title>
<g id="a_Node000002"><a xlink:href="structdepicture__menu_1_1domain_1_1menu_1_1radialmenu.html" target="_top" xlink:title=" ">
<polygon fill="white" stroke="#666666" points="136,-142 13.5,-142 13.5,-110 136,-110 136,-142"/>
<text xml:space="preserve" text-anchor="start" x="21.5" y="-128.5" font-family="Helvetica,sans-Serif" font-size="10.00">depicture_menu::domain</text>
<text xml:space="preserve" text-anchor="middle" x="74.75" y="-116.5" font-family="Helvetica,sans-Serif" font-size="10.00">::menu::radialmenu</text>
</a>
</g>
</g>
<!-- Node2&#45;&gt;Node1 -->
<g id="edge1_Node000001_Node000002" class="edge">
<title>Node2&#45;&gt;Node1</title>
<g id="a_edge1_Node000001_Node000002"><a xlink:title=" ">
<path fill="none" stroke="#9a32cd" stroke-dasharray="5,2" d="M74.75,-98.46C74.75,-85.37 74.75,-69.6 74.75,-56.4"/>
<polygon fill="#9a32cd" stroke="#9a32cd" points="71.25,-98.06 74.75,-108.06 78.25,-98.06 71.25,-98.06"/>
</a>
</g>
<text xml:space="preserve" text-anchor="start" x="77.75" y="-79.5" font-family="Helvetica,sans-Serif" font-size="10.00" fill="grey">value_</text>
</g>
<!-- Node3 -->
<g id="Node000003" class="node">
<title>Node3</title>
<g id="a_Node000003"><a xlink:href="structdepicture__menu_1_1domain_1_1models_1_1base_1_1entity__base.html" target="_top" xlink:title=" ">
<polygon fill="white" stroke="#666666" points="140.12,-223 9.38,-223 9.38,-179 140.12,-179 140.12,-223"/>
<text xml:space="preserve" text-anchor="start" x="17.38" y="-209.5" font-family="Helvetica,sans-Serif" font-size="10.00">models::entity_base</text>
<text xml:space="preserve" text-anchor="start" x="17.38" y="-197.5" font-family="Helvetica,sans-Serif" font-size="10.00">&lt; detail_menu::radialmenu</text>
<text xml:space="preserve" text-anchor="middle" x="74.75" y="-185.5" font-family="Helvetica,sans-Serif" font-size="10.00">_data, menu_id &gt;</text>
</a>
</g>
</g>
<!-- Node3&#45;&gt;Node2 -->
<g id="edge2_Node000002_Node000003" class="edge">
<title>Node3&#45;&gt;Node2</title>
<g id="a_edge2_Node000002_Node000003"><a xlink:title=" ">
<path fill="none" stroke="#63b8ff" d="M74.75,-167.56C74.75,-158.66 74.75,-149.44 74.75,-142.04"/>
<polygon fill="#63b8ff" stroke="#63b8ff" points="71.25,-167.37 74.75,-177.37 78.25,-167.37 71.25,-167.37"/>
</a>
</g>
</g>
<!-- Node4 -->
<g id="Node000004" class="node">
<title>Node4</title>
<g id="a_Node000004"><a xlink:title=" ">
<polygon fill="white" stroke="#666666" points="73.15,-309 44.35,-309 44.35,-289 73.15,-289 73.15,-309"/>
<text xml:space="preserve" text-anchor="middle" x="58.75" y="-295.5" font-family="Helvetica,sans-Serif" font-size="10.00">V</text>
</a>
</g>
</g>
<!-- Node4&#45;&gt;Node3 -->
<g id="edge3_Node000003_Node000004" class="edge">
<title>Node4&#45;&gt;Node3</title>
<g id="a_edge3_Node000003_Node000004"><a xlink:title=" ">
<path fill="none" stroke="darkgreen" d="M62.17,-277.5C64.84,-261.49 68.53,-239.3 71.23,-223.13"/>
<polygon fill="darkgreen" stroke="darkgreen" points="58.72,-276.86 60.53,-287.3 65.63,-278.01 58.72,-276.86"/>
</a>
</g>
</g>
<!-- Node5 -->
<g id="Node000005" class="node">
<title>Node5</title>
<g id="a_Node000005"><a xlink:href="structdepicture__menu_1_1domain_1_1models_1_1base_1_1entity__base.html" target="_top" xlink:title=" ">
<polygon fill="white" stroke="#666666" points="214,-321 91.5,-321 91.5,-277 214,-277 214,-321"/>
<text xml:space="preserve" text-anchor="start" x="99.5" y="-307.5" font-family="Helvetica,sans-Serif" font-size="10.00">depicture_menu::domain</text>
<text xml:space="preserve" text-anchor="start" x="99.5" y="-295.5" font-family="Helvetica,sans-Serif" font-size="10.00">::models::base::entity</text>
<text xml:space="preserve" text-anchor="middle" x="152.75" y="-283.5" font-family="Helvetica,sans-Serif" font-size="10.00">_base&lt; Value, IdTag &gt;</text>
</a>
</g>
</g>
<!-- Node5&#45;&gt;Node3 -->
<g id="edge4_Node000003_Node000005" class="edge">
<title>Node5&#45;&gt;Node3</title>
<g id="a_edge4_Node000003_Node000005"><a xlink:title=" ">
<path fill="none" stroke="orange" stroke-dasharray="5,2" d="M128.41,-268.04C116.61,-253.51 102.71,-236.41 92.01,-223.25"/>
<polygon fill="orange" stroke="orange" points="125.46,-269.97 134.48,-275.52 130.9,-265.55 125.46,-269.97"/>
</a>
</g>
<text xml:space="preserve" text-anchor="start" x="123.74" y="-246.5" font-family="Helvetica,sans-Serif" font-size="10.00" fill="grey">&lt; V, ID &gt;</text>
</g>
<!-- Node6 -->
<g id="Node000006" class="node">
<title>Node6</title>
<g id="a_Node000006"><a xlink:title=" ">
<polygon fill="white" stroke="#666666" points="139.75,-407 99.75,-407 99.75,-387 139.75,-387 139.75,-407"/>
<text xml:space="preserve" text-anchor="middle" x="119.75" y="-393.5" font-family="Helvetica,sans-Serif" font-size="10.00">Value</text>
</a>
</g>
</g>
<!-- Node6&#45;&gt;Node5 -->
<g id="edge5_Node000005_Node000006" class="edge">
<title>Node6&#45;&gt;Node5</title>
<g id="a_edge5_Node000005_Node000006"><a xlink:title=" ">
<path fill="none" stroke="darkgreen" d="M126.63,-375.98C132.15,-359.93 139.87,-337.46 145.49,-321.13"/>
<polygon fill="darkgreen" stroke="darkgreen" points="123.35,-374.77 123.41,-385.36 129.97,-377.04 123.35,-374.77"/>
</a>
</g>
</g>
<!-- Node7 -->
<g id="Node000007" class="node">
<title>Node7</title>
<g id="a_Node000007"><a xlink:href="structdepicture__menu_1_1domain_1_1models_1_1entity__id__base.html" target="_top" xlink:title=" ">
<polygon fill="white" stroke="#666666" points="280,-419 157.5,-419 157.5,-375 280,-375 280,-419"/>
<text xml:space="preserve" text-anchor="start" x="165.5" y="-405.5" font-family="Helvetica,sans-Serif" font-size="10.00">depicture_menu::domain</text>
<text xml:space="preserve" text-anchor="start" x="165.5" y="-393.5" font-family="Helvetica,sans-Serif" font-size="10.00">::models::entity_id_base</text>
<text xml:space="preserve" text-anchor="middle" x="218.75" y="-381.5" font-family="Helvetica,sans-Serif" font-size="10.00">&lt; standard_tag &gt;</text>
</a>
</g>
</g>
<!-- Node7&#45;&gt;Node5 -->
<g id="edge6_Node000005_Node000007" class="edge">
<title>Node7&#45;&gt;Node5</title>
<g id="a_edge6_Node000005_Node000007"><a xlink:title=" ">
<path fill="none" stroke="#9a32cd" stroke-dasharray="5,2" d="M197.59,-365.22C187.72,-350.87 176.24,-334.16 167.36,-321.25"/>
<polygon fill="#9a32cd" stroke="#9a32cd" points="194.7,-367.19 203.24,-373.45 200.46,-363.22 194.7,-367.19"/>
</a>
</g>
<text xml:space="preserve" text-anchor="start" x="194.66" y="-344.5" font-family="Helvetica,sans-Serif" font-size="10.00" fill="grey">id_</text>
</g>
<!-- Node8 -->
<g id="Node000008" class="node">
<title>Node8</title>
<g id="a_Node000008"><a xlink:href="structdepicture__menu_1_1domain_1_1models_1_1entity__id__base.html" target="_top" xlink:title=" ">
<polygon fill="white" stroke="#666666" points="280,-517 157.5,-517 157.5,-473 280,-473 280,-517"/>
<text xml:space="preserve" text-anchor="start" x="165.5" y="-503.5" font-family="Helvetica,sans-Serif" font-size="10.00">depicture_menu::domain</text>
<text xml:space="preserve" text-anchor="start" x="165.5" y="-491.5" font-family="Helvetica,sans-Serif" font-size="10.00">::models::entity_id_base</text>
<text xml:space="preserve" text-anchor="middle" x="218.75" y="-479.5" font-family="Helvetica,sans-Serif" font-size="10.00">&lt; Tag &gt;</text>
</a>
</g>
</g>
<!-- Node8&#45;&gt;Node7 -->
<g id="edge7_Node000007_Node000008" class="edge">
<title>Node8&#45;&gt;Node7</title>
<g id="a_edge7_Node000007_Node000008"><a xlink:title=" ">
<path fill="none" stroke="orange" stroke-dasharray="5,2" d="M218.75,-461.55C218.75,-447.59 218.75,-431.66 218.75,-419.25"/>
<polygon fill="orange" stroke="orange" points="215.25,-461.18 218.75,-471.18 222.25,-461.18 215.25,-461.18"/>
</a>
</g>
<text xml:space="preserve" text-anchor="start" x="221.75" y="-442.5" font-family="Helvetica,sans-Serif" font-size="10.00" fill="grey">&lt; standard_tag &gt;</text>
</g>
</g>
</svg>
