<?xml version="1.0" encoding="UTF-8" standalone="no"?>
<!DOCTYPE svg PUBLIC "-//W3C//DTD SVG 1.1//EN"
 "http://www.w3.org/Graphics/SVG/1.1/DTD/svg11.dtd">
<!-- Generated by graphviz version 14.1.2 (20260124.0452)
 -->
<!-- Title: visiter_base&lt; T, Args &gt; Pages: 1 -->
<svg width="125pt" height="102pt"
 viewBox="0.00 0.00 125.00 102.00" xmlns="http://www.w3.org/2000/svg" xmlns:xlink="http://www.w3.org/1999/xlink">
<g id="graph0" class="graph" transform="scale(1 1) rotate(0) translate(4 98)">
<title>visiter_base&lt; T, Args &gt;</title>
<!-- Node1 -->
<g id="Node000001" class="node">
<title>Node1</title>
<g id="a_Node000001"><a xlink:title=" ">
<polygon fill="#999999" stroke="#666666" points="116.5,-20 0,-20 0,0 116.5,0 116.5,-20"/>
<text xml:space="preserve" text-anchor="middle" x="58.25" y="-6.5" font-family="Helvetica,sans-Serif" font-size="10.00">visiter_base&lt; T, Args &gt;</text>
</a>
</g>
</g>
<!-- Node2 -->
<g id="Node000002" class="node">
<title>Node2</title>
<g id="a_Node000002"><a xlink:title=" ">
<polygon fill="white" stroke="#666666" points="53.88,-94 8.62,-94 8.62,-74 53.88,-74 53.88,-94"/>
<text xml:space="preserve" text-anchor="middle" x="31.25" y="-80.5" font-family="Helvetica,sans-Serif" font-size="10.00">Args...</text>
</a>
</g>
</g>
<!-- Node2&#45;&gt;Node1 -->
<g id="edge1_Node000001_Node000002" class="edge">
<title>Node2&#45;&gt;Node1</title>
<g id="a_edge1_Node000001_Node000002"><a xlink:title=" ">
<path fill="none" stroke="#63b8ff" d="M38.74,-63.02C44,-49.01 50.78,-30.93 54.8,-20.19"/>
<polygon fill="#63b8ff" stroke="#63b8ff" points="35.55,-61.58 35.31,-72.17 42.1,-64.04 35.55,-61.58"/>
</a>
</g>
</g>
<!-- Node3 -->
<g id="Node000003" class="node">
<title>Node3</title>
<g id="a_Node000003"><a xlink:title=" ">
<polygon fill="white" stroke="#666666" points="100.65,-94 71.85,-94 71.85,-74 100.65,-74 100.65,-94"/>
<text xml:space="preserve" text-anchor="middle" x="86.25" y="-80.5" font-family="Helvetica,sans-Serif" font-size="10.00">T</text>
</a>
</g>
</g>
<!-- Node3&#45;&gt;Node1 -->
<g id="edge2_Node000001_Node000003" class="edge">
<title>Node3&#45;&gt;Node1</title>
<g id="a_edge2_Node000001_Node000003"><a xlink:title=" ">
<path fill="none" stroke="#9a32cd" stroke-dasharray="5,2" d="M78.48,-63.02C73.03,-49.01 66,-30.93 61.82,-20.19"/>
<polygon fill="#9a32cd" stroke="#9a32cd" points="75.15,-64.13 82.04,-72.18 81.68,-61.59 75.15,-64.13"/>
</a>
</g>
<text xml:space="preserve" text-anchor="start" x="78.58" y="-43.5" font-family="Helvetica,sans-Serif" font-size="10.00" fill="grey">value_</text>
</g>
</g>
</svg>
