<?xml version="1.0" encoding="UTF-8" standalone="no"?>
<!DOCTYPE svg PUBLIC "-//W3C//DTD SVG 1.1//EN"
 "http://www.w3.org/Graphics/SVG/1.1/DTD/svg11.dtd">
<!-- Generated by graphviz version 14.1.2 (20260124.0452)
 -->
<!-- Title: transaction_fixture::setup Pages: 1 -->
<!--zoomable 232 -->

<svg id="main" version="1.1" xmlns="http://www.w3.org/2000/svg" xmlns:xlink="http://www.w3.org/1999/xlink" xml:space="preserve" onload="init(evt)">

<style type="text/css"><![CDATA[
.node, .edge {opacity: 0.7;}
.node.selected, .edge.selected {opacity: 1;}
.edge:hover path { stroke: red; }
.edge:hover polygon { stroke: red; fill: red; }
]]></style>

<defs>
  <circle id="rim" cx="0" cy="0" r="7"/>
  <circle id="rim2" cx="0" cy="0" r="3.5"/>
  <g id="zoomPlus">
    <use xlink:href="#rim" fill="#404040"><set attributeName="fill" to="#808080" begin="zoomplus.mouseover" end="zoomplus.mouseout"/></use>
    <path d="M-4,0h8M0,-4v8" fill="none" stroke="white" stroke-width="1.5" pointer-events="none"/>
  </g>
  <g id="zoomMin">
    <use xlink:href="#rim" fill="#404040"><set attributeName="fill" to="#808080" begin="zoomminus.mouseover" end="zoomminus.mouseout"/></use>
    <path d="M-4,0h8" fill="none" stroke="white" stroke-width="1.5" pointer-events="none"/>
  </g>
  <g id="arrowUp" transform="translate(30 24)">
    <use xlink:href="#rim"/>
    <path pointer-events="none" fill="none" stroke="white" stroke-width="1.5" d="M0,-3.0v7 M-2.5,-0.5L0,-3.0L2.5,-0.5"/>
  </g>
  <g id="arrowRight" transform="rotate(90) translate(36 -43)">
    <use xlink:href="#rim"/>
    <path pointer-events="none" fill="none" stroke="white" stroke-width="1.5" d="M0,-3.0v7 M-2.5,-0.5L0,-3.0L2.5,-0.5"/>
  </g>
  <g id="arrowDown" transform="rotate(180) translate(-30 -48)">
    <use xlink:href="#rim"/>
    <path pointer-events="none" fill="none" stroke="white" stroke-width="1.5" d="M0,-3.0v7 M-2.5,-0.5L0,-3.0L2.5,-0.5"/>
  </g>
  <g id="arrowLeft" transform="rotate(270) translate(-36 17)">
    <use xlink:href="#rim"/>
    <path pointer-events="none" fill="none" stroke="white" stroke-width="1.5" d="M0,-3.0v7 M-2.5,-0.5L0,-3.0L2.5,-0.5"/>
  </g>
  <g id="resetDef">
    <use xlink:href="#rim2" fill="#404040"><set attributeName="fill" to="#808080" begin="reset.mouseover" end="reset.mouseout"/></use>
  </g>
</defs>
<script type="application/ecmascript">
var viewWidth = 604;
var viewHeight = 232;
var sectionId = 'dynsection-1';
</script>
<script type="application/ecmascript" xlink:href="svg.min.js"/>
<svg id="graph" class="graph">
<g id="viewport">
<title>transaction_fixture::setup</title>
<!-- Node1 -->
<g id="Node000001" class="node">
<title>Node1</title>
<g id="a_Node000001"><a xlink:title=" ">
<polygon fill="#999999" stroke="#666666" points="96.25,-137 0,-137 0,-105 96.25,-105 96.25,-137"/>
<text xml:space="preserve" text-anchor="start" x="8" y="-123.5" font-family="Helvetica,sans-Serif" font-size="10.00">transaction_fixture</text>
<text xml:space="preserve" text-anchor="middle" x="48.12" y="-111.5" font-family="Helvetica,sans-Serif" font-size="10.00">::setup</text>
</a>
</g>
</g>
<!-- Node2 -->
<g id="Node000002" class="node">
<title>Node2</title>
<g id="a_Node000002"><a xlink:href="namespacedepicture__menu_1_1test_1_1test__tools.html#a2875ecae3596246c9cb30ef6f8125ad9" target="_top" xlink:title="add_object">
<polygon fill="white" stroke="#666666" points="262.62,-218 144.62,-218 144.62,-186 262.62,-186 262.62,-218"/>
<text xml:space="preserve" text-anchor="start" x="152.62" y="-204.5" font-family="Helvetica,sans-Serif" font-size="10.00">depicture_menu::test</text>
<text xml:space="preserve" text-anchor="middle" x="203.62" y="-192.5" font-family="Helvetica,sans-Serif" font-size="10.00">::test_tools::add_object</text>
</a>
</g>
</g>
<!-- Node1&#45;&gt;Node2 -->
<g id="edge1_Node000001_Node000002" class="edge">
<title>Node1&#45;&gt;Node2</title>
<g id="a_edge1_Node000001_Node000002"><a xlink:title=" ">
<path fill="none" stroke="#63b8ff" d="M70.09,-137.3C86.37,-149.41 109.88,-165.72 132.25,-177 135.13,-178.45 138.11,-179.85 141.14,-181.21"/>
<polygon fill="#63b8ff" stroke="#63b8ff" points="139.65,-184.38 150.23,-185.02 142.36,-177.92 139.65,-184.38"/>
</a>
</g>
</g>
<!-- Node5 -->
<g id="Node000005" class="node">
<title>Node5</title>
<g id="a_Node000005"><a xlink:href="namespacedepicture__menu_1_1applications.html#abf976474f2417a9e81f90f50563a6e29" target="_top" xlink:title="default_dispatch_handler">
<polygon fill="white" stroke="#666666" points="275,-168 132.25,-168 132.25,-136 275,-136 275,-168"/>
<text xml:space="preserve" text-anchor="start" x="140.25" y="-154.5" font-family="Helvetica,sans-Serif" font-size="10.00">depicture_menu::applications</text>
<text xml:space="preserve" text-anchor="middle" x="203.62" y="-142.5" font-family="Helvetica,sans-Serif" font-size="10.00">::default_dispatch_handler</text>
</a>
</g>
</g>
<!-- Node1&#45;&gt;Node5 -->
<g id="edge4_Node000001_Node000005" class="edge">
<title>Node1&#45;&gt;Node5</title>
<g id="a_edge4_Node000001_Node000005"><a xlink:title=" ">
<path fill="none" stroke="#63b8ff" d="M96.43,-130.55C104.12,-132.11 112.28,-133.75 120.52,-135.42"/>
<polygon fill="#63b8ff" stroke="#63b8ff" points="119.79,-138.84 130.29,-137.39 121.18,-131.98 119.79,-138.84"/>
</a>
</g>
</g>
<!-- Node6 -->
<g id="Node000006" class="node">
<title>Node6</title>
<g id="a_Node000006"><a xlink:href="classdepicture__menu_1_1singleton.html#ab3a8df96e817c8ccb1ab61434f90c416" target="_top" xlink:title=" ">
<polygon fill="white" stroke="#666666" points="268.62,-118 138.62,-118 138.62,-62 268.62,-62 268.62,-118"/>
<text xml:space="preserve" text-anchor="start" x="146.62" y="-104.5" font-family="Helvetica,sans-Serif" font-size="10.00">depicture_menu::singleton</text>
<text xml:space="preserve" text-anchor="start" x="146.62" y="-92.5" font-family="Helvetica,sans-Serif" font-size="10.00">&lt; detail_applications::</text>
<text xml:space="preserve" text-anchor="start" x="146.62" y="-80.5" font-family="Helvetica,sans-Serif" font-size="10.00">gui_dispatch_impl &gt;::get</text>
<text xml:space="preserve" text-anchor="middle" x="203.62" y="-68.5" font-family="Helvetica,sans-Serif" font-size="10.00">_instance</text>
</a>
</g>
</g>
<!-- Node1&#45;&gt;Node6 -->
<g id="edge5_Node000001_Node000006" class="edge">
<title>Node1&#45;&gt;Node6</title>
<g id="a_edge5_Node000001_Node000006"><a xlink:title=" ">
<path fill="none" stroke="#63b8ff" d="M96.43,-111.45C106.14,-109.49 116.58,-107.38 127,-105.27"/>
<polygon fill="#63b8ff" stroke="#63b8ff" points="127.66,-108.71 136.77,-103.3 126.27,-101.85 127.66,-108.71"/>
</a>
</g>
</g>
<!-- Node7 -->
<g id="Node000007" class="node">
<title>Node7</title>
<g id="a_Node000007"><a xlink:href="namespacedepicture__menu_1_1test_1_1test__tools.html#ac8e8ec68fb52f76932c4dabd9648c5d3" target="_top" xlink:title=" ">
<polygon fill="white" stroke="#666666" points="261.88,-44 145.38,-44 145.38,0 261.88,0 261.88,-44"/>
<text xml:space="preserve" text-anchor="start" x="153.38" y="-30.5" font-family="Helvetica,sans-Serif" font-size="10.00">depicture_menu::test</text>
<text xml:space="preserve" text-anchor="start" x="153.38" y="-18.5" font-family="Helvetica,sans-Serif" font-size="10.00">::test_tools::make_test</text>
<text xml:space="preserve" text-anchor="middle" x="203.62" y="-6.5" font-family="Helvetica,sans-Serif" font-size="10.00">_transaction_source</text>
</a>
</g>
</g>
<!-- Node1&#45;&gt;Node7 -->
<g id="edge6_Node000001_Node000007" class="edge">
<title>Node1&#45;&gt;Node7</title>
<g id="a_edge6_Node000001_Node000007"><a xlink:title=" ">
<path fill="none" stroke="#63b8ff" d="M66.23,-104.66C82.34,-89.85 107.62,-68.11 132.25,-53 134.08,-51.87 135.97,-50.77 137.89,-49.68"/>
<polygon fill="#63b8ff" stroke="#63b8ff" points="139.2,-52.95 146.37,-45.15 135.9,-46.78 139.2,-52.95"/>
</a>
</g>
</g>
<!-- Node3 -->
<g id="Node000003" class="node">
<title>Node3</title>
<g id="a_Node000003"><a xlink:href="namespacedepicture__menu_1_1test_1_1test__tools.html#a63e1557e94d169533fc4f8ee80bb12a5" target="_top" xlink:title="do_test_transaction">
<polygon fill="white" stroke="#666666" points="418.5,-224 311,-224 311,-180 418.5,-180 418.5,-224"/>
<text xml:space="preserve" text-anchor="start" x="319" y="-210.5" font-family="Helvetica,sans-Serif" font-size="10.00">depicture_menu::test</text>
<text xml:space="preserve" text-anchor="start" x="319" y="-198.5" font-family="Helvetica,sans-Serif" font-size="10.00">::test_tools::do_test</text>
<text xml:space="preserve" text-anchor="middle" x="364.75" y="-186.5" font-family="Helvetica,sans-Serif" font-size="10.00">_transaction</text>
</a>
</g>
</g>
<!-- Node2&#45;&gt;Node3 -->
<g id="edge2_Node000002_Node000003" class="edge">
<title>Node2&#45;&gt;Node3</title>
<g id="a_edge2_Node000002_Node000003"><a xlink:title=" ">
<path fill="none" stroke="#63b8ff" d="M262.97,-202C274.8,-202 287.31,-202 299.34,-202"/>
<polygon fill="#63b8ff" stroke="#63b8ff" points="299.17,-205.5 309.17,-202 299.17,-198.5 299.17,-205.5"/>
</a>
</g>
</g>
<!-- Node4 -->
<g id="Node000004" class="node">
<title>Node4</title>
<g id="a_Node000004"><a xlink:href="namespacedepicture__menu_1_1repositories.html#a245ba008949ea92721d80817fea6a2c8" target="_top" xlink:title=" ">
<polygon fill="white" stroke="#666666" points="595.75,-218 454.5,-218 454.5,-186 595.75,-186 595.75,-218"/>
<text xml:space="preserve" text-anchor="start" x="462.5" y="-204.5" font-family="Helvetica,sans-Serif" font-size="10.00">depicture_menu::repositories</text>
<text xml:space="preserve" text-anchor="middle" x="525.12" y="-192.5" font-family="Helvetica,sans-Serif" font-size="10.00">::do_transaction</text>
</a>
</g>
</g>
<!-- Node3&#45;&gt;Node4 -->
<g id="edge3_Node000003_Node000004" class="edge">
<title>Node3&#45;&gt;Node4</title>
<g id="a_edge3_Node000003_Node000004"><a xlink:title=" ">
<path fill="none" stroke="#63b8ff" d="M418.93,-202C426.62,-202 434.69,-202 442.78,-202"/>
<polygon fill="#63b8ff" stroke="#63b8ff" points="442.7,-205.5 452.7,-202 442.7,-198.5 442.7,-205.5"/>
</a>
</g>
</g>
</g>
</svg>

<g id="navigator" transform="translate(0 0)" fill="#404254">
  <rect fill="#f2f5e9" fill-opacity="0.5" stroke="#606060" stroke-width=".5" x="0" y="0" width="60" height="60"/>
  <use id="zoomplus" xlink:href="#zoomPlus" x="17" y="9" onmousedown="handleZoom(evt,'in')"/>
  <use id="zoomminus" xlink:href="#zoomMin" x="42" y="9" onmousedown="handleZoom(evt,'out')"/>
  <use id="reset" xlink:href="#resetDef" x="30" y="36" onmousedown="handleReset()"/>
   <use id="arrowup" xlink:href="#arrowUp" x="0" y="0" onmousedown="handlePan(0,-1)"/>
  <use id="arrowright" xlink:href="#arrowRight" x="0" y="0" onmousedown="handlePan(1,0)"/>
  <use id="arrowdown" xlink:href="#arrowDown" x="0" y="0" onmousedown="handlePan(0,1)"/>
  <use id="arrowleft" xlink:href="#arrowLeft" x="0" y="0" onmousedown="handlePan(-1,0)"/>
</g>
<svg viewBox="0 0 15 15" width="100%" height="30px" preserveAspectRatio="xMaxYMin meet">
 <g id="arrow_out" transform="scale(0.3 0.3)">
  <a xlink:href="structtransaction__fixture_a28f55eb8fb92554bc1fb3f57f6b943a6_cgraph_org.svg" target="_base">
   <rect id="button" ry="5" rx="5" y="6" x="6" height="38" width="38"
        fill="#f2f5e9" fill-opacity="0.5" stroke="#606060" stroke-width="1.0"/>
   <path id="arrow"
     d="M 11.500037,31.436501 C 11.940474,20.09759 22.043105,11.32322 32.158766,21.979434 L 37.068811,17.246167 C 37.068811,17.246167 37.088388,32 37.088388,32 L 22.160133,31.978069 C 22.160133,31.978069 26.997745,27.140456 26.997745,27.140456 C 18.528582,18.264221 13.291696,25.230495 11.500037,31.436501 z"
     style="fill:#404040;"/>
  </a>
 </g>
</svg>

<style type='text/css'>
<![CDATA[
[data-mouse-over-selected='false'] { opacity: 0.7; }
[data-mouse-over-selected='true']  { opacity: 1.0; }
]]>
</style>
<script type="application/ecmascript"><![CDATA[
document.addEventListener('DOMContentLoaded', (event) => {
  highlightEdges();
  highlightAdjacentNodes();
});
]]></script>
</svg>
