<?xml version="1.0" encoding="UTF-8" standalone="no"?>
<!DOCTYPE svg PUBLIC "-//W3C//DTD SVG 1.1//EN"
 "http://www.w3.org/Graphics/SVG/1.1/DTD/svg11.dtd">
<!-- Generated by graphviz version 14.1.2 (20260124.0452)
 -->
<!-- Title: depicture_menu::detail::singleton_finalizer::add_finalizer Pages: 1 -->
<!--zoomable 920 -->

<svg id="main" version="1.1" xmlns="http://www.w3.org/2000/svg" xmlns:xlink="http://www.w3.org/1999/xlink" xml:space="preserve" onload="init(evt)">

<style type="text/css"><![CDATA[
.node, .edge {opacity: 0.7;}
.node.selected, .edge.selected {opacity: 1;}
.edge:hover path { stroke: red; }
.edge:hover polygon { stroke: red; fill: red; }
]]></style>

<defs>
  <circle id="rim" cx="0" cy="0" r="7"/>
  <circle id="rim2" cx="0" cy="0" r="3.5"/>
  <g id="zoomPlus">
    <use xlink:href="#rim" fill="#404040"><set attributeName="fill" to="#808080" begin="zoomplus.mouseover" end="zoomplus.mouseout"/></use>
    <path d="M-4,0h8M0,-4v8" fill="none" stroke="white" stroke-width="1.5" pointer-events="none"/>
  </g>
  <g id="zoomMin">
    <use xlink:href="#rim" fill="#404040"><set attributeName="fill" to="#808080" begin="zoomminus.mouseover" end="zoomminus.mouseout"/></use>
    <path d="M-4,0h8" fill="none" stroke="white" stroke-width="1.5" pointer-events="none"/>
  </g>
  <g id="arrowUp" transform="translate(30 24)">
    <use xlink:href="#rim"/>
    <path pointer-events="none" fill="none" stroke="white" stroke-width="1.5" d="M0,-3.0v7 M-2.5,-0.5L0,-3.0L2.5,-0.5"/>
  </g>
  <g id="arrowRight" transform="rotate(90) translate(36 -43)">
    <use xlink:href="#rim"/>
    <path pointer-events="none" fill="none" stroke="white" stroke-width="1.5" d="M0,-3.0v7 M-2.5,-0.5L0,-3.0L2.5,-0.5"/>
  </g>
  <g id="arrowDown" transform="rotate(180) translate(-30 -48)">
    <use xlink:href="#rim"/>
    <path pointer-events="none" fill="none" stroke="white" stroke-width="1.5" d="M0,-3.0v7 M-2.5,-0.5L0,-3.0L2.5,-0.5"/>
  </g>
  <g id="arrowLeft" transform="rotate(270) translate(-36 17)">
    <use xlink:href="#rim"/>
    <path pointer-events="none" fill="none" stroke="white" stroke-width="1.5" d="M0,-3.0v7 M-2.5,-0.5L0,-3.0L2.5,-0.5"/>
  </g>
  <g id="resetDef">
    <use xlink:href="#rim2" fill="#404040"><set attributeName="fill" to="#808080" begin="reset.mouseover" end="reset.mouseout"/></use>
  </g>
</defs>
<script type="application/ecmascript">
var viewWidth = 997;
var viewHeight = 920;
var sectionId = 'dynsection-0';
</script>
<script type="application/ecmascript" xlink:href="svg.min.js"/>
<svg id="graph" class="graph">
<g id="viewport">
<title>depicture_menu::detail::singleton_finalizer::add_finalizer</title>
<!-- Node1 -->
<g id="Node000001" class="node">
<title>Node1</title>
<g id="a_Node000001"><a xlink:title=" ">
<polygon fill="#999999" stroke="#666666" points="989.25,-702 875,-702 875,-658 989.25,-658 989.25,-702"/>
<text xml:space="preserve" text-anchor="start" x="883" y="-688.5" font-family="Helvetica,sans-Serif" font-size="10.00">depicture_menu::detail</text>
<text xml:space="preserve" text-anchor="start" x="883" y="-676.5" font-family="Helvetica,sans-Serif" font-size="10.00">::singleton_finalizer</text>
<text xml:space="preserve" text-anchor="middle" x="932.12" y="-664.5" font-family="Helvetica,sans-Serif" font-size="10.00">::add_finalizer</text>
</a>
</g>
</g>
<!-- Node2 -->
<g id="Node000002" class="node">
<title>Node2</title>
<g id="a_Node000002"><a xlink:href="classdepicture__menu_1_1singleton.html#a9aaa3a707bf7abdb4eb491037c31e16c" target="_top" xlink:title=" ">
<polygon fill="white" stroke="#666666" points="839,-702 709,-702 709,-658 839,-658 839,-702"/>
<text xml:space="preserve" text-anchor="start" x="717" y="-688.5" font-family="Helvetica,sans-Serif" font-size="10.00">depicture_menu::singleton</text>
<text xml:space="preserve" text-anchor="start" x="717" y="-676.5" font-family="Helvetica,sans-Serif" font-size="10.00">&lt; detail_applications::</text>
<text xml:space="preserve" text-anchor="middle" x="774" y="-664.5" font-family="Helvetica,sans-Serif" font-size="10.00">pool &gt;::create</text>
</a>
</g>
</g>
<!-- Node1&#45;&gt;Node2 -->
<g id="edge1_Node000001_Node000002" class="edge">
<title>Node1&#45;&gt;Node2</title>
<g id="a_edge1_Node000001_Node000002"><a xlink:title=" ">
<path fill="none" stroke="#63b8ff" d="M863.51,-680C855.45,-680 847.24,-680 839.23,-680"/>
<polygon fill="#63b8ff" stroke="#63b8ff" points="863.25,-683.5 873.25,-680 863.25,-676.5 863.25,-683.5"/>
</a>
</g>
</g>
<!-- Node3 -->
<g id="Node000003" class="node">
<title>Node3</title>
<g id="a_Node000003"><a xlink:href="classdepicture__menu_1_1singleton.html#ab3a8df96e817c8ccb1ab61434f90c416" target="_top" xlink:title=" ">
<polygon fill="white" stroke="#666666" points="673,-702 543,-702 543,-658 673,-658 673,-702"/>
<text xml:space="preserve" text-anchor="start" x="551" y="-688.5" font-family="Helvetica,sans-Serif" font-size="10.00">depicture_menu::singleton</text>
<text xml:space="preserve" text-anchor="start" x="551" y="-676.5" font-family="Helvetica,sans-Serif" font-size="10.00">&lt; detail_applications::</text>
<text xml:space="preserve" text-anchor="middle" x="608" y="-664.5" font-family="Helvetica,sans-Serif" font-size="10.00">pool &gt;::get_instance</text>
</a>
</g>
</g>
<!-- Node2&#45;&gt;Node3 -->
<g id="edge2_Node000002_Node000003" class="edge">
<title>Node2&#45;&gt;Node3</title>
<g id="a_edge2_Node000002_Node000003"><a xlink:title=" ">
<path fill="none" stroke="#63b8ff" d="M697.41,-680C689.4,-680 681.3,-680 673.43,-680"/>
<polygon fill="#63b8ff" stroke="#63b8ff" points="697.14,-683.5 707.14,-680 697.14,-676.5 697.14,-683.5"/>
</a>
</g>
</g>
<!-- Node4 -->
<g id="Node000004" class="node">
<title>Node4</title>
<g id="a_Node000004"><a xlink:href="close__core_8cpp.html#a43d1acaf526e68ae8f98ce3a5db4f250" target="_top" xlink:title=" ">
<polygon fill="white" stroke="#666666" points="467.25,-734 404,-734 404,-714 467.25,-714 467.25,-734"/>
<text xml:space="preserve" text-anchor="middle" x="435.62" y="-720.5" font-family="Helvetica,sans-Serif" font-size="10.00">close_core</text>
</a>
</g>
</g>
<!-- Node3&#45;&gt;Node4 -->
<g id="edge3_Node000003_Node000004" class="edge">
<title>Node3&#45;&gt;Node4</title>
<g id="a_edge3_Node000003_Node000004"><a xlink:title=" ">
<path fill="none" stroke="#63b8ff" d="M531.56,-699.48C508.89,-705.34 485.29,-711.43 467.29,-716.08"/>
<polygon fill="#63b8ff" stroke="#63b8ff" points="532.32,-702.9 541.12,-697.01 530.57,-696.12 532.32,-702.9"/>
</a>
</g>
</g>
<!-- Node5 -->
<g id="Node000005" class="node">
<title>Node5</title>
<g id="a_Node000005"><a xlink:href="classdepicture__menu_1_1applications_1_1log_1_1logger.html#afa663af74514c3add1c316de62fc5db1" target="_top" xlink:title=" ">
<polygon fill="white" stroke="#666666" points="507,-696 364.25,-696 364.25,-664 507,-664 507,-696"/>
<text xml:space="preserve" text-anchor="start" x="372.25" y="-682.5" font-family="Helvetica,sans-Serif" font-size="10.00">depicture_menu::applications</text>
<text xml:space="preserve" text-anchor="middle" x="435.62" y="-670.5" font-family="Helvetica,sans-Serif" font-size="10.00">::log::logger::flush</text>
</a>
</g>
</g>
<!-- Node3&#45;&gt;Node5 -->
<g id="edge4_Node000003_Node000005" class="edge">
<title>Node3&#45;&gt;Node5</title>
<g id="a_edge4_Node000003_Node000005"><a xlink:title=" ">
<path fill="none" stroke="#63b8ff" d="M531.13,-680C523.23,-680 515.23,-680 507.4,-680"/>
<polygon fill="#63b8ff" stroke="#63b8ff" points="531.08,-683.5 541.07,-680 531.07,-676.5 531.08,-683.5"/>
</a>
</g>
</g>
<!-- Node7 -->
<g id="Node000007" class="node">
<title>Node7</title>
<g id="a_Node000007"><a xlink:href="namespacedepicture__menu_1_1applications.html#a7ea63a2945eb75bfc5fb5e79d1d08778" target="_top" xlink:title=" ">
<polygon fill="white" stroke="#666666" points="507,-603 364.25,-603 364.25,-571 507,-571 507,-603"/>
<text xml:space="preserve" text-anchor="start" x="372.25" y="-589.5" font-family="Helvetica,sans-Serif" font-size="10.00">depicture_menu::applications</text>
<text xml:space="preserve" text-anchor="middle" x="435.62" y="-577.5" font-family="Helvetica,sans-Serif" font-size="10.00">::run_worker</text>
</a>
</g>
</g>
<!-- Node3&#45;&gt;Node7 -->
<g id="edge6_Node000003_Node000007" class="edge">
<title>Node3&#45;&gt;Node7</title>
<g id="a_edge6_Node000003_Node000007"><a xlink:title=" ">
<path fill="none" stroke="#63b8ff" d="M556.18,-652.26C527.03,-636.35 491.43,-616.92 466.7,-603.41"/>
<polygon fill="#63b8ff" stroke="#63b8ff" points="554.41,-655.28 564.86,-657 557.76,-649.14 554.41,-655.28"/>
</a>
</g>
</g>
<!-- Node6 -->
<g id="Node000006" class="node">
<title>Node6</title>
<g id="a_Node000006"><a xlink:href="classdepicture__menu_1_1applications_1_1log_1_1logger.html#a375b3e43091dd7ad4f6ee409ff7985cf" target="_top" xlink:title=" ">
<polygon fill="white" stroke="#666666" points="324.88,-740 182.12,-740 182.12,-708 324.88,-708 324.88,-740"/>
<text xml:space="preserve" text-anchor="start" x="190.12" y="-726.5" font-family="Helvetica,sans-Serif" font-size="10.00">depicture_menu::applications</text>
<text xml:space="preserve" text-anchor="middle" x="253.5" y="-714.5" font-family="Helvetica,sans-Serif" font-size="10.00">::log::logger::~logger</text>
</a>
</g>
</g>
<!-- Node5&#45;&gt;Node6 -->
<g id="edge5_Node000005_Node000006" class="edge">
<title>Node5&#45;&gt;Node6</title>
<g id="a_edge5_Node000005_Node000006"><a xlink:title=" ">
<path fill="none" stroke="#63b8ff" d="M356.42,-699.1C344.97,-701.9 333.26,-704.76 322.05,-707.5"/>
<polygon fill="#63b8ff" stroke="#63b8ff" points="356.94,-702.58 365.83,-696.81 355.28,-695.78 356.94,-702.58"/>
</a>
</g>
</g>
<!-- Node8 -->
<g id="Node000008" class="node">
<title>Node8</title>
<g id="a_Node000008"><a xlink:href="classdepicture__menu_1_1applications_1_1view__factories_1_1config__view__arg__builder.html#a7fad9971fe8a0fa887c7279435287da5" target="_top" xlink:title=" ">
<polygon fill="white" stroke="#666666" points="324.88,-690 182.12,-690 182.12,-646 324.88,-646 324.88,-690"/>
<text xml:space="preserve" text-anchor="start" x="190.12" y="-676.5" font-family="Helvetica,sans-Serif" font-size="10.00">depicture_menu::applications</text>
<text xml:space="preserve" text-anchor="start" x="190.12" y="-664.5" font-family="Helvetica,sans-Serif" font-size="10.00">::view_factories::config</text>
<text xml:space="preserve" text-anchor="middle" x="253.5" y="-652.5" font-family="Helvetica,sans-Serif" font-size="10.00">_view_arg_builder::build</text>
</a>
</g>
</g>
<!-- Node7&#45;&gt;Node8 -->
<g id="edge7_Node000007_Node000008" class="edge">
<title>Node7&#45;&gt;Node8</title>
<g id="a_edge7_Node000007_Node000008"><a xlink:title=" ">
<path fill="none" stroke="#63b8ff" d="M390.58,-608.2C371.5,-617.26 348.86,-627.83 328.25,-637 321.91,-639.82 315.23,-642.73 308.58,-645.57"/>
<polygon fill="#63b8ff" stroke="#63b8ff" points="391.89,-611.46 399.41,-604 388.88,-605.14 391.89,-611.46"/>
</a>
</g>
</g>
<!-- Node9 -->
<g id="Node000009" class="node">
<title>Node9</title>
<g id="a_Node000009"><a xlink:href="classdepicture__menu_1_1presentations_1_1command__invoker.html#a25da3425517006205d14777aa280866a" target="_top" xlink:title=" ">
<polygon fill="white" stroke="#666666" points="328.25,-628 178.75,-628 178.75,-596 328.25,-596 328.25,-628"/>
<text xml:space="preserve" text-anchor="start" x="186.75" y="-614.5" font-family="Helvetica,sans-Serif" font-size="10.00">depicture_menu::presentations</text>
<text xml:space="preserve" text-anchor="middle" x="253.5" y="-602.5" font-family="Helvetica,sans-Serif" font-size="10.00">::command_invoker::invoke</text>
</a>
</g>
</g>
<!-- Node7&#45;&gt;Node9 -->
<g id="edge8_Node000007_Node000009" class="edge">
<title>Node7&#45;&gt;Node9</title>
<g id="a_edge8_Node000007_Node000009"><a xlink:title=" ">
<path fill="none" stroke="#63b8ff" d="M352.66,-598.38C344.62,-599.49 336.49,-600.62 328.53,-601.73"/>
<polygon fill="#63b8ff" stroke="#63b8ff" points="353.03,-601.86 362.45,-597.02 352.07,-594.93 353.03,-601.86"/>
</a>
</g>
</g>
<!-- Node10 -->
<g id="Node000010" class="node">
<title>Node10</title>
<g id="a_Node000010"><a xlink:href="classdepicture__menu_1_1presentations_1_1command__invoker.html#a37964b2266abbb633c5381fbfc116905" target="_top" xlink:title=" ">
<polygon fill="white" stroke="#666666" points="328.25,-578 178.75,-578 178.75,-546 328.25,-546 328.25,-578"/>
<text xml:space="preserve" text-anchor="start" x="186.75" y="-564.5" font-family="Helvetica,sans-Serif" font-size="10.00">depicture_menu::presentations</text>
<text xml:space="preserve" text-anchor="middle" x="253.5" y="-552.5" font-family="Helvetica,sans-Serif" font-size="10.00">::command_invoker::invoke</text>
</a>
</g>
</g>
<!-- Node7&#45;&gt;Node10 -->
<g id="edge9_Node000007_Node000010" class="edge">
<title>Node7&#45;&gt;Node10</title>
<g id="a_edge9_Node000007_Node000010"><a xlink:title=" ">
<path fill="none" stroke="#63b8ff" d="M352.66,-575.62C344.62,-574.51 336.49,-573.38 328.53,-572.27"/>
<polygon fill="#63b8ff" stroke="#63b8ff" points="352.07,-579.07 362.45,-576.98 353.03,-572.14 352.07,-579.07"/>
</a>
</g>
</g>
<!-- Node11 -->
<g id="Node000011" class="node">
<title>Node11</title>
<g id="a_Node000011"><a xlink:href="structdepicture__menu_1_1usecase_1_1invoke__action.html#a79c045bc3e00ffd7d9cf221e01432374" target="_top" xlink:title=" ">
<polygon fill="white" stroke="#666666" points="317.38,-528 189.62,-528 189.62,-496 317.38,-496 317.38,-528"/>
<text xml:space="preserve" text-anchor="start" x="197.62" y="-514.5" font-family="Helvetica,sans-Serif" font-size="10.00">depicture_menu::usecase</text>
<text xml:space="preserve" text-anchor="middle" x="253.5" y="-502.5" font-family="Helvetica,sans-Serif" font-size="10.00">::invoke_action::invoke</text>
</a>
</g>
</g>
<!-- Node7&#45;&gt;Node11 -->
<g id="edge10_Node000007_Node000011" class="edge">
<title>Node7&#45;&gt;Node11</title>
<g id="a_edge10_Node000007_Node000011"><a xlink:title=" ">
<path fill="none" stroke="#63b8ff" d="M392.18,-565.71C372.9,-556.38 349.65,-545.62 328.25,-537 320.98,-534.07 313.21,-531.18 305.56,-528.47"/>
<polygon fill="#63b8ff" stroke="#63b8ff" points="390.57,-568.82 401.09,-570.06 393.64,-562.53 390.57,-568.82"/>
</a>
</g>
</g>
<!-- Node12 -->
<g id="Node000012" class="node">
<title>Node12</title>
<g id="a_Node000012"><a xlink:href="classdepicture__menu_1_1applications_1_1config__view__factory_1_1config__view__observer.html#a6368a0a839dd3d9074361f068bf77de3" target="_top" xlink:title=" ">
<polygon fill="white" stroke="#666666" points="324.88,-478 182.12,-478 182.12,-434 324.88,-434 324.88,-478"/>
<text xml:space="preserve" text-anchor="start" x="190.12" y="-464.5" font-family="Helvetica,sans-Serif" font-size="10.00">depicture_menu::applications</text>
<text xml:space="preserve" text-anchor="start" x="190.12" y="-452.5" font-family="Helvetica,sans-Serif" font-size="10.00">::config_view_factory::config</text>
<text xml:space="preserve" text-anchor="middle" x="253.5" y="-440.5" font-family="Helvetica,sans-Serif" font-size="10.00">_view_observer::relay</text>
</a>
</g>
</g>
<!-- Node7&#45;&gt;Node12 -->
<g id="edge11_Node000007_Node000012" class="edge">
<title>Node7&#45;&gt;Node12</title>
<g id="a_edge11_Node000007_Node000012"><a xlink:title=" ">
<path fill="none" stroke="#63b8ff" d="M412.93,-562.07C392.75,-540.06 360.94,-508.24 328.25,-487 323.48,-483.9 318.34,-480.99 313.08,-478.3"/>
<polygon fill="#63b8ff" stroke="#63b8ff" points="410.28,-564.35 419.57,-569.44 415.48,-559.67 410.28,-564.35"/>
</a>
</g>
</g>
<!-- Node13 -->
<g id="Node000013" class="node">
<title>Node13</title>
<g id="a_Node000013"><a xlink:href="classdepicture__menu_1_1applications_1_1config__view__factory_1_1config__view__observer.html#ab8f58fb20e9fe4a495a7dcf610dacbd1" target="_top" xlink:title="ConfBasicMenuShowAction &quot;ShowMenuId&quot; 更新">
<polygon fill="white" stroke="#666666" points="142.75,-912 0,-912 0,-868 142.75,-868 142.75,-912"/>
<text xml:space="preserve" text-anchor="start" x="8" y="-898.5" font-family="Helvetica,sans-Serif" font-size="10.00">depicture_menu::applications</text>
<text xml:space="preserve" text-anchor="start" x="8" y="-886.5" font-family="Helvetica,sans-Serif" font-size="10.00">::config_view_factory::config</text>
<text xml:space="preserve" text-anchor="middle" x="71.38" y="-874.5" font-family="Helvetica,sans-Serif" font-size="10.00">_view_observer::operator()</text>
</a>
</g>
</g>
<!-- Node12&#45;&gt;Node13 -->
<g id="edge12_Node000012_Node000013" class="edge">
<title>Node12&#45;&gt;Node13</title>
<g id="a_edge12_Node000012_Node000013"><a xlink:title=" ">
<path fill="none" stroke="#63b8ff" d="M179.2,-486.4C179.05,-486.6 178.9,-486.8 178.75,-487 80.26,-620.76 240.1,-724.41 142.75,-859 140.48,-862.14 137.82,-864.96 134.89,-867.5"/>
<polygon fill="#63b8ff" stroke="#63b8ff" points="181.57,-488.98 185.96,-479.34 176.52,-484.14 181.57,-488.98"/>
</a>
</g>
</g>
<!-- Node14 -->
<g id="Node000014" class="node">
<title>Node14</title>
<g id="a_Node000014"><a xlink:href="classdepicture__menu_1_1applications_1_1config__view__factory_1_1config__view__observer.html#a36e5ca19f9424b7ea5edeb98f5ae6e90" target="_top" xlink:title="ConfBasicShellExecuteAction &quot;IsAutoMenuClose&quot; 更新">
<polygon fill="white" stroke="#666666" points="142.75,-850 0,-850 0,-806 142.75,-806 142.75,-850"/>
<text xml:space="preserve" text-anchor="start" x="8" y="-836.5" font-family="Helvetica,sans-Serif" font-size="10.00">depicture_menu::applications</text>
<text xml:space="preserve" text-anchor="start" x="8" y="-824.5" font-family="Helvetica,sans-Serif" font-size="10.00">::config_view_factory::config</text>
<text xml:space="preserve" text-anchor="middle" x="71.38" y="-812.5" font-family="Helvetica,sans-Serif" font-size="10.00">_view_observer::operator()</text>
</a>
</g>
</g>
<!-- Node12&#45;&gt;Node14 -->
<g id="edge13_Node000012_Node000014" class="edge">
<title>Node12&#45;&gt;Node14</title>
<g id="a_edge13_Node000012_Node000014"><a xlink:title=" ">
<path fill="none" stroke="#63b8ff" d="M179.21,-486.4C179.05,-486.6 178.9,-486.8 178.75,-487 95.45,-597.9 225.11,-685.39 142.75,-797 140.37,-800.22 137.58,-803.12 134.52,-805.71"/>
<polygon fill="#63b8ff" stroke="#63b8ff" points="181.57,-489 186.03,-479.39 176.55,-484.12 181.57,-489"/>
</a>
</g>
</g>
<!-- Node15 -->
<g id="Node000015" class="node">
<title>Node15</title>
<g id="a_Node000015"><a xlink:href="classdepicture__menu_1_1applications_1_1config__view__factory_1_1config__view__observer.html#a658204c06f35b919508c58a984226a10" target="_top" xlink:title="ConfBasicShellExecuteAction &quot;Option&quot; 更新">
<polygon fill="white" stroke="#666666" points="142.75,-788 0,-788 0,-744 142.75,-744 142.75,-788"/>
<text xml:space="preserve" text-anchor="start" x="8" y="-774.5" font-family="Helvetica,sans-Serif" font-size="10.00">depicture_menu::applications</text>
<text xml:space="preserve" text-anchor="start" x="8" y="-762.5" font-family="Helvetica,sans-Serif" font-size="10.00">::config_view_factory::config</text>
<text xml:space="preserve" text-anchor="middle" x="71.38" y="-750.5" font-family="Helvetica,sans-Serif" font-size="10.00">_view_observer::operator()</text>
</a>
</g>
</g>
<!-- Node12&#45;&gt;Node15 -->
<g id="edge14_Node000012_Node000015" class="edge">
<title>Node12&#45;&gt;Node15</title>
<g id="a_edge14_Node000012_Node000015"><a xlink:title=" ">
<path fill="none" stroke="#63b8ff" d="M179.22,-486.41C179.06,-486.6 178.9,-486.8 178.75,-487 110.59,-575.09 210.16,-646.34 142.75,-735 140.33,-738.19 137.5,-741.06 134.41,-743.63"/>
<polygon fill="#63b8ff" stroke="#63b8ff" points="181.56,-489.02 186.12,-479.46 176.59,-484.08 181.56,-489.02"/>
</a>
</g>
</g>
<!-- Node16 -->
<g id="Node000016" class="node">
<title>Node16</title>
<g id="a_Node000016"><a xlink:href="classdepicture__menu_1_1applications_1_1config__view__factory_1_1config__view__observer.html#a62fa4f3094eb96a15592068779f42c0a" target="_top" xlink:title="ConfBasicShellExecuteAction &quot;RunPath&quot; 更新">
<polygon fill="white" stroke="#666666" points="142.75,-726 0,-726 0,-682 142.75,-682 142.75,-726"/>
<text xml:space="preserve" text-anchor="start" x="8" y="-712.5" font-family="Helvetica,sans-Serif" font-size="10.00">depicture_menu::applications</text>
<text xml:space="preserve" text-anchor="start" x="8" y="-700.5" font-family="Helvetica,sans-Serif" font-size="10.00">::config_view_factory::config</text>
<text xml:space="preserve" text-anchor="middle" x="71.38" y="-688.5" font-family="Helvetica,sans-Serif" font-size="10.00">_view_observer::operator()</text>
</a>
</g>
</g>
<!-- Node12&#45;&gt;Node16 -->
<g id="edge15_Node000012_Node000016" class="edge">
<title>Node12&#45;&gt;Node16</title>
<g id="a_edge15_Node000012_Node000016"><a xlink:title=" ">
<path fill="none" stroke="#63b8ff" d="M179.5,-486.1C179.25,-486.4 179,-486.7 178.75,-487 125.67,-552.36 195.27,-607.19 142.75,-673 140.17,-676.23 137.18,-679.14 133.92,-681.75"/>
<polygon fill="#63b8ff" stroke="#63b8ff" points="181.79,-488.75 186.6,-479.31 176.95,-483.69 181.79,-488.75"/>
</a>
</g>
</g>
<!-- Node17 -->
<g id="Node000017" class="node">
<title>Node17</title>
<g id="a_Node000017"><a xlink:href="classdepicture__menu_1_1applications_1_1config__view__factory_1_1config__view__observer.html#a4fe10f7c9183533592f3c04e96c2adf5" target="_top" xlink:title="ConfigArg &quot;DefMenuBaseColor&quot; 更新">
<polygon fill="white" stroke="#666666" points="142.75,-664 0,-664 0,-620 142.75,-620 142.75,-664"/>
<text xml:space="preserve" text-anchor="start" x="8" y="-650.5" font-family="Helvetica,sans-Serif" font-size="10.00">depicture_menu::applications</text>
<text xml:space="preserve" text-anchor="start" x="8" y="-638.5" font-family="Helvetica,sans-Serif" font-size="10.00">::config_view_factory::config</text>
<text xml:space="preserve" text-anchor="middle" x="71.38" y="-626.5" font-family="Helvetica,sans-Serif" font-size="10.00">_view_observer::operator()</text>
</a>
</g>
</g>
<!-- Node12&#45;&gt;Node17 -->
<g id="edge16_Node000012_Node000017" class="edge">
<title>Node12&#45;&gt;Node17</title>
<g id="a_edge16_Node000012_Node000017"><a xlink:title=" ">
<path fill="none" stroke="#63b8ff" d="M179.84,-485.81C179.47,-486.2 179.11,-486.6 178.75,-487 140.58,-529.85 180.56,-567.83 142.75,-611 139.94,-614.21 136.72,-617.11 133.26,-619.71"/>
<polygon fill="#63b8ff" stroke="#63b8ff" points="182.04,-488.53 187.23,-479.3 177.42,-483.28 182.04,-488.53"/>
</a>
</g>
</g>
<!-- Node18 -->
<g id="Node000018" class="node">
<title>Node18</title>
<g id="a_Node000018"><a xlink:href="classdepicture__menu_1_1applications_1_1config__view__factory_1_1config__view__observer.html#a7cefb7b73771e40137ba1937a7228e29" target="_top" xlink:title="ConfigArg &quot;DefMenuForeColor&quot; 更新">
<polygon fill="white" stroke="#666666" points="142.75,-602 0,-602 0,-558 142.75,-558 142.75,-602"/>
<text xml:space="preserve" text-anchor="start" x="8" y="-588.5" font-family="Helvetica,sans-Serif" font-size="10.00">depicture_menu::applications</text>
<text xml:space="preserve" text-anchor="start" x="8" y="-576.5" font-family="Helvetica,sans-Serif" font-size="10.00">::config_view_factory::config</text>
<text xml:space="preserve" text-anchor="middle" x="71.38" y="-564.5" font-family="Helvetica,sans-Serif" font-size="10.00">_view_observer::operator()</text>
</a>
</g>
</g>
<!-- Node12&#45;&gt;Node18 -->
<g id="edge17_Node000012_Node000018" class="edge">
<title>Node12&#45;&gt;Node18</title>
<g id="a_edge17_Node000012_Node000018"><a xlink:title=" ">
<path fill="none" stroke="#63b8ff" d="M181.13,-484.99C180.32,-485.65 179.53,-486.32 178.75,-487 154.82,-508.04 166.5,-527.76 142.75,-549 139.27,-552.12 135.42,-554.96 131.38,-557.55"/>
<polygon fill="#63b8ff" stroke="#63b8ff" points="182.95,-487.99 189.07,-479.35 178.89,-482.29 182.95,-487.99"/>
</a>
</g>
</g>
<!-- Node19 -->
<g id="Node000019" class="node">
<title>Node19</title>
<g id="a_Node000019"><a xlink:href="classdepicture__menu_1_1applications_1_1config__view__factory_1_1config__view__observer.html#a64a191305e3b4e314bec69359dee4e13" target="_top" xlink:title="ConfigArg &quot;DefMenuOpacity&quot; 更新">
<polygon fill="white" stroke="#666666" points="142.75,-540 0,-540 0,-496 142.75,-496 142.75,-540"/>
<text xml:space="preserve" text-anchor="start" x="8" y="-526.5" font-family="Helvetica,sans-Serif" font-size="10.00">depicture_menu::applications</text>
<text xml:space="preserve" text-anchor="start" x="8" y="-514.5" font-family="Helvetica,sans-Serif" font-size="10.00">::config_view_factory::config</text>
<text xml:space="preserve" text-anchor="middle" x="71.38" y="-502.5" font-family="Helvetica,sans-Serif" font-size="10.00">_view_observer::operator()</text>
</a>
</g>
</g>
<!-- Node12&#45;&gt;Node19 -->
<g id="edge18_Node000012_Node000019" class="edge">
<title>Node12&#45;&gt;Node19</title>
<g id="a_edge18_Node000012_Node000019"><a xlink:title=" ">
<path fill="none" stroke="#63b8ff" d="M176.5,-482.16C163.61,-486.6 150.33,-491.17 137.74,-495.5"/>
<polygon fill="#63b8ff" stroke="#63b8ff" points="177.47,-485.53 185.78,-478.96 175.19,-478.91 177.47,-485.53"/>
</a>
</g>
</g>
<!-- Node20 -->
<g id="Node000020" class="node">
<title>Node20</title>
<g id="a_Node000020"><a xlink:href="classdepicture__menu_1_1applications_1_1config__view__factory_1_1config__view__observer.html#aaa3143abf36b93ee7f3db60cb717ffc1" target="_top" xlink:title="ConfMenu &quot;Name&quot;">
<polygon fill="white" stroke="#666666" points="142.75,-478 0,-478 0,-434 142.75,-434 142.75,-478"/>
<text xml:space="preserve" text-anchor="start" x="8" y="-464.5" font-family="Helvetica,sans-Serif" font-size="10.00">depicture_menu::applications</text>
<text xml:space="preserve" text-anchor="start" x="8" y="-452.5" font-family="Helvetica,sans-Serif" font-size="10.00">::config_view_factory::config</text>
<text xml:space="preserve" text-anchor="middle" x="71.38" y="-440.5" font-family="Helvetica,sans-Serif" font-size="10.00">_view_observer::operator()</text>
</a>
</g>
</g>
<!-- Node12&#45;&gt;Node20 -->
<g id="edge19_Node000012_Node000020" class="edge">
<title>Node12&#45;&gt;Node20</title>
<g id="a_edge19_Node000012_Node000020"><a xlink:title=" ">
<path fill="none" stroke="#63b8ff" d="M170.39,-456C161.29,-456 152.08,-456 143.14,-456"/>
<polygon fill="#63b8ff" stroke="#63b8ff" points="170.31,-459.5 180.31,-456 170.31,-452.5 170.31,-459.5"/>
</a>
</g>
</g>
<!-- Node21 -->
<g id="Node000021" class="node">
<title>Node21</title>
<g id="a_Node000021"><a xlink:href="classdepicture__menu_1_1applications_1_1config__view__factory_1_1config__view__observer.html#af1f44ebd2b37b0dfc6f2d9410daef158" target="_top" xlink:title=" ">
<polygon fill="white" stroke="#666666" points="142.75,-416 0,-416 0,-372 142.75,-372 142.75,-416"/>
<text xml:space="preserve" text-anchor="start" x="8" y="-402.5" font-family="Helvetica,sans-Serif" font-size="10.00">depicture_menu::applications</text>
<text xml:space="preserve" text-anchor="start" x="8" y="-390.5" font-family="Helvetica,sans-Serif" font-size="10.00">::config_view_factory::config</text>
<text xml:space="preserve" text-anchor="middle" x="71.38" y="-378.5" font-family="Helvetica,sans-Serif" font-size="10.00">_view_observer::operator()</text>
</a>
</g>
</g>
<!-- Node12&#45;&gt;Node21 -->
<g id="edge20_Node000012_Node000021" class="edge">
<title>Node12&#45;&gt;Node21</title>
<g id="a_edge20_Node000012_Node000021"><a xlink:title=" ">
<path fill="none" stroke="#63b8ff" d="M176.5,-429.84C163.61,-425.4 150.33,-420.83 137.74,-416.5"/>
<polygon fill="#63b8ff" stroke="#63b8ff" points="175.19,-433.09 185.78,-433.04 177.47,-426.47 175.19,-433.09"/>
</a>
</g>
</g>
<!-- Node22 -->
<g id="Node000022" class="node">
<title>Node22</title>
<g id="a_Node000022"><a xlink:href="classdepicture__menu_1_1applications_1_1config__view__factory_1_1config__view__observer.html#abd81afb503bd5d78eda20206f5cd4f85" target="_top" xlink:title="ConfMenuItem &quot;ActionKind&quot;">
<polygon fill="white" stroke="#666666" points="142.75,-354 0,-354 0,-310 142.75,-310 142.75,-354"/>
<text xml:space="preserve" text-anchor="start" x="8" y="-340.5" font-family="Helvetica,sans-Serif" font-size="10.00">depicture_menu::applications</text>
<text xml:space="preserve" text-anchor="start" x="8" y="-328.5" font-family="Helvetica,sans-Serif" font-size="10.00">::config_view_factory::config</text>
<text xml:space="preserve" text-anchor="middle" x="71.38" y="-316.5" font-family="Helvetica,sans-Serif" font-size="10.00">_view_observer::operator()</text>
</a>
</g>
</g>
<!-- Node12&#45;&gt;Node22 -->
<g id="edge21_Node000012_Node000022" class="edge">
<title>Node12&#45;&gt;Node22</title>
<g id="a_edge21_Node000012_Node000022"><a xlink:title=" ">
<path fill="none" stroke="#63b8ff" d="M221.85,-425.83C200.82,-406.22 171.6,-381.04 142.75,-363 137.88,-359.96 132.67,-357.06 127.35,-354.35"/>
<polygon fill="#63b8ff" stroke="#63b8ff" points="219.28,-428.22 228.96,-432.54 224.09,-423.13 219.28,-428.22"/>
</a>
</g>
</g>
<!-- Node23 -->
<g id="Node000023" class="node">
<title>Node23</title>
<g id="a_Node000023"><a xlink:href="classdepicture__menu_1_1applications_1_1config__view__factory_1_1config__view__observer.html#adc879f98a9691c699e4a804300acd613" target="_top" xlink:title="ConfMenuItem &quot;IconId&quot; 更新">
<polygon fill="white" stroke="#666666" points="142.75,-292 0,-292 0,-248 142.75,-248 142.75,-292"/>
<text xml:space="preserve" text-anchor="start" x="8" y="-278.5" font-family="Helvetica,sans-Serif" font-size="10.00">depicture_menu::applications</text>
<text xml:space="preserve" text-anchor="start" x="8" y="-266.5" font-family="Helvetica,sans-Serif" font-size="10.00">::config_view_factory::config</text>
<text xml:space="preserve" text-anchor="middle" x="71.38" y="-254.5" font-family="Helvetica,sans-Serif" font-size="10.00">_view_observer::operator()</text>
</a>
</g>
</g>
<!-- Node12&#45;&gt;Node23 -->
<g id="edge22_Node000012_Node000023" class="edge">
<title>Node12&#45;&gt;Node23</title>
<g id="a_edge22_Node000012_Node000023"><a xlink:title=" ">
<path fill="none" stroke="#63b8ff" d="M236.4,-423.61C217.91,-389.22 184.64,-335.21 142.75,-301 138.92,-297.88 134.73,-295.01 130.36,-292.38"/>
<polygon fill="#63b8ff" stroke="#63b8ff" points="233.21,-425.04 240.96,-432.26 239.4,-421.78 233.21,-425.04"/>
</a>
</g>
</g>
<!-- Node24 -->
<g id="Node000024" class="node">
<title>Node24</title>
<g id="a_Node000024"><a xlink:href="classdepicture__menu_1_1applications_1_1config__view__factory_1_1config__view__observer.html#a0bf9aab15faa92f1a83d7560b1d8b52e" target="_top" xlink:title="ConfMenuItem &quot;Name&quot; 更新">
<polygon fill="white" stroke="#666666" points="142.75,-230 0,-230 0,-186 142.75,-186 142.75,-230"/>
<text xml:space="preserve" text-anchor="start" x="8" y="-216.5" font-family="Helvetica,sans-Serif" font-size="10.00">depicture_menu::applications</text>
<text xml:space="preserve" text-anchor="start" x="8" y="-204.5" font-family="Helvetica,sans-Serif" font-size="10.00">::config_view_factory::config</text>
<text xml:space="preserve" text-anchor="middle" x="71.38" y="-192.5" font-family="Helvetica,sans-Serif" font-size="10.00">_view_observer::operator()</text>
</a>
</g>
</g>
<!-- Node12&#45;&gt;Node24 -->
<g id="edge23_Node000012_Node000024" class="edge">
<title>Node12&#45;&gt;Node24</title>
<g id="a_edge23_Node000012_Node000024"><a xlink:title=" ">
<path fill="none" stroke="#63b8ff" d="M243.42,-422.54C229.18,-375.78 197.4,-290.81 142.75,-239 139.46,-235.88 135.8,-233.04 131.92,-230.46"/>
<polygon fill="#63b8ff" stroke="#63b8ff" points="240.06,-423.51 246.24,-432.11 246.77,-421.53 240.06,-423.51"/>
</a>
</g>
</g>
<!-- Node25 -->
<g id="Node000025" class="node">
<title>Node25</title>
<g id="a_Node000025"><a xlink:href="classdepicture__menu_1_1applications_1_1config__view__factory_1_1config__view__observer.html#a4aa1c243e254359b03ef54c48ba853dd" target="_top" xlink:title="ConfMenuItem &quot;IsActive&quot;">
<polygon fill="white" stroke="#666666" points="142.75,-168 0,-168 0,-124 142.75,-124 142.75,-168"/>
<text xml:space="preserve" text-anchor="start" x="8" y="-154.5" font-family="Helvetica,sans-Serif" font-size="10.00">depicture_menu::applications</text>
<text xml:space="preserve" text-anchor="start" x="8" y="-142.5" font-family="Helvetica,sans-Serif" font-size="10.00">::config_view_factory::config</text>
<text xml:space="preserve" text-anchor="middle" x="71.38" y="-130.5" font-family="Helvetica,sans-Serif" font-size="10.00">_view_observer::operator()</text>
</a>
</g>
</g>
<!-- Node12&#45;&gt;Node25 -->
<g id="edge24_Node000012_Node000025" class="edge">
<title>Node12&#45;&gt;Node25</title>
<g id="a_edge24_Node000012_Node000025"><a xlink:title=" ">
<path fill="none" stroke="#63b8ff" d="M247.75,-422.45C237.99,-365.1 210.58,-247.61 142.75,-177 139.7,-173.82 136.26,-170.95 132.6,-168.35"/>
<polygon fill="#63b8ff" stroke="#63b8ff" points="244.28,-422.93 249.33,-432.24 251.19,-421.81 244.28,-422.93"/>
</a>
</g>
</g>
<!-- Node26 -->
<g id="Node000026" class="node">
<title>Node26</title>
<g id="a_Node000026"><a xlink:href="classdepicture__menu_1_1applications_1_1config__view__factory_1_1config__view__observer.html#a1e0df811cc7c19e6ebf706d609527f53" target="_top" xlink:title="MenuDimension &quot;InnerRadius&quot; 更新">
<polygon fill="white" stroke="#666666" points="142.75,-106 0,-106 0,-62 142.75,-62 142.75,-106"/>
<text xml:space="preserve" text-anchor="start" x="8" y="-92.5" font-family="Helvetica,sans-Serif" font-size="10.00">depicture_menu::applications</text>
<text xml:space="preserve" text-anchor="start" x="8" y="-80.5" font-family="Helvetica,sans-Serif" font-size="10.00">::config_view_factory::config</text>
<text xml:space="preserve" text-anchor="middle" x="71.38" y="-68.5" font-family="Helvetica,sans-Serif" font-size="10.00">_view_observer::operator()</text>
</a>
</g>
</g>
<!-- Node12&#45;&gt;Node26 -->
<g id="edge25_Node000012_Node000026" class="edge">
<title>Node12&#45;&gt;Node26</title>
<g id="a_edge25_Node000012_Node000026"><a xlink:title=" ">
<path fill="none" stroke="#63b8ff" d="M250.6,-422.35C245.1,-355.58 223.9,-205.02 142.75,-115 139.89,-111.83 136.64,-108.96 133.16,-106.38"/>
<polygon fill="#63b8ff" stroke="#63b8ff" points="247.1,-422.59 251.34,-432.3 254.08,-422.07 247.1,-422.59"/>
</a>
</g>
</g>
<!-- Node27 -->
<g id="Node000027" class="node">
<title>Node27</title>
<g id="a_Node000027"><a xlink:href="classdepicture__menu_1_1applications_1_1config__view__factory_1_1config__view__observer.html#aff993b32630a1c14eb4fc2ad4bd882fa" target="_top" xlink:title="MenuDimension &quot;OuterRadius&quot; 更新">
<polygon fill="white" stroke="#666666" points="142.75,-44 0,-44 0,0 142.75,0 142.75,-44"/>
<text xml:space="preserve" text-anchor="start" x="8" y="-30.5" font-family="Helvetica,sans-Serif" font-size="10.00">depicture_menu::applications</text>
<text xml:space="preserve" text-anchor="start" x="8" y="-18.5" font-family="Helvetica,sans-Serif" font-size="10.00">::config_view_factory::config</text>
<text xml:space="preserve" text-anchor="middle" x="71.38" y="-6.5" font-family="Helvetica,sans-Serif" font-size="10.00">_view_observer::operator()</text>
</a>
</g>
</g>
<!-- Node12&#45;&gt;Node27 -->
<g id="edge26_Node000012_Node000027" class="edge">
<title>Node12&#45;&gt;Node27</title>
<g id="a_edge26_Node000012_Node000027"><a xlink:title=" ">
<path fill="none" stroke="#63b8ff" d="M252.63,-422.68C251.18,-347.58 237.51,-163.06 142.75,-53 140.05,-49.86 136.97,-47.03 133.65,-44.48"/>
<polygon fill="#63b8ff" stroke="#63b8ff" points="249.13,-422.3 252.75,-432.26 256.13,-422.21 249.13,-422.3"/>
</a>
</g>
</g>
</g>
</svg>

<g id="navigator" transform="translate(0 0)" fill="#404254">
  <rect fill="#f2f5e9" fill-opacity="0.5" stroke="#606060" stroke-width=".5" x="0" y="0" width="60" height="60"/>
  <use id="zoomplus" xlink:href="#zoomPlus" x="17" y="9" onmousedown="handleZoom(evt,'in')"/>
  <use id="zoomminus" xlink:href="#zoomMin" x="42" y="9" onmousedown="handleZoom(evt,'out')"/>
  <use id="reset" xlink:href="#resetDef" x="30" y="36" onmousedown="handleReset()"/>
   <use id="arrowup" xlink:href="#arrowUp" x="0" y="0" onmousedown="handlePan(0,-1)"/>
  <use id="arrowright" xlink:href="#arrowRight" x="0" y="0" onmousedown="handlePan(1,0)"/>
  <use id="arrowdown" xlink:href="#arrowDown" x="0" y="0" onmousedown="handlePan(0,1)"/>
  <use id="arrowleft" xlink:href="#arrowLeft" x="0" y="0" onmousedown="handlePan(-1,0)"/>
</g>
<svg viewBox="0 0 15 15" width="100%" height="30px" preserveAspectRatio="xMaxYMin meet">
 <g id="arrow_out" transform="scale(0.3 0.3)">
  <a xlink:href="structdepicture__menu_1_1detail_1_1singleton__finalizer_a350b38d28c26319fe9848a4c63602f3a_icgraph_org.svg" target="_base">
   <rect id="button" ry="5" rx="5" y="6" x="6" height="38" width="38"
        fill="#f2f5e9" fill-opacity="0.5" stroke="#606060" stroke-width="1.0"/>
   <path id="arrow"
     d="M 11.500037,31.436501 C 11.940474,20.09759 22.043105,11.32322 32.158766,21.979434 L 37.068811,17.246167 C 37.068811,17.246167 37.088388,32 37.088388,32 L 22.160133,31.978069 C 22.160133,31.978069 26.997745,27.140456 26.997745,27.140456 C 18.528582,18.264221 13.291696,25.230495 11.500037,31.436501 z"
     style="fill:#404040;"/>
  </a>
 </g>
</svg>

<style type='text/css'>
<![CDATA[
[data-mouse-over-selected='false'] { opacity: 0.7; }
[data-mouse-over-selected='true']  { opacity: 1.0; }
]]>
</style>
<script type="application/ecmascript"><![CDATA[
document.addEventListener('DOMContentLoaded', (event) => {
  highlightEdges();
  highlightAdjacentNodes();
});
]]></script>
</svg>
