<?xml version="1.0" encoding="UTF-8" standalone="no"?>
<!DOCTYPE svg PUBLIC "-//W3C//DTD SVG 1.1//EN"
 "http://www.w3.org/Graphics/SVG/1.1/DTD/svg11.dtd">
<!-- Generated by graphviz version 14.1.2 (20260124.0452)
 -->
<!-- Title: depicture_menu::domain::app::detail_app::config_data Pages: 1 -->
<svg width="1136pt" height="256pt"
 viewBox="0.00 0.00 1136.00 256.00" xmlns="http://www.w3.org/2000/svg" xmlns:xlink="http://www.w3.org/1999/xlink">
<g id="graph0" class="graph" transform="scale(1 1) rotate(0) translate(4 252.41)">
<title>depicture_menu::domain::app::detail_app::config_data</title>
<!-- Node1 -->
<g id="Node000001" class="node">
<title>Node1</title>
<g id="a_Node000001"><a xlink:title=" ">
<polygon fill="#999999" stroke="#666666" points="1127.75,-161 983.5,-161 983.5,-129 1127.75,-129 1127.75,-161"/>
<text xml:space="preserve" text-anchor="start" x="991.5" y="-147.5" font-family="Helvetica,sans-Serif" font-size="10.00">depicture_menu::domain</text>
<text xml:space="preserve" text-anchor="middle" x="1055.62" y="-135.5" font-family="Helvetica,sans-Serif" font-size="10.00">::app::detail_app::config_data</text>
</a>
</g>
</g>
<!-- Node2 -->
<g id="Node000002" class="node">
<title>Node2</title>
<g id="a_Node000002"><a xlink:href="structdepicture__menu_1_1domain_1_1models_1_1entity__id__base.html" target="_top" xlink:title=" ">
<polygon fill="white" stroke="#666666" points="828.25,-231 680.25,-231 680.25,-187 828.25,-187 828.25,-231"/>
<text xml:space="preserve" text-anchor="start" x="688.25" y="-217.5" font-family="Helvetica,sans-Serif" font-size="10.00">depicture_menu::domain</text>
<text xml:space="preserve" text-anchor="start" x="688.25" y="-205.5" font-family="Helvetica,sans-Serif" font-size="10.00">::models::entity_id_base</text>
<text xml:space="preserve" text-anchor="middle" x="754.25" y="-193.5" font-family="Helvetica,sans-Serif" font-size="10.00">&lt; detail_menu::menu_id_tag &gt;</text>
</a>
</g>
</g>
<!-- Node2&#45;&gt;Node1 -->
<g id="edge1_Node000001_Node000002" class="edge">
<title>Node2&#45;&gt;Node1</title>
<g id="a_edge1_Node000001_Node000002"><a xlink:title=" ">
<path fill="none" stroke="#9a32cd" stroke-dasharray="5,2" d="M839.56,-193.05C878.05,-185.55 924.17,-176.22 965.5,-167 973.28,-165.26 981.42,-163.37 989.48,-161.44"/>
<polygon fill="#9a32cd" stroke="#9a32cd" points="839.03,-189.59 829.88,-194.94 840.37,-196.46 839.03,-189.59"/>
</a>
</g>
<text xml:space="preserve" text-anchor="start" x="867.62" y="-196.25" font-family="Helvetica,sans-Serif" font-size="10.00" fill="grey">default_menu_id_</text>
</g>
<!-- Node3 -->
<g id="Node000003" class="node">
<title>Node3</title>
<g id="a_Node000003"><a xlink:href="structdepicture__menu_1_1domain_1_1models_1_1entity__id__base.html" target="_top" xlink:title=" ">
<polygon fill="white" stroke="#666666" points="538.12,-239 415.62,-239 415.62,-195 538.12,-195 538.12,-239"/>
<text xml:space="preserve" text-anchor="start" x="423.62" y="-225.5" font-family="Helvetica,sans-Serif" font-size="10.00">depicture_menu::domain</text>
<text xml:space="preserve" text-anchor="start" x="423.62" y="-213.5" font-family="Helvetica,sans-Serif" font-size="10.00">::models::entity_id_base</text>
<text xml:space="preserve" text-anchor="middle" x="476.88" y="-201.5" font-family="Helvetica,sans-Serif" font-size="10.00">&lt; Tag &gt;</text>
</a>
</g>
</g>
<!-- Node3&#45;&gt;Node2 -->
<g id="edge2_Node000002_Node000003" class="edge">
<title>Node3&#45;&gt;Node2</title>
<g id="a_edge2_Node000002_Node000003"><a xlink:title=" ">
<path fill="none" stroke="orange" stroke-dasharray="5,2" d="M549.61,-214.92C589.73,-213.75 639.62,-212.3 679.98,-211.13"/>
<polygon fill="orange" stroke="orange" points="549.71,-211.41 539.82,-215.2 549.92,-218.41 549.71,-211.41"/>
</a>
</g>
<text xml:space="preserve" text-anchor="start" x="567.75" y="-235.91" font-family="Helvetica,sans-Serif" font-size="10.00" fill="grey">&lt; detail_menu::menu</text>
<text xml:space="preserve" text-anchor="start" x="567.75" y="-219.91" font-family="Helvetica,sans-Serif" font-size="10.00" fill="grey">  _id_tag &gt;</text>
</g>
<!-- Node4 -->
<g id="Node000004" class="node">
<title>Node4</title>
<g id="a_Node000004"><a xlink:href="classdepicture__menu_1_1domain_1_1menu_1_1menu__dimension.html" target="_top" xlink:title=" ">
<polygon fill="white" stroke="#666666" points="817,-95 691.5,-95 691.5,-63 817,-63 817,-95"/>
<text xml:space="preserve" text-anchor="start" x="699.5" y="-81.5" font-family="Helvetica,sans-Serif" font-size="10.00">depicture_menu::domain</text>
<text xml:space="preserve" text-anchor="middle" x="754.25" y="-69.5" font-family="Helvetica,sans-Serif" font-size="10.00">::menu::menu_dimension</text>
</a>
</g>
</g>
<!-- Node4&#45;&gt;Node1 -->
<g id="edge3_Node000001_Node000004" class="edge">
<title>Node4&#45;&gt;Node1</title>
<g id="a_edge3_Node000001_Node000004"><a xlink:title=" ">
<path fill="none" stroke="#9a32cd" stroke-dasharray="5,2" d="M828.59,-93.68C869.05,-101.94 920.13,-112.66 965.5,-123 973.11,-124.74 981.08,-126.61 988.98,-128.51"/>
<polygon fill="#9a32cd" stroke="#9a32cd" points="829.46,-90.28 818.96,-91.72 828.06,-97.14 829.46,-90.28"/>
</a>
</g>
<text xml:space="preserve" text-anchor="start" x="849.25" y="-128.5" font-family="Helvetica,sans-Serif" font-size="10.00" fill="grey">default_menu_dimension_</text>
</g>
<!-- Node5 -->
<g id="Node000005" class="node">
<title>Node5</title>
<g id="a_Node000005"><a xlink:href="structdepicture__menu_1_1domain_1_1models_1_1base_1_1v2_1_1value__object__base.html" target="_top" xlink:title=" ">
<polygon fill="white" stroke="#666666" points="127.75,-101 1.5,-101 1.5,-57 127.75,-57 127.75,-101"/>
<text xml:space="preserve" text-anchor="start" x="9.5" y="-87.5" font-family="Helvetica,sans-Serif" font-size="10.00">depicture_menu::domain</text>
<text xml:space="preserve" text-anchor="start" x="9.5" y="-75.5" font-family="Helvetica,sans-Serif" font-size="10.00">::models::base::v2::value</text>
<text xml:space="preserve" text-anchor="middle" x="64.62" y="-63.5" font-family="Helvetica,sans-Serif" font-size="10.00">_object_base</text>
</a>
</g>
</g>
<!-- Node5&#45;&gt;Node4 -->
<g id="edge4_Node000004_Node000005" class="edge">
<title>Node5&#45;&gt;Node4</title>
<g id="a_edge4_Node000004_Node000005"><a xlink:title=" ">
<path fill="none" stroke="#63b8ff" d="M139.28,-79C275.47,-79 564.31,-79 691.23,-79"/>
<polygon fill="#63b8ff" stroke="#63b8ff" points="139.68,-75.5 129.68,-79 139.68,-82.5 139.68,-75.5"/>
</a>
</g>
</g>
<!-- Node7 -->
<g id="Node000007" class="node">
<title>Node7</title>
<g id="a_Node000007"><a xlink:href="classdepicture__menu_1_1domain_1_1common_1_1radius.html" target="_top" xlink:title=" ">
<polygon fill="white" stroke="#666666" points="322.25,-32 199.75,-32 199.75,0 322.25,0 322.25,-32"/>
<text xml:space="preserve" text-anchor="start" x="207.75" y="-18.5" font-family="Helvetica,sans-Serif" font-size="10.00">depicture_menu::domain</text>
<text xml:space="preserve" text-anchor="middle" x="261" y="-6.5" font-family="Helvetica,sans-Serif" font-size="10.00">::common::radius</text>
</a>
</g>
</g>
<!-- Node5&#45;&gt;Node7 -->
<g id="edge7_Node000007_Node000005" class="edge">
<title>Node5&#45;&gt;Node7</title>
<g id="a_edge7_Node000007_Node000005"><a xlink:title=" ">
<path fill="none" stroke="#63b8ff" d="M139.13,-55.18C162.51,-47.6 187.83,-39.39 209.22,-32.46"/>
<polygon fill="#63b8ff" stroke="#63b8ff" points="138.07,-51.84 129.64,-58.25 140.23,-58.5 138.07,-51.84"/>
</a>
</g>
</g>
<!-- Node9 -->
<g id="Node000009" class="node">
<title>Node9</title>
<g id="a_Node000009"><a xlink:href="classdepicture__menu_1_1domain_1_1menu_1_1menu__color.html" target="_top" xlink:title=" ">
<polygon fill="white" stroke="#666666" points="815.5,-161 693,-161 693,-129 815.5,-129 815.5,-161"/>
<text xml:space="preserve" text-anchor="start" x="701" y="-147.5" font-family="Helvetica,sans-Serif" font-size="10.00">depicture_menu::domain</text>
<text xml:space="preserve" text-anchor="middle" x="754.25" y="-135.5" font-family="Helvetica,sans-Serif" font-size="10.00">::menu::menu_color</text>
</a>
</g>
</g>
<!-- Node5&#45;&gt;Node9 -->
<g id="edge10_Node000009_Node000005" class="edge">
<title>Node5&#45;&gt;Node9</title>
<g id="a_edge10_Node000009_Node000005"><a xlink:title=" ">
<path fill="none" stroke="#63b8ff" d="M139.19,-91.91C141.91,-92.3 144.6,-92.66 147.25,-93 346.25,-118.56 583.67,-134.82 692.86,-141.51"/>
<polygon fill="#63b8ff" stroke="#63b8ff" points="139.84,-88.47 129.43,-90.47 138.81,-95.39 139.84,-88.47"/>
</a>
</g>
</g>
<!-- Node6 -->
<g id="Node000006" class="node">
<title>Node6</title>
<g id="a_Node000006"><a xlink:href="structdepicture__menu_1_1domain_1_1menu_1_1menu__dimension_1_1value__t.html" target="_top" xlink:title=" ">
<polygon fill="white" stroke="#666666" points="539.62,-44 414.12,-44 414.12,0 539.62,0 539.62,-44"/>
<text xml:space="preserve" text-anchor="start" x="422.12" y="-30.5" font-family="Helvetica,sans-Serif" font-size="10.00">depicture_menu::domain</text>
<text xml:space="preserve" text-anchor="start" x="422.12" y="-18.5" font-family="Helvetica,sans-Serif" font-size="10.00">::menu::menu_dimension</text>
<text xml:space="preserve" text-anchor="middle" x="476.88" y="-6.5" font-family="Helvetica,sans-Serif" font-size="10.00">::value_t</text>
</a>
</g>
</g>
<!-- Node6&#45;&gt;Node4 -->
<g id="edge5_Node000004_Node000006" class="edge">
<title>Node6&#45;&gt;Node4</title>
<g id="a_edge5_Node000004_Node000006"><a xlink:title=" ">
<path fill="none" stroke="#9a32cd" stroke-dasharray="5,2" d="M551.19,-28.48C585.26,-32.37 626.14,-38.3 662.25,-47 678.86,-51 696.68,-56.89 712.11,-62.54"/>
<polygon fill="#9a32cd" stroke="#9a32cd" points="551.74,-25.02 541.42,-27.4 550.98,-31.98 551.74,-25.02"/>
</a>
</g>
<text xml:space="preserve" text-anchor="start" x="599.25" y="-52.5" font-family="Helvetica,sans-Serif" font-size="10.00" fill="grey">value_</text>
</g>
<!-- Node7&#45;&gt;Node6 -->
<g id="edge6_Node000006_Node000007" class="edge">
<title>Node7&#45;&gt;Node6</title>
<g id="a_edge6_Node000006_Node000007"><a xlink:title=" ">
<path fill="none" stroke="#9a32cd" stroke-dasharray="5,2" d="M334.02,-15.04C336.12,-15.03 338.2,-15.01 340.25,-15 361.92,-14.86 367.35,-14.13 389,-15 397.01,-15.32 405.43,-15.81 413.75,-16.38"/>
<polygon fill="#9a32cd" stroke="#9a32cd" points="334.14,-11.54 324.17,-15.13 334.21,-18.54 334.14,-11.54"/>
</a>
</g>
<text xml:space="preserve" text-anchor="start" x="343.25" y="-52.5" font-family="Helvetica,sans-Serif" font-size="10.00" fill="grey">contents_</text>
<text xml:space="preserve" text-anchor="start" x="343.25" y="-36.5" font-family="Helvetica,sans-Serif" font-size="10.00" fill="grey">inner_</text>
<text xml:space="preserve" text-anchor="start" x="343.25" y="-20.5" font-family="Helvetica,sans-Serif" font-size="10.00" fill="grey">outer_</text>
</g>
<!-- Node8 -->
<g id="Node000008" class="node">
<title>Node8</title>
<g id="a_Node000008"><a xlink:href="structdepicture__menu_1_1domain_1_1common_1_1radius_1_1value__t.html" target="_top" xlink:title=" ">
<polygon fill="white" stroke="#666666" points="129.25,-32 0,-32 0,0 129.25,0 129.25,-32"/>
<text xml:space="preserve" text-anchor="start" x="8" y="-18.5" font-family="Helvetica,sans-Serif" font-size="10.00">depicture_menu::domain</text>
<text xml:space="preserve" text-anchor="middle" x="64.62" y="-6.5" font-family="Helvetica,sans-Serif" font-size="10.00">::common::radius::value_t</text>
</a>
</g>
</g>
<!-- Node8&#45;&gt;Node7 -->
<g id="edge8_Node000007_Node000008" class="edge">
<title>Node8&#45;&gt;Node7</title>
<g id="a_edge8_Node000007_Node000008"><a xlink:title=" ">
<path fill="none" stroke="#9a32cd" stroke-dasharray="5,2" d="M140.79,-16C160.18,-16 180.8,-16 199.35,-16"/>
<polygon fill="#9a32cd" stroke="#9a32cd" points="141.05,-12.5 131.05,-16 141.05,-19.5 141.05,-12.5"/>
</a>
</g>
<text xml:space="preserve" text-anchor="start" x="150.25" y="-21.5" font-family="Helvetica,sans-Serif" font-size="10.00" fill="grey">value_</text>
</g>
<!-- Node9&#45;&gt;Node1 -->
<g id="edge9_Node000001_Node000009" class="edge">
<title>Node9&#45;&gt;Node1</title>
<g id="a_edge9_Node000001_Node000009"><a xlink:title=" ">
<path fill="none" stroke="#9a32cd" stroke-dasharray="5,2" d="M827.21,-145C874.42,-145 935.93,-145 983.07,-145"/>
<polygon fill="#9a32cd" stroke="#9a32cd" points="827.35,-141.5 817.35,-145 827.35,-148.5 827.35,-141.5"/>
</a>
</g>
<text xml:space="preserve" text-anchor="start" x="860.88" y="-150.5" font-family="Helvetica,sans-Serif" font-size="10.00" fill="grey">default_menu_color_</text>
</g>
<!-- Node10 -->
<g id="Node000010" class="node">
<title>Node10</title>
<g id="a_Node000010"><a xlink:href="structdepicture__menu_1_1domain_1_1menu_1_1menu__color_1_1value__t.html" target="_top" xlink:title=" ">
<polygon fill="white" stroke="#666666" points="546.75,-177 407,-177 407,-145 546.75,-145 546.75,-177"/>
<text xml:space="preserve" text-anchor="start" x="415" y="-163.5" font-family="Helvetica,sans-Serif" font-size="10.00">depicture_menu::domain</text>
<text xml:space="preserve" text-anchor="middle" x="476.88" y="-151.5" font-family="Helvetica,sans-Serif" font-size="10.00">::menu::menu_color::value_t</text>
</a>
</g>
</g>
<!-- Node10&#45;&gt;Node9 -->
<g id="edge11_Node000009_Node000010" class="edge">
<title>Node10&#45;&gt;Node9</title>
<g id="a_edge11_Node000009_Node000010"><a xlink:title=" ">
<path fill="none" stroke="#9a32cd" stroke-dasharray="5,2" d="M558.27,-156.33C601.15,-153.84 653.05,-150.82 692.53,-148.53"/>
<polygon fill="#9a32cd" stroke="#9a32cd" points="558.3,-152.82 548.52,-156.9 558.71,-159.81 558.3,-152.82"/>
</a>
</g>
<text xml:space="preserve" text-anchor="start" x="599.25" y="-161.32" font-family="Helvetica,sans-Serif" font-size="10.00" fill="grey">value_</text>
</g>
<!-- Node11 -->
<g id="Node000011" class="node">
<title>Node11</title>
<g id="a_Node000011"><a xlink:href="structdepicture__menu_1_1domain_1_1common_1_1rgba__color.html" target="_top" xlink:title="カラー表現 ValueObject">
<polygon fill="white" stroke="#666666" points="322.25,-177 199.75,-177 199.75,-145 322.25,-145 322.25,-177"/>
<text xml:space="preserve" text-anchor="start" x="207.75" y="-163.5" font-family="Helvetica,sans-Serif" font-size="10.00">depicture_menu::domain</text>
<text xml:space="preserve" text-anchor="middle" x="261" y="-151.5" font-family="Helvetica,sans-Serif" font-size="10.00">::common::rgba_color</text>
</a>
</g>
</g>
<!-- Node11&#45;&gt;Node10 -->
<g id="edge12_Node000010_Node000011" class="edge">
<title>Node11&#45;&gt;Node10</title>
<g id="a_edge12_Node000010_Node000011"><a xlink:title=" ">
<path fill="none" stroke="#9a32cd" stroke-dasharray="5,2" d="M334.01,-161C357.48,-161 383.46,-161 406.71,-161"/>
<polygon fill="#9a32cd" stroke="#9a32cd" points="334.23,-157.5 324.23,-161 334.23,-164.5 334.23,-157.5"/>
</a>
</g>
<text xml:space="preserve" text-anchor="start" x="354.12" y="-182.5" font-family="Helvetica,sans-Serif" font-size="10.00" fill="grey">back</text>
<text xml:space="preserve" text-anchor="start" x="354.12" y="-166.5" font-family="Helvetica,sans-Serif" font-size="10.00" fill="grey">fore</text>
</g>
</g>
</svg>
