<?xml version="1.0" encoding="UTF-8" standalone="no"?>
<!DOCTYPE svg PUBLIC "-//W3C//DTD SVG 1.1//EN"
 "http://www.w3.org/Graphics/SVG/1.1/DTD/svg11.dtd">
<!-- Generated by graphviz version 14.1.2 (20260124.0452)
 -->
<!-- Title: update_result::add_update Pages: 1 -->
<svg width="621pt" height="145pt"
 viewBox="0.00 0.00 621.00 145.00" xmlns="http://www.w3.org/2000/svg" xmlns:xlink="http://www.w3.org/1999/xlink">
<g id="graph0" class="graph" transform="scale(1 1) rotate(0) translate(4 141)">
<title>update_result::add_update</title>
<!-- Node1 -->
<g id="Node000001" class="node">
<title>Node1</title>
<g id="a_Node000001"><a xlink:title=" ">
<polygon fill="#999999" stroke="#666666" points="613,-69 516.75,-69 516.75,-37 613,-37 613,-69"/>
<text xml:space="preserve" text-anchor="start" x="524.75" y="-55.5" font-family="Helvetica,sans-Serif" font-size="10.00">update_result::add</text>
<text xml:space="preserve" text-anchor="middle" x="564.88" y="-43.5" font-family="Helvetica,sans-Serif" font-size="10.00">_update</text>
</a>
</g>
</g>
<!-- Node2 -->
<g id="Node000002" class="node">
<title>Node2</title>
<g id="a_Node000002"><a xlink:href="namespacedepicture__menu_1_1usecase.html#ad1756cbfc162285ee309da7c317256a4" target="_top" xlink:title=" ">
<polygon fill="white" stroke="#666666" points="480.75,-69 327.5,-69 327.5,-37 480.75,-37 480.75,-69"/>
<text xml:space="preserve" text-anchor="start" x="335.5" y="-55.5" font-family="Helvetica,sans-Serif" font-size="10.00">depicture_menu::usecase</text>
<text xml:space="preserve" text-anchor="middle" x="404.12" y="-43.5" font-family="Helvetica,sans-Serif" font-size="10.00">::do_change_menu_config_impl</text>
</a>
</g>
</g>
<!-- Node1&#45;&gt;Node2 -->
<g id="edge1_Node000001_Node000002" class="edge">
<title>Node1&#45;&gt;Node2</title>
<g id="a_edge1_Node000001_Node000002"><a xlink:title=" ">
<path fill="none" stroke="#63b8ff" d="M505.31,-53C497.39,-53 489.16,-53 480.99,-53"/>
<polygon fill="#63b8ff" stroke="#63b8ff" points="505.16,-56.5 515.16,-53 505.16,-49.5 505.16,-56.5"/>
</a>
</g>
</g>
<!-- Node3 -->
<g id="Node000003" class="node">
<title>Node3</title>
<g id="a_Node000003"><a xlink:href="namespacedepicture__menu_1_1usecase_1_1detail__usecases.html#acfef245293d115c707e5170d5da5e186" target="_top" xlink:title=" ">
<polygon fill="white" stroke="#666666" points="291.5,-106 163.75,-106 163.75,-62 291.5,-62 291.5,-106"/>
<text xml:space="preserve" text-anchor="start" x="171.75" y="-92.5" font-family="Helvetica,sans-Serif" font-size="10.00">depicture_menu::usecase</text>
<text xml:space="preserve" text-anchor="start" x="171.75" y="-80.5" font-family="Helvetica,sans-Serif" font-size="10.00">::detail_usecases::do</text>
<text xml:space="preserve" text-anchor="middle" x="227.62" y="-68.5" font-family="Helvetica,sans-Serif" font-size="10.00">_change_menu_config</text>
</a>
</g>
</g>
<!-- Node2&#45;&gt;Node3 -->
<g id="edge2_Node000002_Node000003" class="edge">
<title>Node2&#45;&gt;Node3</title>
<g id="a_edge2_Node000002_Node000003"><a xlink:title=" ">
<path fill="none" stroke="#63b8ff" d="M316.02,-68.47C307.88,-69.92 299.73,-71.37 291.87,-72.76"/>
<polygon fill="#63b8ff" stroke="#63b8ff" points="316.37,-71.97 325.6,-66.77 315.15,-65.07 316.37,-71.97"/>
</a>
</g>
</g>
<!-- Node6 -->
<g id="Node000006" class="node">
<title>Node6</title>
<g id="a_Node000006"><a xlink:href="namespacedepicture__menu_1_1usecase_1_1detail__usecases.html#ac5fca35483c781048a6c5661308545c0" target="_top" xlink:title=" ">
<polygon fill="white" stroke="#666666" points="291.5,-44 163.75,-44 163.75,0 291.5,0 291.5,-44"/>
<text xml:space="preserve" text-anchor="start" x="171.75" y="-30.5" font-family="Helvetica,sans-Serif" font-size="10.00">depicture_menu::usecase</text>
<text xml:space="preserve" text-anchor="start" x="171.75" y="-18.5" font-family="Helvetica,sans-Serif" font-size="10.00">::detail_usecases::do</text>
<text xml:space="preserve" text-anchor="middle" x="227.62" y="-6.5" font-family="Helvetica,sans-Serif" font-size="10.00">_change_menu_config</text>
</a>
</g>
</g>
<!-- Node2&#45;&gt;Node6 -->
<g id="edge5_Node000002_Node000006" class="edge">
<title>Node2&#45;&gt;Node6</title>
<g id="a_edge5_Node000002_Node000006"><a xlink:title=" ">
<path fill="none" stroke="#63b8ff" d="M316.02,-37.53C307.88,-36.08 299.73,-34.63 291.87,-33.24"/>
<polygon fill="#63b8ff" stroke="#63b8ff" points="315.15,-40.93 325.6,-39.23 316.37,-34.03 315.15,-40.93"/>
</a>
</g>
</g>
<!-- Node4 -->
<g id="Node000004" class="node">
<title>Node4</title>
<g id="a_Node000004"><a xlink:href="classdepicture__menu_1_1usecase_1_1change__menu__config.html#ad2f3f81c677ba6b097b4c3b222a2acc0" target="_top" xlink:title=" ">
<polygon fill="white" stroke="#666666" points="127.75,-137 0,-137 0,-93 127.75,-93 127.75,-137"/>
<text xml:space="preserve" text-anchor="start" x="8" y="-123.5" font-family="Helvetica,sans-Serif" font-size="10.00">depicture_menu::usecase</text>
<text xml:space="preserve" text-anchor="start" x="8" y="-111.5" font-family="Helvetica,sans-Serif" font-size="10.00">::change_menu_config::</text>
<text xml:space="preserve" text-anchor="middle" x="63.88" y="-99.5" font-family="Helvetica,sans-Serif" font-size="10.00">operator()</text>
</a>
</g>
</g>
<!-- Node3&#45;&gt;Node4 -->
<g id="edge3_Node000003_Node000004" class="edge">
<title>Node3&#45;&gt;Node4</title>
<g id="a_edge3_Node000003_Node000004"><a xlink:title=" ">
<path fill="none" stroke="#63b8ff" d="M152.33,-98.24C144.28,-99.78 136.14,-101.34 128.24,-102.86"/>
<polygon fill="#63b8ff" stroke="#63b8ff" points="152.98,-101.68 162.14,-96.36 151.66,-94.8 152.98,-101.68"/>
</a>
</g>
</g>
<!-- Node5 -->
<g id="Node000005" class="node">
<title>Node5</title>
<g id="a_Node000005"><a xlink:href="classdepicture__menu_1_1usecase_1_1change__menu__config.html#aef8321445e35d96947511bfeb6b35d59" target="_top" xlink:title=" ">
<polygon fill="white" stroke="#666666" points="127.75,-75 0,-75 0,-31 127.75,-31 127.75,-75"/>
<text xml:space="preserve" text-anchor="start" x="8" y="-61.5" font-family="Helvetica,sans-Serif" font-size="10.00">depicture_menu::usecase</text>
<text xml:space="preserve" text-anchor="start" x="8" y="-49.5" font-family="Helvetica,sans-Serif" font-size="10.00">::change_menu_config::</text>
<text xml:space="preserve" text-anchor="middle" x="63.88" y="-37.5" font-family="Helvetica,sans-Serif" font-size="10.00">operator()</text>
</a>
</g>
</g>
<!-- Node3&#45;&gt;Node5 -->
<g id="edge4_Node000003_Node000005" class="edge">
<title>Node3&#45;&gt;Node5</title>
<g id="a_edge4_Node000003_Node000005"><a xlink:title=" ">
<path fill="none" stroke="#63b8ff" d="M152.33,-69.76C144.28,-68.22 136.14,-66.66 128.24,-65.14"/>
<polygon fill="#63b8ff" stroke="#63b8ff" points="151.66,-73.2 162.14,-71.64 152.98,-66.32 151.66,-73.2"/>
</a>
</g>
</g>
</g>
</svg>
