<?xml version="1.0" encoding="UTF-8" standalone="no"?>
<!DOCTYPE svg PUBLIC "-//W3C//DTD SVG 1.1//EN"
 "http://www.w3.org/Graphics/SVG/1.1/DTD/svg11.dtd">
<!-- Generated by graphviz version 14.1.2 (20260124.0452)
 -->
<!-- Title: depicture_menu::domain::models::entity_id_base::uuid Pages: 1 -->
<svg width="521pt" height="557pt"
 viewBox="0.00 0.00 521.00 557.00" xmlns="http://www.w3.org/2000/svg" xmlns:xlink="http://www.w3.org/1999/xlink">
<g id="graph0" class="graph" transform="scale(1 1) rotate(0) translate(4 553)">
<title>depicture_menu::domain::models::entity_id_base::uuid</title>
<!-- Node1 -->
<g id="Node000001" class="node">
<title>Node1</title>
<g id="a_Node000001"><a xlink:title=" ">
<polygon fill="#999999" stroke="#666666" points="513,-309 366.5,-309 366.5,-277 513,-277 513,-309"/>
<text xml:space="preserve" text-anchor="start" x="374.5" y="-295.5" font-family="Helvetica,sans-Serif" font-size="10.00">depicture_menu::domain</text>
<text xml:space="preserve" text-anchor="middle" x="439.75" y="-283.5" font-family="Helvetica,sans-Serif" font-size="10.00">::models::entity_id_base::uuid</text>
</a>
</g>
</g>
<!-- Node2 -->
<g id="Node000002" class="node">
<title>Node2</title>
<g id="a_Node000002"><a xlink:href="namespacedepicture__menu_1_1cs__binding.html#ab3723c3cdf6784268fcf70c081f1f5a3" target="_top" xlink:title=" ">
<polygon fill="white" stroke="#666666" points="322.62,-549 191.12,-549 191.12,-517 322.62,-517 322.62,-549"/>
<text xml:space="preserve" text-anchor="start" x="199.12" y="-535.5" font-family="Helvetica,sans-Serif" font-size="10.00">depicture_menu::cs</text>
<text xml:space="preserve" text-anchor="middle" x="256.88" y="-523.5" font-family="Helvetica,sans-Serif" font-size="10.00">_binding::apply_config_arg</text>
</a>
</g>
</g>
<!-- Node1&#45;&gt;Node2 -->
<g id="edge1_Node000001_Node000002" class="edge">
<title>Node1&#45;&gt;Node2</title>
<g id="a_edge1_Node000001_Node000002"><a xlink:title=" ">
<path fill="none" stroke="#63b8ff" d="M432.19,-320.37C419.93,-365.75 389.3,-456.64 330.5,-508 326.78,-511.25 322.63,-514.08 318.23,-516.54"/>
<polygon fill="#63b8ff" stroke="#63b8ff" points="435.54,-321.38 434.66,-310.82 428.76,-319.63 435.54,-321.38"/>
</a>
</g>
</g>
<!-- Node3 -->
<g id="Node000003" class="node">
<title>Node3</title>
<g id="a_Node000003"><a xlink:href="_test_config_view_presenter_8cpp.html#a26671984c98496781b11fd7859f0c808" target="_top" xlink:title=" ">
<polygon fill="white" stroke="#666666" points="330.5,-499 183.25,-499 183.25,-479 330.5,-479 330.5,-499"/>
<text xml:space="preserve" text-anchor="middle" x="256.88" y="-485.5" font-family="Helvetica,sans-Serif" font-size="10.00">BOOST_AUTO_TEST_CASE</text>
</a>
</g>
</g>
<!-- Node1&#45;&gt;Node3 -->
<g id="edge2_Node000001_Node000003" class="edge">
<title>Node1&#45;&gt;Node3</title>
<g id="a_edge2_Node000001_Node000003"><a xlink:title=" ">
<path fill="none" stroke="#63b8ff" d="M429.62,-320.13C415.02,-359.32 382.63,-431.28 330.5,-470 325.9,-473.42 320.73,-476.22 315.33,-478.53"/>
<polygon fill="#63b8ff" stroke="#63b8ff" points="432.91,-321.34 432.99,-310.75 426.32,-318.98 432.91,-321.34"/>
</a>
</g>
</g>
<!-- Node4 -->
<g id="Node000004" class="node">
<title>Node4</title>
<g id="a_Node000004"><a xlink:href="_test_config_view_presenter_8cpp.html#aa22b1a583887606415a2d70eed61caca" target="_top" xlink:title=" ">
<polygon fill="white" stroke="#666666" points="330.5,-461 183.25,-461 183.25,-441 330.5,-441 330.5,-461"/>
<text xml:space="preserve" text-anchor="middle" x="256.88" y="-447.5" font-family="Helvetica,sans-Serif" font-size="10.00">BOOST_AUTO_TEST_CASE</text>
</a>
</g>
</g>
<!-- Node1&#45;&gt;Node4 -->
<g id="edge3_Node000001_Node000004" class="edge">
<title>Node1&#45;&gt;Node4</title>
<g id="a_edge3_Node000001_Node000004"><a xlink:title=" ">
<path fill="none" stroke="#63b8ff" d="M425.5,-318.95C408.04,-350.5 374.33,-403.13 330.5,-432 325.28,-435.44 319.46,-438.26 313.45,-440.57"/>
<polygon fill="#63b8ff" stroke="#63b8ff" points="428.42,-320.91 430.08,-310.45 422.25,-317.6 428.42,-320.91"/>
</a>
</g>
</g>
<!-- Node5 -->
<g id="Node000005" class="node">
<title>Node5</title>
<g id="a_Node000005"><a xlink:href="classdepicture__menu_1_1domain_1_1services_1_1common__action__builder.html#aa670bccd31eab4473fa4bf345cd44ff4" target="_top" xlink:title=" ">
<polygon fill="white" stroke="#666666" points="323.75,-423 190,-423 190,-367 323.75,-367 323.75,-423"/>
<text xml:space="preserve" text-anchor="start" x="198" y="-409.5" font-family="Helvetica,sans-Serif" font-size="10.00">depicture_menu::domain</text>
<text xml:space="preserve" text-anchor="start" x="198" y="-397.5" font-family="Helvetica,sans-Serif" font-size="10.00">::services::common_action</text>
<text xml:space="preserve" text-anchor="start" x="198" y="-385.5" font-family="Helvetica,sans-Serif" font-size="10.00">_builder::build_open_sub</text>
<text xml:space="preserve" text-anchor="middle" x="256.88" y="-373.5" font-family="Helvetica,sans-Serif" font-size="10.00">_menu_action</text>
</a>
</g>
</g>
<!-- Node1&#45;&gt;Node5 -->
<g id="edge4_Node000001_Node000005" class="edge">
<title>Node1&#45;&gt;Node5</title>
<g id="a_edge4_Node000001_Node000005"><a xlink:title=" ">
<path fill="none" stroke="#63b8ff" d="M403.06,-315.29C382.13,-328.14 355.05,-344.4 330.5,-358 325.3,-360.88 319.85,-363.81 314.38,-366.7"/>
<polygon fill="#63b8ff" stroke="#63b8ff" points="404.84,-318.3 411.51,-310.07 401.16,-312.34 404.84,-318.3"/>
</a>
</g>
</g>
<!-- Node6 -->
<g id="Node000006" class="node">
<title>Node6</title>
<g id="a_Node000006"><a xlink:href="namespacedepicture__menu_1_1usecase_1_1detail__usecase__invoke__action.html#a769d9871579b0b962baf37eeb2a15f4a" target="_top" xlink:title=" ">
<polygon fill="white" stroke="#666666" points="321.5,-349 192.25,-349 192.25,-305 321.5,-305 321.5,-349"/>
<text xml:space="preserve" text-anchor="start" x="200.25" y="-335.5" font-family="Helvetica,sans-Serif" font-size="10.00">depicture_menu::usecase</text>
<text xml:space="preserve" text-anchor="start" x="200.25" y="-323.5" font-family="Helvetica,sans-Serif" font-size="10.00">::detail_usecase_invoke</text>
<text xml:space="preserve" text-anchor="middle" x="256.88" y="-311.5" font-family="Helvetica,sans-Serif" font-size="10.00">_action::do_invoke_action</text>
</a>
</g>
</g>
<!-- Node1&#45;&gt;Node6 -->
<g id="edge5_Node000001_Node000006" class="edge">
<title>Node1&#45;&gt;Node6</title>
<g id="a_edge5_Node000001_Node000006"><a xlink:title=" ">
<path fill="none" stroke="#63b8ff" d="M355.14,-308.72C343.99,-310.81 332.7,-312.93 321.95,-314.95"/>
<polygon fill="#63b8ff" stroke="#63b8ff" points="355.55,-312.2 364.74,-306.91 354.26,-305.32 355.55,-312.2"/>
</a>
</g>
</g>
<!-- Node8 -->
<g id="Node000008" class="node">
<title>Node8</title>
<g id="a_Node000008"><a xlink:href="structdepicture__menu_1_1cs__binding_1_1detail__cs__binding_1_1add__new__item.html#a9355600db8e8054b962e7375ab26e4dc" target="_top" xlink:title=" ">
<polygon fill="white" stroke="#666666" points="317.38,-287 196.38,-287 196.38,-231 317.38,-231 317.38,-287"/>
<text xml:space="preserve" text-anchor="start" x="204.38" y="-273.5" font-family="Helvetica,sans-Serif" font-size="10.00">depicture_menu::cs</text>
<text xml:space="preserve" text-anchor="start" x="204.38" y="-261.5" font-family="Helvetica,sans-Serif" font-size="10.00">_binding::detail_cs</text>
<text xml:space="preserve" text-anchor="start" x="204.38" y="-249.5" font-family="Helvetica,sans-Serif" font-size="10.00">_binding::add_new_item</text>
<text xml:space="preserve" text-anchor="middle" x="256.88" y="-237.5" font-family="Helvetica,sans-Serif" font-size="10.00">::operator()</text>
</a>
</g>
</g>
<!-- Node1&#45;&gt;Node8 -->
<g id="edge7_Node000001_Node000008" class="edge">
<title>Node1&#45;&gt;Node8</title>
<g id="a_edge7_Node000001_Node000008"><a xlink:title=" ">
<path fill="none" stroke="#63b8ff" d="M355.17,-277.29C342.51,-274.91 329.68,-272.5 317.66,-270.24"/>
<polygon fill="#63b8ff" stroke="#63b8ff" points="354.26,-280.68 364.74,-279.09 355.55,-273.8 354.26,-280.68"/>
</a>
</g>
</g>
<!-- Node9 -->
<g id="Node000009" class="node">
<title>Node9</title>
<g id="a_Node000009"><a xlink:href="structdepicture__menu_1_1cs__binding_1_1detail__cs__binding_1_1add__or__find__item__impl.html#a4505e01b8d878d01e4c49afa18221d52" target="_top" xlink:title=" ">
<polygon fill="white" stroke="#666666" points="312.12,-213 201.62,-213 201.62,-157 312.12,-157 312.12,-213"/>
<text xml:space="preserve" text-anchor="start" x="209.62" y="-199.5" font-family="Helvetica,sans-Serif" font-size="10.00">depicture_menu::cs</text>
<text xml:space="preserve" text-anchor="start" x="209.62" y="-187.5" font-family="Helvetica,sans-Serif" font-size="10.00">_binding::detail_cs</text>
<text xml:space="preserve" text-anchor="start" x="209.62" y="-175.5" font-family="Helvetica,sans-Serif" font-size="10.00">_binding::add_or_find</text>
<text xml:space="preserve" text-anchor="middle" x="256.88" y="-163.5" font-family="Helvetica,sans-Serif" font-size="10.00">_item_impl::operator()</text>
</a>
</g>
</g>
<!-- Node1&#45;&gt;Node9 -->
<g id="edge8_Node000001_Node000009" class="edge">
<title>Node1&#45;&gt;Node9</title>
<g id="a_edge8_Node000001_Node000009"><a xlink:title=" ">
<path fill="none" stroke="#63b8ff" d="M406.08,-270.23C384.9,-255.81 356.51,-237.1 330.5,-222 324.75,-218.66 318.66,-215.3 312.55,-212.04"/>
<polygon fill="#63b8ff" stroke="#63b8ff" points="404.09,-273.11 414.32,-275.88 408.05,-267.33 404.09,-273.11"/>
</a>
</g>
</g>
<!-- Node10 -->
<g id="Node000010" class="node">
<title>Node10</title>
<g id="a_Node000010"><a xlink:href="namespacedepicture__menu_1_1domain_1_1models.html#a21da93a05aca62fbb2ddfa3070e7322e" target="_top" xlink:title=" ">
<polygon fill="white" stroke="#666666" points="318.12,-139 195.62,-139 195.62,-107 318.12,-107 318.12,-139"/>
<text xml:space="preserve" text-anchor="start" x="203.62" y="-125.5" font-family="Helvetica,sans-Serif" font-size="10.00">depicture_menu::domain</text>
<text xml:space="preserve" text-anchor="middle" x="256.88" y="-113.5" font-family="Helvetica,sans-Serif" font-size="10.00">::models::operator&lt;&lt;</text>
</a>
</g>
</g>
<!-- Node1&#45;&gt;Node10 -->
<g id="edge9_Node000001_Node000010" class="edge">
<title>Node1&#45;&gt;Node10</title>
<g id="a_edge9_Node000001_Node000010"><a xlink:title=" ">
<path fill="none" stroke="#63b8ff" d="M425.41,-266.47C407.85,-234.11 374.04,-179.78 330.5,-148 326.08,-144.78 321.22,-141.94 316.16,-139.46"/>
<polygon fill="#63b8ff" stroke="#63b8ff" points="422.26,-268 430.02,-275.21 428.45,-264.73 422.26,-268"/>
</a>
</g>
</g>
<!-- Node11 -->
<g id="Node000011" class="node">
<title>Node11</title>
<g id="a_Node000011"><a xlink:href="namespacedepicture__menu_1_1domain_1_1models.html#a8e2859c4a399f586350c980141328c9e" target="_top" xlink:title=" ">
<polygon fill="white" stroke="#666666" points="318.12,-89 195.62,-89 195.62,-57 318.12,-57 318.12,-89"/>
<text xml:space="preserve" text-anchor="start" x="203.62" y="-75.5" font-family="Helvetica,sans-Serif" font-size="10.00">depicture_menu::domain</text>
<text xml:space="preserve" text-anchor="middle" x="256.88" y="-63.5" font-family="Helvetica,sans-Serif" font-size="10.00">::models::operator==</text>
</a>
</g>
</g>
<!-- Node1&#45;&gt;Node11 -->
<g id="edge10_Node000001_Node000011" class="edge">
<title>Node1&#45;&gt;Node11</title>
<g id="a_edge10_Node000001_Node000011"><a xlink:title=" ">
<path fill="none" stroke="#63b8ff" d="M430.67,-265.77C416.88,-223.85 384.88,-143.6 330.5,-98 326.62,-94.74 322.29,-91.9 317.73,-89.43"/>
<polygon fill="#63b8ff" stroke="#63b8ff" points="427.26,-266.6 433.62,-275.07 433.93,-264.48 427.26,-266.6"/>
</a>
</g>
</g>
<!-- Node12 -->
<g id="Node000012" class="node">
<title>Node12</title>
<g id="a_Node000012"><a xlink:href="action__change__operation_8cpp.html#a3ed913cc3c991a79bda66f42b5b9d032" target="_top" xlink:title=" ">
<polygon fill="white" stroke="#666666" points="303.5,-39 210.25,-39 210.25,-19 303.5,-19 303.5,-39"/>
<text xml:space="preserve" text-anchor="middle" x="256.88" y="-25.5" font-family="Helvetica,sans-Serif" font-size="10.00">set_menu_on_arg</text>
</a>
</g>
</g>
<!-- Node1&#45;&gt;Node12 -->
<g id="edge11_Node000001_Node000012" class="edge">
<title>Node1&#45;&gt;Node12</title>
<g id="a_edge11_Node000001_Node000012"><a xlink:title=" ">
<path fill="none" stroke="#63b8ff" d="M434.6,-265.65C425.41,-214.87 398.52,-105.91 330.5,-48 322.96,-41.58 313.49,-37.3 303.91,-34.45"/>
<polygon fill="#63b8ff" stroke="#63b8ff" points="431.09,-265.92 436.22,-275.19 437.99,-264.75 431.09,-265.92"/>
</a>
</g>
</g>
<!-- Node7 -->
<g id="Node000007" class="node">
<title>Node7</title>
<g id="a_Node000007"><a xlink:href="structdepicture__menu_1_1usecase_1_1invoke__action.html#a79c045bc3e00ffd7d9cf221e01432374" target="_top" xlink:title=" ">
<polygon fill="white" stroke="#666666" points="137.5,-343 9.75,-343 9.75,-311 137.5,-311 137.5,-343"/>
<text xml:space="preserve" text-anchor="start" x="17.75" y="-329.5" font-family="Helvetica,sans-Serif" font-size="10.00">depicture_menu::usecase</text>
<text xml:space="preserve" text-anchor="middle" x="73.62" y="-317.5" font-family="Helvetica,sans-Serif" font-size="10.00">::invoke_action::invoke</text>
</a>
</g>
</g>
<!-- Node6&#45;&gt;Node7 -->
<g id="edge6_Node000006_Node000007" class="edge">
<title>Node6&#45;&gt;Node7</title>
<g id="a_edge6_Node000006_Node000007"><a xlink:title=" ">
<path fill="none" stroke="#63b8ff" d="M180.71,-327C166.5,-327 151.76,-327 137.95,-327"/>
<polygon fill="#63b8ff" stroke="#63b8ff" points="180.46,-330.5 190.46,-327 180.46,-323.5 180.46,-330.5"/>
</a>
</g>
</g>
<!-- Node13 -->
<g id="Node000013" class="node">
<title>Node13</title>
<g id="a_Node000013"><a xlink:href="action__change__operation_8cpp.html#afe6c22a200757c0f8588c441bf4aa5a6" target="_top" xlink:title=" ">
<polygon fill="white" stroke="#666666" points="147.25,-58 0,-58 0,-38 147.25,-38 147.25,-58"/>
<text xml:space="preserve" text-anchor="middle" x="73.62" y="-44.5" font-family="Helvetica,sans-Serif" font-size="10.00">BOOST_AUTO_TEST_CASE</text>
</a>
</g>
</g>
<!-- Node12&#45;&gt;Node13 -->
<g id="edge12_Node000012_Node000013" class="edge">
<title>Node12&#45;&gt;Node13</title>
<g id="a_edge12_Node000012_Node000013"><a xlink:title=" ">
<path fill="none" stroke="#63b8ff" d="M199.12,-34.95C182.77,-36.66 164.69,-38.56 147.51,-40.36"/>
<polygon fill="#63b8ff" stroke="#63b8ff" points="199.05,-38.48 208.63,-33.95 198.32,-31.51 199.05,-38.48"/>
</a>
</g>
</g>
<!-- Node14 -->
<g id="Node000014" class="node">
<title>Node14</title>
<g id="a_Node000014"><a xlink:href="action__change__operation_8cpp.html#a9994c6d4b951a7a0bfbb2f0c4db29e5f" target="_top" xlink:title=" ">
<polygon fill="white" stroke="#666666" points="147.25,-20 0,-20 0,0 147.25,0 147.25,-20"/>
<text xml:space="preserve" text-anchor="middle" x="73.62" y="-6.5" font-family="Helvetica,sans-Serif" font-size="10.00">BOOST_AUTO_TEST_CASE</text>
</a>
</g>
</g>
<!-- Node12&#45;&gt;Node14 -->
<g id="edge13_Node000012_Node000014" class="edge">
<title>Node12&#45;&gt;Node14</title>
<g id="a_edge13_Node000012_Node000014"><a xlink:title=" ">
<path fill="none" stroke="#63b8ff" d="M199.12,-23.05C182.77,-21.34 164.69,-19.44 147.51,-17.64"/>
<polygon fill="#63b8ff" stroke="#63b8ff" points="198.32,-26.49 208.63,-24.05 199.05,-19.52 198.32,-26.49"/>
</a>
</g>
</g>
</g>
</svg>
