<?xml version="1.0" encoding="UTF-8" standalone="no"?>
<!DOCTYPE svg PUBLIC "-//W3C//DTD SVG 1.1//EN"
 "http://www.w3.org/Graphics/SVG/1.1/DTD/svg11.dtd">
<!-- Generated by graphviz version 14.1.2 (20260124.0452)
 -->
<!-- Title: depicture_menu::domain::actions::v2::detail_actions::publisher_data Pages: 1 -->
<svg width="678pt" height="126pt"
 viewBox="0.00 0.00 678.00 126.00" xmlns="http://www.w3.org/2000/svg" xmlns:xlink="http://www.w3.org/1999/xlink">
<g id="graph0" class="graph" transform="scale(1 1) rotate(0) translate(4 122)">
<title>depicture_menu::domain::actions::v2::detail_actions::publisher_data</title>
<!-- Node1 -->
<g id="Node000001" class="node">
<title>Node1</title>
<g id="a_Node000001"><a xlink:title=" ">
<polygon fill="#999999" stroke="#666666" points="670.3,-76 547.8,-76 547.8,-32 670.3,-32 670.3,-76"/>
<text xml:space="preserve" text-anchor="start" x="555.8" y="-62.5" font-family="Helvetica,sans-Serif" font-size="10.00">depicture_menu::domain</text>
<text xml:space="preserve" text-anchor="start" x="555.8" y="-50.5" font-family="Helvetica,sans-Serif" font-size="10.00">::actions::v2::detail</text>
<text xml:space="preserve" text-anchor="middle" x="609.05" y="-38.5" font-family="Helvetica,sans-Serif" font-size="10.00">_actions::publisher_data</text>
</a>
</g>
</g>
<!-- Node2 -->
<g id="Node000002" class="node">
<title>Node2</title>
<g id="a_Node000002"><a xlink:href="structdepicture__menu_1_1domain_1_1models_1_1entity__id__base.html" target="_top" xlink:title=" ">
<polygon fill="white" stroke="#666666" points="442.05,-106 314.3,-106 314.3,-62 442.05,-62 442.05,-106"/>
<text xml:space="preserve" text-anchor="start" x="322.3" y="-92.5" font-family="Helvetica,sans-Serif" font-size="10.00">depicture_menu::domain</text>
<text xml:space="preserve" text-anchor="start" x="322.3" y="-80.5" font-family="Helvetica,sans-Serif" font-size="10.00">::models::entity_id_base</text>
<text xml:space="preserve" text-anchor="middle" x="378.17" y="-68.5" font-family="Helvetica,sans-Serif" font-size="10.00">&lt; models::standard_tag &gt;</text>
</a>
</g>
</g>
<!-- Node2&#45;&gt;Node1 -->
<g id="edge1_Node000001_Node000002" class="edge">
<title>Node2&#45;&gt;Node1</title>
<g id="a_edge1_Node000001_Node000002"><a xlink:title=" ">
<path fill="none" stroke="#9a32cd" stroke-dasharray="5,2" d="M453.73,-74.23C484.08,-70.25 518.72,-65.71 547.48,-61.94"/>
<polygon fill="#9a32cd" stroke="#9a32cd" points="453.28,-70.76 443.82,-75.53 454.19,-77.7 453.28,-70.76"/>
</a>
</g>
<text xml:space="preserve" text-anchor="start" x="472.8" y="-78.07" font-family="Helvetica,sans-Serif" font-size="10.00" fill="grey">action_id_</text>
</g>
<!-- Node3 -->
<g id="Node000003" class="node">
<title>Node3</title>
<g id="a_Node000003"><a xlink:href="structdepicture__menu_1_1domain_1_1models_1_1entity__id__base.html" target="_top" xlink:title=" ">
<polygon fill="white" stroke="#666666" points="188.3,-106 65.8,-106 65.8,-62 188.3,-62 188.3,-106"/>
<text xml:space="preserve" text-anchor="start" x="73.8" y="-92.5" font-family="Helvetica,sans-Serif" font-size="10.00">depicture_menu::domain</text>
<text xml:space="preserve" text-anchor="start" x="73.8" y="-80.5" font-family="Helvetica,sans-Serif" font-size="10.00">::models::entity_id_base</text>
<text xml:space="preserve" text-anchor="middle" x="127.05" y="-68.5" font-family="Helvetica,sans-Serif" font-size="10.00">&lt; Tag &gt;</text>
</a>
</g>
</g>
<!-- Node3&#45;&gt;Node2 -->
<g id="edge2_Node000002_Node000003" class="edge">
<title>Node3&#45;&gt;Node2</title>
<g id="a_edge2_Node000002_Node000003"><a xlink:title=" ">
<path fill="none" stroke="orange" stroke-dasharray="5,2" d="M200.11,-84C236.15,-84 279.38,-84 314.1,-84"/>
<polygon fill="orange" stroke="orange" points="200.19,-80.5 190.19,-84 200.19,-87.5 200.19,-80.5"/>
</a>
</g>
<text xml:space="preserve" text-anchor="start" x="209.3" y="-105.5" font-family="Helvetica,sans-Serif" font-size="10.00" fill="grey">&lt; models::standard</text>
<text xml:space="preserve" text-anchor="start" x="209.3" y="-89.5" font-family="Helvetica,sans-Serif" font-size="10.00" fill="grey">  _tag &gt;</text>
</g>
<!-- Node4 -->
<g id="Node000004" class="node">
<title>Node4</title>
<g id="a_Node000004"><a xlink:href="classdepicture__menu_1_1domain_1_1actions_1_1action__name.html" target="_top" xlink:title=" ">
<polygon fill="white" stroke="#666666" points="439.42,-41 316.92,-41 316.92,-9 439.42,-9 439.42,-41"/>
<text xml:space="preserve" text-anchor="start" x="324.92" y="-27.5" font-family="Helvetica,sans-Serif" font-size="10.00">depicture_menu::domain</text>
<text xml:space="preserve" text-anchor="middle" x="378.17" y="-15.5" font-family="Helvetica,sans-Serif" font-size="10.00">::actions::action_name</text>
</a>
</g>
</g>
<!-- Node4&#45;&gt;Node1 -->
<g id="edge3_Node000001_Node000004" class="edge">
<title>Node4&#45;&gt;Node1</title>
<g id="a_edge3_Node000001_Node000004"><a xlink:title=" ">
<path fill="none" stroke="#9a32cd" stroke-dasharray="5,2" d="M450.96,-22.05C476.05,-22.17 504.32,-23.62 529.8,-28 535.58,-29 541.52,-30.34 547.42,-31.89"/>
<polygon fill="#9a32cd" stroke="#9a32cd" points="451.17,-18.55 441.18,-22.08 451.19,-25.55 451.17,-18.55"/>
</a>
</g>
<text xml:space="preserve" text-anchor="start" x="463.05" y="-49.5" font-family="Helvetica,sans-Serif" font-size="10.00" fill="grey">default_name_</text>
<text xml:space="preserve" text-anchor="start" x="463.05" y="-33.5" font-family="Helvetica,sans-Serif" font-size="10.00" fill="grey">name_</text>
</g>
<!-- Node5 -->
<g id="Node000005" class="node">
<title>Node5</title>
<g id="a_Node000005"><a xlink:href="structdepicture__menu_1_1domain_1_1models_1_1base_1_1value__object__base.html" target="_top" xlink:title=" ">
<polygon fill="white" stroke="#666666" points="182.67,-44 71.42,-44 71.42,0 182.67,0 182.67,-44"/>
<text xml:space="preserve" text-anchor="start" x="79.42" y="-30.5" font-family="Helvetica,sans-Serif" font-size="10.00">models::value_object</text>
<text xml:space="preserve" text-anchor="start" x="79.42" y="-18.5" font-family="Helvetica,sans-Serif" font-size="10.00">_base&lt; detail_actions</text>
<text xml:space="preserve" text-anchor="middle" x="127.05" y="-6.5" font-family="Helvetica,sans-Serif" font-size="10.00">::action_name_data &gt;</text>
</a>
</g>
</g>
<!-- Node5&#45;&gt;Node4 -->
<g id="edge4_Node000004_Node000005" class="edge">
<title>Node5&#45;&gt;Node4</title>
<g id="a_edge4_Node000004_Node000005"><a xlink:title=" ">
<path fill="none" stroke="#63b8ff" d="M194.49,-22.8C232.47,-23.26 279.73,-23.83 316.66,-24.27"/>
<polygon fill="#63b8ff" stroke="#63b8ff" points="194.58,-19.3 184.54,-22.68 194.5,-26.3 194.58,-19.3"/>
</a>
</g>
</g>
<!-- Node6 -->
<g id="Node000006" class="node">
<title>Node6</title>
<g id="a_Node000006"><a xlink:title=" ">
<polygon fill="white" stroke="#666666" points="28.8,-32 0,-32 0,-12 28.8,-12 28.8,-32"/>
<text xml:space="preserve" text-anchor="middle" x="14.4" y="-18.5" font-family="Helvetica,sans-Serif" font-size="10.00">V</text>
</a>
</g>
</g>
<!-- Node6&#45;&gt;Node5 -->
<g id="edge5_Node000005_Node000006" class="edge">
<title>Node6&#45;&gt;Node5</title>
<g id="a_edge5_Node000005_Node000006"><a xlink:title=" ">
<path fill="none" stroke="#63b8ff" d="M40.35,-22C49.54,-22 60.36,-22 71.15,-22"/>
<polygon fill="#63b8ff" stroke="#63b8ff" points="40.48,-18.5 30.48,-22 40.48,-25.5 40.48,-18.5"/>
</a>
</g>
</g>
</g>
</svg>
