<?xml version="1.0" encoding="UTF-8" standalone="no"?>
<!DOCTYPE svg PUBLIC "-//W3C//DTD SVG 1.1//EN"
 "http://www.w3.org/Graphics/SVG/1.1/DTD/svg11.dtd">
<!-- Generated by graphviz version 14.1.2 (20260124.0452)
 -->
<!-- Title: tt::field_checker::operator() Pages: 1 -->
<svg width="600pt" height="160pt"
 viewBox="0.00 0.00 600.00 160.00" xmlns="http://www.w3.org/2000/svg" xmlns:xlink="http://www.w3.org/1999/xlink">
<g id="graph0" class="graph" transform="scale(1 1) rotate(0) translate(4 156)">
<title>tt::field_checker::operator()</title>
<!-- Node1 -->
<g id="Node000001" class="node">
<title>Node1</title>
<g id="a_Node000001"><a xlink:title=" ">
<polygon fill="#999999" stroke="#666666" points="91.75,-66 0,-66 0,-34 91.75,-34 91.75,-66"/>
<text xml:space="preserve" text-anchor="start" x="8" y="-52.5" font-family="Helvetica,sans-Serif" font-size="10.00">tt::field_checker::</text>
<text xml:space="preserve" text-anchor="middle" x="45.88" y="-40.5" font-family="Helvetica,sans-Serif" font-size="10.00">operator()</text>
</a>
</g>
</g>
<!-- Node2 -->
<g id="Node000002" class="node">
<title>Node2</title>
<g id="a_Node000002"><a xlink:href="namespacedepicture__menu_1_1reflection.html#aaf69402efde67d3327b0a5878e0bb46c" target="_top" xlink:title=" ">
<polygon fill="white" stroke="#666666" points="258.5,-94 127.75,-94 127.75,-62 258.5,-62 258.5,-94"/>
<text xml:space="preserve" text-anchor="start" x="135.75" y="-80.5" font-family="Helvetica,sans-Serif" font-size="10.00">depicture_menu::reflection</text>
<text xml:space="preserve" text-anchor="middle" x="193.12" y="-68.5" font-family="Helvetica,sans-Serif" font-size="10.00">::access_field</text>
</a>
</g>
</g>
<!-- Node1&#45;&gt;Node2 -->
<g id="edge1_Node000001_Node000002" class="edge">
<title>Node1&#45;&gt;Node2</title>
<g id="a_edge1_Node000001_Node000002"><a xlink:title=" ">
<path fill="none" stroke="#63b8ff" d="M92.04,-58.71C99.71,-60.18 107.86,-61.76 116.07,-63.34"/>
<polygon fill="#63b8ff" stroke="#63b8ff" points="115.29,-66.75 125.78,-65.21 116.62,-59.88 115.29,-66.75"/>
</a>
</g>
</g>
<!-- Node6 -->
<g id="Node000006" class="node">
<title>Node6</title>
<g id="a_Node000006"><a xlink:href="namespacedepicture__menu_1_1domain_1_1models_1_1base.html#ac495da66ce62de337cb0e9bb8ee11119" target="_top" xlink:title=" ">
<polygon fill="white" stroke="#666666" points="255.12,-44 131.12,-44 131.12,0 255.12,0 255.12,-44"/>
<text xml:space="preserve" text-anchor="start" x="139.12" y="-30.5" font-family="Helvetica,sans-Serif" font-size="10.00">depicture_menu::domain</text>
<text xml:space="preserve" text-anchor="start" x="139.12" y="-18.5" font-family="Helvetica,sans-Serif" font-size="10.00">::models::base::to_const</text>
<text xml:space="preserve" text-anchor="middle" x="193.12" y="-6.5" font-family="Helvetica,sans-Serif" font-size="10.00">_ref_tuple</text>
</a>
</g>
</g>
<!-- Node1&#45;&gt;Node6 -->
<g id="edge7_Node000001_Node000006" class="edge">
<title>Node1&#45;&gt;Node6</title>
<g id="a_edge7_Node000001_Node000006"><a xlink:title=" ">
<path fill="none" stroke="#63b8ff" d="M92.04,-41.29C100.84,-39.6 110.27,-37.78 119.69,-35.96"/>
<polygon fill="#63b8ff" stroke="#63b8ff" points="120.07,-39.45 129.23,-34.12 118.75,-32.58 120.07,-39.45"/>
</a>
</g>
</g>
<!-- Node3 -->
<g id="Node000003" class="node">
<title>Node3</title>
<g id="a_Node000003"><a xlink:href="namespacedepicture__menu_1_1reflection.html#adb9faa46ece21b7d378d916f04923bbc" target="_top" xlink:title=" ">
<polygon fill="white" stroke="#666666" points="425.25,-116 294.5,-116 294.5,-84 425.25,-84 425.25,-116"/>
<text xml:space="preserve" text-anchor="start" x="302.5" y="-102.5" font-family="Helvetica,sans-Serif" font-size="10.00">depicture_menu::reflection</text>
<text xml:space="preserve" text-anchor="middle" x="359.88" y="-90.5" font-family="Helvetica,sans-Serif" font-size="10.00">::get_field_index</text>
</a>
</g>
</g>
<!-- Node2&#45;&gt;Node3 -->
<g id="edge2_Node000002_Node000003" class="edge">
<title>Node2&#45;&gt;Node3</title>
<g id="a_edge2_Node000002_Node000003"><a xlink:title=" ">
<path fill="none" stroke="#63b8ff" d="M258.77,-86.63C266.67,-87.69 274.8,-88.77 282.85,-89.85"/>
<polygon fill="#63b8ff" stroke="#63b8ff" points="282.27,-93.3 292.65,-91.16 283.2,-86.36 282.27,-93.3"/>
</a>
</g>
</g>
<!-- Node5 -->
<g id="Node000005" class="node">
<title>Node5</title>
<g id="a_Node000005"><a xlink:href="namespacedepicture__menu_1_1reflection.html#a0b2b3bbe6bc85746a0f887135f697715" target="_top" xlink:title=" ">
<polygon fill="white" stroke="#666666" points="592,-72 461.25,-72 461.25,-40 592,-40 592,-72"/>
<text xml:space="preserve" text-anchor="start" x="469.25" y="-58.5" font-family="Helvetica,sans-Serif" font-size="10.00">depicture_menu::reflection</text>
<text xml:space="preserve" text-anchor="middle" x="526.62" y="-46.5" font-family="Helvetica,sans-Serif" font-size="10.00">::has_field</text>
</a>
</g>
</g>
<!-- Node2&#45;&gt;Node5 -->
<g id="edge6_Node000002_Node000005" class="edge">
<title>Node2&#45;&gt;Node5</title>
<g id="a_edge6_Node000002_Node000005"><a xlink:title=" ">
<path fill="none" stroke="#63b8ff" d="M258.83,-73.71C313.5,-70.08 391.89,-64.88 449.56,-61.05"/>
<polygon fill="#63b8ff" stroke="#63b8ff" points="449.55,-64.56 459.29,-60.4 449.08,-57.57 449.55,-64.56"/>
</a>
</g>
</g>
<!-- Node4 -->
<g id="Node000004" class="node">
<title>Node4</title>
<g id="a_Node000004"><a xlink:href="namespacedepicture__menu_1_1reflection_1_1detail__reflection.html#acf183d0f4dd4183a2334fe27a68f9b1e" target="_top" xlink:title=" ">
<polygon fill="white" stroke="#666666" points="592,-134 461.25,-134 461.25,-90 592,-90 592,-134"/>
<text xml:space="preserve" text-anchor="start" x="469.25" y="-120.5" font-family="Helvetica,sans-Serif" font-size="10.00">depicture_menu::reflection</text>
<text xml:space="preserve" text-anchor="start" x="469.25" y="-108.5" font-family="Helvetica,sans-Serif" font-size="10.00">::detail_reflection::get</text>
<text xml:space="preserve" text-anchor="middle" x="526.62" y="-96.5" font-family="Helvetica,sans-Serif" font-size="10.00">_field_index</text>
</a>
</g>
</g>
<!-- Node3&#45;&gt;Node4 -->
<g id="edge3_Node000003_Node000004" class="edge">
<title>Node3&#45;&gt;Node4</title>
<g id="a_edge3_Node000003_Node000004"><a xlink:title=" ">
<path fill="none" stroke="#63b8ff" d="M425.52,-104.71C433.42,-105.28 441.55,-105.88 449.6,-106.46"/>
<polygon fill="#63b8ff" stroke="#63b8ff" points="449.16,-109.94 459.39,-107.18 449.67,-102.96 449.16,-109.94"/>
</a>
</g>
</g>
<!-- Node3&#45;&gt;Node5 -->
<g id="edge5_Node000003_Node000005" class="edge">
<title>Node3&#45;&gt;Node5</title>
<g id="a_edge5_Node000003_Node000005"><a xlink:title=" ">
<path fill="none" stroke="#63b8ff" d="M422.22,-83.62C432.23,-80.94 442.69,-78.15 452.94,-75.41"/>
<polygon fill="#63b8ff" stroke="#63b8ff" points="453.73,-78.82 462.49,-72.86 451.93,-72.06 453.73,-78.82"/>
</a>
</g>
</g>
<!-- Node4&#45;&gt;Node4 -->
<g id="edge4_Node000004_Node000004" class="edge">
<title>Node4&#45;&gt;Node4</title>
<g id="a_edge4_Node000004_Node000004"><a xlink:title=" ">
<path fill="none" stroke="#63b8ff" d="M495.73,-134.21C493.2,-143.8 503.5,-152 526.62,-152 539.99,-152 549.07,-149.26 553.87,-145.09"/>
<polygon fill="#63b8ff" stroke="#63b8ff" points="557.18,-146.24 557.04,-135.65 550.54,-144.02 557.18,-146.24"/>
</a>
</g>
</g>
</g>
</svg>
