<?xml version="1.0" encoding="UTF-8" standalone="no"?>
<!DOCTYPE svg PUBLIC "-//W3C//DTD SVG 1.1//EN"
 "http://www.w3.org/Graphics/SVG/1.1/DTD/svg11.dtd">
<!-- Generated by graphviz version 14.1.2 (20260124.0452)
 -->
<!-- Title: depicture_menu::cs_binding::list_wrapper::at_ptr Pages: 1 -->
<!--zoomable 535 -->

<svg id="main" version="1.1" xmlns="http://www.w3.org/2000/svg" xmlns:xlink="http://www.w3.org/1999/xlink" xml:space="preserve" onload="init(evt)">

<style type="text/css"><![CDATA[
.node, .edge {opacity: 0.7;}
.node.selected, .edge.selected {opacity: 1;}
.edge:hover path { stroke: red; }
.edge:hover polygon { stroke: red; fill: red; }
]]></style>

<defs>
  <circle id="rim" cx="0" cy="0" r="7"/>
  <circle id="rim2" cx="0" cy="0" r="3.5"/>
  <g id="zoomPlus">
    <use xlink:href="#rim" fill="#404040"><set attributeName="fill" to="#808080" begin="zoomplus.mouseover" end="zoomplus.mouseout"/></use>
    <path d="M-4,0h8M0,-4v8" fill="none" stroke="white" stroke-width="1.5" pointer-events="none"/>
  </g>
  <g id="zoomMin">
    <use xlink:href="#rim" fill="#404040"><set attributeName="fill" to="#808080" begin="zoomminus.mouseover" end="zoomminus.mouseout"/></use>
    <path d="M-4,0h8" fill="none" stroke="white" stroke-width="1.5" pointer-events="none"/>
  </g>
  <g id="arrowUp" transform="translate(30 24)">
    <use xlink:href="#rim"/>
    <path pointer-events="none" fill="none" stroke="white" stroke-width="1.5" d="M0,-3.0v7 M-2.5,-0.5L0,-3.0L2.5,-0.5"/>
  </g>
  <g id="arrowRight" transform="rotate(90) translate(36 -43)">
    <use xlink:href="#rim"/>
    <path pointer-events="none" fill="none" stroke="white" stroke-width="1.5" d="M0,-3.0v7 M-2.5,-0.5L0,-3.0L2.5,-0.5"/>
  </g>
  <g id="arrowDown" transform="rotate(180) translate(-30 -48)">
    <use xlink:href="#rim"/>
    <path pointer-events="none" fill="none" stroke="white" stroke-width="1.5" d="M0,-3.0v7 M-2.5,-0.5L0,-3.0L2.5,-0.5"/>
  </g>
  <g id="arrowLeft" transform="rotate(270) translate(-36 17)">
    <use xlink:href="#rim"/>
    <path pointer-events="none" fill="none" stroke="white" stroke-width="1.5" d="M0,-3.0v7 M-2.5,-0.5L0,-3.0L2.5,-0.5"/>
  </g>
  <g id="resetDef">
    <use xlink:href="#rim2" fill="#404040"><set attributeName="fill" to="#808080" begin="reset.mouseover" end="reset.mouseout"/></use>
  </g>
</defs>
<script type="application/ecmascript">
var viewWidth = 485;
var viewHeight = 535;
var sectionId = 'dynsection-2';
</script>
<script type="application/ecmascript" xlink:href="svg.min.js"/>
<svg id="graph" class="graph">
<g id="viewport">
<title>depicture_menu::cs_binding::list_wrapper::at_ptr</title>
<!-- Node1 -->
<g id="Node000001" class="node">
<title>Node1</title>
<g id="a_Node000001"><a xlink:title=" ">
<polygon fill="#999999" stroke="#666666" points="477,-330 366.5,-330 366.5,-286 477,-286 477,-330"/>
<text xml:space="preserve" text-anchor="start" x="374.5" y="-316.5" font-family="Helvetica,sans-Serif" font-size="10.00">depicture_menu::cs</text>
<text xml:space="preserve" text-anchor="start" x="374.5" y="-304.5" font-family="Helvetica,sans-Serif" font-size="10.00">_binding::list_wrapper</text>
<text xml:space="preserve" text-anchor="middle" x="421.75" y="-292.5" font-family="Helvetica,sans-Serif" font-size="10.00">::at_ptr</text>
</a>
</g>
</g>
<!-- Node2 -->
<g id="Node000002" class="node">
<title>Node2</title>
<g id="a_Node000002"><a xlink:href="_test_config_arg_8cpp.html#a638bc5ddf19485d18932b4bb198d56d9" target="_top" xlink:title=" ">
<polygon fill="white" stroke="#666666" points="284.75,-508 229,-508 229,-488 284.75,-488 284.75,-508"/>
<text xml:space="preserve" text-anchor="middle" x="256.88" y="-494.5" font-family="Helvetica,sans-Serif" font-size="10.00">add_item</text>
</a>
</g>
</g>
<!-- Node1&#45;&gt;Node2 -->
<g id="edge1_Node000001_Node000002" class="edge">
<title>Node1&#45;&gt;Node2</title>
<g id="a_edge1_Node000001_Node000002"><a xlink:title=" ">
<path fill="none" stroke="#63b8ff" d="M412.12,-341.1C400.26,-379.96 375.14,-443.59 330.5,-479 317.63,-489.2 299.84,-493.97 285.09,-496.17"/>
<polygon fill="#63b8ff" stroke="#63b8ff" points="415.39,-342.4 414.83,-331.82 408.67,-340.44 415.39,-342.4"/>
</a>
</g>
</g>
<!-- Node5 -->
<g id="Node000005" class="node">
<title>Node5</title>
<g id="a_Node000005"><a xlink:href="test__list__wrapper_8cpp.html#a8f0266a51cfd49790348d4650dba934c" target="_top" xlink:title="add : TestCase">
<polygon fill="white" stroke="#666666" points="330.5,-470 183.25,-470 183.25,-450 330.5,-450 330.5,-470"/>
<text xml:space="preserve" text-anchor="middle" x="256.88" y="-456.5" font-family="Helvetica,sans-Serif" font-size="10.00">BOOST_AUTO_TEST_CASE</text>
</a>
</g>
</g>
<!-- Node1&#45;&gt;Node5 -->
<g id="edge4_Node000001_Node000005" class="edge">
<title>Node1&#45;&gt;Node5</title>
<g id="a_edge4_Node000001_Node000005"><a xlink:title=" ">
<path fill="none" stroke="#63b8ff" d="M407,-340.43C392.41,-370.92 366.48,-415.57 330.5,-441 325.6,-444.46 320.12,-447.29 314.42,-449.6"/>
<polygon fill="#63b8ff" stroke="#63b8ff" points="410.03,-342.21 411.05,-331.66 403.67,-339.27 410.03,-342.21"/>
</a>
</g>
</g>
<!-- Node6 -->
<g id="Node000006" class="node">
<title>Node6</title>
<g id="a_Node000006"><a xlink:href="test__list__wrapper_8cpp.html#a1129bac24b98e7981066518808acdbc9" target="_top" xlink:title="add_only : TestCase">
<polygon fill="white" stroke="#666666" points="330.5,-432 183.25,-432 183.25,-412 330.5,-412 330.5,-432"/>
<text xml:space="preserve" text-anchor="middle" x="256.88" y="-418.5" font-family="Helvetica,sans-Serif" font-size="10.00">BOOST_AUTO_TEST_CASE</text>
</a>
</g>
</g>
<!-- Node1&#45;&gt;Node6 -->
<g id="edge5_Node000001_Node000006" class="edge">
<title>Node1&#45;&gt;Node6</title>
<g id="a_edge5_Node000001_Node000006"><a xlink:title=" ">
<path fill="none" stroke="#63b8ff" d="M398.62,-339.15C382.13,-360.15 357.8,-386.88 330.5,-403 324.66,-406.45 318.2,-409.28 311.61,-411.6"/>
<polygon fill="#63b8ff" stroke="#63b8ff" points="401.21,-341.52 404.5,-331.45 395.65,-337.28 401.21,-341.52"/>
</a>
</g>
</g>
<!-- Node7 -->
<g id="Node000007" class="node">
<title>Node7</title>
<g id="a_Node000007"><a xlink:href="test__list__wrapper_8cpp.html#ac288d01eb57ee11cc67124cf53f6f823" target="_top" xlink:title="move : TestCase">
<polygon fill="white" stroke="#666666" points="330.5,-394 183.25,-394 183.25,-374 330.5,-374 330.5,-394"/>
<text xml:space="preserve" text-anchor="middle" x="256.88" y="-380.5" font-family="Helvetica,sans-Serif" font-size="10.00">BOOST_AUTO_TEST_CASE</text>
</a>
</g>
</g>
<!-- Node1&#45;&gt;Node7 -->
<g id="edge6_Node000001_Node000007" class="edge">
<title>Node1&#45;&gt;Node7</title>
<g id="a_edge6_Node000001_Node000007"><a xlink:title=" ">
<path fill="none" stroke="#63b8ff" d="M381.56,-336.45C366.22,-346.58 348.1,-357.36 330.5,-365 322.85,-368.32 314.48,-371.17 306.24,-373.57"/>
<polygon fill="#63b8ff" stroke="#63b8ff" points="383.15,-339.6 389.48,-331.1 379.23,-333.8 383.15,-339.6"/>
</a>
</g>
</g>
<!-- Node8 -->
<g id="Node000008" class="node">
<title>Node8</title>
<g id="a_Node000008"><a xlink:href="test__list__wrapper_8cpp.html#ab4efe9f578bb230616c9dbf49591d09b" target="_top" xlink:title="remove : TestCase">
<polygon fill="white" stroke="#666666" points="330.5,-356 183.25,-356 183.25,-336 330.5,-336 330.5,-356"/>
<text xml:space="preserve" text-anchor="middle" x="256.88" y="-342.5" font-family="Helvetica,sans-Serif" font-size="10.00">BOOST_AUTO_TEST_CASE</text>
</a>
</g>
</g>
<!-- Node1&#45;&gt;Node8 -->
<g id="edge7_Node000001_Node000008" class="edge">
<title>Node1&#45;&gt;Node8</title>
<g id="a_edge7_Node000001_Node000008"><a xlink:title=" ">
<path fill="none" stroke="#63b8ff" d="M355.24,-323.28C337.59,-327.4 318.9,-331.76 302.67,-335.55"/>
<polygon fill="#63b8ff" stroke="#63b8ff" points="355.64,-326.78 364.59,-321.1 354.05,-319.97 355.64,-326.78"/>
</a>
</g>
</g>
<!-- Node9 -->
<g id="Node000009" class="node">
<title>Node9</title>
<g id="a_Node000009"><a xlink:href="test__list__wrapper_8cpp.html#a90f639784f8069ed22859d94f3a10d84" target="_top" xlink:title="replace : TestCase">
<polygon fill="white" stroke="#666666" points="330.5,-318 183.25,-318 183.25,-298 330.5,-298 330.5,-318"/>
<text xml:space="preserve" text-anchor="middle" x="256.88" y="-304.5" font-family="Helvetica,sans-Serif" font-size="10.00">BOOST_AUTO_TEST_CASE</text>
</a>
</g>
</g>
<!-- Node1&#45;&gt;Node9 -->
<g id="edge8_Node000001_Node000009" class="edge">
<title>Node1&#45;&gt;Node9</title>
<g id="a_edge8_Node000001_Node000009"><a xlink:title=" ">
<path fill="none" stroke="#63b8ff" d="M354.75,-308C346.91,-308 338.87,-308 330.94,-308"/>
<polygon fill="#63b8ff" stroke="#63b8ff" points="354.55,-311.5 364.55,-308 354.55,-304.5 354.55,-311.5"/>
</a>
</g>
</g>
<!-- Node10 -->
<g id="Node000010" class="node">
<title>Node10</title>
<g id="a_Node000010"><a xlink:href="namespacetest__helper.html#a488b63f32d7303fb8ced3a18d5fa831e" target="_top" xlink:title=" ">
<polygon fill="white" stroke="#666666" points="305,-280 208.75,-280 208.75,-248 305,-248 305,-280"/>
<text xml:space="preserve" text-anchor="start" x="216.75" y="-266.5" font-family="Helvetica,sans-Serif" font-size="10.00">test_helper::check</text>
<text xml:space="preserve" text-anchor="middle" x="256.88" y="-254.5" font-family="Helvetica,sans-Serif" font-size="10.00">_equal</text>
</a>
</g>
</g>
<!-- Node1&#45;&gt;Node10 -->
<g id="edge9_Node000001_Node000010" class="edge">
<title>Node1&#45;&gt;Node10</title>
<g id="a_edge9_Node000001_Node000010"><a xlink:title=" ">
<path fill="none" stroke="#63b8ff" d="M355.25,-290.31C338.56,-285.8 320.93,-281.03 305.33,-276.82"/>
<polygon fill="#63b8ff" stroke="#63b8ff" points="354.03,-293.6 364.6,-292.83 355.86,-286.84 354.03,-293.6"/>
</a>
</g>
</g>
<!-- Node11 -->
<g id="Node000011" class="node">
<title>Node11</title>
<g id="a_Node000011"><a xlink:href="structdepicture__menu_1_1cs__binding_1_1list__wrapper.html#a50b3641d393591b3dbdfd3d2897d8d55" target="_top" xlink:title=" ">
<polygon fill="white" stroke="#666666" points="312.12,-230 201.62,-230 201.62,-186 312.12,-186 312.12,-230"/>
<text xml:space="preserve" text-anchor="start" x="209.62" y="-216.5" font-family="Helvetica,sans-Serif" font-size="10.00">depicture_menu::cs</text>
<text xml:space="preserve" text-anchor="start" x="209.62" y="-204.5" font-family="Helvetica,sans-Serif" font-size="10.00">_binding::list_wrapper</text>
<text xml:space="preserve" text-anchor="middle" x="256.88" y="-192.5" font-family="Helvetica,sans-Serif" font-size="10.00">&lt; Item &gt;::move_item</text>
</a>
</g>
</g>
<!-- Node1&#45;&gt;Node11 -->
<g id="edge10_Node000001_Node000011" class="edge">
<title>Node1&#45;&gt;Node11</title>
<g id="a_edge10_Node000001_Node000011"><a xlink:title=" ">
<path fill="none" stroke="#63b8ff" d="M386.5,-278.58C370.21,-265.45 350.05,-250.4 330.5,-239 324.82,-235.68 318.71,-232.52 312.54,-229.57"/>
<polygon fill="#63b8ff" stroke="#63b8ff" points="384,-281.05 393.95,-284.68 388.43,-275.64 384,-281.05"/>
</a>
</g>
</g>
<!-- Node12 -->
<g id="Node000012" class="node">
<title>Node12</title>
<g id="a_Node000012"><a xlink:href="structdepicture__menu_1_1cs__binding_1_1list__wrapper.html#a36d096846762ab64146a5f3d137c2b9a" target="_top" xlink:title=" ">
<polygon fill="white" stroke="#666666" points="314.75,-168 199,-168 199,-124 314.75,-124 314.75,-168"/>
<text xml:space="preserve" text-anchor="start" x="207" y="-154.5" font-family="Helvetica,sans-Serif" font-size="10.00">depicture_menu::cs</text>
<text xml:space="preserve" text-anchor="start" x="207" y="-142.5" font-family="Helvetica,sans-Serif" font-size="10.00">_binding::list_wrapper</text>
<text xml:space="preserve" text-anchor="middle" x="256.88" y="-130.5" font-family="Helvetica,sans-Serif" font-size="10.00">&lt; Item &gt;::remove_item</text>
</a>
</g>
</g>
<!-- Node1&#45;&gt;Node12 -->
<g id="edge11_Node000001_Node000012" class="edge">
<title>Node1&#45;&gt;Node12</title>
<g id="a_edge11_Node000001_Node000012"><a xlink:title=" ">
<path fill="none" stroke="#63b8ff" d="M405.16,-275.55C389.72,-246.39 363.63,-204.09 330.5,-177 325.83,-173.18 320.62,-169.76 315.19,-166.71"/>
<polygon fill="#63b8ff" stroke="#63b8ff" points="401.97,-277.02 409.66,-284.31 408.2,-273.81 401.97,-277.02"/>
</a>
</g>
</g>
<!-- Node13 -->
<g id="Node000013" class="node">
<title>Node13</title>
<g id="a_Node000013"><a xlink:href="structdepicture__menu_1_1cs__binding_1_1list__wrapper.html#a4063055c26d6f70fb028c39cc476f8f8" target="_top" xlink:title=" ">
<polygon fill="white" stroke="#666666" points="314.75,-106 199,-106 199,-62 314.75,-62 314.75,-106"/>
<text xml:space="preserve" text-anchor="start" x="207" y="-92.5" font-family="Helvetica,sans-Serif" font-size="10.00">depicture_menu::cs</text>
<text xml:space="preserve" text-anchor="start" x="207" y="-80.5" font-family="Helvetica,sans-Serif" font-size="10.00">_binding::list_wrapper</text>
<text xml:space="preserve" text-anchor="middle" x="256.88" y="-68.5" font-family="Helvetica,sans-Serif" font-size="10.00">&lt; Item &gt;::remove_item</text>
</a>
</g>
</g>
<!-- Node1&#45;&gt;Node13 -->
<g id="edge12_Node000001_Node000013" class="edge">
<title>Node1&#45;&gt;Node13</title>
<g id="a_edge12_Node000001_Node000013"><a xlink:title=" ">
<path fill="none" stroke="#63b8ff" d="M412.99,-274.47C401.61,-232.16 376.57,-159.53 330.5,-115 325.97,-110.62 320.72,-106.81 315.15,-103.51"/>
<polygon fill="#63b8ff" stroke="#63b8ff" points="409.59,-275.28 415.47,-284.09 416.37,-273.54 409.59,-275.28"/>
</a>
</g>
</g>
<!-- Node14 -->
<g id="Node000014" class="node">
<title>Node14</title>
<g id="a_Node000014"><a xlink:href="structdepicture__menu_1_1cs__binding_1_1list__wrapper.html#a5173d55e8307ad0961233665d6bb1baf" target="_top" xlink:title=" ">
<polygon fill="white" stroke="#666666" points="314.38,-44 199.38,-44 199.38,0 314.38,0 314.38,-44"/>
<text xml:space="preserve" text-anchor="start" x="207.38" y="-30.5" font-family="Helvetica,sans-Serif" font-size="10.00">depicture_menu::cs</text>
<text xml:space="preserve" text-anchor="start" x="207.38" y="-18.5" font-family="Helvetica,sans-Serif" font-size="10.00">_binding::list_wrapper</text>
<text xml:space="preserve" text-anchor="middle" x="256.88" y="-6.5" font-family="Helvetica,sans-Serif" font-size="10.00">&lt; Item &gt;::replace_item</text>
</a>
</g>
</g>
<!-- Node1&#45;&gt;Node14 -->
<g id="edge13_Node000001_Node000014" class="edge">
<title>Node1&#45;&gt;Node14</title>
<g id="a_edge13_Node000001_Node000014"><a xlink:title=" ">
<path fill="none" stroke="#63b8ff" d="M417.5,-274.66C410.61,-221.31 389.96,-116.35 330.5,-53 325.9,-48.1 320.4,-43.94 314.52,-40.42"/>
<polygon fill="#63b8ff" stroke="#63b8ff" points="413.99,-274.82 418.65,-284.34 420.94,-273.99 413.99,-274.82"/>
</a>
</g>
</g>
<!-- Node3 -->
<g id="Node000003" class="node">
<title>Node3</title>
<g id="a_Node000003"><a xlink:href="_test_radial_menu_8cpp.html#a77543dad153f0f82871ff9f93cf9fb46" target="_top" xlink:title="get_item_id : TestCase">
<polygon fill="white" stroke="#666666" points="147.25,-527 0,-527 0,-507 147.25,-507 147.25,-527"/>
<text xml:space="preserve" text-anchor="middle" x="73.62" y="-513.5" font-family="Helvetica,sans-Serif" font-size="10.00">BOOST_AUTO_TEST_CASE</text>
</a>
</g>
</g>
<!-- Node2&#45;&gt;Node3 -->
<g id="edge2_Node000002_Node000003" class="edge">
<title>Node2&#45;&gt;Node3</title>
<g id="a_edge2_Node000002_Node000003"><a xlink:title=" ">
<path fill="none" stroke="#63b8ff" d="M217.42,-502.03C197.06,-504.17 171.37,-506.86 147.42,-509.37"/>
<polygon fill="#63b8ff" stroke="#63b8ff" points="217.65,-505.53 227.23,-501 216.92,-498.56 217.65,-505.53"/>
</a>
</g>
</g>
<!-- Node4 -->
<g id="Node000004" class="node">
<title>Node4</title>
<g id="a_Node000004"><a xlink:href="_test_config_arg_8cpp.html#a8ee18bb5e981fa2291e253beaee7e2f3" target="_top" xlink:title="observer_apply : TestCase">
<polygon fill="white" stroke="#666666" points="147.25,-489 0,-489 0,-469 147.25,-469 147.25,-489"/>
<text xml:space="preserve" text-anchor="middle" x="73.62" y="-475.5" font-family="Helvetica,sans-Serif" font-size="10.00">BOOST_AUTO_TEST_CASE</text>
</a>
</g>
</g>
<!-- Node2&#45;&gt;Node4 -->
<g id="edge3_Node000002_Node000004" class="edge">
<title>Node2&#45;&gt;Node4</title>
<g id="a_edge3_Node000002_Node000004"><a xlink:title=" ">
<path fill="none" stroke="#63b8ff" d="M217.42,-493.97C197.06,-491.83 171.37,-489.14 147.42,-486.63"/>
<polygon fill="#63b8ff" stroke="#63b8ff" points="216.92,-497.44 227.23,-495 217.65,-490.47 216.92,-497.44"/>
</a>
</g>
</g>
</g>
</svg>

<g id="navigator" transform="translate(0 0)" fill="#404254">
  <rect fill="#f2f5e9" fill-opacity="0.5" stroke="#606060" stroke-width=".5" x="0" y="0" width="60" height="60"/>
  <use id="zoomplus" xlink:href="#zoomPlus" x="17" y="9" onmousedown="handleZoom(evt,'in')"/>
  <use id="zoomminus" xlink:href="#zoomMin" x="42" y="9" onmousedown="handleZoom(evt,'out')"/>
  <use id="reset" xlink:href="#resetDef" x="30" y="36" onmousedown="handleReset()"/>
   <use id="arrowup" xlink:href="#arrowUp" x="0" y="0" onmousedown="handlePan(0,-1)"/>
  <use id="arrowright" xlink:href="#arrowRight" x="0" y="0" onmousedown="handlePan(1,0)"/>
  <use id="arrowdown" xlink:href="#arrowDown" x="0" y="0" onmousedown="handlePan(0,1)"/>
  <use id="arrowleft" xlink:href="#arrowLeft" x="0" y="0" onmousedown="handlePan(-1,0)"/>
</g>
<svg viewBox="0 0 15 15" width="100%" height="30px" preserveAspectRatio="xMaxYMin meet">
 <g id="arrow_out" transform="scale(0.3 0.3)">
  <a xlink:href="structdepicture__menu_1_1cs__binding_1_1list__wrapper_a9f91472d8c2425f31696906d6c2c84bf_icgraph_org.svg" target="_base">
   <rect id="button" ry="5" rx="5" y="6" x="6" height="38" width="38"
        fill="#f2f5e9" fill-opacity="0.5" stroke="#606060" stroke-width="1.0"/>
   <path id="arrow"
     d="M 11.500037,31.436501 C 11.940474,20.09759 22.043105,11.32322 32.158766,21.979434 L 37.068811,17.246167 C 37.068811,17.246167 37.088388,32 37.088388,32 L 22.160133,31.978069 C 22.160133,31.978069 26.997745,27.140456 26.997745,27.140456 C 18.528582,18.264221 13.291696,25.230495 11.500037,31.436501 z"
     style="fill:#404040;"/>
  </a>
 </g>
</svg>

<style type='text/css'>
<![CDATA[
[data-mouse-over-selected='false'] { opacity: 0.7; }
[data-mouse-over-selected='true']  { opacity: 1.0; }
]]>
</style>
<script type="application/ecmascript"><![CDATA[
document.addEventListener('DOMContentLoaded', (event) => {
  highlightEdges();
  highlightAdjacentNodes();
});
]]></script>
</svg>
