<?xml version="1.0" encoding="UTF-8" standalone="no"?>
<!DOCTYPE svg PUBLIC "-//W3C//DTD SVG 1.1//EN"
 "http://www.w3.org/Graphics/SVG/1.1/DTD/svg11.dtd">
<!-- Generated by graphviz version 14.1.2 (20260124.0452)
 -->
<!-- Title: depicture_menu::domain::models::aggregate_base&lt; Value, Id, Event, EventStore &gt; Pages: 1 -->
<!--zoomable 238 -->

<svg id="main" version="1.1" xmlns="http://www.w3.org/2000/svg" xmlns:xlink="http://www.w3.org/1999/xlink" xml:space="preserve" onload="init(evt)">

<style type="text/css"><![CDATA[
.node, .edge {opacity: 0.7;}
.node.selected, .edge.selected {opacity: 1;}
.edge:hover path { stroke: red; }
.edge:hover polygon { stroke: red; fill: red; }
]]></style>

<defs>
  <circle id="rim" cx="0" cy="0" r="7"/>
  <circle id="rim2" cx="0" cy="0" r="3.5"/>
  <g id="zoomPlus">
    <use xlink:href="#rim" fill="#404040"><set attributeName="fill" to="#808080" begin="zoomplus.mouseover" end="zoomplus.mouseout"/></use>
    <path d="M-4,0h8M0,-4v8" fill="none" stroke="white" stroke-width="1.5" pointer-events="none"/>
  </g>
  <g id="zoomMin">
    <use xlink:href="#rim" fill="#404040"><set attributeName="fill" to="#808080" begin="zoomminus.mouseover" end="zoomminus.mouseout"/></use>
    <path d="M-4,0h8" fill="none" stroke="white" stroke-width="1.5" pointer-events="none"/>
  </g>
  <g id="arrowUp" transform="translate(30 24)">
    <use xlink:href="#rim"/>
    <path pointer-events="none" fill="none" stroke="white" stroke-width="1.5" d="M0,-3.0v7 M-2.5,-0.5L0,-3.0L2.5,-0.5"/>
  </g>
  <g id="arrowRight" transform="rotate(90) translate(36 -43)">
    <use xlink:href="#rim"/>
    <path pointer-events="none" fill="none" stroke="white" stroke-width="1.5" d="M0,-3.0v7 M-2.5,-0.5L0,-3.0L2.5,-0.5"/>
  </g>
  <g id="arrowDown" transform="rotate(180) translate(-30 -48)">
    <use xlink:href="#rim"/>
    <path pointer-events="none" fill="none" stroke="white" stroke-width="1.5" d="M0,-3.0v7 M-2.5,-0.5L0,-3.0L2.5,-0.5"/>
  </g>
  <g id="arrowLeft" transform="rotate(270) translate(-36 17)">
    <use xlink:href="#rim"/>
    <path pointer-events="none" fill="none" stroke="white" stroke-width="1.5" d="M0,-3.0v7 M-2.5,-0.5L0,-3.0L2.5,-0.5"/>
  </g>
  <g id="resetDef">
    <use xlink:href="#rim2" fill="#404040"><set attributeName="fill" to="#808080" begin="reset.mouseover" end="reset.mouseout"/></use>
  </g>
</defs>
<script type="application/ecmascript">
var viewWidth = 575;
var viewHeight = 238;
var sectionId = 'dynsection-0';
</script>
<script type="application/ecmascript" xlink:href="svg.min.js"/>
<svg id="graph" class="graph">
<g id="viewport">
<title>depicture_menu::domain::models::aggregate_base&lt; Value, Id, Event, EventStore &gt;</title>
<!-- Node1 -->
<g id="Node000001" class="node">
<title>Node1</title>
<g id="a_Node000001"><a xlink:title=" ">
<polygon fill="#999999" stroke="#666666" points="387.8,-137 229.3,-137 229.3,-93 387.8,-93 387.8,-137"/>
<text xml:space="preserve" text-anchor="start" x="237.3" y="-123.5" font-family="Helvetica,sans-Serif" font-size="10.00">depicture_menu::domain</text>
<text xml:space="preserve" text-anchor="start" x="237.3" y="-111.5" font-family="Helvetica,sans-Serif" font-size="10.00">::models::aggregate_base</text>
<text xml:space="preserve" text-anchor="middle" x="308.55" y="-99.5" font-family="Helvetica,sans-Serif" font-size="10.00">&lt; Value, Id, Event, EventStore &gt;</text>
</a>
</g>
</g>
<!-- Node4 -->
<g id="Node000004" class="node">
<title>Node4</title>
<g id="a_Node000004"><a xlink:href="structdepicture__menu_1_1test_1_1test__tools_1_1mock__aggregate.html" target="_top" xlink:title=" ">
<polygon fill="white" stroke="#666666" points="566.55,-230 423.8,-230 423.8,-186 566.55,-186 566.55,-230"/>
<text xml:space="preserve" text-anchor="start" x="431.8" y="-216.5" font-family="Helvetica,sans-Serif" font-size="10.00">depicture_menu::test</text>
<text xml:space="preserve" text-anchor="start" x="431.8" y="-204.5" font-family="Helvetica,sans-Serif" font-size="10.00">::test_tools::mock_aggregate</text>
<text xml:space="preserve" text-anchor="middle" x="495.17" y="-192.5" font-family="Helvetica,sans-Serif" font-size="10.00">&lt; int &gt;</text>
</a>
</g>
</g>
<!-- Node1&#45;&gt;Node4 -->
<g id="edge3_Node000001_Node000004" class="edge">
<title>Node1&#45;&gt;Node4</title>
<g id="a_edge3_Node000001_Node000004"><a xlink:title=" ">
<path fill="none" stroke="#63b8ff" d="M358.85,-142.91C378.82,-153.91 402.22,-166.41 423.8,-177 429.67,-179.88 435.88,-182.8 442.07,-185.62"/>
<polygon fill="#63b8ff" stroke="#63b8ff" points="360.82,-139.99 350.37,-138.21 357.43,-146.12 360.82,-139.99"/>
</a>
</g>
</g>
<!-- Node5 -->
<g id="Node000005" class="node">
<title>Node5</title>
<g id="a_Node000005"><a xlink:href="structdepicture__menu_1_1test_1_1test__tools_1_1mock__aggregate.html" target="_top" xlink:title=" ">
<polygon fill="white" stroke="#666666" points="566.55,-168 423.8,-168 423.8,-124 566.55,-124 566.55,-168"/>
<text xml:space="preserve" text-anchor="start" x="431.8" y="-154.5" font-family="Helvetica,sans-Serif" font-size="10.00">depicture_menu::test</text>
<text xml:space="preserve" text-anchor="start" x="431.8" y="-142.5" font-family="Helvetica,sans-Serif" font-size="10.00">::test_tools::mock_aggregate</text>
<text xml:space="preserve" text-anchor="middle" x="495.17" y="-130.5" font-family="Helvetica,sans-Serif" font-size="10.00">&lt; int, int_id &gt;</text>
</a>
</g>
</g>
<!-- Node1&#45;&gt;Node5 -->
<g id="edge4_Node000001_Node000005" class="edge">
<title>Node1&#45;&gt;Node5</title>
<g id="a_edge4_Node000001_Node000005"><a xlink:title=" ">
<path fill="none" stroke="#63b8ff" d="M399.22,-130.06C407.4,-131.43 415.6,-132.81 423.57,-134.15"/>
<polygon fill="#63b8ff" stroke="#63b8ff" points="400.05,-126.65 389.61,-128.44 398.89,-133.55 400.05,-126.65"/>
</a>
</g>
</g>
<!-- Node6 -->
<g id="Node000006" class="node">
<title>Node6</title>
<g id="a_Node000006"><a xlink:href="structdepicture__menu_1_1test_1_1test__tools_1_1mock__aggregate.html" target="_top" xlink:title=" ">
<polygon fill="white" stroke="#666666" points="566.55,-106 423.8,-106 423.8,-62 566.55,-62 566.55,-106"/>
<text xml:space="preserve" text-anchor="start" x="431.8" y="-92.5" font-family="Helvetica,sans-Serif" font-size="10.00">depicture_menu::test</text>
<text xml:space="preserve" text-anchor="start" x="431.8" y="-80.5" font-family="Helvetica,sans-Serif" font-size="10.00">::test_tools::mock_aggregate</text>
<text xml:space="preserve" text-anchor="middle" x="495.17" y="-68.5" font-family="Helvetica,sans-Serif" font-size="10.00">&lt; std::string, str_id &gt;</text>
</a>
</g>
</g>
<!-- Node1&#45;&gt;Node6 -->
<g id="edge5_Node000001_Node000006" class="edge">
<title>Node1&#45;&gt;Node6</title>
<g id="a_edge5_Node000001_Node000006"><a xlink:title=" ">
<path fill="none" stroke="#63b8ff" d="M399.22,-99.94C407.4,-98.57 415.6,-97.19 423.57,-95.85"/>
<polygon fill="#63b8ff" stroke="#63b8ff" points="398.89,-96.45 389.61,-101.56 400.05,-103.35 398.89,-96.45"/>
</a>
</g>
</g>
<!-- Node7 -->
<g id="Node000007" class="node">
<title>Node7</title>
<g id="a_Node000007"><a xlink:href="structdepicture__menu_1_1test_1_1test__tools_1_1mock__aggregate.html" target="_top" xlink:title=" ">
<polygon fill="white" stroke="#666666" points="566.55,-44 423.8,-44 423.8,0 566.55,0 566.55,-44"/>
<text xml:space="preserve" text-anchor="start" x="431.8" y="-30.5" font-family="Helvetica,sans-Serif" font-size="10.00">depicture_menu::test</text>
<text xml:space="preserve" text-anchor="start" x="431.8" y="-18.5" font-family="Helvetica,sans-Serif" font-size="10.00">::test_tools::mock_aggregate</text>
<text xml:space="preserve" text-anchor="middle" x="495.17" y="-6.5" font-family="Helvetica,sans-Serif" font-size="10.00">&lt; double, double_id &gt;</text>
</a>
</g>
</g>
<!-- Node1&#45;&gt;Node7 -->
<g id="edge6_Node000001_Node000007" class="edge">
<title>Node1&#45;&gt;Node7</title>
<g id="a_edge6_Node000001_Node000007"><a xlink:title=" ">
<path fill="none" stroke="#63b8ff" d="M358.85,-87.09C378.82,-76.09 402.22,-63.59 423.8,-53 429.67,-50.12 435.88,-47.2 442.07,-44.38"/>
<polygon fill="#63b8ff" stroke="#63b8ff" points="357.43,-83.88 350.37,-91.79 360.82,-90.01 357.43,-83.88"/>
</a>
</g>
</g>
<!-- Node2 -->
<g id="Node000002" class="node">
<title>Node2</title>
<g id="a_Node000002"><a xlink:href="structdepicture__menu_1_1domain_1_1models_1_1base_1_1entity__base.html" target="_top" xlink:title=" ">
<polygon fill="white" stroke="#666666" points="193.3,-137 64.8,-137 64.8,-93 193.3,-93 193.3,-137"/>
<text xml:space="preserve" text-anchor="start" x="72.8" y="-123.5" font-family="Helvetica,sans-Serif" font-size="10.00">entity_base&lt; Value,</text>
<text xml:space="preserve" text-anchor="start" x="72.8" y="-111.5" font-family="Helvetica,sans-Serif" font-size="10.00"> entity_id_base&lt; standard</text>
<text xml:space="preserve" text-anchor="middle" x="129.05" y="-99.5" font-family="Helvetica,sans-Serif" font-size="10.00">_tag &gt; &gt;</text>
</a>
</g>
</g>
<!-- Node2&#45;&gt;Node1 -->
<g id="edge1_Node000001_Node000002" class="edge">
<title>Node2&#45;&gt;Node1</title>
<g id="a_edge1_Node000001_Node000002"><a xlink:title=" ">
<path fill="none" stroke="#63b8ff" d="M205.06,-115C212.95,-115 220.99,-115 228.92,-115"/>
<polygon fill="#63b8ff" stroke="#63b8ff" points="205.14,-111.5 195.14,-115 205.14,-118.5 205.14,-111.5"/>
</a>
</g>
</g>
<!-- Node3 -->
<g id="Node000003" class="node">
<title>Node3</title>
<g id="a_Node000003"><a xlink:title=" ">
<polygon fill="white" stroke="#666666" points="28.8,-125 0,-125 0,-105 28.8,-105 28.8,-125"/>
<text xml:space="preserve" text-anchor="middle" x="14.4" y="-111.5" font-family="Helvetica,sans-Serif" font-size="10.00">V</text>
</a>
</g>
</g>
<!-- Node3&#45;&gt;Node2 -->
<g id="edge2_Node000002_Node000003" class="edge">
<title>Node3&#45;&gt;Node2</title>
<g id="a_edge2_Node000002_Node000003"><a xlink:title=" ">
<path fill="none" stroke="darkgreen" d="M40.61,-115C47.82,-115 56.02,-115 64.44,-115"/>
<polygon fill="darkgreen" stroke="darkgreen" points="40.73,-111.5 30.73,-115 40.73,-118.5 40.73,-111.5"/>
</a>
</g>
</g>
</g>
</svg>

<g id="navigator" transform="translate(0 0)" fill="#404254">
  <rect fill="#f2f5e9" fill-opacity="0.5" stroke="#606060" stroke-width=".5" x="0" y="0" width="60" height="60"/>
  <use id="zoomplus" xlink:href="#zoomPlus" x="17" y="9" onmousedown="handleZoom(evt,'in')"/>
  <use id="zoomminus" xlink:href="#zoomMin" x="42" y="9" onmousedown="handleZoom(evt,'out')"/>
  <use id="reset" xlink:href="#resetDef" x="30" y="36" onmousedown="handleReset()"/>
   <use id="arrowup" xlink:href="#arrowUp" x="0" y="0" onmousedown="handlePan(0,-1)"/>
  <use id="arrowright" xlink:href="#arrowRight" x="0" y="0" onmousedown="handlePan(1,0)"/>
  <use id="arrowdown" xlink:href="#arrowDown" x="0" y="0" onmousedown="handlePan(0,1)"/>
  <use id="arrowleft" xlink:href="#arrowLeft" x="0" y="0" onmousedown="handlePan(-1,0)"/>
</g>
<svg viewBox="0 0 15 15" width="100%" height="30px" preserveAspectRatio="xMaxYMin meet">
 <g id="arrow_out" transform="scale(0.3 0.3)">
  <a xlink:href="structdepicture__menu_1_1domain_1_1models_1_1aggregate__base__inherit__graph_org.svg" target="_base">
   <rect id="button" ry="5" rx="5" y="6" x="6" height="38" width="38"
        fill="#f2f5e9" fill-opacity="0.5" stroke="#606060" stroke-width="1.0"/>
   <path id="arrow"
     d="M 11.500037,31.436501 C 11.940474,20.09759 22.043105,11.32322 32.158766,21.979434 L 37.068811,17.246167 C 37.068811,17.246167 37.088388,32 37.088388,32 L 22.160133,31.978069 C 22.160133,31.978069 26.997745,27.140456 26.997745,27.140456 C 18.528582,18.264221 13.291696,25.230495 11.500037,31.436501 z"
     style="fill:#404040;"/>
  </a>
 </g>
</svg>

<style type='text/css'>
<![CDATA[
[data-mouse-over-selected='false'] { opacity: 0.7; }
[data-mouse-over-selected='true']  { opacity: 1.0; }
]]>
</style>
<script type="application/ecmascript"><![CDATA[
document.addEventListener('DOMContentLoaded', (event) => {
  highlightEdges();
  highlightAdjacentNodes();
});
]]></script>
</svg>
