<?xml version="1.0" encoding="UTF-8" standalone="no"?>
<!DOCTYPE svg PUBLIC "-//W3C//DTD SVG 1.1//EN"
 "http://www.w3.org/Graphics/SVG/1.1/DTD/svg11.dtd">
<!-- Generated by graphviz version 14.1.2 (20260124.0452)
 -->
<!-- Title: depicture_menu::domain::menu::detail_menu::radialmenu_item_data Pages: 1 -->
<svg width="622pt" height="96pt"
 viewBox="0.00 0.00 622.00 96.00" xmlns="http://www.w3.org/2000/svg" xmlns:xlink="http://www.w3.org/1999/xlink">
<g id="graph0" class="graph" transform="scale(1 1) rotate(0) translate(4 92)">
<title>depicture_menu::domain::menu::detail_menu::radialmenu_item_data</title>
<!-- Node1 -->
<g id="Node000001" class="node">
<title>Node1</title>
<g id="a_Node000001"><a xlink:title=" ">
<polygon fill="#999999" stroke="#666666" points="614.3,-58 456.55,-58 456.55,-14 614.3,-14 614.3,-58"/>
<text xml:space="preserve" text-anchor="start" x="464.55" y="-44.5" font-family="Helvetica,sans-Serif" font-size="10.00">depicture_menu::domain</text>
<text xml:space="preserve" text-anchor="start" x="464.55" y="-32.5" font-family="Helvetica,sans-Serif" font-size="10.00">::menu::detail_menu::radialmenu</text>
<text xml:space="preserve" text-anchor="middle" x="535.42" y="-20.5" font-family="Helvetica,sans-Serif" font-size="10.00">_item_data</text>
</a>
</g>
</g>
<!-- Node2 -->
<g id="Node000002" class="node">
<title>Node2</title>
<g id="a_Node000002"><a xlink:href="classdepicture__menu_1_1domain_1_1menu_1_1menu__label.html" target="_top" xlink:title=" ">
<polygon fill="white" stroke="#666666" points="359.05,-82 236.55,-82 236.55,-50 359.05,-50 359.05,-82"/>
<text xml:space="preserve" text-anchor="start" x="244.55" y="-68.5" font-family="Helvetica,sans-Serif" font-size="10.00">depicture_menu::domain</text>
<text xml:space="preserve" text-anchor="middle" x="297.8" y="-56.5" font-family="Helvetica,sans-Serif" font-size="10.00">::menu::menu_label</text>
</a>
</g>
</g>
<!-- Node2&#45;&gt;Node1 -->
<g id="edge1_Node000001_Node000002" class="edge">
<title>Node2&#45;&gt;Node1</title>
<g id="a_edge1_Node000001_Node000002"><a xlink:title=" ">
<path fill="none" stroke="#9a32cd" stroke-dasharray="5,2" d="M370.8,-56.83C397.8,-53.4 428.61,-49.47 456.15,-45.97"/>
<polygon fill="#9a32cd" stroke="#9a32cd" points="370.46,-53.35 360.98,-58.08 371.34,-60.29 370.46,-53.35"/>
</a>
</g>
<text xml:space="preserve" text-anchor="start" x="395.05" y="-60.94" font-family="Helvetica,sans-Serif" font-size="10.00" fill="grey">label_</text>
</g>
<!-- Node3 -->
<g id="Node000003" class="node">
<title>Node3</title>
<g id="a_Node000003"><a xlink:href="structdepicture__menu_1_1domain_1_1models_1_1base_1_1value__object__base.html" target="_top" xlink:title=" ">
<polygon fill="white" stroke="#666666" points="199.55,-88 65.8,-88 65.8,-44 199.55,-44 199.55,-88"/>
<text xml:space="preserve" text-anchor="start" x="73.8" y="-74.5" font-family="Helvetica,sans-Serif" font-size="10.00">models::value_object</text>
<text xml:space="preserve" text-anchor="start" x="73.8" y="-62.5" font-family="Helvetica,sans-Serif" font-size="10.00">_base&lt; detail_menu::menu</text>
<text xml:space="preserve" text-anchor="middle" x="132.67" y="-50.5" font-family="Helvetica,sans-Serif" font-size="10.00">_label_data &gt;</text>
</a>
</g>
</g>
<!-- Node3&#45;&gt;Node2 -->
<g id="edge2_Node000002_Node000003" class="edge">
<title>Node3&#45;&gt;Node2</title>
<g id="a_edge2_Node000002_Node000003"><a xlink:title=" ">
<path fill="none" stroke="#63b8ff" d="M211.37,-66C219.74,-66 228.16,-66 236.29,-66"/>
<polygon fill="#63b8ff" stroke="#63b8ff" points="211.54,-62.5 201.54,-66 211.54,-69.5 211.54,-62.5"/>
</a>
</g>
</g>
<!-- Node4 -->
<g id="Node000004" class="node">
<title>Node4</title>
<g id="a_Node000004"><a xlink:title=" ">
<polygon fill="white" stroke="#666666" points="28.8,-76 0,-76 0,-56 28.8,-56 28.8,-76"/>
<text xml:space="preserve" text-anchor="middle" x="14.4" y="-62.5" font-family="Helvetica,sans-Serif" font-size="10.00">V</text>
</a>
</g>
</g>
<!-- Node4&#45;&gt;Node3 -->
<g id="edge3_Node000003_Node000004" class="edge">
<title>Node4&#45;&gt;Node3</title>
<g id="a_edge3_Node000003_Node000004"><a xlink:title=" ">
<path fill="none" stroke="#63b8ff" d="M40.64,-66C48.13,-66 56.71,-66 65.55,-66"/>
<polygon fill="#63b8ff" stroke="#63b8ff" points="40.71,-62.5 30.71,-66 40.71,-69.5 40.71,-62.5"/>
</a>
</g>
</g>
<!-- Node5 -->
<g id="Node000005" class="node">
<title>Node5</title>
<g id="a_Node000005"><a xlink:href="structdepicture__menu_1_1domain_1_1common_1_1rgba__color.html" target="_top" xlink:title=" ">
<polygon fill="white" stroke="#666666" points="359.05,-32 236.55,-32 236.55,0 359.05,0 359.05,-32"/>
<text xml:space="preserve" text-anchor="start" x="244.55" y="-18.5" font-family="Helvetica,sans-Serif" font-size="10.00">depicture_menu::domain</text>
<text xml:space="preserve" text-anchor="middle" x="297.8" y="-6.5" font-family="Helvetica,sans-Serif" font-size="10.00">::common::rgba_color</text>
</a>
</g>
</g>
<!-- Node5&#45;&gt;Node1 -->
<g id="edge4_Node000001_Node000005" class="edge">
<title>Node5&#45;&gt;Node1</title>
<g id="a_edge4_Node000001_Node000005"><a xlink:title=" ">
<path fill="none" stroke="#9a32cd" stroke-dasharray="5,2" d="M370.94,-16.94C392.7,-17.66 416.63,-18.9 438.55,-21 444.34,-21.55 450.3,-22.23 456.3,-22.99"/>
<polygon fill="#9a32cd" stroke="#9a32cd" points="371.05,-13.44 360.95,-16.64 370.84,-20.43 371.05,-13.44"/>
</a>
</g>
<text xml:space="preserve" text-anchor="start" x="380.05" y="-26.5" font-family="Helvetica,sans-Serif" font-size="10.00" fill="grey">background_</text>
</g>
</g>
</svg>
