<?xml version="1.0" encoding="UTF-8" standalone="no"?>
<!DOCTYPE svg PUBLIC "-//W3C//DTD SVG 1.1//EN"
 "http://www.w3.org/Graphics/SVG/1.1/DTD/svg11.dtd">
<!-- Generated by graphviz version 14.1.2 (20260124.0452)
 -->
<!-- Title: depicture_menu::domain::models::detail_domain::tuple_serializer::ser Pages: 1 -->
<svg width="282pt" height="190pt"
 viewBox="0.00 0.00 282.00 190.00" xmlns="http://www.w3.org/2000/svg" xmlns:xlink="http://www.w3.org/1999/xlink">
<g id="graph0" class="graph" transform="scale(1 1) rotate(0) translate(4 186)">
<title>depicture_menu::domain::models::detail_domain::tuple_serializer::ser</title>
<!-- Node1 -->
<g id="Node000001" class="node">
<title>Node1</title>
<g id="a_Node000001"><a xlink:title=" ">
<polygon fill="#999999" stroke="#666666" points="122.5,-113 0,-113 0,-69 122.5,-69 122.5,-113"/>
<text xml:space="preserve" text-anchor="start" x="8" y="-99.5" font-family="Helvetica,sans-Serif" font-size="10.00">depicture_menu::domain</text>
<text xml:space="preserve" text-anchor="start" x="8" y="-87.5" font-family="Helvetica,sans-Serif" font-size="10.00">::models::detail_domain</text>
<text xml:space="preserve" text-anchor="middle" x="61.25" y="-75.5" font-family="Helvetica,sans-Serif" font-size="10.00">::tuple_serializer::ser</text>
</a>
</g>
</g>
<!-- Node2 -->
<g id="Node000002" class="node">
<title>Node2</title>
<g id="a_Node000002"><a xlink:href="namespacedepicture__menu_1_1util_1_1strconv.html#ae6043222bd0621e53262d5c29417c416" target="_top" xlink:title=" ">
<polygon fill="white" stroke="#666666" points="273.5,-182 159.25,-182 159.25,-150 273.5,-150 273.5,-182"/>
<text xml:space="preserve" text-anchor="start" x="167.25" y="-168.5" font-family="Helvetica,sans-Serif" font-size="10.00">depicture_menu::util</text>
<text xml:space="preserve" text-anchor="middle" x="216.38" y="-156.5" font-family="Helvetica,sans-Serif" font-size="10.00">::strconv::sjis_to_wide</text>
</a>
</g>
</g>
<!-- Node1&#45;&gt;Node2 -->
<g id="edge1_Node000001_Node000002" class="edge">
<title>Node1&#45;&gt;Node2</title>
<g id="a_edge1_Node000001_Node000002"><a xlink:title=" ">
<path fill="none" stroke="#63b8ff" d="M103.64,-113.25C120.53,-122.13 140.33,-132.3 158.5,-141 161.19,-142.29 163.96,-143.59 166.76,-144.89"/>
<polygon fill="#63b8ff" stroke="#63b8ff" points="165.05,-147.95 175.6,-148.9 167.95,-141.58 165.05,-147.95"/>
</a>
</g>
</g>
<!-- Node3 -->
<g id="Node000003" class="node">
<title>Node3</title>
<g id="a_Node000003"><a xlink:href="namespacedepicture__menu_1_1util_1_1strconv.html#a3b0e0ec8cb1e9fb3f6c3dd97c10bcac6" target="_top" xlink:title=" ">
<polygon fill="white" stroke="#666666" points="274.25,-132 158.5,-132 158.5,-100 274.25,-100 274.25,-132"/>
<text xml:space="preserve" text-anchor="start" x="166.5" y="-118.5" font-family="Helvetica,sans-Serif" font-size="10.00">depicture_menu::util</text>
<text xml:space="preserve" text-anchor="middle" x="216.38" y="-106.5" font-family="Helvetica,sans-Serif" font-size="10.00">::strconv::utf8_to_wide</text>
</a>
</g>
</g>
<!-- Node1&#45;&gt;Node3 -->
<g id="edge2_Node000001_Node000003" class="edge">
<title>Node1&#45;&gt;Node3</title>
<g id="a_edge2_Node000001_Node000003"><a xlink:title=" ">
<path fill="none" stroke="#63b8ff" d="M122.77,-100.88C130.72,-102.18 138.92,-103.52 146.99,-104.84"/>
<polygon fill="#63b8ff" stroke="#63b8ff" points="146.36,-108.28 156.8,-106.44 147.49,-101.37 146.36,-108.28"/>
</a>
</g>
</g>
<!-- Node4 -->
<g id="Node000004" class="node">
<title>Node4</title>
<g id="a_Node000004"><a xlink:href="namespacedepicture__menu_1_1util_1_1strconv.html#aec7b0b55b3fc90ef2c57edde7ecc9212" target="_top" xlink:title=" ">
<polygon fill="white" stroke="#666666" points="273.5,-82 159.25,-82 159.25,-50 273.5,-50 273.5,-82"/>
<text xml:space="preserve" text-anchor="start" x="167.25" y="-68.5" font-family="Helvetica,sans-Serif" font-size="10.00">depicture_menu::util</text>
<text xml:space="preserve" text-anchor="middle" x="216.38" y="-56.5" font-family="Helvetica,sans-Serif" font-size="10.00">::strconv::wide_to_sjis</text>
</a>
</g>
</g>
<!-- Node1&#45;&gt;Node4 -->
<g id="edge3_Node000001_Node000004" class="edge">
<title>Node1&#45;&gt;Node4</title>
<g id="a_edge3_Node000001_Node000004"><a xlink:title=" ">
<path fill="none" stroke="#63b8ff" d="M122.77,-81.12C130.93,-79.79 139.35,-78.41 147.62,-77.06"/>
<polygon fill="#63b8ff" stroke="#63b8ff" points="147.99,-80.55 157.29,-75.48 146.86,-73.64 147.99,-80.55"/>
</a>
</g>
</g>
<!-- Node5 -->
<g id="Node000005" class="node">
<title>Node5</title>
<g id="a_Node000005"><a xlink:href="namespacedepicture__menu_1_1util_1_1strconv.html#a08ee9762f61abb902eac449b23391fe1" target="_top" xlink:title=" ">
<polygon fill="white" stroke="#666666" points="274.25,-32 158.5,-32 158.5,0 274.25,0 274.25,-32"/>
<text xml:space="preserve" text-anchor="start" x="166.5" y="-18.5" font-family="Helvetica,sans-Serif" font-size="10.00">depicture_menu::util</text>
<text xml:space="preserve" text-anchor="middle" x="216.38" y="-6.5" font-family="Helvetica,sans-Serif" font-size="10.00">::strconv::wide_to_utf8</text>
</a>
</g>
</g>
<!-- Node1&#45;&gt;Node5 -->
<g id="edge4_Node000001_Node000005" class="edge">
<title>Node1&#45;&gt;Node5</title>
<g id="a_edge4_Node000001_Node000005"><a xlink:title=" ">
<path fill="none" stroke="#63b8ff" d="M103.64,-68.75C120.53,-59.87 140.33,-49.7 158.5,-41 161.19,-39.71 163.96,-38.41 166.76,-37.11"/>
<polygon fill="#63b8ff" stroke="#63b8ff" points="167.95,-40.42 175.6,-33.1 165.05,-34.05 167.95,-40.42"/>
</a>
</g>
</g>
</g>
</svg>
