<?xml version="1.0" encoding="UTF-8" standalone="no"?>
<!DOCTYPE svg PUBLIC "-//W3C//DTD SVG 1.1//EN"
 "http://www.w3.org/Graphics/SVG/1.1/DTD/svg11.dtd">
<!-- Generated by graphviz version 14.1.2 (20260124.0452)
 -->
<!-- Title: tt::field_checker::operator() Pages: 1 -->
<!--zoomable 160 -->

<svg id="main" version="1.1" xmlns="http://www.w3.org/2000/svg" xmlns:xlink="http://www.w3.org/1999/xlink" xml:space="preserve" onload="init(evt)">

<style type="text/css"><![CDATA[
.node, .edge {opacity: 0.7;}
.node.selected, .edge.selected {opacity: 1;}
.edge:hover path { stroke: red; }
.edge:hover polygon { stroke: red; fill: red; }
]]></style>

<defs>
  <circle id="rim" cx="0" cy="0" r="7"/>
  <circle id="rim2" cx="0" cy="0" r="3.5"/>
  <g id="zoomPlus">
    <use xlink:href="#rim" fill="#404040"><set attributeName="fill" to="#808080" begin="zoomplus.mouseover" end="zoomplus.mouseout"/></use>
    <path d="M-4,0h8M0,-4v8" fill="none" stroke="white" stroke-width="1.5" pointer-events="none"/>
  </g>
  <g id="zoomMin">
    <use xlink:href="#rim" fill="#404040"><set attributeName="fill" to="#808080" begin="zoomminus.mouseover" end="zoomminus.mouseout"/></use>
    <path d="M-4,0h8" fill="none" stroke="white" stroke-width="1.5" pointer-events="none"/>
  </g>
  <g id="arrowUp" transform="translate(30 24)">
    <use xlink:href="#rim"/>
    <path pointer-events="none" fill="none" stroke="white" stroke-width="1.5" d="M0,-3.0v7 M-2.5,-0.5L0,-3.0L2.5,-0.5"/>
  </g>
  <g id="arrowRight" transform="rotate(90) translate(36 -43)">
    <use xlink:href="#rim"/>
    <path pointer-events="none" fill="none" stroke="white" stroke-width="1.5" d="M0,-3.0v7 M-2.5,-0.5L0,-3.0L2.5,-0.5"/>
  </g>
  <g id="arrowDown" transform="rotate(180) translate(-30 -48)">
    <use xlink:href="#rim"/>
    <path pointer-events="none" fill="none" stroke="white" stroke-width="1.5" d="M0,-3.0v7 M-2.5,-0.5L0,-3.0L2.5,-0.5"/>
  </g>
  <g id="arrowLeft" transform="rotate(270) translate(-36 17)">
    <use xlink:href="#rim"/>
    <path pointer-events="none" fill="none" stroke="white" stroke-width="1.5" d="M0,-3.0v7 M-2.5,-0.5L0,-3.0L2.5,-0.5"/>
  </g>
  <g id="resetDef">
    <use xlink:href="#rim2" fill="#404040"><set attributeName="fill" to="#808080" begin="reset.mouseover" end="reset.mouseout"/></use>
  </g>
</defs>
<script type="application/ecmascript">
var viewWidth = 600;
var viewHeight = 160;
var sectionId = 'dynsection-0';
</script>
<script type="application/ecmascript" xlink:href="svg.min.js"/>
<svg id="graph" class="graph">
<g id="viewport">
<title>tt::field_checker::operator()</title>
<!-- Node1 -->
<g id="Node000001" class="node">
<title>Node1</title>
<g id="a_Node000001"><a xlink:title=" ">
<polygon fill="#999999" stroke="#666666" points="91.75,-66 0,-66 0,-34 91.75,-34 91.75,-66"/>
<text xml:space="preserve" text-anchor="start" x="8" y="-52.5" font-family="Helvetica,sans-Serif" font-size="10.00">tt::field_checker::</text>
<text xml:space="preserve" text-anchor="middle" x="45.88" y="-40.5" font-family="Helvetica,sans-Serif" font-size="10.00">operator()</text>
</a>
</g>
</g>
<!-- Node2 -->
<g id="Node000002" class="node">
<title>Node2</title>
<g id="a_Node000002"><a xlink:href="namespacedepicture__menu_1_1reflection.html#aaf69402efde67d3327b0a5878e0bb46c" target="_top" xlink:title=" ">
<polygon fill="white" stroke="#666666" points="258.5,-94 127.75,-94 127.75,-62 258.5,-62 258.5,-94"/>
<text xml:space="preserve" text-anchor="start" x="135.75" y="-80.5" font-family="Helvetica,sans-Serif" font-size="10.00">depicture_menu::reflection</text>
<text xml:space="preserve" text-anchor="middle" x="193.12" y="-68.5" font-family="Helvetica,sans-Serif" font-size="10.00">::access_field</text>
</a>
</g>
</g>
<!-- Node1&#45;&gt;Node2 -->
<g id="edge1_Node000001_Node000002" class="edge">
<title>Node1&#45;&gt;Node2</title>
<g id="a_edge1_Node000001_Node000002"><a xlink:title=" ">
<path fill="none" stroke="#63b8ff" d="M92.04,-58.71C99.71,-60.18 107.86,-61.76 116.07,-63.34"/>
<polygon fill="#63b8ff" stroke="#63b8ff" points="115.29,-66.75 125.78,-65.21 116.62,-59.88 115.29,-66.75"/>
</a>
</g>
</g>
<!-- Node6 -->
<g id="Node000006" class="node">
<title>Node6</title>
<g id="a_Node000006"><a xlink:href="namespacedepicture__menu_1_1domain_1_1models_1_1base.html#ac495da66ce62de337cb0e9bb8ee11119" target="_top" xlink:title=" ">
<polygon fill="white" stroke="#666666" points="255.12,-44 131.12,-44 131.12,0 255.12,0 255.12,-44"/>
<text xml:space="preserve" text-anchor="start" x="139.12" y="-30.5" font-family="Helvetica,sans-Serif" font-size="10.00">depicture_menu::domain</text>
<text xml:space="preserve" text-anchor="start" x="139.12" y="-18.5" font-family="Helvetica,sans-Serif" font-size="10.00">::models::base::to_const</text>
<text xml:space="preserve" text-anchor="middle" x="193.12" y="-6.5" font-family="Helvetica,sans-Serif" font-size="10.00">_ref_tuple</text>
</a>
</g>
</g>
<!-- Node1&#45;&gt;Node6 -->
<g id="edge7_Node000001_Node000006" class="edge">
<title>Node1&#45;&gt;Node6</title>
<g id="a_edge7_Node000001_Node000006"><a xlink:title=" ">
<path fill="none" stroke="#63b8ff" d="M92.04,-41.29C100.84,-39.6 110.27,-37.78 119.69,-35.96"/>
<polygon fill="#63b8ff" stroke="#63b8ff" points="120.07,-39.45 129.23,-34.12 118.75,-32.58 120.07,-39.45"/>
</a>
</g>
</g>
<!-- Node3 -->
<g id="Node000003" class="node">
<title>Node3</title>
<g id="a_Node000003"><a xlink:href="namespacedepicture__menu_1_1reflection.html#adb9faa46ece21b7d378d916f04923bbc" target="_top" xlink:title=" ">
<polygon fill="white" stroke="#666666" points="425.25,-116 294.5,-116 294.5,-84 425.25,-84 425.25,-116"/>
<text xml:space="preserve" text-anchor="start" x="302.5" y="-102.5" font-family="Helvetica,sans-Serif" font-size="10.00">depicture_menu::reflection</text>
<text xml:space="preserve" text-anchor="middle" x="359.88" y="-90.5" font-family="Helvetica,sans-Serif" font-size="10.00">::get_field_index</text>
</a>
</g>
</g>
<!-- Node2&#45;&gt;Node3 -->
<g id="edge2_Node000002_Node000003" class="edge">
<title>Node2&#45;&gt;Node3</title>
<g id="a_edge2_Node000002_Node000003"><a xlink:title=" ">
<path fill="none" stroke="#63b8ff" d="M258.77,-86.63C266.67,-87.69 274.8,-88.77 282.85,-89.85"/>
<polygon fill="#63b8ff" stroke="#63b8ff" points="282.27,-93.3 292.65,-91.16 283.2,-86.36 282.27,-93.3"/>
</a>
</g>
</g>
<!-- Node5 -->
<g id="Node000005" class="node">
<title>Node5</title>
<g id="a_Node000005"><a xlink:href="namespacedepicture__menu_1_1reflection.html#a0b2b3bbe6bc85746a0f887135f697715" target="_top" xlink:title=" ">
<polygon fill="white" stroke="#666666" points="592,-72 461.25,-72 461.25,-40 592,-40 592,-72"/>
<text xml:space="preserve" text-anchor="start" x="469.25" y="-58.5" font-family="Helvetica,sans-Serif" font-size="10.00">depicture_menu::reflection</text>
<text xml:space="preserve" text-anchor="middle" x="526.62" y="-46.5" font-family="Helvetica,sans-Serif" font-size="10.00">::has_field</text>
</a>
</g>
</g>
<!-- Node2&#45;&gt;Node5 -->
<g id="edge6_Node000002_Node000005" class="edge">
<title>Node2&#45;&gt;Node5</title>
<g id="a_edge6_Node000002_Node000005"><a xlink:title=" ">
<path fill="none" stroke="#63b8ff" d="M258.83,-73.71C313.5,-70.08 391.89,-64.88 449.56,-61.05"/>
<polygon fill="#63b8ff" stroke="#63b8ff" points="449.55,-64.56 459.29,-60.4 449.08,-57.57 449.55,-64.56"/>
</a>
</g>
</g>
<!-- Node4 -->
<g id="Node000004" class="node">
<title>Node4</title>
<g id="a_Node000004"><a xlink:href="namespacedepicture__menu_1_1reflection_1_1detail__reflection.html#acf183d0f4dd4183a2334fe27a68f9b1e" target="_top" xlink:title=" ">
<polygon fill="white" stroke="#666666" points="592,-134 461.25,-134 461.25,-90 592,-90 592,-134"/>
<text xml:space="preserve" text-anchor="start" x="469.25" y="-120.5" font-family="Helvetica,sans-Serif" font-size="10.00">depicture_menu::reflection</text>
<text xml:space="preserve" text-anchor="start" x="469.25" y="-108.5" font-family="Helvetica,sans-Serif" font-size="10.00">::detail_reflection::get</text>
<text xml:space="preserve" text-anchor="middle" x="526.62" y="-96.5" font-family="Helvetica,sans-Serif" font-size="10.00">_field_index</text>
</a>
</g>
</g>
<!-- Node3&#45;&gt;Node4 -->
<g id="edge3_Node000003_Node000004" class="edge">
<title>Node3&#45;&gt;Node4</title>
<g id="a_edge3_Node000003_Node000004"><a xlink:title=" ">
<path fill="none" stroke="#63b8ff" d="M425.52,-104.71C433.42,-105.28 441.55,-105.88 449.6,-106.46"/>
<polygon fill="#63b8ff" stroke="#63b8ff" points="449.16,-109.94 459.39,-107.18 449.67,-102.96 449.16,-109.94"/>
</a>
</g>
</g>
<!-- Node3&#45;&gt;Node5 -->
<g id="edge5_Node000003_Node000005" class="edge">
<title>Node3&#45;&gt;Node5</title>
<g id="a_edge5_Node000003_Node000005"><a xlink:title=" ">
<path fill="none" stroke="#63b8ff" d="M422.22,-83.62C432.23,-80.94 442.69,-78.15 452.94,-75.41"/>
<polygon fill="#63b8ff" stroke="#63b8ff" points="453.73,-78.82 462.49,-72.86 451.93,-72.06 453.73,-78.82"/>
</a>
</g>
</g>
<!-- Node4&#45;&gt;Node4 -->
<g id="edge4_Node000004_Node000004" class="edge">
<title>Node4&#45;&gt;Node4</title>
<g id="a_edge4_Node000004_Node000004"><a xlink:title=" ">
<path fill="none" stroke="#63b8ff" d="M495.73,-134.21C493.2,-143.8 503.5,-152 526.62,-152 539.99,-152 549.07,-149.26 553.87,-145.09"/>
<polygon fill="#63b8ff" stroke="#63b8ff" points="557.18,-146.24 557.04,-135.65 550.54,-144.02 557.18,-146.24"/>
</a>
</g>
</g>
</g>
</svg>

<g id="navigator" transform="translate(0 0)" fill="#404254">
  <rect fill="#f2f5e9" fill-opacity="0.5" stroke="#606060" stroke-width=".5" x="0" y="0" width="60" height="60"/>
  <use id="zoomplus" xlink:href="#zoomPlus" x="17" y="9" onmousedown="handleZoom(evt,'in')"/>
  <use id="zoomminus" xlink:href="#zoomMin" x="42" y="9" onmousedown="handleZoom(evt,'out')"/>
  <use id="reset" xlink:href="#resetDef" x="30" y="36" onmousedown="handleReset()"/>
   <use id="arrowup" xlink:href="#arrowUp" x="0" y="0" onmousedown="handlePan(0,-1)"/>
  <use id="arrowright" xlink:href="#arrowRight" x="0" y="0" onmousedown="handlePan(1,0)"/>
  <use id="arrowdown" xlink:href="#arrowDown" x="0" y="0" onmousedown="handlePan(0,1)"/>
  <use id="arrowleft" xlink:href="#arrowLeft" x="0" y="0" onmousedown="handlePan(-1,0)"/>
</g>
<svg viewBox="0 0 15 15" width="100%" height="30px" preserveAspectRatio="xMaxYMin meet">
 <g id="arrow_out" transform="scale(0.3 0.3)">
  <a xlink:href="structtt_1_1field__checker_aa1610a051ad7cd8478779af738420668_cgraph_org.svg" target="_base">
   <rect id="button" ry="5" rx="5" y="6" x="6" height="38" width="38"
        fill="#f2f5e9" fill-opacity="0.5" stroke="#606060" stroke-width="1.0"/>
   <path id="arrow"
     d="M 11.500037,31.436501 C 11.940474,20.09759 22.043105,11.32322 32.158766,21.979434 L 37.068811,17.246167 C 37.068811,17.246167 37.088388,32 37.088388,32 L 22.160133,31.978069 C 22.160133,31.978069 26.997745,27.140456 26.997745,27.140456 C 18.528582,18.264221 13.291696,25.230495 11.500037,31.436501 z"
     style="fill:#404040;"/>
  </a>
 </g>
</svg>

<style type='text/css'>
<![CDATA[
[data-mouse-over-selected='false'] { opacity: 0.7; }
[data-mouse-over-selected='true']  { opacity: 1.0; }
]]>
</style>
<script type="application/ecmascript"><![CDATA[
document.addEventListener('DOMContentLoaded', (event) => {
  highlightEdges();
  highlightAdjacentNodes();
});
]]></script>
</svg>
