<?xml version="1.0" encoding="UTF-8" standalone="no"?>
<!DOCTYPE svg PUBLIC "-//W3C//DTD SVG 1.1//EN"
 "http://www.w3.org/Graphics/SVG/1.1/DTD/svg11.dtd">
<!-- Generated by graphviz version 14.1.2 (20260124.0452)
 -->
<!-- Title: not_copy::not_copy Pages: 1 -->
<svg width="249pt" height="142pt"
 viewBox="0.00 0.00 249.00 142.00" xmlns="http://www.w3.org/2000/svg" xmlns:xlink="http://www.w3.org/1999/xlink">

<svg id="main" version="1.1" xmlns="http://www.w3.org/2000/svg" xmlns:xlink="http://www.w3.org/1999/xlink" xml:space="preserve">

<style type="text/css"><![CDATA[
.node, .edge {opacity: 0.7;}
.node.selected, .edge.selected {opacity: 1;}
.edge:hover path { stroke: red; }
.edge:hover polygon { stroke: red; fill: red; }
]]></style>
<script type="application/ecmascript" xlink:href="svg.min.js"/>
<svg id="graph" class="graph">
<g id="graph0" class="graph" transform="scale(1 1) rotate(0) translate(4 138)">
<title>not_copy::not_copy</title>
<!-- Node1 -->
<g id="Node000001" class="node">
<title>Node1</title>
<g id="a_Node000001"><a xlink:title=" ">
<polygon fill="#999999" stroke="#666666" points="240.5,-77 139,-77 139,-57 240.5,-57 240.5,-77"/>
<text xml:space="preserve" text-anchor="middle" x="189.75" y="-63.5" font-family="Helvetica,sans-Serif" font-size="10.00">not_copy::not_copy</text>
</a>
</g>
</g>
<!-- Node2 -->
<g id="Node000002" class="node">
<title>Node2</title>
<g id="a_Node000002"><a xlink:href="structnot__copy.html#ae2dbcf8f7f7f790d31796babe7943f57" target="_top" xlink:title=" ">
<polygon fill="white" stroke="#666666" points="102.25,-134 0.75,-134 0.75,-114 102.25,-114 102.25,-134"/>
<text xml:space="preserve" text-anchor="middle" x="51.5" y="-120.5" font-family="Helvetica,sans-Serif" font-size="10.00">not_copy::not_copy</text>
</a>
</g>
</g>
<!-- Node1&#45;&gt;Node2 -->
<g id="edge1_Node000001_Node000002" class="edge">
<title>Node1&#45;&gt;Node2</title>
<g id="a_edge1_Node000001_Node000002"><a xlink:title=" ">
<path fill="none" stroke="#63b8ff" d="M155.96,-82.06C140.06,-89.23 120.63,-97.78 103,-105 95.98,-107.87 88.34,-110.83 81.19,-113.53"/>
<polygon fill="#63b8ff" stroke="#63b8ff" points="157.29,-85.3 164.95,-77.98 154.4,-78.92 157.29,-85.3"/>
</a>
</g>
</g>
<!-- Node3 -->
<g id="Node000003" class="node">
<title>Node3</title>
<g id="a_Node000003"><a xlink:href="structnot__copy.html#a5b34577f746cbfaaeb8525c047fd8ff7" target="_top" xlink:title=" ">
<polygon fill="white" stroke="#666666" points="102.25,-96 0.75,-96 0.75,-76 102.25,-76 102.25,-96"/>
<text xml:space="preserve" text-anchor="middle" x="51.5" y="-82.5" font-family="Helvetica,sans-Serif" font-size="10.00">not_copy::not_copy</text>
</a>
</g>
</g>
<!-- Node1&#45;&gt;Node3 -->
<g id="edge2_Node000001_Node000003" class="edge">
<title>Node1&#45;&gt;Node3</title>
<g id="a_edge2_Node000001_Node000003"><a xlink:title=" ">
<path fill="none" stroke="#63b8ff" d="M127.5,-75.54C119.12,-76.71 110.6,-77.9 102.45,-79.03"/>
<polygon fill="#63b8ff" stroke="#63b8ff" points="127.87,-79.02 137.29,-74.18 126.9,-72.09 127.87,-79.02"/>
</a>
</g>
</g>
<!-- Node4 -->
<g id="Node000004" class="node">
<title>Node4</title>
<g id="a_Node000004"><a xlink:href="structnot__copy.html#a952a3adc3abdf269d7d8375f7032613b" target="_top" xlink:title=" ">
<polygon fill="white" stroke="#666666" points="103,-58 0,-58 0,-38 103,-38 103,-58"/>
<text xml:space="preserve" text-anchor="middle" x="51.5" y="-44.5" font-family="Helvetica,sans-Serif" font-size="10.00">not_copy::operator=</text>
</a>
</g>
</g>
<!-- Node1&#45;&gt;Node4 -->
<g id="edge3_Node000001_Node000004" class="edge">
<title>Node1&#45;&gt;Node4</title>
<g id="a_edge3_Node000001_Node000004"><a xlink:title=" ">
<path fill="none" stroke="#63b8ff" d="M127.51,-58.46C119.44,-57.33 111.24,-56.19 103.37,-55.09"/>
<polygon fill="#63b8ff" stroke="#63b8ff" points="126.9,-61.91 137.29,-59.82 127.87,-54.98 126.9,-61.91"/>
</a>
</g>
</g>
<!-- Node5 -->
<g id="Node000005" class="node">
<title>Node5</title>
<g id="a_Node000005"><a xlink:href="structnot__copy.html#acd7eb3646efe9c02854719db30ea7527" target="_top" xlink:title=" ">
<polygon fill="white" stroke="#666666" points="103,-20 0,-20 0,0 103,0 103,-20"/>
<text xml:space="preserve" text-anchor="middle" x="51.5" y="-6.5" font-family="Helvetica,sans-Serif" font-size="10.00">not_copy::operator=</text>
</a>
</g>
</g>
<!-- Node1&#45;&gt;Node5 -->
<g id="edge4_Node000001_Node000005" class="edge">
<title>Node1&#45;&gt;Node5</title>
<g id="a_edge4_Node000001_Node000005"><a xlink:title=" ">
<path fill="none" stroke="#63b8ff" d="M155.96,-51.94C140.06,-44.77 120.63,-36.22 103,-29 95.98,-26.13 88.34,-23.17 81.19,-20.47"/>
<polygon fill="#63b8ff" stroke="#63b8ff" points="154.4,-55.08 164.95,-56.02 157.29,-48.7 154.4,-55.08"/>
</a>
</g>
</g>
</g>
</svg>
</svg>

<style type='text/css'>
<![CDATA[
[data-mouse-over-selected='false'] { opacity: 0.7; }
[data-mouse-over-selected='true']  { opacity: 1.0; }
]]>
</style>
<script type="application/ecmascript"><![CDATA[
document.addEventListener('DOMContentLoaded', (event) => {
  highlightEdges();
  highlightAdjacentNodes();
});
]]></script>
</svg>
