<?xml version="1.0" encoding="UTF-8" standalone="no"?>
<!DOCTYPE svg PUBLIC "-//W3C//DTD SVG 1.1//EN"
 "http://www.w3.org/Graphics/SVG/1.1/DTD/svg11.dtd">
<!-- Generated by graphviz version 14.1.2 (20260124.0452)
 -->
<!-- Title: depicture_menu::domain::menu::radialmenu_item::get_action_id Pages: 1 -->
<svg width="684pt" height="368pt"
 viewBox="0.00 0.00 684.00 368.00" xmlns="http://www.w3.org/2000/svg" xmlns:xlink="http://www.w3.org/1999/xlink">
<g id="graph0" class="graph" transform="scale(1 1) rotate(0) translate(4 364)">
<title>depicture_menu::domain::menu::radialmenu_item::get_action_id</title>
<!-- Node1 -->
<g id="Node000001" class="node">
<title>Node1</title>
<g id="a_Node000001"><a xlink:title=" ">
<polygon fill="#999999" stroke="#666666" points="676,-215 552.75,-215 552.75,-171 676,-171 676,-215"/>
<text xml:space="preserve" text-anchor="start" x="560.75" y="-201.5" font-family="Helvetica,sans-Serif" font-size="10.00">depicture_menu::domain</text>
<text xml:space="preserve" text-anchor="start" x="560.75" y="-189.5" font-family="Helvetica,sans-Serif" font-size="10.00">::menu::radialmenu_item</text>
<text xml:space="preserve" text-anchor="middle" x="614.38" y="-177.5" font-family="Helvetica,sans-Serif" font-size="10.00">::get_action_id</text>
</a>
</g>
</g>
<!-- Node2 -->
<g id="Node000002" class="node">
<title>Node2</title>
<g id="a_Node000002"><a xlink:href="namespacedepicture__menu_1_1cs__binding.html#ae572bad0d69db1d1c8b9e1934514c6d9" target="_top" xlink:title=" ">
<polygon fill="white" stroke="#666666" points="314.75,-360 180.25,-360 180.25,-328 314.75,-328 314.75,-360"/>
<text xml:space="preserve" text-anchor="start" x="188.25" y="-346.5" font-family="Helvetica,sans-Serif" font-size="10.00">depicture_menu::cs</text>
<text xml:space="preserve" text-anchor="middle" x="247.5" y="-334.5" font-family="Helvetica,sans-Serif" font-size="10.00">_binding::apply_menu_item</text>
</a>
</g>
</g>
<!-- Node1&#45;&gt;Node2 -->
<g id="edge1_Node000001_Node000002" class="edge">
<title>Node1&#45;&gt;Node2</title>
<g id="a_edge1_Node000001_Node000002"><a xlink:title=" ">
<path fill="none" stroke="#63b8ff" d="M573.69,-221.62C556.71,-233.02 536.32,-245.63 516.75,-255 449.92,-286.99 368.6,-312.21 313.14,-327.51"/>
<polygon fill="#63b8ff" stroke="#63b8ff" points="575.21,-224.82 581.5,-216.29 571.27,-219.04 575.21,-224.82"/>
</a>
</g>
</g>
<!-- Node4 -->
<g id="Node000004" class="node">
<title>Node4</title>
<g id="a_Node000004"><a xlink:href="structdepicture__menu_1_1domain_1_1menu_1_1radialmenu__item.html#aadf2f8ebe06021b018c6c67e3dfa3682" target="_top" xlink:title=" ">
<polygon fill="white" stroke="#666666" points="500.62,-246 377.38,-246 377.38,-202 500.62,-202 500.62,-246"/>
<text xml:space="preserve" text-anchor="start" x="385.38" y="-232.5" font-family="Helvetica,sans-Serif" font-size="10.00">depicture_menu::domain</text>
<text xml:space="preserve" text-anchor="start" x="385.38" y="-220.5" font-family="Helvetica,sans-Serif" font-size="10.00">::menu::radialmenu_item</text>
<text xml:space="preserve" text-anchor="middle" x="439" y="-208.5" font-family="Helvetica,sans-Serif" font-size="10.00">::current_action_kind</text>
</a>
</g>
</g>
<!-- Node1&#45;&gt;Node4 -->
<g id="edge3_Node000001_Node000004" class="edge">
<title>Node1&#45;&gt;Node4</title>
<g id="a_edge3_Node000001_Node000004"><a xlink:title=" ">
<path fill="none" stroke="#63b8ff" d="M541.54,-205.84C528.03,-208.26 514.03,-210.76 500.9,-213.11"/>
<polygon fill="#63b8ff" stroke="#63b8ff" points="542.02,-209.31 551.25,-204.11 540.79,-202.42 542.02,-209.31"/>
</a>
</g>
</g>
<!-- Node11 -->
<g id="Node000011" class="node">
<title>Node11</title>
<g id="a_Node000011"><a xlink:href="structdepicture__menu_1_1domain_1_1menu_1_1radialmenu__item.html#a5f68ba3ad911890c83dcbdfd719ef1a8" target="_top" xlink:title=" ">
<polygon fill="white" stroke="#666666" points="500.62,-184 377.38,-184 377.38,-140 500.62,-140 500.62,-184"/>
<text xml:space="preserve" text-anchor="start" x="385.38" y="-170.5" font-family="Helvetica,sans-Serif" font-size="10.00">depicture_menu::domain</text>
<text xml:space="preserve" text-anchor="start" x="385.38" y="-158.5" font-family="Helvetica,sans-Serif" font-size="10.00">::menu::radialmenu_item</text>
<text xml:space="preserve" text-anchor="middle" x="439" y="-146.5" font-family="Helvetica,sans-Serif" font-size="10.00">::get_action_ids_range</text>
</a>
</g>
</g>
<!-- Node1&#45;&gt;Node11 -->
<g id="edge11_Node000001_Node000011" class="edge">
<title>Node1&#45;&gt;Node11</title>
<g id="a_edge11_Node000001_Node000011"><a xlink:title=" ">
<path fill="none" stroke="#63b8ff" d="M541.54,-180.16C528.03,-177.74 514.03,-175.24 500.9,-172.89"/>
<polygon fill="#63b8ff" stroke="#63b8ff" points="540.79,-183.58 551.25,-181.89 542.02,-176.69 540.79,-183.58"/>
</a>
</g>
</g>
<!-- Node12 -->
<g id="Node000012" class="node">
<title>Node12</title>
<g id="a_Node000012"><a xlink:href="structdepicture__menu_1_1usecase_1_1menu__item__sync.html#a73116168f11c4971bf386b8355e49889" target="_top" xlink:title=" ">
<polygon fill="white" stroke="#666666" points="516.75,-82 361.25,-82 361.25,-50 516.75,-50 516.75,-82"/>
<text xml:space="preserve" text-anchor="start" x="369.25" y="-68.5" font-family="Helvetica,sans-Serif" font-size="10.00">depicture_menu::usecase</text>
<text xml:space="preserve" text-anchor="middle" x="439" y="-56.5" font-family="Helvetica,sans-Serif" font-size="10.00">::menu_item_sync::make_query</text>
</a>
</g>
</g>
<!-- Node1&#45;&gt;Node12 -->
<g id="edge12_Node000001_Node000012" class="edge">
<title>Node1&#45;&gt;Node12</title>
<g id="a_edge12_Node000001_Node000012"><a xlink:title=" ">
<path fill="none" stroke="#63b8ff" d="M573.89,-164.08C539.36,-138.78 490.46,-102.96 462.31,-82.34"/>
<polygon fill="#63b8ff" stroke="#63b8ff" points="571.42,-166.61 581.56,-169.69 575.56,-160.96 571.42,-166.61"/>
</a>
</g>
</g>
<!-- Node3 -->
<g id="Node000003" class="node">
<title>Node3</title>
<g id="a_Node000003"><a xlink:href="namespacedepicture__menu_1_1cs__binding.html#a17af5c2678e88aa88a411f7d98a360a5" target="_top" xlink:title=" ">
<polygon fill="white" stroke="#666666" points="133.75,-360 0,-360 0,-328 133.75,-328 133.75,-360"/>
<text xml:space="preserve" text-anchor="start" x="8" y="-346.5" font-family="Helvetica,sans-Serif" font-size="10.00">depicture_menu::cs</text>
<text xml:space="preserve" text-anchor="middle" x="66.88" y="-334.5" font-family="Helvetica,sans-Serif" font-size="10.00">_binding::apply_radialmenu</text>
</a>
</g>
</g>
<!-- Node2&#45;&gt;Node3 -->
<g id="edge2_Node000002_Node000003" class="edge">
<title>Node2&#45;&gt;Node3</title>
<g id="a_edge2_Node000002_Node000003"><a xlink:title=" ">
<path fill="none" stroke="#63b8ff" d="M168.61,-344C157.12,-344 145.37,-344 134.15,-344"/>
<polygon fill="#63b8ff" stroke="#63b8ff" points="168.47,-347.5 178.47,-344 168.47,-340.5 168.47,-347.5"/>
</a>
</g>
</g>
<!-- Node4&#45;&gt;Node2 -->
<g id="edge4_Node000004_Node000002" class="edge">
<title>Node4&#45;&gt;Node2</title>
<g id="a_edge4_Node000004_Node000002"><a xlink:title=" ">
<path fill="none" stroke="#63b8ff" d="M405.5,-253.81C378.62,-278 342.21,-309.57 325.25,-319 319.49,-322.2 313.26,-325.07 306.93,-327.62"/>
<polygon fill="#63b8ff" stroke="#63b8ff" points="407.66,-256.57 412.73,-247.27 402.96,-251.38 407.66,-256.57"/>
</a>
</g>
</g>
<!-- Node5 -->
<g id="Node000005" class="node">
<title>Node5</title>
<g id="a_Node000005"><a xlink:href="menu__change__operation_8cpp.html#a81fa9e577bb1313893e9fd84bfe8e42e" target="_top" xlink:title=" ">
<polygon fill="white" stroke="#666666" points="321.12,-310 173.88,-310 173.88,-290 321.12,-290 321.12,-310"/>
<text xml:space="preserve" text-anchor="middle" x="247.5" y="-296.5" font-family="Helvetica,sans-Serif" font-size="10.00">BOOST_AUTO_TEST_CASE</text>
</a>
</g>
</g>
<!-- Node4&#45;&gt;Node5 -->
<g id="edge5_Node000004_Node000005" class="edge">
<title>Node4&#45;&gt;Node5</title>
<g id="a_edge5_Node000004_Node000005"><a xlink:title=" ">
<path fill="none" stroke="#63b8ff" d="M388.96,-251.83C369.55,-262.02 346.78,-273.01 325.25,-281 316.5,-284.25 306.98,-287.11 297.72,-289.56"/>
<polygon fill="#63b8ff" stroke="#63b8ff" points="390.56,-254.94 397.73,-247.14 387.26,-248.77 390.56,-254.94"/>
</a>
</g>
</g>
<!-- Node6 -->
<g id="Node000006" class="node">
<title>Node6</title>
<g id="a_Node000006"><a xlink:href="menu__change__operation_8cpp.html#af1ec2700c6332c1ebe308759d9b531f6" target="_top" xlink:title=" ">
<polygon fill="white" stroke="#666666" points="321.12,-272 173.88,-272 173.88,-252 321.12,-252 321.12,-272"/>
<text xml:space="preserve" text-anchor="middle" x="247.5" y="-258.5" font-family="Helvetica,sans-Serif" font-size="10.00">BOOST_AUTO_TEST_CASE</text>
</a>
</g>
</g>
<!-- Node4&#45;&gt;Node6 -->
<g id="edge6_Node000004_Node000006" class="edge">
<title>Node4&#45;&gt;Node6</title>
<g id="a_edge6_Node000004_Node000006"><a xlink:title=" ">
<path fill="none" stroke="#63b8ff" d="M365.86,-238.47C344.21,-242.81 320.89,-247.48 300.79,-251.51"/>
<polygon fill="#63b8ff" stroke="#63b8ff" points="366.4,-241.93 375.51,-236.53 365.02,-235.06 366.4,-241.93"/>
</a>
</g>
</g>
<!-- Node7 -->
<g id="Node000007" class="node">
<title>Node7</title>
<g id="a_Node000007"><a xlink:href="menu__change__operation_8cpp.html#a7f4477f42394db26f782d45e49cb2e64" target="_top" xlink:title=" ">
<polygon fill="white" stroke="#666666" points="321.12,-234 173.88,-234 173.88,-214 321.12,-214 321.12,-234"/>
<text xml:space="preserve" text-anchor="middle" x="247.5" y="-220.5" font-family="Helvetica,sans-Serif" font-size="10.00">BOOST_AUTO_TEST_CASE</text>
</a>
</g>
</g>
<!-- Node4&#45;&gt;Node7 -->
<g id="edge7_Node000004_Node000007" class="edge">
<title>Node4&#45;&gt;Node7</title>
<g id="a_edge7_Node000004_Node000007"><a xlink:title=" ">
<path fill="none" stroke="#63b8ff" d="M365.55,-224C351.05,-224 335.81,-224 321.3,-224"/>
<polygon fill="#63b8ff" stroke="#63b8ff" points="365.48,-227.5 375.48,-224 365.48,-220.5 365.48,-227.5"/>
</a>
</g>
</g>
<!-- Node8 -->
<g id="Node000008" class="node">
<title>Node8</title>
<g id="a_Node000008"><a xlink:href="menu__change__operation_8cpp.html#a47c493cda5dad7713cef20424cd34477" target="_top" xlink:title=" ">
<polygon fill="white" stroke="#666666" points="321.12,-196 173.88,-196 173.88,-176 321.12,-176 321.12,-196"/>
<text xml:space="preserve" text-anchor="middle" x="247.5" y="-182.5" font-family="Helvetica,sans-Serif" font-size="10.00">BOOST_AUTO_TEST_CASE</text>
</a>
</g>
</g>
<!-- Node4&#45;&gt;Node8 -->
<g id="edge8_Node000004_Node000008" class="edge">
<title>Node4&#45;&gt;Node8</title>
<g id="a_edge8_Node000004_Node000008"><a xlink:title=" ">
<path fill="none" stroke="#63b8ff" d="M365.86,-209.53C344.21,-205.19 320.89,-200.52 300.79,-196.49"/>
<polygon fill="#63b8ff" stroke="#63b8ff" points="365.02,-212.94 375.51,-211.47 366.4,-206.07 365.02,-212.94"/>
</a>
</g>
</g>
<!-- Node9 -->
<g id="Node000009" class="node">
<title>Node9</title>
<g id="a_Node000009"><a xlink:href="_test_config_view_presenter_8cpp.html#a26671984c98496781b11fd7859f0c808" target="_top" xlink:title=" ">
<polygon fill="white" stroke="#666666" points="321.12,-158 173.88,-158 173.88,-138 321.12,-138 321.12,-158"/>
<text xml:space="preserve" text-anchor="middle" x="247.5" y="-144.5" font-family="Helvetica,sans-Serif" font-size="10.00">BOOST_AUTO_TEST_CASE</text>
</a>
</g>
</g>
<!-- Node4&#45;&gt;Node9 -->
<g id="edge9_Node000004_Node000009" class="edge">
<title>Node4&#45;&gt;Node9</title>
<g id="a_edge9_Node000004_Node000009"><a xlink:title=" ">
<path fill="none" stroke="#63b8ff" d="M368,-196.57C365.7,-195.41 363.45,-194.21 361.25,-193 343.97,-183.46 343.16,-175.3 325.25,-167 317.9,-163.59 309.86,-160.75 301.85,-158.39"/>
<polygon fill="#63b8ff" stroke="#63b8ff" points="366.36,-199.67 376.89,-200.88 369.41,-193.37 366.36,-199.67"/>
</a>
</g>
</g>
<!-- Node10 -->
<g id="Node000010" class="node">
<title>Node10</title>
<g id="a_Node000010"><a xlink:href="_test_config_view_presenter_8cpp.html#afd6569b78df88fbcda86a12acb7bd142" target="_top" xlink:title=" ">
<polygon fill="white" stroke="#666666" points="321.12,-120 173.88,-120 173.88,-100 321.12,-100 321.12,-120"/>
<text xml:space="preserve" text-anchor="middle" x="247.5" y="-106.5" font-family="Helvetica,sans-Serif" font-size="10.00">BOOST_AUTO_TEST_CASE</text>
</a>
</g>
</g>
<!-- Node4&#45;&gt;Node10 -->
<g id="edge10_Node000004_Node000010" class="edge">
<title>Node4&#45;&gt;Node10</title>
<g id="a_edge10_Node000004_Node000010"><a xlink:title=" ">
<path fill="none" stroke="#63b8ff" d="M367.82,-198.19C365.53,-196.55 363.33,-194.83 361.25,-193 336.74,-171.45 351.22,-148.76 325.25,-129 320.77,-125.59 315.76,-122.79 310.5,-120.48"/>
<polygon fill="#63b8ff" stroke="#63b8ff" points="365.44,-200.82 375.76,-203.21 369.18,-194.91 365.44,-200.82"/>
</a>
</g>
</g>
<!-- Node12&#45;&gt;Node12 -->
<g id="edge14_Node000012_Node000012" class="edge">
<title>Node12&#45;&gt;Node12</title>
<g id="a_edge14_Node000012_Node000012"><a xlink:title=" ">
<path fill="none" stroke="#63b8ff" d="M468.23,-93.71C463.35,-97.48 453.61,-100 439,-100 412.28,-100 401.85,-91.58 407.69,-82.44"/>
<polygon fill="#63b8ff" stroke="#63b8ff" points="471.66,-94.4 470.03,-83.93 464.77,-93.13 471.66,-94.4"/>
</a>
</g>
</g>
<!-- Node13 -->
<g id="Node000013" class="node">
<title>Node13</title>
<g id="a_Node000013"><a xlink:href="structdepicture__menu_1_1usecase_1_1menu__item__sync.html#a20a37011fcd78b49181246ad5a07097f" target="_top" xlink:title=" ">
<polygon fill="white" stroke="#666666" points="325.25,-82 169.75,-82 169.75,-50 325.25,-50 325.25,-82"/>
<text xml:space="preserve" text-anchor="start" x="177.75" y="-68.5" font-family="Helvetica,sans-Serif" font-size="10.00">depicture_menu::usecase</text>
<text xml:space="preserve" text-anchor="middle" x="247.5" y="-56.5" font-family="Helvetica,sans-Serif" font-size="10.00">::menu_item_sync::make_query</text>
</a>
</g>
</g>
<!-- Node12&#45;&gt;Node13 -->
<g id="edge13_Node000012_Node000013" class="edge">
<title>Node12&#45;&gt;Node13</title>
<g id="a_edge13_Node000012_Node000013"><a xlink:title=" ">
<path fill="none" stroke="#63b8ff" d="M349.61,-66C341.56,-66 333.45,-66 325.51,-66"/>
<polygon fill="#63b8ff" stroke="#63b8ff" points="349.41,-69.5 359.41,-66 349.41,-62.5 349.41,-69.5"/>
</a>
</g>
</g>
<!-- Node14 -->
<g id="Node000014" class="node">
<title>Node14</title>
<g id="a_Node000014"><a xlink:href="structdepicture__menu_1_1usecase_1_1menu__item__sync.html#a9fd674e4ea4f37a1275b7fcf15ad2ae5" target="_top" xlink:title=" ">
<polygon fill="white" stroke="#666666" points="319.25,-32 175.75,-32 175.75,0 319.25,0 319.25,-32"/>
<text xml:space="preserve" text-anchor="start" x="183.75" y="-18.5" font-family="Helvetica,sans-Serif" font-size="10.00">depicture_menu::usecase</text>
<text xml:space="preserve" text-anchor="middle" x="247.5" y="-6.5" font-family="Helvetica,sans-Serif" font-size="10.00">::menu_item_sync::operator()</text>
</a>
</g>
</g>
<!-- Node12&#45;&gt;Node14 -->
<g id="edge15_Node000012_Node000014" class="edge">
<title>Node12&#45;&gt;Node14</title>
<g id="a_edge15_Node000012_Node000014"><a xlink:title=" ">
<path fill="none" stroke="#63b8ff" d="M364.77,-46.68C346.96,-41.98 328.09,-37 310.85,-32.45"/>
<polygon fill="#63b8ff" stroke="#63b8ff" points="363.66,-50.01 374.22,-49.17 365.45,-43.24 363.66,-50.01"/>
</a>
</g>
</g>
</g>
</svg>
