<?xml version="1.0" encoding="UTF-8" standalone="no"?>
<!DOCTYPE svg PUBLIC "-//W3C//DTD SVG 1.1//EN"
 "http://www.w3.org/Graphics/SVG/1.1/DTD/svg11.dtd">
<!-- Generated by graphviz version 14.1.2 (20260124.0452)
 -->
<!-- Title: depicture_menu::domain::menu::detail_menu::radialmenu_data Pages: 1 -->
<svg width="1260pt" height="128pt"
 viewBox="0.00 0.00 1260.00 128.00" xmlns="http://www.w3.org/2000/svg" xmlns:xlink="http://www.w3.org/1999/xlink">
<g id="graph0" class="graph" transform="scale(1 1) rotate(0) translate(4 124)">
<title>depicture_menu::domain::menu::detail_menu::radialmenu_data</title>
<!-- Node1 -->
<g id="Node000001" class="node">
<title>Node1</title>
<g id="a_Node000001"><a xlink:title=" ">
<polygon fill="#999999" stroke="#666666" points="1252,-71 1070.25,-71 1070.25,-39 1252,-39 1252,-71"/>
<text xml:space="preserve" text-anchor="start" x="1078.25" y="-57.5" font-family="Helvetica,sans-Serif" font-size="10.00">depicture_menu::domain</text>
<text xml:space="preserve" text-anchor="middle" x="1161.12" y="-45.5" font-family="Helvetica,sans-Serif" font-size="10.00">::menu::detail_menu::radialmenu_data</text>
</a>
</g>
</g>
<!-- Node2 -->
<g id="Node000002" class="node">
<title>Node2</title>
<g id="a_Node000002"><a xlink:href="classdepicture__menu_1_1domain_1_1menu_1_1radialmenu__centralitem.html" target="_top" xlink:title=" ">
<polygon fill="white" stroke="#666666" points="941.25,-101 788.75,-101 788.75,-69 941.25,-69 941.25,-101"/>
<text xml:space="preserve" text-anchor="start" x="796.75" y="-87.5" font-family="Helvetica,sans-Serif" font-size="10.00">depicture_menu::domain</text>
<text xml:space="preserve" text-anchor="middle" x="865" y="-75.5" font-family="Helvetica,sans-Serif" font-size="10.00">::menu::radialmenu_centralitem</text>
</a>
</g>
</g>
<!-- Node2&#45;&gt;Node1 -->
<g id="edge1_Node000001_Node000002" class="edge">
<title>Node2&#45;&gt;Node1</title>
<g id="a_edge1_Node000001_Node000002"><a xlink:title=" ">
<path fill="none" stroke="#9a32cd" stroke-dasharray="5,2" d="M952.98,-76.13C989.84,-72.37 1032.79,-67.99 1069.99,-64.19"/>
<polygon fill="#9a32cd" stroke="#9a32cd" points="952.84,-72.62 943.25,-77.12 953.55,-79.59 952.84,-72.62"/>
</a>
</g>
<text xml:space="preserve" text-anchor="start" x="976.5" y="-80.8" font-family="Helvetica,sans-Serif" font-size="10.00" fill="grey">central_item_</text>
</g>
<!-- Node3 -->
<g id="Node000003" class="node">
<title>Node3</title>
<g id="a_Node000003"><a xlink:href="structdepicture__menu_1_1domain_1_1models_1_1base_1_1entity__base.html" target="_top" xlink:title=" ">
<polygon fill="white" stroke="#666666" points="751.75,-118 621,-118 621,-62 751.75,-62 751.75,-118"/>
<text xml:space="preserve" text-anchor="start" x="629" y="-104.5" font-family="Helvetica,sans-Serif" font-size="10.00">models::entity_base</text>
<text xml:space="preserve" text-anchor="start" x="629" y="-92.5" font-family="Helvetica,sans-Serif" font-size="10.00">&lt; detail_menu::radialmenu</text>
<text xml:space="preserve" text-anchor="start" x="629" y="-80.5" font-family="Helvetica,sans-Serif" font-size="10.00">_centralitem_data, menu</text>
<text xml:space="preserve" text-anchor="middle" x="686.38" y="-68.5" font-family="Helvetica,sans-Serif" font-size="10.00">_central_item_id &gt;</text>
</a>
</g>
</g>
<!-- Node3&#45;&gt;Node2 -->
<g id="edge2_Node000002_Node000003" class="edge">
<title>Node3&#45;&gt;Node2</title>
<g id="a_edge2_Node000002_Node000003"><a xlink:title=" ">
<path fill="none" stroke="#63b8ff" d="M763.37,-87.85C771.69,-87.61 780.16,-87.37 788.47,-87.14"/>
<polygon fill="#63b8ff" stroke="#63b8ff" points="763.55,-84.34 753.65,-88.12 763.75,-91.34 763.55,-84.34"/>
</a>
</g>
</g>
<!-- Node4 -->
<g id="Node000004" class="node">
<title>Node4</title>
<g id="a_Node000004"><a xlink:title=" ">
<polygon fill="white" stroke="#666666" points="491.65,-120 462.85,-120 462.85,-100 491.65,-100 491.65,-120"/>
<text xml:space="preserve" text-anchor="middle" x="477.25" y="-106.5" font-family="Helvetica,sans-Serif" font-size="10.00">V</text>
</a>
</g>
</g>
<!-- Node4&#45;&gt;Node3 -->
<g id="edge3_Node000003_Node000004" class="edge">
<title>Node4&#45;&gt;Node3</title>
<g id="a_edge3_Node000003_Node000004"><a xlink:title=" ">
<path fill="none" stroke="darkgreen" d="M503.28,-107.58C532.18,-104.79 580.83,-100.09 620.58,-96.26"/>
<polygon fill="darkgreen" stroke="darkgreen" points="502.96,-104.1 493.35,-108.54 503.64,-111.06 502.96,-104.1"/>
</a>
</g>
</g>
<!-- Node5 -->
<g id="Node000005" class="node">
<title>Node5</title>
<g id="a_Node000005"><a xlink:href="structdepicture__menu_1_1domain_1_1models_1_1base_1_1entity__base.html" target="_top" xlink:title=" ">
<polygon fill="white" stroke="#666666" points="538.5,-82 416,-82 416,-38 538.5,-38 538.5,-82"/>
<text xml:space="preserve" text-anchor="start" x="424" y="-68.5" font-family="Helvetica,sans-Serif" font-size="10.00">depicture_menu::domain</text>
<text xml:space="preserve" text-anchor="start" x="424" y="-56.5" font-family="Helvetica,sans-Serif" font-size="10.00">::models::base::entity</text>
<text xml:space="preserve" text-anchor="middle" x="477.25" y="-44.5" font-family="Helvetica,sans-Serif" font-size="10.00">_base&lt; Value, IdTag &gt;</text>
</a>
</g>
</g>
<!-- Node5&#45;&gt;Node3 -->
<g id="edge4_Node000003_Node000005" class="edge">
<title>Node5&#45;&gt;Node3</title>
<g id="a_edge4_Node000003_Node000005"><a xlink:title=" ">
<path fill="none" stroke="orange" stroke-dasharray="5,2" d="M550.12,-68.71C567.45,-70.95 585.9,-73.45 603,-76 608.74,-76.86 614.7,-77.79 620.66,-78.75"/>
<polygon fill="orange" stroke="orange" points="550.78,-65.26 540.42,-67.47 549.89,-72.21 550.78,-65.26"/>
</a>
</g>
<text xml:space="preserve" text-anchor="start" x="559.5" y="-81.5" font-family="Helvetica,sans-Serif" font-size="10.00" fill="grey">&lt; V, ID &gt;</text>
</g>
<!-- Node6 -->
<g id="Node000006" class="node">
<title>Node6</title>
<g id="a_Node000006"><a xlink:title=" ">
<polygon fill="white" stroke="#666666" points="320,-95 280,-95 280,-75 320,-75 320,-95"/>
<text xml:space="preserve" text-anchor="middle" x="300" y="-81.5" font-family="Helvetica,sans-Serif" font-size="10.00">Value</text>
</a>
</g>
</g>
<!-- Node6&#45;&gt;Node5 -->
<g id="edge5_Node000005_Node000006" class="edge">
<title>Node6&#45;&gt;Node5</title>
<g id="a_edge5_Node000005_Node000006"><a xlink:title=" ">
<path fill="none" stroke="darkgreen" d="M331.63,-80.63C354.83,-77.32 387.45,-72.67 415.84,-68.62"/>
<polygon fill="darkgreen" stroke="darkgreen" points="331.33,-77.14 321.92,-82.02 332.32,-84.07 331.33,-77.14"/>
</a>
</g>
</g>
<!-- Node7 -->
<g id="Node000007" class="node">
<title>Node7</title>
<g id="a_Node000007"><a xlink:href="structdepicture__menu_1_1domain_1_1models_1_1entity__id__base.html" target="_top" xlink:title=" ">
<polygon fill="white" stroke="#666666" points="361.25,-57 238.75,-57 238.75,-13 361.25,-13 361.25,-57"/>
<text xml:space="preserve" text-anchor="start" x="246.75" y="-43.5" font-family="Helvetica,sans-Serif" font-size="10.00">depicture_menu::domain</text>
<text xml:space="preserve" text-anchor="start" x="246.75" y="-31.5" font-family="Helvetica,sans-Serif" font-size="10.00">::models::entity_id_base</text>
<text xml:space="preserve" text-anchor="middle" x="300" y="-19.5" font-family="Helvetica,sans-Serif" font-size="10.00">&lt; standard_tag &gt;</text>
</a>
</g>
</g>
<!-- Node7&#45;&gt;Node5 -->
<g id="edge6_Node000005_Node000007" class="edge">
<title>Node7&#45;&gt;Node5</title>
<g id="a_edge6_Node000005_Node000007"><a xlink:title=" ">
<path fill="none" stroke="#9a32cd" stroke-dasharray="5,2" d="M372.59,-45.21C386.84,-47.25 401.68,-49.36 415.53,-51.34"/>
<polygon fill="#9a32cd" stroke="#9a32cd" points="373.2,-41.76 362.81,-43.82 372.21,-48.69 373.2,-41.76"/>
</a>
</g>
<text xml:space="preserve" text-anchor="start" x="382.25" y="-53.75" font-family="Helvetica,sans-Serif" font-size="10.00" fill="grey">id_</text>
</g>
<!-- Node8 -->
<g id="Node000008" class="node">
<title>Node8</title>
<g id="a_Node000008"><a xlink:href="structdepicture__menu_1_1domain_1_1models_1_1entity__id__base.html" target="_top" xlink:title=" ">
<polygon fill="white" stroke="#666666" points="122.5,-57 0,-57 0,-13 122.5,-13 122.5,-57"/>
<text xml:space="preserve" text-anchor="start" x="8" y="-43.5" font-family="Helvetica,sans-Serif" font-size="10.00">depicture_menu::domain</text>
<text xml:space="preserve" text-anchor="start" x="8" y="-31.5" font-family="Helvetica,sans-Serif" font-size="10.00">::models::entity_id_base</text>
<text xml:space="preserve" text-anchor="middle" x="61.25" y="-19.5" font-family="Helvetica,sans-Serif" font-size="10.00">&lt; Tag &gt;</text>
</a>
</g>
</g>
<!-- Node8&#45;&gt;Node7 -->
<g id="edge7_Node000007_Node000008" class="edge">
<title>Node8&#45;&gt;Node7</title>
<g id="a_edge7_Node000007_Node000008"><a xlink:title=" ">
<path fill="none" stroke="orange" stroke-dasharray="5,2" d="M134.42,-35C167.71,-35 206.78,-35 238.5,-35"/>
<polygon fill="orange" stroke="orange" points="134.43,-31.5 124.43,-35 134.43,-38.5 134.43,-31.5"/>
</a>
</g>
<text xml:space="preserve" text-anchor="start" x="143.5" y="-40.5" font-family="Helvetica,sans-Serif" font-size="10.00" fill="grey">&lt; standard_tag &gt;</text>
</g>
<!-- Node9 -->
<g id="Node000009" class="node">
<title>Node9</title>
<g id="a_Node000009"><a xlink:href="classdepicture__menu_1_1domain_1_1menu_1_1app__command__ids.html" target="_top" xlink:title=" ">
<polygon fill="white" stroke="#666666" points="931.88,-47 798.12,-47 798.12,-15 931.88,-15 931.88,-47"/>
<text xml:space="preserve" text-anchor="start" x="806.12" y="-33.5" font-family="Helvetica,sans-Serif" font-size="10.00">depicture_menu::domain</text>
<text xml:space="preserve" text-anchor="middle" x="865" y="-21.5" font-family="Helvetica,sans-Serif" font-size="10.00">::menu::app_command_ids</text>
</a>
</g>
</g>
<!-- Node9&#45;&gt;Node1 -->
<g id="edge8_Node000001_Node000009" class="edge">
<title>Node9&#45;&gt;Node1</title>
<g id="a_edge8_Node000001_Node000009"><a xlink:title=" ">
<path fill="none" stroke="#9a32cd" stroke-dasharray="5,2" d="M943.2,-31.85C976.77,-32.75 1016.52,-34.53 1052.25,-38 1058.01,-38.56 1063.92,-39.23 1069.88,-39.97"/>
<polygon fill="#9a32cd" stroke="#9a32cd" points="943.66,-28.36 933.58,-31.61 943.49,-35.36 943.66,-28.36"/>
</a>
</g>
<text xml:space="preserve" text-anchor="start" x="962.25" y="-43.5" font-family="Helvetica,sans-Serif" font-size="10.00" fill="grey">app_command_ids_</text>
</g>
<!-- Node10 -->
<g id="Node000010" class="node">
<title>Node10</title>
<g id="a_Node000010"><a xlink:title=" ">
<polygon fill="white" stroke="#666666" points="749.12,-44 623.62,-44 623.62,0 749.12,0 749.12,-44"/>
<text xml:space="preserve" text-anchor="start" x="631.62" y="-30.5" font-family="Helvetica,sans-Serif" font-size="10.00">models::value_object</text>
<text xml:space="preserve" text-anchor="start" x="631.62" y="-18.5" font-family="Helvetica,sans-Serif" font-size="10.00">_base&lt; detail_menu::app</text>
<text xml:space="preserve" text-anchor="middle" x="686.38" y="-6.5" font-family="Helvetica,sans-Serif" font-size="10.00">_command_ids_data &gt;</text>
</a>
</g>
</g>
<!-- Node10&#45;&gt;Node9 -->
<g id="edge9_Node000009_Node000010" class="edge">
<title>Node10&#45;&gt;Node9</title>
<g id="a_edge9_Node000009_Node000010"><a xlink:title=" ">
<path fill="none" stroke="#63b8ff" d="M760.38,-25.72C772.76,-26.35 785.56,-27 797.75,-27.62"/>
<polygon fill="#63b8ff" stroke="#63b8ff" points="760.83,-22.24 750.66,-25.22 760.47,-29.23 760.83,-22.24"/>
</a>
</g>
</g>
</g>
</svg>
