<?xml version="1.0" encoding="UTF-8" standalone="no"?>
<!DOCTYPE svg PUBLIC "-//W3C//DTD SVG 1.1//EN"
 "http://www.w3.org/Graphics/SVG/1.1/DTD/svg11.dtd">
<!-- Generated by graphviz version 14.1.2 (20260124.0452)
 -->
<!-- Title: depicture_menu::usecase::dto::view_changed_notify_with_kind::event Pages: 1 -->
<svg width="547pt" height="245pt"
 viewBox="0.00 0.00 547.00 245.00" xmlns="http://www.w3.org/2000/svg" xmlns:xlink="http://www.w3.org/1999/xlink">
<g id="graph0" class="graph" transform="scale(1 1) rotate(0) translate(4 241)">
<title>depicture_menu::usecase::dto::view_changed_notify_with_kind::event</title>
<!-- Node1 -->
<g id="Node000001" class="node">
<title>Node1</title>
<g id="a_Node000001"><a xlink:title=" ">
<polygon fill="#999999" stroke="#666666" points="538.5,-144 405.5,-144 405.5,-100 538.5,-100 538.5,-144"/>
<text xml:space="preserve" text-anchor="start" x="413.5" y="-130.5" font-family="Helvetica,sans-Serif" font-size="10.00">depicture_menu::usecase</text>
<text xml:space="preserve" text-anchor="start" x="413.5" y="-118.5" font-family="Helvetica,sans-Serif" font-size="10.00">::dto::view_changed_notify</text>
<text xml:space="preserve" text-anchor="middle" x="472" y="-106.5" font-family="Helvetica,sans-Serif" font-size="10.00">_with_kind::event</text>
</a>
</g>
</g>
<!-- Node2 -->
<g id="Node000002" class="node">
<title>Node2</title>
<g id="a_Node000002"><a xlink:href="classdepicture__menu_1_1presentations_1_1config__view__presenter.html#a8af0a43b59e5d4592e1950bee91f93b6" target="_top" xlink:title=" ">
<polygon fill="white" stroke="#666666" points="149.5,-237 0,-237 0,-193 149.5,-193 149.5,-237"/>
<text xml:space="preserve" text-anchor="start" x="8" y="-223.5" font-family="Helvetica,sans-Serif" font-size="10.00">depicture_menu::presentations</text>
<text xml:space="preserve" text-anchor="start" x="8" y="-211.5" font-family="Helvetica,sans-Serif" font-size="10.00">::config_view_presenter::</text>
<text xml:space="preserve" text-anchor="middle" x="74.75" y="-199.5" font-family="Helvetica,sans-Serif" font-size="10.00">change_action</text>
</a>
</g>
</g>
<!-- Node1&#45;&gt;Node2 -->
<g id="edge1_Node000001_Node000002" class="edge">
<title>Node1&#45;&gt;Node2</title>
<g id="a_edge1_Node000001_Node000002"><a xlink:title=" ">
<path fill="none" stroke="#63b8ff" d="M443.27,-152.29C424.45,-170.61 397.89,-192.4 369.5,-203 298.37,-229.55 210.72,-229.29 149.77,-224.42"/>
<polygon fill="#63b8ff" stroke="#63b8ff" points="445.71,-154.8 450.29,-145.24 440.75,-149.86 445.71,-154.8"/>
</a>
</g>
</g>
<!-- Node3 -->
<g id="Node000003" class="node">
<title>Node3</title>
<g id="a_Node000003"><a xlink:href="classdepicture__menu_1_1presentations_1_1config__view__presenter.html#adfd63adfc374caba01b835b1ac7b98ce" target="_top" xlink:title=" ">
<polygon fill="white" stroke="#666666" points="352.25,-194 202.75,-194 202.75,-150 352.25,-150 352.25,-194"/>
<text xml:space="preserve" text-anchor="start" x="210.75" y="-180.5" font-family="Helvetica,sans-Serif" font-size="10.00">depicture_menu::presentations</text>
<text xml:space="preserve" text-anchor="start" x="210.75" y="-168.5" font-family="Helvetica,sans-Serif" font-size="10.00">::config_view_presenter::</text>
<text xml:space="preserve" text-anchor="middle" x="277.5" y="-156.5" font-family="Helvetica,sans-Serif" font-size="10.00">change_command</text>
</a>
</g>
</g>
<!-- Node1&#45;&gt;Node3 -->
<g id="edge2_Node000001_Node000003" class="edge">
<title>Node1&#45;&gt;Node3</title>
<g id="a_edge2_Node000001_Node000003"><a xlink:title=" ">
<path fill="none" stroke="#63b8ff" d="M394.18,-141.95C380.5,-145.51 366.26,-149.2 352.65,-152.74"/>
<polygon fill="#63b8ff" stroke="#63b8ff" points="394.76,-145.42 403.56,-139.52 393,-138.64 394.76,-145.42"/>
</a>
</g>
</g>
<!-- Node4 -->
<g id="Node000004" class="node">
<title>Node4</title>
<g id="a_Node000004"><a xlink:href="classdepicture__menu_1_1presentations_1_1config__view__presenter.html#abca5e005ea6562bc3b87dabee3acc640" target="_top" xlink:title=" ">
<polygon fill="white" stroke="#666666" points="149.5,-169 0,-169 0,-125 149.5,-125 149.5,-169"/>
<text xml:space="preserve" text-anchor="start" x="8" y="-155.5" font-family="Helvetica,sans-Serif" font-size="10.00">depicture_menu::presentations</text>
<text xml:space="preserve" text-anchor="start" x="8" y="-143.5" font-family="Helvetica,sans-Serif" font-size="10.00">::config_view_presenter::</text>
<text xml:space="preserve" text-anchor="middle" x="74.75" y="-131.5" font-family="Helvetica,sans-Serif" font-size="10.00">change_menu</text>
</a>
</g>
</g>
<!-- Node1&#45;&gt;Node4 -->
<g id="edge5_Node000001_Node000004" class="edge">
<title>Node1&#45;&gt;Node4</title>
<g id="a_edge5_Node000001_Node000004"><a xlink:title=" ">
<path fill="none" stroke="#63b8ff" d="M393.81,-126.88C323.16,-131.35 219.31,-137.92 149.7,-142.32"/>
<polygon fill="#63b8ff" stroke="#63b8ff" points="394.02,-130.38 403.78,-126.25 393.58,-123.39 394.02,-130.38"/>
</a>
</g>
</g>
<!-- Node5 -->
<g id="Node000005" class="node">
<title>Node5</title>
<g id="a_Node000005"><a xlink:href="classdepicture__menu_1_1presentations_1_1menu__view__presenter.html#a7e4294a6963d9e8c10bce17929ce960f" target="_top" xlink:title=" ">
<polygon fill="white" stroke="#666666" points="369.5,-94 185.5,-94 185.5,-62 369.5,-62 369.5,-94"/>
<text xml:space="preserve" text-anchor="start" x="193.5" y="-80.5" font-family="Helvetica,sans-Serif" font-size="10.00">depicture_menu::presentations</text>
<text xml:space="preserve" text-anchor="middle" x="277.5" y="-68.5" font-family="Helvetica,sans-Serif" font-size="10.00">::menu_view_presenter::change_menu</text>
</a>
</g>
</g>
<!-- Node1&#45;&gt;Node5 -->
<g id="edge6_Node000001_Node000005" class="edge">
<title>Node1&#45;&gt;Node5</title>
<g id="a_edge6_Node000001_Node000005"><a xlink:title=" ">
<path fill="none" stroke="#63b8ff" d="M394.18,-104.44C379.82,-101.16 364.86,-97.74 350.65,-94.49"/>
<polygon fill="#63b8ff" stroke="#63b8ff" points="393.02,-107.77 403.55,-106.58 394.58,-100.94 393.02,-107.77"/>
</a>
</g>
</g>
<!-- Node7 -->
<g id="Node000007" class="node">
<title>Node7</title>
<g id="a_Node000007"><a xlink:href="classdepicture__menu_1_1presentations_1_1config__view__presenter.html#a1bfd853da05f00d46ffbc4ec2caf77c3" target="_top" xlink:title=" ">
<polygon fill="white" stroke="#666666" points="352.25,-44 202.75,-44 202.75,0 352.25,0 352.25,-44"/>
<text xml:space="preserve" text-anchor="start" x="210.75" y="-30.5" font-family="Helvetica,sans-Serif" font-size="10.00">depicture_menu::presentations</text>
<text xml:space="preserve" text-anchor="start" x="210.75" y="-18.5" font-family="Helvetica,sans-Serif" font-size="10.00">::config_view_presenter::</text>
<text xml:space="preserve" text-anchor="middle" x="277.5" y="-6.5" font-family="Helvetica,sans-Serif" font-size="10.00">change_trigger</text>
</a>
</g>
</g>
<!-- Node1&#45;&gt;Node7 -->
<g id="edge8_Node000001_Node000007" class="edge">
<title>Node1&#45;&gt;Node7</title>
<g id="a_edge8_Node000001_Node000007"><a xlink:title=" ">
<path fill="none" stroke="#63b8ff" d="M433.3,-92.79C414.79,-79.41 391.74,-64.1 369.5,-53 363.38,-49.95 356.88,-47.07 350.29,-44.41"/>
<polygon fill="#63b8ff" stroke="#63b8ff" points="431.18,-95.58 441.31,-98.68 435.33,-89.94 431.18,-95.58"/>
</a>
</g>
</g>
<!-- Node3&#45;&gt;Node2 -->
<g id="edge3_Node000003_Node000002" class="edge">
<title>Node3&#45;&gt;Node2</title>
<g id="a_edge3_Node000003_Node000002"><a xlink:title=" ">
<path fill="none" stroke="#63b8ff" d="M191.38,-190.23C177.61,-193.18 163.45,-196.22 149.96,-199.1"/>
<polygon fill="#63b8ff" stroke="#63b8ff" points="191.79,-193.72 200.84,-188.21 190.33,-186.88 191.79,-193.72"/>
</a>
</g>
</g>
<!-- Node3&#45;&gt;Node4 -->
<g id="edge4_Node000003_Node000004" class="edge">
<title>Node3&#45;&gt;Node4</title>
<g id="a_edge4_Node000003_Node000004"><a xlink:title=" ">
<path fill="none" stroke="#63b8ff" d="M190.97,-161.35C177.33,-159.65 163.31,-157.9 149.96,-156.24"/>
<polygon fill="#63b8ff" stroke="#63b8ff" points="190.46,-164.81 200.82,-162.57 191.33,-157.87 190.46,-164.81"/>
</a>
</g>
</g>
<!-- Node6 -->
<g id="Node000006" class="node">
<title>Node6</title>
<g id="a_Node000006"><a xlink:href="_test_menu_view_presenter_8cpp.html#a151ccc4fe04555bd94ebef4472e1c21b" target="_top" xlink:title=" ">
<polygon fill="white" stroke="#666666" points="148.38,-94 1.12,-94 1.12,-62 148.38,-62 148.38,-94"/>
<text xml:space="preserve" text-anchor="start" x="9.12" y="-80.5" font-family="Helvetica,sans-Serif" font-size="10.00">BOOST_AUTO_TEST_CASE</text>
<text xml:space="preserve" text-anchor="middle" x="74.75" y="-68.5" font-family="Helvetica,sans-Serif" font-size="10.00">_TEMPLATE</text>
</a>
</g>
</g>
<!-- Node5&#45;&gt;Node6 -->
<g id="edge7_Node000005_Node000006" class="edge">
<title>Node5&#45;&gt;Node6</title>
<g id="a_edge7_Node000005_Node000006"><a xlink:title=" ">
<path fill="none" stroke="#63b8ff" d="M173.74,-78C165.31,-78 156.9,-78 148.75,-78"/>
<polygon fill="#63b8ff" stroke="#63b8ff" points="173.72,-81.5 183.72,-78 173.72,-74.5 173.72,-81.5"/>
</a>
</g>
</g>
</g>
</svg>
