<?xml version="1.0" encoding="UTF-8" standalone="no"?>
<!DOCTYPE svg PUBLIC "-//W3C//DTD SVG 1.1//EN"
 "http://www.w3.org/Graphics/SVG/1.1/DTD/svg11.dtd">
<!-- Generated by graphviz version 14.1.2 (20260124.0452)
 -->
<!-- Title: depicture_menu::domain::menu::detail_menu::radialmenu_data Pages: 1 -->
<svg width="705pt" height="126pt"
 viewBox="0.00 0.00 705.00 126.00" xmlns="http://www.w3.org/2000/svg" xmlns:xlink="http://www.w3.org/1999/xlink">
<g id="graph0" class="graph" transform="scale(1 1) rotate(0) translate(4 122)">
<title>depicture_menu::domain::menu::detail_menu::radialmenu_data</title>
<!-- Node1 -->
<g id="Node000001" class="node">
<title>Node1</title>
<g id="a_Node000001"><a xlink:title=" ">
<polygon fill="#999999" stroke="#666666" points="696.8,-77 515.05,-77 515.05,-45 696.8,-45 696.8,-77"/>
<text xml:space="preserve" text-anchor="start" x="523.05" y="-63.5" font-family="Helvetica,sans-Serif" font-size="10.00">depicture_menu::domain</text>
<text xml:space="preserve" text-anchor="middle" x="605.92" y="-51.5" font-family="Helvetica,sans-Serif" font-size="10.00">::menu::detail_menu::radialmenu_data</text>
</a>
</g>
</g>
<!-- Node2 -->
<g id="Node000002" class="node">
<title>Node2</title>
<g id="a_Node000002"><a xlink:href="classdepicture__menu_1_1domain_1_1menu_1_1radialmenu__centralitem.html" target="_top" xlink:title=" ">
<polygon fill="white" stroke="#666666" points="386.05,-102 233.55,-102 233.55,-70 386.05,-70 386.05,-102"/>
<text xml:space="preserve" text-anchor="start" x="241.55" y="-88.5" font-family="Helvetica,sans-Serif" font-size="10.00">depicture_menu::domain</text>
<text xml:space="preserve" text-anchor="middle" x="309.8" y="-76.5" font-family="Helvetica,sans-Serif" font-size="10.00">::menu::radialmenu_centralitem</text>
</a>
</g>
</g>
<!-- Node2&#45;&gt;Node1 -->
<g id="edge1_Node000001_Node000002" class="edge">
<title>Node2&#45;&gt;Node1</title>
<g id="a_edge1_Node000001_Node000002"><a xlink:title=" ">
<path fill="none" stroke="#9a32cd" stroke-dasharray="5,2" d="M397.78,-78.61C434.64,-75.47 477.59,-71.82 514.79,-68.66"/>
<polygon fill="#9a32cd" stroke="#9a32cd" points="397.72,-75.1 388.05,-79.43 398.31,-82.07 397.72,-75.1"/>
</a>
</g>
<text xml:space="preserve" text-anchor="start" x="421.3" y="-83.41" font-family="Helvetica,sans-Serif" font-size="10.00" fill="grey">central_item_</text>
</g>
<!-- Node3 -->
<g id="Node000003" class="node">
<title>Node3</title>
<g id="a_Node000003"><a xlink:href="structdepicture__menu_1_1domain_1_1models_1_1base_1_1entity__base.html" target="_top" xlink:title=" ">
<polygon fill="white" stroke="#666666" points="196.55,-118 65.8,-118 65.8,-62 196.55,-62 196.55,-118"/>
<text xml:space="preserve" text-anchor="start" x="73.8" y="-104.5" font-family="Helvetica,sans-Serif" font-size="10.00">models::entity_base</text>
<text xml:space="preserve" text-anchor="start" x="73.8" y="-92.5" font-family="Helvetica,sans-Serif" font-size="10.00">&lt; detail_menu::radialmenu</text>
<text xml:space="preserve" text-anchor="start" x="73.8" y="-80.5" font-family="Helvetica,sans-Serif" font-size="10.00">_centralitem_data, menu</text>
<text xml:space="preserve" text-anchor="middle" x="131.17" y="-68.5" font-family="Helvetica,sans-Serif" font-size="10.00">_central_item_id &gt;</text>
</a>
</g>
</g>
<!-- Node3&#45;&gt;Node2 -->
<g id="edge2_Node000002_Node000003" class="edge">
<title>Node3&#45;&gt;Node2</title>
<g id="a_edge2_Node000002_Node000003"><a xlink:title=" ">
<path fill="none" stroke="#63b8ff" d="M208.45,-88.27C216.68,-88.09 225.05,-87.9 233.27,-87.71"/>
<polygon fill="#63b8ff" stroke="#63b8ff" points="208.37,-84.77 198.45,-88.5 208.53,-91.77 208.37,-84.77"/>
</a>
</g>
</g>
<!-- Node4 -->
<g id="Node000004" class="node">
<title>Node4</title>
<g id="a_Node000004"><a xlink:title=" ">
<polygon fill="white" stroke="#666666" points="28.8,-65 0,-65 0,-45 28.8,-45 28.8,-65"/>
<text xml:space="preserve" text-anchor="middle" x="14.4" y="-51.5" font-family="Helvetica,sans-Serif" font-size="10.00">V</text>
</a>
</g>
</g>
<!-- Node4&#45;&gt;Node3 -->
<g id="edge3_Node000003_Node000004" class="edge">
<title>Node4&#45;&gt;Node3</title>
<g id="a_edge3_Node000003_Node000004"><a xlink:title=" ">
<path fill="none" stroke="darkgreen" d="M39.92,-62.48C47.56,-64.81 56.37,-67.49 65.43,-70.26"/>
<polygon fill="darkgreen" stroke="darkgreen" points="41.05,-59.16 30.46,-59.59 39.01,-65.86 41.05,-59.16"/>
</a>
</g>
</g>
<!-- Node6 -->
<g id="Node000006" class="node">
<title>Node6</title>
<g id="a_Node000006"><a xlink:href="structdepicture__menu_1_1domain_1_1models_1_1base_1_1value__object__base.html" target="_top" xlink:title=" ">
<polygon fill="white" stroke="#666666" points="193.92,-44 68.42,-44 68.42,0 193.92,0 193.92,-44"/>
<text xml:space="preserve" text-anchor="start" x="76.42" y="-30.5" font-family="Helvetica,sans-Serif" font-size="10.00">models::value_object</text>
<text xml:space="preserve" text-anchor="start" x="76.42" y="-18.5" font-family="Helvetica,sans-Serif" font-size="10.00">_base&lt; detail_menu::app</text>
<text xml:space="preserve" text-anchor="middle" x="131.17" y="-6.5" font-family="Helvetica,sans-Serif" font-size="10.00">_command_ids_data &gt;</text>
</a>
</g>
</g>
<!-- Node4&#45;&gt;Node6 -->
<g id="edge6_Node000006_Node000004" class="edge">
<title>Node4&#45;&gt;Node6</title>
<g id="a_edge6_Node000006_Node000004"><a xlink:title=" ">
<path fill="none" stroke="#63b8ff" d="M39.81,-47.98C48.21,-45.57 58.03,-42.74 68.05,-39.86"/>
<polygon fill="#63b8ff" stroke="#63b8ff" points="39.12,-44.54 30.47,-50.67 41.05,-51.27 39.12,-44.54"/>
</a>
</g>
</g>
<!-- Node5 -->
<g id="Node000005" class="node">
<title>Node5</title>
<g id="a_Node000005"><a xlink:href="classdepicture__menu_1_1domain_1_1menu_1_1app__command__ids.html" target="_top" xlink:title=" ">
<polygon fill="white" stroke="#666666" points="376.67,-51 242.92,-51 242.92,-19 376.67,-19 376.67,-51"/>
<text xml:space="preserve" text-anchor="start" x="250.92" y="-37.5" font-family="Helvetica,sans-Serif" font-size="10.00">depicture_menu::domain</text>
<text xml:space="preserve" text-anchor="middle" x="309.8" y="-25.5" font-family="Helvetica,sans-Serif" font-size="10.00">::menu::app_command_ids</text>
</a>
</g>
</g>
<!-- Node5&#45;&gt;Node1 -->
<g id="edge4_Node000001_Node000005" class="edge">
<title>Node5&#45;&gt;Node1</title>
<g id="a_edge4_Node000001_Node000005"><a xlink:title=" ">
<path fill="none" stroke="#9a32cd" stroke-dasharray="5,2" d="M387.91,-40.18C421.47,-42.59 461.23,-45.66 497.05,-49 502.77,-49.53 508.66,-50.11 514.6,-50.71"/>
<polygon fill="#9a32cd" stroke="#9a32cd" points="388.52,-36.71 378.3,-39.49 388.02,-43.69 388.52,-36.71"/>
</a>
</g>
<text xml:space="preserve" text-anchor="start" x="407.05" y="-54.5" font-family="Helvetica,sans-Serif" font-size="10.00" fill="grey">app_command_ids_</text>
</g>
<!-- Node6&#45;&gt;Node5 -->
<g id="edge5_Node000005_Node000006" class="edge">
<title>Node6&#45;&gt;Node5</title>
<g id="a_edge5_Node000005_Node000006"><a xlink:title=" ">
<path fill="none" stroke="#63b8ff" d="M205.18,-27.37C217.56,-28.28 230.36,-29.23 242.55,-30.12"/>
<polygon fill="#63b8ff" stroke="#63b8ff" points="205.69,-23.9 195.46,-26.66 205.18,-30.88 205.69,-23.9"/>
</a>
</g>
</g>
</g>
</svg>
