<?xml version="1.0" encoding="UTF-8" standalone="no"?>
<!DOCTYPE svg PUBLIC "-//W3C//DTD SVG 1.1//EN"
 "http://www.w3.org/Graphics/SVG/1.1/DTD/svg11.dtd">
<!-- Generated by graphviz version 14.1.2 (20260124.0452)
 -->
<!-- Title: depicture_menu::debug_interface_impl::debug_interface_impl Pages: 1 -->
<svg width="291pt" height="214pt"
 viewBox="0.00 0.00 291.00 214.00" xmlns="http://www.w3.org/2000/svg" xmlns:xlink="http://www.w3.org/1999/xlink">
<g id="graph0" class="graph" transform="scale(1 1) rotate(0) translate(4 210)">
<title>depicture_menu::debug_interface_impl::debug_interface_impl</title>
<!-- Node1 -->
<g id="Node000001" class="node">
<title>Node1</title>
<g id="a_Node000001"><a xlink:title=" ">
<polygon fill="#999999" stroke="#666666" points="282.5,-116 165.25,-116 165.25,-72 282.5,-72 282.5,-116"/>
<text xml:space="preserve" text-anchor="start" x="173.25" y="-102.5" font-family="Helvetica,sans-Serif" font-size="10.00">depicture_menu::debug</text>
<text xml:space="preserve" text-anchor="start" x="173.25" y="-90.5" font-family="Helvetica,sans-Serif" font-size="10.00">_interface_impl::debug</text>
<text xml:space="preserve" text-anchor="middle" x="223.88" y="-78.5" font-family="Helvetica,sans-Serif" font-size="10.00">_interface_impl</text>
</a>
</g>
</g>
<!-- Node2 -->
<g id="Node000002" class="node">
<title>Node2</title>
<g id="a_Node000002"><a xlink:href="structdepicture__menu_1_1debug__interface__impl.html#a16bf0273d30a447e390046b4f7f7f4a9" target="_top" xlink:title=" ">
<polygon fill="white" stroke="#666666" points="123.25,-206 6,-206 6,-162 123.25,-162 123.25,-206"/>
<text xml:space="preserve" text-anchor="start" x="14" y="-192.5" font-family="Helvetica,sans-Serif" font-size="10.00">depicture_menu::debug</text>
<text xml:space="preserve" text-anchor="start" x="14" y="-180.5" font-family="Helvetica,sans-Serif" font-size="10.00">_interface_impl::debug</text>
<text xml:space="preserve" text-anchor="middle" x="64.62" y="-168.5" font-family="Helvetica,sans-Serif" font-size="10.00">_interface_impl</text>
</a>
</g>
</g>
<!-- Node1&#45;&gt;Node2 -->
<g id="edge1_Node000001_Node000002" class="edge">
<title>Node1&#45;&gt;Node2</title>
<g id="a_edge1_Node000001_Node000002"><a xlink:title=" ">
<path fill="none" stroke="#63b8ff" d="M179.74,-122.56C164.07,-132.57 146.07,-143.64 129.25,-153 124.1,-155.87 118.64,-158.75 113.17,-161.54"/>
<polygon fill="#63b8ff" stroke="#63b8ff" points="181.39,-125.66 187.9,-117.31 177.6,-119.78 181.39,-125.66"/>
</a>
</g>
</g>
<!-- Node3 -->
<g id="Node000003" class="node">
<title>Node3</title>
<g id="a_Node000003"><a xlink:href="structdepicture__menu_1_1debug__interface__impl.html#a875e8f1ceb8499c3d0398e8500793f00" target="_top" xlink:title=" ">
<polygon fill="white" stroke="#666666" points="123.25,-144 6,-144 6,-100 123.25,-100 123.25,-144"/>
<text xml:space="preserve" text-anchor="start" x="14" y="-130.5" font-family="Helvetica,sans-Serif" font-size="10.00">depicture_menu::debug</text>
<text xml:space="preserve" text-anchor="start" x="14" y="-118.5" font-family="Helvetica,sans-Serif" font-size="10.00">_interface_impl::debug</text>
<text xml:space="preserve" text-anchor="middle" x="64.62" y="-106.5" font-family="Helvetica,sans-Serif" font-size="10.00">_interface_impl</text>
</a>
</g>
</g>
<!-- Node1&#45;&gt;Node3 -->
<g id="edge2_Node000001_Node000003" class="edge">
<title>Node1&#45;&gt;Node3</title>
<g id="a_edge2_Node000001_Node000003"><a xlink:title=" ">
<path fill="none" stroke="#63b8ff" d="M153.56,-106.34C143.52,-108.13 133.28,-109.95 123.49,-111.7"/>
<polygon fill="#63b8ff" stroke="#63b8ff" points="154.05,-109.81 163.28,-104.61 152.82,-102.92 154.05,-109.81"/>
</a>
</g>
</g>
<!-- Node4 -->
<g id="Node000004" class="node">
<title>Node4</title>
<g id="a_Node000004"><a xlink:href="structdepicture__menu_1_1debug__interface__impl.html#a3a0105022b2f8c8a082888b7d75b1961" target="_top" xlink:title=" ">
<polygon fill="white" stroke="#666666" points="129.25,-82 0,-82 0,-50 129.25,-50 129.25,-82"/>
<text xml:space="preserve" text-anchor="start" x="8" y="-68.5" font-family="Helvetica,sans-Serif" font-size="10.00">depicture_menu::debug</text>
<text xml:space="preserve" text-anchor="middle" x="64.62" y="-56.5" font-family="Helvetica,sans-Serif" font-size="10.00">_interface_impl::operator=</text>
</a>
</g>
</g>
<!-- Node1&#45;&gt;Node4 -->
<g id="edge3_Node000001_Node000004" class="edge">
<title>Node1&#45;&gt;Node4</title>
<g id="a_edge3_Node000001_Node000004"><a xlink:title=" ">
<path fill="none" stroke="#63b8ff" d="M153.6,-81.66C145.61,-80.24 137.49,-78.8 129.58,-77.39"/>
<polygon fill="#63b8ff" stroke="#63b8ff" points="152.82,-85.08 163.28,-83.39 154.05,-78.19 152.82,-85.08"/>
</a>
</g>
</g>
<!-- Node5 -->
<g id="Node000005" class="node">
<title>Node5</title>
<g id="a_Node000005"><a xlink:href="structdepicture__menu_1_1debug__interface__impl.html#ae863e9f9c2c2aaf122f94ec54f9587e8" target="_top" xlink:title=" ">
<polygon fill="white" stroke="#666666" points="129.25,-32 0,-32 0,0 129.25,0 129.25,-32"/>
<text xml:space="preserve" text-anchor="start" x="8" y="-18.5" font-family="Helvetica,sans-Serif" font-size="10.00">depicture_menu::debug</text>
<text xml:space="preserve" text-anchor="middle" x="64.62" y="-6.5" font-family="Helvetica,sans-Serif" font-size="10.00">_interface_impl::operator=</text>
</a>
</g>
</g>
<!-- Node1&#45;&gt;Node5 -->
<g id="edge4_Node000001_Node000005" class="edge">
<title>Node1&#45;&gt;Node5</title>
<g id="a_edge4_Node000001_Node000005"><a xlink:title=" ">
<path fill="none" stroke="#63b8ff" d="M176.23,-65.89C161.44,-57.44 144.87,-48.44 129.25,-41 123.04,-38.04 116.37,-35.14 109.78,-32.42"/>
<polygon fill="#63b8ff" stroke="#63b8ff" points="174.44,-68.89 184.84,-70.87 177.94,-62.83 174.44,-68.89"/>
</a>
</g>
</g>
</g>
</svg>
