<?xml version="1.0" encoding="UTF-8" standalone="no"?>
<!DOCTYPE svg PUBLIC "-//W3C//DTD SVG 1.1//EN"
 "http://www.w3.org/Graphics/SVG/1.1/DTD/svg11.dtd">
<!-- Generated by graphviz version 14.1.2 (20260124.0452)
 -->
<!-- Title: test_repository&lt; T &gt; Pages: 1 -->
<svg width="641pt" height="90pt"
 viewBox="0.00 0.00 641.00 90.00" xmlns="http://www.w3.org/2000/svg" xmlns:xlink="http://www.w3.org/1999/xlink">
<g id="graph0" class="graph" transform="scale(1 1) rotate(0) translate(4 86)">
<title>test_repository&lt; T &gt;</title>
<!-- Node1 -->
<g id="Node000001" class="node">
<title>Node1</title>
<g id="a_Node000001"><a xlink:title="@TODO invalid test">
<polygon fill="#999999" stroke="#666666" points="633.25,-51 529.5,-51 529.5,-31 633.25,-31 633.25,-51"/>
<text xml:space="preserve" text-anchor="middle" x="581.38" y="-37.5" font-family="Helvetica,sans-Serif" font-size="10.00">test_repository&lt; T &gt;</text>
</a>
</g>
</g>
<!-- Node2 -->
<g id="Node000002" class="node">
<title>Node2</title>
<g id="a_Node000002"><a xlink:href="classdepicture__menu_1_1repositories_1_1on__memory__repository.html" target="_top" xlink:title=" ">
<polygon fill="white" stroke="#666666" points="493.5,-57 349.25,-57 349.25,-25 493.5,-25 493.5,-57"/>
<text xml:space="preserve" text-anchor="start" x="357.25" y="-43.5" font-family="Helvetica,sans-Serif" font-size="10.00">depicture_menu::repositories</text>
<text xml:space="preserve" text-anchor="middle" x="421.38" y="-31.5" font-family="Helvetica,sans-Serif" font-size="10.00">::on_memory_repository&lt; T &gt;</text>
</a>
</g>
</g>
<!-- Node2&#45;&gt;Node1 -->
<g id="edge1_Node000001_Node000002" class="edge">
<title>Node2&#45;&gt;Node1</title>
<g id="a_edge1_Node000001_Node000002"><a xlink:title=" ">
<path fill="none" stroke="#63b8ff" d="M505.47,-41C513.59,-41 521.66,-41 529.32,-41"/>
<polygon fill="#63b8ff" stroke="#63b8ff" points="505.49,-37.5 495.49,-41 505.49,-44.5 505.49,-37.5"/>
</a>
</g>
</g>
<!-- Node3 -->
<g id="Node000003" class="node">
<title>Node3</title>
<g id="a_Node000003"><a xlink:href="classdepicture__menu_1_1repositories_1_1serialization__interface.html" target="_top" xlink:title=" ">
<polygon fill="white" stroke="#666666" points="306.5,-82 165.25,-82 165.25,-50 306.5,-50 306.5,-82"/>
<text xml:space="preserve" text-anchor="start" x="173.25" y="-68.5" font-family="Helvetica,sans-Serif" font-size="10.00">depicture_menu::repositories</text>
<text xml:space="preserve" text-anchor="middle" x="235.88" y="-56.5" font-family="Helvetica,sans-Serif" font-size="10.00">::serialization_interface&lt; T &gt;</text>
</a>
</g>
</g>
<!-- Node3&#45;&gt;Node2 -->
<g id="edge2_Node000002_Node000003" class="edge">
<title>Node3&#45;&gt;Node2</title>
<g id="a_edge2_Node000002_Node000003"><a xlink:title=" ">
<path fill="none" stroke="#63b8ff" d="M317.87,-54.97C328.19,-53.56 338.69,-52.13 348.85,-50.75"/>
<polygon fill="#63b8ff" stroke="#63b8ff" points="317.71,-51.45 308.27,-56.27 318.65,-58.39 317.71,-51.45"/>
</a>
</g>
</g>
<!-- Node4 -->
<g id="Node000004" class="node">
<title>Node4</title>
<g id="a_Node000004"><a xlink:href="classdepicture__menu_1_1domain_1_1crud__repository__interface.html" target="_top" xlink:title=" ">
<polygon fill="white" stroke="#666666" points="313.25,-32 158.5,-32 158.5,0 313.25,0 313.25,-32"/>
<text xml:space="preserve" text-anchor="start" x="166.5" y="-18.5" font-family="Helvetica,sans-Serif" font-size="10.00">depicture_menu::domain</text>
<text xml:space="preserve" text-anchor="middle" x="235.88" y="-6.5" font-family="Helvetica,sans-Serif" font-size="10.00">::crud_repository_interface&lt; T &gt;</text>
</a>
</g>
</g>
<!-- Node4&#45;&gt;Node2 -->
<g id="edge3_Node000002_Node000004" class="edge">
<title>Node4&#45;&gt;Node2</title>
<g id="a_edge3_Node000002_Node000004"><a xlink:title=" ">
<path fill="none" stroke="#63b8ff" d="M324.94,-28C332.97,-29.09 341.05,-30.19 348.91,-31.26"/>
<polygon fill="#63b8ff" stroke="#63b8ff" points="325.51,-24.54 315.13,-26.66 324.57,-31.48 325.51,-24.54"/>
</a>
</g>
</g>
<!-- Node5 -->
<g id="Node000005" class="node">
<title>Node5</title>
<g id="a_Node000005"><a xlink:href="classdepicture__menu_1_1domain_1_1query__interface.html" target="_top" xlink:title=" ">
<polygon fill="white" stroke="#666666" points="122.5,-32 0,-32 0,0 122.5,0 122.5,-32"/>
<text xml:space="preserve" text-anchor="start" x="8" y="-18.5" font-family="Helvetica,sans-Serif" font-size="10.00">depicture_menu::domain</text>
<text xml:space="preserve" text-anchor="middle" x="61.25" y="-6.5" font-family="Helvetica,sans-Serif" font-size="10.00">::query_interface&lt; T &gt;</text>
</a>
</g>
</g>
<!-- Node5&#45;&gt;Node4 -->
<g id="edge4_Node000004_Node000005" class="edge">
<title>Node5&#45;&gt;Node4</title>
<g id="a_edge4_Node000004_Node000005"><a xlink:title=" ">
<path fill="none" stroke="#63b8ff" d="M134.1,-16C142.04,-16 150.15,-16 158.15,-16"/>
<polygon fill="#63b8ff" stroke="#63b8ff" points="134.14,-12.5 124.14,-16 134.14,-19.5 134.14,-12.5"/>
</a>
</g>
</g>
</g>
</svg>
