<?xml version="1.0" encoding="UTF-8" standalone="no"?>
<!DOCTYPE svg PUBLIC "-//W3C//DTD SVG 1.1//EN"
 "http://www.w3.org/Graphics/SVG/1.1/DTD/svg11.dtd">
<!-- Generated by graphviz version 14.1.2 (20260124.0452)
 -->
<!-- Title: depicture_menu::domain::menu::radialmenu::add_item Pages: 1 -->
<svg width="536pt" height="205pt"
 viewBox="0.00 0.00 536.00 205.00" xmlns="http://www.w3.org/2000/svg" xmlns:xlink="http://www.w3.org/1999/xlink">
<g id="graph0" class="graph" transform="scale(1 1) rotate(0) translate(4 201)">
<title>depicture_menu::domain::menu::radialmenu::add_item</title>
<!-- Node1 -->
<g id="Node000001" class="node">
<title>Node1</title>
<g id="a_Node000001"><a xlink:title=" ">
<polygon fill="#999999" stroke="#666666" points="528,-127 383,-127 383,-95 528,-95 528,-127"/>
<text xml:space="preserve" text-anchor="start" x="391" y="-113.5" font-family="Helvetica,sans-Serif" font-size="10.00">depicture_menu::domain</text>
<text xml:space="preserve" text-anchor="middle" x="455.5" y="-101.5" font-family="Helvetica,sans-Serif" font-size="10.00">::menu::radialmenu::add_item</text>
</a>
</g>
</g>
<!-- Node2 -->
<g id="Node000002" class="node">
<title>Node2</title>
<g id="a_Node000002"><a xlink:href="_test_radial_menu_8cpp.html#a77543dad153f0f82871ff9f93cf9fb46" target="_top" xlink:title="get_item_id : TestCase">
<polygon fill="white" stroke="#666666" points="338.75,-197 191.5,-197 191.5,-177 338.75,-177 338.75,-197"/>
<text xml:space="preserve" text-anchor="middle" x="265.12" y="-183.5" font-family="Helvetica,sans-Serif" font-size="10.00">BOOST_AUTO_TEST_CASE</text>
</a>
</g>
</g>
<!-- Node1&#45;&gt;Node2 -->
<g id="edge1_Node000001_Node000002" class="edge">
<title>Node1&#45;&gt;Node2</title>
<g id="a_edge1_Node000001_Node000002"><a xlink:title=" ">
<path fill="none" stroke="#63b8ff" d="M418.65,-133C398.25,-144.75 371.87,-158.66 347,-168 338.22,-171.3 328.69,-174.14 319.35,-176.56"/>
<polygon fill="#63b8ff" stroke="#63b8ff" points="420.27,-136.1 427.13,-128.03 416.74,-130.06 420.27,-136.1"/>
</a>
</g>
</g>
<!-- Node3 -->
<g id="Node000003" class="node">
<title>Node3</title>
<g id="a_Node000003"><a xlink:href="_test_radial_menu_8cpp.html#acd31416e79e36d3d50ba1ea03b7bdd55" target="_top" xlink:title="get_item_action_id : TestCase">
<polygon fill="white" stroke="#666666" points="338.75,-159 191.5,-159 191.5,-139 338.75,-139 338.75,-159"/>
<text xml:space="preserve" text-anchor="middle" x="265.12" y="-145.5" font-family="Helvetica,sans-Serif" font-size="10.00">BOOST_AUTO_TEST_CASE</text>
</a>
</g>
</g>
<!-- Node1&#45;&gt;Node3 -->
<g id="edge2_Node000001_Node000003" class="edge">
<title>Node1&#45;&gt;Node3</title>
<g id="a_edge2_Node000001_Node000003"><a xlink:title=" ">
<path fill="none" stroke="#63b8ff" d="M371.53,-127.74C353.35,-131.4 334.61,-135.19 318.06,-138.52"/>
<polygon fill="#63b8ff" stroke="#63b8ff" points="372.15,-131.18 381.26,-125.77 370.77,-124.32 372.15,-131.18"/>
</a>
</g>
</g>
<!-- Node4 -->
<g id="Node000004" class="node">
<title>Node4</title>
<g id="a_Node000004"><a xlink:href="test__config__view_8cpp.html#a1702d8786d91383fdec011242489ce16" target="_top" xlink:title="menu : TestCase">
<polygon fill="white" stroke="#666666" points="338.75,-121 191.5,-121 191.5,-101 338.75,-101 338.75,-121"/>
<text xml:space="preserve" text-anchor="middle" x="265.12" y="-107.5" font-family="Helvetica,sans-Serif" font-size="10.00">BOOST_AUTO_TEST_CASE</text>
</a>
</g>
</g>
<!-- Node1&#45;&gt;Node4 -->
<g id="edge3_Node000001_Node000004" class="edge">
<title>Node1&#45;&gt;Node4</title>
<g id="a_edge3_Node000001_Node000004"><a xlink:title=" ">
<path fill="none" stroke="#63b8ff" d="M371.27,-111C360.6,-111 349.73,-111 339.24,-111"/>
<polygon fill="#63b8ff" stroke="#63b8ff" points="371.23,-114.5 381.23,-111 371.23,-107.5 371.23,-114.5"/>
</a>
</g>
</g>
<!-- Node5 -->
<g id="Node000005" class="node">
<title>Node5</title>
<g id="a_Node000005"><a xlink:href="test__config__view_8cpp.html#a17983e3c0af3765e662b04901c8f2937" target="_top" xlink:title="no_update : TestCase">
<polygon fill="white" stroke="#666666" points="338.75,-83 191.5,-83 191.5,-63 338.75,-63 338.75,-83"/>
<text xml:space="preserve" text-anchor="middle" x="265.12" y="-69.5" font-family="Helvetica,sans-Serif" font-size="10.00">BOOST_AUTO_TEST_CASE</text>
</a>
</g>
</g>
<!-- Node1&#45;&gt;Node5 -->
<g id="edge4_Node000001_Node000005" class="edge">
<title>Node1&#45;&gt;Node5</title>
<g id="a_edge4_Node000001_Node000005"><a xlink:title=" ">
<path fill="none" stroke="#63b8ff" d="M371.53,-94.26C353.35,-90.6 334.61,-86.81 318.06,-83.48"/>
<polygon fill="#63b8ff" stroke="#63b8ff" points="370.77,-97.68 381.26,-96.23 372.15,-90.82 370.77,-97.68"/>
</a>
</g>
</g>
<!-- Node6 -->
<g id="Node000006" class="node">
<title>Node6</title>
<g id="a_Node000006"><a xlink:href="structdepicture__menu_1_1domain_1_1menu_1_1radialmenu.html#ad9f4f8e242b494a7d885271949e4bca3" target="_top" xlink:title="デフォルトメニュー">
<polygon fill="white" stroke="#666666" points="347,-45 183.25,-45 183.25,-13 347,-13 347,-45"/>
<text xml:space="preserve" text-anchor="start" x="191.25" y="-31.5" font-family="Helvetica,sans-Serif" font-size="10.00">depicture_menu::domain</text>
<text xml:space="preserve" text-anchor="middle" x="265.12" y="-19.5" font-family="Helvetica,sans-Serif" font-size="10.00">::menu::radialmenu::default_menu</text>
</a>
</g>
</g>
<!-- Node1&#45;&gt;Node6 -->
<g id="edge5_Node000001_Node000006" class="edge">
<title>Node1&#45;&gt;Node6</title>
<g id="a_edge5_Node000001_Node000006"><a xlink:title=" ">
<path fill="none" stroke="#63b8ff" d="M417.13,-88.95C396.83,-77.56 371.03,-63.98 347,-54 339.67,-50.96 331.84,-48.08 324.03,-45.45"/>
<polygon fill="#63b8ff" stroke="#63b8ff" points="415.17,-91.87 425.59,-93.77 418.63,-85.78 415.17,-91.87"/>
</a>
</g>
</g>
<!-- Node7 -->
<g id="Node000007" class="node">
<title>Node7</title>
<g id="a_Node000007"><a xlink:href="deploy__default__setting_8cpp.html#a638e25877528b95de44e4fcd07a8c45a" target="_top" xlink:title=" ">
<polygon fill="white" stroke="#666666" points="121.38,-58 25.88,-58 25.88,-38 121.38,-38 121.38,-58"/>
<text xml:space="preserve" text-anchor="middle" x="73.62" y="-44.5" font-family="Helvetica,sans-Serif" font-size="10.00">add_default_menu</text>
</a>
</g>
</g>
<!-- Node6&#45;&gt;Node7 -->
<g id="edge6_Node000006_Node000007" class="edge">
<title>Node6&#45;&gt;Node7</title>
<g id="a_edge6_Node000006_Node000007"><a xlink:title=" ">
<path fill="none" stroke="#63b8ff" d="M171.61,-38.28C154.31,-40.01 136.92,-41.75 121.73,-43.28"/>
<polygon fill="#63b8ff" stroke="#63b8ff" points="171.83,-41.77 181.43,-37.29 171.13,-34.81 171.83,-41.77"/>
</a>
</g>
</g>
<!-- Node8 -->
<g id="Node000008" class="node">
<title>Node8</title>
<g id="a_Node000008"><a xlink:href="_test_menu_view_presenter_8cpp.html#ae923463343707b4e44092d1eac37d2d9" target="_top" xlink:title=" ">
<polygon fill="white" stroke="#666666" points="147.25,-20 0,-20 0,0 147.25,0 147.25,-20"/>
<text xml:space="preserve" text-anchor="middle" x="73.62" y="-6.5" font-family="Helvetica,sans-Serif" font-size="10.00">BOOST_AUTO_TEST_CASE</text>
</a>
</g>
</g>
<!-- Node6&#45;&gt;Node8 -->
<g id="edge7_Node000006_Node000008" class="edge">
<title>Node6&#45;&gt;Node8</title>
<g id="a_edge7_Node000006_Node000008"><a xlink:title=" ">
<path fill="none" stroke="#63b8ff" d="M171.58,-19.72C163.52,-18.91 155.44,-18.1 147.57,-17.31"/>
<polygon fill="#63b8ff" stroke="#63b8ff" points="171.13,-23.19 181.43,-20.71 171.83,-16.23 171.13,-23.19"/>
</a>
</g>
</g>
</g>
</svg>
