<?xml version="1.0" encoding="UTF-8" standalone="no"?>
<!DOCTYPE svg PUBLIC "-//W3C//DTD SVG 1.1//EN"
 "http://www.w3.org/Graphics/SVG/1.1/DTD/svg11.dtd">
<!-- Generated by graphviz version 14.1.2 (20260124.0452)
 -->
<!-- Title: depicture_menu::cs_binding::observer::prop_map::collection_notify_handler::operator() Pages: 1 -->
<svg width="996pt" height="268pt"
 viewBox="0.00 0.00 996.00 268.00" xmlns="http://www.w3.org/2000/svg" xmlns:xlink="http://www.w3.org/1999/xlink">
<g id="graph0" class="graph" transform="scale(1 1) rotate(0) translate(4 263.93)">
<title>depicture_menu::cs_binding::observer::prop_map::collection_notify_handler::operator()</title>
<!-- Node1 -->
<g id="Node000001" class="node">
<title>Node1</title>
<g id="a_Node000001"><a xlink:title=" ">
<polygon fill="#999999" stroke="#666666" points="129.25,-175.93 0,-175.93 0,-119.93 129.25,-119.93 129.25,-175.93"/>
<text xml:space="preserve" text-anchor="start" x="8" y="-162.43" font-family="Helvetica,sans-Serif" font-size="10.00">depicture_menu::cs</text>
<text xml:space="preserve" text-anchor="start" x="8" y="-150.43" font-family="Helvetica,sans-Serif" font-size="10.00">_binding::observer::</text>
<text xml:space="preserve" text-anchor="start" x="8" y="-138.43" font-family="Helvetica,sans-Serif" font-size="10.00">prop_map::collection</text>
<text xml:space="preserve" text-anchor="middle" x="64.62" y="-126.43" font-family="Helvetica,sans-Serif" font-size="10.00">_notify_handler::operator()</text>
</a>
</g>
</g>
<!-- Node2 -->
<g id="Node000002" class="node">
<title>Node2</title>
<g id="a_Node000002"><a xlink:href="structdepicture__menu_1_1cs__binding_1_1observer_1_1prop__map_1_1collection__notify__handler.html#af52a47a4fa9fe9fbac5ad58e73060a9b" target="_top" xlink:title=" ">
<polygon fill="white" stroke="#666666" points="297.5,-243.93 168.25,-243.93 168.25,-175.93 297.5,-175.93 297.5,-243.93"/>
<text xml:space="preserve" text-anchor="start" x="176.25" y="-230.43" font-family="Helvetica,sans-Serif" font-size="10.00">depicture_menu::cs</text>
<text xml:space="preserve" text-anchor="start" x="176.25" y="-218.43" font-family="Helvetica,sans-Serif" font-size="10.00">_binding::observer::</text>
<text xml:space="preserve" text-anchor="start" x="176.25" y="-206.43" font-family="Helvetica,sans-Serif" font-size="10.00">prop_map::collection</text>
<text xml:space="preserve" text-anchor="start" x="176.25" y="-194.43" font-family="Helvetica,sans-Serif" font-size="10.00">_notify_handler::collection</text>
<text xml:space="preserve" text-anchor="middle" x="232.88" y="-182.43" font-family="Helvetica,sans-Serif" font-size="10.00">_notify_handler</text>
</a>
</g>
</g>
<!-- Node1&#45;&gt;Node2 -->
<g id="edge1_Node000001_Node000002" class="edge">
<title>Node1&#45;&gt;Node2</title>
<g id="a_edge1_Node000001_Node000002"><a xlink:title=" ">
<path fill="none" stroke="#63b8ff" d="M129.43,-171.73C138.51,-175.11 147.92,-178.62 157.18,-182.08"/>
<polygon fill="#63b8ff" stroke="#63b8ff" points="155.96,-185.36 166.55,-185.57 158.41,-178.8 155.96,-185.36"/>
</a>
</g>
</g>
<!-- Node3 -->
<g id="Node000003" class="node">
<title>Node3</title>
<g id="a_Node000003"><a xlink:href="namespacedepicture__menu_1_1cs__binding_1_1observer_1_1prop__map.html#a4977dda3704b40a288110e2a96ce7abe" target="_top" xlink:title=" ">
<polygon fill="white" stroke="#666666" points="300.5,-101.93 165.25,-101.93 165.25,-45.93 300.5,-45.93 300.5,-101.93"/>
<text xml:space="preserve" text-anchor="start" x="173.25" y="-88.43" font-family="Helvetica,sans-Serif" font-size="10.00">depicture_menu::cs</text>
<text xml:space="preserve" text-anchor="start" x="173.25" y="-76.43" font-family="Helvetica,sans-Serif" font-size="10.00">_binding::observer::</text>
<text xml:space="preserve" text-anchor="start" x="173.25" y="-64.43" font-family="Helvetica,sans-Serif" font-size="10.00">prop_map::regist_collection</text>
<text xml:space="preserve" text-anchor="middle" x="232.88" y="-52.43" font-family="Helvetica,sans-Serif" font-size="10.00">_observer</text>
</a>
</g>
</g>
<!-- Node1&#45;&gt;Node3 -->
<g id="edge2_Node000001_Node000003" class="edge">
<title>Node1&#45;&gt;Node3</title>
<g id="a_edge2_Node000001_Node000003"><a xlink:title=" ">
<path fill="none" stroke="#63b8ff" d="M129.43,-119.53C138.61,-115.45 148.12,-111.21 157.49,-107.04"/>
<polygon fill="#63b8ff" stroke="#63b8ff" points="158.87,-110.26 166.59,-102.99 156.03,-103.86 158.87,-110.26"/>
</a>
</g>
</g>
<!-- Node4 -->
<g id="Node000004" class="node">
<title>Node4</title>
<g id="a_Node000004"><a xlink:href="namespacedepicture__menu_1_1cs__binding_1_1observer_1_1prop__map.html#a7d9c0a928565c78a74f261b635d8e841" target="_top" xlink:title=" ">
<polygon fill="white" stroke="#666666" points="468,-172.93 336.5,-172.93 336.5,-116.93 468,-116.93 468,-172.93"/>
<text xml:space="preserve" text-anchor="start" x="344.5" y="-159.43" font-family="Helvetica,sans-Serif" font-size="10.00">depicture_menu::cs</text>
<text xml:space="preserve" text-anchor="start" x="344.5" y="-147.43" font-family="Helvetica,sans-Serif" font-size="10.00">_binding::observer::</text>
<text xml:space="preserve" text-anchor="start" x="344.5" y="-135.43" font-family="Helvetica,sans-Serif" font-size="10.00">prop_map::regist_observer</text>
<text xml:space="preserve" text-anchor="middle" x="402.25" y="-123.43" font-family="Helvetica,sans-Serif" font-size="10.00">_to_object_tree</text>
</a>
</g>
</g>
<!-- Node1&#45;&gt;Node4 -->
<g id="edge18_Node000001_Node000004" class="edge">
<title>Node1&#45;&gt;Node4</title>
<g id="a_edge18_Node000001_Node000004"><a xlink:title=" ">
<path fill="none" stroke="#63b8ff" d="M129.54,-147.36C185.09,-146.87 265.66,-146.15 324.64,-145.62"/>
<polygon fill="#63b8ff" stroke="#63b8ff" points="324.66,-149.12 334.63,-145.53 324.59,-142.12 324.66,-149.12"/>
</a>
</g>
</g>
<!-- Node3&#45;&gt;Node3 -->
<g id="edge3_Node000003_Node000003" class="edge">
<title>Node3&#45;&gt;Node3</title>
<g id="a_edge3_Node000003_Node000003"><a xlink:title=" ">
<path fill="none" stroke="#63b8ff" d="M201.34,-102.23C201,-112.03 211.52,-119.93 232.88,-119.93 245.89,-119.93 254.88,-117 259.84,-112.49"/>
<polygon fill="#63b8ff" stroke="#63b8ff" points="262.92,-114.17 263.8,-103.61 256.53,-111.32 262.92,-114.17"/>
</a>
</g>
</g>
<!-- Node3&#45;&gt;Node4 -->
<g id="edge4_Node000003_Node000004" class="edge">
<title>Node3&#45;&gt;Node4</title>
<g id="a_edge4_Node000003_Node000004"><a xlink:title=" ">
<path fill="none" stroke="#63b8ff" d="M300.99,-102.4C309.11,-105.85 317.45,-109.38 325.68,-112.88"/>
<polygon fill="#63b8ff" stroke="#63b8ff" points="324.06,-115.99 334.63,-116.67 326.79,-109.55 324.06,-115.99"/>
</a>
</g>
</g>
<!-- Node11 -->
<g id="Node000011" class="node">
<title>Node11</title>
<g id="a_Node000011"><a xlink:href="namespacedepicture__menu_1_1cs__binding_1_1entry__map.html#a333f1f18553348617b360faecda40a5e" target="_top" xlink:title=" ">
<polygon fill="white" stroke="#666666" points="454.12,-95.93 350.38,-95.93 350.38,-51.93 454.12,-51.93 454.12,-95.93"/>
<text xml:space="preserve" text-anchor="start" x="358.38" y="-82.43" font-family="Helvetica,sans-Serif" font-size="10.00">depicture_menu::cs</text>
<text xml:space="preserve" text-anchor="start" x="358.38" y="-70.43" font-family="Helvetica,sans-Serif" font-size="10.00">_binding::entry_map</text>
<text xml:space="preserve" text-anchor="middle" x="402.25" y="-58.43" font-family="Helvetica,sans-Serif" font-size="10.00">::visit_collections</text>
</a>
</g>
</g>
<!-- Node3&#45;&gt;Node11 -->
<g id="edge12_Node000003_Node000011" class="edge">
<title>Node3&#45;&gt;Node11</title>
<g id="a_edge12_Node000003_Node000011"><a xlink:title=" ">
<path fill="none" stroke="#63b8ff" d="M300.99,-73.93C313.52,-73.93 326.57,-73.93 338.95,-73.93"/>
<polygon fill="#63b8ff" stroke="#63b8ff" points="338.59,-77.43 348.59,-73.93 338.59,-70.43 338.59,-77.43"/>
</a>
</g>
</g>
<!-- Node5 -->
<g id="Node000005" class="node">
<title>Node5</title>
<g id="a_Node000005"><a xlink:href="namespacedepicture__menu_1_1cs__binding_1_1entry__map.html#a678807ade900ee92982e7a7b1ec10acc" target="_top" xlink:title=" ">
<polygon fill="white" stroke="#666666" points="622,-166.93 518.25,-166.93 518.25,-122.93 622,-122.93 622,-166.93"/>
<text xml:space="preserve" text-anchor="start" x="526.25" y="-153.43" font-family="Helvetica,sans-Serif" font-size="10.00">depicture_menu::cs</text>
<text xml:space="preserve" text-anchor="start" x="526.25" y="-141.43" font-family="Helvetica,sans-Serif" font-size="10.00">_binding::entry_map</text>
<text xml:space="preserve" text-anchor="middle" x="570.12" y="-129.43" font-family="Helvetica,sans-Serif" font-size="10.00">::visit_object_tree</text>
</a>
</g>
</g>
<!-- Node4&#45;&gt;Node5 -->
<g id="edge5_Node000004_Node000005" class="edge">
<title>Node4&#45;&gt;Node5</title>
<g id="a_edge5_Node000004_Node000005"><a xlink:title=" ">
<path fill="none" stroke="#63b8ff" d="M468.33,-144.93C480.91,-144.93 494.06,-144.93 506.56,-144.93"/>
<polygon fill="#63b8ff" stroke="#63b8ff" points="506.3,-148.43 516.3,-144.93 506.3,-141.43 506.3,-148.43"/>
</a>
</g>
</g>
<!-- Node6 -->
<g id="Node000006" class="node">
<title>Node6</title>
<g id="a_Node000006"><a xlink:href="namespacedepicture__menu_1_1cs__binding_1_1entry__map.html#ad33c5321ecf167ad9f3c5e9baeee4d07" target="_top" xlink:title=" ">
<polygon fill="white" stroke="#666666" points="803.75,-172.93 679,-172.93 679,-116.93 803.75,-116.93 803.75,-172.93"/>
<text xml:space="preserve" text-anchor="start" x="687" y="-159.43" font-family="Helvetica,sans-Serif" font-size="10.00">depicture_menu::cs</text>
<text xml:space="preserve" text-anchor="start" x="687" y="-147.43" font-family="Helvetica,sans-Serif" font-size="10.00">_binding::entry_map</text>
<text xml:space="preserve" text-anchor="start" x="687" y="-135.43" font-family="Helvetica,sans-Serif" font-size="10.00">::get_sub_class_acceser</text>
<text xml:space="preserve" text-anchor="middle" x="741.38" y="-123.43" font-family="Helvetica,sans-Serif" font-size="10.00">_chain_entries</text>
</a>
</g>
</g>
<!-- Node5&#45;&gt;Node6 -->
<g id="edge6_Node000005_Node000006" class="edge">
<title>Node5&#45;&gt;Node6</title>
<g id="a_edge6_Node000005_Node000006"><a xlink:title=" ">
<path fill="none" stroke="#63b8ff" d="M622.36,-144.93C636.48,-144.93 652.06,-144.93 667.15,-144.93"/>
<polygon fill="#63b8ff" stroke="#63b8ff" points="667.05,-148.43 677.05,-144.93 667.05,-141.43 667.05,-148.43"/>
</a>
</g>
</g>
<!-- Node6&#45;&gt;Node6 -->
<g id="edge7_Node000006_Node000006" class="edge">
<title>Node6&#45;&gt;Node6</title>
<g id="a_edge7_Node000006_Node000006"><a xlink:title=" ">
<path fill="none" stroke="#63b8ff" d="M709.27,-173.23C708.93,-183.03 719.63,-190.93 741.38,-190.93 754.62,-190.93 763.77,-188 768.82,-183.49"/>
<polygon fill="#63b8ff" stroke="#63b8ff" points="771.9,-185.16 772.85,-174.61 765.53,-182.27 771.9,-185.16"/>
</a>
</g>
</g>
<!-- Node7 -->
<g id="Node000007" class="node">
<title>Node7</title>
<g id="a_Node000007"><a xlink:href="namespacedepicture__menu_1_1cs__binding_1_1entry__map.html#af50a6f76754797a8080b602b3870cb9a" target="_top" xlink:title=" ">
<polygon fill="white" stroke="#666666" points="987.75,-197.93 846.5,-197.93 846.5,-153.93 987.75,-153.93 987.75,-197.93"/>
<text xml:space="preserve" text-anchor="start" x="854.5" y="-184.43" font-family="Helvetica,sans-Serif" font-size="10.00">depicture_menu::cs</text>
<text xml:space="preserve" text-anchor="start" x="854.5" y="-172.43" font-family="Helvetica,sans-Serif" font-size="10.00">_binding::entry_map</text>
<text xml:space="preserve" text-anchor="middle" x="917.12" y="-160.43" font-family="Helvetica,sans-Serif" font-size="10.00">::get_sub_class_entry_maps</text>
</a>
</g>
</g>
<!-- Node6&#45;&gt;Node7 -->
<g id="edge8_Node000006_Node000007" class="edge">
<title>Node6&#45;&gt;Node7</title>
<g id="a_edge8_Node000006_Node000007"><a xlink:title=" ">
<path fill="none" stroke="#63b8ff" d="M804.12,-155.95C814.15,-157.74 824.67,-159.62 835.07,-161.47"/>
<polygon fill="#63b8ff" stroke="#63b8ff" points="834.34,-164.9 844.8,-163.21 835.57,-158.01 834.34,-164.9"/>
</a>
</g>
</g>
<!-- Node8 -->
<g id="Node000008" class="node">
<title>Node8</title>
<g id="a_Node000008"><a xlink:href="namespacedepicture__menu_1_1cs__binding_1_1entry__map_1_1tuple__op.html#aa6b4653e521b35f1be71867fbdc6b3d5" target="_top" xlink:title=" ">
<polygon fill="white" stroke="#666666" points="970.12,-135.93 864.12,-135.93 864.12,-91.93 970.12,-91.93 970.12,-135.93"/>
<text xml:space="preserve" text-anchor="start" x="872.12" y="-122.43" font-family="Helvetica,sans-Serif" font-size="10.00">depicture_menu::cs</text>
<text xml:space="preserve" text-anchor="start" x="872.12" y="-110.43" font-family="Helvetica,sans-Serif" font-size="10.00">_binding::entry_map</text>
<text xml:space="preserve" text-anchor="middle" x="917.12" y="-98.43" font-family="Helvetica,sans-Serif" font-size="10.00">::tuple_op::tuple_join</text>
</a>
</g>
</g>
<!-- Node6&#45;&gt;Node8 -->
<g id="edge9_Node000006_Node000008" class="edge">
<title>Node6&#45;&gt;Node8</title>
<g id="a_edge9_Node000006_Node000008"><a xlink:title=" ">
<path fill="none" stroke="#63b8ff" d="M804.12,-133.92C819.82,-131.12 836.72,-128.1 852.5,-125.28"/>
<polygon fill="#63b8ff" stroke="#63b8ff" points="853.05,-128.74 862.28,-123.54 851.82,-121.85 853.05,-128.74"/>
</a>
</g>
</g>
<!-- Node9 -->
<g id="Node000009" class="node">
<title>Node9</title>
<g id="a_Node000009"><a xlink:href="namespacedepicture__menu_1_1cs__binding_1_1entry__map_1_1tuple__op.html#ab45608cb253d67195236e241b543cc24" target="_top" xlink:title=" ">
<polygon fill="white" stroke="#666666" points="985.5,-259.93 848.75,-259.93 848.75,-215.93 985.5,-215.93 985.5,-259.93"/>
<text xml:space="preserve" text-anchor="start" x="856.75" y="-246.43" font-family="Helvetica,sans-Serif" font-size="10.00">depicture_menu::cs</text>
<text xml:space="preserve" text-anchor="start" x="856.75" y="-234.43" font-family="Helvetica,sans-Serif" font-size="10.00">_binding::entry_map</text>
<text xml:space="preserve" text-anchor="middle" x="917.12" y="-222.43" font-family="Helvetica,sans-Serif" font-size="10.00">::tuple_op::tuple_push_front</text>
</a>
</g>
</g>
<!-- Node6&#45;&gt;Node9 -->
<g id="edge10_Node000006_Node000009" class="edge">
<title>Node6&#45;&gt;Node9</title>
<g id="a_edge10_Node000006_Node000009"><a xlink:title=" ">
<path fill="none" stroke="#63b8ff" d="M787.33,-173.28C805.44,-184.28 826.7,-196.67 846.5,-206.93 848.88,-208.17 851.32,-209.4 853.79,-210.62"/>
<polygon fill="#63b8ff" stroke="#63b8ff" points="852.2,-213.74 862.73,-214.92 855.24,-207.43 852.2,-213.74"/>
</a>
</g>
</g>
<!-- Node10 -->
<g id="Node000010" class="node">
<title>Node10</title>
<g id="a_Node000010"><a xlink:href="namespacedepicture__menu_1_1cs__binding_1_1entry__map_1_1tuple__op.html#a72d4298d92def76da21b1bc8c931fb6e" target="_top" xlink:title=" ">
<polygon fill="white" stroke="#666666" points="983.25,-73.93 851,-73.93 851,-29.93 983.25,-29.93 983.25,-73.93"/>
<text xml:space="preserve" text-anchor="start" x="859" y="-60.43" font-family="Helvetica,sans-Serif" font-size="10.00">depicture_menu::cs</text>
<text xml:space="preserve" text-anchor="start" x="859" y="-48.43" font-family="Helvetica,sans-Serif" font-size="10.00">_binding::entry_map</text>
<text xml:space="preserve" text-anchor="middle" x="917.12" y="-36.43" font-family="Helvetica,sans-Serif" font-size="10.00">::tuple_op::tuple_transform</text>
</a>
</g>
</g>
<!-- Node6&#45;&gt;Node10 -->
<g id="edge11_Node000006_Node000010" class="edge">
<title>Node6&#45;&gt;Node10</title>
<g id="a_edge11_Node000006_Node000010"><a xlink:title=" ">
<path fill="none" stroke="#63b8ff" d="M789,-116.44C811.12,-103.08 835.15,-88.81 846.5,-82.93 848.88,-81.7 851.32,-80.47 853.79,-79.25"/>
<polygon fill="#63b8ff" stroke="#63b8ff" points="855.24,-82.43 862.73,-74.94 852.2,-76.13 855.24,-82.43"/>
</a>
</g>
</g>
<!-- Node11&#45;&gt;Node10 -->
<g id="edge17_Node000011_Node000010" class="edge">
<title>Node11&#45;&gt;Node10</title>
<g id="a_edge17_Node000011_Node000010"><a xlink:title=" ">
<path fill="none" stroke="#63b8ff" d="M454.58,-53.83C532.01,-26.15 683.2,17.52 810.5,-7.93 828.08,-11.45 846.39,-17.95 862.73,-24.9"/>
<polygon fill="#63b8ff" stroke="#63b8ff" points="861.21,-28.06 871.77,-28.89 864.04,-21.65 861.21,-28.06"/>
</a>
</g>
</g>
<!-- Node12 -->
<g id="Node000012" class="node">
<title>Node12</title>
<g id="a_Node000012"><a xlink:href="namespacedepicture__menu_1_1cs__binding_1_1entry__map.html#a80c88bceef6b232d197619fb016d5f78" target="_top" xlink:title=" ">
<polygon fill="white" stroke="#666666" points="636.25,-100.93 504,-100.93 504,-56.93 636.25,-56.93 636.25,-100.93"/>
<text xml:space="preserve" text-anchor="start" x="512" y="-87.43" font-family="Helvetica,sans-Serif" font-size="10.00">depicture_menu::cs</text>
<text xml:space="preserve" text-anchor="start" x="512" y="-75.43" font-family="Helvetica,sans-Serif" font-size="10.00">_binding::entry_map</text>
<text xml:space="preserve" text-anchor="middle" x="570.12" y="-63.43" font-family="Helvetica,sans-Serif" font-size="10.00">::get_collection_accessers</text>
</a>
</g>
</g>
<!-- Node11&#45;&gt;Node12 -->
<g id="edge13_Node000011_Node000012" class="edge">
<title>Node11&#45;&gt;Node12</title>
<g id="a_edge13_Node000011_Node000012"><a xlink:title=" ">
<path fill="none" stroke="#63b8ff" d="M454.37,-75.47C466.45,-75.84 479.58,-76.23 492.51,-76.62"/>
<polygon fill="#63b8ff" stroke="#63b8ff" points="492.17,-80.12 502.27,-76.92 492.38,-73.12 492.17,-80.12"/>
</a>
</g>
</g>
<!-- Node12&#45;&gt;Node6 -->
<g id="edge15_Node000012_Node000006" class="edge">
<title>Node12&#45;&gt;Node6</title>
<g id="a_edge15_Node000012_Node000006"><a xlink:title=" ">
<path fill="none" stroke="#63b8ff" d="M628.43,-101.28C641.21,-106.26 654.93,-111.62 668.24,-116.8"/>
<polygon fill="#63b8ff" stroke="#63b8ff" points="666.79,-119.99 677.38,-120.37 669.33,-113.47 666.79,-119.99"/>
</a>
</g>
</g>
<!-- Node12&#45;&gt;Node10 -->
<g id="edge16_Node000012_Node000010" class="edge">
<title>Node12&#45;&gt;Node10</title>
<g id="a_edge16_Node000012_Node000010"><a xlink:title=" ">
<path fill="none" stroke="#63b8ff" d="M636.56,-78.78C684.77,-78.11 751.86,-76.01 810.5,-69.93 819.88,-68.96 829.68,-67.67 839.37,-66.22"/>
<polygon fill="#63b8ff" stroke="#63b8ff" points="839.83,-69.69 849.17,-64.7 838.75,-62.78 839.83,-69.69"/>
</a>
</g>
</g>
<!-- Node13 -->
<g id="Node000013" class="node">
<title>Node13</title>
<g id="a_Node000013"><a xlink:href="namespacedepicture__menu_1_1cs__binding_1_1entry__map.html#a05fd9ef1a1b634413a3b9f1848531395" target="_top" xlink:title=" ">
<polygon fill="white" stroke="#666666" points="810.5,-60.93 672.25,-60.93 672.25,-16.93 810.5,-16.93 810.5,-60.93"/>
<text xml:space="preserve" text-anchor="start" x="680.25" y="-47.43" font-family="Helvetica,sans-Serif" font-size="10.00">depicture_menu::cs</text>
<text xml:space="preserve" text-anchor="start" x="680.25" y="-35.43" font-family="Helvetica,sans-Serif" font-size="10.00">_binding::entry_map</text>
<text xml:space="preserve" text-anchor="middle" x="741.38" y="-23.43" font-family="Helvetica,sans-Serif" font-size="10.00">::get_collection_entry_maps</text>
</a>
</g>
</g>
<!-- Node12&#45;&gt;Node13 -->
<g id="edge14_Node000012_Node000013" class="edge">
<title>Node12&#45;&gt;Node13</title>
<g id="a_edge14_Node000012_Node000013"><a xlink:title=" ">
<path fill="none" stroke="#63b8ff" d="M636.56,-63.47C644.49,-61.59 652.66,-59.66 660.76,-57.75"/>
<polygon fill="#63b8ff" stroke="#63b8ff" points="661.35,-61.21 670.28,-55.5 659.74,-54.39 661.35,-61.21"/>
</a>
</g>
</g>
</g>
</svg>
