<?xml version="1.0" encoding="UTF-8" standalone="no"?>
<!DOCTYPE svg PUBLIC "-//W3C//DTD SVG 1.1//EN"
 "http://www.w3.org/Graphics/SVG/1.1/DTD/svg11.dtd">
<!-- Generated by graphviz version 14.1.2 (20260124.0452)
 -->
<!-- Title: depicture_menu::domain::menu::radialmenu_item::set_action_id Pages: 1 -->
<svg width="644pt" height="268pt"
 viewBox="0.00 0.00 644.00 268.00" xmlns="http://www.w3.org/2000/svg" xmlns:xlink="http://www.w3.org/1999/xlink">
<g id="graph0" class="graph" transform="scale(1 1) rotate(0) translate(4 264)">
<title>depicture_menu::domain::menu::radialmenu_item::set_action_id</title>
<!-- Node1 -->
<g id="Node000001" class="node">
<title>Node1</title>
<g id="a_Node000001"><a xlink:title=" ">
<polygon fill="#999999" stroke="#666666" points="635.5,-234 512.25,-234 512.25,-190 635.5,-190 635.5,-234"/>
<text xml:space="preserve" text-anchor="start" x="520.25" y="-220.5" font-family="Helvetica,sans-Serif" font-size="10.00">depicture_menu::domain</text>
<text xml:space="preserve" text-anchor="start" x="520.25" y="-208.5" font-family="Helvetica,sans-Serif" font-size="10.00">::menu::radialmenu_item</text>
<text xml:space="preserve" text-anchor="middle" x="573.88" y="-196.5" font-family="Helvetica,sans-Serif" font-size="10.00">::set_action_id</text>
</a>
</g>
</g>
<!-- Node2 -->
<g id="Node000002" class="node">
<title>Node2</title>
<g id="a_Node000002"><a xlink:href="_test_config_view_presenter_8cpp.html#a26671984c98496781b11fd7859f0c808" target="_top" xlink:title=" ">
<polygon fill="white" stroke="#666666" points="317,-260 169.75,-260 169.75,-240 317,-240 317,-260"/>
<text xml:space="preserve" text-anchor="middle" x="243.38" y="-246.5" font-family="Helvetica,sans-Serif" font-size="10.00">BOOST_AUTO_TEST_CASE</text>
</a>
</g>
</g>
<!-- Node1&#45;&gt;Node2 -->
<g id="edge1_Node000001_Node000002" class="edge">
<title>Node1&#45;&gt;Node2</title>
<g id="a_edge1_Node000001_Node000002"><a xlink:title=" ">
<path fill="none" stroke="#63b8ff" d="M500.68,-222.79C492.45,-223.92 484.17,-225.02 476.25,-226 423.13,-232.59 363.02,-238.78 317.31,-243.22"/>
<polygon fill="#63b8ff" stroke="#63b8ff" points="500.93,-226.29 510.35,-221.44 499.96,-219.36 500.93,-226.29"/>
</a>
</g>
</g>
<!-- Node3 -->
<g id="Node000003" class="node">
<title>Node3</title>
<g id="a_Node000003"><a xlink:href="_test_config_view_presenter_8cpp.html#afd6569b78df88fbcda86a12acb7bd142" target="_top" xlink:title=" ">
<polygon fill="white" stroke="#666666" points="317,-222 169.75,-222 169.75,-202 317,-202 317,-222"/>
<text xml:space="preserve" text-anchor="middle" x="243.38" y="-208.5" font-family="Helvetica,sans-Serif" font-size="10.00">BOOST_AUTO_TEST_CASE</text>
</a>
</g>
</g>
<!-- Node1&#45;&gt;Node3 -->
<g id="edge2_Node000001_Node000003" class="edge">
<title>Node1&#45;&gt;Node3</title>
<g id="a_edge2_Node000001_Node000003"><a xlink:title=" ">
<path fill="none" stroke="#63b8ff" d="M500.57,-212C446.18,-212 371.96,-212 317.4,-212"/>
<polygon fill="#63b8ff" stroke="#63b8ff" points="500.34,-215.5 510.34,-212 500.34,-208.5 500.34,-215.5"/>
</a>
</g>
</g>
<!-- Node4 -->
<g id="Node000004" class="node">
<title>Node4</title>
<g id="a_Node000004"><a xlink:href="structdepicture__menu_1_1domain_1_1menu_1_1radialmenu__item.html#a0ace35c946baea07667ee4f6f52f27eb" target="_top" xlink:title=" ">
<polygon fill="white" stroke="#666666" points="476.25,-168 353,-168 353,-124 476.25,-124 476.25,-168"/>
<text xml:space="preserve" text-anchor="start" x="361" y="-154.5" font-family="Helvetica,sans-Serif" font-size="10.00">depicture_menu::domain</text>
<text xml:space="preserve" text-anchor="start" x="361" y="-142.5" font-family="Helvetica,sans-Serif" font-size="10.00">::menu::radialmenu_item</text>
<text xml:space="preserve" text-anchor="middle" x="414.62" y="-130.5" font-family="Helvetica,sans-Serif" font-size="10.00">::current_action_kind</text>
</a>
</g>
</g>
<!-- Node1&#45;&gt;Node4 -->
<g id="edge3_Node000001_Node000004" class="edge">
<title>Node1&#45;&gt;Node4</title>
<g id="a_edge3_Node000001_Node000004"><a xlink:title=" ">
<path fill="none" stroke="#63b8ff" d="M509.13,-185.25C495.84,-179.67 481.95,-173.84 469.08,-168.43"/>
<polygon fill="#63b8ff" stroke="#63b8ff" points="507.67,-188.43 518.24,-189.07 510.38,-181.97 507.67,-188.43"/>
</a>
</g>
</g>
<!-- Node4&#45;&gt;Node2 -->
<g id="edge10_Node000004_Node000002" class="edge">
<title>Node4&#45;&gt;Node2</title>
<g id="a_edge10_Node000004_Node000002"><a xlink:title=" ">
<path fill="none" stroke="#63b8ff" d="M386.18,-176.48C368.17,-194.76 343.17,-217.08 317,-231 310.56,-234.43 303.46,-237.26 296.3,-239.6"/>
<polygon fill="#63b8ff" stroke="#63b8ff" points="388.48,-179.14 392.9,-169.5 383.44,-174.28 388.48,-179.14"/>
</a>
</g>
</g>
<!-- Node4&#45;&gt;Node3 -->
<g id="edge11_Node000004_Node000003" class="edge">
<title>Node4&#45;&gt;Node3</title>
<g id="a_edge11_Node000004_Node000003"><a xlink:title=" ">
<path fill="none" stroke="#63b8ff" d="M361.94,-173.46C347.63,-180.42 331.92,-187.48 317,-193 308.32,-196.21 298.87,-199.1 289.74,-201.6"/>
<polygon fill="#63b8ff" stroke="#63b8ff" points="363.32,-176.68 370.72,-169.11 360.21,-170.41 363.32,-176.68"/>
</a>
</g>
</g>
<!-- Node5 -->
<g id="Node000005" class="node">
<title>Node5</title>
<g id="a_Node000005"><a xlink:href="namespacedepicture__menu_1_1cs__binding.html#ae572bad0d69db1d1c8b9e1934514c6d9" target="_top" xlink:title=" ">
<polygon fill="white" stroke="#666666" points="310.62,-146 176.12,-146 176.12,-114 310.62,-114 310.62,-146"/>
<text xml:space="preserve" text-anchor="start" x="184.12" y="-132.5" font-family="Helvetica,sans-Serif" font-size="10.00">depicture_menu::cs</text>
<text xml:space="preserve" text-anchor="middle" x="243.38" y="-120.5" font-family="Helvetica,sans-Serif" font-size="10.00">_binding::apply_menu_item</text>
</a>
</g>
</g>
<!-- Node4&#45;&gt;Node5 -->
<g id="edge4_Node000004_Node000005" class="edge">
<title>Node4&#45;&gt;Node5</title>
<g id="a_edge4_Node000004_Node000005"><a xlink:title=" ">
<path fill="none" stroke="#63b8ff" d="M341.33,-139.17C331.3,-138.22 321.04,-137.25 311.12,-136.31"/>
<polygon fill="#63b8ff" stroke="#63b8ff" points="340.73,-142.62 351.02,-140.08 341.39,-135.66 340.73,-142.62"/>
</a>
</g>
</g>
<!-- Node7 -->
<g id="Node000007" class="node">
<title>Node7</title>
<g id="a_Node000007"><a xlink:href="menu__change__operation_8cpp.html#a81fa9e577bb1313893e9fd84bfe8e42e" target="_top" xlink:title=" ">
<polygon fill="white" stroke="#666666" points="317,-96 169.75,-96 169.75,-76 317,-76 317,-96"/>
<text xml:space="preserve" text-anchor="middle" x="243.38" y="-82.5" font-family="Helvetica,sans-Serif" font-size="10.00">BOOST_AUTO_TEST_CASE</text>
</a>
</g>
</g>
<!-- Node4&#45;&gt;Node7 -->
<g id="edge6_Node000004_Node000007" class="edge">
<title>Node4&#45;&gt;Node7</title>
<g id="a_edge6_Node000004_Node000007"><a xlink:title=" ">
<path fill="none" stroke="#63b8ff" d="M354.04,-119.12C341.91,-114.1 329.14,-109.14 317,-105 307.87,-101.89 297.95,-98.99 288.46,-96.44"/>
<polygon fill="#63b8ff" stroke="#63b8ff" points="352.54,-122.29 363.11,-122.94 355.26,-115.83 352.54,-122.29"/>
</a>
</g>
</g>
<!-- Node8 -->
<g id="Node000008" class="node">
<title>Node8</title>
<g id="a_Node000008"><a xlink:href="menu__change__operation_8cpp.html#af1ec2700c6332c1ebe308759d9b531f6" target="_top" xlink:title=" ">
<polygon fill="white" stroke="#666666" points="317,-58 169.75,-58 169.75,-38 317,-38 317,-58"/>
<text xml:space="preserve" text-anchor="middle" x="243.38" y="-44.5" font-family="Helvetica,sans-Serif" font-size="10.00">BOOST_AUTO_TEST_CASE</text>
</a>
</g>
</g>
<!-- Node4&#45;&gt;Node8 -->
<g id="edge7_Node000004_Node000008" class="edge">
<title>Node4&#45;&gt;Node8</title>
<g id="a_edge7_Node000004_Node000008"><a xlink:title=" ">
<path fill="none" stroke="#63b8ff" d="M383.87,-115.95C365.89,-99.34 341.73,-79.58 317,-67 310.38,-63.63 303.11,-60.82 295.8,-58.49"/>
<polygon fill="#63b8ff" stroke="#63b8ff" points="381.41,-118.44 391.08,-122.77 386.22,-113.35 381.41,-118.44"/>
</a>
</g>
</g>
<!-- Node9 -->
<g id="Node000009" class="node">
<title>Node9</title>
<g id="a_Node000009"><a xlink:href="menu__change__operation_8cpp.html#a7f4477f42394db26f782d45e49cb2e64" target="_top" xlink:title=" ">
<polygon fill="white" stroke="#666666" points="317,-20 169.75,-20 169.75,0 317,0 317,-20"/>
<text xml:space="preserve" text-anchor="middle" x="243.38" y="-6.5" font-family="Helvetica,sans-Serif" font-size="10.00">BOOST_AUTO_TEST_CASE</text>
</a>
</g>
</g>
<!-- Node4&#45;&gt;Node9 -->
<g id="edge8_Node000004_Node000009" class="edge">
<title>Node4&#45;&gt;Node9</title>
<g id="a_edge8_Node000004_Node000009"><a xlink:title=" ">
<path fill="none" stroke="#63b8ff" d="M395.33,-114.23C378.35,-87.57 350.67,-50.49 317,-29 311.62,-25.56 305.63,-22.75 299.48,-20.44"/>
<polygon fill="#63b8ff" stroke="#63b8ff" points="392.27,-115.94 400.5,-122.6 398.22,-112.25 392.27,-115.94"/>
</a>
</g>
</g>
<!-- Node10 -->
<g id="Node000010" class="node">
<title>Node10</title>
<g id="a_Node000010"><a xlink:href="menu__change__operation_8cpp.html#a47c493cda5dad7713cef20424cd34477" target="_top" xlink:title=" ">
<polygon fill="white" stroke="#666666" points="317,-184 169.75,-184 169.75,-164 317,-164 317,-184"/>
<text xml:space="preserve" text-anchor="middle" x="243.38" y="-170.5" font-family="Helvetica,sans-Serif" font-size="10.00">BOOST_AUTO_TEST_CASE</text>
</a>
</g>
</g>
<!-- Node4&#45;&gt;Node10 -->
<g id="edge9_Node000004_Node000010" class="edge">
<title>Node4&#45;&gt;Node10</title>
<g id="a_edge9_Node000004_Node000010"><a xlink:title=" ">
<path fill="none" stroke="#63b8ff" d="M341.43,-157.94C330.2,-159.8 318.68,-161.71 307.67,-163.53"/>
<polygon fill="#63b8ff" stroke="#63b8ff" points="341.73,-161.44 351.03,-156.36 340.59,-154.53 341.73,-161.44"/>
</a>
</g>
</g>
<!-- Node6 -->
<g id="Node000006" class="node">
<title>Node6</title>
<g id="a_Node000006"><a xlink:href="namespacedepicture__menu_1_1cs__binding.html#a17af5c2678e88aa88a411f7d98a360a5" target="_top" xlink:title=" ">
<polygon fill="white" stroke="#666666" points="133.75,-146 0,-146 0,-114 133.75,-114 133.75,-146"/>
<text xml:space="preserve" text-anchor="start" x="8" y="-132.5" font-family="Helvetica,sans-Serif" font-size="10.00">depicture_menu::cs</text>
<text xml:space="preserve" text-anchor="middle" x="66.88" y="-120.5" font-family="Helvetica,sans-Serif" font-size="10.00">_binding::apply_radialmenu</text>
</a>
</g>
</g>
<!-- Node5&#45;&gt;Node6 -->
<g id="edge5_Node000005_Node000006" class="edge">
<title>Node5&#45;&gt;Node6</title>
<g id="a_edge5_Node000005_Node000006"><a xlink:title=" ">
<path fill="none" stroke="#63b8ff" d="M164.55,-130C154.41,-130 144.09,-130 134.16,-130"/>
<polygon fill="#63b8ff" stroke="#63b8ff" points="164.39,-133.5 174.39,-130 164.39,-126.5 164.39,-133.5"/>
</a>
</g>
</g>
</g>
</svg>
