<?xml version="1.0" encoding="UTF-8" standalone="no"?>
<!DOCTYPE svg PUBLIC "-//W3C//DTD SVG 1.1//EN"
 "http://www.w3.org/Graphics/SVG/1.1/DTD/svg11.dtd">
<!-- Generated by graphviz version 14.1.2 (20260124.0452)
 -->
<!-- Title: transaction_fixture::add_sample_entity Pages: 1 -->
<svg width="595pt" height="146pt"
 viewBox="0.00 0.00 595.00 146.00" xmlns="http://www.w3.org/2000/svg" xmlns:xlink="http://www.w3.org/1999/xlink">
<g id="graph0" class="graph" transform="scale(1 1) rotate(0) translate(4 142)">
<title>transaction_fixture::add_sample_entity</title>
<!-- Node1 -->
<g id="Node000001" class="node">
<title>Node1</title>
<g id="a_Node000001"><a xlink:title=" ">
<polygon fill="#999999" stroke="#666666" points="103.75,-82 0,-82 0,-50 103.75,-50 103.75,-82"/>
<text xml:space="preserve" text-anchor="start" x="8" y="-68.5" font-family="Helvetica,sans-Serif" font-size="10.00">transaction_fixture</text>
<text xml:space="preserve" text-anchor="middle" x="51.88" y="-56.5" font-family="Helvetica,sans-Serif" font-size="10.00">::add_sample_entity</text>
</a>
</g>
</g>
<!-- Node2 -->
<g id="Node000002" class="node">
<title>Node2</title>
<g id="a_Node000002"><a xlink:href="namespacedepicture__menu_1_1test_1_1test__tools.html#a2875ecae3596246c9cb30ef6f8125ad9" target="_top" xlink:title="add_object">
<polygon fill="white" stroke="#666666" points="257.75,-138 139.75,-138 139.75,-106 257.75,-106 257.75,-138"/>
<text xml:space="preserve" text-anchor="start" x="147.75" y="-124.5" font-family="Helvetica,sans-Serif" font-size="10.00">depicture_menu::test</text>
<text xml:space="preserve" text-anchor="middle" x="198.75" y="-112.5" font-family="Helvetica,sans-Serif" font-size="10.00">::test_tools::add_object</text>
</a>
</g>
</g>
<!-- Node1&#45;&gt;Node2 -->
<g id="edge1_Node000001_Node000002" class="edge">
<title>Node1&#45;&gt;Node2</title>
<g id="a_edge1_Node000001_Node000002"><a xlink:title=" ">
<path fill="none" stroke="#63b8ff" d="M95.56,-82.5C111.03,-88.48 128.7,-95.31 144.94,-101.59"/>
<polygon fill="#63b8ff" stroke="#63b8ff" points="143.37,-104.73 153.96,-105.07 145.89,-98.2 143.37,-104.73"/>
</a>
</g>
</g>
<!-- Node5 -->
<g id="Node000005" class="node">
<title>Node5</title>
<g id="a_Node000005"><a xlink:href="namespacedepicture__menu_1_1test_1_1test__tools.html#a3bc0722b6d26ba684d929250a24c88c2" target="_top" xlink:title="get_object">
<polygon fill="white" stroke="#666666" points="409.5,-32 293.75,-32 293.75,0 409.5,0 409.5,-32"/>
<text xml:space="preserve" text-anchor="start" x="301.75" y="-18.5" font-family="Helvetica,sans-Serif" font-size="10.00">depicture_menu::test</text>
<text xml:space="preserve" text-anchor="middle" x="351.62" y="-6.5" font-family="Helvetica,sans-Serif" font-size="10.00">::test_tools::get_object</text>
</a>
</g>
</g>
<!-- Node1&#45;&gt;Node5 -->
<g id="edge4_Node000001_Node000005" class="edge">
<title>Node1&#45;&gt;Node5</title>
<g id="a_edge4_Node000001_Node000005"><a xlink:title=" ">
<path fill="none" stroke="#63b8ff" d="M92.05,-49.65C106.76,-44.14 123.8,-38.51 139.75,-35 186.68,-24.69 240.66,-19.95 282.26,-17.79"/>
<polygon fill="#63b8ff" stroke="#63b8ff" points="282.31,-21.29 292.13,-17.32 281.98,-14.3 282.31,-21.29"/>
</a>
</g>
</g>
<!-- Node6 -->
<g id="Node000006" class="node">
<title>Node6</title>
<g id="a_Node000006"><a xlink:href="namespacedepicture__menu_1_1test_1_1test__tools.html#af306a1c5bb47444ef2a45fbff195078f" target="_top" xlink:title="add_object">
<polygon fill="white" stroke="#666666" points="252.5,-88 145,-88 145,-44 252.5,-44 252.5,-88"/>
<text xml:space="preserve" text-anchor="start" x="153" y="-74.5" font-family="Helvetica,sans-Serif" font-size="10.00">depicture_menu::test</text>
<text xml:space="preserve" text-anchor="start" x="153" y="-62.5" font-family="Helvetica,sans-Serif" font-size="10.00">::test_tools::update</text>
<text xml:space="preserve" text-anchor="middle" x="198.75" y="-50.5" font-family="Helvetica,sans-Serif" font-size="10.00">_object</text>
</a>
</g>
</g>
<!-- Node1&#45;&gt;Node6 -->
<g id="edge6_Node000001_Node000006" class="edge">
<title>Node1&#45;&gt;Node6</title>
<g id="a_edge6_Node000001_Node000006"><a xlink:title=" ">
<path fill="none" stroke="#63b8ff" d="M103.95,-66C113.44,-66 123.46,-66 133.28,-66"/>
<polygon fill="#63b8ff" stroke="#63b8ff" points="133.17,-69.5 143.17,-66 133.17,-62.5 133.17,-69.5"/>
</a>
</g>
</g>
<!-- Node3 -->
<g id="Node000003" class="node">
<title>Node3</title>
<g id="a_Node000003"><a xlink:href="namespacedepicture__menu_1_1test_1_1test__tools.html#a63e1557e94d169533fc4f8ee80bb12a5" target="_top" xlink:title="do_test_transaction">
<polygon fill="white" stroke="#666666" points="405.38,-94 297.88,-94 297.88,-50 405.38,-50 405.38,-94"/>
<text xml:space="preserve" text-anchor="start" x="305.88" y="-80.5" font-family="Helvetica,sans-Serif" font-size="10.00">depicture_menu::test</text>
<text xml:space="preserve" text-anchor="start" x="305.88" y="-68.5" font-family="Helvetica,sans-Serif" font-size="10.00">::test_tools::do_test</text>
<text xml:space="preserve" text-anchor="middle" x="351.62" y="-56.5" font-family="Helvetica,sans-Serif" font-size="10.00">_transaction</text>
</a>
</g>
</g>
<!-- Node2&#45;&gt;Node3 -->
<g id="edge2_Node000002_Node000003" class="edge">
<title>Node2&#45;&gt;Node3</title>
<g id="a_edge2_Node000002_Node000003"><a xlink:title=" ">
<path fill="none" stroke="#63b8ff" d="M249.15,-105.63C261.12,-101.66 274.08,-97.37 286.61,-93.22"/>
<polygon fill="#63b8ff" stroke="#63b8ff" points="287.64,-96.56 296.04,-90.09 285.44,-89.91 287.64,-96.56"/>
</a>
</g>
</g>
<!-- Node4 -->
<g id="Node000004" class="node">
<title>Node4</title>
<g id="a_Node000004"><a xlink:href="namespacedepicture__menu_1_1repositories.html#a245ba008949ea92721d80817fea6a2c8" target="_top" xlink:title=" ">
<polygon fill="white" stroke="#666666" points="586.75,-60 445.5,-60 445.5,-28 586.75,-28 586.75,-60"/>
<text xml:space="preserve" text-anchor="start" x="453.5" y="-46.5" font-family="Helvetica,sans-Serif" font-size="10.00">depicture_menu::repositories</text>
<text xml:space="preserve" text-anchor="middle" x="516.12" y="-34.5" font-family="Helvetica,sans-Serif" font-size="10.00">::do_transaction</text>
</a>
</g>
</g>
<!-- Node3&#45;&gt;Node4 -->
<g id="edge3_Node000003_Node000004" class="edge">
<title>Node3&#45;&gt;Node4</title>
<g id="a_edge3_Node000003_Node000004"><a xlink:title=" ">
<path fill="none" stroke="#63b8ff" d="M405.83,-62.83C414.88,-61.27 424.46,-59.62 434.03,-57.97"/>
<polygon fill="#63b8ff" stroke="#63b8ff" points="434.49,-61.45 443.75,-56.3 433.3,-54.55 434.49,-61.45"/>
</a>
</g>
</g>
<!-- Node5&#45;&gt;Node4 -->
<g id="edge5_Node000005_Node000004" class="edge">
<title>Node5&#45;&gt;Node4</title>
<g id="a_edge5_Node000005_Node000004"><a xlink:title=" ">
<path fill="none" stroke="#63b8ff" d="M409.92,-25.87C417.77,-27.22 425.95,-28.63 434.13,-30.04"/>
<polygon fill="#63b8ff" stroke="#63b8ff" points="433.3,-33.45 443.75,-31.7 434.49,-26.55 433.3,-33.45"/>
</a>
</g>
</g>
<!-- Node6&#45;&gt;Node3 -->
<g id="edge7_Node000006_Node000003" class="edge">
<title>Node6&#45;&gt;Node3</title>
<g id="a_edge7_Node000006_Node000003"><a xlink:title=" ">
<path fill="none" stroke="#63b8ff" d="M252.94,-68.12C263.65,-68.54 275.01,-68.99 286.05,-69.43"/>
<polygon fill="#63b8ff" stroke="#63b8ff" points="285.76,-72.92 295.89,-69.82 286.04,-65.93 285.76,-72.92"/>
</a>
</g>
</g>
</g>
</svg>
