<?xml version="1.0" encoding="UTF-8" standalone="no"?>
<!DOCTYPE svg PUBLIC "-//W3C//DTD SVG 1.1//EN"
 "http://www.w3.org/Graphics/SVG/1.1/DTD/svg11.dtd">
<!-- Generated by graphviz version 14.1.2 (20260124.0452)
 -->
<!-- Title: depicture_menu::usecase::query::default_menu_item_label_query::query Pages: 1 -->
<svg width="614pt" height="164pt"
 viewBox="0.00 0.00 614.00 164.00" xmlns="http://www.w3.org/2000/svg" xmlns:xlink="http://www.w3.org/1999/xlink">
<g id="graph0" class="graph" transform="scale(1 1) rotate(0) translate(4 160)">
<title>depicture_menu::usecase::query::default_menu_item_label_query::query</title>
<!-- Node1 -->
<g id="Node000001" class="node">
<title>Node1</title>
<g id="a_Node000001"><a xlink:title=" ">
<polygon fill="#999999" stroke="#666666" points="127.75,-94 0,-94 0,-50 127.75,-50 127.75,-94"/>
<text xml:space="preserve" text-anchor="start" x="8" y="-80.5" font-family="Helvetica,sans-Serif" font-size="10.00">depicture_menu::usecase</text>
<text xml:space="preserve" text-anchor="start" x="8" y="-68.5" font-family="Helvetica,sans-Serif" font-size="10.00">::query::default_menu</text>
<text xml:space="preserve" text-anchor="middle" x="63.88" y="-56.5" font-family="Helvetica,sans-Serif" font-size="10.00">_item_label_query::query</text>
</a>
</g>
</g>
<!-- Node2 -->
<g id="Node000002" class="node">
<title>Node2</title>
<g id="a_Node000002"><a xlink:href="structdepicture__menu_1_1domain_1_1menu_1_1radialmenu__item.html#a401fbb41b8231960bb8443168ddb56a5" target="_top" xlink:title=" ">
<polygon fill="white" stroke="#666666" points="287,-156 163.75,-156 163.75,-112 287,-112 287,-156"/>
<text xml:space="preserve" text-anchor="start" x="171.75" y="-142.5" font-family="Helvetica,sans-Serif" font-size="10.00">depicture_menu::domain</text>
<text xml:space="preserve" text-anchor="start" x="171.75" y="-130.5" font-family="Helvetica,sans-Serif" font-size="10.00">::menu::radialmenu_item</text>
<text xml:space="preserve" text-anchor="middle" x="225.38" y="-118.5" font-family="Helvetica,sans-Serif" font-size="10.00">::current_action_id</text>
</a>
</g>
</g>
<!-- Node1&#45;&gt;Node2 -->
<g id="edge1_Node000001_Node000002" class="edge">
<title>Node1&#45;&gt;Node2</title>
<g id="a_edge1_Node000001_Node000002"><a xlink:title=" ">
<path fill="none" stroke="#63b8ff" d="M122.46,-94.38C133.35,-98.62 144.83,-103.08 156.01,-107.43"/>
<polygon fill="#63b8ff" stroke="#63b8ff" points="154.61,-110.64 165.2,-111 157.15,-104.11 154.61,-110.64"/>
</a>
</g>
</g>
<!-- Node5 -->
<g id="Node000005" class="node">
<title>Node5</title>
<g id="a_Node000005"><a xlink:href="structdepicture__menu_1_1domain_1_1menu_1_1radialmenu__item.html#a4345d8dc99a845f0a3bc8c9210f01e42" target="_top" xlink:title=" ">
<polygon fill="white" stroke="#666666" points="287,-94 163.75,-94 163.75,-50 287,-50 287,-94"/>
<text xml:space="preserve" text-anchor="start" x="171.75" y="-80.5" font-family="Helvetica,sans-Serif" font-size="10.00">depicture_menu::domain</text>
<text xml:space="preserve" text-anchor="start" x="171.75" y="-68.5" font-family="Helvetica,sans-Serif" font-size="10.00">::menu::radialmenu_item</text>
<text xml:space="preserve" text-anchor="middle" x="225.38" y="-56.5" font-family="Helvetica,sans-Serif" font-size="10.00">::label</text>
</a>
</g>
</g>
<!-- Node1&#45;&gt;Node5 -->
<g id="edge4_Node000001_Node000005" class="edge">
<title>Node1&#45;&gt;Node5</title>
<g id="a_edge4_Node000001_Node000005"><a xlink:title=" ">
<path fill="none" stroke="#63b8ff" d="M127.91,-72C135.84,-72 144.01,-72 152.07,-72"/>
<polygon fill="#63b8ff" stroke="#63b8ff" points="151.84,-75.5 161.84,-72 151.84,-68.5 151.84,-75.5"/>
</a>
</g>
</g>
<!-- Node6 -->
<g id="Node000006" class="node">
<title>Node6</title>
<g id="a_Node000006"><a xlink:href="namespacedepicture__menu_1_1util_1_1strconv.html#ae6043222bd0621e53262d5c29417c416" target="_top" xlink:title=" ">
<polygon fill="white" stroke="#666666" points="282.5,-32 168.25,-32 168.25,0 282.5,0 282.5,-32"/>
<text xml:space="preserve" text-anchor="start" x="176.25" y="-18.5" font-family="Helvetica,sans-Serif" font-size="10.00">depicture_menu::util</text>
<text xml:space="preserve" text-anchor="middle" x="225.38" y="-6.5" font-family="Helvetica,sans-Serif" font-size="10.00">::strconv::sjis_to_wide</text>
</a>
</g>
</g>
<!-- Node1&#45;&gt;Node6 -->
<g id="edge5_Node000001_Node000006" class="edge">
<title>Node1&#45;&gt;Node6</title>
<g id="a_edge5_Node000001_Node000006"><a xlink:title=" ">
<path fill="none" stroke="#63b8ff" d="M127.91,-49.87C140.71,-45.37 154.11,-40.67 166.71,-36.25"/>
<polygon fill="#63b8ff" stroke="#63b8ff" points="167.83,-39.56 176.11,-32.95 165.51,-32.96 167.83,-39.56"/>
</a>
</g>
</g>
<!-- Node3 -->
<g id="Node000003" class="node">
<title>Node3</title>
<g id="a_Node000003"><a xlink:href="structdepicture__menu_1_1domain_1_1menu_1_1radialmenu__item.html#abaa0796bacff30852dbdf9eee08d38b2" target="_top" xlink:title=" ">
<polygon fill="white" stroke="#666666" points="446.25,-156 323,-156 323,-112 446.25,-112 446.25,-156"/>
<text xml:space="preserve" text-anchor="start" x="331" y="-142.5" font-family="Helvetica,sans-Serif" font-size="10.00">depicture_menu::domain</text>
<text xml:space="preserve" text-anchor="start" x="331" y="-130.5" font-family="Helvetica,sans-Serif" font-size="10.00">::menu::radialmenu_item</text>
<text xml:space="preserve" text-anchor="middle" x="384.62" y="-118.5" font-family="Helvetica,sans-Serif" font-size="10.00">::current_index</text>
</a>
</g>
</g>
<!-- Node2&#45;&gt;Node3 -->
<g id="edge2_Node000002_Node000003" class="edge">
<title>Node2&#45;&gt;Node3</title>
<g id="a_edge2_Node000002_Node000003"><a xlink:title=" ">
<path fill="none" stroke="#63b8ff" d="M287.17,-134C295.1,-134 303.29,-134 311.38,-134"/>
<polygon fill="#63b8ff" stroke="#63b8ff" points="311.22,-137.5 321.22,-134 311.22,-130.5 311.22,-137.5"/>
</a>
</g>
</g>
<!-- Node4 -->
<g id="Node000004" class="node">
<title>Node4</title>
<g id="a_Node000004"><a xlink:href="structdepicture__menu_1_1domain_1_1menu_1_1radialmenu__item.html#adee607b452fafcf8b6aa3ce5471f87a4" target="_top" xlink:title=" ">
<polygon fill="white" stroke="#666666" points="605.5,-156 482.25,-156 482.25,-112 605.5,-112 605.5,-156"/>
<text xml:space="preserve" text-anchor="start" x="490.25" y="-142.5" font-family="Helvetica,sans-Serif" font-size="10.00">depicture_menu::domain</text>
<text xml:space="preserve" text-anchor="start" x="490.25" y="-130.5" font-family="Helvetica,sans-Serif" font-size="10.00">::menu::radialmenu_item</text>
<text xml:space="preserve" text-anchor="middle" x="543.88" y="-118.5" font-family="Helvetica,sans-Serif" font-size="10.00">::com_kind_to_index</text>
</a>
</g>
</g>
<!-- Node3&#45;&gt;Node4 -->
<g id="edge3_Node000003_Node000004" class="edge">
<title>Node3&#45;&gt;Node4</title>
<g id="a_edge3_Node000003_Node000004"><a xlink:title=" ">
<path fill="none" stroke="#63b8ff" d="M446.42,-134C454.35,-134 462.54,-134 470.63,-134"/>
<polygon fill="#63b8ff" stroke="#63b8ff" points="470.47,-137.5 480.47,-134 470.47,-130.5 470.47,-137.5"/>
</a>
</g>
</g>
</g>
</svg>
