<?xml version="1.0" encoding="UTF-8" standalone="no"?>
<!DOCTYPE svg PUBLIC "-//W3C//DTD SVG 1.1//EN"
 "http://www.w3.org/Graphics/SVG/1.1/DTD/svg11.dtd">
<!-- Generated by graphviz version 14.1.2 (20260124.0452)
 -->
<!-- Title: depicture_menu::domain::models::base::entity_base::entity_id Pages: 1 -->
<svg width="977pt" height="1652pt"
 viewBox="0.00 0.00 977.00 1652.00" xmlns="http://www.w3.org/2000/svg" xmlns:xlink="http://www.w3.org/1999/xlink">
<g id="graph0" class="graph" transform="scale(1 1) rotate(0) translate(4 1648)">
<title>depicture_menu::domain::models::base::entity_base::entity_id</title>
<!-- Node1 -->
<g id="Node000001" class="node">
<title>Node1</title>
<g id="a_Node000001"><a xlink:title=" ">
<polygon fill="#999999" stroke="#666666" points="968.75,-886 846.25,-886 846.25,-842 968.75,-842 968.75,-886"/>
<text xml:space="preserve" text-anchor="start" x="854.25" y="-872.5" font-family="Helvetica,sans-Serif" font-size="10.00">depicture_menu::domain</text>
<text xml:space="preserve" text-anchor="start" x="854.25" y="-860.5" font-family="Helvetica,sans-Serif" font-size="10.00">::models::base::entity</text>
<text xml:space="preserve" text-anchor="middle" x="907.5" y="-848.5" font-family="Helvetica,sans-Serif" font-size="10.00">_base::entity_id</text>
</a>
</g>
</g>
<!-- Node2 -->
<g id="Node000002" class="node">
<title>Node2</title>
<g id="a_Node000002"><a xlink:href="structdepicture__menu_1_1cs__binding_1_1build__query_1_1actions__query__builder.html#af723fba412b4abc042ec898fc5db2ae8" target="_top" xlink:title=" ">
<polygon fill="white" stroke="#666666" points="772.75,-1644 656.25,-1644 656.25,-1588 772.75,-1588 772.75,-1644"/>
<text xml:space="preserve" text-anchor="start" x="664.25" y="-1630.5" font-family="Helvetica,sans-Serif" font-size="10.00">depicture_menu::cs</text>
<text xml:space="preserve" text-anchor="start" x="664.25" y="-1618.5" font-family="Helvetica,sans-Serif" font-size="10.00">_binding::build_query</text>
<text xml:space="preserve" text-anchor="start" x="664.25" y="-1606.5" font-family="Helvetica,sans-Serif" font-size="10.00">::actions_query_builder</text>
<text xml:space="preserve" text-anchor="middle" x="714.5" y="-1594.5" font-family="Helvetica,sans-Serif" font-size="10.00">::add_action</text>
</a>
</g>
</g>
<!-- Node1&#45;&gt;Node2 -->
<g id="edge1_Node000001_Node000002" class="edge">
<title>Node1&#45;&gt;Node2</title>
<g id="a_edge1_Node000001_Node000002"><a xlink:title=" ">
<path fill="none" stroke="#63b8ff" d="M906.36,-897.42C905.2,-1023.84 895.07,-1471.08 810.25,-1579 800.86,-1590.94 787.09,-1599.03 772.94,-1604.52"/>
<polygon fill="#63b8ff" stroke="#63b8ff" points="909.86,-897.75 906.44,-887.72 902.86,-897.7 909.86,-897.75"/>
</a>
</g>
</g>
<!-- Node3 -->
<g id="Node000003" class="node">
<title>Node3</title>
<g id="a_Node000003"><a xlink:href="structdepicture__menu_1_1cs__binding_1_1build__query_1_1actions__query__builder.html#a370c29525639b4b9c9b59d7ecf80aac2" target="_top" xlink:title=" ">
<polygon fill="white" stroke="#666666" points="772.75,-1570 656.25,-1570 656.25,-1514 772.75,-1514 772.75,-1570"/>
<text xml:space="preserve" text-anchor="start" x="664.25" y="-1556.5" font-family="Helvetica,sans-Serif" font-size="10.00">depicture_menu::cs</text>
<text xml:space="preserve" text-anchor="start" x="664.25" y="-1544.5" font-family="Helvetica,sans-Serif" font-size="10.00">_binding::build_query</text>
<text xml:space="preserve" text-anchor="start" x="664.25" y="-1532.5" font-family="Helvetica,sans-Serif" font-size="10.00">::actions_query_builder</text>
<text xml:space="preserve" text-anchor="middle" x="714.5" y="-1520.5" font-family="Helvetica,sans-Serif" font-size="10.00">::add_command</text>
</a>
</g>
</g>
<!-- Node1&#45;&gt;Node3 -->
<g id="edge2_Node000001_Node000003" class="edge">
<title>Node1&#45;&gt;Node3</title>
<g id="a_edge2_Node000001_Node000003"><a xlink:title=" ">
<path fill="none" stroke="#63b8ff" d="M905.58,-897.75C901.74,-1015.16 883.62,-1403.86 810.25,-1500 800.86,-1512.3 787.09,-1521.08 772.94,-1527.31"/>
<polygon fill="#63b8ff" stroke="#63b8ff" points="909.07,-897.95 905.88,-887.84 902.07,-897.73 909.07,-897.95"/>
</a>
</g>
</g>
<!-- Node4 -->
<g id="Node000004" class="node">
<title>Node4</title>
<g id="a_Node000004"><a xlink:href="deploy__default__setting_8cpp.html#a638e25877528b95de44e4fcd07a8c45a" target="_top" xlink:title=" ">
<polygon fill="white" stroke="#666666" points="538.5,-729 443,-729 443,-709 538.5,-709 538.5,-729"/>
<text xml:space="preserve" text-anchor="middle" x="490.75" y="-715.5" font-family="Helvetica,sans-Serif" font-size="10.00">add_default_menu</text>
</a>
</g>
</g>
<!-- Node1&#45;&gt;Node4 -->
<g id="edge3_Node000001_Node000004" class="edge">
<title>Node1&#45;&gt;Node4</title>
<g id="a_edge3_Node000001_Node000004"><a xlink:title=" ">
<path fill="none" stroke="#63b8ff" d="M901.08,-830.23C888.6,-757.15 855.37,-588.2 810.25,-555 741.7,-504.55 695.17,-517.53 618.75,-555 550.53,-588.46 508.49,-678.17 495.82,-708.68"/>
<polygon fill="#63b8ff" stroke="#63b8ff" points="897.62,-830.73 902.72,-840.02 904.52,-829.57 897.62,-830.73"/>
</a>
</g>
</g>
<!-- Node5 -->
<g id="Node000005" class="node">
<title>Node5</title>
<g id="a_Node000005"><a xlink:href="namespacedepicture__menu_1_1cs__binding.html#aeab9bc695acb67ff4716c316f6973290" target="_top" xlink:title=" ">
<polygon fill="white" stroke="#666666" points="780.25,-1458 648.75,-1458 648.75,-1426 780.25,-1426 780.25,-1458"/>
<text xml:space="preserve" text-anchor="start" x="656.75" y="-1444.5" font-family="Helvetica,sans-Serif" font-size="10.00">depicture_menu::cs</text>
<text xml:space="preserve" text-anchor="middle" x="714.5" y="-1432.5" font-family="Helvetica,sans-Serif" font-size="10.00">_binding::apply_config_arg</text>
</a>
</g>
</g>
<!-- Node1&#45;&gt;Node5 -->
<g id="edge4_Node000001_Node000005" class="edge">
<title>Node1&#45;&gt;Node5</title>
<g id="a_edge4_Node000001_Node000005"><a xlink:title=" ">
<path fill="none" stroke="#63b8ff" d="M905.26,-897.93C900.6,-1006.11 880.68,-1340.27 810.25,-1417 802.31,-1425.65 791.77,-1431.45 780.6,-1435.31"/>
<polygon fill="#63b8ff" stroke="#63b8ff" points="908.75,-898.1 905.67,-887.97 901.76,-897.82 908.75,-898.1"/>
</a>
</g>
</g>
<!-- Node6 -->
<g id="Node000006" class="node">
<title>Node6</title>
<g id="a_Node000006"><a xlink:href="namespacedepicture__menu_1_1cs__binding.html#aa975143fcb5277d995b1dcccbbcdcb1f" target="_top" xlink:title=" ">
<polygon fill="white" stroke="#666666" points="780.25,-1408 648.75,-1408 648.75,-1376 780.25,-1376 780.25,-1408"/>
<text xml:space="preserve" text-anchor="start" x="656.75" y="-1394.5" font-family="Helvetica,sans-Serif" font-size="10.00">depicture_menu::cs</text>
<text xml:space="preserve" text-anchor="middle" x="714.5" y="-1382.5" font-family="Helvetica,sans-Serif" font-size="10.00">_binding::apply_config_arg</text>
</a>
</g>
</g>
<!-- Node1&#45;&gt;Node6 -->
<g id="edge5_Node000001_Node000006" class="edge">
<title>Node1&#45;&gt;Node6</title>
<g id="a_edge5_Node000001_Node000006"><a xlink:title=" ">
<path fill="none" stroke="#63b8ff" d="M904.64,-897.53C898.34,-998.68 874.52,-1298.14 810.25,-1367 802.24,-1375.58 791.67,-1381.35 780.49,-1385.21"/>
<polygon fill="#63b8ff" stroke="#63b8ff" points="908.12,-897.9 905.23,-887.71 901.13,-897.48 908.12,-897.9"/>
</a>
</g>
</g>
<!-- Node7 -->
<g id="Node000007" class="node">
<title>Node7</title>
<g id="a_Node000007"><a xlink:href="namespacedepicture__menu_1_1cs__binding.html#a55b411e54012e5984de6982843008cc9" target="_top" xlink:title=" ">
<polygon fill="white" stroke="#666666" points="780.25,-1358 648.75,-1358 648.75,-1326 780.25,-1326 780.25,-1358"/>
<text xml:space="preserve" text-anchor="start" x="656.75" y="-1344.5" font-family="Helvetica,sans-Serif" font-size="10.00">depicture_menu::cs</text>
<text xml:space="preserve" text-anchor="middle" x="714.5" y="-1332.5" font-family="Helvetica,sans-Serif" font-size="10.00">_binding::apply_config_arg</text>
</a>
</g>
</g>
<!-- Node1&#45;&gt;Node7 -->
<g id="edge6_Node000001_Node000007" class="edge">
<title>Node1&#45;&gt;Node7</title>
<g id="a_edge6_Node000001_Node000007"><a xlink:title=" ">
<path fill="none" stroke="#63b8ff" d="M903.86,-897.61C895.77,-991.91 868.29,-1256.07 810.25,-1317 802.15,-1325.5 791.54,-1331.23 780.35,-1335.08"/>
<polygon fill="#63b8ff" stroke="#63b8ff" points="907.34,-897.98 904.68,-887.73 900.36,-897.4 907.34,-897.98"/>
</a>
</g>
</g>
<!-- Node8 -->
<g id="Node000008" class="node">
<title>Node8</title>
<g id="a_Node000008"><a xlink:href="namespacedepicture__menu_1_1cs__binding.html#a17af5c2678e88aa88a411f7d98a360a5" target="_top" xlink:title=" ">
<polygon fill="white" stroke="#666666" points="781.38,-1308 647.62,-1308 647.62,-1276 781.38,-1276 781.38,-1308"/>
<text xml:space="preserve" text-anchor="start" x="655.62" y="-1294.5" font-family="Helvetica,sans-Serif" font-size="10.00">depicture_menu::cs</text>
<text xml:space="preserve" text-anchor="middle" x="714.5" y="-1282.5" font-family="Helvetica,sans-Serif" font-size="10.00">_binding::apply_radialmenu</text>
</a>
</g>
</g>
<!-- Node1&#45;&gt;Node8 -->
<g id="edge7_Node000001_Node000008" class="edge">
<title>Node1&#45;&gt;Node8</title>
<g id="a_edge7_Node000001_Node000008"><a xlink:title=" ">
<path fill="none" stroke="#63b8ff" d="M902.89,-897.67C892.89,-984.68 862.09,-1213.92 810.25,-1267 802.4,-1275.03 792.31,-1280.58 781.64,-1284.4"/>
<polygon fill="#63b8ff" stroke="#63b8ff" points="906.35,-898.2 903.99,-887.88 899.39,-897.42 906.35,-898.2"/>
</a>
</g>
</g>
<!-- Node9 -->
<g id="Node000009" class="node">
<title>Node9</title>
<g id="a_Node000009"><a xlink:href="test__create__action__domain__service_8cpp.html#a0ba4ff3ec435915cea4dd0214e61051d" target="_top" xlink:title=" ">
<polygon fill="white" stroke="#666666" points="788.12,-1258 640.88,-1258 640.88,-1238 788.12,-1238 788.12,-1258"/>
<text xml:space="preserve" text-anchor="middle" x="714.5" y="-1244.5" font-family="Helvetica,sans-Serif" font-size="10.00">BOOST_AUTO_TEST_CASE</text>
</a>
</g>
</g>
<!-- Node1&#45;&gt;Node9 -->
<g id="edge8_Node000001_Node000009" class="edge">
<title>Node1&#45;&gt;Node9</title>
<g id="a_edge8_Node000001_Node000009"><a xlink:title=" ">
<path fill="none" stroke="#63b8ff" d="M902.18,-897.68C891.06,-979.08 858.85,-1183.22 810.25,-1229 804.02,-1234.87 796.51,-1239.15 788.48,-1242.25"/>
<polygon fill="#63b8ff" stroke="#63b8ff" points="905.64,-898.24 903.5,-887.87 898.7,-897.31 905.64,-898.24"/>
</a>
</g>
</g>
<!-- Node10 -->
<g id="Node000010" class="node">
<title>Node10</title>
<g id="a_Node000010"><a xlink:href="test__create__command__domain__service_8cpp.html#ad2485bcc7175bf7b37f83d9007b43a1b" target="_top" xlink:title=" ">
<polygon fill="white" stroke="#666666" points="788.12,-1220 640.88,-1220 640.88,-1200 788.12,-1200 788.12,-1220"/>
<text xml:space="preserve" text-anchor="middle" x="714.5" y="-1206.5" font-family="Helvetica,sans-Serif" font-size="10.00">BOOST_AUTO_TEST_CASE</text>
</a>
</g>
</g>
<!-- Node1&#45;&gt;Node10 -->
<g id="edge9_Node000001_Node000010" class="edge">
<title>Node1&#45;&gt;Node10</title>
<g id="a_edge9_Node000001_Node000010"><a xlink:title=" ">
<path fill="none" stroke="#63b8ff" d="M907.21,-897.71C906.65,-964.33 895.32,-1113.14 810.25,-1191 803.94,-1196.78 796.38,-1201.01 788.33,-1204.08"/>
<polygon fill="#63b8ff" stroke="#63b8ff" points="910.71,-897.78 907.2,-887.78 903.71,-897.78 910.71,-897.78"/>
</a>
</g>
</g>
<!-- Node11 -->
<g id="Node000011" class="node">
<title>Node11</title>
<g id="a_Node000011"><a xlink:href="test__create__command__domain__service_8cpp.html#a974bd6bb0b13da03ba1a8578d0c5af8c" target="_top" xlink:title=" ">
<polygon fill="white" stroke="#666666" points="788.12,-1182 640.88,-1182 640.88,-1162 788.12,-1162 788.12,-1182"/>
<text xml:space="preserve" text-anchor="middle" x="714.5" y="-1168.5" font-family="Helvetica,sans-Serif" font-size="10.00">BOOST_AUTO_TEST_CASE</text>
</a>
</g>
</g>
<!-- Node1&#45;&gt;Node11 -->
<g id="edge10_Node000001_Node000011" class="edge">
<title>Node1&#45;&gt;Node11</title>
<g id="a_edge10_Node000001_Node000011"><a xlink:title=" ">
<path fill="none" stroke="#63b8ff" d="M905.66,-897.71C902.23,-958.46 885.86,-1086.2 810.25,-1153 803.96,-1158.55 796.52,-1162.66 788.61,-1165.68"/>
<polygon fill="#63b8ff" stroke="#63b8ff" points="909.15,-898.15 906.12,-888 902.15,-897.82 909.15,-898.15"/>
</a>
</g>
</g>
<!-- Node12 -->
<g id="Node000012" class="node">
<title>Node12</title>
<g id="a_Node000012"><a xlink:href="test-config__view_8cpp.html#a9593fb0b3c614953ed8545b960aed921" target="_top" xlink:title=" ">
<polygon fill="white" stroke="#666666" points="788.12,-1144 640.88,-1144 640.88,-1124 788.12,-1124 788.12,-1144"/>
<text xml:space="preserve" text-anchor="middle" x="714.5" y="-1130.5" font-family="Helvetica,sans-Serif" font-size="10.00">BOOST_AUTO_TEST_CASE</text>
</a>
</g>
</g>
<!-- Node1&#45;&gt;Node12 -->
<g id="edge11_Node000001_Node000012" class="edge">
<title>Node1&#45;&gt;Node12</title>
<g id="a_edge11_Node000001_Node000012"><a xlink:title=" ">
<path fill="none" stroke="#63b8ff" d="M903.72,-897.53C897.32,-951.94 876.55,-1059.01 810.25,-1115 803.84,-1120.41 796.32,-1124.43 788.37,-1127.4"/>
<polygon fill="#63b8ff" stroke="#63b8ff" points="907.19,-897.95 904.77,-887.64 900.23,-897.21 907.19,-897.95"/>
</a>
</g>
</g>
<!-- Node13 -->
<g id="Node000013" class="node">
<title>Node13</title>
<g id="a_Node000013"><a xlink:href="test__config__view_8cpp.html#a64f4957062bcf5a986b3a1b29b782f8d" target="_top" xlink:title="menu_to_radialmenu : TestCase">
<polygon fill="white" stroke="#666666" points="788.12,-1106 640.88,-1106 640.88,-1086 788.12,-1086 788.12,-1106"/>
<text xml:space="preserve" text-anchor="middle" x="714.5" y="-1092.5" font-family="Helvetica,sans-Serif" font-size="10.00">BOOST_AUTO_TEST_CASE</text>
</a>
</g>
</g>
<!-- Node1&#45;&gt;Node13 -->
<g id="edge12_Node000001_Node000013" class="edge">
<title>Node1&#45;&gt;Node13</title>
<g id="a_edge12_Node000001_Node000013"><a xlink:title=" ">
<path fill="none" stroke="#63b8ff" d="M901.09,-897.7C891.58,-945.36 867.18,-1031.69 810.25,-1077 803.82,-1082.12 796.38,-1085.97 788.55,-1088.86"/>
<polygon fill="#63b8ff" stroke="#63b8ff" points="904.51,-898.42 902.92,-887.95 897.63,-897.13 904.51,-898.42"/>
</a>
</g>
</g>
<!-- Node14 -->
<g id="Node000014" class="node">
<title>Node14</title>
<g id="a_Node000014"><a xlink:href="test__config__view_8cpp.html#a1702d8786d91383fdec011242489ce16" target="_top" xlink:title="menu : TestCase">
<polygon fill="white" stroke="#666666" points="788.12,-1068 640.88,-1068 640.88,-1048 788.12,-1048 788.12,-1068"/>
<text xml:space="preserve" text-anchor="middle" x="714.5" y="-1054.5" font-family="Helvetica,sans-Serif" font-size="10.00">BOOST_AUTO_TEST_CASE</text>
</a>
</g>
</g>
<!-- Node1&#45;&gt;Node14 -->
<g id="edge13_Node000001_Node000014" class="edge">
<title>Node1&#45;&gt;Node14</title>
<g id="a_edge13_Node000001_Node000014"><a xlink:title=" ">
<path fill="none" stroke="#63b8ff" d="M897.63,-897.13C885.09,-937.26 858.19,-1003.83 810.25,-1039 803.62,-1043.86 796.06,-1047.56 788.16,-1050.36"/>
<polygon fill="#63b8ff" stroke="#63b8ff" points="900.92,-898.35 900.43,-887.77 894.21,-896.35 900.92,-898.35"/>
</a>
</g>
</g>
<!-- Node15 -->
<g id="Node000015" class="node">
<title>Node15</title>
<g id="a_Node000015"><a xlink:href="test__create__command__domain__service_8cpp.html#ab4118373ffdfdf1eae74f605557d5ed9" target="_top" xlink:title=" ">
<polygon fill="white" stroke="#666666" points="788.12,-1030 640.88,-1030 640.88,-1010 788.12,-1010 788.12,-1030"/>
<text xml:space="preserve" text-anchor="middle" x="714.5" y="-1016.5" font-family="Helvetica,sans-Serif" font-size="10.00">BOOST_AUTO_TEST_CASE</text>
</a>
</g>
</g>
<!-- Node1&#45;&gt;Node15 -->
<g id="edge14_Node000001_Node000015" class="edge">
<title>Node1&#45;&gt;Node15</title>
<g id="a_edge14_Node000001_Node000015"><a xlink:title=" ">
<path fill="none" stroke="#63b8ff" d="M892.59,-896.4C877.19,-928.2 849.29,-975.53 810.25,-1001 803.51,-1005.4 795.96,-1008.82 788.15,-1011.47"/>
<polygon fill="#63b8ff" stroke="#63b8ff" points="895.62,-898.18 896.68,-887.64 889.28,-895.22 895.62,-898.18"/>
</a>
</g>
</g>
<!-- Node16 -->
<g id="Node000016" class="node">
<title>Node16</title>
<g id="a_Node000016"><a xlink:href="_test_menu_view_presenter_8cpp.html#a151ccc4fe04555bd94ebef4472e1c21b" target="_top" xlink:title=" ">
<polygon fill="white" stroke="#666666" points="346.62,-554 199.38,-554 199.38,-522 346.62,-522 346.62,-554"/>
<text xml:space="preserve" text-anchor="start" x="207.38" y="-540.5" font-family="Helvetica,sans-Serif" font-size="10.00">BOOST_AUTO_TEST_CASE</text>
<text xml:space="preserve" text-anchor="middle" x="273" y="-528.5" font-family="Helvetica,sans-Serif" font-size="10.00">_TEMPLATE</text>
</a>
</g>
</g>
<!-- Node1&#45;&gt;Node16 -->
<g id="edge15_Node000001_Node000016" class="edge">
<title>Node1&#45;&gt;Node16</title>
<g id="a_edge15_Node000001_Node000016"><a xlink:title=" ">
<path fill="none" stroke="#63b8ff" d="M906.57,-897.57C906.02,-1013.29 897.5,-1392.58 810.25,-1467 745.5,-1522.24 690.64,-1512.56 618.75,-1467 280.54,-1252.67 272.34,-660.15 273.65,-554.29"/>
<polygon fill="#63b8ff" stroke="#63b8ff" points="910.07,-897.82 906.59,-887.81 903.07,-897.8 910.07,-897.82"/>
</a>
</g>
</g>
<!-- Node17 -->
<g id="Node000017" class="node">
<title>Node17</title>
<g id="a_Node000017"><a xlink:href="test__config__view__factory__service_8cpp.html#a441c22d36fc79d933039d9644da6f4f9" target="_top" xlink:title="build_view_model : TestCase">
<polygon fill="white" stroke="#666666" points="796,-930 633,-930 633,-910 796,-910 796,-930"/>
<text xml:space="preserve" text-anchor="middle" x="714.5" y="-916.5" font-family="Helvetica,sans-Serif" font-size="10.00">BOOST_FIXTURE_TEST_CASE</text>
</a>
</g>
</g>
<!-- Node1&#45;&gt;Node17 -->
<g id="edge16_Node000001_Node000017" class="edge">
<title>Node1&#45;&gt;Node17</title>
<g id="a_edge16_Node000001_Node000017"><a xlink:title=" ">
<path fill="none" stroke="#63b8ff" d="M842.36,-890.38C831.74,-894.25 820.76,-897.95 810.25,-901 799.21,-904.2 787.3,-907.05 775.77,-909.51"/>
<polygon fill="#63b8ff" stroke="#63b8ff" points="843.27,-893.77 851.42,-887 840.83,-887.21 843.27,-893.77"/>
</a>
</g>
</g>
<!-- Node18 -->
<g id="Node000018" class="node">
<title>Node18</title>
<g id="a_Node000018"><a xlink:href="namespacedepicture__menu_1_1domain_1_1services.html#ac9a5a8c1e1f4e196526b573aa89c870d" target="_top" xlink:title=" ">
<polygon fill="white" stroke="#666666" points="775.75,-992 653.25,-992 653.25,-948 775.75,-948 775.75,-992"/>
<text xml:space="preserve" text-anchor="start" x="661.25" y="-978.5" font-family="Helvetica,sans-Serif" font-size="10.00">depicture_menu::domain</text>
<text xml:space="preserve" text-anchor="start" x="661.25" y="-966.5" font-family="Helvetica,sans-Serif" font-size="10.00">::services::build_action</text>
<text xml:space="preserve" text-anchor="middle" x="714.5" y="-954.5" font-family="Helvetica,sans-Serif" font-size="10.00">_service</text>
</a>
</g>
</g>
<!-- Node1&#45;&gt;Node18 -->
<g id="edge17_Node000001_Node000018" class="edge">
<title>Node1&#45;&gt;Node18</title>
<g id="a_edge17_Node000001_Node000018"><a xlink:title=" ">
<path fill="none" stroke="#63b8ff" d="M874.51,-893.51C856.65,-908.75 833.39,-926.68 810.25,-939 799.63,-944.65 787.79,-949.52 776.18,-953.61"/>
<polygon fill="#63b8ff" stroke="#63b8ff" points="876.43,-896.47 881.67,-887.27 871.83,-891.19 876.43,-896.47"/>
</a>
</g>
</g>
<!-- Node20 -->
<g id="Node000020" class="node">
<title>Node20</title>
<g id="a_Node000020"><a xlink:href="classdepicture__menu_1_1domain_1_1services_1_1common__action__builder.html#acab7593e460573f261b739ef666fa3c9" target="_top" xlink:title=" ">
<polygon fill="white" stroke="#666666" points="784.38,-670 644.62,-670 644.62,-626 784.38,-626 784.38,-670"/>
<text xml:space="preserve" text-anchor="start" x="652.62" y="-656.5" font-family="Helvetica,sans-Serif" font-size="10.00">depicture_menu::domain</text>
<text xml:space="preserve" text-anchor="start" x="652.62" y="-644.5" font-family="Helvetica,sans-Serif" font-size="10.00">::services::common_action</text>
<text xml:space="preserve" text-anchor="middle" x="714.5" y="-632.5" font-family="Helvetica,sans-Serif" font-size="10.00">_builder::build_default_menu</text>
</a>
</g>
</g>
<!-- Node1&#45;&gt;Node20 -->
<g id="edge19_Node000001_Node000020" class="edge">
<title>Node1&#45;&gt;Node20</title>
<g id="a_edge19_Node000001_Node000020"><a xlink:title=" ">
<path fill="none" stroke="#63b8ff" d="M897.72,-830.88C885.1,-789.57 857.94,-719.47 810.25,-679 802.73,-672.62 793.86,-667.54 784.61,-663.5"/>
<polygon fill="#63b8ff" stroke="#63b8ff" points="894.3,-831.65 900.47,-840.26 901.01,-829.68 894.3,-831.65"/>
</a>
</g>
</g>
<!-- Node21 -->
<g id="Node000021" class="node">
<title>Node21</title>
<g id="a_Node000021"><a xlink:href="classdepicture__menu_1_1domain_1_1services_1_1common__action__builder.html#aa670bccd31eab4473fa4bf345cd44ff4" target="_top" xlink:title=" ">
<polygon fill="white" stroke="#666666" points="781.38,-744 647.62,-744 647.62,-688 781.38,-688 781.38,-744"/>
<text xml:space="preserve" text-anchor="start" x="655.62" y="-730.5" font-family="Helvetica,sans-Serif" font-size="10.00">depicture_menu::domain</text>
<text xml:space="preserve" text-anchor="start" x="655.62" y="-718.5" font-family="Helvetica,sans-Serif" font-size="10.00">::services::common_action</text>
<text xml:space="preserve" text-anchor="start" x="655.62" y="-706.5" font-family="Helvetica,sans-Serif" font-size="10.00">_builder::build_open_sub</text>
<text xml:space="preserve" text-anchor="middle" x="714.5" y="-694.5" font-family="Helvetica,sans-Serif" font-size="10.00">_menu_action</text>
</a>
</g>
</g>
<!-- Node1&#45;&gt;Node21 -->
<g id="edge21_Node000001_Node000021" class="edge">
<title>Node1&#45;&gt;Node21</title>
<g id="a_edge21_Node000001_Node000021"><a xlink:title=" ">
<path fill="none" stroke="#63b8ff" d="M885.51,-832.29C867.91,-807.8 840.79,-774.55 810.25,-753 801.59,-746.89 791.79,-741.61 781.85,-737.11"/>
<polygon fill="#63b8ff" stroke="#63b8ff" points="882.52,-834.13 891.13,-840.3 888.25,-830.11 882.52,-834.13"/>
</a>
</g>
</g>
<!-- Node22 -->
<g id="Node000022" class="node">
<title>Node22</title>
<g id="a_Node000022"><a xlink:href="classdepicture__menu_1_1domain_1_1services_1_1common__action__builder.html#af18671f61c8ea60125e9274ac2c5d130" target="_top" xlink:title=" ">
<polygon fill="white" stroke="#666666" points="781.38,-892 647.62,-892 647.62,-836 781.38,-836 781.38,-892"/>
<text xml:space="preserve" text-anchor="start" x="655.62" y="-878.5" font-family="Helvetica,sans-Serif" font-size="10.00">depicture_menu::domain</text>
<text xml:space="preserve" text-anchor="start" x="655.62" y="-866.5" font-family="Helvetica,sans-Serif" font-size="10.00">::services::common_action</text>
<text xml:space="preserve" text-anchor="start" x="655.62" y="-854.5" font-family="Helvetica,sans-Serif" font-size="10.00">_builder::build_open_sub</text>
<text xml:space="preserve" text-anchor="middle" x="714.5" y="-842.5" font-family="Helvetica,sans-Serif" font-size="10.00">_menu_command</text>
</a>
</g>
</g>
<!-- Node1&#45;&gt;Node22 -->
<g id="edge22_Node000001_Node000022" class="edge">
<title>Node1&#45;&gt;Node22</title>
<g id="a_edge22_Node000001_Node000022"><a xlink:title=" ">
<path fill="none" stroke="#63b8ff" d="M834.58,-864C817.22,-864 798.75,-864 781.66,-864"/>
<polygon fill="#63b8ff" stroke="#63b8ff" points="834.29,-867.5 844.29,-864 834.29,-860.5 834.29,-867.5"/>
</a>
</g>
</g>
<!-- Node23 -->
<g id="Node000023" class="node">
<title>Node23</title>
<g id="a_Node000023"><a xlink:href="classdepicture__menu_1_1domain_1_1services_1_1common__action__builder.html#a084ac593bb69490503932bc699ad5f51" target="_top" xlink:title=" ">
<polygon fill="white" stroke="#666666" points="798.25,-608 630.75,-608 630.75,-564 798.25,-564 798.25,-608"/>
<text xml:space="preserve" text-anchor="start" x="638.75" y="-594.5" font-family="Helvetica,sans-Serif" font-size="10.00">depicture_menu::domain</text>
<text xml:space="preserve" text-anchor="start" x="638.75" y="-582.5" font-family="Helvetica,sans-Serif" font-size="10.00">::services::common_action</text>
<text xml:space="preserve" text-anchor="middle" x="714.5" y="-570.5" font-family="Helvetica,sans-Serif" font-size="10.00">_builder::build_shellexecute_action</text>
</a>
</g>
</g>
<!-- Node1&#45;&gt;Node23 -->
<g id="edge24_Node000001_Node000023" class="edge">
<title>Node1&#45;&gt;Node23</title>
<g id="a_edge24_Node000001_Node000023"><a xlink:title=" ">
<path fill="none" stroke="#63b8ff" d="M902.56,-830.32C894.61,-777.51 871.82,-675.25 810.25,-617 806.73,-613.67 802.85,-610.7 798.72,-608.04"/>
<polygon fill="#63b8ff" stroke="#63b8ff" points="899.09,-830.8 903.95,-840.22 906.02,-829.83 899.09,-830.8"/>
</a>
</g>
</g>
<!-- Node24 -->
<g id="Node000024" class="node">
<title>Node24</title>
<g id="a_Node000024"><a xlink:href="classdepicture__menu_1_1domain_1_1services_1_1common__action__builder.html#afec53858e8cc81a55655db39b721c36a" target="_top" xlink:title=" ">
<polygon fill="white" stroke="#666666" points="782.5,-818 646.5,-818 646.5,-762 782.5,-762 782.5,-818"/>
<text xml:space="preserve" text-anchor="start" x="654.5" y="-804.5" font-family="Helvetica,sans-Serif" font-size="10.00">depicture_menu::domain</text>
<text xml:space="preserve" text-anchor="start" x="654.5" y="-792.5" font-family="Helvetica,sans-Serif" font-size="10.00">::services::common_action</text>
<text xml:space="preserve" text-anchor="start" x="654.5" y="-780.5" font-family="Helvetica,sans-Serif" font-size="10.00">_builder::build_shellexecute</text>
<text xml:space="preserve" text-anchor="middle" x="714.5" y="-768.5" font-family="Helvetica,sans-Serif" font-size="10.00">_command</text>
</a>
</g>
</g>
<!-- Node1&#45;&gt;Node24 -->
<g id="edge25_Node000001_Node000024" class="edge">
<title>Node1&#45;&gt;Node24</title>
<g id="a_edge25_Node000001_Node000024"><a xlink:title=" ">
<path fill="none" stroke="#63b8ff" d="M838,-837.46C820.06,-830.51 800.74,-823.02 782.86,-816.1"/>
<polygon fill="#63b8ff" stroke="#63b8ff" points="836.67,-840.7 847.26,-841.05 839.2,-834.17 836.67,-840.7"/>
</a>
</g>
</g>
<!-- Node25 -->
<g id="Node000025" class="node">
<title>Node25</title>
<g id="a_Node000025"><a xlink:href="classdepicture__menu_1_1presentations_1_1menu__view__presenter.html#a7cee659c00af1f57cbe9f2214fab8ecf" target="_top" xlink:title=" ">
<polygon fill="white" stroke="#666666" points="582.75,-476 398.75,-476 398.75,-444 582.75,-444 582.75,-476"/>
<text xml:space="preserve" text-anchor="start" x="406.75" y="-462.5" font-family="Helvetica,sans-Serif" font-size="10.00">depicture_menu::presentations</text>
<text xml:space="preserve" text-anchor="middle" x="490.75" y="-450.5" font-family="Helvetica,sans-Serif" font-size="10.00">::menu_view_presenter::change_menu</text>
</a>
</g>
</g>
<!-- Node1&#45;&gt;Node25 -->
<g id="edge27_Node000001_Node000025" class="edge">
<title>Node1&#45;&gt;Node25</title>
<g id="a_edge27_Node000001_Node000025"><a xlink:title=" ">
<path fill="none" stroke="#63b8ff" d="M901.77,-830.67C890,-752.47 856.9,-560.58 810.25,-518 801.77,-510.26 674.2,-488.75 583.13,-474.21"/>
<polygon fill="#63b8ff" stroke="#63b8ff" points="898.27,-830.91 903.2,-840.29 905.19,-829.88 898.27,-830.91"/>
</a>
</g>
</g>
<!-- Node26 -->
<g id="Node000026" class="node">
<title>Node26</title>
<g id="a_Node000026"><a xlink:href="classdepicture__menu_1_1presentations_1_1menu__view__presenter.html#afe97162d40d1595753ccb38f9ac96ad6" target="_top" xlink:title=" ">
<polygon fill="white" stroke="#666666" points="362.75,-397 183.25,-397 183.25,-365 362.75,-365 362.75,-397"/>
<text xml:space="preserve" text-anchor="start" x="191.25" y="-383.5" font-family="Helvetica,sans-Serif" font-size="10.00">depicture_menu::presentations</text>
<text xml:space="preserve" text-anchor="middle" x="273" y="-371.5" font-family="Helvetica,sans-Serif" font-size="10.00">::menu_view_presenter::create_menu</text>
</a>
</g>
</g>
<!-- Node1&#45;&gt;Node26 -->
<g id="edge35_Node000001_Node000026" class="edge">
<title>Node1&#45;&gt;Node26</title>
<g id="a_edge35_Node000001_Node000026"><a xlink:title=" ">
<path fill="none" stroke="#63b8ff" d="M906.98,-830.32C907.95,-708.84 904.16,-296.01 810.25,-215 745.8,-159.41 701.73,-196.06 618.75,-215 489.55,-244.49 352.35,-328.83 298.09,-364.62"/>
<polygon fill="#63b8ff" stroke="#63b8ff" points="903.49,-830.24 906.89,-840.27 910.49,-830.31 903.49,-830.24"/>
</a>
</g>
</g>
<!-- Node29 -->
<g id="Node000029" class="node">
<title>Node29</title>
<g id="a_Node000029"><a xlink:href="classdepicture__menu_1_1domain_1_1commands_1_1command.html#a28f20ff1b358cf780f803a916e9a88c7" target="_top" xlink:title=" ">
<polygon fill="white" stroke="#666666" points="798.25,-432 630.75,-432 630.75,-400 798.25,-400 798.25,-432"/>
<text xml:space="preserve" text-anchor="start" x="638.75" y="-418.5" font-family="Helvetica,sans-Serif" font-size="10.00">depicture_menu::domain</text>
<text xml:space="preserve" text-anchor="middle" x="714.5" y="-406.5" font-family="Helvetica,sans-Serif" font-size="10.00">::commands::command::command</text>
</a>
</g>
</g>
<!-- Node1&#45;&gt;Node29 -->
<g id="edge32_Node000001_Node000029" class="edge">
<title>Node1&#45;&gt;Node29</title>
<g id="a_edge32_Node000001_Node000029"><a xlink:title=" ">
<path fill="none" stroke="#63b8ff" d="M903.29,-830.21C894.05,-740.11 864.54,-497.18 810.25,-441 806.7,-437.33 802.69,-434.18 798.36,-431.47"/>
<polygon fill="#63b8ff" stroke="#63b8ff" points="899.8,-830.52 904.28,-840.12 906.77,-829.83 899.8,-830.52"/>
</a>
</g>
</g>
<!-- Node30 -->
<g id="Node000030" class="node">
<title>Node30</title>
<g id="a_Node000030"><a xlink:href="classdepicture__menu_1_1domain_1_1commands_1_1command.html#accf7c2a00f214fd3333d02f07ac51ee4" target="_top" xlink:title=" ">
<polygon fill="white" stroke="#666666" points="798.25,-382 630.75,-382 630.75,-350 798.25,-350 798.25,-382"/>
<text xml:space="preserve" text-anchor="start" x="638.75" y="-368.5" font-family="Helvetica,sans-Serif" font-size="10.00">depicture_menu::domain</text>
<text xml:space="preserve" text-anchor="middle" x="714.5" y="-356.5" font-family="Helvetica,sans-Serif" font-size="10.00">::commands::command::command</text>
</a>
</g>
</g>
<!-- Node1&#45;&gt;Node30 -->
<g id="edge33_Node000001_Node000030" class="edge">
<title>Node1&#45;&gt;Node30</title>
<g id="a_edge33_Node000001_Node000030"><a xlink:title=" ">
<path fill="none" stroke="#63b8ff" d="M904.17,-830.23C896.79,-732.96 870.74,-455.05 810.25,-391 806.75,-387.29 802.76,-384.1 798.46,-381.37"/>
<polygon fill="#63b8ff" stroke="#63b8ff" points="900.68,-830.46 904.91,-840.18 907.66,-829.95 900.68,-830.46"/>
</a>
</g>
</g>
<!-- Node31 -->
<g id="Node000031" class="node">
<title>Node31</title>
<g id="a_Node000031"><a xlink:href="namespacedepicture__menu_1_1usecase.html#a2c254e4837bdea923a00c9bb9387ea05" target="_top" xlink:title=" ">
<polygon fill="white" stroke="#666666" points="778.38,-332 650.62,-332 650.62,-300 778.38,-300 778.38,-332"/>
<text xml:space="preserve" text-anchor="start" x="658.62" y="-318.5" font-family="Helvetica,sans-Serif" font-size="10.00">depicture_menu::usecase</text>
<text xml:space="preserve" text-anchor="middle" x="714.5" y="-306.5" font-family="Helvetica,sans-Serif" font-size="10.00">::convert_to_dto</text>
</a>
</g>
</g>
<!-- Node1&#45;&gt;Node31 -->
<g id="edge34_Node000001_Node000031" class="edge">
<title>Node1&#45;&gt;Node31</title>
<g id="a_edge34_Node000001_Node000031"><a xlink:title=" ">
<path fill="none" stroke="#63b8ff" d="M904.89,-830.18C899.25,-726.06 876.95,-412.98 810.25,-341 801.81,-331.89 790.48,-325.94 778.59,-322.1"/>
<polygon fill="#63b8ff" stroke="#63b8ff" points="901.39,-830.23 905.4,-840.03 908.38,-829.86 901.39,-830.23"/>
</a>
</g>
</g>
<!-- Node32 -->
<g id="Node000032" class="node">
<title>Node32</title>
<g id="a_Node000032"><a xlink:href="namespacedetail.html#abb90c252733421cc8d388c667a925831" target="_top" xlink:title=" ">
<polygon fill="white" stroke="#666666" points="765.25,-282 663.75,-282 663.75,-262 765.25,-262 765.25,-282"/>
<text xml:space="preserve" text-anchor="middle" x="714.5" y="-268.5" font-family="Helvetica,sans-Serif" font-size="10.00">detail::create_menu</text>
</a>
</g>
</g>
<!-- Node1&#45;&gt;Node32 -->
<g id="edge36_Node000001_Node000032" class="edge">
<title>Node1&#45;&gt;Node32</title>
<g id="a_edge36_Node000001_Node000032"><a xlink:title=" ">
<path fill="none" stroke="#63b8ff" d="M905.68,-830.15C902.26,-719.13 885.61,-368.77 810.25,-291 798.69,-279.07 781.9,-273.53 765.66,-271.21"/>
<polygon fill="#63b8ff" stroke="#63b8ff" points="902.18,-830.19 905.96,-840.08 909.17,-829.99 902.18,-830.19"/>
</a>
</g>
</g>
<!-- Node33 -->
<g id="Node000033" class="node">
<title>Node33</title>
<g id="a_Node000033"><a xlink:href="namespacedepicture__menu_1_1usecase_1_1detail__usecase__change__menu__item.html#aba778dda63ee385a31fe471a4cfb8155" target="_top" xlink:title="common_action_select 処理">
<polygon fill="white" stroke="#666666" points="810.25,-168 618.75,-168 618.75,-124 810.25,-124 810.25,-168"/>
<text xml:space="preserve" text-anchor="start" x="626.75" y="-154.5" font-family="Helvetica,sans-Serif" font-size="10.00">depicture_menu::usecase</text>
<text xml:space="preserve" text-anchor="start" x="626.75" y="-142.5" font-family="Helvetica,sans-Serif" font-size="10.00">::detail_usecase_change</text>
<text xml:space="preserve" text-anchor="middle" x="714.5" y="-130.5" font-family="Helvetica,sans-Serif" font-size="10.00">_menu_item::do_common_action_select</text>
</a>
</g>
</g>
<!-- Node1&#45;&gt;Node33 -->
<g id="edge37_Node000001_Node000033" class="edge">
<title>Node1&#45;&gt;Node33</title>
<g id="a_edge37_Node000001_Node000033"><a xlink:title=" ">
<path fill="none" stroke="#63b8ff" d="M906.15,-830.51C904.22,-707.7 891.68,-283.95 810.25,-182 806.08,-176.78 801.05,-172.31 795.53,-168.49"/>
<polygon fill="#63b8ff" stroke="#63b8ff" points="902.65,-830.29 906.29,-840.24 909.65,-830.19 902.65,-830.29"/>
</a>
</g>
</g>
<!-- Node35 -->
<g id="Node000035" class="node">
<title>Node35</title>
<g id="a_Node000035"><a xlink:href="namespacedetail.html#afbe4518c767ced27133a1ca7027a02b0" target="_top" xlink:title=" ">
<polygon fill="white" stroke="#666666" points="758.12,-470 670.88,-470 670.88,-450 758.12,-450 758.12,-470"/>
<text xml:space="preserve" text-anchor="middle" x="714.5" y="-456.5" font-family="Helvetica,sans-Serif" font-size="10.00">detail::init_menu</text>
</a>
</g>
</g>
<!-- Node1&#45;&gt;Node35 -->
<g id="edge39_Node000001_Node000035" class="edge">
<title>Node1&#45;&gt;Node35</title>
<g id="a_edge39_Node000001_Node000035"><a xlink:title=" ">
<path fill="none" stroke="#63b8ff" d="M902.38,-830.25C891.52,-746.67 859.5,-533.25 810.25,-484 796.69,-470.44 776.64,-464.18 758.47,-461.41"/>
<polygon fill="#63b8ff" stroke="#63b8ff" points="898.9,-830.63 903.64,-840.1 905.85,-829.74 898.9,-830.63"/>
</a>
</g>
</g>
<!-- Node36 -->
<g id="Node000036" class="node">
<title>Node36</title>
<g id="a_Node000036"><a xlink:href="namespacedetail.html#aeeadbaa968cbf337fbc005755d6df61d" target="_top" xlink:title=" ">
<polygon fill="white" stroke="#666666" points="762.25,-244 666.75,-244 666.75,-224 762.25,-224 762.25,-244"/>
<text xml:space="preserve" text-anchor="middle" x="714.5" y="-230.5" font-family="Helvetica,sans-Serif" font-size="10.00">detail::sync_menu</text>
</a>
</g>
</g>
<!-- Node1&#45;&gt;Node36 -->
<g id="edge41_Node000001_Node000036" class="edge">
<title>Node1&#45;&gt;Node36</title>
<g id="a_edge41_Node000001_Node000036"><a xlink:title=" ">
<path fill="none" stroke="#63b8ff" d="M906.08,-830.59C903.9,-715.34 890.66,-336.83 810.25,-253 797.94,-240.17 779.58,-234.7 762.29,-232.71"/>
<polygon fill="#63b8ff" stroke="#63b8ff" points="902.57,-830.36 906.24,-840.3 909.57,-830.24 902.57,-830.36"/>
</a>
</g>
</g>
<!-- Node37 -->
<g id="Node000037" class="node">
<title>Node37</title>
<g id="a_Node000037"><a xlink:href="namespacedepicture__menu_1_1cs__binding.html#a2592218dc30d528eaf417e68d98de4a2" target="_top" xlink:title=" ">
<polygon fill="white" stroke="#666666" points="770.12,-106 658.88,-106 658.88,-62 770.12,-62 770.12,-106"/>
<text xml:space="preserve" text-anchor="start" x="666.88" y="-92.5" font-family="Helvetica,sans-Serif" font-size="10.00">depicture_menu::cs</text>
<text xml:space="preserve" text-anchor="start" x="666.88" y="-80.5" font-family="Helvetica,sans-Serif" font-size="10.00">_binding::transcription</text>
<text xml:space="preserve" text-anchor="middle" x="714.5" y="-68.5" font-family="Helvetica,sans-Serif" font-size="10.00">_command</text>
</a>
</g>
</g>
<!-- Node1&#45;&gt;Node37 -->
<g id="edge43_Node000001_Node000037" class="edge">
<title>Node1&#45;&gt;Node37</title>
<g id="a_edge43_Node000001_Node000037"><a xlink:title=" ">
<path fill="none" stroke="#63b8ff" d="M906.78,-830.55C907.19,-699.96 902.23,-226.18 810.25,-115 800.21,-102.86 785.34,-95.44 770.33,-90.91"/>
<polygon fill="#63b8ff" stroke="#63b8ff" points="903.28,-830.23 906.73,-840.24 910.28,-830.26 903.28,-830.23"/>
</a>
</g>
</g>
<!-- Node38 -->
<g id="Node000038" class="node">
<title>Node38</title>
<g id="a_Node000038"><a xlink:href="classdepicture__menu_1_1domain_1_1commands_1_1command.html#a7ad7da019f25dbd3fe9f2535ea8d1788" target="_top" xlink:title=" ">
<polygon fill="white" stroke="#666666" points="791.5,-44 637.5,-44 637.5,0 791.5,0 791.5,-44"/>
<text xml:space="preserve" text-anchor="start" x="645.5" y="-30.5" font-family="Helvetica,sans-Serif" font-size="10.00">depicture_menu::domain</text>
<text xml:space="preserve" text-anchor="start" x="645.5" y="-18.5" font-family="Helvetica,sans-Serif" font-size="10.00">::commands::command::update</text>
<text xml:space="preserve" text-anchor="middle" x="714.5" y="-6.5" font-family="Helvetica,sans-Serif" font-size="10.00">_default_name</text>
</a>
</g>
</g>
<!-- Node1&#45;&gt;Node38 -->
<g id="edge44_Node000001_Node000038" class="edge">
<title>Node1&#45;&gt;Node38</title>
<g id="a_edge44_Node000001_Node000038"><a xlink:title=" ">
<path fill="none" stroke="#63b8ff" d="M904.64,-830.53C896.27,-685.3 860.39,-114.21 810.25,-53 805.2,-46.84 798.91,-41.89 791.99,-37.92"/>
<polygon fill="#63b8ff" stroke="#63b8ff" points="901.13,-830.46 905.19,-840.24 908.12,-830.06 901.13,-830.46"/>
</a>
</g>
</g>
<!-- Node19 -->
<g id="Node000019" class="node">
<title>Node19</title>
<g id="a_Node000019"><a xlink:href="namespacedepicture__menu_1_1domain_1_1services.html#a8b23757a00f9f8bfb1a02293d84fa0d7" target="_top" xlink:title=" ">
<polygon fill="white" stroke="#666666" points="552,-992 429.5,-992 429.5,-948 552,-948 552,-992"/>
<text xml:space="preserve" text-anchor="start" x="437.5" y="-978.5" font-family="Helvetica,sans-Serif" font-size="10.00">depicture_menu::domain</text>
<text xml:space="preserve" text-anchor="start" x="437.5" y="-966.5" font-family="Helvetica,sans-Serif" font-size="10.00">::services::build_action</text>
<text xml:space="preserve" text-anchor="middle" x="490.75" y="-954.5" font-family="Helvetica,sans-Serif" font-size="10.00">_service</text>
</a>
</g>
</g>
<!-- Node18&#45;&gt;Node19 -->
<g id="edge18_Node000018_Node000019" class="edge">
<title>Node18&#45;&gt;Node19</title>
<g id="a_edge18_Node000018_Node000019"><a xlink:title=" ">
<path fill="none" stroke="#63b8ff" d="M641.65,-970C612.79,-970 579.88,-970 552.27,-970"/>
<polygon fill="#63b8ff" stroke="#63b8ff" points="641.39,-973.5 651.39,-970 641.39,-966.5 641.39,-973.5"/>
</a>
</g>
</g>
<!-- Node20&#45;&gt;Node4 -->
<g id="edge20_Node000020_Node000004" class="edge">
<title>Node20&#45;&gt;Node4</title>
<g id="a_edge20_Node000020_Node000004"><a xlink:title=" ">
<path fill="none" stroke="#63b8ff" d="M633.76,-673.53C596.01,-685.62 553.02,-699.38 524.33,-708.57"/>
<polygon fill="#63b8ff" stroke="#63b8ff" points="634.35,-677.02 642.81,-670.63 632.22,-670.35 634.35,-677.02"/>
</a>
</g>
</g>
<!-- Node22&#45;&gt;Node4 -->
<g id="edge23_Node000022_Node000004" class="edge">
<title>Node22&#45;&gt;Node4</title>
<g id="a_edge23_Node000022_Node000004"><a xlink:title=" ">
<path fill="none" stroke="#63b8ff" d="M637.12,-836.78C630.78,-833.74 624.57,-830.48 618.75,-827 570.05,-797.91 521.48,-750.05 501.38,-729.22"/>
<polygon fill="#63b8ff" stroke="#63b8ff" points="635.24,-839.77 645.79,-840.74 638.15,-833.41 635.24,-839.77"/>
</a>
</g>
</g>
<!-- Node24&#45;&gt;Node4 -->
<g id="edge26_Node000024_Node000004" class="edge">
<title>Node24&#45;&gt;Node4</title>
<g id="a_edge26_Node000024_Node000004"><a xlink:title=" ">
<path fill="none" stroke="#63b8ff" d="M635.47,-765.01C597.29,-752.79 553.4,-738.74 524.27,-729.41"/>
<polygon fill="#63b8ff" stroke="#63b8ff" points="634.03,-768.23 644.62,-767.95 636.17,-761.56 634.03,-768.23"/>
</a>
</g>
</g>
<!-- Node25&#45;&gt;Node16 -->
<g id="edge28_Node000025_Node000016" class="edge">
<title>Node25&#45;&gt;Node16</title>
<g id="a_edge28_Node000025_Node000016"><a xlink:title=" ">
<path fill="none" stroke="#63b8ff" d="M433.57,-480.31C398.03,-493.16 352.69,-509.55 319.43,-521.58"/>
<polygon fill="#63b8ff" stroke="#63b8ff" points="434.62,-483.65 442.84,-476.96 432.24,-477.07 434.62,-483.65"/>
</a>
</g>
</g>
<!-- Node25&#45;&gt;Node26 -->
<g id="edge29_Node000025_Node000026" class="edge">
<title>Node25&#45;&gt;Node26</title>
<g id="a_edge29_Node000025_Node000026"><a xlink:title=" ">
<path fill="none" stroke="#63b8ff" d="M434.03,-439.6C398.23,-426.49 352.36,-409.69 318.91,-397.44"/>
<polygon fill="#63b8ff" stroke="#63b8ff" points="432.77,-442.86 443.36,-443.01 435.18,-436.29 432.77,-442.86"/>
</a>
</g>
</g>
<!-- Node27 -->
<g id="Node000027" class="node">
<title>Node27</title>
<g id="a_Node000027"><a xlink:href="_test_menu_view_presenter_8cpp.html#ae923463343707b4e44092d1eac37d2d9" target="_top" xlink:title=" ">
<polygon fill="white" stroke="#666666" points="147.25,-413 0,-413 0,-393 147.25,-393 147.25,-413"/>
<text xml:space="preserve" text-anchor="middle" x="73.62" y="-399.5" font-family="Helvetica,sans-Serif" font-size="10.00">BOOST_AUTO_TEST_CASE</text>
</a>
</g>
</g>
<!-- Node26&#45;&gt;Node27 -->
<g id="edge30_Node000026_Node000027" class="edge">
<title>Node26&#45;&gt;Node27</title>
<g id="a_edge30_Node000026_Node000027"><a xlink:title=" ">
<path fill="none" stroke="#63b8ff" d="M171.52,-392.2C163.5,-393.09 155.5,-393.99 147.72,-394.85"/>
<polygon fill="#63b8ff" stroke="#63b8ff" points="171.79,-395.69 181.34,-391.11 171.01,-388.74 171.79,-395.69"/>
</a>
</g>
</g>
<!-- Node28 -->
<g id="Node000028" class="node">
<title>Node28</title>
<g id="a_Node000028"><a xlink:href="_test_menu_view_presenter_8cpp.html#a9eead603abf63a8882a408141b378426" target="_top" xlink:title=" ">
<polygon fill="white" stroke="#666666" points="147.25,-375 0,-375 0,-343 147.25,-343 147.25,-375"/>
<text xml:space="preserve" text-anchor="start" x="8" y="-361.5" font-family="Helvetica,sans-Serif" font-size="10.00">BOOST_AUTO_TEST_CASE</text>
<text xml:space="preserve" text-anchor="middle" x="73.62" y="-349.5" font-family="Helvetica,sans-Serif" font-size="10.00">_TEMPLATE</text>
</a>
</g>
</g>
<!-- Node26&#45;&gt;Node28 -->
<g id="edge31_Node000026_Node000028" class="edge">
<title>Node26&#45;&gt;Node28</title>
<g id="a_edge31_Node000026_Node000028"><a xlink:title=" ">
<path fill="none" stroke="#63b8ff" d="M171.52,-369.8C163.5,-368.91 155.5,-368.01 147.72,-367.15"/>
<polygon fill="#63b8ff" stroke="#63b8ff" points="171.01,-373.26 181.34,-370.89 171.79,-366.31 171.01,-373.26"/>
</a>
</g>
</g>
<!-- Node34 -->
<g id="Node000034" class="node">
<title>Node34</title>
<g id="a_Node000034"><a xlink:href="classdepicture__menu_1_1usecase_1_1change__menu__item.html#a41599de2e4dcbd311704f8801fde1af9" target="_top" xlink:title=" ">
<polygon fill="white" stroke="#666666" points="567.75,-162 413.75,-162 413.75,-130 567.75,-130 567.75,-162"/>
<text xml:space="preserve" text-anchor="start" x="421.75" y="-148.5" font-family="Helvetica,sans-Serif" font-size="10.00">depicture_menu::usecase</text>
<text xml:space="preserve" text-anchor="middle" x="490.75" y="-136.5" font-family="Helvetica,sans-Serif" font-size="10.00">::change_menu_item::operator()</text>
</a>
</g>
</g>
<!-- Node33&#45;&gt;Node34 -->
<g id="edge38_Node000033_Node000034" class="edge">
<title>Node33&#45;&gt;Node34</title>
<g id="a_edge38_Node000033_Node000034"><a xlink:title=" ">
<path fill="none" stroke="#63b8ff" d="M607.01,-146C593.9,-146 580.7,-146 568.16,-146"/>
<polygon fill="#63b8ff" stroke="#63b8ff" points="606.98,-149.5 616.98,-146 606.98,-142.5 606.98,-149.5"/>
</a>
</g>
</g>
<!-- Node35&#45;&gt;Node25 -->
<g id="edge40_Node000035_Node000025" class="edge">
<title>Node35&#45;&gt;Node25</title>
<g id="a_edge40_Node000035_Node000025"><a xlink:title=" ">
<path fill="none" stroke="#63b8ff" d="M659.23,-460C636.23,-460 608.78,-460 582.83,-460"/>
<polygon fill="#63b8ff" stroke="#63b8ff" points="658.97,-463.5 668.97,-460 658.97,-456.5 658.97,-463.5"/>
</a>
</g>
</g>
<!-- Node36&#45;&gt;Node25 -->
<g id="edge42_Node000036_Node000025" class="edge">
<title>Node36&#45;&gt;Node25</title>
<g id="a_edge42_Node000036_Node000025"><a xlink:title=" ">
<path fill="none" stroke="#63b8ff" d="M655.4,-237.91C642.51,-240.81 629.5,-245.5 618.75,-253 548.38,-302.1 509.64,-403.94 496.7,-443.65"/>
<polygon fill="#63b8ff" stroke="#63b8ff" points="655.97,-241.36 665.15,-236.08 654.68,-234.48 655.97,-241.36"/>
</a>
</g>
</g>
</g>
</svg>
