<?xml version="1.0" encoding="UTF-8" standalone="no"?>
<!DOCTYPE svg PUBLIC "-//W3C//DTD SVG 1.1//EN"
 "http://www.w3.org/Graphics/SVG/1.1/DTD/svg11.dtd">
<!-- Generated by graphviz version 14.1.2 (20260124.0452)
 -->
<!-- Title: depicture_menu::domain::menu::radialmenu_item::get_action_id Pages: 1 -->
<svg width="690pt" height="252pt"
 viewBox="0.00 0.00 690.00 252.00" xmlns="http://www.w3.org/2000/svg" xmlns:xlink="http://www.w3.org/1999/xlink">
<g id="graph0" class="graph" transform="scale(1 1) rotate(0) translate(4 248)">
<title>depicture_menu::domain::menu::radialmenu_item::get_action_id</title>
<!-- Node1 -->
<g id="Node000001" class="node">
<title>Node1</title>
<g id="a_Node000001"><a xlink:title=" ">
<polygon fill="#999999" stroke="#666666" points="682,-168 558.75,-168 558.75,-124 682,-124 682,-168"/>
<text xml:space="preserve" text-anchor="start" x="566.75" y="-154.5" font-family="Helvetica,sans-Serif" font-size="10.00">depicture_menu::domain</text>
<text xml:space="preserve" text-anchor="start" x="566.75" y="-142.5" font-family="Helvetica,sans-Serif" font-size="10.00">::menu::radialmenu_item</text>
<text xml:space="preserve" text-anchor="middle" x="620.38" y="-130.5" font-family="Helvetica,sans-Serif" font-size="10.00">::get_action_id</text>
</a>
</g>
</g>
<!-- Node2 -->
<g id="Node000002" class="node">
<title>Node2</title>
<g id="a_Node000002"><a xlink:href="namespacedepicture__menu_1_1cs__binding.html#ae572bad0d69db1d1c8b9e1934514c6d9" target="_top" xlink:title=" ">
<polygon fill="white" stroke="#666666" points="317.75,-243 183.25,-243 183.25,-211 317.75,-211 317.75,-243"/>
<text xml:space="preserve" text-anchor="start" x="191.25" y="-229.5" font-family="Helvetica,sans-Serif" font-size="10.00">depicture_menu::cs</text>
<text xml:space="preserve" text-anchor="middle" x="250.5" y="-217.5" font-family="Helvetica,sans-Serif" font-size="10.00">_binding::apply_menu_item</text>
</a>
</g>
</g>
<!-- Node1&#45;&gt;Node2 -->
<g id="edge1_Node000001_Node000002" class="edge">
<title>Node1&#45;&gt;Node2</title>
<g id="a_edge1_Node000001_Node000002"><a xlink:title=" ">
<path fill="none" stroke="#63b8ff" d="M583.41,-175.22C566.12,-187.6 544.46,-200.8 522.75,-208 455.65,-230.25 374.24,-232.97 318.21,-231.4"/>
<polygon fill="#63b8ff" stroke="#63b8ff" points="585.37,-178.13 591.33,-169.37 581.21,-172.5 585.37,-178.13"/>
</a>
</g>
</g>
<!-- Node4 -->
<g id="Node000004" class="node">
<title>Node4</title>
<g id="a_Node000004"><a xlink:href="structdepicture__menu_1_1domain_1_1menu_1_1radialmenu__item.html#aadf2f8ebe06021b018c6c67e3dfa3682" target="_top" xlink:title=" ">
<polygon fill="white" stroke="#666666" points="506.62,-199 383.38,-199 383.38,-155 506.62,-155 506.62,-199"/>
<text xml:space="preserve" text-anchor="start" x="391.38" y="-185.5" font-family="Helvetica,sans-Serif" font-size="10.00">depicture_menu::domain</text>
<text xml:space="preserve" text-anchor="start" x="391.38" y="-173.5" font-family="Helvetica,sans-Serif" font-size="10.00">::menu::radialmenu_item</text>
<text xml:space="preserve" text-anchor="middle" x="445" y="-161.5" font-family="Helvetica,sans-Serif" font-size="10.00">::current_action_kind</text>
</a>
</g>
</g>
<!-- Node1&#45;&gt;Node4 -->
<g id="edge3_Node000001_Node000004" class="edge">
<title>Node1&#45;&gt;Node4</title>
<g id="a_edge3_Node000001_Node000004"><a xlink:title=" ">
<path fill="none" stroke="#63b8ff" d="M547.54,-158.84C534.03,-161.26 520.03,-163.76 506.9,-166.11"/>
<polygon fill="#63b8ff" stroke="#63b8ff" points="548.02,-162.31 557.25,-157.11 546.79,-155.42 548.02,-162.31"/>
</a>
</g>
</g>
<!-- Node7 -->
<g id="Node000007" class="node">
<title>Node7</title>
<g id="a_Node000007"><a xlink:href="structdepicture__menu_1_1domain_1_1menu_1_1radialmenu__item.html#a5f68ba3ad911890c83dcbdfd719ef1a8" target="_top" xlink:title=" ">
<polygon fill="white" stroke="#666666" points="506.62,-137 383.38,-137 383.38,-93 506.62,-93 506.62,-137"/>
<text xml:space="preserve" text-anchor="start" x="391.38" y="-123.5" font-family="Helvetica,sans-Serif" font-size="10.00">depicture_menu::domain</text>
<text xml:space="preserve" text-anchor="start" x="391.38" y="-111.5" font-family="Helvetica,sans-Serif" font-size="10.00">::menu::radialmenu_item</text>
<text xml:space="preserve" text-anchor="middle" x="445" y="-99.5" font-family="Helvetica,sans-Serif" font-size="10.00">::get_action_ids_range</text>
</a>
</g>
</g>
<!-- Node1&#45;&gt;Node7 -->
<g id="edge7_Node000001_Node000007" class="edge">
<title>Node1&#45;&gt;Node7</title>
<g id="a_edge7_Node000001_Node000007"><a xlink:title=" ">
<path fill="none" stroke="#63b8ff" d="M547.54,-133.16C534.03,-130.74 520.03,-128.24 506.9,-125.89"/>
<polygon fill="#63b8ff" stroke="#63b8ff" points="546.79,-136.58 557.25,-134.89 548.02,-129.69 546.79,-136.58"/>
</a>
</g>
</g>
<!-- Node8 -->
<g id="Node000008" class="node">
<title>Node8</title>
<g id="a_Node000008"><a xlink:href="structdepicture__menu_1_1usecase_1_1menu__item__sync.html#a73116168f11c4971bf386b8355e49889" target="_top" xlink:title=" ">
<polygon fill="white" stroke="#666666" points="522.75,-57 367.25,-57 367.25,-25 522.75,-25 522.75,-57"/>
<text xml:space="preserve" text-anchor="start" x="375.25" y="-43.5" font-family="Helvetica,sans-Serif" font-size="10.00">depicture_menu::usecase</text>
<text xml:space="preserve" text-anchor="middle" x="445" y="-31.5" font-family="Helvetica,sans-Serif" font-size="10.00">::menu_item_sync::make_query</text>
</a>
</g>
</g>
<!-- Node1&#45;&gt;Node8 -->
<g id="edge8_Node000001_Node000008" class="edge">
<title>Node1&#45;&gt;Node8</title>
<g id="a_edge8_Node000001_Node000008"><a xlink:title=" ">
<path fill="none" stroke="#63b8ff" d="M576.27,-117.56C559.67,-106.82 540.46,-94.63 522.75,-84 507.56,-74.88 490.38,-65.2 476.13,-57.33"/>
<polygon fill="#63b8ff" stroke="#63b8ff" points="574.14,-120.35 584.43,-122.87 577.96,-114.48 574.14,-120.35"/>
</a>
</g>
</g>
<!-- Node3 -->
<g id="Node000003" class="node">
<title>Node3</title>
<g id="a_Node000003"><a xlink:href="namespacedepicture__menu_1_1cs__binding.html#a17af5c2678e88aa88a411f7d98a360a5" target="_top" xlink:title=" ">
<polygon fill="white" stroke="#666666" points="133.75,-244 0,-244 0,-212 133.75,-212 133.75,-244"/>
<text xml:space="preserve" text-anchor="start" x="8" y="-230.5" font-family="Helvetica,sans-Serif" font-size="10.00">depicture_menu::cs</text>
<text xml:space="preserve" text-anchor="middle" x="66.88" y="-218.5" font-family="Helvetica,sans-Serif" font-size="10.00">_binding::apply_radialmenu</text>
</a>
</g>
</g>
<!-- Node2&#45;&gt;Node3 -->
<g id="edge2_Node000002_Node000003" class="edge">
<title>Node2&#45;&gt;Node3</title>
<g id="a_edge2_Node000002_Node000003"><a xlink:title=" ">
<path fill="none" stroke="#63b8ff" d="M171.58,-227.43C159.11,-227.5 146.32,-227.57 134.16,-227.64"/>
<polygon fill="#63b8ff" stroke="#63b8ff" points="171.41,-230.93 181.39,-227.38 171.37,-223.93 171.41,-230.93"/>
</a>
</g>
</g>
<!-- Node4&#45;&gt;Node2 -->
<g id="edge4_Node000004_Node000002" class="edge">
<title>Node4&#45;&gt;Node2</title>
<g id="a_edge4_Node000004_Node000002"><a xlink:title=" ">
<path fill="none" stroke="#63b8ff" d="M372.21,-195.65C353.43,-200.53 333.32,-205.75 315,-210.51"/>
<polygon fill="#63b8ff" stroke="#63b8ff" points="372.83,-199.1 381.63,-193.2 371.07,-192.33 372.83,-199.1"/>
</a>
</g>
</g>
<!-- Node5 -->
<g id="Node000005" class="node">
<title>Node5</title>
<g id="a_Node000005"><a xlink:href="namespacedepicture__menu_1_1usecase_1_1detail__usecase.html#a9820c50bfcd072e7ea64e14cc94ad567" target="_top" xlink:title=" ">
<polygon fill="white" stroke="#666666" points="331.25,-190 169.75,-190 169.75,-158 331.25,-158 331.25,-190"/>
<text xml:space="preserve" text-anchor="start" x="177.75" y="-176.5" font-family="Helvetica,sans-Serif" font-size="10.00">depicture_menu::usecase</text>
<text xml:space="preserve" text-anchor="middle" x="250.5" y="-164.5" font-family="Helvetica,sans-Serif" font-size="10.00">::detail_usecase::do_show_menu</text>
</a>
</g>
</g>
<!-- Node4&#45;&gt;Node5 -->
<g id="edge5_Node000004_Node000005" class="edge">
<title>Node4&#45;&gt;Node5</title>
<g id="a_edge5_Node000004_Node000005"><a xlink:title=" ">
<path fill="none" stroke="#63b8ff" d="M371.8,-175.87C358.73,-175.67 345.03,-175.46 331.74,-175.25"/>
<polygon fill="#63b8ff" stroke="#63b8ff" points="371.53,-179.37 381.58,-176.03 371.63,-172.37 371.53,-179.37"/>
</a>
</g>
</g>
<!-- Node6 -->
<g id="Node000006" class="node">
<title>Node6</title>
<g id="a_Node000006"><a xlink:href="classdepicture__menu_1_1usecase_1_1show__menu__view.html#a39a24262aa5bbf60e9429380652bd850" target="_top" xlink:title=" ">
<polygon fill="white" stroke="#666666" points="131.5,-194 2.25,-194 2.25,-150 131.5,-150 131.5,-194"/>
<text xml:space="preserve" text-anchor="start" x="10.25" y="-180.5" font-family="Helvetica,sans-Serif" font-size="10.00">depicture_menu::usecase</text>
<text xml:space="preserve" text-anchor="start" x="10.25" y="-168.5" font-family="Helvetica,sans-Serif" font-size="10.00">::show_menu_view::show</text>
<text xml:space="preserve" text-anchor="middle" x="66.88" y="-156.5" font-family="Helvetica,sans-Serif" font-size="10.00">_default_menu</text>
</a>
</g>
</g>
<!-- Node5&#45;&gt;Node6 -->
<g id="edge6_Node000005_Node000006" class="edge">
<title>Node5&#45;&gt;Node6</title>
<g id="a_edge6_Node000005_Node000006"><a xlink:title=" ">
<path fill="none" stroke="#63b8ff" d="M158.09,-172.99C149.22,-172.9 140.35,-172.8 131.83,-172.7"/>
<polygon fill="#63b8ff" stroke="#63b8ff" points="157.76,-176.49 167.79,-173.1 157.83,-169.49 157.76,-176.49"/>
</a>
</g>
</g>
<!-- Node8&#45;&gt;Node8 -->
<g id="edge10_Node000008_Node000008" class="edge">
<title>Node8&#45;&gt;Node8</title>
<g id="a_edge10_Node000008_Node000008"><a xlink:title=" ">
<path fill="none" stroke="#63b8ff" d="M474.23,-68.71C469.35,-72.48 459.61,-75 445,-75 418.28,-75 407.85,-66.58 413.69,-57.44"/>
<polygon fill="#63b8ff" stroke="#63b8ff" points="477.66,-69.4 476.03,-58.93 470.77,-68.13 477.66,-69.4"/>
</a>
</g>
</g>
<!-- Node9 -->
<g id="Node000009" class="node">
<title>Node9</title>
<g id="a_Node000009"><a xlink:href="structdepicture__menu_1_1usecase_1_1menu__item__sync.html#a20a37011fcd78b49181246ad5a07097f" target="_top" xlink:title=" ">
<polygon fill="white" stroke="#666666" points="328.25,-82 172.75,-82 172.75,-50 328.25,-50 328.25,-82"/>
<text xml:space="preserve" text-anchor="start" x="180.75" y="-68.5" font-family="Helvetica,sans-Serif" font-size="10.00">depicture_menu::usecase</text>
<text xml:space="preserve" text-anchor="middle" x="250.5" y="-56.5" font-family="Helvetica,sans-Serif" font-size="10.00">::menu_item_sync::make_query</text>
</a>
</g>
</g>
<!-- Node8&#45;&gt;Node9 -->
<g id="edge9_Node000008_Node000009" class="edge">
<title>Node8&#45;&gt;Node9</title>
<g id="a_edge9_Node000008_Node000009"><a xlink:title=" ">
<path fill="none" stroke="#63b8ff" d="M355.54,-52.49C346.58,-53.65 337.53,-54.83 328.71,-55.97"/>
<polygon fill="#63b8ff" stroke="#63b8ff" points="355.85,-55.98 365.31,-51.22 354.94,-49.04 355.85,-55.98"/>
</a>
</g>
</g>
<!-- Node10 -->
<g id="Node000010" class="node">
<title>Node10</title>
<g id="a_Node000010"><a xlink:href="structdepicture__menu_1_1usecase_1_1menu__item__sync.html#a9fd674e4ea4f37a1275b7fcf15ad2ae5" target="_top" xlink:title=" ">
<polygon fill="white" stroke="#666666" points="322.25,-32 178.75,-32 178.75,0 322.25,0 322.25,-32"/>
<text xml:space="preserve" text-anchor="start" x="186.75" y="-18.5" font-family="Helvetica,sans-Serif" font-size="10.00">depicture_menu::usecase</text>
<text xml:space="preserve" text-anchor="middle" x="250.5" y="-6.5" font-family="Helvetica,sans-Serif" font-size="10.00">::menu_item_sync::operator()</text>
</a>
</g>
</g>
<!-- Node8&#45;&gt;Node10 -->
<g id="edge11_Node000008_Node000010" class="edge">
<title>Node8&#45;&gt;Node10</title>
<g id="a_edge11_Node000008_Node000010"><a xlink:title=" ">
<path fill="none" stroke="#63b8ff" d="M355.74,-29.54C344.59,-28.09 333.3,-26.62 322.47,-25.22"/>
<polygon fill="#63b8ff" stroke="#63b8ff" points="354.94,-32.96 365.31,-30.78 355.85,-26.02 354.94,-32.96"/>
</a>
</g>
</g>
</g>
</svg>
