<?xml version="1.0" encoding="UTF-8" standalone="no"?>
<!DOCTYPE svg PUBLIC "-//W3C//DTD SVG 1.1//EN"
 "http://www.w3.org/Graphics/SVG/1.1/DTD/svg11.dtd">
<!-- Generated by graphviz version 14.1.2 (20260124.0452)
 -->
<!-- Title: depicture_menu::repositories::transaction_ref&lt; Ts &gt; Pages: 1 -->
<!--zoomable 153 -->

<svg id="main" version="1.1" xmlns="http://www.w3.org/2000/svg" xmlns:xlink="http://www.w3.org/1999/xlink" xml:space="preserve" onload="init(evt)">

<style type="text/css"><![CDATA[
.node, .edge {opacity: 0.7;}
.node.selected, .edge.selected {opacity: 1;}
.edge:hover path { stroke: red; }
.edge:hover polygon { stroke: red; fill: red; }
]]></style>

<defs>
  <circle id="rim" cx="0" cy="0" r="7"/>
  <circle id="rim2" cx="0" cy="0" r="3.5"/>
  <g id="zoomPlus">
    <use xlink:href="#rim" fill="#404040"><set attributeName="fill" to="#808080" begin="zoomplus.mouseover" end="zoomplus.mouseout"/></use>
    <path d="M-4,0h8M0,-4v8" fill="none" stroke="white" stroke-width="1.5" pointer-events="none"/>
  </g>
  <g id="zoomMin">
    <use xlink:href="#rim" fill="#404040"><set attributeName="fill" to="#808080" begin="zoomminus.mouseover" end="zoomminus.mouseout"/></use>
    <path d="M-4,0h8" fill="none" stroke="white" stroke-width="1.5" pointer-events="none"/>
  </g>
  <g id="arrowUp" transform="translate(30 24)">
    <use xlink:href="#rim"/>
    <path pointer-events="none" fill="none" stroke="white" stroke-width="1.5" d="M0,-3.0v7 M-2.5,-0.5L0,-3.0L2.5,-0.5"/>
  </g>
  <g id="arrowRight" transform="rotate(90) translate(36 -43)">
    <use xlink:href="#rim"/>
    <path pointer-events="none" fill="none" stroke="white" stroke-width="1.5" d="M0,-3.0v7 M-2.5,-0.5L0,-3.0L2.5,-0.5"/>
  </g>
  <g id="arrowDown" transform="rotate(180) translate(-30 -48)">
    <use xlink:href="#rim"/>
    <path pointer-events="none" fill="none" stroke="white" stroke-width="1.5" d="M0,-3.0v7 M-2.5,-0.5L0,-3.0L2.5,-0.5"/>
  </g>
  <g id="arrowLeft" transform="rotate(270) translate(-36 17)">
    <use xlink:href="#rim"/>
    <path pointer-events="none" fill="none" stroke="white" stroke-width="1.5" d="M0,-3.0v7 M-2.5,-0.5L0,-3.0L2.5,-0.5"/>
  </g>
  <g id="resetDef">
    <use xlink:href="#rim2" fill="#404040"><set attributeName="fill" to="#808080" begin="reset.mouseover" end="reset.mouseout"/></use>
  </g>
</defs>
<script type="application/ecmascript">
var viewWidth = 1818;
var viewHeight = 153;
var sectionId = 'dynsection-1';
</script>
<script type="application/ecmascript" xlink:href="svg.min.js"/>
<svg id="graph" class="graph">
<g id="viewport">
<title>depicture_menu::repositories::transaction_ref&lt; Ts &gt;</title>
<!-- Node1 -->
<g id="Node000001" class="node">
<title>Node1</title>
<g id="a_Node000001"><a xlink:title=" ">
<polygon fill="#999999" stroke="#666666" points="1810.25,-82 1669,-82 1669,-50 1810.25,-50 1810.25,-82"/>
<text xml:space="preserve" text-anchor="start" x="1677" y="-68.5" font-family="Helvetica,sans-Serif" font-size="10.00">depicture_menu::repositories</text>
<text xml:space="preserve" text-anchor="middle" x="1739.62" y="-56.5" font-family="Helvetica,sans-Serif" font-size="10.00">::transaction_ref&lt; Ts &gt;</text>
</a>
</g>
</g>
<!-- Node2 -->
<g id="Node000002" class="node">
<title>Node2</title>
<g id="a_Node000002"><a xlink:href="structdepicture__menu_1_1repositories_1_1transaction.html" target="_top" xlink:title=" ">
<polygon fill="white" stroke="#666666" points="1615.75,-82 1474.5,-82 1474.5,-50 1615.75,-50 1615.75,-82"/>
<text xml:space="preserve" text-anchor="start" x="1482.5" y="-68.5" font-family="Helvetica,sans-Serif" font-size="10.00">depicture_menu::repositories</text>
<text xml:space="preserve" text-anchor="middle" x="1545.12" y="-56.5" font-family="Helvetica,sans-Serif" font-size="10.00">::transaction&lt; Ts... &gt;</text>
</a>
</g>
</g>
<!-- Node2&#45;&gt;Node1 -->
<g id="edge1_Node000001_Node000002" class="edge">
<title>Node2&#45;&gt;Node1</title>
<g id="a_edge1_Node000001_Node000002"><a xlink:title=" ">
<path fill="none" stroke="#9a32cd" stroke-dasharray="5,2" d="M1627.53,-66C1641.2,-66 1655.28,-66 1668.64,-66"/>
<polygon fill="#9a32cd" stroke="#9a32cd" points="1627.68,-62.5 1617.68,-66 1627.68,-69.5 1627.68,-62.5"/>
</a>
</g>
<text xml:space="preserve" text-anchor="start" x="1636.75" y="-71.5" font-family="Helvetica,sans-Serif" font-size="10.00" fill="grey">ptr</text>
</g>
<!-- Node3 -->
<g id="Node000003" class="node">
<title>Node3</title>
<g id="a_Node000003"><a xlink:href="structdepicture__menu_1_1repositories_1_1detail__repositories_1_1transaction__tuple.html" target="_top" xlink:title=" ">
<polygon fill="white" stroke="#666666" points="1202,-88 1047.25,-88 1047.25,-44 1202,-44 1202,-88"/>
<text xml:space="preserve" text-anchor="start" x="1055.25" y="-74.5" font-family="Helvetica,sans-Serif" font-size="10.00">depicture_menu::repositories</text>
<text xml:space="preserve" text-anchor="start" x="1055.25" y="-62.5" font-family="Helvetica,sans-Serif" font-size="10.00">::detail_repositories::transaction</text>
<text xml:space="preserve" text-anchor="middle" x="1124.62" y="-50.5" font-family="Helvetica,sans-Serif" font-size="10.00">_tuple&lt; Ts... &gt;</text>
</a>
</g>
</g>
<!-- Node3&#45;&gt;Node2 -->
<g id="edge2_Node000002_Node000003" class="edge">
<title>Node3&#45;&gt;Node2</title>
<g id="a_edge2_Node000002_Node000003"><a xlink:title=" ">
<path fill="none" stroke="#9a32cd" stroke-dasharray="5,2" d="M1213.73,-74.64C1215.84,-74.77 1217.93,-74.89 1220,-75 1324.97,-80.54 1351.59,-83.56 1456.5,-77 1462.31,-76.64 1468.33,-76.14 1474.37,-75.55"/>
<polygon fill="#9a32cd" stroke="#9a32cd" points="1214.05,-71.16 1203.84,-73.97 1213.58,-78.14 1214.05,-71.16"/>
</a>
</g>
<text xml:space="preserve" text-anchor="start" x="1319.88" y="-86.22" font-family="Helvetica,sans-Serif" font-size="10.00" fill="grey">v_</text>
</g>
<!-- Node9 -->
<g id="Node000009" class="node">
<title>Node9</title>
<g id="a_Node000009"><a xlink:href="structdepicture__menu_1_1repositories_1_1transaction.html" target="_top" xlink:title=" ">
<polygon fill="white" stroke="#666666" points="1395.75,-56 1254.5,-56 1254.5,-24 1395.75,-24 1395.75,-56"/>
<text xml:space="preserve" text-anchor="start" x="1262.5" y="-42.5" font-family="Helvetica,sans-Serif" font-size="10.00">depicture_menu::repositories</text>
<text xml:space="preserve" text-anchor="middle" x="1325.12" y="-30.5" font-family="Helvetica,sans-Serif" font-size="10.00">::transaction&lt; Ts &gt;</text>
</a>
</g>
</g>
<!-- Node3&#45;&gt;Node9 -->
<g id="edge9_Node000009_Node000003" class="edge">
<title>Node3&#45;&gt;Node9</title>
<g id="a_edge9_Node000009_Node000003"><a xlink:title=" ">
<path fill="none" stroke="#9a32cd" stroke-dasharray="5,2" d="M1213.65,-54.47C1227.18,-52.7 1241,-50.89 1254.08,-49.18"/>
<polygon fill="#9a32cd" stroke="#9a32cd" points="1213.33,-50.98 1203.87,-55.75 1214.24,-57.92 1213.33,-50.98"/>
</a>
</g>
<text xml:space="preserve" text-anchor="start" x="1223" y="-58.5" font-family="Helvetica,sans-Serif" font-size="10.00" fill="grey">v_</text>
</g>
<!-- Node4 -->
<g id="Node000004" class="node">
<title>Node4</title>
<g id="a_Node000004"><a xlink:href="structdepicture__menu_1_1repositories_1_1detail__repositories_1_1transaction__tuple.html" target="_top" xlink:title=" ">
<polygon fill="white" stroke="#666666" points="968.5,-88 813.75,-88 813.75,-44 968.5,-44 968.5,-88"/>
<text xml:space="preserve" text-anchor="start" x="821.75" y="-74.5" font-family="Helvetica,sans-Serif" font-size="10.00">depicture_menu::repositories</text>
<text xml:space="preserve" text-anchor="start" x="821.75" y="-62.5" font-family="Helvetica,sans-Serif" font-size="10.00">::detail_repositories::transaction</text>
<text xml:space="preserve" text-anchor="middle" x="891.12" y="-50.5" font-family="Helvetica,sans-Serif" font-size="10.00">_tuple&lt; Ts &gt;</text>
</a>
</g>
</g>
<!-- Node4&#45;&gt;Node3 -->
<g id="edge3_Node000003_Node000004" class="edge">
<title>Node4&#45;&gt;Node3</title>
<g id="a_edge3_Node000003_Node000004"><a xlink:title=" ">
<path fill="none" stroke="orange" stroke-dasharray="5,2" d="M980.25,-66C1002.25,-66 1025.67,-66 1047.07,-66"/>
<polygon fill="orange" stroke="orange" points="980.4,-62.5 970.4,-66 980.4,-69.5 980.4,-62.5"/>
</a>
</g>
<text xml:space="preserve" text-anchor="start" x="989.5" y="-71.5" font-family="Helvetica,sans-Serif" font-size="10.00" fill="grey">&lt; Ts... &gt;</text>
</g>
<!-- Node5 -->
<g id="Node000005" class="node">
<title>Node5</title>
<g id="a_Node000005"><a xlink:href="structdepicture__menu_1_1util_1_1detail__util_1_1read__lock__mutex.html" target="_top" xlink:title=" ">
<polygon fill="white" stroke="#666666" points="742.5,-106 593.75,-106 593.75,-26 742.5,-26 742.5,-106"/>
<text xml:space="preserve" text-anchor="start" x="601.75" y="-92.5" font-family="Helvetica,sans-Serif" font-size="10.00">depicture_menu::util</text>
<text xml:space="preserve" text-anchor="start" x="601.75" y="-80.5" font-family="Helvetica,sans-Serif" font-size="10.00">::detail_util::read_lock</text>
<text xml:space="preserve" text-anchor="start" x="601.75" y="-68.5" font-family="Helvetica,sans-Serif" font-size="10.00">_mutex&lt; depicture_menu::</text>
<text xml:space="preserve" text-anchor="start" x="601.75" y="-56.5" font-family="Helvetica,sans-Serif" font-size="10.00">util::detail_util::try_upgradable</text>
<text xml:space="preserve" text-anchor="start" x="601.75" y="-44.5" font-family="Helvetica,sans-Serif" font-size="10.00">_mutex_base&lt; detail_util::wait</text>
<text xml:space="preserve" text-anchor="middle" x="668.12" y="-32.5" font-family="Helvetica,sans-Serif" font-size="10.00">_lock_policy&lt; int &gt; &gt; &gt;</text>
</a>
</g>
</g>
<!-- Node5&#45;&gt;Node4 -->
<g id="edge4_Node000004_Node000005" class="edge">
<title>Node5&#45;&gt;Node4</title>
<g id="a_edge4_Node000004_Node000005"><a xlink:title=" ">
<path fill="none" stroke="#9a32cd" stroke-dasharray="5,2" d="M754.07,-66C773.61,-66 794.28,-66 813.45,-66"/>
<polygon fill="#9a32cd" stroke="#9a32cd" points="754.23,-62.5 744.23,-66 754.23,-69.5 754.23,-62.5"/>
</a>
</g>
<text xml:space="preserve" text-anchor="start" x="763.5" y="-71.5" font-family="Helvetica,sans-Serif" font-size="10.00" fill="grey">guard_</text>
</g>
<!-- Node6 -->
<g id="Node000006" class="node">
<title>Node6</title>
<g id="a_Node000006"><a xlink:href="structdepicture__menu_1_1util_1_1detail__util_1_1try__upgradable__mutex__base.html" target="_top" xlink:title=" ">
<polygon fill="white" stroke="#666666" points="413,-139 280,-139 280,-83 413,-83 413,-139"/>
<text xml:space="preserve" text-anchor="start" x="288" y="-125.5" font-family="Helvetica,sans-Serif" font-size="10.00">depicture_menu::util</text>
<text xml:space="preserve" text-anchor="start" x="288" y="-113.5" font-family="Helvetica,sans-Serif" font-size="10.00">::detail_util::try_upgradable</text>
<text xml:space="preserve" text-anchor="start" x="288" y="-101.5" font-family="Helvetica,sans-Serif" font-size="10.00">_mutex_base&lt; detail_util::</text>
<text xml:space="preserve" text-anchor="middle" x="346.5" y="-89.5" font-family="Helvetica,sans-Serif" font-size="10.00">wait_lock_policy&lt; int &gt; &gt;</text>
</a>
</g>
</g>
<!-- Node6&#45;&gt;Node5 -->
<g id="edge5_Node000005_Node000006" class="edge">
<title>Node6&#45;&gt;Node5</title>
<g id="a_edge5_Node000005_Node000006"><a xlink:title=" ">
<path fill="none" stroke="#9a32cd" stroke-dasharray="5,2" d="M424.58,-106.47C469,-103.14 525.77,-97.65 575.75,-89 581.55,-88 587.53,-86.82 593.52,-85.54"/>
<polygon fill="#9a32cd" stroke="#9a32cd" points="424.51,-102.97 414.79,-107.18 425.01,-109.95 424.51,-102.97"/>
</a>
</g>
<text xml:space="preserve" text-anchor="start" x="496.62" y="-111.18" font-family="Helvetica,sans-Serif" font-size="10.00" fill="grey">m_</text>
</g>
<!-- Node7 -->
<g id="Node000007" class="node">
<title>Node7</title>
<g id="a_Node000007"><a xlink:href="structdepicture__menu_1_1util_1_1detail__util_1_1try__upgradable__mutex__base.html" target="_top" xlink:title=" ">
<polygon fill="white" stroke="#666666" points="140.5,-133 0,-133 0,-89 140.5,-89 140.5,-133"/>
<text xml:space="preserve" text-anchor="start" x="8" y="-119.5" font-family="Helvetica,sans-Serif" font-size="10.00">depicture_menu::util</text>
<text xml:space="preserve" text-anchor="start" x="8" y="-107.5" font-family="Helvetica,sans-Serif" font-size="10.00">::detail_util::try_upgradable</text>
<text xml:space="preserve" text-anchor="middle" x="70.25" y="-95.5" font-family="Helvetica,sans-Serif" font-size="10.00">_mutex_base&lt; LockPolicy &gt;</text>
</a>
</g>
</g>
<!-- Node7&#45;&gt;Node6 -->
<g id="edge6_Node000006_Node000007" class="edge">
<title>Node7&#45;&gt;Node6</title>
<g id="a_edge6_Node000006_Node000007"><a xlink:title=" ">
<path fill="none" stroke="orange" stroke-dasharray="5,2" d="M152.32,-111C192.95,-111 241.52,-111 279.79,-111"/>
<polygon fill="orange" stroke="orange" points="152.32,-107.5 142.32,-111 152.32,-114.5 152.32,-107.5"/>
</a>
</g>
<text xml:space="preserve" text-anchor="start" x="161.5" y="-132.5" font-family="Helvetica,sans-Serif" font-size="10.00" fill="grey">&lt; detail_util::wait</text>
<text xml:space="preserve" text-anchor="start" x="161.5" y="-116.5" font-family="Helvetica,sans-Serif" font-size="10.00" fill="grey">  _lock_policy&lt; int &gt; &gt;</text>
</g>
<!-- Node8 -->
<g id="Node000008" class="node">
<title>Node8</title>
<g id="a_Node000008"><a xlink:href="structdepicture__menu_1_1util_1_1detail__util_1_1read__lock__mutex.html" target="_top" xlink:title=" ">
<polygon fill="white" stroke="#666666" points="402.12,-44 290.88,-44 290.88,0 402.12,0 402.12,-44"/>
<text xml:space="preserve" text-anchor="start" x="298.88" y="-30.5" font-family="Helvetica,sans-Serif" font-size="10.00">depicture_menu::util</text>
<text xml:space="preserve" text-anchor="start" x="298.88" y="-18.5" font-family="Helvetica,sans-Serif" font-size="10.00">::detail_util::read_lock</text>
<text xml:space="preserve" text-anchor="middle" x="346.5" y="-6.5" font-family="Helvetica,sans-Serif" font-size="10.00">_mutex&lt; P &gt;</text>
</a>
</g>
</g>
<!-- Node8&#45;&gt;Node5 -->
<g id="edge7_Node000005_Node000008" class="edge">
<title>Node8&#45;&gt;Node5</title>
<g id="a_edge7_Node000005_Node000008"><a xlink:title=" ">
<path fill="none" stroke="orange" stroke-dasharray="5,2" d="M413.54,-14.81C459.58,-11.61 522.12,-10.89 575.75,-23 581.56,-24.31 587.45,-26.04 593.28,-28.04"/>
<polygon fill="orange" stroke="orange" points="413.42,-11.31 403.71,-15.56 413.95,-18.29 413.42,-11.31"/>
</a>
</g>
<text xml:space="preserve" text-anchor="start" x="434" y="-76.5" font-family="Helvetica,sans-Serif" font-size="10.00" fill="grey">&lt; depicture_menu::util</text>
<text xml:space="preserve" text-anchor="start" x="434" y="-60.5" font-family="Helvetica,sans-Serif" font-size="10.00" fill="grey">  ::detail_util::try_upgradable</text>
<text xml:space="preserve" text-anchor="start" x="434" y="-44.5" font-family="Helvetica,sans-Serif" font-size="10.00" fill="grey">  _mutex_base&lt; detail_util::wait</text>
<text xml:space="preserve" text-anchor="start" x="434" y="-28.5" font-family="Helvetica,sans-Serif" font-size="10.00" fill="grey">  _lock_policy&lt; int &gt; &gt; &gt;</text>
</g>
<!-- Node9&#45;&gt;Node2 -->
<g id="edge8_Node000002_Node000009" class="edge">
<title>Node9&#45;&gt;Node2</title>
<g id="a_edge8_Node000002_Node000009"><a xlink:title=" ">
<path fill="none" stroke="orange" stroke-dasharray="5,2" d="M1407.34,-49.69C1429.34,-52.31 1452.96,-55.13 1474.27,-57.67"/>
<polygon fill="orange" stroke="orange" points="1407.85,-46.22 1397.5,-48.51 1407.02,-53.17 1407.85,-46.22"/>
</a>
</g>
<text xml:space="preserve" text-anchor="start" x="1416.75" y="-60.83" font-family="Helvetica,sans-Serif" font-size="10.00" fill="grey">&lt; Ts... &gt;</text>
</g>
</g>
</svg>

<g id="navigator" transform="translate(0 0)" fill="#404254">
  <rect fill="#f2f5e9" fill-opacity="0.5" stroke="#606060" stroke-width=".5" x="0" y="0" width="60" height="60"/>
  <use id="zoomplus" xlink:href="#zoomPlus" x="17" y="9" onmousedown="handleZoom(evt,'in')"/>
  <use id="zoomminus" xlink:href="#zoomMin" x="42" y="9" onmousedown="handleZoom(evt,'out')"/>
  <use id="reset" xlink:href="#resetDef" x="30" y="36" onmousedown="handleReset()"/>
   <use id="arrowup" xlink:href="#arrowUp" x="0" y="0" onmousedown="handlePan(0,-1)"/>
  <use id="arrowright" xlink:href="#arrowRight" x="0" y="0" onmousedown="handlePan(1,0)"/>
  <use id="arrowdown" xlink:href="#arrowDown" x="0" y="0" onmousedown="handlePan(0,1)"/>
  <use id="arrowleft" xlink:href="#arrowLeft" x="0" y="0" onmousedown="handlePan(-1,0)"/>
</g>
<svg viewBox="0 0 15 15" width="100%" height="30px" preserveAspectRatio="xMaxYMin meet">
 <g id="arrow_out" transform="scale(0.3 0.3)">
  <a xlink:href="structdepicture__menu_1_1repositories_1_1transaction__ref__coll__graph_org.svg" target="_base">
   <rect id="button" ry="5" rx="5" y="6" x="6" height="38" width="38"
        fill="#f2f5e9" fill-opacity="0.5" stroke="#606060" stroke-width="1.0"/>
   <path id="arrow"
     d="M 11.500037,31.436501 C 11.940474,20.09759 22.043105,11.32322 32.158766,21.979434 L 37.068811,17.246167 C 37.068811,17.246167 37.088388,32 37.088388,32 L 22.160133,31.978069 C 22.160133,31.978069 26.997745,27.140456 26.997745,27.140456 C 18.528582,18.264221 13.291696,25.230495 11.500037,31.436501 z"
     style="fill:#404040;"/>
  </a>
 </g>
</svg>

<style type='text/css'>
<![CDATA[
[data-mouse-over-selected='false'] { opacity: 0.7; }
[data-mouse-over-selected='true']  { opacity: 1.0; }
]]>
</style>
<script type="application/ecmascript"><![CDATA[
document.addEventListener('DOMContentLoaded', (event) => {
  highlightEdges();
  highlightAdjacentNodes();
});
]]></script>
</svg>
