<?xml version="1.0" encoding="UTF-8" standalone="no"?>
<!DOCTYPE svg PUBLIC "-//W3C//DTD SVG 1.1//EN"
 "http://www.w3.org/Graphics/SVG/1.1/DTD/svg11.dtd">
<!-- Generated by graphviz version 14.1.2 (20260124.0452)
 -->
<!-- Title: depicture_menu::domain::menu::radialmenu_item::com_kind_to_index Pages: 1 -->
<svg width="1462pt" height="389pt"
 viewBox="0.00 0.00 1462.00 389.00" xmlns="http://www.w3.org/2000/svg" xmlns:xlink="http://www.w3.org/1999/xlink">
<g id="graph0" class="graph" transform="scale(1 1) rotate(0) translate(4 385)">
<title>depicture_menu::domain::menu::radialmenu_item::com_kind_to_index</title>
<!-- Node1 -->
<g id="Node000001" class="node">
<title>Node1</title>
<g id="a_Node000001"><a xlink:title=" ">
<polygon fill="#999999" stroke="#666666" points="1454,-237 1330.75,-237 1330.75,-193 1454,-193 1454,-237"/>
<text xml:space="preserve" text-anchor="start" x="1338.75" y="-223.5" font-family="Helvetica,sans-Serif" font-size="10.00">depicture_menu::domain</text>
<text xml:space="preserve" text-anchor="start" x="1338.75" y="-211.5" font-family="Helvetica,sans-Serif" font-size="10.00">::menu::radialmenu_item</text>
<text xml:space="preserve" text-anchor="middle" x="1392.38" y="-199.5" font-family="Helvetica,sans-Serif" font-size="10.00">::com_kind_to_index</text>
</a>
</g>
</g>
<!-- Node2 -->
<g id="Node000002" class="node">
<title>Node2</title>
<g id="a_Node000002"><a xlink:href="structdepicture__menu_1_1domain_1_1menu_1_1radialmenu__item.html#abaa0796bacff30852dbdf9eee08d38b2" target="_top" xlink:title=" ">
<polygon fill="white" stroke="#666666" points="1294.75,-299 1171.5,-299 1171.5,-255 1294.75,-255 1294.75,-299"/>
<text xml:space="preserve" text-anchor="start" x="1179.5" y="-285.5" font-family="Helvetica,sans-Serif" font-size="10.00">depicture_menu::domain</text>
<text xml:space="preserve" text-anchor="start" x="1179.5" y="-273.5" font-family="Helvetica,sans-Serif" font-size="10.00">::menu::radialmenu_item</text>
<text xml:space="preserve" text-anchor="middle" x="1233.12" y="-261.5" font-family="Helvetica,sans-Serif" font-size="10.00">::current_index</text>
</a>
</g>
</g>
<!-- Node1&#45;&gt;Node2 -->
<g id="edge1_Node000001_Node000002" class="edge">
<title>Node1&#45;&gt;Node2</title>
<g id="a_edge1_Node000001_Node000002"><a xlink:title=" ">
<path fill="none" stroke="#63b8ff" d="M1324.16,-241.5C1313.14,-245.85 1301.82,-250.31 1291.08,-254.55"/>
<polygon fill="#63b8ff" stroke="#63b8ff" points="1325.18,-244.86 1333.2,-237.94 1322.61,-238.35 1325.18,-244.86"/>
</a>
</g>
</g>
<!-- Node14 -->
<g id="Node000014" class="node">
<title>Node14</title>
<g id="a_Node000014"><a xlink:href="structdepicture__menu_1_1domain_1_1menu_1_1radialmenu__item.html#a181422df8a043da811ce10d6d72f9d13" target="_top" xlink:title=" ">
<polygon fill="white" stroke="#666666" points="1294.75,-175 1171.5,-175 1171.5,-131 1294.75,-131 1294.75,-175"/>
<text xml:space="preserve" text-anchor="start" x="1179.5" y="-161.5" font-family="Helvetica,sans-Serif" font-size="10.00">depicture_menu::domain</text>
<text xml:space="preserve" text-anchor="start" x="1179.5" y="-149.5" font-family="Helvetica,sans-Serif" font-size="10.00">::menu::radialmenu_item</text>
<text xml:space="preserve" text-anchor="middle" x="1233.12" y="-137.5" font-family="Helvetica,sans-Serif" font-size="10.00">::get_action_id</text>
</a>
</g>
</g>
<!-- Node1&#45;&gt;Node14 -->
<g id="edge13_Node000001_Node000014" class="edge">
<title>Node1&#45;&gt;Node14</title>
<g id="a_edge13_Node000001_Node000014"><a xlink:title=" ">
<path fill="none" stroke="#63b8ff" d="M1324.16,-188.5C1313.14,-184.15 1301.82,-179.69 1291.08,-175.45"/>
<polygon fill="#63b8ff" stroke="#63b8ff" points="1322.61,-191.65 1333.2,-192.06 1325.18,-185.14 1322.61,-191.65"/>
</a>
</g>
</g>
<!-- Node22 -->
<g id="Node000022" class="node">
<title>Node22</title>
<g id="a_Node000022"><a xlink:href="structdepicture__menu_1_1domain_1_1menu_1_1radialmenu__item.html#a8c4c4fb516ddc27ca04ae1f8babe76f3" target="_top" xlink:title=" ">
<polygon fill="white" stroke="#666666" points="1294.75,-237 1171.5,-237 1171.5,-193 1294.75,-193 1294.75,-237"/>
<text xml:space="preserve" text-anchor="start" x="1179.5" y="-223.5" font-family="Helvetica,sans-Serif" font-size="10.00">depicture_menu::domain</text>
<text xml:space="preserve" text-anchor="start" x="1179.5" y="-211.5" font-family="Helvetica,sans-Serif" font-size="10.00">::menu::radialmenu_item</text>
<text xml:space="preserve" text-anchor="middle" x="1233.12" y="-199.5" font-family="Helvetica,sans-Serif" font-size="10.00">::set_action_id</text>
</a>
</g>
</g>
<!-- Node1&#45;&gt;Node22 -->
<g id="edge24_Node000001_Node000022" class="edge">
<title>Node1&#45;&gt;Node22</title>
<g id="a_edge24_Node000001_Node000022"><a xlink:title=" ">
<path fill="none" stroke="#63b8ff" d="M1319.23,-215C1311.14,-215 1302.95,-215 1295.02,-215"/>
<polygon fill="#63b8ff" stroke="#63b8ff" points="1319.06,-218.5 1329.06,-215 1319.06,-211.5 1319.06,-218.5"/>
</a>
</g>
</g>
<!-- Node3 -->
<g id="Node000003" class="node">
<title>Node3</title>
<g id="a_Node000003"><a xlink:href="structdepicture__menu_1_1domain_1_1menu_1_1radialmenu__item.html#a401fbb41b8231960bb8443168ddb56a5" target="_top" xlink:title=" ">
<polygon fill="white" stroke="#666666" points="1119.38,-299 996.12,-299 996.12,-255 1119.38,-255 1119.38,-299"/>
<text xml:space="preserve" text-anchor="start" x="1004.12" y="-285.5" font-family="Helvetica,sans-Serif" font-size="10.00">depicture_menu::domain</text>
<text xml:space="preserve" text-anchor="start" x="1004.12" y="-273.5" font-family="Helvetica,sans-Serif" font-size="10.00">::menu::radialmenu_item</text>
<text xml:space="preserve" text-anchor="middle" x="1057.75" y="-261.5" font-family="Helvetica,sans-Serif" font-size="10.00">::current_action_id</text>
</a>
</g>
</g>
<!-- Node2&#45;&gt;Node3 -->
<g id="edge2_Node000002_Node000003" class="edge">
<title>Node2&#45;&gt;Node3</title>
<g id="a_edge2_Node000002_Node000003"><a xlink:title=" ">
<path fill="none" stroke="#63b8ff" d="M1160.29,-277C1146.78,-277 1132.78,-277 1119.65,-277"/>
<polygon fill="#63b8ff" stroke="#63b8ff" points="1159.97,-280.5 1169.97,-277 1159.97,-273.5 1159.97,-280.5"/>
</a>
</g>
</g>
<!-- Node4 -->
<g id="Node000004" class="node">
<title>Node4</title>
<g id="a_Node000004"><a xlink:href="namespacedepicture__menu_1_1cs__binding.html#a442ac9e8a6937dd485c22270137b176d" target="_top" xlink:title=" ">
<polygon fill="white" stroke="#666666" points="933.5,-381 799,-381 799,-349 933.5,-349 933.5,-381"/>
<text xml:space="preserve" text-anchor="start" x="807" y="-367.5" font-family="Helvetica,sans-Serif" font-size="10.00">depicture_menu::cs</text>
<text xml:space="preserve" text-anchor="middle" x="866.25" y="-355.5" font-family="Helvetica,sans-Serif" font-size="10.00">_binding::apply_menu_item</text>
</a>
</g>
</g>
<!-- Node3&#45;&gt;Node4 -->
<g id="edge3_Node000003_Node000004" class="edge">
<title>Node3&#45;&gt;Node4</title>
<g id="a_edge3_Node000003_Node000004"><a xlink:title=" ">
<path fill="none" stroke="#63b8ff" d="M1011.04,-305.21C990.94,-316.91 966.76,-330.05 944,-340 937.07,-343.03 929.64,-345.9 922.24,-348.53"/>
<polygon fill="#63b8ff" stroke="#63b8ff" points="1012.71,-308.29 1019.55,-300.19 1009.16,-302.26 1012.71,-308.29"/>
</a>
</g>
</g>
<!-- Node5 -->
<g id="Node000005" class="node">
<title>Node5</title>
<g id="a_Node000005"><a xlink:href="namespacedepicture__menu_1_1usecase.html#a2c254e4837bdea923a00c9bb9387ea05" target="_top" xlink:title=" ">
<polygon fill="white" stroke="#666666" points="930.12,-231 802.38,-231 802.38,-199 930.12,-199 930.12,-231"/>
<text xml:space="preserve" text-anchor="start" x="810.38" y="-217.5" font-family="Helvetica,sans-Serif" font-size="10.00">depicture_menu::usecase</text>
<text xml:space="preserve" text-anchor="middle" x="866.25" y="-205.5" font-family="Helvetica,sans-Serif" font-size="10.00">::convert_to_dto</text>
</a>
</g>
</g>
<!-- Node3&#45;&gt;Node5 -->
<g id="edge4_Node000003_Node000005" class="edge">
<title>Node3&#45;&gt;Node5</title>
<g id="a_edge4_Node000003_Node000005"><a xlink:title=" ">
<path fill="none" stroke="#63b8ff" d="M985.1,-253.46C971.45,-248.99 957.29,-244.34 944,-240 935.48,-237.21 926.42,-234.26 917.62,-231.39"/>
<polygon fill="#63b8ff" stroke="#63b8ff" points="983.87,-256.74 994.46,-256.53 986.05,-250.09 983.87,-256.74"/>
</a>
</g>
</g>
<!-- Node6 -->
<g id="Node000006" class="node">
<title>Node6</title>
<g id="a_Node000006"><a xlink:href="structdepicture__menu_1_1usecase_1_1query_1_1default__menu__item__label__query.html#a799a091672af20d03868616d8f733feb" target="_top" xlink:title=" ">
<polygon fill="white" stroke="#666666" points="930.12,-331 802.38,-331 802.38,-287 930.12,-287 930.12,-331"/>
<text xml:space="preserve" text-anchor="start" x="810.38" y="-317.5" font-family="Helvetica,sans-Serif" font-size="10.00">depicture_menu::usecase</text>
<text xml:space="preserve" text-anchor="start" x="810.38" y="-305.5" font-family="Helvetica,sans-Serif" font-size="10.00">::query::default_menu</text>
<text xml:space="preserve" text-anchor="middle" x="866.25" y="-293.5" font-family="Helvetica,sans-Serif" font-size="10.00">_item_label_query::query</text>
</a>
</g>
</g>
<!-- Node3&#45;&gt;Node6 -->
<g id="edge5_Node000003_Node000006" class="edge">
<title>Node3&#45;&gt;Node6</title>
<g id="a_edge5_Node000003_Node000006"><a xlink:title=" ">
<path fill="none" stroke="#63b8ff" d="M984.53,-289.2C966.71,-292.2 947.77,-295.4 930.42,-298.33"/>
<polygon fill="#63b8ff" stroke="#63b8ff" points="984.98,-292.67 994.26,-287.55 983.81,-285.77 984.98,-292.67"/>
</a>
</g>
</g>
<!-- Node7 -->
<g id="Node000007" class="node">
<title>Node7</title>
<g id="a_Node000007"><a xlink:href="namespacedetail.html#a359da91d8e882921d526b9c247535941" target="_top" xlink:title=" ">
<polygon fill="white" stroke="#666666" points="926,-269 806.5,-269 806.5,-249 926,-249 926,-269"/>
<text xml:space="preserve" text-anchor="middle" x="866.25" y="-255.5" font-family="Helvetica,sans-Serif" font-size="10.00">detail::sync_menu_item</text>
</a>
</g>
</g>
<!-- Node3&#45;&gt;Node7 -->
<g id="edge6_Node000003_Node000007" class="edge">
<title>Node3&#45;&gt;Node7</title>
<g id="a_edge6_Node000003_Node000007"><a xlink:title=" ">
<path fill="none" stroke="#63b8ff" d="M984.3,-270.12C965.09,-268.29 944.59,-266.35 926.2,-264.6"/>
<polygon fill="#63b8ff" stroke="#63b8ff" points="983.95,-273.6 994.24,-271.06 984.62,-266.63 983.95,-273.6"/>
</a>
</g>
</g>
<!-- Node8 -->
<g id="Node000008" class="node">
<title>Node8</title>
<g id="a_Node000008"><a xlink:href="namespacedetail.html#aeeadbaa968cbf337fbc005755d6df61d" target="_top" xlink:title=" ">
<polygon fill="white" stroke="#666666" points="733.38,-269 637.88,-269 637.88,-249 733.38,-249 733.38,-269"/>
<text xml:space="preserve" text-anchor="middle" x="685.62" y="-255.5" font-family="Helvetica,sans-Serif" font-size="10.00">detail::sync_menu</text>
</a>
</g>
</g>
<!-- Node7&#45;&gt;Node8 -->
<g id="edge7_Node000007_Node000008" class="edge">
<title>Node7&#45;&gt;Node8</title>
<g id="a_edge7_Node000007_Node000008"><a xlink:title=" ">
<path fill="none" stroke="#63b8ff" d="M795.01,-259C774.43,-259 752.44,-259 733.68,-259"/>
<polygon fill="#63b8ff" stroke="#63b8ff" points="794.75,-262.5 804.75,-259 794.75,-255.5 794.75,-262.5"/>
</a>
</g>
</g>
<!-- Node9 -->
<g id="Node000009" class="node">
<title>Node9</title>
<g id="a_Node000009"><a xlink:href="classdepicture__menu_1_1presentations_1_1menu__view__presenter.html#a7cee659c00af1f57cbe9f2214fab8ecf" target="_top" xlink:title=" ">
<polygon fill="white" stroke="#666666" points="582.75,-275 398.75,-275 398.75,-243 582.75,-243 582.75,-275"/>
<text xml:space="preserve" text-anchor="start" x="406.75" y="-261.5" font-family="Helvetica,sans-Serif" font-size="10.00">depicture_menu::presentations</text>
<text xml:space="preserve" text-anchor="middle" x="490.75" y="-249.5" font-family="Helvetica,sans-Serif" font-size="10.00">::menu_view_presenter::change_menu</text>
</a>
</g>
</g>
<!-- Node8&#45;&gt;Node9 -->
<g id="edge8_Node000008_Node000009" class="edge">
<title>Node8&#45;&gt;Node9</title>
<g id="a_edge8_Node000008_Node000009"><a xlink:title=" ">
<path fill="none" stroke="#63b8ff" d="M626.26,-259C612.58,-259 597.67,-259 582.93,-259"/>
<polygon fill="#63b8ff" stroke="#63b8ff" points="625.93,-262.5 635.93,-259 625.93,-255.5 625.93,-262.5"/>
</a>
</g>
</g>
<!-- Node10 -->
<g id="Node000010" class="node">
<title>Node10</title>
<g id="a_Node000010"><a xlink:href="_test_menu_view_presenter_8cpp.html#a151ccc4fe04555bd94ebef4472e1c21b" target="_top" xlink:title=" ">
<polygon fill="white" stroke="#666666" points="346.62,-300 199.38,-300 199.38,-268 346.62,-268 346.62,-300"/>
<text xml:space="preserve" text-anchor="start" x="207.38" y="-286.5" font-family="Helvetica,sans-Serif" font-size="10.00">BOOST_AUTO_TEST_CASE</text>
<text xml:space="preserve" text-anchor="middle" x="273" y="-274.5" font-family="Helvetica,sans-Serif" font-size="10.00">_TEMPLATE</text>
</a>
</g>
</g>
<!-- Node9&#45;&gt;Node10 -->
<g id="edge9_Node000009_Node000010" class="edge">
<title>Node9&#45;&gt;Node10</title>
<g id="a_edge9_Node000009_Node000010"><a xlink:title=" ">
<path fill="none" stroke="#63b8ff" d="M386.96,-270.91C373.47,-272.47 359.86,-274.05 347,-275.54"/>
<polygon fill="#63b8ff" stroke="#63b8ff" points="387.22,-274.4 396.75,-269.78 386.41,-267.45 387.22,-274.4"/>
</a>
</g>
</g>
<!-- Node11 -->
<g id="Node000011" class="node">
<title>Node11</title>
<g id="a_Node000011"><a xlink:href="classdepicture__menu_1_1presentations_1_1menu__view__presenter.html#afe97162d40d1595753ccb38f9ac96ad6" target="_top" xlink:title=" ">
<polygon fill="white" stroke="#666666" points="362.75,-250 183.25,-250 183.25,-218 362.75,-218 362.75,-250"/>
<text xml:space="preserve" text-anchor="start" x="191.25" y="-236.5" font-family="Helvetica,sans-Serif" font-size="10.00">depicture_menu::presentations</text>
<text xml:space="preserve" text-anchor="middle" x="273" y="-224.5" font-family="Helvetica,sans-Serif" font-size="10.00">::menu_view_presenter::create_menu</text>
</a>
</g>
</g>
<!-- Node9&#45;&gt;Node11 -->
<g id="edge10_Node000009_Node000011" class="edge">
<title>Node9&#45;&gt;Node11</title>
<g id="a_edge10_Node000009_Node000011"><a xlink:title=" ">
<path fill="none" stroke="#63b8ff" d="M387.04,-247.1C379.09,-246.18 371.09,-245.25 363.23,-244.34"/>
<polygon fill="#63b8ff" stroke="#63b8ff" points="386.41,-250.55 396.75,-248.22 387.22,-243.6 386.41,-250.55"/>
</a>
</g>
</g>
<!-- Node12 -->
<g id="Node000012" class="node">
<title>Node12</title>
<g id="a_Node000012"><a xlink:href="_test_menu_view_presenter_8cpp.html#ae923463343707b4e44092d1eac37d2d9" target="_top" xlink:title=" ">
<polygon fill="white" stroke="#666666" points="147.25,-266 0,-266 0,-246 147.25,-246 147.25,-266"/>
<text xml:space="preserve" text-anchor="middle" x="73.62" y="-252.5" font-family="Helvetica,sans-Serif" font-size="10.00">BOOST_AUTO_TEST_CASE</text>
</a>
</g>
</g>
<!-- Node11&#45;&gt;Node12 -->
<g id="edge11_Node000011_Node000012" class="edge">
<title>Node11&#45;&gt;Node12</title>
<g id="a_edge11_Node000011_Node000012"><a xlink:title=" ">
<path fill="none" stroke="#63b8ff" d="M171.52,-245.2C163.5,-246.09 155.5,-246.99 147.72,-247.85"/>
<polygon fill="#63b8ff" stroke="#63b8ff" points="171.79,-248.69 181.34,-244.11 171.01,-241.74 171.79,-248.69"/>
</a>
</g>
</g>
<!-- Node13 -->
<g id="Node000013" class="node">
<title>Node13</title>
<g id="a_Node000013"><a xlink:href="_test_menu_view_presenter_8cpp.html#a9eead603abf63a8882a408141b378426" target="_top" xlink:title=" ">
<polygon fill="white" stroke="#666666" points="147.25,-228 0,-228 0,-196 147.25,-196 147.25,-228"/>
<text xml:space="preserve" text-anchor="start" x="8" y="-214.5" font-family="Helvetica,sans-Serif" font-size="10.00">BOOST_AUTO_TEST_CASE</text>
<text xml:space="preserve" text-anchor="middle" x="73.62" y="-202.5" font-family="Helvetica,sans-Serif" font-size="10.00">_TEMPLATE</text>
</a>
</g>
</g>
<!-- Node11&#45;&gt;Node13 -->
<g id="edge12_Node000011_Node000013" class="edge">
<title>Node11&#45;&gt;Node13</title>
<g id="a_edge12_Node000011_Node000013"><a xlink:title=" ">
<path fill="none" stroke="#63b8ff" d="M171.52,-222.8C163.5,-221.91 155.5,-221.01 147.72,-220.15"/>
<polygon fill="#63b8ff" stroke="#63b8ff" points="171.01,-226.26 181.34,-223.89 171.79,-219.31 171.01,-226.26"/>
</a>
</g>
</g>
<!-- Node15 -->
<g id="Node000015" class="node">
<title>Node15</title>
<g id="a_Node000015"><a xlink:href="namespacedepicture__menu_1_1cs__binding.html#ae572bad0d69db1d1c8b9e1934514c6d9" target="_top" xlink:title=" ">
<polygon fill="white" stroke="#666666" points="933.5,-181 799,-181 799,-149 933.5,-149 933.5,-181"/>
<text xml:space="preserve" text-anchor="start" x="807" y="-167.5" font-family="Helvetica,sans-Serif" font-size="10.00">depicture_menu::cs</text>
<text xml:space="preserve" text-anchor="middle" x="866.25" y="-155.5" font-family="Helvetica,sans-Serif" font-size="10.00">_binding::apply_menu_item</text>
</a>
</g>
</g>
<!-- Node14&#45;&gt;Node15 -->
<g id="edge14_Node000014_Node000015" class="edge">
<title>Node14&#45;&gt;Node15</title>
<g id="a_edge14_Node000014_Node000015"><a xlink:title=" ">
<path fill="none" stroke="#63b8ff" d="M1159.95,-155.37C1094.16,-157.54 997.74,-160.71 933.78,-162.81"/>
<polygon fill="#63b8ff" stroke="#63b8ff" points="1159.66,-158.89 1169.54,-155.06 1159.43,-151.89 1159.66,-158.89"/>
</a>
</g>
</g>
<!-- Node17 -->
<g id="Node000017" class="node">
<title>Node17</title>
<g id="a_Node000017"><a xlink:href="structdepicture__menu_1_1domain_1_1menu_1_1radialmenu__item.html#aadf2f8ebe06021b018c6c67e3dfa3682" target="_top" xlink:title=" ">
<polygon fill="white" stroke="#666666" points="1119.38,-237 996.12,-237 996.12,-193 1119.38,-193 1119.38,-237"/>
<text xml:space="preserve" text-anchor="start" x="1004.12" y="-223.5" font-family="Helvetica,sans-Serif" font-size="10.00">depicture_menu::domain</text>
<text xml:space="preserve" text-anchor="start" x="1004.12" y="-211.5" font-family="Helvetica,sans-Serif" font-size="10.00">::menu::radialmenu_item</text>
<text xml:space="preserve" text-anchor="middle" x="1057.75" y="-199.5" font-family="Helvetica,sans-Serif" font-size="10.00">::current_action_kind</text>
</a>
</g>
</g>
<!-- Node14&#45;&gt;Node17 -->
<g id="edge16_Node000014_Node000017" class="edge">
<title>Node14&#45;&gt;Node17</title>
<g id="a_edge16_Node000014_Node000017"><a xlink:title=" ">
<path fill="none" stroke="#63b8ff" d="M1160.69,-178.54C1147.06,-183.42 1132.91,-188.48 1119.65,-193.22"/>
<polygon fill="#63b8ff" stroke="#63b8ff" points="1161.82,-181.86 1170.06,-175.19 1159.47,-175.27 1161.82,-181.86"/>
</a>
</g>
</g>
<!-- Node18 -->
<g id="Node000018" class="node">
<title>Node18</title>
<g id="a_Node000018"><a xlink:href="structdepicture__menu_1_1domain_1_1menu_1_1radialmenu__item.html#a5f68ba3ad911890c83dcbdfd719ef1a8" target="_top" xlink:title=" ">
<polygon fill="white" stroke="#666666" points="1119.38,-137 996.12,-137 996.12,-93 1119.38,-93 1119.38,-137"/>
<text xml:space="preserve" text-anchor="start" x="1004.12" y="-123.5" font-family="Helvetica,sans-Serif" font-size="10.00">depicture_menu::domain</text>
<text xml:space="preserve" text-anchor="start" x="1004.12" y="-111.5" font-family="Helvetica,sans-Serif" font-size="10.00">::menu::radialmenu_item</text>
<text xml:space="preserve" text-anchor="middle" x="1057.75" y="-99.5" font-family="Helvetica,sans-Serif" font-size="10.00">::get_action_ids_range</text>
</a>
</g>
</g>
<!-- Node14&#45;&gt;Node18 -->
<g id="edge19_Node000014_Node000018" class="edge">
<title>Node14&#45;&gt;Node18</title>
<g id="a_edge19_Node000014_Node000018"><a xlink:title=" ">
<path fill="none" stroke="#63b8ff" d="M1160.29,-137.25C1146.78,-134.29 1132.78,-131.23 1119.65,-128.35"/>
<polygon fill="#63b8ff" stroke="#63b8ff" points="1159.49,-140.66 1170.01,-139.39 1160.99,-133.83 1159.49,-140.66"/>
</a>
</g>
</g>
<!-- Node19 -->
<g id="Node000019" class="node">
<title>Node19</title>
<g id="a_Node000019"><a xlink:href="structdepicture__menu_1_1usecase_1_1menu__item__sync.html#a73116168f11c4971bf386b8355e49889" target="_top" xlink:title=" ">
<polygon fill="white" stroke="#666666" points="1135.5,-57 980,-57 980,-25 1135.5,-25 1135.5,-57"/>
<text xml:space="preserve" text-anchor="start" x="988" y="-43.5" font-family="Helvetica,sans-Serif" font-size="10.00">depicture_menu::usecase</text>
<text xml:space="preserve" text-anchor="middle" x="1057.75" y="-31.5" font-family="Helvetica,sans-Serif" font-size="10.00">::menu_item_sync::make_query</text>
</a>
</g>
</g>
<!-- Node14&#45;&gt;Node19 -->
<g id="edge20_Node000014_Node000019" class="edge">
<title>Node14&#45;&gt;Node19</title>
<g id="a_edge20_Node000014_Node000019"><a xlink:title=" ">
<path fill="none" stroke="#63b8ff" d="M1193.41,-123.88C1176.01,-111.18 1155.03,-96.39 1135.5,-84 1120.8,-74.67 1103.97,-65.12 1089.83,-57.4"/>
<polygon fill="#63b8ff" stroke="#63b8ff" points="1191.32,-126.69 1201.45,-129.8 1195.47,-121.05 1191.32,-126.69"/>
</a>
</g>
</g>
<!-- Node16 -->
<g id="Node000016" class="node">
<title>Node16</title>
<g id="a_Node000016"><a xlink:href="namespacedepicture__menu_1_1cs__binding.html#a17af5c2678e88aa88a411f7d98a360a5" target="_top" xlink:title=" ">
<polygon fill="white" stroke="#666666" points="752.5,-181 618.75,-181 618.75,-149 752.5,-149 752.5,-181"/>
<text xml:space="preserve" text-anchor="start" x="626.75" y="-167.5" font-family="Helvetica,sans-Serif" font-size="10.00">depicture_menu::cs</text>
<text xml:space="preserve" text-anchor="middle" x="685.62" y="-155.5" font-family="Helvetica,sans-Serif" font-size="10.00">_binding::apply_radialmenu</text>
</a>
</g>
</g>
<!-- Node15&#45;&gt;Node16 -->
<g id="edge15_Node000015_Node000016" class="edge">
<title>Node15&#45;&gt;Node16</title>
<g id="a_edge15_Node000015_Node000016"><a xlink:title=" ">
<path fill="none" stroke="#63b8ff" d="M787.36,-165C775.87,-165 764.12,-165 752.9,-165"/>
<polygon fill="#63b8ff" stroke="#63b8ff" points="787.22,-168.5 797.22,-165 787.22,-161.5 787.22,-168.5"/>
</a>
</g>
</g>
<!-- Node17&#45;&gt;Node5 -->
<g id="edge18_Node000017_Node000005" class="edge">
<title>Node17&#45;&gt;Node5</title>
<g id="a_edge18_Node000017_Node000005"><a xlink:title=" ">
<path fill="none" stroke="#63b8ff" d="M984.28,-215C966.53,-215 947.69,-215 930.42,-215"/>
<polygon fill="#63b8ff" stroke="#63b8ff" points="984.23,-218.5 994.23,-215 984.23,-211.5 984.23,-218.5"/>
</a>
</g>
</g>
<!-- Node17&#45;&gt;Node15 -->
<g id="edge17_Node000017_Node000015" class="edge">
<title>Node17&#45;&gt;Node15</title>
<g id="a_edge17_Node000017_Node000015"><a xlink:title=" ">
<path fill="none" stroke="#63b8ff" d="M984.67,-195.98C966.59,-191.21 947.34,-186.13 929.77,-181.49"/>
<polygon fill="#63b8ff" stroke="#63b8ff" points="983.72,-199.35 994.28,-198.52 985.51,-192.58 983.72,-199.35"/>
</a>
</g>
</g>
<!-- Node19&#45;&gt;Node19 -->
<g id="edge22_Node000019_Node000019" class="edge">
<title>Node19&#45;&gt;Node19</title>
<g id="a_edge22_Node000019_Node000019"><a xlink:title=" ">
<path fill="none" stroke="#63b8ff" d="M1086.98,-68.71C1082.1,-72.48 1072.36,-75 1057.75,-75 1031.03,-75 1020.6,-66.58 1026.44,-57.44"/>
<polygon fill="#63b8ff" stroke="#63b8ff" points="1090.41,-69.4 1088.78,-58.93 1083.52,-68.13 1090.41,-69.4"/>
</a>
</g>
</g>
<!-- Node20 -->
<g id="Node000020" class="node">
<title>Node20</title>
<g id="a_Node000020"><a xlink:href="structdepicture__menu_1_1usecase_1_1menu__item__sync.html#a20a37011fcd78b49181246ad5a07097f" target="_top" xlink:title=" ">
<polygon fill="white" stroke="#666666" points="944,-82 788.5,-82 788.5,-50 944,-50 944,-82"/>
<text xml:space="preserve" text-anchor="start" x="796.5" y="-68.5" font-family="Helvetica,sans-Serif" font-size="10.00">depicture_menu::usecase</text>
<text xml:space="preserve" text-anchor="middle" x="866.25" y="-56.5" font-family="Helvetica,sans-Serif" font-size="10.00">::menu_item_sync::make_query</text>
</a>
</g>
</g>
<!-- Node19&#45;&gt;Node20 -->
<g id="edge21_Node000019_Node000020" class="edge">
<title>Node19&#45;&gt;Node20</title>
<g id="a_edge21_Node000019_Node000020"><a xlink:title=" ">
<path fill="none" stroke="#63b8ff" d="M968.36,-52.66C960.31,-53.72 952.2,-54.79 944.26,-55.84"/>
<polygon fill="#63b8ff" stroke="#63b8ff" points="968.72,-56.14 978.17,-51.37 967.8,-49.2 968.72,-56.14"/>
</a>
</g>
</g>
<!-- Node21 -->
<g id="Node000021" class="node">
<title>Node21</title>
<g id="a_Node000021"><a xlink:href="structdepicture__menu_1_1usecase_1_1menu__item__sync.html#a9fd674e4ea4f37a1275b7fcf15ad2ae5" target="_top" xlink:title=" ">
<polygon fill="white" stroke="#666666" points="938,-32 794.5,-32 794.5,0 938,0 938,-32"/>
<text xml:space="preserve" text-anchor="start" x="802.5" y="-18.5" font-family="Helvetica,sans-Serif" font-size="10.00">depicture_menu::usecase</text>
<text xml:space="preserve" text-anchor="middle" x="866.25" y="-6.5" font-family="Helvetica,sans-Serif" font-size="10.00">::menu_item_sync::operator()</text>
</a>
</g>
</g>
<!-- Node19&#45;&gt;Node21 -->
<g id="edge23_Node000019_Node000021" class="edge">
<title>Node19&#45;&gt;Node21</title>
<g id="a_edge23_Node000019_Node000021"><a xlink:title=" ">
<path fill="none" stroke="#63b8ff" d="M968.4,-29.34C958.37,-28.02 948.23,-26.68 938.45,-25.39"/>
<polygon fill="#63b8ff" stroke="#63b8ff" points="967.8,-32.8 978.17,-30.63 968.72,-25.86 967.8,-32.8"/>
</a>
</g>
</g>
<!-- Node22&#45;&gt;Node17 -->
<g id="edge25_Node000022_Node000017" class="edge">
<title>Node22&#45;&gt;Node17</title>
<g id="a_edge25_Node000022_Node000017"><a xlink:title=" ">
<path fill="none" stroke="#63b8ff" d="M1160.29,-215C1146.78,-215 1132.78,-215 1119.65,-215"/>
<polygon fill="#63b8ff" stroke="#63b8ff" points="1159.97,-218.5 1169.97,-215 1159.97,-211.5 1159.97,-218.5"/>
</a>
</g>
</g>
</g>
</svg>
