<?xml version="1.0" encoding="UTF-8" standalone="no"?>
<!DOCTYPE svg PUBLIC "-//W3C//DTD SVG 1.1//EN"
 "http://www.w3.org/Graphics/SVG/1.1/DTD/svg11.dtd">
<!-- Generated by graphviz version 14.1.2 (20260124.0452)
 -->
<!-- Title: BOOST_AUTO_TEST_CASE Pages: 1 -->
<!--zoomable 250 -->

<svg id="main" version="1.1" xmlns="http://www.w3.org/2000/svg" xmlns:xlink="http://www.w3.org/1999/xlink" xml:space="preserve" onload="init(evt)">

<style type="text/css"><![CDATA[
.node, .edge {opacity: 0.7;}
.node.selected, .edge.selected {opacity: 1;}
.edge:hover path { stroke: red; }
.edge:hover polygon { stroke: red; fill: red; }
]]></style>

<defs>
  <circle id="rim" cx="0" cy="0" r="7"/>
  <circle id="rim2" cx="0" cy="0" r="3.5"/>
  <g id="zoomPlus">
    <use xlink:href="#rim" fill="#404040"><set attributeName="fill" to="#808080" begin="zoomplus.mouseover" end="zoomplus.mouseout"/></use>
    <path d="M-4,0h8M0,-4v8" fill="none" stroke="white" stroke-width="1.5" pointer-events="none"/>
  </g>
  <g id="zoomMin">
    <use xlink:href="#rim" fill="#404040"><set attributeName="fill" to="#808080" begin="zoomminus.mouseover" end="zoomminus.mouseout"/></use>
    <path d="M-4,0h8" fill="none" stroke="white" stroke-width="1.5" pointer-events="none"/>
  </g>
  <g id="arrowUp" transform="translate(30 24)">
    <use xlink:href="#rim"/>
    <path pointer-events="none" fill="none" stroke="white" stroke-width="1.5" d="M0,-3.0v7 M-2.5,-0.5L0,-3.0L2.5,-0.5"/>
  </g>
  <g id="arrowRight" transform="rotate(90) translate(36 -43)">
    <use xlink:href="#rim"/>
    <path pointer-events="none" fill="none" stroke="white" stroke-width="1.5" d="M0,-3.0v7 M-2.5,-0.5L0,-3.0L2.5,-0.5"/>
  </g>
  <g id="arrowDown" transform="rotate(180) translate(-30 -48)">
    <use xlink:href="#rim"/>
    <path pointer-events="none" fill="none" stroke="white" stroke-width="1.5" d="M0,-3.0v7 M-2.5,-0.5L0,-3.0L2.5,-0.5"/>
  </g>
  <g id="arrowLeft" transform="rotate(270) translate(-36 17)">
    <use xlink:href="#rim"/>
    <path pointer-events="none" fill="none" stroke="white" stroke-width="1.5" d="M0,-3.0v7 M-2.5,-0.5L0,-3.0L2.5,-0.5"/>
  </g>
  <g id="resetDef">
    <use xlink:href="#rim2" fill="#404040"><set attributeName="fill" to="#808080" begin="reset.mouseover" end="reset.mouseout"/></use>
  </g>
</defs>
<script type="application/ecmascript">
var viewWidth = 705;
var viewHeight = 250;
var sectionId = 'dynsection-1';
</script>
<script type="application/ecmascript" xlink:href="svg.min.js"/>
<svg id="graph" class="graph">
<g id="viewport">
<title>BOOST_AUTO_TEST_CASE</title>
<!-- Node1 -->
<g id="Node000001" class="node">
<title>Node1</title>
<g id="a_Node000001"><a xlink:title=" ">
<polygon fill="#999999" stroke="#666666" points="147.25,-134 0,-134 0,-114 147.25,-114 147.25,-134"/>
<text xml:space="preserve" text-anchor="middle" x="73.62" y="-120.5" font-family="Helvetica,sans-Serif" font-size="10.00">BOOST_AUTO_TEST_CASE</text>
</a>
</g>
</g>
<!-- Node2 -->
<g id="Node000002" class="node">
<title>Node2</title>
<g id="a_Node000002"><a xlink:href="_test_backup_json_8cpp.html#a7e34729c6c239f42bdca84da1ecfbca1" target="_top" xlink:title="read_backup_format version">
<polygon fill="white" stroke="#666666" points="335,-224 187.75,-224 187.75,-204 335,-204 335,-224"/>
<text xml:space="preserve" text-anchor="middle" x="261.38" y="-210.5" font-family="Helvetica,sans-Serif" font-size="10.00">BOOST_AUTO_TEST_CASE</text>
</a>
</g>
</g>
<!-- Node1&#45;&gt;Node2 -->
<g id="edge1_Node000001_Node000002" class="edge">
<title>Node1&#45;&gt;Node2</title>
<g id="a_edge1_Node000001_Node000002"><a xlink:title=" ">
<path fill="none" stroke="#63b8ff" d="M87.18,-134.27C106.61,-149.66 145.65,-178.65 183.25,-195 187.59,-196.89 192.15,-198.61 196.8,-200.18"/>
<polygon fill="#63b8ff" stroke="#63b8ff" points="195.69,-203.5 206.28,-203.11 197.76,-196.81 195.69,-203.5"/>
</a>
</g>
</g>
<!-- Node5 -->
<g id="Node000005" class="node">
<title>Node5</title>
<g id="a_Node000005"><a xlink:href="structdepicture__menu_1_1domain_1_1models_1_1base_1_1entity__base.html#adce587e64220cc3a3407233c1fc61ba4" target="_top" xlink:title=" ">
<polygon fill="white" stroke="#666666" points="322.62,-186 200.12,-186 200.12,-142 322.62,-142 322.62,-186"/>
<text xml:space="preserve" text-anchor="start" x="208.12" y="-172.5" font-family="Helvetica,sans-Serif" font-size="10.00">depicture_menu::domain</text>
<text xml:space="preserve" text-anchor="start" x="208.12" y="-160.5" font-family="Helvetica,sans-Serif" font-size="10.00">::models::base::entity</text>
<text xml:space="preserve" text-anchor="middle" x="261.38" y="-148.5" font-family="Helvetica,sans-Serif" font-size="10.00">_base::entity_id</text>
</a>
</g>
</g>
<!-- Node1&#45;&gt;Node5 -->
<g id="edge5_Node000001_Node000005" class="edge">
<title>Node1&#45;&gt;Node5</title>
<g id="a_edge5_Node000001_Node000005"><a xlink:title=" ">
<path fill="none" stroke="#63b8ff" d="M122.94,-134.41C142.99,-138.72 166.67,-143.82 188.67,-148.56"/>
<polygon fill="#63b8ff" stroke="#63b8ff" points="187.66,-151.92 198.17,-150.61 189.13,-145.08 187.66,-151.92"/>
</a>
</g>
</g>
<!-- Node6 -->
<g id="Node000006" class="node">
<title>Node6</title>
<g id="a_Node000006"><a xlink:href="classdepicture__menu_1_1domain_1_1services_1_1create__action__domain__service.html#a2fd6a95617cfa15455a9c1f0d80896e2" target="_top" xlink:title=" ">
<polygon fill="white" stroke="#666666" points="323,-106 199.75,-106 199.75,-62 323,-62 323,-106"/>
<text xml:space="preserve" text-anchor="start" x="207.75" y="-92.5" font-family="Helvetica,sans-Serif" font-size="10.00">depicture_menu::domain</text>
<text xml:space="preserve" text-anchor="start" x="207.75" y="-80.5" font-family="Helvetica,sans-Serif" font-size="10.00">::services::create_action</text>
<text xml:space="preserve" text-anchor="middle" x="261.38" y="-68.5" font-family="Helvetica,sans-Serif" font-size="10.00">_domain_service::result</text>
</a>
</g>
</g>
<!-- Node1&#45;&gt;Node6 -->
<g id="edge6_Node000001_Node000006" class="edge">
<title>Node1&#45;&gt;Node6</title>
<g id="a_edge6_Node000001_Node000006"><a xlink:title=" ">
<path fill="none" stroke="#63b8ff" d="M122.94,-113.59C142.81,-109.32 166.23,-104.27 188.07,-99.57"/>
<polygon fill="#63b8ff" stroke="#63b8ff" points="188.79,-103 197.83,-97.47 187.32,-96.15 188.79,-103"/>
</a>
</g>
</g>
<!-- Node7 -->
<g id="Node000007" class="node">
<title>Node7</title>
<g id="a_Node000007"><a xlink:href="classdepicture__menu_1_1domain_1_1services_1_1create__action__domain__service.html#a91f730d246a2551d783e38d15aa3329d" target="_top" xlink:title=" ">
<polygon fill="white" stroke="#666666" points="339.5,-44 183.25,-44 183.25,0 339.5,0 339.5,-44"/>
<text xml:space="preserve" text-anchor="start" x="191.25" y="-30.5" font-family="Helvetica,sans-Serif" font-size="10.00">depicture_menu::domain</text>
<text xml:space="preserve" text-anchor="start" x="191.25" y="-18.5" font-family="Helvetica,sans-Serif" font-size="10.00">::services::create_action</text>
<text xml:space="preserve" text-anchor="middle" x="261.38" y="-6.5" font-family="Helvetica,sans-Serif" font-size="10.00">_domain_service::update_config</text>
</a>
</g>
</g>
<!-- Node1&#45;&gt;Node7 -->
<g id="edge8_Node000001_Node000007" class="edge">
<title>Node1&#45;&gt;Node7</title>
<g id="a_edge8_Node000001_Node000007"><a xlink:title=" ">
<path fill="none" stroke="#63b8ff" d="M88.49,-113.65C108.63,-98.93 147.49,-71.64 183.25,-53 185.77,-51.69 188.36,-50.39 190.99,-49.12"/>
<polygon fill="#63b8ff" stroke="#63b8ff" points="192.32,-52.36 199.92,-44.98 189.38,-46.01 192.32,-52.36"/>
</a>
</g>
</g>
<!-- Node2&#45;&gt;Node2 -->
<g id="edge2_Node000002_Node000002" class="edge">
<title>Node2&#45;&gt;Node2</title>
<g id="a_edge2_Node000002_Node000002"><a xlink:title=" ">
<path fill="none" stroke="#63b8ff" d="M231.9,-224.34C219.31,-232.98 229.13,-242 261.38,-242 279.51,-242 290.56,-239.14 294.51,-235.11"/>
<polygon fill="#63b8ff" stroke="#63b8ff" points="297.87,-234.12 291.34,-225.77 291.24,-236.37 297.87,-234.12"/>
</a>
</g>
</g>
<!-- Node3 -->
<g id="Node000003" class="node">
<title>Node3</title>
<g id="a_Node000003"><a xlink:href="namespacedepicture__menu_1_1applications_1_1backup__json.html#a4b92dd4ce35fec07d5d30021f80600fa" target="_top" xlink:title="backup data version 取得">
<polygon fill="white" stroke="#666666" points="518.25,-236 375.5,-236 375.5,-192 518.25,-192 518.25,-236"/>
<text xml:space="preserve" text-anchor="start" x="383.5" y="-222.5" font-family="Helvetica,sans-Serif" font-size="10.00">depicture_menu::applications</text>
<text xml:space="preserve" text-anchor="start" x="383.5" y="-210.5" font-family="Helvetica,sans-Serif" font-size="10.00">::backup_json::read_backup</text>
<text xml:space="preserve" text-anchor="middle" x="446.88" y="-198.5" font-family="Helvetica,sans-Serif" font-size="10.00">_version</text>
</a>
</g>
</g>
<!-- Node2&#45;&gt;Node3 -->
<g id="edge3_Node000002_Node000003" class="edge">
<title>Node2&#45;&gt;Node3</title>
<g id="a_edge3_Node000002_Node000003"><a xlink:title=" ">
<path fill="none" stroke="#63b8ff" d="M335.43,-214C344.73,-214 354.31,-214 363.75,-214"/>
<polygon fill="#63b8ff" stroke="#63b8ff" points="363.65,-217.5 373.65,-214 363.65,-210.5 363.65,-217.5"/>
</a>
</g>
</g>
<!-- Node4 -->
<g id="Node000004" class="node">
<title>Node4</title>
<g id="a_Node000004"><a xlink:href="namespacedepicture__menu_1_1applications_1_1backup__json_1_1detail.html#a3e231b62ee483eebf603f3a54cc82ee3" target="_top" xlink:title="エラー値構築関数">
<polygon fill="white" stroke="#666666" points="697,-236 554.25,-236 554.25,-192 697,-192 697,-236"/>
<text xml:space="preserve" text-anchor="start" x="562.25" y="-222.5" font-family="Helvetica,sans-Serif" font-size="10.00">depicture_menu::applications</text>
<text xml:space="preserve" text-anchor="start" x="562.25" y="-210.5" font-family="Helvetica,sans-Serif" font-size="10.00">::backup_json::detail::make</text>
<text xml:space="preserve" text-anchor="middle" x="625.62" y="-198.5" font-family="Helvetica,sans-Serif" font-size="10.00">_error_code</text>
</a>
</g>
</g>
<!-- Node3&#45;&gt;Node4 -->
<g id="edge4_Node000003_Node000004" class="edge">
<title>Node3&#45;&gt;Node4</title>
<g id="a_edge4_Node000003_Node000004"><a xlink:title=" ">
<path fill="none" stroke="#63b8ff" d="M518.75,-214C526.65,-214 534.74,-214 542.76,-214"/>
<polygon fill="#63b8ff" stroke="#63b8ff" points="542.51,-217.5 552.51,-214 542.51,-210.5 542.51,-217.5"/>
</a>
</g>
</g>
<!-- Node6&#45;&gt;Node6 -->
<g id="edge7_Node000006_Node000006" class="edge">
<title>Node6&#45;&gt;Node6</title>
<g id="a_edge7_Node000006_Node000006"><a xlink:title=" ">
<path fill="none" stroke="#63b8ff" d="M227.01,-106.21C224.2,-115.8 235.65,-124 261.38,-124 276.65,-124 286.89,-121.11 292.1,-116.75"/>
<polygon fill="#63b8ff" stroke="#63b8ff" points="295.29,-118.24 295.25,-107.64 288.68,-115.96 295.29,-118.24"/>
</a>
</g>
</g>
</g>
</svg>

<g id="navigator" transform="translate(0 0)" fill="#404254">
  <rect fill="#f2f5e9" fill-opacity="0.5" stroke="#606060" stroke-width=".5" x="0" y="0" width="60" height="60"/>
  <use id="zoomplus" xlink:href="#zoomPlus" x="17" y="9" onmousedown="handleZoom(evt,'in')"/>
  <use id="zoomminus" xlink:href="#zoomMin" x="42" y="9" onmousedown="handleZoom(evt,'out')"/>
  <use id="reset" xlink:href="#resetDef" x="30" y="36" onmousedown="handleReset()"/>
   <use id="arrowup" xlink:href="#arrowUp" x="0" y="0" onmousedown="handlePan(0,-1)"/>
  <use id="arrowright" xlink:href="#arrowRight" x="0" y="0" onmousedown="handlePan(1,0)"/>
  <use id="arrowdown" xlink:href="#arrowDown" x="0" y="0" onmousedown="handlePan(0,1)"/>
  <use id="arrowleft" xlink:href="#arrowLeft" x="0" y="0" onmousedown="handlePan(-1,0)"/>
</g>
<svg viewBox="0 0 15 15" width="100%" height="30px" preserveAspectRatio="xMaxYMin meet">
 <g id="arrow_out" transform="scale(0.3 0.3)">
  <a xlink:href="test__create__action__domain__service_8cpp_a0ba4ff3ec435915cea4dd0214e61051d_cgraph_org.svg" target="_base">
   <rect id="button" ry="5" rx="5" y="6" x="6" height="38" width="38"
        fill="#f2f5e9" fill-opacity="0.5" stroke="#606060" stroke-width="1.0"/>
   <path id="arrow"
     d="M 11.500037,31.436501 C 11.940474,20.09759 22.043105,11.32322 32.158766,21.979434 L 37.068811,17.246167 C 37.068811,17.246167 37.088388,32 37.088388,32 L 22.160133,31.978069 C 22.160133,31.978069 26.997745,27.140456 26.997745,27.140456 C 18.528582,18.264221 13.291696,25.230495 11.500037,31.436501 z"
     style="fill:#404040;"/>
  </a>
 </g>
</svg>

<style type='text/css'>
<![CDATA[
[data-mouse-over-selected='false'] { opacity: 0.7; }
[data-mouse-over-selected='true']  { opacity: 1.0; }
]]>
</style>
<script type="application/ecmascript"><![CDATA[
document.addEventListener('DOMContentLoaded', (event) => {
  highlightEdges();
  highlightAdjacentNodes();
});
]]></script>
</svg>
