<?xml version="1.0" encoding="UTF-8" standalone="no"?>
<!DOCTYPE svg PUBLIC "-//W3C//DTD SVG 1.1//EN"
 "http://www.w3.org/Graphics/SVG/1.1/DTD/svg11.dtd">
<!-- Generated by graphviz version 14.1.2 (20260124.0452)
 -->
<!-- Title: BOOST_AUTO_TEST_CASE Pages: 1 -->
<!--zoomable 366 -->

<svg id="main" version="1.1" xmlns="http://www.w3.org/2000/svg" xmlns:xlink="http://www.w3.org/1999/xlink" xml:space="preserve" onload="init(evt)">

<style type="text/css"><![CDATA[
.node, .edge {opacity: 0.7;}
.node.selected, .edge.selected {opacity: 1;}
.edge:hover path { stroke: red; }
.edge:hover polygon { stroke: red; fill: red; }
]]></style>

<defs>
  <circle id="rim" cx="0" cy="0" r="7"/>
  <circle id="rim2" cx="0" cy="0" r="3.5"/>
  <g id="zoomPlus">
    <use xlink:href="#rim" fill="#404040"><set attributeName="fill" to="#808080" begin="zoomplus.mouseover" end="zoomplus.mouseout"/></use>
    <path d="M-4,0h8M0,-4v8" fill="none" stroke="white" stroke-width="1.5" pointer-events="none"/>
  </g>
  <g id="zoomMin">
    <use xlink:href="#rim" fill="#404040"><set attributeName="fill" to="#808080" begin="zoomminus.mouseover" end="zoomminus.mouseout"/></use>
    <path d="M-4,0h8" fill="none" stroke="white" stroke-width="1.5" pointer-events="none"/>
  </g>
  <g id="arrowUp" transform="translate(30 24)">
    <use xlink:href="#rim"/>
    <path pointer-events="none" fill="none" stroke="white" stroke-width="1.5" d="M0,-3.0v7 M-2.5,-0.5L0,-3.0L2.5,-0.5"/>
  </g>
  <g id="arrowRight" transform="rotate(90) translate(36 -43)">
    <use xlink:href="#rim"/>
    <path pointer-events="none" fill="none" stroke="white" stroke-width="1.5" d="M0,-3.0v7 M-2.5,-0.5L0,-3.0L2.5,-0.5"/>
  </g>
  <g id="arrowDown" transform="rotate(180) translate(-30 -48)">
    <use xlink:href="#rim"/>
    <path pointer-events="none" fill="none" stroke="white" stroke-width="1.5" d="M0,-3.0v7 M-2.5,-0.5L0,-3.0L2.5,-0.5"/>
  </g>
  <g id="arrowLeft" transform="rotate(270) translate(-36 17)">
    <use xlink:href="#rim"/>
    <path pointer-events="none" fill="none" stroke="white" stroke-width="1.5" d="M0,-3.0v7 M-2.5,-0.5L0,-3.0L2.5,-0.5"/>
  </g>
  <g id="resetDef">
    <use xlink:href="#rim2" fill="#404040"><set attributeName="fill" to="#808080" begin="reset.mouseover" end="reset.mouseout"/></use>
  </g>
</defs>
<script type="application/ecmascript">
var viewWidth = 536;
var viewHeight = 366;
var sectionId = 'dynsection-1';
</script>
<script type="application/ecmascript" xlink:href="svg.min.js"/>
<svg id="graph" class="graph">
<g id="viewport">
<title>BOOST_AUTO_TEST_CASE</title>
<!-- Node1 -->
<g id="Node000001" class="node">
<title>Node1</title>
<g id="a_Node000001"><a xlink:title="ipc_send : TestCase">
<polygon fill="#999999" stroke="#666666" points="147.25,-189 0,-189 0,-169 147.25,-169 147.25,-189"/>
<text xml:space="preserve" text-anchor="middle" x="73.62" y="-175.5" font-family="Helvetica,sans-Serif" font-size="10.00">BOOST_AUTO_TEST_CASE</text>
</a>
</g>
</g>
<!-- Node2 -->
<g id="Node000002" class="node">
<title>Node2</title>
<g id="a_Node000002"><a xlink:href="_test_config_view_presenter_8cpp.html#a7845eb0c68b997d6d329618f36f7e794" target="_top" xlink:title=" ">
<polygon fill="white" stroke="#666666" points="299.75,-358 218.5,-358 218.5,-338 299.75,-338 299.75,-358"/>
<text xml:space="preserve" text-anchor="middle" x="259.12" y="-344.5" font-family="Helvetica,sans-Serif" font-size="10.00">BOOST_TEST</text>
</a>
</g>
</g>
<!-- Node1&#45;&gt;Node2 -->
<g id="edge1_Node000001_Node000002" class="edge">
<title>Node1&#45;&gt;Node2</title>
<g id="a_edge1_Node000001_Node000002"><a xlink:title=" ">
<path fill="none" stroke="#63b8ff" d="M78.99,-189.27C91.15,-216.62 128.18,-291.62 183.25,-329 190.43,-333.87 198.75,-337.49 207.19,-340.19"/>
<polygon fill="#63b8ff" stroke="#63b8ff" points="206.24,-343.55 216.81,-342.82 208.09,-336.8 206.24,-343.55"/>
</a>
</g>
</g>
<!-- Node3 -->
<g id="Node000003" class="node">
<title>Node3</title>
<g id="a_Node000003"><a xlink:href="namespacedepicture__menu_1_1application_1_1proceses.html#a76220e6574f82948643f925c98eaff63" target="_top" xlink:title=" ">
<polygon fill="white" stroke="#666666" points="335,-220 183.25,-220 183.25,-188 335,-188 335,-220"/>
<text xml:space="preserve" text-anchor="start" x="191.25" y="-206.5" font-family="Helvetica,sans-Serif" font-size="10.00">depicture_menu::application</text>
<text xml:space="preserve" text-anchor="middle" x="259.12" y="-194.5" font-family="Helvetica,sans-Serif" font-size="10.00">::proceses::is_open_ipc_server</text>
</a>
</g>
</g>
<!-- Node1&#45;&gt;Node3 -->
<g id="edge2_Node000001_Node000003" class="edge">
<title>Node1&#45;&gt;Node3</title>
<g id="a_edge2_Node000001_Node000003"><a xlink:title=" ">
<path fill="none" stroke="#63b8ff" d="M147.68,-188.95C155.56,-190.03 163.63,-191.13 171.65,-192.22"/>
<polygon fill="#63b8ff" stroke="#63b8ff" points="171.04,-195.67 181.42,-193.55 171.99,-188.73 171.04,-195.67"/>
</a>
</g>
</g>
<!-- Node7 -->
<g id="Node000007" class="node">
<title>Node7</title>
<g id="a_Node000007"><a xlink:href="structdepicture__menu_1_1application_1_1proceses_1_1process__signal.html#a961b9c2b15ee5fbe5de3e1c6eb3c0459" target="_top" xlink:title=" ">
<polygon fill="white" stroke="#666666" points="327.88,-120 190.38,-120 190.38,-76 327.88,-76 327.88,-120"/>
<text xml:space="preserve" text-anchor="start" x="198.38" y="-106.5" font-family="Helvetica,sans-Serif" font-size="10.00">depicture_menu::application</text>
<text xml:space="preserve" text-anchor="start" x="198.38" y="-94.5" font-family="Helvetica,sans-Serif" font-size="10.00">::proceses::process_signal</text>
<text xml:space="preserve" text-anchor="middle" x="259.12" y="-82.5" font-family="Helvetica,sans-Serif" font-size="10.00">::make_data</text>
</a>
</g>
</g>
<!-- Node1&#45;&gt;Node7 -->
<g id="edge6_Node000001_Node000007" class="edge">
<title>Node1&#45;&gt;Node7</title>
<g id="a_edge6_Node000001_Node000007"><a xlink:title=" ">
<path fill="none" stroke="#63b8ff" d="M96.56,-168.6C118.43,-158.3 153,-142.22 183.25,-129 186.37,-127.64 189.57,-126.25 192.81,-124.86"/>
<polygon fill="#63b8ff" stroke="#63b8ff" points="194,-128.16 201.83,-121.03 191.26,-121.72 194,-128.16"/>
</a>
</g>
</g>
<!-- Node8 -->
<g id="Node000008" class="node">
<title>Node8</title>
<g id="a_Node000008"><a xlink:href="test__command__line__option_8cpp.html#a8804cd4df220b4dbe58067cd7f91dcbd" target="_top" xlink:title=" ">
<polygon fill="white" stroke="#666666" points="305,-58 213.25,-58 213.25,-38 305,-38 305,-58"/>
<text xml:space="preserve" text-anchor="middle" x="259.12" y="-44.5" font-family="Helvetica,sans-Serif" font-size="10.00">MOCK_EXPECT</text>
</a>
</g>
</g>
<!-- Node1&#45;&gt;Node8 -->
<g id="edge7_Node000001_Node000008" class="edge">
<title>Node1&#45;&gt;Node8</title>
<g id="a_edge7_Node000001_Node000008"><a xlink:title=" ">
<path fill="none" stroke="#63b8ff" d="M81.44,-168.83C96.84,-146.7 136.59,-94 183.25,-67 189.19,-63.56 195.75,-60.74 202.44,-58.42"/>
<polygon fill="#63b8ff" stroke="#63b8ff" points="203.02,-61.91 211.55,-55.63 200.97,-55.21 203.02,-61.91"/>
</a>
</g>
</g>
<!-- Node9 -->
<g id="Node000009" class="node">
<title>Node9</title>
<g id="a_Node000009"><a xlink:href="test__command__line__option_8cpp.html#a76b71ed405acc0093eaef283c86f6461" target="_top" xlink:title=" ">
<polygon fill="white" stroke="#666666" points="309.5,-20 208.75,-20 208.75,0 309.5,0 309.5,-20"/>
<text xml:space="preserve" text-anchor="middle" x="259.12" y="-6.5" font-family="Helvetica,sans-Serif" font-size="10.00">MOCK_FUNCTOR</text>
</a>
</g>
</g>
<!-- Node1&#45;&gt;Node9 -->
<g id="edge8_Node000001_Node000009" class="edge">
<title>Node1&#45;&gt;Node9</title>
<g id="a_edge8_Node000001_Node000009"><a xlink:title=" ">
<path fill="none" stroke="#63b8ff" d="M78.99,-168.73C91.15,-141.38 128.18,-66.38 183.25,-29 187.73,-25.96 192.66,-23.41 197.79,-21.26"/>
<polygon fill="#63b8ff" stroke="#63b8ff" points="198.85,-24.6 207.08,-17.92 196.48,-18.01 198.85,-24.6"/>
</a>
</g>
</g>
<!-- Node10 -->
<g id="Node000010" class="node">
<title>Node10</title>
<g id="a_Node000010"><a xlink:href="namespacedepicture__menu_1_1application_1_1proceses.html#a9c794e55884fc5d6845325bcde987199" target="_top" xlink:title=" ">
<polygon fill="white" stroke="#666666" points="328.62,-320 189.62,-320 189.62,-288 328.62,-288 328.62,-320"/>
<text xml:space="preserve" text-anchor="start" x="197.62" y="-306.5" font-family="Helvetica,sans-Serif" font-size="10.00">depicture_menu::application</text>
<text xml:space="preserve" text-anchor="middle" x="259.12" y="-294.5" font-family="Helvetica,sans-Serif" font-size="10.00">::proceses::open_ipc_server</text>
</a>
</g>
</g>
<!-- Node1&#45;&gt;Node10 -->
<g id="edge9_Node000001_Node000010" class="edge">
<title>Node1&#45;&gt;Node10</title>
<g id="a_edge9_Node000001_Node000010"><a xlink:title=" ">
<path fill="none" stroke="#63b8ff" d="M83.12,-189.31C100.13,-209.33 140.42,-253.73 183.25,-279 185.54,-280.35 187.91,-281.64 190.34,-282.87"/>
<polygon fill="#63b8ff" stroke="#63b8ff" points="188.67,-285.96 199.22,-286.97 191.6,-279.6 188.67,-285.96"/>
</a>
</g>
</g>
<!-- Node11 -->
<g id="Node000011" class="node">
<title>Node11</title>
<g id="a_Node000011"><a xlink:href="namespacedepicture__menu_1_1application_1_1proceses.html#aeccb178d1672b242a598c3e2f73e2bc8" target="_top" xlink:title=" ">
<polygon fill="white" stroke="#666666" points="329,-270 189.25,-270 189.25,-238 329,-238 329,-270"/>
<text xml:space="preserve" text-anchor="start" x="197.25" y="-256.5" font-family="Helvetica,sans-Serif" font-size="10.00">depicture_menu::application</text>
<text xml:space="preserve" text-anchor="middle" x="259.12" y="-244.5" font-family="Helvetica,sans-Serif" font-size="10.00">::proceses::reset_ipc_server</text>
</a>
</g>
</g>
<!-- Node1&#45;&gt;Node11 -->
<g id="edge11_Node000001_Node000011" class="edge">
<title>Node1&#45;&gt;Node11</title>
<g id="a_edge11_Node000001_Node000011"><a xlink:title=" ">
<path fill="none" stroke="#63b8ff" d="M95.56,-189.47C117.22,-200.1 152.17,-216.7 183.25,-229 187.29,-230.6 191.48,-232.19 195.72,-233.74"/>
<polygon fill="#63b8ff" stroke="#63b8ff" points="194.28,-236.94 204.88,-237.01 196.64,-230.35 194.28,-236.94"/>
</a>
</g>
</g>
<!-- Node12 -->
<g id="Node000012" class="node">
<title>Node12</title>
<g id="a_Node000012"><a xlink:href="namespacedepicture__menu_1_1application_1_1proceses.html#a3c0a93d5b4453acfd65c3f91fd89b0ac" target="_top" xlink:title=" ">
<polygon fill="white" stroke="#666666" points="335,-170 183.25,-170 183.25,-138 335,-138 335,-170"/>
<text xml:space="preserve" text-anchor="start" x="191.25" y="-156.5" font-family="Helvetica,sans-Serif" font-size="10.00">depicture_menu::application</text>
<text xml:space="preserve" text-anchor="middle" x="259.12" y="-144.5" font-family="Helvetica,sans-Serif" font-size="10.00">::proceses::send_ipc_message</text>
</a>
</g>
</g>
<!-- Node1&#45;&gt;Node12 -->
<g id="edge13_Node000001_Node000012" class="edge">
<title>Node1&#45;&gt;Node12</title>
<g id="a_edge13_Node000001_Node000012"><a xlink:title=" ">
<path fill="none" stroke="#63b8ff" d="M147.68,-169.05C155.56,-167.97 163.63,-166.87 171.65,-165.78"/>
<polygon fill="#63b8ff" stroke="#63b8ff" points="171.99,-169.27 181.42,-164.45 171.04,-162.33 171.99,-169.27"/>
</a>
</g>
</g>
<!-- Node4 -->
<g id="Node000004" class="node">
<title>Node4</title>
<g id="a_Node000004"><a xlink:href="_test_config_view_presenter_8cpp.html#a21b35e47ac3d8358063ede6968e59eaa" target="_top" xlink:title=" ">
<polygon fill="white" stroke="#666666" points="469.5,-264 429.5,-264 429.5,-244 469.5,-244 469.5,-264"/>
<text xml:space="preserve" text-anchor="middle" x="449.5" y="-250.5" font-family="Helvetica,sans-Serif" font-size="10.00">name</text>
</a>
</g>
</g>
<!-- Node3&#45;&gt;Node4 -->
<g id="edge3_Node000003_Node000004" class="edge">
<title>Node3&#45;&gt;Node4</title>
<g id="a_edge3_Node000003_Node000004"><a xlink:title=" ">
<path fill="none" stroke="#63b8ff" d="M317.58,-220.44C334.73,-225.25 353.6,-230.44 371,-235 386.39,-239.04 403.57,-243.28 417.83,-246.72"/>
<polygon fill="#63b8ff" stroke="#63b8ff" points="417.02,-250.13 427.56,-249.06 418.65,-243.32 417.02,-250.13"/>
</a>
</g>
</g>
<!-- Node5 -->
<g id="Node000005" class="node">
<title>Node5</title>
<g id="a_Node000005"><a xlink:href="structdepicture__menu_1_1application_1_1proceses_1_1process__signal.html#a692dc3fcfd763e86ba8581abeb7be659" target="_top" xlink:title=" ">
<polygon fill="white" stroke="#666666" points="528,-226 371,-226 371,-194 528,-194 528,-226"/>
<text xml:space="preserve" text-anchor="start" x="379" y="-212.5" font-family="Helvetica,sans-Serif" font-size="10.00">depicture_menu::application</text>
<text xml:space="preserve" text-anchor="middle" x="449.5" y="-200.5" font-family="Helvetica,sans-Serif" font-size="10.00">::proceses::process_signal::ping</text>
</a>
</g>
</g>
<!-- Node3&#45;&gt;Node5 -->
<g id="edge4_Node000003_Node000005" class="edge">
<title>Node3&#45;&gt;Node5</title>
<g id="a_edge4_Node000003_Node000005"><a xlink:title=" ">
<path fill="none" stroke="#63b8ff" d="M335.39,-206.4C343.26,-206.65 351.31,-206.9 359.32,-207.16"/>
<polygon fill="#63b8ff" stroke="#63b8ff" points="358.96,-210.65 369.07,-207.47 359.19,-203.65 358.96,-210.65"/>
</a>
</g>
</g>
<!-- Node6 -->
<g id="Node000006" class="node">
<title>Node6</title>
<g id="a_Node000006"><a xlink:href="namespacedepicture__menu_1_1application_1_1proceses_1_1detail__process.html#a9dc67929e0981a11204961b7ac7e46a8" target="_top" xlink:title=" ">
<polygon fill="white" stroke="#666666" points="518.25,-176 380.75,-176 380.75,-132 518.25,-132 518.25,-176"/>
<text xml:space="preserve" text-anchor="start" x="388.75" y="-162.5" font-family="Helvetica,sans-Serif" font-size="10.00">depicture_menu::application</text>
<text xml:space="preserve" text-anchor="start" x="388.75" y="-150.5" font-family="Helvetica,sans-Serif" font-size="10.00">::proceses::detail_process</text>
<text xml:space="preserve" text-anchor="middle" x="449.5" y="-138.5" font-family="Helvetica,sans-Serif" font-size="10.00">::send_ipc_message</text>
</a>
</g>
</g>
<!-- Node3&#45;&gt;Node6 -->
<g id="edge5_Node000003_Node000006" class="edge">
<title>Node3&#45;&gt;Node6</title>
<g id="a_edge5_Node000003_Node000006"><a xlink:title=" ">
<path fill="none" stroke="#63b8ff" d="M322.07,-187.56C337.23,-183.53 353.66,-179.17 369.49,-174.97"/>
<polygon fill="#63b8ff" stroke="#63b8ff" points="370.11,-178.43 378.88,-172.48 368.32,-171.66 370.11,-178.43"/>
</a>
</g>
</g>
<!-- Node10&#45;&gt;Node4 -->
<g id="edge10_Node000010_Node000004" class="edge">
<title>Node10&#45;&gt;Node4</title>
<g id="a_edge10_Node000010_Node000004"><a xlink:title=" ">
<path fill="none" stroke="#63b8ff" d="M322.07,-287.56C354.43,-278.97 392.57,-268.85 418.43,-261.98"/>
<polygon fill="#63b8ff" stroke="#63b8ff" points="419.15,-265.41 427.92,-259.46 417.35,-258.65 419.15,-265.41"/>
</a>
</g>
</g>
<!-- Node11&#45;&gt;Node4 -->
<g id="edge12_Node000011_Node000004" class="edge">
<title>Node11&#45;&gt;Node4</title>
<g id="a_edge12_Node000011_Node000004"><a xlink:title=" ">
<path fill="none" stroke="#63b8ff" d="M329.47,-254C359.84,-254 393.93,-254 417.81,-254"/>
<polygon fill="#63b8ff" stroke="#63b8ff" points="417.79,-257.5 427.79,-254 417.79,-250.5 417.79,-257.5"/>
</a>
</g>
</g>
<!-- Node12&#45;&gt;Node6 -->
<g id="edge14_Node000012_Node000006" class="edge">
<title>Node12&#45;&gt;Node6</title>
<g id="a_edge14_Node000012_Node000006"><a xlink:title=" ">
<path fill="none" stroke="#63b8ff" d="M335.39,-154C346.42,-154 357.81,-154 368.92,-154"/>
<polygon fill="#63b8ff" stroke="#63b8ff" points="368.86,-157.5 378.86,-154 368.86,-150.5 368.86,-157.5"/>
</a>
</g>
</g>
</g>
</svg>

<g id="navigator" transform="translate(0 0)" fill="#404254">
  <rect fill="#f2f5e9" fill-opacity="0.5" stroke="#606060" stroke-width=".5" x="0" y="0" width="60" height="60"/>
  <use id="zoomplus" xlink:href="#zoomPlus" x="17" y="9" onmousedown="handleZoom(evt,'in')"/>
  <use id="zoomminus" xlink:href="#zoomMin" x="42" y="9" onmousedown="handleZoom(evt,'out')"/>
  <use id="reset" xlink:href="#resetDef" x="30" y="36" onmousedown="handleReset()"/>
   <use id="arrowup" xlink:href="#arrowUp" x="0" y="0" onmousedown="handlePan(0,-1)"/>
  <use id="arrowright" xlink:href="#arrowRight" x="0" y="0" onmousedown="handlePan(1,0)"/>
  <use id="arrowdown" xlink:href="#arrowDown" x="0" y="0" onmousedown="handlePan(0,1)"/>
  <use id="arrowleft" xlink:href="#arrowLeft" x="0" y="0" onmousedown="handlePan(-1,0)"/>
</g>
<svg viewBox="0 0 15 15" width="100%" height="30px" preserveAspectRatio="xMaxYMin meet">
 <g id="arrow_out" transform="scale(0.3 0.3)">
  <a xlink:href="test__process__startup__signal_8cpp_ad48f7023bbd01aa0ef3a7be925d912c1_cgraph_org.svg" target="_base">
   <rect id="button" ry="5" rx="5" y="6" x="6" height="38" width="38"
        fill="#f2f5e9" fill-opacity="0.5" stroke="#606060" stroke-width="1.0"/>
   <path id="arrow"
     d="M 11.500037,31.436501 C 11.940474,20.09759 22.043105,11.32322 32.158766,21.979434 L 37.068811,17.246167 C 37.068811,17.246167 37.088388,32 37.088388,32 L 22.160133,31.978069 C 22.160133,31.978069 26.997745,27.140456 26.997745,27.140456 C 18.528582,18.264221 13.291696,25.230495 11.500037,31.436501 z"
     style="fill:#404040;"/>
  </a>
 </g>
</svg>

<style type='text/css'>
<![CDATA[
[data-mouse-over-selected='false'] { opacity: 0.7; }
[data-mouse-over-selected='true']  { opacity: 1.0; }
]]>
</style>
<script type="application/ecmascript"><![CDATA[
document.addEventListener('DOMContentLoaded', (event) => {
  highlightEdges();
  highlightAdjacentNodes();
});
]]></script>
</svg>
