<?xml version="1.0" encoding="UTF-8" standalone="no"?>
<!DOCTYPE svg PUBLIC "-//W3C//DTD SVG 1.1//EN"
 "http://www.w3.org/Graphics/SVG/1.1/DTD/svg11.dtd">
<!-- Generated by graphviz version 14.1.2 (20260124.0452)
 -->
<!-- Title: BOOST_AUTO_TEST_CASE Pages: 1 -->
<svg width="314pt" height="90pt"
 viewBox="0.00 0.00 314.00 90.00" xmlns="http://www.w3.org/2000/svg" xmlns:xlink="http://www.w3.org/1999/xlink">
<g id="graph0" class="graph" transform="scale(1 1) rotate(0) translate(4 86)">
<title>BOOST_AUTO_TEST_CASE</title>
<!-- Node1 -->
<g id="Node000001" class="node">
<title>Node1</title>
<g id="a_Node000001"><a xlink:title="presistence : TestCase">
<polygon fill="#999999" stroke="#666666" points="147.25,-51 0,-51 0,-31 147.25,-31 147.25,-51"/>
<text xml:space="preserve" text-anchor="middle" x="73.62" y="-37.5" font-family="Helvetica,sans-Serif" font-size="10.00">BOOST_AUTO_TEST_CASE</text>
</a>
</g>
</g>
<!-- Node2 -->
<g id="Node000002" class="node">
<title>Node2</title>
<g id="a_Node000002"><a xlink:href="namespacedepicture__menu_1_1domain_1_1models.html#a1bbff0f2d236da83fa87cc9d465faee9" target="_top" xlink:title=" ">
<polygon fill="white" stroke="#666666" points="305.75,-82 183.25,-82 183.25,-50 305.75,-50 305.75,-82"/>
<text xml:space="preserve" text-anchor="start" x="191.25" y="-68.5" font-family="Helvetica,sans-Serif" font-size="10.00">depicture_menu::domain</text>
<text xml:space="preserve" text-anchor="middle" x="244.5" y="-56.5" font-family="Helvetica,sans-Serif" font-size="10.00">::models::load_value</text>
</a>
</g>
</g>
<!-- Node1&#45;&gt;Node2 -->
<g id="edge1_Node000001_Node000002" class="edge">
<title>Node1&#45;&gt;Node2</title>
<g id="a_edge1_Node000001_Node000002"><a xlink:title=" ">
<path fill="none" stroke="#63b8ff" d="M145.26,-51.46C153.94,-52.74 162.81,-54.05 171.5,-55.34"/>
<polygon fill="#63b8ff" stroke="#63b8ff" points="170.89,-58.79 181.3,-56.79 171.92,-51.86 170.89,-58.79"/>
</a>
</g>
</g>
<!-- Node3 -->
<g id="Node000003" class="node">
<title>Node3</title>
<g id="a_Node000003"><a xlink:href="namespacedepicture__menu_1_1domain_1_1models.html#a4846ca781e4c2ec86094e9606a44813d" target="_top" xlink:title=" ">
<polygon fill="white" stroke="#666666" points="305.75,-32 183.25,-32 183.25,0 305.75,0 305.75,-32"/>
<text xml:space="preserve" text-anchor="start" x="191.25" y="-18.5" font-family="Helvetica,sans-Serif" font-size="10.00">depicture_menu::domain</text>
<text xml:space="preserve" text-anchor="middle" x="244.5" y="-6.5" font-family="Helvetica,sans-Serif" font-size="10.00">::models::save_value</text>
</a>
</g>
</g>
<!-- Node1&#45;&gt;Node3 -->
<g id="edge2_Node000001_Node000003" class="edge">
<title>Node1&#45;&gt;Node3</title>
<g id="a_edge2_Node000001_Node000003"><a xlink:title=" ">
<path fill="none" stroke="#63b8ff" d="M145.26,-30.54C153.94,-29.26 162.81,-27.95 171.5,-26.66"/>
<polygon fill="#63b8ff" stroke="#63b8ff" points="171.92,-30.14 181.3,-25.21 170.89,-23.21 171.92,-30.14"/>
</a>
</g>
</g>
</g>
</svg>
