<?xml version="1.0" encoding="UTF-8" standalone="no"?>
<!DOCTYPE svg PUBLIC "-//W3C//DTD SVG 1.1//EN"
 "http://www.w3.org/Graphics/SVG/1.1/DTD/svg11.dtd">
<!-- Generated by graphviz version 14.1.2 (20260124.0452)
 -->
<!-- Title: depicture_menu/src/core/repository/transaction/transaction_source.hpp Pages: 1 -->
<!--zoomable 536 -->

<svg id="main" version="1.1" xmlns="http://www.w3.org/2000/svg" xmlns:xlink="http://www.w3.org/1999/xlink" xml:space="preserve" onload="init(evt)">

<style type="text/css"><![CDATA[
.node, .edge {opacity: 0.7;}
.node.selected, .edge.selected {opacity: 1;}
.edge:hover path { stroke: red; }
.edge:hover polygon { stroke: red; fill: red; }
]]></style>

<defs>
  <circle id="rim" cx="0" cy="0" r="7"/>
  <circle id="rim2" cx="0" cy="0" r="3.5"/>
  <g id="zoomPlus">
    <use xlink:href="#rim" fill="#404040"><set attributeName="fill" to="#808080" begin="zoomplus.mouseover" end="zoomplus.mouseout"/></use>
    <path d="M-4,0h8M0,-4v8" fill="none" stroke="white" stroke-width="1.5" pointer-events="none"/>
  </g>
  <g id="zoomMin">
    <use xlink:href="#rim" fill="#404040"><set attributeName="fill" to="#808080" begin="zoomminus.mouseover" end="zoomminus.mouseout"/></use>
    <path d="M-4,0h8" fill="none" stroke="white" stroke-width="1.5" pointer-events="none"/>
  </g>
  <g id="arrowUp" transform="translate(30 24)">
    <use xlink:href="#rim"/>
    <path pointer-events="none" fill="none" stroke="white" stroke-width="1.5" d="M0,-3.0v7 M-2.5,-0.5L0,-3.0L2.5,-0.5"/>
  </g>
  <g id="arrowRight" transform="rotate(90) translate(36 -43)">
    <use xlink:href="#rim"/>
    <path pointer-events="none" fill="none" stroke="white" stroke-width="1.5" d="M0,-3.0v7 M-2.5,-0.5L0,-3.0L2.5,-0.5"/>
  </g>
  <g id="arrowDown" transform="rotate(180) translate(-30 -48)">
    <use xlink:href="#rim"/>
    <path pointer-events="none" fill="none" stroke="white" stroke-width="1.5" d="M0,-3.0v7 M-2.5,-0.5L0,-3.0L2.5,-0.5"/>
  </g>
  <g id="arrowLeft" transform="rotate(270) translate(-36 17)">
    <use xlink:href="#rim"/>
    <path pointer-events="none" fill="none" stroke="white" stroke-width="1.5" d="M0,-3.0v7 M-2.5,-0.5L0,-3.0L2.5,-0.5"/>
  </g>
  <g id="resetDef">
    <use xlink:href="#rim2" fill="#404040"><set attributeName="fill" to="#808080" begin="reset.mouseover" end="reset.mouseout"/></use>
  </g>
</defs>
<script type="application/ecmascript">
var viewWidth = 1608;
var viewHeight = 536;
var sectionId = 'dynsection-0';
</script>
<script type="application/ecmascript" xlink:href="svg.min.js"/>
<svg id="graph" class="graph">
<g id="viewport">
<title>depicture_menu/src/core/repository/transaction/transaction_source.hpp</title>
<!-- Node1 -->
<g id="Node000001" class="node">
<title>Node1</title>
<g id="a_Node000001"><a xlink:title=" ">
<polygon fill="#999999" stroke="#666666" points="1518.25,-528 1383.75,-528 1383.75,-484 1518.25,-484 1518.25,-528"/>
<text xml:space="preserve" text-anchor="start" x="1391.75" y="-514.5" font-family="Helvetica,sans-Serif" font-size="10.00">depicture_menu/src</text>
<text xml:space="preserve" text-anchor="start" x="1391.75" y="-502.5" font-family="Helvetica,sans-Serif" font-size="10.00">/core/repository/transaction</text>
<text xml:space="preserve" text-anchor="middle" x="1451" y="-490.5" font-family="Helvetica,sans-Serif" font-size="10.00">/transaction_source.hpp</text>
</a>
</g>
</g>
<!-- Node2 -->
<g id="Node000002" class="node">
<title>Node2</title>
<g id="a_Node000002"><a xlink:href="crud__repository_8hpp.html" target="_top" xlink:title=" ">
<polygon fill="white" stroke="#666666" points="1403.5,-442 1246.5,-442 1246.5,-422 1403.5,-422 1403.5,-442"/>
<text xml:space="preserve" text-anchor="middle" x="1325" y="-428.5" font-family="Helvetica,sans-Serif" font-size="10.00">core/domain/crud_repository.hpp</text>
</a>
</g>
</g>
<!-- Node1&#45;&gt;Node2 -->
<g id="edge1_Node000001_Node000002" class="edge">
<title>Node1&#45;&gt;Node2</title>
<g id="a_edge1_Node000001_Node000002"><a xlink:title=" ">
<path fill="none" stroke="#63b8ff" d="M1413.54,-483.59C1393.53,-472.16 1369.38,-458.36 1351.36,-448.06"/>
<polygon fill="#63b8ff" stroke="#63b8ff" points="1353.27,-445.12 1342.85,-443.2 1349.79,-451.2 1353.27,-445.12"/>
</a>
</g>
</g>
<!-- Node21 -->
<g id="Node000021" class="node">
<title>Node21</title>
<g id="a_Node000021"><a xlink:title=" ">
<polygon fill="#e0e0e0" stroke="#999999" points="1597.5,-138 1560.5,-138 1560.5,-118 1597.5,-118 1597.5,-138"/>
<text xml:space="preserve" text-anchor="middle" x="1579" y="-124.5" font-family="Helvetica,sans-Serif" font-size="10.00">tuple</text>
</a>
</g>
</g>
<!-- Node1&#45;&gt;Node21 -->
<g id="edge55_Node000001_Node000021" class="edge">
<title>Node1&#45;&gt;Node21</title>
<g id="a_edge55_Node000001_Node000021"><a xlink:title=" ">
<path fill="none" stroke="#63b8ff" d="M1455.89,-483.78C1461.52,-457.47 1470,-411.18 1470,-371 1470,-371 1470,-371 1470,-251 1470,-202.3 1518.89,-164.11 1551.18,-144.2"/>
<polygon fill="#63b8ff" stroke="#63b8ff" points="1552.88,-147.26 1559.7,-139.16 1549.31,-141.24 1552.88,-147.26"/>
</a>
</g>
</g>
<!-- Node36 -->
<g id="Node000036" class="node">
<title>Node36</title>
<g id="a_Node000036"><a xlink:title=" ">
<polygon fill="#e0e0e0" stroke="#999999" points="1408.62,-380 1357.38,-380 1357.38,-360 1408.62,-360 1408.62,-380"/>
<text xml:space="preserve" text-anchor="middle" x="1383" y="-366.5" font-family="Helvetica,sans-Serif" font-size="10.00">memory</text>
</a>
</g>
</g>
<!-- Node1&#45;&gt;Node36 -->
<g id="edge54_Node000001_Node000036" class="edge">
<title>Node1&#45;&gt;Node36</title>
<g id="a_edge54_Node000001_Node000036"><a xlink:title=" ">
<path fill="none" stroke="#63b8ff" d="M1443.16,-483.63C1436.12,-465.27 1425.07,-438.31 1413,-416 1408.16,-407.04 1402.03,-397.6 1396.58,-389.68"/>
<polygon fill="#63b8ff" stroke="#63b8ff" points="1399.47,-387.72 1390.84,-381.57 1393.76,-391.76 1399.47,-387.72"/>
</a>
</g>
</g>
<!-- Node37 -->
<g id="Node000037" class="node">
<title>Node37</title>
<g id="a_Node000037"><a xlink:href="atomic__mutex_8hpp.html" target="_top" xlink:title=" ">
<polygon fill="white" stroke="#666666" points="1599.75,-448 1498.25,-448 1498.25,-416 1599.75,-416 1599.75,-448"/>
<text xml:space="preserve" text-anchor="start" x="1506.25" y="-434.5" font-family="Helvetica,sans-Serif" font-size="10.00">utility/thread/atomic</text>
<text xml:space="preserve" text-anchor="middle" x="1549" y="-422.5" font-family="Helvetica,sans-Serif" font-size="10.00">_mutex.hpp</text>
</a>
</g>
</g>
<!-- Node1&#45;&gt;Node37 -->
<g id="edge52_Node000001_Node000037" class="edge">
<title>Node1&#45;&gt;Node37</title>
<g id="a_edge52_Node000001_Node000037"><a xlink:title=" ">
<path fill="none" stroke="#63b8ff" d="M1480.14,-483.59C1492.37,-474.61 1506.58,-464.16 1518.91,-455.11"/>
<polygon fill="#63b8ff" stroke="#63b8ff" points="1520.7,-458.13 1526.69,-449.39 1516.56,-452.49 1520.7,-458.13"/>
</a>
</g>
</g>
<!-- Node3 -->
<g id="Node000003" class="node">
<title>Node3</title>
<g id="a_Node000003"><a xlink:href="model_2entity_8hpp.html" target="_top" xlink:title=" ">
<polygon fill="white" stroke="#666666" points="1306.62,-380 1219.38,-380 1219.38,-360 1306.62,-360 1306.62,-380"/>
<text xml:space="preserve" text-anchor="middle" x="1263" y="-366.5" font-family="Helvetica,sans-Serif" font-size="10.00">model/entity.hpp</text>
</a>
</g>
</g>
<!-- Node2&#45;&gt;Node3 -->
<g id="edge2_Node000002_Node000003" class="edge">
<title>Node2&#45;&gt;Node3</title>
<g id="a_edge2_Node000002_Node000003"><a xlink:title=" ">
<path fill="none" stroke="#63b8ff" d="M1315.31,-421.62C1306.07,-412.68 1291.92,-398.99 1280.67,-388.1"/>
<polygon fill="#63b8ff" stroke="#63b8ff" points="1283.12,-385.6 1273.5,-381.17 1278.26,-390.63 1283.12,-385.6"/>
</a>
</g>
</g>
<!-- Node2&#45;&gt;Node36 -->
<g id="edge51_Node000002_Node000036" class="edge">
<title>Node2&#45;&gt;Node36</title>
<g id="a_edge51_Node000002_Node000036"><a xlink:title=" ">
<path fill="none" stroke="#63b8ff" d="M1334.06,-421.62C1342.71,-412.68 1355.94,-398.99 1366.47,-388.1"/>
<polygon fill="#63b8ff" stroke="#63b8ff" points="1368.71,-390.82 1373.14,-381.2 1363.67,-385.96 1368.71,-390.82"/>
</a>
</g>
</g>
<!-- Node4 -->
<g id="Node000004" class="node">
<title>Node4</title>
<g id="a_Node000004"><a xlink:href="concepts_8hpp.html" target="_top" xlink:title=" ">
<polygon fill="white" stroke="#666666" points="724.25,-200 649.75,-200 649.75,-180 724.25,-180 724.25,-200"/>
<text xml:space="preserve" text-anchor="middle" x="687" y="-186.5" font-family="Helvetica,sans-Serif" font-size="10.00">concepts.hpp</text>
</a>
</g>
</g>
<!-- Node3&#45;&gt;Node4 -->
<g id="edge3_Node000003_Node000004" class="edge">
<title>Node3&#45;&gt;Node4</title>
<g id="a_edge3_Node000003_Node000004"><a xlink:title=" ">
<path fill="none" stroke="#63b8ff" d="M1263.65,-359.72C1264.82,-335.07 1264.22,-267.63 1226,-236 1188.69,-205.12 861.45,-194.79 735.82,-191.94"/>
<polygon fill="#63b8ff" stroke="#63b8ff" points="736.25,-188.45 726.17,-191.73 736.09,-195.44 736.25,-188.45"/>
</a>
</g>
</g>
<!-- Node8 -->
<g id="Node000008" class="node">
<title>Node8</title>
<g id="a_Node000008"><a xlink:href="model_2entity__id_8hpp.html" target="_top" xlink:title=" ">
<polygon fill="white" stroke="#666666" points="1015.75,-324 944.25,-324 944.25,-304 1015.75,-304 1015.75,-324"/>
<text xml:space="preserve" text-anchor="middle" x="980" y="-310.5" font-family="Helvetica,sans-Serif" font-size="10.00">entity_id.hpp</text>
</a>
</g>
</g>
<!-- Node3&#45;&gt;Node8 -->
<g id="edge7_Node000003_Node000008" class="edge">
<title>Node3&#45;&gt;Node8</title>
<g id="a_edge7_Node000003_Node000008"><a xlink:title=" ">
<path fill="none" stroke="#63b8ff" d="M1219.09,-360.62C1167.02,-350.69 1080.57,-334.19 1027.13,-323.99"/>
<polygon fill="#63b8ff" stroke="#63b8ff" points="1027.89,-320.58 1017.41,-322.14 1026.58,-327.45 1027.89,-320.58"/>
</a>
</g>
</g>
<!-- Node9 -->
<g id="Node000009" class="node">
<title>Node9</title>
<g id="a_Node000009"><a xlink:href="model_2value__object_8hpp.html" target="_top" xlink:title=" ">
<polygon fill="white" stroke="#666666" points="471.75,-262 382.25,-262 382.25,-242 471.75,-242 471.75,-262"/>
<text xml:space="preserve" text-anchor="middle" x="427" y="-248.5" font-family="Helvetica,sans-Serif" font-size="10.00">value_object.hpp</text>
</a>
</g>
</g>
<!-- Node3&#45;&gt;Node9 -->
<g id="edge50_Node000003_Node000009" class="edge">
<title>Node3&#45;&gt;Node9</title>
<g id="a_edge50_Node000003_Node000009"><a xlink:title=" ">
<path fill="none" stroke="#63b8ff" d="M1218.91,-365.61C1099.17,-355.91 758.29,-325 480,-268 476.18,-267.22 472.24,-266.31 468.31,-265.32"/>
<polygon fill="#63b8ff" stroke="#63b8ff" points="469.39,-261.99 458.82,-262.81 467.59,-268.75 469.39,-261.99"/>
</a>
</g>
</g>
<!-- Node10 -->
<g id="Node000010" class="node">
<title>Node10</title>
<g id="a_Node000010"><a xlink:href="model_2presistence_8hpp.html" target="_top" xlink:title=" ">
<polygon fill="white" stroke="#666666" points="1074.5,-200 989.5,-200 989.5,-180 1074.5,-180 1074.5,-200"/>
<text xml:space="preserve" text-anchor="middle" x="1032" y="-186.5" font-family="Helvetica,sans-Serif" font-size="10.00">presistence.hpp</text>
</a>
</g>
</g>
<!-- Node3&#45;&gt;Node10 -->
<g id="edge49_Node000003_Node000010" class="edge">
<title>Node3&#45;&gt;Node10</title>
<g id="a_edge49_Node000003_Node000010"><a xlink:title=" ">
<path fill="none" stroke="#63b8ff" d="M1268.07,-359.62C1280.16,-335.86 1307.46,-272.57 1277,-236 1253.17,-207.4 1150.59,-196.91 1085.95,-193.11"/>
<polygon fill="#63b8ff" stroke="#63b8ff" points="1086.43,-189.64 1076.26,-192.58 1086.05,-196.63 1086.43,-189.64"/>
</a>
</g>
</g>
<!-- Node5 -->
<g id="Node000005" class="node">
<title>Node5</title>
<g id="a_Node000005"><a xlink:href="model__base__concepts_8hpp.html" target="_top" xlink:title=" ">
<polygon fill="white" stroke="#666666" points="663.12,-138 530.88,-138 530.88,-118 663.12,-118 663.12,-138"/>
<text xml:space="preserve" text-anchor="middle" x="597" y="-124.5" font-family="Helvetica,sans-Serif" font-size="10.00">model_base_concepts.hpp</text>
</a>
</g>
</g>
<!-- Node4&#45;&gt;Node5 -->
<g id="edge4_Node000004_Node000005" class="edge">
<title>Node4&#45;&gt;Node5</title>
<g id="a_edge4_Node000004_Node000005"><a xlink:title=" ">
<path fill="none" stroke="#63b8ff" d="M672.94,-179.62C658.8,-170.2 636.78,-155.52 620.08,-144.39"/>
<polygon fill="#63b8ff" stroke="#63b8ff" points="622.49,-141.78 612.22,-139.15 618.6,-147.61 622.49,-141.78"/>
</a>
</g>
</g>
<!-- Node6 -->
<g id="Node000006" class="node">
<title>Node6</title>
<g id="a_Node000006"><a xlink:title=" ">
<polygon fill="#e0e0e0" stroke="#999999" points="512.38,-76 417.62,-76 417.62,-56 512.38,-56 512.38,-76"/>
<text xml:space="preserve" text-anchor="middle" x="465" y="-62.5" font-family="Helvetica,sans-Serif" font-size="10.00">boost/pfr/core.hpp</text>
</a>
</g>
</g>
<!-- Node5&#45;&gt;Node6 -->
<g id="edge5_Node000005_Node000006" class="edge">
<title>Node5&#45;&gt;Node6</title>
<g id="a_edge5_Node000005_Node000006"><a xlink:title=" ">
<path fill="none" stroke="#63b8ff" d="M576.38,-117.62C554.77,-107.81 520.6,-92.27 495.8,-81"/>
<polygon fill="#63b8ff" stroke="#63b8ff" points="497.41,-77.89 486.86,-76.94 494.51,-84.26 497.41,-77.89"/>
</a>
</g>
</g>
<!-- Node7 -->
<g id="Node000007" class="node">
<title>Node7</title>
<g id="a_Node000007"><a xlink:title=" ">
<polygon fill="#e0e0e0" stroke="#999999" points="593.62,-76 554.38,-76 554.38,-56 593.62,-56 593.62,-76"/>
<text xml:space="preserve" text-anchor="middle" x="574" y="-62.5" font-family="Helvetica,sans-Serif" font-size="10.00">utility</text>
</a>
</g>
</g>
<!-- Node5&#45;&gt;Node7 -->
<g id="edge6_Node000005_Node000007" class="edge">
<title>Node5&#45;&gt;Node7</title>
<g id="a_edge6_Node000005_Node000007"><a xlink:title=" ">
<path fill="none" stroke="#63b8ff" d="M593.41,-117.62C590.25,-109.39 585.55,-97.13 581.57,-86.74"/>
<polygon fill="#63b8ff" stroke="#63b8ff" points="584.88,-85.61 578.03,-77.53 578.35,-88.12 584.88,-85.61"/>
</a>
</g>
</g>
<!-- Node8&#45;&gt;Node9 -->
<g id="edge8_Node000008_Node000009" class="edge">
<title>Node8&#45;&gt;Node9</title>
<g id="a_edge8_Node000008_Node000009"><a xlink:title=" ">
<path fill="none" stroke="#63b8ff" d="M943.92,-312.05C861.21,-309.38 651.84,-299.76 480,-268 475.95,-267.25 471.77,-266.33 467.61,-265.32"/>
<polygon fill="#63b8ff" stroke="#63b8ff" points="468.79,-262.01 458.23,-262.86 467.01,-268.78 468.79,-262.01"/>
</a>
</g>
</g>
<!-- Node15 -->
<g id="Node000015" class="node">
<title>Node15</title>
<g id="a_Node000015"><a xlink:title=" ">
<polygon fill="#e0e0e0" stroke="#999999" points="1542.38,-144 1447.62,-144 1447.62,-112 1542.38,-112 1542.38,-144"/>
<text xml:space="preserve" text-anchor="start" x="1455.62" y="-130.5" font-family="Helvetica,sans-Serif" font-size="10.00">boost/serialization</text>
<text xml:space="preserve" text-anchor="middle" x="1495" y="-118.5" font-family="Helvetica,sans-Serif" font-size="10.00">/access.hpp</text>
</a>
</g>
</g>
<!-- Node8&#45;&gt;Node15 -->
<g id="edge43_Node000008_Node000015" class="edge">
<title>Node8&#45;&gt;Node15</title>
<g id="a_edge43_Node000008_Node000015"><a xlink:title=" ">
<path fill="none" stroke="#63b8ff" d="M1015.87,-309.79C1064.53,-304.7 1153.68,-292.68 1226,-268 1315.6,-237.42 1412.26,-181.07 1461.71,-150.35"/>
<polygon fill="#63b8ff" stroke="#63b8ff" points="1463.34,-153.46 1469.95,-145.18 1459.62,-147.53 1463.34,-153.46"/>
</a>
</g>
</g>
<!-- Node30 -->
<g id="Node000030" class="node">
<title>Node30</title>
<g id="a_Node000030"><a xlink:title=" ">
<polygon fill="#e0e0e0" stroke="#999999" points="631.38,-200 530.62,-200 530.62,-180 631.38,-180 631.38,-200"/>
<text xml:space="preserve" text-anchor="middle" x="581" y="-186.5" font-family="Helvetica,sans-Serif" font-size="10.00">boost/uuid/uuid.hpp</text>
</a>
</g>
</g>
<!-- Node8&#45;&gt;Node30 -->
<g id="edge45_Node000008_Node000030" class="edge">
<title>Node8&#45;&gt;Node30</title>
<g id="a_edge45_Node000008_Node000030"><a xlink:title=" ">
<path fill="none" stroke="#63b8ff" d="M1016.14,-312.23C1093.3,-309.41 1262.66,-296.38 1206,-236 1164.81,-192.1 742.26,-205.37 643.04,-199.79"/>
<polygon fill="#63b8ff" stroke="#63b8ff" points="643.45,-196.31 633.21,-199.03 642.91,-203.29 643.45,-196.31"/>
</a>
</g>
</g>
<!-- Node31 -->
<g id="Node000031" class="node">
<title>Node31</title>
<g id="a_Node000031"><a xlink:title=" ">
<polygon fill="#e0e0e0" stroke="#999999" points="1196.88,-262 1069.12,-262 1069.12,-242 1196.88,-242 1196.88,-262"/>
<text xml:space="preserve" text-anchor="middle" x="1133" y="-248.5" font-family="Helvetica,sans-Serif" font-size="10.00">boost/functional/hash.hpp</text>
</a>
</g>
</g>
<!-- Node8&#45;&gt;Node31 -->
<g id="edge42_Node000008_Node000031" class="edge">
<title>Node8&#45;&gt;Node31</title>
<g id="a_edge42_Node000008_Node000031"><a xlink:title=" ">
<path fill="none" stroke="#63b8ff" d="M1003.91,-303.62C1029.32,-293.66 1069.74,-277.81 1098.58,-266.5"/>
<polygon fill="#63b8ff" stroke="#63b8ff" points="1099.57,-269.87 1107.6,-262.96 1097.01,-263.35 1099.57,-269.87"/>
</a>
</g>
</g>
<!-- Node32 -->
<g id="Node000032" class="node">
<title>Node32</title>
<g id="a_Node000032"><a xlink:title=" ">
<polygon fill="#e0e0e0" stroke="#999999" points="588.62,-268 489.38,-268 489.38,-236 588.62,-236 588.62,-268"/>
<text xml:space="preserve" text-anchor="start" x="497.38" y="-254.5" font-family="Helvetica,sans-Serif" font-size="10.00">boost/serialization</text>
<text xml:space="preserve" text-anchor="middle" x="539" y="-242.5" font-family="Helvetica,sans-Serif" font-size="10.00">/array_wrapper.hpp</text>
</a>
</g>
</g>
<!-- Node8&#45;&gt;Node32 -->
<g id="edge44_Node000008_Node000032" class="edge">
<title>Node8&#45;&gt;Node32</title>
<g id="a_edge44_Node000008_Node000032"><a xlink:title=" ">
<path fill="none" stroke="#63b8ff" d="M943.95,-310.35C877.77,-305.13 732.31,-292.09 600.22,-268.25"/>
<polygon fill="#63b8ff" stroke="#63b8ff" points="601.07,-264.85 590.6,-266.49 599.81,-271.74 601.07,-264.85"/>
</a>
</g>
</g>
<!-- Node33 -->
<g id="Node000033" class="node">
<title>Node33</title>
<g id="a_Node000033"><a xlink:title=" ">
<polygon fill="#e0e0e0" stroke="#999999" points="758.88,-262 607.12,-262 607.12,-242 758.88,-242 758.88,-262"/>
<text xml:space="preserve" text-anchor="middle" x="683" y="-248.5" font-family="Helvetica,sans-Serif" font-size="10.00">boost/uuid/uuid_generators.hpp</text>
</a>
</g>
</g>
<!-- Node8&#45;&gt;Node33 -->
<g id="edge46_Node000008_Node000033" class="edge">
<title>Node8&#45;&gt;Node33</title>
<g id="a_edge46_Node000008_Node000033"><a xlink:title=" ">
<path fill="none" stroke="#63b8ff" d="M943.88,-305.7C893.41,-295.51 801.24,-276.89 741.06,-264.73"/>
<polygon fill="#63b8ff" stroke="#63b8ff" points="741.83,-261.31 731.33,-262.76 740.44,-268.17 741.83,-261.31"/>
</a>
</g>
</g>
<!-- Node34 -->
<g id="Node000034" class="node">
<title>Node34</title>
<g id="a_Node000034"><a xlink:title=" ">
<polygon fill="#e0e0e0" stroke="#999999" points="890.75,-262 777.25,-262 777.25,-242 890.75,-242 890.75,-262"/>
<text xml:space="preserve" text-anchor="middle" x="834" y="-248.5" font-family="Helvetica,sans-Serif" font-size="10.00">boost/uuid/uuid_io.hpp</text>
</a>
</g>
</g>
<!-- Node8&#45;&gt;Node34 -->
<g id="edge47_Node000008_Node000034" class="edge">
<title>Node8&#45;&gt;Node34</title>
<g id="a_edge47_Node000008_Node000034"><a xlink:title=" ">
<path fill="none" stroke="#63b8ff" d="M957.19,-303.62C932.97,-293.67 894.48,-277.85 866.97,-266.55"/>
<polygon fill="#63b8ff" stroke="#63b8ff" points="868.63,-263.45 858.05,-262.88 865.97,-269.92 868.63,-263.45"/>
</a>
</g>
</g>
<!-- Node35 -->
<g id="Node000035" class="node">
<title>Node35</title>
<g id="a_Node000035"><a xlink:title=" ">
<polygon fill="#e0e0e0" stroke="#999999" points="1051,-262 909,-262 909,-242 1051,-242 1051,-262"/>
<text xml:space="preserve" text-anchor="middle" x="980" y="-248.5" font-family="Helvetica,sans-Serif" font-size="10.00">boost/uuid/uuid_serialize.hpp</text>
</a>
</g>
</g>
<!-- Node8&#45;&gt;Node35 -->
<g id="edge48_Node000008_Node000035" class="edge">
<title>Node8&#45;&gt;Node35</title>
<g id="a_edge48_Node000008_Node000035"><a xlink:title=" ">
<path fill="none" stroke="#63b8ff" d="M980,-303.62C980,-295.56 980,-283.65 980,-273.41"/>
<polygon fill="#63b8ff" stroke="#63b8ff" points="983.5,-273.63 980,-263.63 976.5,-273.63 983.5,-273.63"/>
</a>
</g>
</g>
<!-- Node9&#45;&gt;Node4 -->
<g id="edge23_Node000009_Node000004" class="edge">
<title>Node9&#45;&gt;Node4</title>
<g id="a_edge23_Node000009_Node000004"><a xlink:title=" ">
<path fill="none" stroke="#63b8ff" d="M459.15,-241.56C466.01,-239.64 473.23,-237.69 480,-236 533.93,-222.52 596.33,-209.27 638.41,-200.68"/>
<polygon fill="#63b8ff" stroke="#63b8ff" points="638.86,-204.16 647.96,-198.74 637.46,-197.3 638.86,-204.16"/>
</a>
</g>
</g>
<!-- Node9&#45;&gt;Node6 -->
<g id="edge37_Node000009_Node000006" class="edge">
<title>Node9&#45;&gt;Node6</title>
<g id="a_edge37_Node000009_Node000006"><a xlink:title=" ">
<path fill="none" stroke="#63b8ff" d="M428.94,-241.62C434.83,-213.08 452.66,-126.78 460.83,-87.21"/>
<polygon fill="#63b8ff" stroke="#63b8ff" points="464.21,-88.12 462.81,-77.62 457.36,-86.71 464.21,-88.12"/>
</a>
</g>
</g>
<!-- Node9&#45;&gt;Node7 -->
<g id="edge41_Node000009_Node000007" class="edge">
<title>Node9&#45;&gt;Node7</title>
<g id="a_edge41_Node000009_Node000007"><a xlink:title=" ">
<path fill="none" stroke="#63b8ff" d="M432.25,-241.63C445.55,-218.34 482.3,-156.49 522,-112 531.28,-101.6 542.9,-91.33 552.81,-83.24"/>
<polygon fill="#63b8ff" stroke="#63b8ff" points="554.81,-86.11 560.46,-77.15 550.45,-80.64 554.81,-86.11"/>
</a>
</g>
</g>
<!-- Node9&#45;&gt;Node10 -->
<g id="edge9_Node000009_Node000010" class="edge">
<title>Node9&#45;&gt;Node10</title>
<g id="a_edge9_Node000009_Node000010"><a xlink:title=" ">
<path fill="none" stroke="#63b8ff" d="M456.48,-241.56C464.07,-239.43 472.28,-237.39 480,-236 660.44,-203.43 878.36,-194.41 977.8,-191.93"/>
<polygon fill="#63b8ff" stroke="#63b8ff" points="977.61,-195.44 987.53,-191.7 977.45,-188.44 977.61,-195.44"/>
</a>
</g>
</g>
<!-- Node22 -->
<g id="Node000022" class="node">
<title>Node22</title>
<g id="a_Node000022"><a xlink:href="reflection_8hpp.html" target="_top" xlink:title=" ">
<polygon fill="white" stroke="#666666" points="393.38,-200 292.62,-200 292.62,-180 393.38,-180 393.38,-200"/>
<text xml:space="preserve" text-anchor="middle" x="343" y="-186.5" font-family="Helvetica,sans-Serif" font-size="10.00">utility/reflection.hpp</text>
</a>
</g>
</g>
<!-- Node9&#45;&gt;Node22 -->
<g id="edge24_Node000009_Node000022" class="edge">
<title>Node9&#45;&gt;Node22</title>
<g id="a_edge24_Node000009_Node000022"><a xlink:title=" ">
<path fill="none" stroke="#63b8ff" d="M413.88,-241.62C400.81,-232.29 380.51,-217.79 364.98,-206.7"/>
<polygon fill="#63b8ff" stroke="#63b8ff" points="367.44,-204.15 357.26,-201.19 363.37,-209.85 367.44,-204.15"/>
</a>
</g>
</g>
<!-- Node24 -->
<g id="Node000024" class="node">
<title>Node24</title>
<g id="a_Node000024"><a xlink:title=" ">
<polygon fill="#e0e0e0" stroke="#999999" points="124,-76 0,-76 0,-56 124,-56 124,-76"/>
<text xml:space="preserve" text-anchor="middle" x="62" y="-62.5" font-family="Helvetica,sans-Serif" font-size="10.00">boost/pfr/core_name.hpp</text>
</a>
</g>
</g>
<!-- Node9&#45;&gt;Node24 -->
<g id="edge38_Node000009_Node000024" class="edge">
<title>Node9&#45;&gt;Node24</title>
<g id="a_edge38_Node000009_Node000024"><a xlink:title=" ">
<path fill="none" stroke="#63b8ff" d="M381.77,-250.71C328.54,-248.46 239.15,-238.6 174,-200 126.33,-171.75 89.44,-115.64 72.38,-86.14"/>
<polygon fill="#63b8ff" stroke="#63b8ff" points="75.52,-84.58 67.57,-77.57 69.41,-88.01 75.52,-84.58"/>
</a>
</g>
</g>
<!-- Node29 -->
<g id="Node000029" class="node">
<title>Node29</title>
<g id="a_Node000029"><a xlink:title=" ">
<polygon fill="#e0e0e0" stroke="#999999" points="274.88,-200 183.12,-200 183.12,-180 274.88,-180 274.88,-200"/>
<text xml:space="preserve" text-anchor="middle" x="229" y="-186.5" font-family="Helvetica,sans-Serif" font-size="10.00">boost/pfr/ops.hpp</text>
</a>
</g>
</g>
<!-- Node9&#45;&gt;Node29 -->
<g id="edge39_Node000009_Node000029" class="edge">
<title>Node9&#45;&gt;Node29</title>
<g id="a_edge39_Node000009_Node000029"><a xlink:title=" ">
<path fill="none" stroke="#63b8ff" d="M396.06,-241.62C362.31,-231.4 308.09,-214.97 270.62,-203.61"/>
<polygon fill="#63b8ff" stroke="#63b8ff" points="272.08,-200.4 261.49,-200.85 270.05,-207.1 272.08,-200.4"/>
</a>
</g>
</g>
<!-- Node9&#45;&gt;Node30 -->
<g id="edge40_Node000009_Node000030" class="edge">
<title>Node9&#45;&gt;Node30</title>
<g id="a_edge40_Node000009_Node000030"><a xlink:title=" ">
<path fill="none" stroke="#63b8ff" d="M451.06,-241.62C476.64,-231.66 517.33,-215.81 546.35,-204.5"/>
<polygon fill="#63b8ff" stroke="#63b8ff" points="547.4,-207.85 555.44,-200.96 544.85,-201.33 547.4,-207.85"/>
</a>
</g>
</g>
<!-- Node10&#45;&gt;Node5 -->
<g id="edge10_Node000010_Node000005" class="edge">
<title>Node10&#45;&gt;Node5</title>
<g id="a_edge10_Node000010_Node000005"><a xlink:title=" ">
<path fill="none" stroke="#63b8ff" d="M989.18,-184.67C921.59,-177.61 786.09,-162.51 672,-144 665.7,-142.98 659.13,-141.81 652.6,-140.59"/>
<polygon fill="#63b8ff" stroke="#63b8ff" points="653.68,-137.23 643.2,-138.79 652.36,-144.11 653.68,-137.23"/>
</a>
</g>
</g>
<!-- Node10&#45;&gt;Node6 -->
<g id="edge15_Node000010_Node000006" class="edge">
<title>Node10&#45;&gt;Node6</title>
<g id="a_edge15_Node000010_Node000006"><a xlink:title=" ">
<path fill="none" stroke="#63b8ff" d="M989.19,-187.23C873.8,-182.18 562.32,-166.6 522,-144 499.16,-131.2 482.85,-105.02 473.69,-86.76"/>
<polygon fill="#63b8ff" stroke="#63b8ff" points="476.86,-85.3 469.44,-77.74 470.53,-88.28 476.86,-85.3"/>
</a>
</g>
</g>
<!-- Node11 -->
<g id="Node000011" class="node">
<title>Node11</title>
<g id="a_Node000011"><a xlink:href="str__conv_8hpp.html" target="_top" xlink:title=" ">
<polygon fill="white" stroke="#666666" points="1429.88,-138 1332.12,-138 1332.12,-118 1429.88,-118 1429.88,-138"/>
<text xml:space="preserve" text-anchor="middle" x="1381" y="-124.5" font-family="Helvetica,sans-Serif" font-size="10.00">utility/str_conv.hpp</text>
</a>
</g>
</g>
<!-- Node10&#45;&gt;Node11 -->
<g id="edge11_Node000010_Node000011" class="edge">
<title>Node10&#45;&gt;Node11</title>
<g id="a_edge11_Node000010_Node000011"><a xlink:title=" ">
<path fill="none" stroke="#63b8ff" d="M1074.65,-183.76C1131.57,-176.46 1235.38,-162.06 1323,-144 1327.11,-143.15 1331.37,-142.2 1335.63,-141.19"/>
<polygon fill="#63b8ff" stroke="#63b8ff" points="1336.44,-144.6 1345.31,-138.81 1334.77,-137.8 1336.44,-144.6"/>
</a>
</g>
</g>
<!-- Node14 -->
<g id="Node000014" class="node">
<title>Node14</title>
<g id="a_Node000014"><a xlink:title=" ">
<polygon fill="#e0e0e0" stroke="#999999" points="848.62,-144 743.38,-144 743.38,-112 848.62,-112 848.62,-144"/>
<text xml:space="preserve" text-anchor="start" x="751.38" y="-130.5" font-family="Helvetica,sans-Serif" font-size="10.00">boost/archive/basic</text>
<text xml:space="preserve" text-anchor="middle" x="796" y="-118.5" font-family="Helvetica,sans-Serif" font-size="10.00">_binary_iarchive.hpp</text>
</a>
</g>
</g>
<!-- Node10&#45;&gt;Node14 -->
<g id="edge14_Node000010_Node000014" class="edge">
<title>Node10&#45;&gt;Node14</title>
<g id="a_edge14_Node000010_Node000014"><a xlink:title=" ">
<path fill="none" stroke="#63b8ff" d="M994.87,-179.56C958.68,-170.36 902.96,-156.19 859.69,-145.19"/>
<polygon fill="#63b8ff" stroke="#63b8ff" points="860.72,-141.84 850.16,-142.77 858.99,-148.63 860.72,-141.84"/>
</a>
</g>
</g>
<!-- Node10&#45;&gt;Node15 -->
<g id="edge16_Node000010_Node000015" class="edge">
<title>Node10&#45;&gt;Node15</title>
<g id="a_edge16_Node000010_Node000015"><a xlink:title=" ">
<path fill="none" stroke="#63b8ff" d="M1074.79,-186.41C1147.34,-181.56 1299.2,-169.4 1436.06,-144.39"/>
<polygon fill="#63b8ff" stroke="#63b8ff" points="1436.47,-147.87 1445.66,-142.61 1435.19,-140.99 1436.47,-147.87"/>
</a>
</g>
</g>
<!-- Node16 -->
<g id="Node000016" class="node">
<title>Node16</title>
<g id="a_Node000016"><a xlink:title=" ">
<polygon fill="#e0e0e0" stroke="#999999" points="961.38,-144 866.62,-144 866.62,-112 961.38,-112 961.38,-144"/>
<text xml:space="preserve" text-anchor="start" x="874.62" y="-130.5" font-family="Helvetica,sans-Serif" font-size="10.00">boost/serialization</text>
<text xml:space="preserve" text-anchor="middle" x="914" y="-118.5" font-family="Helvetica,sans-Serif" font-size="10.00">/optional.hpp</text>
</a>
</g>
</g>
<!-- Node10&#45;&gt;Node16 -->
<g id="edge17_Node000010_Node000016" class="edge">
<title>Node10&#45;&gt;Node16</title>
<g id="a_edge17_Node000010_Node000016"><a xlink:title=" ">
<path fill="none" stroke="#63b8ff" d="M1013.56,-179.62C997.78,-171.6 974.48,-159.75 954.39,-149.54"/>
<polygon fill="#63b8ff" stroke="#63b8ff" points="956.08,-146.47 945.58,-145.06 952.91,-152.71 956.08,-146.47"/>
</a>
</g>
</g>
<!-- Node17 -->
<g id="Node000017" class="node">
<title>Node17</title>
<g id="a_Node000017"><a xlink:title=" ">
<polygon fill="#e0e0e0" stroke="#999999" points="1084.25,-144 979.75,-144 979.75,-112 1084.25,-112 1084.25,-144"/>
<text xml:space="preserve" text-anchor="start" x="987.75" y="-130.5" font-family="Helvetica,sans-Serif" font-size="10.00">boost/serialization</text>
<text xml:space="preserve" text-anchor="middle" x="1032" y="-118.5" font-family="Helvetica,sans-Serif" font-size="10.00">/unordered_map.hpp</text>
</a>
</g>
</g>
<!-- Node10&#45;&gt;Node17 -->
<g id="edge18_Node000010_Node000017" class="edge">
<title>Node10&#45;&gt;Node17</title>
<g id="a_edge18_Node000010_Node000017"><a xlink:title=" ">
<path fill="none" stroke="#63b8ff" d="M1032,-179.62C1032,-173.1 1032,-164.05 1032,-155.4"/>
<polygon fill="#63b8ff" stroke="#63b8ff" points="1035.5,-155.65 1032,-145.65 1028.5,-155.65 1035.5,-155.65"/>
</a>
</g>
</g>
<!-- Node18 -->
<g id="Node000018" class="node">
<title>Node18</title>
<g id="a_Node000018"><a xlink:title=" ">
<polygon fill="#e0e0e0" stroke="#999999" points="1201.62,-144 1102.38,-144 1102.38,-112 1201.62,-112 1201.62,-144"/>
<text xml:space="preserve" text-anchor="start" x="1110.38" y="-130.5" font-family="Helvetica,sans-Serif" font-size="10.00">boost/serialization</text>
<text xml:space="preserve" text-anchor="middle" x="1152" y="-118.5" font-family="Helvetica,sans-Serif" font-size="10.00">/unordered_set.hpp</text>
</a>
</g>
</g>
<!-- Node10&#45;&gt;Node18 -->
<g id="edge19_Node000010_Node000018" class="edge">
<title>Node10&#45;&gt;Node18</title>
<g id="a_edge19_Node000010_Node000018"><a xlink:title=" ">
<path fill="none" stroke="#63b8ff" d="M1050.75,-179.62C1066.88,-171.56 1090.71,-159.64 1111.21,-149.4"/>
<polygon fill="#63b8ff" stroke="#63b8ff" points="1112.52,-152.65 1119.9,-145.05 1109.39,-146.39 1112.52,-152.65"/>
</a>
</g>
</g>
<!-- Node19 -->
<g id="Node000019" class="node">
<title>Node19</title>
<g id="a_Node000019"><a xlink:title=" ">
<polygon fill="#e0e0e0" stroke="#999999" points="1314.38,-144 1219.62,-144 1219.62,-112 1314.38,-112 1314.38,-144"/>
<text xml:space="preserve" text-anchor="start" x="1227.62" y="-130.5" font-family="Helvetica,sans-Serif" font-size="10.00">boost/serialization</text>
<text xml:space="preserve" text-anchor="middle" x="1267" y="-118.5" font-family="Helvetica,sans-Serif" font-size="10.00">/vector.hpp</text>
</a>
</g>
</g>
<!-- Node10&#45;&gt;Node19 -->
<g id="edge20_Node000010_Node000019" class="edge">
<title>Node10&#45;&gt;Node19</title>
<g id="a_edge20_Node000010_Node000019"><a xlink:title=" ">
<path fill="none" stroke="#63b8ff" d="M1070.45,-179.51C1104.39,-171.1 1155.49,-158.34 1208.4,-144.66"/>
<polygon fill="#63b8ff" stroke="#63b8ff" points="1209.09,-148.09 1217.89,-142.2 1207.33,-141.32 1209.09,-148.09"/>
</a>
</g>
</g>
<!-- Node20 -->
<g id="Node000020" class="node">
<title>Node20</title>
<g id="a_Node000020"><a xlink:title=" ">
<polygon fill="#e0e0e0" stroke="#999999" points="724.88,-138 681.12,-138 681.12,-118 724.88,-118 724.88,-138"/>
<text xml:space="preserve" text-anchor="middle" x="703" y="-124.5" font-family="Helvetica,sans-Serif" font-size="10.00">format</text>
</a>
</g>
</g>
<!-- Node10&#45;&gt;Node20 -->
<g id="edge21_Node000010_Node000020" class="edge">
<title>Node10&#45;&gt;Node20</title>
<g id="a_edge21_Node000010_Node000020"><a xlink:title=" ">
<path fill="none" stroke="#63b8ff" d="M989.16,-186.58C930.44,-182.36 822.22,-171.31 734,-144 732.83,-143.64 731.65,-143.24 730.46,-142.81"/>
<polygon fill="#63b8ff" stroke="#63b8ff" points="731.97,-139.64 721.4,-138.95 729.23,-146.09 731.97,-139.64"/>
</a>
</g>
</g>
<!-- Node10&#45;&gt;Node21 -->
<g id="edge22_Node000010_Node000021" class="edge">
<title>Node10&#45;&gt;Node21</title>
<g id="a_edge22_Node000010_Node000021"><a xlink:title=" ">
<path fill="none" stroke="#63b8ff" d="M1074.61,-187.52C1182.11,-183.42 1462.04,-170.47 1551,-144 1551.97,-143.71 1552.95,-143.39 1553.92,-143.03"/>
<polygon fill="#63b8ff" stroke="#63b8ff" points="1555.04,-146.37 1562.7,-139.05 1552.15,-139.99 1555.04,-146.37"/>
</a>
</g>
</g>
<!-- Node12 -->
<g id="Node000012" class="node">
<title>Node12</title>
<g id="a_Node000012"><a xlink:title=" ">
<polygon fill="#e0e0e0" stroke="#999999" points="1401,-76 1361,-76 1361,-56 1401,-56 1401,-76"/>
<text xml:space="preserve" text-anchor="middle" x="1381" y="-62.5" font-family="Helvetica,sans-Serif" font-size="10.00">string</text>
</a>
</g>
</g>
<!-- Node11&#45;&gt;Node12 -->
<g id="edge12_Node000011_Node000012" class="edge">
<title>Node11&#45;&gt;Node12</title>
<g id="a_edge12_Node000011_Node000012"><a xlink:title=" ">
<path fill="none" stroke="#63b8ff" d="M1381,-117.62C1381,-109.56 1381,-97.65 1381,-87.41"/>
<polygon fill="#63b8ff" stroke="#63b8ff" points="1384.5,-87.63 1381,-77.63 1377.5,-87.63 1384.5,-87.63"/>
</a>
</g>
</g>
<!-- Node13 -->
<g id="Node000013" class="node">
<title>Node13</title>
<g id="a_Node000013"><a xlink:title=" ">
<polygon fill="#e0e0e0" stroke="#999999" points="422.75,-20 357.25,-20 357.25,0 422.75,0 422.75,-20"/>
<text xml:space="preserve" text-anchor="middle" x="390" y="-6.5" font-family="Helvetica,sans-Serif" font-size="10.00">string_view</text>
</a>
</g>
</g>
<!-- Node11&#45;&gt;Node13 -->
<g id="edge13_Node000011_Node000013" class="edge">
<title>Node11&#45;&gt;Node13</title>
<g id="a_edge13_Node000011_Node000013"><a xlink:title=" ">
<path fill="none" stroke="#63b8ff" d="M1347.75,-117.52C1339.7,-115.47 1331.08,-113.47 1323,-112 984.22,-50.19 568.83,-21.6 434.29,-13.5"/>
<polygon fill="#63b8ff" stroke="#63b8ff" points="434.59,-10.01 424.4,-12.92 434.17,-17 434.59,-10.01"/>
</a>
</g>
</g>
<!-- Node23 -->
<g id="Node000023" class="node">
<title>Node23</title>
<g id="a_Node000023"><a xlink:href="pfr__assign_8hpp.html" target="_top" xlink:title=" ">
<polygon fill="white" stroke="#666666" points="399.25,-138 276.75,-138 276.75,-118 399.25,-118 399.25,-138"/>
<text xml:space="preserve" text-anchor="middle" x="338" y="-124.5" font-family="Helvetica,sans-Serif" font-size="10.00">reflection/pfr_assign.hpp</text>
</a>
</g>
</g>
<!-- Node22&#45;&gt;Node23 -->
<g id="edge25_Node000022_Node000023" class="edge">
<title>Node22&#45;&gt;Node23</title>
<g id="a_edge25_Node000022_Node000023"><a xlink:title=" ">
<path fill="none" stroke="#63b8ff" d="M342.22,-179.62C341.55,-171.56 340.55,-159.65 339.7,-149.41"/>
<polygon fill="#63b8ff" stroke="#63b8ff" points="343.2,-149.3 338.89,-139.62 336.23,-149.88 343.2,-149.3"/>
</a>
</g>
</g>
<!-- Node27 -->
<g id="Node000027" class="node">
<title>Node27</title>
<g id="a_Node000027"><a xlink:href="reflection_2reflection_8hpp.html" target="_top" xlink:title=" ">
<polygon fill="white" stroke="#666666" points="258.62,-138 141.38,-138 141.38,-118 258.62,-118 258.62,-138"/>
<text xml:space="preserve" text-anchor="middle" x="200" y="-124.5" font-family="Helvetica,sans-Serif" font-size="10.00">reflection/reflection.hpp</text>
</a>
</g>
</g>
<!-- Node22&#45;&gt;Node27 -->
<g id="edge31_Node000022_Node000027" class="edge">
<title>Node22&#45;&gt;Node27</title>
<g id="a_edge31_Node000022_Node000027"><a xlink:title=" ">
<path fill="none" stroke="#63b8ff" d="M320.66,-179.62C297.04,-169.72 259.57,-153.99 232.65,-142.7"/>
<polygon fill="#63b8ff" stroke="#63b8ff" points="234.16,-139.54 223.58,-138.89 231.45,-145.99 234.16,-139.54"/>
</a>
</g>
</g>
<!-- Node23&#45;&gt;Node6 -->
<g id="edge26_Node000023_Node000006" class="edge">
<title>Node23&#45;&gt;Node6</title>
<g id="a_edge26_Node000023_Node000006"><a xlink:title=" ">
<path fill="none" stroke="#63b8ff" d="M357.84,-117.62C378.53,-107.85 411.21,-92.41 435.04,-81.15"/>
<polygon fill="#63b8ff" stroke="#63b8ff" points="436.38,-84.39 443.93,-76.96 433.39,-78.06 436.38,-84.39"/>
</a>
</g>
</g>
<!-- Node23&#45;&gt;Node13 -->
<g id="edge30_Node000023_Node000013" class="edge">
<title>Node23&#45;&gt;Node13</title>
<g id="a_edge30_Node000023_Node000013"><a xlink:title=" ">
<path fill="none" stroke="#63b8ff" d="M345.2,-117.7C352.56,-107.83 363.89,-91.53 371,-76 377.6,-61.58 382.52,-44.31 385.7,-31.2"/>
<polygon fill="#63b8ff" stroke="#63b8ff" points="389.08,-32.13 387.87,-21.6 382.25,-30.58 389.08,-32.13"/>
</a>
</g>
</g>
<!-- Node23&#45;&gt;Node24 -->
<g id="edge27_Node000023_Node000024" class="edge">
<title>Node23&#45;&gt;Node24</title>
<g id="a_edge27_Node000023_Node000024"><a xlink:title=" ">
<path fill="none" stroke="#63b8ff" d="M294.57,-117.56C246.49,-107.11 168.88,-90.24 116.69,-78.89"/>
<polygon fill="#63b8ff" stroke="#63b8ff" points="117.62,-75.51 107.11,-76.81 116.14,-82.35 117.62,-75.51"/>
</a>
</g>
</g>
<!-- Node25 -->
<g id="Node000025" class="node">
<title>Node25</title>
<g id="a_Node000025"><a xlink:title=" ">
<polygon fill="#e0e0e0" stroke="#999999" points="362.12,-76 313.88,-76 313.88,-56 362.12,-56 362.12,-76"/>
<text xml:space="preserve" text-anchor="middle" x="338" y="-62.5" font-family="Helvetica,sans-Serif" font-size="10.00">cassert</text>
</a>
</g>
</g>
<!-- Node23&#45;&gt;Node25 -->
<g id="edge28_Node000023_Node000025" class="edge">
<title>Node23&#45;&gt;Node25</title>
<g id="a_edge28_Node000023_Node000025"><a xlink:title=" ">
<path fill="none" stroke="#63b8ff" d="M338,-117.62C338,-109.56 338,-97.65 338,-87.41"/>
<polygon fill="#63b8ff" stroke="#63b8ff" points="341.5,-87.63 338,-77.63 334.5,-87.63 341.5,-87.63"/>
</a>
</g>
</g>
<!-- Node26 -->
<g id="Node000026" class="node">
<title>Node26</title>
<g id="a_Node000026"><a xlink:title=" ">
<polygon fill="#e0e0e0" stroke="#999999" points="219.12,-20 170.88,-20 170.88,0 219.12,0 219.12,-20"/>
<text xml:space="preserve" text-anchor="middle" x="195" y="-6.5" font-family="Helvetica,sans-Serif" font-size="10.00">cstddef</text>
</a>
</g>
</g>
<!-- Node23&#45;&gt;Node26 -->
<g id="edge29_Node000023_Node000026" class="edge">
<title>Node23&#45;&gt;Node26</title>
<g id="a_edge29_Node000023_Node000026"><a xlink:title=" ">
<path fill="none" stroke="#63b8ff" d="M298.36,-117.51C251.48,-105.9 178.76,-86.48 171,-76 160.63,-62 169.68,-43.03 179.49,-29.2"/>
<polygon fill="#63b8ff" stroke="#63b8ff" points="182.2,-31.42 185.57,-21.38 176.67,-27.12 182.2,-31.42"/>
</a>
</g>
</g>
<!-- Node27&#45;&gt;Node6 -->
<g id="edge35_Node000027_Node000006" class="edge">
<title>Node27&#45;&gt;Node6</title>
<g id="a_edge35_Node000027_Node000006"><a xlink:title=" ">
<path fill="none" stroke="#63b8ff" d="M241.7,-117.56C287.77,-107.13 362.07,-90.31 412.18,-78.96"/>
<polygon fill="#63b8ff" stroke="#63b8ff" points="412.65,-82.44 421.63,-76.82 411.11,-75.61 412.65,-82.44"/>
</a>
</g>
</g>
<!-- Node27&#45;&gt;Node24 -->
<g id="edge36_Node000027_Node000024" class="edge">
<title>Node27&#45;&gt;Node24</title>
<g id="a_edge36_Node000027_Node000024"><a xlink:title=" ">
<path fill="none" stroke="#63b8ff" d="M178.44,-117.62C155.75,-107.76 119.81,-92.13 93.85,-80.85"/>
<polygon fill="#63b8ff" stroke="#63b8ff" points="95.37,-77.69 84.8,-76.91 92.57,-84.11 95.37,-77.69"/>
</a>
</g>
</g>
<!-- Node28 -->
<g id="Node000028" class="node">
<title>Node28</title>
<g id="a_Node000028"><a xlink:href="constexpr__string_8hpp.html" target="_top" xlink:title=" ">
<polygon fill="white" stroke="#666666" points="295.88,-76 180.12,-76 180.12,-56 295.88,-56 295.88,-76"/>
<text xml:space="preserve" text-anchor="middle" x="238" y="-62.5" font-family="Helvetica,sans-Serif" font-size="10.00">../constexpr_string.hpp</text>
</a>
</g>
</g>
<!-- Node27&#45;&gt;Node28 -->
<g id="edge32_Node000027_Node000028" class="edge">
<title>Node27&#45;&gt;Node28</title>
<g id="a_edge32_Node000027_Node000028"><a xlink:title=" ">
<path fill="none" stroke="#63b8ff" d="M205.94,-117.62C211.32,-109.12 219.42,-96.33 226.13,-85.74"/>
<polygon fill="#63b8ff" stroke="#63b8ff" points="229.03,-87.71 231.42,-77.39 223.11,-83.97 229.03,-87.71"/>
</a>
</g>
</g>
<!-- Node28&#45;&gt;Node13 -->
<g id="edge34_Node000028_Node000013" class="edge">
<title>Node28&#45;&gt;Node13</title>
<g id="a_edge34_Node000028_Node000013"><a xlink:title=" ">
<path fill="none" stroke="#63b8ff" d="M264.48,-55.59C288.85,-46.94 325.25,-34 352.59,-24.29"/>
<polygon fill="#63b8ff" stroke="#63b8ff" points="353.64,-27.63 361.89,-20.99 351.3,-21.04 353.64,-27.63"/>
</a>
</g>
</g>
<!-- Node28&#45;&gt;Node26 -->
<g id="edge33_Node000028_Node000026" class="edge">
<title>Node28&#45;&gt;Node26</title>
<g id="a_edge33_Node000028_Node000026"><a xlink:title=" ">
<path fill="none" stroke="#63b8ff" d="M230.51,-55.59C224.71,-48.32 216.51,-38.02 209.45,-29.15"/>
<polygon fill="#63b8ff" stroke="#63b8ff" points="212.31,-27.12 203.35,-21.48 206.84,-31.49 212.31,-27.12"/>
</a>
</g>
</g>
<!-- Node38 -->
<g id="Node000038" class="node">
<title>Node38</title>
<g id="a_Node000038"><a xlink:title=" ">
<polygon fill="#e0e0e0" stroke="#999999" points="1571.62,-380 1526.38,-380 1526.38,-360 1571.62,-360 1571.62,-380"/>
<text xml:space="preserve" text-anchor="middle" x="1549" y="-366.5" font-family="Helvetica,sans-Serif" font-size="10.00">atomic</text>
</a>
</g>
</g>
<!-- Node37&#45;&gt;Node38 -->
<g id="edge53_Node000037_Node000038" class="edge">
<title>Node37&#45;&gt;Node38</title>
<g id="a_edge53_Node000037_Node000038"><a xlink:title=" ">
<path fill="none" stroke="#63b8ff" d="M1549,-415.55C1549,-408.34 1549,-399.66 1549,-391.88"/>
<polygon fill="#63b8ff" stroke="#63b8ff" points="1552.5,-391.92 1549,-381.92 1545.5,-391.92 1552.5,-391.92"/>
</a>
</g>
</g>
</g>
</svg>

<g id="navigator" transform="translate(0 0)" fill="#404254">
  <rect fill="#f2f5e9" fill-opacity="0.5" stroke="#606060" stroke-width=".5" x="0" y="0" width="60" height="60"/>
  <use id="zoomplus" xlink:href="#zoomPlus" x="17" y="9" onmousedown="handleZoom(evt,'in')"/>
  <use id="zoomminus" xlink:href="#zoomMin" x="42" y="9" onmousedown="handleZoom(evt,'out')"/>
  <use id="reset" xlink:href="#resetDef" x="30" y="36" onmousedown="handleReset()"/>
   <use id="arrowup" xlink:href="#arrowUp" x="0" y="0" onmousedown="handlePan(0,-1)"/>
  <use id="arrowright" xlink:href="#arrowRight" x="0" y="0" onmousedown="handlePan(1,0)"/>
  <use id="arrowdown" xlink:href="#arrowDown" x="0" y="0" onmousedown="handlePan(0,1)"/>
  <use id="arrowleft" xlink:href="#arrowLeft" x="0" y="0" onmousedown="handlePan(-1,0)"/>
</g>
<svg viewBox="0 0 15 15" width="100%" height="30px" preserveAspectRatio="xMaxYMin meet">
 <g id="arrow_out" transform="scale(0.3 0.3)">
  <a xlink:href="transaction__source_8hpp__incl_org.svg" target="_base">
   <rect id="button" ry="5" rx="5" y="6" x="6" height="38" width="38"
        fill="#f2f5e9" fill-opacity="0.5" stroke="#606060" stroke-width="1.0"/>
   <path id="arrow"
     d="M 11.500037,31.436501 C 11.940474,20.09759 22.043105,11.32322 32.158766,21.979434 L 37.068811,17.246167 C 37.068811,17.246167 37.088388,32 37.088388,32 L 22.160133,31.978069 C 22.160133,31.978069 26.997745,27.140456 26.997745,27.140456 C 18.528582,18.264221 13.291696,25.230495 11.500037,31.436501 z"
     style="fill:#404040;"/>
  </a>
 </g>
</svg>

<style type='text/css'>
<![CDATA[
[data-mouse-over-selected='false'] { opacity: 0.7; }
[data-mouse-over-selected='true']  { opacity: 1.0; }
]]>
</style>
<script type="application/ecmascript"><![CDATA[
document.addEventListener('DOMContentLoaded', (event) => {
  highlightEdges();
  highlightAdjacentNodes();
});
]]></script>
</svg>
