<?xml version="1.0" encoding="UTF-8" standalone="no"?>
<!DOCTYPE svg PUBLIC "-//W3C//DTD SVG 1.1//EN"
 "http://www.w3.org/Graphics/SVG/1.1/DTD/svg11.dtd">
<!-- Generated by graphviz version 14.1.2 (20260124.0452)
 -->
<!-- Title: depicture_menu/src/core/repository/transaction/transaction_range.hpp Pages: 1 -->
<!--zoomable 704 -->

<svg id="main" version="1.1" xmlns="http://www.w3.org/2000/svg" xmlns:xlink="http://www.w3.org/1999/xlink" xml:space="preserve" onload="init(evt)">

<style type="text/css"><![CDATA[
.node, .edge {opacity: 0.7;}
.node.selected, .edge.selected {opacity: 1;}
.edge:hover path { stroke: red; }
.edge:hover polygon { stroke: red; fill: red; }
]]></style>

<defs>
  <circle id="rim" cx="0" cy="0" r="7"/>
  <circle id="rim2" cx="0" cy="0" r="3.5"/>
  <g id="zoomPlus">
    <use xlink:href="#rim" fill="#404040"><set attributeName="fill" to="#808080" begin="zoomplus.mouseover" end="zoomplus.mouseout"/></use>
    <path d="M-4,0h8M0,-4v8" fill="none" stroke="white" stroke-width="1.5" pointer-events="none"/>
  </g>
  <g id="zoomMin">
    <use xlink:href="#rim" fill="#404040"><set attributeName="fill" to="#808080" begin="zoomminus.mouseover" end="zoomminus.mouseout"/></use>
    <path d="M-4,0h8" fill="none" stroke="white" stroke-width="1.5" pointer-events="none"/>
  </g>
  <g id="arrowUp" transform="translate(30 24)">
    <use xlink:href="#rim"/>
    <path pointer-events="none" fill="none" stroke="white" stroke-width="1.5" d="M0,-3.0v7 M-2.5,-0.5L0,-3.0L2.5,-0.5"/>
  </g>
  <g id="arrowRight" transform="rotate(90) translate(36 -43)">
    <use xlink:href="#rim"/>
    <path pointer-events="none" fill="none" stroke="white" stroke-width="1.5" d="M0,-3.0v7 M-2.5,-0.5L0,-3.0L2.5,-0.5"/>
  </g>
  <g id="arrowDown" transform="rotate(180) translate(-30 -48)">
    <use xlink:href="#rim"/>
    <path pointer-events="none" fill="none" stroke="white" stroke-width="1.5" d="M0,-3.0v7 M-2.5,-0.5L0,-3.0L2.5,-0.5"/>
  </g>
  <g id="arrowLeft" transform="rotate(270) translate(-36 17)">
    <use xlink:href="#rim"/>
    <path pointer-events="none" fill="none" stroke="white" stroke-width="1.5" d="M0,-3.0v7 M-2.5,-0.5L0,-3.0L2.5,-0.5"/>
  </g>
  <g id="resetDef">
    <use xlink:href="#rim2" fill="#404040"><set attributeName="fill" to="#808080" begin="reset.mouseover" end="reset.mouseout"/></use>
  </g>
</defs>
<script type="application/ecmascript">
var viewWidth = 1716;
var viewHeight = 704;
var sectionId = 'dynsection-0';
</script>
<script type="application/ecmascript" xlink:href="svg.min.js"/>
<svg id="graph" class="graph">
<g id="viewport">
<title>depicture_menu/src/core/repository/transaction/transaction_range.hpp</title>
<!-- Node1 -->
<g id="Node000001" class="node">
<title>Node1</title>
<g id="a_Node000001"><a xlink:title=" ">
<polygon fill="#999999" stroke="#666666" points="1465.31,-696 1330.81,-696 1330.81,-652 1465.31,-652 1465.31,-696"/>
<text xml:space="preserve" text-anchor="start" x="1338.81" y="-682.5" font-family="Helvetica,sans-Serif" font-size="10.00">depicture_menu/src</text>
<text xml:space="preserve" text-anchor="start" x="1338.81" y="-670.5" font-family="Helvetica,sans-Serif" font-size="10.00">/core/repository/transaction</text>
<text xml:space="preserve" text-anchor="middle" x="1398.06" y="-658.5" font-family="Helvetica,sans-Serif" font-size="10.00">/transaction_range.hpp</text>
</a>
</g>
</g>
<!-- Node2 -->
<g id="Node000002" class="node">
<title>Node2</title>
<g id="a_Node000002"><a xlink:href="transaction__ref_8hpp.html" target="_top" xlink:title=" ">
<polygon fill="white" stroke="#666666" points="1408.69,-616 1309.44,-616 1309.44,-596 1408.69,-596 1408.69,-616"/>
<text xml:space="preserve" text-anchor="middle" x="1359.06" y="-602.5" font-family="Helvetica,sans-Serif" font-size="10.00">transaction_ref.hpp</text>
</a>
</g>
</g>
<!-- Node1&#45;&gt;Node2 -->
<g id="edge1_Node000001_Node000002" class="edge">
<title>Node1&#45;&gt;Node2</title>
<g id="a_edge1_Node000001_Node000002"><a xlink:title=" ">
<path fill="none" stroke="#63b8ff" d="M1385.51,-651.75C1380.67,-643.57 1375.18,-634.27 1370.46,-626.28"/>
<polygon fill="#63b8ff" stroke="#63b8ff" points="1373.5,-624.55 1365.4,-617.72 1367.47,-628.11 1373.5,-624.55"/>
</a>
</g>
</g>
<!-- Node34 -->
<g id="Node000034" class="node">
<title>Node34</title>
<g id="a_Node000034"><a xlink:title=" ">
<polygon fill="#e0e0e0" stroke="#999999" points="1437.69,-386 1392.44,-386 1392.44,-366 1437.69,-366 1437.69,-386"/>
<text xml:space="preserve" text-anchor="middle" x="1415.06" y="-372.5" font-family="Helvetica,sans-Serif" font-size="10.00">ranges</text>
</a>
</g>
</g>
<!-- Node1&#45;&gt;Node34 -->
<g id="edge53_Node000001_Node000034" class="edge">
<title>Node1&#45;&gt;Node34</title>
<g id="a_edge53_Node000001_Node000034"><a xlink:title=" ">
<path fill="none" stroke="#63b8ff" d="M1416.67,-651.73C1434.93,-628.6 1460.06,-589.73 1460.06,-551 1460.06,-551 1460.06,-551 1460.06,-493 1460.06,-456.8 1440.78,-418.29 1427.46,-396"/>
<polygon fill="#63b8ff" stroke="#63b8ff" points="1430.57,-394.37 1422.31,-387.73 1424.63,-398.07 1430.57,-394.37"/>
</a>
</g>
</g>
<!-- Node3 -->
<g id="Node000003" class="node">
<title>Node3</title>
<g id="a_Node000003"><a xlink:href="transaction_2transaction_8hpp.html" target="_top" xlink:title=" ">
<polygon fill="white" stroke="#666666" points="1327.44,-560 1244.69,-560 1244.69,-540 1327.44,-540 1327.44,-560"/>
<text xml:space="preserve" text-anchor="middle" x="1286.06" y="-546.5" font-family="Helvetica,sans-Serif" font-size="10.00">transaction.hpp</text>
</a>
</g>
</g>
<!-- Node2&#45;&gt;Node3 -->
<g id="edge2_Node000002_Node000003" class="edge">
<title>Node2&#45;&gt;Node3</title>
<g id="a_edge2_Node000002_Node000003"><a xlink:title=" ">
<path fill="none" stroke="#63b8ff" d="M1346.35,-595.59C1335.67,-587.7 1320.19,-576.24 1307.58,-566.92"/>
<polygon fill="#63b8ff" stroke="#63b8ff" points="1309.97,-564.33 1299.85,-561.2 1305.81,-569.96 1309.97,-564.33"/>
</a>
</g>
</g>
<!-- Node4 -->
<g id="Node000004" class="node">
<title>Node4</title>
<g id="a_Node000004"><a xlink:href="lockable__repository_8hpp.html" target="_top" xlink:title=" ">
<polygon fill="white" stroke="#666666" points="1345.06,-504 1227.06,-504 1227.06,-484 1345.06,-484 1345.06,-504"/>
<text xml:space="preserve" text-anchor="middle" x="1286.06" y="-490.5" font-family="Helvetica,sans-Serif" font-size="10.00">lockable_repository.hpp</text>
</a>
</g>
</g>
<!-- Node3&#45;&gt;Node4 -->
<g id="edge3_Node000003_Node000004" class="edge">
<title>Node3&#45;&gt;Node4</title>
<g id="a_edge3_Node000003_Node000004"><a xlink:title=" ">
<path fill="none" stroke="#63b8ff" d="M1286.06,-539.59C1286.06,-533.01 1286.06,-523.96 1286.06,-515.73"/>
<polygon fill="#63b8ff" stroke="#63b8ff" points="1289.56,-515.81 1286.06,-505.81 1282.56,-515.81 1289.56,-515.81"/>
</a>
</g>
</g>
<!-- Node6 -->
<g id="Node000006" class="node">
<title>Node6</title>
<g id="a_Node000006"><a xlink:href="crud__repository_8hpp.html" target="_top" xlink:title=" ">
<polygon fill="white" stroke="#666666" points="1240.56,-386 1083.56,-386 1083.56,-366 1240.56,-366 1240.56,-386"/>
<text xml:space="preserve" text-anchor="middle" x="1162.06" y="-372.5" font-family="Helvetica,sans-Serif" font-size="10.00">core/domain/crud_repository.hpp</text>
</a>
</g>
</g>
<!-- Node3&#45;&gt;Node6 -->
<g id="edge50_Node000003_Node000006" class="edge">
<title>Node3&#45;&gt;Node6</title>
<g id="a_edge50_Node000003_Node000006"><a xlink:title=" ">
<path fill="none" stroke="#63b8ff" d="M1244.35,-545.64C1213.03,-541.01 1171.05,-530.03 1144.06,-504 1118.92,-479.75 1113.07,-461.15 1124.06,-428 1128.14,-415.71 1136.45,-403.98 1144.27,-394.87"/>
<polygon fill="#63b8ff" stroke="#63b8ff" points="1146.82,-397.27 1151.01,-387.53 1141.67,-392.53 1146.82,-397.27"/>
</a>
</g>
</g>
<!-- Node36 -->
<g id="Node000036" class="node">
<title>Node36</title>
<g id="a_Node000036"><a xlink:href="atomic__mutex_8hpp.html" target="_top" xlink:title=" ">
<polygon fill="white" stroke="#666666" points="1556.81,-392 1455.31,-392 1455.31,-360 1556.81,-360 1556.81,-392"/>
<text xml:space="preserve" text-anchor="start" x="1463.31" y="-378.5" font-family="Helvetica,sans-Serif" font-size="10.00">utility/thread/atomic</text>
<text xml:space="preserve" text-anchor="middle" x="1506.06" y="-366.5" font-family="Helvetica,sans-Serif" font-size="10.00">_mutex.hpp</text>
</a>
</g>
</g>
<!-- Node3&#45;&gt;Node36 -->
<g id="edge51_Node000003_Node000036" class="edge">
<title>Node3&#45;&gt;Node36</title>
<g id="a_edge51_Node000003_Node000036"><a xlink:title=" ">
<path fill="none" stroke="#63b8ff" d="M1303.32,-539.68C1333.01,-523.22 1395.02,-487.06 1441.06,-448 1457.84,-433.77 1474.56,-415.39 1486.84,-400.9"/>
<polygon fill="#63b8ff" stroke="#63b8ff" points="1489.19,-403.54 1492.9,-393.62 1483.81,-399.06 1489.19,-403.54"/>
</a>
</g>
</g>
<!-- Node38 -->
<g id="Node000038" class="node">
<title>Node38</title>
<g id="a_Node000038"><a xlink:title=" ">
<polygon fill="#e0e0e0" stroke="#999999" points="1208.94,-504 1153.19,-504 1153.19,-484 1208.94,-484 1208.94,-504"/>
<text xml:space="preserve" text-anchor="middle" x="1181.06" y="-490.5" font-family="Helvetica,sans-Serif" font-size="10.00">expected</text>
</a>
</g>
</g>
<!-- Node3&#45;&gt;Node38 -->
<g id="edge52_Node000003_Node000038" class="edge">
<title>Node3&#45;&gt;Node38</title>
<g id="a_edge52_Node000003_Node000038"><a xlink:title=" ">
<path fill="none" stroke="#63b8ff" d="M1267.77,-539.59C1251.76,-531.36 1228.23,-519.26 1209.72,-509.74"/>
<polygon fill="#63b8ff" stroke="#63b8ff" points="1211.34,-506.63 1200.84,-505.17 1208.13,-512.86 1211.34,-506.63"/>
</a>
</g>
</g>
<!-- Node5 -->
<g id="Node000005" class="node">
<title>Node5</title>
<g id="a_Node000005"><a xlink:href="diff__snapshots__repository_8hpp.html" target="_top" xlink:title=" ">
<polygon fill="white" stroke="#666666" points="1296.06,-448 1142.06,-448 1142.06,-428 1296.06,-428 1296.06,-448"/>
<text xml:space="preserve" text-anchor="middle" x="1219.06" y="-434.5" font-family="Helvetica,sans-Serif" font-size="10.00">../diff_snapshots_repository.hpp</text>
</a>
</g>
</g>
<!-- Node4&#45;&gt;Node5 -->
<g id="edge4_Node000004_Node000005" class="edge">
<title>Node4&#45;&gt;Node5</title>
<g id="a_edge4_Node000004_Node000005"><a xlink:title=" ">
<path fill="none" stroke="#63b8ff" d="M1274.39,-483.59C1264.79,-475.85 1250.94,-464.69 1239.5,-455.47"/>
<polygon fill="#63b8ff" stroke="#63b8ff" points="1241.76,-452.8 1231.78,-449.25 1237.37,-458.25 1241.76,-452.8"/>
</a>
</g>
</g>
<!-- Node4&#45;&gt;Node6 -->
<g id="edge43_Node000004_Node000006" class="edge">
<title>Node4&#45;&gt;Node6</title>
<g id="a_edge43_Node000004_Node000006"><a xlink:title=" ">
<path fill="none" stroke="#63b8ff" d="M1229.07,-483.54C1190.63,-475.86 1144.84,-463.74 1133.06,-448 1120.91,-431.76 1133.5,-409.69 1145.68,-394.5"/>
<polygon fill="#63b8ff" stroke="#63b8ff" points="1148.11,-397.04 1152,-387.18 1142.82,-392.46 1148.11,-397.04"/>
</a>
</g>
</g>
<!-- Node35 -->
<g id="Node000035" class="node">
<title>Node35</title>
<g id="a_Node000035"><a xlink:href="transaction__source_8hpp.html" target="_top" xlink:title=" ">
<polygon fill="white" stroke="#666666" points="1431.69,-448 1314.44,-448 1314.44,-428 1431.69,-428 1431.69,-448"/>
<text xml:space="preserve" text-anchor="middle" x="1373.06" y="-434.5" font-family="Helvetica,sans-Serif" font-size="10.00">transaction_source.hpp</text>
</a>
</g>
</g>
<!-- Node4&#45;&gt;Node35 -->
<g id="edge44_Node000004_Node000035" class="edge">
<title>Node4&#45;&gt;Node35</title>
<g id="a_edge44_Node000004_Node000035"><a xlink:title=" ">
<path fill="none" stroke="#63b8ff" d="M1301.22,-483.59C1314.11,-475.59 1332.89,-463.93 1348.02,-454.54"/>
<polygon fill="#63b8ff" stroke="#63b8ff" points="1349.86,-457.53 1356.51,-449.28 1346.16,-451.58 1349.86,-457.53"/>
</a>
</g>
</g>
<!-- Node5&#45;&gt;Node6 -->
<g id="edge5_Node000005_Node000006" class="edge">
<title>Node5&#45;&gt;Node6</title>
<g id="a_edge5_Node000005_Node000006"><a xlink:title=" ">
<path fill="none" stroke="#63b8ff" d="M1210.16,-427.62C1201.74,-418.77 1188.91,-405.26 1178.62,-394.43"/>
<polygon fill="#63b8ff" stroke="#63b8ff" points="1181.19,-392.05 1171.76,-387.21 1176.11,-396.87 1181.19,-392.05"/>
</a>
</g>
</g>
<!-- Node5&#45;&gt;Node34 -->
<g id="edge42_Node000005_Node000034" class="edge">
<title>Node5&#45;&gt;Node34</title>
<g id="a_edge42_Node000005_Node000034"><a xlink:title=" ">
<path fill="none" stroke="#63b8ff" d="M1249.69,-427.62C1285.4,-416.69 1344.25,-398.68 1381.27,-387.35"/>
<polygon fill="#63b8ff" stroke="#63b8ff" points="1382.02,-390.78 1390.56,-384.5 1379.97,-384.08 1382.02,-390.78"/>
</a>
</g>
</g>
<!-- Node7 -->
<g id="Node000007" class="node">
<title>Node7</title>
<g id="a_Node000007"><a xlink:href="model_2entity_8hpp.html" target="_top" xlink:title=" ">
<polygon fill="white" stroke="#666666" points="948.69,-324 861.44,-324 861.44,-304 948.69,-304 948.69,-324"/>
<text xml:space="preserve" text-anchor="middle" x="905.06" y="-310.5" font-family="Helvetica,sans-Serif" font-size="10.00">model/entity.hpp</text>
</a>
</g>
</g>
<!-- Node6&#45;&gt;Node7 -->
<g id="edge6_Node000006_Node000007" class="edge">
<title>Node6&#45;&gt;Node7</title>
<g id="a_edge6_Node000006_Node000007"><a xlink:title=" ">
<path fill="none" stroke="#63b8ff" d="M1121.63,-365.56C1077.04,-355.15 1005.19,-338.38 956.6,-327.03"/>
<polygon fill="#63b8ff" stroke="#63b8ff" points="957.7,-323.69 947.17,-324.83 956.11,-330.51 957.7,-323.69"/>
</a>
</g>
</g>
<!-- Node33 -->
<g id="Node000033" class="node">
<title>Node33</title>
<g id="a_Node000033"><a xlink:title=" ">
<polygon fill="#e0e0e0" stroke="#999999" points="1265.69,-324 1214.44,-324 1214.44,-304 1265.69,-304 1265.69,-324"/>
<text xml:space="preserve" text-anchor="middle" x="1240.06" y="-310.5" font-family="Helvetica,sans-Serif" font-size="10.00">memory</text>
</a>
</g>
</g>
<!-- Node6&#45;&gt;Node33 -->
<g id="edge41_Node000006_Node000033" class="edge">
<title>Node6&#45;&gt;Node33</title>
<g id="a_edge41_Node000006_Node000033"><a xlink:title=" ">
<path fill="none" stroke="#63b8ff" d="M1174.25,-365.62C1186.27,-356.38 1204.88,-342.07 1219.25,-331.01"/>
<polygon fill="#63b8ff" stroke="#63b8ff" points="1220.97,-334.1 1226.76,-325.23 1216.7,-328.55 1220.97,-334.1"/>
</a>
</g>
</g>
<!-- Node8 -->
<g id="Node000008" class="node">
<title>Node8</title>
<g id="a_Node000008"><a xlink:href="concepts_8hpp.html" target="_top" xlink:title=" ">
<polygon fill="white" stroke="#666666" points="869.31,-144 794.81,-144 794.81,-124 869.31,-124 869.31,-144"/>
<text xml:space="preserve" text-anchor="middle" x="832.06" y="-130.5" font-family="Helvetica,sans-Serif" font-size="10.00">concepts.hpp</text>
</a>
</g>
</g>
<!-- Node7&#45;&gt;Node8 -->
<g id="edge7_Node000007_Node000008" class="edge">
<title>Node7&#45;&gt;Node8</title>
<g id="a_edge7_Node000007_Node000008"><a xlink:title=" ">
<path fill="none" stroke="#63b8ff" d="M905.93,-303.58C907.56,-280.75 909.14,-221.35 886.06,-180 879.57,-168.37 868.81,-158.48 858.58,-150.96"/>
<polygon fill="#63b8ff" stroke="#63b8ff" points="860.59,-148.09 850.36,-145.34 856.65,-153.87 860.59,-148.09"/>
</a>
</g>
</g>
<!-- Node12 -->
<g id="Node000012" class="node">
<title>Node12</title>
<g id="a_Node000012"><a xlink:href="model_2entity__id_8hpp.html" target="_top" xlink:title=" ">
<polygon fill="white" stroke="#666666" points="452.81,-268 381.31,-268 381.31,-248 452.81,-248 452.81,-268"/>
<text xml:space="preserve" text-anchor="middle" x="417.06" y="-254.5" font-family="Helvetica,sans-Serif" font-size="10.00">entity_id.hpp</text>
</a>
</g>
</g>
<!-- Node7&#45;&gt;Node12 -->
<g id="edge11_Node000007_Node000012" class="edge">
<title>Node7&#45;&gt;Node12</title>
<g id="a_edge11_Node000007_Node000012"><a xlink:title=" ">
<path fill="none" stroke="#63b8ff" d="M861.33,-308.16C769.81,-298.03 558.8,-274.68 464.31,-264.23"/>
<polygon fill="#63b8ff" stroke="#63b8ff" points="464.95,-260.78 454.62,-263.16 464.18,-267.73 464.95,-260.78"/>
</a>
</g>
</g>
<!-- Node13 -->
<g id="Node000013" class="node">
<title>Node13</title>
<g id="a_Node000013"><a xlink:href="model_2value__object_8hpp.html" target="_top" xlink:title=" ">
<polygon fill="white" stroke="#666666" points="876.81,-206 787.31,-206 787.31,-186 876.81,-186 876.81,-206"/>
<text xml:space="preserve" text-anchor="middle" x="832.06" y="-192.5" font-family="Helvetica,sans-Serif" font-size="10.00">value_object.hpp</text>
</a>
</g>
</g>
<!-- Node7&#45;&gt;Node13 -->
<g id="edge40_Node000007_Node000013" class="edge">
<title>Node7&#45;&gt;Node13</title>
<g id="a_edge40_Node000007_Node000013"><a xlink:title=" ">
<path fill="none" stroke="#63b8ff" d="M899.09,-303.51C887.05,-284.38 859.69,-240.89 843.9,-215.8"/>
<polygon fill="#63b8ff" stroke="#63b8ff" points="847.01,-214.18 838.72,-207.58 841.09,-217.91 847.01,-214.18"/>
</a>
</g>
</g>
<!-- Node14 -->
<g id="Node000014" class="node">
<title>Node14</title>
<g id="a_Node000014"><a xlink:href="model_2presistence_8hpp.html" target="_top" xlink:title=" ">
<polygon fill="white" stroke="#666666" points="1060.56,-144 975.56,-144 975.56,-124 1060.56,-124 1060.56,-144"/>
<text xml:space="preserve" text-anchor="middle" x="1018.06" y="-130.5" font-family="Helvetica,sans-Serif" font-size="10.00">presistence.hpp</text>
</a>
</g>
</g>
<!-- Node7&#45;&gt;Node14 -->
<g id="edge39_Node000007_Node000014" class="edge">
<title>Node7&#45;&gt;Node14</title>
<g id="a_edge39_Node000007_Node000014"><a xlink:title=" ">
<path fill="none" stroke="#63b8ff" d="M910.82,-303.93C928.5,-276.08 982.24,-191.44 1006.25,-153.61"/>
<polygon fill="#63b8ff" stroke="#63b8ff" points="1008.97,-155.86 1011.37,-145.54 1003.06,-152.11 1008.97,-155.86"/>
</a>
</g>
</g>
<!-- Node9 -->
<g id="Node000009" class="node">
<title>Node9</title>
<g id="a_Node000009"><a xlink:href="model__base__concepts_8hpp.html" target="_top" xlink:title=" ">
<polygon fill="white" stroke="#666666" points="847.19,-82 714.94,-82 714.94,-62 847.19,-62 847.19,-82"/>
<text xml:space="preserve" text-anchor="middle" x="781.06" y="-68.5" font-family="Helvetica,sans-Serif" font-size="10.00">model_base_concepts.hpp</text>
</a>
</g>
</g>
<!-- Node8&#45;&gt;Node9 -->
<g id="edge8_Node000008_Node000009" class="edge">
<title>Node8&#45;&gt;Node9</title>
<g id="a_edge8_Node000008_Node000009"><a xlink:title=" ">
<path fill="none" stroke="#63b8ff" d="M824.1,-123.62C816.64,-114.86 805.31,-101.53 796.15,-90.75"/>
<polygon fill="#63b8ff" stroke="#63b8ff" points="798.93,-88.62 789.79,-83.27 793.6,-93.15 798.93,-88.62"/>
</a>
</g>
</g>
<!-- Node10 -->
<g id="Node000010" class="node">
<title>Node10</title>
<g id="a_Node000010"><a xlink:title=" ">
<polygon fill="#e0e0e0" stroke="#999999" points="828.44,-20 733.69,-20 733.69,0 828.44,0 828.44,-20"/>
<text xml:space="preserve" text-anchor="middle" x="781.06" y="-6.5" font-family="Helvetica,sans-Serif" font-size="10.00">boost/pfr/core.hpp</text>
</a>
</g>
</g>
<!-- Node9&#45;&gt;Node10 -->
<g id="edge9_Node000009_Node000010" class="edge">
<title>Node9&#45;&gt;Node10</title>
<g id="a_edge9_Node000009_Node000010"><a xlink:title=" ">
<path fill="none" stroke="#63b8ff" d="M781.06,-61.62C781.06,-53.56 781.06,-41.65 781.06,-31.41"/>
<polygon fill="#63b8ff" stroke="#63b8ff" points="784.56,-31.63 781.06,-21.63 777.56,-31.63 784.56,-31.63"/>
</a>
</g>
</g>
<!-- Node11 -->
<g id="Node000011" class="node">
<title>Node11</title>
<g id="a_Node000011"><a xlink:title=" ">
<polygon fill="#e0e0e0" stroke="#999999" points="664.69,-20 625.44,-20 625.44,0 664.69,0 664.69,-20"/>
<text xml:space="preserve" text-anchor="middle" x="645.06" y="-6.5" font-family="Helvetica,sans-Serif" font-size="10.00">utility</text>
</a>
</g>
</g>
<!-- Node9&#45;&gt;Node11 -->
<g id="edge10_Node000009_Node000011" class="edge">
<title>Node9&#45;&gt;Node11</title>
<g id="a_edge10_Node000009_Node000011"><a xlink:title=" ">
<path fill="none" stroke="#63b8ff" d="M759.81,-61.62C737.07,-51.59 700.79,-35.58 675.12,-24.26"/>
<polygon fill="#63b8ff" stroke="#63b8ff" points="676.79,-21.17 666.22,-20.34 673.96,-27.57 676.79,-21.17"/>
</a>
</g>
</g>
<!-- Node12&#45;&gt;Node13 -->
<g id="edge12_Node000012_Node000013" class="edge">
<title>Node12&#45;&gt;Node13</title>
<g id="a_edge12_Node000012_Node000013"><a xlink:title=" ">
<path fill="none" stroke="#63b8ff" d="M453.21,-254.26C518.54,-248.93 660.4,-235.54 778.06,-212 782.07,-211.2 786.21,-210.26 790.34,-209.24"/>
<polygon fill="#63b8ff" stroke="#63b8ff" points="790.87,-212.72 799.66,-206.81 789.1,-205.95 790.87,-212.72"/>
</a>
</g>
</g>
<!-- Node19 -->
<g id="Node000019" class="node">
<title>Node19</title>
<g id="a_Node000019"><a xlink:title=" ">
<polygon fill="#e0e0e0" stroke="#999999" points="314.44,-88 219.69,-88 219.69,-56 314.44,-56 314.44,-88"/>
<text xml:space="preserve" text-anchor="start" x="227.69" y="-74.5" font-family="Helvetica,sans-Serif" font-size="10.00">boost/serialization</text>
<text xml:space="preserve" text-anchor="middle" x="267.06" y="-62.5" font-family="Helvetica,sans-Serif" font-size="10.00">/access.hpp</text>
</a>
</g>
</g>
<!-- Node12&#45;&gt;Node19 -->
<g id="edge33_Node000012_Node000019" class="edge">
<title>Node12&#45;&gt;Node19</title>
<g id="a_edge33_Node000012_Node000019"><a xlink:title=" ">
<path fill="none" stroke="#63b8ff" d="M381.09,-255.67C286.85,-251.82 38.35,-239.15 14.06,-212 -48.4,-142.17 115.3,-100.2 208.14,-82.64"/>
<polygon fill="#63b8ff" stroke="#63b8ff" points="208.68,-86.1 217.88,-80.85 207.41,-79.22 208.68,-86.1"/>
</a>
</g>
</g>
<!-- Node27 -->
<g id="Node000027" class="node">
<title>Node27</title>
<g id="a_Node000027"><a xlink:title=" ">
<polygon fill="#e0e0e0" stroke="#999999" points="404.44,-144 303.69,-144 303.69,-124 404.44,-124 404.44,-144"/>
<text xml:space="preserve" text-anchor="middle" x="354.06" y="-130.5" font-family="Helvetica,sans-Serif" font-size="10.00">boost/uuid/uuid.hpp</text>
</a>
</g>
</g>
<!-- Node12&#45;&gt;Node27 -->
<g id="edge35_Node000012_Node000027" class="edge">
<title>Node12&#45;&gt;Node27</title>
<g id="a_edge35_Node000012_Node000027"><a xlink:title=" ">
<path fill="none" stroke="#63b8ff" d="M381.23,-254.41C328.21,-249.75 232.9,-237.91 212.06,-212 184.86,-178.17 242.47,-157.1 292.27,-145.73"/>
<polygon fill="#63b8ff" stroke="#63b8ff" points="292.89,-149.18 301.92,-143.63 291.41,-142.33 292.89,-149.18"/>
</a>
</g>
</g>
<!-- Node28 -->
<g id="Node000028" class="node">
<title>Node28</title>
<g id="a_Node000028"><a xlink:title=" ">
<polygon fill="#e0e0e0" stroke="#999999" points="348.94,-206 221.19,-206 221.19,-186 348.94,-186 348.94,-206"/>
<text xml:space="preserve" text-anchor="middle" x="285.06" y="-192.5" font-family="Helvetica,sans-Serif" font-size="10.00">boost/functional/hash.hpp</text>
</a>
</g>
</g>
<!-- Node12&#45;&gt;Node28 -->
<g id="edge32_Node000012_Node000028" class="edge">
<title>Node12&#45;&gt;Node28</title>
<g id="a_edge32_Node000012_Node000028"><a xlink:title=" ">
<path fill="none" stroke="#63b8ff" d="M396.44,-247.62C374.84,-237.81 340.67,-222.27 315.87,-211"/>
<polygon fill="#63b8ff" stroke="#63b8ff" points="317.47,-207.89 306.92,-206.94 314.58,-214.26 317.47,-207.89"/>
</a>
</g>
</g>
<!-- Node29 -->
<g id="Node000029" class="node">
<title>Node29</title>
<g id="a_Node000029"><a xlink:title=" ">
<polygon fill="#e0e0e0" stroke="#999999" points="466.69,-212 367.44,-212 367.44,-180 466.69,-180 466.69,-212"/>
<text xml:space="preserve" text-anchor="start" x="375.44" y="-198.5" font-family="Helvetica,sans-Serif" font-size="10.00">boost/serialization</text>
<text xml:space="preserve" text-anchor="middle" x="417.06" y="-186.5" font-family="Helvetica,sans-Serif" font-size="10.00">/array_wrapper.hpp</text>
</a>
</g>
</g>
<!-- Node12&#45;&gt;Node29 -->
<g id="edge34_Node000012_Node000029" class="edge">
<title>Node12&#45;&gt;Node29</title>
<g id="a_edge34_Node000012_Node000029"><a xlink:title=" ">
<path fill="none" stroke="#63b8ff" d="M417.06,-247.62C417.06,-241.1 417.06,-232.05 417.06,-223.4"/>
<polygon fill="#63b8ff" stroke="#63b8ff" points="420.56,-223.65 417.06,-213.65 413.56,-223.65 420.56,-223.65"/>
</a>
</g>
</g>
<!-- Node30 -->
<g id="Node000030" class="node">
<title>Node30</title>
<g id="a_Node000030"><a xlink:title=" ">
<polygon fill="#e0e0e0" stroke="#999999" points="636.94,-206 485.19,-206 485.19,-186 636.94,-186 636.94,-206"/>
<text xml:space="preserve" text-anchor="middle" x="561.06" y="-192.5" font-family="Helvetica,sans-Serif" font-size="10.00">boost/uuid/uuid_generators.hpp</text>
</a>
</g>
</g>
<!-- Node12&#45;&gt;Node30 -->
<g id="edge36_Node000012_Node000030" class="edge">
<title>Node12&#45;&gt;Node30</title>
<g id="a_edge36_Node000012_Node000030"><a xlink:title=" ">
<path fill="none" stroke="#63b8ff" d="M439.56,-247.62C463.34,-237.72 501.08,-221.99 528.19,-210.7"/>
<polygon fill="#63b8ff" stroke="#63b8ff" points="529.44,-213.97 537.33,-206.89 526.75,-207.51 529.44,-213.97"/>
</a>
</g>
</g>
<!-- Node31 -->
<g id="Node000031" class="node">
<title>Node31</title>
<g id="a_Node000031"><a xlink:title=" ">
<polygon fill="#e0e0e0" stroke="#999999" points="768.81,-206 655.31,-206 655.31,-186 768.81,-186 768.81,-206"/>
<text xml:space="preserve" text-anchor="middle" x="712.06" y="-192.5" font-family="Helvetica,sans-Serif" font-size="10.00">boost/uuid/uuid_io.hpp</text>
</a>
</g>
</g>
<!-- Node12&#45;&gt;Node31 -->
<g id="edge37_Node000012_Node000031" class="edge">
<title>Node12&#45;&gt;Node31</title>
<g id="a_edge37_Node000012_Node000031"><a xlink:title=" ">
<path fill="none" stroke="#63b8ff" d="M453.22,-250.24C498.41,-241.7 578.09,-226.4 646.06,-212 650.66,-211.03 655.42,-209.99 660.19,-208.94"/>
<polygon fill="#63b8ff" stroke="#63b8ff" points="660.79,-212.39 669.79,-206.8 659.27,-205.56 660.79,-212.39"/>
</a>
</g>
</g>
<!-- Node32 -->
<g id="Node000032" class="node">
<title>Node32</title>
<g id="a_Node000032"><a xlink:title=" ">
<polygon fill="#e0e0e0" stroke="#999999" points="165.06,-206 23.06,-206 23.06,-186 165.06,-186 165.06,-206"/>
<text xml:space="preserve" text-anchor="middle" x="94.06" y="-192.5" font-family="Helvetica,sans-Serif" font-size="10.00">boost/uuid/uuid_serialize.hpp</text>
</a>
</g>
</g>
<!-- Node12&#45;&gt;Node32 -->
<g id="edge38_Node000012_Node000032" class="edge">
<title>Node12&#45;&gt;Node32</title>
<g id="a_edge38_Node000012_Node000032"><a xlink:title=" ">
<path fill="none" stroke="#63b8ff" d="M380.95,-250.29C326.56,-240.19 222.91,-220.93 156.22,-208.55"/>
<polygon fill="#63b8ff" stroke="#63b8ff" points="156.99,-205.13 146.52,-206.74 155.71,-212.01 156.99,-205.13"/>
</a>
</g>
</g>
<!-- Node13&#45;&gt;Node8 -->
<g id="edge27_Node000013_Node000008" class="edge">
<title>Node13&#45;&gt;Node8</title>
<g id="a_edge27_Node000013_Node000008"><a xlink:title=" ">
<path fill="none" stroke="#63b8ff" d="M832.06,-185.62C832.06,-177.56 832.06,-165.65 832.06,-155.41"/>
<polygon fill="#63b8ff" stroke="#63b8ff" points="835.56,-155.63 832.06,-145.63 828.56,-155.63 835.56,-155.63"/>
</a>
</g>
</g>
<!-- Node13&#45;&gt;Node10 -->
<g id="edge28_Node000013_Node000010" class="edge">
<title>Node13&#45;&gt;Node10</title>
<g id="a_edge28_Node000013_Node000010"><a xlink:title=" ">
<path fill="none" stroke="#63b8ff" d="M813.03,-185.74C783.63,-170.23 728.24,-135.92 706.06,-88 700.09,-75.09 699.06,-68.38 706.06,-56 713.81,-42.31 727.57,-32.33 741.21,-25.3"/>
<polygon fill="#63b8ff" stroke="#63b8ff" points="742.56,-28.53 750.14,-21.13 739.6,-22.19 742.56,-28.53"/>
</a>
</g>
</g>
<!-- Node13&#45;&gt;Node11 -->
<g id="edge31_Node000013_Node000011" class="edge">
<title>Node13&#45;&gt;Node11</title>
<g id="a_edge31_Node000013_Node000011"><a xlink:title=" ">
<path fill="none" stroke="#63b8ff" d="M799.01,-185.5C792.11,-183.61 784.86,-181.68 778.06,-180 705.21,-161.95 660.14,-202.46 613.06,-144 585.99,-110.38 613.5,-57.45 631.73,-29.58"/>
<polygon fill="#63b8ff" stroke="#63b8ff" points="634.52,-31.7 637.27,-21.47 628.74,-27.75 634.52,-31.7"/>
</a>
</g>
</g>
<!-- Node13&#45;&gt;Node14 -->
<g id="edge13_Node000013_Node000014" class="edge">
<title>Node13&#45;&gt;Node14</title>
<g id="a_edge13_Node000013_Node000014"><a xlink:title=" ">
<path fill="none" stroke="#63b8ff" d="M861.13,-185.62C892.57,-175.48 942.9,-159.25 978.06,-147.9"/>
<polygon fill="#63b8ff" stroke="#63b8ff" points="979.02,-151.27 987.46,-144.87 976.87,-144.61 979.02,-151.27"/>
</a>
</g>
</g>
<!-- Node26 -->
<g id="Node000026" class="node">
<title>Node26</title>
<g id="a_Node000026"><a xlink:title=" ">
<polygon fill="#e0e0e0" stroke="#999999" points="713.94,-144 622.19,-144 622.19,-124 713.94,-124 713.94,-144"/>
<text xml:space="preserve" text-anchor="middle" x="668.06" y="-130.5" font-family="Helvetica,sans-Serif" font-size="10.00">boost/pfr/ops.hpp</text>
</a>
</g>
</g>
<!-- Node13&#45;&gt;Node26 -->
<g id="edge29_Node000013_Node000026" class="edge">
<title>Node13&#45;&gt;Node26</title>
<g id="a_edge29_Node000013_Node000026"><a xlink:title=" ">
<path fill="none" stroke="#63b8ff" d="M806.44,-185.62C779.08,-175.62 735.49,-159.67 704.55,-148.35"/>
<polygon fill="#63b8ff" stroke="#63b8ff" points="705.79,-145.08 695.2,-144.93 703.39,-151.65 705.79,-145.08"/>
</a>
</g>
</g>
<!-- Node13&#45;&gt;Node27 -->
<g id="edge30_Node000013_Node000027" class="edge">
<title>Node13&#45;&gt;Node27</title>
<g id="a_edge30_Node000013_Node000027"><a xlink:title=" ">
<path fill="none" stroke="#63b8ff" d="M801.43,-185.55C793.85,-183.47 785.71,-181.46 778.06,-180 650.63,-155.71 498.96,-143.59 415.96,-138.36"/>
<polygon fill="#63b8ff" stroke="#63b8ff" points="416.42,-134.88 406.23,-137.76 415.99,-141.87 416.42,-134.88"/>
</a>
</g>
</g>
<!-- Node14&#45;&gt;Node9 -->
<g id="edge14_Node000014_Node000009" class="edge">
<title>Node14&#45;&gt;Node9</title>
<g id="a_edge14_Node000014_Node000009"><a xlink:title=" ">
<path fill="none" stroke="#63b8ff" d="M980.77,-123.56C939.91,-113.22 874.24,-96.59 829.44,-85.25"/>
<polygon fill="#63b8ff" stroke="#63b8ff" points="830.55,-81.92 820,-82.86 828.83,-88.7 830.55,-81.92"/>
</a>
</g>
</g>
<!-- Node14&#45;&gt;Node10 -->
<g id="edge19_Node000014_Node000010" class="edge">
<title>Node14&#45;&gt;Node10</title>
<g id="a_edge19_Node000014_Node000010"><a xlink:title=" ">
<path fill="none" stroke="#63b8ff" d="M981.86,-123.54C956.31,-116 921.82,-104.04 894.06,-88 874.95,-76.95 874.03,-68.83 856.06,-56 840.85,-45.14 822.92,-34.31 808.41,-26"/>
<polygon fill="#63b8ff" stroke="#63b8ff" points="810.28,-23.04 799.85,-21.18 806.84,-29.14 810.28,-23.04"/>
</a>
</g>
</g>
<!-- Node15 -->
<g id="Node000015" class="node">
<title>Node15</title>
<g id="a_Node000015"><a xlink:href="str__conv_8hpp.html" target="_top" xlink:title=" ">
<polygon fill="white" stroke="#666666" points="1186.94,-82 1089.19,-82 1089.19,-62 1186.94,-62 1186.94,-82"/>
<text xml:space="preserve" text-anchor="middle" x="1138.06" y="-68.5" font-family="Helvetica,sans-Serif" font-size="10.00">utility/str_conv.hpp</text>
</a>
</g>
</g>
<!-- Node14&#45;&gt;Node15 -->
<g id="edge15_Node000014_Node000015" class="edge">
<title>Node14&#45;&gt;Node15</title>
<g id="a_edge15_Node000014_Node000015"><a xlink:title=" ">
<path fill="none" stroke="#63b8ff" d="M1036.81,-123.62C1056.28,-113.89 1086.96,-98.55 1109.45,-87.31"/>
<polygon fill="#63b8ff" stroke="#63b8ff" points="1110.71,-90.59 1118.09,-82.99 1107.58,-84.33 1110.71,-90.59"/>
</a>
</g>
</g>
<!-- Node18 -->
<g id="Node000018" class="node">
<title>Node18</title>
<g id="a_Node000018"><a xlink:title=" ">
<polygon fill="#e0e0e0" stroke="#999999" points="1070.69,-88 965.44,-88 965.44,-56 1070.69,-56 1070.69,-88"/>
<text xml:space="preserve" text-anchor="start" x="973.44" y="-74.5" font-family="Helvetica,sans-Serif" font-size="10.00">boost/archive/basic</text>
<text xml:space="preserve" text-anchor="middle" x="1018.06" y="-62.5" font-family="Helvetica,sans-Serif" font-size="10.00">_binary_iarchive.hpp</text>
</a>
</g>
</g>
<!-- Node14&#45;&gt;Node18 -->
<g id="edge18_Node000014_Node000018" class="edge">
<title>Node14&#45;&gt;Node18</title>
<g id="a_edge18_Node000014_Node000018"><a xlink:title=" ">
<path fill="none" stroke="#63b8ff" d="M1018.06,-123.62C1018.06,-117.1 1018.06,-108.05 1018.06,-99.4"/>
<polygon fill="#63b8ff" stroke="#63b8ff" points="1021.56,-99.65 1018.06,-89.65 1014.56,-99.65 1021.56,-99.65"/>
</a>
</g>
</g>
<!-- Node14&#45;&gt;Node19 -->
<g id="edge20_Node000014_Node000019" class="edge">
<title>Node14&#45;&gt;Node19</title>
<g id="a_edge20_Node000014_Node000019"><a xlink:title=" ">
<path fill="none" stroke="#63b8ff" d="M975.26,-129.58C848.09,-119.42 472.3,-89.4 326.15,-77.72"/>
<polygon fill="#63b8ff" stroke="#63b8ff" points="326.55,-74.24 316.3,-76.93 325.99,-81.22 326.55,-74.24"/>
</a>
</g>
</g>
<!-- Node20 -->
<g id="Node000020" class="node">
<title>Node20</title>
<g id="a_Node000020"><a xlink:title=" ">
<polygon fill="#e0e0e0" stroke="#999999" points="1299.44,-88 1204.69,-88 1204.69,-56 1299.44,-56 1299.44,-88"/>
<text xml:space="preserve" text-anchor="start" x="1212.69" y="-74.5" font-family="Helvetica,sans-Serif" font-size="10.00">boost/serialization</text>
<text xml:space="preserve" text-anchor="middle" x="1252.06" y="-62.5" font-family="Helvetica,sans-Serif" font-size="10.00">/optional.hpp</text>
</a>
</g>
</g>
<!-- Node14&#45;&gt;Node20 -->
<g id="edge21_Node000014_Node000020" class="edge">
<title>Node14&#45;&gt;Node20</title>
<g id="a_edge21_Node000014_Node000020"><a xlink:title=" ">
<path fill="none" stroke="#63b8ff" d="M1055.95,-123.59C1089.69,-115.17 1140.68,-102.35 1193.48,-88.65"/>
<polygon fill="#63b8ff" stroke="#63b8ff" points="1194.16,-92.1 1202.95,-86.19 1192.39,-85.32 1194.16,-92.1"/>
</a>
</g>
</g>
<!-- Node21 -->
<g id="Node000021" class="node">
<title>Node21</title>
<g id="a_Node000021"><a xlink:title=" ">
<polygon fill="#e0e0e0" stroke="#999999" points="1422.31,-88 1317.81,-88 1317.81,-56 1422.31,-56 1422.31,-88"/>
<text xml:space="preserve" text-anchor="start" x="1325.81" y="-74.5" font-family="Helvetica,sans-Serif" font-size="10.00">boost/serialization</text>
<text xml:space="preserve" text-anchor="middle" x="1370.06" y="-62.5" font-family="Helvetica,sans-Serif" font-size="10.00">/unordered_map.hpp</text>
</a>
</g>
</g>
<!-- Node14&#45;&gt;Node21 -->
<g id="edge22_Node000014_Node000021" class="edge">
<title>Node14&#45;&gt;Node21</title>
<g id="a_edge22_Node000014_Node000021"><a xlink:title=" ">
<path fill="none" stroke="#63b8ff" d="M1061.01,-127.48C1115.63,-120.2 1213.07,-106.39 1306.31,-88.24"/>
<polygon fill="#63b8ff" stroke="#63b8ff" points="1306.74,-91.72 1315.88,-86.36 1305.39,-84.86 1306.74,-91.72"/>
</a>
</g>
</g>
<!-- Node22 -->
<g id="Node000022" class="node">
<title>Node22</title>
<g id="a_Node000022"><a xlink:title=" ">
<polygon fill="#e0e0e0" stroke="#999999" points="1539.69,-88 1440.44,-88 1440.44,-56 1539.69,-56 1539.69,-88"/>
<text xml:space="preserve" text-anchor="start" x="1448.44" y="-74.5" font-family="Helvetica,sans-Serif" font-size="10.00">boost/serialization</text>
<text xml:space="preserve" text-anchor="middle" x="1490.06" y="-62.5" font-family="Helvetica,sans-Serif" font-size="10.00">/unordered_set.hpp</text>
</a>
</g>
</g>
<!-- Node14&#45;&gt;Node22 -->
<g id="edge23_Node000014_Node000022" class="edge">
<title>Node14&#45;&gt;Node22</title>
<g id="a_edge23_Node000014_Node000022"><a xlink:title=" ">
<path fill="none" stroke="#63b8ff" d="M1060.86,-130.33C1134.25,-125.31 1288.98,-112.86 1429.04,-88.2"/>
<polygon fill="#63b8ff" stroke="#63b8ff" points="1429.24,-91.72 1438.47,-86.52 1428.01,-84.83 1429.24,-91.72"/>
</a>
</g>
</g>
<!-- Node23 -->
<g id="Node000023" class="node">
<title>Node23</title>
<g id="a_Node000023"><a xlink:title=" ">
<polygon fill="#e0e0e0" stroke="#999999" points="1652.44,-88 1557.69,-88 1557.69,-56 1652.44,-56 1652.44,-88"/>
<text xml:space="preserve" text-anchor="start" x="1565.69" y="-74.5" font-family="Helvetica,sans-Serif" font-size="10.00">boost/serialization</text>
<text xml:space="preserve" text-anchor="middle" x="1605.06" y="-62.5" font-family="Helvetica,sans-Serif" font-size="10.00">/vector.hpp</text>
</a>
</g>
</g>
<!-- Node14&#45;&gt;Node23 -->
<g id="edge24_Node000014_Node000023" class="edge">
<title>Node14&#45;&gt;Node23</title>
<g id="a_edge24_Node000014_Node000023"><a xlink:title=" ">
<path fill="none" stroke="#63b8ff" d="M1060.72,-131.94C1149.5,-129.2 1360.62,-119.82 1545.91,-88.37"/>
<polygon fill="#63b8ff" stroke="#63b8ff" points="1546.48,-91.82 1555.74,-86.67 1545.29,-84.92 1546.48,-91.82"/>
</a>
</g>
</g>
<!-- Node24 -->
<g id="Node000024" class="node">
<title>Node24</title>
<g id="a_Node000024"><a xlink:title=" ">
<polygon fill="#e0e0e0" stroke="#999999" points="946.94,-82 903.19,-82 903.19,-62 946.94,-62 946.94,-82"/>
<text xml:space="preserve" text-anchor="middle" x="925.06" y="-68.5" font-family="Helvetica,sans-Serif" font-size="10.00">format</text>
</a>
</g>
</g>
<!-- Node14&#45;&gt;Node24 -->
<g id="edge25_Node000014_Node000024" class="edge">
<title>Node14&#45;&gt;Node24</title>
<g id="a_edge25_Node000014_Node000024"><a xlink:title=" ">
<path fill="none" stroke="#63b8ff" d="M1003.53,-123.62C988.93,-114.2 966.17,-99.52 948.91,-88.39"/>
<polygon fill="#63b8ff" stroke="#63b8ff" points="951.07,-85.61 940.77,-83.13 947.27,-91.49 951.07,-85.61"/>
</a>
</g>
</g>
<!-- Node25 -->
<g id="Node000025" class="node">
<title>Node25</title>
<g id="a_Node000025"><a xlink:title=" ">
<polygon fill="#e0e0e0" stroke="#999999" points="1707.56,-82 1670.56,-82 1670.56,-62 1707.56,-62 1707.56,-82"/>
<text xml:space="preserve" text-anchor="middle" x="1689.06" y="-68.5" font-family="Helvetica,sans-Serif" font-size="10.00">tuple</text>
</a>
</g>
</g>
<!-- Node14&#45;&gt;Node25 -->
<g id="edge26_Node000014_Node000025" class="edge">
<title>Node14&#45;&gt;Node25</title>
<g id="a_edge26_Node000014_Node000025"><a xlink:title=" ">
<path fill="none" stroke="#63b8ff" d="M1061.06,-132.33C1186.09,-130.03 1547.9,-120.64 1661.06,-88 1662.04,-87.72 1663.02,-87.4 1663.99,-87.05"/>
<polygon fill="#63b8ff" stroke="#63b8ff" points="1665.1,-90.4 1672.78,-83.1 1662.22,-84.01 1665.1,-90.4"/>
</a>
</g>
</g>
<!-- Node16 -->
<g id="Node000016" class="node">
<title>Node16</title>
<g id="a_Node000016"><a xlink:title=" ">
<polygon fill="#e0e0e0" stroke="#999999" points="1122.06,-20 1082.06,-20 1082.06,0 1122.06,0 1122.06,-20"/>
<text xml:space="preserve" text-anchor="middle" x="1102.06" y="-6.5" font-family="Helvetica,sans-Serif" font-size="10.00">string</text>
</a>
</g>
</g>
<!-- Node15&#45;&gt;Node16 -->
<g id="edge16_Node000015_Node000016" class="edge">
<title>Node15&#45;&gt;Node16</title>
<g id="a_edge16_Node000015_Node000016"><a xlink:title=" ">
<path fill="none" stroke="#63b8ff" d="M1132.44,-61.62C1127.34,-53.12 1119.66,-40.33 1113.31,-29.74"/>
<polygon fill="#63b8ff" stroke="#63b8ff" points="1116.46,-28.18 1108.31,-21.41 1110.45,-31.79 1116.46,-28.18"/>
</a>
</g>
</g>
<!-- Node17 -->
<g id="Node000017" class="node">
<title>Node17</title>
<g id="a_Node000017"><a xlink:title=" ">
<polygon fill="#e0e0e0" stroke="#999999" points="1205.81,-20 1140.31,-20 1140.31,0 1205.81,0 1205.81,-20"/>
<text xml:space="preserve" text-anchor="middle" x="1173.06" y="-6.5" font-family="Helvetica,sans-Serif" font-size="10.00">string_view</text>
</a>
</g>
</g>
<!-- Node15&#45;&gt;Node17 -->
<g id="edge17_Node000015_Node000017" class="edge">
<title>Node15&#45;&gt;Node17</title>
<g id="a_edge17_Node000015_Node000017"><a xlink:title=" ">
<path fill="none" stroke="#63b8ff" d="M1143.53,-61.62C1148.49,-53.12 1155.95,-40.33 1162.13,-29.74"/>
<polygon fill="#63b8ff" stroke="#63b8ff" points="1164.97,-31.82 1166.99,-21.42 1158.92,-28.29 1164.97,-31.82"/>
</a>
</g>
</g>
<!-- Node35&#45;&gt;Node6 -->
<g id="edge45_Node000035_Node000006" class="edge">
<title>Node35&#45;&gt;Node6</title>
<g id="a_edge45_Node000035_Node000006"><a xlink:title=" ">
<path fill="none" stroke="#63b8ff" d="M1340.1,-427.62C1304.05,-417.37 1246.1,-400.9 1206.16,-389.54"/>
<polygon fill="#63b8ff" stroke="#63b8ff" points="1207.18,-386.19 1196.6,-386.82 1205.27,-392.92 1207.18,-386.19"/>
</a>
</g>
</g>
<!-- Node35&#45;&gt;Node25 -->
<g id="edge49_Node000035_Node000025" class="edge">
<title>Node35&#45;&gt;Node25</title>
<g id="a_edge49_Node000035_Node000025"><a xlink:title=" ">
<path fill="none" stroke="#63b8ff" d="M1371.89,-427.53C1369.45,-407.04 1364.06,-357.05 1364.06,-315 1364.06,-315 1364.06,-315 1364.06,-195 1364.06,-54.69 1532.88,-145.06 1661.06,-88 1661.41,-87.84 1661.76,-87.69 1662.12,-87.53"/>
<polygon fill="#63b8ff" stroke="#63b8ff" points="1663.61,-90.69 1671.03,-83.12 1660.51,-84.42 1663.61,-90.69"/>
</a>
</g>
</g>
<!-- Node35&#45;&gt;Node33 -->
<g id="edge48_Node000035_Node000033" class="edge">
<title>Node35&#45;&gt;Node33</title>
<g id="a_edge48_Node000035_Node000033"><a xlink:title=" ">
<path fill="none" stroke="#63b8ff" d="M1363.07,-427.83C1340.83,-407.43 1286.97,-358.03 1258.47,-331.88"/>
<polygon fill="#63b8ff" stroke="#63b8ff" points="1261.03,-329.48 1251.29,-325.3 1256.3,-334.64 1261.03,-329.48"/>
</a>
</g>
</g>
<!-- Node35&#45;&gt;Node36 -->
<g id="edge46_Node000035_Node000036" class="edge">
<title>Node35&#45;&gt;Node36</title>
<g id="a_edge46_Node000035_Node000036"><a xlink:title=" ">
<path fill="none" stroke="#63b8ff" d="M1393.85,-427.62C1411.9,-419.48 1438.67,-407.4 1461.54,-397.09"/>
<polygon fill="#63b8ff" stroke="#63b8ff" points="1462.67,-400.42 1470.35,-393.11 1459.79,-394.03 1462.67,-400.42"/>
</a>
</g>
</g>
<!-- Node37 -->
<g id="Node000037" class="node">
<title>Node37</title>
<g id="a_Node000037"><a xlink:title=" ">
<polygon fill="#e0e0e0" stroke="#999999" points="1528.69,-324 1483.44,-324 1483.44,-304 1528.69,-304 1528.69,-324"/>
<text xml:space="preserve" text-anchor="middle" x="1506.06" y="-310.5" font-family="Helvetica,sans-Serif" font-size="10.00">atomic</text>
</a>
</g>
</g>
<!-- Node36&#45;&gt;Node37 -->
<g id="edge47_Node000036_Node000037" class="edge">
<title>Node36&#45;&gt;Node37</title>
<g id="a_edge47_Node000036_Node000037"><a xlink:title=" ">
<path fill="none" stroke="#63b8ff" d="M1506.06,-359.55C1506.06,-352.34 1506.06,-343.66 1506.06,-335.88"/>
<polygon fill="#63b8ff" stroke="#63b8ff" points="1509.56,-335.92 1506.06,-325.92 1502.56,-335.92 1509.56,-335.92"/>
</a>
</g>
</g>
</g>
</svg>

<g id="navigator" transform="translate(0 0)" fill="#404254">
  <rect fill="#f2f5e9" fill-opacity="0.5" stroke="#606060" stroke-width=".5" x="0" y="0" width="60" height="60"/>
  <use id="zoomplus" xlink:href="#zoomPlus" x="17" y="9" onmousedown="handleZoom(evt,'in')"/>
  <use id="zoomminus" xlink:href="#zoomMin" x="42" y="9" onmousedown="handleZoom(evt,'out')"/>
  <use id="reset" xlink:href="#resetDef" x="30" y="36" onmousedown="handleReset()"/>
   <use id="arrowup" xlink:href="#arrowUp" x="0" y="0" onmousedown="handlePan(0,-1)"/>
  <use id="arrowright" xlink:href="#arrowRight" x="0" y="0" onmousedown="handlePan(1,0)"/>
  <use id="arrowdown" xlink:href="#arrowDown" x="0" y="0" onmousedown="handlePan(0,1)"/>
  <use id="arrowleft" xlink:href="#arrowLeft" x="0" y="0" onmousedown="handlePan(-1,0)"/>
</g>
<svg viewBox="0 0 15 15" width="100%" height="30px" preserveAspectRatio="xMaxYMin meet">
 <g id="arrow_out" transform="scale(0.3 0.3)">
  <a xlink:href="transaction__range_8hpp__incl_org.svg" target="_base">
   <rect id="button" ry="5" rx="5" y="6" x="6" height="38" width="38"
        fill="#f2f5e9" fill-opacity="0.5" stroke="#606060" stroke-width="1.0"/>
   <path id="arrow"
     d="M 11.500037,31.436501 C 11.940474,20.09759 22.043105,11.32322 32.158766,21.979434 L 37.068811,17.246167 C 37.068811,17.246167 37.088388,32 37.088388,32 L 22.160133,31.978069 C 22.160133,31.978069 26.997745,27.140456 26.997745,27.140456 C 18.528582,18.264221 13.291696,25.230495 11.500037,31.436501 z"
     style="fill:#404040;"/>
  </a>
 </g>
</svg>

<style type='text/css'>
<![CDATA[
[data-mouse-over-selected='false'] { opacity: 0.7; }
[data-mouse-over-selected='true']  { opacity: 1.0; }
]]>
</style>
<script type="application/ecmascript"><![CDATA[
document.addEventListener('DOMContentLoaded', (event) => {
  highlightEdges();
  highlightAdjacentNodes();
});
]]></script>
</svg>
