<?xml version="1.0" encoding="UTF-8" standalone="no"?>
<!DOCTYPE svg PUBLIC "-//W3C//DTD SVG 1.1//EN"
 "http://www.w3.org/Graphics/SVG/1.1/DTD/svg11.dtd">
<!-- Generated by graphviz version 14.1.2 (20260124.0452)
 -->
<!-- Title: depicture_menu/src/core/repository/transaction.hpp Pages: 1 -->
<svg width="1590pt" height="760pt"
 viewBox="0.00 0.00 1590.00 760.00" xmlns="http://www.w3.org/2000/svg" xmlns:xlink="http://www.w3.org/1999/xlink">
<g id="graph0" class="graph" transform="scale(1 1) rotate(0) translate(4 756)">
<title>depicture_menu/src/core/repository/transaction.hpp</title>
<!-- Node1 -->
<g id="Node000001" class="node">
<title>Node1</title>
<g id="a_Node000001"><a xlink:title=" ">
<polygon fill="#999999" stroke="#666666" points="804.12,-752 650.88,-752 650.88,-720 804.12,-720 804.12,-752"/>
<text xml:space="preserve" text-anchor="start" x="658.88" y="-738.5" font-family="Helvetica,sans-Serif" font-size="10.00">depicture_menu/src</text>
<text xml:space="preserve" text-anchor="middle" x="727.5" y="-726.5" font-family="Helvetica,sans-Serif" font-size="10.00">/core/repository/transaction.hpp</text>
</a>
</g>
</g>
<!-- Node2 -->
<g id="Node000002" class="node">
<title>Node2</title>
<g id="a_Node000002"><a xlink:href="crud__operations_8hpp.html" target="_top" xlink:title=" ">
<polygon fill="white" stroke="#666666" points="688.88,-616 534.12,-616 534.12,-596 688.88,-596 688.88,-616"/>
<text xml:space="preserve" text-anchor="middle" x="611.5" y="-602.5" font-family="Helvetica,sans-Serif" font-size="10.00">transaction/crud_operations.hpp</text>
</a>
</g>
</g>
<!-- Node1&#45;&gt;Node2 -->
<g id="edge1_Node000001_Node000002" class="edge">
<title>Node1&#45;&gt;Node2</title>
<g id="a_edge1_Node000001_Node000002"><a xlink:title=" ">
<path fill="none" stroke="#63b8ff" d="M684.71,-719.58C667.3,-711.39 648.3,-699.72 635.5,-684 622.32,-667.82 616.36,-644.39 613.67,-627.63"/>
<polygon fill="#63b8ff" stroke="#63b8ff" points="617.16,-627.3 612.38,-617.84 610.22,-628.21 617.16,-627.3"/>
</a>
</g>
</g>
<!-- Node3 -->
<g id="Node000003" class="node">
<title>Node3</title>
<g id="a_Node000003"><a xlink:href="transaction_2transaction_8hpp.html" target="_top" xlink:title=" ">
<polygon fill="white" stroke="#666666" points="806.88,-560 724.12,-560 724.12,-540 806.88,-540 806.88,-560"/>
<text xml:space="preserve" text-anchor="middle" x="765.5" y="-546.5" font-family="Helvetica,sans-Serif" font-size="10.00">transaction.hpp</text>
</a>
</g>
</g>
<!-- Node1&#45;&gt;Node3 -->
<g id="edge60_Node000001_Node000003" class="edge">
<title>Node1&#45;&gt;Node3</title>
<g id="a_edge60_Node000001_Node000003"><a xlink:title=" ">
<path fill="none" stroke="#63b8ff" d="M700.96,-719.62C688.64,-710.9 675.26,-698.78 668.5,-684 662.58,-671.07 663.19,-665.19 668.5,-652 672.66,-641.67 720.58,-594.36 747.47,-568.32"/>
<polygon fill="#63b8ff" stroke="#63b8ff" points="749.84,-570.9 754.6,-561.44 744.98,-565.86 749.84,-570.9"/>
</a>
</g>
</g>
<!-- Node4 -->
<g id="Node000004" class="node">
<title>Node4</title>
<g id="a_Node000004"><a xlink:href="lockable__repository_8hpp.html" target="_top" xlink:title=" ">
<polygon fill="white" stroke="#666666" points="614.5,-504 496.5,-504 496.5,-484 614.5,-484 614.5,-504"/>
<text xml:space="preserve" text-anchor="middle" x="555.5" y="-490.5" font-family="Helvetica,sans-Serif" font-size="10.00">lockable_repository.hpp</text>
</a>
</g>
</g>
<!-- Node1&#45;&gt;Node4 -->
<g id="edge59_Node000001_Node000004" class="edge">
<title>Node1&#45;&gt;Node4</title>
<g id="a_edge59_Node000001_Node000004"><a xlink:title=" ">
<path fill="none" stroke="#63b8ff" d="M668.71,-719.62C619.55,-703.16 553.16,-671.57 525.5,-616 508.7,-582.24 528.66,-538.39 543.13,-513.82"/>
<polygon fill="#63b8ff" stroke="#63b8ff" points="545.95,-515.9 548.25,-505.56 540.01,-512.21 545.95,-515.9"/>
</a>
</g>
</g>
<!-- Node35 -->
<g id="Node000035" class="node">
<title>Node35</title>
<g id="a_Node000035"><a xlink:href="transaction__source_8hpp.html" target="_top" xlink:title=" ">
<polygon fill="white" stroke="#666666" points="527.12,-448 409.88,-448 409.88,-428 527.12,-428 527.12,-448"/>
<text xml:space="preserve" text-anchor="middle" x="468.5" y="-434.5" font-family="Helvetica,sans-Serif" font-size="10.00">transaction_source.hpp</text>
</a>
</g>
</g>
<!-- Node1&#45;&gt;Node35 -->
<g id="edge67_Node000001_Node000035" class="edge">
<title>Node1&#45;&gt;Node35</title>
<g id="a_edge67_Node000001_Node000035"><a xlink:title=" ">
<path fill="none" stroke="#63b8ff" d="M650.49,-729.06C574.15,-718.47 468.5,-689.01 468.5,-607 468.5,-607 468.5,-607 468.5,-549 468.5,-517.87 468.5,-481.78 468.5,-459.68"/>
<polygon fill="#63b8ff" stroke="#63b8ff" points="472,-459.93 468.5,-449.93 465,-459.93 472,-459.93"/>
</a>
</g>
</g>
<!-- Node39 -->
<g id="Node000039" class="node">
<title>Node39</title>
<g id="a_Node000039"><a xlink:href="do__transaction_8hpp.html" target="_top" xlink:title=" ">
<polygon fill="white" stroke="#666666" points="944.25,-678 794.75,-678 794.75,-658 944.25,-658 944.25,-678"/>
<text xml:space="preserve" text-anchor="middle" x="869.5" y="-664.5" font-family="Helvetica,sans-Serif" font-size="10.00">transaction/do_transaction.hpp</text>
</a>
</g>
</g>
<!-- Node1&#45;&gt;Node39 -->
<g id="edge53_Node000001_Node000039" class="edge">
<title>Node1&#45;&gt;Node39</title>
<g id="a_edge53_Node000001_Node000039"><a xlink:title=" ">
<path fill="none" stroke="#63b8ff" d="M760.79,-719.53C784.43,-708.54 815.92,-693.9 838.92,-683.21"/>
<polygon fill="#63b8ff" stroke="#63b8ff" points="840.18,-686.49 847.77,-679.1 837.23,-680.14 840.18,-686.49"/>
</a>
</g>
</g>
<!-- Node40 -->
<g id="Node000040" class="node">
<title>Node40</title>
<g id="a_Node000040"><a xlink:href="transaction__error_8hpp.html" target="_top" xlink:title=" ">
<polygon fill="white" stroke="#666666" points="928.25,-616 820.75,-616 820.75,-596 928.25,-596 928.25,-616"/>
<text xml:space="preserve" text-anchor="middle" x="874.5" y="-602.5" font-family="Helvetica,sans-Serif" font-size="10.00">transaction_error.hpp</text>
</a>
</g>
</g>
<!-- Node1&#45;&gt;Node40 -->
<g id="edge61_Node000001_Node000040" class="edge">
<title>Node1&#45;&gt;Node40</title>
<g id="a_edge61_Node000001_Node000040"><a xlink:title=" ">
<path fill="none" stroke="#63b8ff" d="M804.6,-727.8C862.53,-720.62 934.94,-707.21 953.5,-684 962.38,-672.89 960.65,-664.3 953.5,-652 945.33,-637.94 930.95,-627.91 916.67,-620.95"/>
<polygon fill="#63b8ff" stroke="#63b8ff" points="918.33,-617.85 907.77,-617.01 915.5,-624.26 918.33,-617.85"/>
</a>
</g>
</g>
<!-- Node41 -->
<g id="Node000041" class="node">
<title>Node41</title>
<g id="a_Node000041"><a xlink:href="get_8hpp.html" target="_top" xlink:title=" ">
<polygon fill="white" stroke="#666666" points="777.12,-678 677.88,-678 677.88,-658 777.12,-658 777.12,-678"/>
<text xml:space="preserve" text-anchor="middle" x="727.5" y="-664.5" font-family="Helvetica,sans-Serif" font-size="10.00">transaction/get.hpp</text>
</a>
</g>
</g>
<!-- Node1&#45;&gt;Node41 -->
<g id="edge57_Node000001_Node000041" class="edge">
<title>Node1&#45;&gt;Node41</title>
<g id="a_edge57_Node000001_Node000041"><a xlink:title=" ">
<path fill="none" stroke="#63b8ff" d="M727.5,-719.69C727.5,-710.8 727.5,-699.46 727.5,-689.77"/>
<polygon fill="#63b8ff" stroke="#63b8ff" points="731,-689.83 727.5,-679.83 724,-689.83 731,-689.83"/>
</a>
</g>
</g>
<!-- Node42 -->
<g id="Node000042" class="node">
<title>Node42</title>
<g id="a_Node000042"><a xlink:href="transaction__range_8hpp.html" target="_top" xlink:title=" ">
<polygon fill="white" stroke="#666666" points="1154,-684 1039,-684 1039,-652 1154,-652 1154,-684"/>
<text xml:space="preserve" text-anchor="start" x="1047" y="-670.5" font-family="Helvetica,sans-Serif" font-size="10.00">transaction/transaction</text>
<text xml:space="preserve" text-anchor="middle" x="1096.5" y="-658.5" font-family="Helvetica,sans-Serif" font-size="10.00">_range.hpp</text>
</a>
</g>
</g>
<!-- Node1&#45;&gt;Node42 -->
<g id="edge62_Node000001_Node000042" class="edge">
<title>Node1&#45;&gt;Node42</title>
<g id="a_edge62_Node000001_Node000042"><a xlink:title=" ">
<path fill="none" stroke="#63b8ff" d="M804.56,-722.54C864.59,-712.64 949.97,-698.16 1024.5,-684 1025.52,-683.81 1026.54,-683.61 1027.57,-683.41"/>
<polygon fill="#63b8ff" stroke="#63b8ff" points="1028.14,-686.87 1037.28,-681.51 1026.8,-680 1028.14,-686.87"/>
</a>
</g>
</g>
<!-- Node43 -->
<g id="Node000043" class="node">
<title>Node43</title>
<g id="a_Node000043"><a xlink:href="transaction__ref_8hpp.html" target="_top" xlink:title=" ">
<polygon fill="white" stroke="#666666" points="1060.12,-616 960.88,-616 960.88,-596 1060.12,-596 1060.12,-616"/>
<text xml:space="preserve" text-anchor="middle" x="1010.5" y="-602.5" font-family="Helvetica,sans-Serif" font-size="10.00">transaction_ref.hpp</text>
</a>
</g>
</g>
<!-- Node1&#45;&gt;Node43 -->
<g id="edge66_Node000001_Node000043" class="edge">
<title>Node1&#45;&gt;Node43</title>
<g id="a_edge66_Node000001_Node000043"><a xlink:title=" ">
<path fill="none" stroke="#63b8ff" d="M804.43,-726.11C865.48,-717.74 944.71,-703.58 970.5,-684 989.02,-669.94 999.75,-644.84 1005.35,-627.12"/>
<polygon fill="#63b8ff" stroke="#63b8ff" points="1008.66,-628.3 1008.03,-617.72 1001.92,-626.38 1008.66,-628.3"/>
</a>
</g>
</g>
<!-- Node2&#45;&gt;Node3 -->
<g id="edge2_Node000002_Node000003" class="edge">
<title>Node2&#45;&gt;Node3</title>
<g id="a_edge2_Node000002_Node000003"><a xlink:title=" ">
<path fill="none" stroke="#63b8ff" d="M638.32,-595.59C663.13,-586.9 700.23,-573.89 727.97,-564.16"/>
<polygon fill="#63b8ff" stroke="#63b8ff" points="728.76,-567.59 737.04,-560.98 726.44,-560.99 728.76,-567.59"/>
</a>
</g>
</g>
<!-- Node3&#45;&gt;Node4 -->
<g id="edge3_Node000003_Node000004" class="edge">
<title>Node3&#45;&gt;Node4</title>
<g id="a_edge3_Node000003_Node000004"><a xlink:title=" ">
<path fill="none" stroke="#63b8ff" d="M728.92,-539.59C694.05,-530.63 641.36,-517.08 603.21,-507.27"/>
<polygon fill="#63b8ff" stroke="#63b8ff" points="604.39,-503.96 593.83,-504.86 602.64,-510.74 604.39,-503.96"/>
</a>
</g>
</g>
<!-- Node6 -->
<g id="Node000006" class="node">
<title>Node6</title>
<g id="a_Node000006"><a xlink:href="crud__repository_8hpp.html" target="_top" xlink:title=" ">
<polygon fill="white" stroke="#666666" points="719,-386 562,-386 562,-366 719,-366 719,-386"/>
<text xml:space="preserve" text-anchor="middle" x="640.5" y="-372.5" font-family="Helvetica,sans-Serif" font-size="10.00">core/domain/crud_repository.hpp</text>
</a>
</g>
</g>
<!-- Node3&#45;&gt;Node6 -->
<g id="edge50_Node000003_Node000006" class="edge">
<title>Node3&#45;&gt;Node6</title>
<g id="a_edge50_Node000003_Node000006"><a xlink:title=" ">
<path fill="none" stroke="#63b8ff" d="M766.74,-539.72C769.14,-517.88 772.12,-462.48 746.5,-428 733.08,-409.94 711.57,-397.97 691.43,-390.21"/>
<polygon fill="#63b8ff" stroke="#63b8ff" points="692.77,-386.97 682.18,-386.92 690.43,-393.57 692.77,-386.97"/>
</a>
</g>
</g>
<!-- Node36 -->
<g id="Node000036" class="node">
<title>Node36</title>
<g id="a_Node000036"><a xlink:href="atomic__mutex_8hpp.html" target="_top" xlink:title=" ">
<polygon fill="white" stroke="#666666" points="846.25,-392 744.75,-392 744.75,-360 846.25,-360 846.25,-392"/>
<text xml:space="preserve" text-anchor="start" x="752.75" y="-378.5" font-family="Helvetica,sans-Serif" font-size="10.00">utility/thread/atomic</text>
<text xml:space="preserve" text-anchor="middle" x="795.5" y="-366.5" font-family="Helvetica,sans-Serif" font-size="10.00">_mutex.hpp</text>
</a>
</g>
</g>
<!-- Node3&#45;&gt;Node36 -->
<g id="edge51_Node000003_Node000036" class="edge">
<title>Node3&#45;&gt;Node36</title>
<g id="a_edge51_Node000003_Node000036"><a xlink:title=" ">
<path fill="none" stroke="#63b8ff" d="M768.88,-539.82C772.07,-530.81 776.76,-516.63 779.5,-504 786.9,-469.84 791.25,-429.73 793.5,-403.86"/>
<polygon fill="#63b8ff" stroke="#63b8ff" points="796.99,-404.16 794.32,-393.9 790.01,-403.58 796.99,-404.16"/>
</a>
</g>
</g>
<!-- Node38 -->
<g id="Node000038" class="node">
<title>Node38</title>
<g id="a_Node000038"><a xlink:title=" ">
<polygon fill="#e0e0e0" stroke="#999999" points="891.38,-504 835.62,-504 835.62,-484 891.38,-484 891.38,-504"/>
<text xml:space="preserve" text-anchor="middle" x="863.5" y="-490.5" font-family="Helvetica,sans-Serif" font-size="10.00">expected</text>
</a>
</g>
</g>
<!-- Node3&#45;&gt;Node38 -->
<g id="edge52_Node000003_Node000038" class="edge">
<title>Node3&#45;&gt;Node38</title>
<g id="a_edge52_Node000003_Node000038"><a xlink:title=" ">
<path fill="none" stroke="#63b8ff" d="M782.57,-539.59C797.38,-531.44 819.07,-519.48 836.27,-510"/>
<polygon fill="#63b8ff" stroke="#63b8ff" points="837.9,-513.1 844.97,-505.21 834.52,-506.97 837.9,-513.1"/>
</a>
</g>
</g>
<!-- Node5 -->
<g id="Node000005" class="node">
<title>Node5</title>
<g id="a_Node000005"><a xlink:href="diff__snapshots__repository_8hpp.html" target="_top" xlink:title=" ">
<polygon fill="white" stroke="#666666" points="737.5,-448 583.5,-448 583.5,-428 737.5,-428 737.5,-448"/>
<text xml:space="preserve" text-anchor="middle" x="660.5" y="-434.5" font-family="Helvetica,sans-Serif" font-size="10.00">../diff_snapshots_repository.hpp</text>
</a>
</g>
</g>
<!-- Node4&#45;&gt;Node5 -->
<g id="edge4_Node000004_Node000005" class="edge">
<title>Node4&#45;&gt;Node5</title>
<g id="a_edge4_Node000004_Node000005"><a xlink:title=" ">
<path fill="none" stroke="#63b8ff" d="M573.79,-483.59C589.8,-475.36 613.33,-463.26 631.84,-453.74"/>
<polygon fill="#63b8ff" stroke="#63b8ff" points="633.43,-456.86 640.72,-449.17 630.23,-450.63 633.43,-456.86"/>
</a>
</g>
</g>
<!-- Node4&#45;&gt;Node6 -->
<g id="edge43_Node000004_Node000006" class="edge">
<title>Node4&#45;&gt;Node6</title>
<g id="a_edge43_Node000004_Node000006"><a xlink:title=" ">
<path fill="none" stroke="#63b8ff" d="M556.38,-483.84C558.03,-470.52 562.57,-445.48 574.5,-428 584.38,-413.51 599.69,-401.32 613.07,-392.49"/>
<polygon fill="#63b8ff" stroke="#63b8ff" points="614.9,-395.47 621.53,-387.21 611.19,-389.54 614.9,-395.47"/>
</a>
</g>
</g>
<!-- Node4&#45;&gt;Node35 -->
<g id="edge44_Node000004_Node000035" class="edge">
<title>Node4&#45;&gt;Node35</title>
<g id="a_edge44_Node000004_Node000035"><a xlink:title=" ">
<path fill="none" stroke="#63b8ff" d="M540.35,-483.59C527.45,-475.59 508.67,-463.93 493.54,-454.54"/>
<polygon fill="#63b8ff" stroke="#63b8ff" points="495.4,-451.58 485.06,-449.28 491.71,-457.53 495.4,-451.58"/>
</a>
</g>
</g>
<!-- Node5&#45;&gt;Node6 -->
<g id="edge5_Node000005_Node000006" class="edge">
<title>Node5&#45;&gt;Node6</title>
<g id="a_edge5_Node000005_Node000006"><a xlink:title=" ">
<path fill="none" stroke="#63b8ff" d="M657.38,-427.62C654.63,-419.39 650.54,-407.13 647.08,-396.74"/>
<polygon fill="#63b8ff" stroke="#63b8ff" points="650.5,-395.93 644.02,-387.55 643.86,-398.14 650.5,-395.93"/>
</a>
</g>
</g>
<!-- Node34 -->
<g id="Node000034" class="node">
<title>Node34</title>
<g id="a_Node000034"><a xlink:title=" ">
<polygon fill="#e0e0e0" stroke="#999999" points="1014.12,-386 968.88,-386 968.88,-366 1014.12,-366 1014.12,-386"/>
<text xml:space="preserve" text-anchor="middle" x="991.5" y="-372.5" font-family="Helvetica,sans-Serif" font-size="10.00">ranges</text>
</a>
</g>
</g>
<!-- Node5&#45;&gt;Node34 -->
<g id="edge42_Node000005_Node000034" class="edge">
<title>Node5&#45;&gt;Node34</title>
<g id="a_edge42_Node000005_Node000034"><a xlink:title=" ">
<path fill="none" stroke="#63b8ff" d="M712.58,-427.56C781.05,-415.15 899.43,-393.69 957.45,-383.17"/>
<polygon fill="#63b8ff" stroke="#63b8ff" points="957.84,-386.66 967.05,-381.43 956.59,-379.77 957.84,-386.66"/>
</a>
</g>
</g>
<!-- Node7 -->
<g id="Node000007" class="node">
<title>Node7</title>
<g id="a_Node000007"><a xlink:href="model_2entity_8hpp.html" target="_top" xlink:title=" ">
<polygon fill="white" stroke="#666666" points="747.12,-324 659.88,-324 659.88,-304 747.12,-304 747.12,-324"/>
<text xml:space="preserve" text-anchor="middle" x="703.5" y="-310.5" font-family="Helvetica,sans-Serif" font-size="10.00">model/entity.hpp</text>
</a>
</g>
</g>
<!-- Node6&#45;&gt;Node7 -->
<g id="edge6_Node000006_Node000007" class="edge">
<title>Node6&#45;&gt;Node7</title>
<g id="a_edge6_Node000006_Node000007"><a xlink:title=" ">
<path fill="none" stroke="#63b8ff" d="M650.34,-365.62C659.83,-356.59 674.4,-342.72 685.88,-331.78"/>
<polygon fill="#63b8ff" stroke="#63b8ff" points="688.01,-334.59 692.84,-325.16 683.18,-329.52 688.01,-334.59"/>
</a>
</g>
</g>
<!-- Node33 -->
<g id="Node000033" class="node">
<title>Node33</title>
<g id="a_Node000033"><a xlink:title=" ">
<polygon fill="#e0e0e0" stroke="#999999" points="609.12,-324 557.88,-324 557.88,-304 609.12,-304 609.12,-324"/>
<text xml:space="preserve" text-anchor="middle" x="583.5" y="-310.5" font-family="Helvetica,sans-Serif" font-size="10.00">memory</text>
</a>
</g>
</g>
<!-- Node6&#45;&gt;Node33 -->
<g id="edge41_Node000006_Node000033" class="edge">
<title>Node6&#45;&gt;Node33</title>
<g id="a_edge41_Node000006_Node000033"><a xlink:title=" ">
<path fill="none" stroke="#63b8ff" d="M631.59,-365.62C623.18,-356.77 610.35,-343.26 600.05,-332.43"/>
<polygon fill="#63b8ff" stroke="#63b8ff" points="602.62,-330.05 593.2,-325.21 597.55,-334.87 602.62,-330.05"/>
</a>
</g>
</g>
<!-- Node8 -->
<g id="Node000008" class="node">
<title>Node8</title>
<g id="a_Node000008"><a xlink:href="concepts_8hpp.html" target="_top" xlink:title=" ">
<polygon fill="white" stroke="#666666" points="1027.75,-144 953.25,-144 953.25,-124 1027.75,-124 1027.75,-144"/>
<text xml:space="preserve" text-anchor="middle" x="990.5" y="-130.5" font-family="Helvetica,sans-Serif" font-size="10.00">concepts.hpp</text>
</a>
</g>
</g>
<!-- Node7&#45;&gt;Node8 -->
<g id="edge7_Node000007_Node000008" class="edge">
<title>Node7&#45;&gt;Node8</title>
<g id="a_edge7_Node000007_Node000008"><a xlink:title=" ">
<path fill="none" stroke="#63b8ff" d="M707.04,-303.83C716.94,-279.45 747.41,-212.63 795.5,-180 807.61,-171.78 888.27,-154.88 941.99,-144.29"/>
<polygon fill="#63b8ff" stroke="#63b8ff" points="942.38,-147.78 951.52,-142.43 941.04,-140.91 942.38,-147.78"/>
</a>
</g>
</g>
<!-- Node12 -->
<g id="Node000012" class="node">
<title>Node12</title>
<g id="a_Node000012"><a xlink:href="model_2entity__id_8hpp.html" target="_top" xlink:title=" ">
<polygon fill="white" stroke="#666666" points="1152.25,-268 1080.75,-268 1080.75,-248 1152.25,-248 1152.25,-268"/>
<text xml:space="preserve" text-anchor="middle" x="1116.5" y="-254.5" font-family="Helvetica,sans-Serif" font-size="10.00">entity_id.hpp</text>
</a>
</g>
</g>
<!-- Node7&#45;&gt;Node12 -->
<g id="edge11_Node000007_Node000012" class="edge">
<title>Node7&#45;&gt;Node12</title>
<g id="a_edge11_Node000007_Node000012"><a xlink:title=" ">
<path fill="none" stroke="#63b8ff" d="M747.39,-306.3C752.82,-305.51 758.28,-304.72 763.5,-304 872.83,-288.83 1001.49,-272.92 1069.25,-264.69"/>
<polygon fill="#63b8ff" stroke="#63b8ff" points="1069.38,-268.2 1078.88,-263.52 1068.53,-261.25 1069.38,-268.2"/>
</a>
</g>
</g>
<!-- Node13 -->
<g id="Node000013" class="node">
<title>Node13</title>
<g id="a_Node000013"><a xlink:href="model_2value__object_8hpp.html" target="_top" xlink:title=" ">
<polygon fill="white" stroke="#666666" points="748.25,-206 658.75,-206 658.75,-186 748.25,-186 748.25,-206"/>
<text xml:space="preserve" text-anchor="middle" x="703.5" y="-192.5" font-family="Helvetica,sans-Serif" font-size="10.00">value_object.hpp</text>
</a>
</g>
</g>
<!-- Node7&#45;&gt;Node13 -->
<g id="edge40_Node000007_Node000013" class="edge">
<title>Node7&#45;&gt;Node13</title>
<g id="a_edge40_Node000007_Node000013"><a xlink:title=" ">
<path fill="none" stroke="#63b8ff" d="M703.5,-303.51C703.5,-284.81 703.5,-242.82 703.5,-217.51"/>
<polygon fill="#63b8ff" stroke="#63b8ff" points="707,-217.81 703.5,-207.81 700,-217.81 707,-217.81"/>
</a>
</g>
</g>
<!-- Node14 -->
<g id="Node000014" class="node">
<title>Node14</title>
<g id="a_Node000014"><a xlink:href="model_2presistence_8hpp.html" target="_top" xlink:title=" ">
<polygon fill="white" stroke="#666666" points="625,-144 540,-144 540,-124 625,-124 625,-144"/>
<text xml:space="preserve" text-anchor="middle" x="582.5" y="-130.5" font-family="Helvetica,sans-Serif" font-size="10.00">presistence.hpp</text>
</a>
</g>
</g>
<!-- Node7&#45;&gt;Node14 -->
<g id="edge39_Node000007_Node000014" class="edge">
<title>Node7&#45;&gt;Node14</title>
<g id="a_edge39_Node000007_Node000014"><a xlink:title=" ">
<path fill="none" stroke="#63b8ff" d="M697.33,-303.93C678.4,-276.08 620.86,-191.44 595.15,-153.61"/>
<polygon fill="#63b8ff" stroke="#63b8ff" points="598.17,-151.82 589.65,-145.52 592.38,-155.76 598.17,-151.82"/>
</a>
</g>
</g>
<!-- Node9 -->
<g id="Node000009" class="node">
<title>Node9</title>
<g id="a_Node000009"><a xlink:href="model__base__concepts_8hpp.html" target="_top" xlink:title=" ">
<polygon fill="white" stroke="#666666" points="1028.62,-82 896.38,-82 896.38,-62 1028.62,-62 1028.62,-82"/>
<text xml:space="preserve" text-anchor="middle" x="962.5" y="-68.5" font-family="Helvetica,sans-Serif" font-size="10.00">model_base_concepts.hpp</text>
</a>
</g>
</g>
<!-- Node8&#45;&gt;Node9 -->
<g id="edge8_Node000008_Node000009" class="edge">
<title>Node8&#45;&gt;Node9</title>
<g id="a_edge8_Node000008_Node000009"><a xlink:title=" ">
<path fill="none" stroke="#63b8ff" d="M986.12,-123.62C982.24,-115.3 976.44,-102.86 971.55,-92.4"/>
<polygon fill="#63b8ff" stroke="#63b8ff" points="974.79,-91.07 967.39,-83.48 968.45,-94.03 974.79,-91.07"/>
</a>
</g>
</g>
<!-- Node10 -->
<g id="Node000010" class="node">
<title>Node10</title>
<g id="a_Node000010"><a xlink:title=" ">
<polygon fill="#e0e0e0" stroke="#999999" points="915.88,-20 821.12,-20 821.12,0 915.88,0 915.88,-20"/>
<text xml:space="preserve" text-anchor="middle" x="868.5" y="-6.5" font-family="Helvetica,sans-Serif" font-size="10.00">boost/pfr/core.hpp</text>
</a>
</g>
</g>
<!-- Node9&#45;&gt;Node10 -->
<g id="edge9_Node000009_Node000010" class="edge">
<title>Node9&#45;&gt;Node10</title>
<g id="a_edge9_Node000009_Node000010"><a xlink:title=" ">
<path fill="none" stroke="#63b8ff" d="M947.81,-61.62C933.05,-52.2 910.05,-37.52 892.61,-26.39"/>
<polygon fill="#63b8ff" stroke="#63b8ff" points="894.67,-23.55 884.36,-21.12 890.91,-29.45 894.67,-23.55"/>
</a>
</g>
</g>
<!-- Node11 -->
<g id="Node000011" class="node">
<title>Node11</title>
<g id="a_Node000011"><a xlink:title=" ">
<polygon fill="#e0e0e0" stroke="#999999" points="1085.12,-20 1045.88,-20 1045.88,0 1085.12,0 1085.12,-20"/>
<text xml:space="preserve" text-anchor="middle" x="1065.5" y="-6.5" font-family="Helvetica,sans-Serif" font-size="10.00">utility</text>
</a>
</g>
</g>
<!-- Node9&#45;&gt;Node11 -->
<g id="edge10_Node000009_Node000011" class="edge">
<title>Node9&#45;&gt;Node11</title>
<g id="a_edge10_Node000009_Node000011"><a xlink:title=" ">
<path fill="none" stroke="#63b8ff" d="M978.59,-61.62C994.92,-52.11 1020.45,-37.24 1039.62,-26.08"/>
<polygon fill="#63b8ff" stroke="#63b8ff" points="1041.33,-29.13 1048.21,-21.07 1037.81,-23.08 1041.33,-29.13"/>
</a>
</g>
</g>
<!-- Node12&#45;&gt;Node13 -->
<g id="edge12_Node000012_Node000013" class="edge">
<title>Node12&#45;&gt;Node13</title>
<g id="a_edge12_Node000012_Node000013"><a xlink:title=" ">
<path fill="none" stroke="#63b8ff" d="M1080.36,-252.2C1020.89,-244.25 898.71,-227.65 795.5,-212 783.86,-210.24 771.41,-208.26 759.54,-206.34"/>
<polygon fill="#63b8ff" stroke="#63b8ff" points="760.32,-202.92 749.88,-204.77 759.19,-209.83 760.32,-202.92"/>
</a>
</g>
</g>
<!-- Node19 -->
<g id="Node000019" class="node">
<title>Node19</title>
<g id="a_Node000019"><a xlink:title=" ">
<polygon fill="#e0e0e0" stroke="#999999" points="1141.88,-88 1047.12,-88 1047.12,-56 1141.88,-56 1141.88,-88"/>
<text xml:space="preserve" text-anchor="start" x="1055.12" y="-74.5" font-family="Helvetica,sans-Serif" font-size="10.00">boost/serialization</text>
<text xml:space="preserve" text-anchor="middle" x="1094.5" y="-62.5" font-family="Helvetica,sans-Serif" font-size="10.00">/access.hpp</text>
</a>
</g>
</g>
<!-- Node12&#45;&gt;Node19 -->
<g id="edge33_Node000012_Node000019" class="edge">
<title>Node12&#45;&gt;Node19</title>
<g id="a_edge33_Node000012_Node000019"><a xlink:title=" ">
<path fill="none" stroke="#63b8ff" d="M1152.71,-256.05C1253.62,-253.02 1532.39,-242.01 1559.5,-212 1676.08,-82.98 1302.51,-71.65 1153.29,-72.1"/>
<polygon fill="#63b8ff" stroke="#63b8ff" points="1153.59,-68.6 1143.61,-72.15 1153.63,-75.6 1153.59,-68.6"/>
</a>
</g>
</g>
<!-- Node27 -->
<g id="Node000027" class="node">
<title>Node27</title>
<g id="a_Node000027"><a xlink:title=" ">
<polygon fill="#e0e0e0" stroke="#999999" points="1156.88,-144 1056.12,-144 1056.12,-124 1156.88,-124 1156.88,-144"/>
<text xml:space="preserve" text-anchor="middle" x="1106.5" y="-130.5" font-family="Helvetica,sans-Serif" font-size="10.00">boost/uuid/uuid.hpp</text>
</a>
</g>
</g>
<!-- Node12&#45;&gt;Node27 -->
<g id="edge35_Node000012_Node000027" class="edge">
<title>Node12&#45;&gt;Node27</title>
<g id="a_edge35_Node000012_Node000027"><a xlink:title=" ">
<path fill="none" stroke="#63b8ff" d="M1115.75,-247.83C1114.15,-228.31 1110.37,-182.25 1108.17,-155.4"/>
<polygon fill="#63b8ff" stroke="#63b8ff" points="1111.69,-155.47 1107.38,-145.78 1104.71,-156.04 1111.69,-155.47"/>
</a>
</g>
</g>
<!-- Node28 -->
<g id="Node000028" class="node">
<title>Node28</title>
<g id="a_Node000028"><a xlink:title=" ">
<polygon fill="#e0e0e0" stroke="#999999" points="1432.38,-206 1304.62,-206 1304.62,-186 1432.38,-186 1432.38,-206"/>
<text xml:space="preserve" text-anchor="middle" x="1368.5" y="-192.5" font-family="Helvetica,sans-Serif" font-size="10.00">boost/functional/hash.hpp</text>
</a>
</g>
</g>
<!-- Node12&#45;&gt;Node28 -->
<g id="edge32_Node000012_Node000028" class="edge">
<title>Node12&#45;&gt;Node28</title>
<g id="a_edge32_Node000012_Node000028"><a xlink:title=" ">
<path fill="none" stroke="#63b8ff" d="M1152.61,-248.4C1195.91,-238.09 1268.78,-220.74 1317.74,-209.09"/>
<polygon fill="#63b8ff" stroke="#63b8ff" points="1318.33,-212.54 1327.25,-206.82 1316.71,-205.73 1318.33,-212.54"/>
</a>
</g>
</g>
<!-- Node29 -->
<g id="Node000029" class="node">
<title>Node29</title>
<g id="a_Node000029"><a xlink:title=" ">
<polygon fill="#e0e0e0" stroke="#999999" points="1550.12,-212 1450.88,-212 1450.88,-180 1550.12,-180 1550.12,-212"/>
<text xml:space="preserve" text-anchor="start" x="1458.88" y="-198.5" font-family="Helvetica,sans-Serif" font-size="10.00">boost/serialization</text>
<text xml:space="preserve" text-anchor="middle" x="1500.5" y="-186.5" font-family="Helvetica,sans-Serif" font-size="10.00">/array_wrapper.hpp</text>
</a>
</g>
</g>
<!-- Node12&#45;&gt;Node29 -->
<g id="edge34_Node000012_Node000029" class="edge">
<title>Node12&#45;&gt;Node29</title>
<g id="a_edge34_Node000012_Node000029"><a xlink:title=" ">
<path fill="none" stroke="#63b8ff" d="M1152.3,-253.36C1210.47,-247.17 1329.26,-233.33 1439.69,-212.21"/>
<polygon fill="#63b8ff" stroke="#63b8ff" points="1440.06,-215.71 1449.21,-210.37 1438.73,-208.83 1440.06,-215.71"/>
</a>
</g>
</g>
<!-- Node30 -->
<g id="Node000030" class="node">
<title>Node30</title>
<g id="a_Node000030"><a xlink:title=" ">
<polygon fill="#e0e0e0" stroke="#999999" points="956.38,-206 804.62,-206 804.62,-186 956.38,-186 956.38,-206"/>
<text xml:space="preserve" text-anchor="middle" x="880.5" y="-192.5" font-family="Helvetica,sans-Serif" font-size="10.00">boost/uuid/uuid_generators.hpp</text>
</a>
</g>
</g>
<!-- Node12&#45;&gt;Node30 -->
<g id="edge36_Node000012_Node000030" class="edge">
<title>Node12&#45;&gt;Node30</title>
<g id="a_edge36_Node000012_Node000030"><a xlink:title=" ">
<path fill="none" stroke="#63b8ff" d="M1080.4,-247.82C1039.81,-237.5 973.71,-220.7 928.72,-209.26"/>
<polygon fill="#63b8ff" stroke="#63b8ff" points="929.79,-205.92 919.23,-206.85 928.06,-212.7 929.79,-205.92"/>
</a>
</g>
</g>
<!-- Node31 -->
<g id="Node000031" class="node">
<title>Node31</title>
<g id="a_Node000031"><a xlink:title=" ">
<polygon fill="#e0e0e0" stroke="#999999" points="1088.25,-206 974.75,-206 974.75,-186 1088.25,-186 1088.25,-206"/>
<text xml:space="preserve" text-anchor="middle" x="1031.5" y="-192.5" font-family="Helvetica,sans-Serif" font-size="10.00">boost/uuid/uuid_io.hpp</text>
</a>
</g>
</g>
<!-- Node12&#45;&gt;Node31 -->
<g id="edge37_Node000012_Node000031" class="edge">
<title>Node12&#45;&gt;Node31</title>
<g id="a_edge37_Node000012_Node000031"><a xlink:title=" ">
<path fill="none" stroke="#63b8ff" d="M1103.22,-247.62C1089.99,-238.29 1069.46,-223.79 1053.74,-212.7"/>
<polygon fill="#63b8ff" stroke="#63b8ff" points="1056.11,-210.09 1045.92,-207.18 1052.08,-215.81 1056.11,-210.09"/>
</a>
</g>
</g>
<!-- Node32 -->
<g id="Node000032" class="node">
<title>Node32</title>
<g id="a_Node000032"><a xlink:title=" ">
<polygon fill="#e0e0e0" stroke="#999999" points="1286.5,-206 1144.5,-206 1144.5,-186 1286.5,-186 1286.5,-206"/>
<text xml:space="preserve" text-anchor="middle" x="1215.5" y="-192.5" font-family="Helvetica,sans-Serif" font-size="10.00">boost/uuid/uuid_serialize.hpp</text>
</a>
</g>
</g>
<!-- Node12&#45;&gt;Node32 -->
<g id="edge38_Node000012_Node000032" class="edge">
<title>Node12&#45;&gt;Node32</title>
<g id="a_edge38_Node000012_Node000032"><a xlink:title=" ">
<path fill="none" stroke="#63b8ff" d="M1131.97,-247.62C1147.59,-238.16 1171.97,-223.38 1190.37,-212.23"/>
<polygon fill="#63b8ff" stroke="#63b8ff" points="1192.11,-215.27 1198.85,-207.09 1188.48,-209.28 1192.11,-215.27"/>
</a>
</g>
</g>
<!-- Node13&#45;&gt;Node8 -->
<g id="edge27_Node000013_Node000008" class="edge">
<title>Node13&#45;&gt;Node8</title>
<g id="a_edge27_Node000013_Node000008"><a xlink:title=" ">
<path fill="none" stroke="#63b8ff" d="M739.31,-185.57C746.94,-183.65 754.97,-181.7 762.5,-180 824,-166.12 895.37,-152.42 941.64,-143.85"/>
<polygon fill="#63b8ff" stroke="#63b8ff" points="942.16,-147.32 951.36,-142.06 940.89,-140.43 942.16,-147.32"/>
</a>
</g>
</g>
<!-- Node13&#45;&gt;Node10 -->
<g id="edge28_Node000013_Node000010" class="edge">
<title>Node13&#45;&gt;Node10</title>
<g id="a_edge28_Node000013_Node000010"><a xlink:title=" ">
<path fill="none" stroke="#63b8ff" d="M724.54,-185.52C756.64,-169.93 817.5,-135.78 849.5,-88 860.86,-71.04 865.43,-47.91 867.27,-31.44"/>
<polygon fill="#63b8ff" stroke="#63b8ff" points="870.73,-32.12 868.08,-21.86 863.75,-31.53 870.73,-32.12"/>
</a>
</g>
</g>
<!-- Node13&#45;&gt;Node11 -->
<g id="edge31_Node000013_Node000011" class="edge">
<title>Node13&#45;&gt;Node11</title>
<g id="a_edge31_Node000013_Node000011"><a xlink:title=" ">
<path fill="none" stroke="#63b8ff" d="M731.79,-185.53C776.53,-170.8 866.56,-142.23 944.5,-124 989.75,-113.42 1120.6,-123.58 1150.5,-88 1159.65,-77.11 1157.84,-68.18 1150.5,-56 1138.76,-36.51 1115.44,-25.02 1096.19,-18.53"/>
<polygon fill="#63b8ff" stroke="#63b8ff" points="1097.48,-15.27 1086.89,-15.71 1095.44,-21.96 1097.48,-15.27"/>
</a>
</g>
</g>
<!-- Node13&#45;&gt;Node14 -->
<g id="edge13_Node000013_Node000014" class="edge">
<title>Node13&#45;&gt;Node14</title>
<g id="a_edge13_Node000013_Node000014"><a xlink:title=" ">
<path fill="none" stroke="#63b8ff" d="M684.59,-185.62C664.97,-175.89 634.03,-160.55 611.35,-149.31"/>
<polygon fill="#63b8ff" stroke="#63b8ff" points="613.14,-146.29 602.63,-144.98 610.03,-152.56 613.14,-146.29"/>
</a>
</g>
</g>
<!-- Node26 -->
<g id="Node000026" class="node">
<title>Node26</title>
<g id="a_Node000026"><a xlink:title=" ">
<polygon fill="#e0e0e0" stroke="#999999" points="749.38,-144 657.62,-144 657.62,-124 749.38,-124 749.38,-144"/>
<text xml:space="preserve" text-anchor="middle" x="703.5" y="-130.5" font-family="Helvetica,sans-Serif" font-size="10.00">boost/pfr/ops.hpp</text>
</a>
</g>
</g>
<!-- Node13&#45;&gt;Node26 -->
<g id="edge29_Node000013_Node000026" class="edge">
<title>Node13&#45;&gt;Node26</title>
<g id="a_edge29_Node000013_Node000026"><a xlink:title=" ">
<path fill="none" stroke="#63b8ff" d="M703.5,-185.62C703.5,-177.56 703.5,-165.65 703.5,-155.41"/>
<polygon fill="#63b8ff" stroke="#63b8ff" points="707,-155.63 703.5,-145.63 700,-155.63 707,-155.63"/>
</a>
</g>
</g>
<!-- Node13&#45;&gt;Node27 -->
<g id="edge30_Node000013_Node000027" class="edge">
<title>Node13&#45;&gt;Node27</title>
<g id="a_edge30_Node000013_Node000027"><a xlink:title=" ">
<path fill="none" stroke="#63b8ff" d="M748.4,-187.51C763.37,-185.06 780.14,-182.36 795.5,-180 881.79,-166.72 981.74,-152.46 1044.54,-143.63"/>
<polygon fill="#63b8ff" stroke="#63b8ff" points="1044.91,-147.11 1054.32,-142.26 1043.93,-140.18 1044.91,-147.11"/>
</a>
</g>
</g>
<!-- Node14&#45;&gt;Node9 -->
<g id="edge14_Node000014_Node000009" class="edge">
<title>Node14&#45;&gt;Node9</title>
<g id="a_edge14_Node000014_Node000009"><a xlink:title=" ">
<path fill="none" stroke="#63b8ff" d="M625.35,-126.23C689.92,-116.04 812.9,-96.62 891.14,-84.27"/>
<polygon fill="#63b8ff" stroke="#63b8ff" points="891.52,-87.75 900.85,-82.73 890.42,-80.84 891.52,-87.75"/>
</a>
</g>
</g>
<!-- Node14&#45;&gt;Node10 -->
<g id="edge19_Node000014_Node000010" class="edge">
<title>Node14&#45;&gt;Node10</title>
<g id="a_edge19_Node000014_Node000010"><a xlink:title=" ">
<path fill="none" stroke="#63b8ff" d="M539.7,-129.49C442.13,-121.3 210.72,-100.62 199.5,-88 190.05,-77.37 189.79,-66.39 199.5,-56 240.7,-11.93 653.9,-9.73 809.58,-10.48"/>
<polygon fill="#63b8ff" stroke="#63b8ff" points="809.24,-13.98 819.26,-10.54 809.28,-6.98 809.24,-13.98"/>
</a>
</g>
</g>
<!-- Node15 -->
<g id="Node000015" class="node">
<title>Node15</title>
<g id="a_Node000015"><a xlink:href="str__conv_8hpp.html" target="_top" xlink:title=" ">
<polygon fill="white" stroke="#666666" points="152.38,-82 54.62,-82 54.62,-62 152.38,-62 152.38,-82"/>
<text xml:space="preserve" text-anchor="middle" x="103.5" y="-68.5" font-family="Helvetica,sans-Serif" font-size="10.00">utility/str_conv.hpp</text>
</a>
</g>
</g>
<!-- Node14&#45;&gt;Node15 -->
<g id="edge15_Node000014_Node000015" class="edge">
<title>Node14&#45;&gt;Node15</title>
<g id="a_edge15_Node000014_Node000015"><a xlink:title=" ">
<path fill="none" stroke="#63b8ff" d="M539.72,-129.06C448.53,-120.56 237.55,-100.25 166.5,-88 161.3,-87.1 155.9,-86.03 150.53,-84.88"/>
<polygon fill="#63b8ff" stroke="#63b8ff" points="151.65,-81.55 141.13,-82.76 150.12,-88.37 151.65,-81.55"/>
</a>
</g>
</g>
<!-- Node18 -->
<g id="Node000018" class="node">
<title>Node18</title>
<g id="a_Node000018"><a xlink:title=" ">
<polygon fill="#e0e0e0" stroke="#999999" points="728.12,-88 622.88,-88 622.88,-56 728.12,-56 728.12,-88"/>
<text xml:space="preserve" text-anchor="start" x="630.88" y="-74.5" font-family="Helvetica,sans-Serif" font-size="10.00">boost/archive/basic</text>
<text xml:space="preserve" text-anchor="middle" x="675.5" y="-62.5" font-family="Helvetica,sans-Serif" font-size="10.00">_binary_iarchive.hpp</text>
</a>
</g>
</g>
<!-- Node14&#45;&gt;Node18 -->
<g id="edge18_Node000014_Node000018" class="edge">
<title>Node14&#45;&gt;Node18</title>
<g id="a_edge18_Node000014_Node000018"><a xlink:title=" ">
<path fill="none" stroke="#63b8ff" d="M597.03,-123.62C609.13,-115.82 626.83,-104.4 642.35,-94.38"/>
<polygon fill="#63b8ff" stroke="#63b8ff" points="643.89,-97.56 650.4,-89.19 640.1,-91.67 643.89,-97.56"/>
</a>
</g>
</g>
<!-- Node14&#45;&gt;Node19 -->
<g id="edge20_Node000014_Node000019" class="edge">
<title>Node14&#45;&gt;Node19</title>
<g id="a_edge20_Node000014_Node000019"><a xlink:title=" ">
<path fill="none" stroke="#63b8ff" d="M625.42,-126.87C633.1,-125.86 641.03,-124.85 648.5,-124 817.38,-104.68 864.55,-117.63 1035.56,-88.14"/>
<polygon fill="#63b8ff" stroke="#63b8ff" points="1036,-91.62 1045.24,-86.44 1034.79,-84.72 1036,-91.62"/>
</a>
</g>
</g>
<!-- Node20 -->
<g id="Node000020" class="node">
<title>Node20</title>
<g id="a_Node000020"><a xlink:title=" ">
<polygon fill="#e0e0e0" stroke="#999999" points="840.88,-88 746.12,-88 746.12,-56 840.88,-56 840.88,-88"/>
<text xml:space="preserve" text-anchor="start" x="754.12" y="-74.5" font-family="Helvetica,sans-Serif" font-size="10.00">boost/serialization</text>
<text xml:space="preserve" text-anchor="middle" x="793.5" y="-62.5" font-family="Helvetica,sans-Serif" font-size="10.00">/optional.hpp</text>
</a>
</g>
</g>
<!-- Node14&#45;&gt;Node20 -->
<g id="edge21_Node000014_Node000020" class="edge">
<title>Node14&#45;&gt;Node20</title>
<g id="a_edge21_Node000014_Node000020"><a xlink:title=" ">
<path fill="none" stroke="#63b8ff" d="M615.47,-123.62C647.46,-114.53 696.71,-100.52 735.3,-89.55"/>
<polygon fill="#63b8ff" stroke="#63b8ff" points="735.77,-93.06 744.43,-86.95 733.85,-86.32 735.77,-93.06"/>
</a>
</g>
</g>
<!-- Node21 -->
<g id="Node000021" class="node">
<title>Node21</title>
<g id="a_Node000021"><a xlink:title=" ">
<polygon fill="#e0e0e0" stroke="#999999" points="312.75,-88 208.25,-88 208.25,-56 312.75,-56 312.75,-88"/>
<text xml:space="preserve" text-anchor="start" x="216.25" y="-74.5" font-family="Helvetica,sans-Serif" font-size="10.00">boost/serialization</text>
<text xml:space="preserve" text-anchor="middle" x="260.5" y="-62.5" font-family="Helvetica,sans-Serif" font-size="10.00">/unordered_map.hpp</text>
</a>
</g>
</g>
<!-- Node14&#45;&gt;Node21 -->
<g id="edge22_Node000014_Node000021" class="edge">
<title>Node14&#45;&gt;Node21</title>
<g id="a_edge22_Node000014_Node000021"><a xlink:title=" ">
<path fill="none" stroke="#63b8ff" d="M539.83,-126.59C490.28,-118.93 405.85,-105.25 324.25,-88.49"/>
<polygon fill="#63b8ff" stroke="#63b8ff" points="325,-85.08 314.5,-86.47 323.58,-91.93 325,-85.08"/>
</a>
</g>
</g>
<!-- Node22 -->
<g id="Node000022" class="node">
<title>Node22</title>
<g id="a_Node000022"><a xlink:title=" ">
<polygon fill="#e0e0e0" stroke="#999999" points="430.12,-88 330.88,-88 330.88,-56 430.12,-56 430.12,-88"/>
<text xml:space="preserve" text-anchor="start" x="338.88" y="-74.5" font-family="Helvetica,sans-Serif" font-size="10.00">boost/serialization</text>
<text xml:space="preserve" text-anchor="middle" x="380.5" y="-62.5" font-family="Helvetica,sans-Serif" font-size="10.00">/unordered_set.hpp</text>
</a>
</g>
</g>
<!-- Node14&#45;&gt;Node22 -->
<g id="edge23_Node000014_Node000022" class="edge">
<title>Node14&#45;&gt;Node22</title>
<g id="a_edge23_Node000014_Node000022"><a xlink:title=" ">
<path fill="none" stroke="#63b8ff" d="M550.94,-123.62C521.67,-114.93 477.34,-101.76 441.22,-91.04"/>
<polygon fill="#63b8ff" stroke="#63b8ff" points="442.34,-87.72 431.75,-88.22 440.34,-94.43 442.34,-87.72"/>
</a>
</g>
</g>
<!-- Node23 -->
<g id="Node000023" class="node">
<title>Node23</title>
<g id="a_Node000023"><a xlink:title=" ">
<polygon fill="#e0e0e0" stroke="#999999" points="542.88,-88 448.12,-88 448.12,-56 542.88,-56 542.88,-88"/>
<text xml:space="preserve" text-anchor="start" x="456.12" y="-74.5" font-family="Helvetica,sans-Serif" font-size="10.00">boost/serialization</text>
<text xml:space="preserve" text-anchor="middle" x="495.5" y="-62.5" font-family="Helvetica,sans-Serif" font-size="10.00">/vector.hpp</text>
</a>
</g>
</g>
<!-- Node14&#45;&gt;Node23 -->
<g id="edge24_Node000014_Node000023" class="edge">
<title>Node14&#45;&gt;Node23</title>
<g id="a_edge24_Node000014_Node000023"><a xlink:title=" ">
<path fill="none" stroke="#63b8ff" d="M568.91,-123.62C557.69,-115.89 541.34,-104.62 526.92,-94.67"/>
<polygon fill="#63b8ff" stroke="#63b8ff" points="529.26,-92.03 519.04,-89.23 525.28,-97.79 529.26,-92.03"/>
</a>
</g>
</g>
<!-- Node24 -->
<g id="Node000024" class="node">
<title>Node24</title>
<g id="a_Node000024"><a xlink:title=" ">
<polygon fill="#e0e0e0" stroke="#999999" points="604.38,-82 560.62,-82 560.62,-62 604.38,-62 604.38,-82"/>
<text xml:space="preserve" text-anchor="middle" x="582.5" y="-68.5" font-family="Helvetica,sans-Serif" font-size="10.00">format</text>
</a>
</g>
</g>
<!-- Node14&#45;&gt;Node24 -->
<g id="edge25_Node000014_Node000024" class="edge">
<title>Node14&#45;&gt;Node24</title>
<g id="a_edge25_Node000014_Node000024"><a xlink:title=" ">
<path fill="none" stroke="#63b8ff" d="M582.5,-123.62C582.5,-115.56 582.5,-103.65 582.5,-93.41"/>
<polygon fill="#63b8ff" stroke="#63b8ff" points="586,-93.63 582.5,-83.63 579,-93.63 586,-93.63"/>
</a>
</g>
</g>
<!-- Node25 -->
<g id="Node000025" class="node">
<title>Node25</title>
<g id="a_Node000025"><a xlink:title=" ">
<polygon fill="#e0e0e0" stroke="#999999" points="37,-82 0,-82 0,-62 37,-62 37,-82"/>
<text xml:space="preserve" text-anchor="middle" x="18.5" y="-68.5" font-family="Helvetica,sans-Serif" font-size="10.00">tuple</text>
</a>
</g>
</g>
<!-- Node14&#45;&gt;Node25 -->
<g id="edge26_Node000014_Node000025" class="edge">
<title>Node14&#45;&gt;Node25</title>
<g id="a_edge26_Node000014_Node000025"><a xlink:title=" ">
<path fill="none" stroke="#63b8ff" d="M539.65,-129.65C414.45,-119.83 57.3,-91.59 45.5,-88 44.69,-87.75 43.88,-87.48 43.07,-87.19"/>
<polygon fill="#63b8ff" stroke="#63b8ff" points="44.77,-84.12 34.22,-83.08 41.82,-90.46 44.77,-84.12"/>
</a>
</g>
</g>
<!-- Node16 -->
<g id="Node000016" class="node">
<title>Node16</title>
<g id="a_Node000016"><a xlink:title=" ">
<polygon fill="#e0e0e0" stroke="#999999" points="158.5,-20 118.5,-20 118.5,0 158.5,0 158.5,-20"/>
<text xml:space="preserve" text-anchor="middle" x="138.5" y="-6.5" font-family="Helvetica,sans-Serif" font-size="10.00">string</text>
</a>
</g>
</g>
<!-- Node15&#45;&gt;Node16 -->
<g id="edge16_Node000015_Node000016" class="edge">
<title>Node15&#45;&gt;Node16</title>
<g id="a_edge16_Node000015_Node000016"><a xlink:title=" ">
<path fill="none" stroke="#63b8ff" d="M108.97,-61.62C113.93,-53.12 121.39,-40.33 127.57,-29.74"/>
<polygon fill="#63b8ff" stroke="#63b8ff" points="130.41,-31.82 132.42,-21.42 124.36,-28.29 130.41,-31.82"/>
</a>
</g>
</g>
<!-- Node17 -->
<g id="Node000017" class="node">
<title>Node17</title>
<g id="a_Node000017"><a xlink:title=" ">
<polygon fill="#e0e0e0" stroke="#999999" points="100.25,-20 34.75,-20 34.75,0 100.25,0 100.25,-20"/>
<text xml:space="preserve" text-anchor="middle" x="67.5" y="-6.5" font-family="Helvetica,sans-Serif" font-size="10.00">string_view</text>
</a>
</g>
</g>
<!-- Node15&#45;&gt;Node17 -->
<g id="edge17_Node000015_Node000017" class="edge">
<title>Node15&#45;&gt;Node17</title>
<g id="a_edge17_Node000015_Node000017"><a xlink:title=" ">
<path fill="none" stroke="#63b8ff" d="M97.88,-61.62C92.77,-53.12 85.1,-40.33 78.74,-29.74"/>
<polygon fill="#63b8ff" stroke="#63b8ff" points="81.89,-28.18 73.75,-21.41 75.89,-31.79 81.89,-28.18"/>
</a>
</g>
</g>
<!-- Node35&#45;&gt;Node6 -->
<g id="edge45_Node000035_Node000006" class="edge">
<title>Node35&#45;&gt;Node6</title>
<g id="a_edge45_Node000035_Node000006"><a xlink:title=" ">
<path fill="none" stroke="#63b8ff" d="M495.38,-427.62C524.32,-417.53 570.59,-401.39 603.08,-390.05"/>
<polygon fill="#63b8ff" stroke="#63b8ff" points="603.81,-393.5 612.1,-386.91 601.51,-386.9 603.81,-393.5"/>
</a>
</g>
</g>
<!-- Node35&#45;&gt;Node25 -->
<g id="edge49_Node000035_Node000025" class="edge">
<title>Node35&#45;&gt;Node25</title>
<g id="a_edge49_Node000035_Node000025"><a xlink:title=" ">
<path fill="none" stroke="#63b8ff" d="M466.02,-427.59C460.87,-407.21 449.5,-357.44 449.5,-315 449.5,-315 449.5,-315 449.5,-195 449.5,-9.25 217.79,-157.41 45.5,-88 45.02,-87.8 44.53,-87.6 44.04,-87.39"/>
<polygon fill="#63b8ff" stroke="#63b8ff" points="45.76,-84.34 35.24,-83.07 42.67,-90.62 45.76,-84.34"/>
</a>
</g>
</g>
<!-- Node35&#45;&gt;Node33 -->
<g id="edge48_Node000035_Node000033" class="edge">
<title>Node35&#45;&gt;Node33</title>
<g id="a_edge48_Node000035_Node000033"><a xlink:title=" ">
<path fill="none" stroke="#63b8ff" d="M477.14,-427.83C496.21,-407.61 542.14,-358.88 566.94,-332.57"/>
<polygon fill="#63b8ff" stroke="#63b8ff" points="569.41,-335.06 573.72,-325.38 564.31,-330.25 569.41,-335.06"/>
</a>
</g>
</g>
<!-- Node35&#45;&gt;Node36 -->
<g id="edge46_Node000035_Node000036" class="edge">
<title>Node35&#45;&gt;Node36</title>
<g id="a_edge46_Node000035_Node000036"><a xlink:title=" ">
<path fill="none" stroke="#63b8ff" d="M527.51,-427.63C580.31,-419.05 659.75,-405.64 728.5,-392 730.11,-391.68 731.74,-391.35 733.38,-391.02"/>
<polygon fill="#63b8ff" stroke="#63b8ff" points="733.79,-394.51 742.86,-389.03 732.36,-387.66 733.79,-394.51"/>
</a>
</g>
</g>
<!-- Node37 -->
<g id="Node000037" class="node">
<title>Node37</title>
<g id="a_Node000037"><a xlink:title=" ">
<polygon fill="#e0e0e0" stroke="#999999" points="818.12,-324 772.88,-324 772.88,-304 818.12,-304 818.12,-324"/>
<text xml:space="preserve" text-anchor="middle" x="795.5" y="-310.5" font-family="Helvetica,sans-Serif" font-size="10.00">atomic</text>
</a>
</g>
</g>
<!-- Node36&#45;&gt;Node37 -->
<g id="edge47_Node000036_Node000037" class="edge">
<title>Node36&#45;&gt;Node37</title>
<g id="a_edge47_Node000036_Node000037"><a xlink:title=" ">
<path fill="none" stroke="#63b8ff" d="M795.5,-359.55C795.5,-352.34 795.5,-343.66 795.5,-335.88"/>
<polygon fill="#63b8ff" stroke="#63b8ff" points="799,-335.92 795.5,-325.92 792,-335.92 799,-335.92"/>
</a>
</g>
</g>
<!-- Node39&#45;&gt;Node3 -->
<g id="edge54_Node000039_Node000003" class="edge">
<title>Node39&#45;&gt;Node3</title>
<g id="a_edge54_Node000039_Node000003"><a xlink:title=" ">
<path fill="none" stroke="#63b8ff" d="M857.2,-657.59C844.92,-647.88 825.85,-631.95 811.5,-616 798.51,-601.57 785.93,-583.4 777.22,-569.95"/>
<polygon fill="#63b8ff" stroke="#63b8ff" points="780.24,-568.19 771.93,-561.61 774.33,-571.93 780.24,-568.19"/>
</a>
</g>
</g>
<!-- Node39&#45;&gt;Node40 -->
<g id="edge55_Node000039_Node000040" class="edge">
<title>Node39&#45;&gt;Node40</title>
<g id="a_edge55_Node000039_Node000040"><a xlink:title=" ">
<path fill="none" stroke="#63b8ff" d="M870.28,-657.62C870.95,-649.56 871.95,-637.65 872.8,-627.41"/>
<polygon fill="#63b8ff" stroke="#63b8ff" points="876.27,-627.88 873.61,-617.62 869.3,-627.3 876.27,-627.88"/>
</a>
</g>
</g>
<!-- Node40&#45;&gt;Node38 -->
<g id="edge56_Node000040_Node000038" class="edge">
<title>Node40&#45;&gt;Node38</title>
<g id="a_edge56_Node000040_Node000038"><a xlink:title=" ">
<path fill="none" stroke="#63b8ff" d="M873.56,-595.62C871.8,-578.01 867.96,-539.59 865.57,-515.65"/>
<polygon fill="#63b8ff" stroke="#63b8ff" points="869.06,-515.46 864.59,-505.86 862.1,-516.16 869.06,-515.46"/>
</a>
</g>
</g>
<!-- Node41&#45;&gt;Node3 -->
<g id="edge58_Node000041_Node000003" class="edge">
<title>Node41&#45;&gt;Node3</title>
<g id="a_edge58_Node000041_Node000003"><a xlink:title=" ">
<path fill="none" stroke="#63b8ff" d="M730.61,-657.51C736.76,-638.72 750.61,-596.44 758.89,-571.16"/>
<polygon fill="#63b8ff" stroke="#63b8ff" points="762.2,-572.33 761.98,-561.74 755.54,-570.15 762.2,-572.33"/>
</a>
</g>
</g>
<!-- Node42&#45;&gt;Node34 -->
<g id="edge65_Node000042_Node000034" class="edge">
<title>Node42&#45;&gt;Node34</title>
<g id="a_edge65_Node000042_Node000034"><a xlink:title=" ">
<path fill="none" stroke="#63b8ff" d="M1095.63,-651.62C1094.46,-629.41 1092.5,-587.07 1092.5,-551 1092.5,-551 1092.5,-551 1092.5,-493 1092.5,-447.66 1048.06,-411.43 1018.14,-392.18"/>
<polygon fill="#63b8ff" stroke="#63b8ff" points="1020.27,-389.38 1009.92,-387.1 1016.59,-395.33 1020.27,-389.38"/>
</a>
</g>
</g>
<!-- Node42&#45;&gt;Node43 -->
<g id="edge63_Node000042_Node000043" class="edge">
<title>Node42&#45;&gt;Node43</title>
<g id="a_edge63_Node000042_Node000043"><a xlink:title=" ">
<path fill="none" stroke="#63b8ff" d="M1074.35,-651.55C1061.79,-642.78 1046.08,-631.83 1033.4,-622.97"/>
<polygon fill="#63b8ff" stroke="#63b8ff" points="1035.43,-620.13 1025.23,-617.27 1031.42,-625.87 1035.43,-620.13"/>
</a>
</g>
</g>
<!-- Node43&#45;&gt;Node3 -->
<g id="edge64_Node000043_Node000003" class="edge">
<title>Node43&#45;&gt;Node3</title>
<g id="a_edge64_Node000043_Node000003"><a xlink:title=" ">
<path fill="none" stroke="#63b8ff" d="M967.54,-595.53C926.01,-586.38 862.98,-572.49 818.38,-562.66"/>
<polygon fill="#63b8ff" stroke="#63b8ff" points="819.18,-559.25 808.66,-560.51 817.67,-566.08 819.18,-559.25"/>
</a>
</g>
</g>
</g>
</svg>
