<?xml version="1.0" encoding="UTF-8" standalone="no"?>
<!DOCTYPE svg PUBLIC "-//W3C//DTD SVG 1.1//EN"
 "http://www.w3.org/Graphics/SVG/1.1/DTD/svg11.dtd">
<!-- Generated by graphviz version 14.1.2 (20260124.0452)
 -->
<!-- Title: depicture_menu/src/core/domain/model/trigger/virtual_key_code.hpp Pages: 1 -->
<svg width="402pt" height="200pt"
 viewBox="0.00 0.00 402.00 200.00" xmlns="http://www.w3.org/2000/svg" xmlns:xlink="http://www.w3.org/1999/xlink">
<g id="graph0" class="graph" transform="scale(1 1) rotate(0) translate(4 196)">
<title>depicture_menu/src/core/domain/model/trigger/virtual_key_code.hpp</title>
<!-- Node1 -->
<g id="Node000001" class="node">
<title>Node1</title>
<g id="a_Node000001"><a xlink:title=" ">
<polygon fill="#999999" stroke="#666666" points="254.25,-192 122.75,-192 122.75,-148 254.25,-148 254.25,-192"/>
<text xml:space="preserve" text-anchor="start" x="130.75" y="-178.5" font-family="Helvetica,sans-Serif" font-size="10.00">depicture_menu/src</text>
<text xml:space="preserve" text-anchor="start" x="130.75" y="-166.5" font-family="Helvetica,sans-Serif" font-size="10.00">/core/domain/model/trigger</text>
<text xml:space="preserve" text-anchor="middle" x="188.5" y="-154.5" font-family="Helvetica,sans-Serif" font-size="10.00">/virtual_key_code.hpp</text>
</a>
</g>
</g>
<!-- Node2 -->
<g id="Node000002" class="node">
<title>Node2</title>
<g id="a_Node000002"><a xlink:href="action_2send__keyinput_2virtual__key__code_8hpp.html" target="_top" xlink:title=" ">
<polygon fill="white" stroke="#666666" points="252.38,-112 124.62,-112 124.62,-68 252.38,-68 252.38,-112"/>
<text xml:space="preserve" text-anchor="start" x="132.62" y="-98.5" font-family="Helvetica,sans-Serif" font-size="10.00">core/domain/model/action</text>
<text xml:space="preserve" text-anchor="start" x="132.62" y="-86.5" font-family="Helvetica,sans-Serif" font-size="10.00">/send_keyinput/virtual</text>
<text xml:space="preserve" text-anchor="middle" x="188.5" y="-74.5" font-family="Helvetica,sans-Serif" font-size="10.00">_key_code.hpp</text>
</a>
</g>
</g>
<!-- Node1&#45;&gt;Node2 -->
<g id="edge1_Node000001_Node000002" class="edge">
<title>Node1&#45;&gt;Node2</title>
<g id="a_edge1_Node000001_Node000002"><a xlink:title=" ">
<path fill="none" stroke="#63b8ff" d="M188.5,-147.69C188.5,-140.29 188.5,-131.82 188.5,-123.72"/>
<polygon fill="#63b8ff" stroke="#63b8ff" points="192,-123.8 188.5,-113.8 185,-123.8 192,-123.8"/>
</a>
</g>
</g>
<!-- Node3 -->
<g id="Node000003" class="node">
<title>Node3</title>
<g id="a_Node000003"><a xlink:title=" ">
<polygon fill="#e0e0e0" stroke="#999999" points="43,-26 0,-26 0,-6 43,-6 43,-26"/>
<text xml:space="preserve" text-anchor="middle" x="21.5" y="-12.5" font-family="Helvetica,sans-Serif" font-size="10.00">vector</text>
</a>
</g>
</g>
<!-- Node2&#45;&gt;Node3 -->
<g id="edge2_Node000002_Node000003" class="edge">
<title>Node2&#45;&gt;Node3</title>
<g id="a_edge2_Node000002_Node000003"><a xlink:title=" ">
<path fill="none" stroke="#63b8ff" d="M134.45,-67.52C109.09,-57.19 78.56,-44.38 51.5,-32 51.02,-31.78 50.54,-31.56 50.06,-31.34"/>
<polygon fill="#63b8ff" stroke="#63b8ff" points="51.7,-28.24 41.17,-27.06 48.67,-34.55 51.7,-28.24"/>
</a>
</g>
</g>
<!-- Node4 -->
<g id="Node000004" class="node">
<title>Node4</title>
<g id="a_Node000004"><a xlink:title=" ">
<polygon fill="#e0e0e0" stroke="#999999" points="186.25,-26 60.75,-26 60.75,-6 186.25,-6 186.25,-26"/>
<text xml:space="preserve" text-anchor="middle" x="123.5" y="-12.5" font-family="Helvetica,sans-Serif" font-size="10.00">boost/describe/enum.hpp</text>
</a>
</g>
</g>
<!-- Node2&#45;&gt;Node4 -->
<g id="edge3_Node000002_Node000004" class="edge">
<title>Node2&#45;&gt;Node4</title>
<g id="a_edge3_Node000002_Node000004"><a xlink:title=" ">
<path fill="none" stroke="#63b8ff" d="M169.35,-67.79C159.83,-57.24 148.46,-44.65 139.43,-34.64"/>
<polygon fill="#63b8ff" stroke="#63b8ff" points="142.22,-32.51 132.92,-27.43 137.02,-37.2 142.22,-32.51"/>
</a>
</g>
</g>
<!-- Node5 -->
<g id="Node000005" class="node">
<title>Node5</title>
<g id="a_Node000005"><a xlink:title=" ">
<polygon fill="#e0e0e0" stroke="#999999" points="303.12,-32 203.88,-32 203.88,0 303.12,0 303.12,-32"/>
<text xml:space="preserve" text-anchor="start" x="211.88" y="-18.5" font-family="Helvetica,sans-Serif" font-size="10.00">boost/preprocessor</text>
<text xml:space="preserve" text-anchor="middle" x="253.5" y="-6.5" font-family="Helvetica,sans-Serif" font-size="10.00">/wstringize.hpp</text>
</a>
</g>
</g>
<!-- Node2&#45;&gt;Node5 -->
<g id="edge4_Node000002_Node000005" class="edge">
<title>Node2&#45;&gt;Node5</title>
<g id="a_edge4_Node000002_Node000005"><a xlink:title=" ">
<path fill="none" stroke="#63b8ff" d="M207.65,-67.79C215.4,-59.2 224.38,-49.26 232.33,-40.45"/>
<polygon fill="#63b8ff" stroke="#63b8ff" points="234.73,-43.02 238.83,-33.25 229.53,-38.33 234.73,-43.02"/>
</a>
</g>
</g>
<!-- Node6 -->
<g id="Node000006" class="node">
<title>Node6</title>
<g id="a_Node000006"><a xlink:title=" ">
<polygon fill="#e0e0e0" stroke="#999999" points="394,-26 321,-26 321,-6 394,-6 394,-26"/>
<text xml:space="preserve" text-anchor="middle" x="357.5" y="-12.5" font-family="Helvetica,sans-Serif" font-size="10.00">boost/pfr.hpp</text>
</a>
</g>
</g>
<!-- Node2&#45;&gt;Node6 -->
<g id="edge5_Node000002_Node000006" class="edge">
<title>Node2&#45;&gt;Node6</title>
<g id="a_edge5_Node000002_Node000006"><a xlink:title=" ">
<path fill="none" stroke="#63b8ff" d="M238.75,-67.59C266.59,-55.73 300.41,-41.32 324.82,-30.92"/>
<polygon fill="#63b8ff" stroke="#63b8ff" points="326.1,-34.18 333.93,-27.04 323.36,-27.74 326.1,-34.18"/>
</a>
</g>
</g>
</g>
</svg>
