<?xml version="1.0" encoding="UTF-8" standalone="no"?>
<!DOCTYPE svg PUBLIC "-//W3C//DTD SVG 1.1//EN"
 "http://www.w3.org/Graphics/SVG/1.1/DTD/svg11.dtd">
<!-- Generated by graphviz version 14.1.2 (20260124.0452)
 -->
<!-- Title: DPM_ANSI_STRING_PROPERTY_ENTRY Pages: 1 -->
<svg width="352pt" height="58pt"
 viewBox="0.00 0.00 352.00 58.00" xmlns="http://www.w3.org/2000/svg" xmlns:xlink="http://www.w3.org/1999/xlink">
<g id="graph0" class="graph" transform="scale(1 1) rotate(0) translate(4 54)">
<title>DPM_ANSI_STRING_PROPERTY_ENTRY</title>
<!-- Node1 -->
<g id="Node000001" class="node">
<title>Node1</title>
<g id="a_Node000001"><a xlink:title=" ">
<polygon fill="#999999" stroke="#666666" points="344,-32 172.75,-32 172.75,0 344,0 344,-32"/>
<text xml:space="preserve" text-anchor="start" x="180.75" y="-18.5" font-family="Helvetica,sans-Serif" font-size="10.00">DPM_ANSI_STRING_PROPERTY</text>
<text xml:space="preserve" text-anchor="middle" x="258.38" y="-6.5" font-family="Helvetica,sans-Serif" font-size="10.00">_ENTRY</text>
</a>
</g>
</g>
<!-- Node1&#45;&gt;Node1 -->
<g id="edge1_Node000001_Node000001" class="edge">
<title>Node1&#45;&gt;Node1</title>
<g id="a_edge1_Node000001_Node000001"><a xlink:title=" ">
<path fill="none" stroke="#63b8ff" d="M290.04,-43.71C284.76,-47.48 274.2,-50 258.38,-50 229.43,-50 218.12,-41.58 224.45,-32.44"/>
<polygon fill="#63b8ff" stroke="#63b8ff" points="293.46,-44.42 292,-33.93 286.6,-43.04 293.46,-44.42"/>
</a>
</g>
</g>
<!-- Node2 -->
<g id="Node000002" class="node">
<title>Node2</title>
<g id="a_Node000002"><a xlink:href="types_2_app_options_arg_8hpp.html#af7ee3130319ce0d780e897df6255ed10" target="_top" xlink:title=" ">
<polygon fill="white" stroke="#666666" points="136.75,-32 0,-32 0,0 136.75,0 136.75,-32"/>
<text xml:space="preserve" text-anchor="start" x="8" y="-18.5" font-family="Helvetica,sans-Serif" font-size="10.00">DPM_NOTIFY_CHANGED</text>
<text xml:space="preserve" text-anchor="middle" x="68.38" y="-6.5" font-family="Helvetica,sans-Serif" font-size="10.00">_BINDING_CLASS</text>
</a>
</g>
</g>
<!-- Node1&#45;&gt;Node2 -->
<g id="edge2_Node000001_Node000002" class="edge">
<title>Node1&#45;&gt;Node2</title>
<g id="a_edge2_Node000001_Node000002"><a xlink:title=" ">
<path fill="none" stroke="#63b8ff" d="M161.01,-16C152.91,-16 144.83,-16 137.02,-16"/>
<polygon fill="#63b8ff" stroke="#63b8ff" points="160.94,-19.5 170.94,-16 160.94,-12.5 160.94,-19.5"/>
</a>
</g>
</g>
</g>
</svg>
