<?xml version="1.0" encoding="UTF-8" standalone="no"?>
<!DOCTYPE svg PUBLIC "-//W3C//DTD SVG 1.1//EN"
 "http://www.w3.org/Graphics/SVG/1.1/DTD/svg11.dtd">
<!-- Generated by graphviz version 14.1.2 (20260124.0452)
 -->
<!-- Title: depicture_menu/src/core/usecase/config_view/update_menu_config.hpp Pages: 1 -->
<svg width="641pt" height="224pt"
 viewBox="0.00 0.00 641.00 224.00" xmlns="http://www.w3.org/2000/svg" xmlns:xlink="http://www.w3.org/1999/xlink">
<g id="graph0" class="graph" transform="scale(1 1) rotate(0) translate(4 220)">
<title>depicture_menu/src/core/usecase/config_view/update_menu_config.hpp</title>
<!-- Node1 -->
<g id="Node000001" class="node">
<title>Node1</title>
<g id="a_Node000001"><a xlink:title=" ">
<polygon fill="#999999" stroke="#666666" points="412.88,-216 259.62,-216 259.62,-172 412.88,-172 412.88,-216"/>
<text xml:space="preserve" text-anchor="start" x="267.62" y="-202.5" font-family="Helvetica,sans-Serif" font-size="10.00">depicture_menu/src</text>
<text xml:space="preserve" text-anchor="start" x="267.62" y="-190.5" font-family="Helvetica,sans-Serif" font-size="10.00">/core/usecase/config</text>
<text xml:space="preserve" text-anchor="middle" x="336.25" y="-178.5" font-family="Helvetica,sans-Serif" font-size="10.00">_view/update_menu_config.hpp</text>
</a>
</g>
</g>
<!-- Node2 -->
<g id="Node000002" class="node">
<title>Node2</title>
<g id="a_Node000002"><a xlink:href="config__view__arg__builder_8cpp.html" target="_top" xlink:title="ConfigArg ファクトリー">
<polygon fill="white" stroke="#666666" points="116.5,-56 0,-56 0,0 116.5,0 116.5,-56"/>
<text xml:space="preserve" text-anchor="start" x="8" y="-42.5" font-family="Helvetica,sans-Serif" font-size="10.00">depicture_menu/src</text>
<text xml:space="preserve" text-anchor="start" x="8" y="-30.5" font-family="Helvetica,sans-Serif" font-size="10.00">/core/application/cs</text>
<text xml:space="preserve" text-anchor="start" x="8" y="-18.5" font-family="Helvetica,sans-Serif" font-size="10.00">_binding_factory/config</text>
<text xml:space="preserve" text-anchor="middle" x="58.25" y="-6.5" font-family="Helvetica,sans-Serif" font-size="10.00">_view_arg_builder.cpp</text>
</a>
</g>
</g>
<!-- Node1&#45;&gt;Node2 -->
<g id="edge1_Node000001_Node000002" class="edge">
<title>Node1&#45;&gt;Node2</title>
<g id="a_edge1_Node000001_Node000002"><a xlink:title=" ">
<path fill="none" stroke="#63b8ff" d="M278.19,-166.6C259.13,-157.43 238.03,-146.75 219.25,-136 175.85,-111.15 128.43,-78.98 96.37,-56.43"/>
<polygon fill="#63b8ff" stroke="#63b8ff" points="276.64,-169.74 287.17,-170.87 279.65,-163.41 276.64,-169.74"/>
</a>
</g>
</g>
<!-- Node3 -->
<g id="Node000003" class="node">
<title>Node3</title>
<g id="a_Node000003"><a xlink:href="config__view__dispatch_8cpp.html" target="_top" xlink:title=" ">
<polygon fill="white" stroke="#666666" points="308,-50 134.5,-50 134.5,-6 308,-6 308,-50"/>
<text xml:space="preserve" text-anchor="start" x="142.5" y="-36.5" font-family="Helvetica,sans-Serif" font-size="10.00">depicture_menu/src</text>
<text xml:space="preserve" text-anchor="start" x="142.5" y="-24.5" font-family="Helvetica,sans-Serif" font-size="10.00">/core/application/usecase</text>
<text xml:space="preserve" text-anchor="middle" x="221.25" y="-12.5" font-family="Helvetica,sans-Serif" font-size="10.00">_dispatch/config_view_dispatch.cpp</text>
</a>
</g>
</g>
<!-- Node1&#45;&gt;Node3 -->
<g id="edge2_Node000001_Node000003" class="edge">
<title>Node1&#45;&gt;Node3</title>
<g id="a_edge2_Node000001_Node000003"><a xlink:title=" ">
<path fill="none" stroke="#63b8ff" d="M272.7,-165.83C260.28,-157.88 248.56,-148 240.25,-136 222.53,-110.4 219.76,-73.35 220.03,-50.25"/>
<polygon fill="#63b8ff" stroke="#63b8ff" points="270.6,-168.66 280.98,-170.77 274.19,-162.65 270.6,-168.66"/>
</a>
</g>
</g>
<!-- Node4 -->
<g id="Node000004" class="node">
<title>Node4</title>
<g id="a_Node000004"><a xlink:href="menu__config__controler_8cpp.html" target="_top" xlink:title=" ">
<polygon fill="white" stroke="#666666" points="630.38,-50 456.12,-50 456.12,-6 630.38,-6 630.38,-50"/>
<text xml:space="preserve" text-anchor="start" x="464.12" y="-36.5" font-family="Helvetica,sans-Serif" font-size="10.00">depicture_menu/src</text>
<text xml:space="preserve" text-anchor="start" x="464.12" y="-24.5" font-family="Helvetica,sans-Serif" font-size="10.00">/core/control/config</text>
<text xml:space="preserve" text-anchor="middle" x="543.25" y="-12.5" font-family="Helvetica,sans-Serif" font-size="10.00">_window/menu_config_controler.cpp</text>
</a>
</g>
</g>
<!-- Node1&#45;&gt;Node4 -->
<g id="edge3_Node000001_Node000004" class="edge">
<title>Node1&#45;&gt;Node4</title>
<g id="a_edge3_Node000001_Node000004"><a xlink:title=" ">
<path fill="none" stroke="#63b8ff" d="M388.42,-166.14C403.25,-157.43 418.96,-147.13 432.25,-136 452.06,-119.41 451.98,-110.27 470.25,-92 484.93,-77.32 502.52,-62.08 516.75,-50.27"/>
<polygon fill="#63b8ff" stroke="#63b8ff" points="387.09,-162.86 380.15,-170.87 390.57,-168.94 387.09,-162.86"/>
</a>
</g>
</g>
<!-- Node5 -->
<g id="Node000005" class="node">
<title>Node5</title>
<g id="a_Node000005"><a xlink:href="menu__config__controler_8hpp.html" target="_top" xlink:title=" ">
<polygon fill="white" stroke="#666666" points="423.38,-136 249.12,-136 249.12,-92 423.38,-92 423.38,-136"/>
<text xml:space="preserve" text-anchor="start" x="257.12" y="-122.5" font-family="Helvetica,sans-Serif" font-size="10.00">depicture_menu/src</text>
<text xml:space="preserve" text-anchor="start" x="257.12" y="-110.5" font-family="Helvetica,sans-Serif" font-size="10.00">/core/control/config</text>
<text xml:space="preserve" text-anchor="middle" x="336.25" y="-98.5" font-family="Helvetica,sans-Serif" font-size="10.00">_window/menu_config_controler.hpp</text>
</a>
</g>
</g>
<!-- Node1&#45;&gt;Node5 -->
<g id="edge4_Node000001_Node000005" class="edge">
<title>Node1&#45;&gt;Node5</title>
<g id="a_edge4_Node000001_Node000005"><a xlink:title=" ">
<path fill="none" stroke="#63b8ff" d="M336.25,-160.25C336.25,-152.15 336.25,-143.68 336.25,-136.29"/>
<polygon fill="#63b8ff" stroke="#63b8ff" points="332.75,-160.17 336.25,-170.17 339.75,-160.17 332.75,-160.17"/>
</a>
</g>
</g>
<!-- Node7 -->
<g id="Node000007" class="node">
<title>Node7</title>
<g id="a_Node000007"><a xlink:href="update__menu__config_8cpp.html" target="_top" xlink:title=" ">
<polygon fill="white" stroke="#666666" points="632.88,-136 479.62,-136 479.62,-92 632.88,-92 632.88,-136"/>
<text xml:space="preserve" text-anchor="start" x="487.62" y="-122.5" font-family="Helvetica,sans-Serif" font-size="10.00">depicture_menu/src</text>
<text xml:space="preserve" text-anchor="start" x="487.62" y="-110.5" font-family="Helvetica,sans-Serif" font-size="10.00">/core/usecase/config</text>
<text xml:space="preserve" text-anchor="middle" x="556.25" y="-98.5" font-family="Helvetica,sans-Serif" font-size="10.00">_view/update_menu_config.cpp</text>
</a>
</g>
</g>
<!-- Node1&#45;&gt;Node7 -->
<g id="edge9_Node000001_Node000007" class="edge">
<title>Node1&#45;&gt;Node7</title>
<g id="a_edge9_Node000001_Node000007"><a xlink:title=" ">
<path fill="none" stroke="#63b8ff" d="M407.4,-167.78C435.98,-157.64 468.59,-146.08 495.98,-136.37"/>
<polygon fill="#63b8ff" stroke="#63b8ff" points="406.34,-164.44 398.08,-171.08 408.68,-171.03 406.34,-164.44"/>
</a>
</g>
</g>
<!-- Node5&#45;&gt;Node2 -->
<g id="edge5_Node000005_Node000002" class="edge">
<title>Node5&#45;&gt;Node2</title>
<g id="a_edge5_Node000005_Node000002"><a xlink:title=" ">
<path fill="none" stroke="#63b8ff" d="M237.88,-89.03C202.13,-79.63 161.6,-68.19 125.25,-56 122.52,-55.08 119.73,-54.11 116.93,-53.11"/>
<polygon fill="#63b8ff" stroke="#63b8ff" points="236.78,-92.36 247.34,-91.49 238.55,-85.58 236.78,-92.36"/>
</a>
</g>
</g>
<!-- Node5&#45;&gt;Node3 -->
<g id="edge6_Node000005_Node000003" class="edge">
<title>Node5&#45;&gt;Node3</title>
<g id="a_edge6_Node000005_Node000003"><a xlink:title=" ">
<path fill="none" stroke="#63b8ff" d="M297.66,-84.81C282.26,-73.57 264.83,-60.84 250.51,-50.37"/>
<polygon fill="#63b8ff" stroke="#63b8ff" points="295.57,-87.62 305.71,-90.69 299.7,-81.97 295.57,-87.62"/>
</a>
</g>
</g>
<!-- Node5&#45;&gt;Node4 -->
<g id="edge7_Node000005_Node000004" class="edge">
<title>Node5&#45;&gt;Node4</title>
<g id="a_edge7_Node000005_Node000004"><a xlink:title=" ">
<path fill="none" stroke="#63b8ff" d="M399.51,-87.33C428.66,-75.5 462.85,-61.62 490.58,-50.37"/>
<polygon fill="#63b8ff" stroke="#63b8ff" points="398.37,-84.01 390.42,-91.02 401.01,-90.5 398.37,-84.01"/>
</a>
</g>
</g>
<!-- Node6 -->
<g id="Node000006" class="node">
<title>Node6</title>
<g id="a_Node000006"><a xlink:href="setup__core_8cpp.html" target="_top" xlink:title=" ">
<polygon fill="white" stroke="#666666" points="438.25,-56 326.25,-56 326.25,0 438.25,0 438.25,-56"/>
<text xml:space="preserve" text-anchor="start" x="334.25" y="-42.5" font-family="Helvetica,sans-Serif" font-size="10.00">depicture_menu/src</text>
<text xml:space="preserve" text-anchor="start" x="334.25" y="-30.5" font-family="Helvetica,sans-Serif" font-size="10.00">/core/dll_entry_point</text>
<text xml:space="preserve" text-anchor="start" x="334.25" y="-18.5" font-family="Helvetica,sans-Serif" font-size="10.00">/domain_control/setup</text>
<text xml:space="preserve" text-anchor="middle" x="382.25" y="-6.5" font-family="Helvetica,sans-Serif" font-size="10.00">_core.cpp</text>
</a>
</g>
</g>
<!-- Node5&#45;&gt;Node6 -->
<g id="edge8_Node000005_Node000006" class="edge">
<title>Node5&#45;&gt;Node6</title>
<g id="a_edge8_Node000005_Node000006"><a xlink:title=" ">
<path fill="none" stroke="#63b8ff" d="M353.26,-81.93C357.88,-73.5 362.84,-64.44 367.33,-56.24"/>
<polygon fill="#63b8ff" stroke="#63b8ff" points="350.32,-80.02 348.58,-90.48 356.46,-83.39 350.32,-80.02"/>
</a>
</g>
</g>
</g>
</svg>
