<?xml version="1.0" encoding="UTF-8" standalone="no"?>
<!DOCTYPE svg PUBLIC "-//W3C//DTD SVG 1.1//EN"
 "http://www.w3.org/Graphics/SVG/1.1/DTD/svg11.dtd">
<!-- Generated by graphviz version 14.1.2 (20260124.0452)
 -->
<!-- Title: depicture_menu/src/core/usecase/config_view/update_menu_config.hpp Pages: 1 -->
<svg width="495pt" height="224pt"
 viewBox="0.00 0.00 495.00 224.00" xmlns="http://www.w3.org/2000/svg" xmlns:xlink="http://www.w3.org/1999/xlink">

<svg id="main" version="1.1" xmlns="http://www.w3.org/2000/svg" xmlns:xlink="http://www.w3.org/1999/xlink" xml:space="preserve">

<style type="text/css"><![CDATA[
.node, .edge {opacity: 0.7;}
.node.selected, .edge.selected {opacity: 1;}
.edge:hover path { stroke: red; }
.edge:hover polygon { stroke: red; fill: red; }
]]></style>
<script type="application/ecmascript" xlink:href="svg.min.js"/>
<svg id="graph" class="graph">
<g id="graph0" class="graph" transform="scale(1 1) rotate(0) translate(4 220)">
<title>depicture_menu/src/core/usecase/config_view/update_menu_config.hpp</title>
<!-- Node1 -->
<g id="Node000001" class="node">
<title>Node1</title>
<g id="a_Node000001"><a xlink:title=" ">
<polygon fill="#999999" stroke="#666666" points="323.88,-216 170.62,-216 170.62,-172 323.88,-172 323.88,-216"/>
<text xml:space="preserve" text-anchor="start" x="178.62" y="-202.5" font-family="Helvetica,sans-Serif" font-size="10.00">depicture_menu/src</text>
<text xml:space="preserve" text-anchor="start" x="178.62" y="-190.5" font-family="Helvetica,sans-Serif" font-size="10.00">/core/usecase/config</text>
<text xml:space="preserve" text-anchor="middle" x="247.25" y="-178.5" font-family="Helvetica,sans-Serif" font-size="10.00">_view/update_menu_config.hpp</text>
</a>
</g>
</g>
<!-- Node2 -->
<g id="Node000002" class="node">
<title>Node2</title>
<g id="a_Node000002"><a xlink:href="config__view__arg__builder_8cpp.html" target="_top" xlink:title="ConfigArg ファクトリー">
<polygon fill="white" stroke="#666666" points="116.5,-56 0,-56 0,0 116.5,0 116.5,-56"/>
<text xml:space="preserve" text-anchor="start" x="8" y="-42.5" font-family="Helvetica,sans-Serif" font-size="10.00">depicture_menu/src</text>
<text xml:space="preserve" text-anchor="start" x="8" y="-30.5" font-family="Helvetica,sans-Serif" font-size="10.00">/core/application/cs</text>
<text xml:space="preserve" text-anchor="start" x="8" y="-18.5" font-family="Helvetica,sans-Serif" font-size="10.00">_binding_factory/config</text>
<text xml:space="preserve" text-anchor="middle" x="58.25" y="-6.5" font-family="Helvetica,sans-Serif" font-size="10.00">_view_arg_builder.cpp</text>
</a>
</g>
</g>
<!-- Node1&#45;&gt;Node2 -->
<g id="edge1_Node000001_Node000002" class="edge">
<title>Node1&#45;&gt;Node2</title>
<g id="a_edge1_Node000001_Node000002"><a xlink:title=" ">
<path fill="none" stroke="#63b8ff" d="M159.53,-175.11C135.81,-166.62 111.86,-154.19 94.25,-136 73.25,-114.32 64.49,-80 60.84,-56.1"/>
<polygon fill="#63b8ff" stroke="#63b8ff" points="158.36,-178.4 168.95,-178.25 160.58,-171.76 158.36,-178.4"/>
</a>
</g>
</g>
<!-- Node3 -->
<g id="Node000003" class="node">
<title>Node3</title>
<g id="a_Node000003"><a xlink:href="menu__config__controler_8cpp.html" target="_top" xlink:title=" ">
<polygon fill="white" stroke="#666666" points="438.38,-50 264.12,-50 264.12,-6 438.38,-6 438.38,-50"/>
<text xml:space="preserve" text-anchor="start" x="272.12" y="-36.5" font-family="Helvetica,sans-Serif" font-size="10.00">depicture_menu/src</text>
<text xml:space="preserve" text-anchor="start" x="272.12" y="-24.5" font-family="Helvetica,sans-Serif" font-size="10.00">/core/control/config</text>
<text xml:space="preserve" text-anchor="middle" x="351.25" y="-12.5" font-family="Helvetica,sans-Serif" font-size="10.00">_window/menu_config_controler.cpp</text>
</a>
</g>
</g>
<!-- Node1&#45;&gt;Node3 -->
<g id="edge2_Node000001_Node000003" class="edge">
<title>Node1&#45;&gt;Node3</title>
<g id="a_edge2_Node000001_Node000003"><a xlink:title=" ">
<path fill="none" stroke="#63b8ff" d="M268.85,-162.09C274.6,-153.68 280.74,-144.55 286.25,-136 305.22,-106.59 326.04,-71.85 338.88,-50.12"/>
<polygon fill="#63b8ff" stroke="#63b8ff" points="265.99,-160.06 263.2,-170.28 271.76,-164.03 265.99,-160.06"/>
</a>
</g>
</g>
<!-- Node4 -->
<g id="Node000004" class="node">
<title>Node4</title>
<g id="a_Node000004"><a xlink:href="menu__config__controler_8hpp.html" target="_top" xlink:title=" ">
<polygon fill="white" stroke="#666666" points="277.38,-136 103.12,-136 103.12,-92 277.38,-92 277.38,-136"/>
<text xml:space="preserve" text-anchor="start" x="111.12" y="-122.5" font-family="Helvetica,sans-Serif" font-size="10.00">depicture_menu/src</text>
<text xml:space="preserve" text-anchor="start" x="111.12" y="-110.5" font-family="Helvetica,sans-Serif" font-size="10.00">/core/control/config</text>
<text xml:space="preserve" text-anchor="middle" x="190.25" y="-98.5" font-family="Helvetica,sans-Serif" font-size="10.00">_window/menu_config_controler.hpp</text>
</a>
</g>
</g>
<!-- Node1&#45;&gt;Node4 -->
<g id="edge3_Node000001_Node000004" class="edge">
<title>Node1&#45;&gt;Node4</title>
<g id="a_edge3_Node000001_Node000004"><a xlink:title=" ">
<path fill="none" stroke="#63b8ff" d="M224.96,-162.5C218.56,-153.74 211.71,-144.37 205.81,-136.29"/>
<polygon fill="#63b8ff" stroke="#63b8ff" points="222.06,-164.46 230.78,-170.46 227.71,-160.33 222.06,-164.46"/>
</a>
</g>
</g>
<!-- Node6 -->
<g id="Node000006" class="node">
<title>Node6</title>
<g id="a_Node000006"><a xlink:href="update__menu__config_8cpp.html" target="_top" xlink:title=" ">
<polygon fill="white" stroke="#666666" points="486.88,-136 333.62,-136 333.62,-92 486.88,-92 486.88,-136"/>
<text xml:space="preserve" text-anchor="start" x="341.62" y="-122.5" font-family="Helvetica,sans-Serif" font-size="10.00">depicture_menu/src</text>
<text xml:space="preserve" text-anchor="start" x="341.62" y="-110.5" font-family="Helvetica,sans-Serif" font-size="10.00">/core/usecase/config</text>
<text xml:space="preserve" text-anchor="middle" x="410.25" y="-98.5" font-family="Helvetica,sans-Serif" font-size="10.00">_view/update_menu_config.cpp</text>
</a>
</g>
</g>
<!-- Node1&#45;&gt;Node6 -->
<g id="edge7_Node000001_Node000006" class="edge">
<title>Node1&#45;&gt;Node6</title>
<g id="a_edge7_Node000001_Node000006"><a xlink:title=" ">
<path fill="none" stroke="#63b8ff" d="M302,-166.8C322.64,-156.92 345.86,-145.81 365.48,-136.42"/>
<polygon fill="#63b8ff" stroke="#63b8ff" points="300.67,-163.56 293.16,-171.03 303.69,-169.87 300.67,-163.56"/>
</a>
</g>
</g>
<!-- Node4&#45;&gt;Node2 -->
<g id="edge4_Node000004_Node000002" class="edge">
<title>Node4&#45;&gt;Node2</title>
<g id="a_edge4_Node000004_Node000002"><a xlink:title=" ">
<path fill="none" stroke="#63b8ff" d="M147.22,-85.62C132.5,-76.25 116.05,-65.78 101.33,-56.42"/>
<polygon fill="#63b8ff" stroke="#63b8ff" points="145.01,-88.36 155.32,-90.77 148.76,-82.45 145.01,-88.36"/>
</a>
</g>
</g>
<!-- Node4&#45;&gt;Node3 -->
<g id="edge5_Node000004_Node000003" class="edge">
<title>Node4&#45;&gt;Node3</title>
<g id="a_edge5_Node000004_Node000003"><a xlink:title=" ">
<path fill="none" stroke="#63b8ff" d="M241.25,-86.39C263.52,-74.77 289.29,-61.33 310.28,-50.37"/>
<polygon fill="#63b8ff" stroke="#63b8ff" points="239.88,-83.16 232.64,-90.89 243.12,-89.36 239.88,-83.16"/>
</a>
</g>
</g>
<!-- Node5 -->
<g id="Node000005" class="node">
<title>Node5</title>
<g id="a_Node000005"><a xlink:href="setup__core_8cpp.html" target="_top" xlink:title=" ">
<polygon fill="white" stroke="#666666" points="246.25,-56 134.25,-56 134.25,0 246.25,0 246.25,-56"/>
<text xml:space="preserve" text-anchor="start" x="142.25" y="-42.5" font-family="Helvetica,sans-Serif" font-size="10.00">depicture_menu/src</text>
<text xml:space="preserve" text-anchor="start" x="142.25" y="-30.5" font-family="Helvetica,sans-Serif" font-size="10.00">/core/dll_entry_point</text>
<text xml:space="preserve" text-anchor="start" x="142.25" y="-18.5" font-family="Helvetica,sans-Serif" font-size="10.00">/domain_control/setup</text>
<text xml:space="preserve" text-anchor="middle" x="190.25" y="-6.5" font-family="Helvetica,sans-Serif" font-size="10.00">_core.cpp</text>
</a>
</g>
</g>
<!-- Node4&#45;&gt;Node5 -->
<g id="edge6_Node000004_Node000005" class="edge">
<title>Node4&#45;&gt;Node5</title>
<g id="a_edge6_Node000004_Node000005"><a xlink:title=" ">
<path fill="none" stroke="#63b8ff" d="M190.25,-80.54C190.25,-72.51 190.25,-63.99 190.25,-56.24"/>
<polygon fill="#63b8ff" stroke="#63b8ff" points="186.75,-80.29 190.25,-90.29 193.75,-80.29 186.75,-80.29"/>
</a>
</g>
</g>
</g>
</svg>
</svg>

<style type='text/css'>
<![CDATA[
[data-mouse-over-selected='false'] { opacity: 0.7; }
[data-mouse-over-selected='true']  { opacity: 1.0; }
]]>
</style>
<script type="application/ecmascript"><![CDATA[
document.addEventListener('DOMContentLoaded', (event) => {
  highlightEdges();
  highlightAdjacentNodes();
});
]]></script>
</svg>
