<?xml version="1.0" encoding="UTF-8" standalone="no"?>
<!DOCTYPE svg PUBLIC "-//W3C//DTD SVG 1.1//EN"
 "http://www.w3.org/Graphics/SVG/1.1/DTD/svg11.dtd">
<!-- Generated by graphviz version 14.1.2 (20260124.0452)
 -->
<!-- Title: depicture_menu/src/core/application/backup_json/format/v002.hpp Pages: 1 -->
<svg width="400pt" height="220pt"
 viewBox="0.00 0.00 400.00 220.00" xmlns="http://www.w3.org/2000/svg" xmlns:xlink="http://www.w3.org/1999/xlink">
<g id="graph0" class="graph" transform="scale(1 1) rotate(0) translate(4 216)">
<title>depicture_menu/src/core/application/backup_json/format/v002.hpp</title>
<!-- Node1 -->
<g id="Node000001" class="node">
<title>Node1</title>
<g id="a_Node000001"><a xlink:title=" ">
<polygon fill="#999999" stroke="#666666" points="305.5,-212 183.75,-212 183.75,-168 305.5,-168 305.5,-212"/>
<text xml:space="preserve" text-anchor="start" x="191.75" y="-198.5" font-family="Helvetica,sans-Serif" font-size="10.00">depicture_menu/src</text>
<text xml:space="preserve" text-anchor="start" x="191.75" y="-186.5" font-family="Helvetica,sans-Serif" font-size="10.00">/core/application/backup</text>
<text xml:space="preserve" text-anchor="middle" x="244.62" y="-174.5" font-family="Helvetica,sans-Serif" font-size="10.00">_json/format/v002.hpp</text>
</a>
</g>
</g>
<!-- Node2 -->
<g id="Node000002" class="node">
<title>Node2</title>
<g id="a_Node000002"><a xlink:href="format__version_8hpp.html" target="_top" xlink:title=" ">
<polygon fill="white" stroke="#666666" points="99.25,-76 0,-76 0,-56 99.25,-56 99.25,-76"/>
<text xml:space="preserve" text-anchor="middle" x="49.62" y="-62.5" font-family="Helvetica,sans-Serif" font-size="10.00">format_version.hpp</text>
</a>
</g>
</g>
<!-- Node1&#45;&gt;Node2 -->
<g id="edge1_Node000001_Node000002" class="edge">
<title>Node1&#45;&gt;Node2</title>
<g id="a_edge1_Node000001_Node000002"><a xlink:title=" ">
<path fill="none" stroke="#63b8ff" d="M210.66,-167.75C171.7,-143.37 108.76,-104 74.24,-82.4"/>
<polygon fill="#63b8ff" stroke="#63b8ff" points="76.11,-79.44 65.78,-77.1 72.4,-85.38 76.11,-79.44"/>
</a>
</g>
</g>
<!-- Node4 -->
<g id="Node000004" class="node">
<title>Node4</title>
<g id="a_Node000004"><a xlink:href="v001_8hpp.html" target="_top" xlink:title=" ">
<polygon fill="white" stroke="#666666" points="244.5,-132 188.75,-132 188.75,-112 244.5,-112 244.5,-132"/>
<text xml:space="preserve" text-anchor="middle" x="216.62" y="-118.5" font-family="Helvetica,sans-Serif" font-size="10.00">v001.hpp</text>
</a>
</g>
</g>
<!-- Node1&#45;&gt;Node4 -->
<g id="edge3_Node000001_Node000004" class="edge">
<title>Node1&#45;&gt;Node4</title>
<g id="a_edge3_Node000001_Node000004"><a xlink:title=" ">
<path fill="none" stroke="#63b8ff" d="M235.61,-167.75C232.22,-159.75 228.37,-150.69 225.04,-142.83"/>
<polygon fill="#63b8ff" stroke="#63b8ff" points="228.34,-141.65 221.21,-133.81 221.9,-144.39 228.34,-141.65"/>
</a>
</g>
</g>
<!-- Node5 -->
<g id="Node000005" class="node">
<title>Node5</title>
<g id="a_Node000005"><a xlink:title=" ">
<polygon fill="#e0e0e0" stroke="#999999" points="209.5,-76 117.75,-76 117.75,-56 209.5,-56 209.5,-76"/>
<text xml:space="preserve" text-anchor="middle" x="163.62" y="-62.5" font-family="Helvetica,sans-Serif" font-size="10.00">boost/pfr/ops.hpp</text>
</a>
</g>
</g>
<!-- Node1&#45;&gt;Node5 -->
<g id="edge9_Node000001_Node000005" class="edge">
<title>Node1&#45;&gt;Node5</title>
<g id="a_edge9_Node000001_Node000005"><a xlink:title=" ">
<path fill="none" stroke="#63b8ff" d="M213.01,-167.76C200.93,-158.16 188.04,-145.85 179.62,-132 171.39,-118.45 167.39,-100.89 165.45,-87.43"/>
<polygon fill="#63b8ff" stroke="#63b8ff" points="168.93,-87.1 164.32,-77.56 161.98,-87.9 168.93,-87.1"/>
</a>
</g>
</g>
<!-- Node6 -->
<g id="Node000006" class="node">
<title>Node6</title>
<g id="a_Node000006"><a xlink:title=" ">
<polygon fill="#e0e0e0" stroke="#999999" points="267.62,-76 227.62,-76 227.62,-56 267.62,-56 267.62,-76"/>
<text xml:space="preserve" text-anchor="middle" x="247.62" y="-62.5" font-family="Helvetica,sans-Serif" font-size="10.00">string</text>
</a>
</g>
</g>
<!-- Node1&#45;&gt;Node6 -->
<g id="edge10_Node000001_Node000006" class="edge">
<title>Node1&#45;&gt;Node6</title>
<g id="a_edge10_Node000001_Node000006"><a xlink:title=" ">
<path fill="none" stroke="#63b8ff" d="M249.2,-167.81C252.02,-152.37 254.88,-130.94 253.62,-112 253.09,-103.94 252.02,-95.13 250.93,-87.45"/>
<polygon fill="#63b8ff" stroke="#63b8ff" points="254.42,-87.13 249.46,-77.77 247.51,-88.18 254.42,-87.13"/>
</a>
</g>
</g>
<!-- Node7 -->
<g id="Node000007" class="node">
<title>Node7</title>
<g id="a_Node000007"><a xlink:title=" ">
<polygon fill="#e0e0e0" stroke="#999999" points="331.25,-76 286,-76 286,-56 331.25,-56 331.25,-76"/>
<text xml:space="preserve" text-anchor="middle" x="308.62" y="-62.5" font-family="Helvetica,sans-Serif" font-size="10.00">variant</text>
</a>
</g>
</g>
<!-- Node1&#45;&gt;Node7 -->
<g id="edge11_Node000001_Node000007" class="edge">
<title>Node1&#45;&gt;Node7</title>
<g id="a_edge11_Node000001_Node000007"><a xlink:title=" ">
<path fill="none" stroke="#63b8ff" d="M255.77,-167.75C267.79,-144.84 286.75,-108.69 298.4,-86.49"/>
<polygon fill="#63b8ff" stroke="#63b8ff" points="301.5,-88.12 303.04,-77.64 295.3,-84.87 301.5,-88.12"/>
</a>
</g>
</g>
<!-- Node8 -->
<g id="Node000008" class="node">
<title>Node8</title>
<g id="a_Node000008"><a xlink:title=" ">
<polygon fill="#e0e0e0" stroke="#999999" points="392.12,-76 349.12,-76 349.12,-56 392.12,-56 392.12,-76"/>
<text xml:space="preserve" text-anchor="middle" x="370.62" y="-62.5" font-family="Helvetica,sans-Serif" font-size="10.00">vector</text>
</a>
</g>
</g>
<!-- Node1&#45;&gt;Node8 -->
<g id="edge12_Node000001_Node000008" class="edge">
<title>Node1&#45;&gt;Node8</title>
<g id="a_edge12_Node000001_Node000008"><a xlink:title=" ">
<path fill="none" stroke="#63b8ff" d="M266.57,-167.75C291.1,-144 330.32,-106.02 352.96,-84.11"/>
<polygon fill="#63b8ff" stroke="#63b8ff" points="355.18,-86.82 359.93,-77.35 350.31,-81.8 355.18,-86.82"/>
</a>
</g>
</g>
<!-- Node3 -->
<g id="Node000003" class="node">
<title>Node3</title>
<g id="a_Node000003"><a xlink:title=" ">
<polygon fill="#e0e0e0" stroke="#999999" points="73.75,-20 25.5,-20 25.5,0 73.75,0 73.75,-20"/>
<text xml:space="preserve" text-anchor="middle" x="49.62" y="-6.5" font-family="Helvetica,sans-Serif" font-size="10.00">cassert</text>
</a>
</g>
</g>
<!-- Node2&#45;&gt;Node3 -->
<g id="edge2_Node000002_Node000003" class="edge">
<title>Node2&#45;&gt;Node3</title>
<g id="a_edge2_Node000002_Node000003"><a xlink:title=" ">
<path fill="none" stroke="#63b8ff" d="M49.62,-55.59C49.62,-49.01 49.62,-39.96 49.62,-31.73"/>
<polygon fill="#63b8ff" stroke="#63b8ff" points="53.13,-31.81 49.63,-21.81 46.13,-31.81 53.13,-31.81"/>
</a>
</g>
</g>
<!-- Node4&#45;&gt;Node2 -->
<g id="edge4_Node000004_Node000002" class="edge">
<title>Node4&#45;&gt;Node2</title>
<g id="a_edge4_Node000004_Node000002"><a xlink:title=" ">
<path fill="none" stroke="#63b8ff" d="M188.3,-111.84C161.19,-103.08 120.06,-89.77 89.62,-79.93"/>
<polygon fill="#63b8ff" stroke="#63b8ff" points="90.97,-76.69 80.38,-76.94 88.81,-83.35 90.97,-76.69"/>
</a>
</g>
</g>
<!-- Node4&#45;&gt;Node5 -->
<g id="edge5_Node000004_Node000005" class="edge">
<title>Node4&#45;&gt;Node5</title>
<g id="a_edge5_Node000004_Node000005"><a xlink:title=" ">
<path fill="none" stroke="#63b8ff" d="M207.39,-111.59C200.02,-104.08 189.49,-93.35 180.61,-84.3"/>
<polygon fill="#63b8ff" stroke="#63b8ff" points="183.31,-82.06 173.81,-77.38 178.32,-86.97 183.31,-82.06"/>
</a>
</g>
</g>
<!-- Node4&#45;&gt;Node6 -->
<g id="edge6_Node000004_Node000006" class="edge">
<title>Node4&#45;&gt;Node6</title>
<g id="a_edge6_Node000004_Node000006"><a xlink:title=" ">
<path fill="none" stroke="#63b8ff" d="M222.02,-111.59C226.07,-104.55 231.74,-94.67 236.72,-86"/>
<polygon fill="#63b8ff" stroke="#63b8ff" points="239.59,-88.03 241.53,-77.61 233.52,-84.54 239.59,-88.03"/>
</a>
</g>
</g>
<!-- Node4&#45;&gt;Node7 -->
<g id="edge7_Node000004_Node000007" class="edge">
<title>Node4&#45;&gt;Node7</title>
<g id="a_edge7_Node000004_Node000007"><a xlink:title=" ">
<path fill="none" stroke="#63b8ff" d="M232.65,-111.59C246.42,-103.51 266.53,-91.71 282.6,-82.27"/>
<polygon fill="#63b8ff" stroke="#63b8ff" points="284.32,-85.33 291.17,-77.25 280.77,-79.29 284.32,-85.33"/>
</a>
</g>
</g>
<!-- Node4&#45;&gt;Node8 -->
<g id="edge8_Node000004_Node000008" class="edge">
<title>Node4&#45;&gt;Node8</title>
<g id="a_edge8_Node000004_Node000008"><a xlink:title=" ">
<path fill="none" stroke="#63b8ff" d="M243.45,-111.59C269.92,-102.31 310.42,-88.11 338.57,-78.24"/>
<polygon fill="#63b8ff" stroke="#63b8ff" points="339.36,-81.67 347.64,-75.06 337.05,-75.07 339.36,-81.67"/>
</a>
</g>
</g>
</g>
</svg>
