<?xml version="1.0" encoding="UTF-8" standalone="no"?>
<!DOCTYPE svg PUBLIC "-//W3C//DTD SVG 1.1//EN"
 "http://www.w3.org/Graphics/SVG/1.1/DTD/svg11.dtd">
<!-- Generated by graphviz version 14.1.2 (20260124.0452)
 -->
<!-- Title: depicture_menu/src/core/domain/value_object.hpp Pages: 1 -->
<!--zoomable 316 -->

<svg id="main" version="1.1" xmlns="http://www.w3.org/2000/svg" xmlns:xlink="http://www.w3.org/1999/xlink" xml:space="preserve" onload="init(evt)">

<style type="text/css"><![CDATA[
.node, .edge {opacity: 0.7;}
.node.selected, .edge.selected {opacity: 1;}
.edge:hover path { stroke: red; }
.edge:hover polygon { stroke: red; fill: red; }
]]></style>

<defs>
  <circle id="rim" cx="0" cy="0" r="7"/>
  <circle id="rim2" cx="0" cy="0" r="3.5"/>
  <g id="zoomPlus">
    <use xlink:href="#rim" fill="#404040"><set attributeName="fill" to="#808080" begin="zoomplus.mouseover" end="zoomplus.mouseout"/></use>
    <path d="M-4,0h8M0,-4v8" fill="none" stroke="white" stroke-width="1.5" pointer-events="none"/>
  </g>
  <g id="zoomMin">
    <use xlink:href="#rim" fill="#404040"><set attributeName="fill" to="#808080" begin="zoomminus.mouseover" end="zoomminus.mouseout"/></use>
    <path d="M-4,0h8" fill="none" stroke="white" stroke-width="1.5" pointer-events="none"/>
  </g>
  <g id="arrowUp" transform="translate(30 24)">
    <use xlink:href="#rim"/>
    <path pointer-events="none" fill="none" stroke="white" stroke-width="1.5" d="M0,-3.0v7 M-2.5,-0.5L0,-3.0L2.5,-0.5"/>
  </g>
  <g id="arrowRight" transform="rotate(90) translate(36 -43)">
    <use xlink:href="#rim"/>
    <path pointer-events="none" fill="none" stroke="white" stroke-width="1.5" d="M0,-3.0v7 M-2.5,-0.5L0,-3.0L2.5,-0.5"/>
  </g>
  <g id="arrowDown" transform="rotate(180) translate(-30 -48)">
    <use xlink:href="#rim"/>
    <path pointer-events="none" fill="none" stroke="white" stroke-width="1.5" d="M0,-3.0v7 M-2.5,-0.5L0,-3.0L2.5,-0.5"/>
  </g>
  <g id="arrowLeft" transform="rotate(270) translate(-36 17)">
    <use xlink:href="#rim"/>
    <path pointer-events="none" fill="none" stroke="white" stroke-width="1.5" d="M0,-3.0v7 M-2.5,-0.5L0,-3.0L2.5,-0.5"/>
  </g>
  <g id="resetDef">
    <use xlink:href="#rim2" fill="#404040"><set attributeName="fill" to="#808080" begin="reset.mouseover" end="reset.mouseout"/></use>
  </g>
</defs>
<script type="application/ecmascript">
var viewWidth = 1010;
var viewHeight = 316;
var sectionId = 'dynsection-1';
</script>
<script type="application/ecmascript" xlink:href="svg.min.js"/>
<svg id="graph" class="graph">
<g id="viewport">
<title>depicture_menu/src/core/domain/value_object.hpp</title>
<!-- Node1 -->
<g id="Node000001" class="node">
<title>Node1</title>
<g id="a_Node000001"><a xlink:title=" ">
<polygon fill="#999999" stroke="#666666" points="470.38,-308 321.62,-308 321.62,-276 470.38,-276 470.38,-308"/>
<text xml:space="preserve" text-anchor="start" x="329.62" y="-294.5" font-family="Helvetica,sans-Serif" font-size="10.00">depicture_menu/src</text>
<text xml:space="preserve" text-anchor="middle" x="396" y="-282.5" font-family="Helvetica,sans-Serif" font-size="10.00">/core/domain/value_object.hpp</text>
</a>
</g>
</g>
<!-- Node2 -->
<g id="Node000002" class="node">
<title>Node2</title>
<g id="a_Node000002"><a xlink:href="shellexecute__action__parameter_8hpp.html" target="_top" xlink:title=" ">
<polygon fill="white" stroke="#666666" points="136,-240 0,-240 0,-184 136,-184 136,-240"/>
<text xml:space="preserve" text-anchor="start" x="8" y="-226.5" font-family="Helvetica,sans-Serif" font-size="10.00">depicture_menu/src</text>
<text xml:space="preserve" text-anchor="start" x="8" y="-214.5" font-family="Helvetica,sans-Serif" font-size="10.00">/core/domain/model/action</text>
<text xml:space="preserve" text-anchor="start" x="8" y="-202.5" font-family="Helvetica,sans-Serif" font-size="10.00">/buildin/shellexecute_action</text>
<text xml:space="preserve" text-anchor="middle" x="68" y="-190.5" font-family="Helvetica,sans-Serif" font-size="10.00">_parameter.hpp</text>
</a>
</g>
</g>
<!-- Node1&#45;&gt;Node2 -->
<g id="edge1_Node000001_Node000002" class="edge">
<title>Node1&#45;&gt;Node2</title>
<g id="a_edge1_Node000001_Node000002"><a xlink:title=" ">
<path fill="none" stroke="#63b8ff" d="M310.08,-276.55C261.29,-267.6 199.29,-254.96 145,-240 142.13,-239.21 139.22,-238.37 136.28,-237.49"/>
<polygon fill="#63b8ff" stroke="#63b8ff" points="309.28,-279.96 319.75,-278.31 310.53,-273.08 309.28,-279.96"/>
</a>
</g>
</g>
<!-- Node3 -->
<g id="Node000003" class="node">
<title>Node3</title>
<g id="a_Node000003"><a xlink:href="close__menu__command__parameter_8hpp.html" target="_top" xlink:title=" ">
<polygon fill="white" stroke="#666666" points="304.12,-240 153.88,-240 153.88,-184 304.12,-184 304.12,-240"/>
<text xml:space="preserve" text-anchor="start" x="161.88" y="-226.5" font-family="Helvetica,sans-Serif" font-size="10.00">depicture_menu/src</text>
<text xml:space="preserve" text-anchor="start" x="161.88" y="-214.5" font-family="Helvetica,sans-Serif" font-size="10.00">/core/domain/model/command</text>
<text xml:space="preserve" text-anchor="start" x="161.88" y="-202.5" font-family="Helvetica,sans-Serif" font-size="10.00">/buildin/close_menu_command</text>
<text xml:space="preserve" text-anchor="middle" x="229" y="-190.5" font-family="Helvetica,sans-Serif" font-size="10.00">_parameter.hpp</text>
</a>
</g>
</g>
<!-- Node1&#45;&gt;Node3 -->
<g id="edge2_Node000001_Node000003" class="edge">
<title>Node1&#45;&gt;Node3</title>
<g id="a_edge2_Node000001_Node000003"><a xlink:title=" ">
<path fill="none" stroke="#63b8ff" d="M352.73,-270.79C332.88,-261.52 309.05,-250.39 287.62,-240.38"/>
<polygon fill="#63b8ff" stroke="#63b8ff" points="351.09,-273.89 361.63,-274.95 354.06,-267.55 351.09,-273.89"/>
</a>
</g>
</g>
<!-- Node10 -->
<g id="Node000010" class="node">
<title>Node10</title>
<g id="a_Node000010"><a xlink:href="open__menu__command__parameter_8hpp.html" target="_top" xlink:title=" ">
<polygon fill="white" stroke="#666666" points="470,-240 322,-240 322,-184 470,-184 470,-240"/>
<text xml:space="preserve" text-anchor="start" x="330" y="-226.5" font-family="Helvetica,sans-Serif" font-size="10.00">depicture_menu/src</text>
<text xml:space="preserve" text-anchor="start" x="330" y="-214.5" font-family="Helvetica,sans-Serif" font-size="10.00">/core/domain/model/command</text>
<text xml:space="preserve" text-anchor="start" x="330" y="-202.5" font-family="Helvetica,sans-Serif" font-size="10.00">/buildin/open_menu_command</text>
<text xml:space="preserve" text-anchor="middle" x="396" y="-190.5" font-family="Helvetica,sans-Serif" font-size="10.00">_parameter.hpp</text>
</a>
</g>
</g>
<!-- Node1&#45;&gt;Node10 -->
<g id="edge10_Node000001_Node000010" class="edge">
<title>Node1&#45;&gt;Node10</title>
<g id="a_edge10_Node000001_Node000010"><a xlink:title=" ">
<path fill="none" stroke="#63b8ff" d="M396,-264.26C396,-256.55 396,-248.13 396,-240.38"/>
<polygon fill="#63b8ff" stroke="#63b8ff" points="392.5,-264.08 396,-274.08 399.5,-264.08 392.5,-264.08"/>
</a>
</g>
</g>
<!-- Node13 -->
<g id="Node000013" class="node">
<title>Node13</title>
<g id="a_Node000013"><a xlink:href="shellexecute__command__parameter_8hpp.html" target="_top" xlink:title=" ">
<polygon fill="white" stroke="#666666" points="640.25,-240 487.75,-240 487.75,-184 640.25,-184 640.25,-240"/>
<text xml:space="preserve" text-anchor="start" x="495.75" y="-226.5" font-family="Helvetica,sans-Serif" font-size="10.00">depicture_menu/src</text>
<text xml:space="preserve" text-anchor="start" x="495.75" y="-214.5" font-family="Helvetica,sans-Serif" font-size="10.00">/core/domain/model/command</text>
<text xml:space="preserve" text-anchor="start" x="495.75" y="-202.5" font-family="Helvetica,sans-Serif" font-size="10.00">/buildin/shellexecute_command</text>
<text xml:space="preserve" text-anchor="middle" x="564" y="-190.5" font-family="Helvetica,sans-Serif" font-size="10.00">_parameter.hpp</text>
</a>
</g>
</g>
<!-- Node1&#45;&gt;Node13 -->
<g id="edge16_Node000001_Node000013" class="edge">
<title>Node1&#45;&gt;Node13</title>
<g id="a_edge16_Node000001_Node000013"><a xlink:title=" ">
<path fill="none" stroke="#63b8ff" d="M439.53,-270.79C459.5,-261.52 483.48,-250.39 505.03,-240.38"/>
<polygon fill="#63b8ff" stroke="#63b8ff" points="438.16,-267.57 430.56,-274.95 441.11,-273.92 438.16,-267.57"/>
</a>
</g>
</g>
<!-- Node15 -->
<g id="Node000015" class="node">
<title>Node15</title>
<g id="a_Node000015"><a xlink:href="_test_colors_8cpp.html" target="_top" xlink:title=" ">
<polygon fill="white" stroke="#666666" points="771.38,-234 658.62,-234 658.62,-190 771.38,-190 771.38,-234"/>
<text xml:space="preserve" text-anchor="start" x="666.62" y="-220.5" font-family="Helvetica,sans-Serif" font-size="10.00">depicture_menu/test</text>
<text xml:space="preserve" text-anchor="start" x="666.62" y="-208.5" font-family="Helvetica,sans-Serif" font-size="10.00">/core/domain/common</text>
<text xml:space="preserve" text-anchor="middle" x="715" y="-196.5" font-family="Helvetica,sans-Serif" font-size="10.00">/TestColors.cpp</text>
</a>
</g>
</g>
<!-- Node1&#45;&gt;Node15 -->
<g id="edge23_Node000001_Node000015" class="edge">
<title>Node1&#45;&gt;Node15</title>
<g id="a_edge23_Node000001_Node000015"><a xlink:title=" ">
<path fill="none" stroke="#63b8ff" d="M482.1,-277.81C531.51,-269.22 594.39,-256.51 649,-240 654.45,-238.35 660.07,-236.42 665.63,-234.37"/>
<polygon fill="#63b8ff" stroke="#63b8ff" points="481.57,-274.35 472.3,-279.49 482.75,-281.25 481.57,-274.35"/>
</a>
</g>
</g>
<!-- Node4 -->
<g id="Node000004" class="node">
<title>Node4</title>
<g id="a_Node000004"><a xlink:href="common__action__builder_8hpp.html" target="_top" xlink:title=" ">
<polygon fill="white" stroke="#666666" points="290.25,-136 149.75,-136 149.75,-92 290.25,-92 290.25,-136"/>
<text xml:space="preserve" text-anchor="start" x="157.75" y="-122.5" font-family="Helvetica,sans-Serif" font-size="10.00">depicture_menu/src</text>
<text xml:space="preserve" text-anchor="start" x="157.75" y="-110.5" font-family="Helvetica,sans-Serif" font-size="10.00">/core/domain/service</text>
<text xml:space="preserve" text-anchor="middle" x="220" y="-98.5" font-family="Helvetica,sans-Serif" font-size="10.00">/common_action_builder.hpp</text>
</a>
</g>
</g>
<!-- Node3&#45;&gt;Node4 -->
<g id="edge3_Node000003_Node000004" class="edge">
<title>Node3&#45;&gt;Node4</title>
<g id="a_edge3_Node000003_Node000004"><a xlink:title=" ">
<path fill="none" stroke="#63b8ff" d="M225.37,-172.31C224.22,-159.99 222.98,-146.82 221.99,-136.22"/>
<polygon fill="#63b8ff" stroke="#63b8ff" points="221.89,-172.61 226.3,-182.24 228.85,-171.96 221.89,-172.61"/>
</a>
</g>
</g>
<!-- Node5 -->
<g id="Node000005" class="node">
<title>Node5</title>
<g id="a_Node000005"><a xlink:href="add__new__menu_8cpp.html" target="_top" xlink:title=" ">
<polygon fill="white" stroke="#666666" points="147.75,-44 16.25,-44 16.25,0 147.75,0 147.75,-44"/>
<text xml:space="preserve" text-anchor="start" x="24.25" y="-30.5" font-family="Helvetica,sans-Serif" font-size="10.00">depicture_menu/src</text>
<text xml:space="preserve" text-anchor="start" x="24.25" y="-18.5" font-family="Helvetica,sans-Serif" font-size="10.00">/core/usecase/config</text>
<text xml:space="preserve" text-anchor="middle" x="82" y="-6.5" font-family="Helvetica,sans-Serif" font-size="10.00">_view/add_new_menu.cpp</text>
</a>
</g>
</g>
<!-- Node3&#45;&gt;Node5 -->
<g id="edge8_Node000003_Node000005" class="edge">
<title>Node3&#45;&gt;Node5</title>
<g id="a_edge8_Node000003_Node000005"><a xlink:title=" ">
<path fill="none" stroke="#63b8ff" d="M172.39,-177C161.07,-168.49 149.93,-158.7 141,-148 114.56,-116.3 97.02,-70.77 88.35,-44.31"/>
<polygon fill="#63b8ff" stroke="#63b8ff" points="170.08,-179.65 180.24,-182.65 174.18,-173.97 170.08,-179.65"/>
</a>
</g>
</g>
<!-- Node9 -->
<g id="Node000009" class="node">
<title>Node9</title>
<g id="a_Node000009"><a xlink:href="test__create__command__domain__service_8cpp.html" target="_top" xlink:title=" ">
<polygon fill="white" stroke="#666666" points="461.88,-142 346.12,-142 346.12,-86 461.88,-86 461.88,-142"/>
<text xml:space="preserve" text-anchor="start" x="354.12" y="-128.5" font-family="Helvetica,sans-Serif" font-size="10.00">depicture_menu/test</text>
<text xml:space="preserve" text-anchor="start" x="354.12" y="-116.5" font-family="Helvetica,sans-Serif" font-size="10.00">/core/domain/service</text>
<text xml:space="preserve" text-anchor="start" x="354.12" y="-104.5" font-family="Helvetica,sans-Serif" font-size="10.00">/test_create_command</text>
<text xml:space="preserve" text-anchor="middle" x="404" y="-92.5" font-family="Helvetica,sans-Serif" font-size="10.00">_domain_service.cpp</text>
</a>
</g>
</g>
<!-- Node3&#45;&gt;Node9 -->
<g id="edge9_Node000003_Node000009" class="edge">
<title>Node3&#45;&gt;Node9</title>
<g id="a_edge9_Node000003_Node000009"><a xlink:title=" ">
<path fill="none" stroke="#63b8ff" d="M288.57,-178.32C309.82,-166.67 333.52,-153.66 353.89,-142.49"/>
<polygon fill="#63b8ff" stroke="#63b8ff" points="287.09,-175.14 280.01,-183.02 290.46,-181.28 287.09,-175.14"/>
</a>
</g>
</g>
<!-- Node4&#45;&gt;Node5 -->
<g id="edge4_Node000004_Node000005" class="edge">
<title>Node4&#45;&gt;Node5</title>
<g id="a_edge4_Node000004_Node000005"><a xlink:title=" ">
<path fill="none" stroke="#63b8ff" d="M177.72,-85.42C157.54,-72.27 133.76,-56.76 114.95,-44.49"/>
<polygon fill="#63b8ff" stroke="#63b8ff" points="175.74,-88.31 186.03,-90.84 179.56,-82.45 175.74,-88.31"/>
</a>
</g>
</g>
<!-- Node6 -->
<g id="Node000006" class="node">
<title>Node6</title>
<g id="a_Node000006"><a xlink:href="update__menu__config_8cpp.html" target="_top" xlink:title=" ">
<polygon fill="white" stroke="#666666" points="626.62,-44 473.38,-44 473.38,0 626.62,0 626.62,-44"/>
<text xml:space="preserve" text-anchor="start" x="481.38" y="-30.5" font-family="Helvetica,sans-Serif" font-size="10.00">depicture_menu/src</text>
<text xml:space="preserve" text-anchor="start" x="481.38" y="-18.5" font-family="Helvetica,sans-Serif" font-size="10.00">/core/usecase/config</text>
<text xml:space="preserve" text-anchor="middle" x="550" y="-6.5" font-family="Helvetica,sans-Serif" font-size="10.00">_view/update_menu_config.cpp</text>
</a>
</g>
</g>
<!-- Node4&#45;&gt;Node6 -->
<g id="edge5_Node000004_Node000006" class="edge">
<title>Node4&#45;&gt;Node6</title>
<g id="a_edge5_Node000004_Node000006"><a xlink:title=" ">
<path fill="none" stroke="#63b8ff" d="M281.27,-87.69C288.86,-84.92 296.57,-82.28 304,-80 373.68,-58.61 393.04,-60.65 464,-44 466.99,-43.3 470.04,-42.58 473.12,-41.85"/>
<polygon fill="#63b8ff" stroke="#63b8ff" points="280.2,-84.35 272.06,-91.13 282.65,-90.9 280.2,-84.35"/>
</a>
</g>
</g>
<!-- Node7 -->
<g id="Node000007" class="node">
<title>Node7</title>
<g id="a_Node000007"><a xlink:href="deploy__default__setting_8cpp.html" target="_top" xlink:title=" ">
<polygon fill="white" stroke="#666666" points="274.5,-44 165.5,-44 165.5,0 274.5,0 274.5,-44"/>
<text xml:space="preserve" text-anchor="start" x="173.5" y="-30.5" font-family="Helvetica,sans-Serif" font-size="10.00">depicture_menu/src</text>
<text xml:space="preserve" text-anchor="start" x="173.5" y="-18.5" font-family="Helvetica,sans-Serif" font-size="10.00">/core/usecase/deploy</text>
<text xml:space="preserve" text-anchor="middle" x="220" y="-6.5" font-family="Helvetica,sans-Serif" font-size="10.00">_default_setting.cpp</text>
</a>
</g>
</g>
<!-- Node4&#45;&gt;Node7 -->
<g id="edge6_Node000004_Node000007" class="edge">
<title>Node4&#45;&gt;Node7</title>
<g id="a_edge6_Node000004_Node000007"><a xlink:title=" ">
<path fill="none" stroke="#63b8ff" d="M220,-80.3C220,-68.37 220,-55.19 220,-44.49"/>
<polygon fill="#63b8ff" stroke="#63b8ff" points="216.5,-80.16 220,-90.16 223.5,-80.16 216.5,-80.16"/>
</a>
</g>
</g>
<!-- Node8 -->
<g id="Node000008" class="node">
<title>Node8</title>
<g id="a_Node000008"><a xlink:href="test__common__action__builder_8cpp.html" target="_top" xlink:title=" ">
<polygon fill="white" stroke="#666666" points="455.12,-44 292.88,-44 292.88,0 455.12,0 455.12,-44"/>
<text xml:space="preserve" text-anchor="start" x="300.88" y="-30.5" font-family="Helvetica,sans-Serif" font-size="10.00">depicture_menu/test</text>
<text xml:space="preserve" text-anchor="start" x="300.88" y="-18.5" font-family="Helvetica,sans-Serif" font-size="10.00">/core/domain/service</text>
<text xml:space="preserve" text-anchor="middle" x="374" y="-6.5" font-family="Helvetica,sans-Serif" font-size="10.00">/test_common_action_builder.cpp</text>
</a>
</g>
</g>
<!-- Node4&#45;&gt;Node8 -->
<g id="edge7_Node000004_Node000008" class="edge">
<title>Node4&#45;&gt;Node8</title>
<g id="a_edge7_Node000004_Node000008"><a xlink:title=" ">
<path fill="none" stroke="#63b8ff" d="M266.27,-85.96C288.98,-72.69 315.95,-56.92 337.23,-44.49"/>
<polygon fill="#63b8ff" stroke="#63b8ff" points="264.67,-82.84 257.8,-90.91 268.2,-88.88 264.67,-82.84"/>
</a>
</g>
</g>
<!-- Node10&#45;&gt;Node4 -->
<g id="edge11_Node000010_Node000004" class="edge">
<title>Node10&#45;&gt;Node4</title>
<g id="a_edge11_Node000010_Node000004"><a xlink:title=" ">
<path fill="none" stroke="#63b8ff" d="M336.12,-178.34C310.71,-164.48 281.8,-148.71 259.18,-136.37"/>
<polygon fill="#63b8ff" stroke="#63b8ff" points="334.25,-181.31 344.71,-183.02 337.6,-175.16 334.25,-181.31"/>
</a>
</g>
</g>
<!-- Node10&#45;&gt;Node6 -->
<g id="edge12_Node000010_Node000006" class="edge">
<title>Node10&#45;&gt;Node6</title>
<g id="a_edge12_Node000010_Node000006"><a xlink:title=" ">
<path fill="none" stroke="#63b8ff" d="M354.07,-175.18C347.1,-167.02 340.88,-157.83 337,-148 325.89,-119.89 318.6,-103.97 337,-80 339.2,-77.13 412.91,-57.82 473.01,-42.45"/>
<polygon fill="#63b8ff" stroke="#63b8ff" points="351.48,-177.53 360.84,-182.5 356.62,-172.78 351.48,-177.53"/>
</a>
</g>
</g>
<!-- Node10&#45;&gt;Node9 -->
<g id="edge13_Node000010_Node000009" class="edge">
<title>Node10&#45;&gt;Node9</title>
<g id="a_edge13_Node000010_Node000009"><a xlink:title=" ">
<path fill="none" stroke="#63b8ff" d="M399.22,-172.32C400.06,-162.27 400.95,-151.65 401.72,-142.32"/>
<polygon fill="#63b8ff" stroke="#63b8ff" points="395.74,-171.98 398.4,-182.24 402.72,-172.56 395.74,-171.98"/>
</a>
</g>
</g>
<!-- Node11 -->
<g id="Node000011" class="node">
<title>Node11</title>
<g id="a_Node000011"><a xlink:href="action__change__operation_8cpp.html" target="_top" xlink:title=" ">
<polygon fill="white" stroke="#666666" points="608.25,-148 479.75,-148 479.75,-80 608.25,-80 608.25,-148"/>
<text xml:space="preserve" text-anchor="start" x="487.75" y="-134.5" font-family="Helvetica,sans-Serif" font-size="10.00">depicture_menu/test</text>
<text xml:space="preserve" text-anchor="start" x="487.75" y="-122.5" font-family="Helvetica,sans-Serif" font-size="10.00">/core/presentation/change</text>
<text xml:space="preserve" text-anchor="start" x="487.75" y="-110.5" font-family="Helvetica,sans-Serif" font-size="10.00">_view_model/config_view</text>
<text xml:space="preserve" text-anchor="start" x="487.75" y="-98.5" font-family="Helvetica,sans-Serif" font-size="10.00">_presenter/action_change</text>
<text xml:space="preserve" text-anchor="middle" x="544" y="-86.5" font-family="Helvetica,sans-Serif" font-size="10.00">_operation.cpp</text>
</a>
</g>
</g>
<!-- Node10&#45;&gt;Node11 -->
<g id="edge14_Node000010_Node000011" class="edge">
<title>Node10&#45;&gt;Node11</title>
<g id="a_edge14_Node000010_Node000011"><a xlink:title=" ">
<path fill="none" stroke="#63b8ff" d="M447.38,-177.67C461.95,-168.22 477.81,-157.93 492.4,-148.47"/>
<polygon fill="#63b8ff" stroke="#63b8ff" points="445.77,-174.55 439.28,-182.92 449.58,-180.42 445.77,-174.55"/>
</a>
</g>
</g>
<!-- Node12 -->
<g id="Node000012" class="node">
<title>Node12</title>
<g id="a_Node000012"><a xlink:href="menu__change__operation_8cpp.html" target="_top" xlink:title=" ">
<polygon fill="white" stroke="#666666" points="815.62,-142 626.38,-142 626.38,-86 815.62,-86 815.62,-142"/>
<text xml:space="preserve" text-anchor="start" x="634.38" y="-128.5" font-family="Helvetica,sans-Serif" font-size="10.00">depicture_menu/test</text>
<text xml:space="preserve" text-anchor="start" x="634.38" y="-116.5" font-family="Helvetica,sans-Serif" font-size="10.00">/core/presentation/change</text>
<text xml:space="preserve" text-anchor="start" x="634.38" y="-104.5" font-family="Helvetica,sans-Serif" font-size="10.00">_view_model/config_view</text>
<text xml:space="preserve" text-anchor="middle" x="721" y="-92.5" font-family="Helvetica,sans-Serif" font-size="10.00">_presenter/menu_change_operation.cpp</text>
</a>
</g>
</g>
<!-- Node10&#45;&gt;Node12 -->
<g id="edge15_Node000010_Node000012" class="edge">
<title>Node10&#45;&gt;Node12</title>
<g id="a_edge15_Node000010_Node000012"><a xlink:title=" ">
<path fill="none" stroke="#63b8ff" d="M481.11,-183.46C541.75,-166.07 559.43,-164.63 617,-148 623.1,-146.24 629.38,-144.37 635.69,-142.46"/>
<polygon fill="#63b8ff" stroke="#63b8ff" points="480.23,-180.07 471.6,-186.22 482.18,-186.79 480.23,-180.07"/>
</a>
</g>
</g>
<!-- Node13&#45;&gt;Node4 -->
<g id="edge17_Node000013_Node000004" class="edge">
<title>Node13&#45;&gt;Node4</title>
<g id="a_edge17_Node000013_Node000004"><a xlink:title=" ">
<path fill="none" stroke="#63b8ff" d="M476.78,-183.43C414.52,-165.96 396.58,-163.95 337,-148 321.91,-143.96 305.77,-139.5 290.45,-135.2"/>
<polygon fill="#63b8ff" stroke="#63b8ff" points="475.58,-186.73 486.15,-186.09 477.49,-179.99 475.58,-186.73"/>
</a>
</g>
</g>
<!-- Node13&#45;&gt;Node6 -->
<g id="edge18_Node000013_Node000006" class="edge">
<title>Node13&#45;&gt;Node6</title>
<g id="a_edge18_Node000013_Node000006"><a xlink:title=" ">
<path fill="none" stroke="#63b8ff" d="M651.26,-184.06C730.99,-167.79 776.98,-206.9 825,-148 844.1,-124.58 844.08,-103.44 825,-80 800.41,-49.8 699.43,-35.09 626.96,-28.3"/>
<polygon fill="#63b8ff" stroke="#63b8ff" points="650.74,-180.59 641.79,-186.26 652.32,-187.41 650.74,-180.59"/>
</a>
</g>
</g>
<!-- Node13&#45;&gt;Node9 -->
<g id="edge20_Node000013_Node000009" class="edge">
<title>Node13&#45;&gt;Node9</title>
<g id="a_edge20_Node000013_Node000009"><a xlink:title=" ">
<path fill="none" stroke="#63b8ff" d="M508.75,-177.85C489.52,-166.31 468.19,-153.51 449.81,-142.49"/>
<polygon fill="#63b8ff" stroke="#63b8ff" points="506.9,-180.82 517.28,-182.97 510.51,-174.82 506.9,-180.82"/>
</a>
</g>
</g>
<!-- Node13&#45;&gt;Node11 -->
<g id="edge21_Node000013_Node000011" class="edge">
<title>Node13&#45;&gt;Node11</title>
<g id="a_edge21_Node000013_Node000011"><a xlink:title=" ">
<path fill="none" stroke="#63b8ff" d="M556.03,-172.75C554.36,-164.72 552.61,-156.31 550.97,-148.47"/>
<polygon fill="#63b8ff" stroke="#63b8ff" points="552.55,-173.19 558.01,-182.27 559.4,-171.76 552.55,-173.19"/>
</a>
</g>
</g>
<!-- Node13&#45;&gt;Node12 -->
<g id="edge22_Node000013_Node000012" class="edge">
<title>Node13&#45;&gt;Node12</title>
<g id="a_edge22_Node000013_Node000012"><a xlink:title=" ">
<path fill="none" stroke="#63b8ff" d="M618.22,-177.85C637.08,-166.31 658.02,-153.51 676.05,-142.49"/>
<polygon fill="#63b8ff" stroke="#63b8ff" points="616.57,-174.75 609.86,-182.96 620.22,-180.73 616.57,-174.75"/>
</a>
</g>
</g>
<!-- Node14 -->
<g id="Node000014" class="node">
<title>Node14</title>
<g id="a_Node000014"><a xlink:href="test__action_8cpp.html" target="_top" xlink:title=" ">
<polygon fill="white" stroke="#666666" points="1002.38,-136 871.62,-136 871.62,-92 1002.38,-92 1002.38,-136"/>
<text xml:space="preserve" text-anchor="start" x="879.62" y="-122.5" font-family="Helvetica,sans-Serif" font-size="10.00">depicture_menu/test</text>
<text xml:space="preserve" text-anchor="start" x="879.62" y="-110.5" font-family="Helvetica,sans-Serif" font-size="10.00">/core/domain/model/action</text>
<text xml:space="preserve" text-anchor="middle" x="937" y="-98.5" font-family="Helvetica,sans-Serif" font-size="10.00">/test_action.cpp</text>
</a>
</g>
</g>
<!-- Node13&#45;&gt;Node14 -->
<g id="edge19_Node000013_Node000014" class="edge">
<title>Node13&#45;&gt;Node14</title>
<g id="a_edge19_Node000013_Node000014"><a xlink:title=" ">
<path fill="none" stroke="#63b8ff" d="M651.22,-183.89C743.25,-162.76 771.27,-173.27 858,-148 868.7,-144.88 879.91,-140.76 890.42,-136.49"/>
<polygon fill="#63b8ff" stroke="#63b8ff" points="650.68,-180.42 641.76,-186.12 652.29,-187.23 650.68,-180.42"/>
</a>
</g>
</g>
</g>
</svg>

<g id="navigator" transform="translate(0 0)" fill="#404254">
  <rect fill="#f2f5e9" fill-opacity="0.5" stroke="#606060" stroke-width=".5" x="0" y="0" width="60" height="60"/>
  <use id="zoomplus" xlink:href="#zoomPlus" x="17" y="9" onmousedown="handleZoom(evt,'in')"/>
  <use id="zoomminus" xlink:href="#zoomMin" x="42" y="9" onmousedown="handleZoom(evt,'out')"/>
  <use id="reset" xlink:href="#resetDef" x="30" y="36" onmousedown="handleReset()"/>
   <use id="arrowup" xlink:href="#arrowUp" x="0" y="0" onmousedown="handlePan(0,-1)"/>
  <use id="arrowright" xlink:href="#arrowRight" x="0" y="0" onmousedown="handlePan(1,0)"/>
  <use id="arrowdown" xlink:href="#arrowDown" x="0" y="0" onmousedown="handlePan(0,1)"/>
  <use id="arrowleft" xlink:href="#arrowLeft" x="0" y="0" onmousedown="handlePan(-1,0)"/>
</g>
<svg viewBox="0 0 15 15" width="100%" height="30px" preserveAspectRatio="xMaxYMin meet">
 <g id="arrow_out" transform="scale(0.3 0.3)">
  <a xlink:href="value__object_8hpp__dep__incl_org.svg" target="_base">
   <rect id="button" ry="5" rx="5" y="6" x="6" height="38" width="38"
        fill="#f2f5e9" fill-opacity="0.5" stroke="#606060" stroke-width="1.0"/>
   <path id="arrow"
     d="M 11.500037,31.436501 C 11.940474,20.09759 22.043105,11.32322 32.158766,21.979434 L 37.068811,17.246167 C 37.068811,17.246167 37.088388,32 37.088388,32 L 22.160133,31.978069 C 22.160133,31.978069 26.997745,27.140456 26.997745,27.140456 C 18.528582,18.264221 13.291696,25.230495 11.500037,31.436501 z"
     style="fill:#404040;"/>
  </a>
 </g>
</svg>

<style type='text/css'>
<![CDATA[
[data-mouse-over-selected='false'] { opacity: 0.7; }
[data-mouse-over-selected='true']  { opacity: 1.0; }
]]>
</style>
<script type="application/ecmascript"><![CDATA[
document.addEventListener('DOMContentLoaded', (event) => {
  highlightEdges();
  highlightAdjacentNodes();
});
]]></script>
</svg>
