<?xml version="1.0" encoding="UTF-8" standalone="no"?>
<!DOCTYPE svg PUBLIC "-//W3C//DTD SVG 1.1//EN"
 "http://www.w3.org/Graphics/SVG/1.1/DTD/svg11.dtd">
<!-- Generated by graphviz version 14.1.2 (20260124.0452)
 -->
<!-- Title: depicture_menu/src/win32/win32_message_sender.cpp Pages: 1 -->
<svg width="846pt" height="164pt"
 viewBox="0.00 0.00 846.00 164.00" xmlns="http://www.w3.org/2000/svg" xmlns:xlink="http://www.w3.org/1999/xlink">
<g id="graph0" class="graph" transform="scale(1 1) rotate(0) translate(4 160)">
<title>depicture_menu/src/win32/win32_message_sender.cpp</title>
<!-- Node1 -->
<g id="Node000001" class="node">
<title>Node1</title>
<g id="a_Node000001"><a xlink:title=" ">
<polygon fill="#999999" stroke="#666666" points="458.88,-156 340.88,-156 340.88,-112 458.88,-112 458.88,-156"/>
<text xml:space="preserve" text-anchor="start" x="348.88" y="-142.5" font-family="Helvetica,sans-Serif" font-size="10.00">depicture_menu/src</text>
<text xml:space="preserve" text-anchor="start" x="348.88" y="-130.5" font-family="Helvetica,sans-Serif" font-size="10.00">/win32/win32_message</text>
<text xml:space="preserve" text-anchor="middle" x="399.88" y="-118.5" font-family="Helvetica,sans-Serif" font-size="10.00">_sender.cpp</text>
</a>
</g>
</g>
<!-- Node2 -->
<g id="Node000002" class="node">
<title>Node2</title>
<g id="a_Node000002"><a xlink:title=" ">
<polygon fill="#e0e0e0" stroke="#999999" points="220.38,-76 159.38,-76 159.38,-56 220.38,-56 220.38,-76"/>
<text xml:space="preserve" text-anchor="middle" x="189.88" y="-62.5" font-family="Helvetica,sans-Serif" font-size="10.00">config.hpp</text>
</a>
</g>
</g>
<!-- Node1&#45;&gt;Node2 -->
<g id="edge1_Node000001_Node000002" class="edge">
<title>Node1&#45;&gt;Node2</title>
<g id="a_edge1_Node000001_Node000002"><a xlink:title=" ">
<path fill="none" stroke="#63b8ff" d="M340.54,-114.35C305.54,-103.35 262.13,-89.71 230.92,-79.9"/>
<polygon fill="#63b8ff" stroke="#63b8ff" points="232.04,-76.58 221.45,-76.92 229.94,-83.26 232.04,-76.58"/>
</a>
</g>
</g>
<!-- Node3 -->
<g id="Node000003" class="node">
<title>Node3</title>
<g id="a_Node000003"><a xlink:href="win32_2win32__message__sender_8hpp.html" target="_top" xlink:title=" ">
<polygon fill="white" stroke="#666666" points="416.75,-76 277,-76 277,-56 416.75,-56 416.75,-76"/>
<text xml:space="preserve" text-anchor="middle" x="346.88" y="-62.5" font-family="Helvetica,sans-Serif" font-size="10.00">win32_message_sender.hpp</text>
</a>
</g>
</g>
<!-- Node1&#45;&gt;Node3 -->
<g id="edge2_Node000001_Node000003" class="edge">
<title>Node1&#45;&gt;Node3</title>
<g id="a_edge2_Node000001_Node000003"><a xlink:title=" ">
<path fill="none" stroke="#63b8ff" d="M382.81,-111.75C375.94,-103.2 368.09,-93.42 361.49,-85.2"/>
<polygon fill="#63b8ff" stroke="#63b8ff" points="364.38,-83.2 355.39,-77.6 358.92,-87.59 364.38,-83.2"/>
</a>
</g>
</g>
<!-- Node6 -->
<g id="Node000006" class="node">
<title>Node6</title>
<g id="a_Node000006"><a xlink:title=" ">
<polygon fill="#e0e0e0" stroke="#999999" points="55.75,-20 0,-20 0,0 55.75,0 55.75,-20"/>
<text xml:space="preserve" text-anchor="middle" x="27.88" y="-6.5" font-family="Helvetica,sans-Serif" font-size="10.00">algorithm</text>
</a>
</g>
</g>
<!-- Node1&#45;&gt;Node6 -->
<g id="edge14_Node000001_Node000006" class="edge">
<title>Node1&#45;&gt;Node6</title>
<g id="a_edge14_Node000001_Node000006"><a xlink:title=" ">
<path fill="none" stroke="#63b8ff" d="M347.74,-111.58C323.29,-101.26 293.89,-88.44 267.88,-76 250.66,-67.77 247.81,-62.54 229.88,-56 162.66,-31.49 140.12,-36.33 67.27,-20.45"/>
<polygon fill="#63b8ff" stroke="#63b8ff" points="68.14,-17.06 57.62,-18.28 66.61,-23.89 68.14,-17.06"/>
</a>
</g>
</g>
<!-- Node15 -->
<g id="Node000015" class="node">
<title>Node15</title>
<g id="a_Node000015"><a xlink:title=" ">
<polygon fill="#e0e0e0" stroke="#999999" points="472.75,-76 435,-76 435,-56 472.75,-56 472.75,-76"/>
<text xml:space="preserve" text-anchor="middle" x="453.88" y="-62.5" font-family="Helvetica,sans-Serif" font-size="10.00">array</text>
</a>
</g>
</g>
<!-- Node1&#45;&gt;Node15 -->
<g id="edge15_Node000001_Node000015" class="edge">
<title>Node1&#45;&gt;Node15</title>
<g id="a_edge15_Node000001_Node000015"><a xlink:title=" ">
<path fill="none" stroke="#63b8ff" d="M417.26,-111.75C424.26,-103.2 432.26,-93.42 438.99,-85.2"/>
<polygon fill="#63b8ff" stroke="#63b8ff" points="441.59,-87.55 445.21,-77.59 436.17,-83.11 441.59,-87.55"/>
</a>
</g>
</g>
<!-- Node16 -->
<g id="Node000016" class="node">
<title>Node16</title>
<g id="a_Node000016"><a xlink:title=" ">
<polygon fill="#e0e0e0" stroke="#999999" points="549.25,-76 490.5,-76 490.5,-56 549.25,-56 549.25,-76"/>
<text xml:space="preserve" text-anchor="middle" x="519.88" y="-62.5" font-family="Helvetica,sans-Serif" font-size="10.00">stdexcept</text>
</a>
</g>
</g>
<!-- Node1&#45;&gt;Node16 -->
<g id="edge16_Node000001_Node000016" class="edge">
<title>Node1&#45;&gt;Node16</title>
<g id="a_edge16_Node000001_Node000016"><a xlink:title=" ">
<path fill="none" stroke="#63b8ff" d="M438.84,-111.57C456.58,-101.81 477.12,-90.51 493.09,-81.73"/>
<polygon fill="#63b8ff" stroke="#63b8ff" points="494.45,-84.98 501.52,-77.09 491.07,-78.85 494.45,-84.98"/>
</a>
</g>
</g>
<!-- Node17 -->
<g id="Node000017" class="node">
<title>Node17</title>
<g id="a_Node000017"><a xlink:title=" ">
<polygon fill="#e0e0e0" stroke="#999999" points="610.38,-76 567.38,-76 567.38,-56 610.38,-56 610.38,-76"/>
<text xml:space="preserve" text-anchor="middle" x="588.88" y="-62.5" font-family="Helvetica,sans-Serif" font-size="10.00">vector</text>
</a>
</g>
</g>
<!-- Node1&#45;&gt;Node17 -->
<g id="edge17_Node000001_Node000017" class="edge">
<title>Node1&#45;&gt;Node17</title>
<g id="a_edge17_Node000001_Node000017"><a xlink:title=" ">
<path fill="none" stroke="#63b8ff" d="M459.16,-112.3C491.36,-101.05 529.94,-87.58 556.61,-78.27"/>
<polygon fill="#63b8ff" stroke="#63b8ff" points="557.54,-81.65 565.83,-75.05 555.23,-75.04 557.54,-81.65"/>
</a>
</g>
</g>
<!-- Node4 -->
<g id="Node000004" class="node">
<title>Node4</title>
<g id="a_Node000004"><a xlink:title=" ">
<polygon fill="#e0e0e0" stroke="#999999" points="136.12,-20 73.62,-20 73.62,0 136.12,0 136.12,-20"/>
<text xml:space="preserve" text-anchor="middle" x="104.88" y="-6.5" font-family="Helvetica,sans-Serif" font-size="10.00">windows.h</text>
</a>
</g>
</g>
<!-- Node3&#45;&gt;Node4 -->
<g id="edge3_Node000003_Node000004" class="edge">
<title>Node3&#45;&gt;Node4</title>
<g id="a_edge3_Node000003_Node000004"><a xlink:title=" ">
<path fill="none" stroke="#63b8ff" d="M304.31,-55.54C265.82,-46.99 207.29,-33.96 147.49,-20.58"/>
<polygon fill="#63b8ff" stroke="#63b8ff" points="148.32,-17.18 137.79,-18.41 146.79,-24.01 148.32,-17.18"/>
</a>
</g>
</g>
<!-- Node5 -->
<g id="Node000005" class="node">
<title>Node5</title>
<g id="a_Node000005"><a xlink:title=" ">
<polygon fill="#e0e0e0" stroke="#999999" points="201.62,-20 154.12,-20 154.12,0 201.62,0 201.62,-20"/>
<text xml:space="preserve" text-anchor="middle" x="177.88" y="-6.5" font-family="Helvetica,sans-Serif" font-size="10.00">psapi.h</text>
</a>
</g>
</g>
<!-- Node3&#45;&gt;Node5 -->
<g id="edge4_Node000003_Node000005" class="edge">
<title>Node3&#45;&gt;Node5</title>
<g id="a_edge4_Node000003_Node000005"><a xlink:title=" ">
<path fill="none" stroke="#63b8ff" d="M317.44,-55.59C288.3,-46.28 243.68,-32.03 212.77,-22.15"/>
<polygon fill="#63b8ff" stroke="#63b8ff" points="214.09,-18.9 203.5,-19.19 211.96,-25.56 214.09,-18.9"/>
</a>
</g>
</g>
<!-- Node3&#45;&gt;Node6 -->
<g id="edge5_Node000003_Node000006" class="edge">
<title>Node3&#45;&gt;Node6</title>
<g id="a_edge5_Node000003_Node000006"><a xlink:title=" ">
<path fill="none" stroke="#63b8ff" d="M277.64,-55.54C222.96,-47.7 144.49,-35.66 67.03,-20.3"/>
<polygon fill="#63b8ff" stroke="#63b8ff" points="68.08,-16.94 57.59,-18.41 66.71,-23.81 68.08,-16.94"/>
</a>
</g>
</g>
<!-- Node7 -->
<g id="Node000007" class="node">
<title>Node7</title>
<g id="a_Node000007"><a xlink:title=" ">
<polygon fill="#e0e0e0" stroke="#999999" points="263.75,-20 220,-20 220,0 263.75,0 263.75,-20"/>
<text xml:space="preserve" text-anchor="middle" x="241.88" y="-6.5" font-family="Helvetica,sans-Serif" font-size="10.00">format</text>
</a>
</g>
</g>
<!-- Node3&#45;&gt;Node7 -->
<g id="edge6_Node000003_Node000007" class="edge">
<title>Node3&#45;&gt;Node7</title>
<g id="a_edge6_Node000003_Node000007"><a xlink:title=" ">
<path fill="none" stroke="#63b8ff" d="M328.59,-55.59C312.57,-47.36 289.04,-35.26 270.53,-25.74"/>
<polygon fill="#63b8ff" stroke="#63b8ff" points="272.15,-22.63 261.65,-21.17 268.95,-28.86 272.15,-22.63"/>
</a>
</g>
</g>
<!-- Node8 -->
<g id="Node000008" class="node">
<title>Node8</title>
<g id="a_Node000008"><a xlink:title=" ">
<polygon fill="#e0e0e0" stroke="#999999" points="339.88,-20 281.88,-20 281.88,0 339.88,0 339.88,-20"/>
<text xml:space="preserve" text-anchor="middle" x="310.88" y="-6.5" font-family="Helvetica,sans-Serif" font-size="10.00">functional</text>
</a>
</g>
</g>
<!-- Node3&#45;&gt;Node8 -->
<g id="edge7_Node000003_Node000008" class="edge">
<title>Node3&#45;&gt;Node8</title>
<g id="a_edge7_Node000003_Node000008"><a xlink:title=" ">
<path fill="none" stroke="#63b8ff" d="M340.6,-55.59C335.86,-48.47 329.18,-38.45 323.35,-29.72"/>
<polygon fill="#63b8ff" stroke="#63b8ff" points="326.37,-27.94 317.91,-21.56 320.55,-31.82 326.37,-27.94"/>
</a>
</g>
</g>
<!-- Node9 -->
<g id="Node000009" class="node">
<title>Node9</title>
<g id="a_Node000009"><a xlink:title=" ">
<polygon fill="#e0e0e0" stroke="#999999" points="407.75,-20 358,-20 358,0 407.75,0 407.75,-20"/>
<text xml:space="preserve" text-anchor="middle" x="382.88" y="-6.5" font-family="Helvetica,sans-Serif" font-size="10.00">optional</text>
</a>
</g>
</g>
<!-- Node3&#45;&gt;Node9 -->
<g id="edge8_Node000003_Node000009" class="edge">
<title>Node3&#45;&gt;Node9</title>
<g id="a_edge8_Node000003_Node000009"><a xlink:title=" ">
<path fill="none" stroke="#63b8ff" d="M353.15,-55.59C357.89,-48.47 364.57,-38.45 370.4,-29.72"/>
<polygon fill="#63b8ff" stroke="#63b8ff" points="373.2,-31.82 375.84,-21.56 367.38,-27.94 373.2,-31.82"/>
</a>
</g>
</g>
<!-- Node10 -->
<g id="Node000010" class="node">
<title>Node10</title>
<g id="a_Node000010"><a xlink:title=" ">
<polygon fill="#e0e0e0" stroke="#999999" points="465.88,-20 425.88,-20 425.88,0 465.88,0 465.88,-20"/>
<text xml:space="preserve" text-anchor="middle" x="445.88" y="-6.5" font-family="Helvetica,sans-Serif" font-size="10.00">string</text>
</a>
</g>
</g>
<!-- Node3&#45;&gt;Node10 -->
<g id="edge9_Node000003_Node000010" class="edge">
<title>Node3&#45;&gt;Node10</title>
<g id="a_edge9_Node000003_Node000010"><a xlink:title=" ">
<path fill="none" stroke="#63b8ff" d="M364.12,-55.59C379.22,-47.36 401.4,-35.26 418.86,-25.74"/>
<polygon fill="#63b8ff" stroke="#63b8ff" points="420.06,-29.07 427.17,-21.2 416.71,-22.92 420.06,-29.07"/>
</a>
</g>
</g>
<!-- Node11 -->
<g id="Node000011" class="node">
<title>Node11</title>
<g id="a_Node000011"><a xlink:title=" ">
<polygon fill="#e0e0e0" stroke="#999999" points="549.62,-20 484.12,-20 484.12,0 549.62,0 549.62,-20"/>
<text xml:space="preserve" text-anchor="middle" x="516.88" y="-6.5" font-family="Helvetica,sans-Serif" font-size="10.00">string_view</text>
</a>
</g>
</g>
<!-- Node3&#45;&gt;Node11 -->
<g id="edge10_Node000003_Node000011" class="edge">
<title>Node3&#45;&gt;Node11</title>
<g id="a_edge10_Node000003_Node000011"><a xlink:title=" ">
<path fill="none" stroke="#63b8ff" d="M376.49,-55.59C404.11,-46.82 445.55,-33.66 476.25,-23.9"/>
<polygon fill="#63b8ff" stroke="#63b8ff" points="477.12,-27.3 485.59,-20.94 475,-20.63 477.12,-27.3"/>
</a>
</g>
</g>
<!-- Node12 -->
<g id="Node000012" class="node">
<title>Node12</title>
<g id="a_Node000012"><a xlink:title=" ">
<polygon fill="#e0e0e0" stroke="#999999" points="606.5,-20 567.25,-20 567.25,0 606.5,0 606.5,-20"/>
<text xml:space="preserve" text-anchor="middle" x="586.88" y="-6.5" font-family="Helvetica,sans-Serif" font-size="10.00">utility</text>
</a>
</g>
</g>
<!-- Node3&#45;&gt;Node12 -->
<g id="edge11_Node000003_Node000012" class="edge">
<title>Node3&#45;&gt;Node12</title>
<g id="a_edge11_Node000003_Node000012"><a xlink:title=" ">
<path fill="none" stroke="#63b8ff" d="M398.63,-55.54C439.24,-47.78 497.39,-35.91 555.85,-20.63"/>
<polygon fill="#63b8ff" stroke="#63b8ff" points="556.53,-24.07 565.3,-18.12 554.73,-17.3 556.53,-24.07"/>
</a>
</g>
</g>
<!-- Node13 -->
<g id="Node000013" class="node">
<title>Node13</title>
<g id="a_Node000013"><a xlink:title=" ">
<polygon fill="#e0e0e0" stroke="#999999" points="701.62,-20 624.12,-20 624.12,0 701.62,0 701.62,-20"/>
<text xml:space="preserve" text-anchor="middle" x="662.88" y="-6.5" font-family="Helvetica,sans-Serif" font-size="10.00">boost/leaf.hpp</text>
</a>
</g>
</g>
<!-- Node3&#45;&gt;Node13 -->
<g id="edge12_Node000003_Node000013" class="edge">
<title>Node3&#45;&gt;Node13</title>
<g id="a_edge12_Node000003_Node000013"><a xlink:title=" ">
<path fill="none" stroke="#63b8ff" d="M405.98,-55.52C457.97,-47.09 536.01,-34.21 612.4,-20.6"/>
<polygon fill="#63b8ff" stroke="#63b8ff" points="612.93,-24.06 622.16,-18.85 611.7,-17.17 612.93,-24.06"/>
</a>
</g>
</g>
<!-- Node14 -->
<g id="Node000014" class="node">
<title>Node14</title>
<g id="a_Node000014"><a xlink:title=" ">
<polygon fill="#e0e0e0" stroke="#999999" points="838.25,-20 719.5,-20 719.5,0 838.25,0 838.25,-20"/>
<text xml:space="preserve" text-anchor="middle" x="778.88" y="-6.5" font-family="Helvetica,sans-Serif" font-size="10.00">boost/test/unit_test.hpp</text>
</a>
</g>
</g>
<!-- Node3&#45;&gt;Node14 -->
<g id="edge13_Node000003_Node000014" class="edge">
<title>Node3&#45;&gt;Node14</title>
<g id="a_edge13_Node000003_Node000014"><a xlink:title=" ">
<path fill="none" stroke="#63b8ff" d="M417.02,-56.51C487.83,-47.9 600.67,-34.06 707.82,-20.38"/>
<polygon fill="#63b8ff" stroke="#63b8ff" points="708.2,-23.86 717.67,-19.12 707.31,-16.92 708.2,-23.86"/>
</a>
</g>
</g>
</g>
</svg>
