<?xml version="1.0" encoding="UTF-8" standalone="no"?>
<!DOCTYPE svg PUBLIC "-//W3C//DTD SVG 1.1//EN"
 "http://www.w3.org/Graphics/SVG/1.1/DTD/svg11.dtd">
<!-- Generated by graphviz version 14.1.2 (20260124.0452)
 -->
<!-- Title: depicture_menu/src/core/repository/win32_window_observer.cpp Pages: 1 -->
<svg width="365pt" height="220pt"
 viewBox="0.00 0.00 365.00 220.00" xmlns="http://www.w3.org/2000/svg" xmlns:xlink="http://www.w3.org/1999/xlink">

<svg id="main" version="1.1" xmlns="http://www.w3.org/2000/svg" xmlns:xlink="http://www.w3.org/1999/xlink" xml:space="preserve">

<style type="text/css"><![CDATA[
.node, .edge {opacity: 0.7;}
.node.selected, .edge.selected {opacity: 1;}
.edge:hover path { stroke: red; }
.edge:hover polygon { stroke: red; fill: red; }
]]></style>
<script type="application/ecmascript" xlink:href="svg.min.js"/>
<svg id="graph" class="graph">
<g id="graph0" class="graph" transform="scale(1 1) rotate(0) translate(4 216)">
<title>depicture_menu/src/core/repository/win32_window_observer.cpp</title>
<!-- Node1 -->
<g id="Node000001" class="node">
<title>Node1</title>
<g id="a_Node000001"><a xlink:title=" ">
<polygon fill="#999999" stroke="#666666" points="261.38,-212 145.62,-212 145.62,-168 261.38,-168 261.38,-212"/>
<text xml:space="preserve" text-anchor="start" x="153.62" y="-198.5" font-family="Helvetica,sans-Serif" font-size="10.00">depicture_menu/src</text>
<text xml:space="preserve" text-anchor="start" x="153.62" y="-186.5" font-family="Helvetica,sans-Serif" font-size="10.00">/core/repository/win32</text>
<text xml:space="preserve" text-anchor="middle" x="203.5" y="-174.5" font-family="Helvetica,sans-Serif" font-size="10.00">_window_observer.cpp</text>
</a>
</g>
</g>
<!-- Node2 -->
<g id="Node000002" class="node">
<title>Node2</title>
<g id="a_Node000002"><a xlink:title=" ">
<polygon fill="#e0e0e0" stroke="#999999" points="61,-132 0,-132 0,-112 61,-112 61,-132"/>
<text xml:space="preserve" text-anchor="middle" x="30.5" y="-118.5" font-family="Helvetica,sans-Serif" font-size="10.00">config.hpp</text>
</a>
</g>
</g>
<!-- Node1&#45;&gt;Node2 -->
<g id="edge1_Node000001_Node000002" class="edge">
<title>Node1&#45;&gt;Node2</title>
<g id="a_edge1_Node000001_Node000002"><a xlink:title=" ">
<path fill="none" stroke="#63b8ff" d="M147.33,-167.57C120.42,-157.3 89.02,-145.32 65.55,-136.37"/>
<polygon fill="#63b8ff" stroke="#63b8ff" points="67.05,-133.2 56.46,-132.9 64.56,-139.74 67.05,-133.2"/>
</a>
</g>
</g>
<!-- Node3 -->
<g id="Node000003" class="node">
<title>Node3</title>
<g id="a_Node000003"><a xlink:href="win32__window__observer_8hpp.html" target="_top" xlink:title=" ">
<polygon fill="white" stroke="#666666" points="220.12,-132 78.88,-132 78.88,-112 220.12,-112 220.12,-132"/>
<text xml:space="preserve" text-anchor="middle" x="149.5" y="-118.5" font-family="Helvetica,sans-Serif" font-size="10.00">win32_window_observer.hpp</text>
</a>
</g>
</g>
<!-- Node1&#45;&gt;Node3 -->
<g id="edge2_Node000001_Node000003" class="edge">
<title>Node1&#45;&gt;Node3</title>
<g id="a_edge2_Node000001_Node000003"><a xlink:title=" ">
<path fill="none" stroke="#63b8ff" d="M186.12,-167.75C179.11,-159.2 171.12,-149.42 164.39,-141.2"/>
<polygon fill="#63b8ff" stroke="#63b8ff" points="167.21,-139.11 158.16,-133.59 161.79,-143.55 167.21,-139.11"/>
</a>
</g>
</g>
<!-- Node8 -->
<g id="Node000008" class="node">
<title>Node8</title>
<g id="a_Node000008"><a xlink:title=" ">
<polygon fill="#e0e0e0" stroke="#999999" points="276.38,-132 238.62,-132 238.62,-112 276.38,-112 276.38,-132"/>
<text xml:space="preserve" text-anchor="middle" x="257.5" y="-118.5" font-family="Helvetica,sans-Serif" font-size="10.00">array</text>
</a>
</g>
</g>
<!-- Node1&#45;&gt;Node8 -->
<g id="edge8_Node000001_Node000008" class="edge">
<title>Node1&#45;&gt;Node8</title>
<g id="a_edge8_Node000001_Node000008"><a xlink:title=" ">
<path fill="none" stroke="#63b8ff" d="M220.88,-167.75C227.89,-159.2 235.88,-149.42 242.61,-141.2"/>
<polygon fill="#63b8ff" stroke="#63b8ff" points="245.21,-143.55 248.84,-133.59 239.79,-139.11 245.21,-143.55"/>
</a>
</g>
</g>
<!-- Node9 -->
<g id="Node000009" class="node">
<title>Node9</title>
<g id="a_Node000009"><a xlink:title=" ">
<polygon fill="#e0e0e0" stroke="#999999" points="356.75,-132 294.25,-132 294.25,-112 356.75,-112 356.75,-132"/>
<text xml:space="preserve" text-anchor="middle" x="325.5" y="-118.5" font-family="Helvetica,sans-Serif" font-size="10.00">windows.h</text>
</a>
</g>
</g>
<!-- Node1&#45;&gt;Node9 -->
<g id="edge9_Node000001_Node000009" class="edge">
<title>Node1&#45;&gt;Node9</title>
<g id="a_edge9_Node000001_Node000009"><a xlink:title=" ">
<path fill="none" stroke="#63b8ff" d="M243.11,-167.57C261.15,-157.81 282.04,-146.51 298.27,-137.73"/>
<polygon fill="#63b8ff" stroke="#63b8ff" points="299.73,-140.92 306.86,-133.09 296.4,-134.77 299.73,-140.92"/>
</a>
</g>
</g>
<!-- Node4 -->
<g id="Node000004" class="node">
<title>Node4</title>
<g id="a_Node000004"><a xlink:href="singleton_8hpp.html" target="_top" xlink:title=" ">
<polygon fill="white" stroke="#666666" points="160.5,-76 60.5,-76 60.5,-56 160.5,-56 160.5,-76"/>
<text xml:space="preserve" text-anchor="middle" x="110.5" y="-62.5" font-family="Helvetica,sans-Serif" font-size="10.00">utility/singleton.hpp</text>
</a>
</g>
</g>
<!-- Node3&#45;&gt;Node4 -->
<g id="edge3_Node000003_Node000004" class="edge">
<title>Node3&#45;&gt;Node4</title>
<g id="a_edge3_Node000003_Node000004"><a xlink:title=" ">
<path fill="none" stroke="#63b8ff" d="M142.71,-111.59C137.51,-104.39 130.17,-94.23 123.81,-85.43"/>
<polygon fill="#63b8ff" stroke="#63b8ff" points="126.79,-83.58 118.1,-77.53 121.12,-87.68 126.79,-83.58"/>
</a>
</g>
</g>
<!-- Node6 -->
<g id="Node000006" class="node">
<title>Node6</title>
<g id="a_Node000006"><a xlink:title=" ">
<polygon fill="#e0e0e0" stroke="#999999" points="211.12,-20 159.88,-20 159.88,0 211.12,0 211.12,-20"/>
<text xml:space="preserve" text-anchor="middle" x="185.5" y="-6.5" font-family="Helvetica,sans-Serif" font-size="10.00">memory</text>
</a>
</g>
</g>
<!-- Node3&#45;&gt;Node6 -->
<g id="edge7_Node000003_Node000006" class="edge">
<title>Node3&#45;&gt;Node6</title>
<g id="a_edge7_Node000003_Node000006"><a xlink:title=" ">
<path fill="none" stroke="#63b8ff" d="M154.29,-111.54C158.7,-102.57 165.18,-88.62 169.5,-76 174.52,-61.34 178.65,-44.31 181.46,-31.36"/>
<polygon fill="#63b8ff" stroke="#63b8ff" points="184.82,-32.39 183.42,-21.89 177.97,-30.97 184.82,-32.39"/>
</a>
</g>
</g>
<!-- Node5 -->
<g id="Node000005" class="node">
<title>Node5</title>
<g id="a_Node000005"><a xlink:title=" ">
<polygon fill="#e0e0e0" stroke="#999999" points="74.62,-20 26.38,-20 26.38,0 74.62,0 74.62,-20"/>
<text xml:space="preserve" text-anchor="middle" x="50.5" y="-6.5" font-family="Helvetica,sans-Serif" font-size="10.00">cassert</text>
</a>
</g>
</g>
<!-- Node4&#45;&gt;Node5 -->
<g id="edge4_Node000004_Node000005" class="edge">
<title>Node4&#45;&gt;Node5</title>
<g id="a_edge4_Node000004_Node000005"><a xlink:title=" ">
<path fill="none" stroke="#63b8ff" d="M100.05,-55.59C91.53,-47.93 79.29,-36.91 69.11,-27.75"/>
<polygon fill="#63b8ff" stroke="#63b8ff" points="71.73,-25.4 61.96,-21.31 67.05,-30.6 71.73,-25.4"/>
</a>
</g>
</g>
<!-- Node4&#45;&gt;Node6 -->
<g id="edge5_Node000004_Node000006" class="edge">
<title>Node4&#45;&gt;Node6</title>
<g id="a_edge5_Node000004_Node000006"><a xlink:title=" ">
<path fill="none" stroke="#63b8ff" d="M123.56,-55.59C134.47,-47.74 150.25,-36.38 163.16,-27.09"/>
<polygon fill="#63b8ff" stroke="#63b8ff" points="165.04,-30.05 171.11,-21.36 160.95,-24.37 165.04,-30.05"/>
</a>
</g>
</g>
<!-- Node7 -->
<g id="Node000007" class="node">
<title>Node7</title>
<g id="a_Node000007"><a xlink:title=" ">
<polygon fill="#e0e0e0" stroke="#999999" points="136,-20 93,-20 93,0 136,0 136,-20"/>
<text xml:space="preserve" text-anchor="middle" x="114.5" y="-6.5" font-family="Helvetica,sans-Serif" font-size="10.00">mutex</text>
</a>
</g>
</g>
<!-- Node4&#45;&gt;Node7 -->
<g id="edge6_Node000004_Node000007" class="edge">
<title>Node4&#45;&gt;Node7</title>
<g id="a_edge6_Node000004_Node000007"><a xlink:title=" ">
<path fill="none" stroke="#63b8ff" d="M111.2,-55.59C111.68,-49.01 112.35,-39.96 112.96,-31.73"/>
<polygon fill="#63b8ff" stroke="#63b8ff" points="116.45,-32.04 113.7,-21.81 109.47,-31.52 116.45,-32.04"/>
</a>
</g>
</g>
</g>
</svg>
</svg>

<style type='text/css'>
<![CDATA[
[data-mouse-over-selected='false'] { opacity: 0.7; }
[data-mouse-over-selected='true']  { opacity: 1.0; }
]]>
</style>
<script type="application/ecmascript"><![CDATA[
document.addEventListener('DOMContentLoaded', (event) => {
  highlightEdges();
  highlightAdjacentNodes();
});
]]></script>
</svg>
